%TF.GenerationSoftware,KiCad,Pcbnew,(6.0.0)*%
%TF.CreationDate,2022-03-12T11:11:03-07:00*%
%TF.ProjectId,AudioMixer_LBB,41756469-6f4d-4697-9865-725f4c42422e,rev?*%
%TF.SameCoordinates,Original*%
%TF.FileFunction,Soldermask,Top*%
%TF.FilePolarity,Negative*%
%FSLAX46Y46*%
G04 Gerber Fmt 4.6, Leading zero omitted, Abs format (unit mm)*
G04 Created by KiCad (PCBNEW (6.0.0)) date 2022-03-12 11:11:03*
%MOMM*%
%LPD*%
G01*
G04 APERTURE LIST*
%ADD10R,1.200000X1.200000*%
%ADD11C,1.200000*%
%ADD12R,1.700000X1.700000*%
%ADD13O,1.700000X1.700000*%
%ADD14C,1.600000*%
%ADD15O,1.600000X1.600000*%
%ADD16R,2.400000X1.600000*%
%ADD17O,2.400000X1.600000*%
%ADD18C,0.800000*%
%ADD19C,6.400000*%
%ADD20C,4.000000*%
%ADD21C,1.800000*%
%ADD22O,2.700000X1.350000*%
G04 APERTURE END LIST*
D10*
%TO.C,C1*%
X119578001Y-100592200D03*
D11*
X121078001Y-100592200D03*
%TD*%
D12*
%TO.C,J7*%
X152225000Y-113000000D03*
D13*
X154765000Y-113000000D03*
%TD*%
D10*
%TO.C,C3*%
X144827401Y-105050000D03*
D11*
X146327401Y-105050000D03*
%TD*%
D14*
%TO.C,R3*%
X105066000Y-102048000D03*
D15*
X105066000Y-91888000D03*
%TD*%
D14*
%TO.C,R5*%
X130231800Y-106612400D03*
D15*
X130231800Y-96452400D03*
%TD*%
D12*
%TO.C,J6*%
X106500000Y-117250000D03*
D13*
X103960000Y-117250000D03*
X101420000Y-117250000D03*
X98880000Y-117250000D03*
%TD*%
D10*
%TO.C,C4*%
X133900000Y-116572599D03*
D11*
X133900000Y-115072599D03*
%TD*%
D16*
%TO.C,U2*%
X133899400Y-104107800D03*
D17*
X133899400Y-106647800D03*
X133899400Y-109187800D03*
X133899400Y-111727800D03*
X141519400Y-111727800D03*
X141519400Y-109187800D03*
X141519400Y-106647800D03*
X141519400Y-104107800D03*
%TD*%
D18*
%TO.C,H2*%
X156802944Y-125197056D03*
X156100000Y-123500000D03*
X160197056Y-125197056D03*
X158500000Y-121100000D03*
X160900000Y-123500000D03*
X160197056Y-121802944D03*
D19*
X158500000Y-123500000D03*
D18*
X158500000Y-125900000D03*
X156802944Y-121802944D03*
%TD*%
D10*
%TO.C,C2*%
X103778001Y-107192200D03*
D11*
X105278001Y-107192200D03*
%TD*%
D12*
%TO.C,J1*%
X85025000Y-117200000D03*
D13*
X87565000Y-117200000D03*
X90105000Y-117200000D03*
%TD*%
D12*
%TO.C,J5*%
X90700000Y-92925000D03*
D13*
X90700000Y-95465000D03*
%TD*%
D19*
%TO.C,H1*%
X71500000Y-123500000D03*
D18*
X69802944Y-125197056D03*
X69802944Y-121802944D03*
X71500000Y-125900000D03*
X73197056Y-121802944D03*
X71500000Y-121100000D03*
X73900000Y-123500000D03*
X73197056Y-125197056D03*
X69100000Y-123500000D03*
%TD*%
D14*
%TO.C,R1*%
X101738600Y-91913400D03*
D15*
X101738600Y-102073400D03*
%TD*%
D12*
%TO.C,J4*%
X86700000Y-92925000D03*
D13*
X86700000Y-95465000D03*
%TD*%
D14*
%TO.C,R4*%
X126879000Y-96477800D03*
D15*
X126879000Y-106637800D03*
%TD*%
D18*
%TO.C,H4*%
X71500000Y-73900000D03*
X73197056Y-69802944D03*
X69802944Y-73197056D03*
X73900000Y-71500000D03*
X69802944Y-69802944D03*
X69100000Y-71500000D03*
D19*
X71500000Y-71500000D03*
D18*
X71500000Y-69100000D03*
X73197056Y-73197056D03*
%TD*%
D12*
%TO.C,J2*%
X85025000Y-100200000D03*
D13*
X87565000Y-100200000D03*
X90105000Y-100200000D03*
%TD*%
D20*
%TO.C,RV1*%
X102600000Y-79700000D03*
X93800000Y-79700000D03*
D21*
X100700000Y-86700000D03*
X98200000Y-86700000D03*
X95700000Y-86700000D03*
%TD*%
D16*
%TO.C,U1*%
X108632000Y-99518000D03*
D17*
X108632000Y-102058000D03*
X108632000Y-104598000D03*
X108632000Y-107138000D03*
X116252000Y-107138000D03*
X116252000Y-104598000D03*
X116252000Y-102058000D03*
X116252000Y-99518000D03*
%TD*%
D18*
%TO.C,H3*%
X160197056Y-69802944D03*
X156100000Y-71500000D03*
X156802944Y-73197056D03*
X160900000Y-71500000D03*
X156802944Y-69802944D03*
X160197056Y-73197056D03*
X158500000Y-73900000D03*
D19*
X158500000Y-71500000D03*
D18*
X158500000Y-69100000D03*
%TD*%
D20*
%TO.C,RV2*%
X79100000Y-79700000D03*
X87900000Y-79700000D03*
D21*
X86000000Y-86700000D03*
X83500000Y-86700000D03*
X81000000Y-86700000D03*
%TD*%
D20*
%TO.C,RV3*%
X124200000Y-85000000D03*
X115400000Y-85000000D03*
D21*
X122300000Y-92000000D03*
X119800000Y-92000000D03*
X117300000Y-92000000D03*
%TD*%
D14*
%TO.C,R2*%
X98411200Y-91938800D03*
D15*
X98411200Y-102098800D03*
%TD*%
D14*
%TO.C,J3*%
X157400000Y-99150000D03*
X157400000Y-109150000D03*
X152400000Y-104150000D03*
D22*
X152400000Y-109150000D03*
X157400000Y-104150000D03*
X152400000Y-99150000D03*
%TD*%
M02*
