M48
; DRILL file {KiCad (6.0.0)} date Sat Mar 12 11:11:00 2022
; FORMAT={-:-/ absolute / inch / decimal}
; #@! TF.CreationDate,2022-03-12T11:11:00-07:00
; #@! TF.GenerationSoftware,Kicad,Pcbnew,(6.0.0)
; #@! TF.FileFunction,Plated,1,2,PTH
FMAT,2
INCH
; #@! TA.AperFunction,Plated,PTH,ViaDrill
T1C0.0157
; #@! TA.AperFunction,Plated,PTH,ComponentDrill
T2C0.0197
; #@! TA.AperFunction,Plated,PTH,ComponentDrill
T3C0.0236
; #@! TA.AperFunction,Plated,PTH,ComponentDrill
T4C0.0315
; #@! TA.AperFunction,Plated,PTH,ComponentDrill
T5C0.0394
; #@! TA.AperFunction,Plated,PTH,ComponentDrill
T6C0.1260
%
G90
G05
T1
X4.6949Y-4.3504
X4.6949Y-4.4587
X5.6988Y-4.252
X5.6988Y-4.3602
T2
X2.7205Y-2.815
X2.7205Y-4.8622
X2.7481Y-2.7481
X2.7481Y-2.8818
X2.7481Y-4.7954
X2.7481Y-4.929
X2.815Y-2.7205
X2.815Y-2.9094
X2.815Y-4.7677
X2.815Y-4.9567
X2.8818Y-2.7481
X2.8818Y-2.8818
X2.8818Y-4.7954
X2.8818Y-4.929
X2.9094Y-2.815
X2.9094Y-4.8622
X6.1457Y-2.815
X6.1457Y-4.8622
X6.1733Y-2.7481
X6.1733Y-2.8818
X6.1733Y-4.7954
X6.1733Y-4.929
X6.2402Y-2.7205
X6.2402Y-2.9094
X6.2402Y-4.7677
X6.2402Y-4.9567
X6.307Y-2.7481
X6.307Y-2.8818
X6.307Y-4.7954
X6.307Y-4.929
X6.3346Y-2.815
X6.3346Y-4.8622
T3
X4.0857Y-4.2202
X4.1448Y-4.2202
X4.7078Y-3.9603
X4.7669Y-3.9603
X5.2717Y-4.5304
X5.2717Y-4.5895
X5.7019Y-4.1358
X5.7609Y-4.1358
T4
X3.8745Y-3.6196
X3.8745Y-4.0196
X4.0055Y-3.6186
X4.0055Y-4.0186
X4.1365Y-3.6176
X4.1365Y-4.0176
X4.2769Y-3.918
X4.2769Y-4.018
X4.2769Y-4.118
X4.2769Y-4.218
X4.5769Y-3.918
X4.5769Y-4.018
X4.5769Y-4.118
X4.5769Y-4.218
X4.9952Y-3.7983
X4.9952Y-4.1983
X5.1272Y-3.7973
X5.1272Y-4.1973
X5.2716Y-4.0987
X5.2716Y-4.1987
X5.2716Y-4.2987
X5.2716Y-4.3987
X5.5716Y-4.0987
X5.5716Y-4.1987
X5.5716Y-4.2987
X5.5716Y-4.3987
T5
X3.189Y-3.4134
X3.2874Y-3.4134
X3.3474Y-3.9449
X3.3474Y-4.6142
X3.3858Y-3.4134
X3.4134Y-3.6585
X3.4134Y-3.7585
X3.4474Y-3.9449
X3.4474Y-4.6142
X3.5474Y-3.9449
X3.5474Y-4.6142
X3.5709Y-3.6585
X3.5709Y-3.7585
X3.7677Y-3.4134
X3.8661Y-3.4134
X3.8929Y-4.6161
X3.9646Y-3.4134
X3.9929Y-4.6161
X4.0929Y-4.6161
X4.1929Y-4.6161
X4.6181Y-3.622
X4.7165Y-3.622
X4.815Y-3.622
X5.9931Y-4.4488
X6.0931Y-4.4488
T6
X2.815Y-2.815
X2.815Y-4.8622
X6.2402Y-2.815
X6.2402Y-4.8622
T5
G00X6.0098Y-3.9035
M15
G01X5.9902Y-3.9035
M16
G05
G00X6.0098Y-4.2972
M15
G01X5.9902Y-4.2972
M16
G05
G00X6.2067Y-4.1004
M15
G01X6.187Y-4.1004
M16
G05
T0
M30
