%TF.GenerationSoftware,KiCad,Pcbnew,(6.0.0)*%
%TF.CreationDate,2022-03-12T11:11:03-07:00*%
%TF.ProjectId,AudioMixer_LBB,41756469-6f4d-4697-9865-725f4c42422e,rev?*%
%TF.SameCoordinates,Original*%
%TF.FileFunction,Copper,L2,Bot*%
%TF.FilePolarity,Positive*%
%FSLAX46Y46*%
G04 Gerber Fmt 4.6, Leading zero omitted, Abs format (unit mm)*
G04 Created by KiCad (PCBNEW (6.0.0)) date 2022-03-12 11:11:03*
%MOMM*%
%LPD*%
G01*
G04 APERTURE LIST*
%TA.AperFunction,ComponentPad*%
%ADD10R,1.200000X1.200000*%
%TD*%
%TA.AperFunction,ComponentPad*%
%ADD11C,1.200000*%
%TD*%
%TA.AperFunction,ComponentPad*%
%ADD12R,1.700000X1.700000*%
%TD*%
%TA.AperFunction,ComponentPad*%
%ADD13O,1.700000X1.700000*%
%TD*%
%TA.AperFunction,ComponentPad*%
%ADD14C,1.600000*%
%TD*%
%TA.AperFunction,ComponentPad*%
%ADD15O,1.600000X1.600000*%
%TD*%
%TA.AperFunction,ComponentPad*%
%ADD16R,2.400000X1.600000*%
%TD*%
%TA.AperFunction,ComponentPad*%
%ADD17O,2.400000X1.600000*%
%TD*%
%TA.AperFunction,ComponentPad*%
%ADD18C,0.800000*%
%TD*%
%TA.AperFunction,ComponentPad*%
%ADD19C,6.400000*%
%TD*%
%TA.AperFunction,WasherPad*%
%ADD20C,4.000000*%
%TD*%
%TA.AperFunction,ComponentPad*%
%ADD21C,1.800000*%
%TD*%
%TA.AperFunction,ComponentPad*%
%ADD22O,2.700000X1.350000*%
%TD*%
%TA.AperFunction,ViaPad*%
%ADD23C,0.800000*%
%TD*%
%TA.AperFunction,Conductor*%
%ADD24C,0.508000*%
%TD*%
G04 APERTURE END LIST*
D10*
%TO.P,C1,1*%
%TO.N,+15V*%
X119578001Y-100592200D03*
D11*
%TO.P,C1,2*%
%TO.N,GND*%
X121078001Y-100592200D03*
%TD*%
D12*
%TO.P,J7,1,Pin_1*%
%TO.N,/aOUT*%
X152225000Y-113000000D03*
D13*
%TO.P,J7,2,Pin_2*%
%TO.N,GND*%
X154765000Y-113000000D03*
%TD*%
D10*
%TO.P,C3,1*%
%TO.N,+15V*%
X144827401Y-105050000D03*
D11*
%TO.P,C3,2*%
%TO.N,GND*%
X146327401Y-105050000D03*
%TD*%
D14*
%TO.P,R3,1*%
%TO.N,/sum_in*%
X105066000Y-102048000D03*
D15*
%TO.P,R3,2*%
%TO.N,/sum_out*%
X105066000Y-91888000D03*
%TD*%
D14*
%TO.P,R5,1*%
%TO.N,/inv_in*%
X130231800Y-106612400D03*
D15*
%TO.P,R5,2*%
%TO.N,/aOUT*%
X130231800Y-96452400D03*
%TD*%
D12*
%TO.P,J6,1,Pin_1*%
%TO.N,+15V*%
X106500000Y-117250000D03*
D13*
%TO.P,J6,2,Pin_2*%
%TO.N,-15V*%
X103960000Y-117250000D03*
%TO.P,J6,3,Pin_3*%
%TO.N,+5V*%
X101420000Y-117250000D03*
%TO.P,J6,4,Pin_4*%
%TO.N,GND*%
X98880000Y-117250000D03*
%TD*%
D10*
%TO.P,C4,1*%
%TO.N,GND*%
X133900000Y-116572599D03*
D11*
%TO.P,C4,2*%
%TO.N,-15V*%
X133900000Y-115072599D03*
%TD*%
D16*
%TO.P,U2,1,NULL*%
%TO.N,unconnected-(U2-Pad1)*%
X133899400Y-104107800D03*
D17*
%TO.P,U2,2,-*%
%TO.N,/inv_in*%
X133899400Y-106647800D03*
%TO.P,U2,3,+*%
%TO.N,GND*%
X133899400Y-109187800D03*
%TO.P,U2,4,V-*%
%TO.N,-15V*%
X133899400Y-111727800D03*
%TO.P,U2,5,NULL*%
%TO.N,unconnected-(U2-Pad5)*%
X141519400Y-111727800D03*
%TO.P,U2,6*%
%TO.N,/aOUT*%
X141519400Y-109187800D03*
%TO.P,U2,7,V+*%
%TO.N,+15V*%
X141519400Y-106647800D03*
%TO.P,U2,8,NC*%
%TO.N,unconnected-(U2-Pad8)*%
X141519400Y-104107800D03*
%TD*%
D18*
%TO.P,H2,1,1*%
%TO.N,unconnected-(H2-Pad1)*%
X156802944Y-125197056D03*
X156100000Y-123500000D03*
X160197056Y-125197056D03*
X158500000Y-121100000D03*
X160900000Y-123500000D03*
X160197056Y-121802944D03*
D19*
X158500000Y-123500000D03*
D18*
X158500000Y-125900000D03*
X156802944Y-121802944D03*
%TD*%
D10*
%TO.P,C2,1*%
%TO.N,GND*%
X103778001Y-107192200D03*
D11*
%TO.P,C2,2*%
%TO.N,-15V*%
X105278001Y-107192200D03*
%TD*%
D12*
%TO.P,J1,1,Pin_1*%
%TO.N,unconnected-(J1-Pad1)*%
X85025000Y-117200000D03*
D13*
%TO.P,J1,2,Pin_2*%
%TO.N,+5V*%
X87565000Y-117200000D03*
%TO.P,J1,3,Pin_3*%
%TO.N,GND*%
X90105000Y-117200000D03*
%TD*%
D12*
%TO.P,J5,1,Pin_1*%
%TO.N,/aIN_left*%
X90700000Y-92925000D03*
D13*
%TO.P,J5,2,Pin_2*%
%TO.N,/ble_aIN_left*%
X90700000Y-95465000D03*
%TD*%
D19*
%TO.P,H1,1,1*%
%TO.N,unconnected-(H1-Pad1)*%
X71500000Y-123500000D03*
D18*
X69802944Y-125197056D03*
X69802944Y-121802944D03*
X71500000Y-125900000D03*
X73197056Y-121802944D03*
X71500000Y-121100000D03*
X73900000Y-123500000D03*
X73197056Y-125197056D03*
X69100000Y-123500000D03*
%TD*%
D14*
%TO.P,R1,1*%
%TO.N,Net-(R1-Pad1)*%
X101738600Y-91913400D03*
D15*
%TO.P,R1,2*%
%TO.N,/sum_in*%
X101738600Y-102073400D03*
%TD*%
D12*
%TO.P,J4,1,Pin_1*%
%TO.N,/aIN_right*%
X86700000Y-92925000D03*
D13*
%TO.P,J4,2,Pin_2*%
%TO.N,/ble_aIN_right*%
X86700000Y-95465000D03*
%TD*%
D14*
%TO.P,R4,1*%
%TO.N,Net-(R4-Pad1)*%
X126879000Y-96477800D03*
D15*
%TO.P,R4,2*%
%TO.N,/inv_in*%
X126879000Y-106637800D03*
%TD*%
D18*
%TO.P,H4,1,1*%
%TO.N,unconnected-(H4-Pad1)*%
X71500000Y-73900000D03*
X73197056Y-69802944D03*
X69802944Y-73197056D03*
X73900000Y-71500000D03*
X69802944Y-69802944D03*
X69100000Y-71500000D03*
D19*
X71500000Y-71500000D03*
D18*
X71500000Y-69100000D03*
X73197056Y-73197056D03*
%TD*%
D12*
%TO.P,J2,1,Pin_1*%
%TO.N,GND*%
X85025000Y-100200000D03*
D13*
%TO.P,J2,2,Pin_2*%
%TO.N,/ble_aIN_right*%
X87565000Y-100200000D03*
%TO.P,J2,3,Pin_3*%
%TO.N,/ble_aIN_left*%
X90105000Y-100200000D03*
%TD*%
D20*
%TO.P,RV1,*%
%TO.N,*%
X102600000Y-79700000D03*
X93800000Y-79700000D03*
D21*
%TO.P,RV1,1,1*%
%TO.N,/aIN_left*%
X100700000Y-86700000D03*
%TO.P,RV1,2,2*%
%TO.N,Net-(R1-Pad1)*%
X98200000Y-86700000D03*
%TO.P,RV1,3,3*%
%TO.N,GND*%
X95700000Y-86700000D03*
%TD*%
D16*
%TO.P,U1,1,NULL*%
%TO.N,unconnected-(U1-Pad1)*%
X108632000Y-99518000D03*
D17*
%TO.P,U1,2,-*%
%TO.N,/sum_in*%
X108632000Y-102058000D03*
%TO.P,U1,3,+*%
%TO.N,GND*%
X108632000Y-104598000D03*
%TO.P,U1,4,V-*%
%TO.N,-15V*%
X108632000Y-107138000D03*
%TO.P,U1,5,NULL*%
%TO.N,unconnected-(U1-Pad5)*%
X116252000Y-107138000D03*
%TO.P,U1,6*%
%TO.N,/sum_out*%
X116252000Y-104598000D03*
%TO.P,U1,7,V+*%
%TO.N,+15V*%
X116252000Y-102058000D03*
%TO.P,U1,8,NC*%
%TO.N,unconnected-(U1-Pad8)*%
X116252000Y-99518000D03*
%TD*%
D18*
%TO.P,H3,1,1*%
%TO.N,unconnected-(H3-Pad1)*%
X160197056Y-69802944D03*
X156100000Y-71500000D03*
X156802944Y-73197056D03*
X160900000Y-71500000D03*
X156802944Y-69802944D03*
X160197056Y-73197056D03*
X158500000Y-73900000D03*
D19*
X158500000Y-71500000D03*
D18*
X158500000Y-69100000D03*
%TD*%
D20*
%TO.P,RV2,*%
%TO.N,*%
X79100000Y-79700000D03*
X87900000Y-79700000D03*
D21*
%TO.P,RV2,1,1*%
%TO.N,/aIN_right*%
X86000000Y-86700000D03*
%TO.P,RV2,2,2*%
%TO.N,Net-(R2-Pad1)*%
X83500000Y-86700000D03*
%TO.P,RV2,3,3*%
%TO.N,GND*%
X81000000Y-86700000D03*
%TD*%
D20*
%TO.P,RV3,*%
%TO.N,*%
X124200000Y-85000000D03*
X115400000Y-85000000D03*
D21*
%TO.P,RV3,1,1*%
%TO.N,/sum_out*%
X122300000Y-92000000D03*
%TO.P,RV3,2,2*%
%TO.N,Net-(R4-Pad1)*%
X119800000Y-92000000D03*
%TO.P,RV3,3,3*%
%TO.N,GND*%
X117300000Y-92000000D03*
%TD*%
D14*
%TO.P,R2,1*%
%TO.N,Net-(R2-Pad1)*%
X98411200Y-91938800D03*
D15*
%TO.P,R2,2*%
%TO.N,/sum_in*%
X98411200Y-102098800D03*
%TD*%
D22*
%TO.P,J3,R*%
%TO.N,/aOUT*%
X152400000Y-109150000D03*
%TO.P,J3,S*%
%TO.N,GND*%
X157400000Y-104150000D03*
%TO.P,J3,T*%
%TO.N,/aOUT*%
X152400000Y-99150000D03*
%TD*%
D23*
%TO.N,+15V*%
X119250000Y-113250000D03*
X144750000Y-108000000D03*
X144750000Y-110750000D03*
X119250000Y-110500000D03*
%TD*%
D24*
%TO.N,+15V*%
X119250000Y-113250000D02*
X119250000Y-110500000D01*
X144750000Y-110750000D02*
X144750000Y-108000000D01*
%TD*%
%TA.AperFunction,Conductor*%
%TO.N,GND*%
G36*
X156728057Y-68028002D02*
G01*
X156774550Y-68081658D01*
X156784654Y-68151932D01*
X156755160Y-68216512D01*
X156717138Y-68246267D01*
X156643206Y-68283938D01*
X156317207Y-68495643D01*
X156015124Y-68740266D01*
X155740266Y-69015124D01*
X155495643Y-69317207D01*
X155283938Y-69643206D01*
X155282443Y-69646140D01*
X155282439Y-69646147D01*
X155211866Y-69784654D01*
X155107468Y-69989547D01*
X154968167Y-70352438D01*
X154867562Y-70727901D01*
X154806754Y-71111824D01*
X154786411Y-71500000D01*
X154806754Y-71888176D01*
X154867562Y-72272099D01*
X154968167Y-72647562D01*
X155107468Y-73010453D01*
X155108966Y-73013393D01*
X155282439Y-73353852D01*
X155283938Y-73356794D01*
X155495643Y-73682793D01*
X155740266Y-73984876D01*
X156015124Y-74259734D01*
X156317207Y-74504357D01*
X156643205Y-74716062D01*
X156646139Y-74717557D01*
X156646146Y-74717561D01*
X156986607Y-74891034D01*
X156989547Y-74892532D01*
X157352438Y-75031833D01*
X157727901Y-75132438D01*
X157931793Y-75164732D01*
X158108576Y-75192732D01*
X158108584Y-75192733D01*
X158111824Y-75193246D01*
X158500000Y-75213589D01*
X158888176Y-75193246D01*
X158891416Y-75192733D01*
X158891424Y-75192732D01*
X159068207Y-75164732D01*
X159272099Y-75132438D01*
X159647562Y-75031833D01*
X160010453Y-74892532D01*
X160013393Y-74891034D01*
X160353854Y-74717561D01*
X160353861Y-74717557D01*
X160356795Y-74716062D01*
X160682793Y-74504357D01*
X160984876Y-74259734D01*
X161259734Y-73984876D01*
X161504357Y-73682793D01*
X161716062Y-73356794D01*
X161753733Y-73282861D01*
X161802482Y-73231246D01*
X161871397Y-73214180D01*
X161938598Y-73237081D01*
X161982750Y-73292679D01*
X161992000Y-73340064D01*
X161992000Y-121659936D01*
X161971998Y-121728057D01*
X161918342Y-121774550D01*
X161848068Y-121784654D01*
X161783488Y-121755160D01*
X161753733Y-121717139D01*
X161717561Y-121646148D01*
X161716062Y-121643206D01*
X161504357Y-121317207D01*
X161259734Y-121015124D01*
X160984876Y-120740266D01*
X160682793Y-120495643D01*
X160356795Y-120283938D01*
X160353861Y-120282443D01*
X160353854Y-120282439D01*
X160013393Y-120108966D01*
X160010453Y-120107468D01*
X159647562Y-119968167D01*
X159272099Y-119867562D01*
X159068207Y-119835268D01*
X158891424Y-119807268D01*
X158891416Y-119807267D01*
X158888176Y-119806754D01*
X158500000Y-119786411D01*
X158111824Y-119806754D01*
X158108584Y-119807267D01*
X158108576Y-119807268D01*
X157931793Y-119835268D01*
X157727901Y-119867562D01*
X157352438Y-119968167D01*
X156989547Y-120107468D01*
X156986607Y-120108966D01*
X156646147Y-120282439D01*
X156646140Y-120282443D01*
X156643206Y-120283938D01*
X156317207Y-120495643D01*
X156015124Y-120740266D01*
X155740266Y-121015124D01*
X155495643Y-121317207D01*
X155283938Y-121643206D01*
X155282443Y-121646140D01*
X155282439Y-121646147D01*
X155211866Y-121784654D01*
X155107468Y-121989547D01*
X154968167Y-122352438D01*
X154867562Y-122727901D01*
X154806754Y-123111824D01*
X154786411Y-123500000D01*
X154806754Y-123888176D01*
X154867562Y-124272099D01*
X154968167Y-124647562D01*
X155107468Y-125010453D01*
X155108966Y-125013393D01*
X155282439Y-125353852D01*
X155283938Y-125356794D01*
X155495643Y-125682793D01*
X155740266Y-125984876D01*
X156015124Y-126259734D01*
X156317207Y-126504357D01*
X156643205Y-126716062D01*
X156646148Y-126717562D01*
X156646154Y-126717565D01*
X156717138Y-126753733D01*
X156768754Y-126802481D01*
X156785820Y-126871396D01*
X156762919Y-126938598D01*
X156707322Y-126982750D01*
X156659936Y-126992000D01*
X73340064Y-126992000D01*
X73271943Y-126971998D01*
X73225450Y-126918342D01*
X73215346Y-126848068D01*
X73244840Y-126783488D01*
X73282862Y-126753733D01*
X73353846Y-126717565D01*
X73353852Y-126717562D01*
X73356795Y-126716062D01*
X73682793Y-126504357D01*
X73984876Y-126259734D01*
X74259734Y-125984876D01*
X74504357Y-125682793D01*
X74716062Y-125356794D01*
X74717562Y-125353852D01*
X74891034Y-125013393D01*
X74892532Y-125010453D01*
X75031833Y-124647562D01*
X75132438Y-124272099D01*
X75193246Y-123888176D01*
X75213589Y-123500000D01*
X75193246Y-123111824D01*
X75132438Y-122727901D01*
X75031833Y-122352438D01*
X74892532Y-121989547D01*
X74788134Y-121784654D01*
X74717561Y-121646147D01*
X74717557Y-121646140D01*
X74716062Y-121643206D01*
X74504357Y-121317207D01*
X74259734Y-121015124D01*
X73984876Y-120740266D01*
X73682793Y-120495643D01*
X73356795Y-120283938D01*
X73353861Y-120282443D01*
X73353854Y-120282439D01*
X73013393Y-120108966D01*
X73010453Y-120107468D01*
X72647562Y-119968167D01*
X72272099Y-119867562D01*
X72068207Y-119835268D01*
X71891424Y-119807268D01*
X71891416Y-119807267D01*
X71888176Y-119806754D01*
X71500000Y-119786411D01*
X71111824Y-119806754D01*
X71108584Y-119807267D01*
X71108576Y-119807268D01*
X70931793Y-119835268D01*
X70727901Y-119867562D01*
X70352438Y-119968167D01*
X69989547Y-120107468D01*
X69986607Y-120108966D01*
X69646147Y-120282439D01*
X69646140Y-120282443D01*
X69643206Y-120283938D01*
X69317207Y-120495643D01*
X69015124Y-120740266D01*
X68740266Y-121015124D01*
X68495643Y-121317207D01*
X68283938Y-121643206D01*
X68282439Y-121646148D01*
X68246267Y-121717139D01*
X68197518Y-121768754D01*
X68128603Y-121785820D01*
X68061402Y-121762919D01*
X68017250Y-121707321D01*
X68008000Y-121659936D01*
X68008000Y-118098134D01*
X83666500Y-118098134D01*
X83673255Y-118160316D01*
X83724385Y-118296705D01*
X83811739Y-118413261D01*
X83928295Y-118500615D01*
X84064684Y-118551745D01*
X84126866Y-118558500D01*
X85923134Y-118558500D01*
X85985316Y-118551745D01*
X86121705Y-118500615D01*
X86238261Y-118413261D01*
X86325615Y-118296705D01*
X86347799Y-118237529D01*
X86369598Y-118179382D01*
X86412240Y-118122618D01*
X86478802Y-118097918D01*
X86548150Y-118113126D01*
X86582817Y-118141114D01*
X86611250Y-118173938D01*
X86783126Y-118316632D01*
X86976000Y-118429338D01*
X87184692Y-118509030D01*
X87189760Y-118510061D01*
X87189763Y-118510062D01*
X87284862Y-118529410D01*
X87403597Y-118553567D01*
X87408772Y-118553757D01*
X87408774Y-118553757D01*
X87621673Y-118561564D01*
X87621677Y-118561564D01*
X87626837Y-118561753D01*
X87631957Y-118561097D01*
X87631959Y-118561097D01*
X87843288Y-118534025D01*
X87843289Y-118534025D01*
X87848416Y-118533368D01*
X87853366Y-118531883D01*
X88057429Y-118470661D01*
X88057434Y-118470659D01*
X88062384Y-118469174D01*
X88262994Y-118370896D01*
X88444860Y-118241173D01*
X88462156Y-118223938D01*
X88588616Y-118097918D01*
X88603096Y-118083489D01*
X88733453Y-117902077D01*
X88734640Y-117902930D01*
X88781960Y-117859362D01*
X88851897Y-117847145D01*
X88917338Y-117874678D01*
X88945166Y-117906511D01*
X89002694Y-118000388D01*
X89008777Y-118008699D01*
X89148213Y-118169667D01*
X89155580Y-118176883D01*
X89319434Y-118312916D01*
X89327881Y-118318831D01*
X89511756Y-118426279D01*
X89521042Y-118430729D01*
X89720001Y-118506703D01*
X89729899Y-118509579D01*
X89833250Y-118530606D01*
X89847299Y-118529410D01*
X89851000Y-118519065D01*
X89851000Y-118518517D01*
X90359000Y-118518517D01*
X90363064Y-118532359D01*
X90376478Y-118534393D01*
X90383184Y-118533534D01*
X90393262Y-118531392D01*
X90597255Y-118470191D01*
X90606842Y-118466433D01*
X90798095Y-118372739D01*
X90806945Y-118367464D01*
X90980328Y-118243792D01*
X90988200Y-118237139D01*
X91139052Y-118086812D01*
X91145730Y-118078965D01*
X91270003Y-117906020D01*
X91275313Y-117897183D01*
X91369670Y-117706267D01*
X91373469Y-117696672D01*
X91427764Y-117517966D01*
X97548257Y-117517966D01*
X97578565Y-117652446D01*
X97581645Y-117662275D01*
X97661770Y-117859603D01*
X97666413Y-117868794D01*
X97777694Y-118050388D01*
X97783777Y-118058699D01*
X97923213Y-118219667D01*
X97930580Y-118226883D01*
X98094434Y-118362916D01*
X98102881Y-118368831D01*
X98286756Y-118476279D01*
X98296042Y-118480729D01*
X98495001Y-118556703D01*
X98504899Y-118559579D01*
X98608250Y-118580606D01*
X98622299Y-118579410D01*
X98626000Y-118569065D01*
X98626000Y-118568517D01*
X99134000Y-118568517D01*
X99138064Y-118582359D01*
X99151478Y-118584393D01*
X99158184Y-118583534D01*
X99168262Y-118581392D01*
X99372255Y-118520191D01*
X99381842Y-118516433D01*
X99573095Y-118422739D01*
X99581945Y-118417464D01*
X99755328Y-118293792D01*
X99763200Y-118287139D01*
X99914052Y-118136812D01*
X99920730Y-118128965D01*
X100048022Y-117951819D01*
X100049279Y-117952722D01*
X100096373Y-117909362D01*
X100166311Y-117897145D01*
X100231751Y-117924678D01*
X100259579Y-117956511D01*
X100319987Y-118055088D01*
X100466250Y-118223938D01*
X100638126Y-118366632D01*
X100831000Y-118479338D01*
X101039692Y-118559030D01*
X101044760Y-118560061D01*
X101044763Y-118560062D01*
X101139862Y-118579410D01*
X101258597Y-118603567D01*
X101263772Y-118603757D01*
X101263774Y-118603757D01*
X101476673Y-118611564D01*
X101476677Y-118611564D01*
X101481837Y-118611753D01*
X101486957Y-118611097D01*
X101486959Y-118611097D01*
X101698288Y-118584025D01*
X101698289Y-118584025D01*
X101703416Y-118583368D01*
X101708366Y-118581883D01*
X101912429Y-118520661D01*
X101912434Y-118520659D01*
X101917384Y-118519174D01*
X102117994Y-118420896D01*
X102299860Y-118291173D01*
X102458096Y-118133489D01*
X102494025Y-118083489D01*
X102588453Y-117952077D01*
X102589776Y-117953028D01*
X102636645Y-117909857D01*
X102706580Y-117897625D01*
X102772026Y-117925144D01*
X102799875Y-117956994D01*
X102859987Y-118055088D01*
X103006250Y-118223938D01*
X103178126Y-118366632D01*
X103371000Y-118479338D01*
X103579692Y-118559030D01*
X103584760Y-118560061D01*
X103584763Y-118560062D01*
X103679862Y-118579410D01*
X103798597Y-118603567D01*
X103803772Y-118603757D01*
X103803774Y-118603757D01*
X104016673Y-118611564D01*
X104016677Y-118611564D01*
X104021837Y-118611753D01*
X104026957Y-118611097D01*
X104026959Y-118611097D01*
X104238288Y-118584025D01*
X104238289Y-118584025D01*
X104243416Y-118583368D01*
X104248366Y-118581883D01*
X104452429Y-118520661D01*
X104452434Y-118520659D01*
X104457384Y-118519174D01*
X104657994Y-118420896D01*
X104839860Y-118291173D01*
X104948091Y-118183319D01*
X105010462Y-118149404D01*
X105081268Y-118154592D01*
X105138030Y-118197238D01*
X105155012Y-118228341D01*
X105177055Y-118287139D01*
X105199385Y-118346705D01*
X105286739Y-118463261D01*
X105403295Y-118550615D01*
X105539684Y-118601745D01*
X105601866Y-118608500D01*
X107398134Y-118608500D01*
X107460316Y-118601745D01*
X107596705Y-118550615D01*
X107713261Y-118463261D01*
X107800615Y-118346705D01*
X107851745Y-118210316D01*
X107858500Y-118148134D01*
X107858500Y-117217268D01*
X132792001Y-117217268D01*
X132792371Y-117224089D01*
X132797895Y-117274951D01*
X132801521Y-117290203D01*
X132846676Y-117410653D01*
X132855214Y-117426248D01*
X132931715Y-117528323D01*
X132944276Y-117540884D01*
X133046351Y-117617385D01*
X133061946Y-117625923D01*
X133182394Y-117671077D01*
X133197649Y-117674704D01*
X133248514Y-117680230D01*
X133255328Y-117680599D01*
X133627885Y-117680599D01*
X133643124Y-117676124D01*
X133644329Y-117674734D01*
X133646000Y-117667051D01*
X133646000Y-117662483D01*
X134154000Y-117662483D01*
X134158475Y-117677722D01*
X134159865Y-117678927D01*
X134167548Y-117680598D01*
X134544669Y-117680598D01*
X134551490Y-117680228D01*
X134602352Y-117674704D01*
X134617604Y-117671078D01*
X134738054Y-117625923D01*
X134753649Y-117617385D01*
X134855724Y-117540884D01*
X134868285Y-117528323D01*
X134944786Y-117426248D01*
X134953324Y-117410653D01*
X134998478Y-117290205D01*
X135002105Y-117274950D01*
X135007631Y-117224085D01*
X135008000Y-117217271D01*
X135008000Y-116844714D01*
X135003525Y-116829475D01*
X135002135Y-116828270D01*
X134994452Y-116826599D01*
X134172115Y-116826599D01*
X134156876Y-116831074D01*
X134155671Y-116832464D01*
X134154000Y-116840147D01*
X134154000Y-117662483D01*
X133646000Y-117662483D01*
X133646000Y-116844714D01*
X133641525Y-116829475D01*
X133640135Y-116828270D01*
X133632452Y-116826599D01*
X132810116Y-116826599D01*
X132794877Y-116831074D01*
X132793672Y-116832464D01*
X132792001Y-116840147D01*
X132792001Y-117217268D01*
X107858500Y-117217268D01*
X107858500Y-116351866D01*
X107851745Y-116289684D01*
X107800615Y-116153295D01*
X107713261Y-116036739D01*
X107596705Y-115949385D01*
X107460316Y-115898255D01*
X107398134Y-115891500D01*
X105601866Y-115891500D01*
X105539684Y-115898255D01*
X105403295Y-115949385D01*
X105286739Y-116036739D01*
X105199385Y-116153295D01*
X105196233Y-116161703D01*
X105154919Y-116271907D01*
X105112277Y-116328671D01*
X105045716Y-116353371D01*
X104976367Y-116338163D01*
X104943743Y-116312476D01*
X104893151Y-116256875D01*
X104893142Y-116256866D01*
X104889670Y-116253051D01*
X104885619Y-116249852D01*
X104885615Y-116249848D01*
X104718414Y-116117800D01*
X104718410Y-116117798D01*
X104714359Y-116114598D01*
X104678028Y-116094542D01*
X104662136Y-116085769D01*
X104518789Y-116006638D01*
X104513920Y-116004914D01*
X104513916Y-116004912D01*
X104313087Y-115933795D01*
X104313083Y-115933794D01*
X104308212Y-115932069D01*
X104303119Y-115931162D01*
X104303116Y-115931161D01*
X104093373Y-115893800D01*
X104093367Y-115893799D01*
X104088284Y-115892894D01*
X104014452Y-115891992D01*
X103870081Y-115890228D01*
X103870079Y-115890228D01*
X103864911Y-115890165D01*
X103644091Y-115923955D01*
X103431756Y-115993357D01*
X103358757Y-116031358D01*
X103288753Y-116067800D01*
X103233607Y-116096507D01*
X103229474Y-116099610D01*
X103229471Y-116099612D01*
X103091703Y-116203051D01*
X103054965Y-116230635D01*
X103029541Y-116257240D01*
X102927082Y-116364457D01*
X102900629Y-116392138D01*
X102793201Y-116549621D01*
X102738293Y-116594621D01*
X102667768Y-116602792D01*
X102604021Y-116571538D01*
X102583324Y-116547054D01*
X102502822Y-116422617D01*
X102502820Y-116422614D01*
X102500014Y-116418277D01*
X102349670Y-116253051D01*
X102345619Y-116249852D01*
X102345615Y-116249848D01*
X102178414Y-116117800D01*
X102178410Y-116117798D01*
X102174359Y-116114598D01*
X102138028Y-116094542D01*
X102122136Y-116085769D01*
X101978789Y-116006638D01*
X101973920Y-116004914D01*
X101973916Y-116004912D01*
X101773087Y-115933795D01*
X101773083Y-115933794D01*
X101768212Y-115932069D01*
X101763119Y-115931162D01*
X101763116Y-115931161D01*
X101553373Y-115893800D01*
X101553367Y-115893799D01*
X101548284Y-115892894D01*
X101474452Y-115891992D01*
X101330081Y-115890228D01*
X101330079Y-115890228D01*
X101324911Y-115890165D01*
X101104091Y-115923955D01*
X100891756Y-115993357D01*
X100818757Y-116031358D01*
X100748753Y-116067800D01*
X100693607Y-116096507D01*
X100689474Y-116099610D01*
X100689471Y-116099612D01*
X100551703Y-116203051D01*
X100514965Y-116230635D01*
X100489541Y-116257240D01*
X100387082Y-116364457D01*
X100360629Y-116392138D01*
X100357720Y-116396403D01*
X100357714Y-116396411D01*
X100345404Y-116414457D01*
X100253204Y-116549618D01*
X100252898Y-116550066D01*
X100197987Y-116595069D01*
X100127462Y-116603240D01*
X100063715Y-116571986D01*
X100043018Y-116547502D01*
X99962426Y-116422926D01*
X99956136Y-116414757D01*
X99812806Y-116257240D01*
X99805273Y-116250215D01*
X99638139Y-116118222D01*
X99629552Y-116112517D01*
X99443117Y-116009599D01*
X99433705Y-116005369D01*
X99232959Y-115934280D01*
X99222988Y-115931646D01*
X99151837Y-115918972D01*
X99138540Y-115920432D01*
X99134000Y-115934989D01*
X99134000Y-118568517D01*
X98626000Y-118568517D01*
X98626000Y-117522115D01*
X98621525Y-117506876D01*
X98620135Y-117505671D01*
X98612452Y-117504000D01*
X97563225Y-117504000D01*
X97549694Y-117507973D01*
X97548257Y-117517966D01*
X91427764Y-117517966D01*
X91435377Y-117492910D01*
X91437555Y-117482837D01*
X91438986Y-117471962D01*
X91436775Y-117457778D01*
X91423617Y-117454000D01*
X90377115Y-117454000D01*
X90361876Y-117458475D01*
X90360671Y-117459865D01*
X90359000Y-117467548D01*
X90359000Y-118518517D01*
X89851000Y-118518517D01*
X89851000Y-116984183D01*
X97544389Y-116984183D01*
X97545912Y-116992607D01*
X97558292Y-116996000D01*
X98607885Y-116996000D01*
X98623124Y-116991525D01*
X98624329Y-116990135D01*
X98626000Y-116982452D01*
X98626000Y-115933102D01*
X98622082Y-115919758D01*
X98607806Y-115917771D01*
X98569324Y-115923660D01*
X98559288Y-115926051D01*
X98356868Y-115992212D01*
X98347359Y-115996209D01*
X98158463Y-116094542D01*
X98149738Y-116100036D01*
X97979433Y-116227905D01*
X97971726Y-116234748D01*
X97824590Y-116388717D01*
X97818104Y-116396727D01*
X97698098Y-116572649D01*
X97693000Y-116581623D01*
X97603338Y-116774783D01*
X97599775Y-116784470D01*
X97544389Y-116984183D01*
X89851000Y-116984183D01*
X89851000Y-116927885D01*
X90359000Y-116927885D01*
X90363475Y-116943124D01*
X90364865Y-116944329D01*
X90372548Y-116946000D01*
X91423344Y-116946000D01*
X91436875Y-116942027D01*
X91438180Y-116932947D01*
X91396214Y-116765875D01*
X91392894Y-116756124D01*
X91307972Y-116560814D01*
X91303105Y-116551739D01*
X91187426Y-116372926D01*
X91181136Y-116364757D01*
X91037806Y-116207240D01*
X91030273Y-116200215D01*
X90863139Y-116068222D01*
X90854552Y-116062517D01*
X90668117Y-115959599D01*
X90658705Y-115955369D01*
X90457959Y-115884280D01*
X90447988Y-115881646D01*
X90376837Y-115868972D01*
X90363540Y-115870432D01*
X90359000Y-115884989D01*
X90359000Y-116927885D01*
X89851000Y-116927885D01*
X89851000Y-115883102D01*
X89847082Y-115869758D01*
X89832806Y-115867771D01*
X89794324Y-115873660D01*
X89784288Y-115876051D01*
X89581868Y-115942212D01*
X89572359Y-115946209D01*
X89383463Y-116044542D01*
X89374738Y-116050036D01*
X89204433Y-116177905D01*
X89196726Y-116184748D01*
X89049590Y-116338717D01*
X89043109Y-116346722D01*
X88938498Y-116500074D01*
X88883587Y-116545076D01*
X88813062Y-116553247D01*
X88749315Y-116521993D01*
X88728618Y-116497509D01*
X88647822Y-116372617D01*
X88647820Y-116372614D01*
X88645014Y-116368277D01*
X88494670Y-116203051D01*
X88490619Y-116199852D01*
X88490615Y-116199848D01*
X88323414Y-116067800D01*
X88323410Y-116067798D01*
X88319359Y-116064598D01*
X88283028Y-116044542D01*
X88212065Y-116005369D01*
X88123789Y-115956638D01*
X88118920Y-115954914D01*
X88118916Y-115954912D01*
X87918087Y-115883795D01*
X87918083Y-115883794D01*
X87913212Y-115882069D01*
X87908119Y-115881162D01*
X87908116Y-115881161D01*
X87698373Y-115843800D01*
X87698367Y-115843799D01*
X87693284Y-115842894D01*
X87619452Y-115841992D01*
X87475081Y-115840228D01*
X87475079Y-115840228D01*
X87469911Y-115840165D01*
X87249091Y-115873955D01*
X87036756Y-115943357D01*
X86963757Y-115981358D01*
X86915195Y-116006638D01*
X86838607Y-116046507D01*
X86834474Y-116049610D01*
X86834471Y-116049612D01*
X86664100Y-116177530D01*
X86659965Y-116180635D01*
X86586760Y-116257240D01*
X86579283Y-116265064D01*
X86517759Y-116300494D01*
X86446846Y-116297037D01*
X86389060Y-116255791D01*
X86370207Y-116222243D01*
X86328767Y-116111703D01*
X86325615Y-116103295D01*
X86238261Y-115986739D01*
X86121705Y-115899385D01*
X85985316Y-115848255D01*
X85923134Y-115841500D01*
X84126866Y-115841500D01*
X84064684Y-115848255D01*
X83928295Y-115899385D01*
X83811739Y-115986739D01*
X83724385Y-116103295D01*
X83673255Y-116239684D01*
X83666500Y-116301866D01*
X83666500Y-118098134D01*
X68008000Y-118098134D01*
X68008000Y-115043458D01*
X132787132Y-115043458D01*
X132800457Y-115246750D01*
X132850605Y-115444209D01*
X132885513Y-115519930D01*
X132899334Y-115549910D01*
X132909689Y-115620147D01*
X132885735Y-115678226D01*
X132855209Y-115718957D01*
X132846678Y-115734540D01*
X132801522Y-115854993D01*
X132797895Y-115870248D01*
X132792369Y-115921113D01*
X132792000Y-115927927D01*
X132792000Y-116300484D01*
X132796475Y-116315723D01*
X132797865Y-116316928D01*
X132805548Y-116318599D01*
X134989884Y-116318599D01*
X135005123Y-116314124D01*
X135006328Y-116312734D01*
X135007999Y-116305051D01*
X135007999Y-115927930D01*
X135007629Y-115921109D01*
X135002105Y-115870247D01*
X134998479Y-115854995D01*
X134953324Y-115734545D01*
X134944789Y-115718955D01*
X134916014Y-115680561D01*
X134891167Y-115614054D01*
X134906905Y-115543432D01*
X134914183Y-115530435D01*
X134917004Y-115525398D01*
X134982490Y-115332482D01*
X135011723Y-115130862D01*
X135013249Y-115072599D01*
X134994608Y-114869725D01*
X134939307Y-114673646D01*
X134928680Y-114652095D01*
X134851756Y-114496109D01*
X134849201Y-114490928D01*
X134830796Y-114466280D01*
X134730758Y-114332314D01*
X134730758Y-114332313D01*
X134727305Y-114327690D01*
X134637646Y-114244810D01*
X134581943Y-114193318D01*
X134581940Y-114193316D01*
X134577703Y-114189399D01*
X134465859Y-114118831D01*
X134410288Y-114083768D01*
X134410283Y-114083766D01*
X134405404Y-114080687D01*
X134216180Y-114005194D01*
X134016366Y-113965448D01*
X134010592Y-113965372D01*
X134010588Y-113965372D01*
X133907452Y-113964023D01*
X133812655Y-113962782D01*
X133806958Y-113963761D01*
X133806957Y-113963761D01*
X133617567Y-113996304D01*
X133611870Y-113997283D01*
X133420734Y-114067797D01*
X133415773Y-114070749D01*
X133415772Y-114070749D01*
X133268277Y-114158500D01*
X133245649Y-114171962D01*
X133092478Y-114306289D01*
X133088911Y-114310814D01*
X133088906Y-114310819D01*
X133051609Y-114358131D01*
X132966351Y-114466280D01*
X132871492Y-114646577D01*
X132811078Y-114841142D01*
X132787132Y-115043458D01*
X68008000Y-115043458D01*
X68008000Y-113250000D01*
X118336496Y-113250000D01*
X118356458Y-113439928D01*
X118415473Y-113621556D01*
X118510960Y-113786944D01*
X118515378Y-113791851D01*
X118515379Y-113791852D01*
X118611076Y-113898134D01*
X118638747Y-113928866D01*
X118793248Y-114041118D01*
X118799276Y-114043802D01*
X118799278Y-114043803D01*
X118961681Y-114116109D01*
X118967712Y-114118794D01*
X119061112Y-114138647D01*
X119148056Y-114157128D01*
X119148061Y-114157128D01*
X119154513Y-114158500D01*
X119345487Y-114158500D01*
X119351939Y-114157128D01*
X119351944Y-114157128D01*
X119438888Y-114138647D01*
X119532288Y-114118794D01*
X119538319Y-114116109D01*
X119700722Y-114043803D01*
X119700724Y-114043802D01*
X119706752Y-114041118D01*
X119861253Y-113928866D01*
X119888924Y-113898134D01*
X150866500Y-113898134D01*
X150873255Y-113960316D01*
X150924385Y-114096705D01*
X151011739Y-114213261D01*
X151128295Y-114300615D01*
X151264684Y-114351745D01*
X151326866Y-114358500D01*
X153123134Y-114358500D01*
X153185316Y-114351745D01*
X153321705Y-114300615D01*
X153438261Y-114213261D01*
X153525615Y-114096705D01*
X153532422Y-114078547D01*
X153569798Y-113978848D01*
X153612440Y-113922084D01*
X153679001Y-113897384D01*
X153748350Y-113912592D01*
X153783017Y-113940580D01*
X153808218Y-113969673D01*
X153815580Y-113976883D01*
X153979434Y-114112916D01*
X153987881Y-114118831D01*
X154171756Y-114226279D01*
X154181042Y-114230729D01*
X154380001Y-114306703D01*
X154389899Y-114309579D01*
X154493250Y-114330606D01*
X154507299Y-114329410D01*
X154511000Y-114319065D01*
X154511000Y-114318517D01*
X155019000Y-114318517D01*
X155023064Y-114332359D01*
X155036478Y-114334393D01*
X155043184Y-114333534D01*
X155053262Y-114331392D01*
X155257255Y-114270191D01*
X155266842Y-114266433D01*
X155458095Y-114172739D01*
X155466945Y-114167464D01*
X155640328Y-114043792D01*
X155648200Y-114037139D01*
X155799052Y-113886812D01*
X155805730Y-113878965D01*
X155930003Y-113706020D01*
X155935313Y-113697183D01*
X156029670Y-113506267D01*
X156033469Y-113496672D01*
X156095377Y-113292910D01*
X156097555Y-113282837D01*
X156098986Y-113271962D01*
X156096775Y-113257778D01*
X156083617Y-113254000D01*
X155037115Y-113254000D01*
X155021876Y-113258475D01*
X155020671Y-113259865D01*
X155019000Y-113267548D01*
X155019000Y-114318517D01*
X154511000Y-114318517D01*
X154511000Y-112727885D01*
X155019000Y-112727885D01*
X155023475Y-112743124D01*
X155024865Y-112744329D01*
X155032548Y-112746000D01*
X156083344Y-112746000D01*
X156096875Y-112742027D01*
X156098180Y-112732947D01*
X156056214Y-112565875D01*
X156052894Y-112556124D01*
X155967972Y-112360814D01*
X155963105Y-112351739D01*
X155847426Y-112172926D01*
X155841136Y-112164757D01*
X155697806Y-112007240D01*
X155690273Y-112000215D01*
X155523139Y-111868222D01*
X155514552Y-111862517D01*
X155328117Y-111759599D01*
X155318705Y-111755369D01*
X155117959Y-111684280D01*
X155107988Y-111681646D01*
X155036837Y-111668972D01*
X155023540Y-111670432D01*
X155019000Y-111684989D01*
X155019000Y-112727885D01*
X154511000Y-112727885D01*
X154511000Y-111683102D01*
X154507082Y-111669758D01*
X154492806Y-111667771D01*
X154454324Y-111673660D01*
X154444288Y-111676051D01*
X154241868Y-111742212D01*
X154232359Y-111746209D01*
X154043463Y-111844542D01*
X154034738Y-111850036D01*
X153864433Y-111977905D01*
X153856726Y-111984748D01*
X153779478Y-112065584D01*
X153717954Y-112101014D01*
X153647042Y-112097557D01*
X153589255Y-112056311D01*
X153570402Y-112022763D01*
X153528767Y-111911703D01*
X153525615Y-111903295D01*
X153438261Y-111786739D01*
X153321705Y-111699385D01*
X153185316Y-111648255D01*
X153123134Y-111641500D01*
X151326866Y-111641500D01*
X151264684Y-111648255D01*
X151128295Y-111699385D01*
X151011739Y-111786739D01*
X150924385Y-111903295D01*
X150873255Y-112039684D01*
X150866500Y-112101866D01*
X150866500Y-113898134D01*
X119888924Y-113898134D01*
X119984621Y-113791852D01*
X119984622Y-113791851D01*
X119989040Y-113786944D01*
X120084527Y-113621556D01*
X120143542Y-113439928D01*
X120163504Y-113250000D01*
X120143542Y-113060072D01*
X120084527Y-112878444D01*
X120078295Y-112867649D01*
X120029381Y-112782929D01*
X120012500Y-112719929D01*
X120012500Y-111727800D01*
X132185902Y-111727800D01*
X132205857Y-111955887D01*
X132207281Y-111961200D01*
X132207281Y-111961202D01*
X132243818Y-112097557D01*
X132265116Y-112177043D01*
X132267439Y-112182024D01*
X132267439Y-112182025D01*
X132359551Y-112379562D01*
X132359554Y-112379567D01*
X132361877Y-112384549D01*
X132493202Y-112572100D01*
X132655100Y-112733998D01*
X132659608Y-112737155D01*
X132659611Y-112737157D01*
X132737789Y-112791898D01*
X132842651Y-112865323D01*
X132847633Y-112867646D01*
X132847638Y-112867649D01*
X133045175Y-112959761D01*
X133050157Y-112962084D01*
X133055465Y-112963506D01*
X133055467Y-112963507D01*
X133265998Y-113019919D01*
X133266000Y-113019919D01*
X133271313Y-113021343D01*
X133370880Y-113030054D01*
X133439549Y-113036062D01*
X133439556Y-113036062D01*
X133442273Y-113036300D01*
X134356527Y-113036300D01*
X134359244Y-113036062D01*
X134359251Y-113036062D01*
X134427920Y-113030054D01*
X134527487Y-113021343D01*
X134532800Y-113019919D01*
X134532802Y-113019919D01*
X134743333Y-112963507D01*
X134743335Y-112963506D01*
X134748643Y-112962084D01*
X134753625Y-112959761D01*
X134951162Y-112867649D01*
X134951167Y-112867646D01*
X134956149Y-112865323D01*
X135061011Y-112791898D01*
X135139189Y-112737157D01*
X135139192Y-112737155D01*
X135143700Y-112733998D01*
X135305598Y-112572100D01*
X135436923Y-112384549D01*
X135439246Y-112379567D01*
X135439249Y-112379562D01*
X135531361Y-112182025D01*
X135531361Y-112182024D01*
X135533684Y-112177043D01*
X135554983Y-112097557D01*
X135591519Y-111961202D01*
X135591519Y-111961200D01*
X135592943Y-111955887D01*
X135612898Y-111727800D01*
X139805902Y-111727800D01*
X139825857Y-111955887D01*
X139827281Y-111961200D01*
X139827281Y-111961202D01*
X139863818Y-112097557D01*
X139885116Y-112177043D01*
X139887439Y-112182024D01*
X139887439Y-112182025D01*
X139979551Y-112379562D01*
X139979554Y-112379567D01*
X139981877Y-112384549D01*
X140113202Y-112572100D01*
X140275100Y-112733998D01*
X140279608Y-112737155D01*
X140279611Y-112737157D01*
X140357789Y-112791898D01*
X140462651Y-112865323D01*
X140467633Y-112867646D01*
X140467638Y-112867649D01*
X140665175Y-112959761D01*
X140670157Y-112962084D01*
X140675465Y-112963506D01*
X140675467Y-112963507D01*
X140885998Y-113019919D01*
X140886000Y-113019919D01*
X140891313Y-113021343D01*
X140990880Y-113030054D01*
X141059549Y-113036062D01*
X141059556Y-113036062D01*
X141062273Y-113036300D01*
X141976527Y-113036300D01*
X141979244Y-113036062D01*
X141979251Y-113036062D01*
X142047920Y-113030054D01*
X142147487Y-113021343D01*
X142152800Y-113019919D01*
X142152802Y-113019919D01*
X142363333Y-112963507D01*
X142363335Y-112963506D01*
X142368643Y-112962084D01*
X142373625Y-112959761D01*
X142571162Y-112867649D01*
X142571167Y-112867646D01*
X142576149Y-112865323D01*
X142681011Y-112791898D01*
X142759189Y-112737157D01*
X142759192Y-112737155D01*
X142763700Y-112733998D01*
X142925598Y-112572100D01*
X143056923Y-112384549D01*
X143059246Y-112379567D01*
X143059249Y-112379562D01*
X143151361Y-112182025D01*
X143151361Y-112182024D01*
X143153684Y-112177043D01*
X143174983Y-112097557D01*
X143211519Y-111961202D01*
X143211519Y-111961200D01*
X143212943Y-111955887D01*
X143232898Y-111727800D01*
X143212943Y-111499713D01*
X143195000Y-111432749D01*
X143155107Y-111283867D01*
X143155106Y-111283865D01*
X143153684Y-111278557D01*
X143151361Y-111273575D01*
X143059249Y-111076038D01*
X143059246Y-111076033D01*
X143056923Y-111071051D01*
X142969505Y-110946206D01*
X142928757Y-110888011D01*
X142928755Y-110888008D01*
X142925598Y-110883500D01*
X142792098Y-110750000D01*
X143836496Y-110750000D01*
X143856458Y-110939928D01*
X143915473Y-111121556D01*
X144010960Y-111286944D01*
X144138747Y-111428866D01*
X144293248Y-111541118D01*
X144299276Y-111543802D01*
X144299278Y-111543803D01*
X144461681Y-111616109D01*
X144467712Y-111618794D01*
X144561112Y-111638647D01*
X144648056Y-111657128D01*
X144648061Y-111657128D01*
X144654513Y-111658500D01*
X144845487Y-111658500D01*
X144851939Y-111657128D01*
X144851944Y-111657128D01*
X144938888Y-111638647D01*
X145032288Y-111618794D01*
X145038319Y-111616109D01*
X145200722Y-111543803D01*
X145200724Y-111543802D01*
X145206752Y-111541118D01*
X145361253Y-111428866D01*
X145489040Y-111286944D01*
X145584527Y-111121556D01*
X145643542Y-110939928D01*
X145663504Y-110750000D01*
X145657190Y-110689928D01*
X145644232Y-110566635D01*
X145644232Y-110566633D01*
X145643542Y-110560072D01*
X145584527Y-110378444D01*
X145529381Y-110282928D01*
X145512500Y-110219929D01*
X145512500Y-109243254D01*
X150540094Y-109243254D01*
X150541073Y-109248951D01*
X150541073Y-109248952D01*
X150574211Y-109441800D01*
X150576930Y-109457625D01*
X150652214Y-109661693D01*
X150763427Y-109848624D01*
X150906842Y-110012158D01*
X150911373Y-110015730D01*
X151054350Y-110128444D01*
X151077658Y-110146819D01*
X151270154Y-110248095D01*
X151312342Y-110261195D01*
X151472361Y-110310883D01*
X151472364Y-110310884D01*
X151477882Y-110312597D01*
X151483619Y-110313276D01*
X151650803Y-110333064D01*
X151650810Y-110333064D01*
X151654490Y-110333500D01*
X153130176Y-110333500D01*
X153291600Y-110318667D01*
X153297162Y-110317098D01*
X153297164Y-110317098D01*
X153418318Y-110282929D01*
X153500945Y-110259626D01*
X153696026Y-110163423D01*
X153705702Y-110156198D01*
X153865685Y-110036733D01*
X153865686Y-110036732D01*
X153870309Y-110033280D01*
X153875570Y-110027589D01*
X154014037Y-109877796D01*
X154014039Y-109877793D01*
X154017956Y-109873556D01*
X154134024Y-109689599D01*
X154214624Y-109487572D01*
X154257059Y-109274239D01*
X154257541Y-109237472D01*
X154258686Y-109150000D01*
X156086502Y-109150000D01*
X156106457Y-109378087D01*
X156107881Y-109383400D01*
X156107881Y-109383402D01*
X156135794Y-109487572D01*
X156165716Y-109599243D01*
X156168039Y-109604224D01*
X156168039Y-109604225D01*
X156260151Y-109801762D01*
X156260154Y-109801767D01*
X156262477Y-109806749D01*
X156309256Y-109873556D01*
X156371925Y-109963056D01*
X156393802Y-109994300D01*
X156555700Y-110156198D01*
X156560208Y-110159355D01*
X156560211Y-110159357D01*
X156614195Y-110197157D01*
X156743251Y-110287523D01*
X156748233Y-110289846D01*
X156748238Y-110289849D01*
X156925960Y-110372721D01*
X156950757Y-110384284D01*
X156956065Y-110385706D01*
X156956067Y-110385707D01*
X157166598Y-110442119D01*
X157166600Y-110442119D01*
X157171913Y-110443543D01*
X157271480Y-110452254D01*
X157340149Y-110458262D01*
X157340156Y-110458262D01*
X157342873Y-110458500D01*
X157457127Y-110458500D01*
X157459844Y-110458262D01*
X157459851Y-110458262D01*
X157528520Y-110452254D01*
X157628087Y-110443543D01*
X157633400Y-110442119D01*
X157633402Y-110442119D01*
X157843933Y-110385707D01*
X157843935Y-110385706D01*
X157849243Y-110384284D01*
X157874040Y-110372721D01*
X158051762Y-110289849D01*
X158051767Y-110289846D01*
X158056749Y-110287523D01*
X158185805Y-110197157D01*
X158239789Y-110159357D01*
X158239792Y-110159355D01*
X158244300Y-110156198D01*
X158406198Y-109994300D01*
X158428076Y-109963056D01*
X158490744Y-109873556D01*
X158537523Y-109806749D01*
X158539846Y-109801767D01*
X158539849Y-109801762D01*
X158631961Y-109604225D01*
X158631961Y-109604224D01*
X158634284Y-109599243D01*
X158664207Y-109487572D01*
X158692119Y-109383402D01*
X158692119Y-109383400D01*
X158693543Y-109378087D01*
X158713498Y-109150000D01*
X158693543Y-108921913D01*
X158692040Y-108916303D01*
X158635707Y-108706067D01*
X158635706Y-108706065D01*
X158634284Y-108700757D01*
X158607690Y-108643726D01*
X158539849Y-108498238D01*
X158539846Y-108498233D01*
X158537523Y-108493251D01*
X158406198Y-108305700D01*
X158244300Y-108143802D01*
X158239792Y-108140645D01*
X158239789Y-108140643D01*
X158120844Y-108057357D01*
X158056749Y-108012477D01*
X158051767Y-108010154D01*
X158051762Y-108010151D01*
X157854225Y-107918039D01*
X157854224Y-107918039D01*
X157849243Y-107915716D01*
X157843935Y-107914294D01*
X157843933Y-107914293D01*
X157633402Y-107857881D01*
X157633400Y-107857881D01*
X157628087Y-107856457D01*
X157516381Y-107846684D01*
X157459851Y-107841738D01*
X157459844Y-107841738D01*
X157457127Y-107841500D01*
X157342873Y-107841500D01*
X157340156Y-107841738D01*
X157340149Y-107841738D01*
X157283619Y-107846684D01*
X157171913Y-107856457D01*
X157166600Y-107857881D01*
X157166598Y-107857881D01*
X156956067Y-107914293D01*
X156956065Y-107914294D01*
X156950757Y-107915716D01*
X156945776Y-107918039D01*
X156945775Y-107918039D01*
X156748238Y-108010151D01*
X156748233Y-108010154D01*
X156743251Y-108012477D01*
X156679156Y-108057357D01*
X156560211Y-108140643D01*
X156560208Y-108140645D01*
X156555700Y-108143802D01*
X156393802Y-108305700D01*
X156262477Y-108493251D01*
X156260154Y-108498233D01*
X156260151Y-108498238D01*
X156192310Y-108643726D01*
X156165716Y-108700757D01*
X156164294Y-108706065D01*
X156164293Y-108706067D01*
X156107960Y-108916303D01*
X156106457Y-108921913D01*
X156086502Y-109150000D01*
X154258686Y-109150000D01*
X154259830Y-109062528D01*
X154259906Y-109056746D01*
X154238780Y-108933800D01*
X154224048Y-108848065D01*
X154224047Y-108848062D01*
X154223070Y-108842375D01*
X154147786Y-108638307D01*
X154036573Y-108451376D01*
X153893158Y-108287842D01*
X153880482Y-108277849D01*
X153726876Y-108156755D01*
X153726874Y-108156753D01*
X153722342Y-108153181D01*
X153529846Y-108051905D01*
X153395378Y-108010151D01*
X153327639Y-107989117D01*
X153327636Y-107989116D01*
X153322118Y-107987403D01*
X153285568Y-107983077D01*
X153149197Y-107966936D01*
X153149190Y-107966936D01*
X153145510Y-107966500D01*
X151669824Y-107966500D01*
X151508400Y-107981333D01*
X151502838Y-107982902D01*
X151502836Y-107982902D01*
X151465489Y-107993435D01*
X151299055Y-108040374D01*
X151293872Y-108042930D01*
X151158561Y-108109658D01*
X151103974Y-108136577D01*
X151099348Y-108140031D01*
X151099347Y-108140032D01*
X150950792Y-108250963D01*
X150929691Y-108266720D01*
X150925777Y-108270954D01*
X150925775Y-108270956D01*
X150827492Y-108377279D01*
X150782044Y-108426444D01*
X150665976Y-108610401D01*
X150585376Y-108812428D01*
X150542941Y-109025761D01*
X150542865Y-109031536D01*
X150542865Y-109031540D01*
X150541438Y-109140581D01*
X150540094Y-109243254D01*
X145512500Y-109243254D01*
X145512500Y-108530071D01*
X145529381Y-108467071D01*
X145550716Y-108430119D01*
X145584527Y-108371556D01*
X145643542Y-108189928D01*
X145647981Y-108147699D01*
X145662814Y-108006565D01*
X145663504Y-108000000D01*
X145654760Y-107916801D01*
X145644232Y-107816635D01*
X145644232Y-107816633D01*
X145643542Y-107810072D01*
X145584527Y-107628444D01*
X145578843Y-107618598D01*
X145547210Y-107563810D01*
X145489040Y-107463056D01*
X145476453Y-107449076D01*
X145365675Y-107326045D01*
X145365674Y-107326044D01*
X145361253Y-107321134D01*
X145206752Y-107208882D01*
X145200724Y-107206198D01*
X145200722Y-107206197D01*
X145038319Y-107133891D01*
X145038318Y-107133891D01*
X145032288Y-107131206D01*
X144938888Y-107111353D01*
X144851944Y-107092872D01*
X144851939Y-107092872D01*
X144845487Y-107091500D01*
X144654513Y-107091500D01*
X144648061Y-107092872D01*
X144648056Y-107092872D01*
X144561112Y-107111353D01*
X144467712Y-107131206D01*
X144461682Y-107133891D01*
X144461681Y-107133891D01*
X144299278Y-107206197D01*
X144299276Y-107206198D01*
X144293248Y-107208882D01*
X144138747Y-107321134D01*
X144134326Y-107326044D01*
X144134325Y-107326045D01*
X144023548Y-107449076D01*
X144010960Y-107463056D01*
X143952790Y-107563810D01*
X143921158Y-107618598D01*
X143915473Y-107628444D01*
X143856458Y-107810072D01*
X143855768Y-107816633D01*
X143855768Y-107816635D01*
X143845240Y-107916801D01*
X143836496Y-108000000D01*
X143837186Y-108006565D01*
X143852020Y-108147699D01*
X143856458Y-108189928D01*
X143915473Y-108371556D01*
X143949285Y-108430119D01*
X143970619Y-108467071D01*
X143987500Y-108530071D01*
X143987500Y-110219929D01*
X143970619Y-110282928D01*
X143915473Y-110378444D01*
X143856458Y-110560072D01*
X143855768Y-110566633D01*
X143855768Y-110566635D01*
X143842810Y-110689928D01*
X143836496Y-110750000D01*
X142792098Y-110750000D01*
X142763700Y-110721602D01*
X142759192Y-110718445D01*
X142759189Y-110718443D01*
X142681011Y-110663702D01*
X142576149Y-110590277D01*
X142571167Y-110587954D01*
X142571162Y-110587951D01*
X142536943Y-110571995D01*
X142483658Y-110525078D01*
X142464197Y-110456801D01*
X142484739Y-110388841D01*
X142536943Y-110343605D01*
X142571162Y-110327649D01*
X142571167Y-110327646D01*
X142576149Y-110325323D01*
X142726667Y-110219929D01*
X142759189Y-110197157D01*
X142759192Y-110197155D01*
X142763700Y-110193998D01*
X142925598Y-110032100D01*
X142937061Y-110015730D01*
X143036612Y-109873556D01*
X143056923Y-109844549D01*
X143059246Y-109839567D01*
X143059249Y-109839562D01*
X143151361Y-109642025D01*
X143151361Y-109642024D01*
X143153684Y-109637043D01*
X143165236Y-109593933D01*
X143211519Y-109421202D01*
X143211519Y-109421200D01*
X143212943Y-109415887D01*
X143232898Y-109187800D01*
X143212943Y-108959713D01*
X143204283Y-108927393D01*
X143155107Y-108743867D01*
X143155106Y-108743865D01*
X143153684Y-108738557D01*
X143096426Y-108615765D01*
X143059249Y-108536038D01*
X143059246Y-108536033D01*
X143056923Y-108531051D01*
X142980707Y-108422204D01*
X142928757Y-108348011D01*
X142928755Y-108348008D01*
X142925598Y-108343500D01*
X142763700Y-108181602D01*
X142759192Y-108178445D01*
X142759189Y-108178443D01*
X142681011Y-108123702D01*
X142576149Y-108050277D01*
X142571167Y-108047954D01*
X142571162Y-108047951D01*
X142536943Y-108031995D01*
X142483658Y-107985078D01*
X142464197Y-107916801D01*
X142484739Y-107848841D01*
X142536943Y-107803605D01*
X142571162Y-107787649D01*
X142571167Y-107787646D01*
X142576149Y-107785323D01*
X142681011Y-107711898D01*
X142759189Y-107657157D01*
X142759192Y-107657155D01*
X142763700Y-107653998D01*
X142925598Y-107492100D01*
X142929872Y-107485997D01*
X143010112Y-107371402D01*
X143056923Y-107304549D01*
X143059246Y-107299567D01*
X143059249Y-107299562D01*
X143151361Y-107102025D01*
X143151361Y-107102024D01*
X143153684Y-107097043D01*
X143157787Y-107081733D01*
X143211519Y-106881202D01*
X143211519Y-106881200D01*
X143212943Y-106875887D01*
X143232898Y-106647800D01*
X143212943Y-106419713D01*
X143211519Y-106414398D01*
X143155107Y-106203867D01*
X143155106Y-106203865D01*
X143153684Y-106198557D01*
X143131952Y-106151952D01*
X143059249Y-105996038D01*
X143059246Y-105996033D01*
X143056923Y-105991051D01*
X142969869Y-105866725D01*
X142928757Y-105808011D01*
X142928755Y-105808008D01*
X142925598Y-105803500D01*
X142820232Y-105698134D01*
X143718901Y-105698134D01*
X143725656Y-105760316D01*
X143776786Y-105896705D01*
X143864140Y-106013261D01*
X143980696Y-106100615D01*
X144117085Y-106151745D01*
X144179267Y-106158500D01*
X145475535Y-106158500D01*
X145537717Y-106151745D01*
X145674106Y-106100615D01*
X145683304Y-106093722D01*
X145717090Y-106068400D01*
X145722023Y-106064703D01*
X145788527Y-106039855D01*
X145847325Y-106049761D01*
X145978236Y-106106005D01*
X145989179Y-106109560D01*
X146176521Y-106151952D01*
X146187931Y-106153454D01*
X146379870Y-106160995D01*
X146391352Y-106160393D01*
X146581446Y-106132832D01*
X146592641Y-106130144D01*
X146774532Y-106068400D01*
X146785029Y-106063726D01*
X146895433Y-106001898D01*
X146905296Y-105991821D01*
X146902340Y-105984149D01*
X146057286Y-105139095D01*
X146023260Y-105076783D01*
X146025095Y-105051132D01*
X146691809Y-105051132D01*
X146691940Y-105052966D01*
X146696191Y-105059580D01*
X147257640Y-105621028D01*
X147270015Y-105627785D01*
X147276595Y-105622859D01*
X147341127Y-105507628D01*
X147345801Y-105497131D01*
X147407545Y-105315240D01*
X147410233Y-105304045D01*
X147438090Y-105111911D01*
X147438720Y-105104528D01*
X147440051Y-105053704D01*
X147439808Y-105046305D01*
X147422044Y-104852975D01*
X147419946Y-104841654D01*
X147367809Y-104656791D01*
X147363684Y-104646044D01*
X147279564Y-104475465D01*
X147272270Y-104469990D01*
X147259850Y-104476762D01*
X146699422Y-105037189D01*
X146691809Y-105051132D01*
X146025095Y-105051132D01*
X146028325Y-105005968D01*
X146057286Y-104960905D01*
X146327401Y-104690790D01*
X146868190Y-104150000D01*
X151086502Y-104150000D01*
X151106457Y-104378087D01*
X151107881Y-104383400D01*
X151107881Y-104383402D01*
X151152986Y-104551733D01*
X151165716Y-104599243D01*
X151168039Y-104604224D01*
X151168039Y-104604225D01*
X151260151Y-104801762D01*
X151260154Y-104801767D01*
X151262477Y-104806749D01*
X151294845Y-104852975D01*
X151370419Y-104960905D01*
X151393802Y-104994300D01*
X151555700Y-105156198D01*
X151560208Y-105159355D01*
X151560211Y-105159357D01*
X151638389Y-105214098D01*
X151743251Y-105287523D01*
X151748233Y-105289846D01*
X151748238Y-105289849D01*
X151938994Y-105378799D01*
X151950757Y-105384284D01*
X151956065Y-105385706D01*
X151956067Y-105385707D01*
X152166598Y-105442119D01*
X152166600Y-105442119D01*
X152171913Y-105443543D01*
X152271480Y-105452254D01*
X152340149Y-105458262D01*
X152340156Y-105458262D01*
X152342873Y-105458500D01*
X152457127Y-105458500D01*
X152459844Y-105458262D01*
X152459851Y-105458262D01*
X152528520Y-105452254D01*
X152628087Y-105443543D01*
X152633400Y-105442119D01*
X152633402Y-105442119D01*
X152843933Y-105385707D01*
X152843935Y-105385706D01*
X152849243Y-105384284D01*
X152861006Y-105378799D01*
X153051762Y-105289849D01*
X153051767Y-105289846D01*
X153056749Y-105287523D01*
X153161611Y-105214098D01*
X153239789Y-105159357D01*
X153239792Y-105159355D01*
X153244300Y-105156198D01*
X153406198Y-104994300D01*
X153429582Y-104960905D01*
X153505155Y-104852975D01*
X153537523Y-104806749D01*
X153539846Y-104801767D01*
X153539849Y-104801762D01*
X153631961Y-104604225D01*
X153631961Y-104604224D01*
X153634284Y-104599243D01*
X153647015Y-104551733D01*
X153681583Y-104422722D01*
X155571439Y-104422722D01*
X155576435Y-104451798D01*
X155579415Y-104462918D01*
X155650669Y-104656060D01*
X155655619Y-104666438D01*
X155760877Y-104843361D01*
X155767643Y-104852673D01*
X155903381Y-105007453D01*
X155911724Y-105015370D01*
X156073394Y-105142820D01*
X156083050Y-105149091D01*
X156265229Y-105244940D01*
X156275863Y-105249345D01*
X156472470Y-105310393D01*
X156483724Y-105312785D01*
X156650832Y-105332564D01*
X156658235Y-105333000D01*
X157127885Y-105333000D01*
X157143124Y-105328525D01*
X157144329Y-105327135D01*
X157146000Y-105319452D01*
X157146000Y-105314885D01*
X157654000Y-105314885D01*
X157658475Y-105330124D01*
X157659865Y-105331329D01*
X157667548Y-105333000D01*
X158127257Y-105333000D01*
X158133046Y-105332734D01*
X158285754Y-105318703D01*
X158297068Y-105316606D01*
X158495206Y-105260725D01*
X158505945Y-105256603D01*
X158690583Y-105165549D01*
X158700392Y-105159538D01*
X158865349Y-105036360D01*
X158873889Y-105028671D01*
X159013639Y-104877490D01*
X159020640Y-104868365D01*
X159130495Y-104694255D01*
X159135716Y-104684008D01*
X159212003Y-104492793D01*
X159215270Y-104481767D01*
X159227203Y-104421770D01*
X159226051Y-104408894D01*
X159210898Y-104404000D01*
X157672115Y-104404000D01*
X157656876Y-104408475D01*
X157655671Y-104409865D01*
X157654000Y-104417548D01*
X157654000Y-105314885D01*
X157146000Y-105314885D01*
X157146000Y-104422115D01*
X157141525Y-104406876D01*
X157140135Y-104405671D01*
X157132452Y-104404000D01*
X155586337Y-104404000D01*
X155573375Y-104407806D01*
X155571439Y-104422722D01*
X153681583Y-104422722D01*
X153692119Y-104383402D01*
X153692119Y-104383400D01*
X153693543Y-104378087D01*
X153713498Y-104150000D01*
X153693543Y-103921913D01*
X153683704Y-103885193D01*
X153681838Y-103878230D01*
X155572797Y-103878230D01*
X155573949Y-103891106D01*
X155589102Y-103896000D01*
X157127885Y-103896000D01*
X157143124Y-103891525D01*
X157144329Y-103890135D01*
X157146000Y-103882452D01*
X157146000Y-103877885D01*
X157654000Y-103877885D01*
X157658475Y-103893124D01*
X157659865Y-103894329D01*
X157667548Y-103896000D01*
X159213663Y-103896000D01*
X159226625Y-103892194D01*
X159228561Y-103877278D01*
X159223565Y-103848202D01*
X159220585Y-103837082D01*
X159149331Y-103643940D01*
X159144381Y-103633562D01*
X159039123Y-103456639D01*
X159032357Y-103447327D01*
X158896619Y-103292547D01*
X158888276Y-103284630D01*
X158726606Y-103157180D01*
X158716950Y-103150909D01*
X158534771Y-103055060D01*
X158524137Y-103050655D01*
X158327530Y-102989607D01*
X158316276Y-102987215D01*
X158149168Y-102967436D01*
X158141765Y-102967000D01*
X157672115Y-102967000D01*
X157656876Y-102971475D01*
X157655671Y-102972865D01*
X157654000Y-102980548D01*
X157654000Y-103877885D01*
X157146000Y-103877885D01*
X157146000Y-102985115D01*
X157141525Y-102969876D01*
X157140135Y-102968671D01*
X157132452Y-102967000D01*
X156672743Y-102967000D01*
X156666954Y-102967266D01*
X156514246Y-102981297D01*
X156502932Y-102983394D01*
X156304794Y-103039275D01*
X156294055Y-103043397D01*
X156109417Y-103134451D01*
X156099608Y-103140462D01*
X155934651Y-103263640D01*
X155926111Y-103271329D01*
X155786361Y-103422510D01*
X155779360Y-103431635D01*
X155669505Y-103605745D01*
X155664284Y-103615992D01*
X155587997Y-103807207D01*
X155584730Y-103818233D01*
X155572797Y-103878230D01*
X153681838Y-103878230D01*
X153635707Y-103706067D01*
X153635706Y-103706065D01*
X153634284Y-103700757D01*
X153594758Y-103615992D01*
X153539849Y-103498238D01*
X153539846Y-103498233D01*
X153537523Y-103493251D01*
X153423746Y-103330761D01*
X153409357Y-103310211D01*
X153409355Y-103310208D01*
X153406198Y-103305700D01*
X153244300Y-103143802D01*
X153239792Y-103140645D01*
X153239789Y-103140643D01*
X153138190Y-103069503D01*
X153056749Y-103012477D01*
X153051767Y-103010154D01*
X153051762Y-103010151D01*
X152854225Y-102918039D01*
X152854224Y-102918039D01*
X152849243Y-102915716D01*
X152843935Y-102914294D01*
X152843933Y-102914293D01*
X152633402Y-102857881D01*
X152633400Y-102857881D01*
X152628087Y-102856457D01*
X152528520Y-102847746D01*
X152459851Y-102841738D01*
X152459844Y-102841738D01*
X152457127Y-102841500D01*
X152342873Y-102841500D01*
X152340156Y-102841738D01*
X152340149Y-102841738D01*
X152271480Y-102847746D01*
X152171913Y-102856457D01*
X152166600Y-102857881D01*
X152166598Y-102857881D01*
X151956067Y-102914293D01*
X151956065Y-102914294D01*
X151950757Y-102915716D01*
X151945776Y-102918039D01*
X151945775Y-102918039D01*
X151748238Y-103010151D01*
X151748233Y-103010154D01*
X151743251Y-103012477D01*
X151661810Y-103069503D01*
X151560211Y-103140643D01*
X151560208Y-103140645D01*
X151555700Y-103143802D01*
X151393802Y-103305700D01*
X151390645Y-103310208D01*
X151390643Y-103310211D01*
X151376254Y-103330761D01*
X151262477Y-103493251D01*
X151260154Y-103498233D01*
X151260151Y-103498238D01*
X151205242Y-103615992D01*
X151165716Y-103700757D01*
X151164294Y-103706065D01*
X151164293Y-103706067D01*
X151116296Y-103885193D01*
X151106457Y-103921913D01*
X151086502Y-104150000D01*
X146868190Y-104150000D01*
X146897682Y-104120508D01*
X146904442Y-104108128D01*
X146898412Y-104100073D01*
X146837462Y-104061616D01*
X146827214Y-104056395D01*
X146648802Y-103985216D01*
X146637774Y-103981949D01*
X146449383Y-103944476D01*
X146437936Y-103943273D01*
X146245878Y-103940759D01*
X146234398Y-103941662D01*
X146045098Y-103974190D01*
X146033978Y-103977170D01*
X145853765Y-104043654D01*
X145848877Y-104045985D01*
X145778781Y-104057256D01*
X145719072Y-104033085D01*
X145681292Y-104004770D01*
X145681289Y-104004768D01*
X145674106Y-103999385D01*
X145537717Y-103948255D01*
X145475535Y-103941500D01*
X144179267Y-103941500D01*
X144117085Y-103948255D01*
X143980696Y-103999385D01*
X143864140Y-104086739D01*
X143776786Y-104203295D01*
X143725656Y-104339684D01*
X143718901Y-104401866D01*
X143718901Y-105698134D01*
X142820232Y-105698134D01*
X142763700Y-105641602D01*
X142759192Y-105638445D01*
X142759189Y-105638443D01*
X142681011Y-105583702D01*
X142576149Y-105510277D01*
X142571167Y-105507954D01*
X142571162Y-105507951D01*
X142536943Y-105491995D01*
X142483658Y-105445078D01*
X142464197Y-105376801D01*
X142484739Y-105308841D01*
X142536943Y-105263605D01*
X142571162Y-105247649D01*
X142571167Y-105247646D01*
X142576149Y-105245323D01*
X142727858Y-105139095D01*
X142759189Y-105117157D01*
X142759192Y-105117155D01*
X142763700Y-105113998D01*
X142925598Y-104952100D01*
X143056923Y-104764549D01*
X143059246Y-104759567D01*
X143059249Y-104759562D01*
X143151361Y-104562025D01*
X143151361Y-104562024D01*
X143153684Y-104557043D01*
X143175196Y-104476762D01*
X143211519Y-104341202D01*
X143211519Y-104341200D01*
X143212943Y-104335887D01*
X143232898Y-104107800D01*
X143212943Y-103879713D01*
X143201520Y-103837082D01*
X143155107Y-103663867D01*
X143155106Y-103663865D01*
X143153684Y-103658557D01*
X143122556Y-103591802D01*
X143059249Y-103456038D01*
X143059246Y-103456033D01*
X143056923Y-103451051D01*
X142970062Y-103327001D01*
X142928757Y-103268011D01*
X142928755Y-103268008D01*
X142925598Y-103263500D01*
X142763700Y-103101602D01*
X142759192Y-103098445D01*
X142759189Y-103098443D01*
X142640925Y-103015634D01*
X142576149Y-102970277D01*
X142571167Y-102967954D01*
X142571162Y-102967951D01*
X142373625Y-102875839D01*
X142373624Y-102875839D01*
X142368643Y-102873516D01*
X142363335Y-102872094D01*
X142363333Y-102872093D01*
X142152802Y-102815681D01*
X142152800Y-102815681D01*
X142147487Y-102814257D01*
X142047920Y-102805546D01*
X141979251Y-102799538D01*
X141979244Y-102799538D01*
X141976527Y-102799300D01*
X141062273Y-102799300D01*
X141059556Y-102799538D01*
X141059549Y-102799538D01*
X140990880Y-102805546D01*
X140891313Y-102814257D01*
X140886000Y-102815681D01*
X140885998Y-102815681D01*
X140675467Y-102872093D01*
X140675465Y-102872094D01*
X140670157Y-102873516D01*
X140665176Y-102875839D01*
X140665175Y-102875839D01*
X140467638Y-102967951D01*
X140467633Y-102967954D01*
X140462651Y-102970277D01*
X140397875Y-103015634D01*
X140279611Y-103098443D01*
X140279608Y-103098445D01*
X140275100Y-103101602D01*
X140113202Y-103263500D01*
X140110045Y-103268008D01*
X140110043Y-103268011D01*
X140068738Y-103327001D01*
X139981877Y-103451051D01*
X139979554Y-103456033D01*
X139979551Y-103456038D01*
X139916244Y-103591802D01*
X139885116Y-103658557D01*
X139883694Y-103663865D01*
X139883693Y-103663867D01*
X139837280Y-103837082D01*
X139825857Y-103879713D01*
X139805902Y-104107800D01*
X139825857Y-104335887D01*
X139827281Y-104341200D01*
X139827281Y-104341202D01*
X139863605Y-104476762D01*
X139885116Y-104557043D01*
X139887439Y-104562024D01*
X139887439Y-104562025D01*
X139979551Y-104759562D01*
X139979554Y-104759567D01*
X139981877Y-104764549D01*
X140113202Y-104952100D01*
X140275100Y-105113998D01*
X140279608Y-105117155D01*
X140279611Y-105117157D01*
X140310942Y-105139095D01*
X140462651Y-105245323D01*
X140467633Y-105247646D01*
X140467638Y-105247649D01*
X140501857Y-105263605D01*
X140555142Y-105310522D01*
X140574603Y-105378799D01*
X140554061Y-105446759D01*
X140501857Y-105491995D01*
X140467638Y-105507951D01*
X140467633Y-105507954D01*
X140462651Y-105510277D01*
X140357789Y-105583702D01*
X140279611Y-105638443D01*
X140279608Y-105638445D01*
X140275100Y-105641602D01*
X140113202Y-105803500D01*
X140110045Y-105808008D01*
X140110043Y-105808011D01*
X140068931Y-105866725D01*
X139981877Y-105991051D01*
X139979554Y-105996033D01*
X139979551Y-105996038D01*
X139906848Y-106151952D01*
X139885116Y-106198557D01*
X139883694Y-106203865D01*
X139883693Y-106203867D01*
X139827281Y-106414398D01*
X139825857Y-106419713D01*
X139805902Y-106647800D01*
X139825857Y-106875887D01*
X139827281Y-106881200D01*
X139827281Y-106881202D01*
X139881014Y-107081733D01*
X139885116Y-107097043D01*
X139887439Y-107102024D01*
X139887439Y-107102025D01*
X139979551Y-107299562D01*
X139979554Y-107299567D01*
X139981877Y-107304549D01*
X140028688Y-107371402D01*
X140108929Y-107485997D01*
X140113202Y-107492100D01*
X140275100Y-107653998D01*
X140279608Y-107657155D01*
X140279611Y-107657157D01*
X140357789Y-107711898D01*
X140462651Y-107785323D01*
X140467633Y-107787646D01*
X140467638Y-107787649D01*
X140501857Y-107803605D01*
X140555142Y-107850522D01*
X140574603Y-107918799D01*
X140554061Y-107986759D01*
X140501857Y-108031995D01*
X140467638Y-108047951D01*
X140467633Y-108047954D01*
X140462651Y-108050277D01*
X140357789Y-108123702D01*
X140279611Y-108178443D01*
X140279608Y-108178445D01*
X140275100Y-108181602D01*
X140113202Y-108343500D01*
X140110045Y-108348008D01*
X140110043Y-108348011D01*
X140058093Y-108422204D01*
X139981877Y-108531051D01*
X139979554Y-108536033D01*
X139979551Y-108536038D01*
X139942374Y-108615765D01*
X139885116Y-108738557D01*
X139883694Y-108743865D01*
X139883693Y-108743867D01*
X139834517Y-108927393D01*
X139825857Y-108959713D01*
X139805902Y-109187800D01*
X139825857Y-109415887D01*
X139827281Y-109421200D01*
X139827281Y-109421202D01*
X139873565Y-109593933D01*
X139885116Y-109637043D01*
X139887439Y-109642024D01*
X139887439Y-109642025D01*
X139979551Y-109839562D01*
X139979554Y-109839567D01*
X139981877Y-109844549D01*
X140002188Y-109873556D01*
X140101740Y-110015730D01*
X140113202Y-110032100D01*
X140275100Y-110193998D01*
X140279608Y-110197155D01*
X140279611Y-110197157D01*
X140312133Y-110219929D01*
X140462651Y-110325323D01*
X140467633Y-110327646D01*
X140467638Y-110327649D01*
X140501857Y-110343605D01*
X140555142Y-110390522D01*
X140574603Y-110458799D01*
X140554061Y-110526759D01*
X140501857Y-110571995D01*
X140467638Y-110587951D01*
X140467633Y-110587954D01*
X140462651Y-110590277D01*
X140357789Y-110663702D01*
X140279611Y-110718443D01*
X140279608Y-110718445D01*
X140275100Y-110721602D01*
X140113202Y-110883500D01*
X140110045Y-110888008D01*
X140110043Y-110888011D01*
X140069295Y-110946206D01*
X139981877Y-111071051D01*
X139979554Y-111076033D01*
X139979551Y-111076038D01*
X139887439Y-111273575D01*
X139885116Y-111278557D01*
X139883694Y-111283865D01*
X139883693Y-111283867D01*
X139843800Y-111432749D01*
X139825857Y-111499713D01*
X139805902Y-111727800D01*
X135612898Y-111727800D01*
X135592943Y-111499713D01*
X135575000Y-111432749D01*
X135535107Y-111283867D01*
X135535106Y-111283865D01*
X135533684Y-111278557D01*
X135531361Y-111273575D01*
X135439249Y-111076038D01*
X135439246Y-111076033D01*
X135436923Y-111071051D01*
X135349505Y-110946206D01*
X135308757Y-110888011D01*
X135308755Y-110888008D01*
X135305598Y-110883500D01*
X135143700Y-110721602D01*
X135139192Y-110718445D01*
X135139189Y-110718443D01*
X135061011Y-110663702D01*
X134956149Y-110590277D01*
X134951167Y-110587954D01*
X134951162Y-110587951D01*
X134916351Y-110571719D01*
X134863066Y-110524802D01*
X134843605Y-110456525D01*
X134864147Y-110388565D01*
X134916351Y-110343329D01*
X134950911Y-110327214D01*
X134960407Y-110321731D01*
X135138867Y-110196772D01*
X135147275Y-110189716D01*
X135301316Y-110035675D01*
X135308372Y-110027267D01*
X135433331Y-109848807D01*
X135438814Y-109839311D01*
X135530890Y-109641853D01*
X135534636Y-109631561D01*
X135580794Y-109459297D01*
X135580458Y-109445201D01*
X135572516Y-109441800D01*
X132231433Y-109441800D01*
X132217902Y-109445773D01*
X132216673Y-109454322D01*
X132264164Y-109631561D01*
X132267910Y-109641853D01*
X132359986Y-109839311D01*
X132365469Y-109848807D01*
X132490428Y-110027267D01*
X132497484Y-110035675D01*
X132651525Y-110189716D01*
X132659933Y-110196772D01*
X132838393Y-110321731D01*
X132847889Y-110327214D01*
X132882449Y-110343329D01*
X132935734Y-110390246D01*
X132955195Y-110458523D01*
X132934653Y-110526483D01*
X132882449Y-110571719D01*
X132847638Y-110587951D01*
X132847633Y-110587954D01*
X132842651Y-110590277D01*
X132737789Y-110663702D01*
X132659611Y-110718443D01*
X132659608Y-110718445D01*
X132655100Y-110721602D01*
X132493202Y-110883500D01*
X132490045Y-110888008D01*
X132490043Y-110888011D01*
X132449295Y-110946206D01*
X132361877Y-111071051D01*
X132359554Y-111076033D01*
X132359551Y-111076038D01*
X132267439Y-111273575D01*
X132265116Y-111278557D01*
X132263694Y-111283865D01*
X132263693Y-111283867D01*
X132223800Y-111432749D01*
X132205857Y-111499713D01*
X132185902Y-111727800D01*
X120012500Y-111727800D01*
X120012500Y-111030071D01*
X120029381Y-110967071D01*
X120081223Y-110877279D01*
X120081224Y-110877278D01*
X120084527Y-110871556D01*
X120143542Y-110689928D01*
X120156501Y-110566635D01*
X120162814Y-110506565D01*
X120163504Y-110500000D01*
X120151792Y-110388565D01*
X120144232Y-110316635D01*
X120144232Y-110316633D01*
X120143542Y-110310072D01*
X120084527Y-110128444D01*
X119989040Y-109963056D01*
X119904056Y-109868671D01*
X119865675Y-109826045D01*
X119865674Y-109826044D01*
X119861253Y-109821134D01*
X119706752Y-109708882D01*
X119700724Y-109706198D01*
X119700722Y-109706197D01*
X119538319Y-109633891D01*
X119538318Y-109633891D01*
X119532288Y-109631206D01*
X119438887Y-109611353D01*
X119351944Y-109592872D01*
X119351939Y-109592872D01*
X119345487Y-109591500D01*
X119154513Y-109591500D01*
X119148061Y-109592872D01*
X119148056Y-109592872D01*
X119061113Y-109611353D01*
X118967712Y-109631206D01*
X118961682Y-109633891D01*
X118961681Y-109633891D01*
X118799278Y-109706197D01*
X118799276Y-109706198D01*
X118793248Y-109708882D01*
X118638747Y-109821134D01*
X118634326Y-109826044D01*
X118634325Y-109826045D01*
X118595945Y-109868671D01*
X118510960Y-109963056D01*
X118415473Y-110128444D01*
X118356458Y-110310072D01*
X118355768Y-110316633D01*
X118355768Y-110316635D01*
X118348208Y-110388565D01*
X118336496Y-110500000D01*
X118337186Y-110506565D01*
X118343500Y-110566635D01*
X118356458Y-110689928D01*
X118415473Y-110871556D01*
X118418776Y-110877278D01*
X118418777Y-110877279D01*
X118470619Y-110967071D01*
X118487500Y-111030071D01*
X118487500Y-112719929D01*
X118470619Y-112782929D01*
X118421706Y-112867649D01*
X118415473Y-112878444D01*
X118356458Y-113060072D01*
X118336496Y-113250000D01*
X68008000Y-113250000D01*
X68008000Y-107836869D01*
X102670002Y-107836869D01*
X102670372Y-107843690D01*
X102675896Y-107894552D01*
X102679522Y-107909804D01*
X102724677Y-108030254D01*
X102733215Y-108045849D01*
X102809716Y-108147924D01*
X102822277Y-108160485D01*
X102924352Y-108236986D01*
X102939947Y-108245524D01*
X103060395Y-108290678D01*
X103075650Y-108294305D01*
X103126515Y-108299831D01*
X103133329Y-108300200D01*
X103505886Y-108300200D01*
X103521125Y-108295725D01*
X103522330Y-108294335D01*
X103524001Y-108286652D01*
X103524001Y-108282084D01*
X104032001Y-108282084D01*
X104036476Y-108297323D01*
X104037866Y-108298528D01*
X104045549Y-108300199D01*
X104422670Y-108300199D01*
X104429491Y-108299829D01*
X104480353Y-108294305D01*
X104495605Y-108290679D01*
X104616055Y-108245524D01*
X104631649Y-108236987D01*
X104671632Y-108207021D01*
X104738138Y-108182174D01*
X104796934Y-108192080D01*
X104841116Y-108211062D01*
X104933988Y-108250963D01*
X105006818Y-108267443D01*
X105127056Y-108294650D01*
X105127061Y-108294651D01*
X105132693Y-108295925D01*
X105138464Y-108296152D01*
X105138466Y-108296152D01*
X105198946Y-108298528D01*
X105336264Y-108303923D01*
X105537884Y-108274690D01*
X105543348Y-108272835D01*
X105543353Y-108272834D01*
X105725328Y-108211062D01*
X105725333Y-108211060D01*
X105730800Y-108209204D01*
X105779066Y-108182174D01*
X105840625Y-108147699D01*
X105908552Y-108109658D01*
X106065187Y-107979386D01*
X106195459Y-107822751D01*
X106288196Y-107657157D01*
X106292181Y-107650042D01*
X106292182Y-107650040D01*
X106295005Y-107644999D01*
X106296861Y-107639532D01*
X106296863Y-107639527D01*
X106358635Y-107457552D01*
X106358636Y-107457547D01*
X106360491Y-107452083D01*
X106389724Y-107250463D01*
X106391250Y-107192200D01*
X106386270Y-107138000D01*
X106918502Y-107138000D01*
X106938457Y-107366087D01*
X106939881Y-107371400D01*
X106939881Y-107371402D01*
X106973267Y-107495997D01*
X106997716Y-107587243D01*
X107000039Y-107592224D01*
X107000039Y-107592225D01*
X107092151Y-107789762D01*
X107092154Y-107789767D01*
X107094477Y-107794749D01*
X107131839Y-107848107D01*
X107214739Y-107966500D01*
X107225802Y-107982300D01*
X107387700Y-108144198D01*
X107392208Y-108147355D01*
X107392211Y-108147357D01*
X107453009Y-108189928D01*
X107575251Y-108275523D01*
X107580233Y-108277846D01*
X107580238Y-108277849D01*
X107767717Y-108365271D01*
X107782757Y-108372284D01*
X107788065Y-108373706D01*
X107788067Y-108373707D01*
X107998598Y-108430119D01*
X107998600Y-108430119D01*
X108003913Y-108431543D01*
X108103480Y-108440254D01*
X108172149Y-108446262D01*
X108172156Y-108446262D01*
X108174873Y-108446500D01*
X109089127Y-108446500D01*
X109091844Y-108446262D01*
X109091851Y-108446262D01*
X109160520Y-108440254D01*
X109260087Y-108431543D01*
X109265400Y-108430119D01*
X109265402Y-108430119D01*
X109475933Y-108373707D01*
X109475935Y-108373706D01*
X109481243Y-108372284D01*
X109496283Y-108365271D01*
X109683762Y-108277849D01*
X109683767Y-108277846D01*
X109688749Y-108275523D01*
X109810991Y-108189928D01*
X109871789Y-108147357D01*
X109871792Y-108147355D01*
X109876300Y-108144198D01*
X110038198Y-107982300D01*
X110049262Y-107966500D01*
X110132161Y-107848107D01*
X110169523Y-107794749D01*
X110171846Y-107789767D01*
X110171849Y-107789762D01*
X110263961Y-107592225D01*
X110263961Y-107592224D01*
X110266284Y-107587243D01*
X110290734Y-107495997D01*
X110324119Y-107371402D01*
X110324119Y-107371400D01*
X110325543Y-107366087D01*
X110345498Y-107138000D01*
X114538502Y-107138000D01*
X114558457Y-107366087D01*
X114559881Y-107371400D01*
X114559881Y-107371402D01*
X114593267Y-107495997D01*
X114617716Y-107587243D01*
X114620039Y-107592224D01*
X114620039Y-107592225D01*
X114712151Y-107789762D01*
X114712154Y-107789767D01*
X114714477Y-107794749D01*
X114751839Y-107848107D01*
X114834739Y-107966500D01*
X114845802Y-107982300D01*
X115007700Y-108144198D01*
X115012208Y-108147355D01*
X115012211Y-108147357D01*
X115073009Y-108189928D01*
X115195251Y-108275523D01*
X115200233Y-108277846D01*
X115200238Y-108277849D01*
X115387717Y-108365271D01*
X115402757Y-108372284D01*
X115408065Y-108373706D01*
X115408067Y-108373707D01*
X115618598Y-108430119D01*
X115618600Y-108430119D01*
X115623913Y-108431543D01*
X115723480Y-108440254D01*
X115792149Y-108446262D01*
X115792156Y-108446262D01*
X115794873Y-108446500D01*
X116709127Y-108446500D01*
X116711844Y-108446262D01*
X116711851Y-108446262D01*
X116780520Y-108440254D01*
X116880087Y-108431543D01*
X116885400Y-108430119D01*
X116885402Y-108430119D01*
X117095933Y-108373707D01*
X117095935Y-108373706D01*
X117101243Y-108372284D01*
X117116283Y-108365271D01*
X117303762Y-108277849D01*
X117303767Y-108277846D01*
X117308749Y-108275523D01*
X117430991Y-108189928D01*
X117491789Y-108147357D01*
X117491792Y-108147355D01*
X117496300Y-108144198D01*
X117658198Y-107982300D01*
X117669262Y-107966500D01*
X117752161Y-107848107D01*
X117789523Y-107794749D01*
X117791846Y-107789767D01*
X117791849Y-107789762D01*
X117883961Y-107592225D01*
X117883961Y-107592224D01*
X117886284Y-107587243D01*
X117910734Y-107495997D01*
X117944119Y-107371402D01*
X117944119Y-107371400D01*
X117945543Y-107366087D01*
X117965498Y-107138000D01*
X117945543Y-106909913D01*
X117936426Y-106875887D01*
X117887707Y-106694067D01*
X117887706Y-106694065D01*
X117886284Y-106688757D01*
X117862523Y-106637800D01*
X125565502Y-106637800D01*
X125585457Y-106865887D01*
X125586881Y-106871200D01*
X125586881Y-106871202D01*
X125618533Y-106989326D01*
X125644716Y-107087043D01*
X125647039Y-107092024D01*
X125647039Y-107092025D01*
X125739151Y-107289562D01*
X125739154Y-107289567D01*
X125741477Y-107294549D01*
X125795290Y-107371402D01*
X125860349Y-107464315D01*
X125872802Y-107482100D01*
X126034700Y-107643998D01*
X126039208Y-107647155D01*
X126039211Y-107647157D01*
X126048981Y-107653998D01*
X126222251Y-107775323D01*
X126227233Y-107777646D01*
X126227238Y-107777649D01*
X126399298Y-107857881D01*
X126429757Y-107872084D01*
X126435065Y-107873506D01*
X126435067Y-107873507D01*
X126645598Y-107929919D01*
X126645600Y-107929919D01*
X126650913Y-107931343D01*
X126879000Y-107951298D01*
X127107087Y-107931343D01*
X127112400Y-107929919D01*
X127112402Y-107929919D01*
X127322933Y-107873507D01*
X127322935Y-107873506D01*
X127328243Y-107872084D01*
X127358702Y-107857881D01*
X127530762Y-107777649D01*
X127530767Y-107777646D01*
X127535749Y-107775323D01*
X127709019Y-107653998D01*
X127718789Y-107647157D01*
X127718792Y-107647155D01*
X127723300Y-107643998D01*
X127885198Y-107482100D01*
X127897652Y-107464315D01*
X127962710Y-107371402D01*
X128016523Y-107294549D01*
X128018846Y-107289567D01*
X128018849Y-107289562D01*
X128110961Y-107092025D01*
X128110961Y-107092024D01*
X128113284Y-107087043D01*
X128139468Y-106989326D01*
X128171119Y-106871202D01*
X128171119Y-106871200D01*
X128172543Y-106865887D01*
X128192498Y-106637800D01*
X128190276Y-106612400D01*
X128918302Y-106612400D01*
X128938257Y-106840487D01*
X128939681Y-106845800D01*
X128939681Y-106845802D01*
X128978139Y-106989326D01*
X128997516Y-107061643D01*
X128999839Y-107066624D01*
X128999839Y-107066625D01*
X129091951Y-107264162D01*
X129091954Y-107264167D01*
X129094277Y-107269149D01*
X129134116Y-107326045D01*
X129222357Y-107452065D01*
X129225602Y-107456700D01*
X129387500Y-107618598D01*
X129392008Y-107621755D01*
X129392011Y-107621757D01*
X129432491Y-107650101D01*
X129575051Y-107749923D01*
X129580033Y-107752246D01*
X129580038Y-107752249D01*
X129771950Y-107841738D01*
X129782557Y-107846684D01*
X129787865Y-107848106D01*
X129787867Y-107848107D01*
X129998398Y-107904519D01*
X129998400Y-107904519D01*
X130003713Y-107905943D01*
X130231800Y-107925898D01*
X130459887Y-107905943D01*
X130465200Y-107904519D01*
X130465202Y-107904519D01*
X130675733Y-107848107D01*
X130675735Y-107848106D01*
X130681043Y-107846684D01*
X130691650Y-107841738D01*
X130883562Y-107752249D01*
X130883567Y-107752246D01*
X130888549Y-107749923D01*
X131031109Y-107650101D01*
X131071589Y-107621757D01*
X131071592Y-107621755D01*
X131076100Y-107618598D01*
X131237998Y-107456700D01*
X131241244Y-107452065D01*
X131329484Y-107326045D01*
X131369323Y-107269149D01*
X131371646Y-107264167D01*
X131371649Y-107264162D01*
X131463761Y-107066625D01*
X131463761Y-107066624D01*
X131466084Y-107061643D01*
X131485462Y-106989326D01*
X131523919Y-106845802D01*
X131523919Y-106845800D01*
X131525343Y-106840487D01*
X131542201Y-106647800D01*
X132185902Y-106647800D01*
X132205857Y-106875887D01*
X132207281Y-106881200D01*
X132207281Y-106881202D01*
X132261014Y-107081733D01*
X132265116Y-107097043D01*
X132267439Y-107102024D01*
X132267439Y-107102025D01*
X132359551Y-107299562D01*
X132359554Y-107299567D01*
X132361877Y-107304549D01*
X132408688Y-107371402D01*
X132488929Y-107485997D01*
X132493202Y-107492100D01*
X132655100Y-107653998D01*
X132659608Y-107657155D01*
X132659611Y-107657157D01*
X132737789Y-107711898D01*
X132842651Y-107785323D01*
X132847633Y-107787646D01*
X132847638Y-107787649D01*
X132882449Y-107803881D01*
X132935734Y-107850798D01*
X132955195Y-107919075D01*
X132934653Y-107987035D01*
X132882449Y-108032271D01*
X132847889Y-108048386D01*
X132838393Y-108053869D01*
X132659933Y-108178828D01*
X132651525Y-108185884D01*
X132497484Y-108339925D01*
X132490428Y-108348333D01*
X132365469Y-108526793D01*
X132359986Y-108536289D01*
X132267910Y-108733747D01*
X132264164Y-108744039D01*
X132218006Y-108916303D01*
X132218342Y-108930399D01*
X132226284Y-108933800D01*
X135567367Y-108933800D01*
X135580898Y-108929827D01*
X135582127Y-108921278D01*
X135534636Y-108744039D01*
X135530890Y-108733747D01*
X135438814Y-108536289D01*
X135433331Y-108526793D01*
X135308372Y-108348333D01*
X135301316Y-108339925D01*
X135147275Y-108185884D01*
X135138867Y-108178828D01*
X134960407Y-108053869D01*
X134950911Y-108048386D01*
X134916351Y-108032271D01*
X134863066Y-107985354D01*
X134843605Y-107917077D01*
X134864147Y-107849117D01*
X134916351Y-107803881D01*
X134951162Y-107787649D01*
X134951167Y-107787646D01*
X134956149Y-107785323D01*
X135061011Y-107711898D01*
X135139189Y-107657157D01*
X135139192Y-107657155D01*
X135143700Y-107653998D01*
X135305598Y-107492100D01*
X135309872Y-107485997D01*
X135390112Y-107371402D01*
X135436923Y-107304549D01*
X135439246Y-107299567D01*
X135439249Y-107299562D01*
X135531361Y-107102025D01*
X135531361Y-107102024D01*
X135533684Y-107097043D01*
X135537787Y-107081733D01*
X135591519Y-106881202D01*
X135591519Y-106881200D01*
X135592943Y-106875887D01*
X135612898Y-106647800D01*
X135592943Y-106419713D01*
X135591519Y-106414398D01*
X135535107Y-106203867D01*
X135535106Y-106203865D01*
X135533684Y-106198557D01*
X135511952Y-106151952D01*
X135439249Y-105996038D01*
X135439246Y-105996033D01*
X135436923Y-105991051D01*
X135349869Y-105866725D01*
X135308757Y-105808011D01*
X135308755Y-105808008D01*
X135305598Y-105803500D01*
X135143700Y-105641602D01*
X135139189Y-105638443D01*
X135134976Y-105634908D01*
X135135927Y-105633774D01*
X135095929Y-105583729D01*
X135088624Y-105513110D01*
X135120658Y-105449751D01*
X135181862Y-105413770D01*
X135198917Y-105410718D01*
X135209716Y-105409545D01*
X135346105Y-105358415D01*
X135462661Y-105271061D01*
X135550015Y-105154505D01*
X135601145Y-105018116D01*
X135607900Y-104955934D01*
X135607900Y-103259666D01*
X135601145Y-103197484D01*
X135550015Y-103061095D01*
X135462661Y-102944539D01*
X135346105Y-102857185D01*
X135209716Y-102806055D01*
X135147534Y-102799300D01*
X132651266Y-102799300D01*
X132589084Y-102806055D01*
X132452695Y-102857185D01*
X132336139Y-102944539D01*
X132248785Y-103061095D01*
X132197655Y-103197484D01*
X132190900Y-103259666D01*
X132190900Y-104955934D01*
X132197655Y-105018116D01*
X132248785Y-105154505D01*
X132336139Y-105271061D01*
X132452695Y-105358415D01*
X132589084Y-105409545D01*
X132599874Y-105410717D01*
X132602006Y-105411603D01*
X132604622Y-105412225D01*
X132604521Y-105412648D01*
X132665435Y-105437955D01*
X132705863Y-105496317D01*
X132708322Y-105567271D01*
X132672029Y-105628290D01*
X132663369Y-105635289D01*
X132659607Y-105638446D01*
X132655100Y-105641602D01*
X132493202Y-105803500D01*
X132490045Y-105808008D01*
X132490043Y-105808011D01*
X132448931Y-105866725D01*
X132361877Y-105991051D01*
X132359554Y-105996033D01*
X132359551Y-105996038D01*
X132286848Y-106151952D01*
X132265116Y-106198557D01*
X132263694Y-106203865D01*
X132263693Y-106203867D01*
X132207281Y-106414398D01*
X132205857Y-106419713D01*
X132185902Y-106647800D01*
X131542201Y-106647800D01*
X131545298Y-106612400D01*
X131525343Y-106384313D01*
X131475785Y-106199360D01*
X131467507Y-106168467D01*
X131467506Y-106168465D01*
X131466084Y-106163157D01*
X131463740Y-106158131D01*
X131371649Y-105960638D01*
X131371646Y-105960633D01*
X131369323Y-105955651D01*
X131265944Y-105808011D01*
X131241157Y-105772611D01*
X131241155Y-105772608D01*
X131237998Y-105768100D01*
X131076100Y-105606202D01*
X131071592Y-105603045D01*
X131071589Y-105603043D01*
X130935322Y-105507628D01*
X130888549Y-105474877D01*
X130883567Y-105472554D01*
X130883562Y-105472551D01*
X130686025Y-105380439D01*
X130686024Y-105380439D01*
X130681043Y-105378116D01*
X130675735Y-105376694D01*
X130675733Y-105376693D01*
X130465202Y-105320281D01*
X130465200Y-105320281D01*
X130459887Y-105318857D01*
X130231800Y-105298902D01*
X130003713Y-105318857D01*
X129998400Y-105320281D01*
X129998398Y-105320281D01*
X129787867Y-105376693D01*
X129787865Y-105376694D01*
X129782557Y-105378116D01*
X129777576Y-105380439D01*
X129777575Y-105380439D01*
X129580038Y-105472551D01*
X129580033Y-105472554D01*
X129575051Y-105474877D01*
X129528278Y-105507628D01*
X129392011Y-105603043D01*
X129392008Y-105603045D01*
X129387500Y-105606202D01*
X129225602Y-105768100D01*
X129222445Y-105772608D01*
X129222443Y-105772611D01*
X129197656Y-105808011D01*
X129094277Y-105955651D01*
X129091954Y-105960633D01*
X129091951Y-105960638D01*
X128999860Y-106158131D01*
X128997516Y-106163157D01*
X128996094Y-106168465D01*
X128996093Y-106168467D01*
X128987815Y-106199360D01*
X128938257Y-106384313D01*
X128918302Y-106612400D01*
X128190276Y-106612400D01*
X128172543Y-106409713D01*
X128171119Y-106404398D01*
X128114707Y-106193867D01*
X128114706Y-106193865D01*
X128113284Y-106188557D01*
X128099096Y-106158131D01*
X128018849Y-105986038D01*
X128018846Y-105986033D01*
X128016523Y-105981051D01*
X127890062Y-105800446D01*
X127888357Y-105798011D01*
X127888355Y-105798008D01*
X127885198Y-105793500D01*
X127723300Y-105631602D01*
X127718792Y-105628445D01*
X127718789Y-105628443D01*
X127550030Y-105510277D01*
X127535749Y-105500277D01*
X127530767Y-105497954D01*
X127530762Y-105497951D01*
X127333225Y-105405839D01*
X127333224Y-105405839D01*
X127328243Y-105403516D01*
X127322935Y-105402094D01*
X127322933Y-105402093D01*
X127112402Y-105345681D01*
X127112400Y-105345681D01*
X127107087Y-105344257D01*
X126879000Y-105324302D01*
X126650913Y-105344257D01*
X126645600Y-105345681D01*
X126645598Y-105345681D01*
X126435067Y-105402093D01*
X126435065Y-105402094D01*
X126429757Y-105403516D01*
X126424776Y-105405839D01*
X126424775Y-105405839D01*
X126227238Y-105497951D01*
X126227233Y-105497954D01*
X126222251Y-105500277D01*
X126207970Y-105510277D01*
X126039211Y-105628443D01*
X126039208Y-105628445D01*
X126034700Y-105631602D01*
X125872802Y-105793500D01*
X125869645Y-105798008D01*
X125869643Y-105798011D01*
X125867938Y-105800446D01*
X125741477Y-105981051D01*
X125739154Y-105986033D01*
X125739151Y-105986038D01*
X125658904Y-106158131D01*
X125644716Y-106188557D01*
X125643294Y-106193865D01*
X125643293Y-106193867D01*
X125586881Y-106404398D01*
X125585457Y-106409713D01*
X125565502Y-106637800D01*
X117862523Y-106637800D01*
X117791849Y-106486238D01*
X117791846Y-106486233D01*
X117789523Y-106481251D01*
X117689603Y-106338551D01*
X117661357Y-106298211D01*
X117661355Y-106298208D01*
X117658198Y-106293700D01*
X117496300Y-106131802D01*
X117491792Y-106128645D01*
X117491789Y-106128643D01*
X117399078Y-106063726D01*
X117308749Y-106000477D01*
X117303767Y-105998154D01*
X117303762Y-105998151D01*
X117269543Y-105982195D01*
X117216258Y-105935278D01*
X117196797Y-105867001D01*
X117217339Y-105799041D01*
X117269543Y-105753805D01*
X117303762Y-105737849D01*
X117303767Y-105737846D01*
X117308749Y-105735523D01*
X117461893Y-105628290D01*
X117491789Y-105607357D01*
X117491792Y-105607355D01*
X117496300Y-105604198D01*
X117658198Y-105442300D01*
X117676404Y-105416300D01*
X117720706Y-105353029D01*
X117789523Y-105254749D01*
X117791846Y-105249767D01*
X117791849Y-105249762D01*
X117883961Y-105052225D01*
X117883961Y-105052224D01*
X117886284Y-105047243D01*
X117891261Y-105028671D01*
X117944119Y-104831402D01*
X117944119Y-104831400D01*
X117945543Y-104826087D01*
X117965498Y-104598000D01*
X117945543Y-104369913D01*
X117933911Y-104326503D01*
X117887707Y-104154067D01*
X117887706Y-104154065D01*
X117886284Y-104148757D01*
X117883961Y-104143775D01*
X117791849Y-103946238D01*
X117791846Y-103946233D01*
X117789523Y-103941251D01*
X117658198Y-103753700D01*
X117496300Y-103591802D01*
X117491792Y-103588645D01*
X117491789Y-103588643D01*
X117355555Y-103493251D01*
X117308749Y-103460477D01*
X117303767Y-103458154D01*
X117303762Y-103458151D01*
X117269543Y-103442195D01*
X117216258Y-103395278D01*
X117196797Y-103327001D01*
X117217339Y-103259041D01*
X117269543Y-103213805D01*
X117303762Y-103197849D01*
X117303767Y-103197846D01*
X117308749Y-103195523D01*
X117488724Y-103069503D01*
X117491789Y-103067357D01*
X117491792Y-103067355D01*
X117496300Y-103064198D01*
X117658198Y-102902300D01*
X117662472Y-102896197D01*
X117730153Y-102799538D01*
X117789523Y-102714749D01*
X117791846Y-102709767D01*
X117791849Y-102709762D01*
X117883961Y-102512225D01*
X117883961Y-102512224D01*
X117886284Y-102507243D01*
X117890387Y-102491933D01*
X117944119Y-102291402D01*
X117944119Y-102291400D01*
X117945543Y-102286087D01*
X117965498Y-102058000D01*
X117945543Y-101829913D01*
X117944119Y-101824598D01*
X117887707Y-101614067D01*
X117887706Y-101614065D01*
X117886284Y-101608757D01*
X117862616Y-101558000D01*
X117791849Y-101406238D01*
X117791846Y-101406233D01*
X117789523Y-101401251D01*
X117677435Y-101241173D01*
X117676848Y-101240334D01*
X118469501Y-101240334D01*
X118476256Y-101302516D01*
X118527386Y-101438905D01*
X118614740Y-101555461D01*
X118731296Y-101642815D01*
X118867685Y-101693945D01*
X118929867Y-101700700D01*
X120226135Y-101700700D01*
X120288317Y-101693945D01*
X120424706Y-101642815D01*
X120472623Y-101606903D01*
X120539127Y-101582055D01*
X120597925Y-101591961D01*
X120728836Y-101648205D01*
X120739779Y-101651760D01*
X120927121Y-101694152D01*
X120938531Y-101695654D01*
X121130470Y-101703195D01*
X121141952Y-101702593D01*
X121332046Y-101675032D01*
X121343241Y-101672344D01*
X121525132Y-101610600D01*
X121535629Y-101605926D01*
X121646033Y-101544098D01*
X121655896Y-101534021D01*
X121652940Y-101526349D01*
X120807886Y-100681295D01*
X120773860Y-100618983D01*
X120775695Y-100593332D01*
X121442409Y-100593332D01*
X121442540Y-100595166D01*
X121446791Y-100601780D01*
X122008240Y-101163228D01*
X122020615Y-101169985D01*
X122027195Y-101165059D01*
X122091727Y-101049828D01*
X122096401Y-101039331D01*
X122158145Y-100857440D01*
X122160833Y-100846245D01*
X122188690Y-100654111D01*
X122189320Y-100646728D01*
X122190651Y-100595904D01*
X122190408Y-100588505D01*
X122172644Y-100395175D01*
X122170546Y-100383854D01*
X122118409Y-100198991D01*
X122114284Y-100188244D01*
X122030164Y-100017665D01*
X122022870Y-100012190D01*
X122010450Y-100018962D01*
X121450022Y-100579389D01*
X121442409Y-100593332D01*
X120775695Y-100593332D01*
X120778925Y-100548168D01*
X120807886Y-100503105D01*
X121078001Y-100232990D01*
X121648282Y-99662708D01*
X121655042Y-99650328D01*
X121649012Y-99642273D01*
X121588062Y-99603816D01*
X121577814Y-99598595D01*
X121399402Y-99527416D01*
X121388374Y-99524149D01*
X121199983Y-99486676D01*
X121188536Y-99485473D01*
X120996478Y-99482959D01*
X120984998Y-99483862D01*
X120795698Y-99516390D01*
X120784578Y-99519370D01*
X120604365Y-99585854D01*
X120599477Y-99588185D01*
X120529381Y-99599456D01*
X120469672Y-99575285D01*
X120431892Y-99546970D01*
X120431889Y-99546968D01*
X120424706Y-99541585D01*
X120288317Y-99490455D01*
X120226135Y-99483700D01*
X118929867Y-99483700D01*
X118867685Y-99490455D01*
X118731296Y-99541585D01*
X118614740Y-99628939D01*
X118527386Y-99745495D01*
X118476256Y-99881884D01*
X118469501Y-99944066D01*
X118469501Y-101240334D01*
X117676848Y-101240334D01*
X117661357Y-101218211D01*
X117661355Y-101218208D01*
X117658198Y-101213700D01*
X117496300Y-101051802D01*
X117491792Y-101048645D01*
X117491789Y-101048643D01*
X117413611Y-100993902D01*
X117308749Y-100920477D01*
X117303767Y-100918154D01*
X117303762Y-100918151D01*
X117269543Y-100902195D01*
X117216258Y-100855278D01*
X117196797Y-100787001D01*
X117217339Y-100719041D01*
X117269543Y-100673805D01*
X117303762Y-100657849D01*
X117303767Y-100657846D01*
X117308749Y-100655523D01*
X117450458Y-100556297D01*
X117491789Y-100527357D01*
X117491792Y-100527355D01*
X117496300Y-100524198D01*
X117658198Y-100362300D01*
X117678551Y-100333234D01*
X117738165Y-100248095D01*
X117789523Y-100174749D01*
X117791846Y-100169767D01*
X117791849Y-100169762D01*
X117883961Y-99972225D01*
X117883961Y-99972224D01*
X117886284Y-99967243D01*
X117910252Y-99877796D01*
X117944119Y-99751402D01*
X117944119Y-99751400D01*
X117945543Y-99746087D01*
X117965498Y-99518000D01*
X117945543Y-99289913D01*
X117944119Y-99284598D01*
X117933041Y-99243254D01*
X150540094Y-99243254D01*
X150541073Y-99248951D01*
X150541073Y-99248952D01*
X150560921Y-99364457D01*
X150576930Y-99457625D01*
X150652214Y-99661693D01*
X150763427Y-99848624D01*
X150906842Y-100012158D01*
X151077658Y-100146819D01*
X151270154Y-100248095D01*
X151312342Y-100261195D01*
X151472361Y-100310883D01*
X151472364Y-100310884D01*
X151477882Y-100312597D01*
X151483619Y-100313276D01*
X151650803Y-100333064D01*
X151650810Y-100333064D01*
X151654490Y-100333500D01*
X153130176Y-100333500D01*
X153291600Y-100318667D01*
X153297162Y-100317098D01*
X153297164Y-100317098D01*
X153413223Y-100284366D01*
X153500945Y-100259626D01*
X153696026Y-100163423D01*
X153705702Y-100156198D01*
X153865685Y-100036733D01*
X153865686Y-100036732D01*
X153870309Y-100033280D01*
X153874225Y-100029044D01*
X154014037Y-99877796D01*
X154014039Y-99877793D01*
X154017956Y-99873556D01*
X154134024Y-99689599D01*
X154214624Y-99487572D01*
X154257059Y-99274239D01*
X154257296Y-99256192D01*
X154258685Y-99150000D01*
X156086502Y-99150000D01*
X156106457Y-99378087D01*
X156107881Y-99383400D01*
X156107881Y-99383402D01*
X156151710Y-99546971D01*
X156165716Y-99599243D01*
X156168039Y-99604224D01*
X156168039Y-99604225D01*
X156260151Y-99801762D01*
X156260154Y-99801767D01*
X156262477Y-99806749D01*
X156312225Y-99877796D01*
X156358981Y-99944570D01*
X156393802Y-99994300D01*
X156555700Y-100156198D01*
X156560208Y-100159355D01*
X156560211Y-100159357D01*
X156623061Y-100203365D01*
X156743251Y-100287523D01*
X156748233Y-100289846D01*
X156748238Y-100289849D01*
X156945775Y-100381961D01*
X156950757Y-100384284D01*
X156956065Y-100385706D01*
X156956067Y-100385707D01*
X157166598Y-100442119D01*
X157166600Y-100442119D01*
X157171913Y-100443543D01*
X157271480Y-100452254D01*
X157340149Y-100458262D01*
X157340156Y-100458262D01*
X157342873Y-100458500D01*
X157457127Y-100458500D01*
X157459844Y-100458262D01*
X157459851Y-100458262D01*
X157528520Y-100452254D01*
X157628087Y-100443543D01*
X157633400Y-100442119D01*
X157633402Y-100442119D01*
X157843933Y-100385707D01*
X157843935Y-100385706D01*
X157849243Y-100384284D01*
X157854225Y-100381961D01*
X158051762Y-100289849D01*
X158051767Y-100289846D01*
X158056749Y-100287523D01*
X158176939Y-100203365D01*
X158239789Y-100159357D01*
X158239792Y-100159355D01*
X158244300Y-100156198D01*
X158406198Y-99994300D01*
X158441020Y-99944570D01*
X158487775Y-99877796D01*
X158537523Y-99806749D01*
X158539846Y-99801767D01*
X158539849Y-99801762D01*
X158631961Y-99604225D01*
X158631961Y-99604224D01*
X158634284Y-99599243D01*
X158648291Y-99546971D01*
X158692119Y-99383402D01*
X158692119Y-99383400D01*
X158693543Y-99378087D01*
X158713498Y-99150000D01*
X158693543Y-98921913D01*
X158692119Y-98916598D01*
X158635707Y-98706067D01*
X158635706Y-98706065D01*
X158634284Y-98700757D01*
X158621473Y-98673283D01*
X158539849Y-98498238D01*
X158539846Y-98498233D01*
X158537523Y-98493251D01*
X158406198Y-98305700D01*
X158244300Y-98143802D01*
X158239792Y-98140645D01*
X158239789Y-98140643D01*
X158161611Y-98085902D01*
X158056749Y-98012477D01*
X158051767Y-98010154D01*
X158051762Y-98010151D01*
X157854225Y-97918039D01*
X157854224Y-97918039D01*
X157849243Y-97915716D01*
X157843935Y-97914294D01*
X157843933Y-97914293D01*
X157633402Y-97857881D01*
X157633400Y-97857881D01*
X157628087Y-97856457D01*
X157528520Y-97847746D01*
X157459851Y-97841738D01*
X157459844Y-97841738D01*
X157457127Y-97841500D01*
X157342873Y-97841500D01*
X157340156Y-97841738D01*
X157340149Y-97841738D01*
X157271480Y-97847746D01*
X157171913Y-97856457D01*
X157166600Y-97857881D01*
X157166598Y-97857881D01*
X156956067Y-97914293D01*
X156956065Y-97914294D01*
X156950757Y-97915716D01*
X156945776Y-97918039D01*
X156945775Y-97918039D01*
X156748238Y-98010151D01*
X156748233Y-98010154D01*
X156743251Y-98012477D01*
X156638389Y-98085902D01*
X156560211Y-98140643D01*
X156560208Y-98140645D01*
X156555700Y-98143802D01*
X156393802Y-98305700D01*
X156262477Y-98493251D01*
X156260154Y-98498233D01*
X156260151Y-98498238D01*
X156178527Y-98673283D01*
X156165716Y-98700757D01*
X156164294Y-98706065D01*
X156164293Y-98706067D01*
X156107881Y-98916598D01*
X156106457Y-98921913D01*
X156086502Y-99150000D01*
X154258685Y-99150000D01*
X154259183Y-99111946D01*
X154259906Y-99056746D01*
X154232401Y-98896676D01*
X154224048Y-98848065D01*
X154224047Y-98848062D01*
X154223070Y-98842375D01*
X154147786Y-98638307D01*
X154036573Y-98451376D01*
X153893158Y-98287842D01*
X153812147Y-98223978D01*
X153726876Y-98156755D01*
X153726874Y-98156753D01*
X153722342Y-98153181D01*
X153529846Y-98051905D01*
X153395378Y-98010151D01*
X153327639Y-97989117D01*
X153327636Y-97989116D01*
X153322118Y-97987403D01*
X153307833Y-97985712D01*
X153149197Y-97966936D01*
X153149190Y-97966936D01*
X153145510Y-97966500D01*
X151669824Y-97966500D01*
X151508400Y-97981333D01*
X151502838Y-97982902D01*
X151502836Y-97982902D01*
X151406218Y-98010151D01*
X151299055Y-98040374D01*
X151103974Y-98136577D01*
X151099348Y-98140031D01*
X151099347Y-98140032D01*
X150986288Y-98224457D01*
X150929691Y-98266720D01*
X150925777Y-98270954D01*
X150925775Y-98270956D01*
X150897261Y-98301803D01*
X150782044Y-98426444D01*
X150665976Y-98610401D01*
X150585376Y-98812428D01*
X150542941Y-99025761D01*
X150542865Y-99031536D01*
X150542865Y-99031540D01*
X150542017Y-99096351D01*
X150540094Y-99243254D01*
X117933041Y-99243254D01*
X117887707Y-99074067D01*
X117887706Y-99074065D01*
X117886284Y-99068757D01*
X117883961Y-99063775D01*
X117791849Y-98866238D01*
X117791846Y-98866233D01*
X117789523Y-98861251D01*
X117658198Y-98673700D01*
X117496300Y-98511802D01*
X117491792Y-98508645D01*
X117491789Y-98508643D01*
X117368341Y-98422204D01*
X117308749Y-98380477D01*
X117303767Y-98378154D01*
X117303762Y-98378151D01*
X117106225Y-98286039D01*
X117106224Y-98286039D01*
X117101243Y-98283716D01*
X117095935Y-98282294D01*
X117095933Y-98282293D01*
X116885402Y-98225881D01*
X116885400Y-98225881D01*
X116880087Y-98224457D01*
X116780520Y-98215746D01*
X116711851Y-98209738D01*
X116711844Y-98209738D01*
X116709127Y-98209500D01*
X115794873Y-98209500D01*
X115792156Y-98209738D01*
X115792149Y-98209738D01*
X115723480Y-98215746D01*
X115623913Y-98224457D01*
X115618600Y-98225881D01*
X115618598Y-98225881D01*
X115408067Y-98282293D01*
X115408065Y-98282294D01*
X115402757Y-98283716D01*
X115397776Y-98286039D01*
X115397775Y-98286039D01*
X115200238Y-98378151D01*
X115200233Y-98378154D01*
X115195251Y-98380477D01*
X115135659Y-98422204D01*
X115012211Y-98508643D01*
X115012208Y-98508645D01*
X115007700Y-98511802D01*
X114845802Y-98673700D01*
X114714477Y-98861251D01*
X114712154Y-98866233D01*
X114712151Y-98866238D01*
X114620039Y-99063775D01*
X114617716Y-99068757D01*
X114616294Y-99074065D01*
X114616293Y-99074067D01*
X114559881Y-99284598D01*
X114558457Y-99289913D01*
X114538502Y-99518000D01*
X114558457Y-99746087D01*
X114559881Y-99751400D01*
X114559881Y-99751402D01*
X114593749Y-99877796D01*
X114617716Y-99967243D01*
X114620039Y-99972224D01*
X114620039Y-99972225D01*
X114712151Y-100169762D01*
X114712154Y-100169767D01*
X114714477Y-100174749D01*
X114765835Y-100248095D01*
X114825450Y-100333234D01*
X114845802Y-100362300D01*
X115007700Y-100524198D01*
X115012208Y-100527355D01*
X115012211Y-100527357D01*
X115053542Y-100556297D01*
X115195251Y-100655523D01*
X115200233Y-100657846D01*
X115200238Y-100657849D01*
X115234457Y-100673805D01*
X115287742Y-100720722D01*
X115307203Y-100788999D01*
X115286661Y-100856959D01*
X115234457Y-100902195D01*
X115200238Y-100918151D01*
X115200233Y-100918154D01*
X115195251Y-100920477D01*
X115090389Y-100993902D01*
X115012211Y-101048643D01*
X115012208Y-101048645D01*
X115007700Y-101051802D01*
X114845802Y-101213700D01*
X114842645Y-101218208D01*
X114842643Y-101218211D01*
X114826565Y-101241173D01*
X114714477Y-101401251D01*
X114712154Y-101406233D01*
X114712151Y-101406238D01*
X114641384Y-101558000D01*
X114617716Y-101608757D01*
X114616294Y-101614065D01*
X114616293Y-101614067D01*
X114559881Y-101824598D01*
X114558457Y-101829913D01*
X114538502Y-102058000D01*
X114558457Y-102286087D01*
X114559881Y-102291400D01*
X114559881Y-102291402D01*
X114613614Y-102491933D01*
X114617716Y-102507243D01*
X114620039Y-102512224D01*
X114620039Y-102512225D01*
X114712151Y-102709762D01*
X114712154Y-102709767D01*
X114714477Y-102714749D01*
X114773847Y-102799538D01*
X114841529Y-102896197D01*
X114845802Y-102902300D01*
X115007700Y-103064198D01*
X115012208Y-103067355D01*
X115012211Y-103067357D01*
X115015276Y-103069503D01*
X115195251Y-103195523D01*
X115200233Y-103197846D01*
X115200238Y-103197849D01*
X115234457Y-103213805D01*
X115287742Y-103260722D01*
X115307203Y-103328999D01*
X115286661Y-103396959D01*
X115234457Y-103442195D01*
X115200238Y-103458151D01*
X115200233Y-103458154D01*
X115195251Y-103460477D01*
X115148445Y-103493251D01*
X115012211Y-103588643D01*
X115012208Y-103588645D01*
X115007700Y-103591802D01*
X114845802Y-103753700D01*
X114714477Y-103941251D01*
X114712154Y-103946233D01*
X114712151Y-103946238D01*
X114620039Y-104143775D01*
X114617716Y-104148757D01*
X114616294Y-104154065D01*
X114616293Y-104154067D01*
X114570089Y-104326503D01*
X114558457Y-104369913D01*
X114538502Y-104598000D01*
X114558457Y-104826087D01*
X114559881Y-104831400D01*
X114559881Y-104831402D01*
X114612740Y-105028671D01*
X114617716Y-105047243D01*
X114620039Y-105052224D01*
X114620039Y-105052225D01*
X114712151Y-105249762D01*
X114712154Y-105249767D01*
X114714477Y-105254749D01*
X114783294Y-105353029D01*
X114827597Y-105416300D01*
X114845802Y-105442300D01*
X115007700Y-105604198D01*
X115012208Y-105607355D01*
X115012211Y-105607357D01*
X115042107Y-105628290D01*
X115195251Y-105735523D01*
X115200233Y-105737846D01*
X115200238Y-105737849D01*
X115234457Y-105753805D01*
X115287742Y-105800722D01*
X115307203Y-105868999D01*
X115286661Y-105936959D01*
X115234457Y-105982195D01*
X115200238Y-105998151D01*
X115200233Y-105998154D01*
X115195251Y-106000477D01*
X115104922Y-106063726D01*
X115012211Y-106128643D01*
X115012208Y-106128645D01*
X115007700Y-106131802D01*
X114845802Y-106293700D01*
X114842645Y-106298208D01*
X114842643Y-106298211D01*
X114814397Y-106338551D01*
X114714477Y-106481251D01*
X114712154Y-106486233D01*
X114712151Y-106486238D01*
X114641477Y-106637800D01*
X114617716Y-106688757D01*
X114616294Y-106694065D01*
X114616293Y-106694067D01*
X114567574Y-106875887D01*
X114558457Y-106909913D01*
X114538502Y-107138000D01*
X110345498Y-107138000D01*
X110325543Y-106909913D01*
X110316426Y-106875887D01*
X110267707Y-106694067D01*
X110267706Y-106694065D01*
X110266284Y-106688757D01*
X110242523Y-106637800D01*
X110171849Y-106486238D01*
X110171846Y-106486233D01*
X110169523Y-106481251D01*
X110069603Y-106338551D01*
X110041357Y-106298211D01*
X110041355Y-106298208D01*
X110038198Y-106293700D01*
X109876300Y-106131802D01*
X109871792Y-106128645D01*
X109871789Y-106128643D01*
X109779078Y-106063726D01*
X109688749Y-106000477D01*
X109683767Y-105998154D01*
X109683762Y-105998151D01*
X109648951Y-105981919D01*
X109595666Y-105935002D01*
X109576205Y-105866725D01*
X109596747Y-105798765D01*
X109648951Y-105753529D01*
X109683511Y-105737414D01*
X109693007Y-105731931D01*
X109871467Y-105606972D01*
X109879875Y-105599916D01*
X110033916Y-105445875D01*
X110040972Y-105437467D01*
X110165931Y-105259007D01*
X110171414Y-105249511D01*
X110263490Y-105052053D01*
X110267236Y-105041761D01*
X110313394Y-104869497D01*
X110313058Y-104855401D01*
X110305116Y-104852000D01*
X106964033Y-104852000D01*
X106950502Y-104855973D01*
X106949273Y-104864522D01*
X106996764Y-105041761D01*
X107000510Y-105052053D01*
X107092586Y-105249511D01*
X107098069Y-105259007D01*
X107223028Y-105437467D01*
X107230084Y-105445875D01*
X107384125Y-105599916D01*
X107392533Y-105606972D01*
X107570993Y-105731931D01*
X107580489Y-105737414D01*
X107615049Y-105753529D01*
X107668334Y-105800446D01*
X107687795Y-105868723D01*
X107667253Y-105936683D01*
X107615049Y-105981919D01*
X107580238Y-105998151D01*
X107580233Y-105998154D01*
X107575251Y-106000477D01*
X107484922Y-106063726D01*
X107392211Y-106128643D01*
X107392208Y-106128645D01*
X107387700Y-106131802D01*
X107225802Y-106293700D01*
X107222645Y-106298208D01*
X107222643Y-106298211D01*
X107194397Y-106338551D01*
X107094477Y-106481251D01*
X107092154Y-106486233D01*
X107092151Y-106486238D01*
X107021477Y-106637800D01*
X106997716Y-106688757D01*
X106996294Y-106694065D01*
X106996293Y-106694067D01*
X106947574Y-106875887D01*
X106938457Y-106909913D01*
X106918502Y-107138000D01*
X106386270Y-107138000D01*
X106372609Y-106989326D01*
X106358190Y-106938200D01*
X106318876Y-106798806D01*
X106318875Y-106798804D01*
X106317308Y-106793247D01*
X106303960Y-106766178D01*
X106229757Y-106615710D01*
X106227202Y-106610529D01*
X106208797Y-106585881D01*
X106108759Y-106451915D01*
X106108759Y-106451914D01*
X106105306Y-106447291D01*
X105955704Y-106309000D01*
X105820852Y-106223915D01*
X105788289Y-106203369D01*
X105788284Y-106203367D01*
X105783405Y-106200288D01*
X105594181Y-106124795D01*
X105412596Y-106088675D01*
X105400033Y-106086176D01*
X105400032Y-106086176D01*
X105394367Y-106085049D01*
X105388593Y-106084973D01*
X105388589Y-106084973D01*
X105285453Y-106083624D01*
X105190656Y-106082383D01*
X105184959Y-106083362D01*
X105184958Y-106083362D01*
X105053183Y-106106005D01*
X104989871Y-106116884D01*
X104930254Y-106138878D01*
X104804150Y-106185400D01*
X104804147Y-106185401D01*
X104798735Y-106187398D01*
X104797229Y-106188294D01*
X104728421Y-106199360D01*
X104668710Y-106175188D01*
X104631647Y-106147411D01*
X104616060Y-106138878D01*
X104495607Y-106093722D01*
X104480352Y-106090095D01*
X104429487Y-106084569D01*
X104422673Y-106084200D01*
X104050116Y-106084200D01*
X104034877Y-106088675D01*
X104033672Y-106090065D01*
X104032001Y-106097748D01*
X104032001Y-108282084D01*
X103524001Y-108282084D01*
X103524001Y-107464315D01*
X103519526Y-107449076D01*
X103518136Y-107447871D01*
X103510453Y-107446200D01*
X102688117Y-107446200D01*
X102672878Y-107450675D01*
X102671673Y-107452065D01*
X102670002Y-107459748D01*
X102670002Y-107836869D01*
X68008000Y-107836869D01*
X68008000Y-106920085D01*
X102670001Y-106920085D01*
X102674476Y-106935324D01*
X102675866Y-106936529D01*
X102683549Y-106938200D01*
X103505886Y-106938200D01*
X103521125Y-106933725D01*
X103522330Y-106932335D01*
X103524001Y-106924652D01*
X103524001Y-106102316D01*
X103519526Y-106087077D01*
X103518136Y-106085872D01*
X103510453Y-106084201D01*
X103133332Y-106084201D01*
X103126511Y-106084571D01*
X103075649Y-106090095D01*
X103060397Y-106093721D01*
X102939947Y-106138876D01*
X102924352Y-106147414D01*
X102822277Y-106223915D01*
X102809716Y-106236476D01*
X102733215Y-106338551D01*
X102724677Y-106354146D01*
X102679523Y-106474594D01*
X102675896Y-106489849D01*
X102670370Y-106540714D01*
X102670001Y-106547528D01*
X102670001Y-106920085D01*
X68008000Y-106920085D01*
X68008000Y-102098800D01*
X97097702Y-102098800D01*
X97117657Y-102326887D01*
X97119081Y-102332200D01*
X97119081Y-102332202D01*
X97167319Y-102512225D01*
X97176916Y-102548043D01*
X97179239Y-102553024D01*
X97179239Y-102553025D01*
X97271351Y-102750562D01*
X97271354Y-102750567D01*
X97273677Y-102755549D01*
X97345331Y-102857881D01*
X97387217Y-102917700D01*
X97405002Y-102943100D01*
X97566900Y-103104998D01*
X97571408Y-103108155D01*
X97571411Y-103108157D01*
X97641423Y-103157180D01*
X97754451Y-103236323D01*
X97759433Y-103238646D01*
X97759438Y-103238649D01*
X97956975Y-103330761D01*
X97961957Y-103333084D01*
X97967265Y-103334506D01*
X97967267Y-103334507D01*
X98177798Y-103390919D01*
X98177800Y-103390919D01*
X98183113Y-103392343D01*
X98411200Y-103412298D01*
X98639287Y-103392343D01*
X98644600Y-103390919D01*
X98644602Y-103390919D01*
X98855133Y-103334507D01*
X98855135Y-103334506D01*
X98860443Y-103333084D01*
X98865425Y-103330761D01*
X99062962Y-103238649D01*
X99062967Y-103238646D01*
X99067949Y-103236323D01*
X99180977Y-103157180D01*
X99250989Y-103108157D01*
X99250992Y-103108155D01*
X99255500Y-103104998D01*
X99417398Y-102943100D01*
X99435184Y-102917700D01*
X99477069Y-102857881D01*
X99548723Y-102755549D01*
X99551046Y-102750567D01*
X99551049Y-102750562D01*
X99643161Y-102553025D01*
X99643161Y-102553024D01*
X99645484Y-102548043D01*
X99655082Y-102512225D01*
X99703319Y-102332202D01*
X99703319Y-102332200D01*
X99704743Y-102326887D01*
X99724698Y-102098800D01*
X99722476Y-102073400D01*
X100425102Y-102073400D01*
X100445057Y-102301487D01*
X100446481Y-102306800D01*
X100446481Y-102306802D01*
X100500190Y-102507243D01*
X100504316Y-102522643D01*
X100506639Y-102527624D01*
X100506639Y-102527625D01*
X100598751Y-102725162D01*
X100598754Y-102725167D01*
X100601077Y-102730149D01*
X100659635Y-102813778D01*
X100721619Y-102902300D01*
X100732402Y-102917700D01*
X100894300Y-103079598D01*
X100898808Y-103082755D01*
X100898811Y-103082757D01*
X100921213Y-103098443D01*
X101081851Y-103210923D01*
X101086833Y-103213246D01*
X101086838Y-103213249D01*
X101239917Y-103284630D01*
X101289357Y-103307684D01*
X101294665Y-103309106D01*
X101294667Y-103309107D01*
X101505198Y-103365519D01*
X101505200Y-103365519D01*
X101510513Y-103366943D01*
X101738600Y-103386898D01*
X101966687Y-103366943D01*
X101972000Y-103365519D01*
X101972002Y-103365519D01*
X102182533Y-103309107D01*
X102182535Y-103309106D01*
X102187843Y-103307684D01*
X102237283Y-103284630D01*
X102390362Y-103213249D01*
X102390367Y-103213246D01*
X102395349Y-103210923D01*
X102555987Y-103098443D01*
X102578389Y-103082757D01*
X102578392Y-103082755D01*
X102582900Y-103079598D01*
X102744798Y-102917700D01*
X102755582Y-102902300D01*
X102817565Y-102813778D01*
X102876123Y-102730149D01*
X102878446Y-102725167D01*
X102878449Y-102725162D01*
X102970561Y-102527625D01*
X102970561Y-102527624D01*
X102972884Y-102522643D01*
X102977011Y-102507243D01*
X103030719Y-102306802D01*
X103030719Y-102306800D01*
X103032143Y-102301487D01*
X103052098Y-102073400D01*
X103049876Y-102048000D01*
X103752502Y-102048000D01*
X103772457Y-102276087D01*
X103773881Y-102281400D01*
X103773881Y-102281402D01*
X103784601Y-102321407D01*
X103831716Y-102497243D01*
X103834039Y-102502224D01*
X103834039Y-102502225D01*
X103926151Y-102699762D01*
X103926154Y-102699767D01*
X103928477Y-102704749D01*
X104059802Y-102892300D01*
X104221700Y-103054198D01*
X104226208Y-103057355D01*
X104226211Y-103057357D01*
X104252409Y-103075701D01*
X104409251Y-103185523D01*
X104414233Y-103187846D01*
X104414238Y-103187849D01*
X104611775Y-103279961D01*
X104616757Y-103282284D01*
X104622065Y-103283706D01*
X104622067Y-103283707D01*
X104832598Y-103340119D01*
X104832600Y-103340119D01*
X104837913Y-103341543D01*
X105066000Y-103361498D01*
X105294087Y-103341543D01*
X105299400Y-103340119D01*
X105299402Y-103340119D01*
X105509933Y-103283707D01*
X105509935Y-103283706D01*
X105515243Y-103282284D01*
X105520225Y-103279961D01*
X105717762Y-103187849D01*
X105717767Y-103187846D01*
X105722749Y-103185523D01*
X105879591Y-103075701D01*
X105905789Y-103057357D01*
X105905792Y-103057355D01*
X105910300Y-103054198D01*
X106072198Y-102892300D01*
X106203523Y-102704749D01*
X106205846Y-102699767D01*
X106205849Y-102699762D01*
X106297961Y-102502225D01*
X106297961Y-102502224D01*
X106300284Y-102497243D01*
X106347400Y-102321407D01*
X106358119Y-102281402D01*
X106358119Y-102281400D01*
X106359543Y-102276087D01*
X106378623Y-102058000D01*
X106918502Y-102058000D01*
X106938457Y-102286087D01*
X106939881Y-102291400D01*
X106939881Y-102291402D01*
X106993614Y-102491933D01*
X106997716Y-102507243D01*
X107000039Y-102512224D01*
X107000039Y-102512225D01*
X107092151Y-102709762D01*
X107092154Y-102709767D01*
X107094477Y-102714749D01*
X107153847Y-102799538D01*
X107221529Y-102896197D01*
X107225802Y-102902300D01*
X107387700Y-103064198D01*
X107392208Y-103067355D01*
X107392211Y-103067357D01*
X107395276Y-103069503D01*
X107575251Y-103195523D01*
X107580233Y-103197846D01*
X107580238Y-103197849D01*
X107615049Y-103214081D01*
X107668334Y-103260998D01*
X107687795Y-103329275D01*
X107667253Y-103397235D01*
X107615049Y-103442471D01*
X107580489Y-103458586D01*
X107570993Y-103464069D01*
X107392533Y-103589028D01*
X107384125Y-103596084D01*
X107230084Y-103750125D01*
X107223028Y-103758533D01*
X107098069Y-103936993D01*
X107092586Y-103946489D01*
X107000510Y-104143947D01*
X106996764Y-104154239D01*
X106950606Y-104326503D01*
X106950942Y-104340599D01*
X106958884Y-104344000D01*
X110299967Y-104344000D01*
X110313498Y-104340027D01*
X110314727Y-104331478D01*
X110267236Y-104154239D01*
X110263490Y-104143947D01*
X110171414Y-103946489D01*
X110165931Y-103936993D01*
X110040972Y-103758533D01*
X110033916Y-103750125D01*
X109879875Y-103596084D01*
X109871467Y-103589028D01*
X109693007Y-103464069D01*
X109683511Y-103458586D01*
X109648951Y-103442471D01*
X109595666Y-103395554D01*
X109576205Y-103327277D01*
X109596747Y-103259317D01*
X109648951Y-103214081D01*
X109683762Y-103197849D01*
X109683767Y-103197846D01*
X109688749Y-103195523D01*
X109868724Y-103069503D01*
X109871789Y-103067357D01*
X109871792Y-103067355D01*
X109876300Y-103064198D01*
X110038198Y-102902300D01*
X110042472Y-102896197D01*
X110110153Y-102799538D01*
X110169523Y-102714749D01*
X110171846Y-102709767D01*
X110171849Y-102709762D01*
X110263961Y-102512225D01*
X110263961Y-102512224D01*
X110266284Y-102507243D01*
X110270387Y-102491933D01*
X110324119Y-102291402D01*
X110324119Y-102291400D01*
X110325543Y-102286087D01*
X110345498Y-102058000D01*
X110325543Y-101829913D01*
X110324119Y-101824598D01*
X110267707Y-101614067D01*
X110267706Y-101614065D01*
X110266284Y-101608757D01*
X110242616Y-101558000D01*
X110171849Y-101406238D01*
X110171846Y-101406233D01*
X110169523Y-101401251D01*
X110057435Y-101241173D01*
X110041357Y-101218211D01*
X110041355Y-101218208D01*
X110038198Y-101213700D01*
X109876300Y-101051802D01*
X109871789Y-101048643D01*
X109867576Y-101045108D01*
X109868527Y-101043974D01*
X109828529Y-100993929D01*
X109821224Y-100923310D01*
X109853258Y-100859951D01*
X109914462Y-100823970D01*
X109931517Y-100820918D01*
X109942316Y-100819745D01*
X110078705Y-100768615D01*
X110195261Y-100681261D01*
X110282615Y-100564705D01*
X110333745Y-100428316D01*
X110340500Y-100366134D01*
X110340500Y-98669866D01*
X110333745Y-98607684D01*
X110282615Y-98471295D01*
X110195261Y-98354739D01*
X110078705Y-98267385D01*
X109942316Y-98216255D01*
X109880134Y-98209500D01*
X107383866Y-98209500D01*
X107321684Y-98216255D01*
X107185295Y-98267385D01*
X107068739Y-98354739D01*
X106981385Y-98471295D01*
X106930255Y-98607684D01*
X106923500Y-98669866D01*
X106923500Y-100366134D01*
X106930255Y-100428316D01*
X106981385Y-100564705D01*
X107068739Y-100681261D01*
X107185295Y-100768615D01*
X107321684Y-100819745D01*
X107332474Y-100820917D01*
X107334606Y-100821803D01*
X107337222Y-100822425D01*
X107337121Y-100822848D01*
X107398035Y-100848155D01*
X107438463Y-100906517D01*
X107440922Y-100977471D01*
X107404629Y-101038490D01*
X107395969Y-101045489D01*
X107392207Y-101048646D01*
X107387700Y-101051802D01*
X107225802Y-101213700D01*
X107222645Y-101218208D01*
X107222643Y-101218211D01*
X107206565Y-101241173D01*
X107094477Y-101401251D01*
X107092154Y-101406233D01*
X107092151Y-101406238D01*
X107021384Y-101558000D01*
X106997716Y-101608757D01*
X106996294Y-101614065D01*
X106996293Y-101614067D01*
X106939881Y-101824598D01*
X106938457Y-101829913D01*
X106918502Y-102058000D01*
X106378623Y-102058000D01*
X106379498Y-102048000D01*
X106359543Y-101819913D01*
X106325790Y-101693945D01*
X106301707Y-101604067D01*
X106301706Y-101604065D01*
X106300284Y-101598757D01*
X106281279Y-101558000D01*
X106205849Y-101396238D01*
X106205846Y-101396233D01*
X106203523Y-101391251D01*
X106098437Y-101241173D01*
X106075357Y-101208211D01*
X106075355Y-101208208D01*
X106072198Y-101203700D01*
X105910300Y-101041802D01*
X105905792Y-101038645D01*
X105905789Y-101038643D01*
X105791977Y-100958951D01*
X105722749Y-100910477D01*
X105717767Y-100908154D01*
X105717762Y-100908151D01*
X105520225Y-100816039D01*
X105520224Y-100816039D01*
X105515243Y-100813716D01*
X105509935Y-100812294D01*
X105509933Y-100812293D01*
X105299402Y-100755881D01*
X105299400Y-100755881D01*
X105294087Y-100754457D01*
X105066000Y-100734502D01*
X104837913Y-100754457D01*
X104832600Y-100755881D01*
X104832598Y-100755881D01*
X104622067Y-100812293D01*
X104622065Y-100812294D01*
X104616757Y-100813716D01*
X104611776Y-100816039D01*
X104611775Y-100816039D01*
X104414238Y-100908151D01*
X104414233Y-100908154D01*
X104409251Y-100910477D01*
X104340023Y-100958951D01*
X104226211Y-101038643D01*
X104226208Y-101038645D01*
X104221700Y-101041802D01*
X104059802Y-101203700D01*
X104056645Y-101208208D01*
X104056643Y-101208211D01*
X104033563Y-101241173D01*
X103928477Y-101391251D01*
X103926154Y-101396233D01*
X103926151Y-101396238D01*
X103850721Y-101558000D01*
X103831716Y-101598757D01*
X103830294Y-101604065D01*
X103830293Y-101604067D01*
X103806210Y-101693945D01*
X103772457Y-101819913D01*
X103752502Y-102048000D01*
X103049876Y-102048000D01*
X103032143Y-101845313D01*
X103028017Y-101829913D01*
X102974307Y-101629467D01*
X102974306Y-101629465D01*
X102972884Y-101624157D01*
X102930549Y-101533368D01*
X102878449Y-101421638D01*
X102878446Y-101421633D01*
X102876123Y-101416651D01*
X102765742Y-101259011D01*
X102747957Y-101233611D01*
X102747955Y-101233608D01*
X102744798Y-101229100D01*
X102582900Y-101067202D01*
X102578392Y-101064045D01*
X102578389Y-101064043D01*
X102487908Y-101000688D01*
X102395349Y-100935877D01*
X102390367Y-100933554D01*
X102390362Y-100933551D01*
X102192825Y-100841439D01*
X102192824Y-100841439D01*
X102187843Y-100839116D01*
X102182535Y-100837694D01*
X102182533Y-100837693D01*
X101972002Y-100781281D01*
X101972000Y-100781281D01*
X101966687Y-100779857D01*
X101738600Y-100759902D01*
X101510513Y-100779857D01*
X101505200Y-100781281D01*
X101505198Y-100781281D01*
X101294667Y-100837693D01*
X101294665Y-100837694D01*
X101289357Y-100839116D01*
X101284376Y-100841439D01*
X101284375Y-100841439D01*
X101086838Y-100933551D01*
X101086833Y-100933554D01*
X101081851Y-100935877D01*
X100989292Y-101000688D01*
X100898811Y-101064043D01*
X100898808Y-101064045D01*
X100894300Y-101067202D01*
X100732402Y-101229100D01*
X100729245Y-101233608D01*
X100729243Y-101233611D01*
X100711458Y-101259011D01*
X100601077Y-101416651D01*
X100598754Y-101421633D01*
X100598751Y-101421638D01*
X100546651Y-101533368D01*
X100504316Y-101624157D01*
X100502894Y-101629465D01*
X100502893Y-101629467D01*
X100449183Y-101829913D01*
X100445057Y-101845313D01*
X100425102Y-102073400D01*
X99722476Y-102073400D01*
X99704743Y-101870713D01*
X99703319Y-101865398D01*
X99646907Y-101654867D01*
X99646906Y-101654865D01*
X99645484Y-101649557D01*
X99604541Y-101561753D01*
X99551049Y-101447038D01*
X99551046Y-101447033D01*
X99548723Y-101442051D01*
X99462731Y-101319242D01*
X99420557Y-101259011D01*
X99420555Y-101259008D01*
X99417398Y-101254500D01*
X99255500Y-101092602D01*
X99250992Y-101089445D01*
X99250989Y-101089443D01*
X99130517Y-101005088D01*
X99067949Y-100961277D01*
X99062967Y-100958954D01*
X99062962Y-100958951D01*
X98865425Y-100866839D01*
X98865424Y-100866839D01*
X98860443Y-100864516D01*
X98855135Y-100863094D01*
X98855133Y-100863093D01*
X98644602Y-100806681D01*
X98644600Y-100806681D01*
X98639287Y-100805257D01*
X98411200Y-100785302D01*
X98183113Y-100805257D01*
X98177800Y-100806681D01*
X98177798Y-100806681D01*
X97967267Y-100863093D01*
X97967265Y-100863094D01*
X97961957Y-100864516D01*
X97956976Y-100866839D01*
X97956975Y-100866839D01*
X97759438Y-100958951D01*
X97759433Y-100958954D01*
X97754451Y-100961277D01*
X97691883Y-101005088D01*
X97571411Y-101089443D01*
X97571408Y-101089445D01*
X97566900Y-101092602D01*
X97405002Y-101254500D01*
X97401845Y-101259008D01*
X97401843Y-101259011D01*
X97359669Y-101319242D01*
X97273677Y-101442051D01*
X97271354Y-101447033D01*
X97271351Y-101447038D01*
X97217859Y-101561753D01*
X97176916Y-101649557D01*
X97175494Y-101654865D01*
X97175493Y-101654867D01*
X97119081Y-101865398D01*
X97117657Y-101870713D01*
X97097702Y-102098800D01*
X68008000Y-102098800D01*
X68008000Y-101094669D01*
X83667001Y-101094669D01*
X83667371Y-101101490D01*
X83672895Y-101152352D01*
X83676521Y-101167604D01*
X83721676Y-101288054D01*
X83730214Y-101303649D01*
X83806715Y-101405724D01*
X83819276Y-101418285D01*
X83921351Y-101494786D01*
X83936946Y-101503324D01*
X84057394Y-101548478D01*
X84072649Y-101552105D01*
X84123514Y-101557631D01*
X84130328Y-101558000D01*
X84752885Y-101558000D01*
X84768124Y-101553525D01*
X84769329Y-101552135D01*
X84771000Y-101544452D01*
X84771000Y-101539884D01*
X85279000Y-101539884D01*
X85283475Y-101555123D01*
X85284865Y-101556328D01*
X85292548Y-101557999D01*
X85919669Y-101557999D01*
X85926490Y-101557629D01*
X85977352Y-101552105D01*
X85992604Y-101548479D01*
X86113054Y-101503324D01*
X86128649Y-101494786D01*
X86230724Y-101418285D01*
X86243285Y-101405724D01*
X86319786Y-101303649D01*
X86328324Y-101288054D01*
X86369225Y-101178952D01*
X86411867Y-101122188D01*
X86478428Y-101097488D01*
X86547777Y-101112696D01*
X86582444Y-101140684D01*
X86607865Y-101170031D01*
X86607869Y-101170035D01*
X86611250Y-101173938D01*
X86783126Y-101316632D01*
X86976000Y-101429338D01*
X86980825Y-101431180D01*
X86980826Y-101431181D01*
X87053612Y-101458975D01*
X87184692Y-101509030D01*
X87189760Y-101510061D01*
X87189763Y-101510062D01*
X87269817Y-101526349D01*
X87403597Y-101553567D01*
X87408772Y-101553757D01*
X87408774Y-101553757D01*
X87621673Y-101561564D01*
X87621677Y-101561564D01*
X87626837Y-101561753D01*
X87631957Y-101561097D01*
X87631959Y-101561097D01*
X87843288Y-101534025D01*
X87843289Y-101534025D01*
X87848416Y-101533368D01*
X87853366Y-101531883D01*
X88057429Y-101470661D01*
X88057434Y-101470659D01*
X88062384Y-101469174D01*
X88262994Y-101370896D01*
X88444860Y-101241173D01*
X88452449Y-101233611D01*
X88545701Y-101140684D01*
X88603096Y-101083489D01*
X88630676Y-101045108D01*
X88733453Y-100902077D01*
X88734776Y-100903028D01*
X88781645Y-100859857D01*
X88851580Y-100847625D01*
X88917026Y-100875144D01*
X88944875Y-100906994D01*
X88955072Y-100923634D01*
X89004987Y-101005088D01*
X89151250Y-101173938D01*
X89323126Y-101316632D01*
X89516000Y-101429338D01*
X89520825Y-101431180D01*
X89520826Y-101431181D01*
X89593612Y-101458975D01*
X89724692Y-101509030D01*
X89729760Y-101510061D01*
X89729763Y-101510062D01*
X89809817Y-101526349D01*
X89943597Y-101553567D01*
X89948772Y-101553757D01*
X89948774Y-101553757D01*
X90161673Y-101561564D01*
X90161677Y-101561564D01*
X90166837Y-101561753D01*
X90171957Y-101561097D01*
X90171959Y-101561097D01*
X90383288Y-101534025D01*
X90383289Y-101534025D01*
X90388416Y-101533368D01*
X90393366Y-101531883D01*
X90597429Y-101470661D01*
X90597434Y-101470659D01*
X90602384Y-101469174D01*
X90802994Y-101370896D01*
X90984860Y-101241173D01*
X90992449Y-101233611D01*
X91085701Y-101140684D01*
X91143096Y-101083489D01*
X91170676Y-101045108D01*
X91262670Y-100917083D01*
X91273453Y-100902077D01*
X91294320Y-100859857D01*
X91370136Y-100706453D01*
X91370137Y-100706451D01*
X91372430Y-100701811D01*
X91416641Y-100556297D01*
X91435865Y-100493023D01*
X91435865Y-100493021D01*
X91437370Y-100488069D01*
X91466529Y-100266590D01*
X91468156Y-100200000D01*
X91449852Y-99977361D01*
X91395431Y-99760702D01*
X91306354Y-99555840D01*
X91194799Y-99383402D01*
X91187822Y-99372617D01*
X91187820Y-99372614D01*
X91185014Y-99368277D01*
X91034670Y-99203051D01*
X91030619Y-99199852D01*
X91030615Y-99199848D01*
X90863414Y-99067800D01*
X90863410Y-99067798D01*
X90859359Y-99064598D01*
X90663789Y-98956638D01*
X90658920Y-98954914D01*
X90658916Y-98954912D01*
X90458087Y-98883795D01*
X90458083Y-98883794D01*
X90453212Y-98882069D01*
X90448119Y-98881162D01*
X90448116Y-98881161D01*
X90238373Y-98843800D01*
X90238367Y-98843799D01*
X90233284Y-98842894D01*
X90159452Y-98841992D01*
X90015081Y-98840228D01*
X90015079Y-98840228D01*
X90009911Y-98840165D01*
X89789091Y-98873955D01*
X89576756Y-98943357D01*
X89546443Y-98959137D01*
X89418460Y-99025761D01*
X89378607Y-99046507D01*
X89374474Y-99049610D01*
X89374471Y-99049612D01*
X89291450Y-99111946D01*
X89199965Y-99180635D01*
X89196393Y-99184373D01*
X89100616Y-99284598D01*
X89045629Y-99342138D01*
X88938201Y-99499621D01*
X88883293Y-99544621D01*
X88812768Y-99552792D01*
X88749021Y-99521538D01*
X88728324Y-99497054D01*
X88647822Y-99372617D01*
X88647820Y-99372614D01*
X88645014Y-99368277D01*
X88494670Y-99203051D01*
X88490619Y-99199852D01*
X88490615Y-99199848D01*
X88323414Y-99067800D01*
X88323410Y-99067798D01*
X88319359Y-99064598D01*
X88123789Y-98956638D01*
X88118920Y-98954914D01*
X88118916Y-98954912D01*
X87918087Y-98883795D01*
X87918083Y-98883794D01*
X87913212Y-98882069D01*
X87908119Y-98881162D01*
X87908116Y-98881161D01*
X87698373Y-98843800D01*
X87698367Y-98843799D01*
X87693284Y-98842894D01*
X87619452Y-98841992D01*
X87475081Y-98840228D01*
X87475079Y-98840228D01*
X87469911Y-98840165D01*
X87249091Y-98873955D01*
X87036756Y-98943357D01*
X87006443Y-98959137D01*
X86878460Y-99025761D01*
X86838607Y-99046507D01*
X86834474Y-99049610D01*
X86834471Y-99049612D01*
X86751450Y-99111946D01*
X86659965Y-99180635D01*
X86656393Y-99184373D01*
X86578898Y-99265466D01*
X86517374Y-99300895D01*
X86446462Y-99297438D01*
X86388676Y-99256192D01*
X86369823Y-99222644D01*
X86328324Y-99111946D01*
X86319786Y-99096351D01*
X86243285Y-98994276D01*
X86230724Y-98981715D01*
X86128649Y-98905214D01*
X86113054Y-98896676D01*
X85992606Y-98851522D01*
X85977351Y-98847895D01*
X85926486Y-98842369D01*
X85919672Y-98842000D01*
X85297115Y-98842000D01*
X85281876Y-98846475D01*
X85280671Y-98847865D01*
X85279000Y-98855548D01*
X85279000Y-101539884D01*
X84771000Y-101539884D01*
X84771000Y-100472115D01*
X84766525Y-100456876D01*
X84765135Y-100455671D01*
X84757452Y-100454000D01*
X83685116Y-100454000D01*
X83669877Y-100458475D01*
X83668672Y-100459865D01*
X83667001Y-100467548D01*
X83667001Y-101094669D01*
X68008000Y-101094669D01*
X68008000Y-99927885D01*
X83667000Y-99927885D01*
X83671475Y-99943124D01*
X83672865Y-99944329D01*
X83680548Y-99946000D01*
X84752885Y-99946000D01*
X84768124Y-99941525D01*
X84769329Y-99940135D01*
X84771000Y-99932452D01*
X84771000Y-98860116D01*
X84766525Y-98844877D01*
X84765135Y-98843672D01*
X84757452Y-98842001D01*
X84130331Y-98842001D01*
X84123510Y-98842371D01*
X84072648Y-98847895D01*
X84057396Y-98851521D01*
X83936946Y-98896676D01*
X83921351Y-98905214D01*
X83819276Y-98981715D01*
X83806715Y-98994276D01*
X83730214Y-99096351D01*
X83721676Y-99111946D01*
X83676522Y-99232394D01*
X83672895Y-99247649D01*
X83667369Y-99298514D01*
X83667000Y-99305328D01*
X83667000Y-99927885D01*
X68008000Y-99927885D01*
X68008000Y-95431695D01*
X85337251Y-95431695D01*
X85337548Y-95436848D01*
X85337548Y-95436851D01*
X85347422Y-95608100D01*
X85350110Y-95654715D01*
X85351247Y-95659761D01*
X85351248Y-95659767D01*
X85371119Y-95747939D01*
X85399222Y-95872639D01*
X85483266Y-96079616D01*
X85599987Y-96270088D01*
X85746250Y-96438938D01*
X85918126Y-96581632D01*
X86111000Y-96694338D01*
X86319692Y-96774030D01*
X86324760Y-96775061D01*
X86324763Y-96775062D01*
X86432017Y-96796883D01*
X86538597Y-96818567D01*
X86543772Y-96818757D01*
X86543774Y-96818757D01*
X86756673Y-96826564D01*
X86756677Y-96826564D01*
X86761837Y-96826753D01*
X86766957Y-96826097D01*
X86766959Y-96826097D01*
X86978288Y-96799025D01*
X86978289Y-96799025D01*
X86983416Y-96798368D01*
X86988366Y-96796883D01*
X87192429Y-96735661D01*
X87192434Y-96735659D01*
X87197384Y-96734174D01*
X87397994Y-96635896D01*
X87579860Y-96506173D01*
X87613827Y-96472325D01*
X87734435Y-96352137D01*
X87738096Y-96348489D01*
X87797594Y-96265689D01*
X87865435Y-96171277D01*
X87868453Y-96167077D01*
X87936914Y-96028557D01*
X87965136Y-95971453D01*
X87965137Y-95971451D01*
X87967430Y-95966811D01*
X88032370Y-95753069D01*
X88061529Y-95531590D01*
X88061611Y-95528240D01*
X88063074Y-95468365D01*
X88063074Y-95468361D01*
X88063156Y-95465000D01*
X88060418Y-95431695D01*
X89337251Y-95431695D01*
X89337548Y-95436848D01*
X89337548Y-95436851D01*
X89347422Y-95608100D01*
X89350110Y-95654715D01*
X89351247Y-95659761D01*
X89351248Y-95659767D01*
X89371119Y-95747939D01*
X89399222Y-95872639D01*
X89483266Y-96079616D01*
X89599987Y-96270088D01*
X89746250Y-96438938D01*
X89918126Y-96581632D01*
X90111000Y-96694338D01*
X90319692Y-96774030D01*
X90324760Y-96775061D01*
X90324763Y-96775062D01*
X90432017Y-96796883D01*
X90538597Y-96818567D01*
X90543772Y-96818757D01*
X90543774Y-96818757D01*
X90756673Y-96826564D01*
X90756677Y-96826564D01*
X90761837Y-96826753D01*
X90766957Y-96826097D01*
X90766959Y-96826097D01*
X90978288Y-96799025D01*
X90978289Y-96799025D01*
X90983416Y-96798368D01*
X90988366Y-96796883D01*
X91192429Y-96735661D01*
X91192434Y-96735659D01*
X91197384Y-96734174D01*
X91397994Y-96635896D01*
X91579860Y-96506173D01*
X91608333Y-96477800D01*
X125565502Y-96477800D01*
X125585457Y-96705887D01*
X125586881Y-96711200D01*
X125586881Y-96711202D01*
X125617793Y-96826564D01*
X125644716Y-96927043D01*
X125647039Y-96932024D01*
X125647039Y-96932025D01*
X125739151Y-97129562D01*
X125739154Y-97129567D01*
X125741477Y-97134549D01*
X125744634Y-97139057D01*
X125855017Y-97296700D01*
X125872802Y-97322100D01*
X126034700Y-97483998D01*
X126039208Y-97487155D01*
X126039211Y-97487157D01*
X126117389Y-97541898D01*
X126222251Y-97615323D01*
X126227233Y-97617646D01*
X126227238Y-97617649D01*
X126424775Y-97709761D01*
X126429757Y-97712084D01*
X126435065Y-97713506D01*
X126435067Y-97713507D01*
X126645598Y-97769919D01*
X126645600Y-97769919D01*
X126650913Y-97771343D01*
X126879000Y-97791298D01*
X127107087Y-97771343D01*
X127112400Y-97769919D01*
X127112402Y-97769919D01*
X127322933Y-97713507D01*
X127322935Y-97713506D01*
X127328243Y-97712084D01*
X127333225Y-97709761D01*
X127530762Y-97617649D01*
X127530767Y-97617646D01*
X127535749Y-97615323D01*
X127640611Y-97541898D01*
X127718789Y-97487157D01*
X127718792Y-97487155D01*
X127723300Y-97483998D01*
X127885198Y-97322100D01*
X127902984Y-97296700D01*
X128013366Y-97139057D01*
X128016523Y-97134549D01*
X128018846Y-97129567D01*
X128018849Y-97129562D01*
X128110961Y-96932025D01*
X128110961Y-96932024D01*
X128113284Y-96927043D01*
X128140208Y-96826564D01*
X128171119Y-96711202D01*
X128171119Y-96711200D01*
X128172543Y-96705887D01*
X128192498Y-96477800D01*
X128190276Y-96452400D01*
X128918302Y-96452400D01*
X128938257Y-96680487D01*
X128939681Y-96685800D01*
X128939681Y-96685802D01*
X128975307Y-96818757D01*
X128997516Y-96901643D01*
X128999839Y-96906624D01*
X128999839Y-96906625D01*
X129091951Y-97104162D01*
X129091954Y-97104167D01*
X129094277Y-97109149D01*
X129225602Y-97296700D01*
X129387500Y-97458598D01*
X129392008Y-97461755D01*
X129392011Y-97461757D01*
X129418209Y-97480101D01*
X129575051Y-97589923D01*
X129580033Y-97592246D01*
X129580038Y-97592249D01*
X129777575Y-97684361D01*
X129782557Y-97686684D01*
X129787865Y-97688106D01*
X129787867Y-97688107D01*
X129998398Y-97744519D01*
X129998400Y-97744519D01*
X130003713Y-97745943D01*
X130231800Y-97765898D01*
X130459887Y-97745943D01*
X130465200Y-97744519D01*
X130465202Y-97744519D01*
X130675733Y-97688107D01*
X130675735Y-97688106D01*
X130681043Y-97686684D01*
X130686025Y-97684361D01*
X130883562Y-97592249D01*
X130883567Y-97592246D01*
X130888549Y-97589923D01*
X131045391Y-97480101D01*
X131071589Y-97461757D01*
X131071592Y-97461755D01*
X131076100Y-97458598D01*
X131237998Y-97296700D01*
X131369323Y-97109149D01*
X131371646Y-97104167D01*
X131371649Y-97104162D01*
X131463761Y-96906625D01*
X131463761Y-96906624D01*
X131466084Y-96901643D01*
X131488294Y-96818757D01*
X131523919Y-96685802D01*
X131523919Y-96685800D01*
X131525343Y-96680487D01*
X131545298Y-96452400D01*
X131525343Y-96224313D01*
X131508764Y-96162438D01*
X131467507Y-96008467D01*
X131467506Y-96008465D01*
X131466084Y-96003157D01*
X131405223Y-95872639D01*
X131371649Y-95800638D01*
X131371646Y-95800633D01*
X131369323Y-95795651D01*
X131258942Y-95638011D01*
X131241157Y-95612611D01*
X131241155Y-95612608D01*
X131237998Y-95608100D01*
X131076100Y-95446202D01*
X131071592Y-95443045D01*
X131071589Y-95443043D01*
X130993411Y-95388302D01*
X130888549Y-95314877D01*
X130883567Y-95312554D01*
X130883562Y-95312551D01*
X130686025Y-95220439D01*
X130686024Y-95220439D01*
X130681043Y-95218116D01*
X130675735Y-95216694D01*
X130675733Y-95216693D01*
X130465202Y-95160281D01*
X130465200Y-95160281D01*
X130459887Y-95158857D01*
X130231800Y-95138902D01*
X130003713Y-95158857D01*
X129998400Y-95160281D01*
X129998398Y-95160281D01*
X129787867Y-95216693D01*
X129787865Y-95216694D01*
X129782557Y-95218116D01*
X129777576Y-95220439D01*
X129777575Y-95220439D01*
X129580038Y-95312551D01*
X129580033Y-95312554D01*
X129575051Y-95314877D01*
X129470189Y-95388302D01*
X129392011Y-95443043D01*
X129392008Y-95443045D01*
X129387500Y-95446202D01*
X129225602Y-95608100D01*
X129222445Y-95612608D01*
X129222443Y-95612611D01*
X129204658Y-95638011D01*
X129094277Y-95795651D01*
X129091954Y-95800633D01*
X129091951Y-95800638D01*
X129058377Y-95872639D01*
X128997516Y-96003157D01*
X128996094Y-96008465D01*
X128996093Y-96008467D01*
X128954836Y-96162438D01*
X128938257Y-96224313D01*
X128918302Y-96452400D01*
X128190276Y-96452400D01*
X128172543Y-96249713D01*
X128171119Y-96244398D01*
X128114707Y-96033867D01*
X128114706Y-96033865D01*
X128113284Y-96028557D01*
X128084492Y-95966811D01*
X128018849Y-95826038D01*
X128018846Y-95826033D01*
X128016523Y-95821051D01*
X127943098Y-95716189D01*
X127888357Y-95638011D01*
X127888355Y-95638008D01*
X127885198Y-95633500D01*
X127723300Y-95471602D01*
X127718792Y-95468445D01*
X127718789Y-95468443D01*
X127640611Y-95413702D01*
X127535749Y-95340277D01*
X127530767Y-95337954D01*
X127530762Y-95337951D01*
X127333225Y-95245839D01*
X127333224Y-95245839D01*
X127328243Y-95243516D01*
X127322935Y-95242094D01*
X127322933Y-95242093D01*
X127112402Y-95185681D01*
X127112400Y-95185681D01*
X127107087Y-95184257D01*
X126879000Y-95164302D01*
X126650913Y-95184257D01*
X126645600Y-95185681D01*
X126645598Y-95185681D01*
X126435067Y-95242093D01*
X126435065Y-95242094D01*
X126429757Y-95243516D01*
X126424776Y-95245839D01*
X126424775Y-95245839D01*
X126227238Y-95337951D01*
X126227233Y-95337954D01*
X126222251Y-95340277D01*
X126117389Y-95413702D01*
X126039211Y-95468443D01*
X126039208Y-95468445D01*
X126034700Y-95471602D01*
X125872802Y-95633500D01*
X125869645Y-95638008D01*
X125869643Y-95638011D01*
X125814902Y-95716189D01*
X125741477Y-95821051D01*
X125739154Y-95826033D01*
X125739151Y-95826038D01*
X125673508Y-95966811D01*
X125644716Y-96028557D01*
X125643294Y-96033865D01*
X125643293Y-96033867D01*
X125586881Y-96244398D01*
X125585457Y-96249713D01*
X125565502Y-96477800D01*
X91608333Y-96477800D01*
X91613827Y-96472325D01*
X91734435Y-96352137D01*
X91738096Y-96348489D01*
X91797594Y-96265689D01*
X91865435Y-96171277D01*
X91868453Y-96167077D01*
X91936914Y-96028557D01*
X91965136Y-95971453D01*
X91965137Y-95971451D01*
X91967430Y-95966811D01*
X92032370Y-95753069D01*
X92061529Y-95531590D01*
X92061611Y-95528240D01*
X92063074Y-95468365D01*
X92063074Y-95468361D01*
X92063156Y-95465000D01*
X92044852Y-95242361D01*
X91990431Y-95025702D01*
X91901354Y-94820840D01*
X91780014Y-94633277D01*
X91776532Y-94629450D01*
X91632798Y-94471488D01*
X91601746Y-94407642D01*
X91610141Y-94337143D01*
X91655317Y-94282375D01*
X91681761Y-94268706D01*
X91788297Y-94228767D01*
X91796705Y-94225615D01*
X91913261Y-94138261D01*
X92000615Y-94021705D01*
X92051745Y-93885316D01*
X92058500Y-93823134D01*
X92058500Y-92026866D01*
X92051745Y-91964684D01*
X92042042Y-91938800D01*
X97097702Y-91938800D01*
X97117657Y-92166887D01*
X97119081Y-92172200D01*
X97119081Y-92172202D01*
X97152969Y-92298671D01*
X97176916Y-92388043D01*
X97179239Y-92393024D01*
X97179239Y-92393025D01*
X97271351Y-92590562D01*
X97271354Y-92590567D01*
X97273677Y-92595549D01*
X97347102Y-92700411D01*
X97400199Y-92776240D01*
X97405002Y-92783100D01*
X97566900Y-92944998D01*
X97571408Y-92948155D01*
X97571411Y-92948157D01*
X97649589Y-93002898D01*
X97754451Y-93076323D01*
X97759433Y-93078646D01*
X97759438Y-93078649D01*
X97921942Y-93154425D01*
X97961957Y-93173084D01*
X97967265Y-93174506D01*
X97967267Y-93174507D01*
X98177798Y-93230919D01*
X98177800Y-93230919D01*
X98183113Y-93232343D01*
X98411200Y-93252298D01*
X98639287Y-93232343D01*
X98644600Y-93230919D01*
X98644602Y-93230919D01*
X98855133Y-93174507D01*
X98855135Y-93174506D01*
X98860443Y-93173084D01*
X98900458Y-93154425D01*
X99062962Y-93078649D01*
X99062967Y-93078646D01*
X99067949Y-93076323D01*
X99172811Y-93002898D01*
X99250989Y-92948157D01*
X99250992Y-92948155D01*
X99255500Y-92944998D01*
X99417398Y-92783100D01*
X99422202Y-92776240D01*
X99475298Y-92700411D01*
X99548723Y-92595549D01*
X99551046Y-92590567D01*
X99551049Y-92590562D01*
X99643161Y-92393025D01*
X99643161Y-92393024D01*
X99645484Y-92388043D01*
X99669432Y-92298671D01*
X99703319Y-92172202D01*
X99703319Y-92172200D01*
X99704743Y-92166887D01*
X99724698Y-91938800D01*
X99722476Y-91913400D01*
X100425102Y-91913400D01*
X100445057Y-92141487D01*
X100446481Y-92146800D01*
X100446481Y-92146802D01*
X100487175Y-92298671D01*
X100504316Y-92362643D01*
X100506639Y-92367624D01*
X100506639Y-92367625D01*
X100598751Y-92565162D01*
X100598754Y-92565167D01*
X100601077Y-92570149D01*
X100622019Y-92600057D01*
X100714617Y-92732300D01*
X100732402Y-92757700D01*
X100894300Y-92919598D01*
X100898808Y-92922755D01*
X100898811Y-92922757D01*
X100925009Y-92941101D01*
X101081851Y-93050923D01*
X101086833Y-93053246D01*
X101086838Y-93053249D01*
X101284375Y-93145361D01*
X101289357Y-93147684D01*
X101294665Y-93149106D01*
X101294667Y-93149107D01*
X101505198Y-93205519D01*
X101505200Y-93205519D01*
X101510513Y-93206943D01*
X101738600Y-93226898D01*
X101966687Y-93206943D01*
X101972000Y-93205519D01*
X101972002Y-93205519D01*
X102182533Y-93149107D01*
X102182535Y-93149106D01*
X102187843Y-93147684D01*
X102192825Y-93145361D01*
X102390362Y-93053249D01*
X102390367Y-93053246D01*
X102395349Y-93050923D01*
X102552191Y-92941101D01*
X102578389Y-92922757D01*
X102578392Y-92922755D01*
X102582900Y-92919598D01*
X102744798Y-92757700D01*
X102762584Y-92732300D01*
X102855181Y-92600057D01*
X102876123Y-92570149D01*
X102878446Y-92565167D01*
X102878449Y-92565162D01*
X102970561Y-92367625D01*
X102970561Y-92367624D01*
X102972884Y-92362643D01*
X102990026Y-92298671D01*
X103030719Y-92146802D01*
X103030719Y-92146800D01*
X103032143Y-92141487D01*
X103052098Y-91913400D01*
X103049876Y-91888000D01*
X103752502Y-91888000D01*
X103772457Y-92116087D01*
X103773881Y-92121400D01*
X103773881Y-92121402D01*
X103821381Y-92298671D01*
X103831716Y-92337243D01*
X103834039Y-92342224D01*
X103834039Y-92342225D01*
X103926151Y-92539762D01*
X103926154Y-92539767D01*
X103928477Y-92544749D01*
X103949419Y-92574657D01*
X104053485Y-92723278D01*
X104059802Y-92732300D01*
X104221700Y-92894198D01*
X104226208Y-92897355D01*
X104226211Y-92897357D01*
X104257975Y-92919598D01*
X104409251Y-93025523D01*
X104414233Y-93027846D01*
X104414238Y-93027849D01*
X104531422Y-93082492D01*
X104616757Y-93122284D01*
X104622065Y-93123706D01*
X104622067Y-93123707D01*
X104832598Y-93180119D01*
X104832600Y-93180119D01*
X104837913Y-93181543D01*
X105066000Y-93201498D01*
X105294087Y-93181543D01*
X105299400Y-93180119D01*
X105299402Y-93180119D01*
X105369239Y-93161406D01*
X116503423Y-93161406D01*
X116508704Y-93168461D01*
X116685080Y-93271527D01*
X116694363Y-93275974D01*
X116901003Y-93354883D01*
X116910901Y-93357759D01*
X117127653Y-93401857D01*
X117137883Y-93403076D01*
X117358914Y-93411182D01*
X117369223Y-93410714D01*
X117588623Y-93382608D01*
X117598688Y-93380468D01*
X117810557Y-93316905D01*
X117820152Y-93313144D01*
X118018778Y-93215838D01*
X118027636Y-93210559D01*
X118085097Y-93169572D01*
X118093497Y-93158874D01*
X118086510Y-93145721D01*
X117312811Y-92372021D01*
X117298868Y-92364408D01*
X117297034Y-92364539D01*
X117290420Y-92368790D01*
X116510180Y-93149031D01*
X116503423Y-93161406D01*
X105369239Y-93161406D01*
X105509933Y-93123707D01*
X105509935Y-93123706D01*
X105515243Y-93122284D01*
X105600578Y-93082492D01*
X105717762Y-93027849D01*
X105717767Y-93027846D01*
X105722749Y-93025523D01*
X105874025Y-92919598D01*
X105905789Y-92897357D01*
X105905792Y-92897355D01*
X105910300Y-92894198D01*
X106072198Y-92732300D01*
X106078516Y-92723278D01*
X106182581Y-92574657D01*
X106203523Y-92544749D01*
X106205846Y-92539767D01*
X106205849Y-92539762D01*
X106297961Y-92342225D01*
X106297961Y-92342224D01*
X106300284Y-92337243D01*
X106310620Y-92298671D01*
X106358119Y-92121402D01*
X106358119Y-92121400D01*
X106359543Y-92116087D01*
X106372268Y-91970638D01*
X115887893Y-91970638D01*
X115900627Y-92191468D01*
X115902061Y-92201670D01*
X115950685Y-92417439D01*
X115953773Y-92427292D01*
X116036986Y-92632220D01*
X116041634Y-92641421D01*
X116130097Y-92785781D01*
X116140553Y-92795242D01*
X116149331Y-92791458D01*
X116927979Y-92012811D01*
X116934356Y-92001132D01*
X117664408Y-92001132D01*
X117664539Y-92002966D01*
X117668790Y-92009580D01*
X118446307Y-92787096D01*
X118458313Y-92793652D01*
X118467244Y-92786829D01*
X118533519Y-92761370D01*
X118603037Y-92775783D01*
X118651165Y-92821117D01*
X118656800Y-92830311D01*
X118659501Y-92834719D01*
X118811147Y-93009784D01*
X118943856Y-93119961D01*
X118978963Y-93149107D01*
X118989349Y-93157730D01*
X119189322Y-93274584D01*
X119405694Y-93357209D01*
X119410760Y-93358240D01*
X119410761Y-93358240D01*
X119463846Y-93369040D01*
X119632656Y-93403385D01*
X119763324Y-93408176D01*
X119858949Y-93411683D01*
X119858953Y-93411683D01*
X119864113Y-93411872D01*
X119869233Y-93411216D01*
X119869235Y-93411216D01*
X119942291Y-93401857D01*
X120093847Y-93382442D01*
X120098795Y-93380957D01*
X120098802Y-93380956D01*
X120310747Y-93317369D01*
X120315690Y-93315886D01*
X120397161Y-93275974D01*
X120519049Y-93216262D01*
X120519052Y-93216260D01*
X120523684Y-93213991D01*
X120712243Y-93079494D01*
X120876303Y-92916005D01*
X120945370Y-92819888D01*
X121001365Y-92776240D01*
X121072068Y-92769794D01*
X121135033Y-92802597D01*
X121155128Y-92827584D01*
X121156799Y-92830311D01*
X121156802Y-92830315D01*
X121159501Y-92834719D01*
X121311147Y-93009784D01*
X121443856Y-93119961D01*
X121478963Y-93149107D01*
X121489349Y-93157730D01*
X121689322Y-93274584D01*
X121905694Y-93357209D01*
X121910760Y-93358240D01*
X121910761Y-93358240D01*
X121963846Y-93369040D01*
X122132656Y-93403385D01*
X122263324Y-93408176D01*
X122358949Y-93411683D01*
X122358953Y-93411683D01*
X122364113Y-93411872D01*
X122369233Y-93411216D01*
X122369235Y-93411216D01*
X122442291Y-93401857D01*
X122593847Y-93382442D01*
X122598795Y-93380957D01*
X122598802Y-93380956D01*
X122810747Y-93317369D01*
X122815690Y-93315886D01*
X122897161Y-93275974D01*
X123019049Y-93216262D01*
X123019052Y-93216260D01*
X123023684Y-93213991D01*
X123212243Y-93079494D01*
X123376303Y-92916005D01*
X123511458Y-92727917D01*
X123587204Y-92574657D01*
X123611784Y-92524922D01*
X123611785Y-92524920D01*
X123614078Y-92520280D01*
X123681408Y-92298671D01*
X123711640Y-92069041D01*
X123713327Y-92000000D01*
X123703669Y-91882525D01*
X123694773Y-91774318D01*
X123694772Y-91774312D01*
X123694349Y-91769167D01*
X123660797Y-91635592D01*
X123639184Y-91549544D01*
X123639183Y-91549540D01*
X123637925Y-91544533D01*
X123611855Y-91484575D01*
X123547630Y-91336868D01*
X123547628Y-91336865D01*
X123545570Y-91332131D01*
X123419764Y-91137665D01*
X123263887Y-90966358D01*
X123259836Y-90963159D01*
X123259832Y-90963155D01*
X123086177Y-90826011D01*
X123086172Y-90826008D01*
X123082123Y-90822810D01*
X123077607Y-90820317D01*
X123077604Y-90820315D01*
X122883879Y-90713373D01*
X122883875Y-90713371D01*
X122879355Y-90710876D01*
X122874486Y-90709152D01*
X122874482Y-90709150D01*
X122665903Y-90635288D01*
X122665899Y-90635287D01*
X122661028Y-90633562D01*
X122655935Y-90632655D01*
X122655932Y-90632654D01*
X122438095Y-90593851D01*
X122438089Y-90593850D01*
X122433006Y-90592945D01*
X122360096Y-90592054D01*
X122206581Y-90590179D01*
X122206579Y-90590179D01*
X122201411Y-90590116D01*
X121972464Y-90625150D01*
X121752314Y-90697106D01*
X121747726Y-90699494D01*
X121747722Y-90699496D01*
X121551461Y-90801663D01*
X121546872Y-90804052D01*
X121542739Y-90807155D01*
X121542736Y-90807157D01*
X121370469Y-90936499D01*
X121361655Y-90943117D01*
X121201639Y-91110564D01*
X121154836Y-91179174D01*
X121099927Y-91224175D01*
X121029402Y-91232346D01*
X120965655Y-91201092D01*
X120944959Y-91176609D01*
X120922577Y-91142013D01*
X120922574Y-91142009D01*
X120919764Y-91137665D01*
X120763887Y-90966358D01*
X120759836Y-90963159D01*
X120759832Y-90963155D01*
X120586177Y-90826011D01*
X120586172Y-90826008D01*
X120582123Y-90822810D01*
X120577607Y-90820317D01*
X120577604Y-90820315D01*
X120383879Y-90713373D01*
X120383875Y-90713371D01*
X120379355Y-90710876D01*
X120374486Y-90709152D01*
X120374482Y-90709150D01*
X120165903Y-90635288D01*
X120165899Y-90635287D01*
X120161028Y-90633562D01*
X120155935Y-90632655D01*
X120155932Y-90632654D01*
X119938095Y-90593851D01*
X119938089Y-90593850D01*
X119933006Y-90592945D01*
X119860096Y-90592054D01*
X119706581Y-90590179D01*
X119706579Y-90590179D01*
X119701411Y-90590116D01*
X119472464Y-90625150D01*
X119252314Y-90697106D01*
X119247726Y-90699494D01*
X119247722Y-90699496D01*
X119051461Y-90801663D01*
X119046872Y-90804052D01*
X119042739Y-90807155D01*
X119042736Y-90807157D01*
X118870469Y-90936499D01*
X118861655Y-90943117D01*
X118701639Y-91110564D01*
X118698730Y-91114829D01*
X118698724Y-91114837D01*
X118650199Y-91185972D01*
X118595288Y-91230975D01*
X118524763Y-91239146D01*
X118463884Y-91210439D01*
X118458538Y-91205835D01*
X118448973Y-91210238D01*
X117672021Y-91987189D01*
X117664408Y-92001132D01*
X116934356Y-92001132D01*
X116935592Y-91998868D01*
X116935461Y-91997034D01*
X116931210Y-91990420D01*
X116153862Y-91213073D01*
X116142330Y-91206776D01*
X116130048Y-91216399D01*
X116074467Y-91297877D01*
X116069379Y-91306833D01*
X115976252Y-91507459D01*
X115972689Y-91517146D01*
X115913581Y-91730280D01*
X115911650Y-91740400D01*
X115888145Y-91960349D01*
X115887893Y-91970638D01*
X106372268Y-91970638D01*
X106379498Y-91888000D01*
X106359543Y-91659913D01*
X106351852Y-91631210D01*
X106301707Y-91444067D01*
X106301706Y-91444065D01*
X106300284Y-91438757D01*
X106248541Y-91327793D01*
X106205849Y-91236238D01*
X106205846Y-91236233D01*
X106203523Y-91231251D01*
X106093142Y-91073611D01*
X106075357Y-91048211D01*
X106075355Y-91048208D01*
X106072198Y-91043700D01*
X105910300Y-90881802D01*
X105905792Y-90878645D01*
X105905789Y-90878643D01*
X105851616Y-90840711D01*
X116505508Y-90840711D01*
X116512251Y-90853040D01*
X117287189Y-91627979D01*
X117301132Y-91635592D01*
X117302966Y-91635461D01*
X117309580Y-91631210D01*
X118088994Y-90851795D01*
X118096011Y-90838944D01*
X118088237Y-90828274D01*
X118085902Y-90826430D01*
X118077320Y-90820729D01*
X117883678Y-90713833D01*
X117874272Y-90709606D01*
X117665772Y-90635772D01*
X117655809Y-90633140D01*
X117438047Y-90594350D01*
X117427796Y-90593381D01*
X117206616Y-90590679D01*
X117196332Y-90591399D01*
X116977693Y-90624855D01*
X116967666Y-90627244D01*
X116757426Y-90695961D01*
X116747916Y-90699958D01*
X116551725Y-90802089D01*
X116543007Y-90807578D01*
X116513961Y-90829386D01*
X116505508Y-90840711D01*
X105851616Y-90840711D01*
X105791977Y-90798951D01*
X105722749Y-90750477D01*
X105717767Y-90748154D01*
X105717762Y-90748151D01*
X105520225Y-90656039D01*
X105520224Y-90656039D01*
X105515243Y-90653716D01*
X105509935Y-90652294D01*
X105509933Y-90652293D01*
X105299402Y-90595881D01*
X105299400Y-90595881D01*
X105294087Y-90594457D01*
X105066000Y-90574502D01*
X104837913Y-90594457D01*
X104832600Y-90595881D01*
X104832598Y-90595881D01*
X104622067Y-90652293D01*
X104622065Y-90652294D01*
X104616757Y-90653716D01*
X104611776Y-90656039D01*
X104611775Y-90656039D01*
X104414238Y-90748151D01*
X104414233Y-90748154D01*
X104409251Y-90750477D01*
X104340023Y-90798951D01*
X104226211Y-90878643D01*
X104226208Y-90878645D01*
X104221700Y-90881802D01*
X104059802Y-91043700D01*
X104056645Y-91048208D01*
X104056643Y-91048211D01*
X104038858Y-91073611D01*
X103928477Y-91231251D01*
X103926154Y-91236233D01*
X103926151Y-91236238D01*
X103883459Y-91327793D01*
X103831716Y-91438757D01*
X103830294Y-91444065D01*
X103830293Y-91444067D01*
X103780148Y-91631210D01*
X103772457Y-91659913D01*
X103752502Y-91888000D01*
X103049876Y-91888000D01*
X103032143Y-91685313D01*
X103030719Y-91679998D01*
X102974307Y-91469467D01*
X102974306Y-91469465D01*
X102972884Y-91464157D01*
X102909297Y-91327793D01*
X102878449Y-91261638D01*
X102878446Y-91261633D01*
X102876123Y-91256651D01*
X102790128Y-91133838D01*
X102747957Y-91073611D01*
X102747955Y-91073608D01*
X102744798Y-91069100D01*
X102582900Y-90907202D01*
X102578392Y-90904045D01*
X102578389Y-90904043D01*
X102485418Y-90838944D01*
X102395349Y-90775877D01*
X102390367Y-90773554D01*
X102390362Y-90773551D01*
X102192825Y-90681439D01*
X102192824Y-90681439D01*
X102187843Y-90679116D01*
X102182535Y-90677694D01*
X102182533Y-90677693D01*
X101972002Y-90621281D01*
X101972000Y-90621281D01*
X101966687Y-90619857D01*
X101738600Y-90599902D01*
X101510513Y-90619857D01*
X101505200Y-90621281D01*
X101505198Y-90621281D01*
X101294667Y-90677693D01*
X101294665Y-90677694D01*
X101289357Y-90679116D01*
X101284376Y-90681439D01*
X101284375Y-90681439D01*
X101086838Y-90773551D01*
X101086833Y-90773554D01*
X101081851Y-90775877D01*
X100991782Y-90838944D01*
X100898811Y-90904043D01*
X100898808Y-90904045D01*
X100894300Y-90907202D01*
X100732402Y-91069100D01*
X100729245Y-91073608D01*
X100729243Y-91073611D01*
X100687072Y-91133838D01*
X100601077Y-91256651D01*
X100598754Y-91261633D01*
X100598751Y-91261638D01*
X100567903Y-91327793D01*
X100504316Y-91464157D01*
X100502894Y-91469465D01*
X100502893Y-91469467D01*
X100446481Y-91679998D01*
X100445057Y-91685313D01*
X100425102Y-91913400D01*
X99722476Y-91913400D01*
X99704743Y-91710713D01*
X99703319Y-91705398D01*
X99646907Y-91494867D01*
X99646906Y-91494865D01*
X99645484Y-91489557D01*
X99578049Y-91344941D01*
X99551049Y-91287038D01*
X99551046Y-91287033D01*
X99548723Y-91282051D01*
X99428646Y-91110564D01*
X99420557Y-91099011D01*
X99420555Y-91099008D01*
X99417398Y-91094500D01*
X99255500Y-90932602D01*
X99250992Y-90929445D01*
X99250989Y-90929443D01*
X99121743Y-90838944D01*
X99067949Y-90801277D01*
X99062967Y-90798954D01*
X99062962Y-90798951D01*
X98865425Y-90706839D01*
X98865424Y-90706839D01*
X98860443Y-90704516D01*
X98855135Y-90703094D01*
X98855133Y-90703093D01*
X98644602Y-90646681D01*
X98644600Y-90646681D01*
X98639287Y-90645257D01*
X98411200Y-90625302D01*
X98183113Y-90645257D01*
X98177800Y-90646681D01*
X98177798Y-90646681D01*
X97967267Y-90703093D01*
X97967265Y-90703094D01*
X97961957Y-90704516D01*
X97956976Y-90706839D01*
X97956975Y-90706839D01*
X97759438Y-90798951D01*
X97759433Y-90798954D01*
X97754451Y-90801277D01*
X97700657Y-90838944D01*
X97571411Y-90929443D01*
X97571408Y-90929445D01*
X97566900Y-90932602D01*
X97405002Y-91094500D01*
X97401845Y-91099008D01*
X97401843Y-91099011D01*
X97393754Y-91110564D01*
X97273677Y-91282051D01*
X97271354Y-91287033D01*
X97271351Y-91287038D01*
X97244351Y-91344941D01*
X97176916Y-91489557D01*
X97175494Y-91494865D01*
X97175493Y-91494867D01*
X97119081Y-91705398D01*
X97117657Y-91710713D01*
X97097702Y-91938800D01*
X92042042Y-91938800D01*
X92000615Y-91828295D01*
X91913261Y-91711739D01*
X91796705Y-91624385D01*
X91660316Y-91573255D01*
X91598134Y-91566500D01*
X89801866Y-91566500D01*
X89739684Y-91573255D01*
X89603295Y-91624385D01*
X89486739Y-91711739D01*
X89399385Y-91828295D01*
X89348255Y-91964684D01*
X89341500Y-92026866D01*
X89341500Y-93823134D01*
X89348255Y-93885316D01*
X89399385Y-94021705D01*
X89486739Y-94138261D01*
X89603295Y-94225615D01*
X89611704Y-94228767D01*
X89611705Y-94228768D01*
X89720451Y-94269535D01*
X89777216Y-94312176D01*
X89801916Y-94378738D01*
X89786709Y-94448087D01*
X89767316Y-94474568D01*
X89640629Y-94607138D01*
X89514743Y-94791680D01*
X89420688Y-94994305D01*
X89360989Y-95209570D01*
X89337251Y-95431695D01*
X88060418Y-95431695D01*
X88044852Y-95242361D01*
X87990431Y-95025702D01*
X87901354Y-94820840D01*
X87780014Y-94633277D01*
X87776532Y-94629450D01*
X87632798Y-94471488D01*
X87601746Y-94407642D01*
X87610141Y-94337143D01*
X87655317Y-94282375D01*
X87681761Y-94268706D01*
X87788297Y-94228767D01*
X87796705Y-94225615D01*
X87913261Y-94138261D01*
X88000615Y-94021705D01*
X88051745Y-93885316D01*
X88058500Y-93823134D01*
X88058500Y-92026866D01*
X88051745Y-91964684D01*
X88000615Y-91828295D01*
X87913261Y-91711739D01*
X87796705Y-91624385D01*
X87660316Y-91573255D01*
X87598134Y-91566500D01*
X85801866Y-91566500D01*
X85739684Y-91573255D01*
X85603295Y-91624385D01*
X85486739Y-91711739D01*
X85399385Y-91828295D01*
X85348255Y-91964684D01*
X85341500Y-92026866D01*
X85341500Y-93823134D01*
X85348255Y-93885316D01*
X85399385Y-94021705D01*
X85486739Y-94138261D01*
X85603295Y-94225615D01*
X85611704Y-94228767D01*
X85611705Y-94228768D01*
X85720451Y-94269535D01*
X85777216Y-94312176D01*
X85801916Y-94378738D01*
X85786709Y-94448087D01*
X85767316Y-94474568D01*
X85640629Y-94607138D01*
X85514743Y-94791680D01*
X85420688Y-94994305D01*
X85360989Y-95209570D01*
X85337251Y-95431695D01*
X68008000Y-95431695D01*
X68008000Y-87861406D01*
X80203423Y-87861406D01*
X80208704Y-87868461D01*
X80385080Y-87971527D01*
X80394363Y-87975974D01*
X80601003Y-88054883D01*
X80610901Y-88057759D01*
X80827653Y-88101857D01*
X80837883Y-88103076D01*
X81058914Y-88111182D01*
X81069223Y-88110714D01*
X81288623Y-88082608D01*
X81298688Y-88080468D01*
X81510557Y-88016905D01*
X81520152Y-88013144D01*
X81718778Y-87915838D01*
X81727636Y-87910559D01*
X81785097Y-87869572D01*
X81793497Y-87858874D01*
X81786510Y-87845721D01*
X81012811Y-87072021D01*
X80998868Y-87064408D01*
X80997034Y-87064539D01*
X80990420Y-87068790D01*
X80210180Y-87849031D01*
X80203423Y-87861406D01*
X68008000Y-87861406D01*
X68008000Y-86670638D01*
X79587893Y-86670638D01*
X79600627Y-86891468D01*
X79602061Y-86901670D01*
X79650685Y-87117439D01*
X79653773Y-87127292D01*
X79736986Y-87332220D01*
X79741634Y-87341421D01*
X79830097Y-87485781D01*
X79840553Y-87495242D01*
X79849331Y-87491458D01*
X80627979Y-86712811D01*
X80634356Y-86701132D01*
X81364408Y-86701132D01*
X81364539Y-86702966D01*
X81368790Y-86709580D01*
X82146307Y-87487096D01*
X82158313Y-87493652D01*
X82167244Y-87486829D01*
X82233519Y-87461370D01*
X82303037Y-87475783D01*
X82351165Y-87521117D01*
X82356800Y-87530311D01*
X82359501Y-87534719D01*
X82511147Y-87709784D01*
X82689349Y-87857730D01*
X82889322Y-87974584D01*
X83105694Y-88057209D01*
X83110760Y-88058240D01*
X83110761Y-88058240D01*
X83163846Y-88069040D01*
X83332656Y-88103385D01*
X83463324Y-88108176D01*
X83558949Y-88111683D01*
X83558953Y-88111683D01*
X83564113Y-88111872D01*
X83569233Y-88111216D01*
X83569235Y-88111216D01*
X83642291Y-88101857D01*
X83793847Y-88082442D01*
X83798795Y-88080957D01*
X83798802Y-88080956D01*
X84010747Y-88017369D01*
X84015690Y-88015886D01*
X84097161Y-87975974D01*
X84219049Y-87916262D01*
X84219052Y-87916260D01*
X84223684Y-87913991D01*
X84412243Y-87779494D01*
X84576303Y-87616005D01*
X84645370Y-87519888D01*
X84701365Y-87476240D01*
X84772068Y-87469794D01*
X84835033Y-87502597D01*
X84855128Y-87527584D01*
X84856799Y-87530311D01*
X84856802Y-87530315D01*
X84859501Y-87534719D01*
X85011147Y-87709784D01*
X85189349Y-87857730D01*
X85389322Y-87974584D01*
X85605694Y-88057209D01*
X85610760Y-88058240D01*
X85610761Y-88058240D01*
X85663846Y-88069040D01*
X85832656Y-88103385D01*
X85963324Y-88108176D01*
X86058949Y-88111683D01*
X86058953Y-88111683D01*
X86064113Y-88111872D01*
X86069233Y-88111216D01*
X86069235Y-88111216D01*
X86142291Y-88101857D01*
X86293847Y-88082442D01*
X86298795Y-88080957D01*
X86298802Y-88080956D01*
X86510747Y-88017369D01*
X86515690Y-88015886D01*
X86597161Y-87975974D01*
X86719049Y-87916262D01*
X86719052Y-87916260D01*
X86723684Y-87913991D01*
X86797406Y-87861406D01*
X94903423Y-87861406D01*
X94908704Y-87868461D01*
X95085080Y-87971527D01*
X95094363Y-87975974D01*
X95301003Y-88054883D01*
X95310901Y-88057759D01*
X95527653Y-88101857D01*
X95537883Y-88103076D01*
X95758914Y-88111182D01*
X95769223Y-88110714D01*
X95988623Y-88082608D01*
X95998688Y-88080468D01*
X96210557Y-88016905D01*
X96220152Y-88013144D01*
X96418778Y-87915838D01*
X96427636Y-87910559D01*
X96485097Y-87869572D01*
X96493497Y-87858874D01*
X96486510Y-87845721D01*
X95712811Y-87072021D01*
X95698868Y-87064408D01*
X95697034Y-87064539D01*
X95690420Y-87068790D01*
X94910180Y-87849031D01*
X94903423Y-87861406D01*
X86797406Y-87861406D01*
X86912243Y-87779494D01*
X87076303Y-87616005D01*
X87211458Y-87427917D01*
X87288349Y-87272340D01*
X87311784Y-87224922D01*
X87311785Y-87224920D01*
X87314078Y-87220280D01*
X87381408Y-86998671D01*
X87411640Y-86769041D01*
X87413327Y-86700000D01*
X87410913Y-86670638D01*
X94287893Y-86670638D01*
X94300627Y-86891468D01*
X94302061Y-86901670D01*
X94350685Y-87117439D01*
X94353773Y-87127292D01*
X94436986Y-87332220D01*
X94441634Y-87341421D01*
X94530097Y-87485781D01*
X94540553Y-87495242D01*
X94549331Y-87491458D01*
X95327979Y-86712811D01*
X95334356Y-86701132D01*
X96064408Y-86701132D01*
X96064539Y-86702966D01*
X96068790Y-86709580D01*
X96846307Y-87487096D01*
X96858313Y-87493652D01*
X96867244Y-87486829D01*
X96933519Y-87461370D01*
X97003037Y-87475783D01*
X97051165Y-87521117D01*
X97056800Y-87530311D01*
X97059501Y-87534719D01*
X97211147Y-87709784D01*
X97389349Y-87857730D01*
X97589322Y-87974584D01*
X97805694Y-88057209D01*
X97810760Y-88058240D01*
X97810761Y-88058240D01*
X97863846Y-88069040D01*
X98032656Y-88103385D01*
X98163324Y-88108176D01*
X98258949Y-88111683D01*
X98258953Y-88111683D01*
X98264113Y-88111872D01*
X98269233Y-88111216D01*
X98269235Y-88111216D01*
X98342291Y-88101857D01*
X98493847Y-88082442D01*
X98498795Y-88080957D01*
X98498802Y-88080956D01*
X98710747Y-88017369D01*
X98715690Y-88015886D01*
X98797161Y-87975974D01*
X98919049Y-87916262D01*
X98919052Y-87916260D01*
X98923684Y-87913991D01*
X99112243Y-87779494D01*
X99276303Y-87616005D01*
X99345370Y-87519888D01*
X99401365Y-87476240D01*
X99472068Y-87469794D01*
X99535033Y-87502597D01*
X99555128Y-87527584D01*
X99556799Y-87530311D01*
X99556802Y-87530315D01*
X99559501Y-87534719D01*
X99711147Y-87709784D01*
X99889349Y-87857730D01*
X100089322Y-87974584D01*
X100305694Y-88057209D01*
X100310760Y-88058240D01*
X100310761Y-88058240D01*
X100363846Y-88069040D01*
X100532656Y-88103385D01*
X100663324Y-88108176D01*
X100758949Y-88111683D01*
X100758953Y-88111683D01*
X100764113Y-88111872D01*
X100769233Y-88111216D01*
X100769235Y-88111216D01*
X100842291Y-88101857D01*
X100993847Y-88082442D01*
X100998795Y-88080957D01*
X100998802Y-88080956D01*
X101210747Y-88017369D01*
X101215690Y-88015886D01*
X101297161Y-87975974D01*
X101419049Y-87916262D01*
X101419052Y-87916260D01*
X101423684Y-87913991D01*
X101612243Y-87779494D01*
X101776303Y-87616005D01*
X101911458Y-87427917D01*
X101988349Y-87272340D01*
X102011784Y-87224922D01*
X102011785Y-87224920D01*
X102014078Y-87220280D01*
X102081408Y-86998671D01*
X102111640Y-86769041D01*
X102113327Y-86700000D01*
X102095024Y-86477375D01*
X102094773Y-86474318D01*
X102094772Y-86474312D01*
X102094349Y-86469167D01*
X102060797Y-86335592D01*
X102039184Y-86249544D01*
X102039183Y-86249540D01*
X102037925Y-86244533D01*
X102023771Y-86211981D01*
X101947630Y-86036868D01*
X101947628Y-86036865D01*
X101945570Y-86032131D01*
X101819764Y-85837665D01*
X101663887Y-85666358D01*
X101659836Y-85663159D01*
X101659832Y-85663155D01*
X101486177Y-85526011D01*
X101486172Y-85526008D01*
X101482123Y-85522810D01*
X101477607Y-85520317D01*
X101477604Y-85520315D01*
X101283879Y-85413373D01*
X101283875Y-85413371D01*
X101279355Y-85410876D01*
X101274486Y-85409152D01*
X101274482Y-85409150D01*
X101065903Y-85335288D01*
X101065899Y-85335287D01*
X101061028Y-85333562D01*
X101055935Y-85332655D01*
X101055932Y-85332654D01*
X100838095Y-85293851D01*
X100838089Y-85293850D01*
X100833006Y-85292945D01*
X100760096Y-85292054D01*
X100606581Y-85290179D01*
X100606579Y-85290179D01*
X100601411Y-85290116D01*
X100372464Y-85325150D01*
X100152314Y-85397106D01*
X100147726Y-85399494D01*
X100147722Y-85399496D01*
X99951461Y-85501663D01*
X99946872Y-85504052D01*
X99942739Y-85507155D01*
X99942736Y-85507157D01*
X99765790Y-85640012D01*
X99761655Y-85643117D01*
X99601639Y-85810564D01*
X99554836Y-85879174D01*
X99499927Y-85924175D01*
X99429402Y-85932346D01*
X99365655Y-85901092D01*
X99344959Y-85876609D01*
X99322577Y-85842013D01*
X99322574Y-85842009D01*
X99319764Y-85837665D01*
X99163887Y-85666358D01*
X99159836Y-85663159D01*
X99159832Y-85663155D01*
X98986177Y-85526011D01*
X98986172Y-85526008D01*
X98982123Y-85522810D01*
X98977607Y-85520317D01*
X98977604Y-85520315D01*
X98783879Y-85413373D01*
X98783875Y-85413371D01*
X98779355Y-85410876D01*
X98774486Y-85409152D01*
X98774482Y-85409150D01*
X98565903Y-85335288D01*
X98565899Y-85335287D01*
X98561028Y-85333562D01*
X98555935Y-85332655D01*
X98555932Y-85332654D01*
X98338095Y-85293851D01*
X98338089Y-85293850D01*
X98333006Y-85292945D01*
X98260096Y-85292054D01*
X98106581Y-85290179D01*
X98106579Y-85290179D01*
X98101411Y-85290116D01*
X97872464Y-85325150D01*
X97652314Y-85397106D01*
X97647726Y-85399494D01*
X97647722Y-85399496D01*
X97451461Y-85501663D01*
X97446872Y-85504052D01*
X97442739Y-85507155D01*
X97442736Y-85507157D01*
X97265790Y-85640012D01*
X97261655Y-85643117D01*
X97101639Y-85810564D01*
X97098730Y-85814829D01*
X97098724Y-85814837D01*
X97050199Y-85885972D01*
X96995288Y-85930975D01*
X96924763Y-85939146D01*
X96863884Y-85910439D01*
X96858538Y-85905835D01*
X96848973Y-85910238D01*
X96072021Y-86687189D01*
X96064408Y-86701132D01*
X95334356Y-86701132D01*
X95335592Y-86698868D01*
X95335461Y-86697034D01*
X95331210Y-86690420D01*
X94553862Y-85913073D01*
X94542330Y-85906776D01*
X94530048Y-85916399D01*
X94474467Y-85997877D01*
X94469379Y-86006833D01*
X94376252Y-86207459D01*
X94372689Y-86217146D01*
X94313581Y-86430280D01*
X94311650Y-86440400D01*
X94288145Y-86660349D01*
X94287893Y-86670638D01*
X87410913Y-86670638D01*
X87395024Y-86477375D01*
X87394773Y-86474318D01*
X87394772Y-86474312D01*
X87394349Y-86469167D01*
X87360797Y-86335592D01*
X87339184Y-86249544D01*
X87339183Y-86249540D01*
X87337925Y-86244533D01*
X87323771Y-86211981D01*
X87247630Y-86036868D01*
X87247628Y-86036865D01*
X87245570Y-86032131D01*
X87119764Y-85837665D01*
X86963887Y-85666358D01*
X86959836Y-85663159D01*
X86959832Y-85663155D01*
X86804790Y-85540711D01*
X94905508Y-85540711D01*
X94912251Y-85553040D01*
X95687189Y-86327979D01*
X95701132Y-86335592D01*
X95702966Y-86335461D01*
X95709580Y-86331210D01*
X96488994Y-85551795D01*
X96496011Y-85538944D01*
X96488237Y-85528274D01*
X96485902Y-85526430D01*
X96477320Y-85520729D01*
X96283678Y-85413833D01*
X96274272Y-85409606D01*
X96065772Y-85335772D01*
X96055809Y-85333140D01*
X95838047Y-85294350D01*
X95827796Y-85293381D01*
X95606616Y-85290679D01*
X95596332Y-85291399D01*
X95377693Y-85324855D01*
X95367666Y-85327244D01*
X95157426Y-85395961D01*
X95147916Y-85399958D01*
X94951725Y-85502089D01*
X94943007Y-85507578D01*
X94913961Y-85529386D01*
X94905508Y-85540711D01*
X86804790Y-85540711D01*
X86786177Y-85526011D01*
X86786172Y-85526008D01*
X86782123Y-85522810D01*
X86777607Y-85520317D01*
X86777604Y-85520315D01*
X86583879Y-85413373D01*
X86583875Y-85413371D01*
X86579355Y-85410876D01*
X86574486Y-85409152D01*
X86574482Y-85409150D01*
X86365903Y-85335288D01*
X86365899Y-85335287D01*
X86361028Y-85333562D01*
X86355935Y-85332655D01*
X86355932Y-85332654D01*
X86138095Y-85293851D01*
X86138089Y-85293850D01*
X86133006Y-85292945D01*
X86060096Y-85292054D01*
X85906581Y-85290179D01*
X85906579Y-85290179D01*
X85901411Y-85290116D01*
X85672464Y-85325150D01*
X85452314Y-85397106D01*
X85447726Y-85399494D01*
X85447722Y-85399496D01*
X85251461Y-85501663D01*
X85246872Y-85504052D01*
X85242739Y-85507155D01*
X85242736Y-85507157D01*
X85065790Y-85640012D01*
X85061655Y-85643117D01*
X84901639Y-85810564D01*
X84854836Y-85879174D01*
X84799927Y-85924175D01*
X84729402Y-85932346D01*
X84665655Y-85901092D01*
X84644959Y-85876609D01*
X84622577Y-85842013D01*
X84622574Y-85842009D01*
X84619764Y-85837665D01*
X84463887Y-85666358D01*
X84459836Y-85663159D01*
X84459832Y-85663155D01*
X84286177Y-85526011D01*
X84286172Y-85526008D01*
X84282123Y-85522810D01*
X84277607Y-85520317D01*
X84277604Y-85520315D01*
X84083879Y-85413373D01*
X84083875Y-85413371D01*
X84079355Y-85410876D01*
X84074486Y-85409152D01*
X84074482Y-85409150D01*
X83865903Y-85335288D01*
X83865899Y-85335287D01*
X83861028Y-85333562D01*
X83855935Y-85332655D01*
X83855932Y-85332654D01*
X83638095Y-85293851D01*
X83638089Y-85293850D01*
X83633006Y-85292945D01*
X83560096Y-85292054D01*
X83406581Y-85290179D01*
X83406579Y-85290179D01*
X83401411Y-85290116D01*
X83172464Y-85325150D01*
X82952314Y-85397106D01*
X82947726Y-85399494D01*
X82947722Y-85399496D01*
X82751461Y-85501663D01*
X82746872Y-85504052D01*
X82742739Y-85507155D01*
X82742736Y-85507157D01*
X82565790Y-85640012D01*
X82561655Y-85643117D01*
X82401639Y-85810564D01*
X82398730Y-85814829D01*
X82398724Y-85814837D01*
X82350199Y-85885972D01*
X82295288Y-85930975D01*
X82224763Y-85939146D01*
X82163884Y-85910439D01*
X82158538Y-85905835D01*
X82148973Y-85910238D01*
X81372021Y-86687189D01*
X81364408Y-86701132D01*
X80634356Y-86701132D01*
X80635592Y-86698868D01*
X80635461Y-86697034D01*
X80631210Y-86690420D01*
X79853862Y-85913073D01*
X79842330Y-85906776D01*
X79830048Y-85916399D01*
X79774467Y-85997877D01*
X79769379Y-86006833D01*
X79676252Y-86207459D01*
X79672689Y-86217146D01*
X79613581Y-86430280D01*
X79611650Y-86440400D01*
X79588145Y-86660349D01*
X79587893Y-86670638D01*
X68008000Y-86670638D01*
X68008000Y-85540711D01*
X80205508Y-85540711D01*
X80212251Y-85553040D01*
X80987189Y-86327979D01*
X81001132Y-86335592D01*
X81002966Y-86335461D01*
X81009580Y-86331210D01*
X81788994Y-85551795D01*
X81796011Y-85538944D01*
X81788237Y-85528274D01*
X81785902Y-85526430D01*
X81777320Y-85520729D01*
X81583678Y-85413833D01*
X81574272Y-85409606D01*
X81365772Y-85335772D01*
X81355809Y-85333140D01*
X81138047Y-85294350D01*
X81127796Y-85293381D01*
X80906616Y-85290679D01*
X80896332Y-85291399D01*
X80677693Y-85324855D01*
X80667666Y-85327244D01*
X80457426Y-85395961D01*
X80447916Y-85399958D01*
X80251725Y-85502089D01*
X80243007Y-85507578D01*
X80213961Y-85529386D01*
X80205508Y-85540711D01*
X68008000Y-85540711D01*
X68008000Y-85000000D01*
X112886540Y-85000000D01*
X112906359Y-85315020D01*
X112965505Y-85625072D01*
X113063044Y-85925266D01*
X113064731Y-85928852D01*
X113064733Y-85928856D01*
X113195750Y-86207283D01*
X113195754Y-86207290D01*
X113197438Y-86210869D01*
X113199562Y-86214215D01*
X113199562Y-86214216D01*
X113215796Y-86239797D01*
X113366568Y-86477375D01*
X113369093Y-86480427D01*
X113551677Y-86701132D01*
X113567767Y-86720582D01*
X113797860Y-86936654D01*
X114053221Y-87122184D01*
X114056690Y-87124091D01*
X114056693Y-87124093D01*
X114326352Y-87272340D01*
X114329821Y-87274247D01*
X114333490Y-87275700D01*
X114333495Y-87275702D01*
X114529506Y-87353308D01*
X114623298Y-87390443D01*
X114929025Y-87468940D01*
X115242179Y-87508500D01*
X115557821Y-87508500D01*
X115870975Y-87468940D01*
X116176702Y-87390443D01*
X116270494Y-87353308D01*
X116466505Y-87275702D01*
X116466510Y-87275700D01*
X116470179Y-87274247D01*
X116473648Y-87272340D01*
X116743307Y-87124093D01*
X116743310Y-87124091D01*
X116746779Y-87122184D01*
X117002140Y-86936654D01*
X117232233Y-86720582D01*
X117248324Y-86701132D01*
X117430907Y-86480427D01*
X117433432Y-86477375D01*
X117584204Y-86239797D01*
X117600438Y-86214216D01*
X117600438Y-86214215D01*
X117602562Y-86210869D01*
X117604246Y-86207290D01*
X117604250Y-86207283D01*
X117735267Y-85928856D01*
X117735269Y-85928852D01*
X117736956Y-85925266D01*
X117834495Y-85625072D01*
X117893641Y-85315020D01*
X117913460Y-85000000D01*
X121686540Y-85000000D01*
X121706359Y-85315020D01*
X121765505Y-85625072D01*
X121863044Y-85925266D01*
X121864731Y-85928852D01*
X121864733Y-85928856D01*
X121995750Y-86207283D01*
X121995754Y-86207290D01*
X121997438Y-86210869D01*
X121999562Y-86214215D01*
X121999562Y-86214216D01*
X122015796Y-86239797D01*
X122166568Y-86477375D01*
X122169093Y-86480427D01*
X122351677Y-86701132D01*
X122367767Y-86720582D01*
X122597860Y-86936654D01*
X122853221Y-87122184D01*
X122856690Y-87124091D01*
X122856693Y-87124093D01*
X123126352Y-87272340D01*
X123129821Y-87274247D01*
X123133490Y-87275700D01*
X123133495Y-87275702D01*
X123329506Y-87353308D01*
X123423298Y-87390443D01*
X123729025Y-87468940D01*
X124042179Y-87508500D01*
X124357821Y-87508500D01*
X124670975Y-87468940D01*
X124976702Y-87390443D01*
X125070494Y-87353308D01*
X125266505Y-87275702D01*
X125266510Y-87275700D01*
X125270179Y-87274247D01*
X125273648Y-87272340D01*
X125543307Y-87124093D01*
X125543310Y-87124091D01*
X125546779Y-87122184D01*
X125802140Y-86936654D01*
X126032233Y-86720582D01*
X126048324Y-86701132D01*
X126230907Y-86480427D01*
X126233432Y-86477375D01*
X126384204Y-86239797D01*
X126400438Y-86214216D01*
X126400438Y-86214215D01*
X126402562Y-86210869D01*
X126404246Y-86207290D01*
X126404250Y-86207283D01*
X126535267Y-85928856D01*
X126535269Y-85928852D01*
X126536956Y-85925266D01*
X126634495Y-85625072D01*
X126693641Y-85315020D01*
X126713460Y-85000000D01*
X126693641Y-84684980D01*
X126634495Y-84374928D01*
X126536956Y-84074734D01*
X126535267Y-84071144D01*
X126404250Y-83792717D01*
X126404246Y-83792710D01*
X126402562Y-83789131D01*
X126233432Y-83522625D01*
X126032233Y-83279418D01*
X125802140Y-83063346D01*
X125546779Y-82877816D01*
X125270179Y-82725753D01*
X125266510Y-82724300D01*
X125266505Y-82724298D01*
X124980372Y-82611010D01*
X124980371Y-82611010D01*
X124976702Y-82609557D01*
X124670975Y-82531060D01*
X124357821Y-82491500D01*
X124042179Y-82491500D01*
X123729025Y-82531060D01*
X123423298Y-82609557D01*
X123419629Y-82611010D01*
X123419628Y-82611010D01*
X123133495Y-82724298D01*
X123133490Y-82724300D01*
X123129821Y-82725753D01*
X122853221Y-82877816D01*
X122597860Y-83063346D01*
X122367767Y-83279418D01*
X122166568Y-83522625D01*
X121997438Y-83789131D01*
X121995754Y-83792710D01*
X121995750Y-83792717D01*
X121864733Y-84071144D01*
X121863044Y-84074734D01*
X121765505Y-84374928D01*
X121706359Y-84684980D01*
X121686540Y-85000000D01*
X117913460Y-85000000D01*
X117893641Y-84684980D01*
X117834495Y-84374928D01*
X117736956Y-84074734D01*
X117735267Y-84071144D01*
X117604250Y-83792717D01*
X117604246Y-83792710D01*
X117602562Y-83789131D01*
X117433432Y-83522625D01*
X117232233Y-83279418D01*
X117002140Y-83063346D01*
X116746779Y-82877816D01*
X116470179Y-82725753D01*
X116466510Y-82724300D01*
X116466505Y-82724298D01*
X116180372Y-82611010D01*
X116180371Y-82611010D01*
X116176702Y-82609557D01*
X115870975Y-82531060D01*
X115557821Y-82491500D01*
X115242179Y-82491500D01*
X114929025Y-82531060D01*
X114623298Y-82609557D01*
X114619629Y-82611010D01*
X114619628Y-82611010D01*
X114333495Y-82724298D01*
X114333490Y-82724300D01*
X114329821Y-82725753D01*
X114053221Y-82877816D01*
X113797860Y-83063346D01*
X113567767Y-83279418D01*
X113366568Y-83522625D01*
X113197438Y-83789131D01*
X113195754Y-83792710D01*
X113195750Y-83792717D01*
X113064733Y-84071144D01*
X113063044Y-84074734D01*
X112965505Y-84374928D01*
X112906359Y-84684980D01*
X112886540Y-85000000D01*
X68008000Y-85000000D01*
X68008000Y-79700000D01*
X76586540Y-79700000D01*
X76606359Y-80015020D01*
X76665505Y-80325072D01*
X76763044Y-80625266D01*
X76764731Y-80628852D01*
X76764733Y-80628856D01*
X76895750Y-80907283D01*
X76895754Y-80907290D01*
X76897438Y-80910869D01*
X77066568Y-81177375D01*
X77267767Y-81420582D01*
X77497860Y-81636654D01*
X77753221Y-81822184D01*
X78029821Y-81974247D01*
X78033490Y-81975700D01*
X78033495Y-81975702D01*
X78319628Y-82088990D01*
X78323298Y-82090443D01*
X78629025Y-82168940D01*
X78942179Y-82208500D01*
X79257821Y-82208500D01*
X79570975Y-82168940D01*
X79876702Y-82090443D01*
X79880372Y-82088990D01*
X80166505Y-81975702D01*
X80166510Y-81975700D01*
X80170179Y-81974247D01*
X80446779Y-81822184D01*
X80702140Y-81636654D01*
X80932233Y-81420582D01*
X81133432Y-81177375D01*
X81302562Y-80910869D01*
X81304246Y-80907290D01*
X81304250Y-80907283D01*
X81435267Y-80628856D01*
X81435269Y-80628852D01*
X81436956Y-80625266D01*
X81534495Y-80325072D01*
X81593641Y-80015020D01*
X81613460Y-79700000D01*
X85386540Y-79700000D01*
X85406359Y-80015020D01*
X85465505Y-80325072D01*
X85563044Y-80625266D01*
X85564731Y-80628852D01*
X85564733Y-80628856D01*
X85695750Y-80907283D01*
X85695754Y-80907290D01*
X85697438Y-80910869D01*
X85866568Y-81177375D01*
X86067767Y-81420582D01*
X86297860Y-81636654D01*
X86553221Y-81822184D01*
X86829821Y-81974247D01*
X86833490Y-81975700D01*
X86833495Y-81975702D01*
X87119628Y-82088990D01*
X87123298Y-82090443D01*
X87429025Y-82168940D01*
X87742179Y-82208500D01*
X88057821Y-82208500D01*
X88370975Y-82168940D01*
X88676702Y-82090443D01*
X88680372Y-82088990D01*
X88966505Y-81975702D01*
X88966510Y-81975700D01*
X88970179Y-81974247D01*
X89246779Y-81822184D01*
X89502140Y-81636654D01*
X89732233Y-81420582D01*
X89933432Y-81177375D01*
X90102562Y-80910869D01*
X90104246Y-80907290D01*
X90104250Y-80907283D01*
X90235267Y-80628856D01*
X90235269Y-80628852D01*
X90236956Y-80625266D01*
X90334495Y-80325072D01*
X90393641Y-80015020D01*
X90413460Y-79700000D01*
X91286540Y-79700000D01*
X91306359Y-80015020D01*
X91365505Y-80325072D01*
X91463044Y-80625266D01*
X91464731Y-80628852D01*
X91464733Y-80628856D01*
X91595750Y-80907283D01*
X91595754Y-80907290D01*
X91597438Y-80910869D01*
X91766568Y-81177375D01*
X91967767Y-81420582D01*
X92197860Y-81636654D01*
X92453221Y-81822184D01*
X92729821Y-81974247D01*
X92733490Y-81975700D01*
X92733495Y-81975702D01*
X93019628Y-82088990D01*
X93023298Y-82090443D01*
X93329025Y-82168940D01*
X93642179Y-82208500D01*
X93957821Y-82208500D01*
X94270975Y-82168940D01*
X94576702Y-82090443D01*
X94580372Y-82088990D01*
X94866505Y-81975702D01*
X94866510Y-81975700D01*
X94870179Y-81974247D01*
X95146779Y-81822184D01*
X95402140Y-81636654D01*
X95632233Y-81420582D01*
X95833432Y-81177375D01*
X96002562Y-80910869D01*
X96004246Y-80907290D01*
X96004250Y-80907283D01*
X96135267Y-80628856D01*
X96135269Y-80628852D01*
X96136956Y-80625266D01*
X96234495Y-80325072D01*
X96293641Y-80015020D01*
X96313460Y-79700000D01*
X100086540Y-79700000D01*
X100106359Y-80015020D01*
X100165505Y-80325072D01*
X100263044Y-80625266D01*
X100264731Y-80628852D01*
X100264733Y-80628856D01*
X100395750Y-80907283D01*
X100395754Y-80907290D01*
X100397438Y-80910869D01*
X100566568Y-81177375D01*
X100767767Y-81420582D01*
X100997860Y-81636654D01*
X101253221Y-81822184D01*
X101529821Y-81974247D01*
X101533490Y-81975700D01*
X101533495Y-81975702D01*
X101819628Y-82088990D01*
X101823298Y-82090443D01*
X102129025Y-82168940D01*
X102442179Y-82208500D01*
X102757821Y-82208500D01*
X103070975Y-82168940D01*
X103376702Y-82090443D01*
X103380372Y-82088990D01*
X103666505Y-81975702D01*
X103666510Y-81975700D01*
X103670179Y-81974247D01*
X103946779Y-81822184D01*
X104202140Y-81636654D01*
X104432233Y-81420582D01*
X104633432Y-81177375D01*
X104802562Y-80910869D01*
X104804246Y-80907290D01*
X104804250Y-80907283D01*
X104935267Y-80628856D01*
X104935269Y-80628852D01*
X104936956Y-80625266D01*
X105034495Y-80325072D01*
X105093641Y-80015020D01*
X105113460Y-79700000D01*
X105093641Y-79384980D01*
X105034495Y-79074928D01*
X104936956Y-78774734D01*
X104935267Y-78771144D01*
X104804250Y-78492717D01*
X104804246Y-78492710D01*
X104802562Y-78489131D01*
X104633432Y-78222625D01*
X104432233Y-77979418D01*
X104202140Y-77763346D01*
X103946779Y-77577816D01*
X103670179Y-77425753D01*
X103666510Y-77424300D01*
X103666505Y-77424298D01*
X103380372Y-77311010D01*
X103380371Y-77311010D01*
X103376702Y-77309557D01*
X103070975Y-77231060D01*
X102757821Y-77191500D01*
X102442179Y-77191500D01*
X102129025Y-77231060D01*
X101823298Y-77309557D01*
X101819629Y-77311010D01*
X101819628Y-77311010D01*
X101533495Y-77424298D01*
X101533490Y-77424300D01*
X101529821Y-77425753D01*
X101253221Y-77577816D01*
X100997860Y-77763346D01*
X100767767Y-77979418D01*
X100566568Y-78222625D01*
X100397438Y-78489131D01*
X100395754Y-78492710D01*
X100395750Y-78492717D01*
X100264733Y-78771144D01*
X100263044Y-78774734D01*
X100165505Y-79074928D01*
X100106359Y-79384980D01*
X100086540Y-79700000D01*
X96313460Y-79700000D01*
X96293641Y-79384980D01*
X96234495Y-79074928D01*
X96136956Y-78774734D01*
X96135267Y-78771144D01*
X96004250Y-78492717D01*
X96004246Y-78492710D01*
X96002562Y-78489131D01*
X95833432Y-78222625D01*
X95632233Y-77979418D01*
X95402140Y-77763346D01*
X95146779Y-77577816D01*
X94870179Y-77425753D01*
X94866510Y-77424300D01*
X94866505Y-77424298D01*
X94580372Y-77311010D01*
X94580371Y-77311010D01*
X94576702Y-77309557D01*
X94270975Y-77231060D01*
X93957821Y-77191500D01*
X93642179Y-77191500D01*
X93329025Y-77231060D01*
X93023298Y-77309557D01*
X93019629Y-77311010D01*
X93019628Y-77311010D01*
X92733495Y-77424298D01*
X92733490Y-77424300D01*
X92729821Y-77425753D01*
X92453221Y-77577816D01*
X92197860Y-77763346D01*
X91967767Y-77979418D01*
X91766568Y-78222625D01*
X91597438Y-78489131D01*
X91595754Y-78492710D01*
X91595750Y-78492717D01*
X91464733Y-78771144D01*
X91463044Y-78774734D01*
X91365505Y-79074928D01*
X91306359Y-79384980D01*
X91286540Y-79700000D01*
X90413460Y-79700000D01*
X90393641Y-79384980D01*
X90334495Y-79074928D01*
X90236956Y-78774734D01*
X90235267Y-78771144D01*
X90104250Y-78492717D01*
X90104246Y-78492710D01*
X90102562Y-78489131D01*
X89933432Y-78222625D01*
X89732233Y-77979418D01*
X89502140Y-77763346D01*
X89246779Y-77577816D01*
X88970179Y-77425753D01*
X88966510Y-77424300D01*
X88966505Y-77424298D01*
X88680372Y-77311010D01*
X88680371Y-77311010D01*
X88676702Y-77309557D01*
X88370975Y-77231060D01*
X88057821Y-77191500D01*
X87742179Y-77191500D01*
X87429025Y-77231060D01*
X87123298Y-77309557D01*
X87119629Y-77311010D01*
X87119628Y-77311010D01*
X86833495Y-77424298D01*
X86833490Y-77424300D01*
X86829821Y-77425753D01*
X86553221Y-77577816D01*
X86297860Y-77763346D01*
X86067767Y-77979418D01*
X85866568Y-78222625D01*
X85697438Y-78489131D01*
X85695754Y-78492710D01*
X85695750Y-78492717D01*
X85564733Y-78771144D01*
X85563044Y-78774734D01*
X85465505Y-79074928D01*
X85406359Y-79384980D01*
X85386540Y-79700000D01*
X81613460Y-79700000D01*
X81593641Y-79384980D01*
X81534495Y-79074928D01*
X81436956Y-78774734D01*
X81435267Y-78771144D01*
X81304250Y-78492717D01*
X81304246Y-78492710D01*
X81302562Y-78489131D01*
X81133432Y-78222625D01*
X80932233Y-77979418D01*
X80702140Y-77763346D01*
X80446779Y-77577816D01*
X80170179Y-77425753D01*
X80166510Y-77424300D01*
X80166505Y-77424298D01*
X79880372Y-77311010D01*
X79880371Y-77311010D01*
X79876702Y-77309557D01*
X79570975Y-77231060D01*
X79257821Y-77191500D01*
X78942179Y-77191500D01*
X78629025Y-77231060D01*
X78323298Y-77309557D01*
X78319629Y-77311010D01*
X78319628Y-77311010D01*
X78033495Y-77424298D01*
X78033490Y-77424300D01*
X78029821Y-77425753D01*
X77753221Y-77577816D01*
X77497860Y-77763346D01*
X77267767Y-77979418D01*
X77066568Y-78222625D01*
X76897438Y-78489131D01*
X76895754Y-78492710D01*
X76895750Y-78492717D01*
X76764733Y-78771144D01*
X76763044Y-78774734D01*
X76665505Y-79074928D01*
X76606359Y-79384980D01*
X76586540Y-79700000D01*
X68008000Y-79700000D01*
X68008000Y-73340064D01*
X68028002Y-73271943D01*
X68081658Y-73225450D01*
X68151932Y-73215346D01*
X68216512Y-73244840D01*
X68246267Y-73282861D01*
X68283938Y-73356794D01*
X68495643Y-73682793D01*
X68740266Y-73984876D01*
X69015124Y-74259734D01*
X69317207Y-74504357D01*
X69643205Y-74716062D01*
X69646139Y-74717557D01*
X69646146Y-74717561D01*
X69986607Y-74891034D01*
X69989547Y-74892532D01*
X70352438Y-75031833D01*
X70727901Y-75132438D01*
X70931793Y-75164732D01*
X71108576Y-75192732D01*
X71108584Y-75192733D01*
X71111824Y-75193246D01*
X71500000Y-75213589D01*
X71888176Y-75193246D01*
X71891416Y-75192733D01*
X71891424Y-75192732D01*
X72068207Y-75164732D01*
X72272099Y-75132438D01*
X72647562Y-75031833D01*
X73010453Y-74892532D01*
X73013393Y-74891034D01*
X73353854Y-74717561D01*
X73353861Y-74717557D01*
X73356795Y-74716062D01*
X73682793Y-74504357D01*
X73984876Y-74259734D01*
X74259734Y-73984876D01*
X74504357Y-73682793D01*
X74716062Y-73356794D01*
X74717562Y-73353852D01*
X74891034Y-73013393D01*
X74892532Y-73010453D01*
X75031833Y-72647562D01*
X75132438Y-72272099D01*
X75193246Y-71888176D01*
X75213589Y-71500000D01*
X75193246Y-71111824D01*
X75132438Y-70727901D01*
X75031833Y-70352438D01*
X74892532Y-69989547D01*
X74788134Y-69784654D01*
X74717561Y-69646147D01*
X74717557Y-69646140D01*
X74716062Y-69643206D01*
X74504357Y-69317207D01*
X74259734Y-69015124D01*
X73984876Y-68740266D01*
X73682793Y-68495643D01*
X73356795Y-68283938D01*
X73353852Y-68282438D01*
X73353846Y-68282435D01*
X73282862Y-68246267D01*
X73231246Y-68197519D01*
X73214180Y-68128604D01*
X73237081Y-68061402D01*
X73292678Y-68017250D01*
X73340064Y-68008000D01*
X156659936Y-68008000D01*
X156728057Y-68028002D01*
G37*
%TD.AperFunction*%
%TD*%
M02*
