%TF.GenerationSoftware,KiCad,Pcbnew,8.0.2*%
%TF.CreationDate,2024-06-27T01:43:15-06:00*%
%TF.ProjectId,2024_NE555_ChargePump_Expansion,32303234-5f4e-4453-9535-355f43686172,rev?*%
%TF.SameCoordinates,Original*%
%TF.FileFunction,Paste,Top*%
%TF.FilePolarity,Positive*%
%FSLAX46Y46*%
G04 Gerber Fmt 4.6, Leading zero omitted, Abs format (unit mm)*
G04 Created by KiCad (PCBNEW 8.0.2) date 2024-06-27 01:43:15*
%MOMM*%
%LPD*%
G01*
G04 APERTURE LIST*
G04 Aperture macros list*
%AMRoundRect*
0 Rectangle with rounded corners*
0 $1 Rounding radius*
0 $2 $3 $4 $5 $6 $7 $8 $9 X,Y pos of 4 corners*
0 Add a 4 corners polygon primitive as box body*
4,1,4,$2,$3,$4,$5,$6,$7,$8,$9,$2,$3,0*
0 Add four circle primitives for the rounded corners*
1,1,$1+$1,$2,$3*
1,1,$1+$1,$4,$5*
1,1,$1+$1,$6,$7*
1,1,$1+$1,$8,$9*
0 Add four rect primitives between the rounded corners*
20,1,$1+$1,$2,$3,$4,$5,0*
20,1,$1+$1,$4,$5,$6,$7,0*
20,1,$1+$1,$6,$7,$8,$9,0*
20,1,$1+$1,$8,$9,$2,$3,0*%
G04 Aperture macros list end*
%ADD10RoundRect,0.250000X0.500000X1.100000X-0.500000X1.100000X-0.500000X-1.100000X0.500000X-1.100000X0*%
%ADD11RoundRect,0.250000X-0.650000X0.412500X-0.650000X-0.412500X0.650000X-0.412500X0.650000X0.412500X0*%
%ADD12RoundRect,0.250000X0.650000X-0.412500X0.650000X0.412500X-0.650000X0.412500X-0.650000X-0.412500X0*%
%ADD13RoundRect,0.250000X0.412500X0.650000X-0.412500X0.650000X-0.412500X-0.650000X0.412500X-0.650000X0*%
G04 APERTURE END LIST*
D10*
%TO.C,D4*%
X142938200Y-74015600D03*
X138138200Y-74015600D03*
%TD*%
D11*
%TO.C,C5*%
X138074400Y-77240600D03*
X138074400Y-80365600D03*
%TD*%
D12*
%TO.C,C9*%
X149148800Y-67323100D03*
X149148800Y-64198100D03*
%TD*%
D13*
%TO.C,C8*%
X177051100Y-68021200D03*
X173926100Y-68021200D03*
%TD*%
D11*
%TO.C,C14*%
X168173400Y-77075900D03*
X168173400Y-80200900D03*
%TD*%
D10*
%TO.C,D8*%
X158076600Y-74015600D03*
X153276600Y-74015600D03*
%TD*%
%TO.C,D6*%
X150495000Y-74015600D03*
X145695000Y-74015600D03*
%TD*%
D11*
%TO.C,C7*%
X145745200Y-77152100D03*
X145745200Y-80277100D03*
%TD*%
D10*
%TO.C,D11*%
X169100200Y-70205600D03*
X164300200Y-70205600D03*
%TD*%
%TO.C,D5*%
X146646600Y-70307200D03*
X141846600Y-70307200D03*
%TD*%
D12*
%TO.C,C6*%
X141833600Y-67246900D03*
X141833600Y-64121900D03*
%TD*%
D10*
%TO.C,D12*%
X173037200Y-74041000D03*
X168237200Y-74041000D03*
%TD*%
D12*
%TO.C,C11*%
X156718000Y-67208400D03*
X156718000Y-64083400D03*
%TD*%
D11*
%TO.C,C10*%
X153263600Y-77075900D03*
X153263600Y-80200900D03*
%TD*%
D10*
%TO.C,D7*%
X154038000Y-70332600D03*
X149238000Y-70332600D03*
%TD*%
D11*
%TO.C,C12*%
X160807400Y-77126700D03*
X160807400Y-80251700D03*
%TD*%
D10*
%TO.C,D3*%
X139115200Y-70307200D03*
X134315200Y-70307200D03*
%TD*%
%TO.C,D10*%
X165620400Y-74041000D03*
X160820400Y-74041000D03*
%TD*%
%TO.C,D9*%
X161581800Y-70205600D03*
X156781800Y-70205600D03*
%TD*%
D12*
%TO.C,C4*%
X134391400Y-67221500D03*
X134391400Y-64096500D03*
%TD*%
%TO.C,C13*%
X164287200Y-67196100D03*
X164287200Y-64071100D03*
%TD*%
M02*
