%TF.GenerationSoftware,KiCad,Pcbnew,8.0.2*%
%TF.CreationDate,2024-06-27T01:43:15-06:00*%
%TF.ProjectId,2024_NE555_ChargePump_Expansion,32303234-5f4e-4453-9535-355f43686172,rev?*%
%TF.SameCoordinates,Original*%
%TF.FileFunction,Copper,L1,Top*%
%TF.FilePolarity,Positive*%
%FSLAX46Y46*%
G04 Gerber Fmt 4.6, Leading zero omitted, Abs format (unit mm)*
G04 Created by KiCad (PCBNEW 8.0.2) date 2024-06-27 01:43:15*
%MOMM*%
%LPD*%
G01*
G04 APERTURE LIST*
G04 Aperture macros list*
%AMRoundRect*
0 Rectangle with rounded corners*
0 $1 Rounding radius*
0 $2 $3 $4 $5 $6 $7 $8 $9 X,Y pos of 4 corners*
0 Add a 4 corners polygon primitive as box body*
4,1,4,$2,$3,$4,$5,$6,$7,$8,$9,$2,$3,0*
0 Add four circle primitives for the rounded corners*
1,1,$1+$1,$2,$3*
1,1,$1+$1,$4,$5*
1,1,$1+$1,$6,$7*
1,1,$1+$1,$8,$9*
0 Add four rect primitives between the rounded corners*
20,1,$1+$1,$2,$3,$4,$5,0*
20,1,$1+$1,$4,$5,$6,$7,0*
20,1,$1+$1,$6,$7,$8,$9,0*
20,1,$1+$1,$8,$9,$2,$3,0*%
%AMFreePoly0*
4,1,19,0.550000,-0.750000,0.000000,-0.750000,0.000000,-0.744911,-0.071157,-0.744911,-0.207708,-0.704816,-0.327430,-0.627875,-0.420627,-0.520320,-0.479746,-0.390866,-0.500000,-0.250000,-0.500000,0.250000,-0.479746,0.390866,-0.420627,0.520320,-0.327430,0.627875,-0.207708,0.704816,-0.071157,0.744911,0.000000,0.744911,0.000000,0.750000,0.550000,0.750000,0.550000,-0.750000,0.550000,-0.750000,
$1*%
%AMFreePoly1*
4,1,19,0.000000,0.744911,0.071157,0.744911,0.207708,0.704816,0.327430,0.627875,0.420627,0.520320,0.479746,0.390866,0.500000,0.250000,0.500000,-0.250000,0.479746,-0.390866,0.420627,-0.520320,0.327430,-0.627875,0.207708,-0.704816,0.071157,-0.744911,0.000000,-0.744911,0.000000,-0.750000,-0.550000,-0.750000,-0.550000,0.750000,0.000000,0.750000,0.000000,0.744911,0.000000,0.744911,
$1*%
G04 Aperture macros list end*
%TA.AperFunction,ComponentPad*%
%ADD10R,1.700000X1.700000*%
%TD*%
%TA.AperFunction,ComponentPad*%
%ADD11O,1.700000X1.700000*%
%TD*%
%TA.AperFunction,SMDPad,CuDef*%
%ADD12RoundRect,0.250000X0.500000X1.100000X-0.500000X1.100000X-0.500000X-1.100000X0.500000X-1.100000X0*%
%TD*%
%TA.AperFunction,SMDPad,CuDef*%
%ADD13RoundRect,0.250000X-0.650000X0.412500X-0.650000X-0.412500X0.650000X-0.412500X0.650000X0.412500X0*%
%TD*%
%TA.AperFunction,SMDPad,CuDef*%
%ADD14RoundRect,0.250000X0.650000X-0.412500X0.650000X0.412500X-0.650000X0.412500X-0.650000X-0.412500X0*%
%TD*%
%TA.AperFunction,SMDPad,CuDef*%
%ADD15RoundRect,0.250000X0.412500X0.650000X-0.412500X0.650000X-0.412500X-0.650000X0.412500X-0.650000X0*%
%TD*%
%TA.AperFunction,SMDPad,CuDef*%
%ADD16FreePoly0,270.000000*%
%TD*%
%TA.AperFunction,SMDPad,CuDef*%
%ADD17R,1.500000X1.000000*%
%TD*%
%TA.AperFunction,SMDPad,CuDef*%
%ADD18FreePoly1,270.000000*%
%TD*%
%TA.AperFunction,ViaPad*%
%ADD19C,0.600000*%
%TD*%
%TA.AperFunction,Conductor*%
%ADD20C,0.381000*%
%TD*%
G04 APERTURE END LIST*
D10*
%TO.P,J1,1,Pin_1*%
%TO.N,/Charge_In*%
X152247600Y-60350400D03*
D11*
%TO.P,J1,2,Pin_2*%
%TO.N,GND*%
X149707600Y-60350400D03*
%TO.P,J1,3,Pin_3*%
%TO.N,/SQUARE_2*%
X147167600Y-60350400D03*
%TO.P,J1,4,Pin_4*%
%TO.N,/SQUARE_1*%
X144627600Y-60350400D03*
%TD*%
D12*
%TO.P,D4,1,K*%
%TO.N,Net-(D4-K)*%
X142938200Y-74015600D03*
%TO.P,D4,2,A*%
%TO.N,Net-(D3-K)*%
X138138200Y-74015600D03*
%TD*%
D13*
%TO.P,C5,1*%
%TO.N,Net-(D3-K)*%
X138074400Y-77240600D03*
%TO.P,C5,2*%
%TO.N,/SQUARE_2*%
X138074400Y-80365600D03*
%TD*%
D14*
%TO.P,C9,1*%
%TO.N,Net-(D6-K)*%
X149148800Y-67323100D03*
%TO.P,C9,2*%
%TO.N,/SQUARE_1*%
X149148800Y-64198100D03*
%TD*%
D15*
%TO.P,C8,1*%
%TO.N,Net-(J2-Pin_1)*%
X177051100Y-68021200D03*
%TO.P,C8,2*%
%TO.N,GND*%
X173926100Y-68021200D03*
%TD*%
D13*
%TO.P,C14,1*%
%TO.N,Net-(D11-K)*%
X168173400Y-77075900D03*
%TO.P,C14,2*%
%TO.N,/SQUARE_2*%
X168173400Y-80200900D03*
%TD*%
D12*
%TO.P,D8,1,K*%
%TO.N,Net-(D8-K)*%
X158076600Y-74015600D03*
%TO.P,D8,2,A*%
%TO.N,Net-(D7-K)*%
X153276600Y-74015600D03*
%TD*%
D10*
%TO.P,J2,1,Pin_1*%
%TO.N,Net-(J2-Pin_1)*%
X176687400Y-63957200D03*
D11*
%TO.P,J2,2,Pin_2*%
%TO.N,GND*%
X174147400Y-63957200D03*
%TD*%
D12*
%TO.P,D6,1,K*%
%TO.N,Net-(D6-K)*%
X150495000Y-74015600D03*
%TO.P,D6,2,A*%
%TO.N,Net-(D5-K)*%
X145695000Y-74015600D03*
%TD*%
D13*
%TO.P,C7,1*%
%TO.N,Net-(D5-K)*%
X145745200Y-77152100D03*
%TO.P,C7,2*%
%TO.N,/SQUARE_2*%
X145745200Y-80277100D03*
%TD*%
D16*
%TO.P,JP1,1,A*%
%TO.N,Net-(J2-Pin_1)*%
X176951900Y-72461600D03*
D17*
%TO.P,JP1,2,C*%
%TO.N,Net-(D12-K)*%
X176951900Y-73761600D03*
D18*
%TO.P,JP1,3,B*%
%TO.N,/Charge_Out*%
X176951900Y-75061600D03*
%TD*%
D12*
%TO.P,D11,1,K*%
%TO.N,Net-(D11-K)*%
X169100200Y-70205600D03*
%TO.P,D11,2,A*%
%TO.N,Net-(D10-K)*%
X164300200Y-70205600D03*
%TD*%
%TO.P,D5,1,K*%
%TO.N,Net-(D5-K)*%
X146646600Y-70307200D03*
%TO.P,D5,2,A*%
%TO.N,Net-(D4-K)*%
X141846600Y-70307200D03*
%TD*%
D14*
%TO.P,C6,1*%
%TO.N,Net-(D4-K)*%
X141833600Y-67246900D03*
%TO.P,C6,2*%
%TO.N,/SQUARE_1*%
X141833600Y-64121900D03*
%TD*%
D10*
%TO.P,J3,1,Pin_1*%
%TO.N,/Charge_Out*%
X152237600Y-86938000D03*
D11*
%TO.P,J3,2,Pin_2*%
%TO.N,GND*%
X149697600Y-86938000D03*
%TO.P,J3,3,Pin_3*%
%TO.N,/SQUARE_2*%
X147157600Y-86938000D03*
%TO.P,J3,4,Pin_4*%
%TO.N,/SQUARE_1*%
X144617600Y-86938000D03*
%TD*%
D12*
%TO.P,D12,1,K*%
%TO.N,Net-(D12-K)*%
X173037200Y-74041000D03*
%TO.P,D12,2,A*%
%TO.N,Net-(D11-K)*%
X168237200Y-74041000D03*
%TD*%
D14*
%TO.P,C11,1*%
%TO.N,Net-(D8-K)*%
X156718000Y-67208400D03*
%TO.P,C11,2*%
%TO.N,/SQUARE_1*%
X156718000Y-64083400D03*
%TD*%
D13*
%TO.P,C10,1*%
%TO.N,Net-(D7-K)*%
X153263600Y-77075900D03*
%TO.P,C10,2*%
%TO.N,/SQUARE_2*%
X153263600Y-80200900D03*
%TD*%
D12*
%TO.P,D7,1,K*%
%TO.N,Net-(D7-K)*%
X154038000Y-70332600D03*
%TO.P,D7,2,A*%
%TO.N,Net-(D6-K)*%
X149238000Y-70332600D03*
%TD*%
D13*
%TO.P,C12,1*%
%TO.N,Net-(D10-A)*%
X160807400Y-77126700D03*
%TO.P,C12,2*%
%TO.N,/SQUARE_2*%
X160807400Y-80251700D03*
%TD*%
D12*
%TO.P,D3,1,K*%
%TO.N,Net-(D3-K)*%
X139115200Y-70307200D03*
%TO.P,D3,2,A*%
%TO.N,/Charge_In*%
X134315200Y-70307200D03*
%TD*%
%TO.P,D10,1,K*%
%TO.N,Net-(D10-K)*%
X165620400Y-74041000D03*
%TO.P,D10,2,A*%
%TO.N,Net-(D10-A)*%
X160820400Y-74041000D03*
%TD*%
%TO.P,D9,1,K*%
%TO.N,Net-(D10-A)*%
X161581800Y-70205600D03*
%TO.P,D9,2,A*%
%TO.N,Net-(D8-K)*%
X156781800Y-70205600D03*
%TD*%
D14*
%TO.P,C4,1*%
%TO.N,/Charge_In*%
X134391400Y-67221500D03*
%TO.P,C4,2*%
%TO.N,/SQUARE_1*%
X134391400Y-64096500D03*
%TD*%
%TO.P,C13,1*%
%TO.N,Net-(D10-K)*%
X164287200Y-67196100D03*
%TO.P,C13,2*%
%TO.N,/SQUARE_1*%
X164287200Y-64071100D03*
%TD*%
D19*
%TO.N,/SQUARE_1*%
X134670800Y-79502000D03*
X134645400Y-81280000D03*
%TO.N,/SQUARE_2*%
X131648200Y-59588400D03*
X129667000Y-59613800D03*
%TO.N,GND*%
X174955200Y-68021200D03*
%TD*%
D20*
%TO.N,/SQUARE_1*%
X136423400Y-64579100D02*
X135940800Y-64096500D01*
X136423400Y-72974200D02*
X136423400Y-64579100D01*
X134391400Y-64096500D02*
X135940800Y-64096500D01*
X135940800Y-64096500D02*
X141808200Y-64096500D01*
X134670800Y-74726800D02*
X136423400Y-72974200D01*
X134620000Y-81305400D02*
X134645400Y-81280000D01*
X134620000Y-85217000D02*
X134620000Y-81305400D01*
X134670800Y-79502000D02*
X134670800Y-74726800D01*
X136341000Y-86938000D02*
X134620000Y-85217000D01*
X144617600Y-86938000D02*
X136341000Y-86938000D01*
%TO.N,/SQUARE_2*%
X147167600Y-59334400D02*
X147167600Y-60350400D01*
X146761200Y-58928000D02*
X147167600Y-59334400D01*
X141833600Y-58928000D02*
X146761200Y-58928000D01*
X141173200Y-59588400D02*
X141833600Y-58928000D01*
X131648200Y-59588400D02*
X141173200Y-59588400D01*
X129235200Y-60045600D02*
X129667000Y-59613800D01*
X129235200Y-78790800D02*
X129235200Y-60045600D01*
X130810000Y-80365600D02*
X129235200Y-78790800D01*
X138074400Y-80365600D02*
X130810000Y-80365600D01*
%TO.N,/SQUARE_1*%
X141833600Y-61087000D02*
X142570200Y-60350400D01*
X141833600Y-64121900D02*
X141833600Y-61087000D01*
X144627600Y-60350400D02*
X142570200Y-60350400D01*
%TO.N,/Charge_In*%
X131826000Y-70307200D02*
X130683000Y-69164200D01*
X134315200Y-70307200D02*
X131826000Y-70307200D01*
X130683000Y-58775600D02*
X130683000Y-69164200D01*
X151663400Y-57988200D02*
X131470400Y-57988200D01*
X152247600Y-58572400D02*
X151663400Y-57988200D01*
X131470400Y-57988200D02*
X130683000Y-58775600D01*
X152247600Y-60350400D02*
X152247600Y-58572400D01*
%TO.N,GND*%
X173926100Y-68021200D02*
X174955200Y-68021200D01*
%TO.N,/SQUARE_1*%
X149072600Y-64121900D02*
X149148800Y-64198100D01*
X156603300Y-64198100D02*
X156718000Y-64083400D01*
X156718000Y-64083400D02*
X156730300Y-64071100D01*
X149148800Y-64198100D02*
X156603300Y-64198100D01*
X141808200Y-64096500D02*
X141833600Y-64121900D01*
X156730300Y-64071100D02*
X164287200Y-64071100D01*
X141833600Y-64121900D02*
X149072600Y-64121900D01*
%TO.N,/SQUARE_2*%
X160858200Y-80200900D02*
X160807400Y-80251700D01*
X145745200Y-80277100D02*
X153187400Y-80277100D01*
X153187400Y-80277100D02*
X153263600Y-80200900D01*
X160756600Y-80200900D02*
X160807400Y-80251700D01*
X145656700Y-80365600D02*
X145745200Y-80277100D01*
X153263600Y-80200900D02*
X160756600Y-80200900D01*
X147157600Y-83276600D02*
X145745200Y-81864200D01*
X145745200Y-81864200D02*
X145745200Y-80277100D01*
X147157600Y-86938000D02*
X147157600Y-83276600D01*
X168173400Y-80200900D02*
X160858200Y-80200900D01*
X138074400Y-80365600D02*
X145656700Y-80365600D01*
%TO.N,/Charge_In*%
X134315200Y-70307200D02*
X134315200Y-67297700D01*
X134315200Y-67297700D02*
X134391400Y-67221500D01*
%TO.N,Net-(D3-K)*%
X138074400Y-74079400D02*
X138138200Y-74015600D01*
X138138200Y-74015600D02*
X138138200Y-71284200D01*
X138138200Y-71284200D02*
X139115200Y-70307200D01*
X138074400Y-77240600D02*
X138074400Y-74079400D01*
%TO.N,Net-(D4-K)*%
X141846600Y-72924000D02*
X141846600Y-70307200D01*
X142938200Y-74015600D02*
X141846600Y-72924000D01*
X141846600Y-70307200D02*
X141846600Y-67259900D01*
X141846600Y-67259900D02*
X141833600Y-67246900D01*
%TO.N,Net-(D5-K)*%
X146646600Y-70307200D02*
X145695000Y-71258800D01*
X145695000Y-77101900D02*
X145745200Y-77152100D01*
X145695000Y-71258800D02*
X145695000Y-74015600D01*
X145695000Y-74015600D02*
X145695000Y-77101900D01*
%TO.N,Net-(D6-K)*%
X149238000Y-72758600D02*
X149238000Y-70332600D01*
X149238000Y-70332600D02*
X149238000Y-67412300D01*
X150495000Y-74015600D02*
X149238000Y-72758600D01*
X149238000Y-67412300D02*
X149148800Y-67323100D01*
%TO.N,Net-(D8-K)*%
X158076600Y-74015600D02*
X156781800Y-72720800D01*
X156781800Y-72720800D02*
X156781800Y-70205600D01*
X156781800Y-67272200D02*
X156718000Y-67208400D01*
X156781800Y-70205600D02*
X156781800Y-67272200D01*
%TO.N,Net-(D10-A)*%
X160820400Y-70967000D02*
X160820400Y-74041000D01*
X160807400Y-77126700D02*
X160807400Y-74054000D01*
X161581800Y-70205600D02*
X160820400Y-70967000D01*
X160807400Y-74054000D02*
X160820400Y-74041000D01*
%TO.N,Net-(D10-K)*%
X164300200Y-70205600D02*
X164300200Y-67209100D01*
X165620400Y-74041000D02*
X164300200Y-72720800D01*
X164300200Y-72720800D02*
X164300200Y-70205600D01*
X164300200Y-67209100D02*
X164287200Y-67196100D01*
%TO.N,Net-(D11-K)*%
X168173400Y-77075900D02*
X168173400Y-74104800D01*
X168237200Y-74041000D02*
X168237200Y-71068600D01*
X168173400Y-74104800D02*
X168237200Y-74041000D01*
X168237200Y-71068600D02*
X169100200Y-70205600D01*
%TO.N,Net-(D7-K)*%
X153263600Y-74028600D02*
X153276600Y-74015600D01*
X153276600Y-71094000D02*
X153276600Y-74015600D01*
X154038000Y-70332600D02*
X153276600Y-71094000D01*
X153263600Y-77075900D02*
X153263600Y-74028600D01*
%TO.N,Net-(D12-K)*%
X173316600Y-73761600D02*
X173037200Y-74041000D01*
X176951900Y-73761600D02*
X173316600Y-73761600D01*
%TO.N,Net-(J2-Pin_1)*%
X177051100Y-64320900D02*
X176687400Y-63957200D01*
X177051100Y-68021200D02*
X177051100Y-64320900D01*
X176951900Y-68120400D02*
X177051100Y-68021200D01*
X176951900Y-72461600D02*
X176951900Y-68120400D01*
%TO.N,/Charge_Out*%
X173488200Y-86938000D02*
X176951900Y-83474300D01*
X152237600Y-86938000D02*
X173488200Y-86938000D01*
X176951900Y-83474300D02*
X176951900Y-75061600D01*
%TD*%
M02*
