%TF.GenerationSoftware,KiCad,Pcbnew,(6.0.0)*%
%TF.CreationDate,2022-03-12T11:12:18-07:00*%
%TF.ProjectId,AudioMixer_Duo_LBB,41756469-6f4d-4697-9865-725f44756f5f,rev?*%
%TF.SameCoordinates,Original*%
%TF.FileFunction,Legend,Top*%
%TF.FilePolarity,Positive*%
%FSLAX46Y46*%
G04 Gerber Fmt 4.6, Leading zero omitted, Abs format (unit mm)*
G04 Created by KiCad (PCBNEW (6.0.0)) date 2022-03-12 11:12:18*
%MOMM*%
%LPD*%
G01*
G04 APERTURE LIST*
%ADD10C,0.150000*%
%ADD11C,0.120000*%
%ADD12C,0.127000*%
G04 APERTURE END LIST*
D10*
X127380952Y-93702380D02*
X127380952Y-94416666D01*
X127333333Y-94559523D01*
X127238095Y-94654761D01*
X127095238Y-94702380D01*
X127000000Y-94702380D01*
X128333333Y-94702380D02*
X127857142Y-94702380D01*
X127857142Y-93702380D01*
X129238095Y-94607142D02*
X129190476Y-94654761D01*
X129047619Y-94702380D01*
X128952380Y-94702380D01*
X128809523Y-94654761D01*
X128714285Y-94559523D01*
X128666666Y-94464285D01*
X128619047Y-94273809D01*
X128619047Y-94130952D01*
X128666666Y-93940476D01*
X128714285Y-93845238D01*
X128809523Y-93750000D01*
X128952380Y-93702380D01*
X129047619Y-93702380D01*
X129190476Y-93750000D01*
X129238095Y-93797619D01*
X129952380Y-93702380D02*
X129952380Y-94416666D01*
X129904761Y-94559523D01*
X129809523Y-94654761D01*
X129666666Y-94702380D01*
X129571428Y-94702380D01*
X130904761Y-94702380D02*
X130428571Y-94702380D01*
X130428571Y-93702380D01*
X131809523Y-94607142D02*
X131761904Y-94654761D01*
X131619047Y-94702380D01*
X131523809Y-94702380D01*
X131380952Y-94654761D01*
X131285714Y-94559523D01*
X131238095Y-94464285D01*
X131190476Y-94273809D01*
X131190476Y-94130952D01*
X131238095Y-93940476D01*
X131285714Y-93845238D01*
X131380952Y-93750000D01*
X131523809Y-93702380D01*
X131619047Y-93702380D01*
X131761904Y-93750000D01*
X131809523Y-93797619D01*
X132523809Y-93702380D02*
X132523809Y-94416666D01*
X132476190Y-94559523D01*
X132380952Y-94654761D01*
X132238095Y-94702380D01*
X132142857Y-94702380D01*
X133476190Y-94702380D02*
X133000000Y-94702380D01*
X133000000Y-93702380D01*
X134380952Y-94607142D02*
X134333333Y-94654761D01*
X134190476Y-94702380D01*
X134095238Y-94702380D01*
X133952380Y-94654761D01*
X133857142Y-94559523D01*
X133809523Y-94464285D01*
X133761904Y-94273809D01*
X133761904Y-94130952D01*
X133809523Y-93940476D01*
X133857142Y-93845238D01*
X133952380Y-93750000D01*
X134095238Y-93702380D01*
X134190476Y-93702380D01*
X134333333Y-93750000D01*
X134380952Y-93797619D01*
X135095238Y-93702380D02*
X135095238Y-94416666D01*
X135047619Y-94559523D01*
X134952380Y-94654761D01*
X134809523Y-94702380D01*
X134714285Y-94702380D01*
X136047619Y-94702380D02*
X135571428Y-94702380D01*
X135571428Y-93702380D01*
X136952380Y-94607142D02*
X136904761Y-94654761D01*
X136761904Y-94702380D01*
X136666666Y-94702380D01*
X136523809Y-94654761D01*
X136428571Y-94559523D01*
X136380952Y-94464285D01*
X136333333Y-94273809D01*
X136333333Y-94130952D01*
X136380952Y-93940476D01*
X136428571Y-93845238D01*
X136523809Y-93750000D01*
X136666666Y-93702380D01*
X136761904Y-93702380D01*
X136904761Y-93750000D01*
X136952380Y-93797619D01*
X198386000Y-60137600D02*
X197636000Y-59637600D01*
X123850000Y-59200000D02*
X78850000Y-59200000D01*
X78850000Y-59200000D02*
X78850000Y-79200000D01*
X78850000Y-79200000D02*
X123850000Y-79200000D01*
X123850000Y-79200000D02*
X123850000Y-59200000D01*
X172886000Y-58137600D02*
X172886000Y-75887600D01*
X191386000Y-56137600D02*
X197636000Y-59637600D01*
X198386000Y-80887600D02*
X198386000Y-60137600D01*
X172136000Y-75887600D02*
X149636000Y-75887600D01*
X197636000Y-80887600D02*
X174386000Y-80887600D01*
X145136000Y-66387600D02*
X145136000Y-52137600D01*
X174386000Y-80887600D02*
X174386000Y-56137600D01*
X123725000Y-84250000D02*
X78725000Y-84250000D01*
X78725000Y-84250000D02*
X78725000Y-104250000D01*
X78725000Y-104250000D02*
X123725000Y-104250000D01*
X123725000Y-104250000D02*
X123725000Y-84250000D01*
X160386000Y-52137600D02*
X160386000Y-58137600D01*
X160386000Y-58137600D02*
X172886000Y-58137600D01*
X172886000Y-75887600D02*
X172136000Y-75887600D01*
X145136000Y-52137600D02*
X160386000Y-52137600D01*
X149636000Y-75887600D02*
X145136000Y-66387600D01*
X174386000Y-56137600D02*
X191386000Y-56137600D01*
X197636000Y-80887600D02*
X198386000Y-80887600D01*
X145778857Y-33387600D02*
X145636000Y-33316171D01*
X145421714Y-33316171D01*
X145207428Y-33387600D01*
X145064571Y-33530457D01*
X144993142Y-33673314D01*
X144921714Y-33959028D01*
X144921714Y-34173314D01*
X144993142Y-34459028D01*
X145064571Y-34601885D01*
X145207428Y-34744742D01*
X145421714Y-34816171D01*
X145564571Y-34816171D01*
X145778857Y-34744742D01*
X145850285Y-34673314D01*
X145850285Y-34173314D01*
X145564571Y-34173314D01*
X147136000Y-34816171D02*
X147136000Y-34030457D01*
X147064571Y-33887600D01*
X146921714Y-33816171D01*
X146636000Y-33816171D01*
X146493142Y-33887600D01*
X147136000Y-34744742D02*
X146993142Y-34816171D01*
X146636000Y-34816171D01*
X146493142Y-34744742D01*
X146421714Y-34601885D01*
X146421714Y-34459028D01*
X146493142Y-34316171D01*
X146636000Y-34244742D01*
X146993142Y-34244742D01*
X147136000Y-34173314D01*
X147850285Y-34816171D02*
X147850285Y-33816171D01*
X147850285Y-33316171D02*
X147778857Y-33387600D01*
X147850285Y-33459028D01*
X147921714Y-33387600D01*
X147850285Y-33316171D01*
X147850285Y-33459028D01*
X148564571Y-33816171D02*
X148564571Y-34816171D01*
X148564571Y-33959028D02*
X148636000Y-33887600D01*
X148778857Y-33816171D01*
X148993142Y-33816171D01*
X149136000Y-33887600D01*
X149207428Y-34030457D01*
X149207428Y-34816171D01*
X150993142Y-33459028D02*
X151064571Y-33387600D01*
X151207428Y-33316171D01*
X151564571Y-33316171D01*
X151707428Y-33387600D01*
X151778857Y-33459028D01*
X151850285Y-33601885D01*
X151850285Y-33744742D01*
X151778857Y-33959028D01*
X150921714Y-34816171D01*
X151850285Y-34816171D01*
X148636000Y-84149504D02*
X148588380Y-84244742D01*
X148588380Y-84387600D01*
X148636000Y-84530457D01*
X148731238Y-84625695D01*
X148826476Y-84673314D01*
X149016952Y-84720933D01*
X149159809Y-84720933D01*
X149350285Y-84673314D01*
X149445523Y-84625695D01*
X149540761Y-84530457D01*
X149588380Y-84387600D01*
X149588380Y-84292361D01*
X149540761Y-84149504D01*
X149493142Y-84101885D01*
X149159809Y-84101885D01*
X149159809Y-84292361D01*
X149588380Y-83673314D02*
X148588380Y-83673314D01*
X149588380Y-83101885D01*
X148588380Y-83101885D01*
X149588380Y-82625695D02*
X148588380Y-82625695D01*
X148588380Y-82387600D01*
X148636000Y-82244742D01*
X148731238Y-82149504D01*
X148826476Y-82101885D01*
X149016952Y-82054266D01*
X149159809Y-82054266D01*
X149350285Y-82101885D01*
X149445523Y-82149504D01*
X149540761Y-82244742D01*
X149588380Y-82387600D01*
X149588380Y-82625695D01*
X118702380Y-66395119D02*
X118226190Y-66728452D01*
X118702380Y-66966547D02*
X117702380Y-66966547D01*
X117702380Y-66585595D01*
X117750000Y-66490357D01*
X117797619Y-66442738D01*
X117892857Y-66395119D01*
X118035714Y-66395119D01*
X118130952Y-66442738D01*
X118178571Y-66490357D01*
X118226190Y-66585595D01*
X118226190Y-66966547D01*
X118702380Y-65966547D02*
X118035714Y-65966547D01*
X117702380Y-65966547D02*
X117750000Y-66014166D01*
X117797619Y-65966547D01*
X117750000Y-65918928D01*
X117702380Y-65966547D01*
X117797619Y-65966547D01*
X118035714Y-65061785D02*
X118845238Y-65061785D01*
X118940476Y-65109404D01*
X118988095Y-65157023D01*
X119035714Y-65252261D01*
X119035714Y-65395119D01*
X118988095Y-65490357D01*
X118654761Y-65061785D02*
X118702380Y-65157023D01*
X118702380Y-65347500D01*
X118654761Y-65442738D01*
X118607142Y-65490357D01*
X118511904Y-65537976D01*
X118226190Y-65537976D01*
X118130952Y-65490357D01*
X118083333Y-65442738D01*
X118035714Y-65347500D01*
X118035714Y-65157023D01*
X118083333Y-65061785D01*
X118702380Y-64585595D02*
X117702380Y-64585595D01*
X118702380Y-64157023D02*
X118178571Y-64157023D01*
X118083333Y-64204642D01*
X118035714Y-64299880D01*
X118035714Y-64442738D01*
X118083333Y-64537976D01*
X118130952Y-64585595D01*
X118035714Y-63823690D02*
X118035714Y-63442738D01*
X117702380Y-63680833D02*
X118559523Y-63680833D01*
X118654761Y-63633214D01*
X118702380Y-63537976D01*
X118702380Y-63442738D01*
X114952380Y-75057261D02*
X115952380Y-74723928D01*
X114952380Y-74390595D01*
X115428571Y-73723928D02*
X115476190Y-73581071D01*
X115523809Y-73533452D01*
X115619047Y-73485833D01*
X115761904Y-73485833D01*
X115857142Y-73533452D01*
X115904761Y-73581071D01*
X115952380Y-73676309D01*
X115952380Y-74057261D01*
X114952380Y-74057261D01*
X114952380Y-73723928D01*
X115000000Y-73628690D01*
X115047619Y-73581071D01*
X115142857Y-73533452D01*
X115238095Y-73533452D01*
X115333333Y-73581071D01*
X115380952Y-73628690D01*
X115428571Y-73723928D01*
X115428571Y-74057261D01*
X115952380Y-72628690D02*
X115428571Y-72628690D01*
X115333333Y-72676309D01*
X115285714Y-72771547D01*
X115285714Y-72962023D01*
X115333333Y-73057261D01*
X115904761Y-72628690D02*
X115952380Y-72723928D01*
X115952380Y-72962023D01*
X115904761Y-73057261D01*
X115809523Y-73104880D01*
X115714285Y-73104880D01*
X115619047Y-73057261D01*
X115571428Y-72962023D01*
X115571428Y-72723928D01*
X115523809Y-72628690D01*
X115285714Y-72295357D02*
X115285714Y-71914404D01*
X114952380Y-72152500D02*
X115809523Y-72152500D01*
X115904761Y-72104880D01*
X115952380Y-72009642D01*
X115952380Y-71914404D01*
X141273809Y-94452380D02*
X141273809Y-93452380D01*
X141607142Y-94166666D01*
X141940476Y-93452380D01*
X141940476Y-94452380D01*
X142416666Y-94452380D02*
X142416666Y-93785714D01*
X142416666Y-93452380D02*
X142369047Y-93500000D01*
X142416666Y-93547619D01*
X142464285Y-93500000D01*
X142416666Y-93452380D01*
X142416666Y-93547619D01*
X142797619Y-94452380D02*
X143321428Y-93785714D01*
X142797619Y-93785714D02*
X143321428Y-94452380D01*
X184493142Y-61316171D02*
X184493142Y-59816171D01*
X185207428Y-60316171D02*
X185207428Y-61316171D01*
X185207428Y-60459028D02*
X185278857Y-60387600D01*
X185421714Y-60316171D01*
X185636000Y-60316171D01*
X185778857Y-60387600D01*
X185850285Y-60530457D01*
X185850285Y-61316171D01*
X186421714Y-60316171D02*
X186778857Y-61316171D01*
X187136000Y-60316171D01*
X188278857Y-61244742D02*
X188136000Y-61316171D01*
X187850285Y-61316171D01*
X187707428Y-61244742D01*
X187636000Y-61101885D01*
X187636000Y-60530457D01*
X187707428Y-60387600D01*
X187850285Y-60316171D01*
X188136000Y-60316171D01*
X188278857Y-60387600D01*
X188350285Y-60530457D01*
X188350285Y-60673314D01*
X187636000Y-60816171D01*
X188993142Y-61316171D02*
X188993142Y-60316171D01*
X188993142Y-60601885D02*
X189064571Y-60459028D01*
X189136000Y-60387600D01*
X189278857Y-60316171D01*
X189421714Y-60316171D01*
X189707428Y-60316171D02*
X190278857Y-60316171D01*
X189921714Y-59816171D02*
X189921714Y-61101885D01*
X189993142Y-61244742D01*
X190136000Y-61316171D01*
X190278857Y-61316171D01*
X191350285Y-61244742D02*
X191207428Y-61316171D01*
X190921714Y-61316171D01*
X190778857Y-61244742D01*
X190707428Y-61101885D01*
X190707428Y-60530457D01*
X190778857Y-60387600D01*
X190921714Y-60316171D01*
X191207428Y-60316171D01*
X191350285Y-60387600D01*
X191421714Y-60530457D01*
X191421714Y-60673314D01*
X190707428Y-60816171D01*
X192064571Y-61316171D02*
X192064571Y-60316171D01*
X192064571Y-60601885D02*
X192136000Y-60459028D01*
X192207428Y-60387600D01*
X192350285Y-60316171D01*
X192493142Y-60316171D01*
X141630952Y-71702380D02*
X141297619Y-71226190D01*
X141059523Y-71702380D02*
X141059523Y-70702380D01*
X141440476Y-70702380D01*
X141535714Y-70750000D01*
X141583333Y-70797619D01*
X141630952Y-70892857D01*
X141630952Y-71035714D01*
X141583333Y-71130952D01*
X141535714Y-71178571D01*
X141440476Y-71226190D01*
X141059523Y-71226190D01*
X142059523Y-71702380D02*
X142059523Y-71035714D01*
X142059523Y-70702380D02*
X142011904Y-70750000D01*
X142059523Y-70797619D01*
X142107142Y-70750000D01*
X142059523Y-70702380D01*
X142059523Y-70797619D01*
X142964285Y-71035714D02*
X142964285Y-71845238D01*
X142916666Y-71940476D01*
X142869047Y-71988095D01*
X142773809Y-72035714D01*
X142630952Y-72035714D01*
X142535714Y-71988095D01*
X142964285Y-71654761D02*
X142869047Y-71702380D01*
X142678571Y-71702380D01*
X142583333Y-71654761D01*
X142535714Y-71607142D01*
X142488095Y-71511904D01*
X142488095Y-71226190D01*
X142535714Y-71130952D01*
X142583333Y-71083333D01*
X142678571Y-71035714D01*
X142869047Y-71035714D01*
X142964285Y-71083333D01*
X143440476Y-71702380D02*
X143440476Y-70702380D01*
X143869047Y-71702380D02*
X143869047Y-71178571D01*
X143821428Y-71083333D01*
X143726190Y-71035714D01*
X143583333Y-71035714D01*
X143488095Y-71083333D01*
X143440476Y-71130952D01*
X144202380Y-71035714D02*
X144583333Y-71035714D01*
X144345238Y-70702380D02*
X144345238Y-71559523D01*
X144392857Y-71654761D01*
X144488095Y-71702380D01*
X144583333Y-71702380D01*
X118321428Y-74914404D02*
X118321428Y-74152500D01*
X118702380Y-74533452D02*
X117940476Y-74533452D01*
X117702380Y-73200119D02*
X117702380Y-73676309D01*
X118178571Y-73723928D01*
X118130952Y-73676309D01*
X118083333Y-73581071D01*
X118083333Y-73342976D01*
X118130952Y-73247738D01*
X118178571Y-73200119D01*
X118273809Y-73152500D01*
X118511904Y-73152500D01*
X118607142Y-73200119D01*
X118654761Y-73247738D01*
X118702380Y-73342976D01*
X118702380Y-73581071D01*
X118654761Y-73676309D01*
X118607142Y-73723928D01*
X117702380Y-72866785D02*
X118702380Y-72533452D01*
X117702380Y-72200119D01*
X158561785Y-99702380D02*
X158085595Y-99702380D01*
X158085595Y-98702380D01*
X159323690Y-99702380D02*
X159323690Y-99178571D01*
X159276071Y-99083333D01*
X159180833Y-99035714D01*
X158990357Y-99035714D01*
X158895119Y-99083333D01*
X159323690Y-99654761D02*
X159228452Y-99702380D01*
X158990357Y-99702380D01*
X158895119Y-99654761D01*
X158847500Y-99559523D01*
X158847500Y-99464285D01*
X158895119Y-99369047D01*
X158990357Y-99321428D01*
X159228452Y-99321428D01*
X159323690Y-99273809D01*
X159799880Y-99702380D02*
X159799880Y-98702380D01*
X159799880Y-99083333D02*
X159895119Y-99035714D01*
X160085595Y-99035714D01*
X160180833Y-99083333D01*
X160228452Y-99130952D01*
X160276071Y-99226190D01*
X160276071Y-99511904D01*
X160228452Y-99607142D01*
X160180833Y-99654761D01*
X160085595Y-99702380D01*
X159895119Y-99702380D01*
X159799880Y-99654761D01*
X161799880Y-99178571D02*
X161942738Y-99226190D01*
X161990357Y-99273809D01*
X162037976Y-99369047D01*
X162037976Y-99511904D01*
X161990357Y-99607142D01*
X161942738Y-99654761D01*
X161847500Y-99702380D01*
X161466547Y-99702380D01*
X161466547Y-98702380D01*
X161799880Y-98702380D01*
X161895119Y-98750000D01*
X161942738Y-98797619D01*
X161990357Y-98892857D01*
X161990357Y-98988095D01*
X161942738Y-99083333D01*
X161895119Y-99130952D01*
X161799880Y-99178571D01*
X161466547Y-99178571D01*
X162847500Y-99654761D02*
X162752261Y-99702380D01*
X162561785Y-99702380D01*
X162466547Y-99654761D01*
X162418928Y-99559523D01*
X162418928Y-99178571D01*
X162466547Y-99083333D01*
X162561785Y-99035714D01*
X162752261Y-99035714D01*
X162847500Y-99083333D01*
X162895119Y-99178571D01*
X162895119Y-99273809D01*
X162418928Y-99369047D01*
X163323690Y-99035714D02*
X163323690Y-99702380D01*
X163323690Y-99130952D02*
X163371309Y-99083333D01*
X163466547Y-99035714D01*
X163609404Y-99035714D01*
X163704642Y-99083333D01*
X163752261Y-99178571D01*
X163752261Y-99702380D01*
X164657023Y-99654761D02*
X164561785Y-99702380D01*
X164371309Y-99702380D01*
X164276071Y-99654761D01*
X164228452Y-99607142D01*
X164180833Y-99511904D01*
X164180833Y-99226190D01*
X164228452Y-99130952D01*
X164276071Y-99083333D01*
X164371309Y-99035714D01*
X164561785Y-99035714D01*
X164657023Y-99083333D01*
X165085595Y-99702380D02*
X165085595Y-98702380D01*
X165514166Y-99702380D02*
X165514166Y-99178571D01*
X165466547Y-99083333D01*
X165371309Y-99035714D01*
X165228452Y-99035714D01*
X165133214Y-99083333D01*
X165085595Y-99130952D01*
X167085595Y-99178571D02*
X167228452Y-99226190D01*
X167276071Y-99273809D01*
X167323690Y-99369047D01*
X167323690Y-99511904D01*
X167276071Y-99607142D01*
X167228452Y-99654761D01*
X167133214Y-99702380D01*
X166752261Y-99702380D01*
X166752261Y-98702380D01*
X167085595Y-98702380D01*
X167180833Y-98750000D01*
X167228452Y-98797619D01*
X167276071Y-98892857D01*
X167276071Y-98988095D01*
X167228452Y-99083333D01*
X167180833Y-99130952D01*
X167085595Y-99178571D01*
X166752261Y-99178571D01*
X167895119Y-99702380D02*
X167799880Y-99654761D01*
X167752261Y-99607142D01*
X167704642Y-99511904D01*
X167704642Y-99226190D01*
X167752261Y-99130952D01*
X167799880Y-99083333D01*
X167895119Y-99035714D01*
X168037976Y-99035714D01*
X168133214Y-99083333D01*
X168180833Y-99130952D01*
X168228452Y-99226190D01*
X168228452Y-99511904D01*
X168180833Y-99607142D01*
X168133214Y-99654761D01*
X168037976Y-99702380D01*
X167895119Y-99702380D01*
X169085595Y-99702380D02*
X169085595Y-99178571D01*
X169037976Y-99083333D01*
X168942738Y-99035714D01*
X168752261Y-99035714D01*
X168657023Y-99083333D01*
X169085595Y-99654761D02*
X168990357Y-99702380D01*
X168752261Y-99702380D01*
X168657023Y-99654761D01*
X168609404Y-99559523D01*
X168609404Y-99464285D01*
X168657023Y-99369047D01*
X168752261Y-99321428D01*
X168990357Y-99321428D01*
X169085595Y-99273809D01*
X169561785Y-99702380D02*
X169561785Y-99035714D01*
X169561785Y-99226190D02*
X169609404Y-99130952D01*
X169657023Y-99083333D01*
X169752261Y-99035714D01*
X169847500Y-99035714D01*
X170609404Y-99702380D02*
X170609404Y-98702380D01*
X170609404Y-99654761D02*
X170514166Y-99702380D01*
X170323690Y-99702380D01*
X170228452Y-99654761D01*
X170180833Y-99607142D01*
X170133214Y-99511904D01*
X170133214Y-99226190D01*
X170180833Y-99130952D01*
X170228452Y-99083333D01*
X170323690Y-99035714D01*
X170514166Y-99035714D01*
X170609404Y-99083333D01*
X158671714Y-74494742D02*
X158886000Y-74566171D01*
X159243142Y-74566171D01*
X159386000Y-74494742D01*
X159457428Y-74423314D01*
X159528857Y-74280457D01*
X159528857Y-74137600D01*
X159457428Y-73994742D01*
X159386000Y-73923314D01*
X159243142Y-73851885D01*
X158957428Y-73780457D01*
X158814571Y-73709028D01*
X158743142Y-73637600D01*
X158671714Y-73494742D01*
X158671714Y-73351885D01*
X158743142Y-73209028D01*
X158814571Y-73137600D01*
X158957428Y-73066171D01*
X159314571Y-73066171D01*
X159528857Y-73137600D01*
X160814571Y-73566171D02*
X160814571Y-74566171D01*
X160171714Y-73566171D02*
X160171714Y-74351885D01*
X160243142Y-74494742D01*
X160386000Y-74566171D01*
X160600285Y-74566171D01*
X160743142Y-74494742D01*
X160814571Y-74423314D01*
X161528857Y-74566171D02*
X161528857Y-73566171D01*
X161528857Y-73709028D02*
X161600285Y-73637600D01*
X161743142Y-73566171D01*
X161957428Y-73566171D01*
X162100285Y-73637600D01*
X162171714Y-73780457D01*
X162171714Y-74566171D01*
X162171714Y-73780457D02*
X162243142Y-73637600D01*
X162386000Y-73566171D01*
X162600285Y-73566171D01*
X162743142Y-73637600D01*
X162814571Y-73780457D01*
X162814571Y-74566171D01*
X163528857Y-74566171D02*
X163528857Y-73566171D01*
X163528857Y-73709028D02*
X163600285Y-73637600D01*
X163743142Y-73566171D01*
X163957428Y-73566171D01*
X164100285Y-73637600D01*
X164171714Y-73780457D01*
X164171714Y-74566171D01*
X164171714Y-73780457D02*
X164243142Y-73637600D01*
X164386000Y-73566171D01*
X164600285Y-73566171D01*
X164743142Y-73637600D01*
X164814571Y-73780457D01*
X164814571Y-74566171D01*
X166100285Y-74494742D02*
X165957428Y-74566171D01*
X165671714Y-74566171D01*
X165528857Y-74494742D01*
X165457428Y-74351885D01*
X165457428Y-73780457D01*
X165528857Y-73637600D01*
X165671714Y-73566171D01*
X165957428Y-73566171D01*
X166100285Y-73637600D01*
X166171714Y-73780457D01*
X166171714Y-73923314D01*
X165457428Y-74066171D01*
X166814571Y-74566171D02*
X166814571Y-73566171D01*
X166814571Y-73851885D02*
X166886000Y-73709028D01*
X166957428Y-73637600D01*
X167100285Y-73566171D01*
X167243142Y-73566171D01*
X141273809Y-69202380D02*
X141273809Y-68202380D01*
X141607142Y-68916666D01*
X141940476Y-68202380D01*
X141940476Y-69202380D01*
X142416666Y-69202380D02*
X142416666Y-68535714D01*
X142416666Y-68202380D02*
X142369047Y-68250000D01*
X142416666Y-68297619D01*
X142464285Y-68250000D01*
X142416666Y-68202380D01*
X142416666Y-68297619D01*
X142797619Y-69202380D02*
X143321428Y-68535714D01*
X142797619Y-68535714D02*
X143321428Y-69202380D01*
X154207428Y-85649504D02*
X154207428Y-84887600D01*
X154588380Y-83887600D02*
X154588380Y-84459028D01*
X154588380Y-84173314D02*
X153588380Y-84173314D01*
X153731238Y-84268552D01*
X153826476Y-84363790D01*
X153874095Y-84459028D01*
X153588380Y-82982838D02*
X153588380Y-83459028D01*
X154064571Y-83506647D01*
X154016952Y-83459028D01*
X153969333Y-83363790D01*
X153969333Y-83125695D01*
X154016952Y-83030457D01*
X154064571Y-82982838D01*
X154159809Y-82935219D01*
X154397904Y-82935219D01*
X154493142Y-82982838D01*
X154540761Y-83030457D01*
X154588380Y-83125695D01*
X154588380Y-83363790D01*
X154540761Y-83459028D01*
X154493142Y-83506647D01*
X153588380Y-82649504D02*
X154588380Y-82316171D01*
X153588380Y-81982838D01*
X129500000Y-83928571D02*
X129785714Y-83928571D01*
X129928571Y-84000000D01*
X130071428Y-84142857D01*
X130142857Y-84428571D01*
X130142857Y-84928571D01*
X130071428Y-85214285D01*
X129928571Y-85357142D01*
X129785714Y-85428571D01*
X129500000Y-85428571D01*
X129357142Y-85357142D01*
X129214285Y-85214285D01*
X129142857Y-84928571D01*
X129142857Y-84428571D01*
X129214285Y-84142857D01*
X129357142Y-84000000D01*
X129500000Y-83928571D01*
X130785714Y-84428571D02*
X130785714Y-85428571D01*
X130785714Y-84571428D02*
X130857142Y-84500000D01*
X131000000Y-84428571D01*
X131214285Y-84428571D01*
X131357142Y-84500000D01*
X131428571Y-84642857D01*
X131428571Y-85428571D01*
X133214285Y-83857142D02*
X131928571Y-85785714D01*
X134000000Y-83928571D02*
X134285714Y-83928571D01*
X134428571Y-84000000D01*
X134571428Y-84142857D01*
X134642857Y-84428571D01*
X134642857Y-84928571D01*
X134571428Y-85214285D01*
X134428571Y-85357142D01*
X134285714Y-85428571D01*
X134000000Y-85428571D01*
X133857142Y-85357142D01*
X133714285Y-85214285D01*
X133642857Y-84928571D01*
X133642857Y-84428571D01*
X133714285Y-84142857D01*
X133857142Y-84000000D01*
X134000000Y-83928571D01*
X135071428Y-84428571D02*
X135642857Y-84428571D01*
X135285714Y-85428571D02*
X135285714Y-84142857D01*
X135357142Y-84000000D01*
X135500000Y-83928571D01*
X135642857Y-83928571D01*
X135928571Y-84428571D02*
X136500000Y-84428571D01*
X136142857Y-85428571D02*
X136142857Y-84142857D01*
X136214285Y-84000000D01*
X136357142Y-83928571D01*
X136500000Y-83928571D01*
X201101357Y-77358671D02*
X201387071Y-77358671D01*
X201529928Y-77430100D01*
X201672785Y-77572957D01*
X201744214Y-77858671D01*
X201744214Y-78358671D01*
X201672785Y-78644385D01*
X201529928Y-78787242D01*
X201387071Y-78858671D01*
X201101357Y-78858671D01*
X200958500Y-78787242D01*
X200815642Y-78644385D01*
X200744214Y-78358671D01*
X200744214Y-77858671D01*
X200815642Y-77572957D01*
X200958500Y-77430100D01*
X201101357Y-77358671D01*
X202315642Y-78787242D02*
X202458500Y-78858671D01*
X202744214Y-78858671D01*
X202887071Y-78787242D01*
X202958500Y-78644385D01*
X202958500Y-78572957D01*
X202887071Y-78430100D01*
X202744214Y-78358671D01*
X202529928Y-78358671D01*
X202387071Y-78287242D01*
X202315642Y-78144385D01*
X202315642Y-78072957D01*
X202387071Y-77930100D01*
X202529928Y-77858671D01*
X202744214Y-77858671D01*
X202887071Y-77930100D01*
X204244214Y-78787242D02*
X204101357Y-78858671D01*
X203815642Y-78858671D01*
X203672785Y-78787242D01*
X203601357Y-78715814D01*
X203529928Y-78572957D01*
X203529928Y-78144385D01*
X203601357Y-78001528D01*
X203672785Y-77930100D01*
X203815642Y-77858671D01*
X204101357Y-77858671D01*
X204244214Y-77930100D01*
X201101357Y-79773671D02*
X201387071Y-79773671D01*
X201529928Y-79845100D01*
X201672785Y-79987957D01*
X201744214Y-80273671D01*
X201744214Y-80773671D01*
X201672785Y-81059385D01*
X201529928Y-81202242D01*
X201387071Y-81273671D01*
X201101357Y-81273671D01*
X200958500Y-81202242D01*
X200815642Y-81059385D01*
X200744214Y-80773671D01*
X200744214Y-80273671D01*
X200815642Y-79987957D01*
X200958500Y-79845100D01*
X201101357Y-79773671D01*
X203029928Y-80273671D02*
X203029928Y-81273671D01*
X202387071Y-80273671D02*
X202387071Y-81059385D01*
X202458500Y-81202242D01*
X202601357Y-81273671D01*
X202815642Y-81273671D01*
X202958500Y-81202242D01*
X203029928Y-81130814D01*
X203529928Y-80273671D02*
X204101357Y-80273671D01*
X203744214Y-79773671D02*
X203744214Y-81059385D01*
X203815642Y-81202242D01*
X203958500Y-81273671D01*
X204101357Y-81273671D01*
X204601357Y-80273671D02*
X204601357Y-81773671D01*
X204601357Y-80345100D02*
X204744214Y-80273671D01*
X205029928Y-80273671D01*
X205172785Y-80345100D01*
X205244214Y-80416528D01*
X205315642Y-80559385D01*
X205315642Y-80987957D01*
X205244214Y-81130814D01*
X205172785Y-81202242D01*
X205029928Y-81273671D01*
X204744214Y-81273671D01*
X204601357Y-81202242D01*
X206601357Y-80273671D02*
X206601357Y-81273671D01*
X205958500Y-80273671D02*
X205958500Y-81059385D01*
X206029928Y-81202242D01*
X206172785Y-81273671D01*
X206387071Y-81273671D01*
X206529928Y-81202242D01*
X206601357Y-81130814D01*
X207101357Y-80273671D02*
X207672785Y-80273671D01*
X207315642Y-79773671D02*
X207315642Y-81059385D01*
X207387071Y-81202242D01*
X207529928Y-81273671D01*
X207672785Y-81273671D01*
X118541380Y-91257519D02*
X118065190Y-91590852D01*
X118541380Y-91828947D02*
X117541380Y-91828947D01*
X117541380Y-91447995D01*
X117589000Y-91352757D01*
X117636619Y-91305138D01*
X117731857Y-91257519D01*
X117874714Y-91257519D01*
X117969952Y-91305138D01*
X118017571Y-91352757D01*
X118065190Y-91447995D01*
X118065190Y-91828947D01*
X118541380Y-90828947D02*
X117874714Y-90828947D01*
X117541380Y-90828947D02*
X117589000Y-90876566D01*
X117636619Y-90828947D01*
X117589000Y-90781328D01*
X117541380Y-90828947D01*
X117636619Y-90828947D01*
X117874714Y-89924185D02*
X118684238Y-89924185D01*
X118779476Y-89971804D01*
X118827095Y-90019423D01*
X118874714Y-90114661D01*
X118874714Y-90257519D01*
X118827095Y-90352757D01*
X118493761Y-89924185D02*
X118541380Y-90019423D01*
X118541380Y-90209900D01*
X118493761Y-90305138D01*
X118446142Y-90352757D01*
X118350904Y-90400376D01*
X118065190Y-90400376D01*
X117969952Y-90352757D01*
X117922333Y-90305138D01*
X117874714Y-90209900D01*
X117874714Y-90019423D01*
X117922333Y-89924185D01*
X118541380Y-89447995D02*
X117541380Y-89447995D01*
X118541380Y-89019423D02*
X118017571Y-89019423D01*
X117922333Y-89067042D01*
X117874714Y-89162280D01*
X117874714Y-89305138D01*
X117922333Y-89400376D01*
X117969952Y-89447995D01*
X117874714Y-88686090D02*
X117874714Y-88305138D01*
X117541380Y-88543233D02*
X118398523Y-88543233D01*
X118493761Y-88495614D01*
X118541380Y-88400376D01*
X118541380Y-88305138D01*
X131278857Y-33387600D02*
X131136000Y-33316171D01*
X130921714Y-33316171D01*
X130707428Y-33387600D01*
X130564571Y-33530457D01*
X130493142Y-33673314D01*
X130421714Y-33959028D01*
X130421714Y-34173314D01*
X130493142Y-34459028D01*
X130564571Y-34601885D01*
X130707428Y-34744742D01*
X130921714Y-34816171D01*
X131064571Y-34816171D01*
X131278857Y-34744742D01*
X131350285Y-34673314D01*
X131350285Y-34173314D01*
X131064571Y-34173314D01*
X132636000Y-34816171D02*
X132636000Y-34030457D01*
X132564571Y-33887600D01*
X132421714Y-33816171D01*
X132136000Y-33816171D01*
X131993142Y-33887600D01*
X132636000Y-34744742D02*
X132493142Y-34816171D01*
X132136000Y-34816171D01*
X131993142Y-34744742D01*
X131921714Y-34601885D01*
X131921714Y-34459028D01*
X131993142Y-34316171D01*
X132136000Y-34244742D01*
X132493142Y-34244742D01*
X132636000Y-34173314D01*
X133350285Y-34816171D02*
X133350285Y-33816171D01*
X133350285Y-33316171D02*
X133278857Y-33387600D01*
X133350285Y-33459028D01*
X133421714Y-33387600D01*
X133350285Y-33316171D01*
X133350285Y-33459028D01*
X134064571Y-33816171D02*
X134064571Y-34816171D01*
X134064571Y-33959028D02*
X134136000Y-33887600D01*
X134278857Y-33816171D01*
X134493142Y-33816171D01*
X134636000Y-33887600D01*
X134707428Y-34030457D01*
X134707428Y-34816171D01*
X137350285Y-34816171D02*
X136493142Y-34816171D01*
X136921714Y-34816171D02*
X136921714Y-33316171D01*
X136778857Y-33530457D01*
X136636000Y-33673314D01*
X136493142Y-33744742D01*
X121291380Y-90055138D02*
X121291380Y-90531328D01*
X120291380Y-90531328D01*
X121243761Y-89340852D02*
X121291380Y-89436090D01*
X121291380Y-89626566D01*
X121243761Y-89721804D01*
X121148523Y-89769423D01*
X120767571Y-89769423D01*
X120672333Y-89721804D01*
X120624714Y-89626566D01*
X120624714Y-89436090D01*
X120672333Y-89340852D01*
X120767571Y-89293233D01*
X120862809Y-89293233D01*
X120958047Y-89769423D01*
X120624714Y-89007519D02*
X120624714Y-88626566D01*
X121291380Y-88864661D02*
X120434238Y-88864661D01*
X120339000Y-88817042D01*
X120291380Y-88721804D01*
X120291380Y-88626566D01*
X120624714Y-88436090D02*
X120624714Y-88055138D01*
X120291380Y-88293233D02*
X121148523Y-88293233D01*
X121243761Y-88245614D01*
X121291380Y-88150376D01*
X121291380Y-88055138D01*
X115250000Y-65633214D02*
X115202380Y-65728452D01*
X115202380Y-65871309D01*
X115250000Y-66014166D01*
X115345238Y-66109404D01*
X115440476Y-66157023D01*
X115630952Y-66204642D01*
X115773809Y-66204642D01*
X115964285Y-66157023D01*
X116059523Y-66109404D01*
X116154761Y-66014166D01*
X116202380Y-65871309D01*
X116202380Y-65776071D01*
X116154761Y-65633214D01*
X116107142Y-65585595D01*
X115773809Y-65585595D01*
X115773809Y-65776071D01*
X116202380Y-65157023D02*
X115202380Y-65157023D01*
X116202380Y-64585595D01*
X115202380Y-64585595D01*
X116202380Y-64109404D02*
X115202380Y-64109404D01*
X115202380Y-63871309D01*
X115250000Y-63728452D01*
X115345238Y-63633214D01*
X115440476Y-63585595D01*
X115630952Y-63537976D01*
X115773809Y-63537976D01*
X115964285Y-63585595D01*
X116059523Y-63633214D01*
X116154761Y-63728452D01*
X116202380Y-63871309D01*
X116202380Y-64109404D01*
X129750000Y-109928571D02*
X130035714Y-109928571D01*
X130178571Y-110000000D01*
X130321428Y-110142857D01*
X130392857Y-110428571D01*
X130392857Y-110928571D01*
X130321428Y-111214285D01*
X130178571Y-111357142D01*
X130035714Y-111428571D01*
X129750000Y-111428571D01*
X129607142Y-111357142D01*
X129464285Y-111214285D01*
X129392857Y-110928571D01*
X129392857Y-110428571D01*
X129464285Y-110142857D01*
X129607142Y-110000000D01*
X129750000Y-109928571D01*
X131035714Y-110428571D02*
X131035714Y-111428571D01*
X131035714Y-110571428D02*
X131107142Y-110500000D01*
X131250000Y-110428571D01*
X131464285Y-110428571D01*
X131607142Y-110500000D01*
X131678571Y-110642857D01*
X131678571Y-111428571D01*
X133464285Y-109857142D02*
X132178571Y-111785714D01*
X134250000Y-109928571D02*
X134535714Y-109928571D01*
X134678571Y-110000000D01*
X134821428Y-110142857D01*
X134892857Y-110428571D01*
X134892857Y-110928571D01*
X134821428Y-111214285D01*
X134678571Y-111357142D01*
X134535714Y-111428571D01*
X134250000Y-111428571D01*
X134107142Y-111357142D01*
X133964285Y-111214285D01*
X133892857Y-110928571D01*
X133892857Y-110428571D01*
X133964285Y-110142857D01*
X134107142Y-110000000D01*
X134250000Y-109928571D01*
X135321428Y-110428571D02*
X135892857Y-110428571D01*
X135535714Y-111428571D02*
X135535714Y-110142857D01*
X135607142Y-110000000D01*
X135750000Y-109928571D01*
X135892857Y-109928571D01*
X136178571Y-110428571D02*
X136750000Y-110428571D01*
X136392857Y-111428571D02*
X136392857Y-110142857D01*
X136464285Y-110000000D01*
X136607142Y-109928571D01*
X136750000Y-109928571D01*
X115041380Y-100169661D02*
X116041380Y-99836328D01*
X115041380Y-99502995D01*
X115517571Y-98836328D02*
X115565190Y-98693471D01*
X115612809Y-98645852D01*
X115708047Y-98598233D01*
X115850904Y-98598233D01*
X115946142Y-98645852D01*
X115993761Y-98693471D01*
X116041380Y-98788709D01*
X116041380Y-99169661D01*
X115041380Y-99169661D01*
X115041380Y-98836328D01*
X115089000Y-98741090D01*
X115136619Y-98693471D01*
X115231857Y-98645852D01*
X115327095Y-98645852D01*
X115422333Y-98693471D01*
X115469952Y-98741090D01*
X115517571Y-98836328D01*
X115517571Y-99169661D01*
X116041380Y-97741090D02*
X115517571Y-97741090D01*
X115422333Y-97788709D01*
X115374714Y-97883947D01*
X115374714Y-98074423D01*
X115422333Y-98169661D01*
X115993761Y-97741090D02*
X116041380Y-97836328D01*
X116041380Y-98074423D01*
X115993761Y-98169661D01*
X115898523Y-98217280D01*
X115803285Y-98217280D01*
X115708047Y-98169661D01*
X115660428Y-98074423D01*
X115660428Y-97836328D01*
X115612809Y-97741090D01*
X115374714Y-97407757D02*
X115374714Y-97026804D01*
X115041380Y-97264900D02*
X115898523Y-97264900D01*
X115993761Y-97217280D01*
X116041380Y-97122042D01*
X116041380Y-97026804D01*
X112714285Y-55935357D02*
X112928571Y-56006785D01*
X113000000Y-56078214D01*
X113071428Y-56221071D01*
X113071428Y-56435357D01*
X113000000Y-56578214D01*
X112928571Y-56649642D01*
X112785714Y-56721071D01*
X112214285Y-56721071D01*
X112214285Y-55221071D01*
X112714285Y-55221071D01*
X112857142Y-55292500D01*
X112928571Y-55363928D01*
X113000000Y-55506785D01*
X113000000Y-55649642D01*
X112928571Y-55792500D01*
X112857142Y-55863928D01*
X112714285Y-55935357D01*
X112214285Y-55935357D01*
X113928571Y-56721071D02*
X113785714Y-56649642D01*
X113714285Y-56506785D01*
X113714285Y-55221071D01*
X115142857Y-55721071D02*
X115142857Y-56721071D01*
X114500000Y-55721071D02*
X114500000Y-56506785D01*
X114571428Y-56649642D01*
X114714285Y-56721071D01*
X114928571Y-56721071D01*
X115071428Y-56649642D01*
X115142857Y-56578214D01*
X116428571Y-56649642D02*
X116285714Y-56721071D01*
X116000000Y-56721071D01*
X115857142Y-56649642D01*
X115785714Y-56506785D01*
X115785714Y-55935357D01*
X115857142Y-55792500D01*
X116000000Y-55721071D01*
X116285714Y-55721071D01*
X116428571Y-55792500D01*
X116500000Y-55935357D01*
X116500000Y-56078214D01*
X115785714Y-56221071D01*
X116928571Y-55721071D02*
X117500000Y-55721071D01*
X117142857Y-55221071D02*
X117142857Y-56506785D01*
X117214285Y-56649642D01*
X117357142Y-56721071D01*
X117500000Y-56721071D01*
X118214285Y-56721071D02*
X118071428Y-56649642D01*
X118000000Y-56578214D01*
X117928571Y-56435357D01*
X117928571Y-56006785D01*
X118000000Y-55863928D01*
X118071428Y-55792500D01*
X118214285Y-55721071D01*
X118428571Y-55721071D01*
X118571428Y-55792500D01*
X118642857Y-55863928D01*
X118714285Y-56006785D01*
X118714285Y-56435357D01*
X118642857Y-56578214D01*
X118571428Y-56649642D01*
X118428571Y-56721071D01*
X118214285Y-56721071D01*
X119571428Y-56721071D02*
X119428571Y-56649642D01*
X119357142Y-56578214D01*
X119285714Y-56435357D01*
X119285714Y-56006785D01*
X119357142Y-55863928D01*
X119428571Y-55792500D01*
X119571428Y-55721071D01*
X119785714Y-55721071D01*
X119928571Y-55792500D01*
X120000000Y-55863928D01*
X120071428Y-56006785D01*
X120071428Y-56435357D01*
X120000000Y-56578214D01*
X119928571Y-56649642D01*
X119785714Y-56721071D01*
X119571428Y-56721071D01*
X120500000Y-55721071D02*
X121071428Y-55721071D01*
X120714285Y-55221071D02*
X120714285Y-56506785D01*
X120785714Y-56649642D01*
X120928571Y-56721071D01*
X121071428Y-56721071D01*
X121571428Y-56721071D02*
X121571428Y-55221071D01*
X122214285Y-56721071D02*
X122214285Y-55935357D01*
X122142857Y-55792500D01*
X122000000Y-55721071D01*
X121785714Y-55721071D01*
X121642857Y-55792500D01*
X121571428Y-55863928D01*
X124857142Y-56721071D02*
X124000000Y-56721071D01*
X124428571Y-56721071D02*
X124428571Y-55221071D01*
X124285714Y-55435357D01*
X124142857Y-55578214D01*
X124000000Y-55649642D01*
X141559523Y-66702380D02*
X141083333Y-66702380D01*
X141083333Y-65702380D01*
X142273809Y-66654761D02*
X142178571Y-66702380D01*
X141988095Y-66702380D01*
X141892857Y-66654761D01*
X141845238Y-66559523D01*
X141845238Y-66178571D01*
X141892857Y-66083333D01*
X141988095Y-66035714D01*
X142178571Y-66035714D01*
X142273809Y-66083333D01*
X142321428Y-66178571D01*
X142321428Y-66273809D01*
X141845238Y-66369047D01*
X142607142Y-66035714D02*
X142988095Y-66035714D01*
X142750000Y-66702380D02*
X142750000Y-65845238D01*
X142797619Y-65750000D01*
X142892857Y-65702380D01*
X142988095Y-65702380D01*
X143178571Y-66035714D02*
X143559523Y-66035714D01*
X143321428Y-65702380D02*
X143321428Y-66559523D01*
X143369047Y-66654761D01*
X143464285Y-66702380D01*
X143559523Y-66702380D01*
X159171714Y-78566171D02*
X159171714Y-77066171D01*
X159743142Y-77066171D01*
X159886000Y-77137600D01*
X159957428Y-77209028D01*
X160028857Y-77351885D01*
X160028857Y-77566171D01*
X159957428Y-77709028D01*
X159886000Y-77780457D01*
X159743142Y-77851885D01*
X159171714Y-77851885D01*
X160886000Y-78566171D02*
X160743142Y-78494742D01*
X160671714Y-78423314D01*
X160600285Y-78280457D01*
X160600285Y-77851885D01*
X160671714Y-77709028D01*
X160743142Y-77637600D01*
X160886000Y-77566171D01*
X161100285Y-77566171D01*
X161243142Y-77637600D01*
X161314571Y-77709028D01*
X161386000Y-77851885D01*
X161386000Y-78280457D01*
X161314571Y-78423314D01*
X161243142Y-78494742D01*
X161100285Y-78566171D01*
X160886000Y-78566171D01*
X161886000Y-77566171D02*
X162171714Y-78566171D01*
X162457428Y-77851885D01*
X162743142Y-78566171D01*
X163028857Y-77566171D01*
X164171714Y-78494742D02*
X164028857Y-78566171D01*
X163743142Y-78566171D01*
X163600285Y-78494742D01*
X163528857Y-78351885D01*
X163528857Y-77780457D01*
X163600285Y-77637600D01*
X163743142Y-77566171D01*
X164028857Y-77566171D01*
X164171714Y-77637600D01*
X164243142Y-77780457D01*
X164243142Y-77923314D01*
X163528857Y-78066171D01*
X164886000Y-78566171D02*
X164886000Y-77566171D01*
X164886000Y-77851885D02*
X164957428Y-77709028D01*
X165028857Y-77637600D01*
X165171714Y-77566171D01*
X165314571Y-77566171D01*
X112464285Y-82142857D02*
X112678571Y-82214285D01*
X112750000Y-82285714D01*
X112821428Y-82428571D01*
X112821428Y-82642857D01*
X112750000Y-82785714D01*
X112678571Y-82857142D01*
X112535714Y-82928571D01*
X111964285Y-82928571D01*
X111964285Y-81428571D01*
X112464285Y-81428571D01*
X112607142Y-81500000D01*
X112678571Y-81571428D01*
X112750000Y-81714285D01*
X112750000Y-81857142D01*
X112678571Y-82000000D01*
X112607142Y-82071428D01*
X112464285Y-82142857D01*
X111964285Y-82142857D01*
X113678571Y-82928571D02*
X113535714Y-82857142D01*
X113464285Y-82714285D01*
X113464285Y-81428571D01*
X114892857Y-81928571D02*
X114892857Y-82928571D01*
X114250000Y-81928571D02*
X114250000Y-82714285D01*
X114321428Y-82857142D01*
X114464285Y-82928571D01*
X114678571Y-82928571D01*
X114821428Y-82857142D01*
X114892857Y-82785714D01*
X116178571Y-82857142D02*
X116035714Y-82928571D01*
X115750000Y-82928571D01*
X115607142Y-82857142D01*
X115535714Y-82714285D01*
X115535714Y-82142857D01*
X115607142Y-82000000D01*
X115750000Y-81928571D01*
X116035714Y-81928571D01*
X116178571Y-82000000D01*
X116250000Y-82142857D01*
X116250000Y-82285714D01*
X115535714Y-82428571D01*
X116678571Y-81928571D02*
X117250000Y-81928571D01*
X116892857Y-81428571D02*
X116892857Y-82714285D01*
X116964285Y-82857142D01*
X117107142Y-82928571D01*
X117250000Y-82928571D01*
X117964285Y-82928571D02*
X117821428Y-82857142D01*
X117750000Y-82785714D01*
X117678571Y-82642857D01*
X117678571Y-82214285D01*
X117750000Y-82071428D01*
X117821428Y-82000000D01*
X117964285Y-81928571D01*
X118178571Y-81928571D01*
X118321428Y-82000000D01*
X118392857Y-82071428D01*
X118464285Y-82214285D01*
X118464285Y-82642857D01*
X118392857Y-82785714D01*
X118321428Y-82857142D01*
X118178571Y-82928571D01*
X117964285Y-82928571D01*
X119321428Y-82928571D02*
X119178571Y-82857142D01*
X119107142Y-82785714D01*
X119035714Y-82642857D01*
X119035714Y-82214285D01*
X119107142Y-82071428D01*
X119178571Y-82000000D01*
X119321428Y-81928571D01*
X119535714Y-81928571D01*
X119678571Y-82000000D01*
X119750000Y-82071428D01*
X119821428Y-82214285D01*
X119821428Y-82642857D01*
X119750000Y-82785714D01*
X119678571Y-82857142D01*
X119535714Y-82928571D01*
X119321428Y-82928571D01*
X120250000Y-81928571D02*
X120821428Y-81928571D01*
X120464285Y-81428571D02*
X120464285Y-82714285D01*
X120535714Y-82857142D01*
X120678571Y-82928571D01*
X120821428Y-82928571D01*
X121321428Y-82928571D02*
X121321428Y-81428571D01*
X121964285Y-82928571D02*
X121964285Y-82142857D01*
X121892857Y-82000000D01*
X121750000Y-81928571D01*
X121535714Y-81928571D01*
X121392857Y-82000000D01*
X121321428Y-82071428D01*
X123750000Y-81571428D02*
X123821428Y-81500000D01*
X123964285Y-81428571D01*
X124321428Y-81428571D01*
X124464285Y-81500000D01*
X124535714Y-81571428D01*
X124607142Y-81714285D01*
X124607142Y-81857142D01*
X124535714Y-82071428D01*
X123678571Y-82928571D01*
X124607142Y-82928571D01*
X141559523Y-91952380D02*
X141083333Y-91952380D01*
X141083333Y-90952380D01*
X142273809Y-91904761D02*
X142178571Y-91952380D01*
X141988095Y-91952380D01*
X141892857Y-91904761D01*
X141845238Y-91809523D01*
X141845238Y-91428571D01*
X141892857Y-91333333D01*
X141988095Y-91285714D01*
X142178571Y-91285714D01*
X142273809Y-91333333D01*
X142321428Y-91428571D01*
X142321428Y-91523809D01*
X141845238Y-91619047D01*
X142607142Y-91285714D02*
X142988095Y-91285714D01*
X142750000Y-91952380D02*
X142750000Y-91095238D01*
X142797619Y-91000000D01*
X142892857Y-90952380D01*
X142988095Y-90952380D01*
X143178571Y-91285714D02*
X143559523Y-91285714D01*
X143321428Y-90952380D02*
X143321428Y-91809523D01*
X143369047Y-91904761D01*
X143464285Y-91952380D01*
X143559523Y-91952380D01*
X141630952Y-96952380D02*
X141297619Y-96476190D01*
X141059523Y-96952380D02*
X141059523Y-95952380D01*
X141440476Y-95952380D01*
X141535714Y-96000000D01*
X141583333Y-96047619D01*
X141630952Y-96142857D01*
X141630952Y-96285714D01*
X141583333Y-96380952D01*
X141535714Y-96428571D01*
X141440476Y-96476190D01*
X141059523Y-96476190D01*
X142059523Y-96952380D02*
X142059523Y-96285714D01*
X142059523Y-95952380D02*
X142011904Y-96000000D01*
X142059523Y-96047619D01*
X142107142Y-96000000D01*
X142059523Y-95952380D01*
X142059523Y-96047619D01*
X142964285Y-96285714D02*
X142964285Y-97095238D01*
X142916666Y-97190476D01*
X142869047Y-97238095D01*
X142773809Y-97285714D01*
X142630952Y-97285714D01*
X142535714Y-97238095D01*
X142964285Y-96904761D02*
X142869047Y-96952380D01*
X142678571Y-96952380D01*
X142583333Y-96904761D01*
X142535714Y-96857142D01*
X142488095Y-96761904D01*
X142488095Y-96476190D01*
X142535714Y-96380952D01*
X142583333Y-96333333D01*
X142678571Y-96285714D01*
X142869047Y-96285714D01*
X142964285Y-96333333D01*
X143440476Y-96952380D02*
X143440476Y-95952380D01*
X143869047Y-96952380D02*
X143869047Y-96428571D01*
X143821428Y-96333333D01*
X143726190Y-96285714D01*
X143583333Y-96285714D01*
X143488095Y-96333333D01*
X143440476Y-96380952D01*
X144202380Y-96285714D02*
X144583333Y-96285714D01*
X144345238Y-95952380D02*
X144345238Y-96809523D01*
X144392857Y-96904761D01*
X144488095Y-96952380D01*
X144583333Y-96952380D01*
X158407023Y-102802142D02*
X158359404Y-102849761D01*
X158216547Y-102897380D01*
X158121309Y-102897380D01*
X157978452Y-102849761D01*
X157883214Y-102754523D01*
X157835595Y-102659285D01*
X157787976Y-102468809D01*
X157787976Y-102325952D01*
X157835595Y-102135476D01*
X157883214Y-102040238D01*
X157978452Y-101945000D01*
X158121309Y-101897380D01*
X158216547Y-101897380D01*
X158359404Y-101945000D01*
X158407023Y-101992619D01*
X158835595Y-102897380D02*
X158835595Y-102230714D01*
X158835595Y-101897380D02*
X158787976Y-101945000D01*
X158835595Y-101992619D01*
X158883214Y-101945000D01*
X158835595Y-101897380D01*
X158835595Y-101992619D01*
X159311785Y-102897380D02*
X159311785Y-102230714D01*
X159311785Y-102421190D02*
X159359404Y-102325952D01*
X159407023Y-102278333D01*
X159502261Y-102230714D01*
X159597500Y-102230714D01*
X160359404Y-102849761D02*
X160264166Y-102897380D01*
X160073690Y-102897380D01*
X159978452Y-102849761D01*
X159930833Y-102802142D01*
X159883214Y-102706904D01*
X159883214Y-102421190D01*
X159930833Y-102325952D01*
X159978452Y-102278333D01*
X160073690Y-102230714D01*
X160264166Y-102230714D01*
X160359404Y-102278333D01*
X161216547Y-102230714D02*
X161216547Y-102897380D01*
X160787976Y-102230714D02*
X160787976Y-102754523D01*
X160835595Y-102849761D01*
X160930833Y-102897380D01*
X161073690Y-102897380D01*
X161168928Y-102849761D01*
X161216547Y-102802142D01*
X161692738Y-102897380D02*
X161692738Y-102230714D01*
X161692738Y-101897380D02*
X161645119Y-101945000D01*
X161692738Y-101992619D01*
X161740357Y-101945000D01*
X161692738Y-101897380D01*
X161692738Y-101992619D01*
X162026071Y-102230714D02*
X162407023Y-102230714D01*
X162168928Y-101897380D02*
X162168928Y-102754523D01*
X162216547Y-102849761D01*
X162311785Y-102897380D01*
X162407023Y-102897380D01*
X162692738Y-102849761D02*
X162787976Y-102897380D01*
X162978452Y-102897380D01*
X163073690Y-102849761D01*
X163121309Y-102754523D01*
X163121309Y-102706904D01*
X163073690Y-102611666D01*
X162978452Y-102564047D01*
X162835595Y-102564047D01*
X162740357Y-102516428D01*
X162692738Y-102421190D01*
X162692738Y-102373571D01*
X162740357Y-102278333D01*
X162835595Y-102230714D01*
X162978452Y-102230714D01*
X163073690Y-102278333D01*
X164835595Y-102897380D02*
X164264166Y-102897380D01*
X164549880Y-102897380D02*
X164549880Y-101897380D01*
X164454642Y-102040238D01*
X164359404Y-102135476D01*
X164264166Y-102183095D01*
X157835595Y-104507380D02*
X157835595Y-103507380D01*
X158168928Y-104221666D01*
X158502261Y-103507380D01*
X158502261Y-104507380D01*
X159407023Y-104507380D02*
X159407023Y-103983571D01*
X159359404Y-103888333D01*
X159264166Y-103840714D01*
X159073690Y-103840714D01*
X158978452Y-103888333D01*
X159407023Y-104459761D02*
X159311785Y-104507380D01*
X159073690Y-104507380D01*
X158978452Y-104459761D01*
X158930833Y-104364523D01*
X158930833Y-104269285D01*
X158978452Y-104174047D01*
X159073690Y-104126428D01*
X159311785Y-104126428D01*
X159407023Y-104078809D01*
X159883214Y-104507380D02*
X159883214Y-103840714D01*
X159883214Y-104031190D02*
X159930833Y-103935952D01*
X159978452Y-103888333D01*
X160073690Y-103840714D01*
X160168928Y-103840714D01*
X160930833Y-104459761D02*
X160835595Y-104507380D01*
X160645119Y-104507380D01*
X160549880Y-104459761D01*
X160502261Y-104412142D01*
X160454642Y-104316904D01*
X160454642Y-104031190D01*
X160502261Y-103935952D01*
X160549880Y-103888333D01*
X160645119Y-103840714D01*
X160835595Y-103840714D01*
X160930833Y-103888333D01*
X161359404Y-104507380D02*
X161359404Y-103507380D01*
X161787976Y-104507380D02*
X161787976Y-103983571D01*
X161740357Y-103888333D01*
X161645119Y-103840714D01*
X161502261Y-103840714D01*
X161407023Y-103888333D01*
X161359404Y-103935952D01*
X162978452Y-103602619D02*
X163026071Y-103555000D01*
X163121309Y-103507380D01*
X163359404Y-103507380D01*
X163454642Y-103555000D01*
X163502261Y-103602619D01*
X163549880Y-103697857D01*
X163549880Y-103793095D01*
X163502261Y-103935952D01*
X162930833Y-104507380D01*
X163549880Y-104507380D01*
X164168928Y-103507380D02*
X164264166Y-103507380D01*
X164359404Y-103555000D01*
X164407023Y-103602619D01*
X164454642Y-103697857D01*
X164502261Y-103888333D01*
X164502261Y-104126428D01*
X164454642Y-104316904D01*
X164407023Y-104412142D01*
X164359404Y-104459761D01*
X164264166Y-104507380D01*
X164168928Y-104507380D01*
X164073690Y-104459761D01*
X164026071Y-104412142D01*
X163978452Y-104316904D01*
X163930833Y-104126428D01*
X163930833Y-103888333D01*
X163978452Y-103697857D01*
X164026071Y-103602619D01*
X164073690Y-103555000D01*
X164168928Y-103507380D01*
X164883214Y-103602619D02*
X164930833Y-103555000D01*
X165026071Y-103507380D01*
X165264166Y-103507380D01*
X165359404Y-103555000D01*
X165407023Y-103602619D01*
X165454642Y-103697857D01*
X165454642Y-103793095D01*
X165407023Y-103935952D01*
X164835595Y-104507380D01*
X165454642Y-104507380D01*
X165835595Y-103602619D02*
X165883214Y-103555000D01*
X165978452Y-103507380D01*
X166216547Y-103507380D01*
X166311785Y-103555000D01*
X166359404Y-103602619D01*
X166407023Y-103697857D01*
X166407023Y-103793095D01*
X166359404Y-103935952D01*
X165787976Y-104507380D01*
X166407023Y-104507380D01*
X129321428Y-103428571D02*
X129321428Y-101928571D01*
X129821428Y-103000000D01*
X130321428Y-101928571D01*
X130321428Y-103428571D01*
X131035714Y-103428571D02*
X131035714Y-102428571D01*
X131035714Y-101928571D02*
X130964285Y-102000000D01*
X131035714Y-102071428D01*
X131107142Y-102000000D01*
X131035714Y-101928571D01*
X131035714Y-102071428D01*
X131607142Y-103428571D02*
X132392857Y-102428571D01*
X131607142Y-102428571D02*
X132392857Y-103428571D01*
X134821428Y-103428571D02*
X134107142Y-103428571D01*
X134107142Y-101928571D01*
X136392857Y-101857142D02*
X135107142Y-103785714D01*
X137750000Y-103428571D02*
X137250000Y-102714285D01*
X136892857Y-103428571D02*
X136892857Y-101928571D01*
X137464285Y-101928571D01*
X137607142Y-102000000D01*
X137678571Y-102071428D01*
X137750000Y-102214285D01*
X137750000Y-102428571D01*
X137678571Y-102571428D01*
X137607142Y-102642857D01*
X137464285Y-102714285D01*
X136892857Y-102714285D01*
X118410428Y-100026804D02*
X118410428Y-99264900D01*
X118791380Y-99645852D02*
X118029476Y-99645852D01*
X117791380Y-98312519D02*
X117791380Y-98788709D01*
X118267571Y-98836328D01*
X118219952Y-98788709D01*
X118172333Y-98693471D01*
X118172333Y-98455376D01*
X118219952Y-98360138D01*
X118267571Y-98312519D01*
X118362809Y-98264900D01*
X118600904Y-98264900D01*
X118696142Y-98312519D01*
X118743761Y-98360138D01*
X118791380Y-98455376D01*
X118791380Y-98693471D01*
X118743761Y-98788709D01*
X118696142Y-98836328D01*
X117791380Y-97979185D02*
X118791380Y-97645852D01*
X117791380Y-97312519D01*
X156707428Y-85649504D02*
X156707428Y-84887600D01*
X157088380Y-85268552D02*
X156326476Y-85268552D01*
X157088380Y-83887600D02*
X157088380Y-84459028D01*
X157088380Y-84173314D02*
X156088380Y-84173314D01*
X156231238Y-84268552D01*
X156326476Y-84363790D01*
X156374095Y-84459028D01*
X156088380Y-82982838D02*
X156088380Y-83459028D01*
X156564571Y-83506647D01*
X156516952Y-83459028D01*
X156469333Y-83363790D01*
X156469333Y-83125695D01*
X156516952Y-83030457D01*
X156564571Y-82982838D01*
X156659809Y-82935219D01*
X156897904Y-82935219D01*
X156993142Y-82982838D01*
X157040761Y-83030457D01*
X157088380Y-83125695D01*
X157088380Y-83363790D01*
X157040761Y-83459028D01*
X156993142Y-83506647D01*
X156088380Y-82649504D02*
X157088380Y-82316171D01*
X156088380Y-81982838D01*
X166243142Y-38566171D02*
X166743142Y-40066171D01*
X167243142Y-38566171D01*
X167957428Y-40066171D02*
X167814571Y-39994742D01*
X167743142Y-39923314D01*
X167671714Y-39780457D01*
X167671714Y-39351885D01*
X167743142Y-39209028D01*
X167814571Y-39137600D01*
X167957428Y-39066171D01*
X168171714Y-39066171D01*
X168314571Y-39137600D01*
X168386000Y-39209028D01*
X168457428Y-39351885D01*
X168457428Y-39780457D01*
X168386000Y-39923314D01*
X168314571Y-39994742D01*
X168171714Y-40066171D01*
X167957428Y-40066171D01*
X169314571Y-40066171D02*
X169171714Y-39994742D01*
X169100285Y-39851885D01*
X169100285Y-38566171D01*
X170528857Y-39066171D02*
X170528857Y-40066171D01*
X169886000Y-39066171D02*
X169886000Y-39851885D01*
X169957428Y-39994742D01*
X170100285Y-40066171D01*
X170314571Y-40066171D01*
X170457428Y-39994742D01*
X170528857Y-39923314D01*
X171243142Y-40066171D02*
X171243142Y-39066171D01*
X171243142Y-39209028D02*
X171314571Y-39137600D01*
X171457428Y-39066171D01*
X171671714Y-39066171D01*
X171814571Y-39137600D01*
X171886000Y-39280457D01*
X171886000Y-40066171D01*
X171886000Y-39280457D02*
X171957428Y-39137600D01*
X172100285Y-39066171D01*
X172314571Y-39066171D01*
X172457428Y-39137600D01*
X172528857Y-39280457D01*
X172528857Y-40066171D01*
X173814571Y-39994742D02*
X173671714Y-40066171D01*
X173386000Y-40066171D01*
X173243142Y-39994742D01*
X173171714Y-39851885D01*
X173171714Y-39280457D01*
X173243142Y-39137600D01*
X173386000Y-39066171D01*
X173671714Y-39066171D01*
X173814571Y-39137600D01*
X173886000Y-39280457D01*
X173886000Y-39423314D01*
X173171714Y-39566171D01*
X139557261Y-52178571D02*
X139700119Y-52226190D01*
X139747738Y-52273809D01*
X139795357Y-52369047D01*
X139795357Y-52511904D01*
X139747738Y-52607142D01*
X139700119Y-52654761D01*
X139604880Y-52702380D01*
X139223928Y-52702380D01*
X139223928Y-51702380D01*
X139557261Y-51702380D01*
X139652500Y-51750000D01*
X139700119Y-51797619D01*
X139747738Y-51892857D01*
X139747738Y-51988095D01*
X139700119Y-52083333D01*
X139652500Y-52130952D01*
X139557261Y-52178571D01*
X139223928Y-52178571D01*
X140700119Y-52702380D02*
X140223928Y-52702380D01*
X140223928Y-51702380D01*
X141033452Y-52178571D02*
X141366785Y-52178571D01*
X141509642Y-52702380D02*
X141033452Y-52702380D01*
X141033452Y-51702380D01*
X141509642Y-51702380D01*
X141890595Y-51797619D02*
X141938214Y-51750000D01*
X142033452Y-51702380D01*
X142271547Y-51702380D01*
X142366785Y-51750000D01*
X142414404Y-51797619D01*
X142462023Y-51892857D01*
X142462023Y-51988095D01*
X142414404Y-52130952D01*
X141842976Y-52702380D01*
X142462023Y-52702380D01*
X200314571Y-55930100D02*
X201028857Y-55930100D01*
X200171714Y-56358671D02*
X200671714Y-54858671D01*
X201171714Y-56358671D01*
X202314571Y-55358671D02*
X202314571Y-56358671D01*
X201671714Y-55358671D02*
X201671714Y-56144385D01*
X201743142Y-56287242D01*
X201886000Y-56358671D01*
X202100285Y-56358671D01*
X202243142Y-56287242D01*
X202314571Y-56215814D01*
X203671714Y-56358671D02*
X203671714Y-54858671D01*
X203671714Y-56287242D02*
X203528857Y-56358671D01*
X203243142Y-56358671D01*
X203100285Y-56287242D01*
X203028857Y-56215814D01*
X202957428Y-56072957D01*
X202957428Y-55644385D01*
X203028857Y-55501528D01*
X203100285Y-55430100D01*
X203243142Y-55358671D01*
X203528857Y-55358671D01*
X203671714Y-55430100D01*
X204386000Y-56358671D02*
X204386000Y-55358671D01*
X204386000Y-54858671D02*
X204314571Y-54930100D01*
X204386000Y-55001528D01*
X204457428Y-54930100D01*
X204386000Y-54858671D01*
X204386000Y-55001528D01*
X205314571Y-56358671D02*
X205171714Y-56287242D01*
X205100285Y-56215814D01*
X205028857Y-56072957D01*
X205028857Y-55644385D01*
X205100285Y-55501528D01*
X205171714Y-55430100D01*
X205314571Y-55358671D01*
X205528857Y-55358671D01*
X205671714Y-55430100D01*
X205743142Y-55501528D01*
X205814571Y-55644385D01*
X205814571Y-56072957D01*
X205743142Y-56215814D01*
X205671714Y-56287242D01*
X205528857Y-56358671D01*
X205314571Y-56358671D01*
X200600285Y-57273671D02*
X200886000Y-57273671D01*
X201028857Y-57345100D01*
X201171714Y-57487957D01*
X201243142Y-57773671D01*
X201243142Y-58273671D01*
X201171714Y-58559385D01*
X201028857Y-58702242D01*
X200886000Y-58773671D01*
X200600285Y-58773671D01*
X200457428Y-58702242D01*
X200314571Y-58559385D01*
X200243142Y-58273671D01*
X200243142Y-57773671D01*
X200314571Y-57487957D01*
X200457428Y-57345100D01*
X200600285Y-57273671D01*
X202528857Y-57773671D02*
X202528857Y-58773671D01*
X201886000Y-57773671D02*
X201886000Y-58559385D01*
X201957428Y-58702242D01*
X202100285Y-58773671D01*
X202314571Y-58773671D01*
X202457428Y-58702242D01*
X202528857Y-58630814D01*
X203028857Y-57773671D02*
X203600285Y-57773671D01*
X203243142Y-57273671D02*
X203243142Y-58559385D01*
X203314571Y-58702242D01*
X203457428Y-58773671D01*
X203600285Y-58773671D01*
X204100285Y-57773671D02*
X204100285Y-59273671D01*
X204100285Y-57845100D02*
X204243142Y-57773671D01*
X204528857Y-57773671D01*
X204671714Y-57845100D01*
X204743142Y-57916528D01*
X204814571Y-58059385D01*
X204814571Y-58487957D01*
X204743142Y-58630814D01*
X204671714Y-58702242D01*
X204528857Y-58773671D01*
X204243142Y-58773671D01*
X204100285Y-58702242D01*
X206100285Y-57773671D02*
X206100285Y-58773671D01*
X205457428Y-57773671D02*
X205457428Y-58559385D01*
X205528857Y-58702242D01*
X205671714Y-58773671D01*
X205886000Y-58773671D01*
X206028857Y-58702242D01*
X206100285Y-58630814D01*
X206600285Y-57773671D02*
X207171714Y-57773671D01*
X206814571Y-57273671D02*
X206814571Y-58559385D01*
X206886000Y-58702242D01*
X207028857Y-58773671D01*
X207171714Y-58773671D01*
X151707428Y-84673314D02*
X151707428Y-83911409D01*
X152088380Y-84292361D02*
X151326476Y-84292361D01*
X151088380Y-82959028D02*
X151088380Y-83435219D01*
X151564571Y-83482838D01*
X151516952Y-83435219D01*
X151469333Y-83339980D01*
X151469333Y-83101885D01*
X151516952Y-83006647D01*
X151564571Y-82959028D01*
X151659809Y-82911409D01*
X151897904Y-82911409D01*
X151993142Y-82959028D01*
X152040761Y-83006647D01*
X152088380Y-83101885D01*
X152088380Y-83339980D01*
X152040761Y-83435219D01*
X151993142Y-83482838D01*
X151088380Y-82625695D02*
X152088380Y-82292361D01*
X151088380Y-81959028D01*
X120589000Y-99502995D02*
X120541380Y-99598233D01*
X120541380Y-99741090D01*
X120589000Y-99883947D01*
X120684238Y-99979185D01*
X120779476Y-100026804D01*
X120969952Y-100074423D01*
X121112809Y-100074423D01*
X121303285Y-100026804D01*
X121398523Y-99979185D01*
X121493761Y-99883947D01*
X121541380Y-99741090D01*
X121541380Y-99645852D01*
X121493761Y-99502995D01*
X121446142Y-99455376D01*
X121112809Y-99455376D01*
X121112809Y-99645852D01*
X121541380Y-99026804D02*
X120541380Y-99026804D01*
X121541380Y-98455376D01*
X120541380Y-98455376D01*
X121541380Y-97979185D02*
X120541380Y-97979185D01*
X120541380Y-97741090D01*
X120589000Y-97598233D01*
X120684238Y-97502995D01*
X120779476Y-97455376D01*
X120969952Y-97407757D01*
X121112809Y-97407757D01*
X121303285Y-97455376D01*
X121398523Y-97502995D01*
X121493761Y-97598233D01*
X121541380Y-97741090D01*
X121541380Y-97979185D01*
X115089000Y-90495614D02*
X115041380Y-90590852D01*
X115041380Y-90733709D01*
X115089000Y-90876566D01*
X115184238Y-90971804D01*
X115279476Y-91019423D01*
X115469952Y-91067042D01*
X115612809Y-91067042D01*
X115803285Y-91019423D01*
X115898523Y-90971804D01*
X115993761Y-90876566D01*
X116041380Y-90733709D01*
X116041380Y-90638471D01*
X115993761Y-90495614D01*
X115946142Y-90447995D01*
X115612809Y-90447995D01*
X115612809Y-90638471D01*
X116041380Y-90019423D02*
X115041380Y-90019423D01*
X116041380Y-89447995D01*
X115041380Y-89447995D01*
X116041380Y-88971804D02*
X115041380Y-88971804D01*
X115041380Y-88733709D01*
X115089000Y-88590852D01*
X115184238Y-88495614D01*
X115279476Y-88447995D01*
X115469952Y-88400376D01*
X115612809Y-88400376D01*
X115803285Y-88447995D01*
X115898523Y-88495614D01*
X115993761Y-88590852D01*
X116041380Y-88733709D01*
X116041380Y-88971804D01*
X120500000Y-74390595D02*
X120452380Y-74485833D01*
X120452380Y-74628690D01*
X120500000Y-74771547D01*
X120595238Y-74866785D01*
X120690476Y-74914404D01*
X120880952Y-74962023D01*
X121023809Y-74962023D01*
X121214285Y-74914404D01*
X121309523Y-74866785D01*
X121404761Y-74771547D01*
X121452380Y-74628690D01*
X121452380Y-74533452D01*
X121404761Y-74390595D01*
X121357142Y-74342976D01*
X121023809Y-74342976D01*
X121023809Y-74533452D01*
X121452380Y-73914404D02*
X120452380Y-73914404D01*
X121452380Y-73342976D01*
X120452380Y-73342976D01*
X121452380Y-72866785D02*
X120452380Y-72866785D01*
X120452380Y-72628690D01*
X120500000Y-72485833D01*
X120595238Y-72390595D01*
X120690476Y-72342976D01*
X120880952Y-72295357D01*
X121023809Y-72295357D01*
X121214285Y-72342976D01*
X121309523Y-72390595D01*
X121404761Y-72485833D01*
X121452380Y-72628690D01*
X121452380Y-72866785D01*
X135443261Y-52066171D02*
X135586119Y-52113790D01*
X135633738Y-52161409D01*
X135681357Y-52256647D01*
X135681357Y-52399504D01*
X135633738Y-52494742D01*
X135586119Y-52542361D01*
X135490880Y-52589980D01*
X135109928Y-52589980D01*
X135109928Y-51589980D01*
X135443261Y-51589980D01*
X135538500Y-51637600D01*
X135586119Y-51685219D01*
X135633738Y-51780457D01*
X135633738Y-51875695D01*
X135586119Y-51970933D01*
X135538500Y-52018552D01*
X135443261Y-52066171D01*
X135109928Y-52066171D01*
X136586119Y-52589980D02*
X136109928Y-52589980D01*
X136109928Y-51589980D01*
X136919452Y-52066171D02*
X137252785Y-52066171D01*
X137395642Y-52589980D02*
X136919452Y-52589980D01*
X136919452Y-51589980D01*
X137395642Y-51589980D01*
X138348023Y-52589980D02*
X137776595Y-52589980D01*
X138062309Y-52589980D02*
X138062309Y-51589980D01*
X137967071Y-51732838D01*
X137871833Y-51828076D01*
X137776595Y-51875695D01*
X129321428Y-78428571D02*
X129321428Y-76928571D01*
X129821428Y-78000000D01*
X130321428Y-76928571D01*
X130321428Y-78428571D01*
X131035714Y-78428571D02*
X131035714Y-77428571D01*
X131035714Y-76928571D02*
X130964285Y-77000000D01*
X131035714Y-77071428D01*
X131107142Y-77000000D01*
X131035714Y-76928571D01*
X131035714Y-77071428D01*
X131607142Y-78428571D02*
X132392857Y-77428571D01*
X131607142Y-77428571D02*
X132392857Y-78428571D01*
X134821428Y-78428571D02*
X134107142Y-78428571D01*
X134107142Y-76928571D01*
X136392857Y-76857142D02*
X135107142Y-78785714D01*
X137750000Y-78428571D02*
X137250000Y-77714285D01*
X136892857Y-78428571D02*
X136892857Y-76928571D01*
X137464285Y-76928571D01*
X137607142Y-77000000D01*
X137678571Y-77071428D01*
X137750000Y-77214285D01*
X137750000Y-77428571D01*
X137678571Y-77571428D01*
X137607142Y-77642857D01*
X137464285Y-77714285D01*
X136892857Y-77714285D01*
X121452380Y-65192738D02*
X121452380Y-65668928D01*
X120452380Y-65668928D01*
X121404761Y-64478452D02*
X121452380Y-64573690D01*
X121452380Y-64764166D01*
X121404761Y-64859404D01*
X121309523Y-64907023D01*
X120928571Y-64907023D01*
X120833333Y-64859404D01*
X120785714Y-64764166D01*
X120785714Y-64573690D01*
X120833333Y-64478452D01*
X120928571Y-64430833D01*
X121023809Y-64430833D01*
X121119047Y-64907023D01*
X120785714Y-64145119D02*
X120785714Y-63764166D01*
X121452380Y-64002261D02*
X120595238Y-64002261D01*
X120500000Y-63954642D01*
X120452380Y-63859404D01*
X120452380Y-63764166D01*
X120785714Y-63573690D02*
X120785714Y-63192738D01*
X120452380Y-63430833D02*
X121309523Y-63430833D01*
X121404761Y-63383214D01*
X121452380Y-63287976D01*
X121452380Y-63192738D01*
%TO.C,C1*%
X170297334Y-59836942D02*
X170249715Y-59884561D01*
X170106858Y-59932180D01*
X170011620Y-59932180D01*
X169868762Y-59884561D01*
X169773524Y-59789323D01*
X169725905Y-59694085D01*
X169678286Y-59503609D01*
X169678286Y-59360752D01*
X169725905Y-59170276D01*
X169773524Y-59075038D01*
X169868762Y-58979800D01*
X170011620Y-58932180D01*
X170106858Y-58932180D01*
X170249715Y-58979800D01*
X170297334Y-59027419D01*
X171249715Y-59932180D02*
X170678286Y-59932180D01*
X170964001Y-59932180D02*
X170964001Y-58932180D01*
X170868762Y-59075038D01*
X170773524Y-59170276D01*
X170678286Y-59217895D01*
%TO.C,J7*%
X207527666Y-74589980D02*
X207527666Y-75304266D01*
X207480047Y-75447123D01*
X207384809Y-75542361D01*
X207241952Y-75589980D01*
X207146714Y-75589980D01*
X207908619Y-74589980D02*
X208575285Y-74589980D01*
X208146714Y-75589980D01*
%TO.C,C3*%
X195546734Y-64294742D02*
X195499115Y-64342361D01*
X195356258Y-64389980D01*
X195261020Y-64389980D01*
X195118162Y-64342361D01*
X195022924Y-64247123D01*
X194975305Y-64151885D01*
X194927686Y-63961409D01*
X194927686Y-63818552D01*
X194975305Y-63628076D01*
X195022924Y-63532838D01*
X195118162Y-63437600D01*
X195261020Y-63389980D01*
X195356258Y-63389980D01*
X195499115Y-63437600D01*
X195546734Y-63485219D01*
X195880067Y-63389980D02*
X196499115Y-63389980D01*
X196165781Y-63770933D01*
X196308639Y-63770933D01*
X196403877Y-63818552D01*
X196451496Y-63866171D01*
X196499115Y-63961409D01*
X196499115Y-64199504D01*
X196451496Y-64294742D01*
X196403877Y-64342361D01*
X196308639Y-64389980D01*
X196022924Y-64389980D01*
X195927686Y-64342361D01*
X195880067Y-64294742D01*
%TO.C,R3*%
X155685780Y-59205066D02*
X155209590Y-59538400D01*
X155685780Y-59776495D02*
X154685780Y-59776495D01*
X154685780Y-59395542D01*
X154733400Y-59300304D01*
X154781019Y-59252685D01*
X154876257Y-59205066D01*
X155019114Y-59205066D01*
X155114352Y-59252685D01*
X155161971Y-59300304D01*
X155209590Y-59395542D01*
X155209590Y-59776495D01*
X154685780Y-58871733D02*
X154685780Y-58252685D01*
X155066733Y-58586019D01*
X155066733Y-58443161D01*
X155114352Y-58347923D01*
X155161971Y-58300304D01*
X155257209Y-58252685D01*
X155495304Y-58252685D01*
X155590542Y-58300304D01*
X155638161Y-58347923D01*
X155685780Y-58443161D01*
X155685780Y-58728876D01*
X155638161Y-58824114D01*
X155590542Y-58871733D01*
%TO.C,R5*%
X180838780Y-63591266D02*
X180362590Y-63924600D01*
X180838780Y-64162695D02*
X179838780Y-64162695D01*
X179838780Y-63781742D01*
X179886400Y-63686504D01*
X179934019Y-63638885D01*
X180029257Y-63591266D01*
X180172114Y-63591266D01*
X180267352Y-63638885D01*
X180314971Y-63686504D01*
X180362590Y-63781742D01*
X180362590Y-64162695D01*
X179838780Y-62686504D02*
X179838780Y-63162695D01*
X180314971Y-63210314D01*
X180267352Y-63162695D01*
X180219733Y-63067457D01*
X180219733Y-62829361D01*
X180267352Y-62734123D01*
X180314971Y-62686504D01*
X180410209Y-62638885D01*
X180648304Y-62638885D01*
X180743542Y-62686504D01*
X180791161Y-62734123D01*
X180838780Y-62829361D01*
X180838780Y-63067457D01*
X180791161Y-63162695D01*
X180743542Y-63210314D01*
%TO.C,J6*%
X146802666Y-76089980D02*
X146802666Y-76804266D01*
X146755047Y-76947123D01*
X146659809Y-77042361D01*
X146516952Y-77089980D01*
X146421714Y-77089980D01*
X147707428Y-76089980D02*
X147516952Y-76089980D01*
X147421714Y-76137600D01*
X147374095Y-76185219D01*
X147278857Y-76328076D01*
X147231238Y-76518552D01*
X147231238Y-76899504D01*
X147278857Y-76994742D01*
X147326476Y-77042361D01*
X147421714Y-77089980D01*
X147612190Y-77089980D01*
X147707428Y-77042361D01*
X147755047Y-76994742D01*
X147802666Y-76899504D01*
X147802666Y-76661409D01*
X147755047Y-76566171D01*
X147707428Y-76518552D01*
X147612190Y-76470933D01*
X147421714Y-76470933D01*
X147326476Y-76518552D01*
X147278857Y-76566171D01*
X147231238Y-76661409D01*
%TO.C,C4*%
X187219333Y-77244742D02*
X187171714Y-77292361D01*
X187028857Y-77339980D01*
X186933619Y-77339980D01*
X186790761Y-77292361D01*
X186695523Y-77197123D01*
X186647904Y-77101885D01*
X186600285Y-76911409D01*
X186600285Y-76768552D01*
X186647904Y-76578076D01*
X186695523Y-76482838D01*
X186790761Y-76387600D01*
X186933619Y-76339980D01*
X187028857Y-76339980D01*
X187171714Y-76387600D01*
X187219333Y-76435219D01*
X188076476Y-76673314D02*
X188076476Y-77339980D01*
X187838380Y-76292361D02*
X187600285Y-77006647D01*
X188219333Y-77006647D01*
%TO.C,J11*%
X127690476Y-105702380D02*
X127690476Y-106416666D01*
X127642857Y-106559523D01*
X127547619Y-106654761D01*
X127404761Y-106702380D01*
X127309523Y-106702380D01*
X128690476Y-106702380D02*
X128119047Y-106702380D01*
X128404761Y-106702380D02*
X128404761Y-105702380D01*
X128309523Y-105845238D01*
X128214285Y-105940476D01*
X128119047Y-105988095D01*
X129642857Y-106702380D02*
X129071428Y-106702380D01*
X129357142Y-106702380D02*
X129357142Y-105702380D01*
X129261904Y-105845238D01*
X129166666Y-105940476D01*
X129071428Y-105988095D01*
%TO.C,U2*%
X187145495Y-66466380D02*
X187145495Y-67275904D01*
X187193114Y-67371142D01*
X187240733Y-67418761D01*
X187335971Y-67466380D01*
X187526447Y-67466380D01*
X187621685Y-67418761D01*
X187669304Y-67371142D01*
X187716923Y-67275904D01*
X187716923Y-66466380D01*
X188145495Y-66561619D02*
X188193114Y-66514000D01*
X188288352Y-66466380D01*
X188526447Y-66466380D01*
X188621685Y-66514000D01*
X188669304Y-66561619D01*
X188716923Y-66656857D01*
X188716923Y-66752095D01*
X188669304Y-66894952D01*
X188097876Y-67466380D01*
X188716923Y-67466380D01*
%TO.C,C2*%
X154569933Y-73036942D02*
X154522314Y-73084561D01*
X154379457Y-73132180D01*
X154284219Y-73132180D01*
X154141361Y-73084561D01*
X154046123Y-72989323D01*
X153998504Y-72894085D01*
X153950885Y-72703609D01*
X153950885Y-72560752D01*
X153998504Y-72370276D01*
X154046123Y-72275038D01*
X154141361Y-72179800D01*
X154284219Y-72132180D01*
X154379457Y-72132180D01*
X154522314Y-72179800D01*
X154569933Y-72227419D01*
X154950885Y-72227419D02*
X154998504Y-72179800D01*
X155093742Y-72132180D01*
X155331838Y-72132180D01*
X155427076Y-72179800D01*
X155474695Y-72227419D01*
X155522314Y-72322657D01*
X155522314Y-72417895D01*
X155474695Y-72560752D01*
X154903266Y-73132180D01*
X155522314Y-73132180D01*
%TO.C,J1*%
X112457380Y-78033333D02*
X113171666Y-78033333D01*
X113314523Y-78080952D01*
X113409761Y-78176190D01*
X113457380Y-78319047D01*
X113457380Y-78414285D01*
X113457380Y-77033333D02*
X113457380Y-77604761D01*
X113457380Y-77319047D02*
X112457380Y-77319047D01*
X112600238Y-77414285D01*
X112695476Y-77509523D01*
X112743095Y-77604761D01*
%TO.C,J5*%
X143302666Y-55589980D02*
X143302666Y-56304266D01*
X143255047Y-56447123D01*
X143159809Y-56542361D01*
X143016952Y-56589980D01*
X142921714Y-56589980D01*
X144255047Y-55589980D02*
X143778857Y-55589980D01*
X143731238Y-56066171D01*
X143778857Y-56018552D01*
X143874095Y-55970933D01*
X144112190Y-55970933D01*
X144207428Y-56018552D01*
X144255047Y-56066171D01*
X144302666Y-56161409D01*
X144302666Y-56399504D01*
X144255047Y-56494742D01*
X144207428Y-56542361D01*
X144112190Y-56589980D01*
X143874095Y-56589980D01*
X143778857Y-56542361D01*
X143731238Y-56494742D01*
%TO.C,R1*%
X152218780Y-59496266D02*
X151742590Y-59829600D01*
X152218780Y-60067695D02*
X151218780Y-60067695D01*
X151218780Y-59686742D01*
X151266400Y-59591504D01*
X151314019Y-59543885D01*
X151409257Y-59496266D01*
X151552114Y-59496266D01*
X151647352Y-59543885D01*
X151694971Y-59591504D01*
X151742590Y-59686742D01*
X151742590Y-60067695D01*
X152218780Y-58543885D02*
X152218780Y-59115314D01*
X152218780Y-58829600D02*
X151218780Y-58829600D01*
X151361638Y-58924838D01*
X151456876Y-59020076D01*
X151504495Y-59115314D01*
%TO.C,J4*%
X133302666Y-55589980D02*
X133302666Y-56304266D01*
X133255047Y-56447123D01*
X133159809Y-56542361D01*
X133016952Y-56589980D01*
X132921714Y-56589980D01*
X134207428Y-55923314D02*
X134207428Y-56589980D01*
X133969333Y-55542361D02*
X133731238Y-56256647D01*
X134350285Y-56256647D01*
%TO.C,R4*%
X177564980Y-63984466D02*
X177088790Y-64317800D01*
X177564980Y-64555895D02*
X176564980Y-64555895D01*
X176564980Y-64174942D01*
X176612600Y-64079704D01*
X176660219Y-64032085D01*
X176755457Y-63984466D01*
X176898314Y-63984466D01*
X176993552Y-64032085D01*
X177041171Y-64079704D01*
X177088790Y-64174942D01*
X177088790Y-64555895D01*
X176898314Y-63127323D02*
X177564980Y-63127323D01*
X176517361Y-63365419D02*
X177231647Y-63603514D01*
X177231647Y-62984466D01*
%TO.C,J2*%
X112457380Y-61033333D02*
X113171666Y-61033333D01*
X113314523Y-61080952D01*
X113409761Y-61176190D01*
X113457380Y-61319047D01*
X113457380Y-61414285D01*
X112552619Y-60604761D02*
X112505000Y-60557142D01*
X112457380Y-60461904D01*
X112457380Y-60223809D01*
X112505000Y-60128571D01*
X112552619Y-60080952D01*
X112647857Y-60033333D01*
X112743095Y-60033333D01*
X112885952Y-60080952D01*
X113457380Y-60652380D01*
X113457380Y-60033333D01*
%TO.C,J10*%
X127190476Y-79952380D02*
X127190476Y-80666666D01*
X127142857Y-80809523D01*
X127047619Y-80904761D01*
X126904761Y-80952380D01*
X126809523Y-80952380D01*
X128190476Y-80952380D02*
X127619047Y-80952380D01*
X127904761Y-80952380D02*
X127904761Y-79952380D01*
X127809523Y-80095238D01*
X127714285Y-80190476D01*
X127619047Y-80238095D01*
X128809523Y-79952380D02*
X128904761Y-79952380D01*
X129000000Y-80000000D01*
X129047619Y-80047619D01*
X129095238Y-80142857D01*
X129142857Y-80333333D01*
X129142857Y-80571428D01*
X129095238Y-80761904D01*
X129047619Y-80857142D01*
X129000000Y-80904761D01*
X128904761Y-80952380D01*
X128809523Y-80952380D01*
X128714285Y-80904761D01*
X128666666Y-80857142D01*
X128619047Y-80761904D01*
X128571428Y-80571428D01*
X128571428Y-80333333D01*
X128619047Y-80142857D01*
X128666666Y-80047619D01*
X128714285Y-80000000D01*
X128809523Y-79952380D01*
%TO.C,J8*%
X112407380Y-103083333D02*
X113121666Y-103083333D01*
X113264523Y-103130952D01*
X113359761Y-103226190D01*
X113407380Y-103369047D01*
X113407380Y-103464285D01*
X112835952Y-102464285D02*
X112788333Y-102559523D01*
X112740714Y-102607142D01*
X112645476Y-102654761D01*
X112597857Y-102654761D01*
X112502619Y-102607142D01*
X112455000Y-102559523D01*
X112407380Y-102464285D01*
X112407380Y-102273809D01*
X112455000Y-102178571D01*
X112502619Y-102130952D01*
X112597857Y-102083333D01*
X112645476Y-102083333D01*
X112740714Y-102130952D01*
X112788333Y-102178571D01*
X112835952Y-102273809D01*
X112835952Y-102464285D01*
X112883571Y-102559523D01*
X112931190Y-102607142D01*
X113026428Y-102654761D01*
X113216904Y-102654761D01*
X113312142Y-102607142D01*
X113359761Y-102559523D01*
X113407380Y-102464285D01*
X113407380Y-102273809D01*
X113359761Y-102178571D01*
X113312142Y-102130952D01*
X113216904Y-102083333D01*
X113026428Y-102083333D01*
X112931190Y-102130952D01*
X112883571Y-102178571D01*
X112835952Y-102273809D01*
%TO.C,RV1*%
X148925580Y-42418638D02*
X148449390Y-42751971D01*
X148925580Y-42990066D02*
X147925580Y-42990066D01*
X147925580Y-42609114D01*
X147973200Y-42513876D01*
X148020819Y-42466257D01*
X148116057Y-42418638D01*
X148258914Y-42418638D01*
X148354152Y-42466257D01*
X148401771Y-42513876D01*
X148449390Y-42609114D01*
X148449390Y-42990066D01*
X147925580Y-42132923D02*
X148925580Y-41799590D01*
X147925580Y-41466257D01*
X148925580Y-40609114D02*
X148925580Y-41180542D01*
X148925580Y-40894828D02*
X147925580Y-40894828D01*
X148068438Y-40990066D01*
X148163676Y-41085304D01*
X148211295Y-41180542D01*
%TO.C,J9*%
X112407380Y-86058333D02*
X113121666Y-86058333D01*
X113264523Y-86105952D01*
X113359761Y-86201190D01*
X113407380Y-86344047D01*
X113407380Y-86439285D01*
X113407380Y-85534523D02*
X113407380Y-85344047D01*
X113359761Y-85248809D01*
X113312142Y-85201190D01*
X113169285Y-85105952D01*
X112978809Y-85058333D01*
X112597857Y-85058333D01*
X112502619Y-85105952D01*
X112455000Y-85153571D01*
X112407380Y-85248809D01*
X112407380Y-85439285D01*
X112455000Y-85534523D01*
X112502619Y-85582142D01*
X112597857Y-85629761D01*
X112835952Y-85629761D01*
X112931190Y-85582142D01*
X112978809Y-85534523D01*
X113026428Y-85439285D01*
X113026428Y-85248809D01*
X112978809Y-85153571D01*
X112931190Y-85105952D01*
X112835952Y-85058333D01*
%TO.C,U1*%
X162073095Y-62053380D02*
X162073095Y-62862904D01*
X162120714Y-62958142D01*
X162168333Y-63005761D01*
X162263571Y-63053380D01*
X162454047Y-63053380D01*
X162549285Y-63005761D01*
X162596904Y-62958142D01*
X162644523Y-62862904D01*
X162644523Y-62053380D01*
X163644523Y-63053380D02*
X163073095Y-63053380D01*
X163358809Y-63053380D02*
X163358809Y-62053380D01*
X163263571Y-62196238D01*
X163168333Y-62291476D01*
X163073095Y-62339095D01*
%TO.C,RV4*%
X127404761Y-72452380D02*
X127071428Y-71976190D01*
X126833333Y-72452380D02*
X126833333Y-71452380D01*
X127214285Y-71452380D01*
X127309523Y-71500000D01*
X127357142Y-71547619D01*
X127404761Y-71642857D01*
X127404761Y-71785714D01*
X127357142Y-71880952D01*
X127309523Y-71928571D01*
X127214285Y-71976190D01*
X126833333Y-71976190D01*
X127690476Y-71452380D02*
X128023809Y-72452380D01*
X128357142Y-71452380D01*
X129119047Y-71785714D02*
X129119047Y-72452380D01*
X128880952Y-71404761D02*
X128642857Y-72119047D01*
X129261904Y-72119047D01*
%TO.C,RV2*%
X134162980Y-42251638D02*
X133686790Y-42584971D01*
X134162980Y-42823066D02*
X133162980Y-42823066D01*
X133162980Y-42442114D01*
X133210600Y-42346876D01*
X133258219Y-42299257D01*
X133353457Y-42251638D01*
X133496314Y-42251638D01*
X133591552Y-42299257D01*
X133639171Y-42346876D01*
X133686790Y-42442114D01*
X133686790Y-42823066D01*
X133162980Y-41965923D02*
X134162980Y-41632590D01*
X133162980Y-41299257D01*
X133258219Y-41013542D02*
X133210600Y-40965923D01*
X133162980Y-40870685D01*
X133162980Y-40632590D01*
X133210600Y-40537352D01*
X133258219Y-40489733D01*
X133353457Y-40442114D01*
X133448695Y-40442114D01*
X133591552Y-40489733D01*
X134162980Y-41061161D01*
X134162980Y-40442114D01*
%TO.C,RV3*%
X170602780Y-47507638D02*
X170126590Y-47840971D01*
X170602780Y-48079066D02*
X169602780Y-48079066D01*
X169602780Y-47698114D01*
X169650400Y-47602876D01*
X169698019Y-47555257D01*
X169793257Y-47507638D01*
X169936114Y-47507638D01*
X170031352Y-47555257D01*
X170078971Y-47602876D01*
X170126590Y-47698114D01*
X170126590Y-48079066D01*
X169602780Y-47221923D02*
X170602780Y-46888590D01*
X169602780Y-46555257D01*
X169602780Y-46317161D02*
X169602780Y-45698114D01*
X169983733Y-46031447D01*
X169983733Y-45888590D01*
X170031352Y-45793352D01*
X170078971Y-45745733D01*
X170174209Y-45698114D01*
X170412304Y-45698114D01*
X170507542Y-45745733D01*
X170555161Y-45793352D01*
X170602780Y-45888590D01*
X170602780Y-46174304D01*
X170555161Y-46269542D01*
X170507542Y-46317161D01*
%TO.C,R2*%
X148956180Y-59394666D02*
X148479990Y-59728000D01*
X148956180Y-59966095D02*
X147956180Y-59966095D01*
X147956180Y-59585142D01*
X148003800Y-59489904D01*
X148051419Y-59442285D01*
X148146657Y-59394666D01*
X148289514Y-59394666D01*
X148384752Y-59442285D01*
X148432371Y-59489904D01*
X148479990Y-59585142D01*
X148479990Y-59966095D01*
X148051419Y-59013714D02*
X148003800Y-58966095D01*
X147956180Y-58870857D01*
X147956180Y-58632761D01*
X148003800Y-58537523D01*
X148051419Y-58489904D01*
X148146657Y-58442285D01*
X148241895Y-58442285D01*
X148384752Y-58489904D01*
X148956180Y-59061333D01*
X148956180Y-58442285D01*
%TO.C,RV5*%
X127404761Y-97952380D02*
X127071428Y-97476190D01*
X126833333Y-97952380D02*
X126833333Y-96952380D01*
X127214285Y-96952380D01*
X127309523Y-97000000D01*
X127357142Y-97047619D01*
X127404761Y-97142857D01*
X127404761Y-97285714D01*
X127357142Y-97380952D01*
X127309523Y-97428571D01*
X127214285Y-97476190D01*
X126833333Y-97476190D01*
X127690476Y-96952380D02*
X128023809Y-97952380D01*
X128357142Y-96952380D01*
X129166666Y-96952380D02*
X128690476Y-96952380D01*
X128642857Y-97428571D01*
X128690476Y-97380952D01*
X128785714Y-97333333D01*
X129023809Y-97333333D01*
X129119047Y-97380952D01*
X129166666Y-97428571D01*
X129214285Y-97523809D01*
X129214285Y-97761904D01*
X129166666Y-97857142D01*
X129119047Y-97904761D01*
X129023809Y-97952380D01*
X128785714Y-97952380D01*
X128690476Y-97904761D01*
X128642857Y-97857142D01*
%TO.C,J3*%
X204357441Y-68228482D02*
X204357441Y-68943679D01*
X204309761Y-69086718D01*
X204214401Y-69182078D01*
X204071362Y-69229758D01*
X203976002Y-69229758D01*
X204738879Y-68228482D02*
X205358717Y-68228482D01*
X205024958Y-68609920D01*
X205167998Y-68609920D01*
X205263357Y-68657600D01*
X205311037Y-68705280D01*
X205358717Y-68800639D01*
X205358717Y-69039038D01*
X205311037Y-69134398D01*
X205263357Y-69182078D01*
X205167998Y-69229758D01*
X204881919Y-69229758D01*
X204786559Y-69182078D01*
X204738879Y-69134398D01*
D11*
%TO.C,C1*%
X171785001Y-61110800D02*
X171785001Y-61889800D01*
X172465001Y-62065800D02*
X172465001Y-63393800D01*
X171985001Y-63569800D02*
X171985001Y-64167800D01*
X172345001Y-61789800D02*
X172345001Y-63669800D01*
X170904001Y-63569800D02*
X170904001Y-64763800D01*
X171024001Y-60724800D02*
X171024001Y-61889800D01*
X171265001Y-63569800D02*
X171265001Y-64653800D01*
X171144001Y-63569800D02*
X171144001Y-64697800D01*
X170624001Y-63569800D02*
X170624001Y-64803800D01*
X171144001Y-60761800D02*
X171144001Y-61889800D01*
X171505001Y-60921800D02*
X171505001Y-61889800D01*
X170624001Y-60655800D02*
X170624001Y-61889800D01*
X171064001Y-63569800D02*
X171064001Y-64723800D01*
X171865001Y-61177800D02*
X171865001Y-61889800D01*
X171345001Y-60840800D02*
X171345001Y-61889800D01*
X171465001Y-63569800D02*
X171465001Y-64559800D01*
X170584001Y-60652800D02*
X170584001Y-61889800D01*
X171305001Y-63569800D02*
X171305001Y-64636800D01*
X171545001Y-60944800D02*
X171545001Y-61889800D01*
X171945001Y-63569800D02*
X171945001Y-64207800D01*
X168394200Y-61334800D02*
X168394200Y-61734800D01*
X171825001Y-61142800D02*
X171825001Y-61889800D01*
X171585001Y-63569800D02*
X171585001Y-64489800D01*
X170504001Y-60649800D02*
X170504001Y-61889800D01*
X170784001Y-63569800D02*
X170784001Y-64785800D01*
X170544001Y-60650800D02*
X170544001Y-61889800D01*
X170824001Y-63569800D02*
X170824001Y-64779800D01*
X170544001Y-63569800D02*
X170544001Y-64808800D01*
X171505001Y-63569800D02*
X171505001Y-64537800D01*
X172225001Y-61587800D02*
X172225001Y-63871800D01*
X171665001Y-61021800D02*
X171665001Y-61889800D01*
X171104001Y-63569800D02*
X171104001Y-64711800D01*
X172305001Y-61716800D02*
X172305001Y-63742800D01*
X172545001Y-62359800D02*
X172545001Y-63099800D01*
X170664001Y-63569800D02*
X170664001Y-64800800D01*
X172185001Y-61529800D02*
X172185001Y-63929800D01*
X171865001Y-63569800D02*
X171865001Y-64281800D01*
X170464001Y-60649800D02*
X170464001Y-61889800D01*
X170864001Y-60687800D02*
X170864001Y-61889800D01*
X171425001Y-60878800D02*
X171425001Y-61889800D01*
X170984001Y-63569800D02*
X170984001Y-64745800D01*
X168194200Y-61534800D02*
X168594200Y-61534800D01*
X171305001Y-60822800D02*
X171305001Y-61889800D01*
X170904001Y-60695800D02*
X170904001Y-61889800D01*
X171104001Y-60747800D02*
X171104001Y-61889800D01*
X172505001Y-62192800D02*
X172505001Y-63266800D01*
X170824001Y-60679800D02*
X170824001Y-61889800D01*
X171625001Y-63569800D02*
X171625001Y-64464800D01*
X170704001Y-63569800D02*
X170704001Y-64796800D01*
X171825001Y-63569800D02*
X171825001Y-64316800D01*
X171745001Y-61079800D02*
X171745001Y-61889800D01*
X171545001Y-63569800D02*
X171545001Y-64514800D01*
X171665001Y-63569800D02*
X171665001Y-64437800D01*
X171024001Y-63569800D02*
X171024001Y-64734800D01*
X170744001Y-63569800D02*
X170744001Y-64791800D01*
X171945001Y-61251800D02*
X171945001Y-61889800D01*
X170584001Y-63569800D02*
X170584001Y-64806800D01*
X171185001Y-63569800D02*
X171185001Y-64683800D01*
X172145001Y-61475800D02*
X172145001Y-63983800D01*
X170864001Y-63569800D02*
X170864001Y-64771800D01*
X171985001Y-61291800D02*
X171985001Y-61889800D01*
X172065001Y-61378800D02*
X172065001Y-64080800D01*
X171705001Y-63569800D02*
X171705001Y-64409800D01*
X170464001Y-63569800D02*
X170464001Y-64809800D01*
X170664001Y-60658800D02*
X170664001Y-61889800D01*
X171064001Y-60735800D02*
X171064001Y-61889800D01*
X171225001Y-63569800D02*
X171225001Y-64669800D01*
X171385001Y-63569800D02*
X171385001Y-64599800D01*
X171225001Y-60789800D02*
X171225001Y-61889800D01*
X172265001Y-61649800D02*
X172265001Y-63809800D01*
X172025001Y-61333800D02*
X172025001Y-61889800D01*
X171585001Y-60969800D02*
X171585001Y-61889800D01*
X171905001Y-61213800D02*
X171905001Y-61889800D01*
X171785001Y-63569800D02*
X171785001Y-64348800D01*
X170944001Y-60704800D02*
X170944001Y-61889800D01*
X172105001Y-61425800D02*
X172105001Y-64033800D01*
X170704001Y-60662800D02*
X170704001Y-61889800D01*
X170744001Y-60667800D02*
X170744001Y-61889800D01*
X171185001Y-60775800D02*
X171185001Y-61889800D01*
X170984001Y-60713800D02*
X170984001Y-61889800D01*
X172025001Y-63569800D02*
X172025001Y-64125800D01*
X171465001Y-60899800D02*
X171465001Y-61889800D01*
X171345001Y-63569800D02*
X171345001Y-64618800D01*
X172425001Y-61961800D02*
X172425001Y-63497800D01*
X171425001Y-63569800D02*
X171425001Y-64580800D01*
X171385001Y-60859800D02*
X171385001Y-61889800D01*
X171705001Y-61049800D02*
X171705001Y-61889800D01*
X170944001Y-63569800D02*
X170944001Y-64754800D01*
X171905001Y-63569800D02*
X171905001Y-64245800D01*
X171745001Y-63569800D02*
X171745001Y-64379800D01*
X171265001Y-60805800D02*
X171265001Y-61889800D01*
X170784001Y-60673800D02*
X170784001Y-61889800D01*
X172385001Y-61870800D02*
X172385001Y-63588800D01*
X170504001Y-63569800D02*
X170504001Y-64809800D01*
X171625001Y-60994800D02*
X171625001Y-61889800D01*
X172584001Y-62729800D02*
G75*
G03*
X172584001Y-62729800I-2120000J0D01*
G01*
%TO.C,J7*%
X202361000Y-76467600D02*
X201031000Y-76467600D01*
X203631000Y-76467600D02*
X203631000Y-73807600D01*
X203631000Y-73807600D02*
X206231000Y-73807600D01*
X201031000Y-76467600D02*
X201031000Y-75137600D01*
X203631000Y-76467600D02*
X206231000Y-76467600D01*
X206231000Y-76467600D02*
X206231000Y-73807600D01*
%TO.C,C3*%
X196474401Y-65247600D02*
X196474401Y-66347600D01*
X197034401Y-65568600D02*
X197034401Y-66347600D01*
X196193401Y-68027600D02*
X196193401Y-69212600D01*
X196033401Y-68027600D02*
X196033401Y-69243600D01*
X197034401Y-68027600D02*
X197034401Y-68806600D01*
X196033401Y-65131600D02*
X196033401Y-66347600D01*
X197674401Y-66419600D02*
X197674401Y-67955600D01*
X196353401Y-68027600D02*
X196353401Y-69169600D01*
X196994401Y-65537600D02*
X196994401Y-66347600D01*
X195753401Y-68027600D02*
X195753401Y-69267600D01*
X196674401Y-68027600D02*
X196674401Y-69038600D01*
X197594401Y-66247600D02*
X197594401Y-68127600D01*
X197194401Y-68027600D02*
X197194401Y-68665600D01*
X196874401Y-68027600D02*
X196874401Y-68922600D01*
X197354401Y-65883600D02*
X197354401Y-68491600D01*
X196674401Y-65336600D02*
X196674401Y-66347600D01*
X197154401Y-68027600D02*
X197154401Y-68703600D01*
X197394401Y-65933600D02*
X197394401Y-68441600D01*
X195833401Y-65110600D02*
X195833401Y-66347600D01*
X197554401Y-66174600D02*
X197554401Y-68200600D01*
X197314401Y-65836600D02*
X197314401Y-68538600D01*
X195713401Y-68027600D02*
X195713401Y-69267600D01*
X196474401Y-68027600D02*
X196474401Y-69127600D01*
X196313401Y-65193600D02*
X196313401Y-66347600D01*
X195913401Y-68027600D02*
X195913401Y-69258600D01*
X196754401Y-65379600D02*
X196754401Y-66347600D01*
X196794401Y-65402600D02*
X196794401Y-66347600D01*
X196634401Y-68027600D02*
X196634401Y-69057600D01*
X196434401Y-68027600D02*
X196434401Y-69141600D01*
X197794401Y-66817600D02*
X197794401Y-67557600D01*
X196794401Y-68027600D02*
X196794401Y-68972600D01*
X196954401Y-65507600D02*
X196954401Y-66347600D01*
X196994401Y-68027600D02*
X196994401Y-68837600D01*
X196834401Y-68027600D02*
X196834401Y-68947600D01*
X197514401Y-66107600D02*
X197514401Y-68267600D01*
X195993401Y-65125600D02*
X195993401Y-66347600D01*
X197274401Y-68027600D02*
X197274401Y-68583600D01*
X193643600Y-65792600D02*
X193643600Y-66192600D01*
X196754401Y-68027600D02*
X196754401Y-68995600D01*
X197274401Y-65791600D02*
X197274401Y-66347600D01*
X196313401Y-68027600D02*
X196313401Y-69181600D01*
X196273401Y-65182600D02*
X196273401Y-66347600D01*
X196153401Y-68027600D02*
X196153401Y-69221600D01*
X196353401Y-65205600D02*
X196353401Y-66347600D01*
X196153401Y-65153600D02*
X196153401Y-66347600D01*
X196554401Y-65280600D02*
X196554401Y-66347600D01*
X197434401Y-65987600D02*
X197434401Y-68387600D01*
X196393401Y-68027600D02*
X196393401Y-69155600D01*
X197234401Y-65749600D02*
X197234401Y-66347600D01*
X197234401Y-68027600D02*
X197234401Y-68625600D01*
X195953401Y-65120600D02*
X195953401Y-66347600D01*
X196233401Y-65171600D02*
X196233401Y-66347600D01*
X196834401Y-65427600D02*
X196834401Y-66347600D01*
X196594401Y-65298600D02*
X196594401Y-66347600D01*
X197114401Y-65635600D02*
X197114401Y-66347600D01*
X196594401Y-68027600D02*
X196594401Y-69076600D01*
X196233401Y-68027600D02*
X196233401Y-69203600D01*
X197114401Y-68027600D02*
X197114401Y-68739600D01*
X196874401Y-65452600D02*
X196874401Y-66347600D01*
X197194401Y-65709600D02*
X197194401Y-66347600D01*
X197074401Y-65600600D02*
X197074401Y-66347600D01*
X196273401Y-68027600D02*
X196273401Y-69192600D01*
X196393401Y-65219600D02*
X196393401Y-66347600D01*
X196514401Y-68027600D02*
X196514401Y-69111600D01*
X196634401Y-65317600D02*
X196634401Y-66347600D01*
X196514401Y-65263600D02*
X196514401Y-66347600D01*
X196914401Y-65479600D02*
X196914401Y-66347600D01*
X196073401Y-65137600D02*
X196073401Y-66347600D01*
X197634401Y-66328600D02*
X197634401Y-68046600D01*
X197074401Y-68027600D02*
X197074401Y-68774600D01*
X195753401Y-65107600D02*
X195753401Y-66347600D01*
X193443600Y-65992600D02*
X193843600Y-65992600D01*
X197154401Y-65671600D02*
X197154401Y-66347600D01*
X195873401Y-68027600D02*
X195873401Y-69261600D01*
X195793401Y-65108600D02*
X195793401Y-66347600D01*
X196113401Y-65145600D02*
X196113401Y-66347600D01*
X196193401Y-65162600D02*
X196193401Y-66347600D01*
X196434401Y-65233600D02*
X196434401Y-66347600D01*
X195873401Y-65113600D02*
X195873401Y-66347600D01*
X195713401Y-65107600D02*
X195713401Y-66347600D01*
X196714401Y-65357600D02*
X196714401Y-66347600D01*
X195993401Y-68027600D02*
X195993401Y-69249600D01*
X196714401Y-68027600D02*
X196714401Y-69017600D01*
X195793401Y-68027600D02*
X195793401Y-69266600D01*
X195953401Y-68027600D02*
X195953401Y-69254600D01*
X195913401Y-65116600D02*
X195913401Y-66347600D01*
X196554401Y-68027600D02*
X196554401Y-69094600D01*
X195833401Y-68027600D02*
X195833401Y-69264600D01*
X197754401Y-66650600D02*
X197754401Y-67724600D01*
X197474401Y-66045600D02*
X197474401Y-68329600D01*
X196914401Y-68027600D02*
X196914401Y-68895600D01*
X196073401Y-68027600D02*
X196073401Y-69237600D01*
X196954401Y-68027600D02*
X196954401Y-68867600D01*
X196113401Y-68027600D02*
X196113401Y-69229600D01*
X197714401Y-66523600D02*
X197714401Y-67851600D01*
X197833401Y-67187600D02*
G75*
G03*
X197833401Y-67187600I-2120000J0D01*
G01*
%TO.C,R3*%
X155202000Y-55065600D02*
X155202000Y-55835600D01*
X153832000Y-55835600D02*
X153832000Y-62375600D01*
X153832000Y-62375600D02*
X156572000Y-62375600D01*
X156572000Y-62375600D02*
X156572000Y-55835600D01*
X156572000Y-55835600D02*
X153832000Y-55835600D01*
X155202000Y-63145600D02*
X155202000Y-62375600D01*
%TO.C,R5*%
X180367800Y-67710000D02*
X180367800Y-66940000D01*
X178997800Y-60400000D02*
X178997800Y-66940000D01*
X181737800Y-66940000D02*
X181737800Y-60400000D01*
X181737800Y-60400000D02*
X178997800Y-60400000D01*
X180367800Y-59630000D02*
X180367800Y-60400000D01*
X178997800Y-66940000D02*
X181737800Y-66940000D01*
%TO.C,J6*%
X155366000Y-78057600D02*
X155366000Y-80717600D01*
X157966000Y-78057600D02*
X157966000Y-79387600D01*
X147686000Y-78057600D02*
X147686000Y-80717600D01*
X155366000Y-78057600D02*
X147686000Y-78057600D01*
X156636000Y-78057600D02*
X157966000Y-78057600D01*
X155366000Y-80717600D02*
X147686000Y-80717600D01*
%TO.C,C4*%
X183268000Y-75999199D02*
X184804000Y-75999199D01*
X184876000Y-77720199D02*
X186103000Y-77720199D01*
X184876000Y-77119199D02*
X185943000Y-77119199D01*
X183177000Y-76039199D02*
X184895000Y-76039199D01*
X182228000Y-76919199D02*
X183196000Y-76919199D01*
X184876000Y-77280199D02*
X186004000Y-77280199D01*
X182836000Y-76239199D02*
X185236000Y-76239199D01*
X184876000Y-77520199D02*
X186070000Y-77520199D01*
X184876000Y-77560199D02*
X186078000Y-77560199D01*
X182520000Y-76519199D02*
X183196000Y-76519199D01*
X182042000Y-77360199D02*
X183196000Y-77360199D01*
X182054000Y-77320199D02*
X183196000Y-77320199D01*
X182251000Y-76879199D02*
X183196000Y-76879199D01*
X184876000Y-76959199D02*
X185866000Y-76959199D01*
X182598000Y-76439199D02*
X183196000Y-76439199D01*
X184876000Y-76479199D02*
X185514000Y-76479199D01*
X181956000Y-77960199D02*
X183196000Y-77960199D01*
X182640000Y-76399199D02*
X183196000Y-76399199D01*
X184876000Y-76719199D02*
X185716000Y-76719199D01*
X182129000Y-77119199D02*
X183196000Y-77119199D01*
X184876000Y-77440199D02*
X186052000Y-77440199D01*
X181957000Y-77880199D02*
X183196000Y-77880199D01*
X181974000Y-77680199D02*
X183196000Y-77680199D01*
X182641000Y-80030000D02*
X183041000Y-80030000D01*
X184876000Y-77079199D02*
X185925000Y-77079199D01*
X184876000Y-77320199D02*
X186018000Y-77320199D01*
X182386000Y-76679199D02*
X183196000Y-76679199D01*
X182082000Y-77239199D02*
X183196000Y-77239199D01*
X184876000Y-76639199D02*
X185655000Y-76639199D01*
X182782000Y-76279199D02*
X185290000Y-76279199D01*
X184876000Y-76439199D02*
X185474000Y-76439199D01*
X182002000Y-77520199D02*
X183196000Y-77520199D01*
X182417000Y-76639199D02*
X183196000Y-76639199D01*
X184876000Y-77760199D02*
X186107000Y-77760199D01*
X184876000Y-77960199D02*
X186116000Y-77960199D01*
X183666000Y-75879199D02*
X184406000Y-75879199D01*
X182328000Y-76759199D02*
X183196000Y-76759199D01*
X184876000Y-76679199D02*
X185686000Y-76679199D01*
X182841000Y-80230000D02*
X182841000Y-79830000D01*
X182276000Y-76839199D02*
X183196000Y-76839199D01*
X182096000Y-77199199D02*
X183196000Y-77199199D01*
X182185000Y-76999199D02*
X183196000Y-76999199D01*
X184876000Y-77480199D02*
X186061000Y-77480199D01*
X184876000Y-76399199D02*
X185432000Y-76399199D01*
X184876000Y-77680199D02*
X186098000Y-77680199D01*
X184876000Y-77800199D02*
X186110000Y-77800199D01*
X181962000Y-77800199D02*
X183196000Y-77800199D01*
X183499000Y-75919199D02*
X184573000Y-75919199D01*
X181986000Y-77600199D02*
X183196000Y-77600199D01*
X181956000Y-77920199D02*
X183196000Y-77920199D01*
X181969000Y-77720199D02*
X183196000Y-77720199D01*
X184876000Y-76599199D02*
X185623000Y-76599199D01*
X182956000Y-76159199D02*
X185116000Y-76159199D01*
X184876000Y-77920199D02*
X186116000Y-77920199D01*
X182685000Y-76359199D02*
X185387000Y-76359199D01*
X184876000Y-77640199D02*
X186092000Y-77640199D01*
X182147000Y-77079199D02*
X183196000Y-77079199D01*
X181959000Y-77840199D02*
X183196000Y-77840199D01*
X184876000Y-76519199D02*
X185552000Y-76519199D01*
X182011000Y-77480199D02*
X183196000Y-77480199D01*
X184876000Y-76999199D02*
X185887000Y-76999199D01*
X181980000Y-77640199D02*
X183196000Y-77640199D01*
X181965000Y-77760199D02*
X183196000Y-77760199D01*
X182112000Y-77159199D02*
X183196000Y-77159199D01*
X182449000Y-76599199D02*
X183196000Y-76599199D01*
X182558000Y-76479199D02*
X183196000Y-76479199D01*
X182301000Y-76799199D02*
X183196000Y-76799199D01*
X184876000Y-76919199D02*
X185844000Y-76919199D01*
X183372000Y-75959199D02*
X184700000Y-75959199D01*
X183096000Y-76079199D02*
X184976000Y-76079199D01*
X182894000Y-76199199D02*
X185178000Y-76199199D01*
X183023000Y-76119199D02*
X185049000Y-76119199D01*
X184876000Y-77360199D02*
X186030000Y-77360199D01*
X182732000Y-76319199D02*
X185340000Y-76319199D01*
X184876000Y-77600199D02*
X186086000Y-77600199D01*
X184876000Y-77840199D02*
X186113000Y-77840199D01*
X182031000Y-77400199D02*
X183196000Y-77400199D01*
X184876000Y-77159199D02*
X185960000Y-77159199D01*
X184876000Y-77880199D02*
X186115000Y-77880199D01*
X184876000Y-77039199D02*
X185906000Y-77039199D01*
X184876000Y-76879199D02*
X185821000Y-76879199D01*
X184876000Y-76759199D02*
X185744000Y-76759199D01*
X184876000Y-76559199D02*
X185588000Y-76559199D01*
X182020000Y-77440199D02*
X183196000Y-77440199D01*
X182068000Y-77280199D02*
X183196000Y-77280199D01*
X182484000Y-76559199D02*
X183196000Y-76559199D01*
X181994000Y-77560199D02*
X183196000Y-77560199D01*
X184876000Y-77239199D02*
X185990000Y-77239199D01*
X182206000Y-76959199D02*
X183196000Y-76959199D01*
X184876000Y-77199199D02*
X185976000Y-77199199D01*
X184876000Y-76839199D02*
X185796000Y-76839199D01*
X184876000Y-77400199D02*
X186041000Y-77400199D01*
X182356000Y-76719199D02*
X183196000Y-76719199D01*
X184876000Y-76799199D02*
X185771000Y-76799199D01*
X182166000Y-77039199D02*
X183196000Y-77039199D01*
X186156000Y-77960199D02*
G75*
G03*
X186156000Y-77960199I-2120000J0D01*
G01*
%TO.C,J11*%
X134500000Y-106170000D02*
X135830000Y-106170000D01*
X133230000Y-108830000D02*
X130630000Y-108830000D01*
X130630000Y-106170000D02*
X130630000Y-108830000D01*
X133230000Y-106170000D02*
X133230000Y-108830000D01*
X133230000Y-106170000D02*
X130630000Y-106170000D01*
X135830000Y-106170000D02*
X135830000Y-107500000D01*
%TO.C,U2*%
X185595400Y-64915400D02*
X185595400Y-75195400D01*
X193095400Y-64855400D02*
X182595400Y-64855400D01*
X190095400Y-64915400D02*
X188845400Y-64915400D01*
X190095400Y-75195400D02*
X190095400Y-64915400D01*
X185595400Y-75195400D02*
X190095400Y-75195400D01*
X186845400Y-64915400D02*
X185595400Y-64915400D01*
X182595400Y-64855400D02*
X182595400Y-75255400D01*
X182595400Y-75255400D02*
X193095400Y-75255400D01*
X193095400Y-75255400D02*
X193095400Y-64855400D01*
X186845400Y-64915400D02*
G75*
G03*
X188845400Y-64915400I1000000J0D01*
G01*
%TO.C,C2*%
X156425001Y-68187800D02*
X156425001Y-70471800D01*
X154744001Y-67250800D02*
X154744001Y-68489800D01*
X155705001Y-67521800D02*
X155705001Y-68489800D01*
X156185001Y-70169800D02*
X156185001Y-70767800D01*
X155945001Y-67679800D02*
X155945001Y-68489800D01*
X152394200Y-68134800D02*
X152794200Y-68134800D01*
X155425001Y-70169800D02*
X155425001Y-71269800D01*
X155064001Y-67287800D02*
X155064001Y-68489800D01*
X154904001Y-70169800D02*
X154904001Y-71396800D01*
X156025001Y-70169800D02*
X156025001Y-70916800D01*
X156265001Y-67978800D02*
X156265001Y-70680800D01*
X155024001Y-70169800D02*
X155024001Y-71379800D01*
X155264001Y-67335800D02*
X155264001Y-68489800D01*
X155945001Y-70169800D02*
X155945001Y-70979800D01*
X155304001Y-70169800D02*
X155304001Y-71311800D01*
X156145001Y-70169800D02*
X156145001Y-70807800D01*
X155985001Y-70169800D02*
X155985001Y-70948800D01*
X156625001Y-68561800D02*
X156625001Y-70097800D01*
X155104001Y-67295800D02*
X155104001Y-68489800D01*
X155865001Y-70169800D02*
X155865001Y-71037800D01*
X155304001Y-67347800D02*
X155304001Y-68489800D01*
X154704001Y-70169800D02*
X154704001Y-71409800D01*
X155865001Y-67621800D02*
X155865001Y-68489800D01*
X156585001Y-68470800D02*
X156585001Y-70188800D01*
X155505001Y-70169800D02*
X155505001Y-71236800D01*
X154824001Y-67255800D02*
X154824001Y-68489800D01*
X155425001Y-67389800D02*
X155425001Y-68489800D01*
X155385001Y-67375800D02*
X155385001Y-68489800D01*
X155144001Y-70169800D02*
X155144001Y-71354800D01*
X155064001Y-70169800D02*
X155064001Y-71371800D01*
X156225001Y-70169800D02*
X156225001Y-70725800D01*
X154944001Y-70169800D02*
X154944001Y-71391800D01*
X154864001Y-70169800D02*
X154864001Y-71400800D01*
X156465001Y-68249800D02*
X156465001Y-70409800D01*
X154664001Y-67249800D02*
X154664001Y-68489800D01*
X155505001Y-67422800D02*
X155505001Y-68489800D01*
X156705001Y-68792800D02*
X156705001Y-69866800D01*
X155224001Y-70169800D02*
X155224001Y-71334800D01*
X154904001Y-67262800D02*
X154904001Y-68489800D01*
X156305001Y-68025800D02*
X156305001Y-70633800D01*
X156025001Y-67742800D02*
X156025001Y-68489800D01*
X155745001Y-70169800D02*
X155745001Y-71114800D01*
X156145001Y-67851800D02*
X156145001Y-68489800D01*
X156105001Y-67813800D02*
X156105001Y-68489800D01*
X155825001Y-70169800D02*
X155825001Y-71064800D01*
X155545001Y-70169800D02*
X155545001Y-71218800D01*
X155024001Y-67279800D02*
X155024001Y-68489800D01*
X155785001Y-67569800D02*
X155785001Y-68489800D01*
X152594200Y-67934800D02*
X152594200Y-68334800D01*
X155785001Y-70169800D02*
X155785001Y-71089800D01*
X154864001Y-67258800D02*
X154864001Y-68489800D01*
X156225001Y-67933800D02*
X156225001Y-68489800D01*
X154784001Y-67252800D02*
X154784001Y-68489800D01*
X155224001Y-67324800D02*
X155224001Y-68489800D01*
X156545001Y-68389800D02*
X156545001Y-70269800D01*
X155104001Y-70169800D02*
X155104001Y-71363800D01*
X155184001Y-67313800D02*
X155184001Y-68489800D01*
X156385001Y-68129800D02*
X156385001Y-70529800D01*
X156065001Y-70169800D02*
X156065001Y-70881800D01*
X155665001Y-70169800D02*
X155665001Y-71159800D01*
X155585001Y-67459800D02*
X155585001Y-68489800D01*
X155625001Y-67478800D02*
X155625001Y-68489800D01*
X155465001Y-67405800D02*
X155465001Y-68489800D01*
X154784001Y-70169800D02*
X154784001Y-71406800D01*
X155745001Y-67544800D02*
X155745001Y-68489800D01*
X155184001Y-70169800D02*
X155184001Y-71345800D01*
X155385001Y-70169800D02*
X155385001Y-71283800D01*
X156105001Y-70169800D02*
X156105001Y-70845800D01*
X156185001Y-67891800D02*
X156185001Y-68489800D01*
X155344001Y-70169800D02*
X155344001Y-71297800D01*
X154664001Y-70169800D02*
X154664001Y-71409800D01*
X155905001Y-67649800D02*
X155905001Y-68489800D01*
X154944001Y-67267800D02*
X154944001Y-68489800D01*
X155585001Y-70169800D02*
X155585001Y-71199800D01*
X155665001Y-67499800D02*
X155665001Y-68489800D01*
X154984001Y-70169800D02*
X154984001Y-71385800D01*
X156065001Y-67777800D02*
X156065001Y-68489800D01*
X155705001Y-70169800D02*
X155705001Y-71137800D01*
X154824001Y-70169800D02*
X154824001Y-71403800D01*
X155905001Y-70169800D02*
X155905001Y-71009800D01*
X155144001Y-67304800D02*
X155144001Y-68489800D01*
X156665001Y-68665800D02*
X156665001Y-69993800D01*
X156505001Y-68316800D02*
X156505001Y-70342800D01*
X154984001Y-67273800D02*
X154984001Y-68489800D01*
X154744001Y-70169800D02*
X154744001Y-71408800D01*
X156745001Y-68959800D02*
X156745001Y-69699800D01*
X155985001Y-67710800D02*
X155985001Y-68489800D01*
X156345001Y-68075800D02*
X156345001Y-70583800D01*
X155545001Y-67440800D02*
X155545001Y-68489800D01*
X155465001Y-70169800D02*
X155465001Y-71253800D01*
X155264001Y-70169800D02*
X155264001Y-71323800D01*
X154704001Y-67249800D02*
X154704001Y-68489800D01*
X155625001Y-70169800D02*
X155625001Y-71180800D01*
X155344001Y-67361800D02*
X155344001Y-68489800D01*
X155825001Y-67594800D02*
X155825001Y-68489800D01*
X156784001Y-69329800D02*
G75*
G03*
X156784001Y-69329800I-2120000J0D01*
G01*
%TO.C,J1*%
X122185000Y-79030000D02*
X122185000Y-76370000D01*
X117045000Y-76370000D02*
X122185000Y-76370000D01*
X114445000Y-76370000D02*
X115775000Y-76370000D01*
X117045000Y-79030000D02*
X117045000Y-76370000D01*
X114445000Y-77700000D02*
X114445000Y-76370000D01*
X117045000Y-79030000D02*
X122185000Y-79030000D01*
%TO.C,J5*%
X139506000Y-56332600D02*
X142166000Y-56332600D01*
X139506000Y-56332600D02*
X139506000Y-58932600D01*
X139506000Y-58932600D02*
X142166000Y-58932600D01*
X139506000Y-55062600D02*
X139506000Y-53732600D01*
X139506000Y-53732600D02*
X140836000Y-53732600D01*
X142166000Y-56332600D02*
X142166000Y-58932600D01*
%TO.C,R1*%
X151874600Y-55091000D02*
X151874600Y-55861000D01*
X153244600Y-55861000D02*
X150504600Y-55861000D01*
X150504600Y-55861000D02*
X150504600Y-62401000D01*
X151874600Y-63171000D02*
X151874600Y-62401000D01*
X150504600Y-62401000D02*
X153244600Y-62401000D01*
X153244600Y-62401000D02*
X153244600Y-55861000D01*
%TO.C,J4*%
X135506000Y-55062600D02*
X135506000Y-53732600D01*
X135506000Y-53732600D02*
X136836000Y-53732600D01*
X135506000Y-56332600D02*
X135506000Y-58932600D01*
X135506000Y-56332600D02*
X138166000Y-56332600D01*
X135506000Y-58932600D02*
X138166000Y-58932600D01*
X138166000Y-56332600D02*
X138166000Y-58932600D01*
%TO.C,R4*%
X175645000Y-66965400D02*
X178385000Y-66965400D01*
X175645000Y-60425400D02*
X175645000Y-66965400D01*
X177015000Y-67735400D02*
X177015000Y-66965400D01*
X178385000Y-60425400D02*
X175645000Y-60425400D01*
X178385000Y-66965400D02*
X178385000Y-60425400D01*
X177015000Y-59655400D02*
X177015000Y-60425400D01*
%TO.C,J2*%
X122185000Y-62030000D02*
X122185000Y-59370000D01*
X114445000Y-60700000D02*
X114445000Y-59370000D01*
X117045000Y-59370000D02*
X122185000Y-59370000D01*
X117045000Y-62030000D02*
X122185000Y-62030000D01*
X114445000Y-59370000D02*
X115775000Y-59370000D01*
X117045000Y-62030000D02*
X117045000Y-59370000D01*
%TO.C,J10*%
X130155000Y-80420000D02*
X130155000Y-83080000D01*
X132755000Y-80420000D02*
X132755000Y-83080000D01*
X134025000Y-80420000D02*
X135355000Y-80420000D01*
X135355000Y-80420000D02*
X135355000Y-81750000D01*
X132755000Y-80420000D02*
X130155000Y-80420000D01*
X132755000Y-83080000D02*
X130155000Y-83080000D01*
%TO.C,J8*%
X116995000Y-104080000D02*
X122135000Y-104080000D01*
X122135000Y-104080000D02*
X122135000Y-101420000D01*
X116995000Y-104080000D02*
X116995000Y-101420000D01*
X116995000Y-101420000D02*
X122135000Y-101420000D01*
X114395000Y-101420000D02*
X115725000Y-101420000D01*
X114395000Y-102750000D02*
X114395000Y-101420000D01*
%TO.C,RV1*%
X143315000Y-35717600D02*
X153356000Y-35717600D01*
X143315000Y-39653600D02*
X143315000Y-35717600D01*
X146707000Y-47957600D02*
X147466000Y-47957600D01*
X149207000Y-47957600D02*
X149966000Y-47957600D01*
X143315000Y-47957600D02*
X144965000Y-47957600D01*
X153356000Y-39653600D02*
X153356000Y-35717600D01*
X143315000Y-47957600D02*
X143315000Y-44020600D01*
X153356000Y-47957600D02*
X153356000Y-44020600D01*
X151706000Y-47957600D02*
X153356000Y-47957600D01*
%TO.C,J9*%
X114395000Y-85725000D02*
X114395000Y-84395000D01*
X122135000Y-87055000D02*
X122135000Y-84395000D01*
X116995000Y-84395000D02*
X122135000Y-84395000D01*
X114395000Y-84395000D02*
X115725000Y-84395000D01*
X116995000Y-87055000D02*
X122135000Y-87055000D01*
X116995000Y-87055000D02*
X116995000Y-84395000D01*
%TO.C,U1*%
X164828000Y-70605600D02*
X164828000Y-60325600D01*
X167828000Y-70665600D02*
X167828000Y-60265600D01*
X157328000Y-60265600D02*
X157328000Y-70665600D01*
X160328000Y-70605600D02*
X164828000Y-70605600D01*
X157328000Y-70665600D02*
X167828000Y-70665600D01*
X167828000Y-60265600D02*
X157328000Y-60265600D01*
X160328000Y-60325600D02*
X160328000Y-70605600D01*
X161578000Y-60325600D02*
X160328000Y-60325600D01*
X164828000Y-60325600D02*
X163578000Y-60325600D01*
X161578000Y-60325600D02*
G75*
G03*
X163578000Y-60325600I1000000J0D01*
G01*
%TO.C,RV4*%
X138420000Y-73771000D02*
X138420000Y-72121000D01*
X138420000Y-63730000D02*
X134483000Y-63730000D01*
X138420000Y-73771000D02*
X134483000Y-73771000D01*
X138420000Y-65380000D02*
X138420000Y-63730000D01*
X130116000Y-73771000D02*
X126180000Y-73771000D01*
X126180000Y-73771000D02*
X126180000Y-63730000D01*
X130116000Y-63730000D02*
X126180000Y-63730000D01*
X138420000Y-70379000D02*
X138420000Y-69620000D01*
X138420000Y-67879000D02*
X138420000Y-67120000D01*
%TO.C,RV2*%
X128615000Y-47957600D02*
X128615000Y-44020600D01*
X138656000Y-39653600D02*
X138656000Y-35717600D01*
X128615000Y-47957600D02*
X130265000Y-47957600D01*
X138656000Y-47957600D02*
X138656000Y-44020600D01*
X132007000Y-47957600D02*
X132766000Y-47957600D01*
X128615000Y-39653600D02*
X128615000Y-35717600D01*
X128615000Y-35717600D02*
X138656000Y-35717600D01*
X134507000Y-47957600D02*
X135266000Y-47957600D01*
X137006000Y-47957600D02*
X138656000Y-47957600D01*
%TO.C,RV3*%
X164915000Y-53257600D02*
X164915000Y-49320600D01*
X170807000Y-53257600D02*
X171566000Y-53257600D01*
X164915000Y-41017600D02*
X174956000Y-41017600D01*
X164915000Y-53257600D02*
X166565000Y-53257600D01*
X174956000Y-53257600D02*
X174956000Y-49320600D01*
X173306000Y-53257600D02*
X174956000Y-53257600D01*
X168307000Y-53257600D02*
X169066000Y-53257600D01*
X174956000Y-44953600D02*
X174956000Y-41017600D01*
X164915000Y-44953600D02*
X164915000Y-41017600D01*
%TO.C,R2*%
X147177200Y-55886400D02*
X147177200Y-62426400D01*
X149917200Y-62426400D02*
X149917200Y-55886400D01*
X148547200Y-63196400D02*
X148547200Y-62426400D01*
X148547200Y-55116400D02*
X148547200Y-55886400D01*
X149917200Y-55886400D02*
X147177200Y-55886400D01*
X147177200Y-62426400D02*
X149917200Y-62426400D01*
%TO.C,kibuzzard-622CD937*%
G36*
X164172037Y-90677030D02*
G01*
X164273637Y-90719892D01*
X164273637Y-91532692D01*
X164187912Y-91542217D01*
X164099012Y-91545392D01*
X163956534Y-91513642D01*
X163859300Y-91418392D01*
X163803340Y-91273136D01*
X163784687Y-91091367D01*
X163800562Y-90906424D01*
X163848187Y-90770692D01*
X163930737Y-90687349D01*
X164051387Y-90659567D01*
X164172037Y-90677030D01*
G37*
G36*
X176850923Y-95137365D02*
G01*
X176788752Y-95351248D01*
X176686699Y-95481454D01*
X176546326Y-95524856D01*
X176407909Y-95481454D01*
X176305464Y-95351248D01*
X176242120Y-95137365D01*
X176221006Y-94842935D01*
X176223267Y-94811654D01*
X176374282Y-94811654D01*
X176421203Y-94957110D01*
X176549454Y-95018107D01*
X176673013Y-94957110D01*
X176721499Y-94811654D01*
X176673013Y-94664634D01*
X176549454Y-94602073D01*
X176421203Y-94664634D01*
X176374282Y-94811654D01*
X176223267Y-94811654D01*
X176242120Y-94550851D01*
X176305464Y-94337750D01*
X176407909Y-94207544D01*
X176546326Y-94164142D01*
X176686699Y-94207544D01*
X176788752Y-94337750D01*
X176850923Y-94550851D01*
X176871646Y-94842935D01*
X176850923Y-95137365D01*
G37*
G36*
X184360143Y-96369063D02*
G01*
X159639857Y-96369063D01*
X159462278Y-96364703D01*
X159285127Y-96351636D01*
X159108830Y-96329892D01*
X158933813Y-96299523D01*
X158760497Y-96260604D01*
X158589299Y-96213227D01*
X158420632Y-96157507D01*
X158254902Y-96093578D01*
X158092509Y-96021594D01*
X157933843Y-95941728D01*
X157779287Y-95854174D01*
X157629214Y-95759141D01*
X157483984Y-95656858D01*
X157343948Y-95547573D01*
X157209443Y-95431549D01*
X157080794Y-95309064D01*
X156958309Y-95180414D01*
X156842284Y-95045909D01*
X156732999Y-94905873D01*
X156630717Y-94760643D01*
X156535684Y-94610570D01*
X156448129Y-94456014D01*
X156368263Y-94297349D01*
X156296279Y-94134955D01*
X156232350Y-93969225D01*
X156202705Y-93879487D01*
X160164577Y-93879487D01*
X160200550Y-94054659D01*
X160252164Y-94273625D01*
X160315507Y-94521916D01*
X160386671Y-94785066D01*
X160437763Y-94965625D01*
X160490940Y-95146532D01*
X160546203Y-95327787D01*
X160628315Y-95585854D01*
X160705735Y-95815767D01*
X161103001Y-95815767D01*
X161162782Y-95649110D01*
X161221173Y-95478630D01*
X161278173Y-95304327D01*
X161332915Y-95129154D01*
X161343642Y-95093181D01*
X161784922Y-95093181D01*
X161798999Y-95269136D01*
X161841228Y-95421630D01*
X161909654Y-95551054D01*
X162002324Y-95657800D01*
X162118063Y-95741476D01*
X162255698Y-95801691D01*
X162414057Y-95838055D01*
X162591967Y-95850176D01*
X162845341Y-95826716D01*
X162885586Y-95815767D01*
X163530390Y-95815767D01*
X163918272Y-95815767D01*
X163918272Y-95728181D01*
X164984947Y-95728181D01*
X165200784Y-95806383D01*
X165349368Y-95839228D01*
X165526104Y-95850176D01*
X165698931Y-95841574D01*
X165842040Y-95815767D01*
X166050058Y-95721925D01*
X166164233Y-95581162D01*
X166198641Y-95409117D01*
X166151720Y-95213612D01*
X166031289Y-95082233D01*
X165867065Y-94996211D01*
X165691893Y-94933649D01*
X165580846Y-94894548D01*
X165490132Y-94852319D01*
X165427570Y-94803834D01*
X165404109Y-94742836D01*
X165455723Y-94666199D01*
X165654356Y-94630226D01*
X165907730Y-94666199D01*
X166073518Y-94717812D01*
X166083233Y-94664634D01*
X166492681Y-94664634D01*
X166899331Y-94664634D01*
X166899331Y-95205792D01*
X166905587Y-95350466D01*
X166924356Y-95477935D01*
X167010378Y-95679696D01*
X167173038Y-95806383D01*
X167424848Y-95850176D01*
X167617225Y-95829844D01*
X167840883Y-95753206D01*
X167790834Y-95443526D01*
X167621917Y-95501396D01*
X167493666Y-95515472D01*
X167332570Y-95451346D01*
X167284085Y-95255841D01*
X167284085Y-95077541D01*
X168034824Y-95077541D01*
X168047336Y-95244502D01*
X168084873Y-95395041D01*
X168145479Y-95527593D01*
X168227201Y-95640595D01*
X168328081Y-95732091D01*
X168446166Y-95800127D01*
X168580282Y-95842356D01*
X168729257Y-95856433D01*
X168878232Y-95842356D01*
X168962677Y-95815767D01*
X169705218Y-95815767D01*
X170089971Y-95815767D01*
X170089971Y-94661506D01*
X170179122Y-94652122D01*
X170265144Y-94648994D01*
X170455957Y-94739708D01*
X170491148Y-94859357D01*
X170502878Y-95036876D01*
X170502878Y-95815767D01*
X170887632Y-95815767D01*
X170887632Y-94986827D01*
X170880593Y-94843326D01*
X170859479Y-94713120D01*
X170764072Y-94500410D01*
X170581080Y-94362775D01*
X170450483Y-94326411D01*
X170290169Y-94314290D01*
X170118515Y-94320546D01*
X169960156Y-94339314D01*
X169705218Y-94392492D01*
X169705218Y-95815767D01*
X168962677Y-95815767D01*
X169012348Y-95800127D01*
X169130042Y-95732091D01*
X169229750Y-95640595D01*
X169310298Y-95527593D01*
X169370513Y-95395041D01*
X169408050Y-95244502D01*
X169420563Y-95077541D01*
X169408050Y-94912926D01*
X169370513Y-94763169D01*
X169309907Y-94631008D01*
X169228186Y-94519179D01*
X169127305Y-94429247D01*
X169009220Y-94362775D01*
X168875886Y-94321719D01*
X168729257Y-94308033D01*
X168584584Y-94321719D01*
X168450858Y-94362775D01*
X168331600Y-94429247D01*
X168230329Y-94519179D01*
X168148217Y-94631008D01*
X168086437Y-94763169D01*
X168047727Y-94912926D01*
X168034824Y-95077541D01*
X167284085Y-95077541D01*
X167284085Y-94345570D01*
X166492681Y-94345570D01*
X166492681Y-94664634D01*
X166083233Y-94664634D01*
X166132952Y-94392492D01*
X165918678Y-94329930D01*
X165790036Y-94313508D01*
X165651228Y-94308033D01*
X165497170Y-94317027D01*
X165366572Y-94344006D01*
X165171068Y-94444105D01*
X165058457Y-94591125D01*
X165022484Y-94767861D01*
X165069405Y-94960238D01*
X165188272Y-95086925D01*
X165347804Y-95169819D01*
X165519848Y-95227689D01*
X165634023Y-95265226D01*
X165730994Y-95304327D01*
X165796683Y-95352812D01*
X165820144Y-95421630D01*
X165745070Y-95504524D01*
X165529233Y-95524856D01*
X165277422Y-95487319D01*
X165044380Y-95405989D01*
X164984947Y-95728181D01*
X163918272Y-95728181D01*
X163918272Y-94724068D01*
X164077804Y-94694351D01*
X164237336Y-94686531D01*
X164321794Y-94689659D01*
X164425021Y-94700607D01*
X164529811Y-94717812D01*
X164618962Y-94736580D01*
X164687779Y-94379979D01*
X164567348Y-94350263D01*
X164434405Y-94331494D01*
X164310846Y-94320546D01*
X164221696Y-94317418D01*
X164019544Y-94326020D01*
X163844762Y-94351827D01*
X163685621Y-94391710D01*
X163530390Y-94442541D01*
X163530390Y-95815767D01*
X162885586Y-95815767D01*
X163058050Y-95768846D01*
X163004873Y-95440398D01*
X162828137Y-95490447D01*
X162607607Y-95515472D01*
X162437127Y-95494748D01*
X162301055Y-95432578D01*
X162211905Y-95334434D01*
X162182188Y-95205792D01*
X163136252Y-95205792D01*
X163140944Y-95140102D01*
X163142508Y-95061900D01*
X163123740Y-94835462D01*
X163067435Y-94648299D01*
X162973592Y-94500410D01*
X162843603Y-94393534D01*
X162678858Y-94329409D01*
X162479356Y-94308033D01*
X162349540Y-94320546D01*
X162222853Y-94358083D01*
X162104768Y-94420253D01*
X162000760Y-94506667D01*
X161913173Y-94617322D01*
X161844356Y-94752221D01*
X161799781Y-94910971D01*
X161784922Y-95093181D01*
X161343642Y-95093181D01*
X161384528Y-94956067D01*
X161433013Y-94785066D01*
X161499485Y-94535992D01*
X161558137Y-94298649D01*
X161561714Y-94283009D01*
X172786375Y-94283009D01*
X172911499Y-94602073D01*
X173102311Y-94525435D01*
X173302508Y-94414388D01*
X173302508Y-95496703D01*
X172895858Y-95496703D01*
X172895858Y-95815767D01*
X174072016Y-95815767D01*
X174072016Y-95568649D01*
X174703888Y-95568649D01*
X174727348Y-95689080D01*
X174789910Y-95776667D01*
X174879060Y-95831408D01*
X174985415Y-95850176D01*
X175179356Y-95778231D01*
X175263814Y-95568649D01*
X175179356Y-95365324D01*
X174985415Y-95293378D01*
X174879060Y-95312147D01*
X174789910Y-95365324D01*
X174727348Y-95451346D01*
X174703888Y-95568649D01*
X174072016Y-95568649D01*
X174072016Y-95496703D01*
X173687262Y-95496703D01*
X173687262Y-94842935D01*
X175873789Y-94842935D01*
X175884542Y-95083015D01*
X175916800Y-95290250D01*
X175970564Y-95464641D01*
X176045834Y-95606186D01*
X176177908Y-95745212D01*
X176344739Y-95828627D01*
X176546326Y-95856433D01*
X176747913Y-95828627D01*
X176914744Y-95745212D01*
X177046819Y-95606186D01*
X177122088Y-95464641D01*
X177175852Y-95290250D01*
X177208110Y-95083015D01*
X177218863Y-94842935D01*
X177208110Y-94604321D01*
X177175852Y-94398357D01*
X177122088Y-94225042D01*
X177046819Y-94084376D01*
X176914744Y-93946219D01*
X176747913Y-93863325D01*
X176546326Y-93835694D01*
X176347867Y-93863499D01*
X176182079Y-93946914D01*
X176048962Y-94085940D01*
X175972324Y-94227094D01*
X175917582Y-94400312D01*
X175884737Y-94605592D01*
X175873789Y-94842935D01*
X173687262Y-94842935D01*
X173687262Y-93879487D01*
X173424503Y-93879487D01*
X173289996Y-94001482D01*
X173124208Y-94114093D01*
X172949036Y-94211063D01*
X172786375Y-94283009D01*
X161561714Y-94283009D01*
X161608577Y-94078120D01*
X161641191Y-93923280D01*
X166783592Y-93923280D01*
X166853974Y-94101580D01*
X167024454Y-94167270D01*
X167196499Y-94101580D01*
X167268444Y-93923280D01*
X167196499Y-93741851D01*
X167024454Y-93676162D01*
X166853974Y-93741851D01*
X166783592Y-93923280D01*
X161641191Y-93923280D01*
X161650415Y-93879487D01*
X161246893Y-93879487D01*
X161218740Y-94042147D01*
X161184331Y-94229832D01*
X161145230Y-94432766D01*
X161103001Y-94641174D01*
X161057644Y-94850755D01*
X161009159Y-95057208D01*
X160959109Y-95250758D01*
X160909060Y-95421630D01*
X160858620Y-95248412D01*
X160807398Y-95054080D01*
X160757348Y-94847627D01*
X160710427Y-94638046D01*
X160667025Y-94430029D01*
X160627533Y-94228267D01*
X160594688Y-94041756D01*
X160571228Y-93879487D01*
X160164577Y-93879487D01*
X156202705Y-93879487D01*
X156176630Y-93800558D01*
X156129253Y-93629360D01*
X156090334Y-93456044D01*
X156059966Y-93281027D01*
X156038221Y-93104730D01*
X156025154Y-92927579D01*
X156020795Y-92750000D01*
X156025154Y-92572421D01*
X156038221Y-92395270D01*
X156059966Y-92218973D01*
X156090334Y-92043956D01*
X156129253Y-91870640D01*
X156135790Y-91847017D01*
X160152487Y-91847017D01*
X160558887Y-91847017D01*
X160647787Y-91392992D01*
X161171662Y-91392992D01*
X161263737Y-91847017D01*
X161682837Y-91847017D01*
X161630450Y-91624196D01*
X161577427Y-91407851D01*
X161523770Y-91197984D01*
X161520736Y-91186617D01*
X161898737Y-91186617D01*
X161905087Y-91332667D01*
X161924137Y-91466017D01*
X162017800Y-91686680D01*
X162203537Y-91831142D01*
X162337681Y-91869242D01*
X162505162Y-91881942D01*
X162679390Y-91874799D01*
X162840125Y-91853367D01*
X162982603Y-91824792D01*
X163102062Y-91796217D01*
X163102062Y-91110417D01*
X163387812Y-91110417D01*
X163407744Y-91332667D01*
X163467540Y-91521051D01*
X163567200Y-91675567D01*
X163705665Y-91790220D01*
X163881878Y-91859012D01*
X164095837Y-91881942D01*
X164246650Y-91876386D01*
X164400637Y-91859717D01*
X164544306Y-91834317D01*
X164664162Y-91802567D01*
X164664162Y-90678617D01*
X165000712Y-90678617D01*
X165413462Y-90678617D01*
X165413462Y-91227892D01*
X165419812Y-91374736D01*
X165438862Y-91504117D01*
X165526175Y-91708905D01*
X165691275Y-91837492D01*
X165806765Y-91870830D01*
X165946862Y-91881942D01*
X166142125Y-91861305D01*
X166369137Y-91783517D01*
X166318337Y-91469192D01*
X166146887Y-91527930D01*
X166016712Y-91542217D01*
X165853200Y-91477130D01*
X165803987Y-91278692D01*
X165803987Y-91097717D01*
X166565987Y-91097717D01*
X166578687Y-91267183D01*
X166616787Y-91419980D01*
X166678303Y-91554521D01*
X166761250Y-91669217D01*
X166863644Y-91762086D01*
X166983500Y-91831142D01*
X167119628Y-91874005D01*
X167270837Y-91888292D01*
X167422047Y-91874005D01*
X167507758Y-91847017D01*
X169721937Y-91847017D01*
X170080712Y-91847017D01*
X170064837Y-90319842D01*
X170296612Y-91151692D01*
X170582362Y-91151692D01*
X170823662Y-90319842D01*
X170804612Y-91847017D01*
X171163387Y-91847017D01*
X171156244Y-91595796D01*
X171147512Y-91350130D01*
X171136797Y-91108036D01*
X171123700Y-90867530D01*
X171107825Y-90626627D01*
X171088775Y-90383342D01*
X171086348Y-90354767D01*
X171350712Y-90354767D01*
X171350712Y-90678617D01*
X171763462Y-90678617D01*
X171763462Y-91227892D01*
X171769812Y-91374736D01*
X171788862Y-91504117D01*
X171876175Y-91708905D01*
X172041275Y-91837492D01*
X172156765Y-91870830D01*
X172296862Y-91881942D01*
X172492125Y-91861305D01*
X172533822Y-91847017D01*
X172887412Y-91847017D01*
X173284287Y-91847017D01*
X173362869Y-91704936D01*
X173439862Y-91577142D01*
X173520825Y-91454905D01*
X173611312Y-91329492D01*
X173689894Y-91437442D01*
X173773237Y-91558092D01*
X173858962Y-91693824D01*
X173944687Y-91847017D01*
X174351087Y-91847017D01*
X174259012Y-91675567D01*
X174138362Y-91475542D01*
X173998662Y-91267580D01*
X173880980Y-91113592D01*
X174509837Y-91113592D01*
X174524125Y-91292186D01*
X174566987Y-91446967D01*
X174636440Y-91578333D01*
X174730500Y-91686680D01*
X174847975Y-91771611D01*
X174987675Y-91832730D01*
X175148409Y-91869639D01*
X175328987Y-91881942D01*
X175586162Y-91858130D01*
X175627009Y-91847017D01*
X176281487Y-91847017D01*
X176675187Y-91847017D01*
X176675187Y-91824792D01*
X179345362Y-91824792D01*
X179559675Y-91861305D01*
X179764462Y-91872417D01*
X179956153Y-91858527D01*
X180131175Y-91816855D01*
X180286353Y-91745021D01*
X180418512Y-91640642D01*
X180526065Y-91502133D01*
X180607425Y-91327905D01*
X180641493Y-91186617D01*
X180948737Y-91186617D01*
X180955087Y-91332667D01*
X180974137Y-91466017D01*
X181067800Y-91686680D01*
X181253537Y-91831142D01*
X181387681Y-91869242D01*
X181555162Y-91881942D01*
X181729390Y-91874799D01*
X181890125Y-91853367D01*
X182032603Y-91824792D01*
X182152062Y-91796217D01*
X182152062Y-91097717D01*
X182440987Y-91097717D01*
X182453687Y-91267183D01*
X182491787Y-91419980D01*
X182553303Y-91554521D01*
X182636250Y-91669217D01*
X182738644Y-91762086D01*
X182858500Y-91831142D01*
X182994628Y-91874005D01*
X183145837Y-91888292D01*
X183297047Y-91874005D01*
X183433175Y-91831142D01*
X183552634Y-91762086D01*
X183653837Y-91669217D01*
X183735594Y-91554521D01*
X183796712Y-91419980D01*
X183834812Y-91267183D01*
X183847512Y-91097717D01*
X183834812Y-90930633D01*
X183796712Y-90778630D01*
X183735197Y-90644486D01*
X183652250Y-90530980D01*
X183549856Y-90439699D01*
X183430000Y-90372230D01*
X183294665Y-90330558D01*
X183145837Y-90316667D01*
X182998994Y-90330558D01*
X182863262Y-90372230D01*
X182742215Y-90439699D01*
X182639425Y-90530980D01*
X182556081Y-90644486D01*
X182493375Y-90778630D01*
X182454084Y-90930633D01*
X182440987Y-91097717D01*
X182152062Y-91097717D01*
X182152062Y-90354767D01*
X181758362Y-90354767D01*
X181758362Y-91526342D01*
X181580562Y-91542217D01*
X181388475Y-91442205D01*
X181351565Y-91315602D01*
X181339262Y-91135817D01*
X181339262Y-90354767D01*
X180948737Y-90354767D01*
X180948737Y-91186617D01*
X180641493Y-91186617D01*
X180658622Y-91115577D01*
X180675687Y-90862767D01*
X180660209Y-90615514D01*
X180613775Y-90407155D01*
X180539559Y-90234911D01*
X180440737Y-90096005D01*
X180317309Y-89990039D01*
X180169275Y-89916617D01*
X180000603Y-89873755D01*
X179815262Y-89859467D01*
X179596187Y-89868992D01*
X179345362Y-89907092D01*
X179345362Y-91824792D01*
X176675187Y-91824792D01*
X176675187Y-90738942D01*
X176837112Y-90708780D01*
X176999037Y-90700842D01*
X177084762Y-90704017D01*
X177189537Y-90715130D01*
X177295900Y-90732592D01*
X177386387Y-90751642D01*
X177456237Y-90389692D01*
X177334000Y-90359530D01*
X177199062Y-90340480D01*
X177073650Y-90329367D01*
X176983162Y-90326192D01*
X176777978Y-90334924D01*
X176600575Y-90361117D01*
X176439047Y-90401599D01*
X176281487Y-90453192D01*
X176281487Y-91847017D01*
X175627009Y-91847017D01*
X175802062Y-91799392D01*
X175748087Y-91466017D01*
X175568700Y-91516817D01*
X175344862Y-91542217D01*
X175171825Y-91521183D01*
X175033712Y-91458080D01*
X174943225Y-91358464D01*
X174913062Y-91227892D01*
X175881437Y-91227892D01*
X175886200Y-91161217D01*
X175887787Y-91081842D01*
X175868737Y-90852008D01*
X175811587Y-90662037D01*
X175716337Y-90511930D01*
X175584398Y-90403451D01*
X175417182Y-90338363D01*
X175214687Y-90316667D01*
X175082925Y-90329367D01*
X174954337Y-90367467D01*
X174834481Y-90430571D01*
X174728912Y-90518280D01*
X174640012Y-90630596D01*
X174570162Y-90767517D01*
X174524919Y-90928649D01*
X174509837Y-91113592D01*
X173880980Y-91113592D01*
X173849437Y-91072317D01*
X174332037Y-90354767D01*
X173935162Y-90354767D01*
X173630362Y-90821492D01*
X173300162Y-90354767D01*
X172890587Y-90354767D01*
X173414462Y-91078667D01*
X173270000Y-91265992D01*
X173127125Y-91464430D01*
X172996950Y-91661280D01*
X172887412Y-91847017D01*
X172533822Y-91847017D01*
X172719137Y-91783517D01*
X172668337Y-91469192D01*
X172496887Y-91527930D01*
X172366712Y-91542217D01*
X172203200Y-91477130D01*
X172153987Y-91278692D01*
X172153987Y-90354767D01*
X171350712Y-90354767D01*
X171086348Y-90354767D01*
X171067740Y-90135692D01*
X171049732Y-89926142D01*
X171645987Y-89926142D01*
X171717425Y-90107117D01*
X171890462Y-90173792D01*
X172065087Y-90107117D01*
X172138112Y-89926142D01*
X172065087Y-89741992D01*
X171890462Y-89675317D01*
X171717425Y-89741992D01*
X171645987Y-89926142D01*
X171049732Y-89926142D01*
X171045912Y-89881692D01*
X170722062Y-89881692D01*
X170664912Y-90049967D01*
X170595062Y-90267455D01*
X170515687Y-90508755D01*
X170436312Y-90751642D01*
X170363287Y-90523042D01*
X170287087Y-90278567D01*
X170215650Y-90053142D01*
X170160087Y-89881692D01*
X169836237Y-89881692D01*
X169815203Y-90096799D01*
X169796550Y-90329367D01*
X169780278Y-90574636D01*
X169766387Y-90827842D01*
X169754084Y-91085811D01*
X169742575Y-91345367D01*
X169731859Y-91600955D01*
X169721937Y-91847017D01*
X167507758Y-91847017D01*
X167558175Y-91831142D01*
X167677634Y-91762086D01*
X167778837Y-91669217D01*
X167860594Y-91554521D01*
X167921712Y-91419980D01*
X167959812Y-91267183D01*
X167972512Y-91097717D01*
X167959812Y-90930633D01*
X167921712Y-90778630D01*
X167860197Y-90644486D01*
X167777250Y-90530980D01*
X167674856Y-90439699D01*
X167555000Y-90372230D01*
X167419665Y-90330558D01*
X167270837Y-90316667D01*
X167123994Y-90330558D01*
X166988262Y-90372230D01*
X166867215Y-90439699D01*
X166764425Y-90530980D01*
X166681081Y-90644486D01*
X166618375Y-90778630D01*
X166579084Y-90930633D01*
X166565987Y-91097717D01*
X165803987Y-91097717D01*
X165803987Y-90354767D01*
X165000712Y-90354767D01*
X165000712Y-90678617D01*
X164664162Y-90678617D01*
X164664162Y-89926142D01*
X165295987Y-89926142D01*
X165367425Y-90107117D01*
X165540462Y-90173792D01*
X165715087Y-90107117D01*
X165788112Y-89926142D01*
X165715087Y-89741992D01*
X165540462Y-89675317D01*
X165367425Y-89741992D01*
X165295987Y-89926142D01*
X164664162Y-89926142D01*
X164664162Y-89643567D01*
X164273637Y-89710242D01*
X164273637Y-90389692D01*
X164140287Y-90340480D01*
X163984712Y-90323017D01*
X163803914Y-90346477D01*
X163655218Y-90416856D01*
X163538625Y-90534155D01*
X163454840Y-90692023D01*
X163404569Y-90884111D01*
X163387812Y-91110417D01*
X163102062Y-91110417D01*
X163102062Y-90354767D01*
X162708362Y-90354767D01*
X162708362Y-91526342D01*
X162530562Y-91542217D01*
X162338475Y-91442205D01*
X162301565Y-91315602D01*
X162289262Y-91135817D01*
X162289262Y-90354767D01*
X161898737Y-90354767D01*
X161898737Y-91186617D01*
X161520736Y-91186617D01*
X161469477Y-90994593D01*
X161414550Y-90797680D01*
X161345394Y-90558860D01*
X161276040Y-90326589D01*
X161206488Y-90100867D01*
X161136737Y-89881692D01*
X160711287Y-89881692D01*
X160644017Y-90099081D01*
X160575556Y-90322621D01*
X160505905Y-90552312D01*
X160435062Y-90788155D01*
X160378039Y-90983417D01*
X160321270Y-91186935D01*
X160264755Y-91398707D01*
X160208494Y-91618735D01*
X160152487Y-91847017D01*
X156135790Y-91847017D01*
X156176630Y-91699442D01*
X156232350Y-91530775D01*
X156296279Y-91365045D01*
X156368263Y-91202651D01*
X156448129Y-91043986D01*
X156535684Y-90889430D01*
X156630717Y-90739357D01*
X156732999Y-90594127D01*
X156842284Y-90454091D01*
X156958309Y-90319586D01*
X157080794Y-90190936D01*
X157209443Y-90068451D01*
X157343948Y-89952427D01*
X157483984Y-89843142D01*
X157629214Y-89740859D01*
X157779287Y-89645826D01*
X157933843Y-89558272D01*
X158092509Y-89478406D01*
X158254902Y-89406422D01*
X158420632Y-89342493D01*
X158589299Y-89286773D01*
X158760497Y-89239396D01*
X158933813Y-89200477D01*
X159108830Y-89170108D01*
X159285127Y-89148364D01*
X159462278Y-89135297D01*
X159639857Y-89130937D01*
X184360143Y-89130937D01*
X184537722Y-89135297D01*
X184714873Y-89148364D01*
X184891169Y-89170108D01*
X185066187Y-89200477D01*
X185239503Y-89239396D01*
X185410701Y-89286773D01*
X185579368Y-89342493D01*
X185745098Y-89406422D01*
X185907491Y-89478406D01*
X186066157Y-89558272D01*
X186220713Y-89645826D01*
X186370786Y-89740859D01*
X186516016Y-89843142D01*
X186656052Y-89952427D01*
X186790557Y-90068451D01*
X186919206Y-90190936D01*
X187041691Y-90319586D01*
X187157716Y-90454091D01*
X187267001Y-90594127D01*
X187369283Y-90739356D01*
X187464316Y-90889430D01*
X187551871Y-91043986D01*
X187631737Y-91202651D01*
X187703721Y-91365045D01*
X187767650Y-91530774D01*
X187823370Y-91699442D01*
X187870747Y-91870639D01*
X187909666Y-92043956D01*
X187940034Y-92218973D01*
X187961779Y-92395270D01*
X187974846Y-92572421D01*
X187979205Y-92750000D01*
X187974846Y-92927579D01*
X187961779Y-93104730D01*
X187940034Y-93281027D01*
X187909666Y-93456044D01*
X187870747Y-93629361D01*
X187823370Y-93800558D01*
X187767650Y-93969226D01*
X187703721Y-94134955D01*
X187631737Y-94297349D01*
X187551871Y-94456014D01*
X187464316Y-94610570D01*
X187369283Y-94760644D01*
X187267001Y-94905873D01*
X187157716Y-95045909D01*
X187041691Y-95180414D01*
X186919206Y-95309064D01*
X186790557Y-95431549D01*
X186656052Y-95547573D01*
X186516016Y-95656858D01*
X186370786Y-95759141D01*
X186220713Y-95854174D01*
X186066157Y-95941728D01*
X185907491Y-96021594D01*
X185745098Y-96093578D01*
X185579368Y-96157507D01*
X185410701Y-96213227D01*
X185239503Y-96260604D01*
X185066187Y-96299523D01*
X184891169Y-96329892D01*
X184714873Y-96351636D01*
X184537722Y-96364703D01*
X184360143Y-96369063D01*
G37*
G36*
X175354387Y-90670680D02*
G01*
X175443287Y-90742117D01*
X175494087Y-90842130D01*
X175509962Y-90958017D01*
X174913062Y-90958017D01*
X174940050Y-90840542D01*
X174997200Y-90738942D01*
X175089275Y-90669092D01*
X175221037Y-90643692D01*
X175354387Y-90670680D01*
G37*
G36*
X168864156Y-94672846D02*
G01*
X168956043Y-94763169D01*
X169008829Y-94902759D01*
X169026425Y-95080669D01*
X169007265Y-95258969D01*
X168949787Y-95399733D01*
X168854771Y-95491229D01*
X168723001Y-95521728D01*
X168588103Y-95491229D01*
X168496215Y-95399733D01*
X168443429Y-95258969D01*
X168425834Y-95080669D01*
X168444993Y-94902759D01*
X168502471Y-94763169D01*
X168597487Y-94672846D01*
X168729257Y-94642738D01*
X168864156Y-94672846D01*
G37*
G36*
X167407759Y-90686952D02*
G01*
X167501025Y-90778630D01*
X167554603Y-90920314D01*
X167572462Y-91100892D01*
X167553015Y-91281867D01*
X167494675Y-91424742D01*
X167398234Y-91517611D01*
X167264487Y-91548567D01*
X167127565Y-91517611D01*
X167034300Y-91424742D01*
X166980722Y-91281867D01*
X166962862Y-91100892D01*
X166982309Y-90920314D01*
X167040650Y-90778630D01*
X167137090Y-90686952D01*
X167270837Y-90656392D01*
X167407759Y-90686952D01*
G37*
G36*
X160973225Y-90473830D02*
G01*
X161024025Y-90670680D01*
X161066887Y-90865942D01*
X161104987Y-91069142D01*
X160720812Y-91069142D01*
X160760500Y-90865942D01*
X160804950Y-90670680D01*
X160855750Y-90473830D01*
X160914487Y-90262692D01*
X160973225Y-90473830D01*
G37*
G36*
X183282759Y-90686952D02*
G01*
X183376025Y-90778630D01*
X183429603Y-90920314D01*
X183447462Y-91100892D01*
X183428015Y-91281867D01*
X183369675Y-91424742D01*
X183273234Y-91517611D01*
X183139487Y-91548567D01*
X183002565Y-91517611D01*
X182909300Y-91424742D01*
X182855722Y-91281867D01*
X182837862Y-91100892D01*
X182857309Y-90920314D01*
X182915650Y-90778630D01*
X183012090Y-90686952D01*
X183145837Y-90656392D01*
X183282759Y-90686952D01*
G37*
G36*
X180062912Y-90254755D02*
G01*
X180193087Y-90402392D01*
X180259762Y-90615117D01*
X180278812Y-90862767D01*
X180272859Y-91002864D01*
X180255000Y-91131055D01*
X180175625Y-91342192D01*
X180029575Y-91481892D01*
X179805737Y-91532692D01*
X179770812Y-91532692D01*
X179735887Y-91529517D01*
X179735887Y-90208717D01*
X179793037Y-90200780D01*
X179850187Y-90199192D01*
X180062912Y-90254755D01*
G37*
G36*
X162616991Y-94656814D02*
G01*
X162704577Y-94727196D01*
X162754627Y-94825731D01*
X162770267Y-94939905D01*
X162182188Y-94939905D01*
X162208777Y-94824167D01*
X162265082Y-94724068D01*
X162355797Y-94655250D01*
X162485612Y-94630226D01*
X162616991Y-94656814D01*
G37*
%TO.C,RV5*%
X126180000Y-99021000D02*
X126180000Y-88980000D01*
X138420000Y-99021000D02*
X138420000Y-97371000D01*
X138420000Y-88980000D02*
X134483000Y-88980000D01*
X138420000Y-93129000D02*
X138420000Y-92370000D01*
X138420000Y-90630000D02*
X138420000Y-88980000D01*
X138420000Y-99021000D02*
X134483000Y-99021000D01*
X130116000Y-99021000D02*
X126180000Y-99021000D01*
X138420000Y-95629000D02*
X138420000Y-94870000D01*
X130116000Y-88980000D02*
X126180000Y-88980000D01*
D12*
%TO.C,J3*%
X210536000Y-69787600D02*
X210536000Y-62787600D01*
X199036000Y-72287600D02*
X199036000Y-60287600D01*
X199036000Y-60287600D02*
X210536000Y-60287600D01*
X210536000Y-69787600D02*
X210536000Y-72287600D01*
X214036000Y-62787600D02*
X214036000Y-69787600D01*
X214036000Y-69787600D02*
X210536000Y-69787600D01*
X210536000Y-60287600D02*
X210536000Y-62787600D01*
X210536000Y-72287600D02*
X199036000Y-72287600D01*
X210536000Y-62787600D02*
X214036000Y-62787600D01*
%TD*%
M02*
