M48
; DRILL file {KiCad (6.0.0)} date Sat Mar 12 11:12:16 2022
; FORMAT={-:-/ absolute / inch / decimal}
; #@! TF.CreationDate,2022-03-12T11:12:16-07:00
; #@! TF.GenerationSoftware,Kicad,Pcbnew,(6.0.0)
; #@! TF.FileFunction,Plated,1,2,PTH
FMAT,2
INCH
; #@! TA.AperFunction,Plated,PTH,ViaDrill
T1C0.0157
; #@! TA.AperFunction,Plated,PTH,ComponentDrill
T2C0.0197
; #@! TA.AperFunction,Plated,PTH,ComponentDrill
T3C0.0236
; #@! TA.AperFunction,Plated,PTH,ComponentDrill
T4C0.0315
; #@! TA.AperFunction,Plated,PTH,ComponentDrill
T5C0.0394
; #@! TA.AperFunction,Plated,PTH,ComponentDrill
T6C0.1260
%
G90
G05
T1
X5.561Y-3.2185
X5.7185Y-3.2185
X6.6687Y-2.8597
X6.6687Y-2.968
X7.6727Y-2.7613
X7.6727Y-2.8696
T2
X4.4035Y-1.3386
X4.4035Y-4.3602
X4.4312Y-1.2718
X4.4312Y-1.4054
X4.4312Y-4.2934
X4.4312Y-4.427
X4.498Y-1.2441
X4.498Y-1.4331
X4.498Y-4.2657
X4.498Y-4.4547
X4.5648Y-1.2718
X4.5648Y-1.4054
X4.5648Y-4.2934
X4.5648Y-4.427
X4.5925Y-1.3386
X4.5925Y-4.3602
X8.0059Y-1.3386
X8.0059Y-4.3602
X8.0336Y-1.2718
X8.0336Y-1.4054
X8.0336Y-4.2934
X8.0336Y-4.427
X8.1004Y-1.2441
X8.1004Y-1.4331
X8.1004Y-4.2657
X8.1004Y-4.4547
X8.1672Y-1.2718
X8.1672Y-1.4054
X8.1672Y-4.2934
X8.1672Y-4.427
X8.1949Y-1.3386
X8.1949Y-4.3602
T3
X6.0596Y-2.7295
X6.1187Y-2.7295
X6.6817Y-2.4697
X6.7407Y-2.4697
X7.2455Y-3.0398
X7.2455Y-3.0988
X7.6757Y-2.6452
X7.7348Y-2.6452
T4
X5.8483Y-2.129
X5.8483Y-2.529
X5.9793Y-2.128
X5.9793Y-2.528
X6.1103Y-2.127
X6.1103Y-2.527
X6.2507Y-2.4274
X6.2507Y-2.5274
X6.2507Y-2.6274
X6.2507Y-2.7274
X6.5507Y-2.4274
X6.5507Y-2.5274
X6.5507Y-2.6274
X6.5507Y-2.7274
X6.9691Y-2.3077
X6.9691Y-2.7077
X7.1011Y-2.3067
X7.1011Y-2.7067
X7.2455Y-2.6081
X7.2455Y-2.7081
X7.2455Y-2.8081
X7.2455Y-2.9081
X7.5455Y-2.6081
X7.5455Y-2.7081
X7.5455Y-2.8081
X7.5455Y-2.9081
T5
X4.5561Y-3.375
X4.5561Y-4.0453
X4.5581Y-2.3898
X4.5581Y-3.0591
X4.6561Y-3.375
X4.6561Y-4.0453
X4.6581Y-2.3898
X4.6581Y-3.0591
X4.7561Y-3.375
X4.7561Y-4.0453
X4.7581Y-2.3898
X4.7581Y-3.0591
X5.1628Y-1.9227
X5.1766Y-3.2185
X5.1953Y-4.2323
X5.2613Y-1.9227
X5.2766Y-3.2185
X5.2953Y-4.2323
X5.3597Y-1.9227
X5.3872Y-2.1678
X5.3872Y-2.2678
X5.4843Y-2.6083
X5.4843Y-2.7067
X5.4843Y-2.8051
X5.4843Y-3.6024
X5.4843Y-3.7008
X5.4843Y-3.7992
X5.5447Y-2.1678
X5.5447Y-2.2678
X5.7416Y-1.9227
X5.84Y-1.9227
X5.8668Y-3.1255
X5.9384Y-1.9227
X5.9668Y-3.1255
X6.0668Y-3.1255
X6.1668Y-3.1255
X6.592Y-2.1314
X6.6904Y-2.1314
X6.7888Y-2.1314
X7.967Y-2.9582
X8.067Y-2.9582
T6
X4.498Y-1.3386
X4.498Y-4.3602
X8.1004Y-1.3386
X8.1004Y-4.3602
T5
G00X7.9837Y-2.4129
M15
G01X7.964Y-2.4129
M16
G05
G00X7.9837Y-2.8066
M15
G01X7.964Y-2.8066
M16
G05
G00X8.1806Y-2.6097
M15
G01X8.1609Y-2.6097
M16
G05
T0
M30
