%TF.GenerationSoftware,KiCad,Pcbnew,(6.0.0)*%
%TF.CreationDate,2022-03-12T11:12:18-07:00*%
%TF.ProjectId,AudioMixer_Duo_LBB,41756469-6f4d-4697-9865-725f44756f5f,rev?*%
%TF.SameCoordinates,Original*%
%TF.FileFunction,Soldermask,Bot*%
%TF.FilePolarity,Negative*%
%FSLAX46Y46*%
G04 Gerber Fmt 4.6, Leading zero omitted, Abs format (unit mm)*
G04 Created by KiCad (PCBNEW (6.0.0)) date 2022-03-12 11:12:18*
%MOMM*%
%LPD*%
G01*
G04 APERTURE LIST*
%ADD10R,1.200000X1.200000*%
%ADD11C,1.200000*%
%ADD12R,1.700000X1.700000*%
%ADD13O,1.700000X1.700000*%
%ADD14C,1.600000*%
%ADD15O,1.600000X1.600000*%
%ADD16R,2.400000X1.600000*%
%ADD17O,2.400000X1.600000*%
%ADD18C,0.800000*%
%ADD19C,6.400000*%
%ADD20C,4.000000*%
%ADD21C,1.800000*%
%ADD22O,2.700000X1.350000*%
G04 APERTURE END LIST*
D10*
%TO.C,C1*%
X169714001Y-62729800D03*
D11*
X171214001Y-62729800D03*
%TD*%
D12*
%TO.C,J7*%
X202361000Y-75137600D03*
D13*
X204901000Y-75137600D03*
%TD*%
D10*
%TO.C,C3*%
X194963401Y-67187600D03*
D11*
X196463401Y-67187600D03*
%TD*%
D14*
%TO.C,R3*%
X155202000Y-64185600D03*
D15*
X155202000Y-54025600D03*
%TD*%
D14*
%TO.C,R5*%
X180367800Y-68750000D03*
D15*
X180367800Y-58590000D03*
%TD*%
D12*
%TO.C,J6*%
X156636000Y-79387600D03*
D13*
X154096000Y-79387600D03*
X151556000Y-79387600D03*
X149016000Y-79387600D03*
%TD*%
D10*
%TO.C,C4*%
X184036000Y-78710199D03*
D11*
X184036000Y-77210199D03*
%TD*%
D12*
%TO.C,J11*%
X134500000Y-107500000D03*
D13*
X131960000Y-107500000D03*
%TD*%
D16*
%TO.C,U2*%
X184035400Y-66245400D03*
D17*
X184035400Y-68785400D03*
X184035400Y-71325400D03*
X184035400Y-73865400D03*
X191655400Y-73865400D03*
X191655400Y-71325400D03*
X191655400Y-68785400D03*
X191655400Y-66245400D03*
%TD*%
D18*
%TO.C,H2*%
X204052944Y-112447056D03*
X203350000Y-110750000D03*
X207447056Y-112447056D03*
X205750000Y-108350000D03*
X208150000Y-110750000D03*
X207447056Y-109052944D03*
D19*
X205750000Y-110750000D03*
D18*
X205750000Y-113150000D03*
X204052944Y-109052944D03*
%TD*%
D10*
%TO.C,C2*%
X153914001Y-69329800D03*
D11*
X155414001Y-69329800D03*
%TD*%
D12*
%TO.C,J1*%
X115775000Y-77700000D03*
D13*
X118315000Y-77700000D03*
X120855000Y-77700000D03*
%TD*%
D12*
%TO.C,J5*%
X140836000Y-55062600D03*
D13*
X140836000Y-57602600D03*
%TD*%
D19*
%TO.C,H1*%
X114250000Y-34000000D03*
D18*
X112552944Y-35697056D03*
X112552944Y-32302944D03*
X114250000Y-36400000D03*
X115947056Y-32302944D03*
X114250000Y-31600000D03*
X116650000Y-34000000D03*
X115947056Y-35697056D03*
X111850000Y-34000000D03*
%TD*%
D14*
%TO.C,R1*%
X151874600Y-54051000D03*
D15*
X151874600Y-64211000D03*
%TD*%
D12*
%TO.C,J4*%
X136836000Y-55062600D03*
D13*
X136836000Y-57602600D03*
%TD*%
D14*
%TO.C,R4*%
X177015000Y-58615400D03*
D15*
X177015000Y-68775400D03*
%TD*%
D18*
%TO.C,H4*%
X114250000Y-113150000D03*
X115947056Y-109052944D03*
X112552944Y-112447056D03*
X116650000Y-110750000D03*
X112552944Y-109052944D03*
X111850000Y-110750000D03*
D19*
X114250000Y-110750000D03*
D18*
X114250000Y-108350000D03*
X115947056Y-112447056D03*
%TD*%
D12*
%TO.C,J2*%
X115775000Y-60700000D03*
D13*
X118315000Y-60700000D03*
X120855000Y-60700000D03*
%TD*%
D12*
%TO.C,J10*%
X134025000Y-81750000D03*
D13*
X131485000Y-81750000D03*
%TD*%
D12*
%TO.C,J8*%
X115725000Y-102750000D03*
D13*
X118265000Y-102750000D03*
X120805000Y-102750000D03*
%TD*%
D20*
%TO.C,RV1*%
X152736000Y-41837600D03*
X143936000Y-41837600D03*
D21*
X150836000Y-48837600D03*
X148336000Y-48837600D03*
X145836000Y-48837600D03*
%TD*%
D12*
%TO.C,J9*%
X115725000Y-85725000D03*
D13*
X118265000Y-85725000D03*
X120805000Y-85725000D03*
%TD*%
D16*
%TO.C,U1*%
X158768000Y-61655600D03*
D17*
X158768000Y-64195600D03*
X158768000Y-66735600D03*
X158768000Y-69275600D03*
X166388000Y-69275600D03*
X166388000Y-66735600D03*
X166388000Y-64195600D03*
X166388000Y-61655600D03*
%TD*%
D18*
%TO.C,H3*%
X207447056Y-32302944D03*
X203350000Y-34000000D03*
X204052944Y-35697056D03*
X208150000Y-34000000D03*
X204052944Y-32302944D03*
X207447056Y-35697056D03*
X205750000Y-36400000D03*
D19*
X205750000Y-34000000D03*
D18*
X205750000Y-31600000D03*
%TD*%
D20*
%TO.C,RV4*%
X132300000Y-73150000D03*
X132300000Y-64350000D03*
D21*
X139300000Y-66250000D03*
X139300000Y-68750000D03*
X139300000Y-71250000D03*
%TD*%
D20*
%TO.C,RV2*%
X129236000Y-41837600D03*
X138036000Y-41837600D03*
D21*
X136136000Y-48837600D03*
X133636000Y-48837600D03*
X131136000Y-48837600D03*
%TD*%
D20*
%TO.C,RV3*%
X174336000Y-47137600D03*
X165536000Y-47137600D03*
D21*
X172436000Y-54137600D03*
X169936000Y-54137600D03*
X167436000Y-54137600D03*
%TD*%
D14*
%TO.C,R2*%
X148547200Y-54076400D03*
D15*
X148547200Y-64236400D03*
%TD*%
D20*
%TO.C,RV5*%
X132300000Y-89600000D03*
X132300000Y-98400000D03*
D21*
X139300000Y-91500000D03*
X139300000Y-94000000D03*
X139300000Y-96500000D03*
%TD*%
D14*
%TO.C,J3*%
X207536000Y-61287600D03*
X207536000Y-71287600D03*
X202536000Y-66287600D03*
D22*
X202536000Y-71287600D03*
X207536000Y-66287600D03*
X202536000Y-61287600D03*
%TD*%
M02*
