%TF.GenerationSoftware,KiCad,Pcbnew,10.0.3*%
%TF.CreationDate,2026-06-30T02:28:00-06:00*%
%TF.ProjectId,2026_ESP32_FPAA_v3,32303236-5f45-4535-9033-325f46504141,rev?*%
%TF.SameCoordinates,Original*%
%TF.FileFunction,Copper,L1,Top*%
%TF.FilePolarity,Positive*%
%FSLAX46Y46*%
G04 Gerber Fmt 4.6, Leading zero omitted, Abs format (unit mm)*
G04 Created by KiCad (PCBNEW 10.0.3) date 2026-06-30 02:28:00*
%MOMM*%
%LPD*%
G01*
G04 APERTURE LIST*
G04 Aperture macros list*
%AMRoundRect*
0 Rectangle with rounded corners*
0 $1 Rounding radius*
0 $2 $3 $4 $5 $6 $7 $8 $9 X,Y pos of 4 corners*
0 Add a 4 corners polygon primitive as box body*
4,1,4,$2,$3,$4,$5,$6,$7,$8,$9,$2,$3,0*
0 Add four circle primitives for the rounded corners*
1,1,$1+$1,$2,$3*
1,1,$1+$1,$4,$5*
1,1,$1+$1,$6,$7*
1,1,$1+$1,$8,$9*
0 Add four rect primitives between the rounded corners*
20,1,$1+$1,$2,$3,$4,$5,0*
20,1,$1+$1,$4,$5,$6,$7,0*
20,1,$1+$1,$6,$7,$8,$9,0*
20,1,$1+$1,$8,$9,$2,$3,0*%
%AMOutline5P*
0 Free polygon, 5 corners , with rotation*
0 The origin of the aperture is its center*
0 number of corners: always 5*
0 $1 to $10 corner X, Y*
0 $11 Rotation angle, in degrees counterclockwise*
0 create outline with 5 corners*
4,1,5,$1,$2,$3,$4,$5,$6,$7,$8,$9,$10,$1,$2,$11*%
%AMOutline6P*
0 Free polygon, 6 corners , with rotation*
0 The origin of the aperture is its center*
0 number of corners: always 6*
0 $1 to $12 corner X, Y*
0 $13 Rotation angle, in degrees counterclockwise*
0 create outline with 6 corners*
4,1,6,$1,$2,$3,$4,$5,$6,$7,$8,$9,$10,$11,$12,$1,$2,$13*%
%AMOutline7P*
0 Free polygon, 7 corners , with rotation*
0 The origin of the aperture is its center*
0 number of corners: always 7*
0 $1 to $14 corner X, Y*
0 $15 Rotation angle, in degrees counterclockwise*
0 create outline with 7 corners*
4,1,7,$1,$2,$3,$4,$5,$6,$7,$8,$9,$10,$11,$12,$13,$14,$1,$2,$15*%
%AMOutline8P*
0 Free polygon, 8 corners , with rotation*
0 The origin of the aperture is its center*
0 number of corners: always 8*
0 $1 to $16 corner X, Y*
0 $17 Rotation angle, in degrees counterclockwise*
0 create outline with 8 corners*
4,1,8,$1,$2,$3,$4,$5,$6,$7,$8,$9,$10,$11,$12,$13,$14,$15,$16,$1,$2,$17*%
G04 Aperture macros list end*
%TA.AperFunction,ComponentPad*%
%ADD10R,1.700000X1.700000*%
%TD*%
%TA.AperFunction,ComponentPad*%
%ADD11O,1.700000X1.700000*%
%TD*%
%TA.AperFunction,SMDPad,CuDef*%
%ADD12RoundRect,0.250000X-0.350000X-0.450000X0.350000X-0.450000X0.350000X0.450000X-0.350000X0.450000X0*%
%TD*%
%TA.AperFunction,SMDPad,CuDef*%
%ADD13RoundRect,0.237500X0.237500X-0.300000X0.237500X0.300000X-0.237500X0.300000X-0.237500X-0.300000X0*%
%TD*%
%TA.AperFunction,SMDPad,CuDef*%
%ADD14RoundRect,0.250000X-0.450000X0.350000X-0.450000X-0.350000X0.450000X-0.350000X0.450000X0.350000X0*%
%TD*%
%TA.AperFunction,SMDPad,CuDef*%
%ADD15RoundRect,0.250000X-0.337500X-0.475000X0.337500X-0.475000X0.337500X0.475000X-0.337500X0.475000X0*%
%TD*%
%TA.AperFunction,SMDPad,CuDef*%
%ADD16RoundRect,0.150000X-0.512500X-0.150000X0.512500X-0.150000X0.512500X0.150000X-0.512500X0.150000X0*%
%TD*%
%TA.AperFunction,SMDPad,CuDef*%
%ADD17RoundRect,0.237500X0.237500X-0.250000X0.237500X0.250000X-0.237500X0.250000X-0.237500X-0.250000X0*%
%TD*%
%TA.AperFunction,SMDPad,CuDef*%
%ADD18RoundRect,0.250000X0.325000X0.450000X-0.325000X0.450000X-0.325000X-0.450000X0.325000X-0.450000X0*%
%TD*%
%TA.AperFunction,SMDPad,CuDef*%
%ADD19RoundRect,0.237500X-0.237500X0.300000X-0.237500X-0.300000X0.237500X-0.300000X0.237500X0.300000X0*%
%TD*%
%TA.AperFunction,SMDPad,CuDef*%
%ADD20RoundRect,0.150000X-0.500000X0.150000X-0.500000X-0.150000X0.500000X-0.150000X0.500000X0.150000X0*%
%TD*%
%TA.AperFunction,SMDPad,CuDef*%
%ADD21RoundRect,0.075000X-0.575000X0.075000X-0.575000X-0.075000X0.575000X-0.075000X0.575000X0.075000X0*%
%TD*%
%TA.AperFunction,ComponentPad*%
%ADD22O,2.100000X1.000000*%
%TD*%
%TA.AperFunction,ComponentPad*%
%ADD23O,1.600000X1.000000*%
%TD*%
%TA.AperFunction,SMDPad,CuDef*%
%ADD24RoundRect,0.250000X-0.450000X0.325000X-0.450000X-0.325000X0.450000X-0.325000X0.450000X0.325000X0*%
%TD*%
%TA.AperFunction,SMDPad,CuDef*%
%ADD25RoundRect,0.250000X0.450000X-0.350000X0.450000X0.350000X-0.450000X0.350000X-0.450000X-0.350000X0*%
%TD*%
%TA.AperFunction,SMDPad,CuDef*%
%ADD26RoundRect,0.250000X-0.312500X-1.450000X0.312500X-1.450000X0.312500X1.450000X-0.312500X1.450000X0*%
%TD*%
%TA.AperFunction,ComponentPad*%
%ADD27C,1.700000*%
%TD*%
%TA.AperFunction,SMDPad,CuDef*%
%ADD28R,0.650000X1.528000*%
%TD*%
%TA.AperFunction,SMDPad,CuDef*%
%ADD29R,2.350000X2.450000*%
%TD*%
%TA.AperFunction,SMDPad,CuDef*%
%ADD30RoundRect,0.237500X0.250000X0.237500X-0.250000X0.237500X-0.250000X-0.237500X0.250000X-0.237500X0*%
%TD*%
%TA.AperFunction,SMDPad,CuDef*%
%ADD31RoundRect,0.237500X-0.250000X-0.237500X0.250000X-0.237500X0.250000X0.237500X-0.250000X0.237500X0*%
%TD*%
%TA.AperFunction,SMDPad,CuDef*%
%ADD32RoundRect,0.237500X-0.237500X0.250000X-0.237500X-0.250000X0.237500X-0.250000X0.237500X0.250000X0*%
%TD*%
%TA.AperFunction,SMDPad,CuDef*%
%ADD33RoundRect,0.237500X0.300000X0.237500X-0.300000X0.237500X-0.300000X-0.237500X0.300000X-0.237500X0*%
%TD*%
%TA.AperFunction,SMDPad,CuDef*%
%ADD34RoundRect,0.250000X0.337500X0.475000X-0.337500X0.475000X-0.337500X-0.475000X0.337500X-0.475000X0*%
%TD*%
%TA.AperFunction,SMDPad,CuDef*%
%ADD35R,1.100000X1.300000*%
%TD*%
%TA.AperFunction,SMDPad,CuDef*%
%ADD36RoundRect,0.250000X0.450000X-0.325000X0.450000X0.325000X-0.450000X0.325000X-0.450000X-0.325000X0*%
%TD*%
%TA.AperFunction,SMDPad,CuDef*%
%ADD37R,1.500000X0.550000*%
%TD*%
%TA.AperFunction,SMDPad,CuDef*%
%ADD38RoundRect,0.375000X-0.625000X-0.375000X0.625000X-0.375000X0.625000X0.375000X-0.625000X0.375000X0*%
%TD*%
%TA.AperFunction,SMDPad,CuDef*%
%ADD39RoundRect,0.500000X-0.500000X-1.400000X0.500000X-1.400000X0.500000X1.400000X-0.500000X1.400000X0*%
%TD*%
%TA.AperFunction,SMDPad,CuDef*%
%ADD40RoundRect,0.237500X-0.300000X-0.237500X0.300000X-0.237500X0.300000X0.237500X-0.300000X0.237500X0*%
%TD*%
%TA.AperFunction,SMDPad,CuDef*%
%ADD41R,0.950000X0.300000*%
%TD*%
%TA.AperFunction,SMDPad,CuDef*%
%ADD42R,1.300000X2.100000*%
%TD*%
%TA.AperFunction,SMDPad,CuDef*%
%ADD43RoundRect,0.062500X-0.062500X0.375000X-0.062500X-0.375000X0.062500X-0.375000X0.062500X0.375000X0*%
%TD*%
%TA.AperFunction,SMDPad,CuDef*%
%ADD44RoundRect,0.062500X-0.375000X0.062500X-0.375000X-0.062500X0.375000X-0.062500X0.375000X0.062500X0*%
%TD*%
%TA.AperFunction,HeatsinkPad*%
%ADD45R,5.150000X5.150000*%
%TD*%
%TA.AperFunction,SMDPad,CuDef*%
%ADD46R,0.400000X0.800000*%
%TD*%
%TA.AperFunction,SMDPad,CuDef*%
%ADD47R,0.800000X0.400000*%
%TD*%
%TA.AperFunction,HeatsinkPad*%
%ADD48Outline5P,-0.600000X0.204000X-0.204000X0.600000X0.600000X0.600000X0.600000X-0.600000X-0.600000X-0.600000X270.000000*%
%TD*%
%TA.AperFunction,HeatsinkPad*%
%ADD49R,1.200000X1.200000*%
%TD*%
%TA.AperFunction,SMDPad,CuDef*%
%ADD50R,0.800000X0.800000*%
%TD*%
%TA.AperFunction,SMDPad,CuDef*%
%ADD51RoundRect,0.250000X0.475000X-0.337500X0.475000X0.337500X-0.475000X0.337500X-0.475000X-0.337500X0*%
%TD*%
%TA.AperFunction,SMDPad,CuDef*%
%ADD52RoundRect,0.250000X0.350000X0.450000X-0.350000X0.450000X-0.350000X-0.450000X0.350000X-0.450000X0*%
%TD*%
%TA.AperFunction,ViaPad*%
%ADD53C,0.600000*%
%TD*%
%TA.AperFunction,Conductor*%
%ADD54C,0.254000*%
%TD*%
%TA.AperFunction,Conductor*%
%ADD55C,0.200000*%
%TD*%
%TA.AperFunction,Conductor*%
%ADD56C,0.203200*%
%TD*%
%TA.AperFunction,Conductor*%
%ADD57C,0.250000*%
%TD*%
%TA.AperFunction,Conductor*%
%ADD58C,0.508000*%
%TD*%
%TA.AperFunction,Conductor*%
%ADD59C,0.304800*%
%TD*%
%TA.AperFunction,Conductor*%
%ADD60C,0.381000*%
%TD*%
G04 APERTURE END LIST*
D10*
%TO.P,J1,1,Pin_1_1*%
%TO.N,/AN_IO5P*%
X127940000Y-97460000D03*
D11*
%TO.P,J1,2,Pin_2_2*%
%TO.N,/AN_IO5N*%
X130480000Y-97460000D03*
%TO.P,J1,3,Pin_3_3*%
%TO.N,/AN_IO6P*%
X133020000Y-97460000D03*
%TO.P,J1,4,Pin_4_4*%
%TO.N,/AN_IO6N*%
X135560000Y-97460000D03*
%TO.P,J1,5,Pin_5_5*%
%TO.N,/AN_IO7P*%
X138100000Y-97460000D03*
%TO.P,J1,6,Pin_6_6*%
%TO.N,/AN_IO7N*%
X140640000Y-97460000D03*
%TO.P,J1,7,Pin_7_7*%
%TO.N,/OP_S5*%
X143180000Y-97460000D03*
%TO.P,J1,8,Pin_8_8*%
%TO.N,/OP_S6*%
X145720000Y-97460000D03*
%TD*%
D10*
%TO.P,J3,1,Pin_1_1*%
%TO.N,+5V*%
X150800000Y-97460000D03*
D11*
%TO.P,J3,2,Pin_2_2*%
%TO.N,GND*%
X153340000Y-97460000D03*
%TO.P,J3,3,Pin_3_3*%
%TO.N,/RX*%
X155880000Y-97460000D03*
%TO.P,J3,4,Pin_4_4*%
%TO.N,/TX*%
X158420000Y-97460000D03*
%TO.P,J3,5,Pin_5_5*%
%TO.N,/A0*%
X160960000Y-97460000D03*
%TO.P,J3,6,Pin_6_6*%
%TO.N,/A1*%
X163500000Y-97460000D03*
%TD*%
D10*
%TO.P,J2,1,Pin_1_1*%
%TO.N,/AN_I4P*%
X118796000Y-49200000D03*
D11*
%TO.P,J2,2,Pin_2_2*%
%TO.N,/AN_I4N*%
X121336000Y-49200000D03*
%TO.P,J2,3,Pin_3_3*%
%TO.N,/AN_O4N*%
X123876000Y-49200000D03*
%TO.P,J2,4,Pin_4_4*%
%TO.N,/AN_O4P*%
X126416000Y-49200000D03*
%TO.P,J2,5,Pin_5_5*%
%TO.N,/AN_O3P*%
X128956000Y-49200000D03*
%TO.P,J2,6,Pin_6_6*%
%TO.N,/AN_O3N*%
X131496000Y-49200000D03*
%TO.P,J2,7,Pin_7_7*%
%TO.N,/AN_I3N*%
X134036000Y-49200000D03*
%TO.P,J2,8,Pin_8_8*%
%TO.N,/AN_I3P*%
X136576000Y-49200000D03*
%TO.P,J2,9,Pin_9_9*%
%TO.N,/AN_I2P*%
X139116000Y-49200000D03*
%TO.P,J2,10,Pin_10_10*%
%TO.N,/AN_I2N*%
X141656000Y-49200000D03*
%TD*%
D10*
%TO.P,J4,1,Pin_1_1*%
%TO.N,/AN_O2N*%
X145720000Y-49200000D03*
D11*
%TO.P,J4,2,Pin_2_2*%
%TO.N,/AN_O2P*%
X148260000Y-49200000D03*
%TO.P,J4,3,Pin_3_3*%
%TO.N,/RA_S2*%
X150800000Y-49200000D03*
%TO.P,J4,4,Pin_4_4*%
%TO.N,/AN_O1P*%
X153340000Y-49200000D03*
%TO.P,J4,5,Pin_5_5*%
%TO.N,/AN_O1N*%
X155880000Y-49200000D03*
%TO.P,J4,6,Pin_6_6*%
%TO.N,/AN_I1N*%
X158420000Y-49200000D03*
%TO.P,J4,7,Pin_7_7*%
%TO.N,/AN_I1P*%
X160960000Y-49200000D03*
%TO.P,J4,8,Pin_8_8*%
%TO.N,/RA_S1*%
X163500000Y-49200000D03*
%TD*%
D12*
%TO.P,R3,1,~_1*%
%TO.N,/CONN_D-*%
X143170600Y-79045000D03*
%TO.P,R3,2,~_2*%
%TO.N,/ESD_D-*%
X145170600Y-79045000D03*
%TD*%
D13*
%TO.P,C24,1,~_1*%
%TO.N,+3V3*%
X123368000Y-59003300D03*
%TO.P,C24,2,~_2*%
%TO.N,GND*%
X123368000Y-57278300D03*
%TD*%
D14*
%TO.P,R16,1,~_1*%
%TO.N,Net-(D4-A)*%
X111074400Y-90976200D03*
%TO.P,R16,2,~_2*%
%TO.N,GND*%
X111074400Y-92976200D03*
%TD*%
D15*
%TO.P,C36,1,~_1*%
%TO.N,Net-(SW2A-D)*%
X159947900Y-67894400D03*
%TO.P,C36,2,~_2*%
%TO.N,GND*%
X162022900Y-67894400D03*
%TD*%
D16*
%TO.P,U5,1,I/O1_1*%
%TO.N,/USB_D-*%
X111390200Y-74015800D03*
%TO.P,U5,2,GND_2*%
%TO.N,GND*%
X111390200Y-74965800D03*
%TO.P,U5,3,I/O2_3*%
%TO.N,/USB_D+*%
X111390200Y-75915800D03*
%TO.P,U5,4,I/O2_4*%
%TO.N,/CONN_D+*%
X113665200Y-75915800D03*
%TO.P,U5,5,VBUS_5*%
%TO.N,Vusb*%
X113665200Y-74965800D03*
%TO.P,U5,6,I/O1_6*%
%TO.N,/CONN_D-*%
X113665200Y-74015800D03*
%TD*%
D17*
%TO.P,R15,1,~_1*%
%TO.N,Net-(IC1-+IN_A)*%
X136218500Y-80465500D03*
%TO.P,R15,2,~_2*%
%TO.N,/AN_IO6P*%
X136218500Y-78640500D03*
%TD*%
D18*
%TO.P,D5,1,K_1*%
%TO.N,GND*%
X145703600Y-87808000D03*
%TO.P,D5,2,A_2*%
%TO.N,Net-(D5-A)*%
X143653600Y-87808000D03*
%TD*%
D19*
%TO.P,C19,1,~_1*%
%TO.N,Net-(IC1--IN_B)*%
X126566500Y-85446900D03*
%TO.P,C19,2,~_2*%
%TO.N,Net-(IC1-OUT_B)*%
X126566500Y-87171900D03*
%TD*%
D20*
%TO.P,J5,A1,GND_A1*%
%TO.N,GND*%
X107707400Y-71857200D03*
%TO.P,J5,A4,VBUS_A4*%
%TO.N,Net-(F1-~-Pad1)*%
X107707400Y-72657200D03*
D21*
%TO.P,J5,A5,CC1_A5*%
%TO.N,Net-(J5-CC1)*%
X107707400Y-73807200D03*
%TO.P,J5,A6,D+_A6*%
%TO.N,/USB_D+*%
X107707400Y-74807200D03*
%TO.P,J5,A7,D-_A7*%
%TO.N,/USB_D-*%
X107707400Y-75307200D03*
%TO.P,J5,A8*%
%TO.N,N/C*%
X107707400Y-76307200D03*
D20*
%TO.P,J5,A9,VBUS_A9*%
%TO.N,Net-(F1-~-Pad1)*%
X107707400Y-77457200D03*
%TO.P,J5,A12,GND_A12*%
%TO.N,GND*%
X107707400Y-78257200D03*
%TO.P,J5,B1,GND_B1*%
X107707400Y-78257200D03*
%TO.P,J5,B4,VBUS_B4*%
%TO.N,Net-(F1-~-Pad1)*%
X107707400Y-77457200D03*
D21*
%TO.P,J5,B5,CC2_B5*%
%TO.N,Net-(J5-CC2)*%
X107707400Y-76807200D03*
%TO.P,J5,B6,D+_B6*%
%TO.N,/USB_D+*%
X107707400Y-75807200D03*
%TO.P,J5,B7,D-_B7*%
%TO.N,/USB_D-*%
X107707400Y-74307200D03*
%TO.P,J5,B8*%
%TO.N,N/C*%
X107707400Y-73307200D03*
D20*
%TO.P,J5,B9,VBUS_B9*%
%TO.N,Net-(F1-~-Pad1)*%
X107707400Y-72657200D03*
%TO.P,J5,B12,GND_B12*%
%TO.N,GND*%
X107707400Y-71857200D03*
D22*
%TO.P,J5,SH,SHIELD_SH*%
X107067400Y-70737200D03*
D23*
X102887400Y-70737200D03*
D22*
X107067400Y-79377200D03*
D23*
X102887400Y-79377200D03*
%TD*%
D24*
%TO.P,D4,1,K_1*%
%TO.N,-3V3*%
X111074400Y-86928600D03*
%TO.P,D4,2,A_2*%
%TO.N,Net-(D4-A)*%
X111074400Y-88978600D03*
%TD*%
D25*
%TO.P,R1,1,~_1*%
%TO.N,Net-(D2-A)*%
X110541000Y-68081600D03*
%TO.P,R1,2,~_2*%
%TO.N,+5V*%
X110541000Y-66081600D03*
%TD*%
D26*
%TO.P,F1,1,~_1*%
%TO.N,Net-(F1-~-Pad1)*%
X103806100Y-67107000D03*
%TO.P,F1,2,~_2*%
%TO.N,+5V*%
X108081100Y-67107000D03*
%TD*%
D10*
%TO.P,J6,1,Pin_1_1*%
%TO.N,+3V3*%
X110972800Y-49149200D03*
D27*
%TO.P,J6,2,Pin_2_2*%
X108432800Y-49149200D03*
%TO.P,J6,3,Pin_3_3*%
%TO.N,GND*%
X105892800Y-49149200D03*
%TO.P,J6,4,Pin_4_4*%
X103352800Y-49149200D03*
%TD*%
D28*
%TO.P,IC2,1,SD_1*%
%TO.N,GND*%
X104953000Y-92569600D03*
%TO.P,IC2,2,CAP+_2*%
%TO.N,Net-(IC2-CAP+)*%
X106223000Y-92569600D03*
%TO.P,IC2,3,GND_3*%
%TO.N,GND*%
X107493000Y-92569600D03*
%TO.P,IC2,4,CAP-_4*%
%TO.N,Net-(IC2-CAP-)*%
X108763000Y-92569600D03*
%TO.P,IC2,5,OUT_5*%
%TO.N,-3V3*%
X108763000Y-87147600D03*
%TO.P,IC2,6,LV_6*%
%TO.N,GND*%
X107493000Y-87147600D03*
%TO.P,IC2,7,OSC_7*%
%TO.N,unconnected-(IC2-OSC-Pad7)*%
X106223000Y-87147600D03*
%TO.P,IC2,8,V+_8*%
%TO.N,+3V3*%
X104953000Y-87147600D03*
%TD*%
D13*
%TO.P,C29,1,~_1*%
%TO.N,/AN_O2P*%
X139876100Y-66343900D03*
%TO.P,C29,2,~_2*%
%TO.N,/AN_I2N*%
X139876100Y-64618900D03*
%TD*%
D14*
%TO.P,R6,1,~_1*%
%TO.N,Net-(D3-A)*%
X105435600Y-53889600D03*
%TO.P,R6,2,~_2*%
%TO.N,+3V3*%
X105435600Y-55889600D03*
%TD*%
D29*
%TO.P,C1,1*%
%TO.N,Net-(IC2-CAP+)*%
X103885000Y-96742000D03*
%TO.P,C1,2*%
%TO.N,Net-(IC2-CAP-)*%
X110085000Y-96742000D03*
%TD*%
D15*
%TO.P,C37,1,~_1*%
%TO.N,-3V3*%
X130560100Y-83464600D03*
%TO.P,C37,2,~_2*%
%TO.N,GND*%
X132635100Y-83464600D03*
%TD*%
D30*
%TO.P,R20,1,~_1*%
%TO.N,/OP_S5*%
X128342600Y-88976400D03*
%TO.P,R20,2,~_2*%
%TO.N,Net-(IC1-OUT_B)*%
X126517600Y-88976400D03*
%TD*%
D19*
%TO.P,C30,1,~_1*%
%TO.N,Net-(U4-VREFN)*%
X127736800Y-70283100D03*
%TO.P,C30,2,~_2*%
%TO.N,GND*%
X127736800Y-72008100D03*
%TD*%
D31*
%TO.P,R30,1,~_1*%
%TO.N,/AN_O1P*%
X153494300Y-64695100D03*
%TO.P,R30,2,~_2*%
%TO.N,Net-(C21-~-Pad1)*%
X155319300Y-64695100D03*
%TD*%
D32*
%TO.P,R21,1,~_1*%
%TO.N,Net-(IC1--IN_B)*%
X128217500Y-85422300D03*
%TO.P,R21,2,~_2*%
%TO.N,Net-(IC1-OUT_B)*%
X128217500Y-87247300D03*
%TD*%
D33*
%TO.P,C20,1,~_1*%
%TO.N,GND*%
X130930400Y-78867200D03*
%TO.P,C20,2,~_2*%
%TO.N,Net-(IC1-+IN_B)*%
X129205400Y-78867200D03*
%TD*%
D13*
%TO.P,C23,1,~_1*%
%TO.N,/AN_O1P*%
X151790600Y-64770200D03*
%TO.P,C23,2,~_2*%
%TO.N,/AN_I1N*%
X151790600Y-63045200D03*
%TD*%
D25*
%TO.P,R13,1,~_1*%
%TO.N,Net-(SW1A-D)*%
X156083200Y-92110000D03*
%TO.P,R13,2,~_2*%
%TO.N,+3V3*%
X156083200Y-90110000D03*
%TD*%
D32*
%TO.P,R23,1,~_1*%
%TO.N,/AN_IO5P*%
X127502500Y-78869100D03*
%TO.P,R23,2,~_2*%
%TO.N,Net-(IC1-+IN_B)*%
X127502500Y-80694100D03*
%TD*%
D34*
%TO.P,C14,1,~_1*%
%TO.N,+3V3*%
X114245500Y-60731600D03*
%TO.P,C14,2,~_2*%
%TO.N,GND*%
X112170500Y-60731600D03*
%TD*%
D35*
%TO.P,Y1,1,EN_1*%
%TO.N,+3V3*%
X133502666Y-70847960D03*
%TO.P,Y1,2,GND/CASE_2*%
%TO.N,GND*%
X133502666Y-68747960D03*
%TO.P,Y1,3,OUTPUT_3*%
%TO.N,Net-(U4-ACLK)*%
X131852666Y-68747960D03*
%TO.P,Y1,4,VDD_4*%
%TO.N,+3V3*%
X131852666Y-70847960D03*
%TD*%
D30*
%TO.P,R19,1,~_1*%
%TO.N,Net-(IC1-OUT_A)*%
X136824300Y-89027200D03*
%TO.P,R19,2,~_2*%
%TO.N,/OP_S6*%
X134999300Y-89027200D03*
%TD*%
D31*
%TO.P,R32,1,~_1*%
%TO.N,Net-(C27-~-Pad1)*%
X146761400Y-64490800D03*
%TO.P,R32,2,~_2*%
%TO.N,GND*%
X148586400Y-64490800D03*
%TD*%
D34*
%TO.P,C38,1,~_1*%
%TO.N,GND*%
X132609700Y-89281200D03*
%TO.P,C38,2,~_2*%
%TO.N,+3V3*%
X130534700Y-89281200D03*
%TD*%
D36*
%TO.P,D3,1,K_1*%
%TO.N,GND*%
X103200400Y-55889200D03*
%TO.P,D3,2,A_2*%
%TO.N,Net-(D3-A)*%
X103200400Y-53839200D03*
%TD*%
D15*
%TO.P,C34,1,~_1*%
%TO.N,+3V3*%
X159947900Y-70053400D03*
%TO.P,C34,2,~_2*%
%TO.N,GND*%
X162022900Y-70053400D03*
%TD*%
D37*
%TO.P,SW2,1,C_1*%
%TO.N,GND*%
X157531000Y-65913800D03*
%TO.P,SW2,2,D_2*%
%TO.N,Net-(SW2A-D)*%
X157531000Y-69163800D03*
%TD*%
D31*
%TO.P,R36,1,~_1*%
%TO.N,/AN_O2P*%
X141505500Y-66294200D03*
%TO.P,R36,2,~_2*%
%TO.N,Net-(C27-~-Pad1)*%
X143330500Y-66294200D03*
%TD*%
D38*
%TO.P,U6,1,GND_1*%
%TO.N,GND*%
X108000600Y-53631000D03*
%TO.P,U6,2,VO_2*%
%TO.N,+3V3*%
X108000600Y-55931000D03*
D39*
X114300600Y-55931000D03*
D38*
%TO.P,U6,3,VI_3*%
%TO.N,+5V*%
X108000600Y-58231000D03*
%TD*%
D31*
%TO.P,R11,1,~_1*%
%TO.N,Net-(U4-ERRb)*%
X131421700Y-63728800D03*
%TO.P,R11,2,~_2*%
%TO.N,+3V3*%
X133246700Y-63728800D03*
%TD*%
D40*
%TO.P,C26,1,~_1*%
%TO.N,+3V3*%
X131624100Y-65837000D03*
%TO.P,C26,2,~_2*%
%TO.N,GND*%
X133349100Y-65837000D03*
%TD*%
D12*
%TO.P,R8,1,~_1*%
%TO.N,Net-(J5-CC2)*%
X111268200Y-78079800D03*
%TO.P,R8,2,~_2*%
%TO.N,GND*%
X113268200Y-78079800D03*
%TD*%
D31*
%TO.P,R33,1,~_1*%
%TO.N,/AN_O2N*%
X141529000Y-61112600D03*
%TO.P,R33,2,~_2*%
%TO.N,Net-(C27-~-Pad2)*%
X143354000Y-61112600D03*
%TD*%
D34*
%TO.P,C16,1,~_1*%
%TO.N,+3V3*%
X114245500Y-62916000D03*
%TO.P,C16,2,~_2*%
%TO.N,GND*%
X112170500Y-62916000D03*
%TD*%
D19*
%TO.P,C31,1,~_1*%
%TO.N,Net-(U4-VMR)*%
X126096600Y-70283100D03*
%TO.P,C31,2,~_2*%
%TO.N,GND*%
X126096600Y-72008100D03*
%TD*%
D30*
%TO.P,R24,1,~_1*%
%TO.N,GND*%
X130982300Y-80518200D03*
%TO.P,R24,2,~_2*%
%TO.N,Net-(IC1-+IN_B)*%
X129157300Y-80518200D03*
%TD*%
D12*
%TO.P,R4,1,~_1*%
%TO.N,/CONN_D+*%
X143170600Y-81153200D03*
%TO.P,R4,2,~_2*%
%TO.N,/ESD_D+*%
X145170600Y-81153200D03*
%TD*%
D41*
%TO.P,IC1,1,OUT_A_1*%
%TO.N,Net-(IC1-OUT_A)*%
X132947900Y-87123600D03*
%TO.P,IC1,2,-IN_A_2*%
%TO.N,Net-(IC1--IN_A)*%
X132947900Y-86623600D03*
%TO.P,IC1,3,+IN_A_3*%
%TO.N,Net-(IC1-+IN_A)*%
X132947900Y-86123600D03*
%TO.P,IC1,4,V-_4*%
%TO.N,-3V3*%
X132947900Y-85623600D03*
%TO.P,IC1,5,+IN_B_5*%
%TO.N,Net-(IC1-+IN_B)*%
X130147900Y-85623600D03*
%TO.P,IC1,6,-IN_B_6*%
%TO.N,Net-(IC1--IN_B)*%
X130147900Y-86123600D03*
%TO.P,IC1,7,OUT_B_7*%
%TO.N,Net-(IC1-OUT_B)*%
X130147900Y-86623600D03*
%TO.P,IC1,8,V+_8*%
%TO.N,+3V3*%
X130147900Y-87123600D03*
D42*
%TO.P,IC1,9,EP_9*%
%TO.N,-3V3*%
X131547900Y-86373600D03*
%TD*%
D13*
%TO.P,C22,1,~_1*%
%TO.N,/AN_I1P*%
X151792500Y-61341200D03*
%TO.P,C22,2,~_2*%
%TO.N,/AN_O1N*%
X151792500Y-59616200D03*
%TD*%
D33*
%TO.P,C33,1,~_1*%
%TO.N,+3V3*%
X133576366Y-72947560D03*
%TO.P,C33,2,~_2*%
%TO.N,GND*%
X131851366Y-72947560D03*
%TD*%
D31*
%TO.P,R28,1,~_1*%
%TO.N,/AN_I1N*%
X153494300Y-63069500D03*
%TO.P,R28,2,~_2*%
%TO.N,Net-(C21-~-Pad1)*%
X155319300Y-63069500D03*
%TD*%
D43*
%TO.P,U4,1,I1P_1*%
%TO.N,/AN_I1P*%
X128392600Y-60738500D03*
%TO.P,U4,2,I1N_2*%
%TO.N,/AN_I1N*%
X127892600Y-60738500D03*
%TO.P,U4,3,O1N_3*%
%TO.N,/AN_O1N*%
X127392600Y-60738500D03*
%TO.P,U4,4,O1P_4*%
%TO.N,/AN_O1P*%
X126892600Y-60738500D03*
%TO.P,U4,5,AVSS_5*%
%TO.N,GND*%
X126392600Y-60738500D03*
%TO.P,U4,6,O2P_6*%
%TO.N,/AN_O2P*%
X125892600Y-60738500D03*
%TO.P,U4,7,O2N_7*%
%TO.N,/AN_O2N*%
X125392600Y-60738500D03*
%TO.P,U4,8,I2N_8*%
%TO.N,/AN_I2N*%
X124892600Y-60738500D03*
%TO.P,U4,9,I2P_9*%
%TO.N,/AN_I2P*%
X124392600Y-60738500D03*
%TO.P,U4,10,AVDD_10*%
%TO.N,+3V3*%
X123892600Y-60738500D03*
%TO.P,U4,11,I3P_11*%
%TO.N,/AN_I3P*%
X123392600Y-60738500D03*
D44*
%TO.P,U4,12,I3N_12*%
%TO.N,/AN_I3N*%
X122455100Y-61676000D03*
%TO.P,U4,13,O3N_13*%
%TO.N,/AN_O3N*%
X122455100Y-62176000D03*
%TO.P,U4,14,O3P_14*%
%TO.N,/AN_O3P*%
X122455100Y-62676000D03*
%TO.P,U4,15,IO5P_15*%
%TO.N,/AN_IO5P*%
X122455100Y-63176000D03*
%TO.P,U4,16,IO5N_16*%
%TO.N,/AN_IO5N*%
X122455100Y-63676000D03*
%TO.P,U4,17,IO6P_17*%
%TO.N,/AN_IO6P*%
X122455100Y-64176000D03*
%TO.P,U4,18,IO6N_18*%
%TO.N,/AN_IO6N*%
X122455100Y-64676000D03*
%TO.P,U4,19,IO7P_19*%
%TO.N,/AN_IO7P*%
X122455100Y-65176000D03*
%TO.P,U4,20,IO7N_20*%
%TO.N,/AN_IO7N*%
X122455100Y-65676000D03*
%TO.P,U4,21,O4P_21*%
%TO.N,/AN_O4P*%
X122455100Y-66176000D03*
%TO.P,U4,22,O4N_22*%
%TO.N,/AN_O4N*%
X122455100Y-66676000D03*
D43*
%TO.P,U4,23,I4N_23*%
%TO.N,/AN_I4N*%
X123392600Y-67613500D03*
%TO.P,U4,24,I4P_24*%
%TO.N,/AN_I4P*%
X123892600Y-67613500D03*
%TO.P,U4,25,BVDD_25*%
%TO.N,+3V3*%
X124392600Y-67613500D03*
%TO.P,U4,26,VREFP_26*%
%TO.N,Net-(U4-VREFP)*%
X124892600Y-67613500D03*
%TO.P,U4,27,VMR_27*%
%TO.N,Net-(U4-VMR)*%
X125392600Y-67613500D03*
%TO.P,U4,28,VREFN_28*%
%TO.N,Net-(U4-VREFN)*%
X125892600Y-67613500D03*
%TO.P,U4,29,BVSS_29*%
%TO.N,GND*%
X126392600Y-67613500D03*
%TO.P,U4,30,CFGFLGGb_30*%
%TO.N,unconnected-(U4-CFGFLGGb-Pad30)*%
X126892600Y-67613500D03*
%TO.P,U4,31,CS2b_31*%
%TO.N,/AN_CS2b*%
X127392600Y-67613500D03*
%TO.P,U4,32,CS1b_32*%
%TO.N,GND*%
X127892600Y-67613500D03*
%TO.P,U4,33,SCLK_33*%
%TO.N,/AN_SCLK*%
X128392600Y-67613500D03*
D44*
%TO.P,U4,34,ACLK_34*%
%TO.N,Net-(U4-ACLK)*%
X129330100Y-66676000D03*
%TO.P,U4,35,MODE_35*%
%TO.N,GND*%
X129330100Y-66176000D03*
%TO.P,U4,36,DVDD_36*%
%TO.N,+3V3*%
X129330100Y-65676000D03*
%TO.P,U4,37,DVSS_37*%
%TO.N,GND*%
X129330100Y-65176000D03*
%TO.P,U4,38,SI_38*%
%TO.N,/AN_SI*%
X129330100Y-64676000D03*
%TO.P,U4,39,LCCb_39*%
%TO.N,unconnected-(U4-LCCb-Pad39)*%
X129330100Y-64176000D03*
%TO.P,U4,40,ERRb_40*%
%TO.N,Net-(U4-ERRb)*%
X129330100Y-63676000D03*
%TO.P,U4,41,ACTIVATE_41*%
%TO.N,/AN_ACT*%
X129330100Y-63176000D03*
%TO.P,U4,42,MEMCLK_42*%
%TO.N,unconnected-(U4-MEMCLK-Pad42)*%
X129330100Y-62676000D03*
%TO.P,U4,43,SO_43*%
%TO.N,unconnected-(U4-SO-Pad43)*%
X129330100Y-62176000D03*
%TO.P,U4,44,RESETb_44*%
%TO.N,/AN_PORB*%
X129330100Y-61676000D03*
D45*
%TO.P,U4,45,GND_45*%
%TO.N,GND*%
X125892600Y-64176000D03*
%TD*%
D31*
%TO.P,R22,1,~_1*%
%TO.N,/AN_IO5N*%
X124714200Y-83667800D03*
%TO.P,R22,2,~_2*%
%TO.N,Net-(IC1--IN_B)*%
X126539200Y-83667800D03*
%TD*%
D10*
%TO.P,J7,1,Pin_1_1*%
%TO.N,GND*%
X113462000Y-81529200D03*
D27*
%TO.P,J7,2,Pin_2_2*%
%TO.N,-3V3*%
X113462000Y-84069200D03*
%TD*%
D46*
%TO.P,U2,1,GND_1*%
%TO.N,GND*%
X161399200Y-72628200D03*
%TO.P,U2,2,GND_2*%
X160549200Y-72628200D03*
%TO.P,U2,3,3V3_3*%
%TO.N,+3V3*%
X159699200Y-72628200D03*
%TO.P,U2,4,IO0_4*%
%TO.N,Net-(SW2A-D)*%
X158849200Y-72628200D03*
%TO.P,U2,5,IO1_5*%
%TO.N,unconnected-(U2-IO1-Pad5)*%
X157999200Y-72628200D03*
%TO.P,U2,6,IO2_6*%
%TO.N,unconnected-(U2-IO2-Pad6)*%
X157149200Y-72628200D03*
%TO.P,U2,7,IO3_7*%
%TO.N,unconnected-(U2-IO3-Pad7)*%
X156299200Y-72628200D03*
%TO.P,U2,8,IO4_8*%
%TO.N,/A1*%
X155449200Y-72628200D03*
%TO.P,U2,9,IO5_9*%
%TO.N,/A0*%
X154599200Y-72628200D03*
%TO.P,U2,10,IO6_10*%
%TO.N,unconnected-(U2-IO6-Pad10)*%
X153749200Y-72628200D03*
%TO.P,U2,11,IO7_11*%
%TO.N,unconnected-(U2-IO7-Pad11)*%
X152899200Y-72628200D03*
%TO.P,U2,12,IO8_12*%
%TO.N,unconnected-(U2-IO8-Pad12)*%
X152049200Y-72628200D03*
%TO.P,U2,13,IO9_13*%
%TO.N,unconnected-(U2-IO9-Pad13)*%
X151199200Y-72628200D03*
%TO.P,U2,14,IO10_14*%
%TO.N,unconnected-(U2-IO10-Pad14)*%
X150349200Y-72628200D03*
%TO.P,U2,15,IO11_15*%
%TO.N,/AN_PORB*%
X149499200Y-72628200D03*
D47*
%TO.P,U2,16,IO12_16*%
%TO.N,/AN_ACT*%
X148449200Y-73678200D03*
%TO.P,U2,17,IO13_17*%
%TO.N,/AN_SI*%
X148449200Y-74528200D03*
%TO.P,U2,18,IO14_18*%
%TO.N,/AN_SCLK*%
X148449200Y-75378200D03*
%TO.P,U2,19,IO15_19*%
%TO.N,/AN_CS2b*%
X148449200Y-76228200D03*
%TO.P,U2,20,IO16_20*%
%TO.N,unconnected-(U2-IO16-Pad20)*%
X148449200Y-77078200D03*
%TO.P,U2,21,IO17_21*%
%TO.N,unconnected-(U2-IO17-Pad21)*%
X148449200Y-77928200D03*
%TO.P,U2,22,IO18_22*%
%TO.N,unconnected-(U2-IO18-Pad22)*%
X148449200Y-78778200D03*
%TO.P,U2,23,USB_D-_23*%
%TO.N,/ESD_D-*%
X148449200Y-79628200D03*
%TO.P,U2,24,USB_D+_24*%
%TO.N,/ESD_D+*%
X148449200Y-80478200D03*
%TO.P,U2,25,IO21_25*%
%TO.N,unconnected-(U2-IO21-Pad25)*%
X148449200Y-81328200D03*
%TO.P,U2,26,IO26_26*%
%TO.N,unconnected-(U2-IO26-Pad26)*%
X148449200Y-82178200D03*
%TO.P,U2,27,IO47_27*%
%TO.N,unconnected-(U2-IO47-Pad27)*%
X148449200Y-83028200D03*
%TO.P,U2,28,IO33_28*%
%TO.N,unconnected-(U2-IO33-Pad28)*%
X148449200Y-83878200D03*
%TO.P,U2,29,IO34_29*%
%TO.N,unconnected-(U2-IO34-Pad29)*%
X148449200Y-84728200D03*
%TO.P,U2,30,IO48_30*%
%TO.N,/USER_LED*%
X148449200Y-85578200D03*
D46*
%TO.P,U2,31,IO35_31*%
%TO.N,unconnected-(U2-IO35-Pad31)*%
X149499200Y-86628200D03*
%TO.P,U2,32,IO36_32*%
%TO.N,unconnected-(U2-IO36-Pad32)*%
X150349200Y-86628200D03*
%TO.P,U2,33,IO37_33*%
%TO.N,unconnected-(U2-IO37-Pad33)*%
X151199200Y-86628200D03*
%TO.P,U2,34,IO38_34*%
%TO.N,/RX*%
X152049200Y-86628200D03*
%TO.P,U2,35,IO39_35*%
%TO.N,/TX*%
X152899200Y-86628200D03*
%TO.P,U2,36,IO40_36*%
%TO.N,unconnected-(U2-IO40-Pad36)*%
X153749200Y-86628200D03*
%TO.P,U2,37,IO41_37*%
%TO.N,unconnected-(U2-IO41-Pad37)*%
X154599200Y-86628200D03*
%TO.P,U2,38,IO42_38*%
%TO.N,unconnected-(U2-IO42-Pad38)*%
X155449200Y-86628200D03*
%TO.P,U2,39,TXD0_39*%
%TO.N,unconnected-(U2-TXD0-Pad39)*%
X156299200Y-86628200D03*
%TO.P,U2,40,RXD0_40*%
%TO.N,unconnected-(U2-RXD0-Pad40)*%
X157149200Y-86628200D03*
%TO.P,U2,41,IO45_41*%
%TO.N,unconnected-(U2-IO45-Pad41)*%
X157999200Y-86628200D03*
%TO.P,U2,42,GND_42*%
%TO.N,GND*%
X158849200Y-86628200D03*
%TO.P,U2,43,GND_43*%
X159699200Y-86628200D03*
%TO.P,U2,44,IO46_44*%
%TO.N,unconnected-(U2-IO46-Pad44)*%
X160549200Y-86628200D03*
%TO.P,U2,45,EN_45*%
%TO.N,Net-(SW1A-D)*%
X161399200Y-86628200D03*
D47*
%TO.P,U2,46,GND_46*%
%TO.N,GND*%
X162449200Y-85578200D03*
%TO.P,U2,47,GND_47*%
X162449200Y-84728200D03*
%TO.P,U2,48,GND_48*%
X162449200Y-83878200D03*
%TO.P,U2,49,GND_49*%
X162449200Y-83028200D03*
%TO.P,U2,50,GND_50*%
X162449200Y-82178200D03*
%TO.P,U2,51,GND_51*%
X162449200Y-81328200D03*
%TO.P,U2,52,GND_52*%
X162449200Y-80478200D03*
%TO.P,U2,53,GND_53*%
X162449200Y-79628200D03*
%TO.P,U2,54,GND_54*%
X162449200Y-78778200D03*
%TO.P,U2,55,GND_55*%
X162449200Y-77928200D03*
%TO.P,U2,56,GND_56*%
X162449200Y-77078200D03*
%TO.P,U2,57,GND_57*%
X162449200Y-76228200D03*
%TO.P,U2,58,GND_58*%
X162449200Y-75378200D03*
%TO.P,U2,59,GND_59*%
X162449200Y-74528200D03*
%TO.P,U2,60,GND_60*%
X162449200Y-73678200D03*
D48*
%TO.P,U2,61,GND_61*%
X157099200Y-77978200D03*
D49*
X155449200Y-77978200D03*
X153799200Y-77978200D03*
X157099200Y-79628200D03*
X155449200Y-79628200D03*
X153799200Y-79628200D03*
X157099200Y-81278200D03*
X155449200Y-81278200D03*
X153799200Y-81278200D03*
D50*
%TO.P,U2,62,GND_62*%
X162449200Y-72628200D03*
%TO.P,U2,63,GND_63*%
X148449200Y-72628200D03*
%TO.P,U2,64,GND_64*%
X148449200Y-86628200D03*
%TO.P,U2,65,GND_65*%
X162449200Y-86628200D03*
%TD*%
D12*
%TO.P,R9,1,~_1*%
%TO.N,Net-(D5-A)*%
X143678600Y-85623600D03*
%TO.P,R9,2,~_2*%
%TO.N,/USER_LED*%
X145678600Y-85623600D03*
%TD*%
D34*
%TO.P,C15,1,~_1*%
%TO.N,+5V*%
X108022500Y-63170000D03*
%TO.P,C15,2,~_2*%
%TO.N,GND*%
X105947500Y-63170000D03*
%TD*%
D19*
%TO.P,C32,1,~_1*%
%TO.N,Net-(U4-VREFP)*%
X124471000Y-70279200D03*
%TO.P,C32,2,~_2*%
%TO.N,GND*%
X124471000Y-72004200D03*
%TD*%
D13*
%TO.P,C17,1,~_1*%
%TO.N,Net-(IC1-OUT_A)*%
X136751900Y-87171900D03*
%TO.P,C17,2,~_2*%
%TO.N,Net-(IC1--IN_A)*%
X136751900Y-85446900D03*
%TD*%
D37*
%TO.P,SW1,1,C_1*%
%TO.N,GND*%
X161112400Y-92074600D03*
%TO.P,SW1,2,D_2*%
%TO.N,Net-(SW1A-D)*%
X161112400Y-88824600D03*
%TD*%
D31*
%TO.P,R34,1,~_1*%
%TO.N,/AN_I2P*%
X141554400Y-62763600D03*
%TO.P,R34,2,~_2*%
%TO.N,Net-(C27-~-Pad2)*%
X143379400Y-62763600D03*
%TD*%
%TO.P,R14,1,~_1*%
%TO.N,Net-(IC1--IN_A)*%
X136728400Y-83617000D03*
%TO.P,R14,2,~_2*%
%TO.N,/AN_IO6N*%
X138553400Y-83617000D03*
%TD*%
D13*
%TO.P,C27,1,~_1*%
%TO.N,Net-(C27-~-Pad1)*%
X145133900Y-64540500D03*
%TO.P,C27,2,~_2*%
%TO.N,Net-(C27-~-Pad2)*%
X145133900Y-62815500D03*
%TD*%
D31*
%TO.P,R25,1,~_1*%
%TO.N,Net-(C21-~-Pad2)*%
X158853700Y-61342300D03*
%TO.P,R25,2,~_2*%
%TO.N,/RA_S1*%
X160678700Y-61342300D03*
%TD*%
%TO.P,R26,1,~_1*%
%TO.N,Net-(C21-~-Pad1)*%
X158853700Y-63094900D03*
%TO.P,R26,2,~_2*%
%TO.N,GND*%
X160678700Y-63094900D03*
%TD*%
D19*
%TO.P,C25,1,~_1*%
%TO.N,+3V3*%
X122845400Y-70279200D03*
%TO.P,C25,2,~_2*%
%TO.N,GND*%
X122845400Y-72004200D03*
%TD*%
D29*
%TO.P,C2,1*%
%TO.N,GND*%
X103554800Y-83178400D03*
%TO.P,C2,2*%
%TO.N,-3V3*%
X109754800Y-83178400D03*
%TD*%
D17*
%TO.P,R17,1,~_1*%
%TO.N,Net-(IC1-OUT_A)*%
X135075500Y-87221900D03*
%TO.P,R17,2,~_2*%
%TO.N,Net-(IC1--IN_A)*%
X135075500Y-85396900D03*
%TD*%
D13*
%TO.P,C21,1,~_1*%
%TO.N,Net-(C21-~-Pad1)*%
X157124600Y-63119200D03*
%TO.P,C21,2,~_2*%
%TO.N,Net-(C21-~-Pad2)*%
X157124600Y-61394200D03*
%TD*%
%TO.P,C28,1,~_1*%
%TO.N,/AN_I2P*%
X139876100Y-62864100D03*
%TO.P,C28,2,~_2*%
%TO.N,/AN_O2N*%
X139876100Y-61139100D03*
%TD*%
D31*
%TO.P,R29,1,~_1*%
%TO.N,/AN_O1N*%
X153496200Y-59716700D03*
%TO.P,R29,2,~_2*%
%TO.N,Net-(C21-~-Pad2)*%
X155321200Y-59716700D03*
%TD*%
%TO.P,R31,1,~_1*%
%TO.N,Net-(C27-~-Pad2)*%
X146761400Y-62814400D03*
%TO.P,R31,2,~_2*%
%TO.N,/RA_S2*%
X148586400Y-62814400D03*
%TD*%
D51*
%TO.P,C35,1,~_1*%
%TO.N,Net-(SW1A-D)*%
X158369200Y-92096700D03*
%TO.P,C35,2,~_2*%
%TO.N,GND*%
X158369200Y-90021700D03*
%TD*%
D24*
%TO.P,D2,1,K_1*%
%TO.N,GND*%
X112903200Y-66056600D03*
%TO.P,D2,2,A_2*%
%TO.N,Net-(D2-A)*%
X112903200Y-68106600D03*
%TD*%
D31*
%TO.P,R12,1,~_1*%
%TO.N,/AN_PORB*%
X131396300Y-61214200D03*
%TO.P,R12,2,~_2*%
%TO.N,+3V3*%
X133221300Y-61214200D03*
%TD*%
%TO.P,R27,1,~_1*%
%TO.N,/AN_I1P*%
X153496200Y-61342300D03*
%TO.P,R27,2,~_2*%
%TO.N,Net-(C21-~-Pad2)*%
X155321200Y-61342300D03*
%TD*%
D34*
%TO.P,C13,1,~_1*%
%TO.N,+5V*%
X107946300Y-60833200D03*
%TO.P,C13,2,~_2*%
%TO.N,GND*%
X105871300Y-60833200D03*
%TD*%
D31*
%TO.P,R18,1,~_1*%
%TO.N,GND*%
X132689800Y-80492800D03*
%TO.P,R18,2,~_2*%
%TO.N,Net-(IC1-+IN_A)*%
X134514800Y-80492800D03*
%TD*%
D40*
%TO.P,C18,1,~_1*%
%TO.N,GND*%
X132765200Y-78841800D03*
%TO.P,C18,2,~_2*%
%TO.N,Net-(IC1-+IN_A)*%
X134490200Y-78841800D03*
%TD*%
D52*
%TO.P,R7,1,~_1*%
%TO.N,GND*%
X113319000Y-71755200D03*
%TO.P,R7,2,~_2*%
%TO.N,Net-(J5-CC1)*%
X111319000Y-71755200D03*
%TD*%
D31*
%TO.P,R35,1,~_1*%
%TO.N,/AN_I2N*%
X141529000Y-64592400D03*
%TO.P,R35,2,~_2*%
%TO.N,Net-(C27-~-Pad1)*%
X143354000Y-64592400D03*
%TD*%
D53*
%TO.N,GND*%
X162788800Y-92888000D03*
%TO.N,/A1*%
X162128400Y-93980200D03*
%TO.N,/A0*%
X154330600Y-73812600D03*
%TO.N,/A1*%
X155448200Y-73863400D03*
%TO.N,/AN_IO5P*%
X116179800Y-79324400D03*
X126263600Y-78918000D03*
X119431000Y-61696800D03*
%TO.N,/AN_IO5N*%
X117170400Y-76301800D03*
X122961600Y-83667800D03*
X119456400Y-62611200D03*
%TO.N,/AN_IO6P*%
X118389600Y-78257600D03*
X134594800Y-77267000D03*
X119481800Y-63576400D03*
%TO.N,/AN_IO6N*%
X119532600Y-64668600D03*
X138531800Y-84937800D03*
X119558000Y-76505000D03*
%TO.N,/AN_IO7P*%
X120878800Y-78587800D03*
X119608800Y-65659200D03*
%TO.N,/AN_IO7N*%
X120447000Y-66294200D03*
X121844000Y-76327200D03*
%TO.N,+5V*%
X106477000Y-66954600D03*
%TO.N,GND*%
X113081000Y-60757000D03*
X113817600Y-94208800D03*
X152882800Y-74879400D03*
X105054600Y-83185200D03*
X158369200Y-90932200D03*
X161442600Y-76251000D03*
X161442600Y-78791000D03*
X161391800Y-82220000D03*
X144805600Y-87782600D03*
X123876000Y-62128600D03*
X161950600Y-58979000D03*
X127914600Y-62128600D03*
X107467600Y-86055400D03*
X111049000Y-93904000D03*
X141478200Y-81483400D03*
X127838400Y-66141800D03*
X133350200Y-66624400D03*
X106858000Y-63170000D03*
X122845400Y-72868900D03*
X161417200Y-80518200D03*
X149479200Y-85572800D03*
X112903200Y-66954600D03*
X102108200Y-88824000D03*
X125958800Y-64033600D03*
X155448200Y-77013000D03*
X147320200Y-91262400D03*
X132766000Y-78054400D03*
X126071200Y-72868900D03*
X131699200Y-89281200D03*
X155295800Y-69012000D03*
X150952400Y-84506000D03*
X161417200Y-83896400D03*
X150266600Y-88646200D03*
X134375566Y-68731160D03*
X104953000Y-93675400D03*
X160680600Y-63881200D03*
X160528200Y-73736400D03*
X159664600Y-85623600D03*
X161417200Y-77114600D03*
X126035000Y-66192600D03*
X102082800Y-91694200D03*
X152374800Y-68910400D03*
X113309600Y-70713800D03*
X118846800Y-98450600D03*
X139598600Y-81483400D03*
X109321800Y-53060800D03*
X164643000Y-53568800D03*
X115189200Y-76962200D03*
X130937200Y-78079800D03*
X164693800Y-55169000D03*
X149428400Y-73609400D03*
X113081000Y-62916000D03*
X155422800Y-82220000D03*
X161417200Y-79654600D03*
X150749200Y-81610400D03*
X158851800Y-85598200D03*
X124471000Y-72868900D03*
X107467600Y-93675400D03*
X141300400Y-77394000D03*
X162204600Y-92075200D03*
X124180800Y-57251800D03*
X161417200Y-74549200D03*
X161112400Y-67869000D03*
X127747600Y-72868900D03*
X148590200Y-65303600D03*
X127838400Y-63982800D03*
X102819400Y-76581200D03*
X138684200Y-72212400D03*
X146532800Y-77317800D03*
X147421800Y-94183400D03*
X150546000Y-77317800D03*
X146583600Y-83159800D03*
X122987000Y-77368600D03*
X158039000Y-79629200D03*
X161417200Y-77952800D03*
X161391800Y-83083600D03*
X161417200Y-75387400D03*
X161112400Y-70053400D03*
X131724600Y-83515400D03*
X123799800Y-66218000D03*
X159639200Y-76886000D03*
X102667000Y-73584000D03*
X158597800Y-65938600D03*
X101600200Y-51867000D03*
X161417200Y-81356400D03*
X103175000Y-54991200D03*
X159156600Y-83490000D03*
X166522600Y-96393200D03*
X131826200Y-72161600D03*
X161391800Y-85572800D03*
X152857400Y-79629200D03*
X132689800Y-81280200D03*
X144145200Y-54737200D03*
X161391800Y-84734600D03*
X106781800Y-60833200D03*
X158597800Y-74777800D03*
X161391800Y-73711000D03*
X110388600Y-74981000D03*
X122936200Y-82067600D03*
X105054600Y-82321600D03*
X105054600Y-84023400D03*
X141503600Y-83363000D03*
X111506200Y-58293200D03*
X113258800Y-79121200D03*
X125984200Y-62103200D03*
X139370000Y-77419400D03*
X150292000Y-90652800D03*
X134823400Y-59537800D03*
X101828800Y-58064600D03*
X106858000Y-52756000D03*
X123876000Y-64033600D03*
X130988000Y-81305600D03*
X155321200Y-84480600D03*
X144018200Y-52375000D03*
X109347200Y-53721200D03*
%TO.N,/AN_I2P*%
X137541200Y-59487000D03*
%TO.N,/AN_I2N*%
X138481000Y-63728800D03*
%TO.N,/AN_O2N*%
X139928800Y-59766400D03*
%TO.N,/AN_O2P*%
X140741600Y-68021400D03*
%TO.N,/RA_S2*%
X147447200Y-59918800D03*
%TO.N,/AN_O1P*%
X150571400Y-64795600D03*
%TO.N,/AN_O1N*%
X150698400Y-59512400D03*
%TO.N,/AN_I1N*%
X150673000Y-63068400D03*
%TO.N,/AN_I1P*%
X150571400Y-61290400D03*
%TO.N,+3V3*%
X134518600Y-61214200D03*
X158826400Y-70510600D03*
X122250400Y-58039200D03*
X131343600Y-91160800D03*
X156108600Y-88392200D03*
X114579600Y-53035400D03*
X132080200Y-67234000D03*
X121539200Y-70002600D03*
X134493200Y-63779600D03*
X135711066Y-72972960D03*
%TO.N,-3V3*%
X114249400Y-86944400D03*
X130073600Y-81915200D03*
%TO.N,/A0*%
X159512200Y-94640600D03*
%TD*%
%TO.N,/A1*%
D54*
X163500000Y-95351800D02*
X163500000Y-97460000D01*
X162128400Y-93980200D02*
X163500000Y-95351800D01*
%TO.N,/A0*%
X160960000Y-96088400D02*
X160960000Y-97460000D01*
X154599200Y-72628200D02*
X154599200Y-73544000D01*
X154599200Y-73544000D02*
X154330600Y-73812600D01*
%TO.N,/A1*%
X155449200Y-73862400D02*
X155448200Y-73863400D01*
X155449200Y-72628200D02*
X155449200Y-73862400D01*
%TO.N,/AN_IO5P*%
D55*
X127453600Y-78918000D02*
X127502500Y-78869100D01*
D56*
X121342000Y-63176000D02*
X119862800Y-61696800D01*
D55*
X116179800Y-79324400D02*
X116179800Y-95961400D01*
X116179800Y-95961400D02*
X117678400Y-97460000D01*
D56*
X119862800Y-61696800D02*
X119431000Y-61696800D01*
X122455100Y-63176000D02*
X121342000Y-63176000D01*
D55*
X126263600Y-78918000D02*
X127453600Y-78918000D01*
X117678400Y-97460000D02*
X127940000Y-97460000D01*
%TO.N,/AN_IO5N*%
X129743400Y-95834400D02*
X118288000Y-95834400D01*
X130480000Y-96571000D02*
X129743400Y-95834400D01*
X118288000Y-95834400D02*
X117170400Y-94716800D01*
D56*
X119456400Y-62611200D02*
X119939000Y-62611200D01*
X122455100Y-63676000D02*
X121003800Y-63676000D01*
D55*
X117170400Y-94716800D02*
X117170400Y-76301800D01*
X130480000Y-97460000D02*
X130480000Y-96571000D01*
D56*
X119939000Y-62611200D02*
X121003800Y-63676000D01*
D55*
X124714200Y-83667800D02*
X122961600Y-83667800D01*
%TO.N,/AN_IO6P*%
X131775400Y-94945400D02*
X133020000Y-96190000D01*
X133020000Y-96190000D02*
X133020000Y-97460000D01*
D56*
X122455100Y-64176000D02*
X120665600Y-64176000D01*
X120066000Y-63576400D02*
X119481800Y-63576400D01*
D55*
X136169600Y-78591600D02*
X136218500Y-78640500D01*
X118389600Y-93675400D02*
X119659600Y-94945400D01*
X118389600Y-93675400D02*
X118389600Y-78257600D01*
X136169600Y-77648000D02*
X136169600Y-78591600D01*
D56*
X120665600Y-64176000D02*
X120066000Y-63576400D01*
D55*
X135788600Y-77267000D02*
X136169600Y-77648000D01*
X119659600Y-94945400D02*
X131775400Y-94945400D01*
X134594800Y-77267000D02*
X135788600Y-77267000D01*
%TO.N,/AN_IO6N*%
X120777200Y-94005600D02*
X119583400Y-92811800D01*
X138531800Y-83638600D02*
X138553400Y-83617000D01*
X135560000Y-95377200D02*
X134188400Y-94005600D01*
X138531800Y-84937800D02*
X138531800Y-83638600D01*
D56*
X119540000Y-64676000D02*
X119532600Y-64668600D01*
D55*
X134188400Y-94005600D02*
X120777200Y-94005600D01*
X119583400Y-92811800D02*
X119583400Y-76530400D01*
D56*
X122455100Y-64676000D02*
X119540000Y-64676000D01*
D55*
X119583400Y-76530400D02*
X119558000Y-76505000D01*
X135560000Y-97460000D02*
X135560000Y-95377200D01*
%TO.N,/AN_IO7P*%
X122250400Y-93294400D02*
X137134800Y-93294400D01*
X138100000Y-94259600D02*
X138100000Y-97460000D01*
X120878800Y-78587800D02*
X120878800Y-91922800D01*
D56*
X122455100Y-65176000D02*
X120092000Y-65176000D01*
D55*
X137134800Y-93294400D02*
X138100000Y-94259600D01*
D56*
X120092000Y-65176000D02*
X119608800Y-65659200D01*
D55*
X120878800Y-91922800D02*
X122250400Y-93294400D01*
%TO.N,/AN_IO7N*%
X121844000Y-76327200D02*
X121844000Y-90500400D01*
X139116000Y-92684800D02*
X140640000Y-94208800D01*
X121844000Y-90500400D02*
X124028400Y-92684800D01*
D56*
X122455100Y-65676000D02*
X121065200Y-65676000D01*
X121065200Y-65676000D02*
X120447000Y-66294200D01*
D55*
X124028400Y-92684800D02*
X139116000Y-92684800D01*
X140640000Y-94208800D02*
X140640000Y-97460000D01*
%TO.N,/OP_S5*%
D57*
X128342600Y-88976400D02*
X128342600Y-91360200D01*
X140614600Y-92100600D02*
X143180000Y-94666000D01*
X143180000Y-94666000D02*
X143180000Y-97460000D01*
X128342600Y-91360200D02*
X129083000Y-92100600D01*
X129083000Y-92100600D02*
X140614600Y-92100600D01*
%TO.N,/OP_S6*%
D56*
X134999300Y-89634900D02*
X135585400Y-90221000D01*
D57*
X142164000Y-90221000D02*
X145720000Y-93777000D01*
D56*
X134999300Y-89027200D02*
X134999300Y-89634900D01*
D57*
X145720000Y-93777000D02*
X145720000Y-97460000D01*
X135585400Y-90221000D02*
X142164000Y-90221000D01*
%TO.N,+5V*%
D58*
X106477000Y-66954600D02*
X107928700Y-66954600D01*
X107928700Y-66954600D02*
X108081100Y-67107000D01*
%TO.N,GND*%
X113309600Y-70713800D02*
X113309600Y-71745800D01*
D59*
X161438200Y-74528200D02*
X161417200Y-74549200D01*
D58*
X130988000Y-81305600D02*
X130988000Y-80523900D01*
D59*
X162412800Y-77114600D02*
X162449200Y-77078200D01*
D56*
X149479200Y-85598200D02*
X148449200Y-86628200D01*
D59*
X162449200Y-72628200D02*
X162449200Y-72653600D01*
D56*
X149479200Y-85572800D02*
X149479200Y-85598200D01*
D58*
X113081000Y-60757000D02*
X112195900Y-60757000D01*
X107707400Y-71857200D02*
X107707400Y-71377200D01*
X103561600Y-83185200D02*
X103554800Y-83178400D01*
D59*
X162449200Y-73678200D02*
X161424600Y-73678200D01*
D56*
X126392600Y-67613500D02*
X126392600Y-64676000D01*
D59*
X162393800Y-83083600D02*
X162449200Y-83028200D01*
X159664600Y-85623600D02*
X159699200Y-85658200D01*
D58*
X158369200Y-90932200D02*
X158369200Y-90021700D01*
D56*
X129330100Y-65176000D02*
X126892600Y-65176000D01*
D58*
X132765200Y-78841800D02*
X132765200Y-78055200D01*
X122845400Y-72868900D02*
X122845400Y-72004200D01*
D59*
X162440000Y-75387400D02*
X162449200Y-75378200D01*
X161391800Y-83083600D02*
X162393800Y-83083600D01*
D58*
X103175000Y-54991200D02*
X103175000Y-55863800D01*
X107707400Y-71377200D02*
X107067400Y-70737200D01*
D56*
X126892600Y-65176000D02*
X125892600Y-64176000D01*
D58*
X109321800Y-53060800D02*
X108570800Y-53060800D01*
X131851366Y-72186766D02*
X131851366Y-72947560D01*
X162022900Y-67894400D02*
X161137800Y-67894400D01*
D59*
X161417200Y-80518200D02*
X162409200Y-80518200D01*
X161417200Y-79654600D02*
X162422800Y-79654600D01*
X161417200Y-77114600D02*
X162412800Y-77114600D01*
D58*
X107707400Y-78257200D02*
X107707400Y-78737200D01*
X144805600Y-87782600D02*
X145678200Y-87782600D01*
D56*
X126392600Y-64676000D02*
X125892600Y-64176000D01*
X129330100Y-66176000D02*
X127892600Y-66176000D01*
D58*
X108570800Y-53060800D02*
X108000600Y-53631000D01*
X105054600Y-84023400D02*
X104209600Y-83178400D01*
D56*
X126392600Y-60738500D02*
X126392600Y-63676000D01*
D58*
X112195900Y-60757000D02*
X112170500Y-60731600D01*
X131724600Y-83515400D02*
X132584300Y-83515400D01*
X161137800Y-67894400D02*
X161112400Y-67869000D01*
X155422800Y-82220000D02*
X155449200Y-82193600D01*
X127747600Y-72868900D02*
X127736800Y-72858100D01*
X130937200Y-78860400D02*
X130930400Y-78867200D01*
D59*
X161399200Y-73703600D02*
X161391800Y-73711000D01*
D56*
X127892600Y-67613500D02*
X127892600Y-66176000D01*
D59*
X161465400Y-76228200D02*
X162449200Y-76228200D01*
D58*
X107467600Y-93675400D02*
X107467600Y-92595000D01*
X158039000Y-79629200D02*
X157100200Y-79629200D01*
D59*
X160549200Y-73715400D02*
X160528200Y-73736400D01*
D58*
X148586400Y-65299800D02*
X148590200Y-65303600D01*
X105054600Y-82321600D02*
X104411600Y-82321600D01*
D56*
X149428400Y-73609400D02*
X148449200Y-72630200D01*
D58*
X133350200Y-66624400D02*
X133350200Y-65838100D01*
X132584300Y-83515400D02*
X132635100Y-83464600D01*
D59*
X158849200Y-85600800D02*
X158851800Y-85598200D01*
D58*
X131826200Y-72161600D02*
X131851366Y-72186766D01*
X112903200Y-66954600D02*
X112903200Y-66056600D01*
X108090800Y-53721200D02*
X108000600Y-53631000D01*
D59*
X161442600Y-76251000D02*
X161465400Y-76228200D01*
D58*
X160678700Y-63879300D02*
X160680600Y-63881200D01*
D56*
X127892600Y-66176000D02*
X125892600Y-64176000D01*
D58*
X155448200Y-77977200D02*
X155449200Y-77978200D01*
X107707400Y-78737200D02*
X107067400Y-79377200D01*
X134358766Y-68747960D02*
X133502666Y-68747960D01*
D59*
X161417200Y-81356400D02*
X162421000Y-81356400D01*
D58*
X107493000Y-87147600D02*
X107493000Y-86080800D01*
X131699200Y-89281200D02*
X132609700Y-89281200D01*
X106781800Y-60833200D02*
X105871300Y-60833200D01*
X152857400Y-79629200D02*
X153798200Y-79629200D01*
X113258800Y-78089200D02*
X113268200Y-78079800D01*
X113081000Y-62916000D02*
X112170500Y-62916000D01*
D59*
X162449200Y-72653600D02*
X161391800Y-73711000D01*
D58*
X126071200Y-72868900D02*
X126071200Y-72033500D01*
X133350200Y-65838100D02*
X133349100Y-65837000D01*
D59*
X162436400Y-78791000D02*
X162449200Y-78778200D01*
X162421000Y-81356400D02*
X162449200Y-81328200D01*
D58*
X104209600Y-83178400D02*
X103554800Y-83178400D01*
X155448200Y-77013000D02*
X155448200Y-77977200D01*
D59*
X162449200Y-86628200D02*
X162449200Y-85578200D01*
D58*
X111049000Y-93001600D02*
X111074400Y-92976200D01*
X158597800Y-65938600D02*
X158573000Y-65913800D01*
D59*
X162422800Y-79654600D02*
X162449200Y-79628200D01*
D58*
X127736800Y-72858100D02*
X127736800Y-72008100D01*
X113258800Y-79121200D02*
X113258800Y-78089200D01*
D59*
X161417200Y-77952800D02*
X162424600Y-77952800D01*
D58*
X107733000Y-53631000D02*
X108000600Y-53631000D01*
D59*
X161397200Y-85578200D02*
X161391800Y-85572800D01*
D58*
X111049000Y-93904000D02*
X111049000Y-93001600D01*
X158573000Y-65913800D02*
X157531000Y-65913800D01*
D59*
X161424600Y-73678200D02*
X161391800Y-73711000D01*
D58*
X105054600Y-83185200D02*
X103561600Y-83185200D01*
X161113000Y-92075200D02*
X161112400Y-92074600D01*
X107467600Y-92595000D02*
X107493000Y-92569600D01*
D59*
X158849200Y-86628200D02*
X158849200Y-85600800D01*
D56*
X148449200Y-72630200D02*
X148449200Y-72628200D01*
D59*
X162431000Y-83896400D02*
X162449200Y-83878200D01*
D58*
X110388600Y-74981000D02*
X111375000Y-74981000D01*
X155449200Y-82193600D02*
X155449200Y-81278200D01*
X153798200Y-79629200D02*
X153799200Y-79628200D01*
X104953000Y-93675400D02*
X104953000Y-92569600D01*
X134375566Y-68731160D02*
X134358766Y-68747960D01*
X104411600Y-82321600D02*
X103554800Y-83178400D01*
X145678200Y-87782600D02*
X145703600Y-87808000D01*
D59*
X162409200Y-80518200D02*
X162449200Y-80478200D01*
D58*
X162204600Y-92075200D02*
X161113000Y-92075200D01*
X109347200Y-53721200D02*
X108090800Y-53721200D01*
X162022900Y-70053400D02*
X161112400Y-70053400D01*
X130937200Y-78079800D02*
X130937200Y-78860400D01*
D59*
X162449200Y-85578200D02*
X161397200Y-85578200D01*
X162424600Y-77952800D02*
X162449200Y-77928200D01*
D56*
X126392600Y-63676000D02*
X125892600Y-64176000D01*
D59*
X162449200Y-74528200D02*
X161438200Y-74528200D01*
D58*
X106858000Y-63170000D02*
X105947500Y-63170000D01*
X111375000Y-74981000D02*
X111390200Y-74965800D01*
X124154300Y-57278300D02*
X124180800Y-57251800D01*
D59*
X161391800Y-82220000D02*
X162407400Y-82220000D01*
X161391800Y-84734600D02*
X162442800Y-84734600D01*
D58*
X123368000Y-57278300D02*
X124154300Y-57278300D01*
X107493000Y-86080800D02*
X107467600Y-86055400D01*
D59*
X161417200Y-83896400D02*
X162431000Y-83896400D01*
D58*
X132689800Y-81280200D02*
X132689800Y-80492800D01*
D59*
X159699200Y-85658200D02*
X159699200Y-86628200D01*
X160549200Y-72628200D02*
X160549200Y-73715400D01*
D58*
X160678700Y-63094900D02*
X160678700Y-63879300D01*
D59*
X162407400Y-82220000D02*
X162449200Y-82178200D01*
D58*
X124471000Y-72868900D02*
X124471000Y-72004200D01*
X148586400Y-64490800D02*
X148586400Y-65299800D01*
X130988000Y-80523900D02*
X130982300Y-80518200D01*
X106858000Y-52756000D02*
X107733000Y-53631000D01*
X103175000Y-55863800D02*
X103200400Y-55889200D01*
X157100200Y-79629200D02*
X157099200Y-79628200D01*
X126071200Y-72033500D02*
X126096600Y-72008100D01*
X132765200Y-78055200D02*
X132766000Y-78054400D01*
D59*
X162442800Y-84734600D02*
X162449200Y-84728200D01*
X161417200Y-75387400D02*
X162440000Y-75387400D01*
X161442600Y-78791000D02*
X162436400Y-78791000D01*
D58*
X113309600Y-71745800D02*
X113319000Y-71755200D01*
D59*
X161399200Y-72628200D02*
X161399200Y-73703600D01*
%TO.N,/RX*%
D56*
X152806600Y-95961400D02*
X152049200Y-95204000D01*
X155321200Y-95961400D02*
X152806600Y-95961400D01*
X152049200Y-95204000D02*
X152049200Y-86628200D01*
X155880000Y-96520200D02*
X155321200Y-95961400D01*
X155880000Y-97460000D02*
X155880000Y-96520200D01*
%TO.N,/TX*%
X156997600Y-95301000D02*
X158420000Y-96723400D01*
X158420000Y-96723400D02*
X158420000Y-97460000D01*
X152899200Y-86628200D02*
X152899200Y-94326800D01*
X153873400Y-95301000D02*
X156997600Y-95301000D01*
X152899200Y-94326800D02*
X153873400Y-95301000D01*
%TO.N,/AN_I4P*%
X116332200Y-51663800D02*
X118796000Y-49200000D01*
X116332200Y-68377000D02*
X116332200Y-51663800D01*
X123892600Y-67613500D02*
X123892600Y-68563600D01*
X117170400Y-69215200D02*
X116332200Y-68377000D01*
X123892600Y-68563600D02*
X123241000Y-69215200D01*
X123241000Y-69215200D02*
X117170400Y-69215200D01*
%TO.N,/AN_I4N*%
X121336000Y-50241400D02*
X121336000Y-49200000D01*
X123392600Y-68276200D02*
X123063200Y-68605600D01*
X123392600Y-67613500D02*
X123392600Y-68276200D01*
X117729200Y-68605600D02*
X117094200Y-67970600D01*
X117094200Y-67970600D02*
X117094200Y-54483200D01*
X117094200Y-54483200D02*
X121336000Y-50241400D01*
X123063200Y-68605600D02*
X117729200Y-68605600D01*
%TO.N,/AN_O4N*%
X117881600Y-55321400D02*
X123876000Y-49327000D01*
X123876000Y-49327000D02*
X123876000Y-49200000D01*
X122455100Y-66676000D02*
X122455100Y-67156300D01*
X117881600Y-66878400D02*
X117881600Y-55321400D01*
X121844000Y-67767400D02*
X118770600Y-67767400D01*
X122455100Y-67156300D02*
X121844000Y-67767400D01*
X118770600Y-67767400D02*
X117881600Y-66878400D01*
%TO.N,/AN_O4P*%
X125476200Y-51359000D02*
X126416000Y-50419200D01*
X122455100Y-66176000D02*
X121911400Y-66176000D01*
X118694400Y-66421200D02*
X118694400Y-55727800D01*
X121911400Y-66176000D02*
X120955000Y-67132400D01*
X120955000Y-67132400D02*
X119405600Y-67132400D01*
X123063200Y-51359000D02*
X125476200Y-51359000D01*
X126416000Y-50419200D02*
X126416000Y-49200000D01*
X119405600Y-67132400D02*
X118694400Y-66421200D01*
X118694400Y-55727800D02*
X123063200Y-51359000D01*
%TO.N,/AN_O3P*%
X122455100Y-62676000D02*
X121756400Y-62676000D01*
X127914600Y-52806800D02*
X128956000Y-51765400D01*
X128956000Y-51765400D02*
X128956000Y-49200000D01*
X121756400Y-62676000D02*
X119431000Y-60350600D01*
X119431000Y-56337400D02*
X122961600Y-52806800D01*
X119431000Y-60350600D02*
X119431000Y-56337400D01*
X122961600Y-52806800D02*
X127914600Y-52806800D01*
%TO.N,/AN_O3N*%
X122455100Y-62176000D02*
X121904100Y-62176000D01*
X120091400Y-60363300D02*
X120091400Y-56743800D01*
X121904100Y-62176000D02*
X120091400Y-60363300D01*
X123495000Y-53340200D02*
X130480000Y-53340200D01*
X120091400Y-56743800D02*
X123495000Y-53340200D01*
X131496000Y-52324200D02*
X131496000Y-49200000D01*
X130480000Y-53340200D02*
X131496000Y-52324200D01*
%TO.N,/AN_I3N*%
X132943800Y-53924400D02*
X134036000Y-52832200D01*
X120904200Y-60122000D02*
X120904200Y-56794600D01*
X122455100Y-61676000D02*
X122455100Y-61672900D01*
X134036000Y-52832200D02*
X134036000Y-49200000D01*
X123774400Y-53924400D02*
X132943800Y-53924400D01*
X120904200Y-56794600D02*
X123774400Y-53924400D01*
X122455100Y-61672900D02*
X120904200Y-60122000D01*
%TO.N,/AN_I3P*%
X122689100Y-60738500D02*
X121463000Y-59512400D01*
X124053800Y-54610200D02*
X134975800Y-54610200D01*
X123392600Y-60738500D02*
X122689100Y-60738500D01*
X134975800Y-54610200D02*
X136576000Y-53010000D01*
X136576000Y-53010000D02*
X136576000Y-49200000D01*
X121463000Y-57201000D02*
X124053800Y-54610200D01*
X121463000Y-59512400D02*
X121463000Y-57201000D01*
%TO.N,/AN_I2P*%
X137541200Y-61138000D02*
X139267300Y-62864100D01*
X139976600Y-62763600D02*
X139876100Y-62864100D01*
X137541200Y-59487000D02*
X137541200Y-61138000D01*
X139267300Y-62864100D02*
X139876100Y-62864100D01*
X139116000Y-53213200D02*
X139116000Y-49200000D01*
X127559000Y-55194400D02*
X137134800Y-55194400D01*
X141554400Y-62763600D02*
X139976600Y-62763600D01*
X124392600Y-60738500D02*
X124392600Y-58360800D01*
X124392600Y-58360800D02*
X127559000Y-55194400D01*
X137134800Y-55194400D02*
X139116000Y-53213200D01*
%TO.N,/AN_I2N*%
X124892600Y-58546600D02*
X127787600Y-55651600D01*
X139674800Y-55651600D02*
X141656000Y-53670400D01*
X141656000Y-53670400D02*
X141656000Y-49200000D01*
X139902600Y-64592400D02*
X139876100Y-64618900D01*
X127787600Y-55651600D02*
X139674800Y-55651600D01*
X124892600Y-60738500D02*
X124892600Y-58546600D01*
X138481000Y-63728800D02*
X138481000Y-64236800D01*
X138863100Y-64618900D02*
X139876100Y-64618900D01*
X141529000Y-64592400D02*
X139902600Y-64592400D01*
X138481000Y-64236800D02*
X138863100Y-64618900D01*
%TO.N,/AN_O2N*%
X128067000Y-56134200D02*
X125392600Y-58808600D01*
X141529000Y-61112600D02*
X139902600Y-61112600D01*
X139928800Y-59766400D02*
X139928800Y-61086400D01*
X139928800Y-61086400D02*
X139876100Y-61139100D01*
X144627800Y-56134200D02*
X128067000Y-56134200D01*
X145720000Y-55042000D02*
X144627800Y-56134200D01*
X145720000Y-49200000D02*
X145720000Y-55042000D01*
X139902600Y-61112600D02*
X139876100Y-61139100D01*
X125392600Y-58808600D02*
X125392600Y-60738500D01*
%TO.N,/AN_O2P*%
X139925800Y-66294200D02*
X139876100Y-66343900D01*
X140360600Y-68021400D02*
X139876100Y-67536900D01*
X146228000Y-56616800D02*
X128575000Y-56616800D01*
X139876100Y-67536900D02*
X139876100Y-66343900D01*
X148260000Y-49200000D02*
X148260000Y-54584800D01*
X140741600Y-68021400D02*
X140360600Y-68021400D01*
X148260000Y-54584800D02*
X146228000Y-56616800D01*
X141505500Y-66294200D02*
X139925800Y-66294200D01*
X128575000Y-56616800D02*
X125892600Y-59299200D01*
X125892600Y-59299200D02*
X125892600Y-60738500D01*
%TO.N,/RA_S2*%
X147447200Y-59918800D02*
X147447200Y-61675200D01*
X147447200Y-61675200D02*
X148586400Y-62814400D01*
%TO.N,/AN_O1P*%
X126892600Y-59162800D02*
X128981400Y-57074000D01*
X150571400Y-64795600D02*
X151765200Y-64795600D01*
X128981400Y-57074000D02*
X151917600Y-57074000D01*
X126892600Y-60738500D02*
X126892600Y-59162800D01*
X153340000Y-55651600D02*
X153340000Y-49200000D01*
X151917600Y-57074000D02*
X153340000Y-55651600D01*
X151865700Y-64695100D02*
X151790600Y-64770200D01*
X151765200Y-64795600D02*
X151790600Y-64770200D01*
X153494300Y-64695100D02*
X151865700Y-64695100D01*
%TO.N,/AN_O1N*%
X153496200Y-59716700D02*
X151893000Y-59716700D01*
X129464000Y-57531200D02*
X154127400Y-57531200D01*
X127392600Y-59602600D02*
X129464000Y-57531200D01*
X155880000Y-55778600D02*
X155880000Y-49200000D01*
X127392600Y-60738500D02*
X127392600Y-59602600D01*
X151688700Y-59512400D02*
X151792500Y-59616200D01*
X150698400Y-59512400D02*
X151688700Y-59512400D01*
X151893000Y-59716700D02*
X151792500Y-59616200D01*
X154127400Y-57531200D02*
X155880000Y-55778600D01*
%TO.N,/AN_I1N*%
X127892600Y-60738500D02*
X127892600Y-60144000D01*
X158420000Y-56718400D02*
X158420000Y-49200000D01*
X130022800Y-58013800D02*
X157124600Y-58013800D01*
X157124600Y-58013800D02*
X158420000Y-56718400D01*
X150673000Y-63068400D02*
X151767400Y-63068400D01*
X151814900Y-63069500D02*
X151790600Y-63045200D01*
X127892600Y-60144000D02*
X130022800Y-58013800D01*
X153494300Y-63069500D02*
X151814900Y-63069500D01*
X151767400Y-63068400D02*
X151790600Y-63045200D01*
%TO.N,/AN_I1P*%
X150571400Y-61290400D02*
X151741700Y-61290400D01*
X160960000Y-56718400D02*
X160960000Y-49200000D01*
X151793600Y-61342300D02*
X151792500Y-61341200D01*
X151741700Y-61290400D02*
X151792500Y-61341200D01*
X131978600Y-58445600D02*
X148895000Y-58445600D01*
X153496200Y-61342300D02*
X151793600Y-61342300D01*
X159232800Y-58445600D02*
X160960000Y-56718400D01*
X148895000Y-58445600D02*
X159232800Y-58445600D01*
X129685700Y-60738500D02*
X131978600Y-58445600D01*
X128392600Y-60738500D02*
X129685700Y-60738500D01*
%TO.N,/RA_S1*%
X160678700Y-61342300D02*
X160678700Y-58269700D01*
X160678700Y-58269700D02*
X163500000Y-55448400D01*
X163500000Y-55448400D02*
X163500000Y-49200000D01*
%TO.N,/CONN_D-*%
D55*
X115383951Y-74740800D02*
X134825198Y-74740800D01*
X114658951Y-74015800D02*
X115383951Y-74740800D01*
X142278000Y-79937600D02*
X143170600Y-79045000D01*
X113665200Y-74015800D02*
X114658951Y-74015800D01*
X140021998Y-79937600D02*
X142278000Y-79937600D01*
X134825198Y-74740800D02*
X140021998Y-79937600D01*
%TO.N,/ESD_D-*%
X148449200Y-79628200D02*
X147849199Y-79628200D01*
X145953800Y-79828200D02*
X145170600Y-79045000D01*
X147849199Y-79628200D02*
X147649199Y-79828200D01*
X147649199Y-79828200D02*
X145953800Y-79828200D01*
%TO.N,+3V3*%
D56*
X123892600Y-59527900D02*
X123368000Y-59003300D01*
D58*
X133576366Y-72947560D02*
X133576366Y-70921660D01*
X105435600Y-55889600D02*
X105435600Y-56947000D01*
D56*
X159699200Y-70302100D02*
X159947900Y-70053400D01*
D58*
X121815800Y-70279200D02*
X122845400Y-70279200D01*
X132080200Y-67234000D02*
X131624100Y-66777900D01*
D56*
X129330100Y-65676000D02*
X131463100Y-65676000D01*
D58*
X130534700Y-90351900D02*
X130534700Y-89281200D01*
X122250400Y-58725000D02*
X122528700Y-59003300D01*
D56*
X124392600Y-67613500D02*
X124392600Y-68724000D01*
D58*
X134518600Y-61214200D02*
X133221300Y-61214200D01*
D56*
X130147900Y-88894400D02*
X130534700Y-89281200D01*
X124392600Y-68724000D02*
X122845400Y-70271200D01*
D58*
X159283600Y-70053400D02*
X158826400Y-70510600D01*
X156108600Y-88392200D02*
X156108600Y-90084600D01*
X114300600Y-53314400D02*
X114579600Y-53035400D01*
X101193800Y-86055400D02*
X102286000Y-87147600D01*
D56*
X159699200Y-72628200D02*
X159699200Y-70302100D01*
D58*
X102286000Y-87147600D02*
X104953000Y-87147600D01*
X131624100Y-66777900D02*
X131624100Y-65837000D01*
X135711066Y-72972960D02*
X133601766Y-72972960D01*
D56*
X122845400Y-70271200D02*
X122845400Y-70279200D01*
D58*
X108432800Y-49149200D02*
X110972800Y-49149200D01*
X114300600Y-55931000D02*
X112776200Y-55931000D01*
X131343600Y-91160800D02*
X130534700Y-90351900D01*
D56*
X131463100Y-65676000D02*
X131624100Y-65837000D01*
D58*
X101193800Y-61188800D02*
X101193800Y-86055400D01*
X133601766Y-72972960D02*
X133576366Y-72947560D01*
X121539200Y-70002600D02*
X121815800Y-70279200D01*
X133297500Y-63779600D02*
X133246700Y-63728800D01*
D56*
X123892600Y-60738500D02*
X123892600Y-59527900D01*
D58*
X159947900Y-70053400D02*
X159283600Y-70053400D01*
X131852666Y-70847960D02*
X133502666Y-70847960D01*
X105435600Y-56947000D02*
X101193800Y-61188800D01*
X133576366Y-70921660D02*
X133502666Y-70847960D01*
X114300600Y-55931000D02*
X114300600Y-53314400D01*
X134493200Y-63779600D02*
X133297500Y-63779600D01*
X156108600Y-90084600D02*
X156083200Y-90110000D01*
X112776200Y-55931000D02*
X110972800Y-54127600D01*
X122250400Y-58039200D02*
X122250400Y-58725000D01*
X110972800Y-54127600D02*
X110972800Y-49149200D01*
D56*
X130147900Y-87123600D02*
X130147900Y-88894400D01*
D58*
X122528700Y-59003300D02*
X123368000Y-59003300D01*
%TO.N,Net-(D4-A)*%
X111074400Y-90976200D02*
X111074400Y-88978600D01*
%TO.N,Net-(SW2A-D)*%
D56*
X159947900Y-67894400D02*
X159947900Y-68017500D01*
X159947900Y-68017500D02*
X158801600Y-69163800D01*
X157531000Y-70840800D02*
X158849200Y-72159000D01*
X158849200Y-72159000D02*
X158849200Y-72628200D01*
X157531000Y-69163800D02*
X157531000Y-70840800D01*
X158801600Y-69163800D02*
X157531000Y-69163800D01*
%TO.N,/AN_SCLK*%
X130149800Y-68808800D02*
X130149800Y-73076000D01*
X146085200Y-75378200D02*
X148449200Y-75378200D01*
X138633400Y-73787200D02*
X139852600Y-75006400D01*
X130149800Y-73076000D02*
X130861000Y-73787200D01*
X128392600Y-67613500D02*
X128954500Y-67613500D01*
X130861000Y-73787200D02*
X138633400Y-73787200D01*
X145713400Y-75006400D02*
X146085200Y-75378200D01*
X128954500Y-67613500D02*
X130149800Y-68808800D01*
X139852600Y-75006400D02*
X145713400Y-75006400D01*
%TO.N,/USB_D-*%
X106527800Y-75133400D02*
X106701600Y-75307200D01*
X106668200Y-74307200D02*
X106527800Y-74447600D01*
X108989800Y-74307200D02*
X109423400Y-74740800D01*
D55*
X109671449Y-74740800D02*
X109423400Y-74740800D01*
X111390200Y-74015800D02*
X110396449Y-74015800D01*
D56*
X106701600Y-75307200D02*
X107707400Y-75307200D01*
X107707400Y-74307200D02*
X108989800Y-74307200D01*
X107707400Y-74307200D02*
X106668200Y-74307200D01*
D55*
X110396449Y-74015800D02*
X109671449Y-74740800D01*
D56*
X106527800Y-74447600D02*
X106527800Y-75133400D01*
%TO.N,/USB_D+*%
D55*
X109137400Y-75190800D02*
X108864600Y-75463600D01*
D56*
X108864600Y-74955600D02*
X108864600Y-75463600D01*
X108716200Y-74807200D02*
X108864600Y-74955600D01*
X107707400Y-74807200D02*
X108716200Y-74807200D01*
X108698800Y-75807200D02*
X107707400Y-75807200D01*
X108864600Y-75463600D02*
X108864600Y-75641400D01*
D55*
X110396449Y-75915800D02*
X109671449Y-75190800D01*
D56*
X108864600Y-75641400D02*
X108698800Y-75807200D01*
D55*
X111390200Y-75915800D02*
X110396449Y-75915800D01*
X109671449Y-75190800D02*
X109137400Y-75190800D01*
%TO.N,/CONN_D+*%
X115383951Y-75190800D02*
X134638802Y-75190800D01*
X142405000Y-80387600D02*
X143170600Y-81153200D01*
X134638802Y-75190800D02*
X139835602Y-80387600D01*
X113665200Y-75915800D02*
X114658951Y-75915800D01*
X114658951Y-75915800D02*
X115383951Y-75190800D01*
X139835602Y-80387600D02*
X142405000Y-80387600D01*
%TO.N,Net-(IC1-+IN_A)*%
D57*
X136191200Y-80492800D02*
X136218500Y-80465500D01*
D56*
X134010600Y-80997000D02*
X134514800Y-80492800D01*
X133739200Y-86123600D02*
X134010600Y-85852200D01*
D57*
X134490200Y-78841800D02*
X134490200Y-80468200D01*
D56*
X134010600Y-85852200D02*
X134010600Y-80997000D01*
D57*
X134514800Y-80492800D02*
X136191200Y-80492800D01*
D56*
X132947900Y-86123600D02*
X133739200Y-86123600D01*
D57*
X134490200Y-80468200D02*
X134514800Y-80492800D01*
%TO.N,Net-(D5-A)*%
X143678600Y-85623600D02*
X143678600Y-87783000D01*
X143678600Y-87783000D02*
X143653600Y-87808000D01*
%TO.N,Net-(IC1--IN_B)*%
X126591100Y-85422300D02*
X126566500Y-85446900D01*
X128918800Y-86123600D02*
X128217500Y-85422300D01*
X128217500Y-85422300D02*
X126591100Y-85422300D01*
X126539200Y-85419600D02*
X126566500Y-85446900D01*
X126539200Y-83667800D02*
X126539200Y-85419600D01*
X130147900Y-86123600D02*
X128918800Y-86123600D01*
%TO.N,Net-(IC1-OUT_B)*%
X130147900Y-86623600D02*
X128841200Y-86623600D01*
X126566500Y-87171900D02*
X128142100Y-87171900D01*
X128841200Y-86623600D02*
X128217500Y-87247300D01*
X128142100Y-87171900D02*
X128217500Y-87247300D01*
X126517600Y-88976400D02*
X126517600Y-87220800D01*
X126517600Y-87220800D02*
X126566500Y-87171900D01*
%TO.N,Net-(F1-~-Pad1)*%
D58*
X105435600Y-72822000D02*
X105765800Y-72822000D01*
X104699000Y-69850200D02*
X104699000Y-72085400D01*
D54*
X107707400Y-77457200D02*
X106921200Y-77457200D01*
D60*
X105918200Y-77165400D02*
X105384800Y-76632000D01*
D54*
X106781800Y-72822000D02*
X105765800Y-72822000D01*
D59*
X105918200Y-77190800D02*
X105918200Y-77165400D01*
D58*
X104699000Y-72085400D02*
X105435600Y-72822000D01*
D54*
X106921200Y-77457200D02*
X106654800Y-77190800D01*
D58*
X104699000Y-75946200D02*
X105384800Y-76632000D01*
D54*
X106946600Y-72657200D02*
X106781800Y-72822000D01*
D58*
X103806100Y-68957300D02*
X104699000Y-69850200D01*
X103806100Y-67107000D02*
X103806100Y-68957300D01*
D54*
X107707400Y-72657200D02*
X106946600Y-72657200D01*
D59*
X106654800Y-77190800D02*
X105918200Y-77190800D01*
D58*
X104699000Y-72085400D02*
X104699000Y-75946200D01*
%TO.N,Net-(J5-CC1)*%
D56*
X109321800Y-73609400D02*
X109321800Y-72136200D01*
X109702800Y-71755200D02*
X111319000Y-71755200D01*
X107707400Y-73807200D02*
X109124000Y-73807200D01*
X109321800Y-72136200D02*
X109702800Y-71755200D01*
X109124000Y-73807200D02*
X109321800Y-73609400D01*
%TO.N,Net-(J5-CC2)*%
X109652000Y-78079800D02*
X111268200Y-78079800D01*
X109065200Y-76807200D02*
X109296400Y-77038400D01*
X109296400Y-77038400D02*
X109296400Y-77724200D01*
X109296400Y-77724200D02*
X109652000Y-78079800D01*
X107707400Y-76807200D02*
X109065200Y-76807200D01*
%TO.N,-3V3*%
D58*
X108763000Y-87147600D02*
X108982000Y-86928600D01*
X108763000Y-87147600D02*
X108763000Y-84170200D01*
X110645600Y-84069200D02*
X109754800Y-83178400D01*
D56*
X132297900Y-85623600D02*
X131547900Y-86373600D01*
D58*
X114233600Y-86928600D02*
X114249400Y-86944400D01*
X130560100Y-83824100D02*
X131547900Y-84811900D01*
X113462000Y-84069200D02*
X110645600Y-84069200D01*
X130073600Y-81915200D02*
X130124400Y-81915200D01*
X130124400Y-81915200D02*
X130560100Y-82350900D01*
X108763000Y-84170200D02*
X109754800Y-83178400D01*
X111074400Y-86928600D02*
X114233600Y-86928600D01*
D56*
X132947900Y-85623600D02*
X132297900Y-85623600D01*
D58*
X131547900Y-84811900D02*
X131547900Y-86373600D01*
X130560100Y-83464600D02*
X130560100Y-83824100D01*
X108982000Y-86928600D02*
X111074400Y-86928600D01*
X130560100Y-82350900D02*
X130560100Y-83464600D01*
%TO.N,Net-(D2-A)*%
X112878200Y-68081600D02*
X112903200Y-68106600D01*
X110541000Y-68081600D02*
X112878200Y-68081600D01*
%TO.N,Net-(IC2-CAP+)*%
X105213800Y-96742000D02*
X103885000Y-96742000D01*
X106223000Y-95732800D02*
X105213800Y-96742000D01*
X106223000Y-92569600D02*
X106223000Y-95732800D01*
%TO.N,Net-(IC2-CAP-)*%
X108763000Y-95420000D02*
X110085000Y-96742000D01*
X108763000Y-92569600D02*
X108763000Y-95420000D01*
%TO.N,Net-(D3-A)*%
X105385200Y-53839200D02*
X105435600Y-53889600D01*
X103200400Y-53839200D02*
X105385200Y-53839200D01*
%TO.N,Net-(U4-VREFN)*%
D56*
X127736800Y-70028000D02*
X127736800Y-70283100D01*
X125892600Y-68183800D02*
X127736800Y-70028000D01*
X125892600Y-67613500D02*
X125892600Y-68183800D01*
%TO.N,Net-(C21-~-Pad1)*%
X157148900Y-63094900D02*
X157124600Y-63119200D01*
X157074900Y-63069500D02*
X157124600Y-63119200D01*
X155319300Y-63069500D02*
X157074900Y-63069500D01*
X155319300Y-64695100D02*
X155319300Y-63069500D01*
X158853700Y-63094900D02*
X157148900Y-63094900D01*
%TO.N,Net-(IC1-+IN_B)*%
D57*
X129210000Y-85268000D02*
X129210000Y-80570900D01*
X129205400Y-80470100D02*
X129157300Y-80518200D01*
X129565600Y-85623600D02*
X129210000Y-85268000D01*
X129205400Y-78867200D02*
X129205400Y-80470100D01*
X128981400Y-80694100D02*
X129157300Y-80518200D01*
X130147900Y-85623600D02*
X129565600Y-85623600D01*
X129210000Y-80570900D02*
X129157300Y-80518200D01*
X127502500Y-80694100D02*
X128981400Y-80694100D01*
%TO.N,Net-(SW1A-D)*%
D56*
X156096500Y-92096700D02*
X158369200Y-92096700D01*
X158369200Y-92096700D02*
X159312900Y-92096700D01*
X156067800Y-92125400D02*
X156083200Y-92110000D01*
X159765600Y-88824600D02*
X161112400Y-88824600D01*
X156083200Y-92110000D02*
X156096500Y-92096700D01*
X159512200Y-89078000D02*
X159765600Y-88824600D01*
X159512200Y-91897400D02*
X159512200Y-89078000D01*
X161399200Y-88537800D02*
X161112400Y-88824600D01*
X159312900Y-92096700D02*
X159512200Y-91897400D01*
X161399200Y-86628200D02*
X161399200Y-88537800D01*
%TO.N,Net-(U4-ACLK)*%
X129780706Y-66676000D02*
X131852666Y-68747960D01*
X129330100Y-66676000D02*
X129780706Y-66676000D01*
%TO.N,Net-(IC1-OUT_A)*%
D57*
X134977200Y-87123600D02*
X132947900Y-87123600D01*
X136824300Y-87244300D02*
X136751900Y-87171900D01*
X136824300Y-89027200D02*
X136824300Y-87244300D01*
X135125500Y-87171900D02*
X135075500Y-87221900D01*
X135075500Y-87221900D02*
X134977200Y-87123600D01*
X136751900Y-87171900D02*
X135125500Y-87171900D01*
%TO.N,Net-(C27-~-Pad1)*%
D56*
X143330500Y-64615900D02*
X143354000Y-64592400D01*
X143354000Y-64592400D02*
X145082000Y-64592400D01*
X145082000Y-64592400D02*
X145133900Y-64540500D01*
X146761400Y-64490800D02*
X145183600Y-64490800D01*
X143330500Y-66294200D02*
X143330500Y-64615900D01*
X145183600Y-64490800D02*
X145133900Y-64540500D01*
%TO.N,Net-(U4-ERRb)*%
X131368900Y-63676000D02*
X131421700Y-63728800D01*
X129330100Y-63676000D02*
X131368900Y-63676000D01*
%TO.N,Net-(C27-~-Pad2)*%
X146761400Y-62814400D02*
X145135000Y-62814400D01*
X143354000Y-62738200D02*
X143379400Y-62763600D01*
X143354000Y-61112600D02*
X143354000Y-62738200D01*
X145133900Y-62815500D02*
X143431300Y-62815500D01*
X143431300Y-62815500D02*
X143379400Y-62763600D01*
X145135000Y-62814400D02*
X145133900Y-62815500D01*
%TO.N,Net-(U4-VMR)*%
X126060400Y-69088200D02*
X126060400Y-70246900D01*
X126060400Y-70246900D02*
X126096600Y-70283100D01*
X125392600Y-67613500D02*
X125392600Y-68420400D01*
X125392600Y-68420400D02*
X126060400Y-69088200D01*
%TO.N,/ESD_D+*%
D55*
X148449200Y-80478200D02*
X147849199Y-80478200D01*
X146045600Y-80278200D02*
X145170600Y-81153200D01*
X147849199Y-80478200D02*
X147649199Y-80278200D01*
X147649199Y-80278200D02*
X146045600Y-80278200D01*
%TO.N,Net-(IC1--IN_A)*%
D57*
X136751900Y-85446900D02*
X136751900Y-83640500D01*
X135125500Y-85446900D02*
X135075500Y-85396900D01*
X136751900Y-83640500D02*
X136728400Y-83617000D01*
X136751900Y-85446900D02*
X135125500Y-85446900D01*
D56*
X133848800Y-86623600D02*
X135075500Y-85396900D01*
D57*
X135075500Y-85701700D02*
X135075500Y-85396900D01*
D56*
X132947900Y-86623600D02*
X133848800Y-86623600D01*
%TO.N,Net-(U4-VREFP)*%
X124892600Y-67613500D02*
X124892600Y-69857600D01*
X124892600Y-69857600D02*
X124471000Y-70279200D01*
%TO.N,/AN_CS2b*%
X148449200Y-76228200D02*
X138458200Y-76228200D01*
X128270200Y-68681800D02*
X127584400Y-68681800D01*
X129108400Y-72923600D02*
X129108400Y-69520000D01*
X129108400Y-69520000D02*
X128270200Y-68681800D01*
X130429200Y-74244400D02*
X129108400Y-72923600D01*
X138458200Y-76228200D02*
X136474400Y-74244400D01*
X127584400Y-68681800D02*
X127392600Y-68490000D01*
X136474400Y-74244400D02*
X130429200Y-74244400D01*
X127392600Y-68490000D02*
X127392600Y-67613500D01*
%TO.N,/AN_SI*%
X146634400Y-73609400D02*
X143053000Y-73609400D01*
X148449200Y-74528200D02*
X147553200Y-74528200D01*
X147553200Y-74528200D02*
X146634400Y-73609400D01*
X134119600Y-64676000D02*
X129330100Y-64676000D01*
X143053000Y-73609400D02*
X134119600Y-64676000D01*
%TO.N,/AN_ACT*%
X135483800Y-62789000D02*
X130454600Y-62789000D01*
X147744600Y-73678200D02*
X146126400Y-72060000D01*
X142341800Y-72060000D02*
X136347400Y-66065600D01*
X136347400Y-63652600D02*
X135483800Y-62789000D01*
X146126400Y-72060000D02*
X142341800Y-72060000D01*
X148449200Y-73678200D02*
X147744600Y-73678200D01*
X130454600Y-62789000D02*
X130067600Y-63176000D01*
X136347400Y-66065600D02*
X136347400Y-63652600D01*
X130067600Y-63176000D02*
X129330100Y-63176000D01*
%TO.N,/AN_PORB*%
X149499200Y-71851400D02*
X148742600Y-71094800D01*
X131396300Y-61999700D02*
X131140400Y-62255600D01*
X137185600Y-66014800D02*
X137185600Y-63271600D01*
X129330100Y-61676000D02*
X130129000Y-61676000D01*
X130129000Y-61676000D02*
X130708600Y-62255600D01*
X137185600Y-63271600D02*
X136169600Y-62255600D01*
X149499200Y-72628200D02*
X149499200Y-71851400D01*
X136169600Y-62255600D02*
X131140400Y-62255600D01*
X142265600Y-71094800D02*
X137185600Y-66014800D01*
X148742600Y-71094800D02*
X142265600Y-71094800D01*
X131396300Y-61214200D02*
X131396300Y-61999700D01*
X130708600Y-62255600D02*
X131140400Y-62255600D01*
%TO.N,/USER_LED*%
X145724000Y-85578200D02*
X145678600Y-85623600D01*
X148449200Y-85578200D02*
X145724000Y-85578200D01*
%TO.N,Net-(C21-~-Pad2)*%
X157072700Y-61342300D02*
X157124600Y-61394200D01*
X155321200Y-61342300D02*
X157072700Y-61342300D01*
X157176500Y-61342300D02*
X157124600Y-61394200D01*
X158853700Y-61342300D02*
X157176500Y-61342300D01*
X155321200Y-59716700D02*
X155321200Y-61342300D01*
%TO.N,/A0*%
D54*
X159512200Y-94640600D02*
X160960000Y-96088400D01*
%TD*%
%TA.AperFunction,Conductor*%
%TO.N,+5V*%
G36*
X109791911Y-57454785D02*
G01*
X109806513Y-57465768D01*
X109811311Y-57469966D01*
X109846056Y-57520516D01*
X109970807Y-57859903D01*
X109976502Y-57880954D01*
X109980281Y-57902185D01*
X109982200Y-57923915D01*
X109982200Y-58473306D01*
X109979930Y-58496925D01*
X109975472Y-58519901D01*
X109968745Y-58542652D01*
X109648829Y-59336078D01*
X109637894Y-59357131D01*
X109625173Y-59376766D01*
X109610425Y-59395354D01*
X108919019Y-60113353D01*
X108924131Y-61069023D01*
X108926303Y-61475153D01*
X108933972Y-62909172D01*
X110947400Y-64922600D01*
X111170308Y-64922600D01*
X111205240Y-64927621D01*
X111230484Y-64935034D01*
X111283230Y-64966330D01*
X111482673Y-65165773D01*
X111503823Y-65194025D01*
X111516431Y-65217114D01*
X111531600Y-65276543D01*
X111531600Y-66461607D01*
X111531599Y-66461609D01*
X111531600Y-66461610D01*
X111526576Y-66496544D01*
X111519164Y-66521785D01*
X111487869Y-66574529D01*
X111138225Y-66924173D01*
X111109974Y-66945322D01*
X111086886Y-66957930D01*
X111027456Y-66973100D01*
X110040462Y-66973100D01*
X110040446Y-66973101D01*
X110040436Y-66973101D01*
X110040436Y-66973102D01*
X109936579Y-66983712D01*
X109936575Y-66983712D01*
X109936572Y-66983713D01*
X109936570Y-66983713D01*
X109936568Y-66983714D01*
X109822033Y-67021667D01*
X109822031Y-67021667D01*
X109794472Y-67030800D01*
X109763760Y-67030800D01*
X109699195Y-67082085D01*
X109688336Y-67088783D01*
X109688326Y-67088788D01*
X109688317Y-67088793D01*
X109622048Y-67129669D01*
X109619067Y-67131329D01*
X109617345Y-67132570D01*
X109554190Y-67195726D01*
X109549044Y-67200585D01*
X109547148Y-67202277D01*
X109543763Y-67205296D01*
X109538365Y-67209840D01*
X108991598Y-67644168D01*
X108990959Y-68494542D01*
X108990959Y-68494543D01*
X108985910Y-68529474D01*
X108978449Y-68554813D01*
X108947548Y-68607099D01*
X108539016Y-69019090D01*
X108510852Y-69040359D01*
X108487722Y-69053116D01*
X108428975Y-69068531D01*
X108054148Y-69071975D01*
X107590741Y-69076232D01*
X107558460Y-69072263D01*
X107557112Y-69071913D01*
X107543389Y-69068020D01*
X107536936Y-69066678D01*
X107534002Y-69065917D01*
X107506525Y-69049466D01*
X107478273Y-69034375D01*
X107478272Y-69034374D01*
X107475599Y-69031750D01*
X107333067Y-68891812D01*
X107311657Y-68863753D01*
X107298877Y-68840851D01*
X107283161Y-68781115D01*
X107281952Y-68563374D01*
X107281570Y-68494542D01*
X107280886Y-68371382D01*
X107272389Y-63949850D01*
X107277344Y-63914911D01*
X107278501Y-63910940D01*
X107283198Y-63894830D01*
X107313708Y-63842716D01*
X107318490Y-63837839D01*
X107338129Y-63821562D01*
X107373389Y-63798003D01*
X107486003Y-63685389D01*
X107574483Y-63552968D01*
X107635430Y-63405831D01*
X107666500Y-63249630D01*
X107666500Y-63090370D01*
X107635430Y-62934169D01*
X107604956Y-62860600D01*
X107574484Y-62787033D01*
X107486001Y-62654608D01*
X107485995Y-62654602D01*
X107373391Y-62541998D01*
X107373387Y-62541995D01*
X107373385Y-62541993D01*
X107339357Y-62519257D01*
X107313100Y-62495672D01*
X107299606Y-62479526D01*
X107273381Y-62425405D01*
X107272028Y-62418939D01*
X107269399Y-62393785D01*
X107267797Y-61560052D01*
X107272753Y-61525109D01*
X107280103Y-61499899D01*
X107311467Y-61446924D01*
X107409800Y-61348592D01*
X107409801Y-61348591D01*
X107409801Y-61348590D01*
X107409803Y-61348589D01*
X107498283Y-61216168D01*
X107559230Y-61069031D01*
X107590300Y-60912830D01*
X107590300Y-60753570D01*
X107559230Y-60597369D01*
X107528756Y-60523800D01*
X107498284Y-60450233D01*
X107409801Y-60317808D01*
X107409785Y-60317791D01*
X107313960Y-60221966D01*
X107292809Y-60193713D01*
X107280182Y-60170589D01*
X107265014Y-60111399D01*
X107264400Y-59791800D01*
X106938331Y-59500667D01*
X106920829Y-59481371D01*
X106905706Y-59460693D01*
X106892620Y-59438165D01*
X106865129Y-59376766D01*
X106569378Y-58716217D01*
X106561289Y-58691452D01*
X106555937Y-58666401D01*
X106553200Y-58640494D01*
X106553200Y-57777578D01*
X106555239Y-57755185D01*
X106555483Y-57753854D01*
X106559253Y-57733328D01*
X106565301Y-57711680D01*
X106640068Y-57515030D01*
X106682291Y-57459365D01*
X106747909Y-57435362D01*
X106755972Y-57435100D01*
X109724872Y-57435100D01*
X109791911Y-57454785D01*
G37*
%TD.AperFunction*%
%TD*%
%TA.AperFunction,Conductor*%
%TO.N,+3V3*%
G36*
X115263763Y-53770986D02*
G01*
X115284720Y-53787571D01*
X115685080Y-54181607D01*
X115719053Y-54242661D01*
X115722100Y-54269983D01*
X115722100Y-57445541D01*
X115714531Y-57488201D01*
X115455709Y-58194597D01*
X115452801Y-58199560D01*
X115452348Y-58202840D01*
X115433427Y-58232634D01*
X115392401Y-58280499D01*
X115392400Y-58280500D01*
X115011399Y-58725000D01*
X115018611Y-59224948D01*
X115079649Y-63456986D01*
X115060933Y-63524302D01*
X115044708Y-63545069D01*
X114623352Y-63979854D01*
X114596719Y-63994943D01*
X114571253Y-64011927D01*
X114564952Y-64012942D01*
X114562561Y-64014297D01*
X114536408Y-64017541D01*
X114338300Y-64020900D01*
X114338299Y-64020900D01*
X114140576Y-64024250D01*
X114073212Y-64005704D01*
X114051932Y-63989073D01*
X113685774Y-63632241D01*
X113651501Y-63571355D01*
X113655586Y-63501605D01*
X113684637Y-63455754D01*
X113709003Y-63431389D01*
X113797483Y-63298968D01*
X113858430Y-63151831D01*
X113889500Y-62995630D01*
X113889500Y-62836370D01*
X113858430Y-62680169D01*
X113797483Y-62533032D01*
X113709003Y-62400611D01*
X113708998Y-62400605D01*
X113609213Y-62300820D01*
X113575728Y-62239497D01*
X113572899Y-62214236D01*
X113566291Y-61467561D01*
X113585381Y-61400353D01*
X113602602Y-61378789D01*
X113709003Y-61272389D01*
X113797483Y-61139968D01*
X113858430Y-60992831D01*
X113889500Y-60836630D01*
X113889500Y-60677370D01*
X113858430Y-60521169D01*
X113797483Y-60374032D01*
X113753132Y-60307656D01*
X113709004Y-60241612D01*
X113708998Y-60241605D01*
X113592082Y-60124689D01*
X113593574Y-60123196D01*
X113559628Y-60073381D01*
X113553626Y-60036355D01*
X113542625Y-58793180D01*
X113542500Y-58779026D01*
X113542498Y-58779018D01*
X113538200Y-58293200D01*
X112395200Y-56921600D01*
X105072578Y-56921600D01*
X105005539Y-56901915D01*
X104984878Y-56885263D01*
X104557731Y-56457935D01*
X104524260Y-56396607D01*
X104521432Y-56370228D01*
X104521826Y-55437990D01*
X104541539Y-55370960D01*
X104558179Y-55350328D01*
X104874395Y-55034378D01*
X104935729Y-55000922D01*
X104962026Y-54998099D01*
X105936144Y-54998099D01*
X106040026Y-54987487D01*
X106208338Y-54931715D01*
X106250275Y-54905847D01*
X106315419Y-54887387D01*
X107287331Y-54887797D01*
X107296963Y-54888178D01*
X107313757Y-54889500D01*
X108687442Y-54889499D01*
X108687464Y-54889497D01*
X108687468Y-54889497D01*
X108696598Y-54888779D01*
X108706368Y-54888396D01*
X111057000Y-54889389D01*
X111057000Y-54889388D01*
X111108371Y-54889410D01*
X111108372Y-54889409D01*
X111557000Y-54889600D01*
X112708574Y-54072353D01*
X112742094Y-54055523D01*
X113613728Y-53772995D01*
X113650747Y-53766961D01*
X114439900Y-53759300D01*
X115196539Y-53751953D01*
X115263763Y-53770986D01*
G37*
%TD.AperFunction*%
%TD*%
%TA.AperFunction,Conductor*%
%TO.N,GND*%
G36*
X157099449Y-76617848D02*
G01*
X157877108Y-76973764D01*
X157919348Y-77005466D01*
X158103423Y-77218606D01*
X158125654Y-77256042D01*
X158440135Y-78093044D01*
X158448055Y-78135857D01*
X158467428Y-81138660D01*
X158459772Y-81182364D01*
X158151525Y-82018225D01*
X158148512Y-82023329D01*
X158148027Y-82026727D01*
X158128973Y-82056436D01*
X158002740Y-82202393D01*
X157960515Y-82234048D01*
X157182560Y-82589770D01*
X157130996Y-82601000D01*
X153884949Y-82601000D01*
X153846798Y-82594985D01*
X152978662Y-82314269D01*
X152976662Y-82313255D01*
X152975475Y-82313191D01*
X152944213Y-82296809D01*
X152908201Y-82270801D01*
X152908198Y-82270798D01*
X152880348Y-82250683D01*
X152842757Y-82207024D01*
X152756246Y-82039382D01*
X152460838Y-81466933D01*
X152447034Y-81410997D01*
X152444995Y-81138660D01*
X152422385Y-78119008D01*
X152429882Y-78075613D01*
X152735477Y-77237417D01*
X152757667Y-77199383D01*
X152921467Y-77007541D01*
X152963839Y-76975458D01*
X153739089Y-76617993D01*
X153791011Y-76606600D01*
X157047845Y-76606600D01*
X157099449Y-76617848D01*
G37*
%TD.AperFunction*%
%TD*%
M02*
