M48
; DRILL file KiCad 10.0.3 date 2026-06-30T02:27:58
; FORMAT={-:-/ absolute / metric / decimal}
; #@! TF.CreationDate,2026-06-30T02:27:58-06:00
; #@! TF.GenerationSoftware,Kicad,Pcbnew,10.0.3
; #@! TF.FileFunction,Plated,1,4,PTH
FMAT,2
METRIC
; #@! TA.AperFunction,Plated,PTH,ViaDrill
T1C0.400
; #@! TA.AperFunction,Plated,PTH,ComponentDrill
T2C0.600
; #@! TA.AperFunction,Plated,PTH,ComponentDrill
T3C1.000
%
G90
G05
T1
X101.6Y-51.867
X101.829Y-58.065
X102.083Y-91.694
X102.108Y-88.824
X102.667Y-73.584
X102.819Y-76.581
X103.175Y-54.991
X104.953Y-93.675
X105.055Y-82.322
X105.055Y-83.185
X105.055Y-84.023
X106.477Y-66.955
X106.782Y-60.833
X106.858Y-52.756
X106.858Y-63.17
X107.468Y-86.055
X107.468Y-93.675
X109.322Y-53.061
X109.347Y-53.721
X110.389Y-74.981
X111.049Y-93.904
X111.506Y-58.293
X112.903Y-66.955
X113.081Y-60.757
X113.081Y-62.916
X113.259Y-79.121
X113.31Y-70.714
X113.818Y-94.209
X114.249Y-86.944
X114.58Y-53.035
X115.189Y-76.962
X116.18Y-79.324
X117.17Y-76.302
X118.39Y-78.258
X118.847Y-98.451
X119.431Y-61.697
X119.456Y-62.611
X119.482Y-63.576
X119.533Y-64.669
X119.558Y-76.505
X119.609Y-65.659
X120.447Y-66.294
X120.879Y-78.588
X121.539Y-70.003
X121.844Y-76.327
X122.25Y-58.039
X122.845Y-72.869
X122.936Y-82.068
X122.962Y-83.668
X122.987Y-77.369
X123.8Y-66.218
X123.876Y-62.129
X123.876Y-64.034
X124.181Y-57.252
X124.471Y-72.869
X125.959Y-64.034
X125.984Y-62.103
X126.035Y-66.193
X126.071Y-72.869
X126.264Y-78.918
X127.748Y-72.869
X127.838Y-63.983
X127.838Y-66.142
X127.915Y-62.129
X130.074Y-81.915
X130.937Y-78.08
X130.988Y-81.306
X131.344Y-91.161
X131.699Y-89.281
X131.725Y-83.515
X131.826Y-72.162
X132.08Y-67.234
X132.69Y-81.28
X132.766Y-78.054
X133.35Y-66.624
X134.376Y-68.731
X134.493Y-63.78
X134.519Y-61.214
X134.595Y-77.267
X134.823Y-59.538
X135.711Y-72.973
X137.541Y-59.487
X138.481Y-63.729
X138.532Y-84.938
X138.684Y-72.212
X139.37Y-77.419
X139.599Y-81.483
X139.929Y-59.766
X140.742Y-68.021
X141.3Y-77.394
X141.478Y-81.483
X141.504Y-83.363
X144.018Y-52.375
X144.145Y-54.737
X144.806Y-87.783
X146.533Y-77.318
X146.584Y-83.16
X147.32Y-91.262
X147.422Y-94.183
X147.447Y-59.919
X148.59Y-65.304
X149.428Y-73.609
X149.479Y-85.573
X150.267Y-88.646
X150.292Y-90.653
X150.546Y-77.318
X150.571Y-61.29
X150.571Y-64.796
X150.673Y-63.068
X150.698Y-59.512
X150.749Y-81.61
X150.952Y-84.506
X152.375Y-68.91
X152.857Y-79.629
X152.883Y-74.879
X154.331Y-73.813
X155.296Y-69.012
X155.321Y-84.481
X155.423Y-82.22
X155.448Y-73.863
X155.448Y-77.013
X156.109Y-88.392
X158.039Y-79.629
X158.369Y-90.932
X158.598Y-65.939
X158.598Y-74.778
X158.826Y-70.511
X158.852Y-85.598
X159.157Y-83.49
X159.512Y-94.641
X159.639Y-76.886
X159.665Y-85.624
X160.528Y-73.736
X160.681Y-63.881
X161.112Y-67.869
X161.112Y-70.053
X161.392Y-73.711
X161.392Y-82.22
X161.392Y-83.084
X161.392Y-84.735
X161.392Y-85.573
X161.417Y-74.549
X161.417Y-75.387
X161.417Y-77.115
X161.417Y-77.953
X161.417Y-79.655
X161.417Y-80.518
X161.417Y-81.356
X161.417Y-83.896
X161.443Y-76.251
X161.443Y-78.791
X161.951Y-58.979
X162.128Y-93.98
X162.205Y-92.075
X162.789Y-92.888
X164.643Y-53.569
X164.694Y-55.169
X166.523Y-96.393
T3
X103.353Y-49.149
X105.893Y-49.149
X108.433Y-49.149
X110.973Y-49.149
X113.462Y-81.529
X113.462Y-84.069
X118.796Y-49.2
X121.336Y-49.2
X123.876Y-49.2
X126.416Y-49.2
X127.94Y-97.46
X128.956Y-49.2
X130.48Y-97.46
X131.496Y-49.2
X133.02Y-97.46
X134.036Y-49.2
X135.56Y-97.46
X136.576Y-49.2
X138.1Y-97.46
X139.116Y-49.2
X140.64Y-97.46
X141.656Y-49.2
X143.18Y-97.46
X145.72Y-49.2
X145.72Y-97.46
X148.26Y-49.2
X150.8Y-49.2
X150.8Y-97.46
X153.34Y-49.2
X153.34Y-97.46
X155.88Y-49.2
X155.88Y-97.46
X158.42Y-49.2
X158.42Y-97.46
X160.96Y-49.2
X160.96Y-97.46
X163.5Y-49.2
X163.5Y-97.46
T2
G00X103.187Y-70.737
M15
G01X102.587Y-70.737
M16
G05
G00X103.187Y-79.377
M15
G01X102.587Y-79.377
M16
G05
G00X107.617Y-70.737
M15
G01X106.517Y-70.737
M16
G05
G00X107.617Y-79.377
M15
G01X106.517Y-79.377
M16
G05
M30
