%TF.GenerationSoftware,KiCad,Pcbnew,10.0.3*%
%TF.CreationDate,2026-06-30T02:28:00-06:00*%
%TF.ProjectId,2026_ESP32_FPAA_v3,32303236-5f45-4535-9033-325f46504141,rev?*%
%TF.SameCoordinates,Original*%
%TF.FileFunction,Copper,L3,Inr*%
%TF.FilePolarity,Positive*%
%FSLAX46Y46*%
G04 Gerber Fmt 4.6, Leading zero omitted, Abs format (unit mm)*
G04 Created by KiCad (PCBNEW 10.0.3) date 2026-06-30 02:28:00*
%MOMM*%
%LPD*%
G01*
G04 APERTURE LIST*
%TA.AperFunction,ComponentPad*%
%ADD10R,1.700000X1.700000*%
%TD*%
%TA.AperFunction,ComponentPad*%
%ADD11O,1.700000X1.700000*%
%TD*%
%TA.AperFunction,ComponentPad*%
%ADD12O,2.100000X1.000000*%
%TD*%
%TA.AperFunction,ComponentPad*%
%ADD13O,1.600000X1.000000*%
%TD*%
%TA.AperFunction,ComponentPad*%
%ADD14C,1.700000*%
%TD*%
%TA.AperFunction,ViaPad*%
%ADD15C,0.600000*%
%TD*%
G04 APERTURE END LIST*
D10*
%TO.N,/AN_IO5P*%
%TO.C,J1*%
X127940000Y-97460000D03*
D11*
%TO.N,/AN_IO5N*%
X130480000Y-97460000D03*
%TO.N,/AN_IO6P*%
X133020000Y-97460000D03*
%TO.N,/AN_IO6N*%
X135560000Y-97460000D03*
%TO.N,/AN_IO7P*%
X138100000Y-97460000D03*
%TO.N,/AN_IO7N*%
X140640000Y-97460000D03*
%TO.N,/OP_S5*%
X143180000Y-97460000D03*
%TO.N,/OP_S6*%
X145720000Y-97460000D03*
%TD*%
D10*
%TO.N,+5V*%
%TO.C,J3*%
X150800000Y-97460000D03*
D11*
%TO.N,GND*%
X153340000Y-97460000D03*
%TO.N,/RX*%
X155880000Y-97460000D03*
%TO.N,/TX*%
X158420000Y-97460000D03*
%TO.N,/A0*%
X160960000Y-97460000D03*
%TO.N,/A1*%
X163500000Y-97460000D03*
%TD*%
D10*
%TO.N,/AN_I4P*%
%TO.C,J2*%
X118796000Y-49200000D03*
D11*
%TO.N,/AN_I4N*%
X121336000Y-49200000D03*
%TO.N,/AN_O4N*%
X123876000Y-49200000D03*
%TO.N,/AN_O4P*%
X126416000Y-49200000D03*
%TO.N,/AN_O3P*%
X128956000Y-49200000D03*
%TO.N,/AN_O3N*%
X131496000Y-49200000D03*
%TO.N,/AN_I3N*%
X134036000Y-49200000D03*
%TO.N,/AN_I3P*%
X136576000Y-49200000D03*
%TO.N,/AN_I2P*%
X139116000Y-49200000D03*
%TO.N,/AN_I2N*%
X141656000Y-49200000D03*
%TD*%
D10*
%TO.N,/AN_O2N*%
%TO.C,J4*%
X145720000Y-49200000D03*
D11*
%TO.N,/AN_O2P*%
X148260000Y-49200000D03*
%TO.N,/RA_S2*%
X150800000Y-49200000D03*
%TO.N,/AN_O1P*%
X153340000Y-49200000D03*
%TO.N,/AN_O1N*%
X155880000Y-49200000D03*
%TO.N,/AN_I1N*%
X158420000Y-49200000D03*
%TO.N,/AN_I1P*%
X160960000Y-49200000D03*
%TO.N,/RA_S1*%
X163500000Y-49200000D03*
%TD*%
D12*
%TO.N,GND*%
%TO.C,J5*%
X107067400Y-70737200D03*
D13*
X102887400Y-70737200D03*
D12*
X107067400Y-79377200D03*
D13*
X102887400Y-79377200D03*
%TD*%
D10*
%TO.N,+3V3*%
%TO.C,J6*%
X110972800Y-49149200D03*
D14*
X108432800Y-49149200D03*
%TO.N,GND*%
X105892800Y-49149200D03*
X103352800Y-49149200D03*
%TD*%
D10*
%TO.N,GND*%
%TO.C,J7*%
X113462000Y-81529200D03*
D14*
%TO.N,-3V3*%
X113462000Y-84069200D03*
%TD*%
D15*
%TO.N,GND*%
X162788800Y-92888000D03*
%TO.N,/A1*%
X162128400Y-93980200D03*
%TO.N,/A0*%
X154330600Y-73812600D03*
%TO.N,/A1*%
X155448200Y-73863400D03*
%TO.N,/AN_IO5P*%
X116179800Y-79324400D03*
X126263600Y-78918000D03*
X119431000Y-61696800D03*
%TO.N,/AN_IO5N*%
X117170400Y-76301800D03*
X122961600Y-83667800D03*
X119456400Y-62611200D03*
%TO.N,/AN_IO6P*%
X118389600Y-78257600D03*
X134594800Y-77267000D03*
X119481800Y-63576400D03*
%TO.N,/AN_IO6N*%
X119532600Y-64668600D03*
X138531800Y-84937800D03*
X119558000Y-76505000D03*
%TO.N,/AN_IO7P*%
X120878800Y-78587800D03*
X119608800Y-65659200D03*
%TO.N,/AN_IO7N*%
X120447000Y-66294200D03*
X121844000Y-76327200D03*
%TO.N,+5V*%
X106477000Y-66954600D03*
%TO.N,GND*%
X113081000Y-60757000D03*
X113817600Y-94208800D03*
X152882800Y-74879400D03*
X105054600Y-83185200D03*
X158369200Y-90932200D03*
X161442600Y-76251000D03*
X161442600Y-78791000D03*
X161391800Y-82220000D03*
X144805600Y-87782600D03*
X123876000Y-62128600D03*
X161950600Y-58979000D03*
X127914600Y-62128600D03*
X107467600Y-86055400D03*
X111049000Y-93904000D03*
X141478200Y-81483400D03*
X127838400Y-66141800D03*
X133350200Y-66624400D03*
X106858000Y-63170000D03*
X122845400Y-72868900D03*
X161417200Y-80518200D03*
X149479200Y-85572800D03*
X112903200Y-66954600D03*
X102108200Y-88824000D03*
X125958800Y-64033600D03*
X155448200Y-77013000D03*
X147320200Y-91262400D03*
X132766000Y-78054400D03*
X126071200Y-72868900D03*
X131699200Y-89281200D03*
X155295800Y-69012000D03*
X150952400Y-84506000D03*
X161417200Y-83896400D03*
X150266600Y-88646200D03*
X134375566Y-68731160D03*
X104953000Y-93675400D03*
X160680600Y-63881200D03*
X160528200Y-73736400D03*
X159664600Y-85623600D03*
X161417200Y-77114600D03*
X126035000Y-66192600D03*
X102082800Y-91694200D03*
X152374800Y-68910400D03*
X113309600Y-70713800D03*
X118846800Y-98450600D03*
X139598600Y-81483400D03*
X109321800Y-53060800D03*
X164643000Y-53568800D03*
X115189200Y-76962200D03*
X130937200Y-78079800D03*
X164693800Y-55169000D03*
X149428400Y-73609400D03*
X113081000Y-62916000D03*
X155422800Y-82220000D03*
X161417200Y-79654600D03*
X150749200Y-81610400D03*
X158851800Y-85598200D03*
X124471000Y-72868900D03*
X107467600Y-93675400D03*
X141300400Y-77394000D03*
X162204600Y-92075200D03*
X124180800Y-57251800D03*
X161417200Y-74549200D03*
X161112400Y-67869000D03*
X127747600Y-72868900D03*
X148590200Y-65303600D03*
X127838400Y-63982800D03*
X102819400Y-76581200D03*
X138684200Y-72212400D03*
X146532800Y-77317800D03*
X147421800Y-94183400D03*
X150546000Y-77317800D03*
X146583600Y-83159800D03*
X122987000Y-77368600D03*
X158039000Y-79629200D03*
X161417200Y-77952800D03*
X161391800Y-83083600D03*
X161417200Y-75387400D03*
X161112400Y-70053400D03*
X131724600Y-83515400D03*
X123799800Y-66218000D03*
X159639200Y-76886000D03*
X102667000Y-73584000D03*
X158597800Y-65938600D03*
X101600200Y-51867000D03*
X161417200Y-81356400D03*
X103175000Y-54991200D03*
X159156600Y-83490000D03*
X166522600Y-96393200D03*
X131826200Y-72161600D03*
X161391800Y-85572800D03*
X152857400Y-79629200D03*
X132689800Y-81280200D03*
X144145200Y-54737200D03*
X161391800Y-84734600D03*
X106781800Y-60833200D03*
X158597800Y-74777800D03*
X161391800Y-73711000D03*
X110388600Y-74981000D03*
X122936200Y-82067600D03*
X105054600Y-82321600D03*
X105054600Y-84023400D03*
X141503600Y-83363000D03*
X111506200Y-58293200D03*
X113258800Y-79121200D03*
X125984200Y-62103200D03*
X139370000Y-77419400D03*
X150292000Y-90652800D03*
X134823400Y-59537800D03*
X101828800Y-58064600D03*
X106858000Y-52756000D03*
X123876000Y-64033600D03*
X130988000Y-81305600D03*
X155321200Y-84480600D03*
X144018200Y-52375000D03*
X109347200Y-53721200D03*
%TO.N,/AN_I2P*%
X137541200Y-59487000D03*
%TO.N,/AN_I2N*%
X138481000Y-63728800D03*
%TO.N,/AN_O2N*%
X139928800Y-59766400D03*
%TO.N,/AN_O2P*%
X140741600Y-68021400D03*
%TO.N,/RA_S2*%
X147447200Y-59918800D03*
%TO.N,/AN_O1P*%
X150571400Y-64795600D03*
%TO.N,/AN_O1N*%
X150698400Y-59512400D03*
%TO.N,/AN_I1N*%
X150673000Y-63068400D03*
%TO.N,/AN_I1P*%
X150571400Y-61290400D03*
%TO.N,+3V3*%
X134518600Y-61214200D03*
X158826400Y-70510600D03*
X122250400Y-58039200D03*
X131343600Y-91160800D03*
X156108600Y-88392200D03*
X114579600Y-53035400D03*
X132080200Y-67234000D03*
X121539200Y-70002600D03*
X134493200Y-63779600D03*
X135711066Y-72972960D03*
%TO.N,-3V3*%
X114249400Y-86944400D03*
X130073600Y-81915200D03*
%TO.N,/A0*%
X159512200Y-94640600D03*
%TD*%
%TA.AperFunction,Conductor*%
%TO.N,GND*%
G36*
X163417559Y-46735547D02*
G01*
X163484574Y-46755311D01*
X163505093Y-46771866D01*
X165928181Y-49194954D01*
X165961666Y-49256277D01*
X165964500Y-49282635D01*
X165964500Y-56780588D01*
X165944815Y-56847627D01*
X165892011Y-56893382D01*
X165839649Y-56904585D01*
X163249200Y-56886811D01*
X163249200Y-94945400D01*
X162814200Y-94945400D01*
X162807452Y-96288189D01*
X162787990Y-96298106D01*
X162614993Y-96423796D01*
X162463796Y-96574993D01*
X162338105Y-96747991D01*
X162335727Y-96751873D01*
X162283914Y-96798748D01*
X162214984Y-96810169D01*
X162150822Y-96782512D01*
X162124273Y-96751873D01*
X162121894Y-96747991D01*
X162121891Y-96747987D01*
X161996206Y-96574996D01*
X161845004Y-96423794D01*
X161672009Y-96298106D01*
X161481483Y-96201027D01*
X161481480Y-96201026D01*
X161278117Y-96134951D01*
X161148994Y-96114500D01*
X161066916Y-96101500D01*
X160853084Y-96101500D01*
X160782684Y-96112650D01*
X160641882Y-96134951D01*
X160438519Y-96201026D01*
X160438516Y-96201027D01*
X160247990Y-96298106D01*
X160074993Y-96423796D01*
X159923796Y-96574993D01*
X159798105Y-96747991D01*
X159795727Y-96751873D01*
X159743914Y-96798748D01*
X159674984Y-96810169D01*
X159610822Y-96782512D01*
X159584273Y-96751873D01*
X159581894Y-96747991D01*
X159581891Y-96747987D01*
X159456206Y-96574996D01*
X159305004Y-96423794D01*
X159132009Y-96298106D01*
X158941483Y-96201027D01*
X158941480Y-96201026D01*
X158738117Y-96134951D01*
X158608994Y-96114500D01*
X158526916Y-96101500D01*
X158313084Y-96101500D01*
X158242684Y-96112650D01*
X158101882Y-96134951D01*
X157898519Y-96201026D01*
X157898516Y-96201027D01*
X157707990Y-96298106D01*
X157534993Y-96423796D01*
X157383796Y-96574993D01*
X157258105Y-96747991D01*
X157255727Y-96751873D01*
X157203914Y-96798748D01*
X157134984Y-96810169D01*
X157070822Y-96782512D01*
X157044273Y-96751873D01*
X157041894Y-96747991D01*
X157041891Y-96747987D01*
X156916206Y-96574996D01*
X156765004Y-96423794D01*
X156592009Y-96298106D01*
X156401483Y-96201027D01*
X156401480Y-96201026D01*
X156198117Y-96134951D01*
X156068994Y-96114500D01*
X155986916Y-96101500D01*
X155773084Y-96101500D01*
X155702684Y-96112650D01*
X155561882Y-96134951D01*
X155358519Y-96201026D01*
X155358516Y-96201027D01*
X155167990Y-96298106D01*
X154994993Y-96423796D01*
X154843796Y-96574993D01*
X154718103Y-96747994D01*
X154715709Y-96752693D01*
X154667731Y-96803485D01*
X154599908Y-96820275D01*
X154533775Y-96797732D01*
X154497800Y-96756210D01*
X154497168Y-96756598D01*
X154494829Y-96752781D01*
X154494743Y-96752682D01*
X154494620Y-96752441D01*
X154369727Y-96580540D01*
X154369723Y-96580535D01*
X154219464Y-96430276D01*
X154219459Y-96430272D01*
X154047557Y-96305379D01*
X153858215Y-96208903D01*
X153656124Y-96143241D01*
X153590000Y-96132768D01*
X153590000Y-97026988D01*
X153532993Y-96994075D01*
X153405826Y-96960000D01*
X153274174Y-96960000D01*
X153147007Y-96994075D01*
X153090000Y-97026988D01*
X153090000Y-96132768D01*
X153089999Y-96132768D01*
X153023875Y-96143241D01*
X152821784Y-96208903D01*
X152632442Y-96305379D01*
X152460541Y-96430271D01*
X152353084Y-96537728D01*
X152291761Y-96571212D01*
X152222069Y-96566228D01*
X152166136Y-96524356D01*
X152149223Y-96493384D01*
X152100889Y-96363796D01*
X152013261Y-96246739D01*
X151896204Y-96159111D01*
X151759203Y-96108011D01*
X151698654Y-96101500D01*
X151698638Y-96101500D01*
X149901362Y-96101500D01*
X149901345Y-96101500D01*
X149840797Y-96108011D01*
X149840795Y-96108011D01*
X149703795Y-96159111D01*
X149586739Y-96246739D01*
X149499111Y-96363795D01*
X149448011Y-96500795D01*
X149448011Y-96500797D01*
X149441500Y-96561345D01*
X149441500Y-98358654D01*
X149448011Y-98419202D01*
X149448011Y-98419204D01*
X149479138Y-98502656D01*
X149499111Y-98556204D01*
X149586739Y-98673261D01*
X149703796Y-98760889D01*
X149840799Y-98811989D01*
X149868050Y-98814918D01*
X149901345Y-98818499D01*
X149901362Y-98818500D01*
X151698638Y-98818500D01*
X151698654Y-98818499D01*
X151725692Y-98815591D01*
X151759201Y-98811989D01*
X151896204Y-98760889D01*
X152013261Y-98673261D01*
X152100889Y-98556204D01*
X152149223Y-98426615D01*
X152191093Y-98370686D01*
X152256557Y-98346269D01*
X152324830Y-98361121D01*
X152353084Y-98382272D01*
X152460535Y-98489723D01*
X152460540Y-98489727D01*
X152632442Y-98614620D01*
X152821782Y-98711095D01*
X153023871Y-98776757D01*
X153090000Y-98787231D01*
X153090000Y-97893012D01*
X153147007Y-97925925D01*
X153274174Y-97960000D01*
X153405826Y-97960000D01*
X153532993Y-97925925D01*
X153590000Y-97893012D01*
X153590000Y-98787230D01*
X153656126Y-98776757D01*
X153656129Y-98776757D01*
X153858217Y-98711095D01*
X154047557Y-98614620D01*
X154219459Y-98489727D01*
X154219464Y-98489723D01*
X154369723Y-98339464D01*
X154369727Y-98339459D01*
X154494619Y-98167560D01*
X154494738Y-98167327D01*
X154494808Y-98167252D01*
X154497168Y-98163402D01*
X154497976Y-98163897D01*
X154542707Y-98116526D01*
X154610526Y-98099723D01*
X154676663Y-98122254D01*
X154715712Y-98167311D01*
X154718103Y-98172005D01*
X154718106Y-98172009D01*
X154843794Y-98345004D01*
X154994996Y-98496206D01*
X155167991Y-98621894D01*
X155254542Y-98665994D01*
X155358516Y-98718972D01*
X155358519Y-98718973D01*
X155460200Y-98752010D01*
X155561884Y-98785049D01*
X155773084Y-98818500D01*
X155773085Y-98818500D01*
X155986915Y-98818500D01*
X155986916Y-98818500D01*
X156198116Y-98785049D01*
X156401483Y-98718972D01*
X156592009Y-98621894D01*
X156765004Y-98496206D01*
X156916206Y-98345004D01*
X157041894Y-98172009D01*
X157041896Y-98172004D01*
X157044270Y-98168132D01*
X157096080Y-98121254D01*
X157165009Y-98109829D01*
X157229173Y-98137483D01*
X157255730Y-98168132D01*
X157258103Y-98172005D01*
X157258105Y-98172008D01*
X157258106Y-98172009D01*
X157383794Y-98345004D01*
X157534996Y-98496206D01*
X157707991Y-98621894D01*
X157794542Y-98665994D01*
X157898516Y-98718972D01*
X157898519Y-98718973D01*
X158000200Y-98752010D01*
X158101884Y-98785049D01*
X158313084Y-98818500D01*
X158313085Y-98818500D01*
X158526915Y-98818500D01*
X158526916Y-98818500D01*
X158738116Y-98785049D01*
X158941483Y-98718972D01*
X159132009Y-98621894D01*
X159305004Y-98496206D01*
X159456206Y-98345004D01*
X159581894Y-98172009D01*
X159581896Y-98172004D01*
X159584270Y-98168132D01*
X159636080Y-98121254D01*
X159705009Y-98109829D01*
X159769173Y-98137483D01*
X159795730Y-98168132D01*
X159798103Y-98172005D01*
X159798105Y-98172008D01*
X159798106Y-98172009D01*
X159923794Y-98345004D01*
X160074996Y-98496206D01*
X160247991Y-98621894D01*
X160334542Y-98665994D01*
X160438516Y-98718972D01*
X160438519Y-98718973D01*
X160540200Y-98752010D01*
X160641884Y-98785049D01*
X160853084Y-98818500D01*
X160853085Y-98818500D01*
X161066915Y-98818500D01*
X161066916Y-98818500D01*
X161278116Y-98785049D01*
X161481483Y-98718972D01*
X161672009Y-98621894D01*
X161845004Y-98496206D01*
X161996206Y-98345004D01*
X162121894Y-98172009D01*
X162121896Y-98172004D01*
X162124270Y-98168132D01*
X162176080Y-98121254D01*
X162245009Y-98109829D01*
X162309173Y-98137483D01*
X162335730Y-98168132D01*
X162338103Y-98172005D01*
X162338105Y-98172008D01*
X162338106Y-98172009D01*
X162463794Y-98345004D01*
X162614996Y-98496206D01*
X162787991Y-98621894D01*
X162795705Y-98625824D01*
X162789179Y-99924500D01*
X100768093Y-99924500D01*
X100755939Y-99923903D01*
X100640226Y-99912506D01*
X100616386Y-99907764D01*
X100510971Y-99875787D01*
X100488514Y-99866484D01*
X100391376Y-99814563D01*
X100371164Y-99801058D01*
X100286012Y-99731175D01*
X100268824Y-99713987D01*
X100198941Y-99628835D01*
X100185436Y-99608623D01*
X100133515Y-99511485D01*
X100124214Y-99489034D01*
X100092233Y-99383606D01*
X100087494Y-99359778D01*
X100076097Y-99244060D01*
X100075500Y-99231907D01*
X100075500Y-97334038D01*
X112369500Y-97334038D01*
X112369500Y-97585961D01*
X112408910Y-97834785D01*
X112486760Y-98074383D01*
X112601132Y-98298848D01*
X112749201Y-98502649D01*
X112749205Y-98502654D01*
X112927345Y-98680794D01*
X112927350Y-98680798D01*
X113037587Y-98760889D01*
X113131155Y-98828870D01*
X113274184Y-98901747D01*
X113355616Y-98943239D01*
X113355618Y-98943239D01*
X113355621Y-98943241D01*
X113595215Y-99021090D01*
X113844038Y-99060500D01*
X113844039Y-99060500D01*
X114095961Y-99060500D01*
X114095962Y-99060500D01*
X114344785Y-99021090D01*
X114584379Y-98943241D01*
X114808845Y-98828870D01*
X115012656Y-98680793D01*
X115190793Y-98502656D01*
X115338870Y-98298845D01*
X115453241Y-98074379D01*
X115531090Y-97834785D01*
X115570500Y-97585962D01*
X115570500Y-97334038D01*
X115531090Y-97085215D01*
X115453241Y-96845621D01*
X115453239Y-96845618D01*
X115453239Y-96845616D01*
X115403494Y-96747987D01*
X115338870Y-96621155D01*
X115295416Y-96561345D01*
X126581500Y-96561345D01*
X126581500Y-98358654D01*
X126588011Y-98419202D01*
X126588011Y-98419204D01*
X126619138Y-98502656D01*
X126639111Y-98556204D01*
X126726739Y-98673261D01*
X126843796Y-98760889D01*
X126980799Y-98811989D01*
X127008050Y-98814918D01*
X127041345Y-98818499D01*
X127041362Y-98818500D01*
X128838638Y-98818500D01*
X128838654Y-98818499D01*
X128865692Y-98815591D01*
X128899201Y-98811989D01*
X129036204Y-98760889D01*
X129153261Y-98673261D01*
X129240889Y-98556204D01*
X129285957Y-98435371D01*
X129327827Y-98379442D01*
X129393291Y-98355025D01*
X129461564Y-98369877D01*
X129489818Y-98391028D01*
X129594996Y-98496206D01*
X129767991Y-98621894D01*
X129854542Y-98665994D01*
X129958516Y-98718972D01*
X129958519Y-98718973D01*
X130060200Y-98752010D01*
X130161884Y-98785049D01*
X130373084Y-98818500D01*
X130373085Y-98818500D01*
X130586915Y-98818500D01*
X130586916Y-98818500D01*
X130798116Y-98785049D01*
X131001483Y-98718972D01*
X131192009Y-98621894D01*
X131365004Y-98496206D01*
X131516206Y-98345004D01*
X131641894Y-98172009D01*
X131641896Y-98172004D01*
X131644270Y-98168132D01*
X131696080Y-98121254D01*
X131765009Y-98109829D01*
X131829173Y-98137483D01*
X131855730Y-98168132D01*
X131858103Y-98172005D01*
X131858105Y-98172008D01*
X131858106Y-98172009D01*
X131983794Y-98345004D01*
X132134996Y-98496206D01*
X132307991Y-98621894D01*
X132394542Y-98665994D01*
X132498516Y-98718972D01*
X132498519Y-98718973D01*
X132600200Y-98752010D01*
X132701884Y-98785049D01*
X132913084Y-98818500D01*
X132913085Y-98818500D01*
X133126915Y-98818500D01*
X133126916Y-98818500D01*
X133338116Y-98785049D01*
X133541483Y-98718972D01*
X133732009Y-98621894D01*
X133905004Y-98496206D01*
X134056206Y-98345004D01*
X134181894Y-98172009D01*
X134181896Y-98172004D01*
X134184270Y-98168132D01*
X134236080Y-98121254D01*
X134305009Y-98109829D01*
X134369173Y-98137483D01*
X134395730Y-98168132D01*
X134398103Y-98172005D01*
X134398105Y-98172008D01*
X134398106Y-98172009D01*
X134523794Y-98345004D01*
X134674996Y-98496206D01*
X134847991Y-98621894D01*
X134934542Y-98665994D01*
X135038516Y-98718972D01*
X135038519Y-98718973D01*
X135140200Y-98752010D01*
X135241884Y-98785049D01*
X135453084Y-98818500D01*
X135453085Y-98818500D01*
X135666915Y-98818500D01*
X135666916Y-98818500D01*
X135878116Y-98785049D01*
X136081483Y-98718972D01*
X136272009Y-98621894D01*
X136445004Y-98496206D01*
X136596206Y-98345004D01*
X136721894Y-98172009D01*
X136721896Y-98172004D01*
X136724270Y-98168132D01*
X136776080Y-98121254D01*
X136845009Y-98109829D01*
X136909173Y-98137483D01*
X136935730Y-98168132D01*
X136938103Y-98172005D01*
X136938105Y-98172008D01*
X136938106Y-98172009D01*
X137063794Y-98345004D01*
X137214996Y-98496206D01*
X137387991Y-98621894D01*
X137474542Y-98665994D01*
X137578516Y-98718972D01*
X137578519Y-98718973D01*
X137680200Y-98752010D01*
X137781884Y-98785049D01*
X137993084Y-98818500D01*
X137993085Y-98818500D01*
X138206915Y-98818500D01*
X138206916Y-98818500D01*
X138418116Y-98785049D01*
X138621483Y-98718972D01*
X138812009Y-98621894D01*
X138985004Y-98496206D01*
X139136206Y-98345004D01*
X139261894Y-98172009D01*
X139261896Y-98172004D01*
X139264270Y-98168132D01*
X139316080Y-98121254D01*
X139385009Y-98109829D01*
X139449173Y-98137483D01*
X139475730Y-98168132D01*
X139478103Y-98172005D01*
X139478105Y-98172008D01*
X139478106Y-98172009D01*
X139603794Y-98345004D01*
X139754996Y-98496206D01*
X139927991Y-98621894D01*
X140014542Y-98665994D01*
X140118516Y-98718972D01*
X140118519Y-98718973D01*
X140220200Y-98752010D01*
X140321884Y-98785049D01*
X140533084Y-98818500D01*
X140533085Y-98818500D01*
X140746915Y-98818500D01*
X140746916Y-98818500D01*
X140958116Y-98785049D01*
X141161483Y-98718972D01*
X141352009Y-98621894D01*
X141525004Y-98496206D01*
X141676206Y-98345004D01*
X141801894Y-98172009D01*
X141801896Y-98172004D01*
X141804270Y-98168132D01*
X141856080Y-98121254D01*
X141925009Y-98109829D01*
X141989173Y-98137483D01*
X142015730Y-98168132D01*
X142018103Y-98172005D01*
X142018105Y-98172008D01*
X142018106Y-98172009D01*
X142143794Y-98345004D01*
X142294996Y-98496206D01*
X142467991Y-98621894D01*
X142554542Y-98665994D01*
X142658516Y-98718972D01*
X142658519Y-98718973D01*
X142760200Y-98752010D01*
X142861884Y-98785049D01*
X143073084Y-98818500D01*
X143073085Y-98818500D01*
X143286915Y-98818500D01*
X143286916Y-98818500D01*
X143498116Y-98785049D01*
X143701483Y-98718972D01*
X143892009Y-98621894D01*
X144065004Y-98496206D01*
X144216206Y-98345004D01*
X144341894Y-98172009D01*
X144341896Y-98172004D01*
X144344270Y-98168132D01*
X144396080Y-98121254D01*
X144465009Y-98109829D01*
X144529173Y-98137483D01*
X144555730Y-98168132D01*
X144558103Y-98172005D01*
X144558105Y-98172008D01*
X144558106Y-98172009D01*
X144683794Y-98345004D01*
X144834996Y-98496206D01*
X145007991Y-98621894D01*
X145094542Y-98665994D01*
X145198516Y-98718972D01*
X145198519Y-98718973D01*
X145300200Y-98752010D01*
X145401884Y-98785049D01*
X145613084Y-98818500D01*
X145613085Y-98818500D01*
X145826915Y-98818500D01*
X145826916Y-98818500D01*
X146038116Y-98785049D01*
X146241483Y-98718972D01*
X146432009Y-98621894D01*
X146605004Y-98496206D01*
X146756206Y-98345004D01*
X146881894Y-98172009D01*
X146978972Y-97981483D01*
X147045049Y-97778116D01*
X147078500Y-97566916D01*
X147078500Y-97353084D01*
X147045049Y-97141884D01*
X146978972Y-96938517D01*
X146978972Y-96938516D01*
X146931639Y-96845621D01*
X146881894Y-96747991D01*
X146756206Y-96574996D01*
X146605004Y-96423794D01*
X146432009Y-96298106D01*
X146241483Y-96201027D01*
X146241480Y-96201026D01*
X146038117Y-96134951D01*
X145908994Y-96114500D01*
X145826916Y-96101500D01*
X145613084Y-96101500D01*
X145542684Y-96112650D01*
X145401882Y-96134951D01*
X145198519Y-96201026D01*
X145198516Y-96201027D01*
X145007990Y-96298106D01*
X144834993Y-96423796D01*
X144683796Y-96574993D01*
X144558105Y-96747991D01*
X144555727Y-96751873D01*
X144503914Y-96798748D01*
X144434984Y-96810169D01*
X144370822Y-96782512D01*
X144344273Y-96751873D01*
X144341894Y-96747991D01*
X144341891Y-96747987D01*
X144216206Y-96574996D01*
X144065004Y-96423794D01*
X143892009Y-96298106D01*
X143701483Y-96201027D01*
X143701480Y-96201026D01*
X143498117Y-96134951D01*
X143368994Y-96114500D01*
X143286916Y-96101500D01*
X143073084Y-96101500D01*
X143002684Y-96112650D01*
X142861882Y-96134951D01*
X142658519Y-96201026D01*
X142658516Y-96201027D01*
X142467990Y-96298106D01*
X142294993Y-96423796D01*
X142143796Y-96574993D01*
X142018105Y-96747991D01*
X142015727Y-96751873D01*
X141963914Y-96798748D01*
X141894984Y-96810169D01*
X141830822Y-96782512D01*
X141804273Y-96751873D01*
X141801894Y-96747991D01*
X141801891Y-96747987D01*
X141676206Y-96574996D01*
X141525004Y-96423794D01*
X141352009Y-96298106D01*
X141161483Y-96201027D01*
X141161480Y-96201026D01*
X140958117Y-96134951D01*
X140828994Y-96114500D01*
X140746916Y-96101500D01*
X140533084Y-96101500D01*
X140462684Y-96112650D01*
X140321882Y-96134951D01*
X140118519Y-96201026D01*
X140118516Y-96201027D01*
X139927990Y-96298106D01*
X139754993Y-96423796D01*
X139603796Y-96574993D01*
X139478105Y-96747991D01*
X139475727Y-96751873D01*
X139423914Y-96798748D01*
X139354984Y-96810169D01*
X139290822Y-96782512D01*
X139264273Y-96751873D01*
X139261894Y-96747991D01*
X139261891Y-96747987D01*
X139136206Y-96574996D01*
X138985004Y-96423794D01*
X138812009Y-96298106D01*
X138621483Y-96201027D01*
X138621480Y-96201026D01*
X138418117Y-96134951D01*
X138288994Y-96114500D01*
X138206916Y-96101500D01*
X137993084Y-96101500D01*
X137922684Y-96112650D01*
X137781882Y-96134951D01*
X137578519Y-96201026D01*
X137578516Y-96201027D01*
X137387990Y-96298106D01*
X137214993Y-96423796D01*
X137063796Y-96574993D01*
X136938105Y-96747991D01*
X136935727Y-96751873D01*
X136883914Y-96798748D01*
X136814984Y-96810169D01*
X136750822Y-96782512D01*
X136724273Y-96751873D01*
X136721894Y-96747991D01*
X136721891Y-96747987D01*
X136596206Y-96574996D01*
X136445004Y-96423794D01*
X136272009Y-96298106D01*
X136081483Y-96201027D01*
X136081480Y-96201026D01*
X135878117Y-96134951D01*
X135748994Y-96114500D01*
X135666916Y-96101500D01*
X135453084Y-96101500D01*
X135382684Y-96112650D01*
X135241882Y-96134951D01*
X135038519Y-96201026D01*
X135038516Y-96201027D01*
X134847990Y-96298106D01*
X134674993Y-96423796D01*
X134523796Y-96574993D01*
X134398105Y-96747991D01*
X134395727Y-96751873D01*
X134343914Y-96798748D01*
X134274984Y-96810169D01*
X134210822Y-96782512D01*
X134184273Y-96751873D01*
X134181894Y-96747991D01*
X134181891Y-96747987D01*
X134056206Y-96574996D01*
X133905004Y-96423794D01*
X133732009Y-96298106D01*
X133541483Y-96201027D01*
X133541480Y-96201026D01*
X133338117Y-96134951D01*
X133208994Y-96114500D01*
X133126916Y-96101500D01*
X132913084Y-96101500D01*
X132842684Y-96112650D01*
X132701882Y-96134951D01*
X132498519Y-96201026D01*
X132498516Y-96201027D01*
X132307990Y-96298106D01*
X132134993Y-96423796D01*
X131983796Y-96574993D01*
X131858105Y-96747991D01*
X131855727Y-96751873D01*
X131803914Y-96798748D01*
X131734984Y-96810169D01*
X131670822Y-96782512D01*
X131644273Y-96751873D01*
X131641894Y-96747991D01*
X131641891Y-96747987D01*
X131516206Y-96574996D01*
X131365004Y-96423794D01*
X131192009Y-96298106D01*
X131001483Y-96201027D01*
X131001480Y-96201026D01*
X130798117Y-96134951D01*
X130668994Y-96114500D01*
X130586916Y-96101500D01*
X130373084Y-96101500D01*
X130302684Y-96112650D01*
X130161882Y-96134951D01*
X129958519Y-96201026D01*
X129958516Y-96201027D01*
X129767990Y-96298106D01*
X129594997Y-96423793D01*
X129489818Y-96528972D01*
X129428495Y-96562456D01*
X129358803Y-96557472D01*
X129302870Y-96515600D01*
X129285958Y-96484629D01*
X129240889Y-96363796D01*
X129153261Y-96246739D01*
X129036204Y-96159111D01*
X128899203Y-96108011D01*
X128838654Y-96101500D01*
X128838638Y-96101500D01*
X127041362Y-96101500D01*
X127041345Y-96101500D01*
X126980797Y-96108011D01*
X126980795Y-96108011D01*
X126843795Y-96159111D01*
X126726739Y-96246739D01*
X126639111Y-96363795D01*
X126588011Y-96500795D01*
X126588011Y-96500797D01*
X126581500Y-96561345D01*
X115295416Y-96561345D01*
X115278257Y-96537728D01*
X115190798Y-96417350D01*
X115190794Y-96417345D01*
X115012654Y-96239205D01*
X115012649Y-96239201D01*
X114808848Y-96091132D01*
X114808847Y-96091131D01*
X114808845Y-96091130D01*
X114738747Y-96055413D01*
X114584383Y-95976760D01*
X114344785Y-95898910D01*
X114095962Y-95859500D01*
X113844038Y-95859500D01*
X113719626Y-95879205D01*
X113595214Y-95898910D01*
X113355616Y-95976760D01*
X113131151Y-96091132D01*
X112927350Y-96239201D01*
X112927345Y-96239205D01*
X112749205Y-96417345D01*
X112749201Y-96417350D01*
X112601132Y-96621151D01*
X112486760Y-96845616D01*
X112408910Y-97085214D01*
X112369500Y-97334038D01*
X100075500Y-97334038D01*
X100075500Y-94560965D01*
X158703700Y-94560965D01*
X158703700Y-94720234D01*
X158734768Y-94876423D01*
X158734770Y-94876431D01*
X158795717Y-95023569D01*
X158884195Y-95155987D01*
X158884201Y-95155994D01*
X158996805Y-95268598D01*
X158996812Y-95268604D01*
X159129230Y-95357082D01*
X159129231Y-95357082D01*
X159129232Y-95357083D01*
X159276369Y-95418030D01*
X159432565Y-95449099D01*
X159432569Y-95449100D01*
X159432570Y-95449100D01*
X159591831Y-95449100D01*
X159591832Y-95449099D01*
X159748031Y-95418030D01*
X159895168Y-95357083D01*
X160027589Y-95268603D01*
X160140203Y-95155989D01*
X160228683Y-95023568D01*
X160289630Y-94876431D01*
X160320700Y-94720230D01*
X160320700Y-94560970D01*
X160289630Y-94404769D01*
X160228683Y-94257632D01*
X160200886Y-94216031D01*
X160140204Y-94125212D01*
X160140198Y-94125205D01*
X160027591Y-94012598D01*
X160005114Y-93997580D01*
X160005112Y-93997578D01*
X159895169Y-93924117D01*
X159838310Y-93900565D01*
X161319900Y-93900565D01*
X161319900Y-94059834D01*
X161350968Y-94216023D01*
X161350970Y-94216031D01*
X161411917Y-94363169D01*
X161500395Y-94495587D01*
X161500401Y-94495594D01*
X161613005Y-94608198D01*
X161613012Y-94608204D01*
X161745430Y-94696682D01*
X161745431Y-94696682D01*
X161745432Y-94696683D01*
X161892569Y-94757630D01*
X162048765Y-94788699D01*
X162048769Y-94788700D01*
X162048770Y-94788700D01*
X162208031Y-94788700D01*
X162208032Y-94788699D01*
X162364231Y-94757630D01*
X162511368Y-94696683D01*
X162643789Y-94608203D01*
X162756403Y-94495589D01*
X162844883Y-94363168D01*
X162905830Y-94216031D01*
X162936900Y-94059830D01*
X162936900Y-93900570D01*
X162905830Y-93744369D01*
X162844883Y-93597232D01*
X162756403Y-93464811D01*
X162756398Y-93464805D01*
X162643794Y-93352201D01*
X162643787Y-93352195D01*
X162511369Y-93263717D01*
X162364231Y-93202770D01*
X162364223Y-93202768D01*
X162208034Y-93171700D01*
X162208030Y-93171700D01*
X162048770Y-93171700D01*
X162048765Y-93171700D01*
X161892576Y-93202768D01*
X161892568Y-93202770D01*
X161745430Y-93263717D01*
X161613012Y-93352195D01*
X161613005Y-93352201D01*
X161500401Y-93464805D01*
X161500395Y-93464812D01*
X161411917Y-93597230D01*
X161350970Y-93744368D01*
X161350968Y-93744376D01*
X161319900Y-93900565D01*
X159838310Y-93900565D01*
X159748031Y-93863170D01*
X159748023Y-93863168D01*
X159591834Y-93832100D01*
X159591830Y-93832100D01*
X159432570Y-93832100D01*
X159432565Y-93832100D01*
X159276376Y-93863168D01*
X159276368Y-93863170D01*
X159129230Y-93924117D01*
X158996812Y-94012595D01*
X158996805Y-94012601D01*
X158884201Y-94125205D01*
X158884195Y-94125212D01*
X158795717Y-94257630D01*
X158734770Y-94404768D01*
X158734768Y-94404776D01*
X158703700Y-94560965D01*
X100075500Y-94560965D01*
X100075500Y-91081165D01*
X130535100Y-91081165D01*
X130535100Y-91240434D01*
X130566168Y-91396623D01*
X130566170Y-91396631D01*
X130627117Y-91543769D01*
X130715595Y-91676187D01*
X130715601Y-91676194D01*
X130828205Y-91788798D01*
X130828212Y-91788804D01*
X130960630Y-91877282D01*
X130960631Y-91877282D01*
X130960632Y-91877283D01*
X131107769Y-91938230D01*
X131263965Y-91969299D01*
X131263969Y-91969300D01*
X131263970Y-91969300D01*
X131423231Y-91969300D01*
X131423232Y-91969299D01*
X131579431Y-91938230D01*
X131726568Y-91877283D01*
X131858989Y-91788803D01*
X131971603Y-91676189D01*
X132060083Y-91543768D01*
X132121030Y-91396631D01*
X132152100Y-91240430D01*
X132152100Y-91081170D01*
X132121030Y-90924969D01*
X132060083Y-90777832D01*
X131971603Y-90645411D01*
X131971598Y-90645405D01*
X131858994Y-90532801D01*
X131858987Y-90532795D01*
X131726569Y-90444317D01*
X131579431Y-90383370D01*
X131579423Y-90383368D01*
X131423234Y-90352300D01*
X131423230Y-90352300D01*
X131263970Y-90352300D01*
X131263965Y-90352300D01*
X131107776Y-90383368D01*
X131107768Y-90383370D01*
X130960630Y-90444317D01*
X130828212Y-90532795D01*
X130828205Y-90532801D01*
X130715601Y-90645405D01*
X130715595Y-90645412D01*
X130627117Y-90777830D01*
X130566170Y-90924968D01*
X130566168Y-90924976D01*
X130535100Y-91081165D01*
X100075500Y-91081165D01*
X100075500Y-88312565D01*
X155300100Y-88312565D01*
X155300100Y-88471834D01*
X155331168Y-88628023D01*
X155331170Y-88628031D01*
X155392117Y-88775169D01*
X155480595Y-88907587D01*
X155480601Y-88907594D01*
X155593205Y-89020198D01*
X155593212Y-89020204D01*
X155725630Y-89108682D01*
X155725631Y-89108682D01*
X155725632Y-89108683D01*
X155872769Y-89169630D01*
X156028965Y-89200699D01*
X156028969Y-89200700D01*
X156028970Y-89200700D01*
X156188231Y-89200700D01*
X156188232Y-89200699D01*
X156344431Y-89169630D01*
X156491568Y-89108683D01*
X156623989Y-89020203D01*
X156736603Y-88907589D01*
X156825083Y-88775168D01*
X156886030Y-88628031D01*
X156917100Y-88471830D01*
X156917100Y-88312570D01*
X156886030Y-88156369D01*
X156825083Y-88009232D01*
X156736603Y-87876811D01*
X156736598Y-87876805D01*
X156623994Y-87764201D01*
X156623987Y-87764195D01*
X156491569Y-87675717D01*
X156344431Y-87614770D01*
X156344423Y-87614768D01*
X156188234Y-87583700D01*
X156188230Y-87583700D01*
X156028970Y-87583700D01*
X156028965Y-87583700D01*
X155872776Y-87614768D01*
X155872768Y-87614770D01*
X155725630Y-87675717D01*
X155593212Y-87764195D01*
X155593205Y-87764201D01*
X155480601Y-87876805D01*
X155480595Y-87876812D01*
X155392117Y-88009230D01*
X155331170Y-88156368D01*
X155331168Y-88156376D01*
X155300100Y-88312565D01*
X100075500Y-88312565D01*
X100075500Y-86864765D01*
X113440900Y-86864765D01*
X113440900Y-87024034D01*
X113471968Y-87180223D01*
X113471970Y-87180231D01*
X113532917Y-87327369D01*
X113621395Y-87459787D01*
X113621401Y-87459794D01*
X113734005Y-87572398D01*
X113734012Y-87572404D01*
X113866430Y-87660882D01*
X113866431Y-87660882D01*
X113866432Y-87660883D01*
X114013569Y-87721830D01*
X114169765Y-87752899D01*
X114169769Y-87752900D01*
X114169770Y-87752900D01*
X114329031Y-87752900D01*
X114329032Y-87752899D01*
X114485231Y-87721830D01*
X114632368Y-87660883D01*
X114764789Y-87572403D01*
X114877403Y-87459789D01*
X114965883Y-87327368D01*
X115026830Y-87180231D01*
X115057900Y-87024030D01*
X115057900Y-86864770D01*
X115026830Y-86708569D01*
X114965883Y-86561432D01*
X114877403Y-86429011D01*
X114877398Y-86429005D01*
X114764794Y-86316401D01*
X114764787Y-86316395D01*
X114632369Y-86227917D01*
X114485231Y-86166970D01*
X114485223Y-86166968D01*
X114329034Y-86135900D01*
X114329030Y-86135900D01*
X114169770Y-86135900D01*
X114169765Y-86135900D01*
X114013576Y-86166968D01*
X114013568Y-86166970D01*
X113866430Y-86227917D01*
X113734012Y-86316395D01*
X113734005Y-86316401D01*
X113621401Y-86429005D01*
X113621395Y-86429012D01*
X113532917Y-86561430D01*
X113471970Y-86708568D01*
X113471968Y-86708576D01*
X113440900Y-86864765D01*
X100075500Y-86864765D01*
X100075500Y-83962284D01*
X112103500Y-83962284D01*
X112103500Y-84176115D01*
X112136951Y-84387317D01*
X112203026Y-84590680D01*
X112203027Y-84590683D01*
X112300106Y-84781209D01*
X112425794Y-84954204D01*
X112576996Y-85105406D01*
X112749991Y-85231094D01*
X112843438Y-85278707D01*
X112940516Y-85328172D01*
X112940519Y-85328173D01*
X113042200Y-85361210D01*
X113143884Y-85394249D01*
X113355084Y-85427700D01*
X113355085Y-85427700D01*
X113568915Y-85427700D01*
X113568916Y-85427700D01*
X113780116Y-85394249D01*
X113983483Y-85328172D01*
X114174009Y-85231094D01*
X114347004Y-85105406D01*
X114498206Y-84954204D01*
X114567982Y-84858165D01*
X137723300Y-84858165D01*
X137723300Y-85017434D01*
X137754368Y-85173623D01*
X137754370Y-85173631D01*
X137815317Y-85320769D01*
X137903795Y-85453187D01*
X137903801Y-85453194D01*
X138016405Y-85565798D01*
X138016412Y-85565804D01*
X138148830Y-85654282D01*
X138148831Y-85654282D01*
X138148832Y-85654283D01*
X138295969Y-85715230D01*
X138452165Y-85746299D01*
X138452169Y-85746300D01*
X138452170Y-85746300D01*
X138611431Y-85746300D01*
X138611432Y-85746299D01*
X138767631Y-85715230D01*
X138914768Y-85654283D01*
X139047189Y-85565803D01*
X139159803Y-85453189D01*
X139248283Y-85320768D01*
X139309230Y-85173631D01*
X139340300Y-85017430D01*
X139340300Y-84858170D01*
X139309230Y-84701969D01*
X139248283Y-84554832D01*
X139195809Y-84476299D01*
X139159804Y-84422412D01*
X139159798Y-84422405D01*
X139047194Y-84309801D01*
X139047187Y-84309795D01*
X138914769Y-84221317D01*
X138767631Y-84160370D01*
X138767623Y-84160368D01*
X138611434Y-84129300D01*
X138611430Y-84129300D01*
X138452170Y-84129300D01*
X138452165Y-84129300D01*
X138295976Y-84160368D01*
X138295968Y-84160370D01*
X138148830Y-84221317D01*
X138016412Y-84309795D01*
X138016405Y-84309801D01*
X137903801Y-84422405D01*
X137903795Y-84422412D01*
X137815317Y-84554830D01*
X137754370Y-84701968D01*
X137754368Y-84701976D01*
X137723300Y-84858165D01*
X114567982Y-84858165D01*
X114623894Y-84781209D01*
X114720972Y-84590683D01*
X114787049Y-84387316D01*
X114820500Y-84176116D01*
X114820500Y-83962284D01*
X114787049Y-83751084D01*
X114785862Y-83747430D01*
X114744587Y-83620395D01*
X114734115Y-83588165D01*
X122153100Y-83588165D01*
X122153100Y-83747434D01*
X122184168Y-83903623D01*
X122184170Y-83903631D01*
X122245117Y-84050769D01*
X122333595Y-84183187D01*
X122333601Y-84183194D01*
X122446205Y-84295798D01*
X122446212Y-84295804D01*
X122578630Y-84384282D01*
X122578631Y-84384282D01*
X122578632Y-84384283D01*
X122725769Y-84445230D01*
X122881965Y-84476299D01*
X122881969Y-84476300D01*
X122881970Y-84476300D01*
X123041231Y-84476300D01*
X123041232Y-84476299D01*
X123197431Y-84445230D01*
X123344568Y-84384283D01*
X123476989Y-84295803D01*
X123589603Y-84183189D01*
X123678083Y-84050768D01*
X123739030Y-83903631D01*
X123770100Y-83747430D01*
X123770100Y-83588170D01*
X123739030Y-83431969D01*
X123678083Y-83284832D01*
X123589603Y-83152411D01*
X123589598Y-83152405D01*
X123476994Y-83039801D01*
X123476987Y-83039795D01*
X123344569Y-82951317D01*
X123197431Y-82890370D01*
X123197423Y-82890368D01*
X123041234Y-82859300D01*
X123041230Y-82859300D01*
X122881970Y-82859300D01*
X122881965Y-82859300D01*
X122725776Y-82890368D01*
X122725768Y-82890370D01*
X122578630Y-82951317D01*
X122446212Y-83039795D01*
X122446205Y-83039801D01*
X122333601Y-83152405D01*
X122333595Y-83152412D01*
X122245117Y-83284830D01*
X122184170Y-83431968D01*
X122184168Y-83431976D01*
X122153100Y-83588165D01*
X114734115Y-83588165D01*
X114720973Y-83547719D01*
X114720972Y-83547716D01*
X114623893Y-83357190D01*
X114571322Y-83284832D01*
X114498206Y-83184196D01*
X114386421Y-83072411D01*
X114352936Y-83011088D01*
X114357920Y-82941396D01*
X114399792Y-82885463D01*
X114430770Y-82868548D01*
X114554084Y-82822555D01*
X114554093Y-82822550D01*
X114669187Y-82736390D01*
X114669190Y-82736387D01*
X114755350Y-82621293D01*
X114755354Y-82621286D01*
X114805596Y-82486579D01*
X114805598Y-82486572D01*
X114811999Y-82427044D01*
X114812000Y-82427027D01*
X114812000Y-81835565D01*
X129265100Y-81835565D01*
X129265100Y-81994834D01*
X129296168Y-82151023D01*
X129296170Y-82151031D01*
X129357117Y-82298169D01*
X129445595Y-82430587D01*
X129445601Y-82430594D01*
X129558205Y-82543198D01*
X129558212Y-82543204D01*
X129690630Y-82631682D01*
X129690631Y-82631682D01*
X129690632Y-82631683D01*
X129837769Y-82692630D01*
X129993965Y-82723699D01*
X129993969Y-82723700D01*
X129993970Y-82723700D01*
X130153231Y-82723700D01*
X130153232Y-82723699D01*
X130309431Y-82692630D01*
X130456568Y-82631683D01*
X130588989Y-82543203D01*
X130701603Y-82430589D01*
X130790083Y-82298168D01*
X130851030Y-82151031D01*
X130882100Y-81994830D01*
X130882100Y-81835570D01*
X130851030Y-81679369D01*
X130790083Y-81532232D01*
X130701603Y-81399811D01*
X130701598Y-81399805D01*
X130588994Y-81287201D01*
X130588987Y-81287195D01*
X130456569Y-81198717D01*
X130309431Y-81137770D01*
X130309423Y-81137768D01*
X130153234Y-81106700D01*
X130153230Y-81106700D01*
X129993970Y-81106700D01*
X129993965Y-81106700D01*
X129837776Y-81137768D01*
X129837768Y-81137770D01*
X129690630Y-81198717D01*
X129558212Y-81287195D01*
X129558205Y-81287201D01*
X129445601Y-81399805D01*
X129445595Y-81399812D01*
X129357117Y-81532230D01*
X129296170Y-81679368D01*
X129296168Y-81679376D01*
X129265100Y-81835565D01*
X114812000Y-81835565D01*
X114812000Y-81779200D01*
X113895012Y-81779200D01*
X113927925Y-81722193D01*
X113962000Y-81595026D01*
X113962000Y-81463374D01*
X113927925Y-81336207D01*
X113895012Y-81279200D01*
X114812000Y-81279200D01*
X114812000Y-80631372D01*
X114811999Y-80631355D01*
X114805598Y-80571827D01*
X114805596Y-80571820D01*
X114755354Y-80437113D01*
X114755350Y-80437106D01*
X114669190Y-80322012D01*
X114669187Y-80322009D01*
X114554093Y-80235849D01*
X114554086Y-80235845D01*
X114419379Y-80185603D01*
X114419372Y-80185601D01*
X114359844Y-80179200D01*
X113712000Y-80179200D01*
X113712000Y-81096188D01*
X113654993Y-81063275D01*
X113527826Y-81029200D01*
X113396174Y-81029200D01*
X113269007Y-81063275D01*
X113212000Y-81096188D01*
X113212000Y-80179200D01*
X112564155Y-80179200D01*
X112504627Y-80185601D01*
X112504620Y-80185603D01*
X112369913Y-80235845D01*
X112369906Y-80235849D01*
X112254812Y-80322009D01*
X112254809Y-80322012D01*
X112168649Y-80437106D01*
X112168645Y-80437113D01*
X112118403Y-80571820D01*
X112118401Y-80571827D01*
X112112000Y-80631355D01*
X112112000Y-81279200D01*
X113028988Y-81279200D01*
X112996075Y-81336207D01*
X112962000Y-81463374D01*
X112962000Y-81595026D01*
X112996075Y-81722193D01*
X113028988Y-81779200D01*
X112112000Y-81779200D01*
X112112000Y-82427044D01*
X112118401Y-82486572D01*
X112118403Y-82486579D01*
X112168645Y-82621286D01*
X112168649Y-82621293D01*
X112254809Y-82736387D01*
X112254812Y-82736390D01*
X112369906Y-82822550D01*
X112369913Y-82822554D01*
X112493230Y-82868548D01*
X112549164Y-82910419D01*
X112573581Y-82975883D01*
X112558730Y-83044156D01*
X112537579Y-83072411D01*
X112425793Y-83184197D01*
X112300106Y-83357190D01*
X112203027Y-83547716D01*
X112203026Y-83547719D01*
X112136951Y-83751082D01*
X112103500Y-83962284D01*
X100075500Y-83962284D01*
X100075500Y-79127200D01*
X101617538Y-79127200D01*
X102420412Y-79127200D01*
X102403195Y-79137140D01*
X102347340Y-79192995D01*
X102307844Y-79261404D01*
X102287400Y-79337704D01*
X102287400Y-79416696D01*
X102307844Y-79492996D01*
X102347340Y-79561405D01*
X102403195Y-79617260D01*
X102420412Y-79627200D01*
X101617538Y-79627200D01*
X101625830Y-79668890D01*
X101625830Y-79668892D01*
X101701207Y-79850871D01*
X101701214Y-79850884D01*
X101810648Y-80014662D01*
X101810651Y-80014666D01*
X101949933Y-80153948D01*
X101949937Y-80153951D01*
X102113715Y-80263385D01*
X102113728Y-80263392D01*
X102295706Y-80338769D01*
X102295718Y-80338772D01*
X102488904Y-80377199D01*
X102488908Y-80377200D01*
X102637400Y-80377200D01*
X102637400Y-79677200D01*
X103137400Y-79677200D01*
X103137400Y-80377200D01*
X103285892Y-80377200D01*
X103285895Y-80377199D01*
X103479081Y-80338772D01*
X103479093Y-80338769D01*
X103661071Y-80263392D01*
X103661084Y-80263385D01*
X103824862Y-80153951D01*
X103824866Y-80153948D01*
X103964148Y-80014666D01*
X103964151Y-80014662D01*
X104073585Y-79850884D01*
X104073592Y-79850871D01*
X104148969Y-79668892D01*
X104148969Y-79668890D01*
X104157262Y-79627200D01*
X103354388Y-79627200D01*
X103371605Y-79617260D01*
X103427460Y-79561405D01*
X103466956Y-79492996D01*
X103487400Y-79416696D01*
X103487400Y-79337704D01*
X103466956Y-79261404D01*
X103427460Y-79192995D01*
X103371605Y-79137140D01*
X103354388Y-79127200D01*
X104157262Y-79127200D01*
X105547538Y-79127200D01*
X106350412Y-79127200D01*
X106333195Y-79137140D01*
X106277340Y-79192995D01*
X106237844Y-79261404D01*
X106217400Y-79337704D01*
X106217400Y-79416696D01*
X106237844Y-79492996D01*
X106277340Y-79561405D01*
X106333195Y-79617260D01*
X106350412Y-79627200D01*
X105547538Y-79627200D01*
X105555830Y-79668890D01*
X105555830Y-79668892D01*
X105631207Y-79850871D01*
X105631214Y-79850884D01*
X105740648Y-80014662D01*
X105740651Y-80014666D01*
X105879933Y-80153948D01*
X105879937Y-80153951D01*
X106043715Y-80263385D01*
X106043728Y-80263392D01*
X106225706Y-80338769D01*
X106225718Y-80338772D01*
X106418904Y-80377199D01*
X106418908Y-80377200D01*
X106817400Y-80377200D01*
X106817400Y-79677200D01*
X107317400Y-79677200D01*
X107317400Y-80377200D01*
X107715892Y-80377200D01*
X107715895Y-80377199D01*
X107909081Y-80338772D01*
X107909093Y-80338769D01*
X108091071Y-80263392D01*
X108091084Y-80263385D01*
X108254862Y-80153951D01*
X108254866Y-80153948D01*
X108394148Y-80014666D01*
X108394151Y-80014662D01*
X108503585Y-79850884D01*
X108503592Y-79850871D01*
X108578969Y-79668892D01*
X108578969Y-79668890D01*
X108587262Y-79627200D01*
X107784388Y-79627200D01*
X107801605Y-79617260D01*
X107857460Y-79561405D01*
X107896956Y-79492996D01*
X107917400Y-79416696D01*
X107917400Y-79337704D01*
X107896956Y-79261404D01*
X107887349Y-79244765D01*
X115371300Y-79244765D01*
X115371300Y-79404034D01*
X115402368Y-79560223D01*
X115402370Y-79560231D01*
X115463317Y-79707369D01*
X115551795Y-79839787D01*
X115551801Y-79839794D01*
X115664405Y-79952398D01*
X115664412Y-79952404D01*
X115796830Y-80040882D01*
X115796831Y-80040882D01*
X115796832Y-80040883D01*
X115943969Y-80101830D01*
X116100165Y-80132899D01*
X116100169Y-80132900D01*
X116100170Y-80132900D01*
X116259431Y-80132900D01*
X116259432Y-80132899D01*
X116415631Y-80101830D01*
X116562768Y-80040883D01*
X116695189Y-79952403D01*
X116807803Y-79839789D01*
X116896283Y-79707368D01*
X116957230Y-79560231D01*
X116988300Y-79404030D01*
X116988300Y-79244770D01*
X116957230Y-79088569D01*
X116896283Y-78941432D01*
X116858980Y-78885604D01*
X116807804Y-78809012D01*
X116807798Y-78809005D01*
X116695194Y-78696401D01*
X116695187Y-78696395D01*
X116562769Y-78607917D01*
X116415631Y-78546970D01*
X116415623Y-78546968D01*
X116259434Y-78515900D01*
X116259430Y-78515900D01*
X116100170Y-78515900D01*
X116100165Y-78515900D01*
X115943976Y-78546968D01*
X115943968Y-78546970D01*
X115796830Y-78607917D01*
X115664412Y-78696395D01*
X115664405Y-78696401D01*
X115551801Y-78809005D01*
X115551795Y-78809012D01*
X115463317Y-78941430D01*
X115402370Y-79088568D01*
X115402368Y-79088576D01*
X115371300Y-79244765D01*
X107887349Y-79244765D01*
X107857460Y-79192995D01*
X107801605Y-79137140D01*
X107784388Y-79127200D01*
X108587262Y-79127200D01*
X108578969Y-79085509D01*
X108578969Y-79085507D01*
X108503592Y-78903528D01*
X108503585Y-78903515D01*
X108394151Y-78739737D01*
X108394148Y-78739733D01*
X108254866Y-78600451D01*
X108254862Y-78600448D01*
X108091084Y-78491014D01*
X108091071Y-78491007D01*
X107909093Y-78415630D01*
X107909081Y-78415627D01*
X107715895Y-78377200D01*
X107317400Y-78377200D01*
X107317400Y-79077200D01*
X106817400Y-79077200D01*
X106817400Y-78377200D01*
X106795244Y-78355044D01*
X106761759Y-78293721D01*
X106766743Y-78224029D01*
X106795243Y-78179683D01*
X106796961Y-78177965D01*
X117581100Y-78177965D01*
X117581100Y-78337234D01*
X117612168Y-78493423D01*
X117612170Y-78493431D01*
X117673117Y-78640569D01*
X117761595Y-78772987D01*
X117761601Y-78772994D01*
X117874205Y-78885598D01*
X117874212Y-78885604D01*
X118006630Y-78974082D01*
X118006631Y-78974082D01*
X118006632Y-78974083D01*
X118153769Y-79035030D01*
X118309965Y-79066099D01*
X118309969Y-79066100D01*
X118309970Y-79066100D01*
X118469231Y-79066100D01*
X118469232Y-79066099D01*
X118625431Y-79035030D01*
X118772568Y-78974083D01*
X118904989Y-78885603D01*
X119017603Y-78772989D01*
X119106083Y-78640568D01*
X119160927Y-78508165D01*
X120070300Y-78508165D01*
X120070300Y-78667434D01*
X120101368Y-78823623D01*
X120101370Y-78823631D01*
X120162317Y-78970769D01*
X120250795Y-79103187D01*
X120250801Y-79103194D01*
X120363405Y-79215798D01*
X120363412Y-79215804D01*
X120495830Y-79304282D01*
X120495831Y-79304282D01*
X120495832Y-79304283D01*
X120642969Y-79365230D01*
X120799165Y-79396299D01*
X120799169Y-79396300D01*
X120799170Y-79396300D01*
X120958431Y-79396300D01*
X120958432Y-79396299D01*
X121114631Y-79365230D01*
X121261768Y-79304283D01*
X121394189Y-79215803D01*
X121506803Y-79103189D01*
X121595283Y-78970768D01*
X121650127Y-78838365D01*
X125455100Y-78838365D01*
X125455100Y-78997634D01*
X125486168Y-79153823D01*
X125486170Y-79153831D01*
X125547117Y-79300969D01*
X125635595Y-79433387D01*
X125635601Y-79433394D01*
X125748205Y-79545998D01*
X125748212Y-79546004D01*
X125880630Y-79634482D01*
X125880631Y-79634482D01*
X125880632Y-79634483D01*
X126027769Y-79695430D01*
X126183965Y-79726499D01*
X126183969Y-79726500D01*
X126183970Y-79726500D01*
X126343231Y-79726500D01*
X126343232Y-79726499D01*
X126499431Y-79695430D01*
X126646568Y-79634483D01*
X126778989Y-79546003D01*
X126891603Y-79433389D01*
X126980083Y-79300968D01*
X127041030Y-79153831D01*
X127072100Y-78997630D01*
X127072100Y-78838370D01*
X127041030Y-78682169D01*
X126980083Y-78535032D01*
X126962131Y-78508165D01*
X126891604Y-78402612D01*
X126891598Y-78402605D01*
X126778994Y-78290001D01*
X126778987Y-78289995D01*
X126646569Y-78201517D01*
X126499431Y-78140570D01*
X126499423Y-78140568D01*
X126343234Y-78109500D01*
X126343230Y-78109500D01*
X126183970Y-78109500D01*
X126183965Y-78109500D01*
X126027776Y-78140568D01*
X126027768Y-78140570D01*
X125880630Y-78201517D01*
X125748212Y-78289995D01*
X125748205Y-78290001D01*
X125635601Y-78402605D01*
X125635595Y-78402612D01*
X125547117Y-78535030D01*
X125486170Y-78682168D01*
X125486168Y-78682176D01*
X125455100Y-78838365D01*
X121650127Y-78838365D01*
X121656230Y-78823631D01*
X121687300Y-78667430D01*
X121687300Y-78508170D01*
X121656230Y-78351969D01*
X121595283Y-78204832D01*
X121577331Y-78177965D01*
X121506804Y-78072412D01*
X121506798Y-78072405D01*
X121394194Y-77959801D01*
X121394187Y-77959795D01*
X121261769Y-77871317D01*
X121114631Y-77810370D01*
X121114623Y-77810368D01*
X120958434Y-77779300D01*
X120958430Y-77779300D01*
X120799170Y-77779300D01*
X120799165Y-77779300D01*
X120642976Y-77810368D01*
X120642968Y-77810370D01*
X120495830Y-77871317D01*
X120363412Y-77959795D01*
X120363405Y-77959801D01*
X120250801Y-78072405D01*
X120250795Y-78072412D01*
X120162317Y-78204830D01*
X120101370Y-78351968D01*
X120101368Y-78351976D01*
X120070300Y-78508165D01*
X119160927Y-78508165D01*
X119167030Y-78493431D01*
X119198100Y-78337230D01*
X119198100Y-78177970D01*
X119167030Y-78021769D01*
X119106083Y-77874632D01*
X119070618Y-77821555D01*
X119017604Y-77742212D01*
X119017598Y-77742205D01*
X118904994Y-77629601D01*
X118904987Y-77629595D01*
X118772569Y-77541117D01*
X118625431Y-77480170D01*
X118625423Y-77480168D01*
X118469234Y-77449100D01*
X118469230Y-77449100D01*
X118309970Y-77449100D01*
X118309965Y-77449100D01*
X118153776Y-77480168D01*
X118153768Y-77480170D01*
X118006630Y-77541117D01*
X117874212Y-77629595D01*
X117874205Y-77629601D01*
X117761601Y-77742205D01*
X117761595Y-77742212D01*
X117673117Y-77874630D01*
X117612170Y-78021768D01*
X117612168Y-78021776D01*
X117581100Y-78177965D01*
X106796961Y-78177965D01*
X106827865Y-78147062D01*
X106870718Y-78072838D01*
X106892900Y-77990053D01*
X106892900Y-77904347D01*
X106870718Y-77821562D01*
X106864255Y-77810368D01*
X106827869Y-77747344D01*
X106827863Y-77747336D01*
X106767263Y-77686736D01*
X106767255Y-77686730D01*
X106693044Y-77643885D01*
X106693040Y-77643883D01*
X106693038Y-77643882D01*
X106610253Y-77621700D01*
X106524547Y-77621700D01*
X106441762Y-77643882D01*
X106441755Y-77643885D01*
X106367544Y-77686730D01*
X106367536Y-77686736D01*
X106306936Y-77747336D01*
X106306930Y-77747344D01*
X106264085Y-77821555D01*
X106264082Y-77821562D01*
X106241900Y-77904347D01*
X106241900Y-77990053D01*
X106256471Y-78044431D01*
X106264082Y-78072837D01*
X106264085Y-78072844D01*
X106306930Y-78147055D01*
X106306936Y-78147063D01*
X106353428Y-78193555D01*
X106386913Y-78254878D01*
X106381929Y-78324570D01*
X106340057Y-78380503D01*
X106289938Y-78402853D01*
X106225718Y-78415627D01*
X106225706Y-78415630D01*
X106043728Y-78491007D01*
X106043715Y-78491014D01*
X105879937Y-78600448D01*
X105879933Y-78600451D01*
X105740651Y-78739733D01*
X105740648Y-78739737D01*
X105631214Y-78903515D01*
X105631207Y-78903528D01*
X105555830Y-79085507D01*
X105555830Y-79085509D01*
X105547538Y-79127200D01*
X104157262Y-79127200D01*
X104148969Y-79085509D01*
X104148969Y-79085507D01*
X104073592Y-78903528D01*
X104073585Y-78903515D01*
X103964151Y-78739737D01*
X103964148Y-78739733D01*
X103824866Y-78600451D01*
X103824862Y-78600448D01*
X103661084Y-78491014D01*
X103661071Y-78491007D01*
X103479093Y-78415630D01*
X103479081Y-78415627D01*
X103285895Y-78377200D01*
X103137400Y-78377200D01*
X103137400Y-79077200D01*
X102637400Y-79077200D01*
X102637400Y-78377200D01*
X102488904Y-78377200D01*
X102295718Y-78415627D01*
X102295706Y-78415630D01*
X102113728Y-78491007D01*
X102113715Y-78491014D01*
X101949937Y-78600448D01*
X101949933Y-78600451D01*
X101810651Y-78739733D01*
X101810648Y-78739737D01*
X101701214Y-78903515D01*
X101701207Y-78903528D01*
X101625830Y-79085507D01*
X101625830Y-79085509D01*
X101617538Y-79127200D01*
X100075500Y-79127200D01*
X100075500Y-76222165D01*
X116361900Y-76222165D01*
X116361900Y-76381434D01*
X116392968Y-76537623D01*
X116392970Y-76537631D01*
X116453917Y-76684769D01*
X116542395Y-76817187D01*
X116542401Y-76817194D01*
X116655005Y-76929798D01*
X116655012Y-76929804D01*
X116787430Y-77018282D01*
X116787431Y-77018282D01*
X116787432Y-77018283D01*
X116934569Y-77079230D01*
X117062260Y-77104629D01*
X117090765Y-77110299D01*
X117090769Y-77110300D01*
X117090770Y-77110300D01*
X117250031Y-77110300D01*
X117250032Y-77110299D01*
X117406231Y-77079230D01*
X117553368Y-77018283D01*
X117685789Y-76929803D01*
X117798403Y-76817189D01*
X117886883Y-76684768D01*
X117947830Y-76537631D01*
X117970161Y-76425365D01*
X118749500Y-76425365D01*
X118749500Y-76584634D01*
X118780568Y-76740823D01*
X118780570Y-76740831D01*
X118841517Y-76887969D01*
X118929995Y-77020387D01*
X118930001Y-77020394D01*
X119042605Y-77132998D01*
X119042612Y-77133004D01*
X119175030Y-77221482D01*
X119175031Y-77221482D01*
X119175032Y-77221483D01*
X119322169Y-77282430D01*
X119478365Y-77313499D01*
X119478369Y-77313500D01*
X119478370Y-77313500D01*
X119637631Y-77313500D01*
X119637632Y-77313499D01*
X119793831Y-77282430D01*
X119940968Y-77221483D01*
X119992030Y-77187365D01*
X133786300Y-77187365D01*
X133786300Y-77346634D01*
X133817368Y-77502823D01*
X133817370Y-77502831D01*
X133878317Y-77649969D01*
X133966795Y-77782387D01*
X133966801Y-77782394D01*
X134079405Y-77894998D01*
X134079412Y-77895004D01*
X134211830Y-77983482D01*
X134211831Y-77983482D01*
X134211832Y-77983483D01*
X134358969Y-78044430D01*
X134501782Y-78072837D01*
X134515165Y-78075499D01*
X134515169Y-78075500D01*
X134515170Y-78075500D01*
X134674431Y-78075500D01*
X134674432Y-78075499D01*
X134830631Y-78044430D01*
X134977768Y-77983483D01*
X135110189Y-77895003D01*
X135222803Y-77782389D01*
X135311283Y-77649968D01*
X135372230Y-77502831D01*
X135403300Y-77346630D01*
X135403300Y-77187370D01*
X135372230Y-77031169D01*
X135311283Y-76884032D01*
X135283595Y-76842594D01*
X135222804Y-76751612D01*
X135222798Y-76751605D01*
X135110194Y-76639001D01*
X135110187Y-76638995D01*
X134977769Y-76550517D01*
X134830631Y-76489570D01*
X134830623Y-76489568D01*
X134674434Y-76458500D01*
X134674430Y-76458500D01*
X134515170Y-76458500D01*
X134515165Y-76458500D01*
X134358976Y-76489568D01*
X134358968Y-76489570D01*
X134211830Y-76550517D01*
X134079412Y-76638995D01*
X134079405Y-76639001D01*
X133966801Y-76751605D01*
X133966795Y-76751612D01*
X133878317Y-76884030D01*
X133817370Y-77031168D01*
X133817368Y-77031176D01*
X133786300Y-77187365D01*
X119992030Y-77187365D01*
X120073389Y-77133003D01*
X120186003Y-77020389D01*
X120274483Y-76887968D01*
X120335430Y-76740831D01*
X120366500Y-76584630D01*
X120366500Y-76425370D01*
X120350965Y-76347269D01*
X120335431Y-76269173D01*
X120335430Y-76269171D01*
X120335430Y-76269169D01*
X120326481Y-76247565D01*
X121035500Y-76247565D01*
X121035500Y-76406834D01*
X121066568Y-76563023D01*
X121066570Y-76563031D01*
X121127517Y-76710169D01*
X121215995Y-76842587D01*
X121216001Y-76842594D01*
X121328605Y-76955198D01*
X121328612Y-76955204D01*
X121461030Y-77043682D01*
X121461031Y-77043682D01*
X121461032Y-77043683D01*
X121608169Y-77104630D01*
X121750786Y-77132998D01*
X121764365Y-77135699D01*
X121764369Y-77135700D01*
X121764370Y-77135700D01*
X121923631Y-77135700D01*
X121923632Y-77135699D01*
X122079831Y-77104630D01*
X122226968Y-77043683D01*
X122359389Y-76955203D01*
X122472003Y-76842589D01*
X122560483Y-76710168D01*
X122621430Y-76563031D01*
X122652500Y-76406830D01*
X122652500Y-76247570D01*
X122621430Y-76091369D01*
X122560483Y-75944232D01*
X122543511Y-75918832D01*
X122472004Y-75811812D01*
X122471998Y-75811805D01*
X122359394Y-75699201D01*
X122359387Y-75699195D01*
X122226969Y-75610717D01*
X122079831Y-75549770D01*
X122079823Y-75549768D01*
X121923634Y-75518700D01*
X121923630Y-75518700D01*
X121764370Y-75518700D01*
X121764365Y-75518700D01*
X121608176Y-75549768D01*
X121608168Y-75549770D01*
X121461030Y-75610717D01*
X121328612Y-75699195D01*
X121328605Y-75699201D01*
X121216001Y-75811805D01*
X121215995Y-75811812D01*
X121127517Y-75944230D01*
X121066570Y-76091368D01*
X121066568Y-76091376D01*
X121035500Y-76247565D01*
X120326481Y-76247565D01*
X120274483Y-76122032D01*
X120253994Y-76091368D01*
X120186004Y-75989612D01*
X120185998Y-75989605D01*
X120073394Y-75877001D01*
X120073387Y-75876995D01*
X119940969Y-75788517D01*
X119793831Y-75727570D01*
X119793823Y-75727568D01*
X119637634Y-75696500D01*
X119637630Y-75696500D01*
X119478370Y-75696500D01*
X119478365Y-75696500D01*
X119322176Y-75727568D01*
X119322168Y-75727570D01*
X119175030Y-75788517D01*
X119042612Y-75876995D01*
X119042605Y-75877001D01*
X118930001Y-75989605D01*
X118929995Y-75989612D01*
X118841517Y-76122030D01*
X118780570Y-76269168D01*
X118780568Y-76269176D01*
X118749500Y-76425365D01*
X117970161Y-76425365D01*
X117973847Y-76406834D01*
X117976184Y-76395087D01*
X117978899Y-76381434D01*
X117978900Y-76381431D01*
X117978900Y-76222169D01*
X117978899Y-76222165D01*
X117947830Y-76065969D01*
X117886883Y-75918832D01*
X117815375Y-75811812D01*
X117798404Y-75786412D01*
X117798398Y-75786405D01*
X117685794Y-75673801D01*
X117685787Y-75673795D01*
X117553369Y-75585317D01*
X117406231Y-75524370D01*
X117406223Y-75524368D01*
X117250034Y-75493300D01*
X117250030Y-75493300D01*
X117090770Y-75493300D01*
X117090765Y-75493300D01*
X116934576Y-75524368D01*
X116934568Y-75524370D01*
X116787430Y-75585317D01*
X116655012Y-75673795D01*
X116655005Y-75673801D01*
X116542401Y-75786405D01*
X116542395Y-75786412D01*
X116453917Y-75918830D01*
X116392970Y-76065968D01*
X116392968Y-76065976D01*
X116361900Y-76222165D01*
X100075500Y-76222165D01*
X100075500Y-72893325D01*
X134902566Y-72893325D01*
X134902566Y-73052594D01*
X134933634Y-73208783D01*
X134933636Y-73208791D01*
X134994583Y-73355929D01*
X135083061Y-73488347D01*
X135083067Y-73488354D01*
X135195671Y-73600958D01*
X135195678Y-73600964D01*
X135328096Y-73689442D01*
X135328097Y-73689442D01*
X135328098Y-73689443D01*
X135475235Y-73750390D01*
X135631431Y-73781459D01*
X135631435Y-73781460D01*
X135631436Y-73781460D01*
X135790697Y-73781460D01*
X135790698Y-73781459D01*
X135946897Y-73750390D01*
X135988964Y-73732965D01*
X153522100Y-73732965D01*
X153522100Y-73892234D01*
X153553168Y-74048423D01*
X153553170Y-74048431D01*
X153614117Y-74195569D01*
X153702595Y-74327987D01*
X153702601Y-74327994D01*
X153815205Y-74440598D01*
X153815212Y-74440604D01*
X153947630Y-74529082D01*
X153947631Y-74529082D01*
X153947632Y-74529083D01*
X154094769Y-74590030D01*
X154250965Y-74621099D01*
X154250969Y-74621100D01*
X154250970Y-74621100D01*
X154410231Y-74621100D01*
X154410232Y-74621099D01*
X154566431Y-74590030D01*
X154713568Y-74529083D01*
X154783263Y-74482514D01*
X154849936Y-74461638D01*
X154917316Y-74480122D01*
X154930811Y-74489761D01*
X154932806Y-74491398D01*
X154932811Y-74491403D01*
X154932815Y-74491406D01*
X154932818Y-74491408D01*
X155065230Y-74579882D01*
X155065231Y-74579882D01*
X155065232Y-74579883D01*
X155212369Y-74640830D01*
X155368565Y-74671899D01*
X155368569Y-74671900D01*
X155368570Y-74671900D01*
X155527831Y-74671900D01*
X155527832Y-74671899D01*
X155684031Y-74640830D01*
X155831168Y-74579883D01*
X155963589Y-74491403D01*
X156076203Y-74378789D01*
X156164683Y-74246368D01*
X156225630Y-74099231D01*
X156256700Y-73943030D01*
X156256700Y-73783770D01*
X156225630Y-73627569D01*
X156164683Y-73480432D01*
X156076203Y-73348011D01*
X156076198Y-73348005D01*
X155963594Y-73235401D01*
X155963587Y-73235395D01*
X155831169Y-73146917D01*
X155684031Y-73085970D01*
X155684023Y-73085968D01*
X155527834Y-73054900D01*
X155527830Y-73054900D01*
X155368570Y-73054900D01*
X155368565Y-73054900D01*
X155212376Y-73085968D01*
X155212368Y-73085970D01*
X155065233Y-73146915D01*
X154995539Y-73193484D01*
X154928861Y-73214361D01*
X154861481Y-73195876D01*
X154847990Y-73186239D01*
X154845991Y-73184599D01*
X154845989Y-73184597D01*
X154845097Y-73184001D01*
X154713569Y-73096117D01*
X154566431Y-73035170D01*
X154566423Y-73035168D01*
X154410234Y-73004100D01*
X154410230Y-73004100D01*
X154250970Y-73004100D01*
X154250965Y-73004100D01*
X154094776Y-73035168D01*
X154094768Y-73035170D01*
X153947630Y-73096117D01*
X153815212Y-73184595D01*
X153815205Y-73184601D01*
X153702601Y-73297205D01*
X153702595Y-73297212D01*
X153614117Y-73429630D01*
X153553170Y-73576768D01*
X153553168Y-73576776D01*
X153522100Y-73732965D01*
X135988964Y-73732965D01*
X136094034Y-73689443D01*
X136226455Y-73600963D01*
X136339069Y-73488349D01*
X136427549Y-73355928D01*
X136488496Y-73208791D01*
X136519566Y-73052590D01*
X136519566Y-72893330D01*
X136488496Y-72737129D01*
X136427549Y-72589992D01*
X136362541Y-72492700D01*
X136339070Y-72457572D01*
X136339064Y-72457565D01*
X136226460Y-72344961D01*
X136226453Y-72344955D01*
X136094035Y-72256477D01*
X135946897Y-72195530D01*
X135946889Y-72195528D01*
X135790700Y-72164460D01*
X135790696Y-72164460D01*
X135631436Y-72164460D01*
X135631431Y-72164460D01*
X135475242Y-72195528D01*
X135475234Y-72195530D01*
X135328096Y-72256477D01*
X135195678Y-72344955D01*
X135195671Y-72344961D01*
X135083067Y-72457565D01*
X135083061Y-72457572D01*
X134994583Y-72589990D01*
X134933636Y-72737128D01*
X134933634Y-72737136D01*
X134902566Y-72893325D01*
X100075500Y-72893325D01*
X100075500Y-70487200D01*
X101617538Y-70487200D01*
X102420412Y-70487200D01*
X102403195Y-70497140D01*
X102347340Y-70552995D01*
X102307844Y-70621404D01*
X102287400Y-70697704D01*
X102287400Y-70776696D01*
X102307844Y-70852996D01*
X102347340Y-70921405D01*
X102403195Y-70977260D01*
X102420412Y-70987200D01*
X101617538Y-70987200D01*
X101625830Y-71028890D01*
X101625830Y-71028892D01*
X101701207Y-71210871D01*
X101701214Y-71210884D01*
X101810648Y-71374662D01*
X101810651Y-71374666D01*
X101949933Y-71513948D01*
X101949937Y-71513951D01*
X102113715Y-71623385D01*
X102113728Y-71623392D01*
X102295706Y-71698769D01*
X102295718Y-71698772D01*
X102488904Y-71737199D01*
X102488908Y-71737200D01*
X102637400Y-71737200D01*
X102637400Y-71037200D01*
X103137400Y-71037200D01*
X103137400Y-71737200D01*
X103285892Y-71737200D01*
X103285895Y-71737199D01*
X103479081Y-71698772D01*
X103479093Y-71698769D01*
X103661071Y-71623392D01*
X103661084Y-71623385D01*
X103824862Y-71513951D01*
X103824866Y-71513948D01*
X103964148Y-71374666D01*
X103964151Y-71374662D01*
X104073585Y-71210884D01*
X104073592Y-71210871D01*
X104148969Y-71028892D01*
X104148969Y-71028890D01*
X104157262Y-70987200D01*
X103354388Y-70987200D01*
X103371605Y-70977260D01*
X103427460Y-70921405D01*
X103466956Y-70852996D01*
X103487400Y-70776696D01*
X103487400Y-70697704D01*
X103466956Y-70621404D01*
X103427460Y-70552995D01*
X103371605Y-70497140D01*
X103354388Y-70487200D01*
X104157262Y-70487200D01*
X105547538Y-70487200D01*
X106350412Y-70487200D01*
X106333195Y-70497140D01*
X106277340Y-70552995D01*
X106237844Y-70621404D01*
X106217400Y-70697704D01*
X106217400Y-70776696D01*
X106237844Y-70852996D01*
X106277340Y-70921405D01*
X106333195Y-70977260D01*
X106350412Y-70987200D01*
X105547538Y-70987200D01*
X105555830Y-71028890D01*
X105555830Y-71028892D01*
X105631207Y-71210871D01*
X105631214Y-71210884D01*
X105740648Y-71374662D01*
X105740651Y-71374666D01*
X105879933Y-71513948D01*
X105879937Y-71513951D01*
X106043715Y-71623385D01*
X106043728Y-71623392D01*
X106225706Y-71698769D01*
X106225711Y-71698770D01*
X106289936Y-71711545D01*
X106351848Y-71743929D01*
X106386423Y-71804645D01*
X106382684Y-71874414D01*
X106353429Y-71920843D01*
X106306936Y-71967336D01*
X106306930Y-71967344D01*
X106264085Y-72041555D01*
X106264082Y-72041562D01*
X106241900Y-72124347D01*
X106241900Y-72210052D01*
X106264082Y-72292837D01*
X106264085Y-72292844D01*
X106306930Y-72367055D01*
X106306934Y-72367060D01*
X106306935Y-72367062D01*
X106367538Y-72427665D01*
X106367540Y-72427666D01*
X106367544Y-72427669D01*
X106441755Y-72470514D01*
X106441762Y-72470518D01*
X106524547Y-72492700D01*
X106524549Y-72492700D01*
X106610251Y-72492700D01*
X106610253Y-72492700D01*
X106693038Y-72470518D01*
X106767262Y-72427665D01*
X106827865Y-72367062D01*
X106870718Y-72292838D01*
X106892900Y-72210053D01*
X106892900Y-72124347D01*
X106870718Y-72041562D01*
X106870714Y-72041555D01*
X106827869Y-71967344D01*
X106827863Y-71967336D01*
X106795244Y-71934717D01*
X106761759Y-71873394D01*
X106766743Y-71803702D01*
X106795245Y-71759354D01*
X106817400Y-71737199D01*
X106817400Y-71037200D01*
X107317400Y-71037200D01*
X107317400Y-71737200D01*
X107715892Y-71737200D01*
X107715895Y-71737199D01*
X107909081Y-71698772D01*
X107909093Y-71698769D01*
X108091071Y-71623392D01*
X108091084Y-71623385D01*
X108254862Y-71513951D01*
X108254866Y-71513948D01*
X108394148Y-71374666D01*
X108394151Y-71374662D01*
X108503585Y-71210884D01*
X108503592Y-71210871D01*
X108578969Y-71028892D01*
X108578969Y-71028890D01*
X108587262Y-70987200D01*
X107784388Y-70987200D01*
X107801605Y-70977260D01*
X107857460Y-70921405D01*
X107896956Y-70852996D01*
X107917400Y-70776696D01*
X107917400Y-70697704D01*
X107896956Y-70621404D01*
X107857460Y-70552995D01*
X107801605Y-70497140D01*
X107784388Y-70487200D01*
X108587262Y-70487200D01*
X108578969Y-70445509D01*
X108578969Y-70445507D01*
X108503592Y-70263528D01*
X108503585Y-70263515D01*
X108394151Y-70099737D01*
X108394148Y-70099733D01*
X108254866Y-69960451D01*
X108254862Y-69960448D01*
X108198765Y-69922965D01*
X120730700Y-69922965D01*
X120730700Y-70082234D01*
X120761768Y-70238423D01*
X120761770Y-70238431D01*
X120822717Y-70385569D01*
X120911195Y-70517987D01*
X120911201Y-70517994D01*
X121023805Y-70630598D01*
X121023812Y-70630604D01*
X121156230Y-70719082D01*
X121156231Y-70719082D01*
X121156232Y-70719083D01*
X121303369Y-70780030D01*
X121459565Y-70811099D01*
X121459569Y-70811100D01*
X121459570Y-70811100D01*
X121618831Y-70811100D01*
X121618832Y-70811099D01*
X121775031Y-70780030D01*
X121922168Y-70719083D01*
X122054589Y-70630603D01*
X122167203Y-70517989D01*
X122225350Y-70430965D01*
X158017900Y-70430965D01*
X158017900Y-70590234D01*
X158048968Y-70746423D01*
X158048970Y-70746431D01*
X158109917Y-70893569D01*
X158198395Y-71025987D01*
X158198401Y-71025994D01*
X158311005Y-71138598D01*
X158311012Y-71138604D01*
X158443430Y-71227082D01*
X158443431Y-71227082D01*
X158443432Y-71227083D01*
X158590569Y-71288030D01*
X158746765Y-71319099D01*
X158746769Y-71319100D01*
X158746770Y-71319100D01*
X158906031Y-71319100D01*
X158906032Y-71319099D01*
X159062231Y-71288030D01*
X159209368Y-71227083D01*
X159341789Y-71138603D01*
X159454403Y-71025989D01*
X159542883Y-70893568D01*
X159603830Y-70746431D01*
X159634900Y-70590230D01*
X159634900Y-70430970D01*
X159603830Y-70274769D01*
X159542883Y-70127632D01*
X159524244Y-70099737D01*
X159454404Y-69995212D01*
X159454398Y-69995205D01*
X159341794Y-69882601D01*
X159341787Y-69882595D01*
X159209369Y-69794117D01*
X159062231Y-69733170D01*
X159062223Y-69733168D01*
X158906034Y-69702100D01*
X158906030Y-69702100D01*
X158746770Y-69702100D01*
X158746765Y-69702100D01*
X158590576Y-69733168D01*
X158590568Y-69733170D01*
X158443430Y-69794117D01*
X158311012Y-69882595D01*
X158311005Y-69882601D01*
X158198401Y-69995205D01*
X158198395Y-69995212D01*
X158109917Y-70127630D01*
X158048970Y-70274768D01*
X158048968Y-70274776D01*
X158017900Y-70430965D01*
X122225350Y-70430965D01*
X122255683Y-70385568D01*
X122316630Y-70238431D01*
X122347700Y-70082230D01*
X122347700Y-69922970D01*
X122316630Y-69766769D01*
X122255683Y-69619632D01*
X122167203Y-69487211D01*
X122167198Y-69487205D01*
X122054594Y-69374601D01*
X122054587Y-69374595D01*
X121922169Y-69286117D01*
X121775031Y-69225170D01*
X121775023Y-69225168D01*
X121618834Y-69194100D01*
X121618830Y-69194100D01*
X121459570Y-69194100D01*
X121459565Y-69194100D01*
X121303376Y-69225168D01*
X121303368Y-69225170D01*
X121156230Y-69286117D01*
X121023812Y-69374595D01*
X121023805Y-69374601D01*
X120911201Y-69487205D01*
X120911195Y-69487212D01*
X120822717Y-69619630D01*
X120761770Y-69766768D01*
X120761768Y-69766776D01*
X120730700Y-69922965D01*
X108198765Y-69922965D01*
X108091084Y-69851014D01*
X108091071Y-69851007D01*
X107909093Y-69775630D01*
X107909081Y-69775627D01*
X107715895Y-69737200D01*
X107317400Y-69737200D01*
X107317400Y-70437200D01*
X106817400Y-70437200D01*
X106817400Y-69737200D01*
X106418904Y-69737200D01*
X106225718Y-69775627D01*
X106225706Y-69775630D01*
X106043728Y-69851007D01*
X106043715Y-69851014D01*
X105879937Y-69960448D01*
X105879933Y-69960451D01*
X105740651Y-70099733D01*
X105740648Y-70099737D01*
X105631214Y-70263515D01*
X105631207Y-70263528D01*
X105555830Y-70445507D01*
X105555830Y-70445509D01*
X105547538Y-70487200D01*
X104157262Y-70487200D01*
X104148969Y-70445509D01*
X104148969Y-70445507D01*
X104073592Y-70263528D01*
X104073585Y-70263515D01*
X103964151Y-70099737D01*
X103964148Y-70099733D01*
X103824866Y-69960451D01*
X103824862Y-69960448D01*
X103661084Y-69851014D01*
X103661071Y-69851007D01*
X103479093Y-69775630D01*
X103479081Y-69775627D01*
X103285895Y-69737200D01*
X103137400Y-69737200D01*
X103137400Y-70437200D01*
X102637400Y-70437200D01*
X102637400Y-69737200D01*
X102488904Y-69737200D01*
X102295718Y-69775627D01*
X102295706Y-69775630D01*
X102113728Y-69851007D01*
X102113715Y-69851014D01*
X101949937Y-69960448D01*
X101949933Y-69960451D01*
X101810651Y-70099733D01*
X101810648Y-70099737D01*
X101701214Y-70263515D01*
X101701207Y-70263528D01*
X101625830Y-70445507D01*
X101625830Y-70445509D01*
X101617538Y-70487200D01*
X100075500Y-70487200D01*
X100075500Y-66874965D01*
X105668500Y-66874965D01*
X105668500Y-67034234D01*
X105699568Y-67190423D01*
X105699570Y-67190431D01*
X105760517Y-67337569D01*
X105848995Y-67469987D01*
X105849001Y-67469994D01*
X105961605Y-67582598D01*
X105961612Y-67582604D01*
X106094030Y-67671082D01*
X106094031Y-67671082D01*
X106094032Y-67671083D01*
X106241169Y-67732030D01*
X106328465Y-67749394D01*
X106397365Y-67763099D01*
X106397369Y-67763100D01*
X106397370Y-67763100D01*
X106556631Y-67763100D01*
X106556632Y-67763099D01*
X106712831Y-67732030D01*
X106859968Y-67671083D01*
X106992389Y-67582603D01*
X107105003Y-67469989D01*
X107193483Y-67337568D01*
X107254430Y-67190431D01*
X107261604Y-67154365D01*
X131271700Y-67154365D01*
X131271700Y-67313634D01*
X131302768Y-67469823D01*
X131302770Y-67469831D01*
X131363717Y-67616969D01*
X131452195Y-67749387D01*
X131452201Y-67749394D01*
X131564805Y-67861998D01*
X131564812Y-67862004D01*
X131697230Y-67950482D01*
X131697231Y-67950482D01*
X131697232Y-67950483D01*
X131844369Y-68011430D01*
X132000565Y-68042499D01*
X132000569Y-68042500D01*
X132000570Y-68042500D01*
X132159831Y-68042500D01*
X132159832Y-68042499D01*
X132316031Y-68011430D01*
X132463168Y-67950483D01*
X132476216Y-67941765D01*
X139933100Y-67941765D01*
X139933100Y-68101034D01*
X139964168Y-68257223D01*
X139964170Y-68257231D01*
X140025117Y-68404369D01*
X140113595Y-68536787D01*
X140113601Y-68536794D01*
X140226205Y-68649398D01*
X140226212Y-68649404D01*
X140358630Y-68737882D01*
X140358631Y-68737882D01*
X140358632Y-68737883D01*
X140505769Y-68798830D01*
X140661965Y-68829899D01*
X140661969Y-68829900D01*
X140661970Y-68829900D01*
X140821231Y-68829900D01*
X140821232Y-68829899D01*
X140977431Y-68798830D01*
X141124568Y-68737883D01*
X141256989Y-68649403D01*
X141369603Y-68536789D01*
X141458083Y-68404368D01*
X141519030Y-68257231D01*
X141550100Y-68101030D01*
X141550100Y-67941770D01*
X141519030Y-67785569D01*
X141458083Y-67638432D01*
X141443741Y-67616968D01*
X141369604Y-67506012D01*
X141369598Y-67506005D01*
X141256994Y-67393401D01*
X141256987Y-67393395D01*
X141124569Y-67304917D01*
X140977431Y-67243970D01*
X140977423Y-67243968D01*
X140821234Y-67212900D01*
X140821230Y-67212900D01*
X140661970Y-67212900D01*
X140661965Y-67212900D01*
X140505776Y-67243968D01*
X140505768Y-67243970D01*
X140358630Y-67304917D01*
X140226212Y-67393395D01*
X140226205Y-67393401D01*
X140113601Y-67506005D01*
X140113595Y-67506012D01*
X140025117Y-67638430D01*
X139964170Y-67785568D01*
X139964168Y-67785576D01*
X139933100Y-67941765D01*
X132476216Y-67941765D01*
X132595589Y-67862003D01*
X132595594Y-67861998D01*
X132609596Y-67847997D01*
X132708198Y-67749394D01*
X132708203Y-67749389D01*
X132796683Y-67616968D01*
X132857630Y-67469831D01*
X132888700Y-67313630D01*
X132888700Y-67154370D01*
X132857630Y-66998169D01*
X132796683Y-66851032D01*
X132768995Y-66809594D01*
X132708204Y-66718612D01*
X132708198Y-66718605D01*
X132595594Y-66606001D01*
X132595587Y-66605995D01*
X132463169Y-66517517D01*
X132316031Y-66456570D01*
X132316023Y-66456568D01*
X132159834Y-66425500D01*
X132159830Y-66425500D01*
X132000570Y-66425500D01*
X132000565Y-66425500D01*
X131844376Y-66456568D01*
X131844368Y-66456570D01*
X131697230Y-66517517D01*
X131564812Y-66605995D01*
X131564805Y-66606001D01*
X131452201Y-66718605D01*
X131452195Y-66718612D01*
X131363717Y-66851030D01*
X131302770Y-66998168D01*
X131302768Y-66998176D01*
X131271700Y-67154365D01*
X107261604Y-67154365D01*
X107285500Y-67034230D01*
X107285500Y-66874970D01*
X107254430Y-66718769D01*
X107193483Y-66571632D01*
X107165686Y-66530031D01*
X107105004Y-66439212D01*
X107104998Y-66439205D01*
X106992394Y-66326601D01*
X106992387Y-66326595D01*
X106859969Y-66238117D01*
X106712831Y-66177170D01*
X106712823Y-66177168D01*
X106556634Y-66146100D01*
X106556630Y-66146100D01*
X106397370Y-66146100D01*
X106397365Y-66146100D01*
X106241176Y-66177168D01*
X106241168Y-66177170D01*
X106094030Y-66238117D01*
X105961612Y-66326595D01*
X105961605Y-66326601D01*
X105849001Y-66439205D01*
X105848995Y-66439212D01*
X105760517Y-66571630D01*
X105699570Y-66718768D01*
X105699568Y-66718776D01*
X105668500Y-66874965D01*
X100075500Y-66874965D01*
X100075500Y-61617165D01*
X118622500Y-61617165D01*
X118622500Y-61776434D01*
X118653568Y-61932623D01*
X118653570Y-61932631D01*
X118714516Y-62079767D01*
X118714517Y-62079768D01*
X118727300Y-62098900D01*
X118731424Y-62105071D01*
X118752302Y-62171748D01*
X118740253Y-62221777D01*
X118742248Y-62222604D01*
X118678970Y-62375368D01*
X118678968Y-62375376D01*
X118647900Y-62531565D01*
X118647900Y-62690834D01*
X118678968Y-62847023D01*
X118678970Y-62847031D01*
X118739915Y-62994166D01*
X118773158Y-63043917D01*
X118794035Y-63110595D01*
X118775550Y-63177975D01*
X118773158Y-63181696D01*
X118765317Y-63193431D01*
X118704370Y-63340568D01*
X118704368Y-63340576D01*
X118673300Y-63496765D01*
X118673300Y-63656034D01*
X118704368Y-63812223D01*
X118704370Y-63812231D01*
X118765316Y-63959367D01*
X118783847Y-63987100D01*
X118853686Y-64091623D01*
X118874564Y-64158300D01*
X118856079Y-64225680D01*
X118853687Y-64229402D01*
X118816117Y-64285631D01*
X118755170Y-64432768D01*
X118755168Y-64432776D01*
X118724100Y-64588965D01*
X118724100Y-64748234D01*
X118755168Y-64904423D01*
X118755170Y-64904431D01*
X118816115Y-65051566D01*
X118883876Y-65152977D01*
X118904753Y-65219654D01*
X118892674Y-65269786D01*
X118894648Y-65270604D01*
X118831370Y-65423368D01*
X118831368Y-65423376D01*
X118800300Y-65579565D01*
X118800300Y-65738834D01*
X118831368Y-65895023D01*
X118831370Y-65895031D01*
X118892317Y-66042169D01*
X118980795Y-66174587D01*
X118980801Y-66174594D01*
X119093405Y-66287198D01*
X119093412Y-66287204D01*
X119225830Y-66375682D01*
X119225831Y-66375682D01*
X119225832Y-66375683D01*
X119372969Y-66436630D01*
X119529165Y-66467699D01*
X119529169Y-66467700D01*
X119529170Y-66467700D01*
X119560898Y-66467700D01*
X119627937Y-66487385D01*
X119673692Y-66540189D01*
X119675459Y-66544247D01*
X119730517Y-66677169D01*
X119818995Y-66809587D01*
X119819001Y-66809594D01*
X119931605Y-66922198D01*
X119931612Y-66922204D01*
X120064030Y-67010682D01*
X120064031Y-67010682D01*
X120064032Y-67010683D01*
X120211169Y-67071630D01*
X120367365Y-67102699D01*
X120367369Y-67102700D01*
X120367370Y-67102700D01*
X120526631Y-67102700D01*
X120526632Y-67102699D01*
X120682831Y-67071630D01*
X120829968Y-67010683D01*
X120962389Y-66922203D01*
X121075003Y-66809589D01*
X121163483Y-66677168D01*
X121224430Y-66530031D01*
X121255500Y-66373830D01*
X121255500Y-66214570D01*
X121224430Y-66058369D01*
X121163483Y-65911232D01*
X121075003Y-65778811D01*
X121074998Y-65778805D01*
X120962394Y-65666201D01*
X120962387Y-65666195D01*
X120829969Y-65577717D01*
X120682831Y-65516770D01*
X120682823Y-65516768D01*
X120526634Y-65485700D01*
X120526630Y-65485700D01*
X120494902Y-65485700D01*
X120427863Y-65466015D01*
X120382108Y-65413211D01*
X120380341Y-65409153D01*
X120325282Y-65276230D01*
X120257524Y-65174822D01*
X120236646Y-65108145D01*
X120248746Y-65058022D01*
X120246752Y-65057196D01*
X120258449Y-65028955D01*
X120310030Y-64904431D01*
X120341100Y-64748230D01*
X120341100Y-64588970D01*
X120310030Y-64432769D01*
X120249083Y-64285632D01*
X120160712Y-64153374D01*
X120139835Y-64086699D01*
X120158320Y-64019319D01*
X120160695Y-64015622D01*
X120198283Y-63959368D01*
X120259230Y-63812231D01*
X120281561Y-63699965D01*
X133684700Y-63699965D01*
X133684700Y-63859234D01*
X133715768Y-64015423D01*
X133715770Y-64015431D01*
X133776717Y-64162569D01*
X133865195Y-64294987D01*
X133865201Y-64294994D01*
X133977805Y-64407598D01*
X133977812Y-64407604D01*
X134110230Y-64496082D01*
X134110231Y-64496082D01*
X134110232Y-64496083D01*
X134257369Y-64557030D01*
X134413565Y-64588099D01*
X134413569Y-64588100D01*
X134413570Y-64588100D01*
X134572831Y-64588100D01*
X134572832Y-64588099D01*
X134729031Y-64557030D01*
X134876168Y-64496083D01*
X135008589Y-64407603D01*
X135121203Y-64294989D01*
X135209683Y-64162568D01*
X135270630Y-64015431D01*
X135301700Y-63859230D01*
X135301700Y-63699970D01*
X135300991Y-63696404D01*
X135295196Y-63667269D01*
X135291595Y-63649165D01*
X137672500Y-63649165D01*
X137672500Y-63808434D01*
X137703568Y-63964623D01*
X137703570Y-63964631D01*
X137764517Y-64111769D01*
X137852995Y-64244187D01*
X137853001Y-64244194D01*
X137965605Y-64356798D01*
X137965612Y-64356804D01*
X138098030Y-64445282D01*
X138098031Y-64445282D01*
X138098032Y-64445283D01*
X138245169Y-64506230D01*
X138401365Y-64537299D01*
X138401369Y-64537300D01*
X138401370Y-64537300D01*
X138560631Y-64537300D01*
X138560632Y-64537299D01*
X138716831Y-64506230D01*
X138863968Y-64445283D01*
X138996389Y-64356803D01*
X139109003Y-64244189D01*
X139197483Y-64111768D01*
X139258430Y-63964631D01*
X139289500Y-63808430D01*
X139289500Y-63649170D01*
X139258430Y-63492969D01*
X139197483Y-63345832D01*
X139193966Y-63340569D01*
X139109004Y-63213412D01*
X139108998Y-63213405D01*
X138996394Y-63100801D01*
X138996387Y-63100795D01*
X138863969Y-63012317D01*
X138716831Y-62951370D01*
X138716823Y-62951368D01*
X138560634Y-62920300D01*
X138560630Y-62920300D01*
X138401370Y-62920300D01*
X138401365Y-62920300D01*
X138245176Y-62951368D01*
X138245168Y-62951370D01*
X138098030Y-63012317D01*
X137965612Y-63100795D01*
X137965605Y-63100801D01*
X137853001Y-63213405D01*
X137852995Y-63213412D01*
X137764517Y-63345830D01*
X137703570Y-63492968D01*
X137703568Y-63492976D01*
X137672500Y-63649165D01*
X135291595Y-63649165D01*
X135270631Y-63543776D01*
X135270630Y-63543769D01*
X135209683Y-63396632D01*
X135172223Y-63340569D01*
X135121204Y-63264212D01*
X135121198Y-63264205D01*
X135008594Y-63151601D01*
X135008587Y-63151595D01*
X134876169Y-63063117D01*
X134729031Y-63002170D01*
X134729023Y-63002168D01*
X134572834Y-62971100D01*
X134572830Y-62971100D01*
X134413570Y-62971100D01*
X134413565Y-62971100D01*
X134257376Y-63002168D01*
X134257368Y-63002170D01*
X134110230Y-63063117D01*
X133977812Y-63151595D01*
X133977805Y-63151601D01*
X133865201Y-63264205D01*
X133865195Y-63264212D01*
X133776717Y-63396630D01*
X133715770Y-63543768D01*
X133715768Y-63543776D01*
X133684700Y-63699965D01*
X120281561Y-63699965D01*
X120287584Y-63669687D01*
X120290299Y-63656034D01*
X120290300Y-63656031D01*
X120290300Y-63496769D01*
X120290299Y-63496765D01*
X120281269Y-63451368D01*
X120259230Y-63340569D01*
X120198283Y-63193432D01*
X120198282Y-63193430D01*
X120165042Y-63143682D01*
X120144164Y-63077005D01*
X120162649Y-63009625D01*
X120164998Y-63005967D01*
X120172883Y-62994168D01*
X120233830Y-62847031D01*
X120264900Y-62690830D01*
X120264900Y-62531570D01*
X120233830Y-62375369D01*
X120172883Y-62228232D01*
X120155973Y-62202925D01*
X120135097Y-62136251D01*
X120147169Y-62086231D01*
X120145152Y-62085396D01*
X120160437Y-62048494D01*
X120208430Y-61932631D01*
X120239500Y-61776430D01*
X120239500Y-61617170D01*
X120208430Y-61460969D01*
X120147483Y-61313832D01*
X120059003Y-61181411D01*
X120059002Y-61181410D01*
X120058998Y-61181405D01*
X120012158Y-61134565D01*
X133710100Y-61134565D01*
X133710100Y-61293834D01*
X133741168Y-61450023D01*
X133741170Y-61450031D01*
X133802117Y-61597169D01*
X133890595Y-61729587D01*
X133890601Y-61729594D01*
X134003205Y-61842198D01*
X134003212Y-61842204D01*
X134135630Y-61930682D01*
X134135631Y-61930682D01*
X134135632Y-61930683D01*
X134282769Y-61991630D01*
X134438965Y-62022699D01*
X134438969Y-62022700D01*
X134438970Y-62022700D01*
X134598231Y-62022700D01*
X134598232Y-62022699D01*
X134754431Y-61991630D01*
X134901568Y-61930683D01*
X135033989Y-61842203D01*
X135146603Y-61729589D01*
X135235083Y-61597168D01*
X135296030Y-61450031D01*
X135327100Y-61293830D01*
X135327100Y-61210765D01*
X149762900Y-61210765D01*
X149762900Y-61370034D01*
X149793968Y-61526223D01*
X149793970Y-61526231D01*
X149854917Y-61673369D01*
X149943395Y-61805787D01*
X149943401Y-61805794D01*
X150056005Y-61918398D01*
X150056012Y-61918404D01*
X150188430Y-62006882D01*
X150188431Y-62006882D01*
X150188432Y-62006883D01*
X150335569Y-62067830D01*
X150367227Y-62074127D01*
X150429137Y-62106510D01*
X150463712Y-62167225D01*
X150459973Y-62236995D01*
X150419108Y-62293668D01*
X150390490Y-62310305D01*
X150290028Y-62351918D01*
X150157612Y-62440395D01*
X150157605Y-62440401D01*
X150045001Y-62553005D01*
X150044995Y-62553012D01*
X149956517Y-62685430D01*
X149895570Y-62832568D01*
X149895568Y-62832576D01*
X149864500Y-62988765D01*
X149864500Y-63148034D01*
X149895568Y-63304223D01*
X149895570Y-63304231D01*
X149956517Y-63451369D01*
X150044995Y-63583787D01*
X150045001Y-63583794D01*
X150157605Y-63696398D01*
X150157612Y-63696404D01*
X150290028Y-63784881D01*
X150290030Y-63784882D01*
X150290032Y-63784883D01*
X150317828Y-63796396D01*
X150372230Y-63840235D01*
X150394296Y-63906529D01*
X150377018Y-63974229D01*
X150325881Y-64021840D01*
X150317829Y-64025518D01*
X150188428Y-64079118D01*
X150056012Y-64167595D01*
X150056005Y-64167601D01*
X149943401Y-64280205D01*
X149943395Y-64280212D01*
X149854917Y-64412630D01*
X149793970Y-64559768D01*
X149793968Y-64559776D01*
X149762900Y-64715965D01*
X149762900Y-64875234D01*
X149793968Y-65031423D01*
X149793970Y-65031431D01*
X149854917Y-65178569D01*
X149943395Y-65310987D01*
X149943401Y-65310994D01*
X150056005Y-65423598D01*
X150056012Y-65423604D01*
X150188430Y-65512082D01*
X150188431Y-65512082D01*
X150188432Y-65512083D01*
X150335569Y-65573030D01*
X150491765Y-65604099D01*
X150491769Y-65604100D01*
X150491770Y-65604100D01*
X150651031Y-65604100D01*
X150651032Y-65604099D01*
X150807231Y-65573030D01*
X150954368Y-65512083D01*
X151086789Y-65423603D01*
X151199403Y-65310989D01*
X151287883Y-65178568D01*
X151348830Y-65031431D01*
X151379900Y-64875230D01*
X151379900Y-64715970D01*
X151348830Y-64559769D01*
X151287883Y-64412632D01*
X151284523Y-64407604D01*
X151199404Y-64280212D01*
X151199398Y-64280205D01*
X151086794Y-64167601D01*
X151086787Y-64167595D01*
X150954369Y-64079117D01*
X150954366Y-64079115D01*
X150926572Y-64067603D01*
X150872168Y-64023762D01*
X150850103Y-63957468D01*
X150867382Y-63889769D01*
X150918519Y-63842158D01*
X150926553Y-63838489D01*
X151055968Y-63784883D01*
X151055968Y-63784882D01*
X151055970Y-63784882D01*
X151122178Y-63740643D01*
X151188389Y-63696403D01*
X151301003Y-63583789D01*
X151389483Y-63451368D01*
X151450430Y-63304231D01*
X151481500Y-63148030D01*
X151481500Y-62988770D01*
X151450430Y-62832569D01*
X151389483Y-62685432D01*
X151301003Y-62553011D01*
X151300998Y-62553005D01*
X151188394Y-62440401D01*
X151188387Y-62440395D01*
X151055969Y-62351917D01*
X150908831Y-62290970D01*
X150908825Y-62290968D01*
X150877171Y-62284672D01*
X150815260Y-62252287D01*
X150780686Y-62191571D01*
X150784426Y-62121802D01*
X150825293Y-62065130D01*
X150853906Y-62048496D01*
X150954368Y-62006883D01*
X150954368Y-62006882D01*
X150954370Y-62006882D01*
X151068412Y-61930682D01*
X151086789Y-61918403D01*
X151199403Y-61805789D01*
X151287883Y-61673368D01*
X151348830Y-61526231D01*
X151379900Y-61370030D01*
X151379900Y-61210770D01*
X151348830Y-61054569D01*
X151287883Y-60907432D01*
X151236968Y-60831232D01*
X151199404Y-60775012D01*
X151199398Y-60775005D01*
X151086794Y-60662401D01*
X151086787Y-60662395D01*
X150954371Y-60573918D01*
X150862149Y-60535718D01*
X150807746Y-60491876D01*
X150785682Y-60425582D01*
X150802962Y-60357883D01*
X150854099Y-60310273D01*
X150885405Y-60299541D01*
X150934231Y-60289830D01*
X151081368Y-60228883D01*
X151213789Y-60140403D01*
X151326403Y-60027789D01*
X151414883Y-59895368D01*
X151475830Y-59748231D01*
X151506900Y-59592030D01*
X151506900Y-59432770D01*
X151475830Y-59276569D01*
X151414883Y-59129432D01*
X151397911Y-59104032D01*
X151326404Y-58997012D01*
X151326398Y-58997005D01*
X151213794Y-58884401D01*
X151213787Y-58884395D01*
X151081369Y-58795917D01*
X150934231Y-58734970D01*
X150934223Y-58734968D01*
X150778034Y-58703900D01*
X150778030Y-58703900D01*
X150618770Y-58703900D01*
X150618765Y-58703900D01*
X150462576Y-58734968D01*
X150462568Y-58734970D01*
X150315430Y-58795917D01*
X150183012Y-58884395D01*
X150183005Y-58884401D01*
X150070401Y-58997005D01*
X150070395Y-58997012D01*
X149981917Y-59129430D01*
X149920970Y-59276568D01*
X149920968Y-59276576D01*
X149889900Y-59432765D01*
X149889900Y-59592034D01*
X149920968Y-59748223D01*
X149920970Y-59748231D01*
X149981917Y-59895369D01*
X150070395Y-60027787D01*
X150070401Y-60027794D01*
X150183005Y-60140398D01*
X150183012Y-60140404D01*
X150315430Y-60228882D01*
X150315431Y-60228882D01*
X150315432Y-60228883D01*
X150401249Y-60264430D01*
X150407649Y-60267081D01*
X150462052Y-60310922D01*
X150484117Y-60377216D01*
X150466838Y-60444916D01*
X150415700Y-60492526D01*
X150384387Y-60503259D01*
X150335576Y-60512968D01*
X150335568Y-60512970D01*
X150188430Y-60573917D01*
X150056012Y-60662395D01*
X150056005Y-60662401D01*
X149943401Y-60775005D01*
X149943395Y-60775012D01*
X149854917Y-60907430D01*
X149793970Y-61054568D01*
X149793968Y-61054576D01*
X149762900Y-61210765D01*
X135327100Y-61210765D01*
X135327100Y-61134570D01*
X135296030Y-60978369D01*
X135235083Y-60831232D01*
X135197518Y-60775012D01*
X135146604Y-60698812D01*
X135146598Y-60698805D01*
X135033994Y-60586201D01*
X135033987Y-60586195D01*
X134901569Y-60497717D01*
X134754431Y-60436770D01*
X134754423Y-60436768D01*
X134598234Y-60405700D01*
X134598230Y-60405700D01*
X134438970Y-60405700D01*
X134438965Y-60405700D01*
X134282776Y-60436768D01*
X134282768Y-60436770D01*
X134135630Y-60497717D01*
X134003212Y-60586195D01*
X134003205Y-60586201D01*
X133890601Y-60698805D01*
X133890595Y-60698812D01*
X133802117Y-60831230D01*
X133741170Y-60978368D01*
X133741168Y-60978376D01*
X133710100Y-61134565D01*
X120012158Y-61134565D01*
X119946394Y-61068801D01*
X119946387Y-61068795D01*
X119813969Y-60980317D01*
X119666831Y-60919370D01*
X119666823Y-60919368D01*
X119510634Y-60888300D01*
X119510630Y-60888300D01*
X119351370Y-60888300D01*
X119351365Y-60888300D01*
X119195176Y-60919368D01*
X119195168Y-60919370D01*
X119048030Y-60980317D01*
X118915612Y-61068795D01*
X118915605Y-61068801D01*
X118803001Y-61181405D01*
X118802995Y-61181412D01*
X118714517Y-61313830D01*
X118653570Y-61460968D01*
X118653568Y-61460976D01*
X118622500Y-61617165D01*
X100075500Y-61617165D01*
X100075500Y-59407365D01*
X136732700Y-59407365D01*
X136732700Y-59566634D01*
X136763768Y-59722823D01*
X136763770Y-59722831D01*
X136824717Y-59869969D01*
X136913195Y-60002387D01*
X136913201Y-60002394D01*
X137025805Y-60114998D01*
X137025812Y-60115004D01*
X137158230Y-60203482D01*
X137158231Y-60203482D01*
X137158232Y-60203483D01*
X137305369Y-60264430D01*
X137392665Y-60281794D01*
X137461565Y-60295499D01*
X137461569Y-60295500D01*
X137461570Y-60295500D01*
X137620831Y-60295500D01*
X137620832Y-60295499D01*
X137777031Y-60264430D01*
X137924168Y-60203483D01*
X138056589Y-60115003D01*
X138169203Y-60002389D01*
X138257683Y-59869968D01*
X138318630Y-59722831D01*
X138325804Y-59686765D01*
X139120300Y-59686765D01*
X139120300Y-59846034D01*
X139151368Y-60002223D01*
X139151370Y-60002231D01*
X139212317Y-60149369D01*
X139300795Y-60281787D01*
X139300801Y-60281794D01*
X139413405Y-60394398D01*
X139413412Y-60394404D01*
X139545830Y-60482882D01*
X139545831Y-60482882D01*
X139545832Y-60482883D01*
X139692969Y-60543830D01*
X139844228Y-60573917D01*
X139849165Y-60574899D01*
X139849169Y-60574900D01*
X139849170Y-60574900D01*
X140008431Y-60574900D01*
X140008432Y-60574899D01*
X140164631Y-60543830D01*
X140311768Y-60482883D01*
X140444189Y-60394403D01*
X140556803Y-60281789D01*
X140645283Y-60149368D01*
X140706230Y-60002231D01*
X140737300Y-59846030D01*
X140737300Y-59839165D01*
X146638700Y-59839165D01*
X146638700Y-59998434D01*
X146669768Y-60154623D01*
X146669770Y-60154631D01*
X146730717Y-60301769D01*
X146819195Y-60434187D01*
X146819201Y-60434194D01*
X146931805Y-60546798D01*
X146931812Y-60546804D01*
X147064230Y-60635282D01*
X147064231Y-60635282D01*
X147064232Y-60635283D01*
X147211369Y-60696230D01*
X147367565Y-60727299D01*
X147367569Y-60727300D01*
X147367570Y-60727300D01*
X147526831Y-60727300D01*
X147526832Y-60727299D01*
X147683031Y-60696230D01*
X147830168Y-60635283D01*
X147962589Y-60546803D01*
X148075203Y-60434189D01*
X148163683Y-60301768D01*
X148224630Y-60154631D01*
X148255700Y-59998430D01*
X148255700Y-59839170D01*
X148224630Y-59682969D01*
X148163683Y-59535832D01*
X148160166Y-59530569D01*
X148075204Y-59403412D01*
X148075198Y-59403405D01*
X147962594Y-59290801D01*
X147962587Y-59290795D01*
X147830169Y-59202317D01*
X147683031Y-59141370D01*
X147683023Y-59141368D01*
X147526834Y-59110300D01*
X147526830Y-59110300D01*
X147367570Y-59110300D01*
X147367565Y-59110300D01*
X147211376Y-59141368D01*
X147211368Y-59141370D01*
X147064230Y-59202317D01*
X146931812Y-59290795D01*
X146931805Y-59290801D01*
X146819201Y-59403405D01*
X146819195Y-59403412D01*
X146730717Y-59535830D01*
X146669770Y-59682968D01*
X146669768Y-59682976D01*
X146638700Y-59839165D01*
X140737300Y-59839165D01*
X140737300Y-59686770D01*
X140706230Y-59530569D01*
X140645283Y-59383432D01*
X140573879Y-59276568D01*
X140556804Y-59251012D01*
X140556798Y-59251005D01*
X140444194Y-59138401D01*
X140444187Y-59138395D01*
X140311769Y-59049917D01*
X140164631Y-58988970D01*
X140164623Y-58988968D01*
X140008434Y-58957900D01*
X140008430Y-58957900D01*
X139849170Y-58957900D01*
X139849165Y-58957900D01*
X139692976Y-58988968D01*
X139692968Y-58988970D01*
X139545830Y-59049917D01*
X139413412Y-59138395D01*
X139413405Y-59138401D01*
X139300801Y-59251005D01*
X139300795Y-59251012D01*
X139212317Y-59383430D01*
X139151370Y-59530568D01*
X139151368Y-59530576D01*
X139120300Y-59686765D01*
X138325804Y-59686765D01*
X138349700Y-59566630D01*
X138349700Y-59407370D01*
X138318630Y-59251169D01*
X138257683Y-59104032D01*
X138186175Y-58997012D01*
X138169204Y-58971612D01*
X138169198Y-58971605D01*
X138056594Y-58859001D01*
X138056587Y-58858995D01*
X137924169Y-58770517D01*
X137777031Y-58709570D01*
X137777023Y-58709568D01*
X137620834Y-58678500D01*
X137620830Y-58678500D01*
X137461570Y-58678500D01*
X137461565Y-58678500D01*
X137305376Y-58709568D01*
X137305368Y-58709570D01*
X137158230Y-58770517D01*
X137025812Y-58858995D01*
X137025805Y-58859001D01*
X136913201Y-58971605D01*
X136913195Y-58971612D01*
X136824717Y-59104030D01*
X136763770Y-59251168D01*
X136763768Y-59251176D01*
X136732700Y-59407365D01*
X100075500Y-59407365D01*
X100075500Y-57959565D01*
X121441900Y-57959565D01*
X121441900Y-58118834D01*
X121472968Y-58275023D01*
X121472970Y-58275031D01*
X121533917Y-58422169D01*
X121622395Y-58554587D01*
X121622401Y-58554594D01*
X121735005Y-58667198D01*
X121735012Y-58667204D01*
X121867430Y-58755682D01*
X121867431Y-58755682D01*
X121867432Y-58755683D01*
X122014569Y-58816630D01*
X122170765Y-58847699D01*
X122170769Y-58847700D01*
X122170770Y-58847700D01*
X122330031Y-58847700D01*
X122330032Y-58847699D01*
X122486231Y-58816630D01*
X122633368Y-58755683D01*
X122765789Y-58667203D01*
X122878403Y-58554589D01*
X122966883Y-58422168D01*
X123027830Y-58275031D01*
X123058900Y-58118830D01*
X123058900Y-57959570D01*
X123027830Y-57803369D01*
X122966883Y-57656232D01*
X122878403Y-57523811D01*
X122878398Y-57523805D01*
X122765794Y-57411201D01*
X122765787Y-57411195D01*
X122633369Y-57322717D01*
X122486231Y-57261770D01*
X122486223Y-57261768D01*
X122330034Y-57230700D01*
X122330030Y-57230700D01*
X122170770Y-57230700D01*
X122170765Y-57230700D01*
X122014576Y-57261768D01*
X122014568Y-57261770D01*
X121867430Y-57322717D01*
X121735012Y-57411195D01*
X121735005Y-57411201D01*
X121622401Y-57523805D01*
X121622395Y-57523812D01*
X121533917Y-57656230D01*
X121472970Y-57803368D01*
X121472968Y-57803376D01*
X121441900Y-57959565D01*
X100075500Y-57959565D01*
X100075500Y-52955765D01*
X113771100Y-52955765D01*
X113771100Y-53115034D01*
X113802168Y-53271223D01*
X113802170Y-53271231D01*
X113863117Y-53418369D01*
X113951595Y-53550787D01*
X113951601Y-53550794D01*
X114064205Y-53663398D01*
X114064212Y-53663404D01*
X114196630Y-53751882D01*
X114196631Y-53751882D01*
X114196632Y-53751883D01*
X114343769Y-53812830D01*
X114499965Y-53843899D01*
X114499969Y-53843900D01*
X114499970Y-53843900D01*
X114659231Y-53843900D01*
X114659232Y-53843899D01*
X114815431Y-53812830D01*
X114962568Y-53751883D01*
X115094989Y-53663403D01*
X115207603Y-53550789D01*
X115296083Y-53418368D01*
X115357030Y-53271231D01*
X115388100Y-53115030D01*
X115388100Y-52955770D01*
X115357030Y-52799569D01*
X115296083Y-52652432D01*
X115207603Y-52520011D01*
X115207598Y-52520005D01*
X115094994Y-52407401D01*
X115094987Y-52407395D01*
X114962569Y-52318917D01*
X114815431Y-52257970D01*
X114815423Y-52257968D01*
X114659234Y-52226900D01*
X114659230Y-52226900D01*
X114499970Y-52226900D01*
X114499965Y-52226900D01*
X114343776Y-52257968D01*
X114343768Y-52257970D01*
X114196630Y-52318917D01*
X114064212Y-52407395D01*
X114064205Y-52407401D01*
X113951601Y-52520005D01*
X113951595Y-52520012D01*
X113863117Y-52652430D01*
X113802170Y-52799568D01*
X113802168Y-52799576D01*
X113771100Y-52955765D01*
X100075500Y-52955765D01*
X100075500Y-49042953D01*
X102002800Y-49042953D01*
X102002800Y-49255446D01*
X102036042Y-49465327D01*
X102036042Y-49465330D01*
X102101704Y-49667417D01*
X102198175Y-49856750D01*
X102237528Y-49910916D01*
X102869837Y-49278608D01*
X102886875Y-49342193D01*
X102952701Y-49456207D01*
X103045793Y-49549299D01*
X103159807Y-49615125D01*
X103223390Y-49632162D01*
X102591082Y-50264469D01*
X102591082Y-50264470D01*
X102645249Y-50303824D01*
X102834582Y-50400295D01*
X103036670Y-50465957D01*
X103246554Y-50499200D01*
X103459046Y-50499200D01*
X103668927Y-50465957D01*
X103668930Y-50465957D01*
X103871017Y-50400295D01*
X104060354Y-50303822D01*
X104114516Y-50264470D01*
X104114517Y-50264470D01*
X103482208Y-49632162D01*
X103545793Y-49615125D01*
X103659807Y-49549299D01*
X103752899Y-49456207D01*
X103818725Y-49342193D01*
X103835762Y-49278608D01*
X104468070Y-49910917D01*
X104468070Y-49910916D01*
X104507422Y-49856754D01*
X104512314Y-49847154D01*
X104560288Y-49796357D01*
X104628108Y-49779561D01*
X104694244Y-49802097D01*
X104733286Y-49847154D01*
X104738175Y-49856750D01*
X104777528Y-49910916D01*
X105409837Y-49278608D01*
X105426875Y-49342193D01*
X105492701Y-49456207D01*
X105585793Y-49549299D01*
X105699807Y-49615125D01*
X105763390Y-49632162D01*
X105131082Y-50264469D01*
X105131082Y-50264470D01*
X105185249Y-50303824D01*
X105374582Y-50400295D01*
X105576670Y-50465957D01*
X105786554Y-50499200D01*
X105999046Y-50499200D01*
X106208927Y-50465957D01*
X106208930Y-50465957D01*
X106411017Y-50400295D01*
X106600354Y-50303822D01*
X106654516Y-50264470D01*
X106654517Y-50264470D01*
X106022208Y-49632162D01*
X106085793Y-49615125D01*
X106199807Y-49549299D01*
X106292899Y-49456207D01*
X106358725Y-49342193D01*
X106375762Y-49278609D01*
X107008070Y-49910917D01*
X107008070Y-49910916D01*
X107047421Y-49856756D01*
X107047538Y-49856527D01*
X107047608Y-49856452D01*
X107049968Y-49852602D01*
X107050776Y-49853097D01*
X107095507Y-49805726D01*
X107163326Y-49788923D01*
X107229463Y-49811454D01*
X107268512Y-49856511D01*
X107270905Y-49861208D01*
X107282730Y-49877483D01*
X107396594Y-50034204D01*
X107547796Y-50185406D01*
X107720791Y-50311094D01*
X107814238Y-50358707D01*
X107911316Y-50408172D01*
X107911319Y-50408173D01*
X107950176Y-50420798D01*
X108114684Y-50474249D01*
X108325884Y-50507700D01*
X108325885Y-50507700D01*
X108539715Y-50507700D01*
X108539716Y-50507700D01*
X108750916Y-50474249D01*
X108954283Y-50408172D01*
X109144809Y-50311094D01*
X109317804Y-50185406D01*
X109422984Y-50080225D01*
X109484303Y-50046743D01*
X109553995Y-50051727D01*
X109609929Y-50093598D01*
X109626843Y-50124575D01*
X109671910Y-50245403D01*
X109671911Y-50245404D01*
X109759539Y-50362461D01*
X109876596Y-50450089D01*
X109991749Y-50493039D01*
X110012794Y-50500889D01*
X110013599Y-50501189D01*
X110040850Y-50504118D01*
X110074145Y-50507699D01*
X110074162Y-50507700D01*
X111871438Y-50507700D01*
X111871454Y-50507699D01*
X111898492Y-50504791D01*
X111932001Y-50501189D01*
X111932806Y-50500889D01*
X111946568Y-50495755D01*
X112069004Y-50450089D01*
X112186061Y-50362461D01*
X112273689Y-50245404D01*
X112320671Y-50119442D01*
X112324788Y-50108404D01*
X112324788Y-50108403D01*
X112324789Y-50108401D01*
X112328391Y-50074892D01*
X112331299Y-50047854D01*
X112331300Y-50047837D01*
X112331300Y-49074038D01*
X113639500Y-49074038D01*
X113639500Y-49325962D01*
X113667501Y-49502754D01*
X113678910Y-49574785D01*
X113756760Y-49814383D01*
X113806504Y-49912009D01*
X113868766Y-50034206D01*
X113871132Y-50038848D01*
X114019201Y-50242649D01*
X114019205Y-50242654D01*
X114197345Y-50420794D01*
X114197350Y-50420798D01*
X114340839Y-50525048D01*
X114401155Y-50568870D01*
X114544184Y-50641747D01*
X114625616Y-50683239D01*
X114625618Y-50683239D01*
X114625621Y-50683241D01*
X114865215Y-50761090D01*
X115114038Y-50800500D01*
X115114039Y-50800500D01*
X115365961Y-50800500D01*
X115365962Y-50800500D01*
X115614785Y-50761090D01*
X115854379Y-50683241D01*
X116078845Y-50568870D01*
X116282656Y-50420793D01*
X116460793Y-50242656D01*
X116608870Y-50038845D01*
X116723241Y-49814379D01*
X116801090Y-49574785D01*
X116840500Y-49325962D01*
X116840500Y-49074038D01*
X116801090Y-48825215D01*
X116723241Y-48585621D01*
X116723239Y-48585618D01*
X116723239Y-48585616D01*
X116673496Y-48487991D01*
X116608870Y-48361155D01*
X116565416Y-48301345D01*
X117437500Y-48301345D01*
X117437500Y-50098654D01*
X117444011Y-50159202D01*
X117444011Y-50159204D01*
X117495111Y-50296204D01*
X117582739Y-50413261D01*
X117699796Y-50500889D01*
X117836799Y-50551989D01*
X117864050Y-50554918D01*
X117897345Y-50558499D01*
X117897362Y-50558500D01*
X119694638Y-50558500D01*
X119694654Y-50558499D01*
X119721692Y-50555591D01*
X119755201Y-50551989D01*
X119892204Y-50500889D01*
X120009261Y-50413261D01*
X120096889Y-50296204D01*
X120141957Y-50175371D01*
X120183827Y-50119442D01*
X120249291Y-50095025D01*
X120317564Y-50109877D01*
X120345818Y-50131028D01*
X120450996Y-50236206D01*
X120623991Y-50361894D01*
X120699357Y-50400295D01*
X120814516Y-50458972D01*
X120814519Y-50458973D01*
X120861532Y-50474248D01*
X121017884Y-50525049D01*
X121229084Y-50558500D01*
X121229085Y-50558500D01*
X121442915Y-50558500D01*
X121442916Y-50558500D01*
X121654116Y-50525049D01*
X121857483Y-50458972D01*
X122048009Y-50361894D01*
X122221004Y-50236206D01*
X122372206Y-50085004D01*
X122497894Y-49912009D01*
X122497896Y-49912004D01*
X122500270Y-49908132D01*
X122552080Y-49861254D01*
X122621009Y-49849829D01*
X122685173Y-49877483D01*
X122711730Y-49908132D01*
X122714103Y-49912005D01*
X122714106Y-49912009D01*
X122839794Y-50085004D01*
X122990996Y-50236206D01*
X123163991Y-50361894D01*
X123239357Y-50400295D01*
X123354516Y-50458972D01*
X123354519Y-50458973D01*
X123401532Y-50474248D01*
X123557884Y-50525049D01*
X123769084Y-50558500D01*
X123769085Y-50558500D01*
X123982915Y-50558500D01*
X123982916Y-50558500D01*
X124194116Y-50525049D01*
X124397483Y-50458972D01*
X124588009Y-50361894D01*
X124761004Y-50236206D01*
X124912206Y-50085004D01*
X125037894Y-49912009D01*
X125037896Y-49912004D01*
X125040270Y-49908132D01*
X125092080Y-49861254D01*
X125161009Y-49849829D01*
X125225173Y-49877483D01*
X125251730Y-49908132D01*
X125254103Y-49912005D01*
X125254106Y-49912009D01*
X125379794Y-50085004D01*
X125530996Y-50236206D01*
X125703991Y-50361894D01*
X125779357Y-50400295D01*
X125894516Y-50458972D01*
X125894519Y-50458973D01*
X125941532Y-50474248D01*
X126097884Y-50525049D01*
X126309084Y-50558500D01*
X126309085Y-50558500D01*
X126522915Y-50558500D01*
X126522916Y-50558500D01*
X126734116Y-50525049D01*
X126937483Y-50458972D01*
X127128009Y-50361894D01*
X127301004Y-50236206D01*
X127452206Y-50085004D01*
X127577894Y-49912009D01*
X127577896Y-49912004D01*
X127580270Y-49908132D01*
X127632080Y-49861254D01*
X127701009Y-49849829D01*
X127765173Y-49877483D01*
X127791730Y-49908132D01*
X127794103Y-49912005D01*
X127794106Y-49912009D01*
X127919794Y-50085004D01*
X128070996Y-50236206D01*
X128243991Y-50361894D01*
X128319357Y-50400295D01*
X128434516Y-50458972D01*
X128434519Y-50458973D01*
X128481532Y-50474248D01*
X128637884Y-50525049D01*
X128849084Y-50558500D01*
X128849085Y-50558500D01*
X129062915Y-50558500D01*
X129062916Y-50558500D01*
X129274116Y-50525049D01*
X129477483Y-50458972D01*
X129668009Y-50361894D01*
X129841004Y-50236206D01*
X129992206Y-50085004D01*
X130117894Y-49912009D01*
X130117896Y-49912004D01*
X130120270Y-49908132D01*
X130172080Y-49861254D01*
X130241009Y-49849829D01*
X130305173Y-49877483D01*
X130331730Y-49908132D01*
X130334103Y-49912005D01*
X130334106Y-49912009D01*
X130459794Y-50085004D01*
X130610996Y-50236206D01*
X130783991Y-50361894D01*
X130859357Y-50400295D01*
X130974516Y-50458972D01*
X130974519Y-50458973D01*
X131021532Y-50474248D01*
X131177884Y-50525049D01*
X131389084Y-50558500D01*
X131389085Y-50558500D01*
X131602915Y-50558500D01*
X131602916Y-50558500D01*
X131814116Y-50525049D01*
X132017483Y-50458972D01*
X132208009Y-50361894D01*
X132381004Y-50236206D01*
X132532206Y-50085004D01*
X132657894Y-49912009D01*
X132657896Y-49912004D01*
X132660270Y-49908132D01*
X132712080Y-49861254D01*
X132781009Y-49849829D01*
X132845173Y-49877483D01*
X132871730Y-49908132D01*
X132874103Y-49912005D01*
X132874106Y-49912009D01*
X132999794Y-50085004D01*
X133150996Y-50236206D01*
X133323991Y-50361894D01*
X133399357Y-50400295D01*
X133514516Y-50458972D01*
X133514519Y-50458973D01*
X133561532Y-50474248D01*
X133717884Y-50525049D01*
X133929084Y-50558500D01*
X133929085Y-50558500D01*
X134142915Y-50558500D01*
X134142916Y-50558500D01*
X134354116Y-50525049D01*
X134557483Y-50458972D01*
X134748009Y-50361894D01*
X134921004Y-50236206D01*
X135072206Y-50085004D01*
X135197894Y-49912009D01*
X135197896Y-49912004D01*
X135200270Y-49908132D01*
X135252080Y-49861254D01*
X135321009Y-49849829D01*
X135385173Y-49877483D01*
X135411730Y-49908132D01*
X135414103Y-49912005D01*
X135414106Y-49912009D01*
X135539794Y-50085004D01*
X135690996Y-50236206D01*
X135863991Y-50361894D01*
X135939357Y-50400295D01*
X136054516Y-50458972D01*
X136054519Y-50458973D01*
X136101532Y-50474248D01*
X136257884Y-50525049D01*
X136469084Y-50558500D01*
X136469085Y-50558500D01*
X136682915Y-50558500D01*
X136682916Y-50558500D01*
X136894116Y-50525049D01*
X137097483Y-50458972D01*
X137288009Y-50361894D01*
X137461004Y-50236206D01*
X137612206Y-50085004D01*
X137737894Y-49912009D01*
X137737896Y-49912004D01*
X137740270Y-49908132D01*
X137792080Y-49861254D01*
X137861009Y-49849829D01*
X137925173Y-49877483D01*
X137951730Y-49908132D01*
X137954103Y-49912005D01*
X137954106Y-49912009D01*
X138079794Y-50085004D01*
X138230996Y-50236206D01*
X138403991Y-50361894D01*
X138479357Y-50400295D01*
X138594516Y-50458972D01*
X138594519Y-50458973D01*
X138641532Y-50474248D01*
X138797884Y-50525049D01*
X139009084Y-50558500D01*
X139009085Y-50558500D01*
X139222915Y-50558500D01*
X139222916Y-50558500D01*
X139434116Y-50525049D01*
X139637483Y-50458972D01*
X139828009Y-50361894D01*
X140001004Y-50236206D01*
X140152206Y-50085004D01*
X140277894Y-49912009D01*
X140277896Y-49912004D01*
X140280270Y-49908132D01*
X140332080Y-49861254D01*
X140401009Y-49849829D01*
X140465173Y-49877483D01*
X140491730Y-49908132D01*
X140494103Y-49912005D01*
X140494106Y-49912009D01*
X140619794Y-50085004D01*
X140770996Y-50236206D01*
X140943991Y-50361894D01*
X141019357Y-50400295D01*
X141134516Y-50458972D01*
X141134519Y-50458973D01*
X141181532Y-50474248D01*
X141337884Y-50525049D01*
X141549084Y-50558500D01*
X141549085Y-50558500D01*
X141762915Y-50558500D01*
X141762916Y-50558500D01*
X141974116Y-50525049D01*
X142177483Y-50458972D01*
X142368009Y-50361894D01*
X142541004Y-50236206D01*
X142692206Y-50085004D01*
X142817894Y-49912009D01*
X142914972Y-49721483D01*
X142981049Y-49518116D01*
X143014500Y-49306916D01*
X143014500Y-49093084D01*
X142981049Y-48881884D01*
X142914972Y-48678517D01*
X142914972Y-48678516D01*
X142867639Y-48585621D01*
X142817894Y-48487991D01*
X142692206Y-48314996D01*
X142678555Y-48301345D01*
X144361500Y-48301345D01*
X144361500Y-50098654D01*
X144368011Y-50159202D01*
X144368011Y-50159204D01*
X144419111Y-50296204D01*
X144506739Y-50413261D01*
X144623796Y-50500889D01*
X144760799Y-50551989D01*
X144788050Y-50554918D01*
X144821345Y-50558499D01*
X144821362Y-50558500D01*
X146618638Y-50558500D01*
X146618654Y-50558499D01*
X146645692Y-50555591D01*
X146679201Y-50551989D01*
X146816204Y-50500889D01*
X146933261Y-50413261D01*
X147020889Y-50296204D01*
X147065957Y-50175371D01*
X147107827Y-50119442D01*
X147173291Y-50095025D01*
X147241564Y-50109877D01*
X147269818Y-50131028D01*
X147374996Y-50236206D01*
X147547991Y-50361894D01*
X147623357Y-50400295D01*
X147738516Y-50458972D01*
X147738519Y-50458973D01*
X147785532Y-50474248D01*
X147941884Y-50525049D01*
X148153084Y-50558500D01*
X148153085Y-50558500D01*
X148366915Y-50558500D01*
X148366916Y-50558500D01*
X148578116Y-50525049D01*
X148781483Y-50458972D01*
X148972009Y-50361894D01*
X149145004Y-50236206D01*
X149296206Y-50085004D01*
X149421894Y-49912009D01*
X149421896Y-49912004D01*
X149424270Y-49908132D01*
X149476080Y-49861254D01*
X149545009Y-49849829D01*
X149609173Y-49877483D01*
X149635730Y-49908132D01*
X149638103Y-49912005D01*
X149638106Y-49912009D01*
X149763794Y-50085004D01*
X149914996Y-50236206D01*
X150087991Y-50361894D01*
X150163357Y-50400295D01*
X150278516Y-50458972D01*
X150278519Y-50458973D01*
X150325532Y-50474248D01*
X150481884Y-50525049D01*
X150693084Y-50558500D01*
X150693085Y-50558500D01*
X150906915Y-50558500D01*
X150906916Y-50558500D01*
X151118116Y-50525049D01*
X151321483Y-50458972D01*
X151512009Y-50361894D01*
X151685004Y-50236206D01*
X151836206Y-50085004D01*
X151961894Y-49912009D01*
X151961896Y-49912004D01*
X151964270Y-49908132D01*
X152016080Y-49861254D01*
X152085009Y-49849829D01*
X152149173Y-49877483D01*
X152175730Y-49908132D01*
X152178103Y-49912005D01*
X152178106Y-49912009D01*
X152303794Y-50085004D01*
X152454996Y-50236206D01*
X152627991Y-50361894D01*
X152703357Y-50400295D01*
X152818516Y-50458972D01*
X152818519Y-50458973D01*
X152865532Y-50474248D01*
X153021884Y-50525049D01*
X153233084Y-50558500D01*
X153233085Y-50558500D01*
X153446915Y-50558500D01*
X153446916Y-50558500D01*
X153658116Y-50525049D01*
X153861483Y-50458972D01*
X154052009Y-50361894D01*
X154225004Y-50236206D01*
X154376206Y-50085004D01*
X154501894Y-49912009D01*
X154501896Y-49912004D01*
X154504270Y-49908132D01*
X154556080Y-49861254D01*
X154625009Y-49849829D01*
X154689173Y-49877483D01*
X154715730Y-49908132D01*
X154718103Y-49912005D01*
X154718106Y-49912009D01*
X154843794Y-50085004D01*
X154994996Y-50236206D01*
X155167991Y-50361894D01*
X155243357Y-50400295D01*
X155358516Y-50458972D01*
X155358519Y-50458973D01*
X155405532Y-50474248D01*
X155561884Y-50525049D01*
X155773084Y-50558500D01*
X155773085Y-50558500D01*
X155986915Y-50558500D01*
X155986916Y-50558500D01*
X156198116Y-50525049D01*
X156401483Y-50458972D01*
X156592009Y-50361894D01*
X156765004Y-50236206D01*
X156916206Y-50085004D01*
X157041894Y-49912009D01*
X157041896Y-49912004D01*
X157044270Y-49908132D01*
X157096080Y-49861254D01*
X157165009Y-49849829D01*
X157229173Y-49877483D01*
X157255730Y-49908132D01*
X157258103Y-49912005D01*
X157258106Y-49912009D01*
X157383794Y-50085004D01*
X157534996Y-50236206D01*
X157707991Y-50361894D01*
X157783357Y-50400295D01*
X157898516Y-50458972D01*
X157898519Y-50458973D01*
X157945532Y-50474248D01*
X158101884Y-50525049D01*
X158313084Y-50558500D01*
X158313085Y-50558500D01*
X158526915Y-50558500D01*
X158526916Y-50558500D01*
X158738116Y-50525049D01*
X158941483Y-50458972D01*
X159132009Y-50361894D01*
X159305004Y-50236206D01*
X159456206Y-50085004D01*
X159581894Y-49912009D01*
X159581896Y-49912004D01*
X159584270Y-49908132D01*
X159636080Y-49861254D01*
X159705009Y-49849829D01*
X159769173Y-49877483D01*
X159795730Y-49908132D01*
X159798103Y-49912005D01*
X159798106Y-49912009D01*
X159923794Y-50085004D01*
X160074996Y-50236206D01*
X160247991Y-50361894D01*
X160323357Y-50400295D01*
X160438516Y-50458972D01*
X160438519Y-50458973D01*
X160485532Y-50474248D01*
X160641884Y-50525049D01*
X160853084Y-50558500D01*
X160853085Y-50558500D01*
X161066915Y-50558500D01*
X161066916Y-50558500D01*
X161278116Y-50525049D01*
X161481483Y-50458972D01*
X161672009Y-50361894D01*
X161845004Y-50236206D01*
X161996206Y-50085004D01*
X162121894Y-49912009D01*
X162121896Y-49912004D01*
X162124270Y-49908132D01*
X162176080Y-49861254D01*
X162245009Y-49849829D01*
X162309173Y-49877483D01*
X162335730Y-49908132D01*
X162338103Y-49912005D01*
X162338106Y-49912009D01*
X162463794Y-50085004D01*
X162614996Y-50236206D01*
X162787991Y-50361894D01*
X162863357Y-50400295D01*
X162978516Y-50458972D01*
X162978519Y-50458973D01*
X163025532Y-50474248D01*
X163181884Y-50525049D01*
X163393084Y-50558500D01*
X163393085Y-50558500D01*
X163606915Y-50558500D01*
X163606916Y-50558500D01*
X163818116Y-50525049D01*
X164021483Y-50458972D01*
X164212009Y-50361894D01*
X164385004Y-50236206D01*
X164536206Y-50085004D01*
X164661894Y-49912009D01*
X164758972Y-49721483D01*
X164825049Y-49518116D01*
X164858500Y-49306916D01*
X164858500Y-49093084D01*
X164825049Y-48881884D01*
X164758972Y-48678517D01*
X164758972Y-48678516D01*
X164687756Y-48538748D01*
X164661894Y-48487991D01*
X164536206Y-48314996D01*
X164385004Y-48163794D01*
X164212009Y-48038106D01*
X164126585Y-47994580D01*
X164021483Y-47941027D01*
X164021480Y-47941026D01*
X163818117Y-47874951D01*
X163712516Y-47858225D01*
X163606916Y-47841500D01*
X163393084Y-47841500D01*
X163322684Y-47852650D01*
X163181882Y-47874951D01*
X162978519Y-47941026D01*
X162978516Y-47941027D01*
X162787990Y-48038106D01*
X162614993Y-48163796D01*
X162463796Y-48314993D01*
X162338105Y-48487991D01*
X162335727Y-48491873D01*
X162283914Y-48538748D01*
X162214984Y-48550169D01*
X162150822Y-48522512D01*
X162124273Y-48491873D01*
X162121894Y-48487991D01*
X162090961Y-48445415D01*
X161996206Y-48314996D01*
X161845004Y-48163794D01*
X161672009Y-48038106D01*
X161586585Y-47994580D01*
X161481483Y-47941027D01*
X161481480Y-47941026D01*
X161278117Y-47874951D01*
X161172516Y-47858225D01*
X161066916Y-47841500D01*
X160853084Y-47841500D01*
X160782684Y-47852650D01*
X160641882Y-47874951D01*
X160438519Y-47941026D01*
X160438516Y-47941027D01*
X160247990Y-48038106D01*
X160074993Y-48163796D01*
X159923796Y-48314993D01*
X159798105Y-48487991D01*
X159795727Y-48491873D01*
X159743914Y-48538748D01*
X159674984Y-48550169D01*
X159610822Y-48522512D01*
X159584273Y-48491873D01*
X159581894Y-48487991D01*
X159550961Y-48445415D01*
X159456206Y-48314996D01*
X159305004Y-48163794D01*
X159132009Y-48038106D01*
X159046585Y-47994580D01*
X158941483Y-47941027D01*
X158941480Y-47941026D01*
X158738117Y-47874951D01*
X158632516Y-47858225D01*
X158526916Y-47841500D01*
X158313084Y-47841500D01*
X158242684Y-47852650D01*
X158101882Y-47874951D01*
X157898519Y-47941026D01*
X157898516Y-47941027D01*
X157707990Y-48038106D01*
X157534993Y-48163796D01*
X157383796Y-48314993D01*
X157258105Y-48487991D01*
X157255727Y-48491873D01*
X157203914Y-48538748D01*
X157134984Y-48550169D01*
X157070822Y-48522512D01*
X157044273Y-48491873D01*
X157041894Y-48487991D01*
X157010961Y-48445415D01*
X156916206Y-48314996D01*
X156765004Y-48163794D01*
X156592009Y-48038106D01*
X156506585Y-47994580D01*
X156401483Y-47941027D01*
X156401480Y-47941026D01*
X156198117Y-47874951D01*
X156092516Y-47858225D01*
X155986916Y-47841500D01*
X155773084Y-47841500D01*
X155702684Y-47852650D01*
X155561882Y-47874951D01*
X155358519Y-47941026D01*
X155358516Y-47941027D01*
X155167990Y-48038106D01*
X154994993Y-48163796D01*
X154843796Y-48314993D01*
X154718105Y-48487991D01*
X154715727Y-48491873D01*
X154663914Y-48538748D01*
X154594984Y-48550169D01*
X154530822Y-48522512D01*
X154504273Y-48491873D01*
X154501894Y-48487991D01*
X154470961Y-48445415D01*
X154376206Y-48314996D01*
X154225004Y-48163794D01*
X154052009Y-48038106D01*
X153966585Y-47994580D01*
X153861483Y-47941027D01*
X153861480Y-47941026D01*
X153658117Y-47874951D01*
X153552516Y-47858225D01*
X153446916Y-47841500D01*
X153233084Y-47841500D01*
X153162684Y-47852650D01*
X153021882Y-47874951D01*
X152818519Y-47941026D01*
X152818516Y-47941027D01*
X152627990Y-48038106D01*
X152454993Y-48163796D01*
X152303796Y-48314993D01*
X152178105Y-48487991D01*
X152175727Y-48491873D01*
X152123914Y-48538748D01*
X152054984Y-48550169D01*
X151990822Y-48522512D01*
X151964273Y-48491873D01*
X151961894Y-48487991D01*
X151930961Y-48445415D01*
X151836206Y-48314996D01*
X151685004Y-48163794D01*
X151512009Y-48038106D01*
X151426585Y-47994580D01*
X151321483Y-47941027D01*
X151321480Y-47941026D01*
X151118117Y-47874951D01*
X151012516Y-47858225D01*
X150906916Y-47841500D01*
X150693084Y-47841500D01*
X150622684Y-47852650D01*
X150481882Y-47874951D01*
X150278519Y-47941026D01*
X150278516Y-47941027D01*
X150087990Y-48038106D01*
X149914993Y-48163796D01*
X149763796Y-48314993D01*
X149638105Y-48487991D01*
X149635727Y-48491873D01*
X149583914Y-48538748D01*
X149514984Y-48550169D01*
X149450822Y-48522512D01*
X149424273Y-48491873D01*
X149421894Y-48487991D01*
X149390961Y-48445415D01*
X149296206Y-48314996D01*
X149145004Y-48163794D01*
X148972009Y-48038106D01*
X148886585Y-47994580D01*
X148781483Y-47941027D01*
X148781480Y-47941026D01*
X148578117Y-47874951D01*
X148472516Y-47858225D01*
X148366916Y-47841500D01*
X148153084Y-47841500D01*
X148082684Y-47852650D01*
X147941882Y-47874951D01*
X147738519Y-47941026D01*
X147738516Y-47941027D01*
X147547990Y-48038106D01*
X147374997Y-48163793D01*
X147269818Y-48268972D01*
X147208495Y-48302456D01*
X147138803Y-48297472D01*
X147082870Y-48255600D01*
X147065958Y-48224629D01*
X147020889Y-48103796D01*
X146933261Y-47986739D01*
X146816204Y-47899111D01*
X146792388Y-47890228D01*
X146679203Y-47848011D01*
X146618654Y-47841500D01*
X146618638Y-47841500D01*
X144821362Y-47841500D01*
X144821345Y-47841500D01*
X144760797Y-47848011D01*
X144760795Y-47848011D01*
X144623795Y-47899111D01*
X144506739Y-47986739D01*
X144419111Y-48103795D01*
X144368011Y-48240795D01*
X144368011Y-48240797D01*
X144361500Y-48301345D01*
X142678555Y-48301345D01*
X142541004Y-48163794D01*
X142368009Y-48038106D01*
X142282585Y-47994580D01*
X142177483Y-47941027D01*
X142177480Y-47941026D01*
X141974117Y-47874951D01*
X141868516Y-47858225D01*
X141762916Y-47841500D01*
X141549084Y-47841500D01*
X141478684Y-47852650D01*
X141337882Y-47874951D01*
X141134519Y-47941026D01*
X141134516Y-47941027D01*
X140943990Y-48038106D01*
X140770993Y-48163796D01*
X140619796Y-48314993D01*
X140494105Y-48487991D01*
X140491727Y-48491873D01*
X140439914Y-48538748D01*
X140370984Y-48550169D01*
X140306822Y-48522512D01*
X140280273Y-48491873D01*
X140277894Y-48487991D01*
X140246961Y-48445415D01*
X140152206Y-48314996D01*
X140001004Y-48163794D01*
X139828009Y-48038106D01*
X139742585Y-47994580D01*
X139637483Y-47941027D01*
X139637480Y-47941026D01*
X139434117Y-47874951D01*
X139328516Y-47858225D01*
X139222916Y-47841500D01*
X139009084Y-47841500D01*
X138938684Y-47852650D01*
X138797882Y-47874951D01*
X138594519Y-47941026D01*
X138594516Y-47941027D01*
X138403990Y-48038106D01*
X138230993Y-48163796D01*
X138079796Y-48314993D01*
X137954105Y-48487991D01*
X137951727Y-48491873D01*
X137899914Y-48538748D01*
X137830984Y-48550169D01*
X137766822Y-48522512D01*
X137740273Y-48491873D01*
X137737894Y-48487991D01*
X137706961Y-48445415D01*
X137612206Y-48314996D01*
X137461004Y-48163794D01*
X137288009Y-48038106D01*
X137202585Y-47994580D01*
X137097483Y-47941027D01*
X137097480Y-47941026D01*
X136894117Y-47874951D01*
X136788516Y-47858225D01*
X136682916Y-47841500D01*
X136469084Y-47841500D01*
X136398684Y-47852650D01*
X136257882Y-47874951D01*
X136054519Y-47941026D01*
X136054516Y-47941027D01*
X135863990Y-48038106D01*
X135690993Y-48163796D01*
X135539796Y-48314993D01*
X135414105Y-48487991D01*
X135411727Y-48491873D01*
X135359914Y-48538748D01*
X135290984Y-48550169D01*
X135226822Y-48522512D01*
X135200273Y-48491873D01*
X135197894Y-48487991D01*
X135166961Y-48445415D01*
X135072206Y-48314996D01*
X134921004Y-48163794D01*
X134748009Y-48038106D01*
X134662585Y-47994580D01*
X134557483Y-47941027D01*
X134557480Y-47941026D01*
X134354117Y-47874951D01*
X134248516Y-47858225D01*
X134142916Y-47841500D01*
X133929084Y-47841500D01*
X133858684Y-47852650D01*
X133717882Y-47874951D01*
X133514519Y-47941026D01*
X133514516Y-47941027D01*
X133323990Y-48038106D01*
X133150993Y-48163796D01*
X132999796Y-48314993D01*
X132874105Y-48487991D01*
X132871727Y-48491873D01*
X132819914Y-48538748D01*
X132750984Y-48550169D01*
X132686822Y-48522512D01*
X132660273Y-48491873D01*
X132657894Y-48487991D01*
X132626961Y-48445415D01*
X132532206Y-48314996D01*
X132381004Y-48163794D01*
X132208009Y-48038106D01*
X132122585Y-47994580D01*
X132017483Y-47941027D01*
X132017480Y-47941026D01*
X131814117Y-47874951D01*
X131708516Y-47858225D01*
X131602916Y-47841500D01*
X131389084Y-47841500D01*
X131318684Y-47852650D01*
X131177882Y-47874951D01*
X130974519Y-47941026D01*
X130974516Y-47941027D01*
X130783990Y-48038106D01*
X130610993Y-48163796D01*
X130459796Y-48314993D01*
X130334105Y-48487991D01*
X130331727Y-48491873D01*
X130279914Y-48538748D01*
X130210984Y-48550169D01*
X130146822Y-48522512D01*
X130120273Y-48491873D01*
X130117894Y-48487991D01*
X130086961Y-48445415D01*
X129992206Y-48314996D01*
X129841004Y-48163794D01*
X129668009Y-48038106D01*
X129582585Y-47994580D01*
X129477483Y-47941027D01*
X129477480Y-47941026D01*
X129274117Y-47874951D01*
X129168516Y-47858225D01*
X129062916Y-47841500D01*
X128849084Y-47841500D01*
X128778684Y-47852650D01*
X128637882Y-47874951D01*
X128434519Y-47941026D01*
X128434516Y-47941027D01*
X128243990Y-48038106D01*
X128070993Y-48163796D01*
X127919796Y-48314993D01*
X127794105Y-48487991D01*
X127791727Y-48491873D01*
X127739914Y-48538748D01*
X127670984Y-48550169D01*
X127606822Y-48522512D01*
X127580273Y-48491873D01*
X127577894Y-48487991D01*
X127546961Y-48445415D01*
X127452206Y-48314996D01*
X127301004Y-48163794D01*
X127128009Y-48038106D01*
X127042585Y-47994580D01*
X126937483Y-47941027D01*
X126937480Y-47941026D01*
X126734117Y-47874951D01*
X126628516Y-47858225D01*
X126522916Y-47841500D01*
X126309084Y-47841500D01*
X126238684Y-47852650D01*
X126097882Y-47874951D01*
X125894519Y-47941026D01*
X125894516Y-47941027D01*
X125703990Y-48038106D01*
X125530993Y-48163796D01*
X125379796Y-48314993D01*
X125254105Y-48487991D01*
X125251727Y-48491873D01*
X125199914Y-48538748D01*
X125130984Y-48550169D01*
X125066822Y-48522512D01*
X125040273Y-48491873D01*
X125037894Y-48487991D01*
X125006961Y-48445415D01*
X124912206Y-48314996D01*
X124761004Y-48163794D01*
X124588009Y-48038106D01*
X124502585Y-47994580D01*
X124397483Y-47941027D01*
X124397480Y-47941026D01*
X124194117Y-47874951D01*
X124088516Y-47858225D01*
X123982916Y-47841500D01*
X123769084Y-47841500D01*
X123698684Y-47852650D01*
X123557882Y-47874951D01*
X123354519Y-47941026D01*
X123354516Y-47941027D01*
X123163990Y-48038106D01*
X122990993Y-48163796D01*
X122839796Y-48314993D01*
X122714105Y-48487991D01*
X122711727Y-48491873D01*
X122659914Y-48538748D01*
X122590984Y-48550169D01*
X122526822Y-48522512D01*
X122500273Y-48491873D01*
X122497894Y-48487991D01*
X122466961Y-48445415D01*
X122372206Y-48314996D01*
X122221004Y-48163794D01*
X122048009Y-48038106D01*
X121962585Y-47994580D01*
X121857483Y-47941027D01*
X121857480Y-47941026D01*
X121654117Y-47874951D01*
X121548516Y-47858225D01*
X121442916Y-47841500D01*
X121229084Y-47841500D01*
X121158684Y-47852650D01*
X121017882Y-47874951D01*
X120814519Y-47941026D01*
X120814516Y-47941027D01*
X120623990Y-48038106D01*
X120450997Y-48163793D01*
X120345818Y-48268972D01*
X120284495Y-48302456D01*
X120214803Y-48297472D01*
X120158870Y-48255600D01*
X120141958Y-48224629D01*
X120096889Y-48103796D01*
X120009261Y-47986739D01*
X119892204Y-47899111D01*
X119868388Y-47890228D01*
X119755203Y-47848011D01*
X119694654Y-47841500D01*
X119694638Y-47841500D01*
X117897362Y-47841500D01*
X117897345Y-47841500D01*
X117836797Y-47848011D01*
X117836795Y-47848011D01*
X117699795Y-47899111D01*
X117582739Y-47986739D01*
X117495111Y-48103795D01*
X117444011Y-48240795D01*
X117444011Y-48240797D01*
X117437500Y-48301345D01*
X116565416Y-48301345D01*
X116562602Y-48297472D01*
X116460798Y-48157350D01*
X116460794Y-48157345D01*
X116282654Y-47979205D01*
X116282649Y-47979201D01*
X116078848Y-47831132D01*
X116078847Y-47831131D01*
X116078845Y-47831130D01*
X115999497Y-47790700D01*
X115854383Y-47716760D01*
X115614785Y-47638910D01*
X115365962Y-47599500D01*
X115114038Y-47599500D01*
X114989626Y-47619205D01*
X114865214Y-47638910D01*
X114625616Y-47716760D01*
X114401151Y-47831132D01*
X114197350Y-47979201D01*
X114197345Y-47979205D01*
X114019205Y-48157345D01*
X114019201Y-48157350D01*
X113871132Y-48361151D01*
X113756760Y-48585616D01*
X113678910Y-48825214D01*
X113676221Y-48842193D01*
X113639500Y-49074038D01*
X112331300Y-49074038D01*
X112331300Y-48250562D01*
X112331299Y-48250545D01*
X112327818Y-48218171D01*
X112324789Y-48189999D01*
X112318756Y-48173825D01*
X112296067Y-48112994D01*
X112273689Y-48052996D01*
X112186061Y-47935939D01*
X112069004Y-47848311D01*
X112050743Y-47841500D01*
X111932003Y-47797211D01*
X111871454Y-47790700D01*
X111871438Y-47790700D01*
X110074162Y-47790700D01*
X110074145Y-47790700D01*
X110013597Y-47797211D01*
X110013595Y-47797211D01*
X109876595Y-47848311D01*
X109759539Y-47935939D01*
X109671911Y-48052995D01*
X109626843Y-48173825D01*
X109584971Y-48229758D01*
X109519507Y-48254174D01*
X109451234Y-48239322D01*
X109422981Y-48218171D01*
X109317806Y-48112996D01*
X109317804Y-48112994D01*
X109144809Y-47987306D01*
X109128902Y-47979201D01*
X108954283Y-47890227D01*
X108954280Y-47890226D01*
X108750917Y-47824151D01*
X108645316Y-47807425D01*
X108539716Y-47790700D01*
X108325884Y-47790700D01*
X108255484Y-47801850D01*
X108114682Y-47824151D01*
X107911319Y-47890226D01*
X107911316Y-47890227D01*
X107720790Y-47987306D01*
X107547793Y-48112996D01*
X107396596Y-48264193D01*
X107270903Y-48437194D01*
X107268509Y-48441893D01*
X107220531Y-48492685D01*
X107152708Y-48509475D01*
X107086575Y-48486932D01*
X107050604Y-48445415D01*
X107049971Y-48445804D01*
X107047626Y-48441978D01*
X107047543Y-48441882D01*
X107047424Y-48441649D01*
X107008070Y-48387482D01*
X107008069Y-48387482D01*
X106375762Y-49019790D01*
X106358725Y-48956207D01*
X106292899Y-48842193D01*
X106199807Y-48749101D01*
X106085793Y-48683275D01*
X106022209Y-48666237D01*
X106654516Y-48033928D01*
X106600350Y-47994575D01*
X106411017Y-47898104D01*
X106208929Y-47832442D01*
X105999046Y-47799200D01*
X105786554Y-47799200D01*
X105576672Y-47832442D01*
X105576669Y-47832442D01*
X105374582Y-47898104D01*
X105185239Y-47994580D01*
X105131082Y-48033927D01*
X105131082Y-48033928D01*
X105763391Y-48666237D01*
X105699807Y-48683275D01*
X105585793Y-48749101D01*
X105492701Y-48842193D01*
X105426875Y-48956207D01*
X105409837Y-49019791D01*
X104777528Y-48387482D01*
X104777527Y-48387482D01*
X104738180Y-48441640D01*
X104733283Y-48451251D01*
X104685306Y-48502045D01*
X104617484Y-48518838D01*
X104551350Y-48496298D01*
X104512316Y-48451248D01*
X104507426Y-48441652D01*
X104468070Y-48387482D01*
X104468069Y-48387482D01*
X103835762Y-49019790D01*
X103818725Y-48956207D01*
X103752899Y-48842193D01*
X103659807Y-48749101D01*
X103545793Y-48683275D01*
X103482209Y-48666237D01*
X104114516Y-48033928D01*
X104060350Y-47994575D01*
X103871017Y-47898104D01*
X103668929Y-47832442D01*
X103459046Y-47799200D01*
X103246554Y-47799200D01*
X103036672Y-47832442D01*
X103036669Y-47832442D01*
X102834582Y-47898104D01*
X102645239Y-47994580D01*
X102591082Y-48033927D01*
X102591082Y-48033928D01*
X103223391Y-48666237D01*
X103159807Y-48683275D01*
X103045793Y-48749101D01*
X102952701Y-48842193D01*
X102886875Y-48956207D01*
X102869837Y-49019791D01*
X102237528Y-48387482D01*
X102237527Y-48387482D01*
X102198180Y-48441639D01*
X102101704Y-48630982D01*
X102036042Y-48833069D01*
X102036042Y-48833072D01*
X102002800Y-49042953D01*
X100075500Y-49042953D01*
X100075500Y-47428092D01*
X100076097Y-47415939D01*
X100083624Y-47339513D01*
X100087494Y-47300219D01*
X100092232Y-47276395D01*
X100124215Y-47170962D01*
X100133512Y-47148520D01*
X100185439Y-47051370D01*
X100198941Y-47031164D01*
X100208988Y-47018921D01*
X100268827Y-46946008D01*
X100286008Y-46928827D01*
X100371164Y-46858941D01*
X100391370Y-46845439D01*
X100488520Y-46793512D01*
X100510962Y-46784215D01*
X100616395Y-46752232D01*
X100640219Y-46747494D01*
X100737721Y-46737891D01*
X100755940Y-46736097D01*
X100768093Y-46735500D01*
X100786531Y-46735500D01*
X163377727Y-46735500D01*
X163417559Y-46735547D01*
G37*
%TD.AperFunction*%
%TD*%
%TA.AperFunction,Conductor*%
%TO.N,GND*%
G36*
X168447539Y-94965085D02*
G01*
X168493294Y-95017889D01*
X168504500Y-95069400D01*
X168504500Y-96107364D01*
X168484815Y-96174403D01*
X168468181Y-96195045D01*
X165997233Y-98665994D01*
X165975995Y-98687231D01*
X165964500Y-98714982D01*
X165964500Y-99231907D01*
X165963903Y-99244062D01*
X165952506Y-99359774D01*
X165947764Y-99383615D01*
X165915787Y-99489028D01*
X165906484Y-99511485D01*
X165854563Y-99608623D01*
X165841058Y-99628835D01*
X165771175Y-99713987D01*
X165753987Y-99731175D01*
X165668835Y-99801058D01*
X165648623Y-99814563D01*
X165551485Y-99866484D01*
X165529028Y-99875787D01*
X165423615Y-99907764D01*
X165399774Y-99912506D01*
X165313985Y-99920955D01*
X165284060Y-99923903D01*
X165271907Y-99924500D01*
X162789179Y-99924500D01*
X162795704Y-98625824D01*
X162874542Y-98665994D01*
X162978516Y-98718972D01*
X162978519Y-98718973D01*
X163080200Y-98752010D01*
X163181884Y-98785049D01*
X163393084Y-98818500D01*
X163393085Y-98818500D01*
X163606915Y-98818500D01*
X163606916Y-98818500D01*
X163818116Y-98785049D01*
X164021483Y-98718972D01*
X164212009Y-98621894D01*
X164385004Y-98496206D01*
X164536206Y-98345004D01*
X164661894Y-98172009D01*
X164758972Y-97981483D01*
X164825049Y-97778116D01*
X164858500Y-97566916D01*
X164858500Y-97353084D01*
X164825049Y-97141884D01*
X164758972Y-96938517D01*
X164758972Y-96938516D01*
X164661893Y-96747990D01*
X164536206Y-96574996D01*
X164385004Y-96423794D01*
X164212009Y-96298106D01*
X164192546Y-96288189D01*
X164021483Y-96201027D01*
X164021480Y-96201026D01*
X163818117Y-96134951D01*
X163712516Y-96118225D01*
X163606916Y-96101500D01*
X163393084Y-96101500D01*
X163322684Y-96112650D01*
X163181882Y-96134951D01*
X162978519Y-96201026D01*
X162978516Y-96201027D01*
X162807452Y-96288189D01*
X162814200Y-94945400D01*
X163249200Y-94945400D01*
X168380500Y-94945400D01*
X168447539Y-94965085D01*
G37*
%TD.AperFunction*%
%TD*%
M02*
