%TF.GenerationSoftware,KiCad,Pcbnew,(5.1.9)-1*%
%TF.CreationDate,2021-06-02T11:46:08-06:00*%
%TF.ProjectId,VCO_PANEL_REV1,56434f5f-5041-44e4-954c-5f524556312e,rev?*%
%TF.SameCoordinates,Original*%
%TF.FileFunction,Profile,NP*%
%FSLAX46Y46*%
G04 Gerber Fmt 4.6, Leading zero omitted, Abs format (unit mm)*
G04 Created by KiCad (PCBNEW (5.1.9)-1) date 2021-06-02 11:46:08*
%MOMM*%
%LPD*%
G01*
G04 APERTURE LIST*
%TA.AperFunction,Profile*%
%ADD10C,0.200000*%
%TD*%
G04 APERTURE END LIST*
D10*
X82024999Y-31700000D02*
X82024999Y-160200000D01*
X163304999Y-31700000D02*
X82024999Y-31700000D01*
X163304999Y-160200000D02*
X163304999Y-31700000D01*
X82024999Y-160200000D02*
X163304999Y-160200000D01*
X137664999Y-103950000D02*
G75*
G03*
X137664999Y-103950000I-4000000J0D01*
G01*
X145664999Y-55950000D02*
G75*
G03*
X145664999Y-55950000I-4000000J0D01*
G01*
X97664999Y-80950000D02*
G75*
G03*
X97664999Y-80950000I-4000000J0D01*
G01*
X137664999Y-86950000D02*
G75*
G03*
X137664999Y-86950000I-4000000J0D01*
G01*
X111664999Y-55950000D02*
G75*
G03*
X111664999Y-55950000I-4000000J0D01*
G01*
X153664999Y-70950000D02*
G75*
G03*
X153664999Y-70950000I-4000000J0D01*
G01*
X137664999Y-70950000D02*
G75*
G03*
X137664999Y-70950000I-4000000J0D01*
G01*
X154664999Y-119950000D02*
G75*
G03*
X154664999Y-119950000I-4000000J0D01*
G01*
X153664999Y-86950000D02*
G75*
G03*
X153664999Y-86950000I-4000000J0D01*
G01*
X115664999Y-103950000D02*
G75*
G03*
X115664999Y-103950000I-4000000J0D01*
G01*
X97664999Y-103950000D02*
G75*
G03*
X97664999Y-103950000I-4000000J0D01*
G01*
X137664999Y-119950000D02*
G75*
G03*
X137664999Y-119950000I-4000000J0D01*
G01*
X126664999Y-119950000D02*
G75*
G03*
X126664999Y-119950000I-4000000J0D01*
G01*
X115665000Y-119950000D02*
G75*
G03*
X115665000Y-119950000I-4000000J0D01*
G01*
X104665000Y-119950000D02*
G75*
G03*
X104665000Y-119950000I-4000000J0D01*
G01*
X93665000Y-119950000D02*
G75*
G03*
X93665000Y-119950000I-4000000J0D01*
G01*
X154664999Y-135950000D02*
G75*
G03*
X154664999Y-135950000I-4000000J0D01*
G01*
X137664999Y-135950000D02*
G75*
G03*
X137664999Y-135950000I-4000000J0D01*
G01*
X126664999Y-135950000D02*
G75*
G03*
X126664999Y-135950000I-4000000J0D01*
G01*
X115665000Y-135950000D02*
G75*
G03*
X115665000Y-135950000I-4000000J0D01*
G01*
X104665000Y-135950000D02*
G75*
G03*
X104665000Y-135950000I-4000000J0D01*
G01*
X93665000Y-135950000D02*
G75*
G03*
X93665000Y-135950000I-4000000J0D01*
G01*
X123164999Y-95950000D02*
G75*
G03*
X123164999Y-95950000I-500000J0D01*
G01*
X151024999Y-155600000D02*
G75*
G02*
X151024999Y-158800000I0J-1600000D01*
G01*
X147824999Y-158800000D02*
X151024999Y-158800000D01*
X147824999Y-158800000D02*
G75*
G02*
X147824999Y-155600000I0J1600000D01*
G01*
X151024999Y-155600000D02*
X147824999Y-155600000D01*
X92725000Y-33100000D02*
G75*
G02*
X92725000Y-36300000I0J-1600000D01*
G01*
X92725000Y-155600000D02*
G75*
G02*
X92725000Y-158800000I0J-1600000D01*
G01*
X151024999Y-33100000D02*
G75*
G02*
X151024999Y-36300000I0J-1600000D01*
G01*
X89525000Y-158800000D02*
G75*
G02*
X89525000Y-155600000I0J1600000D01*
G01*
X92725000Y-155600000D02*
X89525000Y-155600000D01*
X151024999Y-33100000D02*
X147824999Y-33100000D01*
X147824999Y-36300000D02*
G75*
G02*
X147824999Y-33100000I0J1600000D01*
G01*
X147824999Y-36300000D02*
X151024999Y-36300000D01*
X89525000Y-36300000D02*
G75*
G02*
X89525000Y-33100000I0J1600000D01*
G01*
X89525000Y-36300000D02*
X92725000Y-36300000D01*
X92725000Y-33100000D02*
X89525000Y-33100000D01*
X89525000Y-158800000D02*
X92725000Y-158800000D01*
M02*
