%TF.GenerationSoftware,KiCad,Pcbnew,(5.1.9)-1*%
%TF.CreationDate,2021-06-02T11:46:08-06:00*%
%TF.ProjectId,VCO_PANEL_REV1,56434f5f-5041-44e4-954c-5f524556312e,rev?*%
%TF.SameCoordinates,Original*%
%TF.FileFunction,Copper,L2,Bot*%
%TF.FilePolarity,Positive*%
%FSLAX46Y46*%
G04 Gerber Fmt 4.6, Leading zero omitted, Abs format (unit mm)*
G04 Created by KiCad (PCBNEW (5.1.9)-1) date 2021-06-02 11:46:08*
%MOMM*%
%LPD*%
G01*
G04 APERTURE LIST*
%TA.AperFunction,NonConductor*%
%ADD10C,0.254000*%
%TD*%
%TA.AperFunction,NonConductor*%
%ADD11C,0.100000*%
%TD*%
G04 APERTURE END LIST*
D10*
X88672452Y-32528788D02*
X88611207Y-32555037D01*
X88549631Y-32580417D01*
X88540609Y-32585295D01*
X88540605Y-32585297D01*
X88540604Y-32585298D01*
X88266964Y-32735733D01*
X88211970Y-32773388D01*
X88156511Y-32810235D01*
X88148603Y-32816776D01*
X87909394Y-33017497D01*
X87862771Y-33065107D01*
X87815517Y-33112032D01*
X87809031Y-33119985D01*
X87613364Y-33363344D01*
X87576866Y-33419119D01*
X87539636Y-33474315D01*
X87534821Y-33483371D01*
X87534818Y-33483375D01*
X87534818Y-33483376D01*
X87390146Y-33760106D01*
X87365169Y-33821926D01*
X87339377Y-33883283D01*
X87336410Y-33893107D01*
X87248244Y-34192668D01*
X87235746Y-34258188D01*
X87222367Y-34323363D01*
X87221365Y-34333576D01*
X87193064Y-34644556D01*
X87193529Y-34711171D01*
X87193064Y-34777786D01*
X87194065Y-34787999D01*
X87226707Y-35098555D01*
X87240098Y-35163789D01*
X87252584Y-35229245D01*
X87255550Y-35239070D01*
X87347889Y-35537370D01*
X87373728Y-35598838D01*
X87398660Y-35660547D01*
X87403477Y-35669609D01*
X87551998Y-35944293D01*
X87589278Y-35999563D01*
X87625727Y-36055263D01*
X87632213Y-36063216D01*
X87831258Y-36303820D01*
X87878532Y-36350765D01*
X87925137Y-36398356D01*
X87933044Y-36404898D01*
X88175033Y-36602259D01*
X88230572Y-36639159D01*
X88285484Y-36676758D01*
X88294511Y-36681640D01*
X88570224Y-36828240D01*
X88631852Y-36853641D01*
X88693047Y-36879869D01*
X88702850Y-36882904D01*
X89001788Y-36973158D01*
X89067172Y-36986104D01*
X89132295Y-36999947D01*
X89142501Y-37001020D01*
X89453276Y-37031492D01*
X89453277Y-37031492D01*
X89488895Y-37035000D01*
X92761105Y-37035000D01*
X92798307Y-37031336D01*
X92819063Y-37031336D01*
X92829269Y-37030263D01*
X93139589Y-36995455D01*
X93204750Y-36981605D01*
X93270096Y-36968666D01*
X93279898Y-36965632D01*
X93279904Y-36965630D01*
X93577548Y-36871212D01*
X93638805Y-36844958D01*
X93700369Y-36819583D01*
X93709391Y-36814705D01*
X93709395Y-36814703D01*
X93709398Y-36814701D01*
X93983036Y-36664267D01*
X94038020Y-36626619D01*
X94093490Y-36589765D01*
X94101397Y-36583224D01*
X94340606Y-36382503D01*
X94387265Y-36334857D01*
X94434482Y-36287968D01*
X94440969Y-36280016D01*
X94636636Y-36036656D01*
X94673144Y-35980865D01*
X94710364Y-35925685D01*
X94715183Y-35916624D01*
X94859854Y-35639893D01*
X94884825Y-35578088D01*
X94910623Y-35516717D01*
X94913590Y-35506893D01*
X95001756Y-35207332D01*
X95014254Y-35141812D01*
X95027633Y-35076637D01*
X95028635Y-35066424D01*
X95056936Y-34755444D01*
X95056471Y-34688829D01*
X95056936Y-34622214D01*
X95055935Y-34612001D01*
X95023294Y-34301446D01*
X95009897Y-34236181D01*
X94997416Y-34170755D01*
X94994450Y-34160930D01*
X94902111Y-33862630D01*
X94876293Y-33801211D01*
X94851341Y-33739453D01*
X94846523Y-33730392D01*
X94698002Y-33455707D01*
X94660732Y-33400452D01*
X94624273Y-33344737D01*
X94617787Y-33336785D01*
X94418742Y-33096180D01*
X94371452Y-33049219D01*
X94324863Y-33001644D01*
X94316956Y-32995102D01*
X94074967Y-32797741D01*
X94019428Y-32760841D01*
X93964516Y-32723242D01*
X93955489Y-32718360D01*
X93679776Y-32571760D01*
X93618148Y-32546359D01*
X93556953Y-32520131D01*
X93547155Y-32517098D01*
X93547153Y-32517097D01*
X93547151Y-32517097D01*
X93547149Y-32517096D01*
X93275233Y-32435000D01*
X147268107Y-32435000D01*
X146972451Y-32528788D01*
X146911206Y-32555037D01*
X146849630Y-32580417D01*
X146840608Y-32585295D01*
X146840604Y-32585297D01*
X146840603Y-32585298D01*
X146566963Y-32735733D01*
X146511969Y-32773388D01*
X146456510Y-32810235D01*
X146448602Y-32816776D01*
X146209393Y-33017497D01*
X146162770Y-33065107D01*
X146115516Y-33112032D01*
X146109030Y-33119985D01*
X145913363Y-33363344D01*
X145876865Y-33419119D01*
X145839635Y-33474315D01*
X145834820Y-33483371D01*
X145834817Y-33483375D01*
X145834817Y-33483376D01*
X145690145Y-33760106D01*
X145665168Y-33821926D01*
X145639376Y-33883283D01*
X145636409Y-33893107D01*
X145548243Y-34192668D01*
X145535745Y-34258188D01*
X145522366Y-34323363D01*
X145521364Y-34333576D01*
X145493063Y-34644556D01*
X145493528Y-34711171D01*
X145493063Y-34777786D01*
X145494064Y-34787999D01*
X145526706Y-35098555D01*
X145540097Y-35163789D01*
X145552583Y-35229245D01*
X145555549Y-35239070D01*
X145647888Y-35537370D01*
X145673727Y-35598838D01*
X145698659Y-35660547D01*
X145703476Y-35669609D01*
X145851997Y-35944293D01*
X145889277Y-35999563D01*
X145925726Y-36055263D01*
X145932212Y-36063216D01*
X146131257Y-36303820D01*
X146178531Y-36350765D01*
X146225136Y-36398356D01*
X146233043Y-36404898D01*
X146475032Y-36602259D01*
X146530571Y-36639159D01*
X146585483Y-36676758D01*
X146594510Y-36681640D01*
X146870223Y-36828240D01*
X146931851Y-36853641D01*
X146993046Y-36879869D01*
X147002849Y-36882904D01*
X147301787Y-36973158D01*
X147367171Y-36986104D01*
X147432294Y-36999947D01*
X147442500Y-37001020D01*
X147753275Y-37031492D01*
X147753276Y-37031492D01*
X147788894Y-37035000D01*
X151061104Y-37035000D01*
X151098306Y-37031336D01*
X151119062Y-37031336D01*
X151129268Y-37030263D01*
X151439588Y-36995455D01*
X151504749Y-36981605D01*
X151570095Y-36968666D01*
X151579897Y-36965632D01*
X151579903Y-36965630D01*
X151877547Y-36871212D01*
X151938804Y-36844958D01*
X152000368Y-36819583D01*
X152009390Y-36814705D01*
X152009394Y-36814703D01*
X152009397Y-36814701D01*
X152283035Y-36664267D01*
X152338019Y-36626619D01*
X152393489Y-36589765D01*
X152401396Y-36583224D01*
X152640605Y-36382503D01*
X152687264Y-36334857D01*
X152734481Y-36287968D01*
X152740968Y-36280016D01*
X152936635Y-36036656D01*
X152973143Y-35980865D01*
X153010363Y-35925685D01*
X153015182Y-35916624D01*
X153159853Y-35639893D01*
X153184824Y-35578088D01*
X153210622Y-35516717D01*
X153213589Y-35506893D01*
X153301755Y-35207332D01*
X153314253Y-35141812D01*
X153327632Y-35076637D01*
X153328634Y-35066424D01*
X153356935Y-34755444D01*
X153356470Y-34688829D01*
X153356935Y-34622214D01*
X153355934Y-34612001D01*
X153323293Y-34301446D01*
X153309896Y-34236181D01*
X153297415Y-34170755D01*
X153294449Y-34160930D01*
X153202110Y-33862630D01*
X153176292Y-33801211D01*
X153151340Y-33739453D01*
X153146522Y-33730392D01*
X152998001Y-33455707D01*
X152960731Y-33400452D01*
X152924272Y-33344737D01*
X152917786Y-33336785D01*
X152718741Y-33096180D01*
X152671451Y-33049219D01*
X152624862Y-33001644D01*
X152616955Y-32995102D01*
X152374966Y-32797741D01*
X152319427Y-32760841D01*
X152264515Y-32723242D01*
X152255488Y-32718360D01*
X151979775Y-32571760D01*
X151918147Y-32546359D01*
X151856952Y-32520131D01*
X151847154Y-32517098D01*
X151847152Y-32517097D01*
X151847150Y-32517097D01*
X151847148Y-32517096D01*
X151575232Y-32435000D01*
X162570000Y-32435000D01*
X162569999Y-159465000D01*
X151581888Y-159465000D01*
X151877547Y-159371212D01*
X151938804Y-159344958D01*
X152000368Y-159319583D01*
X152009390Y-159314705D01*
X152009394Y-159314703D01*
X152009397Y-159314701D01*
X152283035Y-159164267D01*
X152338019Y-159126619D01*
X152393489Y-159089765D01*
X152401396Y-159083224D01*
X152640605Y-158882503D01*
X152687264Y-158834857D01*
X152734481Y-158787968D01*
X152740968Y-158780016D01*
X152936635Y-158536656D01*
X152973143Y-158480865D01*
X153010363Y-158425685D01*
X153015182Y-158416624D01*
X153159853Y-158139893D01*
X153184824Y-158078088D01*
X153210622Y-158016717D01*
X153213589Y-158006893D01*
X153301755Y-157707332D01*
X153314253Y-157641812D01*
X153327632Y-157576637D01*
X153328634Y-157566424D01*
X153356935Y-157255444D01*
X153356470Y-157188829D01*
X153356935Y-157122214D01*
X153355934Y-157112001D01*
X153323293Y-156801446D01*
X153309896Y-156736181D01*
X153297415Y-156670755D01*
X153294449Y-156660930D01*
X153202110Y-156362630D01*
X153176292Y-156301211D01*
X153151340Y-156239453D01*
X153146522Y-156230392D01*
X152998001Y-155955707D01*
X152960731Y-155900452D01*
X152924272Y-155844737D01*
X152917786Y-155836785D01*
X152718741Y-155596180D01*
X152671451Y-155549219D01*
X152624862Y-155501644D01*
X152616955Y-155495102D01*
X152374966Y-155297741D01*
X152319427Y-155260841D01*
X152264515Y-155223242D01*
X152255488Y-155218360D01*
X151979775Y-155071760D01*
X151918147Y-155046359D01*
X151856952Y-155020131D01*
X151847154Y-155017098D01*
X151847152Y-155017097D01*
X151847150Y-155017097D01*
X151847148Y-155017096D01*
X151548211Y-154926842D01*
X151482865Y-154913903D01*
X151417704Y-154900053D01*
X151407498Y-154898980D01*
X151096723Y-154868508D01*
X151096722Y-154868508D01*
X151061104Y-154865000D01*
X147788894Y-154865000D01*
X147751692Y-154868664D01*
X147730936Y-154868664D01*
X147720730Y-154869737D01*
X147410410Y-154904545D01*
X147345249Y-154918395D01*
X147279903Y-154931334D01*
X147270099Y-154934368D01*
X146972451Y-155028788D01*
X146911206Y-155055037D01*
X146849630Y-155080417D01*
X146840608Y-155085295D01*
X146840604Y-155085297D01*
X146840603Y-155085298D01*
X146566963Y-155235733D01*
X146511969Y-155273388D01*
X146456510Y-155310235D01*
X146448602Y-155316776D01*
X146209393Y-155517497D01*
X146162770Y-155565107D01*
X146115516Y-155612032D01*
X146109030Y-155619985D01*
X145913363Y-155863344D01*
X145876865Y-155919119D01*
X145839635Y-155974315D01*
X145834820Y-155983371D01*
X145834817Y-155983375D01*
X145834817Y-155983376D01*
X145690145Y-156260106D01*
X145665168Y-156321926D01*
X145639376Y-156383283D01*
X145636409Y-156393107D01*
X145548243Y-156692668D01*
X145535745Y-156758188D01*
X145522366Y-156823363D01*
X145521364Y-156833576D01*
X145493063Y-157144556D01*
X145493528Y-157211171D01*
X145493063Y-157277786D01*
X145494064Y-157287999D01*
X145526706Y-157598555D01*
X145540097Y-157663789D01*
X145552583Y-157729245D01*
X145555549Y-157739070D01*
X145647888Y-158037370D01*
X145673727Y-158098838D01*
X145698659Y-158160547D01*
X145703476Y-158169609D01*
X145851997Y-158444293D01*
X145889277Y-158499563D01*
X145925726Y-158555263D01*
X145932212Y-158563216D01*
X146131257Y-158803820D01*
X146178531Y-158850765D01*
X146225136Y-158898356D01*
X146233043Y-158904898D01*
X146475032Y-159102259D01*
X146530571Y-159139159D01*
X146585483Y-159176758D01*
X146594510Y-159181640D01*
X146870223Y-159328240D01*
X146931851Y-159353641D01*
X146993046Y-159379869D01*
X147002849Y-159382904D01*
X147274766Y-159465000D01*
X93281889Y-159465000D01*
X93577548Y-159371212D01*
X93638805Y-159344958D01*
X93700369Y-159319583D01*
X93709391Y-159314705D01*
X93709395Y-159314703D01*
X93709398Y-159314701D01*
X93983036Y-159164267D01*
X94038020Y-159126619D01*
X94093490Y-159089765D01*
X94101397Y-159083224D01*
X94340606Y-158882503D01*
X94387265Y-158834857D01*
X94434482Y-158787968D01*
X94440969Y-158780016D01*
X94636636Y-158536656D01*
X94673144Y-158480865D01*
X94710364Y-158425685D01*
X94715183Y-158416624D01*
X94859854Y-158139893D01*
X94884825Y-158078088D01*
X94910623Y-158016717D01*
X94913590Y-158006893D01*
X95001756Y-157707332D01*
X95014254Y-157641812D01*
X95027633Y-157576637D01*
X95028635Y-157566424D01*
X95056936Y-157255444D01*
X95056471Y-157188829D01*
X95056936Y-157122214D01*
X95055935Y-157112001D01*
X95023294Y-156801446D01*
X95009897Y-156736181D01*
X94997416Y-156670755D01*
X94994450Y-156660930D01*
X94902111Y-156362630D01*
X94876293Y-156301211D01*
X94851341Y-156239453D01*
X94846523Y-156230392D01*
X94698002Y-155955707D01*
X94660732Y-155900452D01*
X94624273Y-155844737D01*
X94617787Y-155836785D01*
X94418742Y-155596180D01*
X94371452Y-155549219D01*
X94324863Y-155501644D01*
X94316956Y-155495102D01*
X94074967Y-155297741D01*
X94019428Y-155260841D01*
X93964516Y-155223242D01*
X93955489Y-155218360D01*
X93679776Y-155071760D01*
X93618148Y-155046359D01*
X93556953Y-155020131D01*
X93547155Y-155017098D01*
X93547153Y-155017097D01*
X93547151Y-155017097D01*
X93547149Y-155017096D01*
X93248212Y-154926842D01*
X93182866Y-154913903D01*
X93117705Y-154900053D01*
X93107499Y-154898980D01*
X92796724Y-154868508D01*
X92796723Y-154868508D01*
X92761105Y-154865000D01*
X89488895Y-154865000D01*
X89451693Y-154868664D01*
X89430937Y-154868664D01*
X89420731Y-154869737D01*
X89110411Y-154904545D01*
X89045250Y-154918395D01*
X88979904Y-154931334D01*
X88970100Y-154934368D01*
X88672452Y-155028788D01*
X88611207Y-155055037D01*
X88549631Y-155080417D01*
X88540609Y-155085295D01*
X88540605Y-155085297D01*
X88540604Y-155085298D01*
X88266964Y-155235733D01*
X88211970Y-155273388D01*
X88156511Y-155310235D01*
X88148603Y-155316776D01*
X87909394Y-155517497D01*
X87862771Y-155565107D01*
X87815517Y-155612032D01*
X87809031Y-155619985D01*
X87613364Y-155863344D01*
X87576866Y-155919119D01*
X87539636Y-155974315D01*
X87534821Y-155983371D01*
X87534818Y-155983375D01*
X87534818Y-155983376D01*
X87390146Y-156260106D01*
X87365169Y-156321926D01*
X87339377Y-156383283D01*
X87336410Y-156393107D01*
X87248244Y-156692668D01*
X87235746Y-156758188D01*
X87222367Y-156823363D01*
X87221365Y-156833576D01*
X87193064Y-157144556D01*
X87193529Y-157211171D01*
X87193064Y-157277786D01*
X87194065Y-157287999D01*
X87226707Y-157598555D01*
X87240098Y-157663789D01*
X87252584Y-157729245D01*
X87255550Y-157739070D01*
X87347889Y-158037370D01*
X87373728Y-158098838D01*
X87398660Y-158160547D01*
X87403477Y-158169609D01*
X87551998Y-158444293D01*
X87589278Y-158499563D01*
X87625727Y-158555263D01*
X87632213Y-158563216D01*
X87831258Y-158803820D01*
X87878532Y-158850765D01*
X87925137Y-158898356D01*
X87933044Y-158904898D01*
X88175033Y-159102259D01*
X88230572Y-159139159D01*
X88285484Y-159176758D01*
X88294511Y-159181640D01*
X88570224Y-159328240D01*
X88631852Y-159353641D01*
X88693047Y-159379869D01*
X88702850Y-159382904D01*
X88974767Y-159465000D01*
X82759999Y-159465000D01*
X82759999Y-135483928D01*
X84932897Y-135483928D01*
X84932897Y-136416072D01*
X85114749Y-137330304D01*
X85471464Y-138191491D01*
X85989335Y-138966540D01*
X86648460Y-139625665D01*
X87423509Y-140143536D01*
X88284696Y-140500251D01*
X89198928Y-140682103D01*
X90131072Y-140682103D01*
X91045304Y-140500251D01*
X91906491Y-140143536D01*
X92681540Y-139625665D01*
X93340665Y-138966540D01*
X93858536Y-138191491D01*
X94215251Y-137330304D01*
X94397103Y-136416072D01*
X94397103Y-135483928D01*
X95932897Y-135483928D01*
X95932897Y-136416072D01*
X96114749Y-137330304D01*
X96471464Y-138191491D01*
X96989335Y-138966540D01*
X97648460Y-139625665D01*
X98423509Y-140143536D01*
X99284696Y-140500251D01*
X100198928Y-140682103D01*
X101131072Y-140682103D01*
X102045304Y-140500251D01*
X102906491Y-140143536D01*
X103681540Y-139625665D01*
X104340665Y-138966540D01*
X104858536Y-138191491D01*
X105215251Y-137330304D01*
X105397103Y-136416072D01*
X105397103Y-135483928D01*
X106932897Y-135483928D01*
X106932897Y-136416072D01*
X107114749Y-137330304D01*
X107471464Y-138191491D01*
X107989335Y-138966540D01*
X108648460Y-139625665D01*
X109423509Y-140143536D01*
X110284696Y-140500251D01*
X111198928Y-140682103D01*
X112131072Y-140682103D01*
X113045304Y-140500251D01*
X113906491Y-140143536D01*
X114681540Y-139625665D01*
X115340665Y-138966540D01*
X115858536Y-138191491D01*
X116215251Y-137330304D01*
X116397103Y-136416072D01*
X116397103Y-135483928D01*
X117932896Y-135483928D01*
X117932896Y-136416072D01*
X118114748Y-137330304D01*
X118471463Y-138191491D01*
X118989334Y-138966540D01*
X119648459Y-139625665D01*
X120423508Y-140143536D01*
X121284695Y-140500251D01*
X122198927Y-140682103D01*
X123131071Y-140682103D01*
X124045303Y-140500251D01*
X124906490Y-140143536D01*
X125681539Y-139625665D01*
X126340664Y-138966540D01*
X126858535Y-138191491D01*
X127215250Y-137330304D01*
X127397102Y-136416072D01*
X127397102Y-135483928D01*
X128932896Y-135483928D01*
X128932896Y-136416072D01*
X129114748Y-137330304D01*
X129471463Y-138191491D01*
X129989334Y-138966540D01*
X130648459Y-139625665D01*
X131423508Y-140143536D01*
X132284695Y-140500251D01*
X133198927Y-140682103D01*
X134131071Y-140682103D01*
X135045303Y-140500251D01*
X135906490Y-140143536D01*
X136681539Y-139625665D01*
X137340664Y-138966540D01*
X137858535Y-138191491D01*
X138215250Y-137330304D01*
X138397102Y-136416072D01*
X138397102Y-135483928D01*
X145932896Y-135483928D01*
X145932896Y-136416072D01*
X146114748Y-137330304D01*
X146471463Y-138191491D01*
X146989334Y-138966540D01*
X147648459Y-139625665D01*
X148423508Y-140143536D01*
X149284695Y-140500251D01*
X150198927Y-140682103D01*
X151131071Y-140682103D01*
X152045303Y-140500251D01*
X152906490Y-140143536D01*
X153681539Y-139625665D01*
X154340664Y-138966540D01*
X154858535Y-138191491D01*
X155215250Y-137330304D01*
X155397102Y-136416072D01*
X155397102Y-135483928D01*
X155215250Y-134569696D01*
X154858535Y-133708509D01*
X154340664Y-132933460D01*
X153681539Y-132274335D01*
X152906490Y-131756464D01*
X152045303Y-131399749D01*
X151131071Y-131217897D01*
X150198927Y-131217897D01*
X149284695Y-131399749D01*
X148423508Y-131756464D01*
X147648459Y-132274335D01*
X146989334Y-132933460D01*
X146471463Y-133708509D01*
X146114748Y-134569696D01*
X145932896Y-135483928D01*
X138397102Y-135483928D01*
X138215250Y-134569696D01*
X137858535Y-133708509D01*
X137340664Y-132933460D01*
X136681539Y-132274335D01*
X135906490Y-131756464D01*
X135045303Y-131399749D01*
X134131071Y-131217897D01*
X133198927Y-131217897D01*
X132284695Y-131399749D01*
X131423508Y-131756464D01*
X130648459Y-132274335D01*
X129989334Y-132933460D01*
X129471463Y-133708509D01*
X129114748Y-134569696D01*
X128932896Y-135483928D01*
X127397102Y-135483928D01*
X127215250Y-134569696D01*
X126858535Y-133708509D01*
X126340664Y-132933460D01*
X125681539Y-132274335D01*
X124906490Y-131756464D01*
X124045303Y-131399749D01*
X123131071Y-131217897D01*
X122198927Y-131217897D01*
X121284695Y-131399749D01*
X120423508Y-131756464D01*
X119648459Y-132274335D01*
X118989334Y-132933460D01*
X118471463Y-133708509D01*
X118114748Y-134569696D01*
X117932896Y-135483928D01*
X116397103Y-135483928D01*
X116215251Y-134569696D01*
X115858536Y-133708509D01*
X115340665Y-132933460D01*
X114681540Y-132274335D01*
X113906491Y-131756464D01*
X113045304Y-131399749D01*
X112131072Y-131217897D01*
X111198928Y-131217897D01*
X110284696Y-131399749D01*
X109423509Y-131756464D01*
X108648460Y-132274335D01*
X107989335Y-132933460D01*
X107471464Y-133708509D01*
X107114749Y-134569696D01*
X106932897Y-135483928D01*
X105397103Y-135483928D01*
X105215251Y-134569696D01*
X104858536Y-133708509D01*
X104340665Y-132933460D01*
X103681540Y-132274335D01*
X102906491Y-131756464D01*
X102045304Y-131399749D01*
X101131072Y-131217897D01*
X100198928Y-131217897D01*
X99284696Y-131399749D01*
X98423509Y-131756464D01*
X97648460Y-132274335D01*
X96989335Y-132933460D01*
X96471464Y-133708509D01*
X96114749Y-134569696D01*
X95932897Y-135483928D01*
X94397103Y-135483928D01*
X94215251Y-134569696D01*
X93858536Y-133708509D01*
X93340665Y-132933460D01*
X92681540Y-132274335D01*
X91906491Y-131756464D01*
X91045304Y-131399749D01*
X90131072Y-131217897D01*
X89198928Y-131217897D01*
X88284696Y-131399749D01*
X87423509Y-131756464D01*
X86648460Y-132274335D01*
X85989335Y-132933460D01*
X85471464Y-133708509D01*
X85114749Y-134569696D01*
X84932897Y-135483928D01*
X82759999Y-135483928D01*
X82759999Y-119483928D01*
X84932897Y-119483928D01*
X84932897Y-120416072D01*
X85114749Y-121330304D01*
X85471464Y-122191491D01*
X85989335Y-122966540D01*
X86648460Y-123625665D01*
X87423509Y-124143536D01*
X88284696Y-124500251D01*
X89198928Y-124682103D01*
X90131072Y-124682103D01*
X91045304Y-124500251D01*
X91906491Y-124143536D01*
X92681540Y-123625665D01*
X93340665Y-122966540D01*
X93858536Y-122191491D01*
X94215251Y-121330304D01*
X94397103Y-120416072D01*
X94397103Y-119483928D01*
X95932897Y-119483928D01*
X95932897Y-120416072D01*
X96114749Y-121330304D01*
X96471464Y-122191491D01*
X96989335Y-122966540D01*
X97648460Y-123625665D01*
X98423509Y-124143536D01*
X99284696Y-124500251D01*
X100198928Y-124682103D01*
X101131072Y-124682103D01*
X102045304Y-124500251D01*
X102906491Y-124143536D01*
X103681540Y-123625665D01*
X104340665Y-122966540D01*
X104858536Y-122191491D01*
X105215251Y-121330304D01*
X105397103Y-120416072D01*
X105397103Y-119483928D01*
X106932897Y-119483928D01*
X106932897Y-120416072D01*
X107114749Y-121330304D01*
X107471464Y-122191491D01*
X107989335Y-122966540D01*
X108648460Y-123625665D01*
X109423509Y-124143536D01*
X110284696Y-124500251D01*
X111198928Y-124682103D01*
X112131072Y-124682103D01*
X113045304Y-124500251D01*
X113906491Y-124143536D01*
X114681540Y-123625665D01*
X115340665Y-122966540D01*
X115858536Y-122191491D01*
X116215251Y-121330304D01*
X116397103Y-120416072D01*
X116397103Y-119483928D01*
X117932896Y-119483928D01*
X117932896Y-120416072D01*
X118114748Y-121330304D01*
X118471463Y-122191491D01*
X118989334Y-122966540D01*
X119648459Y-123625665D01*
X120423508Y-124143536D01*
X121284695Y-124500251D01*
X122198927Y-124682103D01*
X123131071Y-124682103D01*
X124045303Y-124500251D01*
X124906490Y-124143536D01*
X125681539Y-123625665D01*
X126340664Y-122966540D01*
X126858535Y-122191491D01*
X127215250Y-121330304D01*
X127397102Y-120416072D01*
X127397102Y-119483928D01*
X128932896Y-119483928D01*
X128932896Y-120416072D01*
X129114748Y-121330304D01*
X129471463Y-122191491D01*
X129989334Y-122966540D01*
X130648459Y-123625665D01*
X131423508Y-124143536D01*
X132284695Y-124500251D01*
X133198927Y-124682103D01*
X134131071Y-124682103D01*
X135045303Y-124500251D01*
X135906490Y-124143536D01*
X136681539Y-123625665D01*
X137340664Y-122966540D01*
X137858535Y-122191491D01*
X138215250Y-121330304D01*
X138397102Y-120416072D01*
X138397102Y-119483928D01*
X145932896Y-119483928D01*
X145932896Y-120416072D01*
X146114748Y-121330304D01*
X146471463Y-122191491D01*
X146989334Y-122966540D01*
X147648459Y-123625665D01*
X148423508Y-124143536D01*
X149284695Y-124500251D01*
X150198927Y-124682103D01*
X151131071Y-124682103D01*
X152045303Y-124500251D01*
X152906490Y-124143536D01*
X153681539Y-123625665D01*
X154340664Y-122966540D01*
X154858535Y-122191491D01*
X155215250Y-121330304D01*
X155397102Y-120416072D01*
X155397102Y-119483928D01*
X155215250Y-118569696D01*
X154858535Y-117708509D01*
X154340664Y-116933460D01*
X153681539Y-116274335D01*
X152906490Y-115756464D01*
X152045303Y-115399749D01*
X151131071Y-115217897D01*
X150198927Y-115217897D01*
X149284695Y-115399749D01*
X148423508Y-115756464D01*
X147648459Y-116274335D01*
X146989334Y-116933460D01*
X146471463Y-117708509D01*
X146114748Y-118569696D01*
X145932896Y-119483928D01*
X138397102Y-119483928D01*
X138215250Y-118569696D01*
X137858535Y-117708509D01*
X137340664Y-116933460D01*
X136681539Y-116274335D01*
X135906490Y-115756464D01*
X135045303Y-115399749D01*
X134131071Y-115217897D01*
X133198927Y-115217897D01*
X132284695Y-115399749D01*
X131423508Y-115756464D01*
X130648459Y-116274335D01*
X129989334Y-116933460D01*
X129471463Y-117708509D01*
X129114748Y-118569696D01*
X128932896Y-119483928D01*
X127397102Y-119483928D01*
X127215250Y-118569696D01*
X126858535Y-117708509D01*
X126340664Y-116933460D01*
X125681539Y-116274335D01*
X124906490Y-115756464D01*
X124045303Y-115399749D01*
X123131071Y-115217897D01*
X122198927Y-115217897D01*
X121284695Y-115399749D01*
X120423508Y-115756464D01*
X119648459Y-116274335D01*
X118989334Y-116933460D01*
X118471463Y-117708509D01*
X118114748Y-118569696D01*
X117932896Y-119483928D01*
X116397103Y-119483928D01*
X116215251Y-118569696D01*
X115858536Y-117708509D01*
X115340665Y-116933460D01*
X114681540Y-116274335D01*
X113906491Y-115756464D01*
X113045304Y-115399749D01*
X112131072Y-115217897D01*
X111198928Y-115217897D01*
X110284696Y-115399749D01*
X109423509Y-115756464D01*
X108648460Y-116274335D01*
X107989335Y-116933460D01*
X107471464Y-117708509D01*
X107114749Y-118569696D01*
X106932897Y-119483928D01*
X105397103Y-119483928D01*
X105215251Y-118569696D01*
X104858536Y-117708509D01*
X104340665Y-116933460D01*
X103681540Y-116274335D01*
X102906491Y-115756464D01*
X102045304Y-115399749D01*
X101131072Y-115217897D01*
X100198928Y-115217897D01*
X99284696Y-115399749D01*
X98423509Y-115756464D01*
X97648460Y-116274335D01*
X96989335Y-116933460D01*
X96471464Y-117708509D01*
X96114749Y-118569696D01*
X95932897Y-119483928D01*
X94397103Y-119483928D01*
X94215251Y-118569696D01*
X93858536Y-117708509D01*
X93340665Y-116933460D01*
X92681540Y-116274335D01*
X91906491Y-115756464D01*
X91045304Y-115399749D01*
X90131072Y-115217897D01*
X89198928Y-115217897D01*
X88284696Y-115399749D01*
X87423509Y-115756464D01*
X86648460Y-116274335D01*
X85989335Y-116933460D01*
X85471464Y-117708509D01*
X85114749Y-118569696D01*
X84932897Y-119483928D01*
X82759999Y-119483928D01*
X82759999Y-103483928D01*
X88932896Y-103483928D01*
X88932896Y-104416072D01*
X89114748Y-105330304D01*
X89471463Y-106191491D01*
X89989334Y-106966540D01*
X90648459Y-107625665D01*
X91423508Y-108143536D01*
X92284695Y-108500251D01*
X93198927Y-108682103D01*
X94131071Y-108682103D01*
X95045303Y-108500251D01*
X95906490Y-108143536D01*
X96681539Y-107625665D01*
X97340664Y-106966540D01*
X97858535Y-106191491D01*
X98215250Y-105330304D01*
X98397102Y-104416072D01*
X98397102Y-103483928D01*
X106932896Y-103483928D01*
X106932896Y-104416072D01*
X107114748Y-105330304D01*
X107471463Y-106191491D01*
X107989334Y-106966540D01*
X108648459Y-107625665D01*
X109423508Y-108143536D01*
X110284695Y-108500251D01*
X111198927Y-108682103D01*
X112131071Y-108682103D01*
X113045303Y-108500251D01*
X113906490Y-108143536D01*
X114681539Y-107625665D01*
X115340664Y-106966540D01*
X115858535Y-106191491D01*
X116215250Y-105330304D01*
X116397102Y-104416072D01*
X116397102Y-103483928D01*
X128932896Y-103483928D01*
X128932896Y-104416072D01*
X129114748Y-105330304D01*
X129471463Y-106191491D01*
X129989334Y-106966540D01*
X130648459Y-107625665D01*
X131423508Y-108143536D01*
X132284695Y-108500251D01*
X133198927Y-108682103D01*
X134131071Y-108682103D01*
X135045303Y-108500251D01*
X135906490Y-108143536D01*
X136681539Y-107625665D01*
X137340664Y-106966540D01*
X137858535Y-106191491D01*
X138215250Y-105330304D01*
X138397102Y-104416072D01*
X138397102Y-103483928D01*
X138215250Y-102569696D01*
X137858535Y-101708509D01*
X137340664Y-100933460D01*
X136681539Y-100274335D01*
X135906490Y-99756464D01*
X135045303Y-99399749D01*
X134131071Y-99217897D01*
X133198927Y-99217897D01*
X132284695Y-99399749D01*
X131423508Y-99756464D01*
X130648459Y-100274335D01*
X129989334Y-100933460D01*
X129471463Y-101708509D01*
X129114748Y-102569696D01*
X128932896Y-103483928D01*
X116397102Y-103483928D01*
X116215250Y-102569696D01*
X115858535Y-101708509D01*
X115340664Y-100933460D01*
X114681539Y-100274335D01*
X113906490Y-99756464D01*
X113045303Y-99399749D01*
X112131071Y-99217897D01*
X111198927Y-99217897D01*
X110284695Y-99399749D01*
X109423508Y-99756464D01*
X108648459Y-100274335D01*
X107989334Y-100933460D01*
X107471463Y-101708509D01*
X107114748Y-102569696D01*
X106932896Y-103483928D01*
X98397102Y-103483928D01*
X98215250Y-102569696D01*
X97858535Y-101708509D01*
X97340664Y-100933460D01*
X96681539Y-100274335D01*
X95906490Y-99756464D01*
X95045303Y-99399749D01*
X94131071Y-99217897D01*
X93198927Y-99217897D01*
X92284695Y-99399749D01*
X91423508Y-99756464D01*
X90648459Y-100274335D01*
X89989334Y-100933460D01*
X89471463Y-101708509D01*
X89114748Y-102569696D01*
X88932896Y-103483928D01*
X82759999Y-103483928D01*
X82759999Y-95826988D01*
X121416042Y-95826988D01*
X121416042Y-96073012D01*
X121464039Y-96314307D01*
X121558188Y-96541603D01*
X121694871Y-96746164D01*
X121868835Y-96920128D01*
X122073396Y-97056811D01*
X122300692Y-97150960D01*
X122541987Y-97198957D01*
X122788011Y-97198957D01*
X123029306Y-97150960D01*
X123256602Y-97056811D01*
X123461163Y-96920128D01*
X123635127Y-96746164D01*
X123771810Y-96541603D01*
X123865959Y-96314307D01*
X123913956Y-96073012D01*
X123913956Y-95826988D01*
X123865959Y-95585693D01*
X123771810Y-95358397D01*
X123635127Y-95153836D01*
X123461163Y-94979872D01*
X123256602Y-94843189D01*
X123029306Y-94749040D01*
X122788011Y-94701043D01*
X122541987Y-94701043D01*
X122300692Y-94749040D01*
X122073396Y-94843189D01*
X121868835Y-94979872D01*
X121694871Y-95153836D01*
X121558188Y-95358397D01*
X121464039Y-95585693D01*
X121416042Y-95826988D01*
X82759999Y-95826988D01*
X82759999Y-86483928D01*
X128932896Y-86483928D01*
X128932896Y-87416072D01*
X129114748Y-88330304D01*
X129471463Y-89191491D01*
X129989334Y-89966540D01*
X130648459Y-90625665D01*
X131423508Y-91143536D01*
X132284695Y-91500251D01*
X133198927Y-91682103D01*
X134131071Y-91682103D01*
X135045303Y-91500251D01*
X135906490Y-91143536D01*
X136681539Y-90625665D01*
X137340664Y-89966540D01*
X137858535Y-89191491D01*
X138215250Y-88330304D01*
X138397102Y-87416072D01*
X138397102Y-86483928D01*
X144932896Y-86483928D01*
X144932896Y-87416072D01*
X145114748Y-88330304D01*
X145471463Y-89191491D01*
X145989334Y-89966540D01*
X146648459Y-90625665D01*
X147423508Y-91143536D01*
X148284695Y-91500251D01*
X149198927Y-91682103D01*
X150131071Y-91682103D01*
X151045303Y-91500251D01*
X151906490Y-91143536D01*
X152681539Y-90625665D01*
X153340664Y-89966540D01*
X153858535Y-89191491D01*
X154215250Y-88330304D01*
X154397102Y-87416072D01*
X154397102Y-86483928D01*
X154215250Y-85569696D01*
X153858535Y-84708509D01*
X153340664Y-83933460D01*
X152681539Y-83274335D01*
X151906490Y-82756464D01*
X151045303Y-82399749D01*
X150131071Y-82217897D01*
X149198927Y-82217897D01*
X148284695Y-82399749D01*
X147423508Y-82756464D01*
X146648459Y-83274335D01*
X145989334Y-83933460D01*
X145471463Y-84708509D01*
X145114748Y-85569696D01*
X144932896Y-86483928D01*
X138397102Y-86483928D01*
X138215250Y-85569696D01*
X137858535Y-84708509D01*
X137340664Y-83933460D01*
X136681539Y-83274335D01*
X135906490Y-82756464D01*
X135045303Y-82399749D01*
X134131071Y-82217897D01*
X133198927Y-82217897D01*
X132284695Y-82399749D01*
X131423508Y-82756464D01*
X130648459Y-83274335D01*
X129989334Y-83933460D01*
X129471463Y-84708509D01*
X129114748Y-85569696D01*
X128932896Y-86483928D01*
X82759999Y-86483928D01*
X82759999Y-80483928D01*
X88932896Y-80483928D01*
X88932896Y-81416072D01*
X89114748Y-82330304D01*
X89471463Y-83191491D01*
X89989334Y-83966540D01*
X90648459Y-84625665D01*
X91423508Y-85143536D01*
X92284695Y-85500251D01*
X93198927Y-85682103D01*
X94131071Y-85682103D01*
X95045303Y-85500251D01*
X95906490Y-85143536D01*
X96681539Y-84625665D01*
X97340664Y-83966540D01*
X97858535Y-83191491D01*
X98215250Y-82330304D01*
X98397102Y-81416072D01*
X98397102Y-80483928D01*
X98215250Y-79569696D01*
X97858535Y-78708509D01*
X97340664Y-77933460D01*
X96681539Y-77274335D01*
X95906490Y-76756464D01*
X95045303Y-76399749D01*
X94131071Y-76217897D01*
X93198927Y-76217897D01*
X92284695Y-76399749D01*
X91423508Y-76756464D01*
X90648459Y-77274335D01*
X89989334Y-77933460D01*
X89471463Y-78708509D01*
X89114748Y-79569696D01*
X88932896Y-80483928D01*
X82759999Y-80483928D01*
X82759999Y-70483928D01*
X128932896Y-70483928D01*
X128932896Y-71416072D01*
X129114748Y-72330304D01*
X129471463Y-73191491D01*
X129989334Y-73966540D01*
X130648459Y-74625665D01*
X131423508Y-75143536D01*
X132284695Y-75500251D01*
X133198927Y-75682103D01*
X134131071Y-75682103D01*
X135045303Y-75500251D01*
X135906490Y-75143536D01*
X136681539Y-74625665D01*
X137340664Y-73966540D01*
X137858535Y-73191491D01*
X138215250Y-72330304D01*
X138397102Y-71416072D01*
X138397102Y-70483928D01*
X144932896Y-70483928D01*
X144932896Y-71416072D01*
X145114748Y-72330304D01*
X145471463Y-73191491D01*
X145989334Y-73966540D01*
X146648459Y-74625665D01*
X147423508Y-75143536D01*
X148284695Y-75500251D01*
X149198927Y-75682103D01*
X150131071Y-75682103D01*
X151045303Y-75500251D01*
X151906490Y-75143536D01*
X152681539Y-74625665D01*
X153340664Y-73966540D01*
X153858535Y-73191491D01*
X154215250Y-72330304D01*
X154397102Y-71416072D01*
X154397102Y-70483928D01*
X154215250Y-69569696D01*
X153858535Y-68708509D01*
X153340664Y-67933460D01*
X152681539Y-67274335D01*
X151906490Y-66756464D01*
X151045303Y-66399749D01*
X150131071Y-66217897D01*
X149198927Y-66217897D01*
X148284695Y-66399749D01*
X147423508Y-66756464D01*
X146648459Y-67274335D01*
X145989334Y-67933460D01*
X145471463Y-68708509D01*
X145114748Y-69569696D01*
X144932896Y-70483928D01*
X138397102Y-70483928D01*
X138215250Y-69569696D01*
X137858535Y-68708509D01*
X137340664Y-67933460D01*
X136681539Y-67274335D01*
X135906490Y-66756464D01*
X135045303Y-66399749D01*
X134131071Y-66217897D01*
X133198927Y-66217897D01*
X132284695Y-66399749D01*
X131423508Y-66756464D01*
X130648459Y-67274335D01*
X129989334Y-67933460D01*
X129471463Y-68708509D01*
X129114748Y-69569696D01*
X128932896Y-70483928D01*
X82759999Y-70483928D01*
X82759999Y-55483928D01*
X102932896Y-55483928D01*
X102932896Y-56416072D01*
X103114748Y-57330304D01*
X103471463Y-58191491D01*
X103989334Y-58966540D01*
X104648459Y-59625665D01*
X105423508Y-60143536D01*
X106284695Y-60500251D01*
X107198927Y-60682103D01*
X108131071Y-60682103D01*
X109045303Y-60500251D01*
X109906490Y-60143536D01*
X110681539Y-59625665D01*
X111340664Y-58966540D01*
X111858535Y-58191491D01*
X112215250Y-57330304D01*
X112397102Y-56416072D01*
X112397102Y-55483928D01*
X136932896Y-55483928D01*
X136932896Y-56416072D01*
X137114748Y-57330304D01*
X137471463Y-58191491D01*
X137989334Y-58966540D01*
X138648459Y-59625665D01*
X139423508Y-60143536D01*
X140284695Y-60500251D01*
X141198927Y-60682103D01*
X142131071Y-60682103D01*
X143045303Y-60500251D01*
X143906490Y-60143536D01*
X144681539Y-59625665D01*
X145340664Y-58966540D01*
X145858535Y-58191491D01*
X146215250Y-57330304D01*
X146397102Y-56416072D01*
X146397102Y-55483928D01*
X146215250Y-54569696D01*
X145858535Y-53708509D01*
X145340664Y-52933460D01*
X144681539Y-52274335D01*
X143906490Y-51756464D01*
X143045303Y-51399749D01*
X142131071Y-51217897D01*
X141198927Y-51217897D01*
X140284695Y-51399749D01*
X139423508Y-51756464D01*
X138648459Y-52274335D01*
X137989334Y-52933460D01*
X137471463Y-53708509D01*
X137114748Y-54569696D01*
X136932896Y-55483928D01*
X112397102Y-55483928D01*
X112215250Y-54569696D01*
X111858535Y-53708509D01*
X111340664Y-52933460D01*
X110681539Y-52274335D01*
X109906490Y-51756464D01*
X109045303Y-51399749D01*
X108131071Y-51217897D01*
X107198927Y-51217897D01*
X106284695Y-51399749D01*
X105423508Y-51756464D01*
X104648459Y-52274335D01*
X103989334Y-52933460D01*
X103471463Y-53708509D01*
X103114748Y-54569696D01*
X102932896Y-55483928D01*
X82759999Y-55483928D01*
X82759999Y-32435000D01*
X88968108Y-32435000D01*
X88672452Y-32528788D01*
%TA.AperFunction,NonConductor*%
D11*
G36*
X88672452Y-32528788D02*
G01*
X88611207Y-32555037D01*
X88549631Y-32580417D01*
X88540609Y-32585295D01*
X88540605Y-32585297D01*
X88540604Y-32585298D01*
X88266964Y-32735733D01*
X88211970Y-32773388D01*
X88156511Y-32810235D01*
X88148603Y-32816776D01*
X87909394Y-33017497D01*
X87862771Y-33065107D01*
X87815517Y-33112032D01*
X87809031Y-33119985D01*
X87613364Y-33363344D01*
X87576866Y-33419119D01*
X87539636Y-33474315D01*
X87534821Y-33483371D01*
X87534818Y-33483375D01*
X87534818Y-33483376D01*
X87390146Y-33760106D01*
X87365169Y-33821926D01*
X87339377Y-33883283D01*
X87336410Y-33893107D01*
X87248244Y-34192668D01*
X87235746Y-34258188D01*
X87222367Y-34323363D01*
X87221365Y-34333576D01*
X87193064Y-34644556D01*
X87193529Y-34711171D01*
X87193064Y-34777786D01*
X87194065Y-34787999D01*
X87226707Y-35098555D01*
X87240098Y-35163789D01*
X87252584Y-35229245D01*
X87255550Y-35239070D01*
X87347889Y-35537370D01*
X87373728Y-35598838D01*
X87398660Y-35660547D01*
X87403477Y-35669609D01*
X87551998Y-35944293D01*
X87589278Y-35999563D01*
X87625727Y-36055263D01*
X87632213Y-36063216D01*
X87831258Y-36303820D01*
X87878532Y-36350765D01*
X87925137Y-36398356D01*
X87933044Y-36404898D01*
X88175033Y-36602259D01*
X88230572Y-36639159D01*
X88285484Y-36676758D01*
X88294511Y-36681640D01*
X88570224Y-36828240D01*
X88631852Y-36853641D01*
X88693047Y-36879869D01*
X88702850Y-36882904D01*
X89001788Y-36973158D01*
X89067172Y-36986104D01*
X89132295Y-36999947D01*
X89142501Y-37001020D01*
X89453276Y-37031492D01*
X89453277Y-37031492D01*
X89488895Y-37035000D01*
X92761105Y-37035000D01*
X92798307Y-37031336D01*
X92819063Y-37031336D01*
X92829269Y-37030263D01*
X93139589Y-36995455D01*
X93204750Y-36981605D01*
X93270096Y-36968666D01*
X93279898Y-36965632D01*
X93279904Y-36965630D01*
X93577548Y-36871212D01*
X93638805Y-36844958D01*
X93700369Y-36819583D01*
X93709391Y-36814705D01*
X93709395Y-36814703D01*
X93709398Y-36814701D01*
X93983036Y-36664267D01*
X94038020Y-36626619D01*
X94093490Y-36589765D01*
X94101397Y-36583224D01*
X94340606Y-36382503D01*
X94387265Y-36334857D01*
X94434482Y-36287968D01*
X94440969Y-36280016D01*
X94636636Y-36036656D01*
X94673144Y-35980865D01*
X94710364Y-35925685D01*
X94715183Y-35916624D01*
X94859854Y-35639893D01*
X94884825Y-35578088D01*
X94910623Y-35516717D01*
X94913590Y-35506893D01*
X95001756Y-35207332D01*
X95014254Y-35141812D01*
X95027633Y-35076637D01*
X95028635Y-35066424D01*
X95056936Y-34755444D01*
X95056471Y-34688829D01*
X95056936Y-34622214D01*
X95055935Y-34612001D01*
X95023294Y-34301446D01*
X95009897Y-34236181D01*
X94997416Y-34170755D01*
X94994450Y-34160930D01*
X94902111Y-33862630D01*
X94876293Y-33801211D01*
X94851341Y-33739453D01*
X94846523Y-33730392D01*
X94698002Y-33455707D01*
X94660732Y-33400452D01*
X94624273Y-33344737D01*
X94617787Y-33336785D01*
X94418742Y-33096180D01*
X94371452Y-33049219D01*
X94324863Y-33001644D01*
X94316956Y-32995102D01*
X94074967Y-32797741D01*
X94019428Y-32760841D01*
X93964516Y-32723242D01*
X93955489Y-32718360D01*
X93679776Y-32571760D01*
X93618148Y-32546359D01*
X93556953Y-32520131D01*
X93547155Y-32517098D01*
X93547153Y-32517097D01*
X93547151Y-32517097D01*
X93547149Y-32517096D01*
X93275233Y-32435000D01*
X147268107Y-32435000D01*
X146972451Y-32528788D01*
X146911206Y-32555037D01*
X146849630Y-32580417D01*
X146840608Y-32585295D01*
X146840604Y-32585297D01*
X146840603Y-32585298D01*
X146566963Y-32735733D01*
X146511969Y-32773388D01*
X146456510Y-32810235D01*
X146448602Y-32816776D01*
X146209393Y-33017497D01*
X146162770Y-33065107D01*
X146115516Y-33112032D01*
X146109030Y-33119985D01*
X145913363Y-33363344D01*
X145876865Y-33419119D01*
X145839635Y-33474315D01*
X145834820Y-33483371D01*
X145834817Y-33483375D01*
X145834817Y-33483376D01*
X145690145Y-33760106D01*
X145665168Y-33821926D01*
X145639376Y-33883283D01*
X145636409Y-33893107D01*
X145548243Y-34192668D01*
X145535745Y-34258188D01*
X145522366Y-34323363D01*
X145521364Y-34333576D01*
X145493063Y-34644556D01*
X145493528Y-34711171D01*
X145493063Y-34777786D01*
X145494064Y-34787999D01*
X145526706Y-35098555D01*
X145540097Y-35163789D01*
X145552583Y-35229245D01*
X145555549Y-35239070D01*
X145647888Y-35537370D01*
X145673727Y-35598838D01*
X145698659Y-35660547D01*
X145703476Y-35669609D01*
X145851997Y-35944293D01*
X145889277Y-35999563D01*
X145925726Y-36055263D01*
X145932212Y-36063216D01*
X146131257Y-36303820D01*
X146178531Y-36350765D01*
X146225136Y-36398356D01*
X146233043Y-36404898D01*
X146475032Y-36602259D01*
X146530571Y-36639159D01*
X146585483Y-36676758D01*
X146594510Y-36681640D01*
X146870223Y-36828240D01*
X146931851Y-36853641D01*
X146993046Y-36879869D01*
X147002849Y-36882904D01*
X147301787Y-36973158D01*
X147367171Y-36986104D01*
X147432294Y-36999947D01*
X147442500Y-37001020D01*
X147753275Y-37031492D01*
X147753276Y-37031492D01*
X147788894Y-37035000D01*
X151061104Y-37035000D01*
X151098306Y-37031336D01*
X151119062Y-37031336D01*
X151129268Y-37030263D01*
X151439588Y-36995455D01*
X151504749Y-36981605D01*
X151570095Y-36968666D01*
X151579897Y-36965632D01*
X151579903Y-36965630D01*
X151877547Y-36871212D01*
X151938804Y-36844958D01*
X152000368Y-36819583D01*
X152009390Y-36814705D01*
X152009394Y-36814703D01*
X152009397Y-36814701D01*
X152283035Y-36664267D01*
X152338019Y-36626619D01*
X152393489Y-36589765D01*
X152401396Y-36583224D01*
X152640605Y-36382503D01*
X152687264Y-36334857D01*
X152734481Y-36287968D01*
X152740968Y-36280016D01*
X152936635Y-36036656D01*
X152973143Y-35980865D01*
X153010363Y-35925685D01*
X153015182Y-35916624D01*
X153159853Y-35639893D01*
X153184824Y-35578088D01*
X153210622Y-35516717D01*
X153213589Y-35506893D01*
X153301755Y-35207332D01*
X153314253Y-35141812D01*
X153327632Y-35076637D01*
X153328634Y-35066424D01*
X153356935Y-34755444D01*
X153356470Y-34688829D01*
X153356935Y-34622214D01*
X153355934Y-34612001D01*
X153323293Y-34301446D01*
X153309896Y-34236181D01*
X153297415Y-34170755D01*
X153294449Y-34160930D01*
X153202110Y-33862630D01*
X153176292Y-33801211D01*
X153151340Y-33739453D01*
X153146522Y-33730392D01*
X152998001Y-33455707D01*
X152960731Y-33400452D01*
X152924272Y-33344737D01*
X152917786Y-33336785D01*
X152718741Y-33096180D01*
X152671451Y-33049219D01*
X152624862Y-33001644D01*
X152616955Y-32995102D01*
X152374966Y-32797741D01*
X152319427Y-32760841D01*
X152264515Y-32723242D01*
X152255488Y-32718360D01*
X151979775Y-32571760D01*
X151918147Y-32546359D01*
X151856952Y-32520131D01*
X151847154Y-32517098D01*
X151847152Y-32517097D01*
X151847150Y-32517097D01*
X151847148Y-32517096D01*
X151575232Y-32435000D01*
X162570000Y-32435000D01*
X162569999Y-159465000D01*
X151581888Y-159465000D01*
X151877547Y-159371212D01*
X151938804Y-159344958D01*
X152000368Y-159319583D01*
X152009390Y-159314705D01*
X152009394Y-159314703D01*
X152009397Y-159314701D01*
X152283035Y-159164267D01*
X152338019Y-159126619D01*
X152393489Y-159089765D01*
X152401396Y-159083224D01*
X152640605Y-158882503D01*
X152687264Y-158834857D01*
X152734481Y-158787968D01*
X152740968Y-158780016D01*
X152936635Y-158536656D01*
X152973143Y-158480865D01*
X153010363Y-158425685D01*
X153015182Y-158416624D01*
X153159853Y-158139893D01*
X153184824Y-158078088D01*
X153210622Y-158016717D01*
X153213589Y-158006893D01*
X153301755Y-157707332D01*
X153314253Y-157641812D01*
X153327632Y-157576637D01*
X153328634Y-157566424D01*
X153356935Y-157255444D01*
X153356470Y-157188829D01*
X153356935Y-157122214D01*
X153355934Y-157112001D01*
X153323293Y-156801446D01*
X153309896Y-156736181D01*
X153297415Y-156670755D01*
X153294449Y-156660930D01*
X153202110Y-156362630D01*
X153176292Y-156301211D01*
X153151340Y-156239453D01*
X153146522Y-156230392D01*
X152998001Y-155955707D01*
X152960731Y-155900452D01*
X152924272Y-155844737D01*
X152917786Y-155836785D01*
X152718741Y-155596180D01*
X152671451Y-155549219D01*
X152624862Y-155501644D01*
X152616955Y-155495102D01*
X152374966Y-155297741D01*
X152319427Y-155260841D01*
X152264515Y-155223242D01*
X152255488Y-155218360D01*
X151979775Y-155071760D01*
X151918147Y-155046359D01*
X151856952Y-155020131D01*
X151847154Y-155017098D01*
X151847152Y-155017097D01*
X151847150Y-155017097D01*
X151847148Y-155017096D01*
X151548211Y-154926842D01*
X151482865Y-154913903D01*
X151417704Y-154900053D01*
X151407498Y-154898980D01*
X151096723Y-154868508D01*
X151096722Y-154868508D01*
X151061104Y-154865000D01*
X147788894Y-154865000D01*
X147751692Y-154868664D01*
X147730936Y-154868664D01*
X147720730Y-154869737D01*
X147410410Y-154904545D01*
X147345249Y-154918395D01*
X147279903Y-154931334D01*
X147270099Y-154934368D01*
X146972451Y-155028788D01*
X146911206Y-155055037D01*
X146849630Y-155080417D01*
X146840608Y-155085295D01*
X146840604Y-155085297D01*
X146840603Y-155085298D01*
X146566963Y-155235733D01*
X146511969Y-155273388D01*
X146456510Y-155310235D01*
X146448602Y-155316776D01*
X146209393Y-155517497D01*
X146162770Y-155565107D01*
X146115516Y-155612032D01*
X146109030Y-155619985D01*
X145913363Y-155863344D01*
X145876865Y-155919119D01*
X145839635Y-155974315D01*
X145834820Y-155983371D01*
X145834817Y-155983375D01*
X145834817Y-155983376D01*
X145690145Y-156260106D01*
X145665168Y-156321926D01*
X145639376Y-156383283D01*
X145636409Y-156393107D01*
X145548243Y-156692668D01*
X145535745Y-156758188D01*
X145522366Y-156823363D01*
X145521364Y-156833576D01*
X145493063Y-157144556D01*
X145493528Y-157211171D01*
X145493063Y-157277786D01*
X145494064Y-157287999D01*
X145526706Y-157598555D01*
X145540097Y-157663789D01*
X145552583Y-157729245D01*
X145555549Y-157739070D01*
X145647888Y-158037370D01*
X145673727Y-158098838D01*
X145698659Y-158160547D01*
X145703476Y-158169609D01*
X145851997Y-158444293D01*
X145889277Y-158499563D01*
X145925726Y-158555263D01*
X145932212Y-158563216D01*
X146131257Y-158803820D01*
X146178531Y-158850765D01*
X146225136Y-158898356D01*
X146233043Y-158904898D01*
X146475032Y-159102259D01*
X146530571Y-159139159D01*
X146585483Y-159176758D01*
X146594510Y-159181640D01*
X146870223Y-159328240D01*
X146931851Y-159353641D01*
X146993046Y-159379869D01*
X147002849Y-159382904D01*
X147274766Y-159465000D01*
X93281889Y-159465000D01*
X93577548Y-159371212D01*
X93638805Y-159344958D01*
X93700369Y-159319583D01*
X93709391Y-159314705D01*
X93709395Y-159314703D01*
X93709398Y-159314701D01*
X93983036Y-159164267D01*
X94038020Y-159126619D01*
X94093490Y-159089765D01*
X94101397Y-159083224D01*
X94340606Y-158882503D01*
X94387265Y-158834857D01*
X94434482Y-158787968D01*
X94440969Y-158780016D01*
X94636636Y-158536656D01*
X94673144Y-158480865D01*
X94710364Y-158425685D01*
X94715183Y-158416624D01*
X94859854Y-158139893D01*
X94884825Y-158078088D01*
X94910623Y-158016717D01*
X94913590Y-158006893D01*
X95001756Y-157707332D01*
X95014254Y-157641812D01*
X95027633Y-157576637D01*
X95028635Y-157566424D01*
X95056936Y-157255444D01*
X95056471Y-157188829D01*
X95056936Y-157122214D01*
X95055935Y-157112001D01*
X95023294Y-156801446D01*
X95009897Y-156736181D01*
X94997416Y-156670755D01*
X94994450Y-156660930D01*
X94902111Y-156362630D01*
X94876293Y-156301211D01*
X94851341Y-156239453D01*
X94846523Y-156230392D01*
X94698002Y-155955707D01*
X94660732Y-155900452D01*
X94624273Y-155844737D01*
X94617787Y-155836785D01*
X94418742Y-155596180D01*
X94371452Y-155549219D01*
X94324863Y-155501644D01*
X94316956Y-155495102D01*
X94074967Y-155297741D01*
X94019428Y-155260841D01*
X93964516Y-155223242D01*
X93955489Y-155218360D01*
X93679776Y-155071760D01*
X93618148Y-155046359D01*
X93556953Y-155020131D01*
X93547155Y-155017098D01*
X93547153Y-155017097D01*
X93547151Y-155017097D01*
X93547149Y-155017096D01*
X93248212Y-154926842D01*
X93182866Y-154913903D01*
X93117705Y-154900053D01*
X93107499Y-154898980D01*
X92796724Y-154868508D01*
X92796723Y-154868508D01*
X92761105Y-154865000D01*
X89488895Y-154865000D01*
X89451693Y-154868664D01*
X89430937Y-154868664D01*
X89420731Y-154869737D01*
X89110411Y-154904545D01*
X89045250Y-154918395D01*
X88979904Y-154931334D01*
X88970100Y-154934368D01*
X88672452Y-155028788D01*
X88611207Y-155055037D01*
X88549631Y-155080417D01*
X88540609Y-155085295D01*
X88540605Y-155085297D01*
X88540604Y-155085298D01*
X88266964Y-155235733D01*
X88211970Y-155273388D01*
X88156511Y-155310235D01*
X88148603Y-155316776D01*
X87909394Y-155517497D01*
X87862771Y-155565107D01*
X87815517Y-155612032D01*
X87809031Y-155619985D01*
X87613364Y-155863344D01*
X87576866Y-155919119D01*
X87539636Y-155974315D01*
X87534821Y-155983371D01*
X87534818Y-155983375D01*
X87534818Y-155983376D01*
X87390146Y-156260106D01*
X87365169Y-156321926D01*
X87339377Y-156383283D01*
X87336410Y-156393107D01*
X87248244Y-156692668D01*
X87235746Y-156758188D01*
X87222367Y-156823363D01*
X87221365Y-156833576D01*
X87193064Y-157144556D01*
X87193529Y-157211171D01*
X87193064Y-157277786D01*
X87194065Y-157287999D01*
X87226707Y-157598555D01*
X87240098Y-157663789D01*
X87252584Y-157729245D01*
X87255550Y-157739070D01*
X87347889Y-158037370D01*
X87373728Y-158098838D01*
X87398660Y-158160547D01*
X87403477Y-158169609D01*
X87551998Y-158444293D01*
X87589278Y-158499563D01*
X87625727Y-158555263D01*
X87632213Y-158563216D01*
X87831258Y-158803820D01*
X87878532Y-158850765D01*
X87925137Y-158898356D01*
X87933044Y-158904898D01*
X88175033Y-159102259D01*
X88230572Y-159139159D01*
X88285484Y-159176758D01*
X88294511Y-159181640D01*
X88570224Y-159328240D01*
X88631852Y-159353641D01*
X88693047Y-159379869D01*
X88702850Y-159382904D01*
X88974767Y-159465000D01*
X82759999Y-159465000D01*
X82759999Y-135483928D01*
X84932897Y-135483928D01*
X84932897Y-136416072D01*
X85114749Y-137330304D01*
X85471464Y-138191491D01*
X85989335Y-138966540D01*
X86648460Y-139625665D01*
X87423509Y-140143536D01*
X88284696Y-140500251D01*
X89198928Y-140682103D01*
X90131072Y-140682103D01*
X91045304Y-140500251D01*
X91906491Y-140143536D01*
X92681540Y-139625665D01*
X93340665Y-138966540D01*
X93858536Y-138191491D01*
X94215251Y-137330304D01*
X94397103Y-136416072D01*
X94397103Y-135483928D01*
X95932897Y-135483928D01*
X95932897Y-136416072D01*
X96114749Y-137330304D01*
X96471464Y-138191491D01*
X96989335Y-138966540D01*
X97648460Y-139625665D01*
X98423509Y-140143536D01*
X99284696Y-140500251D01*
X100198928Y-140682103D01*
X101131072Y-140682103D01*
X102045304Y-140500251D01*
X102906491Y-140143536D01*
X103681540Y-139625665D01*
X104340665Y-138966540D01*
X104858536Y-138191491D01*
X105215251Y-137330304D01*
X105397103Y-136416072D01*
X105397103Y-135483928D01*
X106932897Y-135483928D01*
X106932897Y-136416072D01*
X107114749Y-137330304D01*
X107471464Y-138191491D01*
X107989335Y-138966540D01*
X108648460Y-139625665D01*
X109423509Y-140143536D01*
X110284696Y-140500251D01*
X111198928Y-140682103D01*
X112131072Y-140682103D01*
X113045304Y-140500251D01*
X113906491Y-140143536D01*
X114681540Y-139625665D01*
X115340665Y-138966540D01*
X115858536Y-138191491D01*
X116215251Y-137330304D01*
X116397103Y-136416072D01*
X116397103Y-135483928D01*
X117932896Y-135483928D01*
X117932896Y-136416072D01*
X118114748Y-137330304D01*
X118471463Y-138191491D01*
X118989334Y-138966540D01*
X119648459Y-139625665D01*
X120423508Y-140143536D01*
X121284695Y-140500251D01*
X122198927Y-140682103D01*
X123131071Y-140682103D01*
X124045303Y-140500251D01*
X124906490Y-140143536D01*
X125681539Y-139625665D01*
X126340664Y-138966540D01*
X126858535Y-138191491D01*
X127215250Y-137330304D01*
X127397102Y-136416072D01*
X127397102Y-135483928D01*
X128932896Y-135483928D01*
X128932896Y-136416072D01*
X129114748Y-137330304D01*
X129471463Y-138191491D01*
X129989334Y-138966540D01*
X130648459Y-139625665D01*
X131423508Y-140143536D01*
X132284695Y-140500251D01*
X133198927Y-140682103D01*
X134131071Y-140682103D01*
X135045303Y-140500251D01*
X135906490Y-140143536D01*
X136681539Y-139625665D01*
X137340664Y-138966540D01*
X137858535Y-138191491D01*
X138215250Y-137330304D01*
X138397102Y-136416072D01*
X138397102Y-135483928D01*
X145932896Y-135483928D01*
X145932896Y-136416072D01*
X146114748Y-137330304D01*
X146471463Y-138191491D01*
X146989334Y-138966540D01*
X147648459Y-139625665D01*
X148423508Y-140143536D01*
X149284695Y-140500251D01*
X150198927Y-140682103D01*
X151131071Y-140682103D01*
X152045303Y-140500251D01*
X152906490Y-140143536D01*
X153681539Y-139625665D01*
X154340664Y-138966540D01*
X154858535Y-138191491D01*
X155215250Y-137330304D01*
X155397102Y-136416072D01*
X155397102Y-135483928D01*
X155215250Y-134569696D01*
X154858535Y-133708509D01*
X154340664Y-132933460D01*
X153681539Y-132274335D01*
X152906490Y-131756464D01*
X152045303Y-131399749D01*
X151131071Y-131217897D01*
X150198927Y-131217897D01*
X149284695Y-131399749D01*
X148423508Y-131756464D01*
X147648459Y-132274335D01*
X146989334Y-132933460D01*
X146471463Y-133708509D01*
X146114748Y-134569696D01*
X145932896Y-135483928D01*
X138397102Y-135483928D01*
X138215250Y-134569696D01*
X137858535Y-133708509D01*
X137340664Y-132933460D01*
X136681539Y-132274335D01*
X135906490Y-131756464D01*
X135045303Y-131399749D01*
X134131071Y-131217897D01*
X133198927Y-131217897D01*
X132284695Y-131399749D01*
X131423508Y-131756464D01*
X130648459Y-132274335D01*
X129989334Y-132933460D01*
X129471463Y-133708509D01*
X129114748Y-134569696D01*
X128932896Y-135483928D01*
X127397102Y-135483928D01*
X127215250Y-134569696D01*
X126858535Y-133708509D01*
X126340664Y-132933460D01*
X125681539Y-132274335D01*
X124906490Y-131756464D01*
X124045303Y-131399749D01*
X123131071Y-131217897D01*
X122198927Y-131217897D01*
X121284695Y-131399749D01*
X120423508Y-131756464D01*
X119648459Y-132274335D01*
X118989334Y-132933460D01*
X118471463Y-133708509D01*
X118114748Y-134569696D01*
X117932896Y-135483928D01*
X116397103Y-135483928D01*
X116215251Y-134569696D01*
X115858536Y-133708509D01*
X115340665Y-132933460D01*
X114681540Y-132274335D01*
X113906491Y-131756464D01*
X113045304Y-131399749D01*
X112131072Y-131217897D01*
X111198928Y-131217897D01*
X110284696Y-131399749D01*
X109423509Y-131756464D01*
X108648460Y-132274335D01*
X107989335Y-132933460D01*
X107471464Y-133708509D01*
X107114749Y-134569696D01*
X106932897Y-135483928D01*
X105397103Y-135483928D01*
X105215251Y-134569696D01*
X104858536Y-133708509D01*
X104340665Y-132933460D01*
X103681540Y-132274335D01*
X102906491Y-131756464D01*
X102045304Y-131399749D01*
X101131072Y-131217897D01*
X100198928Y-131217897D01*
X99284696Y-131399749D01*
X98423509Y-131756464D01*
X97648460Y-132274335D01*
X96989335Y-132933460D01*
X96471464Y-133708509D01*
X96114749Y-134569696D01*
X95932897Y-135483928D01*
X94397103Y-135483928D01*
X94215251Y-134569696D01*
X93858536Y-133708509D01*
X93340665Y-132933460D01*
X92681540Y-132274335D01*
X91906491Y-131756464D01*
X91045304Y-131399749D01*
X90131072Y-131217897D01*
X89198928Y-131217897D01*
X88284696Y-131399749D01*
X87423509Y-131756464D01*
X86648460Y-132274335D01*
X85989335Y-132933460D01*
X85471464Y-133708509D01*
X85114749Y-134569696D01*
X84932897Y-135483928D01*
X82759999Y-135483928D01*
X82759999Y-119483928D01*
X84932897Y-119483928D01*
X84932897Y-120416072D01*
X85114749Y-121330304D01*
X85471464Y-122191491D01*
X85989335Y-122966540D01*
X86648460Y-123625665D01*
X87423509Y-124143536D01*
X88284696Y-124500251D01*
X89198928Y-124682103D01*
X90131072Y-124682103D01*
X91045304Y-124500251D01*
X91906491Y-124143536D01*
X92681540Y-123625665D01*
X93340665Y-122966540D01*
X93858536Y-122191491D01*
X94215251Y-121330304D01*
X94397103Y-120416072D01*
X94397103Y-119483928D01*
X95932897Y-119483928D01*
X95932897Y-120416072D01*
X96114749Y-121330304D01*
X96471464Y-122191491D01*
X96989335Y-122966540D01*
X97648460Y-123625665D01*
X98423509Y-124143536D01*
X99284696Y-124500251D01*
X100198928Y-124682103D01*
X101131072Y-124682103D01*
X102045304Y-124500251D01*
X102906491Y-124143536D01*
X103681540Y-123625665D01*
X104340665Y-122966540D01*
X104858536Y-122191491D01*
X105215251Y-121330304D01*
X105397103Y-120416072D01*
X105397103Y-119483928D01*
X106932897Y-119483928D01*
X106932897Y-120416072D01*
X107114749Y-121330304D01*
X107471464Y-122191491D01*
X107989335Y-122966540D01*
X108648460Y-123625665D01*
X109423509Y-124143536D01*
X110284696Y-124500251D01*
X111198928Y-124682103D01*
X112131072Y-124682103D01*
X113045304Y-124500251D01*
X113906491Y-124143536D01*
X114681540Y-123625665D01*
X115340665Y-122966540D01*
X115858536Y-122191491D01*
X116215251Y-121330304D01*
X116397103Y-120416072D01*
X116397103Y-119483928D01*
X117932896Y-119483928D01*
X117932896Y-120416072D01*
X118114748Y-121330304D01*
X118471463Y-122191491D01*
X118989334Y-122966540D01*
X119648459Y-123625665D01*
X120423508Y-124143536D01*
X121284695Y-124500251D01*
X122198927Y-124682103D01*
X123131071Y-124682103D01*
X124045303Y-124500251D01*
X124906490Y-124143536D01*
X125681539Y-123625665D01*
X126340664Y-122966540D01*
X126858535Y-122191491D01*
X127215250Y-121330304D01*
X127397102Y-120416072D01*
X127397102Y-119483928D01*
X128932896Y-119483928D01*
X128932896Y-120416072D01*
X129114748Y-121330304D01*
X129471463Y-122191491D01*
X129989334Y-122966540D01*
X130648459Y-123625665D01*
X131423508Y-124143536D01*
X132284695Y-124500251D01*
X133198927Y-124682103D01*
X134131071Y-124682103D01*
X135045303Y-124500251D01*
X135906490Y-124143536D01*
X136681539Y-123625665D01*
X137340664Y-122966540D01*
X137858535Y-122191491D01*
X138215250Y-121330304D01*
X138397102Y-120416072D01*
X138397102Y-119483928D01*
X145932896Y-119483928D01*
X145932896Y-120416072D01*
X146114748Y-121330304D01*
X146471463Y-122191491D01*
X146989334Y-122966540D01*
X147648459Y-123625665D01*
X148423508Y-124143536D01*
X149284695Y-124500251D01*
X150198927Y-124682103D01*
X151131071Y-124682103D01*
X152045303Y-124500251D01*
X152906490Y-124143536D01*
X153681539Y-123625665D01*
X154340664Y-122966540D01*
X154858535Y-122191491D01*
X155215250Y-121330304D01*
X155397102Y-120416072D01*
X155397102Y-119483928D01*
X155215250Y-118569696D01*
X154858535Y-117708509D01*
X154340664Y-116933460D01*
X153681539Y-116274335D01*
X152906490Y-115756464D01*
X152045303Y-115399749D01*
X151131071Y-115217897D01*
X150198927Y-115217897D01*
X149284695Y-115399749D01*
X148423508Y-115756464D01*
X147648459Y-116274335D01*
X146989334Y-116933460D01*
X146471463Y-117708509D01*
X146114748Y-118569696D01*
X145932896Y-119483928D01*
X138397102Y-119483928D01*
X138215250Y-118569696D01*
X137858535Y-117708509D01*
X137340664Y-116933460D01*
X136681539Y-116274335D01*
X135906490Y-115756464D01*
X135045303Y-115399749D01*
X134131071Y-115217897D01*
X133198927Y-115217897D01*
X132284695Y-115399749D01*
X131423508Y-115756464D01*
X130648459Y-116274335D01*
X129989334Y-116933460D01*
X129471463Y-117708509D01*
X129114748Y-118569696D01*
X128932896Y-119483928D01*
X127397102Y-119483928D01*
X127215250Y-118569696D01*
X126858535Y-117708509D01*
X126340664Y-116933460D01*
X125681539Y-116274335D01*
X124906490Y-115756464D01*
X124045303Y-115399749D01*
X123131071Y-115217897D01*
X122198927Y-115217897D01*
X121284695Y-115399749D01*
X120423508Y-115756464D01*
X119648459Y-116274335D01*
X118989334Y-116933460D01*
X118471463Y-117708509D01*
X118114748Y-118569696D01*
X117932896Y-119483928D01*
X116397103Y-119483928D01*
X116215251Y-118569696D01*
X115858536Y-117708509D01*
X115340665Y-116933460D01*
X114681540Y-116274335D01*
X113906491Y-115756464D01*
X113045304Y-115399749D01*
X112131072Y-115217897D01*
X111198928Y-115217897D01*
X110284696Y-115399749D01*
X109423509Y-115756464D01*
X108648460Y-116274335D01*
X107989335Y-116933460D01*
X107471464Y-117708509D01*
X107114749Y-118569696D01*
X106932897Y-119483928D01*
X105397103Y-119483928D01*
X105215251Y-118569696D01*
X104858536Y-117708509D01*
X104340665Y-116933460D01*
X103681540Y-116274335D01*
X102906491Y-115756464D01*
X102045304Y-115399749D01*
X101131072Y-115217897D01*
X100198928Y-115217897D01*
X99284696Y-115399749D01*
X98423509Y-115756464D01*
X97648460Y-116274335D01*
X96989335Y-116933460D01*
X96471464Y-117708509D01*
X96114749Y-118569696D01*
X95932897Y-119483928D01*
X94397103Y-119483928D01*
X94215251Y-118569696D01*
X93858536Y-117708509D01*
X93340665Y-116933460D01*
X92681540Y-116274335D01*
X91906491Y-115756464D01*
X91045304Y-115399749D01*
X90131072Y-115217897D01*
X89198928Y-115217897D01*
X88284696Y-115399749D01*
X87423509Y-115756464D01*
X86648460Y-116274335D01*
X85989335Y-116933460D01*
X85471464Y-117708509D01*
X85114749Y-118569696D01*
X84932897Y-119483928D01*
X82759999Y-119483928D01*
X82759999Y-103483928D01*
X88932896Y-103483928D01*
X88932896Y-104416072D01*
X89114748Y-105330304D01*
X89471463Y-106191491D01*
X89989334Y-106966540D01*
X90648459Y-107625665D01*
X91423508Y-108143536D01*
X92284695Y-108500251D01*
X93198927Y-108682103D01*
X94131071Y-108682103D01*
X95045303Y-108500251D01*
X95906490Y-108143536D01*
X96681539Y-107625665D01*
X97340664Y-106966540D01*
X97858535Y-106191491D01*
X98215250Y-105330304D01*
X98397102Y-104416072D01*
X98397102Y-103483928D01*
X106932896Y-103483928D01*
X106932896Y-104416072D01*
X107114748Y-105330304D01*
X107471463Y-106191491D01*
X107989334Y-106966540D01*
X108648459Y-107625665D01*
X109423508Y-108143536D01*
X110284695Y-108500251D01*
X111198927Y-108682103D01*
X112131071Y-108682103D01*
X113045303Y-108500251D01*
X113906490Y-108143536D01*
X114681539Y-107625665D01*
X115340664Y-106966540D01*
X115858535Y-106191491D01*
X116215250Y-105330304D01*
X116397102Y-104416072D01*
X116397102Y-103483928D01*
X128932896Y-103483928D01*
X128932896Y-104416072D01*
X129114748Y-105330304D01*
X129471463Y-106191491D01*
X129989334Y-106966540D01*
X130648459Y-107625665D01*
X131423508Y-108143536D01*
X132284695Y-108500251D01*
X133198927Y-108682103D01*
X134131071Y-108682103D01*
X135045303Y-108500251D01*
X135906490Y-108143536D01*
X136681539Y-107625665D01*
X137340664Y-106966540D01*
X137858535Y-106191491D01*
X138215250Y-105330304D01*
X138397102Y-104416072D01*
X138397102Y-103483928D01*
X138215250Y-102569696D01*
X137858535Y-101708509D01*
X137340664Y-100933460D01*
X136681539Y-100274335D01*
X135906490Y-99756464D01*
X135045303Y-99399749D01*
X134131071Y-99217897D01*
X133198927Y-99217897D01*
X132284695Y-99399749D01*
X131423508Y-99756464D01*
X130648459Y-100274335D01*
X129989334Y-100933460D01*
X129471463Y-101708509D01*
X129114748Y-102569696D01*
X128932896Y-103483928D01*
X116397102Y-103483928D01*
X116215250Y-102569696D01*
X115858535Y-101708509D01*
X115340664Y-100933460D01*
X114681539Y-100274335D01*
X113906490Y-99756464D01*
X113045303Y-99399749D01*
X112131071Y-99217897D01*
X111198927Y-99217897D01*
X110284695Y-99399749D01*
X109423508Y-99756464D01*
X108648459Y-100274335D01*
X107989334Y-100933460D01*
X107471463Y-101708509D01*
X107114748Y-102569696D01*
X106932896Y-103483928D01*
X98397102Y-103483928D01*
X98215250Y-102569696D01*
X97858535Y-101708509D01*
X97340664Y-100933460D01*
X96681539Y-100274335D01*
X95906490Y-99756464D01*
X95045303Y-99399749D01*
X94131071Y-99217897D01*
X93198927Y-99217897D01*
X92284695Y-99399749D01*
X91423508Y-99756464D01*
X90648459Y-100274335D01*
X89989334Y-100933460D01*
X89471463Y-101708509D01*
X89114748Y-102569696D01*
X88932896Y-103483928D01*
X82759999Y-103483928D01*
X82759999Y-95826988D01*
X121416042Y-95826988D01*
X121416042Y-96073012D01*
X121464039Y-96314307D01*
X121558188Y-96541603D01*
X121694871Y-96746164D01*
X121868835Y-96920128D01*
X122073396Y-97056811D01*
X122300692Y-97150960D01*
X122541987Y-97198957D01*
X122788011Y-97198957D01*
X123029306Y-97150960D01*
X123256602Y-97056811D01*
X123461163Y-96920128D01*
X123635127Y-96746164D01*
X123771810Y-96541603D01*
X123865959Y-96314307D01*
X123913956Y-96073012D01*
X123913956Y-95826988D01*
X123865959Y-95585693D01*
X123771810Y-95358397D01*
X123635127Y-95153836D01*
X123461163Y-94979872D01*
X123256602Y-94843189D01*
X123029306Y-94749040D01*
X122788011Y-94701043D01*
X122541987Y-94701043D01*
X122300692Y-94749040D01*
X122073396Y-94843189D01*
X121868835Y-94979872D01*
X121694871Y-95153836D01*
X121558188Y-95358397D01*
X121464039Y-95585693D01*
X121416042Y-95826988D01*
X82759999Y-95826988D01*
X82759999Y-86483928D01*
X128932896Y-86483928D01*
X128932896Y-87416072D01*
X129114748Y-88330304D01*
X129471463Y-89191491D01*
X129989334Y-89966540D01*
X130648459Y-90625665D01*
X131423508Y-91143536D01*
X132284695Y-91500251D01*
X133198927Y-91682103D01*
X134131071Y-91682103D01*
X135045303Y-91500251D01*
X135906490Y-91143536D01*
X136681539Y-90625665D01*
X137340664Y-89966540D01*
X137858535Y-89191491D01*
X138215250Y-88330304D01*
X138397102Y-87416072D01*
X138397102Y-86483928D01*
X144932896Y-86483928D01*
X144932896Y-87416072D01*
X145114748Y-88330304D01*
X145471463Y-89191491D01*
X145989334Y-89966540D01*
X146648459Y-90625665D01*
X147423508Y-91143536D01*
X148284695Y-91500251D01*
X149198927Y-91682103D01*
X150131071Y-91682103D01*
X151045303Y-91500251D01*
X151906490Y-91143536D01*
X152681539Y-90625665D01*
X153340664Y-89966540D01*
X153858535Y-89191491D01*
X154215250Y-88330304D01*
X154397102Y-87416072D01*
X154397102Y-86483928D01*
X154215250Y-85569696D01*
X153858535Y-84708509D01*
X153340664Y-83933460D01*
X152681539Y-83274335D01*
X151906490Y-82756464D01*
X151045303Y-82399749D01*
X150131071Y-82217897D01*
X149198927Y-82217897D01*
X148284695Y-82399749D01*
X147423508Y-82756464D01*
X146648459Y-83274335D01*
X145989334Y-83933460D01*
X145471463Y-84708509D01*
X145114748Y-85569696D01*
X144932896Y-86483928D01*
X138397102Y-86483928D01*
X138215250Y-85569696D01*
X137858535Y-84708509D01*
X137340664Y-83933460D01*
X136681539Y-83274335D01*
X135906490Y-82756464D01*
X135045303Y-82399749D01*
X134131071Y-82217897D01*
X133198927Y-82217897D01*
X132284695Y-82399749D01*
X131423508Y-82756464D01*
X130648459Y-83274335D01*
X129989334Y-83933460D01*
X129471463Y-84708509D01*
X129114748Y-85569696D01*
X128932896Y-86483928D01*
X82759999Y-86483928D01*
X82759999Y-80483928D01*
X88932896Y-80483928D01*
X88932896Y-81416072D01*
X89114748Y-82330304D01*
X89471463Y-83191491D01*
X89989334Y-83966540D01*
X90648459Y-84625665D01*
X91423508Y-85143536D01*
X92284695Y-85500251D01*
X93198927Y-85682103D01*
X94131071Y-85682103D01*
X95045303Y-85500251D01*
X95906490Y-85143536D01*
X96681539Y-84625665D01*
X97340664Y-83966540D01*
X97858535Y-83191491D01*
X98215250Y-82330304D01*
X98397102Y-81416072D01*
X98397102Y-80483928D01*
X98215250Y-79569696D01*
X97858535Y-78708509D01*
X97340664Y-77933460D01*
X96681539Y-77274335D01*
X95906490Y-76756464D01*
X95045303Y-76399749D01*
X94131071Y-76217897D01*
X93198927Y-76217897D01*
X92284695Y-76399749D01*
X91423508Y-76756464D01*
X90648459Y-77274335D01*
X89989334Y-77933460D01*
X89471463Y-78708509D01*
X89114748Y-79569696D01*
X88932896Y-80483928D01*
X82759999Y-80483928D01*
X82759999Y-70483928D01*
X128932896Y-70483928D01*
X128932896Y-71416072D01*
X129114748Y-72330304D01*
X129471463Y-73191491D01*
X129989334Y-73966540D01*
X130648459Y-74625665D01*
X131423508Y-75143536D01*
X132284695Y-75500251D01*
X133198927Y-75682103D01*
X134131071Y-75682103D01*
X135045303Y-75500251D01*
X135906490Y-75143536D01*
X136681539Y-74625665D01*
X137340664Y-73966540D01*
X137858535Y-73191491D01*
X138215250Y-72330304D01*
X138397102Y-71416072D01*
X138397102Y-70483928D01*
X144932896Y-70483928D01*
X144932896Y-71416072D01*
X145114748Y-72330304D01*
X145471463Y-73191491D01*
X145989334Y-73966540D01*
X146648459Y-74625665D01*
X147423508Y-75143536D01*
X148284695Y-75500251D01*
X149198927Y-75682103D01*
X150131071Y-75682103D01*
X151045303Y-75500251D01*
X151906490Y-75143536D01*
X152681539Y-74625665D01*
X153340664Y-73966540D01*
X153858535Y-73191491D01*
X154215250Y-72330304D01*
X154397102Y-71416072D01*
X154397102Y-70483928D01*
X154215250Y-69569696D01*
X153858535Y-68708509D01*
X153340664Y-67933460D01*
X152681539Y-67274335D01*
X151906490Y-66756464D01*
X151045303Y-66399749D01*
X150131071Y-66217897D01*
X149198927Y-66217897D01*
X148284695Y-66399749D01*
X147423508Y-66756464D01*
X146648459Y-67274335D01*
X145989334Y-67933460D01*
X145471463Y-68708509D01*
X145114748Y-69569696D01*
X144932896Y-70483928D01*
X138397102Y-70483928D01*
X138215250Y-69569696D01*
X137858535Y-68708509D01*
X137340664Y-67933460D01*
X136681539Y-67274335D01*
X135906490Y-66756464D01*
X135045303Y-66399749D01*
X134131071Y-66217897D01*
X133198927Y-66217897D01*
X132284695Y-66399749D01*
X131423508Y-66756464D01*
X130648459Y-67274335D01*
X129989334Y-67933460D01*
X129471463Y-68708509D01*
X129114748Y-69569696D01*
X128932896Y-70483928D01*
X82759999Y-70483928D01*
X82759999Y-55483928D01*
X102932896Y-55483928D01*
X102932896Y-56416072D01*
X103114748Y-57330304D01*
X103471463Y-58191491D01*
X103989334Y-58966540D01*
X104648459Y-59625665D01*
X105423508Y-60143536D01*
X106284695Y-60500251D01*
X107198927Y-60682103D01*
X108131071Y-60682103D01*
X109045303Y-60500251D01*
X109906490Y-60143536D01*
X110681539Y-59625665D01*
X111340664Y-58966540D01*
X111858535Y-58191491D01*
X112215250Y-57330304D01*
X112397102Y-56416072D01*
X112397102Y-55483928D01*
X136932896Y-55483928D01*
X136932896Y-56416072D01*
X137114748Y-57330304D01*
X137471463Y-58191491D01*
X137989334Y-58966540D01*
X138648459Y-59625665D01*
X139423508Y-60143536D01*
X140284695Y-60500251D01*
X141198927Y-60682103D01*
X142131071Y-60682103D01*
X143045303Y-60500251D01*
X143906490Y-60143536D01*
X144681539Y-59625665D01*
X145340664Y-58966540D01*
X145858535Y-58191491D01*
X146215250Y-57330304D01*
X146397102Y-56416072D01*
X146397102Y-55483928D01*
X146215250Y-54569696D01*
X145858535Y-53708509D01*
X145340664Y-52933460D01*
X144681539Y-52274335D01*
X143906490Y-51756464D01*
X143045303Y-51399749D01*
X142131071Y-51217897D01*
X141198927Y-51217897D01*
X140284695Y-51399749D01*
X139423508Y-51756464D01*
X138648459Y-52274335D01*
X137989334Y-52933460D01*
X137471463Y-53708509D01*
X137114748Y-54569696D01*
X136932896Y-55483928D01*
X112397102Y-55483928D01*
X112215250Y-54569696D01*
X111858535Y-53708509D01*
X111340664Y-52933460D01*
X110681539Y-52274335D01*
X109906490Y-51756464D01*
X109045303Y-51399749D01*
X108131071Y-51217897D01*
X107198927Y-51217897D01*
X106284695Y-51399749D01*
X105423508Y-51756464D01*
X104648459Y-52274335D01*
X103989334Y-52933460D01*
X103471463Y-53708509D01*
X103114748Y-54569696D01*
X102932896Y-55483928D01*
X82759999Y-55483928D01*
X82759999Y-32435000D01*
X88968108Y-32435000D01*
X88672452Y-32528788D01*
G37*
%TD.AperFunction*%
M02*
