M48
; DRILL file {KiCad 8.0.0} date 2024-05-30T16:28:27-0600
; FORMAT={-:-/ absolute / inch / decimal}
; #@! TF.CreationDate,2024-05-30T16:28:27-06:00
; #@! TF.GenerationSoftware,Kicad,Pcbnew,8.0.0
; #@! TF.FileFunction,Plated,1,2,PTH
FMAT,2
INCH
; #@! TA.AperFunction,Plated,PTH,ViaDrill
T1C0.0118
; #@! TA.AperFunction,Plated,PTH,ComponentDrill
T2C0.0197
; #@! TA.AperFunction,Plated,PTH,ComponentDrill
T3C0.0217
; #@! TA.AperFunction,Plated,PTH,ComponentDrill
T4C0.0236
; #@! TA.AperFunction,Plated,PTH,ComponentDrill
T5C0.0315
; #@! TA.AperFunction,Plated,PTH,ComponentDrill
T6C0.0350
; #@! TA.AperFunction,Plated,PTH,ComponentDrill
T7C0.0394
; #@! TA.AperFunction,Plated,PTH,ComponentDrill
T8C0.0433
; #@! TA.AperFunction,Plated,PTH,ComponentDrill
T9C0.0709
; #@! TA.AperFunction,Plated,PTH,ComponentDrill
T10C0.0791
; #@! TA.AperFunction,Plated,PTH,ComponentDrill
T11C0.1260
%
G90
G05
T1
X3.943Y-2.323
X4.12Y-3.23
X4.254Y-2.682
X4.313Y-2.683
X4.38Y-1.894
X4.388Y-2.189
X4.395Y-3.463
X4.395Y-3.554
X4.405Y-2.754
X4.413Y-2.318
X4.425Y-2.684
X4.436Y-2.416
X4.441Y-1.894
X4.466Y-2.754
X4.479Y-2.715
X4.491Y-2.416
X4.499Y-3.258
X4.531Y-1.96
X4.56Y-3.276
X4.571Y-3.148
X4.583Y-2.054
X4.63Y-2.858
X4.662Y-3.682
X4.668Y-3.367
X4.702Y-3.095
X4.725Y-3.164
X4.971Y-3.606
X5.012Y-3.17
X5.036Y-3.091
X5.0406Y-3.2828
X5.0946Y-2.7908
X5.105Y-3.569
X5.1856Y-2.6638
X5.2106Y-3.3388
X5.251Y-3.164
X5.322Y-3.339
X5.3546Y-2.8768
X5.365Y-3.336
X5.366Y-3.159
X5.522Y-3.076
X5.526Y-3.655
X5.527Y-3.721
X5.542Y-3.22
X5.56Y-2.88
X5.582Y-3.077
X5.595Y-2.99
X5.6046Y-3.3868
X5.657Y-3.801
X5.6766Y-2.7298
X5.702Y-3.546
X5.813Y-2.968
X5.848Y-1.884
X6.01Y-1.601
X6.0361Y-3.0215
X6.0361Y-3.0485
X6.0361Y-3.0755
X6.116Y-3.541
X6.19Y-3.84
X6.201Y-1.704
X6.2127Y-3.1485
X6.2147Y-2.9305
X6.229Y-1.974
X6.231Y-1.518
X6.232Y-1.45
X6.393Y-2.465
X6.415Y-1.792
X6.438Y-4.237
X6.446Y-3.178
X6.467Y-4.051
X6.485Y-1.778
X6.488Y-2.229
X6.49Y-4.11
X6.495Y-2.381
X6.503Y-3.462
X6.524Y-2.186
X6.585Y-2.053
X6.6141Y-3.0295
X6.623Y-2.4
X6.624Y-2.337
X6.658Y-2.789
X6.682Y-2.336
X6.683Y-2.396
X6.7Y-4.21
X6.723Y-3.424
X6.724Y-2.366
X6.726Y-1.871
X6.726Y-2.09
X6.764Y-4.565
X6.781Y-2.367
X6.781Y-3.425
X6.785Y-2.793
X6.903Y-2.15
X6.916Y-2.339
X6.916Y-2.397
X6.99Y-4.441
X7.001Y-4.642
X7.094Y-2.108
X7.132Y-2.734
X7.168Y-2.514
X7.232Y-2.735
X7.464Y-4.614
X7.6245Y-4.271
T2
X3.8925Y-4.656
X3.9202Y-4.5892
X3.9202Y-4.7228
X3.987Y-4.5615
X3.987Y-4.7505
X4.0538Y-4.5892
X4.0538Y-4.7228
X4.0815Y-4.656
X4.7343Y-1.7722
X4.762Y-1.7054
X4.762Y-1.839
X4.8288Y-1.6777
X4.8288Y-1.8667
X4.8956Y-1.7054
X4.8956Y-1.839
X4.9233Y-1.7722
X6.8355Y-3.1
X6.8632Y-3.0332
X6.8632Y-3.1668
X6.93Y-3.0055
X6.93Y-3.1945
X6.9968Y-3.0332
X6.9968Y-3.1668
X7.0245Y-3.1
X7.2783Y-1.2058
X7.306Y-1.139
X7.306Y-1.2726
X7.3728Y-1.1113
X7.3728Y-1.3003
X7.4396Y-1.139
X7.4396Y-1.2726
X7.4673Y-1.2058
T5
X4.261Y-1.205
X4.361Y-1.205
X4.461Y-1.205
X5.429Y-1.209
X5.529Y-1.209
X5.629Y-1.209
X7.366Y-2.392
X7.366Y-2.492
X7.366Y-2.592
T6
X7.1779Y-1.682
X7.1779Y-1.782
T7
X3.992Y-3.877
X4.092Y-3.877
X4.16Y-1.437
X4.192Y-3.877
X4.26Y-1.437
X4.292Y-3.877
X4.36Y-1.437
X4.392Y-3.877
X4.46Y-1.437
X4.492Y-3.877
X4.56Y-1.437
X4.66Y-1.437
X4.76Y-1.437
X4.86Y-1.437
X4.96Y-1.437
X5.06Y-1.437
X5.16Y-1.437
X5.26Y-1.437
X5.36Y-1.437
X5.46Y-1.437
X5.56Y-1.437
X5.66Y-1.437
X6.489Y-1.202
X6.589Y-1.202
X6.689Y-1.202
X7.016Y-3.5822
X7.016Y-3.6822
X7.016Y-3.7822
X7.2638Y-3.3466
X7.2696Y-4.0342
X7.3622Y-3.3466
X7.368Y-4.0342
X7.4607Y-3.3466
X7.4664Y-4.0342
T8
X3.948Y-4.1704
X3.948Y-4.3476
X4.204Y-4.1704
X4.204Y-4.3476
X4.372Y-4.1704
X4.372Y-4.3476
X4.628Y-4.1704
X4.628Y-4.3476
X4.787Y-4.1734
X4.787Y-4.3506
X5.043Y-4.1734
X5.043Y-4.3506
X5.211Y-4.1774
X5.211Y-4.3546
X5.467Y-4.1774
X5.467Y-4.3546
X5.632Y-4.1804
X5.632Y-4.3576
X5.888Y-4.1804
X5.888Y-4.3576
T10
X7.3779Y-1.582
X7.3779Y-1.982
T11
X3.987Y-4.656
X4.8288Y-1.7722
X6.93Y-3.1
X7.3728Y-1.2058
T3
G00X3.8954Y-2.1329
M15
G01X3.8698Y-2.1329
M16
G05
G00X3.8954Y-2.4104
M15
G01X3.8698Y-2.4104
M16
G05
T4
G00X3.9889Y-2.1673
M15
G01X3.9889Y-2.1791
M16
G05
G00X3.9889Y-2.3641
M15
G01X3.9889Y-2.376
M16
G05
T9
G00X7.189Y-3.0769
M15
G01X7.189Y-3.0651
M16
G05
G00X7.1948Y-3.7645
M15
G01X7.1948Y-3.7527
M16
G05
G00X7.5355Y-3.0769
M15
G01X7.5355Y-3.0651
M16
G05
G00X7.5412Y-3.7645
M15
G01X7.5412Y-3.7527
M16
G05
M30
