%TF.GenerationSoftware,KiCad,Pcbnew,8.0.0*%
%TF.CreationDate,2024-05-21T22:55:11-06:00*%
%TF.ProjectId,STM32F405_DDS_Generator,53544d33-3246-4343-9035-5f4444535f47,rev?*%
%TF.SameCoordinates,Original*%
%TF.FileFunction,Copper,L1,Top*%
%TF.FilePolarity,Positive*%
%FSLAX46Y46*%
G04 Gerber Fmt 4.6, Leading zero omitted, Abs format (unit mm)*
G04 Created by KiCad (PCBNEW 8.0.0) date 2024-05-21 22:55:11*
%MOMM*%
%LPD*%
G01*
G04 APERTURE LIST*
G04 Aperture macros list*
%AMRoundRect*
0 Rectangle with rounded corners*
0 $1 Rounding radius*
0 $2 $3 $4 $5 $6 $7 $8 $9 X,Y pos of 4 corners*
0 Add a 4 corners polygon primitive as box body*
4,1,4,$2,$3,$4,$5,$6,$7,$8,$9,$2,$3,0*
0 Add four circle primitives for the rounded corners*
1,1,$1+$1,$2,$3*
1,1,$1+$1,$4,$5*
1,1,$1+$1,$6,$7*
1,1,$1+$1,$8,$9*
0 Add four rect primitives between the rounded corners*
20,1,$1+$1,$2,$3,$4,$5,0*
20,1,$1+$1,$4,$5,$6,$7,0*
20,1,$1+$1,$6,$7,$8,$9,0*
20,1,$1+$1,$8,$9,$2,$3,0*%
G04 Aperture macros list end*
%TA.AperFunction,EtchedComponent*%
%ADD10C,0.010000*%
%TD*%
%TA.AperFunction,ComponentPad*%
%ADD11C,0.800000*%
%TD*%
%TA.AperFunction,ComponentPad*%
%ADD12C,6.400000*%
%TD*%
%TA.AperFunction,SMDPad,CuDef*%
%ADD13RoundRect,0.225000X0.375000X-0.225000X0.375000X0.225000X-0.375000X0.225000X-0.375000X-0.225000X0*%
%TD*%
%TA.AperFunction,SMDPad,CuDef*%
%ADD14RoundRect,0.225000X-0.375000X0.225000X-0.375000X-0.225000X0.375000X-0.225000X0.375000X0.225000X0*%
%TD*%
%TA.AperFunction,SMDPad,CuDef*%
%ADD15RoundRect,0.250000X-0.312500X-1.450000X0.312500X-1.450000X0.312500X1.450000X-0.312500X1.450000X0*%
%TD*%
%TA.AperFunction,SMDPad,CuDef*%
%ADD16RoundRect,0.250000X-0.450000X0.350000X-0.450000X-0.350000X0.450000X-0.350000X0.450000X0.350000X0*%
%TD*%
%TA.AperFunction,SMDPad,CuDef*%
%ADD17RoundRect,0.250000X-0.475000X0.337500X-0.475000X-0.337500X0.475000X-0.337500X0.475000X0.337500X0*%
%TD*%
%TA.AperFunction,SMDPad,CuDef*%
%ADD18R,1.350000X0.400000*%
%TD*%
%TA.AperFunction,ComponentPad*%
%ADD19O,0.800000X1.600000*%
%TD*%
%TA.AperFunction,ComponentPad*%
%ADD20O,1.500000X0.750000*%
%TD*%
%TA.AperFunction,SMDPad,CuDef*%
%ADD21R,1.550000X1.500000*%
%TD*%
%TA.AperFunction,SMDPad,CuDef*%
%ADD22RoundRect,0.250000X0.475000X-0.337500X0.475000X0.337500X-0.475000X0.337500X-0.475000X-0.337500X0*%
%TD*%
%TA.AperFunction,SMDPad,CuDef*%
%ADD23R,3.048000X1.219200*%
%TD*%
%TA.AperFunction,SMDPad,CuDef*%
%ADD24RoundRect,0.250000X-0.337500X-0.475000X0.337500X-0.475000X0.337500X0.475000X-0.337500X0.475000X0*%
%TD*%
%TA.AperFunction,ComponentPad*%
%ADD25C,2.000000*%
%TD*%
%TA.AperFunction,SMDPad,CuDef*%
%ADD26RoundRect,0.150000X0.825000X0.150000X-0.825000X0.150000X-0.825000X-0.150000X0.825000X-0.150000X0*%
%TD*%
%TA.AperFunction,SMDPad,CuDef*%
%ADD27RoundRect,0.250000X-0.350000X-0.450000X0.350000X-0.450000X0.350000X0.450000X-0.350000X0.450000X0*%
%TD*%
%TA.AperFunction,SMDPad,CuDef*%
%ADD28R,2.500000X0.500000*%
%TD*%
%TA.AperFunction,SMDPad,CuDef*%
%ADD29R,2.500000X2.000000*%
%TD*%
%TA.AperFunction,SMDPad,CuDef*%
%ADD30RoundRect,0.250000X0.350000X0.450000X-0.350000X0.450000X-0.350000X-0.450000X0.350000X-0.450000X0*%
%TD*%
%TA.AperFunction,SMDPad,CuDef*%
%ADD31RoundRect,0.250000X0.450000X-0.350000X0.450000X0.350000X-0.450000X0.350000X-0.450000X-0.350000X0*%
%TD*%
%TA.AperFunction,SMDPad,CuDef*%
%ADD32RoundRect,0.150000X-0.512500X-0.150000X0.512500X-0.150000X0.512500X0.150000X-0.512500X0.150000X0*%
%TD*%
%TA.AperFunction,SMDPad,CuDef*%
%ADD33RoundRect,0.250000X-0.325000X-0.450000X0.325000X-0.450000X0.325000X0.450000X-0.325000X0.450000X0*%
%TD*%
%TA.AperFunction,SMDPad,CuDef*%
%ADD34RoundRect,0.250000X0.337500X0.475000X-0.337500X0.475000X-0.337500X-0.475000X0.337500X-0.475000X0*%
%TD*%
%TA.AperFunction,ComponentPad*%
%ADD35R,1.700000X1.700000*%
%TD*%
%TA.AperFunction,ComponentPad*%
%ADD36O,1.700000X1.700000*%
%TD*%
%TA.AperFunction,SMDPad,CuDef*%
%ADD37R,1.900000X1.300000*%
%TD*%
%TA.AperFunction,SMDPad,CuDef*%
%ADD38RoundRect,0.075000X0.700000X0.075000X-0.700000X0.075000X-0.700000X-0.075000X0.700000X-0.075000X0*%
%TD*%
%TA.AperFunction,SMDPad,CuDef*%
%ADD39RoundRect,0.075000X0.075000X0.700000X-0.075000X0.700000X-0.075000X-0.700000X0.075000X-0.700000X0*%
%TD*%
%TA.AperFunction,SMDPad,CuDef*%
%ADD40R,2.100000X5.600000*%
%TD*%
%TA.AperFunction,SMDPad,CuDef*%
%ADD41R,4.000000X2.100000*%
%TD*%
%TA.AperFunction,SMDPad,CuDef*%
%ADD42R,3.454400X1.498600*%
%TD*%
%TA.AperFunction,SMDPad,CuDef*%
%ADD43R,1.219200X2.514600*%
%TD*%
%TA.AperFunction,SMDPad,CuDef*%
%ADD44R,1.219200X3.048000*%
%TD*%
%TA.AperFunction,ComponentPad*%
%ADD45C,1.440000*%
%TD*%
%TA.AperFunction,SMDPad,CuDef*%
%ADD46R,0.400000X1.200000*%
%TD*%
%TA.AperFunction,SMDPad,CuDef*%
%ADD47R,1.799999X4.600001*%
%TD*%
%TA.AperFunction,SMDPad,CuDef*%
%ADD48RoundRect,0.250000X0.325000X0.450000X-0.325000X0.450000X-0.325000X-0.450000X0.325000X-0.450000X0*%
%TD*%
%TA.AperFunction,SMDPad,CuDef*%
%ADD49RoundRect,0.150000X-0.825000X-0.150000X0.825000X-0.150000X0.825000X0.150000X-0.825000X0.150000X0*%
%TD*%
%TA.AperFunction,SMDPad,CuDef*%
%ADD50RoundRect,0.375000X-0.625000X-0.375000X0.625000X-0.375000X0.625000X0.375000X-0.625000X0.375000X0*%
%TD*%
%TA.AperFunction,SMDPad,CuDef*%
%ADD51RoundRect,0.500000X-0.500000X-1.400000X0.500000X-1.400000X0.500000X1.400000X-0.500000X1.400000X0*%
%TD*%
%TA.AperFunction,SMDPad,CuDef*%
%ADD52RoundRect,0.250000X0.450000X-0.325000X0.450000X0.325000X-0.450000X0.325000X-0.450000X-0.325000X0*%
%TD*%
%TA.AperFunction,ComponentPad*%
%ADD53R,1.800000X1.800000*%
%TD*%
%TA.AperFunction,ComponentPad*%
%ADD54C,1.800000*%
%TD*%
%TA.AperFunction,ComponentPad*%
%ADD55RoundRect,0.750000X0.750000X-1.250000X0.750000X1.250000X-0.750000X1.250000X-0.750000X-1.250000X0*%
%TD*%
%TA.AperFunction,SMDPad,CuDef*%
%ADD56R,1.200000X2.500000*%
%TD*%
%TA.AperFunction,SMDPad,CuDef*%
%ADD57R,2.100000X2.400000*%
%TD*%
%TA.AperFunction,SMDPad,CuDef*%
%ADD58R,1.498600X3.454400*%
%TD*%
%TA.AperFunction,ComponentPad*%
%ADD59R,1.398000X1.398000*%
%TD*%
%TA.AperFunction,ComponentPad*%
%ADD60C,1.398000*%
%TD*%
%TA.AperFunction,ComponentPad*%
%ADD61C,3.015000*%
%TD*%
%TA.AperFunction,ViaPad*%
%ADD62C,0.600000*%
%TD*%
%TA.AperFunction,Conductor*%
%ADD63C,0.203200*%
%TD*%
%TA.AperFunction,Conductor*%
%ADD64C,0.304800*%
%TD*%
%TA.AperFunction,Conductor*%
%ADD65C,0.254000*%
%TD*%
%TA.AperFunction,Conductor*%
%ADD66C,0.200000*%
%TD*%
G04 APERTURE END LIST*
D10*
%TO.C,J2*%
X98918200Y-53755400D02*
X98944200Y-53757400D01*
X98970200Y-53760400D01*
X98996200Y-53765400D01*
X99021200Y-53771400D01*
X99047200Y-53778400D01*
X99071200Y-53787400D01*
X99095200Y-53797400D01*
X99119200Y-53808400D01*
X99142200Y-53821400D01*
X99164200Y-53835400D01*
X99186200Y-53849400D01*
X99207200Y-53865400D01*
X99227200Y-53882400D01*
X99246200Y-53900400D01*
X99264200Y-53919400D01*
X99281200Y-53939400D01*
X99297200Y-53960400D01*
X99311200Y-53982400D01*
X99325200Y-54004400D01*
X99338200Y-54027400D01*
X99349200Y-54051400D01*
X99359200Y-54075400D01*
X99368200Y-54099400D01*
X99375200Y-54125400D01*
X99381200Y-54150400D01*
X99386200Y-54176400D01*
X99389200Y-54202400D01*
X99391200Y-54228400D01*
X99392200Y-54254400D01*
X99392200Y-55399400D01*
X97842200Y-55399400D01*
X97842200Y-54254400D01*
X97843200Y-54228400D01*
X97845200Y-54202400D01*
X97848200Y-54176400D01*
X97853200Y-54150400D01*
X97859200Y-54125400D01*
X97866200Y-54099400D01*
X97875200Y-54075400D01*
X97885200Y-54051400D01*
X97896200Y-54027400D01*
X97909200Y-54004400D01*
X97923200Y-53982400D01*
X97937200Y-53960400D01*
X97953200Y-53939400D01*
X97970200Y-53919400D01*
X97988200Y-53900400D01*
X98007200Y-53882400D01*
X98027200Y-53865400D01*
X98048200Y-53849400D01*
X98070200Y-53835400D01*
X98092200Y-53821400D01*
X98115200Y-53808400D01*
X98139200Y-53797400D01*
X98163200Y-53787400D01*
X98187200Y-53778400D01*
X98213200Y-53771400D01*
X98238200Y-53765400D01*
X98264200Y-53760400D01*
X98290200Y-53757400D01*
X98316200Y-53755400D01*
X98342200Y-53754400D01*
X98892200Y-53754400D01*
X98918200Y-53755400D01*
%TA.AperFunction,EtchedComponent*%
G36*
X98918200Y-53755400D02*
G01*
X98944200Y-53757400D01*
X98970200Y-53760400D01*
X98996200Y-53765400D01*
X99021200Y-53771400D01*
X99047200Y-53778400D01*
X99071200Y-53787400D01*
X99095200Y-53797400D01*
X99119200Y-53808400D01*
X99142200Y-53821400D01*
X99164200Y-53835400D01*
X99186200Y-53849400D01*
X99207200Y-53865400D01*
X99227200Y-53882400D01*
X99246200Y-53900400D01*
X99264200Y-53919400D01*
X99281200Y-53939400D01*
X99297200Y-53960400D01*
X99311200Y-53982400D01*
X99325200Y-54004400D01*
X99338200Y-54027400D01*
X99349200Y-54051400D01*
X99359200Y-54075400D01*
X99368200Y-54099400D01*
X99375200Y-54125400D01*
X99381200Y-54150400D01*
X99386200Y-54176400D01*
X99389200Y-54202400D01*
X99391200Y-54228400D01*
X99392200Y-54254400D01*
X99392200Y-55399400D01*
X97842200Y-55399400D01*
X97842200Y-54254400D01*
X97843200Y-54228400D01*
X97845200Y-54202400D01*
X97848200Y-54176400D01*
X97853200Y-54150400D01*
X97859200Y-54125400D01*
X97866200Y-54099400D01*
X97875200Y-54075400D01*
X97885200Y-54051400D01*
X97896200Y-54027400D01*
X97909200Y-54004400D01*
X97923200Y-53982400D01*
X97937200Y-53960400D01*
X97953200Y-53939400D01*
X97970200Y-53919400D01*
X97988200Y-53900400D01*
X98007200Y-53882400D01*
X98027200Y-53865400D01*
X98048200Y-53849400D01*
X98070200Y-53835400D01*
X98092200Y-53821400D01*
X98115200Y-53808400D01*
X98139200Y-53797400D01*
X98163200Y-53787400D01*
X98187200Y-53778400D01*
X98213200Y-53771400D01*
X98238200Y-53765400D01*
X98264200Y-53760400D01*
X98290200Y-53757400D01*
X98316200Y-53755400D01*
X98342200Y-53754400D01*
X98892200Y-53754400D01*
X98918200Y-53755400D01*
G37*
%TD.AperFunction*%
X99392200Y-61144400D02*
X99391200Y-61170400D01*
X99389200Y-61196400D01*
X99386200Y-61222400D01*
X99381200Y-61248400D01*
X99375200Y-61273400D01*
X99368200Y-61299400D01*
X99359200Y-61323400D01*
X99349200Y-61347400D01*
X99338200Y-61371400D01*
X99325200Y-61394400D01*
X99311200Y-61416400D01*
X99297200Y-61438400D01*
X99281200Y-61459400D01*
X99264200Y-61479400D01*
X99246200Y-61498400D01*
X99227200Y-61516400D01*
X99207200Y-61533400D01*
X99186200Y-61549400D01*
X99164200Y-61563400D01*
X99142200Y-61577400D01*
X99119200Y-61590400D01*
X99095200Y-61601400D01*
X99071200Y-61611400D01*
X99047200Y-61620400D01*
X99021200Y-61627400D01*
X98996200Y-61633400D01*
X98970200Y-61638400D01*
X98944200Y-61641400D01*
X98918200Y-61643400D01*
X98892200Y-61644400D01*
X98342200Y-61644400D01*
X98316200Y-61643400D01*
X98290200Y-61641400D01*
X98264200Y-61638400D01*
X98238200Y-61633400D01*
X98213200Y-61627400D01*
X98187200Y-61620400D01*
X98163200Y-61611400D01*
X98139200Y-61601400D01*
X98115200Y-61590400D01*
X98092200Y-61577400D01*
X98070200Y-61563400D01*
X98048200Y-61549400D01*
X98027200Y-61533400D01*
X98007200Y-61516400D01*
X97988200Y-61498400D01*
X97970200Y-61479400D01*
X97953200Y-61459400D01*
X97937200Y-61438400D01*
X97923200Y-61416400D01*
X97909200Y-61394400D01*
X97896200Y-61371400D01*
X97885200Y-61347400D01*
X97875200Y-61323400D01*
X97866200Y-61299400D01*
X97859200Y-61273400D01*
X97853200Y-61248400D01*
X97848200Y-61222400D01*
X97845200Y-61196400D01*
X97843200Y-61170400D01*
X97842200Y-61144400D01*
X97842200Y-59999400D01*
X99392200Y-59999400D01*
X99392200Y-61144400D01*
%TA.AperFunction,EtchedComponent*%
G36*
X99392200Y-61144400D02*
G01*
X99391200Y-61170400D01*
X99389200Y-61196400D01*
X99386200Y-61222400D01*
X99381200Y-61248400D01*
X99375200Y-61273400D01*
X99368200Y-61299400D01*
X99359200Y-61323400D01*
X99349200Y-61347400D01*
X99338200Y-61371400D01*
X99325200Y-61394400D01*
X99311200Y-61416400D01*
X99297200Y-61438400D01*
X99281200Y-61459400D01*
X99264200Y-61479400D01*
X99246200Y-61498400D01*
X99227200Y-61516400D01*
X99207200Y-61533400D01*
X99186200Y-61549400D01*
X99164200Y-61563400D01*
X99142200Y-61577400D01*
X99119200Y-61590400D01*
X99095200Y-61601400D01*
X99071200Y-61611400D01*
X99047200Y-61620400D01*
X99021200Y-61627400D01*
X98996200Y-61633400D01*
X98970200Y-61638400D01*
X98944200Y-61641400D01*
X98918200Y-61643400D01*
X98892200Y-61644400D01*
X98342200Y-61644400D01*
X98316200Y-61643400D01*
X98290200Y-61641400D01*
X98264200Y-61638400D01*
X98238200Y-61633400D01*
X98213200Y-61627400D01*
X98187200Y-61620400D01*
X98163200Y-61611400D01*
X98139200Y-61601400D01*
X98115200Y-61590400D01*
X98092200Y-61577400D01*
X98070200Y-61563400D01*
X98048200Y-61549400D01*
X98027200Y-61533400D01*
X98007200Y-61516400D01*
X97988200Y-61498400D01*
X97970200Y-61479400D01*
X97953200Y-61459400D01*
X97937200Y-61438400D01*
X97923200Y-61416400D01*
X97909200Y-61394400D01*
X97896200Y-61371400D01*
X97885200Y-61347400D01*
X97875200Y-61323400D01*
X97866200Y-61299400D01*
X97859200Y-61273400D01*
X97853200Y-61248400D01*
X97848200Y-61222400D01*
X97845200Y-61196400D01*
X97843200Y-61170400D01*
X97842200Y-61144400D01*
X97842200Y-59999400D01*
X99392200Y-59999400D01*
X99392200Y-61144400D01*
G37*
%TD.AperFunction*%
%TD*%
D11*
%TO.P,H4,1*%
%TO.N,N/C*%
X173622000Y-78740000D03*
X174324944Y-77042944D03*
X174324944Y-80437056D03*
X176022000Y-76340000D03*
D12*
X176022000Y-78740000D03*
D11*
X176022000Y-81140000D03*
X177719056Y-77042944D03*
X177719056Y-80437056D03*
X178422000Y-78740000D03*
%TD*%
%TO.P,H3,1*%
%TO.N,N/C*%
X98869800Y-118262400D03*
X99572744Y-116565344D03*
X99572744Y-119959456D03*
X101269800Y-115862400D03*
D12*
X101269800Y-118262400D03*
D11*
X101269800Y-120662400D03*
X102966856Y-116565344D03*
X102966856Y-119959456D03*
X103669800Y-118262400D03*
%TD*%
%TO.P,H2,1*%
%TO.N,N/C*%
X184869456Y-30627656D03*
X185572400Y-28930600D03*
X185572400Y-32324712D03*
X187269456Y-28227656D03*
D12*
X187269456Y-30627656D03*
D11*
X187269456Y-33027656D03*
X188966512Y-28930600D03*
X188966512Y-32324712D03*
X189669456Y-30627656D03*
%TD*%
%TO.P,H1,1*%
%TO.N,N/C*%
X118783400Y-46329600D03*
X119486344Y-44632544D03*
X119486344Y-48026656D03*
X121183400Y-43929600D03*
D12*
X121183400Y-46329600D03*
D11*
X121183400Y-48729600D03*
X122880456Y-44632544D03*
X122880456Y-48026656D03*
X123583400Y-46329600D03*
%TD*%
D13*
%TO.P,D7,1,K*%
%TO.N,Net-(D6-A)*%
X174371000Y-118439200D03*
%TO.P,D7,2,A*%
%TO.N,Net-(D7-A)*%
X174371000Y-115139200D03*
%TD*%
D14*
%TO.P,D6,1,K*%
%TO.N,GND*%
X171805600Y-115140200D03*
%TO.P,D6,2,A*%
%TO.N,Net-(D6-A)*%
X171805600Y-118440200D03*
%TD*%
%TO.P,D5,1,K*%
%TO.N,Net-(D5-K)*%
X168579800Y-99620800D03*
%TO.P,D5,2,A*%
%TO.N,Net-(D5-A)*%
X168579800Y-102920800D03*
%TD*%
D15*
%TO.P,F1,1*%
%TO.N,Net-(J1-VBUS)*%
X108403300Y-72517000D03*
%TO.P,F1,2*%
%TO.N,+5V*%
X112678300Y-72517000D03*
%TD*%
D16*
%TO.P,R39,1*%
%TO.N,Net-(U6A--)*%
X165624000Y-50892200D03*
%TO.P,R39,2*%
%TO.N,Net-(J6-Pin_2)*%
X165624000Y-52892200D03*
%TD*%
D17*
%TO.P,C12,1*%
%TO.N,/XTAL_1*%
X145872200Y-87993400D03*
%TO.P,C12,2*%
%TO.N,GND*%
X145872200Y-90068400D03*
%TD*%
D16*
%TO.P,R24,1*%
%TO.N,Net-(R23-Pad2)*%
X138150600Y-59553600D03*
%TO.P,R24,2*%
%TO.N,DAC_6*%
X138150600Y-61553600D03*
%TD*%
D18*
%TO.P,J2,1,1*%
%TO.N,FTDI_VCC*%
X101292200Y-56399400D03*
%TO.P,J2,2,2*%
%TO.N,/S-*%
X101292200Y-57049400D03*
%TO.P,J2,3,3*%
%TO.N,/S+*%
X101292200Y-57699400D03*
%TO.P,J2,4,4*%
%TO.N,unconnected-(J2-Pad4)*%
X101292200Y-58349400D03*
%TO.P,J2,5,5*%
%TO.N,GND*%
X101292200Y-58999400D03*
D19*
%TO.P,J2,S1,SHIELD*%
%TO.N,unconnected-(J2-SHIELD-PadS1)*%
X101317200Y-55199400D03*
%TO.P,J2,S2,SHIELD__1*%
%TO.N,unconnected-(J2-SHIELD__1-PadS2)*%
X101317200Y-60199400D03*
D20*
%TO.P,J2,S3,SHIELD__2*%
%TO.N,unconnected-(J2-SHIELD__2-PadS3)*%
X98617200Y-54174400D03*
D21*
%TO.P,J2,S4,SHIELD__3*%
%TO.N,unconnected-(J2-SHIELD__3-PadS4)*%
X98617200Y-56699400D03*
%TO.P,J2,S5,SHIELD__4*%
%TO.N,unconnected-(J2-SHIELD__4-PadS5)*%
X98617200Y-58699400D03*
D20*
%TO.P,J2,S6,SHIELD__5*%
%TO.N,unconnected-(J2-SHIELD__5-PadS6)*%
X98617200Y-61224400D03*
%TD*%
D22*
%TO.P,C9,1*%
%TO.N,/OSCIN*%
X158854100Y-82050800D03*
%TO.P,C9,2*%
%TO.N,GND*%
X158854100Y-79975800D03*
%TD*%
D17*
%TO.P,C10,1*%
%TO.N,/OSCOUT*%
X158904900Y-72355800D03*
%TO.P,C10,2*%
%TO.N,GND*%
X158904900Y-74430800D03*
%TD*%
D23*
%TO.P,C30,1*%
%TO.N,GND*%
X191782700Y-108483400D03*
%TO.P,C30,2*%
%TO.N,VEE*%
X186321700Y-108483400D03*
%TD*%
D17*
%TO.P,C29,1*%
%TO.N,Net-(D7-A)*%
X176784000Y-115827900D03*
%TO.P,C29,2*%
%TO.N,GND*%
X176784000Y-117902900D03*
%TD*%
D24*
%TO.P,C20,1*%
%TO.N,GND*%
X148543100Y-48895000D03*
%TO.P,C20,2*%
%TO.N,VEE*%
X150618100Y-48895000D03*
%TD*%
D25*
%TO.P,SW3,1,1*%
%TO.N,GND*%
X128091000Y-110504800D03*
X121591000Y-110504800D03*
%TO.P,SW3,2,2*%
%TO.N,/SW_CURSOR*%
X128091000Y-106004800D03*
X121591000Y-106004800D03*
%TD*%
D16*
%TO.P,R15,1*%
%TO.N,Net-(R13-Pad2)*%
X152933400Y-59680600D03*
%TO.P,R15,2*%
%TO.N,DAC_2*%
X152933400Y-61680600D03*
%TD*%
D26*
%TO.P,U7,1,SwC*%
%TO.N,Net-(D5-A)*%
X164843000Y-108850200D03*
%TO.P,U7,2,SwE*%
%TO.N,GND*%
X164843000Y-107580200D03*
%TO.P,U7,3,TC*%
%TO.N,Net-(U7-TC)*%
X164843000Y-106310200D03*
%TO.P,U7,4,GND*%
%TO.N,GND*%
X164843000Y-105040200D03*
%TO.P,U7,5,Vfb*%
%TO.N,Net-(U7-Vfb)*%
X159893000Y-105040200D03*
%TO.P,U7,6,Vin*%
%TO.N,+5V*%
X159893000Y-106310200D03*
%TO.P,U7,7,Ipk*%
%TO.N,Net-(U7-Ipk)*%
X159893000Y-107580200D03*
%TO.P,U7,8,DC*%
%TO.N,Net-(U7-DC)*%
X159893000Y-108850200D03*
%TD*%
D27*
%TO.P,R2,1*%
%TO.N,/BOOT0*%
X142052800Y-93751400D03*
%TO.P,R2,2*%
%TO.N,Net-(R2-Pad2)*%
X144052800Y-93751400D03*
%TD*%
D28*
%TO.P,J1,1,VBUS*%
%TO.N,Net-(J1-VBUS)*%
X104640800Y-78257600D03*
%TO.P,J1,2,D-*%
%TO.N,/D-*%
X104640800Y-79057600D03*
%TO.P,J1,3,D+*%
%TO.N,/D+*%
X104640800Y-79857600D03*
%TO.P,J1,4,ID*%
%TO.N,/ID*%
X104640800Y-80657600D03*
%TO.P,J1,5,GND*%
%TO.N,GND*%
X104640800Y-81457600D03*
D29*
%TO.P,J1,6,Shield*%
%TO.N,unconnected-(J1-Shield-Pad6)_2*%
X104640800Y-75457600D03*
%TO.N,unconnected-(J1-Shield-Pad6)*%
X99140800Y-75457600D03*
%TO.N,unconnected-(J1-Shield-Pad6)_1*%
X104640800Y-84257600D03*
%TO.N,unconnected-(J1-Shield-Pad6)_0*%
X99140800Y-84257600D03*
%TD*%
D17*
%TO.P,C16,1*%
%TO.N,+3.3V*%
X126263400Y-88599100D03*
%TO.P,C16,2*%
%TO.N,GND*%
X126263400Y-90674100D03*
%TD*%
D30*
%TO.P,R31,1*%
%TO.N,Net-(D5-K)*%
X163342600Y-100711000D03*
%TO.P,R31,2*%
%TO.N,Net-(U7-Vfb)*%
X161342600Y-100711000D03*
%TD*%
D16*
%TO.P,R38,1*%
%TO.N,Net-(U4B-+)*%
X160486600Y-47158400D03*
%TO.P,R38,2*%
%TO.N,Net-(C34-Pad1)*%
X160486600Y-49158400D03*
%TD*%
D31*
%TO.P,R17,1*%
%TO.N,Net-(R13-Pad2)*%
X151130000Y-57565800D03*
%TO.P,R17,2*%
%TO.N,Net-(R16-Pad1)*%
X151130000Y-55565800D03*
%TD*%
D32*
%TO.P,U2,1,I/O1*%
%TO.N,/USB_CONN_D-*%
X114965900Y-78526600D03*
%TO.P,U2,2,GND*%
%TO.N,GND*%
X114965900Y-79476600D03*
%TO.P,U2,3,I/O2*%
%TO.N,/USB_CONN_D+*%
X114965900Y-80426600D03*
%TO.P,U2,4,I/O2*%
%TO.N,/USB_D+*%
X117240900Y-80426600D03*
%TO.P,U2,5,VBUS*%
%TO.N,+5V*%
X117240900Y-79476600D03*
%TO.P,U2,6,I/O1*%
%TO.N,/USB_D-*%
X117240900Y-78526600D03*
%TD*%
D31*
%TO.P,R35,1*%
%TO.N,+5V*%
X191185800Y-62798200D03*
%TO.P,R35,2*%
%TO.N,Net-(R35-Pad2)*%
X191185800Y-60798200D03*
%TD*%
D33*
%TO.P,D1,1,K*%
%TO.N,GND*%
X117516800Y-93522800D03*
%TO.P,D1,2,A*%
%TO.N,Net-(D1-A)*%
X119566800Y-93522800D03*
%TD*%
D16*
%TO.P,R22,1*%
%TO.N,Net-(R21-Pad2)*%
X141859000Y-59629800D03*
%TO.P,R22,2*%
%TO.N,DAC_5*%
X141859000Y-61629800D03*
%TD*%
D27*
%TO.P,R7,1*%
%TO.N,Net-(D3-A)*%
X108194600Y-52552600D03*
%TO.P,R7,2*%
%TO.N,Net-(U5-CBUS1)*%
X110194600Y-52552600D03*
%TD*%
D25*
%TO.P,SW2,1,1*%
%TO.N,GND*%
X117550000Y-110428600D03*
X111050000Y-110428600D03*
%TO.P,SW2,2,2*%
%TO.N,/SW_MODE*%
X117550000Y-105928600D03*
X111050000Y-105928600D03*
%TD*%
D16*
%TO.P,R26,1*%
%TO.N,Net-(R25-Pad1)*%
X134442200Y-59544200D03*
%TO.P,R26,2*%
%TO.N,DAC_7*%
X134442200Y-61544200D03*
%TD*%
D34*
%TO.P,C34,1*%
%TO.N,Net-(C34-Pad1)*%
X160320900Y-45008800D03*
%TO.P,C34,2*%
%TO.N,Net-(J6-Pin_3)*%
X158245900Y-45008800D03*
%TD*%
D31*
%TO.P,R21,1*%
%TO.N,Net-(R19-Pad2)*%
X143738600Y-57464200D03*
%TO.P,R21,2*%
%TO.N,Net-(R21-Pad2)*%
X143738600Y-55464200D03*
%TD*%
D35*
%TO.P,J6,1,Pin_1*%
%TO.N,Net-(J6-Pin_1)*%
X164820600Y-30530800D03*
D36*
%TO.P,J6,2,Pin_2*%
%TO.N,Net-(J6-Pin_2)*%
X167360600Y-30530800D03*
%TO.P,J6,3,Pin_3*%
%TO.N,Net-(J6-Pin_3)*%
X169900600Y-30530800D03*
%TD*%
D17*
%TO.P,C1,1*%
%TO.N,+3.3V*%
X131296400Y-82736900D03*
%TO.P,C1,2*%
%TO.N,GND*%
X131296400Y-84811900D03*
%TD*%
D37*
%TO.P,Y2,1*%
%TO.N,/XTAL_1*%
X148521300Y-86175400D03*
%TO.P,Y2,2,NC*%
%TO.N,unconnected-(Y2-NC-Pad2)*%
X148521300Y-91675400D03*
%TO.P,Y2,3,NC__1*%
%TO.N,unconnected-(Y2-NC__1-Pad3)*%
X151721300Y-91675400D03*
%TO.P,Y2,4*%
%TO.N,/XTAL_2*%
X151721300Y-86175400D03*
%TD*%
D16*
%TO.P,R42,1*%
%TO.N,Net-(C35-Pad2)*%
X176072800Y-50485800D03*
%TO.P,R42,2*%
%TO.N,Net-(U6B--)*%
X176072800Y-52485800D03*
%TD*%
D24*
%TO.P,C24,1*%
%TO.N,Net-(U7-TC)*%
X167201800Y-106934000D03*
%TO.P,C24,2*%
%TO.N,GND*%
X169276800Y-106934000D03*
%TD*%
D38*
%TO.P,U1,1,VBAT*%
%TO.N,unconnected-(U1-VBAT-Pad1)*%
X143433800Y-81165200D03*
%TO.P,U1,2,PC13*%
%TO.N,unconnected-(U1-PC13-Pad2)*%
X143433800Y-80665200D03*
%TO.P,U1,3,PC14*%
%TO.N,/XTAL_1*%
X143433800Y-80165200D03*
%TO.P,U1,4,PC15*%
%TO.N,/XTAL_2*%
X143433800Y-79665200D03*
%TO.P,U1,5,PH0*%
%TO.N,/OSCIN*%
X143433800Y-79165200D03*
%TO.P,U1,6,PH1*%
%TO.N,/OSCOUT*%
X143433800Y-78665200D03*
%TO.P,U1,7,NRST*%
%TO.N,/RESET*%
X143433800Y-78165200D03*
%TO.P,U1,8,PC0*%
%TO.N,unconnected-(U1-PC0-Pad8)*%
X143433800Y-77665200D03*
%TO.P,U1,9,PC1*%
%TO.N,unconnected-(U1-PC1-Pad9)*%
X143433800Y-77165200D03*
%TO.P,U1,10,PC2*%
%TO.N,unconnected-(U1-PC2-Pad10)*%
X143433800Y-76665200D03*
%TO.P,U1,11,PC3*%
%TO.N,unconnected-(U1-PC3-Pad11)*%
X143433800Y-76165200D03*
%TO.P,U1,12,VSSA*%
%TO.N,GND*%
X143433800Y-75665200D03*
%TO.P,U1,13,VDDA*%
%TO.N,+3.3V*%
X143433800Y-75165200D03*
%TO.P,U1,14,PA0*%
%TO.N,DAC_0*%
X143433800Y-74665200D03*
%TO.P,U1,15,PA1*%
%TO.N,DAC_1*%
X143433800Y-74165200D03*
%TO.P,U1,16,PA2*%
%TO.N,DAC_2*%
X143433800Y-73665200D03*
D39*
%TO.P,U1,17,PA3*%
%TO.N,DAC_3*%
X141508800Y-71740200D03*
%TO.P,U1,18,VSS*%
%TO.N,GND*%
X141008800Y-71740200D03*
%TO.P,U1,19,VDD*%
%TO.N,+3.3V*%
X140508800Y-71740200D03*
%TO.P,U1,20,PA4*%
%TO.N,DAC_4*%
X140008800Y-71740200D03*
%TO.P,U1,21,PA5*%
%TO.N,DAC_5*%
X139508800Y-71740200D03*
%TO.P,U1,22,PA6*%
%TO.N,DAC_6*%
X139008800Y-71740200D03*
%TO.P,U1,23,PA7*%
%TO.N,DAC_7*%
X138508800Y-71740200D03*
%TO.P,U1,24,PC4*%
%TO.N,unconnected-(U1-PC4-Pad24)*%
X138008800Y-71740200D03*
%TO.P,U1,25,PC5*%
%TO.N,unconnected-(U1-PC5-Pad25)*%
X137508800Y-71740200D03*
%TO.P,U1,26,PB0*%
%TO.N,unconnected-(U1-PB0-Pad26)*%
X137008800Y-71740200D03*
%TO.P,U1,27,PB1*%
%TO.N,unconnected-(U1-PB1-Pad27)*%
X136508800Y-71740200D03*
%TO.P,U1,28,PB2*%
%TO.N,GND*%
X136008800Y-71740200D03*
%TO.P,U1,29,PB10*%
%TO.N,/D7*%
X135508800Y-71740200D03*
%TO.P,U1,30,PB11*%
%TO.N,/D6*%
X135008800Y-71740200D03*
%TO.P,U1,31,VCAP_1*%
%TO.N,Net-(U1-VCAP_1)*%
X134508800Y-71740200D03*
%TO.P,U1,32,VDD*%
%TO.N,+3.3V*%
X134008800Y-71740200D03*
D38*
%TO.P,U1,33,PB12*%
%TO.N,/D5*%
X132083800Y-73665200D03*
%TO.P,U1,34,PB13*%
%TO.N,/D4*%
X132083800Y-74165200D03*
%TO.P,U1,35,PB14*%
%TO.N,/E*%
X132083800Y-74665200D03*
%TO.P,U1,36,PB15*%
%TO.N,/RS*%
X132083800Y-75165200D03*
%TO.P,U1,37,PC6*%
%TO.N,/FTDI_RX*%
X132083800Y-75665200D03*
%TO.P,U1,38,PC7*%
%TO.N,/FTDI_TX*%
X132083800Y-76165200D03*
%TO.P,U1,39,PC8*%
%TO.N,unconnected-(U1-PC8-Pad39)*%
X132083800Y-76665200D03*
%TO.P,U1,40,PC9*%
%TO.N,unconnected-(U1-PC9-Pad40)*%
X132083800Y-77165200D03*
%TO.P,U1,41,PA8*%
%TO.N,unconnected-(U1-PA8-Pad41)*%
X132083800Y-77665200D03*
%TO.P,U1,42,PA9*%
%TO.N,unconnected-(U1-PA9-Pad42)*%
X132083800Y-78165200D03*
%TO.P,U1,43,PA10*%
%TO.N,/OTG_ID*%
X132083800Y-78665200D03*
%TO.P,U1,44,PA11*%
%TO.N,/USB_D-*%
X132083800Y-79165200D03*
%TO.P,U1,45,PA12*%
%TO.N,/USB_D+*%
X132083800Y-79665200D03*
%TO.P,U1,46,PA13*%
%TO.N,/SWDIO*%
X132083800Y-80165200D03*
%TO.P,U1,47,VCAP_2*%
%TO.N,Net-(U1-VCAP_2)*%
X132083800Y-80665200D03*
%TO.P,U1,48,VDD*%
%TO.N,+3.3V*%
X132083800Y-81165200D03*
D39*
%TO.P,U1,49,PA14*%
%TO.N,/SWCLK*%
X134008800Y-83090200D03*
%TO.P,U1,50,PA15*%
%TO.N,unconnected-(U1-PA15-Pad50)*%
X134508800Y-83090200D03*
%TO.P,U1,51,PC10*%
%TO.N,unconnected-(U1-PC10-Pad51)*%
X135008800Y-83090200D03*
%TO.P,U1,52,PC11*%
%TO.N,unconnected-(U1-PC11-Pad52)*%
X135508800Y-83090200D03*
%TO.P,U1,53,PC12*%
%TO.N,unconnected-(U1-PC12-Pad53)*%
X136008800Y-83090200D03*
%TO.P,U1,54,PD2*%
%TO.N,unconnected-(U1-PD2-Pad54)*%
X136508800Y-83090200D03*
%TO.P,U1,55,PB3*%
%TO.N,/SWO*%
X137008800Y-83090200D03*
%TO.P,U1,56,PB4*%
%TO.N,/SW_RUN_STOP*%
X137508800Y-83090200D03*
%TO.P,U1,57,PB5*%
%TO.N,/SW_MODE*%
X138008800Y-83090200D03*
%TO.P,U1,58,PB6*%
%TO.N,/SW_CURSOR*%
X138508800Y-83090200D03*
%TO.P,U1,59,PB7*%
%TO.N,/SW_PLUS*%
X139008800Y-83090200D03*
%TO.P,U1,60,BOOT0*%
%TO.N,/BOOT0*%
X139508800Y-83090200D03*
%TO.P,U1,61,PB8*%
%TO.N,/SW_MINUS*%
X140008800Y-83090200D03*
%TO.P,U1,62,PB9*%
%TO.N,unconnected-(U1-PB9-Pad62)*%
X140508800Y-83090200D03*
%TO.P,U1,63,VSS*%
%TO.N,GND*%
X141008800Y-83090200D03*
%TO.P,U1,64,VDD*%
%TO.N,+3.3V*%
X141508800Y-83090200D03*
%TD*%
D31*
%TO.P,R37,1*%
%TO.N,Net-(C34-Pad1)*%
X160350200Y-42630600D03*
%TO.P,R37,2*%
%TO.N,Net-(J6-Pin_1)*%
X160350200Y-40630600D03*
%TD*%
D34*
%TO.P,C3,1*%
%TO.N,+3.3V*%
X132384700Y-70871200D03*
%TO.P,C3,2*%
%TO.N,GND*%
X130309700Y-70871200D03*
%TD*%
D31*
%TO.P,R19,1*%
%TO.N,Net-(R16-Pad1)*%
X147523200Y-57515000D03*
%TO.P,R19,2*%
%TO.N,Net-(R19-Pad2)*%
X147523200Y-55515000D03*
%TD*%
D34*
%TO.P,C19,1*%
%TO.N,VCC*%
X155647300Y-40716200D03*
%TO.P,C19,2*%
%TO.N,GND*%
X153572300Y-40716200D03*
%TD*%
D40*
%TO.P,Y1,1*%
%TO.N,/OSCIN*%
X154840900Y-82181900D03*
%TO.P,Y1,2*%
%TO.N,/OSCOUT*%
X154840900Y-72681900D03*
D41*
%TO.P,Y1,3,GND*%
%TO.N,GND*%
X155790900Y-77431900D03*
%TD*%
D17*
%TO.P,C28,1*%
%TO.N,Net-(D5-A)*%
X169392600Y-115802500D03*
%TO.P,C28,2*%
%TO.N,Net-(D6-A)*%
X169392600Y-117877500D03*
%TD*%
D42*
%TO.P,C27,1*%
%TO.N,GND*%
X187502800Y-117221000D03*
%TO.P,C27,2*%
%TO.N,Net-(D7-A)*%
X180746400Y-117221000D03*
%TD*%
D27*
%TO.P,R4,1*%
%TO.N,/D-*%
X109439200Y-78435200D03*
%TO.P,R4,2*%
%TO.N,/USB_CONN_D-*%
X111439200Y-78435200D03*
%TD*%
%TO.P,R5,1*%
%TO.N,/ID*%
X109439200Y-82727800D03*
%TO.P,R5,2*%
%TO.N,/OTG_ID*%
X111439200Y-82727800D03*
%TD*%
D24*
%TO.P,C4,1*%
%TO.N,+3.3V*%
X141206300Y-69347200D03*
%TO.P,C4,2*%
%TO.N,GND*%
X143281300Y-69347200D03*
%TD*%
D35*
%TO.P,J3,1,Pin_1*%
%TO.N,GND*%
X123469400Y-77124800D03*
D36*
%TO.P,J3,2,Pin_2*%
%TO.N,/FTDI_TX*%
X123469400Y-74584800D03*
%TO.P,J3,3,Pin_3*%
%TO.N,/FTDI_RX*%
X123469400Y-72044800D03*
%TD*%
D43*
%TO.P,C23,1*%
%TO.N,+5V*%
X157237200Y-102844600D03*
%TO.P,C23,2*%
%TO.N,GND*%
X157237200Y-99136200D03*
%TD*%
D22*
%TO.P,C35,1*%
%TO.N,Net-(U6B--)*%
X178308000Y-52497900D03*
%TO.P,C35,2*%
%TO.N,Net-(C35-Pad2)*%
X178308000Y-50422900D03*
%TD*%
D35*
%TO.P,J7,1,Pin_1*%
%TO.N,GND*%
X178205600Y-90987400D03*
D36*
%TO.P,J7,2,Pin_2*%
%TO.N,Net-(J7-Pin_2)*%
X178205600Y-93527400D03*
%TO.P,J7,3,Pin_3*%
%TO.N,Net-(J7-Pin_3)*%
X178205600Y-96067400D03*
%TD*%
D16*
%TO.P,R12,1*%
%TO.N,Net-(R11-Pad2)*%
X156616400Y-59680600D03*
%TO.P,R12,2*%
%TO.N,DAC_1*%
X156616400Y-61680600D03*
%TD*%
D31*
%TO.P,R28,1*%
%TO.N,Net-(U7-Ipk)*%
X155078200Y-106791000D03*
%TO.P,R28,2*%
%TO.N,+5V*%
X155078200Y-104791000D03*
%TD*%
D16*
%TO.P,R16,1*%
%TO.N,Net-(R16-Pad1)*%
X149250400Y-59655200D03*
%TO.P,R16,2*%
%TO.N,DAC_3*%
X149250400Y-61655200D03*
%TD*%
D25*
%TO.P,SW4,1,1*%
%TO.N,GND*%
X138860600Y-110606400D03*
X132360600Y-110606400D03*
%TO.P,SW4,2,2*%
%TO.N,/SW_PLUS*%
X138860600Y-106106400D03*
X132360600Y-106106400D03*
%TD*%
D33*
%TO.P,D4,1,K*%
%TO.N,GND*%
X113361800Y-66113300D03*
%TO.P,D4,2,A*%
%TO.N,Net-(D4-A)*%
X115411800Y-66113300D03*
%TD*%
D17*
%TO.P,C6,1*%
%TO.N,/RESET*%
X166956700Y-74861600D03*
%TO.P,C6,2*%
%TO.N,GND*%
X166956700Y-76936600D03*
%TD*%
D27*
%TO.P,R43,1*%
%TO.N,Net-(U6B--)*%
X178206400Y-54584600D03*
%TO.P,R43,2*%
%TO.N,GND*%
X180206400Y-54584600D03*
%TD*%
D16*
%TO.P,R1,1*%
%TO.N,Net-(D2-A)*%
X115138200Y-71526400D03*
%TO.P,R1,2*%
%TO.N,+5V*%
X115138200Y-73526400D03*
%TD*%
D35*
%TO.P,J5,1,Pin_1*%
%TO.N,GND*%
X105664000Y-36499800D03*
D36*
%TO.P,J5,2,Pin_2*%
%TO.N,+5V*%
X108204000Y-36499800D03*
%TO.P,J5,3,Pin_3*%
%TO.N,Net-(J5-Pin_3)*%
X110744000Y-36499800D03*
%TO.P,J5,4,Pin_4*%
%TO.N,/RS*%
X113284000Y-36499800D03*
%TO.P,J5,5,Pin_5*%
%TO.N,GND*%
X115824000Y-36499800D03*
%TO.P,J5,6,Pin_6*%
%TO.N,/E*%
X118364000Y-36499800D03*
%TO.P,J5,7,Pin_7*%
%TO.N,/D0*%
X120904000Y-36499800D03*
%TO.P,J5,8,Pin_8*%
%TO.N,/D1*%
X123444000Y-36499800D03*
%TO.P,J5,9,Pin_9*%
%TO.N,/D2*%
X125984000Y-36499800D03*
%TO.P,J5,10,Pin_10*%
%TO.N,/D3*%
X128524000Y-36499800D03*
%TO.P,J5,11,Pin_11*%
%TO.N,/D4*%
X131064000Y-36499800D03*
%TO.P,J5,12,Pin_12*%
%TO.N,/D5*%
X133604000Y-36499800D03*
%TO.P,J5,13,Pin_13*%
%TO.N,/D6*%
X136144000Y-36499800D03*
%TO.P,J5,14,Pin_14*%
%TO.N,/D7*%
X138684000Y-36499800D03*
%TO.P,J5,15,Pin_15*%
%TO.N,/A*%
X141224000Y-36499800D03*
%TO.P,J5,16,Pin_16*%
%TO.N,GND*%
X143764000Y-36499800D03*
%TD*%
D44*
%TO.P,C26,1*%
%TO.N,VCC*%
X177520600Y-105448100D03*
%TO.P,C26,2*%
%TO.N,GND*%
X177520600Y-110909100D03*
%TD*%
D45*
%TO.P,RV3,1,1*%
%TO.N,Net-(R35-Pad2)*%
X187096400Y-60756800D03*
%TO.P,RV3,2,2*%
%TO.N,Net-(U4A-+)*%
X187096400Y-63296800D03*
%TO.P,RV3,3,3*%
%TO.N,Net-(R36-Pad1)*%
X187096400Y-65836800D03*
%TD*%
D34*
%TO.P,C18,1*%
%TO.N,GND*%
X114194500Y-52527200D03*
%TO.P,C18,2*%
%TO.N,FTDI_VCC*%
X112119500Y-52527200D03*
%TD*%
D17*
%TO.P,C14,1*%
%TO.N,+3.3V*%
X128629500Y-88599100D03*
%TO.P,C14,2*%
%TO.N,GND*%
X128629500Y-90674100D03*
%TD*%
D25*
%TO.P,SW6,1,1*%
%TO.N,GND*%
X106780400Y-110428600D03*
X100280400Y-110428600D03*
%TO.P,SW6,2,2*%
%TO.N,/SW_RUN_STOP*%
X106780400Y-105928600D03*
X100280400Y-105928600D03*
%TD*%
D46*
%TO.P,U5,1,TXD*%
%TO.N,/FTDI_TX*%
X109550200Y-59835400D03*
%TO.P,U5,2,~{RTS}*%
%TO.N,unconnected-(U5-~{RTS}-Pad2)*%
X110185200Y-59835400D03*
%TO.P,U5,3,VCCIO*%
%TO.N,/MODE*%
X110820200Y-59835400D03*
%TO.P,U5,4,RXD*%
%TO.N,/FTDI_RX*%
X111455200Y-59835400D03*
%TO.P,U5,5,GND*%
%TO.N,GND*%
X112090200Y-59835400D03*
%TO.P,U5,6,~{CTS}*%
%TO.N,unconnected-(U5-~{CTS}-Pad6)*%
X112725200Y-59835400D03*
%TO.P,U5,7,CBUS2*%
%TO.N,Net-(U5-CBUS2)*%
X113360200Y-59835400D03*
%TO.P,U5,8,USBDP*%
%TO.N,/FTDI_D+*%
X113995200Y-59835400D03*
%TO.P,U5,9,USBDM*%
%TO.N,/FTDI_D-*%
X113995200Y-54635400D03*
%TO.P,U5,10,3V3OUT*%
%TO.N,/MODE*%
X113360200Y-54635400D03*
%TO.P,U5,11,~{RESET}*%
X112725200Y-54635400D03*
%TO.P,U5,12,VCC*%
%TO.N,FTDI_VCC*%
X112090200Y-54635400D03*
%TO.P,U5,13,GND*%
%TO.N,GND*%
X111455200Y-54635400D03*
%TO.P,U5,14,CBUS1*%
%TO.N,Net-(U5-CBUS1)*%
X110820200Y-54635400D03*
%TO.P,U5,15,CBUS0*%
%TO.N,unconnected-(U5-CBUS0-Pad15)*%
X110185200Y-54635400D03*
%TO.P,U5,16,CBUS3*%
%TO.N,unconnected-(U5-CBUS3-Pad16)*%
X109550200Y-54635400D03*
%TD*%
D30*
%TO.P,R8,1*%
%TO.N,Net-(D4-A)*%
X115366800Y-63878100D03*
%TO.P,R8,2*%
%TO.N,Net-(U5-CBUS2)*%
X113366800Y-63878100D03*
%TD*%
D31*
%TO.P,R32,1*%
%TO.N,VCC*%
X171094400Y-102371400D03*
%TO.P,R32,2*%
%TO.N,Net-(D5-K)*%
X171094400Y-100371400D03*
%TD*%
%TO.P,R13,1*%
%TO.N,Net-(R11-Pad2)*%
X154863800Y-57591200D03*
%TO.P,R13,2*%
%TO.N,Net-(R13-Pad2)*%
X154863800Y-55591200D03*
%TD*%
D45*
%TO.P,RV2,1,1*%
%TO.N,/A*%
X142976600Y-30708600D03*
%TO.P,RV2,2,2*%
X140436600Y-30708600D03*
%TO.P,RV2,3,3*%
%TO.N,+5V*%
X137896600Y-30708600D03*
%TD*%
D16*
%TO.P,R20,1*%
%TO.N,Net-(R19-Pad2)*%
X145542000Y-59655200D03*
%TO.P,R20,2*%
%TO.N,DAC_4*%
X145542000Y-61655200D03*
%TD*%
D30*
%TO.P,R29,1*%
%TO.N,GND*%
X163342600Y-102895400D03*
%TO.P,R29,2*%
%TO.N,Net-(U7-Vfb)*%
X161342600Y-102895400D03*
%TD*%
D22*
%TO.P,C33,1*%
%TO.N,GND*%
X158216600Y-49221300D03*
%TO.P,C33,2*%
%TO.N,Net-(U4B-+)*%
X158216600Y-47146300D03*
%TD*%
D30*
%TO.P,R40,1*%
%TO.N,Net-(U6B-+)*%
X173516800Y-55575200D03*
%TO.P,R40,2*%
%TO.N,Net-(R40-Pad2)*%
X171516800Y-55575200D03*
%TD*%
D17*
%TO.P,C7,1*%
%TO.N,Net-(U1-VCAP_2)*%
X129090500Y-81314500D03*
%TO.P,C7,2*%
%TO.N,GND*%
X129090500Y-83389500D03*
%TD*%
D47*
%TO.P,L1,1,1*%
%TO.N,Net-(D5-A)*%
X166806000Y-115824000D03*
%TO.P,L1,2,2*%
%TO.N,Net-(U7-Ipk)*%
X157806000Y-115824000D03*
%TD*%
D16*
%TO.P,R30,1*%
%TO.N,Net-(U7-Ipk)*%
X157288000Y-106832400D03*
%TO.P,R30,2*%
%TO.N,Net-(U7-DC)*%
X157288000Y-108832400D03*
%TD*%
D34*
%TO.P,C8,1*%
%TO.N,Net-(U1-VCAP_1)*%
X133785600Y-68712200D03*
%TO.P,C8,2*%
%TO.N,GND*%
X131710600Y-68712200D03*
%TD*%
D48*
%TO.P,D3,1,K*%
%TO.N,GND*%
X110197100Y-50320300D03*
%TO.P,D3,2,A*%
%TO.N,Net-(D3-A)*%
X108147100Y-50320300D03*
%TD*%
D49*
%TO.P,U4,1*%
%TO.N,Net-(J6-Pin_1)*%
X150661600Y-42875200D03*
%TO.P,U4,2,-*%
%TO.N,Net-(U4A--)*%
X150661600Y-44145200D03*
%TO.P,U4,3,+*%
%TO.N,Net-(U4A-+)*%
X150661600Y-45415200D03*
%TO.P,U4,4,V-*%
%TO.N,VEE*%
X150661600Y-46685200D03*
%TO.P,U4,5,+*%
%TO.N,Net-(U4B-+)*%
X155611600Y-46685200D03*
%TO.P,U4,6,-*%
%TO.N,Net-(J6-Pin_3)*%
X155611600Y-45415200D03*
%TO.P,U4,7*%
X155611600Y-44145200D03*
%TO.P,U4,8,V+*%
%TO.N,VCC*%
X155611600Y-42875200D03*
%TD*%
D50*
%TO.P,U3,1,GND*%
%TO.N,GND*%
X117246000Y-85519900D03*
%TO.P,U3,2,VO*%
%TO.N,+3.3V*%
X117246000Y-87819900D03*
D51*
X123546000Y-87819900D03*
D50*
%TO.P,U3,3,VI*%
%TO.N,+5V*%
X117246000Y-90119900D03*
%TD*%
D31*
%TO.P,R18,1*%
%TO.N,GND*%
X162382200Y-61690000D03*
%TO.P,R18,2*%
%TO.N,Net-(R11-Pad1)*%
X162382200Y-59690000D03*
%TD*%
D17*
%TO.P,C17,1*%
%TO.N,/MODE*%
X110845600Y-61827500D03*
%TO.P,C17,2*%
%TO.N,GND*%
X110845600Y-63902500D03*
%TD*%
D24*
%TO.P,C5,1*%
%TO.N,+3.3V*%
X145596700Y-76454000D03*
%TO.P,C5,2*%
%TO.N,GND*%
X147671700Y-76454000D03*
%TD*%
D34*
%TO.P,C15,1*%
%TO.N,+5V*%
X114630200Y-87960200D03*
%TO.P,C15,2*%
%TO.N,GND*%
X112555200Y-87960200D03*
%TD*%
D31*
%TO.P,R36,1*%
%TO.N,Net-(R36-Pad1)*%
X183108600Y-65871600D03*
%TO.P,R36,2*%
%TO.N,GND*%
X183108600Y-63871600D03*
%TD*%
D27*
%TO.P,R10,1*%
%TO.N,/S-*%
X104934000Y-56032400D03*
%TO.P,R10,2*%
%TO.N,/FTDI_D-*%
X106934000Y-56032400D03*
%TD*%
D31*
%TO.P,R11,1*%
%TO.N,Net-(R11-Pad1)*%
X158419800Y-57616600D03*
%TO.P,R11,2*%
%TO.N,Net-(R11-Pad2)*%
X158419800Y-55616600D03*
%TD*%
D45*
%TO.P,RV1,1,1*%
%TO.N,GND*%
X113309400Y-30607000D03*
%TO.P,RV1,2,2*%
%TO.N,Net-(J5-Pin_3)*%
X110769400Y-30607000D03*
%TO.P,RV1,3,3*%
%TO.N,+5V*%
X108229400Y-30607000D03*
%TD*%
D52*
%TO.P,D2,1,K*%
%TO.N,GND*%
X117615100Y-73503500D03*
%TO.P,D2,2,A*%
%TO.N,Net-(D2-A)*%
X117615100Y-71453500D03*
%TD*%
D35*
%TO.P,J4,1,Pin_1*%
%TO.N,+3.3V*%
X101396800Y-98475800D03*
D36*
%TO.P,J4,2,Pin_2*%
%TO.N,/SWCLK*%
X103936800Y-98475800D03*
%TO.P,J4,3,Pin_3*%
%TO.N,GND*%
X106476800Y-98475800D03*
%TO.P,J4,4,Pin_4*%
%TO.N,/SWDIO*%
X109016800Y-98475800D03*
%TO.P,J4,5,Pin_5*%
%TO.N,/RESET*%
X111556800Y-98475800D03*
%TO.P,J4,6,Pin_6*%
%TO.N,/SWO*%
X114096800Y-98475800D03*
%TD*%
D24*
%TO.P,C22,1*%
%TO.N,GND*%
X166627900Y-55528300D03*
%TO.P,C22,2*%
%TO.N,VEE*%
X168702900Y-55528300D03*
%TD*%
D27*
%TO.P,R9,1*%
%TO.N,/S+*%
X104908600Y-58724800D03*
%TO.P,R9,2*%
%TO.N,/FTDI_D+*%
X106908600Y-58724800D03*
%TD*%
D31*
%TO.P,R23,1*%
%TO.N,Net-(R21-Pad2)*%
X140030200Y-57362600D03*
%TO.P,R23,2*%
%TO.N,Net-(R23-Pad2)*%
X140030200Y-55362600D03*
%TD*%
D16*
%TO.P,R44,1*%
%TO.N,Net-(J8-Pad1)*%
X177952400Y-45329600D03*
%TO.P,R44,2*%
%TO.N,Net-(C35-Pad2)*%
X177952400Y-47329600D03*
%TD*%
D25*
%TO.P,SW5,1,1*%
%TO.N,GND*%
X149554000Y-110682600D03*
X143054000Y-110682600D03*
%TO.P,SW5,2,2*%
%TO.N,/SW_MINUS*%
X149554000Y-106182600D03*
X143054000Y-106182600D03*
%TD*%
D30*
%TO.P,R41,1*%
%TO.N,Net-(U6B-+)*%
X173542200Y-57835800D03*
%TO.P,R41,2*%
%TO.N,Net-(J7-Pin_2)*%
X171542200Y-57835800D03*
%TD*%
D34*
%TO.P,C13,1*%
%TO.N,+5V*%
X114630200Y-90242300D03*
%TO.P,C13,2*%
%TO.N,GND*%
X112555200Y-90242300D03*
%TD*%
D53*
%TO.P,RV5,1,1*%
%TO.N,VCC*%
X184647200Y-102468400D03*
D54*
%TO.P,RV5,2,2*%
%TO.N,Net-(J7-Pin_3)*%
X187147200Y-102468400D03*
%TO.P,RV5,3,3*%
%TO.N,VEE*%
X189647200Y-102468400D03*
D55*
%TO.P,RV5,MP*%
%TO.N,N/C*%
X182747200Y-95468400D03*
X191547200Y-95468400D03*
%TD*%
D16*
%TO.P,R14,1*%
%TO.N,Net-(R11-Pad1)*%
X160197800Y-59680600D03*
%TO.P,R14,2*%
%TO.N,DAC_0*%
X160197800Y-61680600D03*
%TD*%
D56*
%TO.P,S1,1*%
%TO.N,+3.3V*%
X149616800Y-96538600D03*
%TO.P,S1,2*%
%TO.N,Net-(R2-Pad2)*%
X147116800Y-96538600D03*
%TO.P,S1,3*%
%TO.N,GND*%
X144616800Y-96538600D03*
%TO.P,S1,4*%
%TO.N,unconnected-(S1-Pad4)*%
X149616800Y-102038600D03*
%TO.P,S1,5*%
%TO.N,unconnected-(S1-Pad5)*%
X147116800Y-102038600D03*
%TO.P,S1,6*%
%TO.N,unconnected-(S1-Pad6)*%
X144616800Y-102038600D03*
%TD*%
D16*
%TO.P,R27,1*%
%TO.N,Net-(J6-Pin_1)*%
X148056600Y-41748200D03*
%TO.P,R27,2*%
%TO.N,Net-(U4A--)*%
X148056600Y-43748200D03*
%TD*%
D57*
%TO.P,SW1,1,1*%
%TO.N,GND*%
X163705500Y-79080900D03*
%TO.P,SW1,2,2*%
%TO.N,/RESET*%
X163705500Y-72480900D03*
%TD*%
D16*
%TO.P,R33,1*%
%TO.N,VEE*%
X182651400Y-108829600D03*
%TO.P,R33,2*%
%TO.N,Net-(D7-A)*%
X182651400Y-110829600D03*
%TD*%
D17*
%TO.P,C11,1*%
%TO.N,/XTAL_2*%
X154305000Y-87866400D03*
%TO.P,C11,2*%
%TO.N,GND*%
X154305000Y-89941400D03*
%TD*%
D22*
%TO.P,C32,1*%
%TO.N,Net-(U4A--)*%
X145796000Y-43785700D03*
%TO.P,C32,2*%
%TO.N,Net-(J6-Pin_1)*%
X145796000Y-41710700D03*
%TD*%
D49*
%TO.P,U6,1*%
%TO.N,Net-(R40-Pad2)*%
X168554400Y-49595000D03*
%TO.P,U6,2,-*%
%TO.N,Net-(U6A--)*%
X168554400Y-50865000D03*
%TO.P,U6,3,+*%
%TO.N,GND*%
X168554400Y-52135000D03*
%TO.P,U6,4,V-*%
%TO.N,VEE*%
X168554400Y-53405000D03*
%TO.P,U6,5,+*%
%TO.N,Net-(U6B-+)*%
X173504400Y-53405000D03*
%TO.P,U6,6,-*%
%TO.N,Net-(U6B--)*%
X173504400Y-52135000D03*
%TO.P,U6,7*%
%TO.N,Net-(C35-Pad2)*%
X173504400Y-50865000D03*
%TO.P,U6,8,V+*%
%TO.N,VCC*%
X173504400Y-49595000D03*
%TD*%
D58*
%TO.P,C25,1*%
%TO.N,Net-(D5-K)*%
X165187400Y-96748600D03*
%TO.P,C25,2*%
%TO.N,GND*%
X165187400Y-89992200D03*
%TD*%
D17*
%TO.P,C2,1*%
%TO.N,+3.3V*%
X143416100Y-83930700D03*
%TO.P,C2,2*%
%TO.N,GND*%
X143416100Y-86005700D03*
%TD*%
D59*
%TO.P,J8,1,1*%
%TO.N,Net-(J8-Pad1)*%
X182318200Y-45262800D03*
D60*
%TO.P,J8,2,2*%
%TO.N,GND*%
X182318200Y-42722800D03*
D61*
%TO.P,J8,P1,SHIELD*%
%TO.N,unconnected-(J8-SHIELD-PadP1)*%
X187398200Y-40182800D03*
%TO.P,J8,P2,SHIELD__1*%
%TO.N,unconnected-(J8-SHIELD__1-PadP2)*%
X187398200Y-50342800D03*
%TD*%
D27*
%TO.P,R3,1*%
%TO.N,/D+*%
X109439200Y-80619600D03*
%TO.P,R3,2*%
%TO.N,/USB_CONN_D+*%
X111439200Y-80619600D03*
%TD*%
D16*
%TO.P,R25,1*%
%TO.N,Net-(R25-Pad1)*%
X136271000Y-55311800D03*
%TO.P,R25,2*%
%TO.N,Net-(R23-Pad2)*%
X136271000Y-57311800D03*
%TD*%
D53*
%TO.P,RV4,1,1*%
%TO.N,Net-(U6A--)*%
X184500600Y-85003400D03*
D54*
%TO.P,RV4,2,2*%
%TO.N,Net-(R40-Pad2)*%
X187000600Y-85003400D03*
%TO.P,RV4,3,3*%
X189500600Y-85003400D03*
D55*
%TO.P,RV4,MP*%
%TO.N,N/C*%
X182600600Y-78003400D03*
X191400600Y-78003400D03*
%TD*%
D16*
%TO.P,R34,1*%
%TO.N,Net-(U4A--)*%
X132232400Y-57385200D03*
%TO.P,R34,2*%
%TO.N,Net-(R25-Pad1)*%
X132232400Y-59385200D03*
%TD*%
D27*
%TO.P,R6,1*%
%TO.N,Net-(D1-A)*%
X121631200Y-93548200D03*
%TO.P,R6,2*%
%TO.N,+3.3V*%
X123631200Y-93548200D03*
%TD*%
D34*
%TO.P,C21,1*%
%TO.N,VCC*%
X173833700Y-47527300D03*
%TO.P,C21,2*%
%TO.N,GND*%
X171758700Y-47527300D03*
%TD*%
D62*
%TO.N,/FTDI_TX*%
X120192800Y-70612000D03*
X120192800Y-69215000D03*
X113614200Y-69037200D03*
X111912400Y-69011800D03*
%TO.N,/FTDI_RX*%
X111937800Y-69900800D03*
X113385600Y-69900800D03*
%TO.N,GND*%
X171805600Y-115951000D03*
X118414800Y-93522800D03*
X165709600Y-55524400D03*
X147650200Y-75387200D03*
X177825400Y-117906800D03*
X167259000Y-52146200D03*
X140766800Y-81788000D03*
X164261800Y-102895400D03*
X153316900Y-77431900D03*
X109789800Y-63902500D03*
X177546000Y-112801400D03*
X128030600Y-83384200D03*
X189585600Y-117195600D03*
X153316900Y-76746100D03*
X142356200Y-86025800D03*
X118567200Y-85521800D03*
X144830800Y-90068400D03*
X167998100Y-76949300D03*
X162382200Y-62611000D03*
X180187600Y-53543200D03*
X136006200Y-73071800D03*
X111455200Y-55600600D03*
X152654000Y-40665400D03*
X157853900Y-74434700D03*
X116103400Y-79959200D03*
X126263400Y-91592400D03*
X170840400Y-47523400D03*
X142113000Y-75946000D03*
X157226000Y-97536000D03*
X163525200Y-107619800D03*
X155346400Y-89941400D03*
X111633000Y-90271600D03*
X110196200Y-49276000D03*
X163728400Y-80721200D03*
X132348600Y-84806600D03*
X165176200Y-87934800D03*
X193662300Y-108483400D03*
X157803100Y-79971900D03*
X129667000Y-90652600D03*
X164846000Y-104394000D03*
X100152200Y-59004200D03*
X182067200Y-63855600D03*
X104648000Y-82042000D03*
X117602000Y-72593200D03*
X114198400Y-51460400D03*
X144185000Y-69338000D03*
X170180000Y-106934000D03*
X153316900Y-78117700D03*
X141224000Y-73152000D03*
X143687800Y-96545400D03*
X111633000Y-87960200D03*
X158216600Y-50139600D03*
X131713600Y-67661600D03*
X114260200Y-66113300D03*
X148539200Y-47853600D03*
X129402200Y-70887400D03*
X112090200Y-58877200D03*
%TO.N,/RESET*%
X140258800Y-78130400D03*
X141782800Y-78155800D03*
X136271000Y-84734400D03*
X136296400Y-80238600D03*
%TO.N,+5V*%
X120015000Y-80365600D03*
X119430800Y-78613000D03*
%TO.N,/OTG_ID*%
X127304800Y-80518000D03*
X114274600Y-82753200D03*
X127914400Y-78511400D03*
X115824000Y-83210400D03*
%TO.N,Net-(U5-CBUS2)*%
X113360200Y-61061600D03*
X113360200Y-62458600D03*
%TO.N,/SWDIO*%
X133375400Y-80365600D03*
X135178800Y-84810600D03*
%TO.N,/SW_MINUS*%
X140385800Y-94513400D03*
X140360400Y-92837000D03*
%TO.N,VCC*%
X164973000Y-60477400D03*
X162941000Y-45516800D03*
X164719000Y-45161200D03*
X164795200Y-56616600D03*
X157505400Y-43281600D03*
%TO.N,VEE*%
X168249600Y-59359800D03*
X169113200Y-70840600D03*
X172339000Y-70942200D03*
X183692800Y-69469000D03*
X168224200Y-60960000D03*
X181152800Y-69443600D03*
%TO.N,Net-(J6-Pin_3)*%
X158292800Y-36830000D03*
X158267400Y-38557200D03*
%TO.N,Net-(U6A--)*%
X170764200Y-86969600D03*
X169748200Y-60858400D03*
X172237400Y-86995000D03*
X169722800Y-59334400D03*
%TO.N,Net-(R40-Pad2)*%
X170840400Y-53086000D03*
X175666400Y-60883800D03*
X175336200Y-54610000D03*
X175666400Y-59410600D03*
%TO.N,Net-(U4A-+)*%
X170789600Y-60096400D03*
X172237400Y-60121800D03*
%TD*%
D63*
%TO.N,/FTDI_TX*%
X120990600Y-74584800D02*
X123469400Y-74584800D01*
X120192800Y-73787000D02*
X120990600Y-74584800D01*
X120015000Y-69037200D02*
X120192800Y-69215000D01*
X113614200Y-69037200D02*
X120015000Y-69037200D01*
X111810800Y-69113400D02*
X111912400Y-69011800D01*
X109347000Y-69113400D02*
X111810800Y-69113400D01*
X120192800Y-70612000D02*
X120192800Y-73787000D01*
%TO.N,/FTDI_RX*%
X123444000Y-72019400D02*
X123469400Y-72044800D01*
X123444000Y-70383400D02*
X123444000Y-72019400D01*
X122961400Y-69900800D02*
X123444000Y-70383400D01*
X113385600Y-69900800D02*
X122961400Y-69900800D01*
X108712000Y-69900800D02*
X111937800Y-69900800D01*
%TO.N,/FTDI_TX*%
X108839000Y-68605400D02*
X109347000Y-69113400D01*
X108839000Y-61112400D02*
X108839000Y-64160400D01*
X109550200Y-60401200D02*
X108864400Y-61087000D01*
X108839000Y-64160400D02*
X108839000Y-68605400D01*
X109550200Y-59835400D02*
X109550200Y-60401200D01*
X108864400Y-61087000D02*
X108839000Y-61112400D01*
%TO.N,/FTDI_RX*%
X108127800Y-69316600D02*
X108712000Y-69900800D01*
X108127800Y-58902600D02*
X108127800Y-69316600D01*
X108483400Y-58547000D02*
X108127800Y-58902600D01*
X110896400Y-58547000D02*
X108483400Y-58547000D01*
X111048800Y-58699400D02*
X110896400Y-58547000D01*
X111455200Y-59105800D02*
X111048800Y-58699400D01*
X111455200Y-59835400D02*
X111455200Y-59105800D01*
%TO.N,/FTDI_TX*%
X126838200Y-76165200D02*
X125257800Y-74584800D01*
X132083800Y-76165200D02*
X126838200Y-76165200D01*
X125257800Y-74584800D02*
X123469400Y-74584800D01*
%TO.N,/FTDI_RX*%
X124394200Y-72044800D02*
X123469400Y-72044800D01*
X128014600Y-75665200D02*
X124394200Y-72044800D01*
X132083800Y-75665200D02*
X128014600Y-75665200D01*
%TO.N,GND*%
X171805600Y-115951000D02*
X171805600Y-115140200D01*
%TO.N,Net-(D7-A)*%
X176095300Y-115139200D02*
X176784000Y-115827900D01*
X174371000Y-115139200D02*
X176095300Y-115139200D01*
%TO.N,Net-(D5-A)*%
X166827500Y-115802500D02*
X166806000Y-115824000D01*
X169392600Y-115802500D02*
X166827500Y-115802500D01*
%TO.N,Net-(D6-A)*%
X169955300Y-118440200D02*
X171805600Y-118440200D01*
X169392600Y-117877500D02*
X169955300Y-118440200D01*
X171806600Y-118439200D02*
X171805600Y-118440200D01*
X174371000Y-118439200D02*
X171806600Y-118439200D01*
D64*
%TO.N,Net-(D5-A)*%
X169646600Y-103987600D02*
X168579800Y-102920800D01*
X170281600Y-103987600D02*
X169646600Y-103987600D01*
D63*
%TO.N,Net-(D5-K)*%
X165187400Y-99073200D02*
X165187400Y-96748600D01*
X165735000Y-99620800D02*
X165187400Y-99073200D01*
X165735000Y-99620800D02*
X168579800Y-99620800D01*
X164432800Y-99620800D02*
X165735000Y-99620800D01*
X163342600Y-100711000D02*
X164432800Y-99620800D01*
X170343800Y-99620800D02*
X168579800Y-99620800D01*
X171094400Y-100371400D02*
X170343800Y-99620800D01*
D65*
%TO.N,GND*%
X148539200Y-47853600D02*
X148543100Y-47857500D01*
X143416100Y-86005700D02*
X142376300Y-86005700D01*
X164442100Y-79817500D02*
X163705500Y-79080900D01*
X177546000Y-110934500D02*
X177520600Y-110909100D01*
X163728400Y-79103800D02*
X163728400Y-80721200D01*
X111633000Y-87960200D02*
X112555200Y-87960200D01*
X158850200Y-79971900D02*
X158854100Y-79975800D01*
X157226000Y-97536000D02*
X157226000Y-99125000D01*
X164846000Y-104394000D02*
X164843000Y-104397000D01*
X128035900Y-83389500D02*
X129090500Y-83389500D01*
X117247900Y-85521800D02*
X117246000Y-85519900D01*
X164261800Y-102895400D02*
X163342600Y-102895400D01*
X171758700Y-47527300D02*
X171754800Y-47523400D01*
X100157000Y-58999400D02*
X100152200Y-59004200D01*
D63*
X193662300Y-108483400D02*
X191782700Y-108483400D01*
D65*
X163705500Y-79080900D02*
X163728400Y-79103800D01*
X111633000Y-90271600D02*
X112525900Y-90271600D01*
X163019700Y-79766700D02*
X163705500Y-79080900D01*
X110197100Y-49276900D02*
X110197100Y-50320300D01*
D63*
X141008800Y-71740200D02*
X141008800Y-72936800D01*
D65*
X153316900Y-78117700D02*
X155105100Y-78117700D01*
X142376300Y-86005700D02*
X142356200Y-86025800D01*
D63*
X114965900Y-79476600D02*
X115620800Y-79476600D01*
D65*
X136008800Y-71740200D02*
X136008800Y-73069200D01*
X170180000Y-106934000D02*
X169276800Y-106934000D01*
X129667000Y-90652600D02*
X129645500Y-90674100D01*
D63*
X143694600Y-96538600D02*
X143687800Y-96545400D01*
D65*
X158216600Y-49221300D02*
X158216600Y-50139600D01*
X128030600Y-83384200D02*
X128035900Y-83389500D01*
X177546000Y-112801400D02*
X177546000Y-110934500D01*
D63*
X147671700Y-75408700D02*
X147671700Y-76454000D01*
D65*
X110845600Y-63902500D02*
X109789800Y-63902500D01*
X165713500Y-55528300D02*
X165709600Y-55524400D01*
D63*
X116001800Y-31699200D02*
X116001800Y-36322000D01*
D65*
X171754800Y-47523400D02*
X170840400Y-47523400D01*
X165176200Y-87934800D02*
X165187400Y-87946000D01*
X165187400Y-87946000D02*
X165187400Y-89992200D01*
X167998100Y-76949300D02*
X166969400Y-76949300D01*
D63*
X141008800Y-72936800D02*
X141224000Y-73152000D01*
D65*
X117602000Y-72593200D02*
X117615100Y-72606300D01*
X163756300Y-79131700D02*
X163705500Y-79080900D01*
X155105100Y-78117700D02*
X155790900Y-77431900D01*
D63*
X144616800Y-96538600D02*
X143694600Y-96538600D01*
D65*
X167270200Y-52135000D02*
X168554400Y-52135000D01*
X131301700Y-84806600D02*
X131296400Y-84811900D01*
D63*
X115620800Y-79476600D02*
X116103400Y-79959200D01*
D65*
X166969400Y-76949300D02*
X166956700Y-76936600D01*
D63*
X141020800Y-83078200D02*
X141008800Y-83090200D01*
X140766800Y-81788000D02*
X141008800Y-82030000D01*
D65*
X114194500Y-52527200D02*
X114194500Y-51464300D01*
X157853900Y-74434700D02*
X158901000Y-74434700D01*
X126263400Y-90674100D02*
X126263400Y-91592400D01*
X164843000Y-104397000D02*
X164843000Y-105040200D01*
X167259000Y-52146200D02*
X167270200Y-52135000D01*
X143290500Y-69338000D02*
X143281300Y-69347200D01*
X153572300Y-40716200D02*
X152704800Y-40716200D01*
X131713600Y-67661600D02*
X131713600Y-68709200D01*
X189585600Y-117195600D02*
X187528200Y-117195600D01*
X183108600Y-63871600D02*
X182083200Y-63871600D01*
D66*
X112090200Y-58877200D02*
X112090200Y-59835400D01*
D65*
X177825400Y-117906800D02*
X177821500Y-117902900D01*
X162382200Y-62611000D02*
X162382200Y-61690000D01*
X129402200Y-70887400D02*
X130293500Y-70887400D01*
X148543100Y-47857500D02*
X148543100Y-48895000D01*
X163564800Y-107580200D02*
X163525200Y-107619800D01*
D63*
X147650200Y-75387200D02*
X147671700Y-75408700D01*
D65*
X129645500Y-90674100D02*
X128629500Y-90674100D01*
X118567200Y-85521800D02*
X117247900Y-85521800D01*
X157803100Y-79971900D02*
X158850200Y-79971900D01*
X177821500Y-117902900D02*
X176784000Y-117902900D01*
X187528200Y-117195600D02*
X187502800Y-117221000D01*
X157226000Y-99125000D02*
X157237200Y-99136200D01*
D63*
X116001800Y-36322000D02*
X115824000Y-36499800D01*
X143433800Y-75665200D02*
X142393800Y-75665200D01*
D65*
X180187600Y-54565800D02*
X180206400Y-54584600D01*
X131713600Y-68709200D02*
X131710600Y-68712200D01*
X158901000Y-74434700D02*
X158904900Y-74430800D01*
X155105100Y-76746100D02*
X155790900Y-77431900D01*
X152704800Y-40716200D02*
X152654000Y-40665400D01*
X130293500Y-70887400D02*
X130309700Y-70871200D01*
D63*
X141008800Y-82030000D02*
X141008800Y-83090200D01*
D65*
X114194500Y-51464300D02*
X114198400Y-51460400D01*
X101292200Y-58999400D02*
X100157000Y-58999400D01*
X117615100Y-72606300D02*
X117615100Y-73503500D01*
X166627900Y-55528300D02*
X165713500Y-55528300D01*
X145872200Y-90068400D02*
X144830800Y-90068400D01*
X182083200Y-63871600D02*
X182067200Y-63855600D01*
X164843000Y-107580200D02*
X163564800Y-107580200D01*
X118414800Y-93522800D02*
X117516800Y-93522800D01*
D63*
X114909600Y-30607000D02*
X116001800Y-31699200D01*
D65*
X136008800Y-73069200D02*
X136006200Y-73071800D01*
X153316900Y-76746100D02*
X155105100Y-76746100D01*
X112525900Y-90271600D02*
X112555200Y-90242300D01*
X110196200Y-49276000D02*
X110197100Y-49276900D01*
X155790900Y-77431900D02*
X153316900Y-77431900D01*
X144185000Y-69338000D02*
X143290500Y-69338000D01*
D63*
X113309400Y-30607000D02*
X114909600Y-30607000D01*
D65*
X114260200Y-66113300D02*
X113361800Y-66113300D01*
X104640800Y-82034800D02*
X104640800Y-81457600D01*
X180187600Y-53543200D02*
X180187600Y-54565800D01*
D63*
X142393800Y-75665200D02*
X142113000Y-75946000D01*
D65*
X104648000Y-82042000D02*
X104640800Y-82034800D01*
X132348600Y-84806600D02*
X131301700Y-84806600D01*
D66*
X111455200Y-55600600D02*
X111455200Y-54635400D01*
D65*
X155346400Y-89941400D02*
X154305000Y-89941400D01*
D63*
%TO.N,/SW_CURSOR*%
X128091000Y-104192000D02*
X138508800Y-93774200D01*
X121591000Y-106004800D02*
X128091000Y-106004800D01*
X128091000Y-106004800D02*
X128091000Y-104192000D01*
X138508800Y-93774200D02*
X138508800Y-83090200D01*
D65*
%TO.N,+3.3V*%
X123631200Y-91567000D02*
X123631200Y-87905100D01*
X132994400Y-87426800D02*
X132994400Y-83540600D01*
D63*
X141020800Y-80976800D02*
X141073200Y-80976800D01*
X134008800Y-80976800D02*
X141020800Y-80976800D01*
D65*
X103124000Y-92049600D02*
X101396800Y-93776800D01*
D63*
X140508800Y-70044700D02*
X141206300Y-69347200D01*
X132384700Y-70871200D02*
X133139800Y-70871200D01*
X144307900Y-75165200D02*
X145596700Y-76454000D01*
X142865900Y-83930700D02*
X143416100Y-83930700D01*
X133139800Y-70871200D02*
X134008800Y-71740200D01*
D65*
X123545600Y-91567000D02*
X123063000Y-92049600D01*
D63*
X143433800Y-75165200D02*
X141547600Y-75165200D01*
X140538200Y-71769600D02*
X140508800Y-71740200D01*
D65*
X123063000Y-92049600D02*
X103124000Y-92049600D01*
X132190700Y-82736900D02*
X131296400Y-82736900D01*
D63*
X148920200Y-94107000D02*
X147218400Y-94107000D01*
D65*
X123631200Y-91567000D02*
X123545600Y-91567000D01*
X126263400Y-88599100D02*
X128629500Y-88599100D01*
D63*
X142349300Y-83930700D02*
X143416100Y-83930700D01*
X141508800Y-83090200D02*
X142349300Y-83930700D01*
X141020800Y-75692000D02*
X141020800Y-80976800D01*
X132083800Y-81165200D02*
X132083800Y-81949500D01*
D65*
X101396800Y-93776800D02*
X101396800Y-98475800D01*
D63*
X132083800Y-81165200D02*
X133820400Y-81165200D01*
X140538200Y-73558400D02*
X140538200Y-71769600D01*
X141452600Y-85344000D02*
X142865900Y-83930700D01*
X141020800Y-74041000D02*
X140538200Y-73558400D01*
X149682200Y-94869000D02*
X148920200Y-94107000D01*
X149616800Y-96538600D02*
X149682200Y-96473200D01*
X141452600Y-88341200D02*
X141452600Y-85344000D01*
D65*
X123631200Y-93548200D02*
X123631200Y-91567000D01*
D63*
X141073200Y-80976800D02*
X141528800Y-81432400D01*
D65*
X123631200Y-87905100D02*
X123546000Y-87819900D01*
D63*
X149682200Y-96473200D02*
X149682200Y-94869000D01*
D65*
X128629500Y-88599100D02*
X131822100Y-88599100D01*
D63*
X141020800Y-75692000D02*
X141020800Y-74041000D01*
D65*
X123546000Y-87819900D02*
X125484200Y-87819900D01*
D63*
X141547600Y-75165200D02*
X141020800Y-75692000D01*
X132083800Y-81949500D02*
X131296400Y-82736900D01*
D65*
X117246000Y-87819900D02*
X123546000Y-87819900D01*
D63*
X143433800Y-75165200D02*
X144307900Y-75165200D01*
D65*
X125484200Y-87819900D02*
X126263400Y-88599100D01*
D63*
X133820400Y-81165200D02*
X134008800Y-80976800D01*
D65*
X131822100Y-88599100D02*
X132994400Y-87426800D01*
D63*
X140508800Y-71740200D02*
X140508800Y-70044700D01*
X141528800Y-81432400D02*
X141528800Y-83070200D01*
X134008800Y-71740200D02*
X134008800Y-80976800D01*
X141528800Y-83070200D02*
X141508800Y-83090200D01*
D65*
X132994400Y-83540600D02*
X132190700Y-82736900D01*
D63*
X147218400Y-94107000D02*
X141452600Y-88341200D01*
%TO.N,/BOOT0*%
X140030200Y-93726000D02*
X142027400Y-93726000D01*
X142027400Y-93726000D02*
X142052800Y-93751400D01*
X139508800Y-83090200D02*
X139508800Y-93204600D01*
X139508800Y-93204600D02*
X140030200Y-93726000D01*
%TO.N,/RESET*%
X143433800Y-78165200D02*
X149672800Y-78165200D01*
X152222200Y-69037200D02*
X163042600Y-69037200D01*
X163705500Y-69700100D02*
X163705500Y-72480900D01*
X111556800Y-98475800D02*
X111556800Y-97891600D01*
X166086200Y-74861600D02*
X163705500Y-72480900D01*
X111556800Y-97891600D02*
X112242600Y-97205800D01*
X163042600Y-69037200D02*
X163705500Y-69700100D01*
X131038600Y-93853000D02*
X136271000Y-88620600D01*
X143424400Y-78155800D02*
X143433800Y-78165200D01*
X129946400Y-97205800D02*
X131038600Y-96113600D01*
X141782800Y-78155800D02*
X143424400Y-78155800D01*
X112242600Y-97205800D02*
X129946400Y-97205800D01*
X149672800Y-78165200D02*
X150723600Y-77114400D01*
X150723600Y-70535800D02*
X152222200Y-69037200D01*
X166956700Y-74861600D02*
X166086200Y-74861600D01*
X136296400Y-80238600D02*
X138404600Y-78130400D01*
X150723600Y-77114400D02*
X150723600Y-70535800D01*
X131038600Y-96113600D02*
X131038600Y-93853000D01*
X138404600Y-78130400D02*
X140258800Y-78130400D01*
X136271000Y-88620600D02*
X136271000Y-84734400D01*
%TO.N,Net-(D2-A)*%
X115138200Y-71526400D02*
X117542200Y-71526400D01*
X117542200Y-71526400D02*
X117615100Y-71453500D01*
%TO.N,Net-(R2-Pad2)*%
X144329600Y-93751400D02*
X144052800Y-93751400D01*
X147116800Y-96538600D02*
X144329600Y-93751400D01*
%TO.N,Net-(U1-VCAP_2)*%
X132083800Y-80665200D02*
X129739800Y-80665200D01*
X129739800Y-80665200D02*
X129090500Y-81314500D01*
%TO.N,Net-(U1-VCAP_1)*%
X134508800Y-71740200D02*
X134508800Y-69435400D01*
X134508800Y-69435400D02*
X133785600Y-68712200D01*
%TO.N,/OSCIN*%
X158854100Y-82050800D02*
X154972000Y-82050800D01*
X143433800Y-79165200D02*
X151824200Y-79165200D01*
X154972000Y-82050800D02*
X154840900Y-82181900D01*
X151824200Y-79165200D02*
X154840900Y-82181900D01*
%TO.N,/OSCOUT*%
X155167000Y-72355800D02*
X154840900Y-72681900D01*
X158904900Y-72355800D02*
X155167000Y-72355800D01*
X152044400Y-74447400D02*
X153809900Y-72681900D01*
X153809900Y-72681900D02*
X154840900Y-72681900D01*
X143433800Y-78665200D02*
X150773000Y-78665200D01*
X152044400Y-77393800D02*
X152044400Y-74447400D01*
X150773000Y-78665200D02*
X152044400Y-77393800D01*
%TO.N,/XTAL_2*%
X152614000Y-86175400D02*
X154305000Y-87866400D01*
X151721300Y-84411300D02*
X151721300Y-86175400D01*
X146975200Y-79665200D02*
X151721300Y-84411300D01*
X151721300Y-86175400D02*
X152614000Y-86175400D01*
X143433800Y-79665200D02*
X146975200Y-79665200D01*
%TO.N,/XTAL_1*%
X145872200Y-87993400D02*
X147690200Y-86175400D01*
X145976600Y-80165200D02*
X148521300Y-82709900D01*
X148521300Y-82709900D02*
X148521300Y-86175400D01*
X147690200Y-86175400D02*
X148521300Y-86175400D01*
X143433800Y-80165200D02*
X145976600Y-80165200D01*
D64*
%TO.N,Net-(J1-VBUS)*%
X105968600Y-78257600D02*
X108381800Y-75844400D01*
X108381800Y-75844400D02*
X108381800Y-72538500D01*
X104640800Y-78257600D02*
X105968600Y-78257600D01*
X108381800Y-72538500D02*
X108403300Y-72517000D01*
D65*
%TO.N,+5V*%
X104978200Y-89408000D02*
X102311200Y-89408000D01*
D64*
X157237200Y-104246400D02*
X156692600Y-104791000D01*
D63*
X108356400Y-30480000D02*
X108229400Y-30607000D01*
D65*
X194894200Y-120980200D02*
X193776600Y-122097800D01*
D63*
X108229400Y-30607000D02*
X108229400Y-36474400D01*
D65*
X112678300Y-72517000D02*
X112678300Y-68931700D01*
X194894200Y-64262000D02*
X194894200Y-120980200D01*
X118516400Y-67310000D02*
X118516400Y-51765200D01*
X116078000Y-74466200D02*
X115138200Y-73526400D01*
X193776600Y-122097800D02*
X155219400Y-122097800D01*
D64*
X99060000Y-112572800D02*
X97967800Y-111480600D01*
D65*
X114630200Y-84734400D02*
X113436400Y-85928200D01*
X114630200Y-84734400D02*
X114630200Y-83388200D01*
X113411000Y-68199000D02*
X117627400Y-68199000D01*
X120015000Y-81178400D02*
X120015000Y-80365600D01*
X112678300Y-72517000D02*
X114128800Y-72517000D01*
D64*
X156692600Y-104791000D02*
X155078200Y-104791000D01*
D65*
X119430800Y-78613000D02*
X117805200Y-76987400D01*
X114630200Y-83388200D02*
X115849400Y-82169000D01*
D63*
X137896600Y-30708600D02*
X137896600Y-29972000D01*
D65*
X112678300Y-68931700D02*
X113411000Y-68199000D01*
X108432600Y-41681400D02*
X108432600Y-36728400D01*
X108432600Y-36728400D02*
X108204000Y-36499800D01*
D64*
X159066000Y-106310200D02*
X157546800Y-104791000D01*
X151993600Y-112572800D02*
X99060000Y-112572800D01*
D65*
X193421000Y-62788800D02*
X194894200Y-64262000D01*
X152552400Y-112014000D02*
X152552400Y-105562400D01*
X116078000Y-76073000D02*
X116078000Y-74466200D01*
D63*
X137896600Y-29972000D02*
X136601200Y-28676600D01*
D65*
X115849400Y-82169000D02*
X119024400Y-82169000D01*
X118516400Y-51765200D02*
X108432600Y-41681400D01*
X116078000Y-79044800D02*
X116078000Y-76073000D01*
X152527000Y-119405400D02*
X152527000Y-113106200D01*
D64*
X159893000Y-106310200D02*
X159066000Y-106310200D01*
D65*
X152552400Y-105562400D02*
X153323800Y-104791000D01*
D63*
X108356400Y-29337000D02*
X108356400Y-30480000D01*
D65*
X108458000Y-85928200D02*
X104978200Y-89408000D01*
X152527000Y-113106200D02*
X151993600Y-112572800D01*
D64*
X157546800Y-104791000D02*
X156692600Y-104791000D01*
D65*
X114752600Y-90119900D02*
X114630200Y-90242300D01*
X102311200Y-89408000D02*
X97967800Y-93751400D01*
X117627400Y-68199000D02*
X118516400Y-67310000D01*
X153323800Y-104791000D02*
X155078200Y-104791000D01*
X113436400Y-85928200D02*
X108458000Y-85928200D01*
X116713000Y-76987400D02*
X116078000Y-76352400D01*
X116509800Y-79476600D02*
X116078000Y-79044800D01*
X114630200Y-87960200D02*
X114630200Y-90242300D01*
X117246000Y-90119900D02*
X114752600Y-90119900D01*
X191185800Y-62798200D02*
X191195200Y-62788800D01*
X114630200Y-87960200D02*
X114630200Y-84734400D01*
D63*
X136601200Y-28676600D02*
X109016800Y-28676600D01*
D65*
X117805200Y-76987400D02*
X116713000Y-76987400D01*
X119024400Y-82169000D02*
X120015000Y-81178400D01*
D63*
X109016800Y-28676600D02*
X108356400Y-29337000D01*
D64*
X157237200Y-102844600D02*
X157237200Y-104246400D01*
D63*
X108229400Y-36474400D02*
X108204000Y-36499800D01*
D65*
X114128800Y-72517000D02*
X115138200Y-73526400D01*
X116078000Y-76352400D02*
X116078000Y-76073000D01*
D64*
X97967800Y-111480600D02*
X97967800Y-93751400D01*
D65*
X155219400Y-122097800D02*
X152527000Y-119405400D01*
X191195200Y-62788800D02*
X193421000Y-62788800D01*
X117240900Y-79476600D02*
X116509800Y-79476600D01*
D64*
X151993600Y-112572800D02*
X152552400Y-112014000D01*
D66*
%TO.N,/USB_CONN_D+*%
X113253006Y-79752400D02*
X113303806Y-79701600D01*
X111539200Y-80619600D02*
X112406400Y-79752400D01*
X111439200Y-80619600D02*
X111539200Y-80619600D01*
X113878400Y-79701600D02*
X114603400Y-80426600D01*
X112406400Y-79752400D02*
X113253006Y-79752400D01*
X113303806Y-79701600D02*
X113878400Y-79701600D01*
X114603400Y-80426600D02*
X114965900Y-80426600D01*
%TO.N,/USB_CONN_D-*%
X111539200Y-78435200D02*
X112406400Y-79302400D01*
X114603400Y-78526600D02*
X114965900Y-78526600D01*
X112406400Y-79302400D02*
X113080800Y-79302400D01*
X113131600Y-79251600D02*
X113878400Y-79251600D01*
X111439200Y-78435200D02*
X111539200Y-78435200D01*
X113080800Y-79302400D02*
X113131600Y-79251600D01*
X113878400Y-79251600D02*
X114603400Y-78526600D01*
D63*
%TO.N,/OTG_ID*%
X114249200Y-82727800D02*
X114274600Y-82753200D01*
X124612400Y-83210400D02*
X127304800Y-80518000D01*
X130048000Y-78511400D02*
X130201800Y-78665200D01*
X111439200Y-82727800D02*
X114249200Y-82727800D01*
X127914400Y-78511400D02*
X130048000Y-78511400D01*
X115824000Y-83210400D02*
X124612400Y-83210400D01*
X130201800Y-78665200D02*
X132083800Y-78665200D01*
D66*
%TO.N,/USB_D+*%
X130921299Y-79665200D02*
X132083800Y-79665200D01*
X117240900Y-80426600D02*
X118234651Y-80426600D01*
X118959651Y-79701600D02*
X127705606Y-79701600D01*
X130896299Y-79640200D02*
X130921299Y-79665200D01*
X127705606Y-79701600D02*
X127767006Y-79640200D01*
X118234651Y-80426600D02*
X118959651Y-79701600D01*
X127767006Y-79640200D02*
X130896299Y-79640200D01*
%TO.N,/USB_D-*%
X118959651Y-79251600D02*
X127533400Y-79251600D01*
X130896299Y-79190200D02*
X130921299Y-79165200D01*
X127594800Y-79190200D02*
X130896299Y-79190200D01*
X130921299Y-79165200D02*
X132083800Y-79165200D01*
X127533400Y-79251600D02*
X127594800Y-79190200D01*
X118234651Y-78526600D02*
X118959651Y-79251600D01*
X117240900Y-78526600D02*
X118234651Y-78526600D01*
D65*
%TO.N,Net-(D1-A)*%
X121631200Y-93548200D02*
X119592200Y-93548200D01*
X119592200Y-93548200D02*
X119566800Y-93522800D01*
D66*
%TO.N,/ID*%
X106464000Y-80657600D02*
X108534200Y-82727800D01*
X104640800Y-80657600D02*
X106464000Y-80657600D01*
X108534200Y-82727800D02*
X109439200Y-82727800D01*
%TO.N,/D-*%
X106515801Y-79057600D02*
X106690801Y-79232600D01*
X107785606Y-79302400D02*
X108472000Y-79302400D01*
X106690801Y-79232600D02*
X107715806Y-79232600D01*
X108472000Y-79302400D02*
X109339200Y-78435200D01*
X107715806Y-79232600D02*
X107785606Y-79302400D01*
X109339200Y-78435200D02*
X109439200Y-78435200D01*
X104640800Y-79057600D02*
X106515801Y-79057600D01*
%TO.N,/D+*%
X106690801Y-79682600D02*
X107543600Y-79682600D01*
X104640800Y-79857600D02*
X106515801Y-79857600D01*
X107613400Y-79752400D02*
X108472000Y-79752400D01*
X108472000Y-79752400D02*
X109339200Y-80619600D01*
X109339200Y-80619600D02*
X109439200Y-80619600D01*
X107543600Y-79682600D02*
X107613400Y-79752400D01*
X106515801Y-79857600D02*
X106690801Y-79682600D01*
%TO.N,Net-(D3-A)*%
X108194600Y-50367800D02*
X108147100Y-50320300D01*
X108194600Y-52552600D02*
X108194600Y-50367800D01*
%TO.N,Net-(D4-A)*%
X115366800Y-66068300D02*
X115411800Y-66113300D01*
X115366800Y-63878100D02*
X115366800Y-66068300D01*
%TO.N,Net-(U5-CBUS1)*%
X110194600Y-52552600D02*
X110820200Y-53178200D01*
X110820200Y-53178200D02*
X110820200Y-54635400D01*
%TO.N,Net-(U5-CBUS2)*%
X113360200Y-59835400D02*
X113360200Y-61061600D01*
X113371200Y-63873700D02*
X113366800Y-63878100D01*
X113366800Y-62465200D02*
X113360200Y-62458600D01*
X113366800Y-63878100D02*
X113366800Y-62465200D01*
%TO.N,/S+*%
X103800101Y-57616301D02*
X104908600Y-58724800D01*
X101292200Y-57699400D02*
X102304701Y-57699400D01*
X102404701Y-57599400D02*
X103301800Y-57599400D01*
X103301800Y-57599400D02*
X103318701Y-57616301D01*
X102304701Y-57699400D02*
X102404701Y-57599400D01*
X103318701Y-57616301D02*
X103800101Y-57616301D01*
%TO.N,/S-*%
X103490905Y-57166299D02*
X103800101Y-57166299D01*
X102304701Y-57049400D02*
X102404701Y-57149400D01*
X103800101Y-57166299D02*
X104934000Y-56032400D01*
X103474006Y-57149400D02*
X103490905Y-57166299D01*
X102404701Y-57149400D02*
X103474006Y-57149400D01*
X101292200Y-57049400D02*
X102304701Y-57049400D01*
%TO.N,FTDI_VCC*%
X111658400Y-48564800D02*
X112119500Y-49025900D01*
X103174800Y-49530000D02*
X104140000Y-48564800D01*
X112119500Y-54606100D02*
X112090200Y-54635400D01*
X103174800Y-55803800D02*
X103174800Y-49530000D01*
X101292200Y-56399400D02*
X102579200Y-56399400D01*
X112119500Y-49025900D02*
X112119500Y-52527200D01*
X104140000Y-48564800D02*
X111658400Y-48564800D01*
X102579200Y-56399400D02*
X103174800Y-55803800D01*
X112119500Y-52527200D02*
X112119500Y-54606100D01*
%TO.N,/FTDI_D+*%
X108042499Y-57590901D02*
X113193701Y-57590901D01*
X113995200Y-57886600D02*
X113995200Y-59835400D01*
X113193701Y-57590901D02*
X113201246Y-57598446D01*
X106908600Y-58724800D02*
X108042499Y-57590901D01*
X113201246Y-57598446D02*
X113707046Y-57598446D01*
X113707046Y-57598446D02*
X113995200Y-57886600D01*
%TO.N,/FTDI_D-*%
X113995200Y-56870600D02*
X113995200Y-54635400D01*
X106934000Y-56032400D02*
X108042499Y-57140899D01*
X108042499Y-57140899D02*
X113724901Y-57140899D01*
X113724901Y-57140899D02*
X113995200Y-56870600D01*
%TO.N,/MODE*%
X110845600Y-59860800D02*
X110820200Y-59835400D01*
X114600900Y-61827500D02*
X110845600Y-61827500D01*
X113563400Y-53670200D02*
X114808000Y-53670200D01*
X112725200Y-54635400D02*
X113360200Y-54635400D01*
X115011200Y-61417200D02*
X114600900Y-61827500D01*
X115011200Y-53873400D02*
X115011200Y-61417200D01*
X113360200Y-53873400D02*
X113563400Y-53670200D01*
X114808000Y-53670200D02*
X115011200Y-53873400D01*
X110845600Y-61827500D02*
X110845600Y-59860800D01*
X113360200Y-54635400D02*
X113360200Y-53873400D01*
D63*
%TO.N,/SWDIO*%
X109016800Y-98475800D02*
X111277400Y-96215200D01*
X135153400Y-84836000D02*
X135178800Y-84810600D01*
X111277400Y-96215200D02*
X127635000Y-96215200D01*
X133375400Y-80365600D02*
X133175000Y-80165200D01*
X130251200Y-95173800D02*
X130251200Y-93218000D01*
X133175000Y-80165200D02*
X132083800Y-80165200D01*
X135153400Y-88315800D02*
X135153400Y-84836000D01*
X130251200Y-93218000D02*
X135153400Y-88315800D01*
X129209800Y-96215200D02*
X130251200Y-95173800D01*
X127635000Y-96215200D02*
X129209800Y-96215200D01*
%TO.N,/SWCLK*%
X103936800Y-98475800D02*
X103936800Y-96799400D01*
X134008800Y-88419000D02*
X134008800Y-83090200D01*
X103936800Y-96799400D02*
X105460800Y-95275400D01*
X127812800Y-95275400D02*
X129438400Y-93649800D01*
X129438400Y-92989400D02*
X134008800Y-88419000D01*
X129438400Y-93649800D02*
X129438400Y-92989400D01*
X105460800Y-95275400D02*
X127812800Y-95275400D01*
%TO.N,/SWO*%
X137008800Y-88975000D02*
X137008800Y-83090200D01*
X131876800Y-94107000D02*
X137008800Y-88975000D01*
X130124200Y-98475800D02*
X131876800Y-96723200D01*
X131876800Y-96723200D02*
X131876800Y-94107000D01*
X114096800Y-98475800D02*
X130124200Y-98475800D01*
%TO.N,/E*%
X125018800Y-39344600D02*
X119202200Y-39344600D01*
X128691000Y-74665200D02*
X127406400Y-73380600D01*
X127406400Y-41732200D02*
X125018800Y-39344600D01*
X132083800Y-74665200D02*
X128691000Y-74665200D01*
X127406400Y-73380600D02*
X127406400Y-41732200D01*
X119202200Y-39344600D02*
X118364000Y-38506400D01*
X118364000Y-38506400D02*
X118364000Y-36499800D01*
%TO.N,/RS*%
X126898400Y-73609200D02*
X126898400Y-42951400D01*
X113284000Y-38963600D02*
X113284000Y-36499800D01*
X128454400Y-75165200D02*
X126898400Y-73609200D01*
X126898400Y-42951400D02*
X124688600Y-40741600D01*
X132083800Y-75165200D02*
X128454400Y-75165200D01*
X115062000Y-40741600D02*
X113284000Y-38963600D01*
X124688600Y-40741600D02*
X115062000Y-40741600D01*
%TO.N,/D4*%
X127990600Y-73101200D02*
X127990600Y-44551600D01*
X129054600Y-74165200D02*
X127990600Y-73101200D01*
X131064000Y-41478200D02*
X131064000Y-36499800D01*
X127990600Y-44551600D02*
X131064000Y-41478200D01*
X132083800Y-74165200D02*
X129054600Y-74165200D01*
%TO.N,/A*%
X141224000Y-36499800D02*
X141224000Y-31496000D01*
X140436600Y-30708600D02*
X142976600Y-30708600D01*
X141224000Y-31496000D02*
X140436600Y-30708600D01*
%TO.N,/D6*%
X136194800Y-36550600D02*
X136144000Y-36499800D01*
X129667000Y-63931800D02*
X129667000Y-47345600D01*
X135008800Y-71740200D02*
X135008800Y-66378000D01*
X135008800Y-66378000D02*
X134493000Y-65862200D01*
X136194800Y-40817800D02*
X136194800Y-36550600D01*
X134493000Y-65862200D02*
X131597400Y-65862200D01*
X129667000Y-47345600D02*
X136194800Y-40817800D01*
X131597400Y-65862200D02*
X129667000Y-63931800D01*
%TO.N,/D5*%
X128447800Y-72821800D02*
X128447800Y-45821600D01*
X129291200Y-73665200D02*
X128447800Y-72821800D01*
X132083800Y-73665200D02*
X129291200Y-73665200D01*
X128447800Y-45821600D02*
X133604000Y-40665400D01*
X133604000Y-40665400D02*
X133604000Y-36499800D01*
%TO.N,/D7*%
X130479800Y-63500000D02*
X131724400Y-64744600D01*
X130479800Y-48133000D02*
X130479800Y-63500000D01*
X138684000Y-39928800D02*
X130479800Y-48133000D01*
X131724400Y-64744600D02*
X135026400Y-64744600D01*
X135026400Y-64744600D02*
X135534400Y-65252600D01*
X135534400Y-71714600D02*
X135508800Y-71740200D01*
X135534400Y-65252600D02*
X135534400Y-71714600D01*
X138684000Y-36499800D02*
X138684000Y-39928800D01*
%TO.N,Net-(J5-Pin_3)*%
X110769400Y-36474400D02*
X110744000Y-36499800D01*
X110769400Y-30607000D02*
X110769400Y-36474400D01*
%TO.N,/SW_MODE*%
X111050000Y-105928600D02*
X117550000Y-105928600D01*
X117550000Y-104369800D02*
X119710200Y-102209600D01*
X128955800Y-102209600D02*
X138008800Y-93156600D01*
X119710200Y-102209600D02*
X128955800Y-102209600D01*
X117550000Y-105928600D02*
X117550000Y-104369800D01*
X138008800Y-93156600D02*
X138008800Y-83090200D01*
%TO.N,/SW_PLUS*%
X139008800Y-83090200D02*
X139008800Y-105958200D01*
X132360600Y-106106400D02*
X138860600Y-106106400D01*
X139008800Y-105958200D02*
X138860600Y-106106400D01*
%TO.N,/SW_MINUS*%
X143054000Y-106182600D02*
X149554000Y-106182600D01*
X140008800Y-92485400D02*
X140360400Y-92837000D01*
X140385800Y-94513400D02*
X140385800Y-103514400D01*
X140385800Y-103514400D02*
X143054000Y-106182600D01*
X140008800Y-83090200D02*
X140008800Y-92485400D01*
%TO.N,/SW_RUN_STOP*%
X107721400Y-101473000D02*
X128752600Y-101473000D01*
X100280400Y-105928600D02*
X106780400Y-105928600D01*
X106780400Y-102414000D02*
X107721400Y-101473000D01*
X137508800Y-92716800D02*
X128752600Y-101473000D01*
X137508800Y-83090200D02*
X137508800Y-92716800D01*
X106780400Y-105928600D02*
X106780400Y-102414000D01*
D64*
%TO.N,VCC*%
X176453800Y-102412800D02*
X177520600Y-103479600D01*
X164719000Y-45161200D02*
X172923200Y-45161200D01*
X164795200Y-55956200D02*
X164795200Y-55549800D01*
X164973000Y-69367400D02*
X164973000Y-60477400D01*
X172923200Y-45161200D02*
X173786800Y-46024800D01*
X167208200Y-71602600D02*
X164973000Y-69367400D01*
D63*
X173833700Y-47527300D02*
X173504400Y-47856600D01*
D64*
X173202600Y-95250000D02*
X170688000Y-92735400D01*
X157505400Y-43281600D02*
X157099000Y-42875200D01*
X173786800Y-47480400D02*
X173833700Y-47527300D01*
D63*
X155647300Y-40716200D02*
X155647300Y-42839500D01*
D64*
X164795200Y-56616600D02*
X164795200Y-55956200D01*
X175514000Y-102412800D02*
X176453800Y-102412800D01*
X173202600Y-97536000D02*
X173202600Y-95250000D01*
D63*
X155647300Y-42839500D02*
X155611600Y-42875200D01*
D64*
X173202600Y-100101400D02*
X173202600Y-97536000D01*
X170688000Y-92735400D02*
X170688000Y-88950800D01*
X173786800Y-46024800D02*
X173786800Y-47480400D01*
X162890200Y-53644800D02*
X162890200Y-45567600D01*
X177520600Y-105448100D02*
X177520600Y-103479600D01*
X170688000Y-88950800D02*
X168833800Y-87096600D01*
X157099000Y-42875200D02*
X155611600Y-42875200D01*
X171094400Y-102371400D02*
X171135800Y-102412800D01*
X175514000Y-102412800D02*
X173202600Y-100101400D01*
X168833800Y-73228200D02*
X167208200Y-71602600D01*
D63*
X173504400Y-47856600D02*
X173504400Y-49595000D01*
D64*
X162890200Y-45567600D02*
X162941000Y-45516800D01*
X177520600Y-103479600D02*
X178587400Y-102412800D01*
X164795200Y-55549800D02*
X162890200Y-53644800D01*
X171135800Y-102412800D02*
X175514000Y-102412800D01*
X168833800Y-75920600D02*
X168833800Y-73228200D01*
X168833800Y-87096600D02*
X168833800Y-75920600D01*
X184591600Y-102412800D02*
X184647200Y-102468400D01*
X178587400Y-102412800D02*
X184591600Y-102412800D01*
%TO.N,VEE*%
X194335400Y-91363800D02*
X194335400Y-70358000D01*
X182997600Y-108483400D02*
X182651400Y-108829600D01*
X172415200Y-70866000D02*
X172339000Y-70942200D01*
D63*
X150618100Y-48895000D02*
X150618100Y-46728700D01*
D64*
X194335400Y-70358000D02*
X193497200Y-69519800D01*
D63*
X158419800Y-52857400D02*
X168224200Y-62661800D01*
D64*
X194310000Y-91389200D02*
X194335400Y-91363800D01*
X168249600Y-55981600D02*
X168702900Y-55528300D01*
D63*
X152146000Y-52857400D02*
X158419800Y-52857400D01*
D64*
X189103000Y-104241600D02*
X189647200Y-103697400D01*
X179374800Y-70866000D02*
X172415200Y-70866000D01*
X193497200Y-69519800D02*
X183743600Y-69519800D01*
X194310000Y-103835200D02*
X194310000Y-91389200D01*
X181152800Y-69443600D02*
X179730400Y-70866000D01*
X183565800Y-104241600D02*
X189103000Y-104241600D01*
X168249600Y-59359800D02*
X168249600Y-55981600D01*
D63*
X168224200Y-62661800D02*
X168224200Y-62992000D01*
X168702900Y-55528300D02*
X168702900Y-53553500D01*
D64*
X179730400Y-70866000D02*
X179374800Y-70866000D01*
X189103000Y-104241600D02*
X193903600Y-104241600D01*
D63*
X150618100Y-48895000D02*
X150618100Y-51329500D01*
D64*
X182651400Y-105156000D02*
X183565800Y-104241600D01*
X193903600Y-104241600D02*
X194310000Y-103835200D01*
X168224200Y-69951600D02*
X168224200Y-62992000D01*
D63*
X168702900Y-53553500D02*
X168554400Y-53405000D01*
D64*
X189647200Y-103697400D02*
X189647200Y-102468400D01*
X169113200Y-70840600D02*
X168224200Y-69951600D01*
X168224200Y-62992000D02*
X168224200Y-60960000D01*
D63*
X150618100Y-51329500D02*
X152146000Y-52857400D01*
D64*
X183743600Y-69519800D02*
X183692800Y-69469000D01*
X182651400Y-108829600D02*
X182651400Y-105156000D01*
X186321700Y-108483400D02*
X182997600Y-108483400D01*
D63*
X150618100Y-46728700D02*
X150661600Y-46685200D01*
%TO.N,Net-(R11-Pad1)*%
X160197800Y-59680600D02*
X162372800Y-59680600D01*
X162372800Y-59680600D02*
X162382200Y-59690000D01*
X158419800Y-57616600D02*
X158419800Y-57902600D01*
X158419800Y-57902600D02*
X160197800Y-59680600D01*
%TO.N,Net-(R11-Pad2)*%
X157311600Y-55616600D02*
X158419800Y-55616600D01*
X155889200Y-57591200D02*
X156616400Y-58318400D01*
X156616400Y-58318400D02*
X156616400Y-56311800D01*
X156616400Y-59680600D02*
X156616400Y-58318400D01*
X154863800Y-57591200D02*
X155889200Y-57591200D01*
X156616400Y-56311800D02*
X157311600Y-55616600D01*
%TO.N,Net-(R13-Pad2)*%
X152933400Y-56311800D02*
X153654000Y-55591200D01*
X151130000Y-57565800D02*
X152206200Y-57565800D01*
X153654000Y-55591200D02*
X154863800Y-55591200D01*
X152933400Y-58293000D02*
X152933400Y-56311800D01*
X152206200Y-57565800D02*
X152933400Y-58293000D01*
X152933400Y-59680600D02*
X152933400Y-58293000D01*
%TO.N,Net-(R16-Pad1)*%
X149250400Y-56286400D02*
X149971000Y-55565800D01*
X149971000Y-55565800D02*
X151130000Y-55565800D01*
X148599400Y-57515000D02*
X149250400Y-58166000D01*
X149250400Y-59655200D02*
X149250400Y-58166000D01*
X149250400Y-58166000D02*
X149250400Y-56286400D01*
X147523200Y-57515000D02*
X148599400Y-57515000D01*
%TO.N,Net-(R19-Pad2)*%
X145542000Y-56032400D02*
X146059400Y-55515000D01*
X144916400Y-57464200D02*
X145542000Y-58089800D01*
X146059400Y-55515000D02*
X147523200Y-55515000D01*
X145542000Y-58089800D02*
X145542000Y-56032400D01*
X145542000Y-59655200D02*
X145542000Y-58089800D01*
X143738600Y-57464200D02*
X144916400Y-57464200D01*
%TO.N,Net-(R21-Pad2)*%
X142554200Y-55464200D02*
X143738600Y-55464200D01*
X141859000Y-56159400D02*
X142554200Y-55464200D01*
X141859000Y-59629800D02*
X141859000Y-58039000D01*
X141182600Y-57362600D02*
X141859000Y-58039000D01*
X140030200Y-57362600D02*
X141182600Y-57362600D01*
X141859000Y-58039000D02*
X141859000Y-56159400D01*
%TO.N,Net-(R23-Pad2)*%
X137550400Y-57311800D02*
X138150600Y-57912000D01*
X138896600Y-55362600D02*
X140030200Y-55362600D01*
X138150600Y-59553600D02*
X138150600Y-57912000D01*
X138150600Y-57912000D02*
X138150600Y-56108600D01*
X136271000Y-57311800D02*
X137550400Y-57311800D01*
X138150600Y-56108600D02*
X138896600Y-55362600D01*
%TO.N,Net-(U4A--)*%
X132232400Y-47955200D02*
X136401900Y-43785700D01*
X132232400Y-57385200D02*
X132232400Y-47955200D01*
X136401900Y-43785700D02*
X145796000Y-43785700D01*
X150661600Y-44145200D02*
X148453600Y-44145200D01*
X145833500Y-43748200D02*
X145796000Y-43785700D01*
X148453600Y-44145200D02*
X148056600Y-43748200D01*
X148056600Y-43748200D02*
X145833500Y-43748200D01*
%TO.N,DAC_1*%
X148310600Y-72745600D02*
X148310600Y-69646800D01*
X146891000Y-74165200D02*
X148310600Y-72745600D01*
X156616400Y-66065400D02*
X156616400Y-61680600D01*
X156032200Y-66649600D02*
X156616400Y-66065400D01*
X148310600Y-69646800D02*
X151307800Y-66649600D01*
X143433800Y-74165200D02*
X146891000Y-74165200D01*
X151307800Y-66649600D02*
X156032200Y-66649600D01*
%TO.N,DAC_0*%
X160274000Y-61756800D02*
X160197800Y-61680600D01*
X143433800Y-74665200D02*
X147813400Y-74665200D01*
X149428200Y-73050400D02*
X149428200Y-69926200D01*
X149428200Y-69926200D02*
X151790400Y-67564000D01*
X160274000Y-65963800D02*
X160274000Y-61756800D01*
X158673800Y-67564000D02*
X160274000Y-65963800D01*
X151790400Y-67564000D02*
X158673800Y-67564000D01*
X147813400Y-74665200D02*
X149428200Y-73050400D01*
%TO.N,DAC_2*%
X143433800Y-73665200D02*
X145740000Y-73665200D01*
X152298400Y-65786000D02*
X152933400Y-65151000D01*
X145740000Y-73665200D02*
X147294600Y-72110600D01*
X147294600Y-72110600D02*
X147294600Y-69265800D01*
X150774400Y-65786000D02*
X152298400Y-65786000D01*
X147294600Y-69265800D02*
X150774400Y-65786000D01*
X152933400Y-65151000D02*
X152933400Y-61680600D01*
%TO.N,DAC_3*%
X141508800Y-71740200D02*
X141508800Y-71190800D01*
X146253200Y-69850000D02*
X146253200Y-68656200D01*
X146253200Y-68656200D02*
X149250400Y-65659000D01*
X149250400Y-65659000D02*
X149250400Y-61655200D01*
X145186400Y-70916800D02*
X146253200Y-69850000D01*
X141508800Y-71190800D02*
X141782800Y-70916800D01*
X141782800Y-70916800D02*
X145186400Y-70916800D01*
%TO.N,DAC_4*%
X140843000Y-66344800D02*
X144729200Y-66344800D01*
X140008800Y-71740200D02*
X140008800Y-67179000D01*
X145542000Y-65532000D02*
X145542000Y-61655200D01*
X144729200Y-66344800D02*
X145542000Y-65532000D01*
X140008800Y-67179000D02*
X140843000Y-66344800D01*
%TO.N,DAC_5*%
X139508800Y-71740200D02*
X139508800Y-66434400D01*
X141859000Y-64084200D02*
X141859000Y-61629800D01*
X139508800Y-66434400D02*
X141859000Y-64084200D01*
%TO.N,DAC_6*%
X139008800Y-71740200D02*
X139008800Y-63951800D01*
X139008800Y-63951800D02*
X138150600Y-63093600D01*
X138150600Y-63093600D02*
X138150600Y-61553600D01*
%TO.N,DAC_7*%
X138508800Y-64772600D02*
X137363200Y-63627000D01*
X137363200Y-63627000D02*
X135382000Y-63627000D01*
X134442200Y-62687200D02*
X134442200Y-61544200D01*
X135382000Y-63627000D02*
X134442200Y-62687200D01*
X138508800Y-71740200D02*
X138508800Y-64772600D01*
D64*
%TO.N,Net-(U7-TC)*%
X164843000Y-106310200D02*
X166578000Y-106310200D01*
X166578000Y-106310200D02*
X167201800Y-106934000D01*
%TO.N,Net-(D5-K)*%
X165187400Y-96748600D02*
X165074600Y-96861400D01*
%TO.N,Net-(D5-A)*%
X166801800Y-109601000D02*
X166801800Y-115819800D01*
X166051000Y-108850200D02*
X170473600Y-108850200D01*
X171170600Y-104876600D02*
X170281600Y-103987600D01*
X170473600Y-108850200D02*
X171170600Y-108153200D01*
X166801800Y-115819800D02*
X166806000Y-115824000D01*
X164843000Y-108850200D02*
X166051000Y-108850200D01*
X171170600Y-108153200D02*
X171170600Y-104876600D01*
X166051000Y-108850200D02*
X166801800Y-109601000D01*
%TO.N,Net-(D7-A)*%
X182041800Y-112268000D02*
X179451000Y-112268000D01*
X182651400Y-110829600D02*
X182651400Y-111658400D01*
X178917600Y-114960400D02*
X178054000Y-115824000D01*
X179451000Y-117221000D02*
X178054000Y-115824000D01*
X178054000Y-115824000D02*
X176787900Y-115824000D01*
X182651400Y-111658400D02*
X182041800Y-112268000D01*
X180746400Y-117221000D02*
X179451000Y-117221000D01*
X179451000Y-112268000D02*
X178917600Y-112801400D01*
X176787900Y-115824000D02*
X176784000Y-115827900D01*
X176695300Y-115739200D02*
X176784000Y-115827900D01*
X178917600Y-112801400D02*
X178917600Y-114960400D01*
%TO.N,Net-(U7-Vfb)*%
X161342600Y-104671600D02*
X161342600Y-102895400D01*
X160974000Y-105040200D02*
X161342600Y-104671600D01*
D63*
X161342600Y-100711000D02*
X161342600Y-102895400D01*
D64*
X159893000Y-105040200D02*
X160974000Y-105040200D01*
%TO.N,Net-(U7-DC)*%
X157288000Y-108832400D02*
X159875200Y-108832400D01*
X159875200Y-108832400D02*
X159893000Y-108850200D01*
D63*
%TO.N,Net-(J6-Pin_1)*%
X148019100Y-41710700D02*
X148056600Y-41748200D01*
X150661600Y-40067000D02*
X152958800Y-37769800D01*
X150661600Y-42875200D02*
X150661600Y-40067000D01*
X150661600Y-42875200D02*
X150661600Y-42737000D01*
X159842200Y-37769800D02*
X164820600Y-32791400D01*
X149672800Y-41748200D02*
X148056600Y-41748200D01*
X150661600Y-42737000D02*
X149672800Y-41748200D01*
X145796000Y-41710700D02*
X148019100Y-41710700D01*
X160350200Y-38277800D02*
X159842200Y-37769800D01*
X152958800Y-37769800D02*
X159842200Y-37769800D01*
X160350200Y-40630600D02*
X160350200Y-38277800D01*
X164820600Y-32791400D02*
X164820600Y-30530800D01*
%TO.N,Net-(U4B-+)*%
X157755500Y-46685200D02*
X155611600Y-46685200D01*
X158216600Y-47146300D02*
X157755500Y-46685200D01*
X158228700Y-47158400D02*
X158216600Y-47146300D01*
X160486600Y-47158400D02*
X158228700Y-47158400D01*
%TO.N,Net-(C34-Pad1)*%
X161594800Y-45008800D02*
X162128200Y-45542200D01*
X162128200Y-45542200D02*
X162128200Y-48742600D01*
X160320900Y-42659900D02*
X160350200Y-42630600D01*
X160320900Y-45008800D02*
X160320900Y-42659900D01*
X162128200Y-48742600D02*
X161712400Y-49158400D01*
X160320900Y-45008800D02*
X161594800Y-45008800D01*
X161712400Y-49158400D02*
X160486600Y-49158400D01*
%TO.N,Net-(J6-Pin_3)*%
X158245900Y-45008800D02*
X158267400Y-44987300D01*
X158267400Y-44987300D02*
X158267400Y-38557200D01*
X158292800Y-30607000D02*
X160375600Y-28524200D01*
X158292800Y-36830000D02*
X158292800Y-30607000D01*
X157839500Y-45415200D02*
X158245900Y-45008800D01*
X155611600Y-44145200D02*
X155611600Y-45415200D01*
X155611600Y-45415200D02*
X157839500Y-45415200D01*
X169900600Y-29413200D02*
X169900600Y-30530800D01*
X160375600Y-28524200D02*
X169011600Y-28524200D01*
X169011600Y-28524200D02*
X169900600Y-29413200D01*
%TO.N,Net-(C35-Pad2)*%
X178245100Y-50485800D02*
X178308000Y-50422900D01*
X176072800Y-50485800D02*
X178245100Y-50485800D01*
X175693600Y-50865000D02*
X176072800Y-50485800D01*
X173504400Y-50865000D02*
X175693600Y-50865000D01*
X177952400Y-50067300D02*
X178308000Y-50422900D01*
X177952400Y-47329600D02*
X177952400Y-50067300D01*
%TO.N,Net-(U6B--)*%
X175722000Y-52135000D02*
X176072800Y-52485800D01*
X176072800Y-52485800D02*
X178295900Y-52485800D01*
X178206400Y-52599500D02*
X178308000Y-52497900D01*
X178295900Y-52485800D02*
X178308000Y-52497900D01*
X178206400Y-54584600D02*
X178206400Y-52599500D01*
X173504400Y-52135000D02*
X175722000Y-52135000D01*
%TO.N,Net-(J6-Pin_2)*%
X163830000Y-52247800D02*
X163830000Y-37134800D01*
X165624000Y-52892200D02*
X164474400Y-52892200D01*
X167360600Y-33604200D02*
X167360600Y-30530800D01*
X164474400Y-52892200D02*
X163830000Y-52247800D01*
X163830000Y-37134800D02*
X167360600Y-33604200D01*
%TO.N,Net-(J7-Pin_2)*%
X173380400Y-93624400D02*
X178108600Y-93624400D01*
X171542200Y-91786200D02*
X173380400Y-93624400D01*
X178108600Y-93624400D02*
X178205600Y-93527400D01*
X171542200Y-57835800D02*
X171542200Y-91786200D01*
%TO.N,Net-(J7-Pin_3)*%
X186893200Y-99314000D02*
X187147200Y-99568000D01*
X187147200Y-99568000D02*
X187147200Y-102468400D01*
X178205600Y-96067400D02*
X178205600Y-98119400D01*
X178205600Y-98119400D02*
X179400200Y-99314000D01*
X179400200Y-99314000D02*
X186893200Y-99314000D01*
%TO.N,Net-(R25-Pad1)*%
X134442200Y-55803800D02*
X134934200Y-55311800D01*
X132232400Y-59385200D02*
X134283200Y-59385200D01*
X134934200Y-55311800D02*
X136271000Y-55311800D01*
X134283200Y-59385200D02*
X134442200Y-59544200D01*
X134442200Y-59544200D02*
X134442200Y-55803800D01*
%TO.N,Net-(R35-Pad2)*%
X187137800Y-60798200D02*
X187096400Y-60756800D01*
X191185800Y-60798200D02*
X187137800Y-60798200D01*
%TO.N,Net-(R36-Pad1)*%
X183108600Y-65871600D02*
X187061600Y-65871600D01*
X187061600Y-65871600D02*
X187096400Y-65836800D01*
%TO.N,Net-(U6A--)*%
X172237400Y-86995000D02*
X182509000Y-86995000D01*
X170154600Y-51130200D02*
X170154600Y-55727600D01*
X169748200Y-60858400D02*
X169748200Y-85953600D01*
X182509000Y-86995000D02*
X184500600Y-85003400D01*
X168527200Y-50892200D02*
X168554400Y-50865000D01*
X170154600Y-58902600D02*
X169722800Y-59334400D01*
X170154600Y-55727600D02*
X170154600Y-58902600D01*
X168554400Y-50865000D02*
X168568600Y-50850800D01*
X169875200Y-50850800D02*
X170154600Y-51130200D01*
X165624000Y-50892200D02*
X168527200Y-50892200D01*
X168568600Y-50850800D02*
X169875200Y-50850800D01*
X169748200Y-85953600D02*
X170764200Y-86969600D01*
%TO.N,Net-(U6B-+)*%
X173504400Y-53405000D02*
X173504400Y-55562800D01*
X173516800Y-55575200D02*
X173516800Y-57810400D01*
X173504400Y-55562800D02*
X173516800Y-55575200D01*
X173516800Y-57810400D02*
X173542200Y-57835800D01*
%TO.N,Net-(R40-Pad2)*%
X168554400Y-49595000D02*
X170880000Y-49595000D01*
X170880000Y-49595000D02*
X171516800Y-50231800D01*
X189500600Y-85003400D02*
X187000600Y-85003400D01*
X175666400Y-62763400D02*
X175666400Y-60883800D01*
X187000600Y-74097600D02*
X176504600Y-63601600D01*
X175666400Y-59410600D02*
X175666400Y-54940200D01*
X171516800Y-52755800D02*
X171516800Y-55575200D01*
X171186600Y-53086000D02*
X171516800Y-52755800D01*
X175666400Y-54940200D02*
X175336200Y-54610000D01*
X176504600Y-63601600D02*
X175666400Y-62763400D01*
X171516800Y-50231800D02*
X171516800Y-52755800D01*
X187000600Y-85003400D02*
X187000600Y-74097600D01*
X170840400Y-53086000D02*
X171186600Y-53086000D01*
%TO.N,Net-(U4A-+)*%
X172262800Y-60147200D02*
X172237400Y-60121800D01*
X153212800Y-46151800D02*
X152476200Y-45415200D01*
X152476200Y-45415200D02*
X150661600Y-45415200D01*
X153212800Y-50165000D02*
X153212800Y-46151800D01*
X154559000Y-51511200D02*
X153212800Y-50165000D01*
X183946800Y-60147200D02*
X179679600Y-60147200D01*
X179679600Y-60147200D02*
X172262800Y-60147200D01*
X166928800Y-60096400D02*
X158343600Y-51511200D01*
X170789600Y-60096400D02*
X166928800Y-60096400D01*
X158343600Y-51511200D02*
X154559000Y-51511200D01*
X187096400Y-63296800D02*
X183946800Y-60147200D01*
%TO.N,Net-(J8-Pad1)*%
X177952400Y-45329600D02*
X182251400Y-45329600D01*
X182251400Y-45329600D02*
X182318200Y-45262800D01*
D64*
%TO.N,Net-(U7-Ipk)*%
X155078200Y-106791000D02*
X154482800Y-107386400D01*
X158035800Y-107580200D02*
X157288000Y-106832400D01*
X155119600Y-106832400D02*
X155078200Y-106791000D01*
X154482800Y-114528600D02*
X155448000Y-115493800D01*
X157475800Y-115493800D02*
X157806000Y-115824000D01*
X154482800Y-107386400D02*
X154482800Y-114528600D01*
X159893000Y-107580200D02*
X158035800Y-107580200D01*
X157288000Y-106832400D02*
X155119600Y-106832400D01*
X155448000Y-115493800D02*
X157475800Y-115493800D01*
%TD*%
M02*
