%TF.GenerationSoftware,KiCad,Pcbnew,(6.0.0)*%
%TF.CreationDate,2022-03-17T17:23:03-06:00*%
%TF.ProjectId,FPAA_Starter_Board,46504141-5f53-4746-9172-7465725f426f,rev?*%
%TF.SameCoordinates,Original*%
%TF.FileFunction,Legend,Top*%
%TF.FilePolarity,Positive*%
%FSLAX46Y46*%
G04 Gerber Fmt 4.6, Leading zero omitted, Abs format (unit mm)*
G04 Created by KiCad (PCBNEW (6.0.0)) date 2022-03-17 17:23:03*
%MOMM*%
%LPD*%
G01*
G04 APERTURE LIST*
%ADD10C,0.100000*%
%ADD11C,0.075000*%
%ADD12C,0.120000*%
G04 APERTURE END LIST*
D10*
X129153571Y-105158333D02*
X129391666Y-105158333D01*
X129105952Y-105301190D02*
X129272619Y-104801190D01*
X129439285Y-105301190D01*
X129891666Y-105253571D02*
X129867857Y-105277380D01*
X129796428Y-105301190D01*
X129748809Y-105301190D01*
X129677380Y-105277380D01*
X129629761Y-105229761D01*
X129605952Y-105182142D01*
X129582142Y-105086904D01*
X129582142Y-105015476D01*
X129605952Y-104920238D01*
X129629761Y-104872619D01*
X129677380Y-104825000D01*
X129748809Y-104801190D01*
X129796428Y-104801190D01*
X129867857Y-104825000D01*
X129891666Y-104848809D01*
X130344047Y-105301190D02*
X130105952Y-105301190D01*
X130105952Y-104801190D01*
X130510714Y-105301190D02*
X130510714Y-104801190D01*
X130796428Y-105301190D02*
X130582142Y-105015476D01*
X130796428Y-104801190D02*
X130510714Y-105086904D01*
X141339285Y-110251190D02*
X141434523Y-110251190D01*
X141482142Y-110275000D01*
X141529761Y-110322619D01*
X141553571Y-110417857D01*
X141553571Y-110584523D01*
X141529761Y-110679761D01*
X141482142Y-110727380D01*
X141434523Y-110751190D01*
X141339285Y-110751190D01*
X141291666Y-110727380D01*
X141244047Y-110679761D01*
X141220238Y-110584523D01*
X141220238Y-110417857D01*
X141244047Y-110322619D01*
X141291666Y-110275000D01*
X141339285Y-110251190D01*
X141982142Y-110417857D02*
X141982142Y-110751190D01*
X141863095Y-110227380D02*
X141744047Y-110584523D01*
X142053571Y-110584523D01*
X142244047Y-110751190D02*
X142244047Y-110251190D01*
X142434523Y-110251190D01*
X142482142Y-110275000D01*
X142505952Y-110298809D01*
X142529761Y-110346428D01*
X142529761Y-110417857D01*
X142505952Y-110465476D01*
X142482142Y-110489285D01*
X142434523Y-110513095D01*
X142244047Y-110513095D01*
X111714285Y-120226190D02*
X111809523Y-120226190D01*
X111857142Y-120250000D01*
X111904761Y-120297619D01*
X111928571Y-120392857D01*
X111928571Y-120559523D01*
X111904761Y-120654761D01*
X111857142Y-120702380D01*
X111809523Y-120726190D01*
X111714285Y-120726190D01*
X111666666Y-120702380D01*
X111619047Y-120654761D01*
X111595238Y-120559523D01*
X111595238Y-120392857D01*
X111619047Y-120297619D01*
X111666666Y-120250000D01*
X111714285Y-120226190D01*
X112095238Y-120226190D02*
X112404761Y-120226190D01*
X112238095Y-120416666D01*
X112309523Y-120416666D01*
X112357142Y-120440476D01*
X112380952Y-120464285D01*
X112404761Y-120511904D01*
X112404761Y-120630952D01*
X112380952Y-120678571D01*
X112357142Y-120702380D01*
X112309523Y-120726190D01*
X112166666Y-120726190D01*
X112119047Y-120702380D01*
X112095238Y-120678571D01*
X112619047Y-120726190D02*
X112619047Y-120226190D01*
X112809523Y-120226190D01*
X112857142Y-120250000D01*
X112880952Y-120273809D01*
X112904761Y-120321428D01*
X112904761Y-120392857D01*
X112880952Y-120440476D01*
X112857142Y-120464285D01*
X112809523Y-120488095D01*
X112619047Y-120488095D01*
X131188095Y-120736190D02*
X131188095Y-120236190D01*
X131521428Y-120236190D02*
X131616666Y-120236190D01*
X131664285Y-120260000D01*
X131711904Y-120307619D01*
X131735714Y-120402857D01*
X131735714Y-120569523D01*
X131711904Y-120664761D01*
X131664285Y-120712380D01*
X131616666Y-120736190D01*
X131521428Y-120736190D01*
X131473809Y-120712380D01*
X131426190Y-120664761D01*
X131402380Y-120569523D01*
X131402380Y-120402857D01*
X131426190Y-120307619D01*
X131473809Y-120260000D01*
X131521428Y-120236190D01*
X131902380Y-120236190D02*
X132235714Y-120236190D01*
X132021428Y-120736190D01*
X132426190Y-120736190D02*
X132426190Y-120236190D01*
X132711904Y-120736190D01*
X132711904Y-120236190D01*
X128700000Y-120736190D02*
X128700000Y-120236190D01*
X129033333Y-120236190D02*
X129128571Y-120236190D01*
X129176190Y-120260000D01*
X129223809Y-120307619D01*
X129247619Y-120402857D01*
X129247619Y-120569523D01*
X129223809Y-120664761D01*
X129176190Y-120712380D01*
X129128571Y-120736190D01*
X129033333Y-120736190D01*
X128985714Y-120712380D01*
X128938095Y-120664761D01*
X128914285Y-120569523D01*
X128914285Y-120402857D01*
X128938095Y-120307619D01*
X128985714Y-120260000D01*
X129033333Y-120236190D01*
X129414285Y-120236190D02*
X129747619Y-120236190D01*
X129533333Y-120736190D01*
X129938095Y-120736190D02*
X129938095Y-120236190D01*
X130128571Y-120236190D01*
X130176190Y-120260000D01*
X130200000Y-120283809D01*
X130223809Y-120331428D01*
X130223809Y-120402857D01*
X130200000Y-120450476D01*
X130176190Y-120474285D01*
X130128571Y-120498095D01*
X129938095Y-120498095D01*
X109452380Y-107226190D02*
X109547619Y-107226190D01*
X109595238Y-107250000D01*
X109642857Y-107297619D01*
X109666666Y-107392857D01*
X109666666Y-107559523D01*
X109642857Y-107654761D01*
X109595238Y-107702380D01*
X109547619Y-107726190D01*
X109452380Y-107726190D01*
X109404761Y-107702380D01*
X109357142Y-107654761D01*
X109333333Y-107559523D01*
X109333333Y-107392857D01*
X109357142Y-107297619D01*
X109404761Y-107250000D01*
X109452380Y-107226190D01*
X109857142Y-107273809D02*
X109880952Y-107250000D01*
X109928571Y-107226190D01*
X110047619Y-107226190D01*
X110095238Y-107250000D01*
X110119047Y-107273809D01*
X110142857Y-107321428D01*
X110142857Y-107369047D01*
X110119047Y-107440476D01*
X109833333Y-107726190D01*
X110142857Y-107726190D01*
X110357142Y-107726190D02*
X110357142Y-107226190D01*
X110642857Y-107726190D01*
X110642857Y-107226190D01*
X136150000Y-110776190D02*
X136150000Y-110276190D01*
X136602380Y-110442857D02*
X136602380Y-110776190D01*
X136483333Y-110252380D02*
X136364285Y-110609523D01*
X136673809Y-110609523D01*
X136864285Y-110776190D02*
X136864285Y-110276190D01*
X137150000Y-110776190D01*
X137150000Y-110276190D01*
X109250000Y-102726190D02*
X109250000Y-102226190D01*
X109750000Y-102726190D02*
X109464285Y-102726190D01*
X109607142Y-102726190D02*
X109607142Y-102226190D01*
X109559523Y-102297619D01*
X109511904Y-102345238D01*
X109464285Y-102369047D01*
X109964285Y-102726190D02*
X109964285Y-102226190D01*
X110250000Y-102726190D01*
X110250000Y-102226190D01*
X138354761Y-105052380D02*
X138426190Y-105076190D01*
X138545238Y-105076190D01*
X138592857Y-105052380D01*
X138616666Y-105028571D01*
X138640476Y-104980952D01*
X138640476Y-104933333D01*
X138616666Y-104885714D01*
X138592857Y-104861904D01*
X138545238Y-104838095D01*
X138450000Y-104814285D01*
X138402380Y-104790476D01*
X138378571Y-104766666D01*
X138354761Y-104719047D01*
X138354761Y-104671428D01*
X138378571Y-104623809D01*
X138402380Y-104600000D01*
X138450000Y-104576190D01*
X138569047Y-104576190D01*
X138640476Y-104600000D01*
X139140476Y-105028571D02*
X139116666Y-105052380D01*
X139045238Y-105076190D01*
X138997619Y-105076190D01*
X138926190Y-105052380D01*
X138878571Y-105004761D01*
X138854761Y-104957142D01*
X138830952Y-104861904D01*
X138830952Y-104790476D01*
X138854761Y-104695238D01*
X138878571Y-104647619D01*
X138926190Y-104600000D01*
X138997619Y-104576190D01*
X139045238Y-104576190D01*
X139116666Y-104600000D01*
X139140476Y-104623809D01*
X139592857Y-105076190D02*
X139354761Y-105076190D01*
X139354761Y-104576190D01*
X139759523Y-105076190D02*
X139759523Y-104576190D01*
X140045238Y-105076190D02*
X139830952Y-104790476D01*
X140045238Y-104576190D02*
X139759523Y-104861904D01*
X138677380Y-110251190D02*
X138772619Y-110251190D01*
X138820238Y-110275000D01*
X138867857Y-110322619D01*
X138891666Y-110417857D01*
X138891666Y-110584523D01*
X138867857Y-110679761D01*
X138820238Y-110727380D01*
X138772619Y-110751190D01*
X138677380Y-110751190D01*
X138629761Y-110727380D01*
X138582142Y-110679761D01*
X138558333Y-110584523D01*
X138558333Y-110417857D01*
X138582142Y-110322619D01*
X138629761Y-110275000D01*
X138677380Y-110251190D01*
X139320238Y-110417857D02*
X139320238Y-110751190D01*
X139201190Y-110227380D02*
X139082142Y-110584523D01*
X139391666Y-110584523D01*
X139582142Y-110751190D02*
X139582142Y-110251190D01*
X139867857Y-110751190D01*
X139867857Y-110251190D01*
X107000000Y-107726190D02*
X107000000Y-107226190D01*
X107214285Y-107273809D02*
X107238095Y-107250000D01*
X107285714Y-107226190D01*
X107404761Y-107226190D01*
X107452380Y-107250000D01*
X107476190Y-107273809D01*
X107500000Y-107321428D01*
X107500000Y-107369047D01*
X107476190Y-107440476D01*
X107190476Y-107726190D01*
X107500000Y-107726190D01*
X107714285Y-107726190D02*
X107714285Y-107226190D01*
X108000000Y-107726190D01*
X108000000Y-107226190D01*
X135864285Y-105076190D02*
X135864285Y-104576190D01*
X136030952Y-104933333D01*
X136197619Y-104576190D01*
X136197619Y-105076190D01*
X136530952Y-104576190D02*
X136626190Y-104576190D01*
X136673809Y-104600000D01*
X136721428Y-104647619D01*
X136745238Y-104742857D01*
X136745238Y-104909523D01*
X136721428Y-105004761D01*
X136673809Y-105052380D01*
X136626190Y-105076190D01*
X136530952Y-105076190D01*
X136483333Y-105052380D01*
X136435714Y-105004761D01*
X136411904Y-104909523D01*
X136411904Y-104742857D01*
X136435714Y-104647619D01*
X136483333Y-104600000D01*
X136530952Y-104576190D01*
X136935714Y-105052380D02*
X137007142Y-105076190D01*
X137126190Y-105076190D01*
X137173809Y-105052380D01*
X137197619Y-105028571D01*
X137221428Y-104980952D01*
X137221428Y-104933333D01*
X137197619Y-104885714D01*
X137173809Y-104861904D01*
X137126190Y-104838095D01*
X137030952Y-104814285D01*
X136983333Y-104790476D01*
X136959523Y-104766666D01*
X136935714Y-104719047D01*
X136935714Y-104671428D01*
X136959523Y-104623809D01*
X136983333Y-104600000D01*
X137030952Y-104576190D01*
X137150000Y-104576190D01*
X137221428Y-104600000D01*
X137435714Y-105076190D02*
X137435714Y-104576190D01*
X104214285Y-102226190D02*
X104309523Y-102226190D01*
X104357142Y-102250000D01*
X104404761Y-102297619D01*
X104428571Y-102392857D01*
X104428571Y-102559523D01*
X104404761Y-102654761D01*
X104357142Y-102702380D01*
X104309523Y-102726190D01*
X104214285Y-102726190D01*
X104166666Y-102702380D01*
X104119047Y-102654761D01*
X104095238Y-102559523D01*
X104095238Y-102392857D01*
X104119047Y-102297619D01*
X104166666Y-102250000D01*
X104214285Y-102226190D01*
X104904761Y-102726190D02*
X104619047Y-102726190D01*
X104761904Y-102726190D02*
X104761904Y-102226190D01*
X104714285Y-102297619D01*
X104666666Y-102345238D01*
X104619047Y-102369047D01*
X105119047Y-102726190D02*
X105119047Y-102226190D01*
X105309523Y-102226190D01*
X105357142Y-102250000D01*
X105380952Y-102273809D01*
X105404761Y-102321428D01*
X105404761Y-102392857D01*
X105380952Y-102440476D01*
X105357142Y-102464285D01*
X105309523Y-102488095D01*
X105119047Y-102488095D01*
X115610000Y-120736190D02*
X115610000Y-120236190D01*
X115943333Y-120236190D02*
X116038571Y-120236190D01*
X116086190Y-120260000D01*
X116133809Y-120307619D01*
X116157619Y-120402857D01*
X116157619Y-120569523D01*
X116133809Y-120664761D01*
X116086190Y-120712380D01*
X116038571Y-120736190D01*
X115943333Y-120736190D01*
X115895714Y-120712380D01*
X115848095Y-120664761D01*
X115824285Y-120569523D01*
X115824285Y-120402857D01*
X115848095Y-120307619D01*
X115895714Y-120260000D01*
X115943333Y-120236190D01*
X116610000Y-120236190D02*
X116371904Y-120236190D01*
X116348095Y-120474285D01*
X116371904Y-120450476D01*
X116419523Y-120426666D01*
X116538571Y-120426666D01*
X116586190Y-120450476D01*
X116610000Y-120474285D01*
X116633809Y-120521904D01*
X116633809Y-120640952D01*
X116610000Y-120688571D01*
X116586190Y-120712380D01*
X116538571Y-120736190D01*
X116419523Y-120736190D01*
X116371904Y-120712380D01*
X116348095Y-120688571D01*
X116848095Y-120736190D02*
X116848095Y-120236190D01*
X117038571Y-120236190D01*
X117086190Y-120260000D01*
X117110000Y-120283809D01*
X117133809Y-120331428D01*
X117133809Y-120402857D01*
X117110000Y-120450476D01*
X117086190Y-120474285D01*
X117038571Y-120498095D01*
X116848095Y-120498095D01*
X118098095Y-120736190D02*
X118098095Y-120236190D01*
X118431428Y-120236190D02*
X118526666Y-120236190D01*
X118574285Y-120260000D01*
X118621904Y-120307619D01*
X118645714Y-120402857D01*
X118645714Y-120569523D01*
X118621904Y-120664761D01*
X118574285Y-120712380D01*
X118526666Y-120736190D01*
X118431428Y-120736190D01*
X118383809Y-120712380D01*
X118336190Y-120664761D01*
X118312380Y-120569523D01*
X118312380Y-120402857D01*
X118336190Y-120307619D01*
X118383809Y-120260000D01*
X118431428Y-120236190D01*
X119098095Y-120236190D02*
X118860000Y-120236190D01*
X118836190Y-120474285D01*
X118860000Y-120450476D01*
X118907619Y-120426666D01*
X119026666Y-120426666D01*
X119074285Y-120450476D01*
X119098095Y-120474285D01*
X119121904Y-120521904D01*
X119121904Y-120640952D01*
X119098095Y-120688571D01*
X119074285Y-120712380D01*
X119026666Y-120736190D01*
X118907619Y-120736190D01*
X118860000Y-120712380D01*
X118836190Y-120688571D01*
X119336190Y-120736190D02*
X119336190Y-120236190D01*
X119621904Y-120736190D01*
X119621904Y-120236190D01*
X106750000Y-120726190D02*
X106750000Y-120226190D01*
X106940476Y-120226190D02*
X107250000Y-120226190D01*
X107083333Y-120416666D01*
X107154761Y-120416666D01*
X107202380Y-120440476D01*
X107226190Y-120464285D01*
X107250000Y-120511904D01*
X107250000Y-120630952D01*
X107226190Y-120678571D01*
X107202380Y-120702380D01*
X107154761Y-120726190D01*
X107011904Y-120726190D01*
X106964285Y-120702380D01*
X106940476Y-120678571D01*
X107464285Y-120726190D02*
X107464285Y-120226190D01*
X107750000Y-120726190D01*
X107750000Y-120226190D01*
X122140000Y-120746190D02*
X122140000Y-120246190D01*
X122473333Y-120246190D02*
X122568571Y-120246190D01*
X122616190Y-120270000D01*
X122663809Y-120317619D01*
X122687619Y-120412857D01*
X122687619Y-120579523D01*
X122663809Y-120674761D01*
X122616190Y-120722380D01*
X122568571Y-120746190D01*
X122473333Y-120746190D01*
X122425714Y-120722380D01*
X122378095Y-120674761D01*
X122354285Y-120579523D01*
X122354285Y-120412857D01*
X122378095Y-120317619D01*
X122425714Y-120270000D01*
X122473333Y-120246190D01*
X123116190Y-120246190D02*
X123020952Y-120246190D01*
X122973333Y-120270000D01*
X122949523Y-120293809D01*
X122901904Y-120365238D01*
X122878095Y-120460476D01*
X122878095Y-120650952D01*
X122901904Y-120698571D01*
X122925714Y-120722380D01*
X122973333Y-120746190D01*
X123068571Y-120746190D01*
X123116190Y-120722380D01*
X123140000Y-120698571D01*
X123163809Y-120650952D01*
X123163809Y-120531904D01*
X123140000Y-120484285D01*
X123116190Y-120460476D01*
X123068571Y-120436666D01*
X122973333Y-120436666D01*
X122925714Y-120460476D01*
X122901904Y-120484285D01*
X122878095Y-120531904D01*
X123378095Y-120746190D02*
X123378095Y-120246190D01*
X123568571Y-120246190D01*
X123616190Y-120270000D01*
X123640000Y-120293809D01*
X123663809Y-120341428D01*
X123663809Y-120412857D01*
X123640000Y-120460476D01*
X123616190Y-120484285D01*
X123568571Y-120508095D01*
X123378095Y-120508095D01*
X133761904Y-110751190D02*
X133761904Y-110251190D01*
X134214285Y-110417857D02*
X134214285Y-110751190D01*
X134095238Y-110227380D02*
X133976190Y-110584523D01*
X134285714Y-110584523D01*
X134476190Y-110751190D02*
X134476190Y-110251190D01*
X134666666Y-110251190D01*
X134714285Y-110275000D01*
X134738095Y-110298809D01*
X134761904Y-110346428D01*
X134761904Y-110417857D01*
X134738095Y-110465476D01*
X134714285Y-110489285D01*
X134666666Y-110513095D01*
X134476190Y-110513095D01*
X140902380Y-105052380D02*
X140973809Y-105076190D01*
X141092857Y-105076190D01*
X141140476Y-105052380D01*
X141164285Y-105028571D01*
X141188095Y-104980952D01*
X141188095Y-104933333D01*
X141164285Y-104885714D01*
X141140476Y-104861904D01*
X141092857Y-104838095D01*
X140997619Y-104814285D01*
X140950000Y-104790476D01*
X140926190Y-104766666D01*
X140902380Y-104719047D01*
X140902380Y-104671428D01*
X140926190Y-104623809D01*
X140950000Y-104600000D01*
X140997619Y-104576190D01*
X141116666Y-104576190D01*
X141188095Y-104600000D01*
X141402380Y-104814285D02*
X141569047Y-104814285D01*
X141640476Y-105076190D02*
X141402380Y-105076190D01*
X141402380Y-104576190D01*
X141640476Y-104576190D01*
X142092857Y-105076190D02*
X141854761Y-105076190D01*
X141854761Y-104576190D01*
X142259523Y-105076190D02*
X142259523Y-104576190D01*
X142259523Y-104766666D02*
X142307142Y-104742857D01*
X142402380Y-104742857D01*
X142450000Y-104766666D01*
X142473809Y-104790476D01*
X142497619Y-104838095D01*
X142497619Y-104980952D01*
X142473809Y-105028571D01*
X142450000Y-105052380D01*
X142402380Y-105076190D01*
X142307142Y-105076190D01*
X142259523Y-105052380D01*
X104511904Y-107726190D02*
X104511904Y-107226190D01*
X104726190Y-107273809D02*
X104750000Y-107250000D01*
X104797619Y-107226190D01*
X104916666Y-107226190D01*
X104964285Y-107250000D01*
X104988095Y-107273809D01*
X105011904Y-107321428D01*
X105011904Y-107369047D01*
X104988095Y-107440476D01*
X104702380Y-107726190D01*
X105011904Y-107726190D01*
X105226190Y-107726190D02*
X105226190Y-107226190D01*
X105416666Y-107226190D01*
X105464285Y-107250000D01*
X105488095Y-107273809D01*
X105511904Y-107321428D01*
X105511904Y-107392857D01*
X105488095Y-107440476D01*
X105464285Y-107464285D01*
X105416666Y-107488095D01*
X105226190Y-107488095D01*
X119500000Y-92035714D02*
X119880952Y-92035714D01*
X119690476Y-92226190D02*
X119690476Y-91845238D01*
X120071428Y-91726190D02*
X120380952Y-91726190D01*
X120214285Y-91916666D01*
X120285714Y-91916666D01*
X120333333Y-91940476D01*
X120357142Y-91964285D01*
X120380952Y-92011904D01*
X120380952Y-92130952D01*
X120357142Y-92178571D01*
X120333333Y-92202380D01*
X120285714Y-92226190D01*
X120142857Y-92226190D01*
X120095238Y-92202380D01*
X120071428Y-92178571D01*
X120595238Y-92178571D02*
X120619047Y-92202380D01*
X120595238Y-92226190D01*
X120571428Y-92202380D01*
X120595238Y-92178571D01*
X120595238Y-92226190D01*
X120785714Y-91726190D02*
X121095238Y-91726190D01*
X120928571Y-91916666D01*
X121000000Y-91916666D01*
X121047619Y-91940476D01*
X121071428Y-91964285D01*
X121095238Y-92011904D01*
X121095238Y-92130952D01*
X121071428Y-92178571D01*
X121047619Y-92202380D01*
X121000000Y-92226190D01*
X120857142Y-92226190D01*
X120809523Y-92202380D01*
X120785714Y-92178571D01*
X121238095Y-91726190D02*
X121404761Y-92226190D01*
X121571428Y-91726190D01*
X124628095Y-120746190D02*
X124628095Y-120246190D01*
X124961428Y-120246190D02*
X125056666Y-120246190D01*
X125104285Y-120270000D01*
X125151904Y-120317619D01*
X125175714Y-120412857D01*
X125175714Y-120579523D01*
X125151904Y-120674761D01*
X125104285Y-120722380D01*
X125056666Y-120746190D01*
X124961428Y-120746190D01*
X124913809Y-120722380D01*
X124866190Y-120674761D01*
X124842380Y-120579523D01*
X124842380Y-120412857D01*
X124866190Y-120317619D01*
X124913809Y-120270000D01*
X124961428Y-120246190D01*
X125604285Y-120246190D02*
X125509047Y-120246190D01*
X125461428Y-120270000D01*
X125437619Y-120293809D01*
X125390000Y-120365238D01*
X125366190Y-120460476D01*
X125366190Y-120650952D01*
X125390000Y-120698571D01*
X125413809Y-120722380D01*
X125461428Y-120746190D01*
X125556666Y-120746190D01*
X125604285Y-120722380D01*
X125628095Y-120698571D01*
X125651904Y-120650952D01*
X125651904Y-120531904D01*
X125628095Y-120484285D01*
X125604285Y-120460476D01*
X125556666Y-120436666D01*
X125461428Y-120436666D01*
X125413809Y-120460476D01*
X125390000Y-120484285D01*
X125366190Y-120531904D01*
X125866190Y-120746190D02*
X125866190Y-120246190D01*
X126151904Y-120746190D01*
X126151904Y-120246190D01*
X117619047Y-91750000D02*
X117571428Y-91726190D01*
X117500000Y-91726190D01*
X117428571Y-91750000D01*
X117380952Y-91797619D01*
X117357142Y-91845238D01*
X117333333Y-91940476D01*
X117333333Y-92011904D01*
X117357142Y-92107142D01*
X117380952Y-92154761D01*
X117428571Y-92202380D01*
X117500000Y-92226190D01*
X117547619Y-92226190D01*
X117619047Y-92202380D01*
X117642857Y-92178571D01*
X117642857Y-92011904D01*
X117547619Y-92011904D01*
X117857142Y-92226190D02*
X117857142Y-91726190D01*
X118142857Y-92226190D01*
X118142857Y-91726190D01*
X118380952Y-92226190D02*
X118380952Y-91726190D01*
X118500000Y-91726190D01*
X118571428Y-91750000D01*
X118619047Y-91797619D01*
X118642857Y-91845238D01*
X118666666Y-91940476D01*
X118666666Y-92011904D01*
X118642857Y-92107142D01*
X118619047Y-92154761D01*
X118571428Y-92202380D01*
X118500000Y-92226190D01*
X118380952Y-92226190D01*
D11*
X131114285Y-100085714D02*
X131114285Y-100300000D01*
X131100000Y-100342857D01*
X131071428Y-100371428D01*
X131028571Y-100385714D01*
X131000000Y-100385714D01*
X131400000Y-100385714D02*
X131257142Y-100385714D01*
X131257142Y-100085714D01*
X131671428Y-100357142D02*
X131657142Y-100371428D01*
X131614285Y-100385714D01*
X131585714Y-100385714D01*
X131542857Y-100371428D01*
X131514285Y-100342857D01*
X131500000Y-100314285D01*
X131485714Y-100257142D01*
X131485714Y-100214285D01*
X131500000Y-100157142D01*
X131514285Y-100128571D01*
X131542857Y-100100000D01*
X131585714Y-100085714D01*
X131614285Y-100085714D01*
X131657142Y-100100000D01*
X131671428Y-100114285D01*
X131885714Y-100085714D02*
X131885714Y-100300000D01*
X131871428Y-100342857D01*
X131842857Y-100371428D01*
X131800000Y-100385714D01*
X131771428Y-100385714D01*
X132171428Y-100385714D02*
X132028571Y-100385714D01*
X132028571Y-100085714D01*
X132442857Y-100357142D02*
X132428571Y-100371428D01*
X132385714Y-100385714D01*
X132357142Y-100385714D01*
X132314285Y-100371428D01*
X132285714Y-100342857D01*
X132271428Y-100314285D01*
X132257142Y-100257142D01*
X132257142Y-100214285D01*
X132271428Y-100157142D01*
X132285714Y-100128571D01*
X132314285Y-100100000D01*
X132357142Y-100085714D01*
X132385714Y-100085714D01*
X132428571Y-100100000D01*
X132442857Y-100114285D01*
X132657142Y-100085714D02*
X132657142Y-100300000D01*
X132642857Y-100342857D01*
X132614285Y-100371428D01*
X132571428Y-100385714D01*
X132542857Y-100385714D01*
X132942857Y-100385714D02*
X132800000Y-100385714D01*
X132800000Y-100085714D01*
X133214285Y-100357142D02*
X133200000Y-100371428D01*
X133157142Y-100385714D01*
X133128571Y-100385714D01*
X133085714Y-100371428D01*
X133057142Y-100342857D01*
X133042857Y-100314285D01*
X133028571Y-100257142D01*
X133028571Y-100214285D01*
X133042857Y-100157142D01*
X133057142Y-100128571D01*
X133085714Y-100100000D01*
X133128571Y-100085714D01*
X133157142Y-100085714D01*
X133200000Y-100100000D01*
X133214285Y-100114285D01*
X133428571Y-100085714D02*
X133428571Y-100300000D01*
X133414285Y-100342857D01*
X133385714Y-100371428D01*
X133342857Y-100385714D01*
X133314285Y-100385714D01*
X133714285Y-100385714D02*
X133571428Y-100385714D01*
X133571428Y-100085714D01*
X133985714Y-100357142D02*
X133971428Y-100371428D01*
X133928571Y-100385714D01*
X133900000Y-100385714D01*
X133857142Y-100371428D01*
X133828571Y-100342857D01*
X133814285Y-100314285D01*
X133800000Y-100257142D01*
X133800000Y-100214285D01*
X133814285Y-100157142D01*
X133828571Y-100128571D01*
X133857142Y-100100000D01*
X133900000Y-100085714D01*
X133928571Y-100085714D01*
X133971428Y-100100000D01*
X133985714Y-100114285D01*
D10*
X111964285Y-107226190D02*
X112059523Y-107226190D01*
X112107142Y-107250000D01*
X112154761Y-107297619D01*
X112178571Y-107392857D01*
X112178571Y-107559523D01*
X112154761Y-107654761D01*
X112107142Y-107702380D01*
X112059523Y-107726190D01*
X111964285Y-107726190D01*
X111916666Y-107702380D01*
X111869047Y-107654761D01*
X111845238Y-107559523D01*
X111845238Y-107392857D01*
X111869047Y-107297619D01*
X111916666Y-107250000D01*
X111964285Y-107226190D01*
X112369047Y-107273809D02*
X112392857Y-107250000D01*
X112440476Y-107226190D01*
X112559523Y-107226190D01*
X112607142Y-107250000D01*
X112630952Y-107273809D01*
X112654761Y-107321428D01*
X112654761Y-107369047D01*
X112630952Y-107440476D01*
X112345238Y-107726190D01*
X112654761Y-107726190D01*
X112869047Y-107726190D02*
X112869047Y-107226190D01*
X113059523Y-107226190D01*
X113107142Y-107250000D01*
X113130952Y-107273809D01*
X113154761Y-107321428D01*
X113154761Y-107392857D01*
X113130952Y-107440476D01*
X113107142Y-107464285D01*
X113059523Y-107488095D01*
X112869047Y-107488095D01*
X104261904Y-120726190D02*
X104261904Y-120226190D01*
X104452380Y-120226190D02*
X104761904Y-120226190D01*
X104595238Y-120416666D01*
X104666666Y-120416666D01*
X104714285Y-120440476D01*
X104738095Y-120464285D01*
X104761904Y-120511904D01*
X104761904Y-120630952D01*
X104738095Y-120678571D01*
X104714285Y-120702380D01*
X104666666Y-120726190D01*
X104523809Y-120726190D01*
X104476190Y-120702380D01*
X104452380Y-120678571D01*
X104976190Y-120726190D02*
X104976190Y-120226190D01*
X105166666Y-120226190D01*
X105214285Y-120250000D01*
X105238095Y-120273809D01*
X105261904Y-120321428D01*
X105261904Y-120392857D01*
X105238095Y-120440476D01*
X105214285Y-120464285D01*
X105166666Y-120488095D01*
X104976190Y-120488095D01*
X111761904Y-102726190D02*
X111761904Y-102226190D01*
X112261904Y-102726190D02*
X111976190Y-102726190D01*
X112119047Y-102726190D02*
X112119047Y-102226190D01*
X112071428Y-102297619D01*
X112023809Y-102345238D01*
X111976190Y-102369047D01*
X112476190Y-102726190D02*
X112476190Y-102226190D01*
X112666666Y-102226190D01*
X112714285Y-102250000D01*
X112738095Y-102273809D01*
X112761904Y-102321428D01*
X112761904Y-102392857D01*
X112738095Y-102440476D01*
X112714285Y-102464285D01*
X112666666Y-102488095D01*
X112476190Y-102488095D01*
X109202380Y-120226190D02*
X109297619Y-120226190D01*
X109345238Y-120250000D01*
X109392857Y-120297619D01*
X109416666Y-120392857D01*
X109416666Y-120559523D01*
X109392857Y-120654761D01*
X109345238Y-120702380D01*
X109297619Y-120726190D01*
X109202380Y-120726190D01*
X109154761Y-120702380D01*
X109107142Y-120654761D01*
X109083333Y-120559523D01*
X109083333Y-120392857D01*
X109107142Y-120297619D01*
X109154761Y-120250000D01*
X109202380Y-120226190D01*
X109583333Y-120226190D02*
X109892857Y-120226190D01*
X109726190Y-120416666D01*
X109797619Y-120416666D01*
X109845238Y-120440476D01*
X109869047Y-120464285D01*
X109892857Y-120511904D01*
X109892857Y-120630952D01*
X109869047Y-120678571D01*
X109845238Y-120702380D01*
X109797619Y-120726190D01*
X109654761Y-120726190D01*
X109607142Y-120702380D01*
X109583333Y-120678571D01*
X110107142Y-120726190D02*
X110107142Y-120226190D01*
X110392857Y-120726190D01*
X110392857Y-120226190D01*
X106702380Y-102226190D02*
X106797619Y-102226190D01*
X106845238Y-102250000D01*
X106892857Y-102297619D01*
X106916666Y-102392857D01*
X106916666Y-102559523D01*
X106892857Y-102654761D01*
X106845238Y-102702380D01*
X106797619Y-102726190D01*
X106702380Y-102726190D01*
X106654761Y-102702380D01*
X106607142Y-102654761D01*
X106583333Y-102559523D01*
X106583333Y-102392857D01*
X106607142Y-102297619D01*
X106654761Y-102250000D01*
X106702380Y-102226190D01*
X107392857Y-102726190D02*
X107107142Y-102726190D01*
X107250000Y-102726190D02*
X107250000Y-102226190D01*
X107202380Y-102297619D01*
X107154761Y-102345238D01*
X107107142Y-102369047D01*
X107607142Y-102726190D02*
X107607142Y-102226190D01*
X107892857Y-102726190D01*
X107892857Y-102226190D01*
D12*
%TO.C,C1*%
X131316666Y-106713571D02*
X131292857Y-106737380D01*
X131221428Y-106761190D01*
X131173809Y-106761190D01*
X131102380Y-106737380D01*
X131054761Y-106689761D01*
X131030952Y-106642142D01*
X131007142Y-106546904D01*
X131007142Y-106475476D01*
X131030952Y-106380238D01*
X131054761Y-106332619D01*
X131102380Y-106285000D01*
X131173809Y-106261190D01*
X131221428Y-106261190D01*
X131292857Y-106285000D01*
X131316666Y-106308809D01*
X131792857Y-106761190D02*
X131507142Y-106761190D01*
X131650000Y-106761190D02*
X131650000Y-106261190D01*
X131602380Y-106332619D01*
X131554761Y-106380238D01*
X131507142Y-106404047D01*
D10*
%TO.C,J10*%
X134620238Y-101226190D02*
X134620238Y-101583333D01*
X134596428Y-101654761D01*
X134548809Y-101702380D01*
X134477380Y-101726190D01*
X134429761Y-101726190D01*
X135120238Y-101726190D02*
X134834523Y-101726190D01*
X134977380Y-101726190D02*
X134977380Y-101226190D01*
X134929761Y-101297619D01*
X134882142Y-101345238D01*
X134834523Y-101369047D01*
X135429761Y-101226190D02*
X135477380Y-101226190D01*
X135525000Y-101250000D01*
X135548809Y-101273809D01*
X135572619Y-101321428D01*
X135596428Y-101416666D01*
X135596428Y-101535714D01*
X135572619Y-101630952D01*
X135548809Y-101678571D01*
X135525000Y-101702380D01*
X135477380Y-101726190D01*
X135429761Y-101726190D01*
X135382142Y-101702380D01*
X135358333Y-101678571D01*
X135334523Y-101630952D01*
X135310714Y-101535714D01*
X135310714Y-101416666D01*
X135334523Y-101321428D01*
X135358333Y-101273809D01*
X135382142Y-101250000D01*
X135429761Y-101226190D01*
D12*
%TO.C,C8*%
X127966666Y-113478571D02*
X127942857Y-113502380D01*
X127871428Y-113526190D01*
X127823809Y-113526190D01*
X127752380Y-113502380D01*
X127704761Y-113454761D01*
X127680952Y-113407142D01*
X127657142Y-113311904D01*
X127657142Y-113240476D01*
X127680952Y-113145238D01*
X127704761Y-113097619D01*
X127752380Y-113050000D01*
X127823809Y-113026190D01*
X127871428Y-113026190D01*
X127942857Y-113050000D01*
X127966666Y-113073809D01*
X128252380Y-113240476D02*
X128204761Y-113216666D01*
X128180952Y-113192857D01*
X128157142Y-113145238D01*
X128157142Y-113121428D01*
X128180952Y-113073809D01*
X128204761Y-113050000D01*
X128252380Y-113026190D01*
X128347619Y-113026190D01*
X128395238Y-113050000D01*
X128419047Y-113073809D01*
X128442857Y-113121428D01*
X128442857Y-113145238D01*
X128419047Y-113192857D01*
X128395238Y-113216666D01*
X128347619Y-113240476D01*
X128252380Y-113240476D01*
X128204761Y-113264285D01*
X128180952Y-113288095D01*
X128157142Y-113335714D01*
X128157142Y-113430952D01*
X128180952Y-113478571D01*
X128204761Y-113502380D01*
X128252380Y-113526190D01*
X128347619Y-113526190D01*
X128395238Y-113502380D01*
X128419047Y-113478571D01*
X128442857Y-113430952D01*
X128442857Y-113335714D01*
X128419047Y-113288095D01*
X128395238Y-113264285D01*
X128347619Y-113240476D01*
%TO.C,J4*%
X102903333Y-107316190D02*
X102903333Y-107673333D01*
X102879523Y-107744761D01*
X102831904Y-107792380D01*
X102760476Y-107816190D01*
X102712857Y-107816190D01*
X103355714Y-107482857D02*
X103355714Y-107816190D01*
X103236666Y-107292380D02*
X103117619Y-107649523D01*
X103427142Y-107649523D01*
%TO.C,J5*%
X120143333Y-115426190D02*
X120143333Y-115783333D01*
X120119523Y-115854761D01*
X120071904Y-115902380D01*
X120000476Y-115926190D01*
X119952857Y-115926190D01*
X120619523Y-115426190D02*
X120381428Y-115426190D01*
X120357619Y-115664285D01*
X120381428Y-115640476D01*
X120429047Y-115616666D01*
X120548095Y-115616666D01*
X120595714Y-115640476D01*
X120619523Y-115664285D01*
X120643333Y-115711904D01*
X120643333Y-115830952D01*
X120619523Y-115878571D01*
X120595714Y-115902380D01*
X120548095Y-115926190D01*
X120429047Y-115926190D01*
X120381428Y-115902380D01*
X120357619Y-115878571D01*
%TO.C,J1*%
X115333333Y-94226190D02*
X115333333Y-94583333D01*
X115309523Y-94654761D01*
X115261904Y-94702380D01*
X115190476Y-94726190D01*
X115142857Y-94726190D01*
X115833333Y-94726190D02*
X115547619Y-94726190D01*
X115690476Y-94726190D02*
X115690476Y-94226190D01*
X115642857Y-94297619D01*
X115595238Y-94345238D01*
X115547619Y-94369047D01*
%TO.C,C3*%
X132656666Y-109738571D02*
X132632857Y-109762380D01*
X132561428Y-109786190D01*
X132513809Y-109786190D01*
X132442380Y-109762380D01*
X132394761Y-109714761D01*
X132370952Y-109667142D01*
X132347142Y-109571904D01*
X132347142Y-109500476D01*
X132370952Y-109405238D01*
X132394761Y-109357619D01*
X132442380Y-109310000D01*
X132513809Y-109286190D01*
X132561428Y-109286190D01*
X132632857Y-109310000D01*
X132656666Y-109333809D01*
X132823333Y-109286190D02*
X133132857Y-109286190D01*
X132966190Y-109476666D01*
X133037619Y-109476666D01*
X133085238Y-109500476D01*
X133109047Y-109524285D01*
X133132857Y-109571904D01*
X133132857Y-109690952D01*
X133109047Y-109738571D01*
X133085238Y-109762380D01*
X133037619Y-109786190D01*
X132894761Y-109786190D01*
X132847142Y-109762380D01*
X132823333Y-109738571D01*
%TO.C,J9*%
X133253333Y-115486190D02*
X133253333Y-115843333D01*
X133229523Y-115914761D01*
X133181904Y-115962380D01*
X133110476Y-115986190D01*
X133062857Y-115986190D01*
X133515238Y-115986190D02*
X133610476Y-115986190D01*
X133658095Y-115962380D01*
X133681904Y-115938571D01*
X133729523Y-115867142D01*
X133753333Y-115771904D01*
X133753333Y-115581428D01*
X133729523Y-115533809D01*
X133705714Y-115510000D01*
X133658095Y-115486190D01*
X133562857Y-115486190D01*
X133515238Y-115510000D01*
X133491428Y-115533809D01*
X133467619Y-115581428D01*
X133467619Y-115700476D01*
X133491428Y-115748095D01*
X133515238Y-115771904D01*
X133562857Y-115795714D01*
X133658095Y-115795714D01*
X133705714Y-115771904D01*
X133729523Y-115748095D01*
X133753333Y-115700476D01*
%TO.C,J7*%
X113533333Y-115416190D02*
X113533333Y-115773333D01*
X113509523Y-115844761D01*
X113461904Y-115892380D01*
X113390476Y-115916190D01*
X113342857Y-115916190D01*
X113723809Y-115416190D02*
X114057142Y-115416190D01*
X113842857Y-115916190D01*
%TO.C,J2*%
X143993333Y-106916190D02*
X143993333Y-107273333D01*
X143969523Y-107344761D01*
X143921904Y-107392380D01*
X143850476Y-107416190D01*
X143802857Y-107416190D01*
X144207619Y-106963809D02*
X144231428Y-106940000D01*
X144279047Y-106916190D01*
X144398095Y-106916190D01*
X144445714Y-106940000D01*
X144469523Y-106963809D01*
X144493333Y-107011428D01*
X144493333Y-107059047D01*
X144469523Y-107130476D01*
X144183809Y-107416190D01*
X144493333Y-107416190D01*
%TO.C,C9*%
X130766666Y-112953571D02*
X130742857Y-112977380D01*
X130671428Y-113001190D01*
X130623809Y-113001190D01*
X130552380Y-112977380D01*
X130504761Y-112929761D01*
X130480952Y-112882142D01*
X130457142Y-112786904D01*
X130457142Y-112715476D01*
X130480952Y-112620238D01*
X130504761Y-112572619D01*
X130552380Y-112525000D01*
X130623809Y-112501190D01*
X130671428Y-112501190D01*
X130742857Y-112525000D01*
X130766666Y-112548809D01*
X131004761Y-113001190D02*
X131100000Y-113001190D01*
X131147619Y-112977380D01*
X131171428Y-112953571D01*
X131219047Y-112882142D01*
X131242857Y-112786904D01*
X131242857Y-112596428D01*
X131219047Y-112548809D01*
X131195238Y-112525000D01*
X131147619Y-112501190D01*
X131052380Y-112501190D01*
X131004761Y-112525000D01*
X130980952Y-112548809D01*
X130957142Y-112596428D01*
X130957142Y-112715476D01*
X130980952Y-112763095D01*
X131004761Y-112786904D01*
X131052380Y-112810714D01*
X131147619Y-112810714D01*
X131195238Y-112786904D01*
X131219047Y-112763095D01*
X131242857Y-112715476D01*
%TO.C,C7*%
X115368571Y-112033333D02*
X115392380Y-112057142D01*
X115416190Y-112128571D01*
X115416190Y-112176190D01*
X115392380Y-112247619D01*
X115344761Y-112295238D01*
X115297142Y-112319047D01*
X115201904Y-112342857D01*
X115130476Y-112342857D01*
X115035238Y-112319047D01*
X114987619Y-112295238D01*
X114940000Y-112247619D01*
X114916190Y-112176190D01*
X114916190Y-112128571D01*
X114940000Y-112057142D01*
X114963809Y-112033333D01*
X114916190Y-111866666D02*
X114916190Y-111533333D01*
X115416190Y-111747619D01*
%TO.C,C4*%
X127316666Y-103378571D02*
X127292857Y-103402380D01*
X127221428Y-103426190D01*
X127173809Y-103426190D01*
X127102380Y-103402380D01*
X127054761Y-103354761D01*
X127030952Y-103307142D01*
X127007142Y-103211904D01*
X127007142Y-103140476D01*
X127030952Y-103045238D01*
X127054761Y-102997619D01*
X127102380Y-102950000D01*
X127173809Y-102926190D01*
X127221428Y-102926190D01*
X127292857Y-102950000D01*
X127316666Y-102973809D01*
X127745238Y-103092857D02*
X127745238Y-103426190D01*
X127626190Y-102902380D02*
X127507142Y-103259523D01*
X127816666Y-103259523D01*
%TO.C,C6*%
X115343571Y-110583333D02*
X115367380Y-110607142D01*
X115391190Y-110678571D01*
X115391190Y-110726190D01*
X115367380Y-110797619D01*
X115319761Y-110845238D01*
X115272142Y-110869047D01*
X115176904Y-110892857D01*
X115105476Y-110892857D01*
X115010238Y-110869047D01*
X114962619Y-110845238D01*
X114915000Y-110797619D01*
X114891190Y-110726190D01*
X114891190Y-110678571D01*
X114915000Y-110607142D01*
X114938809Y-110583333D01*
X114891190Y-110154761D02*
X114891190Y-110250000D01*
X114915000Y-110297619D01*
X114938809Y-110321428D01*
X115010238Y-110369047D01*
X115105476Y-110392857D01*
X115295952Y-110392857D01*
X115343571Y-110369047D01*
X115367380Y-110345238D01*
X115391190Y-110297619D01*
X115391190Y-110202380D01*
X115367380Y-110154761D01*
X115343571Y-110130952D01*
X115295952Y-110107142D01*
X115176904Y-110107142D01*
X115129285Y-110130952D01*
X115105476Y-110154761D01*
X115081666Y-110202380D01*
X115081666Y-110297619D01*
X115105476Y-110345238D01*
X115129285Y-110369047D01*
X115176904Y-110392857D01*
%TO.C,C5*%
X127341666Y-101778571D02*
X127317857Y-101802380D01*
X127246428Y-101826190D01*
X127198809Y-101826190D01*
X127127380Y-101802380D01*
X127079761Y-101754761D01*
X127055952Y-101707142D01*
X127032142Y-101611904D01*
X127032142Y-101540476D01*
X127055952Y-101445238D01*
X127079761Y-101397619D01*
X127127380Y-101350000D01*
X127198809Y-101326190D01*
X127246428Y-101326190D01*
X127317857Y-101350000D01*
X127341666Y-101373809D01*
X127794047Y-101326190D02*
X127555952Y-101326190D01*
X127532142Y-101564285D01*
X127555952Y-101540476D01*
X127603571Y-101516666D01*
X127722619Y-101516666D01*
X127770238Y-101540476D01*
X127794047Y-101564285D01*
X127817857Y-101611904D01*
X127817857Y-101730952D01*
X127794047Y-101778571D01*
X127770238Y-101802380D01*
X127722619Y-101826190D01*
X127603571Y-101826190D01*
X127555952Y-101802380D01*
X127532142Y-101778571D01*
%TO.C,C10*%
X137353571Y-100128571D02*
X137329761Y-100152380D01*
X137258333Y-100176190D01*
X137210714Y-100176190D01*
X137139285Y-100152380D01*
X137091666Y-100104761D01*
X137067857Y-100057142D01*
X137044047Y-99961904D01*
X137044047Y-99890476D01*
X137067857Y-99795238D01*
X137091666Y-99747619D01*
X137139285Y-99700000D01*
X137210714Y-99676190D01*
X137258333Y-99676190D01*
X137329761Y-99700000D01*
X137353571Y-99723809D01*
X137829761Y-100176190D02*
X137544047Y-100176190D01*
X137686904Y-100176190D02*
X137686904Y-99676190D01*
X137639285Y-99747619D01*
X137591666Y-99795238D01*
X137544047Y-99819047D01*
X138139285Y-99676190D02*
X138186904Y-99676190D01*
X138234523Y-99700000D01*
X138258333Y-99723809D01*
X138282142Y-99771428D01*
X138305952Y-99866666D01*
X138305952Y-99985714D01*
X138282142Y-100080952D01*
X138258333Y-100128571D01*
X138234523Y-100152380D01*
X138186904Y-100176190D01*
X138139285Y-100176190D01*
X138091666Y-100152380D01*
X138067857Y-100128571D01*
X138044047Y-100080952D01*
X138020238Y-99985714D01*
X138020238Y-99866666D01*
X138044047Y-99771428D01*
X138067857Y-99723809D01*
X138091666Y-99700000D01*
X138139285Y-99676190D01*
%TO.C,Y1*%
X132761904Y-94538095D02*
X132761904Y-94776190D01*
X132595238Y-94276190D02*
X132761904Y-94538095D01*
X132928571Y-94276190D01*
X133357142Y-94776190D02*
X133071428Y-94776190D01*
X133214285Y-94776190D02*
X133214285Y-94276190D01*
X133166666Y-94347619D01*
X133119047Y-94395238D01*
X133071428Y-94419047D01*
%TO.C,C2*%
X132631666Y-108238571D02*
X132607857Y-108262380D01*
X132536428Y-108286190D01*
X132488809Y-108286190D01*
X132417380Y-108262380D01*
X132369761Y-108214761D01*
X132345952Y-108167142D01*
X132322142Y-108071904D01*
X132322142Y-108000476D01*
X132345952Y-107905238D01*
X132369761Y-107857619D01*
X132417380Y-107810000D01*
X132488809Y-107786190D01*
X132536428Y-107786190D01*
X132607857Y-107810000D01*
X132631666Y-107833809D01*
X132822142Y-107833809D02*
X132845952Y-107810000D01*
X132893571Y-107786190D01*
X133012619Y-107786190D01*
X133060238Y-107810000D01*
X133084047Y-107833809D01*
X133107857Y-107881428D01*
X133107857Y-107929047D01*
X133084047Y-108000476D01*
X132798333Y-108286190D01*
X133107857Y-108286190D01*
D10*
%TO.C,R1*%
X122441666Y-100101190D02*
X122275000Y-99863095D01*
X122155952Y-100101190D02*
X122155952Y-99601190D01*
X122346428Y-99601190D01*
X122394047Y-99625000D01*
X122417857Y-99648809D01*
X122441666Y-99696428D01*
X122441666Y-99767857D01*
X122417857Y-99815476D01*
X122394047Y-99839285D01*
X122346428Y-99863095D01*
X122155952Y-99863095D01*
X122917857Y-100101190D02*
X122632142Y-100101190D01*
X122775000Y-100101190D02*
X122775000Y-99601190D01*
X122727380Y-99672619D01*
X122679761Y-99720238D01*
X122632142Y-99744047D01*
D12*
%TO.C,C11*%
X126828571Y-95828571D02*
X126804761Y-95852380D01*
X126733333Y-95876190D01*
X126685714Y-95876190D01*
X126614285Y-95852380D01*
X126566666Y-95804761D01*
X126542857Y-95757142D01*
X126519047Y-95661904D01*
X126519047Y-95590476D01*
X126542857Y-95495238D01*
X126566666Y-95447619D01*
X126614285Y-95400000D01*
X126685714Y-95376190D01*
X126733333Y-95376190D01*
X126804761Y-95400000D01*
X126828571Y-95423809D01*
X127304761Y-95876190D02*
X127019047Y-95876190D01*
X127161904Y-95876190D02*
X127161904Y-95376190D01*
X127114285Y-95447619D01*
X127066666Y-95495238D01*
X127019047Y-95519047D01*
X127780952Y-95876190D02*
X127495238Y-95876190D01*
X127638095Y-95876190D02*
X127638095Y-95376190D01*
X127590476Y-95447619D01*
X127542857Y-95495238D01*
X127495238Y-95519047D01*
%TO.C,J8*%
X144083333Y-112526190D02*
X144083333Y-112883333D01*
X144059523Y-112954761D01*
X144011904Y-113002380D01*
X143940476Y-113026190D01*
X143892857Y-113026190D01*
X144392857Y-112740476D02*
X144345238Y-112716666D01*
X144321428Y-112692857D01*
X144297619Y-112645238D01*
X144297619Y-112621428D01*
X144321428Y-112573809D01*
X144345238Y-112550000D01*
X144392857Y-112526190D01*
X144488095Y-112526190D01*
X144535714Y-112550000D01*
X144559523Y-112573809D01*
X144583333Y-112621428D01*
X144583333Y-112645238D01*
X144559523Y-112692857D01*
X144535714Y-112716666D01*
X144488095Y-112740476D01*
X144392857Y-112740476D01*
X144345238Y-112764285D01*
X144321428Y-112788095D01*
X144297619Y-112835714D01*
X144297619Y-112930952D01*
X144321428Y-112978571D01*
X144345238Y-113002380D01*
X144392857Y-113026190D01*
X144488095Y-113026190D01*
X144535714Y-113002380D01*
X144559523Y-112978571D01*
X144583333Y-112930952D01*
X144583333Y-112835714D01*
X144559523Y-112788095D01*
X144535714Y-112764285D01*
X144488095Y-112740476D01*
%TO.C,J6*%
X126713333Y-115496190D02*
X126713333Y-115853333D01*
X126689523Y-115924761D01*
X126641904Y-115972380D01*
X126570476Y-115996190D01*
X126522857Y-115996190D01*
X127165714Y-115496190D02*
X127070476Y-115496190D01*
X127022857Y-115520000D01*
X126999047Y-115543809D01*
X126951428Y-115615238D01*
X126927619Y-115710476D01*
X126927619Y-115900952D01*
X126951428Y-115948571D01*
X126975238Y-115972380D01*
X127022857Y-115996190D01*
X127118095Y-115996190D01*
X127165714Y-115972380D01*
X127189523Y-115948571D01*
X127213333Y-115900952D01*
X127213333Y-115781904D01*
X127189523Y-115734285D01*
X127165714Y-115710476D01*
X127118095Y-115686666D01*
X127022857Y-115686666D01*
X126975238Y-115710476D01*
X126951428Y-115734285D01*
X126927619Y-115781904D01*
%TO.C,U1*%
X119019047Y-103151190D02*
X119019047Y-103555952D01*
X119042857Y-103603571D01*
X119066666Y-103627380D01*
X119114285Y-103651190D01*
X119209523Y-103651190D01*
X119257142Y-103627380D01*
X119280952Y-103603571D01*
X119304761Y-103555952D01*
X119304761Y-103151190D01*
X119804761Y-103651190D02*
X119519047Y-103651190D01*
X119661904Y-103651190D02*
X119661904Y-103151190D01*
X119614285Y-103222619D01*
X119566666Y-103270238D01*
X119519047Y-103294047D01*
%TO.C,J3*%
X102983333Y-97276190D02*
X102983333Y-97633333D01*
X102959523Y-97704761D01*
X102911904Y-97752380D01*
X102840476Y-97776190D01*
X102792857Y-97776190D01*
X103173809Y-97276190D02*
X103483333Y-97276190D01*
X103316666Y-97466666D01*
X103388095Y-97466666D01*
X103435714Y-97490476D01*
X103459523Y-97514285D01*
X103483333Y-97561904D01*
X103483333Y-97680952D01*
X103459523Y-97728571D01*
X103435714Y-97752380D01*
X103388095Y-97776190D01*
X103245238Y-97776190D01*
X103197619Y-97752380D01*
X103173809Y-97728571D01*
%TO.C,C1*%
X128909420Y-106040000D02*
X129190580Y-106040000D01*
X128909420Y-107060000D02*
X129190580Y-107060000D01*
%TO.C,J10*%
X128630000Y-101420000D02*
X128630000Y-104080000D01*
X131230000Y-101420000D02*
X128630000Y-101420000D01*
X131230000Y-104080000D02*
X128630000Y-104080000D01*
X131230000Y-101420000D02*
X131230000Y-104080000D01*
X132500000Y-101420000D02*
X133830000Y-101420000D01*
X133830000Y-101420000D02*
X133830000Y-102750000D01*
%TO.C,C8*%
X127540000Y-110884420D02*
X127540000Y-111165580D01*
X128560000Y-110884420D02*
X128560000Y-111165580D01*
%TO.C,J4*%
X106150000Y-106330000D02*
X106150000Y-103670000D01*
X106150000Y-103670000D02*
X113830000Y-103670000D01*
X106150000Y-106330000D02*
X113830000Y-106330000D01*
X104880000Y-106330000D02*
X103550000Y-106330000D01*
X103550000Y-106330000D02*
X103550000Y-105000000D01*
X113830000Y-106330000D02*
X113830000Y-103670000D01*
%TO.C,J5*%
X117590000Y-116680000D02*
X114990000Y-116680000D01*
X117590000Y-119340000D02*
X114990000Y-119340000D01*
X117590000Y-116680000D02*
X117590000Y-119340000D01*
X118860000Y-116680000D02*
X120190000Y-116680000D01*
X120190000Y-116680000D02*
X120190000Y-118010000D01*
X114990000Y-116680000D02*
X114990000Y-119340000D01*
%TO.C,J1*%
X119230000Y-93170000D02*
X121830000Y-93170000D01*
X117960000Y-95830000D02*
X116630000Y-95830000D01*
X119230000Y-95830000D02*
X121830000Y-95830000D01*
X116630000Y-95830000D02*
X116630000Y-94500000D01*
X121830000Y-95830000D02*
X121830000Y-93170000D01*
X119230000Y-95830000D02*
X119230000Y-93170000D01*
%TO.C,C3*%
X130209420Y-109115000D02*
X130490580Y-109115000D01*
X130209420Y-110135000D02*
X130490580Y-110135000D01*
%TO.C,J9*%
X130680000Y-116680000D02*
X130680000Y-119340000D01*
X130680000Y-119340000D02*
X128080000Y-119340000D01*
X131950000Y-116680000D02*
X133280000Y-116680000D01*
X128080000Y-116680000D02*
X128080000Y-119340000D01*
X133280000Y-116680000D02*
X133280000Y-118010000D01*
X130680000Y-116680000D02*
X128080000Y-116680000D01*
%TO.C,J7*%
X103350000Y-116670000D02*
X103350000Y-119330000D01*
X113630000Y-116670000D02*
X113630000Y-118000000D01*
X111030000Y-119330000D02*
X103350000Y-119330000D01*
X111030000Y-116670000D02*
X111030000Y-119330000D01*
X112300000Y-116670000D02*
X113630000Y-116670000D01*
X111030000Y-116670000D02*
X103350000Y-116670000D01*
%TO.C,J2*%
X143080000Y-105870000D02*
X143080000Y-107200000D01*
X141750000Y-105870000D02*
X143080000Y-105870000D01*
X140480000Y-105870000D02*
X140480000Y-108530000D01*
X140480000Y-105870000D02*
X135340000Y-105870000D01*
X135340000Y-105870000D02*
X135340000Y-108530000D01*
X140480000Y-108530000D02*
X135340000Y-108530000D01*
%TO.C,C9*%
X130085000Y-111834420D02*
X130085000Y-112115580D01*
X129065000Y-111834420D02*
X129065000Y-112115580D01*
%TO.C,C7*%
X117165580Y-112520000D02*
X116884420Y-112520000D01*
X117165580Y-111500000D02*
X116884420Y-111500000D01*
%TO.C,C4*%
X125169420Y-102970000D02*
X125450580Y-102970000D01*
X125169420Y-101950000D02*
X125450580Y-101950000D01*
%TO.C,C6*%
X117165580Y-111020000D02*
X116884420Y-111020000D01*
X117165580Y-110000000D02*
X116884420Y-110000000D01*
%TO.C,C5*%
X125169420Y-100400000D02*
X125450580Y-100400000D01*
X125169420Y-101420000D02*
X125450580Y-101420000D01*
%TO.C,C10*%
X138210000Y-98115580D02*
X138210000Y-97834420D01*
X137190000Y-98115580D02*
X137190000Y-97834420D01*
%TO.C,Y1*%
X128750000Y-100675000D02*
X128750000Y-100375000D01*
X136150000Y-100675000D02*
X128750000Y-100675000D01*
X136150000Y-100375000D02*
X136150000Y-100675000D01*
X128750000Y-95275000D02*
X128750000Y-95575000D01*
X136650000Y-97675000D02*
X136150000Y-97675000D01*
X136150000Y-95575000D02*
X136150000Y-95275000D01*
X136650000Y-95575000D02*
X136150000Y-95575000D01*
X128750000Y-98275000D02*
X128750000Y-97675000D01*
X136150000Y-97675000D02*
X136150000Y-98275000D01*
X136150000Y-95275000D02*
X128750000Y-95275000D01*
%TO.C,C2*%
X130209420Y-108610000D02*
X130490580Y-108610000D01*
X130209420Y-107590000D02*
X130490580Y-107590000D01*
%TO.C,kibuzzard-623065F3*%
G36*
X134052984Y-90968409D02*
G01*
X134090290Y-91005080D01*
X134111721Y-91061754D01*
X134118865Y-91133985D01*
X134111086Y-91206375D01*
X134087750Y-91263525D01*
X134049174Y-91300673D01*
X133995675Y-91313055D01*
X133940906Y-91300673D01*
X133903600Y-91263525D01*
X133882169Y-91206375D01*
X133875025Y-91133985D01*
X133882804Y-91061754D01*
X133906140Y-91005080D01*
X133944716Y-90968409D01*
X133998215Y-90956185D01*
X134052984Y-90968409D01*
G37*
G36*
X135933695Y-90964440D02*
G01*
X135974335Y-90981585D01*
X135974335Y-91306705D01*
X135940045Y-91310515D01*
X135904485Y-91311785D01*
X135847494Y-91299085D01*
X135808600Y-91260985D01*
X135786216Y-91202883D01*
X135778755Y-91130175D01*
X135785105Y-91056198D01*
X135804155Y-91001905D01*
X135837175Y-90968567D01*
X135885435Y-90957455D01*
X135933695Y-90964440D01*
G37*
G36*
X126399170Y-90883160D02*
G01*
X126419490Y-90961900D01*
X126436635Y-91040005D01*
X126451875Y-91121285D01*
X126298205Y-91121285D01*
X126314080Y-91040005D01*
X126331860Y-90961900D01*
X126352180Y-90883160D01*
X126375675Y-90798705D01*
X126399170Y-90883160D01*
G37*
G36*
X125782744Y-90780449D02*
G01*
X125826400Y-90801880D01*
X125854499Y-90840456D01*
X125863865Y-90899035D01*
X125854340Y-90960789D01*
X125825765Y-91001270D01*
X125778458Y-91023654D01*
X125712735Y-91031115D01*
X125649235Y-91031115D01*
X125649235Y-90777115D01*
X125687970Y-90773940D01*
X125726705Y-90773305D01*
X125782744Y-90780449D01*
G37*
G36*
X123557304Y-91534223D02*
G01*
X123508791Y-91453283D01*
X123498931Y-91432435D01*
X124869455Y-91432435D01*
X125025665Y-91432435D01*
X125493025Y-91432435D01*
X125649235Y-91432435D01*
X126070875Y-91432435D01*
X126233435Y-91432435D01*
X126268995Y-91250825D01*
X126478545Y-91250825D01*
X126515375Y-91432435D01*
X126683015Y-91432435D01*
X126705875Y-91432435D01*
X126868435Y-91432435D01*
X126903995Y-91250825D01*
X127113545Y-91250825D01*
X127150375Y-91432435D01*
X127318015Y-91432435D01*
X127307863Y-91389255D01*
X128015245Y-91389255D01*
X128102875Y-91427990D01*
X128171138Y-91443706D01*
X128259085Y-91448945D01*
X128348197Y-91442242D01*
X128420798Y-91422134D01*
X128476890Y-91388620D01*
X128530706Y-91315754D01*
X128548645Y-91217805D01*
X128543248Y-91158591D01*
X128527055Y-91110490D01*
X128471810Y-91039370D01*
X128398150Y-90993650D01*
X128327587Y-90965075D01*
X128645165Y-90965075D01*
X128781055Y-90965075D01*
X128781055Y-91210185D01*
X128784865Y-91277971D01*
X128796295Y-91331470D01*
X128840745Y-91403225D01*
X128911865Y-91437515D01*
X129008385Y-91446405D01*
X129105540Y-91438785D01*
X129198885Y-91413385D01*
X129177295Y-91278765D01*
X129137290Y-91295275D01*
X129101730Y-91304800D01*
X129066170Y-91309245D01*
X129026165Y-91310515D01*
X128989335Y-91306705D01*
X128961395Y-91291465D01*
X128943615Y-91259715D01*
X128942405Y-91249555D01*
X129290325Y-91249555D01*
X129308105Y-91341630D01*
X129358905Y-91402590D01*
X129438280Y-91436245D01*
X129541785Y-91446405D01*
X129621478Y-91443865D01*
X129692915Y-91436245D01*
X129714686Y-91432435D01*
X129982475Y-91432435D01*
X130139955Y-91432435D01*
X130139955Y-90989205D01*
X130204725Y-90977140D01*
X130269495Y-90973965D01*
X130303785Y-90975235D01*
X130345695Y-90979680D01*
X130388240Y-90986665D01*
X130424435Y-90994285D01*
X130430072Y-90965075D01*
X130550165Y-90965075D01*
X130686055Y-90965075D01*
X130686055Y-91210185D01*
X130689865Y-91277971D01*
X130701295Y-91331470D01*
X130745745Y-91403225D01*
X130816865Y-91437515D01*
X130913385Y-91446405D01*
X131010540Y-91438785D01*
X131103885Y-91413385D01*
X131082295Y-91278765D01*
X131042290Y-91295275D01*
X131006730Y-91304800D01*
X130971170Y-91309245D01*
X130931165Y-91310515D01*
X130894335Y-91306705D01*
X130866395Y-91291465D01*
X130848615Y-91259715D01*
X130842265Y-91206375D01*
X130842265Y-91139065D01*
X131178815Y-91139065D01*
X131184530Y-91210503D01*
X131201675Y-91272415D01*
X131229456Y-91324961D01*
X131267080Y-91368300D01*
X131314070Y-91402273D01*
X131369950Y-91426720D01*
X131434244Y-91441484D01*
X131506475Y-91446405D01*
X131609345Y-91436880D01*
X131625683Y-91432435D01*
X131887475Y-91432435D01*
X132044955Y-91432435D01*
X132044955Y-91419735D01*
X133113025Y-91419735D01*
X133167953Y-91429736D01*
X133223515Y-91436880D01*
X133278443Y-91441166D01*
X133331465Y-91442595D01*
X133394171Y-91439579D01*
X133452750Y-91430530D01*
X133505455Y-91414338D01*
X133550540Y-91389890D01*
X133615945Y-91313690D01*
X133634043Y-91260191D01*
X133640075Y-91194945D01*
X133632931Y-91141605D01*
X133629181Y-91132715D01*
X133716275Y-91132715D01*
X133721355Y-91200501D01*
X133736595Y-91261620D01*
X133761201Y-91315436D01*
X133794380Y-91361315D01*
X133835338Y-91398463D01*
X133883280Y-91426085D01*
X133937731Y-91443230D01*
X133998215Y-91448945D01*
X134058699Y-91443230D01*
X134113150Y-91426085D01*
X134160934Y-91398463D01*
X134201415Y-91361315D01*
X134234118Y-91315436D01*
X134258565Y-91261620D01*
X134261573Y-91249555D01*
X134370325Y-91249555D01*
X134388105Y-91341630D01*
X134438905Y-91402590D01*
X134518280Y-91436245D01*
X134621785Y-91446405D01*
X134701478Y-91443865D01*
X134772915Y-91436245D01*
X134794686Y-91432435D01*
X135062475Y-91432435D01*
X135219955Y-91432435D01*
X135219955Y-91137795D01*
X135620005Y-91137795D01*
X135627978Y-91226695D01*
X135651896Y-91302048D01*
X135691760Y-91363855D01*
X135747146Y-91409716D01*
X135817631Y-91437233D01*
X135903215Y-91446405D01*
X135963540Y-91444183D01*
X136025135Y-91437515D01*
X136082603Y-91427355D01*
X136130545Y-91414655D01*
X136130545Y-90551055D01*
X135974335Y-90577725D01*
X135974335Y-90849505D01*
X135920995Y-90829820D01*
X135858765Y-90822835D01*
X135786446Y-90832219D01*
X135726967Y-90860371D01*
X135680330Y-90907290D01*
X135646816Y-90970437D01*
X135626708Y-91047272D01*
X135620005Y-91137795D01*
X135219955Y-91137795D01*
X135219955Y-90989205D01*
X135284725Y-90977140D01*
X135349495Y-90973965D01*
X135383785Y-90975235D01*
X135425695Y-90979680D01*
X135468240Y-90986665D01*
X135504435Y-90994285D01*
X135532375Y-90849505D01*
X135483480Y-90837440D01*
X135429505Y-90829820D01*
X135379340Y-90825375D01*
X135343145Y-90824105D01*
X135261071Y-90827597D01*
X135190110Y-90838075D01*
X135125499Y-90854267D01*
X135062475Y-90874905D01*
X135062475Y-91432435D01*
X134794686Y-91432435D01*
X134874515Y-91418465D01*
X134874515Y-91062865D01*
X134861815Y-90961900D01*
X134819905Y-90885700D01*
X134741800Y-90837440D01*
X134686714Y-90824581D01*
X134619245Y-90820295D01*
X134563048Y-90822359D01*
X134508755Y-90828550D01*
X134426205Y-90846965D01*
X134447795Y-90972695D01*
X134514470Y-90957455D01*
X134600195Y-90951105D01*
X134658615Y-90958566D01*
X134696715Y-90980950D01*
X134724655Y-91055245D01*
X134724655Y-91074295D01*
X134674173Y-91066675D01*
X134616705Y-91064135D01*
X134523995Y-91073660D01*
X134445255Y-91104775D01*
X134390645Y-91161925D01*
X134370325Y-91249555D01*
X134261573Y-91249555D01*
X134273805Y-91200501D01*
X134278885Y-91132715D01*
X134273805Y-91065881D01*
X134258565Y-91005080D01*
X134233959Y-90951422D01*
X134200780Y-90906020D01*
X134159823Y-90869507D01*
X134111880Y-90842520D01*
X134057746Y-90825851D01*
X133998215Y-90820295D01*
X133939478Y-90825851D01*
X133885185Y-90842520D01*
X133836766Y-90869507D01*
X133795650Y-90906020D01*
X133762313Y-90951422D01*
X133737230Y-91005080D01*
X133721514Y-91065881D01*
X133716275Y-91132715D01*
X133629181Y-91132715D01*
X133611500Y-91090805D01*
X133570066Y-91046355D01*
X133502915Y-91012065D01*
X133575940Y-90943485D01*
X133596419Y-90897130D01*
X133603245Y-90844425D01*
X133591815Y-90770765D01*
X133548635Y-90704090D01*
X133461005Y-90655830D01*
X133396870Y-90642019D01*
X133316225Y-90637415D01*
X133210815Y-90643130D01*
X133113025Y-90656465D01*
X133113025Y-91419735D01*
X132044955Y-91419735D01*
X132044955Y-90989205D01*
X132109725Y-90977140D01*
X132174495Y-90973965D01*
X132208785Y-90975235D01*
X132250695Y-90979680D01*
X132293240Y-90986665D01*
X132329435Y-90994285D01*
X132357375Y-90849505D01*
X132308480Y-90837440D01*
X132254505Y-90829820D01*
X132204340Y-90825375D01*
X132168145Y-90824105D01*
X132086071Y-90827597D01*
X132015110Y-90838075D01*
X131950499Y-90854267D01*
X131887475Y-90874905D01*
X131887475Y-91432435D01*
X131625683Y-91432435D01*
X131695705Y-91413385D01*
X131674115Y-91280035D01*
X131602360Y-91300355D01*
X131512825Y-91310515D01*
X131443610Y-91302101D01*
X131388365Y-91276860D01*
X131352170Y-91237014D01*
X131340105Y-91184785D01*
X131727455Y-91184785D01*
X131729360Y-91158115D01*
X131729995Y-91126365D01*
X131722375Y-91034431D01*
X131699515Y-90958443D01*
X131661415Y-90898400D01*
X131608640Y-90855008D01*
X131541753Y-90828973D01*
X131460755Y-90820295D01*
X131408050Y-90825375D01*
X131356615Y-90840615D01*
X131308673Y-90865856D01*
X131266445Y-90900940D01*
X131230885Y-90945866D01*
X131202945Y-91000635D01*
X131184848Y-91065088D01*
X131178815Y-91139065D01*
X130842265Y-91139065D01*
X130842265Y-90965075D01*
X131092455Y-90965075D01*
X131092455Y-90835535D01*
X130842265Y-90835535D01*
X130842265Y-90660275D01*
X130686055Y-90685675D01*
X130686055Y-90835535D01*
X130550165Y-90835535D01*
X130550165Y-90965075D01*
X130430072Y-90965075D01*
X130452375Y-90849505D01*
X130403480Y-90837440D01*
X130349505Y-90829820D01*
X130299340Y-90825375D01*
X130263145Y-90824105D01*
X130181071Y-90827597D01*
X130110110Y-90838075D01*
X130045499Y-90854267D01*
X129982475Y-90874905D01*
X129982475Y-91432435D01*
X129714686Y-91432435D01*
X129794515Y-91418465D01*
X129794515Y-91062865D01*
X129781815Y-90961900D01*
X129739905Y-90885700D01*
X129661800Y-90837440D01*
X129606714Y-90824581D01*
X129539245Y-90820295D01*
X129483048Y-90822359D01*
X129428755Y-90828550D01*
X129346205Y-90846965D01*
X129367795Y-90972695D01*
X129434470Y-90957455D01*
X129520195Y-90951105D01*
X129578615Y-90958566D01*
X129616715Y-90980950D01*
X129644655Y-91055245D01*
X129644655Y-91074295D01*
X129594173Y-91066675D01*
X129536705Y-91064135D01*
X129443995Y-91073660D01*
X129365255Y-91104775D01*
X129310645Y-91161925D01*
X129290325Y-91249555D01*
X128942405Y-91249555D01*
X128937265Y-91206375D01*
X128937265Y-90965075D01*
X129187455Y-90965075D01*
X129187455Y-90835535D01*
X128937265Y-90835535D01*
X128937265Y-90660275D01*
X128781055Y-90685675D01*
X128781055Y-90835535D01*
X128645165Y-90835535D01*
X128645165Y-90965075D01*
X128327587Y-90965075D01*
X128321315Y-90962535D01*
X128272420Y-90943485D01*
X128227970Y-90919990D01*
X128195585Y-90889510D01*
X128182885Y-90849505D01*
X128196714Y-90799411D01*
X128238201Y-90769354D01*
X128307345Y-90759335D01*
X128396880Y-90772035D01*
X128467365Y-90802515D01*
X128513085Y-90681865D01*
X128422280Y-90645035D01*
X128363701Y-90632652D01*
X128295915Y-90628525D01*
X128218092Y-90635439D01*
X128152264Y-90656183D01*
X128098430Y-90690755D01*
X128044614Y-90765050D01*
X128026675Y-90863475D01*
X128046995Y-90956820D01*
X128098430Y-91019685D01*
X128167645Y-91061595D01*
X128241305Y-91090805D01*
X128294645Y-91113030D01*
X128342905Y-91139700D01*
X128378465Y-91173355D01*
X128392435Y-91216535D01*
X128386720Y-91254000D01*
X128365765Y-91287020D01*
X128324490Y-91309880D01*
X128259085Y-91318135D01*
X128195744Y-91313690D01*
X128142880Y-91300355D01*
X128060965Y-91262255D01*
X128015245Y-91389255D01*
X127307863Y-91389255D01*
X127297060Y-91343306D01*
X127275851Y-91256769D01*
X127254388Y-91172822D01*
X127232671Y-91091465D01*
X127210700Y-91012700D01*
X127183038Y-90917172D01*
X127155296Y-90824264D01*
X127127475Y-90733975D01*
X127099575Y-90646305D01*
X126929395Y-90646305D01*
X126902487Y-90733260D01*
X126875103Y-90822676D01*
X126847242Y-90914553D01*
X126818905Y-91008890D01*
X126796096Y-91086995D01*
X126773388Y-91168402D01*
X126750782Y-91253111D01*
X126728278Y-91341122D01*
X126705875Y-91432435D01*
X126683015Y-91432435D01*
X126662060Y-91343306D01*
X126640851Y-91256769D01*
X126619388Y-91172822D01*
X126597671Y-91091465D01*
X126575700Y-91012700D01*
X126548038Y-90917172D01*
X126520296Y-90824264D01*
X126492475Y-90733975D01*
X126464575Y-90646305D01*
X126294395Y-90646305D01*
X126267487Y-90733260D01*
X126240103Y-90822676D01*
X126212242Y-90914553D01*
X126183905Y-91008890D01*
X126161096Y-91086995D01*
X126138388Y-91168402D01*
X126115782Y-91253111D01*
X126093278Y-91341122D01*
X126070875Y-91432435D01*
X125649235Y-91432435D01*
X125649235Y-91167005D01*
X125705115Y-91167005D01*
X125799025Y-91160020D01*
X125877553Y-91139065D01*
X125940700Y-91104140D01*
X125986914Y-91053552D01*
X126014642Y-90985607D01*
X126023885Y-90900305D01*
X126014713Y-90815850D01*
X125987196Y-90748752D01*
X125941335Y-90699010D01*
X125878823Y-90664791D01*
X125801353Y-90644259D01*
X125708925Y-90637415D01*
X125659395Y-90638685D01*
X125602245Y-90641860D01*
X125544460Y-90647575D01*
X125493025Y-90656465D01*
X125493025Y-91432435D01*
X125025665Y-91432435D01*
X125025665Y-91095885D01*
X125310145Y-91095885D01*
X125310145Y-90966345D01*
X125025665Y-90966345D01*
X125025665Y-90775845D01*
X125350785Y-90775845D01*
X125350785Y-90646305D01*
X124869455Y-90646305D01*
X124869455Y-91432435D01*
X123498931Y-91432435D01*
X123468445Y-91367979D01*
X123436655Y-91279131D01*
X123413726Y-91187594D01*
X123399880Y-91094251D01*
X123395250Y-91000000D01*
X123399880Y-90905749D01*
X123413726Y-90812406D01*
X123436655Y-90720869D01*
X123468445Y-90632021D01*
X123508791Y-90546717D01*
X123557304Y-90465777D01*
X123613517Y-90389983D01*
X123676889Y-90320064D01*
X123746808Y-90256692D01*
X123822602Y-90200479D01*
X123903541Y-90151966D01*
X123988846Y-90111620D01*
X124077694Y-90079830D01*
X124169231Y-90056901D01*
X124262574Y-90043055D01*
X124356825Y-90038425D01*
X136643175Y-90038425D01*
X136737426Y-90043055D01*
X136830769Y-90056901D01*
X136922306Y-90079830D01*
X137011154Y-90111620D01*
X137096459Y-90151966D01*
X137177398Y-90200480D01*
X137253192Y-90256692D01*
X137323112Y-90320064D01*
X137386483Y-90389983D01*
X137442696Y-90465778D01*
X137491209Y-90546717D01*
X137531555Y-90632021D01*
X137563345Y-90720869D01*
X137586274Y-90812406D01*
X137600120Y-90905749D01*
X137604750Y-91000000D01*
X137600120Y-91094251D01*
X137586274Y-91187594D01*
X137563345Y-91279131D01*
X137531555Y-91367979D01*
X137491209Y-91453283D01*
X137442696Y-91534222D01*
X137386483Y-91610017D01*
X137323112Y-91679936D01*
X137253192Y-91743308D01*
X137177398Y-91799520D01*
X137096459Y-91848034D01*
X137011154Y-91888380D01*
X136922306Y-91920170D01*
X136830769Y-91943099D01*
X136737426Y-91956945D01*
X136643175Y-91961575D01*
X124356825Y-91961575D01*
X124262574Y-91956945D01*
X124169231Y-91943099D01*
X124077694Y-91920170D01*
X123988846Y-91888380D01*
X123903541Y-91848034D01*
X123822602Y-91799521D01*
X123746808Y-91743308D01*
X123676889Y-91679936D01*
X123613517Y-91610017D01*
X123557304Y-91534223D01*
G37*
G36*
X134687825Y-91175260D02*
G01*
X134724655Y-91179705D01*
X134724655Y-91316865D01*
X134682745Y-91320040D01*
X134633215Y-91320675D01*
X134554475Y-91303530D01*
X134523995Y-91245745D01*
X134534155Y-91208915D01*
X134561460Y-91187325D01*
X134601465Y-91176530D01*
X134648455Y-91173355D01*
X134687825Y-91175260D01*
G37*
G36*
X133450210Y-91113030D02*
G01*
X133486405Y-91194945D01*
X133473705Y-91251460D01*
X133441320Y-91285750D01*
X133396235Y-91302260D01*
X133344165Y-91306705D01*
X133305430Y-91305435D01*
X133269235Y-91301625D01*
X133269235Y-91088265D01*
X133353055Y-91088265D01*
X133450210Y-91113030D01*
G37*
G36*
X127034170Y-90883160D02*
G01*
X127054490Y-90961900D01*
X127071635Y-91040005D01*
X127086875Y-91121285D01*
X126933205Y-91121285D01*
X126949080Y-91040005D01*
X126966860Y-90961900D01*
X126987180Y-90883160D01*
X127010675Y-90798705D01*
X127034170Y-90883160D01*
G37*
G36*
X131516635Y-90961900D02*
G01*
X131552195Y-90990475D01*
X131572515Y-91030480D01*
X131578865Y-91076835D01*
X131340105Y-91076835D01*
X131350900Y-91029845D01*
X131373760Y-90989205D01*
X131410590Y-90961265D01*
X131463295Y-90951105D01*
X131516635Y-90961900D01*
G37*
G36*
X129607825Y-91175260D02*
G01*
X129644655Y-91179705D01*
X129644655Y-91316865D01*
X129602745Y-91320040D01*
X129553215Y-91320675D01*
X129474475Y-91303530D01*
X129443995Y-91245745D01*
X129454155Y-91208915D01*
X129481460Y-91187325D01*
X129521465Y-91176530D01*
X129568455Y-91173355D01*
X129607825Y-91175260D01*
G37*
G36*
X133382265Y-90776480D02*
G01*
X133417825Y-90789180D01*
X133441955Y-90815850D01*
X133450845Y-90860935D01*
X133420365Y-90932690D01*
X133330195Y-90958725D01*
X133269235Y-90958725D01*
X133269235Y-90778385D01*
X133303525Y-90774575D01*
X133340355Y-90773305D01*
X133382265Y-90776480D01*
G37*
%TO.C,R1*%
X123022500Y-101587742D02*
X123022500Y-102062258D01*
X121977500Y-101587742D02*
X121977500Y-102062258D01*
%TO.C,C11*%
X127710000Y-98115580D02*
X127710000Y-97834420D01*
X126690000Y-98115580D02*
X126690000Y-97834420D01*
%TO.C,J8*%
X132870000Y-114130000D02*
X132870000Y-112800000D01*
X135470000Y-114130000D02*
X143150000Y-114130000D01*
X143150000Y-114130000D02*
X143150000Y-111470000D01*
X134200000Y-114130000D02*
X132870000Y-114130000D01*
X135470000Y-111470000D02*
X143150000Y-111470000D01*
X135470000Y-114130000D02*
X135470000Y-111470000D01*
%TO.C,J6*%
X124120000Y-119350000D02*
X121520000Y-119350000D01*
X125390000Y-116690000D02*
X126720000Y-116690000D01*
X121520000Y-116690000D02*
X121520000Y-119350000D01*
X126720000Y-116690000D02*
X126720000Y-118020000D01*
X124120000Y-116690000D02*
X124120000Y-119350000D01*
X124120000Y-116690000D02*
X121520000Y-116690000D01*
%TO.C,U1*%
X125920000Y-104425000D02*
X126645000Y-104425000D01*
X126645000Y-104425000D02*
X126645000Y-105150000D01*
X126645000Y-111645000D02*
X126645000Y-110920000D01*
X125920000Y-111645000D02*
X126645000Y-111645000D01*
X119425000Y-111645000D02*
X119425000Y-110920000D01*
X120150000Y-111645000D02*
X119425000Y-111645000D01*
X120150000Y-104425000D02*
X119425000Y-104425000D01*
%TO.C,J3*%
X106100000Y-98670000D02*
X113780000Y-98670000D01*
X106100000Y-101330000D02*
X106100000Y-98670000D01*
X103500000Y-101330000D02*
X103500000Y-100000000D01*
X113780000Y-101330000D02*
X113780000Y-98670000D01*
X106100000Y-101330000D02*
X113780000Y-101330000D01*
X104830000Y-101330000D02*
X103500000Y-101330000D01*
%TD*%
M02*
