M48
; DRILL file {KiCad (6.0.0)} date Thu Mar 17 17:23:02 2022
; FORMAT={-:-/ absolute / inch / decimal}
; #@! TF.CreationDate,2022-03-17T17:23:02-06:00
; #@! TF.GenerationSoftware,Kicad,Pcbnew,(6.0.0)
; #@! TF.FileFunction,Plated,1,4,PTH
FMAT,2
INCH
; #@! TA.AperFunction,Plated,PTH,ViaDrill
T1C0.0157
; #@! TA.AperFunction,Plated,PTH,ComponentDrill
T2C0.0197
; #@! TA.AperFunction,Plated,PTH,ComponentDrill
T3C0.0394
; #@! TA.AperFunction,Plated,PTH,ComponentDrill
T4C0.1260
%
G90
G05
T1
X4.5764Y-4.4409
X4.5778Y-4.3193
X4.6677Y-4.3319
X4.7451Y-4.0768
X4.7569Y-4.2333
X4.7717Y-3.9764
X4.8669Y-4.0756
X4.8839Y-4.1644
X4.9026Y-3.9409
X4.9315Y-4.1746
X4.9321Y-4.2333
X4.9945Y-3.9728
X4.9945Y-4.0339
X5.0089Y-3.7963
X5.0413Y-4.4321
X5.1014Y-4.4695
X5.1329Y-4.378
X5.1417Y-4.1939
X5.1526Y-3.7874
X5.1526Y-3.8248
X5.1929Y-4.2559
X5.1939Y-4.3159
X5.2766Y-3.7874
X5.2766Y-3.8209
X5.2766Y-3.9104
X5.4213Y-3.7963
T2
X4.0689Y-4.3996
X4.0787Y-3.6713
X4.0966Y-4.3328
X4.0966Y-4.4664
X4.1064Y-3.6044
X4.1064Y-3.7381
X4.1634Y-4.3051
X4.1634Y-4.4941
X4.1732Y-3.5768
X4.1732Y-3.7657
X4.2302Y-4.3328
X4.2302Y-4.4664
X4.24Y-3.6044
X4.24Y-3.7381
X4.2579Y-4.3996
X4.2677Y-3.6713
X5.6732Y-3.6614
X5.6732Y-4.626
X5.7009Y-3.5946
X5.7009Y-3.7282
X5.7009Y-4.5592
X5.7009Y-4.6928
X5.7677Y-3.5669
X5.7677Y-3.7559
X5.7677Y-4.5315
X5.7677Y-4.7205
X5.8345Y-3.5946
X5.8345Y-3.7282
X5.8345Y-4.5592
X5.8345Y-4.6928
X5.8622Y-3.6614
X5.8622Y-4.626
T3
X4.1213Y-4.6457
X4.1272Y-3.937
X4.1291Y-4.1339
X4.2213Y-4.6457
X4.2272Y-3.937
X4.2291Y-4.1339
X4.3213Y-4.6457
X4.3272Y-3.937
X4.3291Y-4.1339
X4.4213Y-4.6457
X4.4272Y-3.937
X4.4291Y-4.1339
X4.5795Y-4.6461
X4.6441Y-3.7205
X4.6795Y-4.6461
X4.7441Y-3.7205
X4.8366Y-4.6465
X4.9366Y-4.6465
X5.0949Y-4.6461
X5.1165Y-4.0453
X5.1949Y-4.6461
X5.2165Y-4.0453
X5.2835Y-4.4409
X5.3807Y-4.2205
X5.3835Y-4.4409
X5.4807Y-4.2205
X5.4835Y-4.4409
X5.5807Y-4.2205
X5.5835Y-4.4409
T4
X4.1634Y-4.3996
X4.1732Y-3.6713
X5.7677Y-3.6614
X5.7677Y-4.626
T0
M30
