%TF.GenerationSoftware,KiCad,Pcbnew,(6.0.0)*%
%TF.CreationDate,2022-03-17T17:23:03-06:00*%
%TF.ProjectId,FPAA_Starter_Board,46504141-5f53-4746-9172-7465725f426f,rev?*%
%TF.SameCoordinates,Original*%
%TF.FileFunction,Soldermask,Bot*%
%TF.FilePolarity,Negative*%
%FSLAX46Y46*%
G04 Gerber Fmt 4.6, Leading zero omitted, Abs format (unit mm)*
G04 Created by KiCad (PCBNEW (6.0.0)) date 2022-03-17 17:23:03*
%MOMM*%
%LPD*%
G01*
G04 APERTURE LIST*
%ADD10R,1.700000X1.700000*%
%ADD11O,1.700000X1.700000*%
%ADD12C,0.800000*%
%ADD13C,6.400000*%
G04 APERTURE END LIST*
D10*
%TO.C,J10*%
X132500000Y-102750000D03*
D11*
X129960000Y-102750000D03*
%TD*%
D12*
%TO.C,H3*%
X148197056Y-91302944D03*
X144802944Y-94697056D03*
D13*
X146500000Y-93000000D03*
D12*
X144802944Y-91302944D03*
X146500000Y-90600000D03*
X148197056Y-94697056D03*
X144100000Y-93000000D03*
X148900000Y-93000000D03*
X146500000Y-95400000D03*
%TD*%
D10*
%TO.C,J4*%
X104880000Y-105000000D03*
D11*
X107420000Y-105000000D03*
X109960000Y-105000000D03*
X112500000Y-105000000D03*
%TD*%
D12*
%TO.C,H2*%
X103600000Y-93250000D03*
X104302944Y-94947056D03*
X106000000Y-95650000D03*
X107697056Y-91552944D03*
X107697056Y-94947056D03*
X106000000Y-90850000D03*
D13*
X106000000Y-93250000D03*
D12*
X104302944Y-91552944D03*
X108400000Y-93250000D03*
%TD*%
D10*
%TO.C,J5*%
X118860000Y-118010000D03*
D11*
X116320000Y-118010000D03*
%TD*%
D10*
%TO.C,J1*%
X117960000Y-94500000D03*
D11*
X120500000Y-94500000D03*
%TD*%
D12*
%TO.C,H4*%
X148900000Y-117500000D03*
X146500000Y-115100000D03*
D13*
X146500000Y-117500000D03*
D12*
X144802944Y-119197056D03*
X146500000Y-119900000D03*
X144802944Y-115802944D03*
X148197056Y-115802944D03*
X144100000Y-117500000D03*
X148197056Y-119197056D03*
%TD*%
D10*
%TO.C,J9*%
X131950000Y-118010000D03*
D11*
X129410000Y-118010000D03*
%TD*%
D10*
%TO.C,J7*%
X112300000Y-118000000D03*
D11*
X109760000Y-118000000D03*
X107220000Y-118000000D03*
X104680000Y-118000000D03*
%TD*%
D10*
%TO.C,J2*%
X141750000Y-107200000D03*
D11*
X139210000Y-107200000D03*
X136670000Y-107200000D03*
%TD*%
D10*
%TO.C,J8*%
X134200000Y-112800000D03*
D11*
X136740000Y-112800000D03*
X139280000Y-112800000D03*
X141820000Y-112800000D03*
%TD*%
D13*
%TO.C,H1*%
X105750000Y-111750000D03*
D12*
X105750000Y-114150000D03*
X104052944Y-110052944D03*
X107447056Y-113447056D03*
X103350000Y-111750000D03*
X105750000Y-109350000D03*
X108150000Y-111750000D03*
X107447056Y-110052944D03*
X104052944Y-113447056D03*
%TD*%
D10*
%TO.C,J6*%
X125390000Y-118020000D03*
D11*
X122850000Y-118020000D03*
%TD*%
D10*
%TO.C,J3*%
X104830000Y-100000000D03*
D11*
X107370000Y-100000000D03*
X109910000Y-100000000D03*
X112450000Y-100000000D03*
%TD*%
M02*
