%TF.GenerationSoftware,KiCad,Pcbnew,(6.0.0)*%
%TF.CreationDate,2022-03-17T17:23:03-06:00*%
%TF.ProjectId,FPAA_Starter_Board,46504141-5f53-4746-9172-7465725f426f,rev?*%
%TF.SameCoordinates,Original*%
%TF.FileFunction,Soldermask,Top*%
%TF.FilePolarity,Negative*%
%FSLAX46Y46*%
G04 Gerber Fmt 4.6, Leading zero omitted, Abs format (unit mm)*
G04 Created by KiCad (PCBNEW (6.0.0)) date 2022-03-17 17:23:03*
%MOMM*%
%LPD*%
G01*
G04 APERTURE LIST*
G04 Aperture macros list*
%AMRoundRect*
0 Rectangle with rounded corners*
0 $1 Rounding radius*
0 $2 $3 $4 $5 $6 $7 $8 $9 X,Y pos of 4 corners*
0 Add a 4 corners polygon primitive as box body*
4,1,4,$2,$3,$4,$5,$6,$7,$8,$9,$2,$3,0*
0 Add four circle primitives for the rounded corners*
1,1,$1+$1,$2,$3*
1,1,$1+$1,$4,$5*
1,1,$1+$1,$6,$7*
1,1,$1+$1,$8,$9*
0 Add four rect primitives between the rounded corners*
20,1,$1+$1,$2,$3,$4,$5,0*
20,1,$1+$1,$4,$5,$6,$7,0*
20,1,$1+$1,$6,$7,$8,$9,0*
20,1,$1+$1,$8,$9,$2,$3,0*%
G04 Aperture macros list end*
%ADD10RoundRect,0.225000X-0.225000X-0.250000X0.225000X-0.250000X0.225000X0.250000X-0.225000X0.250000X0*%
%ADD11R,1.700000X1.700000*%
%ADD12O,1.700000X1.700000*%
%ADD13C,0.800000*%
%ADD14C,6.400000*%
%ADD15RoundRect,0.225000X-0.250000X0.225000X-0.250000X-0.225000X0.250000X-0.225000X0.250000X0.225000X0*%
%ADD16RoundRect,0.225000X0.225000X0.250000X-0.225000X0.250000X-0.225000X-0.250000X0.225000X-0.250000X0*%
%ADD17RoundRect,0.225000X0.250000X-0.225000X0.250000X0.225000X-0.250000X0.225000X-0.250000X-0.225000X0*%
%ADD18R,2.100000X1.700000*%
%ADD19RoundRect,0.200000X-0.275000X0.200000X-0.275000X-0.200000X0.275000X-0.200000X0.275000X0.200000X0*%
%ADD20RoundRect,0.062500X-0.375000X-0.062500X0.375000X-0.062500X0.375000X0.062500X-0.375000X0.062500X0*%
%ADD21RoundRect,0.062500X-0.062500X-0.375000X0.062500X-0.375000X0.062500X0.375000X-0.062500X0.375000X0*%
%ADD22R,5.150000X5.150000*%
G04 APERTURE END LIST*
D10*
%TO.C,C1*%
X128275000Y-106550000D03*
X129825000Y-106550000D03*
%TD*%
D11*
%TO.C,J10*%
X132500000Y-102750000D03*
D12*
X129960000Y-102750000D03*
%TD*%
D13*
%TO.C,H3*%
X148197056Y-91302944D03*
X144802944Y-94697056D03*
D14*
X146500000Y-93000000D03*
D13*
X144802944Y-91302944D03*
X146500000Y-90600000D03*
X148197056Y-94697056D03*
X144100000Y-93000000D03*
X148900000Y-93000000D03*
X146500000Y-95400000D03*
%TD*%
D15*
%TO.C,C8*%
X128050000Y-110250000D03*
X128050000Y-111800000D03*
%TD*%
D11*
%TO.C,J4*%
X104880000Y-105000000D03*
D12*
X107420000Y-105000000D03*
X109960000Y-105000000D03*
X112500000Y-105000000D03*
%TD*%
D13*
%TO.C,H2*%
X103600000Y-93250000D03*
X104302944Y-94947056D03*
X106000000Y-95650000D03*
X107697056Y-91552944D03*
X107697056Y-94947056D03*
X106000000Y-90850000D03*
D14*
X106000000Y-93250000D03*
D13*
X104302944Y-91552944D03*
X108400000Y-93250000D03*
%TD*%
D11*
%TO.C,J5*%
X118860000Y-118010000D03*
D12*
X116320000Y-118010000D03*
%TD*%
D11*
%TO.C,J1*%
X117960000Y-94500000D03*
D12*
X120500000Y-94500000D03*
%TD*%
D10*
%TO.C,C3*%
X129575000Y-109625000D03*
X131125000Y-109625000D03*
%TD*%
D13*
%TO.C,H4*%
X148900000Y-117500000D03*
X146500000Y-115100000D03*
D14*
X146500000Y-117500000D03*
D13*
X144802944Y-119197056D03*
X146500000Y-119900000D03*
X144802944Y-115802944D03*
X148197056Y-115802944D03*
X144100000Y-117500000D03*
X148197056Y-119197056D03*
%TD*%
D11*
%TO.C,J9*%
X131950000Y-118010000D03*
D12*
X129410000Y-118010000D03*
%TD*%
D11*
%TO.C,J7*%
X112300000Y-118000000D03*
D12*
X109760000Y-118000000D03*
X107220000Y-118000000D03*
X104680000Y-118000000D03*
%TD*%
D11*
%TO.C,J2*%
X141750000Y-107200000D03*
D12*
X139210000Y-107200000D03*
X136670000Y-107200000D03*
%TD*%
D15*
%TO.C,C9*%
X129575000Y-111200000D03*
X129575000Y-112750000D03*
%TD*%
D16*
%TO.C,C7*%
X117800000Y-112010000D03*
X116250000Y-112010000D03*
%TD*%
D10*
%TO.C,C4*%
X124535000Y-102460000D03*
X126085000Y-102460000D03*
%TD*%
D16*
%TO.C,C6*%
X117800000Y-110510000D03*
X116250000Y-110510000D03*
%TD*%
D10*
%TO.C,C5*%
X124535000Y-100910000D03*
X126085000Y-100910000D03*
%TD*%
D17*
%TO.C,C10*%
X137700000Y-98750000D03*
X137700000Y-97200000D03*
%TD*%
D18*
%TO.C,Y1*%
X135400000Y-96625000D03*
X129500000Y-96625000D03*
X129500000Y-99325000D03*
X135400000Y-99325000D03*
%TD*%
D10*
%TO.C,C2*%
X129575000Y-108100000D03*
X131125000Y-108100000D03*
%TD*%
D19*
%TO.C,R1*%
X122500000Y-101000000D03*
X122500000Y-102650000D03*
%TD*%
D17*
%TO.C,C11*%
X127200000Y-98750000D03*
X127200000Y-97200000D03*
%TD*%
D11*
%TO.C,J8*%
X134200000Y-112800000D03*
D12*
X136740000Y-112800000D03*
X139280000Y-112800000D03*
X141820000Y-112800000D03*
%TD*%
D14*
%TO.C,H1*%
X105750000Y-111750000D03*
D13*
X105750000Y-114150000D03*
X104052944Y-110052944D03*
X107447056Y-113447056D03*
X103350000Y-111750000D03*
X105750000Y-109350000D03*
X108150000Y-111750000D03*
X107447056Y-110052944D03*
X104052944Y-113447056D03*
%TD*%
D11*
%TO.C,J6*%
X125390000Y-118020000D03*
D12*
X122850000Y-118020000D03*
%TD*%
D20*
%TO.C,U1*%
X119597500Y-105535000D03*
X119597500Y-106035000D03*
X119597500Y-106535000D03*
X119597500Y-107035000D03*
X119597500Y-107535000D03*
X119597500Y-108035000D03*
X119597500Y-108535000D03*
X119597500Y-109035000D03*
X119597500Y-109535000D03*
X119597500Y-110035000D03*
X119597500Y-110535000D03*
D21*
X120535000Y-111472500D03*
X121035000Y-111472500D03*
X121535000Y-111472500D03*
X122035000Y-111472500D03*
X122535000Y-111472500D03*
X123035000Y-111472500D03*
X123535000Y-111472500D03*
X124035000Y-111472500D03*
X124535000Y-111472500D03*
X125035000Y-111472500D03*
X125535000Y-111472500D03*
D20*
X126472500Y-110535000D03*
X126472500Y-110035000D03*
X126472500Y-109535000D03*
X126472500Y-109035000D03*
X126472500Y-108535000D03*
X126472500Y-108035000D03*
X126472500Y-107535000D03*
X126472500Y-107035000D03*
X126472500Y-106535000D03*
X126472500Y-106035000D03*
X126472500Y-105535000D03*
D21*
X125535000Y-104597500D03*
X125035000Y-104597500D03*
X124535000Y-104597500D03*
X124035000Y-104597500D03*
X123535000Y-104597500D03*
X123035000Y-104597500D03*
X122535000Y-104597500D03*
X122035000Y-104597500D03*
X121535000Y-104597500D03*
X121035000Y-104597500D03*
X120535000Y-104597500D03*
D22*
X123035000Y-108035000D03*
%TD*%
D11*
%TO.C,J3*%
X104830000Y-100000000D03*
D12*
X107370000Y-100000000D03*
X109910000Y-100000000D03*
X112450000Y-100000000D03*
%TD*%
M02*
