%TF.GenerationSoftware,KiCad,Pcbnew,(6.0.0)*%
%TF.CreationDate,2022-03-17T17:23:03-06:00*%
%TF.ProjectId,FPAA_Starter_Board,46504141-5f53-4746-9172-7465725f426f,rev?*%
%TF.SameCoordinates,Original*%
%TF.FileFunction,Copper,L1,Top*%
%TF.FilePolarity,Positive*%
%FSLAX46Y46*%
G04 Gerber Fmt 4.6, Leading zero omitted, Abs format (unit mm)*
G04 Created by KiCad (PCBNEW (6.0.0)) date 2022-03-17 17:23:03*
%MOMM*%
%LPD*%
G01*
G04 APERTURE LIST*
G04 Aperture macros list*
%AMRoundRect*
0 Rectangle with rounded corners*
0 $1 Rounding radius*
0 $2 $3 $4 $5 $6 $7 $8 $9 X,Y pos of 4 corners*
0 Add a 4 corners polygon primitive as box body*
4,1,4,$2,$3,$4,$5,$6,$7,$8,$9,$2,$3,0*
0 Add four circle primitives for the rounded corners*
1,1,$1+$1,$2,$3*
1,1,$1+$1,$4,$5*
1,1,$1+$1,$6,$7*
1,1,$1+$1,$8,$9*
0 Add four rect primitives between the rounded corners*
20,1,$1+$1,$2,$3,$4,$5,0*
20,1,$1+$1,$4,$5,$6,$7,0*
20,1,$1+$1,$6,$7,$8,$9,0*
20,1,$1+$1,$8,$9,$2,$3,0*%
G04 Aperture macros list end*
%TA.AperFunction,SMDPad,CuDef*%
%ADD10RoundRect,0.225000X-0.225000X-0.250000X0.225000X-0.250000X0.225000X0.250000X-0.225000X0.250000X0*%
%TD*%
%TA.AperFunction,ComponentPad*%
%ADD11R,1.700000X1.700000*%
%TD*%
%TA.AperFunction,ComponentPad*%
%ADD12O,1.700000X1.700000*%
%TD*%
%TA.AperFunction,ComponentPad*%
%ADD13C,0.800000*%
%TD*%
%TA.AperFunction,ComponentPad*%
%ADD14C,6.400000*%
%TD*%
%TA.AperFunction,SMDPad,CuDef*%
%ADD15RoundRect,0.225000X-0.250000X0.225000X-0.250000X-0.225000X0.250000X-0.225000X0.250000X0.225000X0*%
%TD*%
%TA.AperFunction,SMDPad,CuDef*%
%ADD16RoundRect,0.225000X0.225000X0.250000X-0.225000X0.250000X-0.225000X-0.250000X0.225000X-0.250000X0*%
%TD*%
%TA.AperFunction,SMDPad,CuDef*%
%ADD17RoundRect,0.225000X0.250000X-0.225000X0.250000X0.225000X-0.250000X0.225000X-0.250000X-0.225000X0*%
%TD*%
%TA.AperFunction,SMDPad,CuDef*%
%ADD18R,2.100000X1.700000*%
%TD*%
%TA.AperFunction,SMDPad,CuDef*%
%ADD19RoundRect,0.200000X-0.275000X0.200000X-0.275000X-0.200000X0.275000X-0.200000X0.275000X0.200000X0*%
%TD*%
%TA.AperFunction,SMDPad,CuDef*%
%ADD20RoundRect,0.062500X-0.375000X-0.062500X0.375000X-0.062500X0.375000X0.062500X-0.375000X0.062500X0*%
%TD*%
%TA.AperFunction,SMDPad,CuDef*%
%ADD21RoundRect,0.062500X-0.062500X-0.375000X0.062500X-0.375000X0.062500X0.375000X-0.062500X0.375000X0*%
%TD*%
%TA.AperFunction,SMDPad,CuDef*%
%ADD22R,5.150000X5.150000*%
%TD*%
%TA.AperFunction,ViaPad*%
%ADD23C,0.600000*%
%TD*%
%TA.AperFunction,Conductor*%
%ADD24C,0.254000*%
%TD*%
%TA.AperFunction,Conductor*%
%ADD25C,0.203200*%
%TD*%
%TA.AperFunction,Conductor*%
%ADD26C,0.508000*%
%TD*%
G04 APERTURE END LIST*
D10*
%TO.P,C1,1*%
%TO.N,/VREFN*%
X128275000Y-106550000D03*
%TO.P,C1,2*%
%TO.N,GND*%
X129825000Y-106550000D03*
%TD*%
D11*
%TO.P,J10,1,Pin_1*%
%TO.N,Net-(C11-Pad1)*%
X132500000Y-102750000D03*
D12*
%TO.P,J10,2,Pin_2*%
%TO.N,/ACLK*%
X129960000Y-102750000D03*
%TD*%
D13*
%TO.P,H3,1,1*%
%TO.N,unconnected-(H3-Pad1)*%
X148197056Y-91302944D03*
X144802944Y-94697056D03*
D14*
X146500000Y-93000000D03*
D13*
X144802944Y-91302944D03*
X146500000Y-90600000D03*
X148197056Y-94697056D03*
X144100000Y-93000000D03*
X148900000Y-93000000D03*
X146500000Y-95400000D03*
%TD*%
D15*
%TO.P,C8,1*%
%TO.N,+3V3*%
X128050000Y-110250000D03*
%TO.P,C8,2*%
%TO.N,GND*%
X128050000Y-111800000D03*
%TD*%
D11*
%TO.P,J4,1,Pin_1*%
%TO.N,/I2P*%
X104880000Y-105000000D03*
D12*
%TO.P,J4,2,Pin_2*%
%TO.N,/I2N*%
X107420000Y-105000000D03*
%TO.P,J4,3,Pin_3*%
%TO.N,/O2N*%
X109960000Y-105000000D03*
%TO.P,J4,4,Pin_4*%
%TO.N,/O2P*%
X112500000Y-105000000D03*
%TD*%
D13*
%TO.P,H2,1,1*%
%TO.N,unconnected-(H2-Pad1)*%
X103600000Y-93250000D03*
X104302944Y-94947056D03*
X106000000Y-95650000D03*
X107697056Y-91552944D03*
X107697056Y-94947056D03*
X106000000Y-90850000D03*
D14*
X106000000Y-93250000D03*
D13*
X104302944Y-91552944D03*
X108400000Y-93250000D03*
%TD*%
D11*
%TO.P,J5,1,Pin_1*%
%TO.N,/IO5N*%
X118860000Y-118010000D03*
D12*
%TO.P,J5,2,Pin_2*%
%TO.N,/IO5P*%
X116320000Y-118010000D03*
%TD*%
D11*
%TO.P,J1,1,Pin_1*%
%TO.N,GND*%
X117960000Y-94500000D03*
D12*
%TO.P,J1,2,Pin_2*%
%TO.N,+3V3*%
X120500000Y-94500000D03*
%TD*%
D10*
%TO.P,C3,1*%
%TO.N,/VREFP*%
X129575000Y-109625000D03*
%TO.P,C3,2*%
%TO.N,GND*%
X131125000Y-109625000D03*
%TD*%
D13*
%TO.P,H4,1,1*%
%TO.N,unconnected-(H4-Pad1)*%
X148900000Y-117500000D03*
X146500000Y-115100000D03*
D14*
X146500000Y-117500000D03*
D13*
X144802944Y-119197056D03*
X146500000Y-119900000D03*
X144802944Y-115802944D03*
X148197056Y-115802944D03*
X144100000Y-117500000D03*
X148197056Y-119197056D03*
%TD*%
D11*
%TO.P,J9,1,Pin_1*%
%TO.N,/IO7N*%
X131950000Y-118010000D03*
D12*
%TO.P,J9,2,Pin_2*%
%TO.N,/IO7P*%
X129410000Y-118010000D03*
%TD*%
D11*
%TO.P,J7,1,Pin_1*%
%TO.N,/O3P*%
X112300000Y-118000000D03*
D12*
%TO.P,J7,2,Pin_2*%
%TO.N,/O3N*%
X109760000Y-118000000D03*
%TO.P,J7,3,Pin_3*%
%TO.N,/I3N*%
X107220000Y-118000000D03*
%TO.P,J7,4,Pin_4*%
%TO.N,/I3P*%
X104680000Y-118000000D03*
%TD*%
D11*
%TO.P,J2,1,Pin_1*%
%TO.N,/SELb*%
X141750000Y-107200000D03*
D12*
%TO.P,J2,2,Pin_2*%
%TO.N,/SCLK*%
X139210000Y-107200000D03*
%TO.P,J2,3,Pin_3*%
%TO.N,/MOSI*%
X136670000Y-107200000D03*
%TD*%
D15*
%TO.P,C9,1*%
%TO.N,+3V3*%
X129575000Y-111200000D03*
%TO.P,C9,2*%
%TO.N,GND*%
X129575000Y-112750000D03*
%TD*%
D16*
%TO.P,C7,1*%
%TO.N,+3V3*%
X117800000Y-112010000D03*
%TO.P,C7,2*%
%TO.N,GND*%
X116250000Y-112010000D03*
%TD*%
D10*
%TO.P,C4,1*%
%TO.N,+3V3*%
X124535000Y-102460000D03*
%TO.P,C4,2*%
%TO.N,GND*%
X126085000Y-102460000D03*
%TD*%
D16*
%TO.P,C6,1*%
%TO.N,+3V3*%
X117800000Y-110510000D03*
%TO.P,C6,2*%
%TO.N,GND*%
X116250000Y-110510000D03*
%TD*%
D10*
%TO.P,C5,1*%
%TO.N,+3V3*%
X124535000Y-100910000D03*
%TO.P,C5,2*%
%TO.N,GND*%
X126085000Y-100910000D03*
%TD*%
D17*
%TO.P,C10,1*%
%TO.N,+3V3*%
X137700000Y-98750000D03*
%TO.P,C10,2*%
%TO.N,GND*%
X137700000Y-97200000D03*
%TD*%
D18*
%TO.P,Y1,1,1*%
%TO.N,GND*%
X135400000Y-96625000D03*
%TO.P,Y1,2,2*%
X129500000Y-96625000D03*
%TO.P,Y1,3,3*%
%TO.N,Net-(C11-Pad1)*%
X129500000Y-99325000D03*
%TO.P,Y1,4,4*%
%TO.N,+3V3*%
X135400000Y-99325000D03*
%TD*%
D10*
%TO.P,C2,1*%
%TO.N,/VMR*%
X129575000Y-108100000D03*
%TO.P,C2,2*%
%TO.N,GND*%
X131125000Y-108100000D03*
%TD*%
D19*
%TO.P,R1,1*%
%TO.N,+3V3*%
X122500000Y-101000000D03*
%TO.P,R1,2*%
%TO.N,Net-(R1-Pad2)*%
X122500000Y-102650000D03*
%TD*%
D17*
%TO.P,C11,1*%
%TO.N,Net-(C11-Pad1)*%
X127200000Y-98750000D03*
%TO.P,C11,2*%
%TO.N,GND*%
X127200000Y-97200000D03*
%TD*%
D11*
%TO.P,J8,1,Pin_1*%
%TO.N,/I4P*%
X134200000Y-112800000D03*
D12*
%TO.P,J8,2,Pin_2*%
%TO.N,/I4N*%
X136740000Y-112800000D03*
%TO.P,J8,3,Pin_3*%
%TO.N,/O4N*%
X139280000Y-112800000D03*
%TO.P,J8,4,Pin_4*%
%TO.N,/O4P*%
X141820000Y-112800000D03*
%TD*%
D14*
%TO.P,H1,1,1*%
%TO.N,unconnected-(H1-Pad1)*%
X105750000Y-111750000D03*
D13*
X105750000Y-114150000D03*
X104052944Y-110052944D03*
X107447056Y-113447056D03*
X103350000Y-111750000D03*
X105750000Y-109350000D03*
X108150000Y-111750000D03*
X107447056Y-110052944D03*
X104052944Y-113447056D03*
%TD*%
D11*
%TO.P,J6,1,Pin_1*%
%TO.N,/IO6N*%
X125390000Y-118020000D03*
D12*
%TO.P,J6,2,Pin_2*%
%TO.N,/IO6P*%
X122850000Y-118020000D03*
%TD*%
D20*
%TO.P,U1,1,I1P*%
%TO.N,/I1P*%
X119597500Y-105535000D03*
%TO.P,U1,2,I1N*%
%TO.N,/I1N*%
X119597500Y-106035000D03*
%TO.P,U1,3,O1N*%
%TO.N,/O1N*%
X119597500Y-106535000D03*
%TO.P,U1,4,O1P*%
%TO.N,/O1P*%
X119597500Y-107035000D03*
%TO.P,U1,5,AVSS*%
%TO.N,GND*%
X119597500Y-107535000D03*
%TO.P,U1,6,O2P*%
%TO.N,/O2P*%
X119597500Y-108035000D03*
%TO.P,U1,7,O2N*%
%TO.N,/O2N*%
X119597500Y-108535000D03*
%TO.P,U1,8,I2N*%
%TO.N,/I2N*%
X119597500Y-109035000D03*
%TO.P,U1,9,I2P*%
%TO.N,/I2P*%
X119597500Y-109535000D03*
%TO.P,U1,10,AVDD*%
%TO.N,+3V3*%
X119597500Y-110035000D03*
%TO.P,U1,11,I3P*%
%TO.N,/I3P*%
X119597500Y-110535000D03*
D21*
%TO.P,U1,12,I3N*%
%TO.N,/I3N*%
X120535000Y-111472500D03*
%TO.P,U1,13,O3N*%
%TO.N,/O3N*%
X121035000Y-111472500D03*
%TO.P,U1,14,O3P*%
%TO.N,/O3P*%
X121535000Y-111472500D03*
%TO.P,U1,15,IO5P*%
%TO.N,/IO5P*%
X122035000Y-111472500D03*
%TO.P,U1,16,IO5N*%
%TO.N,/IO5N*%
X122535000Y-111472500D03*
%TO.P,U1,17,IO6P*%
%TO.N,/IO6P*%
X123035000Y-111472500D03*
%TO.P,U1,18,IO6N*%
%TO.N,/IO6N*%
X123535000Y-111472500D03*
%TO.P,U1,19,IO7P*%
%TO.N,/IO7P*%
X124035000Y-111472500D03*
%TO.P,U1,20,IO7N*%
%TO.N,/IO7N*%
X124535000Y-111472500D03*
%TO.P,U1,21,O4P*%
%TO.N,/O4P*%
X125035000Y-111472500D03*
%TO.P,U1,22,O4N*%
%TO.N,/O4N*%
X125535000Y-111472500D03*
D20*
%TO.P,U1,23,I4N*%
%TO.N,/I4N*%
X126472500Y-110535000D03*
%TO.P,U1,24,I4P*%
%TO.N,/I4P*%
X126472500Y-110035000D03*
%TO.P,U1,25,BVDD*%
%TO.N,+3V3*%
X126472500Y-109535000D03*
%TO.P,U1,26,VREFP*%
%TO.N,/VREFP*%
X126472500Y-109035000D03*
%TO.P,U1,27,VMR*%
%TO.N,/VMR*%
X126472500Y-108535000D03*
%TO.P,U1,28,VREFN*%
%TO.N,/VREFN*%
X126472500Y-108035000D03*
%TO.P,U1,29,BVSS*%
%TO.N,GND*%
X126472500Y-107535000D03*
%TO.P,U1,30,CFGFLGGb*%
%TO.N,unconnected-(U1-Pad30)*%
X126472500Y-107035000D03*
%TO.P,U1,31,CS2b*%
%TO.N,/SELb*%
X126472500Y-106535000D03*
%TO.P,U1,32,CS1b*%
%TO.N,GND*%
X126472500Y-106035000D03*
%TO.P,U1,33,SCLK*%
%TO.N,/SCLK*%
X126472500Y-105535000D03*
D21*
%TO.P,U1,34,ACLK*%
%TO.N,/ACLK*%
X125535000Y-104597500D03*
%TO.P,U1,35,MODE*%
%TO.N,GND*%
X125035000Y-104597500D03*
%TO.P,U1,36,DVDD*%
%TO.N,+3V3*%
X124535000Y-104597500D03*
%TO.P,U1,37,DVSS*%
%TO.N,GND*%
X124035000Y-104597500D03*
%TO.P,U1,38,SI*%
%TO.N,/MOSI*%
X123535000Y-104597500D03*
%TO.P,U1,39,LCCb*%
%TO.N,unconnected-(U1-Pad39)*%
X123035000Y-104597500D03*
%TO.P,U1,40,ERRb*%
%TO.N,Net-(R1-Pad2)*%
X122535000Y-104597500D03*
%TO.P,U1,41,ACTIVATE*%
%TO.N,unconnected-(U1-Pad41)*%
X122035000Y-104597500D03*
%TO.P,U1,42,MEMCLK*%
%TO.N,unconnected-(U1-Pad42)*%
X121535000Y-104597500D03*
%TO.P,U1,43,SO*%
%TO.N,unconnected-(U1-Pad43)*%
X121035000Y-104597500D03*
%TO.P,U1,44,RESETb*%
%TO.N,+3V3*%
X120535000Y-104597500D03*
D22*
%TO.P,U1,45,GND*%
%TO.N,GND*%
X123035000Y-108035000D03*
%TD*%
D11*
%TO.P,J3,1,Pin_1*%
%TO.N,/O1P*%
X104830000Y-100000000D03*
D12*
%TO.P,J3,2,Pin_2*%
%TO.N,/O1N*%
X107370000Y-100000000D03*
%TO.P,J3,3,Pin_3*%
%TO.N,/I1N*%
X109910000Y-100000000D03*
%TO.P,J3,4,Pin_4*%
%TO.N,/I1P*%
X112450000Y-100000000D03*
%TD*%
D23*
%TO.N,GND*%
X125275000Y-107525000D03*
X125260000Y-106035000D03*
X116275000Y-109710000D03*
X129575000Y-113525000D03*
X116240000Y-112800000D03*
X134025000Y-96200000D03*
X124050000Y-105775000D03*
X131925000Y-109625000D03*
X130875000Y-96200000D03*
X130875000Y-97150000D03*
X127225000Y-96425000D03*
X126860000Y-100910000D03*
X134025000Y-97050000D03*
X130600000Y-106525000D03*
X131900000Y-108100000D03*
X120825000Y-107525000D03*
X137700000Y-96425000D03*
X126860000Y-102460000D03*
X128050000Y-112575000D03*
%TO.N,+3V3*%
X130375000Y-111200000D03*
X121200000Y-101000000D03*
X124525000Y-100100000D03*
X134025000Y-99325000D03*
X118560000Y-110030000D03*
X120525000Y-103550000D03*
%TO.N,/MOSI*%
X123620000Y-103520000D03*
%TD*%
D24*
%TO.N,/SELb*%
X141750000Y-108750000D02*
X141750000Y-107200000D01*
X135000000Y-109000000D02*
X141500000Y-109000000D01*
X134500000Y-108500000D02*
X135000000Y-109000000D01*
X141500000Y-109000000D02*
X141750000Y-108750000D01*
X134500000Y-106500000D02*
X134500000Y-108500000D01*
X133500000Y-105500000D02*
X134500000Y-106500000D01*
X128000000Y-105500000D02*
X133500000Y-105500000D01*
X126965000Y-106535000D02*
X128000000Y-105500000D01*
X126472500Y-106535000D02*
X126965000Y-106535000D01*
%TO.N,/SCLK*%
X139210000Y-105960000D02*
X139210000Y-107200000D01*
X138000000Y-104750000D02*
X139210000Y-105960000D01*
X127750000Y-104750000D02*
X138000000Y-104750000D01*
X126965000Y-105535000D02*
X127750000Y-104750000D01*
X126472500Y-105535000D02*
X126965000Y-105535000D01*
%TO.N,Net-(C11-Pad1)*%
X132500000Y-102325000D02*
X129500000Y-99325000D01*
X132500000Y-102750000D02*
X132500000Y-102325000D01*
%TO.N,/ACLK*%
X128960000Y-103750000D02*
X129960000Y-102750000D01*
X125900000Y-103750000D02*
X128960000Y-103750000D01*
D25*
%TO.N,/VREFN*%
X128275000Y-107300000D02*
X128275000Y-106550000D01*
X127540000Y-108035000D02*
X128275000Y-107300000D01*
X126472500Y-108035000D02*
X127540000Y-108035000D01*
D26*
%TO.N,GND*%
X130025000Y-97150000D02*
X129500000Y-96625000D01*
D25*
X125035000Y-104597500D02*
X125035000Y-105810000D01*
D26*
X128050000Y-112575000D02*
X128050000Y-111800000D01*
X134975000Y-97050000D02*
X135387500Y-96637500D01*
X116240000Y-112800000D02*
X116240000Y-112020000D01*
X131125000Y-109625000D02*
X131925000Y-109625000D01*
X131125000Y-108100000D02*
X131900000Y-108100000D01*
D25*
X120815000Y-107535000D02*
X120825000Y-107525000D01*
D26*
X127225000Y-97175000D02*
X127200000Y-97200000D01*
D24*
X126472500Y-106035000D02*
X125260000Y-106035000D01*
D26*
X116275000Y-110485000D02*
X116250000Y-110510000D01*
D25*
X124035000Y-104597500D02*
X124035000Y-105760000D01*
D26*
X134025000Y-96200000D02*
X134975000Y-96200000D01*
X130875000Y-97150000D02*
X130025000Y-97150000D01*
X126085000Y-100910000D02*
X126860000Y-100910000D01*
X126085000Y-102460000D02*
X126860000Y-102460000D01*
X134025000Y-97050000D02*
X134975000Y-97050000D01*
D25*
X125285000Y-107535000D02*
X125275000Y-107525000D01*
D26*
X116275000Y-109710000D02*
X116275000Y-110485000D01*
X130875000Y-96200000D02*
X129925000Y-96200000D01*
D25*
X125035000Y-105810000D02*
X125260000Y-106035000D01*
D26*
X129850000Y-106525000D02*
X130600000Y-106525000D01*
X137700000Y-97200000D02*
X137700000Y-96425000D01*
D25*
X126472500Y-107535000D02*
X125285000Y-107535000D01*
D26*
X129825000Y-106550000D02*
X129850000Y-106525000D01*
D24*
X124310000Y-105935000D02*
X124035000Y-105660000D01*
D25*
X124035000Y-105760000D02*
X124050000Y-105775000D01*
D26*
X129575000Y-112750000D02*
X129575000Y-113525000D01*
X135387500Y-96637500D02*
X135400000Y-96625000D01*
D25*
X119597500Y-107535000D02*
X120815000Y-107535000D01*
D26*
X116240000Y-112020000D02*
X116250000Y-112010000D01*
X134975000Y-96200000D02*
X135400000Y-96625000D01*
X129500000Y-96625000D02*
X129950000Y-96175000D01*
X127225000Y-96425000D02*
X127225000Y-97175000D01*
D25*
%TO.N,/VMR*%
X129140000Y-108535000D02*
X129575000Y-108100000D01*
X126472500Y-108535000D02*
X129140000Y-108535000D01*
%TO.N,/VREFP*%
X128985000Y-109035000D02*
X129575000Y-109625000D01*
X126472500Y-109035000D02*
X128985000Y-109035000D01*
D26*
%TO.N,+3V3*%
X117800000Y-112010000D02*
X117800000Y-110510000D01*
D25*
X119597500Y-110035000D02*
X118565000Y-110035000D01*
D26*
X117800000Y-110510000D02*
X118080000Y-110510000D01*
D25*
X118565000Y-110035000D02*
X118560000Y-110030000D01*
D26*
X121200000Y-101000000D02*
X122500000Y-101000000D01*
X135400000Y-99325000D02*
X134025000Y-99325000D01*
X124525000Y-100900000D02*
X124535000Y-100910000D01*
D25*
X126472500Y-109535000D02*
X127335000Y-109535000D01*
D26*
X124535000Y-100910000D02*
X124535000Y-102460000D01*
D25*
X120535000Y-103560000D02*
X120525000Y-103550000D01*
D26*
X137700000Y-98750000D02*
X135975000Y-98750000D01*
D25*
X127335000Y-109535000D02*
X128050000Y-110250000D01*
D24*
X124535000Y-104597500D02*
X124535000Y-102460000D01*
D26*
X130375000Y-111200000D02*
X129575000Y-111200000D01*
X124525000Y-100100000D02*
X124525000Y-100900000D01*
X118080000Y-110510000D02*
X118560000Y-110030000D01*
D25*
X120535000Y-104597500D02*
X120535000Y-103560000D01*
D26*
X129000000Y-111200000D02*
X128050000Y-110250000D01*
X129575000Y-111200000D02*
X129000000Y-111200000D01*
X135975000Y-98750000D02*
X135400000Y-99325000D01*
D25*
%TO.N,/MOSI*%
X123535000Y-103605000D02*
X123620000Y-103520000D01*
X123535000Y-104597500D02*
X123535000Y-103605000D01*
%TO.N,/O1P*%
X119597500Y-107035000D02*
X116425000Y-107035000D01*
X116425000Y-107035000D02*
X114850000Y-105460000D01*
X114125000Y-103075000D02*
X107350000Y-103075000D01*
X107350000Y-103075000D02*
X104830000Y-100555000D01*
X104830000Y-100555000D02*
X104830000Y-100000000D01*
X114850000Y-105460000D02*
X114850000Y-103800000D01*
X114850000Y-103800000D02*
X114125000Y-103075000D01*
%TO.N,/O1N*%
X119597500Y-106535000D02*
X116755000Y-106535000D01*
X114800000Y-102400000D02*
X109770000Y-102400000D01*
X115800000Y-103400000D02*
X114800000Y-102400000D01*
X116755000Y-106535000D02*
X115800000Y-105580000D01*
X115800000Y-105580000D02*
X115800000Y-103400000D01*
X109770000Y-102400000D02*
X107370000Y-100000000D01*
%TO.N,/I1N*%
X116350000Y-102900000D02*
X114975000Y-101525000D01*
X117065000Y-106035000D02*
X116350000Y-105320000D01*
X119597500Y-106035000D02*
X117065000Y-106035000D01*
X111435000Y-101525000D02*
X109910000Y-100000000D01*
X116350000Y-105320000D02*
X116350000Y-102900000D01*
X114975000Y-101525000D02*
X111435000Y-101525000D01*
%TO.N,/I1P*%
X117475000Y-105535000D02*
X116810000Y-104870000D01*
X115725000Y-100000000D02*
X112450000Y-100000000D01*
X116810000Y-101085000D02*
X115725000Y-100000000D01*
X119597500Y-105535000D02*
X117475000Y-105535000D01*
X116810000Y-104870000D02*
X116810000Y-101085000D01*
%TO.N,/I2P*%
X115570000Y-109110000D02*
X108990000Y-109110000D01*
X115571111Y-109108889D02*
X115570000Y-109110000D01*
X119597500Y-109535000D02*
X118915100Y-109535000D01*
X118915100Y-109535000D02*
X118488989Y-109108889D01*
X118488989Y-109108889D02*
X115571111Y-109108889D01*
X108990000Y-109110000D02*
X104880000Y-105000000D01*
%TO.N,/I2N*%
X118984632Y-109035000D02*
X118655801Y-108706169D01*
X111126169Y-108706169D02*
X107420000Y-105000000D01*
X118655801Y-108706169D02*
X111126169Y-108706169D01*
X119597500Y-109035000D02*
X118984632Y-109035000D01*
%TO.N,/O2N*%
X113263449Y-108303449D02*
X109960000Y-105000000D01*
X119597500Y-108535000D02*
X119054164Y-108535000D01*
X118822613Y-108303449D02*
X113263449Y-108303449D01*
X119054164Y-108535000D02*
X118822613Y-108303449D01*
%TO.N,/O2P*%
X118989425Y-107900729D02*
X115400729Y-107900729D01*
X119597500Y-108035000D02*
X119123696Y-108035000D01*
X115400729Y-107900729D02*
X112500000Y-105000000D01*
X119123696Y-108035000D02*
X118989425Y-107900729D01*
%TO.N,/IO5N*%
X119150000Y-117720000D02*
X118860000Y-118010000D01*
X122535000Y-112590000D02*
X119150000Y-115975000D01*
X122535000Y-111472500D02*
X122535000Y-112590000D01*
X119150000Y-115975000D02*
X119150000Y-117720000D01*
%TO.N,/IO5P*%
X122035000Y-112440000D02*
X122035000Y-111472500D01*
X116320000Y-118010000D02*
X116320000Y-116905000D01*
X118100000Y-115125000D02*
X119350000Y-115125000D01*
X119350000Y-115125000D02*
X122035000Y-112440000D01*
X116320000Y-116905000D02*
X118100000Y-115125000D01*
%TO.N,/IO6N*%
X123535000Y-116165000D02*
X125390000Y-118020000D01*
X123535000Y-111472500D02*
X123535000Y-116165000D01*
%TO.N,/IO6P*%
X123035000Y-111472500D02*
X123035000Y-117835000D01*
X123035000Y-117835000D02*
X122850000Y-118020000D01*
%TO.N,/O3P*%
X112300000Y-116140000D02*
X112300000Y-118000000D01*
X121535000Y-112284532D02*
X119111399Y-114708133D01*
X119111399Y-114708133D02*
X113731867Y-114708133D01*
X113731867Y-114708133D02*
X112300000Y-116140000D01*
X121535000Y-111472500D02*
X121535000Y-112284532D01*
%TO.N,/O3N*%
X118944578Y-114305422D02*
X121035000Y-112215000D01*
X113454578Y-114305422D02*
X118944578Y-114305422D01*
X109760000Y-118000000D02*
X113454578Y-114305422D01*
X121035000Y-112215000D02*
X121035000Y-111472500D01*
%TO.N,/I3N*%
X120535000Y-112145468D02*
X120535000Y-111472500D01*
X118777757Y-113902711D02*
X120535000Y-112145468D01*
X107220000Y-118000000D02*
X111317289Y-113902711D01*
X111317289Y-113902711D02*
X118777757Y-113902711D01*
%TO.N,/I3P*%
X119597500Y-112302500D02*
X118400000Y-113500000D01*
X105650000Y-116250000D02*
X104680000Y-117220000D01*
X118400000Y-113500000D02*
X110075000Y-113500000D01*
X119597500Y-110535000D02*
X119597500Y-112302500D01*
X110075000Y-113500000D02*
X107325000Y-116250000D01*
X104680000Y-117220000D02*
X104680000Y-118000000D01*
X107325000Y-116250000D02*
X105650000Y-116250000D01*
%TO.N,/I4P*%
X127010000Y-110035000D02*
X127225000Y-110250000D01*
X127600000Y-114225000D02*
X132775000Y-114225000D01*
X127225000Y-110250000D02*
X127225000Y-113850000D01*
X127225000Y-113850000D02*
X127600000Y-114225000D01*
X132775000Y-114225000D02*
X134200000Y-112800000D01*
X126472500Y-110035000D02*
X127010000Y-110035000D01*
%TO.N,/I4N*%
X126472500Y-114172500D02*
X126950000Y-114650000D01*
X135900000Y-114650000D02*
X136740000Y-113810000D01*
X126950000Y-114650000D02*
X135900000Y-114650000D01*
X136740000Y-113810000D02*
X136740000Y-112800000D01*
X126472500Y-110535000D02*
X126472500Y-114172500D01*
%TO.N,/O4N*%
X139280000Y-114545000D02*
X139280000Y-112800000D01*
X125535000Y-114085000D02*
X126525000Y-115075000D01*
X125535000Y-111472500D02*
X125535000Y-114085000D01*
X126525000Y-115075000D02*
X138750000Y-115075000D01*
X138750000Y-115075000D02*
X139280000Y-114545000D01*
%TO.N,/O4P*%
X125035000Y-111472500D02*
X125035000Y-114160000D01*
X126375000Y-115500000D02*
X141100000Y-115500000D01*
X125035000Y-114160000D02*
X126375000Y-115500000D01*
X141100000Y-115500000D02*
X141820000Y-114780000D01*
X141820000Y-114780000D02*
X141820000Y-112800000D01*
%TO.N,/IO7N*%
X129865000Y-115925000D02*
X131950000Y-118010000D01*
X124535000Y-114435000D02*
X126025000Y-115925000D01*
X126025000Y-115925000D02*
X129865000Y-115925000D01*
X124535000Y-111472500D02*
X124535000Y-114435000D01*
%TO.N,/IO7P*%
X124035000Y-114860000D02*
X125600000Y-116425000D01*
X125600000Y-116425000D02*
X127825000Y-116425000D01*
X127825000Y-116425000D02*
X129410000Y-118010000D01*
X124035000Y-111472500D02*
X124035000Y-114860000D01*
%TO.N,Net-(R1-Pad2)*%
X122535000Y-102685000D02*
X122500000Y-102650000D01*
X122535000Y-104597500D02*
X122535000Y-102685000D01*
D24*
%TO.N,/ACLK*%
X125535000Y-104115000D02*
X125900000Y-103750000D01*
D26*
%TO.N,Net-(C11-Pad1)*%
X128925000Y-98750000D02*
X129500000Y-99325000D01*
D24*
%TO.N,/ACLK*%
X125535000Y-104597500D02*
X125535000Y-104115000D01*
D26*
%TO.N,Net-(C11-Pad1)*%
X127200000Y-98750000D02*
X128925000Y-98750000D01*
%TD*%
%TA.AperFunction,Conductor*%
%TO.N,GND*%
G36*
X133943547Y-95245002D02*
G01*
X133990040Y-95298658D01*
X134000144Y-95368932D01*
X133976252Y-95426565D01*
X133905214Y-95521351D01*
X133896676Y-95536946D01*
X133851522Y-95657394D01*
X133847895Y-95672649D01*
X133842369Y-95723514D01*
X133842000Y-95730328D01*
X133842000Y-96352885D01*
X133846475Y-96368124D01*
X133847865Y-96369329D01*
X133855548Y-96371000D01*
X135528000Y-96371000D01*
X135596121Y-96391002D01*
X135642614Y-96444658D01*
X135654000Y-96497000D01*
X135654000Y-96753000D01*
X135633998Y-96821121D01*
X135580342Y-96867614D01*
X135528000Y-96879000D01*
X133860116Y-96879000D01*
X133844877Y-96883475D01*
X133843672Y-96884865D01*
X133842001Y-96892548D01*
X133842001Y-97519669D01*
X133842371Y-97526490D01*
X133848748Y-97585207D01*
X133845262Y-97585586D01*
X133842474Y-97640574D01*
X133801115Y-97698280D01*
X133735123Y-97724466D01*
X133723530Y-97725000D01*
X131176471Y-97725000D01*
X131108350Y-97704998D01*
X131061857Y-97651342D01*
X131052365Y-97585328D01*
X131051252Y-97585207D01*
X131057631Y-97526486D01*
X131058000Y-97519672D01*
X131058000Y-96897115D01*
X131053525Y-96881876D01*
X131052135Y-96880671D01*
X131044452Y-96879000D01*
X129372000Y-96879000D01*
X129303879Y-96858998D01*
X129257386Y-96805342D01*
X129246000Y-96753000D01*
X129246000Y-96497000D01*
X129266002Y-96428879D01*
X129319658Y-96382386D01*
X129372000Y-96371000D01*
X131039884Y-96371000D01*
X131055123Y-96366525D01*
X131056328Y-96365135D01*
X131057999Y-96357452D01*
X131057999Y-95730331D01*
X131057629Y-95723510D01*
X131052105Y-95672648D01*
X131048479Y-95657396D01*
X131003324Y-95536946D01*
X130994786Y-95521351D01*
X130923748Y-95426565D01*
X130898900Y-95360058D01*
X130913953Y-95290676D01*
X130964128Y-95240446D01*
X131024574Y-95225000D01*
X133875426Y-95225000D01*
X133943547Y-95245002D01*
G37*
%TD.AperFunction*%
%TA.AperFunction,Conductor*%
G36*
X128043547Y-95245002D02*
G01*
X128090040Y-95298658D01*
X128100144Y-95368932D01*
X128076252Y-95426565D01*
X128005214Y-95521351D01*
X127996676Y-95536946D01*
X127951522Y-95657394D01*
X127947895Y-95672649D01*
X127942369Y-95723514D01*
X127942000Y-95730328D01*
X127942000Y-96193296D01*
X127921998Y-96261417D01*
X127868342Y-96307910D01*
X127798068Y-96318014D01*
X127762752Y-96307492D01*
X127754940Y-96303849D01*
X127606186Y-96254509D01*
X127592810Y-96251642D01*
X127501903Y-96242328D01*
X127495486Y-96242000D01*
X127472115Y-96242000D01*
X127456876Y-96246475D01*
X127455671Y-96247865D01*
X127454000Y-96255548D01*
X127454000Y-97328000D01*
X127433998Y-97396121D01*
X127380342Y-97442614D01*
X127328000Y-97454000D01*
X127072000Y-97454000D01*
X127003879Y-97433998D01*
X126957386Y-97380342D01*
X126946000Y-97328000D01*
X126946000Y-96260115D01*
X126941525Y-96244876D01*
X126940135Y-96243671D01*
X126932452Y-96242000D01*
X126904562Y-96242000D01*
X126898048Y-96242337D01*
X126839005Y-96248464D01*
X126769184Y-96235600D01*
X126717401Y-96187030D01*
X126700000Y-96123137D01*
X126700000Y-95351000D01*
X126720002Y-95282879D01*
X126773658Y-95236386D01*
X126826000Y-95225000D01*
X127975426Y-95225000D01*
X128043547Y-95245002D01*
G37*
%TD.AperFunction*%
%TA.AperFunction,Conductor*%
G36*
X138392121Y-95245002D02*
G01*
X138438614Y-95298658D01*
X138450000Y-95351000D01*
X138450000Y-96197027D01*
X138429998Y-96265148D01*
X138376342Y-96311641D01*
X138306068Y-96321745D01*
X138270749Y-96311221D01*
X138254943Y-96303850D01*
X138106186Y-96254509D01*
X138092810Y-96251642D01*
X138001903Y-96242328D01*
X137995486Y-96242000D01*
X137972115Y-96242000D01*
X137956876Y-96246475D01*
X137955671Y-96247865D01*
X137954000Y-96255548D01*
X137954000Y-97328000D01*
X137933998Y-97396121D01*
X137880342Y-97442614D01*
X137828000Y-97454000D01*
X137572000Y-97454000D01*
X137503879Y-97433998D01*
X137457386Y-97380342D01*
X137446000Y-97328000D01*
X137446000Y-96260115D01*
X137441525Y-96244876D01*
X137440135Y-96243671D01*
X137432452Y-96242000D01*
X137404562Y-96242000D01*
X137398047Y-96242337D01*
X137305943Y-96251894D01*
X137292544Y-96254788D01*
X137143890Y-96304382D01*
X137137452Y-96307398D01*
X137067280Y-96318184D01*
X137002415Y-96289319D01*
X136963453Y-96229969D01*
X136957999Y-96193298D01*
X136957999Y-95730331D01*
X136957629Y-95723510D01*
X136952105Y-95672648D01*
X136948479Y-95657396D01*
X136903324Y-95536946D01*
X136894786Y-95521351D01*
X136823748Y-95426565D01*
X136798900Y-95360058D01*
X136813953Y-95290676D01*
X136864128Y-95240446D01*
X136924574Y-95225000D01*
X138324000Y-95225000D01*
X138392121Y-95245002D01*
G37*
%TD.AperFunction*%
%TD*%
M02*
