%TF.GenerationSoftware,KiCad,Pcbnew,(6.0.0)*%
%TF.CreationDate,2022-03-17T17:23:03-06:00*%
%TF.ProjectId,FPAA_Starter_Board,46504141-5f53-4746-9172-7465725f426f,rev?*%
%TF.SameCoordinates,Original*%
%TF.FileFunction,Legend,Bot*%
%TF.FilePolarity,Positive*%
%FSLAX46Y46*%
G04 Gerber Fmt 4.6, Leading zero omitted, Abs format (unit mm)*
G04 Created by KiCad (PCBNEW (6.0.0)) date 2022-03-17 17:23:03*
%MOMM*%
%LPD*%
G01*
G04 APERTURE LIST*
%ADD10C,0.150000*%
%ADD11C,0.010000*%
G04 APERTURE END LIST*
D10*
X148826309Y-97167904D02*
X148559642Y-97967904D01*
X148292976Y-97167904D01*
X147721547Y-97929809D02*
X147797738Y-97967904D01*
X147950119Y-97967904D01*
X148026309Y-97929809D01*
X148064404Y-97853619D01*
X148064404Y-97548857D01*
X148026309Y-97472666D01*
X147950119Y-97434571D01*
X147797738Y-97434571D01*
X147721547Y-97472666D01*
X147683452Y-97548857D01*
X147683452Y-97625047D01*
X148064404Y-97701238D01*
X147340595Y-97967904D02*
X147340595Y-97434571D01*
X147340595Y-97586952D02*
X147302500Y-97510761D01*
X147264404Y-97472666D01*
X147188214Y-97434571D01*
X147112023Y-97434571D01*
X146883452Y-97929809D02*
X146807261Y-97967904D01*
X146654880Y-97967904D01*
X146578690Y-97929809D01*
X146540595Y-97853619D01*
X146540595Y-97815523D01*
X146578690Y-97739333D01*
X146654880Y-97701238D01*
X146769166Y-97701238D01*
X146845357Y-97663142D01*
X146883452Y-97586952D01*
X146883452Y-97548857D01*
X146845357Y-97472666D01*
X146769166Y-97434571D01*
X146654880Y-97434571D01*
X146578690Y-97472666D01*
X146197738Y-97967904D02*
X146197738Y-97434571D01*
X146197738Y-97167904D02*
X146235833Y-97206000D01*
X146197738Y-97244095D01*
X146159642Y-97206000D01*
X146197738Y-97167904D01*
X146197738Y-97244095D01*
X145702500Y-97967904D02*
X145778690Y-97929809D01*
X145816785Y-97891714D01*
X145854880Y-97815523D01*
X145854880Y-97586952D01*
X145816785Y-97510761D01*
X145778690Y-97472666D01*
X145702500Y-97434571D01*
X145588214Y-97434571D01*
X145512023Y-97472666D01*
X145473928Y-97510761D01*
X145435833Y-97586952D01*
X145435833Y-97815523D01*
X145473928Y-97891714D01*
X145512023Y-97929809D01*
X145588214Y-97967904D01*
X145702500Y-97967904D01*
X145092976Y-97434571D02*
X145092976Y-97967904D01*
X145092976Y-97510761D02*
X145054880Y-97472666D01*
X144978690Y-97434571D01*
X144864404Y-97434571D01*
X144788214Y-97472666D01*
X144750119Y-97548857D01*
X144750119Y-97967904D01*
X143340595Y-97967904D02*
X143797738Y-97967904D01*
X143569166Y-97967904D02*
X143569166Y-97167904D01*
X143645357Y-97282190D01*
X143721547Y-97358380D01*
X143797738Y-97396476D01*
X142997738Y-97891714D02*
X142959642Y-97929809D01*
X142997738Y-97967904D01*
X143035833Y-97929809D01*
X142997738Y-97891714D01*
X142997738Y-97967904D01*
X142464404Y-97167904D02*
X142388214Y-97167904D01*
X142312023Y-97206000D01*
X142273928Y-97244095D01*
X142235833Y-97320285D01*
X142197738Y-97472666D01*
X142197738Y-97663142D01*
X142235833Y-97815523D01*
X142273928Y-97891714D01*
X142312023Y-97929809D01*
X142388214Y-97967904D01*
X142464404Y-97967904D01*
X142540595Y-97929809D01*
X142578690Y-97891714D01*
X142616785Y-97815523D01*
X142654880Y-97663142D01*
X142654880Y-97472666D01*
X142616785Y-97320285D01*
X142578690Y-97244095D01*
X142540595Y-97206000D01*
X142464404Y-97167904D01*
X148712023Y-99255904D02*
X148712023Y-98455904D01*
X148445357Y-99027333D01*
X148178690Y-98455904D01*
X148178690Y-99255904D01*
X147454880Y-99255904D02*
X147454880Y-98836857D01*
X147492976Y-98760666D01*
X147569166Y-98722571D01*
X147721547Y-98722571D01*
X147797738Y-98760666D01*
X147454880Y-99217809D02*
X147531071Y-99255904D01*
X147721547Y-99255904D01*
X147797738Y-99217809D01*
X147835833Y-99141619D01*
X147835833Y-99065428D01*
X147797738Y-98989238D01*
X147721547Y-98951142D01*
X147531071Y-98951142D01*
X147454880Y-98913047D01*
X147073928Y-99255904D02*
X147073928Y-98722571D01*
X147073928Y-98874952D02*
X147035833Y-98798761D01*
X146997738Y-98760666D01*
X146921547Y-98722571D01*
X146845357Y-98722571D01*
X146235833Y-99217809D02*
X146312023Y-99255904D01*
X146464404Y-99255904D01*
X146540595Y-99217809D01*
X146578690Y-99179714D01*
X146616785Y-99103523D01*
X146616785Y-98874952D01*
X146578690Y-98798761D01*
X146540595Y-98760666D01*
X146464404Y-98722571D01*
X146312023Y-98722571D01*
X146235833Y-98760666D01*
X145892976Y-99255904D02*
X145892976Y-98455904D01*
X145550119Y-99255904D02*
X145550119Y-98836857D01*
X145588214Y-98760666D01*
X145664404Y-98722571D01*
X145778690Y-98722571D01*
X145854880Y-98760666D01*
X145892976Y-98798761D01*
X144597738Y-98532095D02*
X144559642Y-98494000D01*
X144483452Y-98455904D01*
X144292976Y-98455904D01*
X144216785Y-98494000D01*
X144178690Y-98532095D01*
X144140595Y-98608285D01*
X144140595Y-98684476D01*
X144178690Y-98798761D01*
X144635833Y-99255904D01*
X144140595Y-99255904D01*
X143645357Y-98455904D02*
X143569166Y-98455904D01*
X143492976Y-98494000D01*
X143454880Y-98532095D01*
X143416785Y-98608285D01*
X143378690Y-98760666D01*
X143378690Y-98951142D01*
X143416785Y-99103523D01*
X143454880Y-99179714D01*
X143492976Y-99217809D01*
X143569166Y-99255904D01*
X143645357Y-99255904D01*
X143721547Y-99217809D01*
X143759642Y-99179714D01*
X143797738Y-99103523D01*
X143835833Y-98951142D01*
X143835833Y-98760666D01*
X143797738Y-98608285D01*
X143759642Y-98532095D01*
X143721547Y-98494000D01*
X143645357Y-98455904D01*
X143073928Y-98532095D02*
X143035833Y-98494000D01*
X142959642Y-98455904D01*
X142769166Y-98455904D01*
X142692976Y-98494000D01*
X142654880Y-98532095D01*
X142616785Y-98608285D01*
X142616785Y-98684476D01*
X142654880Y-98798761D01*
X143112023Y-99255904D01*
X142616785Y-99255904D01*
X142312023Y-98532095D02*
X142273928Y-98494000D01*
X142197738Y-98455904D01*
X142007261Y-98455904D01*
X141931071Y-98494000D01*
X141892976Y-98532095D01*
X141854880Y-98608285D01*
X141854880Y-98684476D01*
X141892976Y-98798761D01*
X142350119Y-99255904D01*
X141854880Y-99255904D01*
D11*
%TO.C,G\u002A\u002A\u002A*%
X132687221Y-94409976D02*
X132517235Y-94412526D01*
X132517235Y-94412526D02*
X132525509Y-94752326D01*
X132525509Y-94752326D02*
X132529673Y-94892473D01*
X132529673Y-94892473D02*
X132535131Y-94991077D01*
X132535131Y-94991077D02*
X132543320Y-95057447D01*
X132543320Y-95057447D02*
X132555676Y-95100890D01*
X132555676Y-95100890D02*
X132573633Y-95130714D01*
X132573633Y-95130714D02*
X132585940Y-95144210D01*
X132585940Y-95144210D02*
X132643096Y-95176983D01*
X132643096Y-95176983D02*
X132729013Y-95201821D01*
X132729013Y-95201821D02*
X132821755Y-95214741D01*
X132821755Y-95214741D02*
X132899385Y-95211762D01*
X132899385Y-95211762D02*
X132921521Y-95205125D01*
X132921521Y-95205125D02*
X132948939Y-95170505D01*
X132948939Y-95170505D02*
X132953303Y-95145857D01*
X132953303Y-95145857D02*
X132946102Y-95119225D01*
X132946102Y-95119225D02*
X132916263Y-95108639D01*
X132916263Y-95108639D02*
X132851434Y-95110750D01*
X132851434Y-95110750D02*
X132830784Y-95112630D01*
X132830784Y-95112630D02*
X132723581Y-95108551D01*
X132723581Y-95108551D02*
X132654014Y-95072951D01*
X132654014Y-95072951D02*
X132623918Y-95006938D01*
X132623918Y-95006938D02*
X132622772Y-94987155D01*
X132622772Y-94987155D02*
X132632607Y-94950280D01*
X132632607Y-94950280D02*
X132667267Y-94953717D01*
X132667267Y-94953717D02*
X132755472Y-94983553D01*
X132755472Y-94983553D02*
X132824688Y-94988381D01*
X132824688Y-94988381D02*
X132864695Y-94981155D01*
X132864695Y-94981155D02*
X132933918Y-94939727D01*
X132933918Y-94939727D02*
X132989237Y-94861506D01*
X132989237Y-94861506D02*
X133022893Y-94760177D01*
X133022893Y-94760177D02*
X133028643Y-94699299D01*
X133028643Y-94699299D02*
X132927878Y-94699299D01*
X132927878Y-94699299D02*
X132908590Y-94796604D01*
X132908590Y-94796604D02*
X132856792Y-94861939D01*
X132856792Y-94861939D02*
X132781580Y-94889461D01*
X132781580Y-94889461D02*
X132692050Y-94873327D01*
X132692050Y-94873327D02*
X132671952Y-94863670D01*
X132671952Y-94863670D02*
X132644408Y-94840277D01*
X132644408Y-94840277D02*
X132629333Y-94798795D01*
X132629333Y-94798795D02*
X132623377Y-94726240D01*
X132623377Y-94726240D02*
X132622772Y-94672979D01*
X132622772Y-94672979D02*
X132622772Y-94508608D01*
X132622772Y-94508608D02*
X132735745Y-94508608D01*
X132735745Y-94508608D02*
X132835689Y-94525707D01*
X132835689Y-94525707D02*
X132898836Y-94577794D01*
X132898836Y-94577794D02*
X132926379Y-94666050D01*
X132926379Y-94666050D02*
X132927878Y-94699299D01*
X132927878Y-94699299D02*
X133028643Y-94699299D01*
X133028643Y-94699299D02*
X133029484Y-94690400D01*
X133029484Y-94690400D02*
X133022308Y-94611062D01*
X133022308Y-94611062D02*
X132993269Y-94549898D01*
X132993269Y-94549898D02*
X132943393Y-94493613D01*
X132943393Y-94493613D02*
X132893419Y-94447248D01*
X132893419Y-94447248D02*
X132849037Y-94421688D01*
X132849037Y-94421688D02*
X132792438Y-94411118D01*
X132792438Y-94411118D02*
X132705818Y-94409724D01*
X132705818Y-94409724D02*
X132687221Y-94409976D01*
X132687221Y-94409976D02*
X132687221Y-94409976D01*
G36*
X132989237Y-94861506D02*
G01*
X132933918Y-94939727D01*
X132864695Y-94981155D01*
X132824688Y-94988381D01*
X132755472Y-94983553D01*
X132667267Y-94953717D01*
X132632607Y-94950280D01*
X132622772Y-94987155D01*
X132623918Y-95006938D01*
X132654014Y-95072951D01*
X132723581Y-95108551D01*
X132830784Y-95112630D01*
X132851434Y-95110750D01*
X132916263Y-95108639D01*
X132946102Y-95119225D01*
X132953303Y-95145857D01*
X132948939Y-95170505D01*
X132921521Y-95205125D01*
X132899385Y-95211762D01*
X132821755Y-95214741D01*
X132729013Y-95201821D01*
X132643096Y-95176983D01*
X132585940Y-95144210D01*
X132573633Y-95130714D01*
X132555676Y-95100890D01*
X132543320Y-95057447D01*
X132535131Y-94991077D01*
X132529673Y-94892473D01*
X132525509Y-94752326D01*
X132523577Y-94672979D01*
X132622772Y-94672979D01*
X132623377Y-94726240D01*
X132629333Y-94798795D01*
X132644408Y-94840277D01*
X132671952Y-94863670D01*
X132692050Y-94873327D01*
X132781580Y-94889461D01*
X132856792Y-94861939D01*
X132908590Y-94796604D01*
X132927878Y-94699299D01*
X132926379Y-94666050D01*
X132898836Y-94577794D01*
X132835689Y-94525707D01*
X132735745Y-94508608D01*
X132622772Y-94508608D01*
X132622772Y-94672979D01*
X132523577Y-94672979D01*
X132517235Y-94412526D01*
X132687221Y-94409976D01*
X132705818Y-94409724D01*
X132792438Y-94411118D01*
X132849037Y-94421688D01*
X132893419Y-94447248D01*
X132943393Y-94493613D01*
X132993269Y-94549898D01*
X133022308Y-94611062D01*
X133029484Y-94690400D01*
X133028643Y-94699299D01*
X133022893Y-94760177D01*
X132989237Y-94861506D01*
G37*
X132989237Y-94861506D02*
X132933918Y-94939727D01*
X132864695Y-94981155D01*
X132824688Y-94988381D01*
X132755472Y-94983553D01*
X132667267Y-94953717D01*
X132632607Y-94950280D01*
X132622772Y-94987155D01*
X132623918Y-95006938D01*
X132654014Y-95072951D01*
X132723581Y-95108551D01*
X132830784Y-95112630D01*
X132851434Y-95110750D01*
X132916263Y-95108639D01*
X132946102Y-95119225D01*
X132953303Y-95145857D01*
X132948939Y-95170505D01*
X132921521Y-95205125D01*
X132899385Y-95211762D01*
X132821755Y-95214741D01*
X132729013Y-95201821D01*
X132643096Y-95176983D01*
X132585940Y-95144210D01*
X132573633Y-95130714D01*
X132555676Y-95100890D01*
X132543320Y-95057447D01*
X132535131Y-94991077D01*
X132529673Y-94892473D01*
X132525509Y-94752326D01*
X132523577Y-94672979D01*
X132622772Y-94672979D01*
X132623377Y-94726240D01*
X132629333Y-94798795D01*
X132644408Y-94840277D01*
X132671952Y-94863670D01*
X132692050Y-94873327D01*
X132781580Y-94889461D01*
X132856792Y-94861939D01*
X132908590Y-94796604D01*
X132927878Y-94699299D01*
X132926379Y-94666050D01*
X132898836Y-94577794D01*
X132835689Y-94525707D01*
X132735745Y-94508608D01*
X132622772Y-94508608D01*
X132622772Y-94672979D01*
X132523577Y-94672979D01*
X132517235Y-94412526D01*
X132687221Y-94409976D01*
X132705818Y-94409724D01*
X132792438Y-94411118D01*
X132849037Y-94421688D01*
X132893419Y-94447248D01*
X132943393Y-94493613D01*
X132993269Y-94549898D01*
X133022308Y-94611062D01*
X133029484Y-94690400D01*
X133028643Y-94699299D01*
X133022893Y-94760177D01*
X132989237Y-94861506D01*
X137218456Y-94410808D02*
X137125096Y-94455500D01*
X137125096Y-94455500D02*
X137095692Y-94481227D01*
X137095692Y-94481227D02*
X137034619Y-94568070D01*
X137034619Y-94568070D02*
X137021371Y-94633779D01*
X137021371Y-94633779D02*
X137021371Y-94712012D01*
X137021371Y-94712012D02*
X137223274Y-94712012D01*
X137223274Y-94712012D02*
X137328951Y-94715446D01*
X137328951Y-94715446D02*
X137405216Y-94724868D01*
X137405216Y-94724868D02*
X137441728Y-94738961D01*
X137441728Y-94738961D02*
X137442459Y-94739975D01*
X137442459Y-94739975D02*
X137440620Y-94777513D01*
X137440620Y-94777513D02*
X137412794Y-94830970D01*
X137412794Y-94830970D02*
X137409636Y-94835321D01*
X137409636Y-94835321D02*
X137357324Y-94884483D01*
X137357324Y-94884483D02*
X137284081Y-94907207D01*
X137284081Y-94907207D02*
X137250560Y-94910689D01*
X137250560Y-94910689D02*
X137176990Y-94909760D01*
X137176990Y-94909760D02*
X137124073Y-94897812D01*
X137124073Y-94897812D02*
X137114533Y-94891620D01*
X137114533Y-94891620D02*
X137069773Y-94866525D01*
X137069773Y-94866525D02*
X137032692Y-94874301D01*
X137032692Y-94874301D02*
X137021371Y-94902049D01*
X137021371Y-94902049D02*
X137044065Y-94942035D01*
X137044065Y-94942035D02*
X137101761Y-94979607D01*
X137101761Y-94979607D02*
X137178881Y-95007111D01*
X137178881Y-95007111D02*
X137255294Y-95016949D01*
X137255294Y-95016949D02*
X137336972Y-95002229D01*
X137336972Y-95002229D02*
X137413751Y-94967630D01*
X137413751Y-94967630D02*
X137504099Y-94882787D01*
X137504099Y-94882787D02*
X137548754Y-94776354D01*
X137548754Y-94776354D02*
X137554404Y-94717105D01*
X137554404Y-94717105D02*
X137541350Y-94635735D01*
X137541350Y-94635735D02*
X137459806Y-94635735D01*
X137459806Y-94635735D02*
X137291439Y-94635735D01*
X137291439Y-94635735D02*
X137195430Y-94632803D01*
X137195430Y-94632803D02*
X137142054Y-94622904D01*
X137142054Y-94622904D02*
X137123373Y-94604387D01*
X137123373Y-94604387D02*
X137123073Y-94600710D01*
X137123073Y-94600710D02*
X137144300Y-94551019D01*
X137144300Y-94551019D02*
X137197989Y-94520717D01*
X137197989Y-94520717D02*
X137269144Y-94510916D01*
X137269144Y-94510916D02*
X137342775Y-94522728D01*
X137342775Y-94522728D02*
X137403888Y-94557267D01*
X137403888Y-94557267D02*
X137422025Y-94578528D01*
X137422025Y-94578528D02*
X137459806Y-94635735D01*
X137459806Y-94635735D02*
X137541350Y-94635735D01*
X137541350Y-94635735D02*
X137535814Y-94601231D01*
X137535814Y-94601231D02*
X137483579Y-94507858D01*
X137483579Y-94507858D02*
X137407043Y-94441793D01*
X137407043Y-94441793D02*
X137315554Y-94407841D01*
X137315554Y-94407841D02*
X137218456Y-94410808D01*
X137218456Y-94410808D02*
X137218456Y-94410808D01*
G36*
X137548754Y-94776354D02*
G01*
X137504099Y-94882787D01*
X137413751Y-94967630D01*
X137336972Y-95002229D01*
X137255294Y-95016949D01*
X137178881Y-95007111D01*
X137101761Y-94979607D01*
X137044065Y-94942035D01*
X137021371Y-94902049D01*
X137032692Y-94874301D01*
X137069773Y-94866525D01*
X137114533Y-94891620D01*
X137124073Y-94897812D01*
X137176990Y-94909760D01*
X137250560Y-94910689D01*
X137284081Y-94907207D01*
X137357324Y-94884483D01*
X137409636Y-94835321D01*
X137412794Y-94830970D01*
X137440620Y-94777513D01*
X137442459Y-94739975D01*
X137441728Y-94738961D01*
X137405216Y-94724868D01*
X137328951Y-94715446D01*
X137223274Y-94712012D01*
X137021371Y-94712012D01*
X137021371Y-94633779D01*
X137028038Y-94600710D01*
X137123073Y-94600710D01*
X137123373Y-94604387D01*
X137142054Y-94622904D01*
X137195430Y-94632803D01*
X137291439Y-94635735D01*
X137459806Y-94635735D01*
X137422025Y-94578528D01*
X137403888Y-94557267D01*
X137342775Y-94522728D01*
X137269144Y-94510916D01*
X137197989Y-94520717D01*
X137144300Y-94551019D01*
X137123073Y-94600710D01*
X137028038Y-94600710D01*
X137034619Y-94568070D01*
X137095692Y-94481227D01*
X137125096Y-94455500D01*
X137218456Y-94410808D01*
X137315554Y-94407841D01*
X137407043Y-94441793D01*
X137483579Y-94507858D01*
X137535814Y-94601231D01*
X137541350Y-94635735D01*
X137554404Y-94717105D01*
X137548754Y-94776354D01*
G37*
X137548754Y-94776354D02*
X137504099Y-94882787D01*
X137413751Y-94967630D01*
X137336972Y-95002229D01*
X137255294Y-95016949D01*
X137178881Y-95007111D01*
X137101761Y-94979607D01*
X137044065Y-94942035D01*
X137021371Y-94902049D01*
X137032692Y-94874301D01*
X137069773Y-94866525D01*
X137114533Y-94891620D01*
X137124073Y-94897812D01*
X137176990Y-94909760D01*
X137250560Y-94910689D01*
X137284081Y-94907207D01*
X137357324Y-94884483D01*
X137409636Y-94835321D01*
X137412794Y-94830970D01*
X137440620Y-94777513D01*
X137442459Y-94739975D01*
X137441728Y-94738961D01*
X137405216Y-94724868D01*
X137328951Y-94715446D01*
X137223274Y-94712012D01*
X137021371Y-94712012D01*
X137021371Y-94633779D01*
X137028038Y-94600710D01*
X137123073Y-94600710D01*
X137123373Y-94604387D01*
X137142054Y-94622904D01*
X137195430Y-94632803D01*
X137291439Y-94635735D01*
X137459806Y-94635735D01*
X137422025Y-94578528D01*
X137403888Y-94557267D01*
X137342775Y-94522728D01*
X137269144Y-94510916D01*
X137197989Y-94520717D01*
X137144300Y-94551019D01*
X137123073Y-94600710D01*
X137028038Y-94600710D01*
X137034619Y-94568070D01*
X137095692Y-94481227D01*
X137125096Y-94455500D01*
X137218456Y-94410808D01*
X137315554Y-94407841D01*
X137407043Y-94441793D01*
X137483579Y-94507858D01*
X137535814Y-94601231D01*
X137541350Y-94635735D01*
X137554404Y-94717105D01*
X137548754Y-94776354D01*
X136767117Y-94915415D02*
X136574562Y-94915415D01*
X136574562Y-94915415D02*
X136476496Y-94916717D01*
X136476496Y-94916717D02*
X136419500Y-94922192D01*
X136419500Y-94922192D02*
X136393826Y-94934199D01*
X136393826Y-94934199D02*
X136389726Y-94955094D01*
X136389726Y-94955094D02*
X136390514Y-94959909D01*
X136390514Y-94959909D02*
X136402184Y-94982225D01*
X136402184Y-94982225D02*
X136433448Y-94996650D01*
X136433448Y-94996650D02*
X136494179Y-95005459D01*
X136494179Y-95005459D02*
X136594253Y-95010925D01*
X136594253Y-95010925D02*
X136615219Y-95011663D01*
X136615219Y-95011663D02*
X136746047Y-95012069D01*
X136746047Y-95012069D02*
X136828991Y-95002715D01*
X136828991Y-95002715D02*
X136862831Y-94987509D01*
X136862831Y-94987509D02*
X136876974Y-94952544D01*
X136876974Y-94952544D02*
X136886727Y-94878049D01*
X136886727Y-94878049D02*
X136892385Y-94760310D01*
X136892385Y-94760310D02*
X136894243Y-94595615D01*
X136894243Y-94595615D02*
X136894244Y-94592512D01*
X136894244Y-94592512D02*
X136894244Y-94228928D01*
X136894244Y-94228928D02*
X136767117Y-94228928D01*
X136767117Y-94228928D02*
X136767117Y-94915415D01*
X136767117Y-94915415D02*
X136767117Y-94915415D01*
G36*
X136894244Y-94592512D02*
G01*
X136894243Y-94595615D01*
X136892385Y-94760310D01*
X136886727Y-94878049D01*
X136876974Y-94952544D01*
X136862831Y-94987509D01*
X136828991Y-95002715D01*
X136746047Y-95012069D01*
X136615219Y-95011663D01*
X136594253Y-95010925D01*
X136494179Y-95005459D01*
X136433448Y-94996650D01*
X136402184Y-94982225D01*
X136390514Y-94959909D01*
X136389726Y-94955094D01*
X136393826Y-94934199D01*
X136419500Y-94922192D01*
X136476496Y-94916717D01*
X136574562Y-94915415D01*
X136767117Y-94915415D01*
X136767117Y-94228928D01*
X136894244Y-94228928D01*
X136894244Y-94592512D01*
G37*
X136894244Y-94592512D02*
X136894243Y-94595615D01*
X136892385Y-94760310D01*
X136886727Y-94878049D01*
X136876974Y-94952544D01*
X136862831Y-94987509D01*
X136828991Y-95002715D01*
X136746047Y-95012069D01*
X136615219Y-95011663D01*
X136594253Y-95010925D01*
X136494179Y-95005459D01*
X136433448Y-94996650D01*
X136402184Y-94982225D01*
X136390514Y-94959909D01*
X136389726Y-94955094D01*
X136393826Y-94934199D01*
X136419500Y-94922192D01*
X136476496Y-94916717D01*
X136574562Y-94915415D01*
X136767117Y-94915415D01*
X136767117Y-94228928D01*
X136894244Y-94228928D01*
X136894244Y-94592512D01*
X135953783Y-94426213D02*
X135874376Y-94481165D01*
X135874376Y-94481165D02*
X135832072Y-94567312D01*
X135832072Y-94567312D02*
X135826376Y-94621867D01*
X135826376Y-94621867D02*
X135826376Y-94712012D01*
X135826376Y-94712012D02*
X136238696Y-94712012D01*
X136238696Y-94712012D02*
X136221835Y-94781931D01*
X136221835Y-94781931D02*
X136194144Y-94846371D01*
X136194144Y-94846371D02*
X136161871Y-94885308D01*
X136161871Y-94885308D02*
X136106745Y-94904408D01*
X136106745Y-94904408D02*
X136024208Y-94908618D01*
X136024208Y-94908618D02*
X135935328Y-94898404D01*
X135935328Y-94898404D02*
X135870871Y-94878881D01*
X135870871Y-94878881D02*
X135835714Y-94874213D01*
X135835714Y-94874213D02*
X135826376Y-94910207D01*
X135826376Y-94910207D02*
X135849197Y-94955877D01*
X135849197Y-94955877D02*
X135908412Y-94990504D01*
X135908412Y-94990504D02*
X135990149Y-95010740D01*
X135990149Y-95010740D02*
X136080537Y-95013236D01*
X136080537Y-95013236D02*
X136165705Y-94994641D01*
X136165705Y-94994641D02*
X136169619Y-94993081D01*
X136169619Y-94993081D02*
X136249135Y-94943994D01*
X136249135Y-94943994D02*
X136297567Y-94869937D01*
X136297567Y-94869937D02*
X136319352Y-94762177D01*
X136319352Y-94762177D02*
X136321643Y-94693904D01*
X136321643Y-94693904D02*
X136319084Y-94601034D01*
X136319084Y-94601034D02*
X136317773Y-94593649D01*
X136317773Y-94593649D02*
X136226710Y-94593649D01*
X136226710Y-94593649D02*
X136221986Y-94619580D01*
X136221986Y-94619580D02*
X136180018Y-94632116D01*
X136180018Y-94632116D02*
X136094513Y-94635696D01*
X136094513Y-94635696D02*
X136078862Y-94635735D01*
X136078862Y-94635735D02*
X135993925Y-94634401D01*
X135993925Y-94634401D02*
X135948665Y-94627487D01*
X135948665Y-94627487D02*
X135931922Y-94610625D01*
X135931922Y-94610625D02*
X135932536Y-94579450D01*
X135932536Y-94579450D02*
X135932666Y-94578528D01*
X135932666Y-94578528D02*
X135946069Y-94541704D01*
X135946069Y-94541704D02*
X135982033Y-94522462D01*
X135982033Y-94522462D02*
X136054283Y-94513237D01*
X136054283Y-94513237D02*
X136136379Y-94513925D01*
X136136379Y-94513925D02*
X136184974Y-94533313D01*
X136184974Y-94533313D02*
X136200479Y-94549878D01*
X136200479Y-94549878D02*
X136226710Y-94593649D01*
X136226710Y-94593649D02*
X136317773Y-94593649D01*
X136317773Y-94593649D02*
X136308674Y-94542432D01*
X136308674Y-94542432D02*
X136285202Y-94501584D01*
X136285202Y-94501584D02*
X136250305Y-94467813D01*
X136250305Y-94467813D02*
X136174777Y-94422320D01*
X136174777Y-94422320D02*
X136079494Y-94407070D01*
X136079494Y-94407070D02*
X136065344Y-94406906D01*
X136065344Y-94406906D02*
X135953783Y-94426213D01*
X135953783Y-94426213D02*
X135953783Y-94426213D01*
G36*
X136321643Y-94693904D02*
G01*
X136319352Y-94762177D01*
X136297567Y-94869937D01*
X136249135Y-94943994D01*
X136169619Y-94993081D01*
X136165705Y-94994641D01*
X136080537Y-95013236D01*
X135990149Y-95010740D01*
X135908412Y-94990504D01*
X135849197Y-94955877D01*
X135826376Y-94910207D01*
X135835714Y-94874213D01*
X135870871Y-94878881D01*
X135935328Y-94898404D01*
X136024208Y-94908618D01*
X136106745Y-94904408D01*
X136161871Y-94885308D01*
X136194144Y-94846371D01*
X136221835Y-94781931D01*
X136238696Y-94712012D01*
X135826376Y-94712012D01*
X135826376Y-94621867D01*
X135827550Y-94610625D01*
X135931922Y-94610625D01*
X135948665Y-94627487D01*
X135993925Y-94634401D01*
X136078862Y-94635735D01*
X136094513Y-94635696D01*
X136180018Y-94632116D01*
X136221986Y-94619580D01*
X136226710Y-94593649D01*
X136200479Y-94549878D01*
X136184974Y-94533313D01*
X136136379Y-94513925D01*
X136054283Y-94513237D01*
X135982033Y-94522462D01*
X135946069Y-94541704D01*
X135932666Y-94578528D01*
X135932536Y-94579450D01*
X135931922Y-94610625D01*
X135827550Y-94610625D01*
X135832072Y-94567312D01*
X135874376Y-94481165D01*
X135953783Y-94426213D01*
X136065344Y-94406906D01*
X136079494Y-94407070D01*
X136174777Y-94422320D01*
X136250305Y-94467813D01*
X136285202Y-94501584D01*
X136308674Y-94542432D01*
X136317773Y-94593649D01*
X136319084Y-94601034D01*
X136321643Y-94693904D01*
G37*
X136321643Y-94693904D02*
X136319352Y-94762177D01*
X136297567Y-94869937D01*
X136249135Y-94943994D01*
X136169619Y-94993081D01*
X136165705Y-94994641D01*
X136080537Y-95013236D01*
X135990149Y-95010740D01*
X135908412Y-94990504D01*
X135849197Y-94955877D01*
X135826376Y-94910207D01*
X135835714Y-94874213D01*
X135870871Y-94878881D01*
X135935328Y-94898404D01*
X136024208Y-94908618D01*
X136106745Y-94904408D01*
X136161871Y-94885308D01*
X136194144Y-94846371D01*
X136221835Y-94781931D01*
X136238696Y-94712012D01*
X135826376Y-94712012D01*
X135826376Y-94621867D01*
X135827550Y-94610625D01*
X135931922Y-94610625D01*
X135948665Y-94627487D01*
X135993925Y-94634401D01*
X136078862Y-94635735D01*
X136094513Y-94635696D01*
X136180018Y-94632116D01*
X136221986Y-94619580D01*
X136226710Y-94593649D01*
X136200479Y-94549878D01*
X136184974Y-94533313D01*
X136136379Y-94513925D01*
X136054283Y-94513237D01*
X135982033Y-94522462D01*
X135946069Y-94541704D01*
X135932666Y-94578528D01*
X135932536Y-94579450D01*
X135931922Y-94610625D01*
X135827550Y-94610625D01*
X135832072Y-94567312D01*
X135874376Y-94481165D01*
X135953783Y-94426213D01*
X136065344Y-94406906D01*
X136079494Y-94407070D01*
X136174777Y-94422320D01*
X136250305Y-94467813D01*
X136285202Y-94501584D01*
X136308674Y-94542432D01*
X136317773Y-94593649D01*
X136319084Y-94601034D01*
X136321643Y-94693904D01*
X135373232Y-94417442D02*
X135304787Y-94452090D01*
X135304787Y-94452090D02*
X135297236Y-94458748D01*
X135297236Y-94458748D02*
X135271494Y-94487590D01*
X135271494Y-94487590D02*
X135255138Y-94523710D01*
X135255138Y-94523710D02*
X135246090Y-94578499D01*
X135246090Y-94578499D02*
X135242274Y-94663347D01*
X135242274Y-94663347D02*
X135241591Y-94763853D01*
X135241591Y-94763853D02*
X135244180Y-94892786D01*
X135244180Y-94892786D02*
X135253146Y-94975396D01*
X135253146Y-94975396D02*
X135270289Y-95016005D01*
X135270289Y-95016005D02*
X135297408Y-95018935D01*
X135297408Y-95018935D02*
X135335478Y-94989336D01*
X135335478Y-94989336D02*
X135374902Y-94974635D01*
X135374902Y-94974635D02*
X135415168Y-94989336D01*
X135415168Y-94989336D02*
X135511189Y-95015750D01*
X135511189Y-95015750D02*
X135602706Y-94992123D01*
X135602706Y-94992123D02*
X135657644Y-94950086D01*
X135657644Y-94950086D02*
X135713091Y-94872150D01*
X135713091Y-94872150D02*
X135717116Y-94825282D01*
X135717116Y-94825282D02*
X135622973Y-94825282D01*
X135622973Y-94825282D02*
X135601373Y-94876501D01*
X135601373Y-94876501D02*
X135546406Y-94907185D01*
X135546406Y-94907185D02*
X135472819Y-94913249D01*
X135472819Y-94913249D02*
X135395359Y-94890611D01*
X135395359Y-94890611D02*
X135392472Y-94889095D01*
X135392472Y-94889095D02*
X135351688Y-94839815D01*
X135351688Y-94839815D02*
X135343293Y-94787393D01*
X135343293Y-94787393D02*
X135347983Y-94737570D01*
X135347983Y-94737570D02*
X135372127Y-94716513D01*
X135372127Y-94716513D02*
X135430832Y-94712021D01*
X135430832Y-94712021D02*
X135436636Y-94712012D01*
X135436636Y-94712012D02*
X135517750Y-94725894D01*
X135517750Y-94725894D02*
X135584148Y-94761255D01*
X135584148Y-94761255D02*
X135620316Y-94808662D01*
X135620316Y-94808662D02*
X135622973Y-94825282D01*
X135622973Y-94825282D02*
X135717116Y-94825282D01*
X135717116Y-94825282D02*
X135719881Y-94793101D01*
X135719881Y-94793101D02*
X135697202Y-94733613D01*
X135697202Y-94733613D02*
X135646388Y-94682058D01*
X135646388Y-94682058D02*
X135563410Y-94639431D01*
X135563410Y-94639431D02*
X135466952Y-94613997D01*
X135466952Y-94613997D02*
X135418522Y-94610310D01*
X135418522Y-94610310D02*
X135363282Y-94603895D01*
X135363282Y-94603895D02*
X135346887Y-94580039D01*
X135346887Y-94580039D02*
X135348401Y-94565815D01*
X135348401Y-94565815D02*
X135362132Y-94540755D01*
X135362132Y-94540755D02*
X135398335Y-94527149D01*
X135398335Y-94527149D02*
X135468472Y-94521963D01*
X135468472Y-94521963D02*
X135515531Y-94521570D01*
X135515531Y-94521570D02*
X135604282Y-94519405D01*
X135604282Y-94519405D02*
X135652915Y-94510692D01*
X135652915Y-94510692D02*
X135672026Y-94492636D01*
X135672026Y-94492636D02*
X135673824Y-94479795D01*
X135673824Y-94479795D02*
X135659459Y-94440983D01*
X135659459Y-94440983D02*
X135611787Y-94417814D01*
X135611787Y-94417814D02*
X135523943Y-94407793D01*
X135523943Y-94407793D02*
X135473135Y-94406906D01*
X135473135Y-94406906D02*
X135373232Y-94417442D01*
X135373232Y-94417442D02*
X135373232Y-94417442D01*
G36*
X135657644Y-94950086D02*
G01*
X135602706Y-94992123D01*
X135511189Y-95015750D01*
X135415168Y-94989336D01*
X135374902Y-94974635D01*
X135335478Y-94989336D01*
X135297408Y-95018935D01*
X135270289Y-95016005D01*
X135253146Y-94975396D01*
X135244180Y-94892786D01*
X135242064Y-94787393D01*
X135343293Y-94787393D01*
X135351688Y-94839815D01*
X135392472Y-94889095D01*
X135395359Y-94890611D01*
X135472819Y-94913249D01*
X135546406Y-94907185D01*
X135601373Y-94876501D01*
X135622973Y-94825282D01*
X135620316Y-94808662D01*
X135584148Y-94761255D01*
X135517750Y-94725894D01*
X135436636Y-94712012D01*
X135430832Y-94712021D01*
X135372127Y-94716513D01*
X135347983Y-94737570D01*
X135343293Y-94787393D01*
X135242064Y-94787393D01*
X135241591Y-94763853D01*
X135242274Y-94663347D01*
X135246090Y-94578499D01*
X135255138Y-94523710D01*
X135271494Y-94487590D01*
X135297236Y-94458748D01*
X135304787Y-94452090D01*
X135373232Y-94417442D01*
X135473135Y-94406906D01*
X135523943Y-94407793D01*
X135611787Y-94417814D01*
X135659459Y-94440983D01*
X135673824Y-94479795D01*
X135672026Y-94492636D01*
X135652915Y-94510692D01*
X135604282Y-94519405D01*
X135515531Y-94521570D01*
X135468472Y-94521963D01*
X135398335Y-94527149D01*
X135362132Y-94540755D01*
X135348401Y-94565815D01*
X135346887Y-94580039D01*
X135363282Y-94603895D01*
X135418522Y-94610310D01*
X135466952Y-94613997D01*
X135563410Y-94639431D01*
X135646388Y-94682058D01*
X135697202Y-94733613D01*
X135719881Y-94793101D01*
X135717116Y-94825282D01*
X135713091Y-94872150D01*
X135657644Y-94950086D01*
G37*
X135657644Y-94950086D02*
X135602706Y-94992123D01*
X135511189Y-95015750D01*
X135415168Y-94989336D01*
X135374902Y-94974635D01*
X135335478Y-94989336D01*
X135297408Y-95018935D01*
X135270289Y-95016005D01*
X135253146Y-94975396D01*
X135244180Y-94892786D01*
X135242064Y-94787393D01*
X135343293Y-94787393D01*
X135351688Y-94839815D01*
X135392472Y-94889095D01*
X135395359Y-94890611D01*
X135472819Y-94913249D01*
X135546406Y-94907185D01*
X135601373Y-94876501D01*
X135622973Y-94825282D01*
X135620316Y-94808662D01*
X135584148Y-94761255D01*
X135517750Y-94725894D01*
X135436636Y-94712012D01*
X135430832Y-94712021D01*
X135372127Y-94716513D01*
X135347983Y-94737570D01*
X135343293Y-94787393D01*
X135242064Y-94787393D01*
X135241591Y-94763853D01*
X135242274Y-94663347D01*
X135246090Y-94578499D01*
X135255138Y-94523710D01*
X135271494Y-94487590D01*
X135297236Y-94458748D01*
X135304787Y-94452090D01*
X135373232Y-94417442D01*
X135473135Y-94406906D01*
X135523943Y-94407793D01*
X135611787Y-94417814D01*
X135659459Y-94440983D01*
X135673824Y-94479795D01*
X135672026Y-94492636D01*
X135652915Y-94510692D01*
X135604282Y-94519405D01*
X135515531Y-94521570D01*
X135468472Y-94521963D01*
X135398335Y-94527149D01*
X135362132Y-94540755D01*
X135348401Y-94565815D01*
X135346887Y-94580039D01*
X135363282Y-94603895D01*
X135418522Y-94610310D01*
X135466952Y-94613997D01*
X135563410Y-94639431D01*
X135646388Y-94682058D01*
X135697202Y-94733613D01*
X135719881Y-94793101D01*
X135717116Y-94825282D01*
X135713091Y-94872150D01*
X135657644Y-94950086D01*
X134968560Y-94421471D02*
X134961912Y-94443180D01*
X134961912Y-94443180D02*
X134959126Y-94472506D01*
X134959126Y-94472506D02*
X134942835Y-94479846D01*
X134942835Y-94479846D02*
X134901138Y-94465013D01*
X134901138Y-94465013D02*
X134850671Y-94441438D01*
X134850671Y-94441438D02*
X134766577Y-94414599D01*
X134766577Y-94414599D02*
X134709003Y-94424403D01*
X134709003Y-94424403D02*
X134683147Y-94469532D01*
X134683147Y-94469532D02*
X134682232Y-94484098D01*
X134682232Y-94484098D02*
X134692283Y-94522754D01*
X134692283Y-94522754D02*
X134730457Y-94522144D01*
X134730457Y-94522144D02*
X134732426Y-94521529D01*
X134732426Y-94521529D02*
X134787418Y-94521568D01*
X134787418Y-94521568D02*
X134858622Y-94542091D01*
X134858622Y-94542091D02*
X134872265Y-94548139D01*
X134872265Y-94548139D02*
X134961912Y-94590678D01*
X134961912Y-94590678D02*
X134961912Y-94803898D01*
X134961912Y-94803898D02*
X134963370Y-94913266D01*
X134963370Y-94913266D02*
X134969545Y-94979125D01*
X134969545Y-94979125D02*
X134983132Y-95008779D01*
X134983132Y-95008779D02*
X135006832Y-95009529D01*
X135006832Y-95009529D02*
X135032735Y-94995599D01*
X135032735Y-94995599D02*
X135048017Y-94970128D01*
X135048017Y-94970128D02*
X135056882Y-94913016D01*
X135056882Y-94913016D02*
X135059891Y-94817664D01*
X135059891Y-94817664D02*
X135058161Y-94697541D01*
X135058161Y-94697541D02*
X135053958Y-94573909D01*
X135053958Y-94573909D02*
X135048013Y-94492296D01*
X135048013Y-94492296D02*
X135038724Y-94443868D01*
X135038724Y-94443868D02*
X135024494Y-94419794D01*
X135024494Y-94419794D02*
X135006406Y-94411700D01*
X135006406Y-94411700D02*
X134968560Y-94421471D01*
X134968560Y-94421471D02*
X134968560Y-94421471D01*
G36*
X135024494Y-94419794D02*
G01*
X135038724Y-94443868D01*
X135048013Y-94492296D01*
X135053958Y-94573909D01*
X135058161Y-94697541D01*
X135059891Y-94817664D01*
X135056882Y-94913016D01*
X135048017Y-94970128D01*
X135032735Y-94995599D01*
X135006832Y-95009529D01*
X134983132Y-95008779D01*
X134969545Y-94979125D01*
X134963370Y-94913266D01*
X134961912Y-94803898D01*
X134961912Y-94590678D01*
X134872265Y-94548139D01*
X134858622Y-94542091D01*
X134787418Y-94521568D01*
X134732426Y-94521529D01*
X134730457Y-94522144D01*
X134692283Y-94522754D01*
X134682232Y-94484098D01*
X134683147Y-94469532D01*
X134709003Y-94424403D01*
X134766577Y-94414599D01*
X134850671Y-94441438D01*
X134901138Y-94465013D01*
X134942835Y-94479846D01*
X134959126Y-94472506D01*
X134961912Y-94443180D01*
X134968560Y-94421471D01*
X135006406Y-94411700D01*
X135024494Y-94419794D01*
G37*
X135024494Y-94419794D02*
X135038724Y-94443868D01*
X135048013Y-94492296D01*
X135053958Y-94573909D01*
X135058161Y-94697541D01*
X135059891Y-94817664D01*
X135056882Y-94913016D01*
X135048017Y-94970128D01*
X135032735Y-94995599D01*
X135006832Y-95009529D01*
X134983132Y-95008779D01*
X134969545Y-94979125D01*
X134963370Y-94913266D01*
X134961912Y-94803898D01*
X134961912Y-94590678D01*
X134872265Y-94548139D01*
X134858622Y-94542091D01*
X134787418Y-94521568D01*
X134732426Y-94521529D01*
X134730457Y-94522144D01*
X134692283Y-94522754D01*
X134682232Y-94484098D01*
X134683147Y-94469532D01*
X134709003Y-94424403D01*
X134766577Y-94414599D01*
X134850671Y-94441438D01*
X134901138Y-94465013D01*
X134942835Y-94479846D01*
X134959126Y-94472506D01*
X134961912Y-94443180D01*
X134968560Y-94421471D01*
X135006406Y-94411700D01*
X135024494Y-94419794D01*
X134512135Y-94420046D02*
X134498801Y-94435978D01*
X134498801Y-94435978D02*
X134478946Y-94452334D01*
X134478946Y-94452334D02*
X134434790Y-94435978D01*
X134434790Y-94435978D02*
X134344166Y-94409266D01*
X134344166Y-94409266D02*
X134251130Y-94416105D01*
X134251130Y-94416105D02*
X134176860Y-94454729D01*
X134176860Y-94454729D02*
X134173723Y-94457757D01*
X134173723Y-94457757D02*
X134150061Y-94487718D01*
X134150061Y-94487718D02*
X134135009Y-94527889D01*
X134135009Y-94527889D02*
X134126714Y-94589453D01*
X134126714Y-94589453D02*
X134123324Y-94683597D01*
X134123324Y-94683597D02*
X134122873Y-94764727D01*
X134122873Y-94764727D02*
X134123690Y-94881107D01*
X134123690Y-94881107D02*
X134127184Y-94955334D01*
X134127184Y-94955334D02*
X134134914Y-94996093D01*
X134134914Y-94996093D02*
X134148442Y-95012070D01*
X134148442Y-95012070D02*
X134167367Y-95012343D01*
X134167367Y-95012343D02*
X134189771Y-95000585D01*
X134189771Y-95000585D02*
X134204254Y-94969080D01*
X134204254Y-94969080D02*
X134213121Y-94907926D01*
X134213121Y-94907926D02*
X134218679Y-94807222D01*
X134218679Y-94807222D02*
X134219328Y-94789274D01*
X134219328Y-94789274D02*
X134226912Y-94663985D01*
X134226912Y-94663985D02*
X134241647Y-94581378D01*
X134241647Y-94581378D02*
X134267100Y-94533413D01*
X134267100Y-94533413D02*
X134306837Y-94512047D01*
X134306837Y-94512047D02*
X134343773Y-94508608D01*
X134343773Y-94508608D02*
X134414375Y-94513966D01*
X134414375Y-94513966D02*
X134460865Y-94535702D01*
X134460865Y-94535702D02*
X134488102Y-94582312D01*
X134488102Y-94582312D02*
X134500945Y-94662291D01*
X134500945Y-94662291D02*
X134504251Y-94784132D01*
X134504251Y-94784132D02*
X134504254Y-94789182D01*
X134504254Y-94789182D02*
X134506189Y-94903916D01*
X134506189Y-94903916D02*
X134512716Y-94975178D01*
X134512716Y-94975178D02*
X134524912Y-95010227D01*
X134524912Y-95010227D02*
X134538155Y-95017117D01*
X134538155Y-95017117D02*
X134581396Y-95005823D01*
X134581396Y-95005823D02*
X134589005Y-95000166D01*
X134589005Y-95000166D02*
X134595765Y-94969366D01*
X134595765Y-94969366D02*
X134601244Y-94898637D01*
X134601244Y-94898637D02*
X134604836Y-94798898D01*
X134604836Y-94798898D02*
X134605956Y-94695061D01*
X134605956Y-94695061D02*
X134605343Y-94570333D01*
X134605343Y-94570333D02*
X134602533Y-94487823D01*
X134602533Y-94487823D02*
X134596065Y-94438902D01*
X134596065Y-94438902D02*
X134584481Y-94414942D01*
X134584481Y-94414942D02*
X134566322Y-94407316D01*
X134566322Y-94407316D02*
X134557224Y-94406906D01*
X134557224Y-94406906D02*
X134512135Y-94420046D01*
X134512135Y-94420046D02*
X134512135Y-94420046D01*
G36*
X134566322Y-94407316D02*
G01*
X134584481Y-94414942D01*
X134596065Y-94438902D01*
X134602533Y-94487823D01*
X134605343Y-94570333D01*
X134605956Y-94695061D01*
X134604836Y-94798898D01*
X134601244Y-94898637D01*
X134595765Y-94969366D01*
X134589005Y-95000166D01*
X134581396Y-95005823D01*
X134538155Y-95017117D01*
X134524912Y-95010227D01*
X134512716Y-94975178D01*
X134506189Y-94903916D01*
X134504254Y-94789182D01*
X134504251Y-94784132D01*
X134500945Y-94662291D01*
X134488102Y-94582312D01*
X134460865Y-94535702D01*
X134414375Y-94513966D01*
X134343773Y-94508608D01*
X134306837Y-94512047D01*
X134267100Y-94533413D01*
X134241647Y-94581378D01*
X134226912Y-94663985D01*
X134219328Y-94789274D01*
X134218679Y-94807222D01*
X134213121Y-94907926D01*
X134204254Y-94969080D01*
X134189771Y-95000585D01*
X134167367Y-95012343D01*
X134148442Y-95012070D01*
X134134914Y-94996093D01*
X134127184Y-94955334D01*
X134123690Y-94881107D01*
X134122873Y-94764727D01*
X134123324Y-94683597D01*
X134126714Y-94589453D01*
X134135009Y-94527889D01*
X134150061Y-94487718D01*
X134173723Y-94457757D01*
X134176860Y-94454729D01*
X134251130Y-94416105D01*
X134344166Y-94409266D01*
X134434790Y-94435978D01*
X134478946Y-94452334D01*
X134498801Y-94435978D01*
X134512135Y-94420046D01*
X134557224Y-94406906D01*
X134566322Y-94407316D01*
G37*
X134566322Y-94407316D02*
X134584481Y-94414942D01*
X134596065Y-94438902D01*
X134602533Y-94487823D01*
X134605343Y-94570333D01*
X134605956Y-94695061D01*
X134604836Y-94798898D01*
X134601244Y-94898637D01*
X134595765Y-94969366D01*
X134589005Y-95000166D01*
X134581396Y-95005823D01*
X134538155Y-95017117D01*
X134524912Y-95010227D01*
X134512716Y-94975178D01*
X134506189Y-94903916D01*
X134504254Y-94789182D01*
X134504251Y-94784132D01*
X134500945Y-94662291D01*
X134488102Y-94582312D01*
X134460865Y-94535702D01*
X134414375Y-94513966D01*
X134343773Y-94508608D01*
X134306837Y-94512047D01*
X134267100Y-94533413D01*
X134241647Y-94581378D01*
X134226912Y-94663985D01*
X134219328Y-94789274D01*
X134218679Y-94807222D01*
X134213121Y-94907926D01*
X134204254Y-94969080D01*
X134189771Y-95000585D01*
X134167367Y-95012343D01*
X134148442Y-95012070D01*
X134134914Y-94996093D01*
X134127184Y-94955334D01*
X134123690Y-94881107D01*
X134122873Y-94764727D01*
X134123324Y-94683597D01*
X134126714Y-94589453D01*
X134135009Y-94527889D01*
X134150061Y-94487718D01*
X134173723Y-94457757D01*
X134176860Y-94454729D01*
X134251130Y-94416105D01*
X134344166Y-94409266D01*
X134434790Y-94435978D01*
X134478946Y-94452334D01*
X134498801Y-94435978D01*
X134512135Y-94420046D01*
X134557224Y-94406906D01*
X134566322Y-94407316D01*
X133872578Y-94409900D02*
X133858183Y-94424498D01*
X133858183Y-94424498D02*
X133849453Y-94459128D01*
X133849453Y-94459128D02*
X133844985Y-94522216D01*
X133844985Y-94522216D02*
X133843374Y-94622188D01*
X133843374Y-94622188D02*
X133843193Y-94712012D01*
X133843193Y-94712012D02*
X133844448Y-94846856D01*
X133844448Y-94846856D02*
X133848718Y-94937713D01*
X133848718Y-94937713D02*
X133856759Y-94991393D01*
X133856759Y-94991393D02*
X133869329Y-95014709D01*
X133869329Y-95014709D02*
X133877093Y-95017117D01*
X133877093Y-95017117D02*
X133920335Y-95005823D01*
X133920335Y-95005823D02*
X133927944Y-95000166D01*
X133927944Y-95000166D02*
X133934704Y-94969366D01*
X133934704Y-94969366D02*
X133940183Y-94898637D01*
X133940183Y-94898637D02*
X133943775Y-94798898D01*
X133943775Y-94798898D02*
X133944895Y-94695061D01*
X133944895Y-94695061D02*
X133944341Y-94570501D01*
X133944341Y-94570501D02*
X133941660Y-94488124D01*
X133941660Y-94488124D02*
X133935322Y-94439266D01*
X133935322Y-94439266D02*
X133923800Y-94415263D01*
X133923800Y-94415263D02*
X133905563Y-94407450D01*
X133905563Y-94407450D02*
X133894044Y-94406906D01*
X133894044Y-94406906D02*
X133872578Y-94409900D01*
X133872578Y-94409900D02*
X133872578Y-94409900D01*
G36*
X133905563Y-94407450D02*
G01*
X133923800Y-94415263D01*
X133935322Y-94439266D01*
X133941660Y-94488124D01*
X133944341Y-94570501D01*
X133944895Y-94695061D01*
X133943775Y-94798898D01*
X133940183Y-94898637D01*
X133934704Y-94969366D01*
X133927944Y-95000166D01*
X133920335Y-95005823D01*
X133877093Y-95017117D01*
X133869329Y-95014709D01*
X133856759Y-94991393D01*
X133848718Y-94937713D01*
X133844448Y-94846856D01*
X133843193Y-94712012D01*
X133843374Y-94622188D01*
X133844985Y-94522216D01*
X133849453Y-94459128D01*
X133858183Y-94424498D01*
X133872578Y-94409900D01*
X133894044Y-94406906D01*
X133905563Y-94407450D01*
G37*
X133905563Y-94407450D02*
X133923800Y-94415263D01*
X133935322Y-94439266D01*
X133941660Y-94488124D01*
X133944341Y-94570501D01*
X133944895Y-94695061D01*
X133943775Y-94798898D01*
X133940183Y-94898637D01*
X133934704Y-94969366D01*
X133927944Y-95000166D01*
X133920335Y-95005823D01*
X133877093Y-95017117D01*
X133869329Y-95014709D01*
X133856759Y-94991393D01*
X133848718Y-94937713D01*
X133844448Y-94846856D01*
X133843193Y-94712012D01*
X133843374Y-94622188D01*
X133844985Y-94522216D01*
X133849453Y-94459128D01*
X133858183Y-94424498D01*
X133872578Y-94409900D01*
X133894044Y-94406906D01*
X133905563Y-94407450D01*
X133286233Y-94418175D02*
X133217854Y-94460353D01*
X133217854Y-94460353D02*
X133194552Y-94494082D01*
X133194552Y-94494082D02*
X133179981Y-94540516D01*
X133179981Y-94540516D02*
X133172270Y-94611186D01*
X133172270Y-94611186D02*
X133169544Y-94717623D01*
X133169544Y-94717623D02*
X133169419Y-94758616D01*
X133169419Y-94758616D02*
X133170516Y-94873395D01*
X133170516Y-94873395D02*
X133174914Y-94946818D01*
X133174914Y-94946818D02*
X133184275Y-94988350D01*
X133184275Y-94988350D02*
X133200261Y-95007460D01*
X133200261Y-95007460D02*
X133213914Y-95012138D01*
X133213914Y-95012138D02*
X133237449Y-95010777D01*
X133237449Y-95010777D02*
X133250926Y-94988453D01*
X133250926Y-94988453D02*
X133257019Y-94935100D01*
X133257019Y-94935100D02*
X133258408Y-94844797D01*
X133258408Y-94844797D02*
X133262489Y-94741729D01*
X133262489Y-94741729D02*
X133273127Y-94647570D01*
X133273127Y-94647570D02*
X133286321Y-94588679D01*
X133286321Y-94588679D02*
X133314435Y-94532205D01*
X133314435Y-94532205D02*
X133357788Y-94510895D01*
X133357788Y-94510895D02*
X133397622Y-94508608D01*
X133397622Y-94508608D02*
X133463668Y-94518049D01*
X133463668Y-94518049D02*
X133507738Y-94540843D01*
X133507738Y-94540843D02*
X133508439Y-94541657D01*
X133508439Y-94541657D02*
X133521916Y-94581147D01*
X133521916Y-94581147D02*
X133533722Y-94657239D01*
X133533722Y-94657239D02*
X133541849Y-94755687D01*
X133541849Y-94755687D02*
X133543334Y-94789274D01*
X133543334Y-94789274D02*
X133549105Y-94898856D01*
X133549105Y-94898856D02*
X133558383Y-94966544D01*
X133558383Y-94966544D02*
X133573051Y-95001266D01*
X133573051Y-95001266D02*
X133590178Y-95011358D01*
X133590178Y-95011358D02*
X133635387Y-95008161D01*
X133635387Y-95008161D02*
X133647386Y-95001045D01*
X133647386Y-95001045D02*
X133654639Y-94969758D01*
X133654639Y-94969758D02*
X133660471Y-94898858D01*
X133660471Y-94898858D02*
X133664202Y-94799578D01*
X133664202Y-94799578D02*
X133665215Y-94706976D01*
X133665215Y-94706976D02*
X133663906Y-94580330D01*
X133663906Y-94580330D02*
X133659236Y-94496064D01*
X133659236Y-94496064D02*
X133650093Y-94445756D01*
X133650093Y-94445756D02*
X133635363Y-94420984D01*
X133635363Y-94420984D02*
X133626753Y-94415977D01*
X133626753Y-94415977D02*
X133576156Y-94417946D01*
X133576156Y-94417946D02*
X133552102Y-94431252D01*
X133552102Y-94431252D02*
X133504998Y-94448009D01*
X133504998Y-94448009D02*
X133465108Y-94434096D01*
X133465108Y-94434096D02*
X133375707Y-94408368D01*
X133375707Y-94408368D02*
X133286233Y-94418175D01*
X133286233Y-94418175D02*
X133286233Y-94418175D01*
G36*
X133465108Y-94434096D02*
G01*
X133504998Y-94448009D01*
X133552102Y-94431252D01*
X133576156Y-94417946D01*
X133626753Y-94415977D01*
X133635363Y-94420984D01*
X133650093Y-94445756D01*
X133659236Y-94496064D01*
X133663906Y-94580330D01*
X133665215Y-94706976D01*
X133664202Y-94799578D01*
X133660471Y-94898858D01*
X133654639Y-94969758D01*
X133647386Y-95001045D01*
X133635387Y-95008161D01*
X133590178Y-95011358D01*
X133573051Y-95001266D01*
X133558383Y-94966544D01*
X133549105Y-94898856D01*
X133543334Y-94789274D01*
X133541849Y-94755687D01*
X133533722Y-94657239D01*
X133521916Y-94581147D01*
X133508439Y-94541657D01*
X133507738Y-94540843D01*
X133463668Y-94518049D01*
X133397622Y-94508608D01*
X133357788Y-94510895D01*
X133314435Y-94532205D01*
X133286321Y-94588679D01*
X133273127Y-94647570D01*
X133262489Y-94741729D01*
X133258408Y-94844797D01*
X133257019Y-94935100D01*
X133250926Y-94988453D01*
X133237449Y-95010777D01*
X133213914Y-95012138D01*
X133200261Y-95007460D01*
X133184275Y-94988350D01*
X133174914Y-94946818D01*
X133170516Y-94873395D01*
X133169419Y-94758616D01*
X133169544Y-94717623D01*
X133172270Y-94611186D01*
X133179981Y-94540516D01*
X133194552Y-94494082D01*
X133217854Y-94460353D01*
X133286233Y-94418175D01*
X133375707Y-94408368D01*
X133465108Y-94434096D01*
G37*
X133465108Y-94434096D02*
X133504998Y-94448009D01*
X133552102Y-94431252D01*
X133576156Y-94417946D01*
X133626753Y-94415977D01*
X133635363Y-94420984D01*
X133650093Y-94445756D01*
X133659236Y-94496064D01*
X133663906Y-94580330D01*
X133665215Y-94706976D01*
X133664202Y-94799578D01*
X133660471Y-94898858D01*
X133654639Y-94969758D01*
X133647386Y-95001045D01*
X133635387Y-95008161D01*
X133590178Y-95011358D01*
X133573051Y-95001266D01*
X133558383Y-94966544D01*
X133549105Y-94898856D01*
X133543334Y-94789274D01*
X133541849Y-94755687D01*
X133533722Y-94657239D01*
X133521916Y-94581147D01*
X133508439Y-94541657D01*
X133507738Y-94540843D01*
X133463668Y-94518049D01*
X133397622Y-94508608D01*
X133357788Y-94510895D01*
X133314435Y-94532205D01*
X133286321Y-94588679D01*
X133273127Y-94647570D01*
X133262489Y-94741729D01*
X133258408Y-94844797D01*
X133257019Y-94935100D01*
X133250926Y-94988453D01*
X133237449Y-95010777D01*
X133213914Y-95012138D01*
X133200261Y-95007460D01*
X133184275Y-94988350D01*
X133174914Y-94946818D01*
X133170516Y-94873395D01*
X133169419Y-94758616D01*
X133169544Y-94717623D01*
X133172270Y-94611186D01*
X133179981Y-94540516D01*
X133194552Y-94494082D01*
X133217854Y-94460353D01*
X133286233Y-94418175D01*
X133375707Y-94408368D01*
X133465108Y-94434096D01*
X131408543Y-94231355D02*
X131394887Y-94243577D01*
X131394887Y-94243577D02*
X131385856Y-94273012D01*
X131385856Y-94273012D02*
X131380499Y-94327073D01*
X131380499Y-94327073D02*
X131377863Y-94413178D01*
X131377863Y-94413178D02*
X131376995Y-94538742D01*
X131376995Y-94538742D02*
X131376927Y-94624887D01*
X131376927Y-94624887D02*
X131377344Y-94774957D01*
X131377344Y-94774957D02*
X131379145Y-94881336D01*
X131379145Y-94881336D02*
X131383151Y-94951182D01*
X131383151Y-94951182D02*
X131390184Y-94991651D01*
X131390184Y-94991651D02*
X131401066Y-95009902D01*
X131401066Y-95009902D02*
X131416619Y-95013089D01*
X131416619Y-95013089D02*
X131421421Y-95012355D01*
X131421421Y-95012355D02*
X131445465Y-94999126D01*
X131445465Y-94999126D02*
X131460470Y-94963695D01*
X131460470Y-94963695D02*
X131469273Y-94895552D01*
X131469273Y-94895552D02*
X131473386Y-94819800D01*
X131473386Y-94819800D02*
X131480856Y-94635735D01*
X131480856Y-94635735D02*
X131860010Y-94635735D01*
X131860010Y-94635735D02*
X131860010Y-94826426D01*
X131860010Y-94826426D02*
X131862578Y-94930452D01*
X131862578Y-94930452D02*
X131871144Y-94991116D01*
X131871144Y-94991116D02*
X131887000Y-95015688D01*
X131887000Y-95015688D02*
X131893910Y-95017117D01*
X131893910Y-95017117D02*
X131937152Y-95005823D01*
X131937152Y-95005823D02*
X131944761Y-95000166D01*
X131944761Y-95000166D02*
X131950719Y-94970024D01*
X131950719Y-94970024D02*
X131955760Y-94898407D01*
X131955760Y-94898407D02*
X131959482Y-94794693D01*
X131959482Y-94794693D02*
X131961481Y-94668254D01*
X131961481Y-94668254D02*
X131961711Y-94606072D01*
X131961711Y-94606072D02*
X131961371Y-94460436D01*
X131961371Y-94460436D02*
X131959669Y-94358054D01*
X131959669Y-94358054D02*
X131955579Y-94291331D01*
X131955579Y-94291331D02*
X131948079Y-94252670D01*
X131948079Y-94252670D02*
X131936143Y-94234477D01*
X131936143Y-94234477D02*
X131918749Y-94229156D01*
X131918749Y-94229156D02*
X131910861Y-94228928D01*
X131910861Y-94228928D02*
X131882459Y-94234495D01*
X131882459Y-94234495D02*
X131867113Y-94258946D01*
X131867113Y-94258946D02*
X131860945Y-94313913D01*
X131860945Y-94313913D02*
X131860010Y-94381481D01*
X131860010Y-94381481D02*
X131860010Y-94534034D01*
X131860010Y-94534034D02*
X131478628Y-94534034D01*
X131478628Y-94534034D02*
X131478628Y-94381481D01*
X131478628Y-94381481D02*
X131476773Y-94296277D01*
X131476773Y-94296277D02*
X131468622Y-94250238D01*
X131468622Y-94250238D02*
X131450300Y-94231733D01*
X131450300Y-94231733D02*
X131427777Y-94228928D01*
X131427777Y-94228928D02*
X131408543Y-94231355D01*
X131408543Y-94231355D02*
X131408543Y-94231355D01*
G36*
X131918749Y-94229156D02*
G01*
X131936143Y-94234477D01*
X131948079Y-94252670D01*
X131955579Y-94291331D01*
X131959669Y-94358054D01*
X131961371Y-94460436D01*
X131961711Y-94606072D01*
X131961481Y-94668254D01*
X131959482Y-94794693D01*
X131955760Y-94898407D01*
X131950719Y-94970024D01*
X131944761Y-95000166D01*
X131937152Y-95005823D01*
X131893910Y-95017117D01*
X131887000Y-95015688D01*
X131871144Y-94991116D01*
X131862578Y-94930452D01*
X131860010Y-94826426D01*
X131860010Y-94635735D01*
X131480856Y-94635735D01*
X131473386Y-94819800D01*
X131469273Y-94895552D01*
X131460470Y-94963695D01*
X131445465Y-94999126D01*
X131421421Y-95012355D01*
X131416619Y-95013089D01*
X131401066Y-95009902D01*
X131390184Y-94991651D01*
X131383151Y-94951182D01*
X131379145Y-94881336D01*
X131377344Y-94774957D01*
X131376927Y-94624887D01*
X131376995Y-94538742D01*
X131377863Y-94413178D01*
X131380499Y-94327073D01*
X131385856Y-94273012D01*
X131394887Y-94243577D01*
X131408543Y-94231355D01*
X131427777Y-94228928D01*
X131450300Y-94231733D01*
X131468622Y-94250238D01*
X131476773Y-94296277D01*
X131478628Y-94381481D01*
X131478628Y-94534034D01*
X131860010Y-94534034D01*
X131860010Y-94381481D01*
X131860945Y-94313913D01*
X131867113Y-94258946D01*
X131882459Y-94234495D01*
X131910861Y-94228928D01*
X131918749Y-94229156D01*
G37*
X131918749Y-94229156D02*
X131936143Y-94234477D01*
X131948079Y-94252670D01*
X131955579Y-94291331D01*
X131959669Y-94358054D01*
X131961371Y-94460436D01*
X131961711Y-94606072D01*
X131961481Y-94668254D01*
X131959482Y-94794693D01*
X131955760Y-94898407D01*
X131950719Y-94970024D01*
X131944761Y-95000166D01*
X131937152Y-95005823D01*
X131893910Y-95017117D01*
X131887000Y-95015688D01*
X131871144Y-94991116D01*
X131862578Y-94930452D01*
X131860010Y-94826426D01*
X131860010Y-94635735D01*
X131480856Y-94635735D01*
X131473386Y-94819800D01*
X131469273Y-94895552D01*
X131460470Y-94963695D01*
X131445465Y-94999126D01*
X131421421Y-95012355D01*
X131416619Y-95013089D01*
X131401066Y-95009902D01*
X131390184Y-94991651D01*
X131383151Y-94951182D01*
X131379145Y-94881336D01*
X131377344Y-94774957D01*
X131376927Y-94624887D01*
X131376995Y-94538742D01*
X131377863Y-94413178D01*
X131380499Y-94327073D01*
X131385856Y-94273012D01*
X131394887Y-94243577D01*
X131408543Y-94231355D01*
X131427777Y-94228928D01*
X131450300Y-94231733D01*
X131468622Y-94250238D01*
X131476773Y-94296277D01*
X131478628Y-94381481D01*
X131478628Y-94534034D01*
X131860010Y-94534034D01*
X131860010Y-94381481D01*
X131860945Y-94313913D01*
X131867113Y-94258946D01*
X131882459Y-94234495D01*
X131910861Y-94228928D01*
X131918749Y-94229156D01*
X131118314Y-94413131D02*
X131104843Y-94435409D01*
X131104843Y-94435409D02*
X131098697Y-94488522D01*
X131098697Y-94488522D02*
X131097247Y-94581365D01*
X131097247Y-94581365D02*
X131089945Y-94730603D01*
X131089945Y-94730603D02*
X131066856Y-94833784D01*
X131066856Y-94833784D02*
X131026206Y-94893730D01*
X131026206Y-94893730D02*
X130966220Y-94913266D01*
X130966220Y-94913266D02*
X130897225Y-94899695D01*
X130897225Y-94899695D02*
X130865269Y-94885766D01*
X130865269Y-94885766D02*
X130844724Y-94863936D01*
X130844724Y-94863936D02*
X130832162Y-94823373D01*
X130832162Y-94823373D02*
X130824155Y-94753245D01*
X130824155Y-94753245D02*
X130817567Y-94647935D01*
X130817567Y-94647935D02*
X130810506Y-94539115D01*
X130810506Y-94539115D02*
X130802309Y-94471510D01*
X130802309Y-94471510D02*
X130790300Y-94435507D01*
X130790300Y-94435507D02*
X130771802Y-94421493D01*
X130771802Y-94421493D02*
X130754004Y-94419619D01*
X130754004Y-94419619D02*
X130731868Y-94423049D01*
X130731868Y-94423049D02*
X130716900Y-94439117D01*
X130716900Y-94439117D02*
X130707346Y-94476494D01*
X130707346Y-94476494D02*
X130701447Y-94543846D01*
X130701447Y-94543846D02*
X130697448Y-94649844D01*
X130697448Y-94649844D02*
X130695959Y-94706132D01*
X130695959Y-94706132D02*
X130693814Y-94833806D01*
X130693814Y-94833806D02*
X130695603Y-94919350D01*
X130695603Y-94919350D02*
X130702245Y-94971394D01*
X130702245Y-94971394D02*
X130714660Y-94998567D01*
X130714660Y-94998567D02*
X130728065Y-95007725D01*
X130728065Y-95007725D02*
X130779418Y-95006018D01*
X130779418Y-95006018D02*
X130803553Y-94992771D01*
X130803553Y-94992771D02*
X130850657Y-94976014D01*
X130850657Y-94976014D02*
X130890547Y-94989927D01*
X130890547Y-94989927D02*
X130981718Y-95015578D01*
X130981718Y-95015578D02*
X131070096Y-95001390D01*
X131070096Y-95001390D02*
X131121254Y-94967684D01*
X131121254Y-94967684D02*
X131164239Y-94902416D01*
X131164239Y-94902416D02*
X131188858Y-94807010D01*
X131188858Y-94807010D02*
X131196500Y-94674169D01*
X131196500Y-94674169D02*
X131194098Y-94585140D01*
X131194098Y-94585140D02*
X131187049Y-94492302D01*
X131187049Y-94492302D02*
X131174813Y-94439422D01*
X131174813Y-94439422D02*
X131154113Y-94415644D01*
X131154113Y-94415644D02*
X131141741Y-94411654D01*
X131141741Y-94411654D02*
X131118314Y-94413131D01*
X131118314Y-94413131D02*
X131118314Y-94413131D01*
G36*
X131154113Y-94415644D02*
G01*
X131174813Y-94439422D01*
X131187049Y-94492302D01*
X131194098Y-94585140D01*
X131196500Y-94674169D01*
X131188858Y-94807010D01*
X131164239Y-94902416D01*
X131121254Y-94967684D01*
X131070096Y-95001390D01*
X130981718Y-95015578D01*
X130890547Y-94989927D01*
X130850657Y-94976014D01*
X130803553Y-94992771D01*
X130779418Y-95006018D01*
X130728065Y-95007725D01*
X130714660Y-94998567D01*
X130702245Y-94971394D01*
X130695603Y-94919350D01*
X130693814Y-94833806D01*
X130695959Y-94706132D01*
X130697448Y-94649844D01*
X130701447Y-94543846D01*
X130707346Y-94476494D01*
X130716900Y-94439117D01*
X130731868Y-94423049D01*
X130754004Y-94419619D01*
X130771802Y-94421493D01*
X130790300Y-94435507D01*
X130802309Y-94471510D01*
X130810506Y-94539115D01*
X130817567Y-94647935D01*
X130824155Y-94753245D01*
X130832162Y-94823373D01*
X130844724Y-94863936D01*
X130865269Y-94885766D01*
X130897225Y-94899695D01*
X130966220Y-94913266D01*
X131026206Y-94893730D01*
X131066856Y-94833784D01*
X131089945Y-94730603D01*
X131097247Y-94581365D01*
X131098697Y-94488522D01*
X131104843Y-94435409D01*
X131118314Y-94413131D01*
X131141741Y-94411654D01*
X131154113Y-94415644D01*
G37*
X131154113Y-94415644D02*
X131174813Y-94439422D01*
X131187049Y-94492302D01*
X131194098Y-94585140D01*
X131196500Y-94674169D01*
X131188858Y-94807010D01*
X131164239Y-94902416D01*
X131121254Y-94967684D01*
X131070096Y-95001390D01*
X130981718Y-95015578D01*
X130890547Y-94989927D01*
X130850657Y-94976014D01*
X130803553Y-94992771D01*
X130779418Y-95006018D01*
X130728065Y-95007725D01*
X130714660Y-94998567D01*
X130702245Y-94971394D01*
X130695603Y-94919350D01*
X130693814Y-94833806D01*
X130695959Y-94706132D01*
X130697448Y-94649844D01*
X130701447Y-94543846D01*
X130707346Y-94476494D01*
X130716900Y-94439117D01*
X130731868Y-94423049D01*
X130754004Y-94419619D01*
X130771802Y-94421493D01*
X130790300Y-94435507D01*
X130802309Y-94471510D01*
X130810506Y-94539115D01*
X130817567Y-94647935D01*
X130824155Y-94753245D01*
X130832162Y-94823373D01*
X130844724Y-94863936D01*
X130865269Y-94885766D01*
X130897225Y-94899695D01*
X130966220Y-94913266D01*
X131026206Y-94893730D01*
X131066856Y-94833784D01*
X131089945Y-94730603D01*
X131097247Y-94581365D01*
X131098697Y-94488522D01*
X131104843Y-94435409D01*
X131118314Y-94413131D01*
X131141741Y-94411654D01*
X131154113Y-94415644D01*
X130467968Y-94182808D02*
X130439735Y-94200598D01*
X130439735Y-94200598D02*
X130423507Y-94247874D01*
X130423507Y-94247874D02*
X130415782Y-94324692D01*
X130415782Y-94324692D02*
X130409795Y-94401260D01*
X130409795Y-94401260D02*
X130399790Y-94436879D01*
X130399790Y-94436879D02*
X130380351Y-94441434D01*
X130380351Y-94441434D02*
X130357498Y-94431041D01*
X130357498Y-94431041D02*
X130298162Y-94414752D01*
X130298162Y-94414752D02*
X130221162Y-94411248D01*
X130221162Y-94411248D02*
X130213455Y-94411792D01*
X130213455Y-94411792D02*
X130123148Y-94441122D01*
X130123148Y-94441122D02*
X130057694Y-94504992D01*
X130057694Y-94504992D02*
X130018280Y-94592932D01*
X130018280Y-94592932D02*
X130006089Y-94694477D01*
X130006089Y-94694477D02*
X130022307Y-94799159D01*
X130022307Y-94799159D02*
X130068119Y-94896509D01*
X130068119Y-94896509D02*
X130144710Y-94976061D01*
X130144710Y-94976061D02*
X130149212Y-94979274D01*
X130149212Y-94979274D02*
X130214403Y-95002215D01*
X130214403Y-95002215D02*
X130319077Y-95010941D01*
X130319077Y-95010941D02*
X130356274Y-95010578D01*
X130356274Y-95010578D02*
X130512462Y-95006249D01*
X130512462Y-95006249D02*
X130512462Y-94734583D01*
X130512462Y-94734583D02*
X130410603Y-94734583D01*
X130410603Y-94734583D02*
X130409836Y-94816827D01*
X130409836Y-94816827D02*
X130402513Y-94878124D01*
X130402513Y-94878124D02*
X130393810Y-94898465D01*
X130393810Y-94898465D02*
X130358828Y-94910204D01*
X130358828Y-94910204D02*
X130297356Y-94915401D01*
X130297356Y-94915401D02*
X130293954Y-94915415D01*
X130293954Y-94915415D02*
X130212593Y-94897029D01*
X130212593Y-94897029D02*
X130158352Y-94848423D01*
X130158352Y-94848423D02*
X130114166Y-94762206D01*
X130114166Y-94762206D02*
X130105962Y-94673019D01*
X130105962Y-94673019D02*
X130129856Y-94592982D01*
X130129856Y-94592982D02*
X130181962Y-94534217D01*
X130181962Y-94534217D02*
X130258395Y-94508842D01*
X130258395Y-94508842D02*
X130267277Y-94508608D01*
X130267277Y-94508608D02*
X130334215Y-94517500D01*
X130334215Y-94517500D02*
X130380032Y-94538903D01*
X130380032Y-94538903D02*
X130380250Y-94539119D01*
X130380250Y-94539119D02*
X130395143Y-94578033D01*
X130395143Y-94578033D02*
X130405483Y-94649086D01*
X130405483Y-94649086D02*
X130410603Y-94734583D01*
X130410603Y-94734583D02*
X130512462Y-94734583D01*
X130512462Y-94734583D02*
X130512462Y-94590299D01*
X130512462Y-94590299D02*
X130512074Y-94435926D01*
X130512074Y-94435926D02*
X130510400Y-94325405D01*
X130510400Y-94325405D02*
X130506676Y-94251737D01*
X130506676Y-94251737D02*
X130500138Y-94207927D01*
X130500138Y-94207927D02*
X130490022Y-94186976D01*
X130490022Y-94186976D02*
X130475565Y-94181889D01*
X130475565Y-94181889D02*
X130467968Y-94182808D01*
X130467968Y-94182808D02*
X130467968Y-94182808D01*
G36*
X130356274Y-95010578D02*
G01*
X130319077Y-95010941D01*
X130214403Y-95002215D01*
X130149212Y-94979274D01*
X130144710Y-94976061D01*
X130068119Y-94896509D01*
X130022307Y-94799159D01*
X130006089Y-94694477D01*
X130008665Y-94673019D01*
X130105962Y-94673019D01*
X130114166Y-94762206D01*
X130158352Y-94848423D01*
X130212593Y-94897029D01*
X130293954Y-94915415D01*
X130297356Y-94915401D01*
X130358828Y-94910204D01*
X130393810Y-94898465D01*
X130402513Y-94878124D01*
X130409836Y-94816827D01*
X130410603Y-94734583D01*
X130405483Y-94649086D01*
X130395143Y-94578033D01*
X130380250Y-94539119D01*
X130380032Y-94538903D01*
X130334215Y-94517500D01*
X130267277Y-94508608D01*
X130258395Y-94508842D01*
X130181962Y-94534217D01*
X130129856Y-94592982D01*
X130105962Y-94673019D01*
X130008665Y-94673019D01*
X130018280Y-94592932D01*
X130057694Y-94504992D01*
X130123148Y-94441122D01*
X130213455Y-94411792D01*
X130221162Y-94411248D01*
X130298162Y-94414752D01*
X130357498Y-94431041D01*
X130380351Y-94441434D01*
X130399790Y-94436879D01*
X130409795Y-94401260D01*
X130415782Y-94324692D01*
X130423507Y-94247874D01*
X130439735Y-94200598D01*
X130467968Y-94182808D01*
X130475565Y-94181889D01*
X130490022Y-94186976D01*
X130500138Y-94207927D01*
X130506676Y-94251737D01*
X130510400Y-94325405D01*
X130512074Y-94435926D01*
X130512462Y-94590299D01*
X130512462Y-95006249D01*
X130356274Y-95010578D01*
G37*
X130356274Y-95010578D02*
X130319077Y-95010941D01*
X130214403Y-95002215D01*
X130149212Y-94979274D01*
X130144710Y-94976061D01*
X130068119Y-94896509D01*
X130022307Y-94799159D01*
X130006089Y-94694477D01*
X130008665Y-94673019D01*
X130105962Y-94673019D01*
X130114166Y-94762206D01*
X130158352Y-94848423D01*
X130212593Y-94897029D01*
X130293954Y-94915415D01*
X130297356Y-94915401D01*
X130358828Y-94910204D01*
X130393810Y-94898465D01*
X130402513Y-94878124D01*
X130409836Y-94816827D01*
X130410603Y-94734583D01*
X130405483Y-94649086D01*
X130395143Y-94578033D01*
X130380250Y-94539119D01*
X130380032Y-94538903D01*
X130334215Y-94517500D01*
X130267277Y-94508608D01*
X130258395Y-94508842D01*
X130181962Y-94534217D01*
X130129856Y-94592982D01*
X130105962Y-94673019D01*
X130008665Y-94673019D01*
X130018280Y-94592932D01*
X130057694Y-94504992D01*
X130123148Y-94441122D01*
X130213455Y-94411792D01*
X130221162Y-94411248D01*
X130298162Y-94414752D01*
X130357498Y-94431041D01*
X130380351Y-94441434D01*
X130399790Y-94436879D01*
X130409795Y-94401260D01*
X130415782Y-94324692D01*
X130423507Y-94247874D01*
X130439735Y-94200598D01*
X130467968Y-94182808D01*
X130475565Y-94181889D01*
X130490022Y-94186976D01*
X130500138Y-94207927D01*
X130506676Y-94251737D01*
X130510400Y-94325405D01*
X130512074Y-94435926D01*
X130512462Y-94590299D01*
X130512462Y-95006249D01*
X130356274Y-95010578D01*
X133831487Y-94240846D02*
X133817767Y-94279779D01*
X133817767Y-94279779D02*
X133832665Y-94319655D01*
X133832665Y-94319655D02*
X133881331Y-94330630D01*
X133881331Y-94330630D02*
X133931175Y-94318712D01*
X133931175Y-94318712D02*
X133944895Y-94279779D01*
X133944895Y-94279779D02*
X133929997Y-94239904D01*
X133929997Y-94239904D02*
X133881331Y-94228928D01*
X133881331Y-94228928D02*
X133831487Y-94240846D01*
X133831487Y-94240846D02*
X133831487Y-94240846D01*
G36*
X133929997Y-94239904D02*
G01*
X133944895Y-94279779D01*
X133931175Y-94318712D01*
X133881331Y-94330630D01*
X133832665Y-94319655D01*
X133817767Y-94279779D01*
X133831487Y-94240846D01*
X133881331Y-94228928D01*
X133929997Y-94239904D01*
G37*
X133929997Y-94239904D02*
X133944895Y-94279779D01*
X133931175Y-94318712D01*
X133881331Y-94330630D01*
X133832665Y-94319655D01*
X133817767Y-94279779D01*
X133831487Y-94240846D01*
X133881331Y-94228928D01*
X133929997Y-94239904D01*
X138400541Y-91832582D02*
X138407057Y-93758558D01*
X138407057Y-93758558D02*
X140307607Y-93765076D01*
X140307607Y-93765076D02*
X142208158Y-93771595D01*
X142208158Y-93771595D02*
X142208158Y-91718803D01*
X142208158Y-91718803D02*
X141179264Y-91718803D01*
X141179264Y-91718803D02*
X141179130Y-91812709D01*
X141179130Y-91812709D02*
X141140321Y-91916668D01*
X141140321Y-91916668D02*
X141072130Y-92011566D01*
X141072130Y-92011566D02*
X141032118Y-92060198D01*
X141032118Y-92060198D02*
X141013359Y-92093748D01*
X141013359Y-92093748D02*
X141013163Y-92095631D01*
X141013163Y-92095631D02*
X140999967Y-92126638D01*
X140999967Y-92126638D02*
X140966096Y-92184242D01*
X140966096Y-92184242D02*
X140936887Y-92229089D01*
X140936887Y-92229089D02*
X140893618Y-92300450D01*
X140893618Y-92300450D02*
X140865978Y-92359966D01*
X140865978Y-92359966D02*
X140860610Y-92382916D01*
X140860610Y-92382916D02*
X140848180Y-92418438D01*
X140848180Y-92418438D02*
X140836205Y-92423723D01*
X140836205Y-92423723D02*
X140814514Y-92445697D01*
X140814514Y-92445697D02*
X140789450Y-92500761D01*
X140789450Y-92500761D02*
X140781330Y-92525425D01*
X140781330Y-92525425D02*
X140757862Y-92588342D01*
X140757862Y-92588342D02*
X140735590Y-92624057D01*
X140735590Y-92624057D02*
X140729459Y-92627127D01*
X140729459Y-92627127D02*
X140708764Y-92646694D01*
X140708764Y-92646694D02*
X140708058Y-92653369D01*
X140708058Y-92653369D02*
X140698903Y-92692491D01*
X140698903Y-92692491D02*
X140676339Y-92755246D01*
X140676339Y-92755246D02*
X140670952Y-92768418D01*
X140670952Y-92768418D02*
X140633846Y-92857225D01*
X140633846Y-92857225D02*
X139806574Y-92843243D01*
X139806574Y-92843243D02*
X139773006Y-92691817D01*
X139773006Y-92691817D02*
X139751852Y-92606834D01*
X139751852Y-92606834D02*
X139731297Y-92541186D01*
X139731297Y-92541186D02*
X139718668Y-92513839D01*
X139718668Y-92513839D02*
X139700940Y-92477499D01*
X139700940Y-92477499D02*
X139674238Y-92407474D01*
X139674238Y-92407474D02*
X139644274Y-92318761D01*
X139644274Y-92318761D02*
X139643619Y-92316705D01*
X139643619Y-92316705D02*
X139615090Y-92210041D01*
X139615090Y-92210041D02*
X139598055Y-92098204D01*
X139598055Y-92098204D02*
X139590364Y-91963536D01*
X139590364Y-91963536D02*
X139589339Y-91870392D01*
X139589339Y-91870392D02*
X139589339Y-91594659D01*
X139589339Y-91594659D02*
X139671972Y-91519191D01*
X139671972Y-91519191D02*
X139781332Y-91426277D01*
X139781332Y-91426277D02*
X139871363Y-91367873D01*
X139871363Y-91367873D02*
X139953453Y-91337961D01*
X139953453Y-91337961D02*
X140029314Y-91330430D01*
X140029314Y-91330430D02*
X140124030Y-91319004D01*
X140124030Y-91319004D02*
X140184391Y-91282264D01*
X140184391Y-91282264D02*
X140185593Y-91280953D01*
X140185593Y-91280953D02*
X140241770Y-91244751D01*
X140241770Y-91244751D02*
X140317626Y-91224269D01*
X140317626Y-91224269D02*
X140323017Y-91223746D01*
X140323017Y-91223746D02*
X140415665Y-91216016D01*
X140415665Y-91216016D02*
X140441091Y-90758358D01*
X140441091Y-90758358D02*
X140771621Y-90758358D01*
X140771621Y-90758358D02*
X140778539Y-91235085D01*
X140778539Y-91235085D02*
X140781346Y-91384467D01*
X140781346Y-91384467D02*
X140785018Y-91514690D01*
X140785018Y-91514690D02*
X140789229Y-91617891D01*
X140789229Y-91617891D02*
X140793659Y-91686210D01*
X140793659Y-91686210D02*
X140797983Y-91711787D01*
X140797983Y-91711787D02*
X140798113Y-91711811D01*
X140798113Y-91711811D02*
X140825254Y-91699406D01*
X140825254Y-91699406D02*
X140879611Y-91667958D01*
X140879611Y-91667958D02*
X140911461Y-91648248D01*
X140911461Y-91648248D02*
X141011191Y-91597077D01*
X141011191Y-91597077D02*
X141085398Y-91588194D01*
X141085398Y-91588194D02*
X141138451Y-91622751D01*
X141138451Y-91622751D02*
X141174720Y-91701899D01*
X141174720Y-91701899D02*
X141179264Y-91718803D01*
X141179264Y-91718803D02*
X142208158Y-91718803D01*
X142208158Y-91718803D02*
X142208158Y-89906606D01*
X142208158Y-89906606D02*
X138394024Y-89906606D01*
X138394024Y-89906606D02*
X138400541Y-91832582D01*
X138400541Y-91832582D02*
X138400541Y-91832582D01*
G36*
X140307607Y-93765076D02*
G01*
X138407057Y-93758558D01*
X138400669Y-91870392D01*
X139589339Y-91870392D01*
X139590364Y-91963536D01*
X139598055Y-92098204D01*
X139615090Y-92210041D01*
X139643619Y-92316705D01*
X139644274Y-92318761D01*
X139674238Y-92407474D01*
X139700940Y-92477499D01*
X139718668Y-92513839D01*
X139731297Y-92541186D01*
X139751852Y-92606834D01*
X139773006Y-92691817D01*
X139806574Y-92843243D01*
X140633846Y-92857225D01*
X140670952Y-92768418D01*
X140676339Y-92755246D01*
X140698903Y-92692491D01*
X140708058Y-92653369D01*
X140708764Y-92646694D01*
X140729459Y-92627127D01*
X140735590Y-92624057D01*
X140757862Y-92588342D01*
X140781330Y-92525425D01*
X140789450Y-92500761D01*
X140814514Y-92445697D01*
X140836205Y-92423723D01*
X140848180Y-92418438D01*
X140860610Y-92382916D01*
X140865978Y-92359966D01*
X140893618Y-92300450D01*
X140936887Y-92229089D01*
X140966096Y-92184242D01*
X140999967Y-92126638D01*
X141013163Y-92095631D01*
X141013359Y-92093748D01*
X141032118Y-92060198D01*
X141072130Y-92011566D01*
X141140321Y-91916668D01*
X141179130Y-91812709D01*
X141179264Y-91718803D01*
X141174720Y-91701899D01*
X141138451Y-91622751D01*
X141085398Y-91588194D01*
X141011191Y-91597077D01*
X140911461Y-91648248D01*
X140879611Y-91667958D01*
X140825254Y-91699406D01*
X140798113Y-91711811D01*
X140797983Y-91711787D01*
X140793659Y-91686210D01*
X140789229Y-91617891D01*
X140785018Y-91514690D01*
X140781346Y-91384467D01*
X140778539Y-91235085D01*
X140771621Y-90758358D01*
X140441091Y-90758358D01*
X140415665Y-91216016D01*
X140323017Y-91223746D01*
X140317626Y-91224269D01*
X140241770Y-91244751D01*
X140185593Y-91280953D01*
X140184391Y-91282264D01*
X140124030Y-91319004D01*
X140029314Y-91330430D01*
X139953453Y-91337961D01*
X139871363Y-91367873D01*
X139781332Y-91426277D01*
X139671972Y-91519191D01*
X139589339Y-91594659D01*
X139589339Y-91870392D01*
X138400669Y-91870392D01*
X138400541Y-91832582D01*
X138394024Y-89906606D01*
X142208158Y-89906606D01*
X142208158Y-93771595D01*
X140307607Y-93765076D01*
G37*
X140307607Y-93765076D02*
X138407057Y-93758558D01*
X138400669Y-91870392D01*
X139589339Y-91870392D01*
X139590364Y-91963536D01*
X139598055Y-92098204D01*
X139615090Y-92210041D01*
X139643619Y-92316705D01*
X139644274Y-92318761D01*
X139674238Y-92407474D01*
X139700940Y-92477499D01*
X139718668Y-92513839D01*
X139731297Y-92541186D01*
X139751852Y-92606834D01*
X139773006Y-92691817D01*
X139806574Y-92843243D01*
X140633846Y-92857225D01*
X140670952Y-92768418D01*
X140676339Y-92755246D01*
X140698903Y-92692491D01*
X140708058Y-92653369D01*
X140708764Y-92646694D01*
X140729459Y-92627127D01*
X140735590Y-92624057D01*
X140757862Y-92588342D01*
X140781330Y-92525425D01*
X140789450Y-92500761D01*
X140814514Y-92445697D01*
X140836205Y-92423723D01*
X140848180Y-92418438D01*
X140860610Y-92382916D01*
X140865978Y-92359966D01*
X140893618Y-92300450D01*
X140936887Y-92229089D01*
X140966096Y-92184242D01*
X140999967Y-92126638D01*
X141013163Y-92095631D01*
X141013359Y-92093748D01*
X141032118Y-92060198D01*
X141072130Y-92011566D01*
X141140321Y-91916668D01*
X141179130Y-91812709D01*
X141179264Y-91718803D01*
X141174720Y-91701899D01*
X141138451Y-91622751D01*
X141085398Y-91588194D01*
X141011191Y-91597077D01*
X140911461Y-91648248D01*
X140879611Y-91667958D01*
X140825254Y-91699406D01*
X140798113Y-91711811D01*
X140797983Y-91711787D01*
X140793659Y-91686210D01*
X140789229Y-91617891D01*
X140785018Y-91514690D01*
X140781346Y-91384467D01*
X140778539Y-91235085D01*
X140771621Y-90758358D01*
X140441091Y-90758358D01*
X140415665Y-91216016D01*
X140323017Y-91223746D01*
X140317626Y-91224269D01*
X140241770Y-91244751D01*
X140185593Y-91280953D01*
X140184391Y-91282264D01*
X140124030Y-91319004D01*
X140029314Y-91330430D01*
X139953453Y-91337961D01*
X139871363Y-91367873D01*
X139781332Y-91426277D01*
X139671972Y-91519191D01*
X139589339Y-91594659D01*
X139589339Y-91870392D01*
X138400669Y-91870392D01*
X138400541Y-91832582D01*
X138394024Y-89906606D01*
X142208158Y-89906606D01*
X142208158Y-93771595D01*
X140307607Y-93765076D01*
X133554448Y-91318144D02*
X133457530Y-91347823D01*
X133457530Y-91347823D02*
X133385366Y-91372003D01*
X133385366Y-91372003D02*
X133348546Y-91371035D01*
X133348546Y-91371035D02*
X133340482Y-91360535D01*
X133340482Y-91360535D02*
X133310622Y-91341667D01*
X133310622Y-91341667D02*
X133246469Y-91331303D01*
X133246469Y-91331303D02*
X133218151Y-91330430D01*
X133218151Y-91330430D02*
X133105856Y-91330430D01*
X133105856Y-91330430D02*
X133105856Y-92041090D01*
X133105856Y-92041090D02*
X133106386Y-92284029D01*
X133106386Y-92284029D02*
X133108603Y-92482006D01*
X133108603Y-92482006D02*
X133113447Y-92640905D01*
X133113447Y-92640905D02*
X133121858Y-92766611D01*
X133121858Y-92766611D02*
X133134777Y-92865008D01*
X133134777Y-92865008D02*
X133153142Y-92941978D01*
X133153142Y-92941978D02*
X133177895Y-93003407D01*
X133177895Y-93003407D02*
X133209974Y-93055178D01*
X133209974Y-93055178D02*
X133250321Y-93103175D01*
X133250321Y-93103175D02*
X133280490Y-93134206D01*
X133280490Y-93134206D02*
X133376826Y-93215570D01*
X133376826Y-93215570D02*
X133472365Y-93271241D01*
X133472365Y-93271241D02*
X133502899Y-93282535D01*
X133502899Y-93282535D02*
X133597908Y-93299872D01*
X133597908Y-93299872D02*
X133724632Y-93308532D01*
X133724632Y-93308532D02*
X133864687Y-93308546D01*
X133864687Y-93308546D02*
X133999689Y-93299945D01*
X133999689Y-93299945D02*
X134111253Y-93282757D01*
X134111253Y-93282757D02*
X134116516Y-93281522D01*
X134116516Y-93281522D02*
X134224574Y-93255537D01*
X134224574Y-93255537D02*
X134224574Y-93132023D01*
X134224574Y-93132023D02*
X134221457Y-93057083D01*
X134221457Y-93057083D02*
X134205323Y-93019279D01*
X134205323Y-93019279D02*
X134165996Y-93013308D01*
X134165996Y-93013308D02*
X134093300Y-93033869D01*
X134093300Y-93033869D02*
X134059309Y-93045913D01*
X134059309Y-93045913D02*
X133981595Y-93064560D01*
X133981595Y-93064560D02*
X133876074Y-93078076D01*
X133876074Y-93078076D02*
X133766917Y-93083501D01*
X133766917Y-93083501D02*
X133610633Y-93072044D01*
X133610633Y-93072044D02*
X133495644Y-93033743D01*
X133495644Y-93033743D02*
X133418203Y-92965364D01*
X133418203Y-92965364D02*
X133374568Y-92863669D01*
X133374568Y-92863669D02*
X133361011Y-92732769D01*
X133361011Y-92732769D02*
X133360110Y-92596869D01*
X133360110Y-92596869D02*
X133480881Y-92668348D01*
X133480881Y-92668348D02*
X133553363Y-92706756D01*
X133553363Y-92706756D02*
X133621049Y-92728579D01*
X133621049Y-92728579D02*
X133703571Y-92738288D01*
X133703571Y-92738288D02*
X133796984Y-92740349D01*
X133796984Y-92740349D02*
X133901474Y-92738613D01*
X133901474Y-92738613D02*
X133973117Y-92729724D01*
X133973117Y-92729724D02*
X134029845Y-92709184D01*
X134029845Y-92709184D02*
X134089593Y-92672494D01*
X134089593Y-92672494D02*
X134102089Y-92663801D01*
X134102089Y-92663801D02*
X134182224Y-92593227D01*
X134182224Y-92593227D02*
X134254454Y-92506501D01*
X134254454Y-92506501D02*
X134275425Y-92473445D01*
X134275425Y-92473445D02*
X134302794Y-92420374D01*
X134302794Y-92420374D02*
X134320979Y-92369178D01*
X134320979Y-92369178D02*
X134331824Y-92307713D01*
X134331824Y-92307713D02*
X134337171Y-92223833D01*
X134337171Y-92223833D02*
X134338866Y-92105393D01*
X134338866Y-92105393D02*
X134338934Y-92057397D01*
X134338934Y-92057397D02*
X134097447Y-92057397D01*
X134097447Y-92057397D02*
X134087948Y-92218602D01*
X134087948Y-92218602D02*
X134057491Y-92339023D01*
X134057491Y-92339023D02*
X134003137Y-92425428D01*
X134003137Y-92425428D02*
X133921946Y-92484585D01*
X133921946Y-92484585D02*
X133909286Y-92490618D01*
X133909286Y-92490618D02*
X133806599Y-92514462D01*
X133806599Y-92514462D02*
X133680087Y-92509827D01*
X133680087Y-92509827D02*
X133546867Y-92478391D01*
X133546867Y-92478391D02*
X133471597Y-92447732D01*
X133471597Y-92447732D02*
X133360110Y-92393762D01*
X133360110Y-92393762D02*
X133360110Y-91587074D01*
X133360110Y-91587074D02*
X133455455Y-91560596D01*
X133455455Y-91560596D02*
X133585475Y-91537453D01*
X133585475Y-91537453D02*
X133718670Y-91535456D01*
X133718670Y-91535456D02*
X133837224Y-91553702D01*
X133837224Y-91553702D02*
X133912087Y-91583782D01*
X133912087Y-91583782D02*
X133997632Y-91656580D01*
X133997632Y-91656580D02*
X134055359Y-91756958D01*
X134055359Y-91756958D02*
X134087785Y-91891349D01*
X134087785Y-91891349D02*
X134097447Y-92057397D01*
X134097447Y-92057397D02*
X134338934Y-92057397D01*
X134338934Y-92057397D02*
X134338938Y-92055055D01*
X134338938Y-92055055D02*
X134336257Y-91898897D01*
X134336257Y-91898897D02*
X134325782Y-91781263D01*
X134325782Y-91781263D02*
X134303774Y-91689984D01*
X134303774Y-91689984D02*
X134266496Y-91612896D01*
X134266496Y-91612896D02*
X134210209Y-91537832D01*
X134210209Y-91537832D02*
X134164521Y-91487392D01*
X134164521Y-91487392D02*
X134039416Y-91389973D01*
X134039416Y-91389973D02*
X133887753Y-91327657D01*
X133887753Y-91327657D02*
X133721955Y-91302896D01*
X133721955Y-91302896D02*
X133554448Y-91318144D01*
X133554448Y-91318144D02*
X133554448Y-91318144D01*
G36*
X134337171Y-92223833D02*
G01*
X134331824Y-92307713D01*
X134320979Y-92369178D01*
X134302794Y-92420374D01*
X134275425Y-92473445D01*
X134254454Y-92506501D01*
X134182224Y-92593227D01*
X134102089Y-92663801D01*
X134089593Y-92672494D01*
X134029845Y-92709184D01*
X133973117Y-92729724D01*
X133901474Y-92738613D01*
X133796984Y-92740349D01*
X133703571Y-92738288D01*
X133621049Y-92728579D01*
X133553363Y-92706756D01*
X133480881Y-92668348D01*
X133360110Y-92596869D01*
X133361011Y-92732769D01*
X133374568Y-92863669D01*
X133418203Y-92965364D01*
X133495644Y-93033743D01*
X133610633Y-93072044D01*
X133766917Y-93083501D01*
X133876074Y-93078076D01*
X133981595Y-93064560D01*
X134059309Y-93045913D01*
X134093300Y-93033869D01*
X134165996Y-93013308D01*
X134205323Y-93019279D01*
X134221457Y-93057083D01*
X134224574Y-93132023D01*
X134224574Y-93255537D01*
X134116516Y-93281522D01*
X134111253Y-93282757D01*
X133999689Y-93299945D01*
X133864687Y-93308546D01*
X133724632Y-93308532D01*
X133597908Y-93299872D01*
X133502899Y-93282535D01*
X133472365Y-93271241D01*
X133376826Y-93215570D01*
X133280490Y-93134206D01*
X133250321Y-93103175D01*
X133209974Y-93055178D01*
X133177895Y-93003407D01*
X133153142Y-92941978D01*
X133134777Y-92865008D01*
X133121858Y-92766611D01*
X133113447Y-92640905D01*
X133108603Y-92482006D01*
X133107615Y-92393762D01*
X133360110Y-92393762D01*
X133471597Y-92447732D01*
X133546867Y-92478391D01*
X133680087Y-92509827D01*
X133806599Y-92514462D01*
X133909286Y-92490618D01*
X133921946Y-92484585D01*
X134003137Y-92425428D01*
X134057491Y-92339023D01*
X134087948Y-92218602D01*
X134097447Y-92057397D01*
X134087785Y-91891349D01*
X134055359Y-91756958D01*
X133997632Y-91656580D01*
X133912087Y-91583782D01*
X133837224Y-91553702D01*
X133718670Y-91535456D01*
X133585475Y-91537453D01*
X133455455Y-91560596D01*
X133360110Y-91587074D01*
X133360110Y-92393762D01*
X133107615Y-92393762D01*
X133106386Y-92284029D01*
X133105856Y-92041090D01*
X133105856Y-91330430D01*
X133218151Y-91330430D01*
X133246469Y-91331303D01*
X133310622Y-91341667D01*
X133340482Y-91360535D01*
X133348546Y-91371035D01*
X133385366Y-91372003D01*
X133457530Y-91347823D01*
X133554448Y-91318144D01*
X133721955Y-91302896D01*
X133887753Y-91327657D01*
X134039416Y-91389973D01*
X134164521Y-91487392D01*
X134210209Y-91537832D01*
X134266496Y-91612896D01*
X134303774Y-91689984D01*
X134325782Y-91781263D01*
X134336257Y-91898897D01*
X134338938Y-92055055D01*
X134338934Y-92057397D01*
X134338866Y-92105393D01*
X134337171Y-92223833D01*
G37*
X134337171Y-92223833D02*
X134331824Y-92307713D01*
X134320979Y-92369178D01*
X134302794Y-92420374D01*
X134275425Y-92473445D01*
X134254454Y-92506501D01*
X134182224Y-92593227D01*
X134102089Y-92663801D01*
X134089593Y-92672494D01*
X134029845Y-92709184D01*
X133973117Y-92729724D01*
X133901474Y-92738613D01*
X133796984Y-92740349D01*
X133703571Y-92738288D01*
X133621049Y-92728579D01*
X133553363Y-92706756D01*
X133480881Y-92668348D01*
X133360110Y-92596869D01*
X133361011Y-92732769D01*
X133374568Y-92863669D01*
X133418203Y-92965364D01*
X133495644Y-93033743D01*
X133610633Y-93072044D01*
X133766917Y-93083501D01*
X133876074Y-93078076D01*
X133981595Y-93064560D01*
X134059309Y-93045913D01*
X134093300Y-93033869D01*
X134165996Y-93013308D01*
X134205323Y-93019279D01*
X134221457Y-93057083D01*
X134224574Y-93132023D01*
X134224574Y-93255537D01*
X134116516Y-93281522D01*
X134111253Y-93282757D01*
X133999689Y-93299945D01*
X133864687Y-93308546D01*
X133724632Y-93308532D01*
X133597908Y-93299872D01*
X133502899Y-93282535D01*
X133472365Y-93271241D01*
X133376826Y-93215570D01*
X133280490Y-93134206D01*
X133250321Y-93103175D01*
X133209974Y-93055178D01*
X133177895Y-93003407D01*
X133153142Y-92941978D01*
X133134777Y-92865008D01*
X133121858Y-92766611D01*
X133113447Y-92640905D01*
X133108603Y-92482006D01*
X133107615Y-92393762D01*
X133360110Y-92393762D01*
X133471597Y-92447732D01*
X133546867Y-92478391D01*
X133680087Y-92509827D01*
X133806599Y-92514462D01*
X133909286Y-92490618D01*
X133921946Y-92484585D01*
X134003137Y-92425428D01*
X134057491Y-92339023D01*
X134087948Y-92218602D01*
X134097447Y-92057397D01*
X134087785Y-91891349D01*
X134055359Y-91756958D01*
X133997632Y-91656580D01*
X133912087Y-91583782D01*
X133837224Y-91553702D01*
X133718670Y-91535456D01*
X133585475Y-91537453D01*
X133455455Y-91560596D01*
X133360110Y-91587074D01*
X133360110Y-92393762D01*
X133107615Y-92393762D01*
X133106386Y-92284029D01*
X133105856Y-92041090D01*
X133105856Y-91330430D01*
X133218151Y-91330430D01*
X133246469Y-91331303D01*
X133310622Y-91341667D01*
X133340482Y-91360535D01*
X133348546Y-91371035D01*
X133385366Y-91372003D01*
X133457530Y-91347823D01*
X133554448Y-91318144D01*
X133721955Y-91302896D01*
X133887753Y-91327657D01*
X134039416Y-91389973D01*
X134164521Y-91487392D01*
X134210209Y-91537832D01*
X134266496Y-91612896D01*
X134303774Y-91689984D01*
X134325782Y-91781263D01*
X134336257Y-91898897D01*
X134338938Y-92055055D01*
X134338934Y-92057397D01*
X134338866Y-92105393D01*
X134337171Y-92223833D01*
X127608246Y-91552902D02*
X127604364Y-91774256D01*
X127604364Y-91774256D02*
X127599587Y-91951151D01*
X127599587Y-91951151D02*
X127592742Y-92089982D01*
X127592742Y-92089982D02*
X127582651Y-92197140D01*
X127582651Y-92197140D02*
X127568140Y-92279018D01*
X127568140Y-92279018D02*
X127548034Y-92342009D01*
X127548034Y-92342009D02*
X127521156Y-92392505D01*
X127521156Y-92392505D02*
X127486330Y-92436898D01*
X127486330Y-92436898D02*
X127442383Y-92481582D01*
X127442383Y-92481582D02*
X127436419Y-92487287D01*
X127436419Y-92487287D02*
X127394901Y-92524053D01*
X127394901Y-92524053D02*
X127355634Y-92546599D01*
X127355634Y-92546599D02*
X127304847Y-92558388D01*
X127304847Y-92558388D02*
X127228768Y-92562886D01*
X127228768Y-92562886D02*
X127133220Y-92563563D01*
X127133220Y-92563563D02*
X126991889Y-92558980D01*
X126991889Y-92558980D02*
X126890091Y-92541977D01*
X126890091Y-92541977D02*
X126817070Y-92507671D01*
X126817070Y-92507671D02*
X126762071Y-92451179D01*
X126762071Y-92451179D02*
X126717971Y-92375068D01*
X126717971Y-92375068D02*
X126700819Y-92338009D01*
X126700819Y-92338009D02*
X126687356Y-92300236D01*
X126687356Y-92300236D02*
X126677047Y-92255118D01*
X126677047Y-92255118D02*
X126669357Y-92196021D01*
X126669357Y-92196021D02*
X126663751Y-92116316D01*
X126663751Y-92116316D02*
X126659694Y-92009368D01*
X126659694Y-92009368D02*
X126656650Y-91868545D01*
X126656650Y-91868545D02*
X126654085Y-91687217D01*
X126654085Y-91687217D02*
X126652659Y-91565615D01*
X126652659Y-91565615D02*
X126644809Y-90872772D01*
X126644809Y-90872772D02*
X126390639Y-90872772D01*
X126390639Y-90872772D02*
X126399946Y-91591041D01*
X126399946Y-91591041D02*
X126404282Y-91838277D01*
X126404282Y-91838277D02*
X126410296Y-92044335D01*
X126410296Y-92044335D02*
X126417876Y-92206916D01*
X126417876Y-92206916D02*
X126426908Y-92323718D01*
X126426908Y-92323718D02*
X126437281Y-92392444D01*
X126437281Y-92392444D02*
X126439506Y-92400217D01*
X126439506Y-92400217D02*
X126489786Y-92496307D01*
X126489786Y-92496307D02*
X126571692Y-92597287D01*
X126571692Y-92597287D02*
X126670203Y-92687803D01*
X126670203Y-92687803D02*
X126770296Y-92752500D01*
X126770296Y-92752500D02*
X126794508Y-92763113D01*
X126794508Y-92763113D02*
X126921029Y-92794782D01*
X126921029Y-92794782D02*
X127073584Y-92807339D01*
X127073584Y-92807339D02*
X127232801Y-92801311D01*
X127232801Y-92801311D02*
X127379304Y-92777225D01*
X127379304Y-92777225D02*
X127475926Y-92744573D01*
X127475926Y-92744573D02*
X127567504Y-92690322D01*
X127567504Y-92690322D02*
X127653200Y-92620972D01*
X127653200Y-92620972D02*
X127684976Y-92587336D01*
X127684976Y-92587336D02*
X127728708Y-92531220D01*
X127728708Y-92531220D02*
X127763560Y-92476257D01*
X127763560Y-92476257D02*
X127790532Y-92415993D01*
X127790532Y-92415993D02*
X127810621Y-92343974D01*
X127810621Y-92343974D02*
X127824827Y-92253745D01*
X127824827Y-92253745D02*
X127834148Y-92138852D01*
X127834148Y-92138852D02*
X127839583Y-91992840D01*
X127839583Y-91992840D02*
X127842132Y-91809256D01*
X127842132Y-91809256D02*
X127842791Y-91581643D01*
X127842791Y-91581643D02*
X127842792Y-91567442D01*
X127842792Y-91567442D02*
X127842792Y-90872772D01*
X127842792Y-90872772D02*
X127618841Y-90872772D01*
X127618841Y-90872772D02*
X127608246Y-91552902D01*
X127608246Y-91552902D02*
X127608246Y-91552902D01*
G36*
X126652659Y-91565615D02*
G01*
X126654085Y-91687217D01*
X126656650Y-91868545D01*
X126659694Y-92009368D01*
X126663751Y-92116316D01*
X126669357Y-92196021D01*
X126677047Y-92255118D01*
X126687356Y-92300236D01*
X126700819Y-92338009D01*
X126717971Y-92375068D01*
X126762071Y-92451179D01*
X126817070Y-92507671D01*
X126890091Y-92541977D01*
X126991889Y-92558980D01*
X127133220Y-92563563D01*
X127228768Y-92562886D01*
X127304847Y-92558388D01*
X127355634Y-92546599D01*
X127394901Y-92524053D01*
X127436419Y-92487287D01*
X127442383Y-92481582D01*
X127486330Y-92436898D01*
X127521156Y-92392505D01*
X127548034Y-92342009D01*
X127568140Y-92279018D01*
X127582651Y-92197140D01*
X127592742Y-92089982D01*
X127599587Y-91951151D01*
X127604364Y-91774256D01*
X127608246Y-91552902D01*
X127618841Y-90872772D01*
X127842792Y-90872772D01*
X127842792Y-91567442D01*
X127842791Y-91581643D01*
X127842132Y-91809256D01*
X127839583Y-91992840D01*
X127834148Y-92138852D01*
X127824827Y-92253745D01*
X127810621Y-92343974D01*
X127790532Y-92415993D01*
X127763560Y-92476257D01*
X127728708Y-92531220D01*
X127684976Y-92587336D01*
X127653200Y-92620972D01*
X127567504Y-92690322D01*
X127475926Y-92744573D01*
X127379304Y-92777225D01*
X127232801Y-92801311D01*
X127073584Y-92807339D01*
X126921029Y-92794782D01*
X126794508Y-92763113D01*
X126770296Y-92752500D01*
X126670203Y-92687803D01*
X126571692Y-92597287D01*
X126489786Y-92496307D01*
X126439506Y-92400217D01*
X126437281Y-92392444D01*
X126426908Y-92323718D01*
X126417876Y-92206916D01*
X126410296Y-92044335D01*
X126404282Y-91838277D01*
X126399946Y-91591041D01*
X126390639Y-90872772D01*
X126644809Y-90872772D01*
X126652659Y-91565615D01*
G37*
X126652659Y-91565615D02*
X126654085Y-91687217D01*
X126656650Y-91868545D01*
X126659694Y-92009368D01*
X126663751Y-92116316D01*
X126669357Y-92196021D01*
X126677047Y-92255118D01*
X126687356Y-92300236D01*
X126700819Y-92338009D01*
X126717971Y-92375068D01*
X126762071Y-92451179D01*
X126817070Y-92507671D01*
X126890091Y-92541977D01*
X126991889Y-92558980D01*
X127133220Y-92563563D01*
X127228768Y-92562886D01*
X127304847Y-92558388D01*
X127355634Y-92546599D01*
X127394901Y-92524053D01*
X127436419Y-92487287D01*
X127442383Y-92481582D01*
X127486330Y-92436898D01*
X127521156Y-92392505D01*
X127548034Y-92342009D01*
X127568140Y-92279018D01*
X127582651Y-92197140D01*
X127592742Y-92089982D01*
X127599587Y-91951151D01*
X127604364Y-91774256D01*
X127608246Y-91552902D01*
X127618841Y-90872772D01*
X127842792Y-90872772D01*
X127842792Y-91567442D01*
X127842791Y-91581643D01*
X127842132Y-91809256D01*
X127839583Y-91992840D01*
X127834148Y-92138852D01*
X127824827Y-92253745D01*
X127810621Y-92343974D01*
X127790532Y-92415993D01*
X127763560Y-92476257D01*
X127728708Y-92531220D01*
X127684976Y-92587336D01*
X127653200Y-92620972D01*
X127567504Y-92690322D01*
X127475926Y-92744573D01*
X127379304Y-92777225D01*
X127232801Y-92801311D01*
X127073584Y-92807339D01*
X126921029Y-92794782D01*
X126794508Y-92763113D01*
X126770296Y-92752500D01*
X126670203Y-92687803D01*
X126571692Y-92597287D01*
X126489786Y-92496307D01*
X126439506Y-92400217D01*
X126437281Y-92392444D01*
X126426908Y-92323718D01*
X126417876Y-92206916D01*
X126410296Y-92044335D01*
X126404282Y-91838277D01*
X126399946Y-91591041D01*
X126390639Y-90872772D01*
X126644809Y-90872772D01*
X126652659Y-91565615D01*
X136284034Y-91101601D02*
X137301051Y-91101601D01*
X137301051Y-91101601D02*
X137301051Y-91609035D01*
X137301051Y-91609035D02*
X136798899Y-91615929D01*
X136798899Y-91615929D02*
X136296746Y-91622822D01*
X136296746Y-91622822D02*
X136281110Y-91838938D01*
X136281110Y-91838938D02*
X137302486Y-91838938D01*
X137302486Y-91838938D02*
X137288338Y-92538138D01*
X137288338Y-92538138D02*
X136786186Y-92545032D01*
X136786186Y-92545032D02*
X136284034Y-92551925D01*
X136284034Y-92551925D02*
X136284034Y-92779679D01*
X136284034Y-92779679D02*
X137555305Y-92779679D01*
X137555305Y-92779679D02*
X137555305Y-90872772D01*
X137555305Y-90872772D02*
X136284034Y-90872772D01*
X136284034Y-90872772D02*
X136284034Y-91101601D01*
X136284034Y-91101601D02*
X136284034Y-91101601D01*
G36*
X137555305Y-92779679D02*
G01*
X136284034Y-92779679D01*
X136284034Y-92551925D01*
X136786186Y-92545032D01*
X137288338Y-92538138D01*
X137302486Y-91838938D01*
X136281110Y-91838938D01*
X136296746Y-91622822D01*
X136798899Y-91615929D01*
X137301051Y-91609035D01*
X137301051Y-91101601D01*
X136284034Y-91101601D01*
X136284034Y-90872772D01*
X137555305Y-90872772D01*
X137555305Y-92779679D01*
G37*
X137555305Y-92779679D02*
X136284034Y-92779679D01*
X136284034Y-92551925D01*
X136786186Y-92545032D01*
X137288338Y-92538138D01*
X137302486Y-91838938D01*
X136281110Y-91838938D01*
X136296746Y-91622822D01*
X136798899Y-91615929D01*
X137301051Y-91609035D01*
X137301051Y-91101601D01*
X136284034Y-91101601D01*
X136284034Y-90872772D01*
X137555305Y-90872772D01*
X137555305Y-92779679D01*
X135016844Y-91332622D02*
X134897442Y-91396688D01*
X134897442Y-91396688D02*
X134805400Y-91496437D01*
X134805400Y-91496437D02*
X134784456Y-91532810D01*
X134784456Y-91532810D02*
X134767711Y-91569287D01*
X134767711Y-91569287D02*
X134755035Y-91609261D01*
X134755035Y-91609261D02*
X134745870Y-91660082D01*
X134745870Y-91660082D02*
X134739657Y-91729097D01*
X134739657Y-91729097D02*
X134735837Y-91823655D01*
X134735837Y-91823655D02*
X134733850Y-91951105D01*
X134733850Y-91951105D02*
X134733137Y-92118796D01*
X134733137Y-92118796D02*
X134733083Y-92207987D01*
X134733083Y-92207987D02*
X134733083Y-92782465D01*
X134733083Y-92782465D02*
X134853854Y-92774716D01*
X134853854Y-92774716D02*
X134974624Y-92766967D01*
X134974624Y-92766967D02*
X134987337Y-92214608D01*
X134987337Y-92214608D02*
X134991723Y-92033070D01*
X134991723Y-92033070D02*
X134995949Y-91895390D01*
X134995949Y-91895390D02*
X135000823Y-91794584D01*
X135000823Y-91794584D02*
X135007154Y-91723669D01*
X135007154Y-91723669D02*
X135015751Y-91675660D01*
X135015751Y-91675660D02*
X135027424Y-91643575D01*
X135027424Y-91643575D02*
X135042980Y-91620429D01*
X135042980Y-91620429D02*
X135058021Y-91604397D01*
X135058021Y-91604397D02*
X135136830Y-91559130D01*
X135136830Y-91559130D02*
X135244315Y-91543518D01*
X135244315Y-91543518D02*
X135368164Y-91557123D01*
X135368164Y-91557123D02*
X135496060Y-91599509D01*
X135496060Y-91599509D02*
X135540340Y-91621519D01*
X135540340Y-91621519D02*
X135673824Y-91694468D01*
X135673824Y-91694468D02*
X135673824Y-92779679D01*
X135673824Y-92779679D02*
X135928078Y-92779679D01*
X135928078Y-92779679D02*
X135928078Y-91330430D01*
X135928078Y-91330430D02*
X135800951Y-91330430D01*
X135800951Y-91330430D02*
X135725708Y-91332017D01*
X135725708Y-91332017D02*
X135688189Y-91342241D01*
X135688189Y-91342241D02*
X135675269Y-91369297D01*
X135675269Y-91369297D02*
X135673824Y-91409807D01*
X135673824Y-91409807D02*
X135671398Y-91463025D01*
X135671398Y-91463025D02*
X135656306Y-91473337D01*
X135656306Y-91473337D02*
X135616823Y-91448682D01*
X135616823Y-91448682D02*
X135616616Y-91448535D01*
X135616616Y-91448535D02*
X135463494Y-91362197D01*
X135463494Y-91362197D02*
X135307443Y-91314610D01*
X135307443Y-91314610D02*
X135156036Y-91305007D01*
X135156036Y-91305007D02*
X135016844Y-91332622D01*
X135016844Y-91332622D02*
X135016844Y-91332622D01*
G36*
X135307443Y-91314610D02*
G01*
X135463494Y-91362197D01*
X135616616Y-91448535D01*
X135616823Y-91448682D01*
X135656306Y-91473337D01*
X135671398Y-91463025D01*
X135673824Y-91409807D01*
X135675269Y-91369297D01*
X135688189Y-91342241D01*
X135725708Y-91332017D01*
X135800951Y-91330430D01*
X135928078Y-91330430D01*
X135928078Y-92779679D01*
X135673824Y-92779679D01*
X135673824Y-91694468D01*
X135540340Y-91621519D01*
X135496060Y-91599509D01*
X135368164Y-91557123D01*
X135244315Y-91543518D01*
X135136830Y-91559130D01*
X135058021Y-91604397D01*
X135042980Y-91620429D01*
X135027424Y-91643575D01*
X135015751Y-91675660D01*
X135007154Y-91723669D01*
X135000823Y-91794584D01*
X134995949Y-91895390D01*
X134991723Y-92033070D01*
X134987337Y-92214608D01*
X134974624Y-92766967D01*
X134853854Y-92774716D01*
X134733083Y-92782465D01*
X134733083Y-92207987D01*
X134733137Y-92118796D01*
X134733850Y-91951105D01*
X134735837Y-91823655D01*
X134739657Y-91729097D01*
X134745870Y-91660082D01*
X134755035Y-91609261D01*
X134767711Y-91569287D01*
X134784456Y-91532810D01*
X134805400Y-91496437D01*
X134897442Y-91396688D01*
X135016844Y-91332622D01*
X135156036Y-91305007D01*
X135307443Y-91314610D01*
G37*
X135307443Y-91314610D02*
X135463494Y-91362197D01*
X135616616Y-91448535D01*
X135616823Y-91448682D01*
X135656306Y-91473337D01*
X135671398Y-91463025D01*
X135673824Y-91409807D01*
X135675269Y-91369297D01*
X135688189Y-91342241D01*
X135725708Y-91332017D01*
X135800951Y-91330430D01*
X135928078Y-91330430D01*
X135928078Y-92779679D01*
X135673824Y-92779679D01*
X135673824Y-91694468D01*
X135540340Y-91621519D01*
X135496060Y-91599509D01*
X135368164Y-91557123D01*
X135244315Y-91543518D01*
X135136830Y-91559130D01*
X135058021Y-91604397D01*
X135042980Y-91620429D01*
X135027424Y-91643575D01*
X135015751Y-91675660D01*
X135007154Y-91723669D01*
X135000823Y-91794584D01*
X134995949Y-91895390D01*
X134991723Y-92033070D01*
X134987337Y-92214608D01*
X134974624Y-92766967D01*
X134853854Y-92774716D01*
X134733083Y-92782465D01*
X134733083Y-92207987D01*
X134733137Y-92118796D01*
X134733850Y-91951105D01*
X134735837Y-91823655D01*
X134739657Y-91729097D01*
X134745870Y-91660082D01*
X134755035Y-91609261D01*
X134767711Y-91569287D01*
X134784456Y-91532810D01*
X134805400Y-91496437D01*
X134897442Y-91396688D01*
X135016844Y-91332622D01*
X135156036Y-91305007D01*
X135307443Y-91314610D01*
X132381231Y-91533702D02*
X132268583Y-91458927D01*
X132268583Y-91458927D02*
X132140163Y-91391727D01*
X132140163Y-91391727D02*
X132002028Y-91349264D01*
X132002028Y-91349264D02*
X131872519Y-91336346D01*
X131872519Y-91336346D02*
X131821185Y-91341594D01*
X131821185Y-91341594D02*
X131768320Y-91354313D01*
X131768320Y-91354313D02*
X131742349Y-91376500D01*
X131742349Y-91376500D02*
X131733720Y-91423312D01*
X131733720Y-91423312D02*
X131732883Y-91481724D01*
X131732883Y-91481724D02*
X131732883Y-91605288D01*
X131732883Y-91605288D02*
X131881728Y-91591791D01*
X131881728Y-91591791D02*
X132059486Y-91596178D01*
X132059486Y-91596178D02*
X132215466Y-91644866D01*
X132215466Y-91644866D02*
X132311311Y-91703539D01*
X132311311Y-91703539D02*
X132393944Y-91765250D01*
X132393944Y-91765250D02*
X132393944Y-92779679D01*
X132393944Y-92779679D02*
X132648198Y-92779679D01*
X132648198Y-92779679D02*
X132648198Y-91330430D01*
X132648198Y-91330430D02*
X132396867Y-91330430D01*
X132396867Y-91330430D02*
X132381231Y-91533702D01*
X132381231Y-91533702D02*
X132381231Y-91533702D01*
G36*
X132648198Y-92779679D02*
G01*
X132393944Y-92779679D01*
X132393944Y-91765250D01*
X132311311Y-91703539D01*
X132215466Y-91644866D01*
X132059486Y-91596178D01*
X131881728Y-91591791D01*
X131732883Y-91605288D01*
X131732883Y-91481724D01*
X131733720Y-91423312D01*
X131742349Y-91376500D01*
X131768320Y-91354313D01*
X131821185Y-91341594D01*
X131872519Y-91336346D01*
X132002028Y-91349264D01*
X132140163Y-91391727D01*
X132268583Y-91458927D01*
X132381231Y-91533702D01*
X132396867Y-91330430D01*
X132648198Y-91330430D01*
X132648198Y-92779679D01*
G37*
X132648198Y-92779679D02*
X132393944Y-92779679D01*
X132393944Y-91765250D01*
X132311311Y-91703539D01*
X132215466Y-91644866D01*
X132059486Y-91596178D01*
X131881728Y-91591791D01*
X131732883Y-91605288D01*
X131732883Y-91481724D01*
X131733720Y-91423312D01*
X131742349Y-91376500D01*
X131768320Y-91354313D01*
X131821185Y-91341594D01*
X131872519Y-91336346D01*
X132002028Y-91349264D01*
X132140163Y-91391727D01*
X132268583Y-91458927D01*
X132381231Y-91533702D01*
X132396867Y-91330430D01*
X132648198Y-91330430D01*
X132648198Y-92779679D01*
X130245495Y-91088888D02*
X131249799Y-91102676D01*
X131249799Y-91102676D02*
X131249799Y-91609035D01*
X131249799Y-91609035D02*
X130747647Y-91615929D01*
X130747647Y-91615929D02*
X130245495Y-91622822D01*
X130245495Y-91622822D02*
X130245495Y-91826226D01*
X130245495Y-91826226D02*
X131251227Y-91840018D01*
X131251227Y-91840018D02*
X131237087Y-92538138D01*
X131237087Y-92538138D02*
X130734935Y-92545032D01*
X130734935Y-92545032D02*
X130232782Y-92551925D01*
X130232782Y-92551925D02*
X130232782Y-92779679D01*
X130232782Y-92779679D02*
X130851468Y-92779679D01*
X130851468Y-92779679D02*
X131023944Y-92779010D01*
X131023944Y-92779010D02*
X131179297Y-92777130D01*
X131179297Y-92777130D02*
X131310374Y-92774230D01*
X131310374Y-92774230D02*
X131410019Y-92770501D01*
X131410019Y-92770501D02*
X131471078Y-92766133D01*
X131471078Y-92766133D02*
X131487103Y-92762729D01*
X131487103Y-92762729D02*
X131490958Y-92734287D01*
X131490958Y-92734287D02*
X131494505Y-92660739D01*
X131494505Y-92660739D02*
X131497642Y-92547831D01*
X131497642Y-92547831D02*
X131500268Y-92401307D01*
X131500268Y-92401307D02*
X131502280Y-92226911D01*
X131502280Y-92226911D02*
X131503575Y-92030390D01*
X131503575Y-92030390D02*
X131504053Y-91817486D01*
X131504053Y-91817486D02*
X131504054Y-91809275D01*
X131504054Y-91809275D02*
X131504054Y-90872772D01*
X131504054Y-90872772D02*
X130229859Y-90872772D01*
X130229859Y-90872772D02*
X130245495Y-91088888D01*
X130245495Y-91088888D02*
X130245495Y-91088888D01*
G36*
X131504054Y-91809275D02*
G01*
X131504053Y-91817486D01*
X131503575Y-92030390D01*
X131502280Y-92226911D01*
X131500268Y-92401307D01*
X131497642Y-92547831D01*
X131494505Y-92660739D01*
X131490958Y-92734287D01*
X131487103Y-92762729D01*
X131471078Y-92766133D01*
X131410019Y-92770501D01*
X131310374Y-92774230D01*
X131179297Y-92777130D01*
X131023944Y-92779010D01*
X130851468Y-92779679D01*
X130232782Y-92779679D01*
X130232782Y-92551925D01*
X130734935Y-92545032D01*
X131237087Y-92538138D01*
X131251227Y-91840018D01*
X130245495Y-91826226D01*
X130245495Y-91622822D01*
X130747647Y-91615929D01*
X131249799Y-91609035D01*
X131249799Y-91102676D01*
X130245495Y-91088888D01*
X130229859Y-90872772D01*
X131504054Y-90872772D01*
X131504054Y-91809275D01*
G37*
X131504054Y-91809275D02*
X131504053Y-91817486D01*
X131503575Y-92030390D01*
X131502280Y-92226911D01*
X131500268Y-92401307D01*
X131497642Y-92547831D01*
X131494505Y-92660739D01*
X131490958Y-92734287D01*
X131487103Y-92762729D01*
X131471078Y-92766133D01*
X131410019Y-92770501D01*
X131310374Y-92774230D01*
X131179297Y-92777130D01*
X131023944Y-92779010D01*
X130851468Y-92779679D01*
X130232782Y-92779679D01*
X130232782Y-92551925D01*
X130734935Y-92545032D01*
X131237087Y-92538138D01*
X131251227Y-91840018D01*
X130245495Y-91826226D01*
X130245495Y-91622822D01*
X130747647Y-91615929D01*
X131249799Y-91609035D01*
X131249799Y-91102676D01*
X130245495Y-91088888D01*
X130229859Y-90872772D01*
X131504054Y-90872772D01*
X131504054Y-91809275D01*
X129241265Y-90874931D02*
X129086357Y-90882649D01*
X129086357Y-90882649D02*
X128961378Y-90897789D01*
X128961378Y-90897789D02*
X128855936Y-90922214D01*
X128855936Y-90922214D02*
X128759636Y-90957786D01*
X128759636Y-90957786D02*
X128662086Y-91006370D01*
X128662086Y-91006370D02*
X128648190Y-91014062D01*
X128648190Y-91014062D02*
X128513969Y-91109656D01*
X128513969Y-91109656D02*
X128404049Y-91236175D01*
X128404049Y-91236175D02*
X128312815Y-91397058D01*
X128312815Y-91397058D02*
X128278051Y-91477861D01*
X128278051Y-91477861D02*
X128256575Y-91552303D01*
X128256575Y-91552303D02*
X128245097Y-91637975D01*
X128245097Y-91637975D02*
X128240326Y-91752468D01*
X128240326Y-91752468D02*
X128239799Y-91787437D01*
X128239799Y-91787437D02*
X128248499Y-91987634D01*
X128248499Y-91987634D02*
X128282908Y-92153895D01*
X128282908Y-92153895D02*
X128347510Y-92298492D01*
X128347510Y-92298492D02*
X128446785Y-92433699D01*
X128446785Y-92433699D02*
X128494698Y-92485336D01*
X128494698Y-92485336D02*
X128597641Y-92581436D01*
X128597641Y-92581436D02*
X128696670Y-92649173D01*
X128696670Y-92649173D02*
X128808389Y-92697034D01*
X128808389Y-92697034D02*
X128949397Y-92733504D01*
X128949397Y-92733504D02*
X128999649Y-92743447D01*
X128999649Y-92743447D02*
X129082789Y-92755007D01*
X129082789Y-92755007D02*
X129192824Y-92764568D01*
X129192824Y-92764568D02*
X129319209Y-92771889D01*
X129319209Y-92771889D02*
X129451403Y-92776724D01*
X129451403Y-92776724D02*
X129578860Y-92778830D01*
X129578860Y-92778830D02*
X129691039Y-92777964D01*
X129691039Y-92777964D02*
X129777394Y-92773882D01*
X129777394Y-92773882D02*
X129827384Y-92766341D01*
X129827384Y-92766341D02*
X129834451Y-92762729D01*
X129834451Y-92762729D02*
X129838305Y-92734287D01*
X129838305Y-92734287D02*
X129841852Y-92660739D01*
X129841852Y-92660739D02*
X129844990Y-92547831D01*
X129844990Y-92547831D02*
X129847615Y-92401307D01*
X129847615Y-92401307D02*
X129849627Y-92226911D01*
X129849627Y-92226911D02*
X129850923Y-92030390D01*
X129850923Y-92030390D02*
X129851400Y-91817486D01*
X129851400Y-91817486D02*
X129851401Y-91809275D01*
X129851401Y-91809275D02*
X129851401Y-91076176D01*
X129851401Y-91076176D02*
X129571721Y-91076176D01*
X129571721Y-91076176D02*
X129571721Y-92556476D01*
X129571721Y-92556476D02*
X129298398Y-92546132D01*
X129298398Y-92546132D02*
X129155308Y-92538082D01*
X129155308Y-92538082D02*
X129048608Y-92524877D01*
X129048608Y-92524877D02*
X128963912Y-92504086D01*
X128963912Y-92504086D02*
X128897948Y-92478393D01*
X128897948Y-92478393D02*
X128743947Y-92389439D01*
X128743947Y-92389439D02*
X128631464Y-92277761D01*
X128631464Y-92277761D02*
X128556856Y-92137786D01*
X128556856Y-92137786D02*
X128516482Y-91963941D01*
X128516482Y-91963941D02*
X128509081Y-91883322D01*
X128509081Y-91883322D02*
X128513802Y-91672240D01*
X128513802Y-91672240D02*
X128555841Y-91495433D01*
X128555841Y-91495433D02*
X128636069Y-91351866D01*
X128636069Y-91351866D02*
X128755353Y-91240506D01*
X128755353Y-91240506D02*
X128914563Y-91160320D01*
X128914563Y-91160320D02*
X129114566Y-91110274D01*
X129114566Y-91110274D02*
X129164923Y-91103106D01*
X129164923Y-91103106D02*
X129277999Y-91090369D01*
X129277999Y-91090369D02*
X129384102Y-91080883D01*
X129384102Y-91080883D02*
X129463688Y-91076343D01*
X129463688Y-91076343D02*
X129475709Y-91076176D01*
X129475709Y-91076176D02*
X129571721Y-91076176D01*
X129571721Y-91076176D02*
X129851401Y-91076176D01*
X129851401Y-91076176D02*
X129851401Y-90872772D01*
X129851401Y-90872772D02*
X129436496Y-90872772D01*
X129436496Y-90872772D02*
X129241265Y-90874931D01*
X129241265Y-90874931D02*
X129241265Y-90874931D01*
G36*
X129851400Y-91817486D02*
G01*
X129850923Y-92030390D01*
X129849627Y-92226911D01*
X129847615Y-92401307D01*
X129844990Y-92547831D01*
X129841852Y-92660739D01*
X129838305Y-92734287D01*
X129834451Y-92762729D01*
X129827384Y-92766341D01*
X129777394Y-92773882D01*
X129691039Y-92777964D01*
X129578860Y-92778830D01*
X129451403Y-92776724D01*
X129319209Y-92771889D01*
X129192824Y-92764568D01*
X129082789Y-92755007D01*
X128999649Y-92743447D01*
X128949397Y-92733504D01*
X128808389Y-92697034D01*
X128696670Y-92649173D01*
X128597641Y-92581436D01*
X128494698Y-92485336D01*
X128446785Y-92433699D01*
X128347510Y-92298492D01*
X128282908Y-92153895D01*
X128248499Y-91987634D01*
X128243966Y-91883322D01*
X128509081Y-91883322D01*
X128516482Y-91963941D01*
X128556856Y-92137786D01*
X128631464Y-92277761D01*
X128743947Y-92389439D01*
X128897948Y-92478393D01*
X128963912Y-92504086D01*
X129048608Y-92524877D01*
X129155308Y-92538082D01*
X129298398Y-92546132D01*
X129571721Y-92556476D01*
X129571721Y-91076176D01*
X129475709Y-91076176D01*
X129463688Y-91076343D01*
X129384102Y-91080883D01*
X129277999Y-91090369D01*
X129164923Y-91103106D01*
X129114566Y-91110274D01*
X128914563Y-91160320D01*
X128755353Y-91240506D01*
X128636069Y-91351866D01*
X128555841Y-91495433D01*
X128513802Y-91672240D01*
X128509081Y-91883322D01*
X128243966Y-91883322D01*
X128239799Y-91787437D01*
X128240326Y-91752468D01*
X128245097Y-91637975D01*
X128256575Y-91552303D01*
X128278051Y-91477861D01*
X128312815Y-91397058D01*
X128404049Y-91236175D01*
X128513969Y-91109656D01*
X128648190Y-91014062D01*
X128662086Y-91006370D01*
X128759636Y-90957786D01*
X128855936Y-90922214D01*
X128961378Y-90897789D01*
X129086357Y-90882649D01*
X129241265Y-90874931D01*
X129436496Y-90872772D01*
X129851401Y-90872772D01*
X129851401Y-91809275D01*
X129851400Y-91817486D01*
G37*
X129851400Y-91817486D02*
X129850923Y-92030390D01*
X129849627Y-92226911D01*
X129847615Y-92401307D01*
X129844990Y-92547831D01*
X129841852Y-92660739D01*
X129838305Y-92734287D01*
X129834451Y-92762729D01*
X129827384Y-92766341D01*
X129777394Y-92773882D01*
X129691039Y-92777964D01*
X129578860Y-92778830D01*
X129451403Y-92776724D01*
X129319209Y-92771889D01*
X129192824Y-92764568D01*
X129082789Y-92755007D01*
X128999649Y-92743447D01*
X128949397Y-92733504D01*
X128808389Y-92697034D01*
X128696670Y-92649173D01*
X128597641Y-92581436D01*
X128494698Y-92485336D01*
X128446785Y-92433699D01*
X128347510Y-92298492D01*
X128282908Y-92153895D01*
X128248499Y-91987634D01*
X128243966Y-91883322D01*
X128509081Y-91883322D01*
X128516482Y-91963941D01*
X128556856Y-92137786D01*
X128631464Y-92277761D01*
X128743947Y-92389439D01*
X128897948Y-92478393D01*
X128963912Y-92504086D01*
X129048608Y-92524877D01*
X129155308Y-92538082D01*
X129298398Y-92546132D01*
X129571721Y-92556476D01*
X129571721Y-91076176D01*
X129475709Y-91076176D01*
X129463688Y-91076343D01*
X129384102Y-91080883D01*
X129277999Y-91090369D01*
X129164923Y-91103106D01*
X129114566Y-91110274D01*
X128914563Y-91160320D01*
X128755353Y-91240506D01*
X128636069Y-91351866D01*
X128555841Y-91495433D01*
X128513802Y-91672240D01*
X128509081Y-91883322D01*
X128243966Y-91883322D01*
X128239799Y-91787437D01*
X128240326Y-91752468D01*
X128245097Y-91637975D01*
X128256575Y-91552303D01*
X128278051Y-91477861D01*
X128312815Y-91397058D01*
X128404049Y-91236175D01*
X128513969Y-91109656D01*
X128648190Y-91014062D01*
X128662086Y-91006370D01*
X128759636Y-90957786D01*
X128855936Y-90922214D01*
X128961378Y-90897789D01*
X129086357Y-90882649D01*
X129241265Y-90874931D01*
X129436496Y-90872772D01*
X129851401Y-90872772D01*
X129851401Y-91809275D01*
X129851400Y-91817486D01*
X140600000Y-90852092D02*
X140517367Y-90860060D01*
X140517367Y-90860060D02*
X140510396Y-91285935D01*
X140510396Y-91285935D02*
X140507070Y-91446299D01*
X140507070Y-91446299D02*
X140502700Y-91562263D01*
X140502700Y-91562263D02*
X140496630Y-91640275D01*
X140496630Y-91640275D02*
X140488203Y-91686785D01*
X140488203Y-91686785D02*
X140476762Y-91708241D01*
X140476762Y-91708241D02*
X140467015Y-91711811D01*
X140467015Y-91711811D02*
X140446513Y-91698471D01*
X140446513Y-91698471D02*
X140433164Y-91653118D01*
X140433164Y-91653118D02*
X140425062Y-91567751D01*
X140425062Y-91567751D02*
X140423136Y-91527477D01*
X140423136Y-91527477D02*
X140415665Y-91343143D01*
X140415665Y-91343143D02*
X140320320Y-91335252D01*
X140320320Y-91335252D02*
X140224975Y-91327360D01*
X140224975Y-91327360D02*
X140224975Y-91519586D01*
X140224975Y-91519586D02*
X140222858Y-91621445D01*
X140222858Y-91621445D02*
X140215390Y-91681351D01*
X140215390Y-91681351D02*
X140200893Y-91708067D01*
X140200893Y-91708067D02*
X140188165Y-91711811D01*
X140188165Y-91711811D02*
X140163700Y-91694510D01*
X140163700Y-91694510D02*
X140149001Y-91638009D01*
X140149001Y-91638009D02*
X140143671Y-91578328D01*
X140143671Y-91578328D02*
X140135986Y-91444844D01*
X140135986Y-91444844D02*
X140040640Y-91436953D01*
X140040640Y-91436953D02*
X139945295Y-91429062D01*
X139945295Y-91429062D02*
X139945295Y-91621288D01*
X139945295Y-91621288D02*
X139943179Y-91723147D01*
X139943179Y-91723147D02*
X139935711Y-91783052D01*
X139935711Y-91783052D02*
X139921213Y-91809768D01*
X139921213Y-91809768D02*
X139908486Y-91813513D01*
X139908486Y-91813513D02*
X139884020Y-91796212D01*
X139884020Y-91796212D02*
X139869321Y-91739710D01*
X139869321Y-91739710D02*
X139863991Y-91680030D01*
X139863991Y-91680030D02*
X139857688Y-91602534D01*
X139857688Y-91602534D02*
X139845931Y-91563898D01*
X139845931Y-91563898D02*
X139822023Y-91552145D01*
X139822023Y-91552145D02*
X139793283Y-91553633D01*
X139793283Y-91553633D02*
X139734213Y-91568970D01*
X139734213Y-91568970D02*
X139704294Y-91586644D01*
X139704294Y-91586644D02*
X139690109Y-91625419D01*
X139690109Y-91625419D02*
X139679205Y-91701260D01*
X139679205Y-91701260D02*
X139671962Y-91800464D01*
X139671962Y-91800464D02*
X139668757Y-91909331D01*
X139668757Y-91909331D02*
X139669968Y-92014157D01*
X139669968Y-92014157D02*
X139675973Y-92101241D01*
X139675973Y-92101241D02*
X139687150Y-92156880D01*
X139687150Y-92156880D02*
X139688476Y-92159992D01*
X139688476Y-92159992D02*
X139719904Y-92231684D01*
X139719904Y-92231684D02*
X139738490Y-92277527D01*
X139738490Y-92277527D02*
X139766709Y-92347181D01*
X139766709Y-92347181D02*
X139788618Y-92398298D01*
X139788618Y-92398298D02*
X139810629Y-92459253D01*
X139810629Y-92459253D02*
X139836320Y-92545961D01*
X139836320Y-92545961D02*
X139850780Y-92601701D01*
X139850780Y-92601701D02*
X139884836Y-92741541D01*
X139884836Y-92741541D02*
X140216466Y-92748610D01*
X140216466Y-92748610D02*
X140364400Y-92750298D01*
X140364400Y-92750298D02*
X140467869Y-92747723D01*
X140467869Y-92747723D02*
X140533119Y-92740435D01*
X140533119Y-92740435D02*
X140566393Y-92727988D01*
X140566393Y-92727988D02*
X140571071Y-92723184D01*
X140571071Y-92723184D02*
X140596551Y-92679414D01*
X140596551Y-92679414D02*
X140629499Y-92613795D01*
X140629499Y-92613795D02*
X140635156Y-92601701D01*
X140635156Y-92601701D02*
X140706898Y-92451570D01*
X140706898Y-92451570D02*
X140777406Y-92313343D01*
X140777406Y-92313343D02*
X140840896Y-92197879D01*
X140840896Y-92197879D02*
X140891587Y-92116035D01*
X140891587Y-92116035D02*
X140900295Y-92103824D01*
X140900295Y-92103824D02*
X140980336Y-91984502D01*
X140980336Y-91984502D02*
X141036147Y-91877455D01*
X141036147Y-91877455D02*
X141062578Y-91793036D01*
X141062578Y-91793036D02*
X141064014Y-91774602D01*
X141064014Y-91774602D02*
X141048116Y-91724669D01*
X141048116Y-91724669D02*
X141005595Y-91711202D01*
X141005595Y-91711202D02*
X140944210Y-91733201D01*
X140944210Y-91733201D02*
X140871721Y-91789668D01*
X140871721Y-91789668D02*
X140860610Y-91800800D01*
X140860610Y-91800800D02*
X140800713Y-91853390D01*
X140800713Y-91853390D02*
X140747123Y-91885330D01*
X140747123Y-91885330D02*
X140728496Y-91889789D01*
X140728496Y-91889789D02*
X140713067Y-91886696D01*
X140713067Y-91886696D02*
X140701536Y-91873140D01*
X140701536Y-91873140D02*
X140693340Y-91842705D01*
X140693340Y-91842705D02*
X140687916Y-91788975D01*
X140687916Y-91788975D02*
X140684701Y-91705536D01*
X140684701Y-91705536D02*
X140683134Y-91585972D01*
X140683134Y-91585972D02*
X140682650Y-91423866D01*
X140682650Y-91423866D02*
X140682632Y-91366957D01*
X140682632Y-91366957D02*
X140682632Y-90844125D01*
X140682632Y-90844125D02*
X140600000Y-90852092D01*
X140600000Y-90852092D02*
X140600000Y-90852092D01*
G36*
X140682632Y-91366957D02*
G01*
X140682650Y-91423866D01*
X140683134Y-91585972D01*
X140684701Y-91705536D01*
X140687916Y-91788975D01*
X140693340Y-91842705D01*
X140701536Y-91873140D01*
X140713067Y-91886696D01*
X140728496Y-91889789D01*
X140747123Y-91885330D01*
X140800713Y-91853390D01*
X140860610Y-91800800D01*
X140871721Y-91789668D01*
X140944210Y-91733201D01*
X141005595Y-91711202D01*
X141048116Y-91724669D01*
X141064014Y-91774602D01*
X141062578Y-91793036D01*
X141036147Y-91877455D01*
X140980336Y-91984502D01*
X140900295Y-92103824D01*
X140891587Y-92116035D01*
X140840896Y-92197879D01*
X140777406Y-92313343D01*
X140706898Y-92451570D01*
X140635156Y-92601701D01*
X140629499Y-92613795D01*
X140596551Y-92679414D01*
X140571071Y-92723184D01*
X140566393Y-92727988D01*
X140533119Y-92740435D01*
X140467869Y-92747723D01*
X140364400Y-92750298D01*
X140216466Y-92748610D01*
X139884836Y-92741541D01*
X139850780Y-92601701D01*
X139836320Y-92545961D01*
X139810629Y-92459253D01*
X139788618Y-92398298D01*
X139766709Y-92347181D01*
X139738490Y-92277527D01*
X139719904Y-92231684D01*
X139688476Y-92159992D01*
X139687150Y-92156880D01*
X139675973Y-92101241D01*
X139669968Y-92014157D01*
X139668757Y-91909331D01*
X139671962Y-91800464D01*
X139679205Y-91701260D01*
X139690109Y-91625419D01*
X139704294Y-91586644D01*
X139734213Y-91568970D01*
X139793283Y-91553633D01*
X139822023Y-91552145D01*
X139845931Y-91563898D01*
X139857688Y-91602534D01*
X139863991Y-91680030D01*
X139869321Y-91739710D01*
X139884020Y-91796212D01*
X139908486Y-91813513D01*
X139921213Y-91809768D01*
X139935711Y-91783052D01*
X139943179Y-91723147D01*
X139945295Y-91621288D01*
X139945295Y-91429062D01*
X140040640Y-91436953D01*
X140135986Y-91444844D01*
X140143671Y-91578328D01*
X140149001Y-91638009D01*
X140163700Y-91694510D01*
X140188165Y-91711811D01*
X140200893Y-91708067D01*
X140215390Y-91681351D01*
X140222858Y-91621445D01*
X140224975Y-91519586D01*
X140224975Y-91327360D01*
X140320320Y-91335252D01*
X140415665Y-91343143D01*
X140423136Y-91527477D01*
X140425062Y-91567751D01*
X140433164Y-91653118D01*
X140446513Y-91698471D01*
X140467015Y-91711811D01*
X140476762Y-91708241D01*
X140488203Y-91686785D01*
X140496630Y-91640275D01*
X140502700Y-91562263D01*
X140507070Y-91446299D01*
X140510396Y-91285935D01*
X140517367Y-90860060D01*
X140600000Y-90852092D01*
X140682632Y-90844125D01*
X140682632Y-91366957D01*
G37*
X140682632Y-91366957D02*
X140682650Y-91423866D01*
X140683134Y-91585972D01*
X140684701Y-91705536D01*
X140687916Y-91788975D01*
X140693340Y-91842705D01*
X140701536Y-91873140D01*
X140713067Y-91886696D01*
X140728496Y-91889789D01*
X140747123Y-91885330D01*
X140800713Y-91853390D01*
X140860610Y-91800800D01*
X140871721Y-91789668D01*
X140944210Y-91733201D01*
X141005595Y-91711202D01*
X141048116Y-91724669D01*
X141064014Y-91774602D01*
X141062578Y-91793036D01*
X141036147Y-91877455D01*
X140980336Y-91984502D01*
X140900295Y-92103824D01*
X140891587Y-92116035D01*
X140840896Y-92197879D01*
X140777406Y-92313343D01*
X140706898Y-92451570D01*
X140635156Y-92601701D01*
X140629499Y-92613795D01*
X140596551Y-92679414D01*
X140571071Y-92723184D01*
X140566393Y-92727988D01*
X140533119Y-92740435D01*
X140467869Y-92747723D01*
X140364400Y-92750298D01*
X140216466Y-92748610D01*
X139884836Y-92741541D01*
X139850780Y-92601701D01*
X139836320Y-92545961D01*
X139810629Y-92459253D01*
X139788618Y-92398298D01*
X139766709Y-92347181D01*
X139738490Y-92277527D01*
X139719904Y-92231684D01*
X139688476Y-92159992D01*
X139687150Y-92156880D01*
X139675973Y-92101241D01*
X139669968Y-92014157D01*
X139668757Y-91909331D01*
X139671962Y-91800464D01*
X139679205Y-91701260D01*
X139690109Y-91625419D01*
X139704294Y-91586644D01*
X139734213Y-91568970D01*
X139793283Y-91553633D01*
X139822023Y-91552145D01*
X139845931Y-91563898D01*
X139857688Y-91602534D01*
X139863991Y-91680030D01*
X139869321Y-91739710D01*
X139884020Y-91796212D01*
X139908486Y-91813513D01*
X139921213Y-91809768D01*
X139935711Y-91783052D01*
X139943179Y-91723147D01*
X139945295Y-91621288D01*
X139945295Y-91429062D01*
X140040640Y-91436953D01*
X140135986Y-91444844D01*
X140143671Y-91578328D01*
X140149001Y-91638009D01*
X140163700Y-91694510D01*
X140188165Y-91711811D01*
X140200893Y-91708067D01*
X140215390Y-91681351D01*
X140222858Y-91621445D01*
X140224975Y-91519586D01*
X140224975Y-91327360D01*
X140320320Y-91335252D01*
X140415665Y-91343143D01*
X140423136Y-91527477D01*
X140425062Y-91567751D01*
X140433164Y-91653118D01*
X140446513Y-91698471D01*
X140467015Y-91711811D01*
X140476762Y-91708241D01*
X140488203Y-91686785D01*
X140496630Y-91640275D01*
X140502700Y-91562263D01*
X140507070Y-91446299D01*
X140510396Y-91285935D01*
X140517367Y-90860060D01*
X140600000Y-90852092D01*
X140682632Y-90844125D01*
X140682632Y-91366957D01*
%TD*%
M02*
