%TF.GenerationSoftware,KiCad,Pcbnew,8.0.8*%
%TF.CreationDate,2025-02-13T00:23:47-07:00*%
%TF.ProjectId,Uno_Shield_ThermoPro,556e6f5f-5368-4696-956c-645f54686572,rev?*%
%TF.SameCoordinates,Original*%
%TF.FileFunction,Legend,Top*%
%TF.FilePolarity,Positive*%
%FSLAX46Y46*%
G04 Gerber Fmt 4.6, Leading zero omitted, Abs format (unit mm)*
G04 Created by KiCad (PCBNEW 8.0.8) date 2025-02-13 00:23:47*
%MOMM*%
%LPD*%
G01*
G04 APERTURE LIST*
%ADD10C,0.150000*%
%ADD11C,0.100000*%
%ADD12C,0.120000*%
G04 APERTURE END LIST*
D10*
X126060000Y-60560000D02*
X126060000Y-52560000D01*
X106060000Y-49980000D02*
X106060000Y-53980000D01*
X106060000Y-49980000D02*
X110060000Y-49980000D01*
D11*
X101190000Y-67265000D02*
X128490000Y-67265000D01*
X128490000Y-95065000D01*
X101190000Y-95065000D01*
X101190000Y-67265000D01*
D10*
X153515350Y-51863152D02*
X153515350Y-52529819D01*
X153277255Y-51482200D02*
X153039160Y-52196485D01*
X153039160Y-52196485D02*
X153658207Y-52196485D01*
X113219819Y-71567030D02*
X113219819Y-72043220D01*
X113219819Y-72043220D02*
X113696009Y-72090839D01*
X113696009Y-72090839D02*
X113648390Y-72043220D01*
X113648390Y-72043220D02*
X113600771Y-71947982D01*
X113600771Y-71947982D02*
X113600771Y-71709887D01*
X113600771Y-71709887D02*
X113648390Y-71614649D01*
X113648390Y-71614649D02*
X113696009Y-71567030D01*
X113696009Y-71567030D02*
X113791247Y-71519411D01*
X113791247Y-71519411D02*
X114029342Y-71519411D01*
X114029342Y-71519411D02*
X114124580Y-71567030D01*
X114124580Y-71567030D02*
X114172200Y-71614649D01*
X114172200Y-71614649D02*
X114219819Y-71709887D01*
X114219819Y-71709887D02*
X114219819Y-71947982D01*
X114219819Y-71947982D02*
X114172200Y-72043220D01*
X114172200Y-72043220D02*
X114124580Y-72090839D01*
X113219819Y-71233696D02*
X114219819Y-70900363D01*
X114219819Y-70900363D02*
X113219819Y-70567030D01*
X138379636Y-50989819D02*
X138379636Y-51227914D01*
X138141541Y-51132676D02*
X138379636Y-51227914D01*
X138379636Y-51227914D02*
X138617731Y-51132676D01*
X138236779Y-51418390D02*
X138379636Y-51227914D01*
X138379636Y-51227914D02*
X138522493Y-51418390D01*
X139046303Y-51989819D02*
X139236779Y-51989819D01*
X139236779Y-51989819D02*
X139332017Y-51942200D01*
X139332017Y-51942200D02*
X139379636Y-51894580D01*
X139379636Y-51894580D02*
X139474874Y-51751723D01*
X139474874Y-51751723D02*
X139522493Y-51561247D01*
X139522493Y-51561247D02*
X139522493Y-51180295D01*
X139522493Y-51180295D02*
X139474874Y-51085057D01*
X139474874Y-51085057D02*
X139427255Y-51037438D01*
X139427255Y-51037438D02*
X139332017Y-50989819D01*
X139332017Y-50989819D02*
X139141541Y-50989819D01*
X139141541Y-50989819D02*
X139046303Y-51037438D01*
X139046303Y-51037438D02*
X138998684Y-51085057D01*
X138998684Y-51085057D02*
X138951065Y-51180295D01*
X138951065Y-51180295D02*
X138951065Y-51418390D01*
X138951065Y-51418390D02*
X138998684Y-51513628D01*
X138998684Y-51513628D02*
X139046303Y-51561247D01*
X139046303Y-51561247D02*
X139141541Y-51608866D01*
X139141541Y-51608866D02*
X139332017Y-51608866D01*
X139332017Y-51608866D02*
X139427255Y-51561247D01*
X139427255Y-51561247D02*
X139474874Y-51513628D01*
X139474874Y-51513628D02*
X139522493Y-51418390D01*
X137922969Y-94639819D02*
X137446779Y-94639819D01*
X137446779Y-94639819D02*
X137399160Y-95116009D01*
X137399160Y-95116009D02*
X137446779Y-95068390D01*
X137446779Y-95068390D02*
X137542017Y-95020771D01*
X137542017Y-95020771D02*
X137780112Y-95020771D01*
X137780112Y-95020771D02*
X137875350Y-95068390D01*
X137875350Y-95068390D02*
X137922969Y-95116009D01*
X137922969Y-95116009D02*
X137970588Y-95211247D01*
X137970588Y-95211247D02*
X137970588Y-95449342D01*
X137970588Y-95449342D02*
X137922969Y-95544580D01*
X137922969Y-95544580D02*
X137875350Y-95592200D01*
X137875350Y-95592200D02*
X137780112Y-95639819D01*
X137780112Y-95639819D02*
X137542017Y-95639819D01*
X137542017Y-95639819D02*
X137446779Y-95592200D01*
X137446779Y-95592200D02*
X137399160Y-95544580D01*
X138256303Y-94639819D02*
X138589636Y-95639819D01*
X138589636Y-95639819D02*
X138922969Y-94639819D01*
X109237438Y-61389411D02*
X109189819Y-61484649D01*
X109189819Y-61484649D02*
X109189819Y-61627506D01*
X109189819Y-61627506D02*
X109237438Y-61770363D01*
X109237438Y-61770363D02*
X109332676Y-61865601D01*
X109332676Y-61865601D02*
X109427914Y-61913220D01*
X109427914Y-61913220D02*
X109618390Y-61960839D01*
X109618390Y-61960839D02*
X109761247Y-61960839D01*
X109761247Y-61960839D02*
X109951723Y-61913220D01*
X109951723Y-61913220D02*
X110046961Y-61865601D01*
X110046961Y-61865601D02*
X110142200Y-61770363D01*
X110142200Y-61770363D02*
X110189819Y-61627506D01*
X110189819Y-61627506D02*
X110189819Y-61532268D01*
X110189819Y-61532268D02*
X110142200Y-61389411D01*
X110142200Y-61389411D02*
X110094580Y-61341792D01*
X110094580Y-61341792D02*
X109761247Y-61341792D01*
X109761247Y-61341792D02*
X109761247Y-61532268D01*
X110189819Y-60913220D02*
X109189819Y-60913220D01*
X109189819Y-60913220D02*
X110189819Y-60341792D01*
X110189819Y-60341792D02*
X109189819Y-60341792D01*
X110189819Y-59865601D02*
X109189819Y-59865601D01*
X109189819Y-59865601D02*
X109189819Y-59627506D01*
X109189819Y-59627506D02*
X109237438Y-59484649D01*
X109237438Y-59484649D02*
X109332676Y-59389411D01*
X109332676Y-59389411D02*
X109427914Y-59341792D01*
X109427914Y-59341792D02*
X109618390Y-59294173D01*
X109618390Y-59294173D02*
X109761247Y-59294173D01*
X109761247Y-59294173D02*
X109951723Y-59341792D01*
X109951723Y-59341792D02*
X110046961Y-59389411D01*
X110046961Y-59389411D02*
X110142200Y-59484649D01*
X110142200Y-59484649D02*
X110189819Y-59627506D01*
X110189819Y-59627506D02*
X110189819Y-59865601D01*
X150029636Y-51529819D02*
X150029636Y-51767914D01*
X149791541Y-51672676D02*
X150029636Y-51767914D01*
X150029636Y-51767914D02*
X150267731Y-51672676D01*
X149886779Y-51958390D02*
X150029636Y-51767914D01*
X150029636Y-51767914D02*
X150172493Y-51958390D01*
X151124874Y-51529819D02*
X150648684Y-51529819D01*
X150648684Y-51529819D02*
X150601065Y-52006009D01*
X150601065Y-52006009D02*
X150648684Y-51958390D01*
X150648684Y-51958390D02*
X150743922Y-51910771D01*
X150743922Y-51910771D02*
X150982017Y-51910771D01*
X150982017Y-51910771D02*
X151077255Y-51958390D01*
X151077255Y-51958390D02*
X151124874Y-52006009D01*
X151124874Y-52006009D02*
X151172493Y-52101247D01*
X151172493Y-52101247D02*
X151172493Y-52339342D01*
X151172493Y-52339342D02*
X151124874Y-52434580D01*
X151124874Y-52434580D02*
X151077255Y-52482200D01*
X151077255Y-52482200D02*
X150982017Y-52529819D01*
X150982017Y-52529819D02*
X150743922Y-52529819D01*
X150743922Y-52529819D02*
X150648684Y-52482200D01*
X150648684Y-52482200D02*
X150601065Y-52434580D01*
X116432200Y-72910839D02*
X116479819Y-72767982D01*
X116479819Y-72767982D02*
X116479819Y-72529887D01*
X116479819Y-72529887D02*
X116432200Y-72434649D01*
X116432200Y-72434649D02*
X116384580Y-72387030D01*
X116384580Y-72387030D02*
X116289342Y-72339411D01*
X116289342Y-72339411D02*
X116194104Y-72339411D01*
X116194104Y-72339411D02*
X116098866Y-72387030D01*
X116098866Y-72387030D02*
X116051247Y-72434649D01*
X116051247Y-72434649D02*
X116003628Y-72529887D01*
X116003628Y-72529887D02*
X115956009Y-72720363D01*
X115956009Y-72720363D02*
X115908390Y-72815601D01*
X115908390Y-72815601D02*
X115860771Y-72863220D01*
X115860771Y-72863220D02*
X115765533Y-72910839D01*
X115765533Y-72910839D02*
X115670295Y-72910839D01*
X115670295Y-72910839D02*
X115575057Y-72863220D01*
X115575057Y-72863220D02*
X115527438Y-72815601D01*
X115527438Y-72815601D02*
X115479819Y-72720363D01*
X115479819Y-72720363D02*
X115479819Y-72482268D01*
X115479819Y-72482268D02*
X115527438Y-72339411D01*
X116384580Y-71339411D02*
X116432200Y-71387030D01*
X116432200Y-71387030D02*
X116479819Y-71529887D01*
X116479819Y-71529887D02*
X116479819Y-71625125D01*
X116479819Y-71625125D02*
X116432200Y-71767982D01*
X116432200Y-71767982D02*
X116336961Y-71863220D01*
X116336961Y-71863220D02*
X116241723Y-71910839D01*
X116241723Y-71910839D02*
X116051247Y-71958458D01*
X116051247Y-71958458D02*
X115908390Y-71958458D01*
X115908390Y-71958458D02*
X115717914Y-71910839D01*
X115717914Y-71910839D02*
X115622676Y-71863220D01*
X115622676Y-71863220D02*
X115527438Y-71767982D01*
X115527438Y-71767982D02*
X115479819Y-71625125D01*
X115479819Y-71625125D02*
X115479819Y-71529887D01*
X115479819Y-71529887D02*
X115527438Y-71387030D01*
X115527438Y-71387030D02*
X115575057Y-71339411D01*
X116479819Y-70434649D02*
X116479819Y-70910839D01*
X116479819Y-70910839D02*
X115479819Y-70910839D01*
X121662200Y-53510839D02*
X121709819Y-53367982D01*
X121709819Y-53367982D02*
X121709819Y-53129887D01*
X121709819Y-53129887D02*
X121662200Y-53034649D01*
X121662200Y-53034649D02*
X121614580Y-52987030D01*
X121614580Y-52987030D02*
X121519342Y-52939411D01*
X121519342Y-52939411D02*
X121424104Y-52939411D01*
X121424104Y-52939411D02*
X121328866Y-52987030D01*
X121328866Y-52987030D02*
X121281247Y-53034649D01*
X121281247Y-53034649D02*
X121233628Y-53129887D01*
X121233628Y-53129887D02*
X121186009Y-53320363D01*
X121186009Y-53320363D02*
X121138390Y-53415601D01*
X121138390Y-53415601D02*
X121090771Y-53463220D01*
X121090771Y-53463220D02*
X120995533Y-53510839D01*
X120995533Y-53510839D02*
X120900295Y-53510839D01*
X120900295Y-53510839D02*
X120805057Y-53463220D01*
X120805057Y-53463220D02*
X120757438Y-53415601D01*
X120757438Y-53415601D02*
X120709819Y-53320363D01*
X120709819Y-53320363D02*
X120709819Y-53082268D01*
X120709819Y-53082268D02*
X120757438Y-52939411D01*
X121709819Y-52510839D02*
X120709819Y-52510839D01*
X120709819Y-52510839D02*
X120709819Y-52272744D01*
X120709819Y-52272744D02*
X120757438Y-52129887D01*
X120757438Y-52129887D02*
X120852676Y-52034649D01*
X120852676Y-52034649D02*
X120947914Y-51987030D01*
X120947914Y-51987030D02*
X121138390Y-51939411D01*
X121138390Y-51939411D02*
X121281247Y-51939411D01*
X121281247Y-51939411D02*
X121471723Y-51987030D01*
X121471723Y-51987030D02*
X121566961Y-52034649D01*
X121566961Y-52034649D02*
X121662200Y-52129887D01*
X121662200Y-52129887D02*
X121709819Y-52272744D01*
X121709819Y-52272744D02*
X121709819Y-52510839D01*
X121424104Y-51558458D02*
X121424104Y-51082268D01*
X121709819Y-51653696D02*
X120709819Y-51320363D01*
X120709819Y-51320363D02*
X121709819Y-50987030D01*
X135092969Y-79539819D02*
X134616779Y-79539819D01*
X134616779Y-79539819D02*
X134616779Y-78539819D01*
X135426303Y-79539819D02*
X135426303Y-78539819D01*
X136426302Y-78587438D02*
X136331064Y-78539819D01*
X136331064Y-78539819D02*
X136188207Y-78539819D01*
X136188207Y-78539819D02*
X136045350Y-78587438D01*
X136045350Y-78587438D02*
X135950112Y-78682676D01*
X135950112Y-78682676D02*
X135902493Y-78777914D01*
X135902493Y-78777914D02*
X135854874Y-78968390D01*
X135854874Y-78968390D02*
X135854874Y-79111247D01*
X135854874Y-79111247D02*
X135902493Y-79301723D01*
X135902493Y-79301723D02*
X135950112Y-79396961D01*
X135950112Y-79396961D02*
X136045350Y-79492200D01*
X136045350Y-79492200D02*
X136188207Y-79539819D01*
X136188207Y-79539819D02*
X136283445Y-79539819D01*
X136283445Y-79539819D02*
X136426302Y-79492200D01*
X136426302Y-79492200D02*
X136473921Y-79444580D01*
X136473921Y-79444580D02*
X136473921Y-79111247D01*
X136473921Y-79111247D02*
X136283445Y-79111247D01*
X136902493Y-79539819D02*
X136902493Y-78539819D01*
X136902493Y-79016009D02*
X137473921Y-79016009D01*
X137473921Y-79539819D02*
X137473921Y-78539819D01*
X137807255Y-78539819D02*
X138378683Y-78539819D01*
X138092969Y-79539819D02*
X138092969Y-78539819D01*
X150189160Y-95174104D02*
X150665350Y-95174104D01*
X150093922Y-95459819D02*
X150427255Y-94459819D01*
X150427255Y-94459819D02*
X150760588Y-95459819D01*
X151284398Y-94459819D02*
X151379636Y-94459819D01*
X151379636Y-94459819D02*
X151474874Y-94507438D01*
X151474874Y-94507438D02*
X151522493Y-94555057D01*
X151522493Y-94555057D02*
X151570112Y-94650295D01*
X151570112Y-94650295D02*
X151617731Y-94840771D01*
X151617731Y-94840771D02*
X151617731Y-95078866D01*
X151617731Y-95078866D02*
X151570112Y-95269342D01*
X151570112Y-95269342D02*
X151522493Y-95364580D01*
X151522493Y-95364580D02*
X151474874Y-95412200D01*
X151474874Y-95412200D02*
X151379636Y-95459819D01*
X151379636Y-95459819D02*
X151284398Y-95459819D01*
X151284398Y-95459819D02*
X151189160Y-95412200D01*
X151189160Y-95412200D02*
X151141541Y-95364580D01*
X151141541Y-95364580D02*
X151093922Y-95269342D01*
X151093922Y-95269342D02*
X151046303Y-95078866D01*
X151046303Y-95078866D02*
X151046303Y-94840771D01*
X151046303Y-94840771D02*
X151093922Y-94650295D01*
X151093922Y-94650295D02*
X151141541Y-94555057D01*
X151141541Y-94555057D02*
X151189160Y-94507438D01*
X151189160Y-94507438D02*
X151284398Y-94459819D01*
X147296779Y-78309819D02*
X147296779Y-79119342D01*
X147296779Y-79119342D02*
X147344398Y-79214580D01*
X147344398Y-79214580D02*
X147392017Y-79262200D01*
X147392017Y-79262200D02*
X147487255Y-79309819D01*
X147487255Y-79309819D02*
X147677731Y-79309819D01*
X147677731Y-79309819D02*
X147772969Y-79262200D01*
X147772969Y-79262200D02*
X147820588Y-79214580D01*
X147820588Y-79214580D02*
X147868207Y-79119342D01*
X147868207Y-79119342D02*
X147868207Y-78309819D01*
X148344398Y-79309819D02*
X148344398Y-78309819D01*
X148344398Y-78309819D02*
X148915826Y-79309819D01*
X148915826Y-79309819D02*
X148915826Y-78309819D01*
X149392017Y-79309819D02*
X149392017Y-78309819D01*
X149725350Y-78309819D02*
X150296778Y-78309819D01*
X150011064Y-79309819D02*
X150011064Y-78309819D01*
X150582493Y-79262200D02*
X150725350Y-79309819D01*
X150725350Y-79309819D02*
X150963445Y-79309819D01*
X150963445Y-79309819D02*
X151058683Y-79262200D01*
X151058683Y-79262200D02*
X151106302Y-79214580D01*
X151106302Y-79214580D02*
X151153921Y-79119342D01*
X151153921Y-79119342D02*
X151153921Y-79024104D01*
X151153921Y-79024104D02*
X151106302Y-78928866D01*
X151106302Y-78928866D02*
X151058683Y-78881247D01*
X151058683Y-78881247D02*
X150963445Y-78833628D01*
X150963445Y-78833628D02*
X150772969Y-78786009D01*
X150772969Y-78786009D02*
X150677731Y-78738390D01*
X150677731Y-78738390D02*
X150630112Y-78690771D01*
X150630112Y-78690771D02*
X150582493Y-78595533D01*
X150582493Y-78595533D02*
X150582493Y-78500295D01*
X150582493Y-78500295D02*
X150630112Y-78405057D01*
X150630112Y-78405057D02*
X150677731Y-78357438D01*
X150677731Y-78357438D02*
X150772969Y-78309819D01*
X150772969Y-78309819D02*
X151011064Y-78309819D01*
X151011064Y-78309819D02*
X151153921Y-78357438D01*
X151259875Y-59759523D02*
X151259875Y-59188095D01*
X152259875Y-59473809D02*
X151259875Y-59473809D01*
X151736065Y-58854761D02*
X151736065Y-58521428D01*
X152259875Y-58378571D02*
X152259875Y-58854761D01*
X152259875Y-58854761D02*
X151259875Y-58854761D01*
X151259875Y-58854761D02*
X151259875Y-58378571D01*
X152259875Y-57949999D02*
X151259875Y-57949999D01*
X151259875Y-57949999D02*
X151974160Y-57616666D01*
X151974160Y-57616666D02*
X151259875Y-57283333D01*
X151259875Y-57283333D02*
X152259875Y-57283333D01*
X152259875Y-56807142D02*
X151259875Y-56807142D01*
X151259875Y-56807142D02*
X151259875Y-56426190D01*
X151259875Y-56426190D02*
X151307494Y-56330952D01*
X151307494Y-56330952D02*
X151355113Y-56283333D01*
X151355113Y-56283333D02*
X151450351Y-56235714D01*
X151450351Y-56235714D02*
X151593208Y-56235714D01*
X151593208Y-56235714D02*
X151688446Y-56283333D01*
X151688446Y-56283333D02*
X151736065Y-56330952D01*
X151736065Y-56330952D02*
X151783684Y-56426190D01*
X151783684Y-56426190D02*
X151783684Y-56807142D01*
X153822200Y-60711904D02*
X153869819Y-60569047D01*
X153869819Y-60569047D02*
X153869819Y-60330952D01*
X153869819Y-60330952D02*
X153822200Y-60235714D01*
X153822200Y-60235714D02*
X153774580Y-60188095D01*
X153774580Y-60188095D02*
X153679342Y-60140476D01*
X153679342Y-60140476D02*
X153584104Y-60140476D01*
X153584104Y-60140476D02*
X153488866Y-60188095D01*
X153488866Y-60188095D02*
X153441247Y-60235714D01*
X153441247Y-60235714D02*
X153393628Y-60330952D01*
X153393628Y-60330952D02*
X153346009Y-60521428D01*
X153346009Y-60521428D02*
X153298390Y-60616666D01*
X153298390Y-60616666D02*
X153250771Y-60664285D01*
X153250771Y-60664285D02*
X153155533Y-60711904D01*
X153155533Y-60711904D02*
X153060295Y-60711904D01*
X153060295Y-60711904D02*
X152965057Y-60664285D01*
X152965057Y-60664285D02*
X152917438Y-60616666D01*
X152917438Y-60616666D02*
X152869819Y-60521428D01*
X152869819Y-60521428D02*
X152869819Y-60283333D01*
X152869819Y-60283333D02*
X152917438Y-60140476D01*
X153346009Y-59711904D02*
X153346009Y-59378571D01*
X153869819Y-59235714D02*
X153869819Y-59711904D01*
X153869819Y-59711904D02*
X152869819Y-59711904D01*
X152869819Y-59711904D02*
X152869819Y-59235714D01*
X153869819Y-58807142D02*
X152869819Y-58807142D01*
X152869819Y-58807142D02*
X153869819Y-58235714D01*
X153869819Y-58235714D02*
X152869819Y-58235714D01*
X153822200Y-57807142D02*
X153869819Y-57664285D01*
X153869819Y-57664285D02*
X153869819Y-57426190D01*
X153869819Y-57426190D02*
X153822200Y-57330952D01*
X153822200Y-57330952D02*
X153774580Y-57283333D01*
X153774580Y-57283333D02*
X153679342Y-57235714D01*
X153679342Y-57235714D02*
X153584104Y-57235714D01*
X153584104Y-57235714D02*
X153488866Y-57283333D01*
X153488866Y-57283333D02*
X153441247Y-57330952D01*
X153441247Y-57330952D02*
X153393628Y-57426190D01*
X153393628Y-57426190D02*
X153346009Y-57616666D01*
X153346009Y-57616666D02*
X153298390Y-57711904D01*
X153298390Y-57711904D02*
X153250771Y-57759523D01*
X153250771Y-57759523D02*
X153155533Y-57807142D01*
X153155533Y-57807142D02*
X153060295Y-57807142D01*
X153060295Y-57807142D02*
X152965057Y-57759523D01*
X152965057Y-57759523D02*
X152917438Y-57711904D01*
X152917438Y-57711904D02*
X152869819Y-57616666D01*
X152869819Y-57616666D02*
X152869819Y-57378571D01*
X152869819Y-57378571D02*
X152917438Y-57235714D01*
X152869819Y-56616666D02*
X152869819Y-56426190D01*
X152869819Y-56426190D02*
X152917438Y-56330952D01*
X152917438Y-56330952D02*
X153012676Y-56235714D01*
X153012676Y-56235714D02*
X153203152Y-56188095D01*
X153203152Y-56188095D02*
X153536485Y-56188095D01*
X153536485Y-56188095D02*
X153726961Y-56235714D01*
X153726961Y-56235714D02*
X153822200Y-56330952D01*
X153822200Y-56330952D02*
X153869819Y-56426190D01*
X153869819Y-56426190D02*
X153869819Y-56616666D01*
X153869819Y-56616666D02*
X153822200Y-56711904D01*
X153822200Y-56711904D02*
X153726961Y-56807142D01*
X153726961Y-56807142D02*
X153536485Y-56854761D01*
X153536485Y-56854761D02*
X153203152Y-56854761D01*
X153203152Y-56854761D02*
X153012676Y-56807142D01*
X153012676Y-56807142D02*
X152917438Y-56711904D01*
X152917438Y-56711904D02*
X152869819Y-56616666D01*
X153869819Y-55188095D02*
X153393628Y-55521428D01*
X153869819Y-55759523D02*
X152869819Y-55759523D01*
X152869819Y-55759523D02*
X152869819Y-55378571D01*
X152869819Y-55378571D02*
X152917438Y-55283333D01*
X152917438Y-55283333D02*
X152965057Y-55235714D01*
X152965057Y-55235714D02*
X153060295Y-55188095D01*
X153060295Y-55188095D02*
X153203152Y-55188095D01*
X153203152Y-55188095D02*
X153298390Y-55235714D01*
X153298390Y-55235714D02*
X153346009Y-55283333D01*
X153346009Y-55283333D02*
X153393628Y-55378571D01*
X153393628Y-55378571D02*
X153393628Y-55759523D01*
X106659819Y-61207030D02*
X106659819Y-61683220D01*
X106659819Y-61683220D02*
X107136009Y-61730839D01*
X107136009Y-61730839D02*
X107088390Y-61683220D01*
X107088390Y-61683220D02*
X107040771Y-61587982D01*
X107040771Y-61587982D02*
X107040771Y-61349887D01*
X107040771Y-61349887D02*
X107088390Y-61254649D01*
X107088390Y-61254649D02*
X107136009Y-61207030D01*
X107136009Y-61207030D02*
X107231247Y-61159411D01*
X107231247Y-61159411D02*
X107469342Y-61159411D01*
X107469342Y-61159411D02*
X107564580Y-61207030D01*
X107564580Y-61207030D02*
X107612200Y-61254649D01*
X107612200Y-61254649D02*
X107659819Y-61349887D01*
X107659819Y-61349887D02*
X107659819Y-61587982D01*
X107659819Y-61587982D02*
X107612200Y-61683220D01*
X107612200Y-61683220D02*
X107564580Y-61730839D01*
X106659819Y-60873696D02*
X107659819Y-60540363D01*
X107659819Y-60540363D02*
X106659819Y-60207030D01*
X146429636Y-51119819D02*
X146429636Y-51357914D01*
X146191541Y-51262676D02*
X146429636Y-51357914D01*
X146429636Y-51357914D02*
X146667731Y-51262676D01*
X146286779Y-51548390D02*
X146429636Y-51357914D01*
X146429636Y-51357914D02*
X146572493Y-51548390D01*
X147477255Y-51119819D02*
X147286779Y-51119819D01*
X147286779Y-51119819D02*
X147191541Y-51167438D01*
X147191541Y-51167438D02*
X147143922Y-51215057D01*
X147143922Y-51215057D02*
X147048684Y-51357914D01*
X147048684Y-51357914D02*
X147001065Y-51548390D01*
X147001065Y-51548390D02*
X147001065Y-51929342D01*
X147001065Y-51929342D02*
X147048684Y-52024580D01*
X147048684Y-52024580D02*
X147096303Y-52072200D01*
X147096303Y-52072200D02*
X147191541Y-52119819D01*
X147191541Y-52119819D02*
X147382017Y-52119819D01*
X147382017Y-52119819D02*
X147477255Y-52072200D01*
X147477255Y-52072200D02*
X147524874Y-52024580D01*
X147524874Y-52024580D02*
X147572493Y-51929342D01*
X147572493Y-51929342D02*
X147572493Y-51691247D01*
X147572493Y-51691247D02*
X147524874Y-51596009D01*
X147524874Y-51596009D02*
X147477255Y-51548390D01*
X147477255Y-51548390D02*
X147382017Y-51500771D01*
X147382017Y-51500771D02*
X147191541Y-51500771D01*
X147191541Y-51500771D02*
X147096303Y-51548390D01*
X147096303Y-51548390D02*
X147048684Y-51596009D01*
X147048684Y-51596009D02*
X147001065Y-51691247D01*
X150152969Y-93419819D02*
X149676779Y-93419819D01*
X149676779Y-93419819D02*
X149676779Y-92419819D01*
X150676779Y-92419819D02*
X150867255Y-92419819D01*
X150867255Y-92419819D02*
X150962493Y-92467438D01*
X150962493Y-92467438D02*
X151057731Y-92562676D01*
X151057731Y-92562676D02*
X151105350Y-92753152D01*
X151105350Y-92753152D02*
X151105350Y-93086485D01*
X151105350Y-93086485D02*
X151057731Y-93276961D01*
X151057731Y-93276961D02*
X150962493Y-93372200D01*
X150962493Y-93372200D02*
X150867255Y-93419819D01*
X150867255Y-93419819D02*
X150676779Y-93419819D01*
X150676779Y-93419819D02*
X150581541Y-93372200D01*
X150581541Y-93372200D02*
X150486303Y-93276961D01*
X150486303Y-93276961D02*
X150438684Y-93086485D01*
X150438684Y-93086485D02*
X150438684Y-92753152D01*
X150438684Y-92753152D02*
X150486303Y-92562676D01*
X150486303Y-92562676D02*
X150581541Y-92467438D01*
X150581541Y-92467438D02*
X150676779Y-92419819D01*
X152105350Y-93324580D02*
X152057731Y-93372200D01*
X152057731Y-93372200D02*
X151914874Y-93419819D01*
X151914874Y-93419819D02*
X151819636Y-93419819D01*
X151819636Y-93419819D02*
X151676779Y-93372200D01*
X151676779Y-93372200D02*
X151581541Y-93276961D01*
X151581541Y-93276961D02*
X151533922Y-93181723D01*
X151533922Y-93181723D02*
X151486303Y-92991247D01*
X151486303Y-92991247D02*
X151486303Y-92848390D01*
X151486303Y-92848390D02*
X151533922Y-92657914D01*
X151533922Y-92657914D02*
X151581541Y-92562676D01*
X151581541Y-92562676D02*
X151676779Y-92467438D01*
X151676779Y-92467438D02*
X151819636Y-92419819D01*
X151819636Y-92419819D02*
X151914874Y-92419819D01*
X151914874Y-92419819D02*
X152057731Y-92467438D01*
X152057731Y-92467438D02*
X152105350Y-92515057D01*
X152533922Y-93419819D02*
X152533922Y-92419819D01*
X153105350Y-93419819D02*
X152676779Y-92848390D01*
X153105350Y-92419819D02*
X152533922Y-92991247D01*
X102427255Y-91609875D02*
X102617731Y-91609875D01*
X102617731Y-91609875D02*
X102712969Y-91657494D01*
X102712969Y-91657494D02*
X102808207Y-91752732D01*
X102808207Y-91752732D02*
X102855826Y-91943208D01*
X102855826Y-91943208D02*
X102855826Y-92276541D01*
X102855826Y-92276541D02*
X102808207Y-92467017D01*
X102808207Y-92467017D02*
X102712969Y-92562256D01*
X102712969Y-92562256D02*
X102617731Y-92609875D01*
X102617731Y-92609875D02*
X102427255Y-92609875D01*
X102427255Y-92609875D02*
X102332017Y-92562256D01*
X102332017Y-92562256D02*
X102236779Y-92467017D01*
X102236779Y-92467017D02*
X102189160Y-92276541D01*
X102189160Y-92276541D02*
X102189160Y-91943208D01*
X102189160Y-91943208D02*
X102236779Y-91752732D01*
X102236779Y-91752732D02*
X102332017Y-91657494D01*
X102332017Y-91657494D02*
X102427255Y-91609875D01*
X103760588Y-92609875D02*
X103284398Y-92609875D01*
X103284398Y-92609875D02*
X103284398Y-91609875D01*
X104093922Y-92086065D02*
X104427255Y-92086065D01*
X104570112Y-92609875D02*
X104093922Y-92609875D01*
X104093922Y-92609875D02*
X104093922Y-91609875D01*
X104093922Y-91609875D02*
X104570112Y-91609875D01*
X104998684Y-92609875D02*
X104998684Y-91609875D01*
X104998684Y-91609875D02*
X105236779Y-91609875D01*
X105236779Y-91609875D02*
X105379636Y-91657494D01*
X105379636Y-91657494D02*
X105474874Y-91752732D01*
X105474874Y-91752732D02*
X105522493Y-91847970D01*
X105522493Y-91847970D02*
X105570112Y-92038446D01*
X105570112Y-92038446D02*
X105570112Y-92181303D01*
X105570112Y-92181303D02*
X105522493Y-92371779D01*
X105522493Y-92371779D02*
X105474874Y-92467017D01*
X105474874Y-92467017D02*
X105379636Y-92562256D01*
X105379636Y-92562256D02*
X105236779Y-92609875D01*
X105236779Y-92609875D02*
X104998684Y-92609875D01*
X107284398Y-92609875D02*
X106712970Y-92609875D01*
X106998684Y-92609875D02*
X106998684Y-91609875D01*
X106998684Y-91609875D02*
X106903446Y-91752732D01*
X106903446Y-91752732D02*
X106808208Y-91847970D01*
X106808208Y-91847970D02*
X106712970Y-91895589D01*
X107665351Y-91705113D02*
X107712970Y-91657494D01*
X107712970Y-91657494D02*
X107808208Y-91609875D01*
X107808208Y-91609875D02*
X108046303Y-91609875D01*
X108046303Y-91609875D02*
X108141541Y-91657494D01*
X108141541Y-91657494D02*
X108189160Y-91705113D01*
X108189160Y-91705113D02*
X108236779Y-91800351D01*
X108236779Y-91800351D02*
X108236779Y-91895589D01*
X108236779Y-91895589D02*
X108189160Y-92038446D01*
X108189160Y-92038446D02*
X107617732Y-92609875D01*
X107617732Y-92609875D02*
X108236779Y-92609875D01*
X108808208Y-92038446D02*
X108712970Y-91990827D01*
X108712970Y-91990827D02*
X108665351Y-91943208D01*
X108665351Y-91943208D02*
X108617732Y-91847970D01*
X108617732Y-91847970D02*
X108617732Y-91800351D01*
X108617732Y-91800351D02*
X108665351Y-91705113D01*
X108665351Y-91705113D02*
X108712970Y-91657494D01*
X108712970Y-91657494D02*
X108808208Y-91609875D01*
X108808208Y-91609875D02*
X108998684Y-91609875D01*
X108998684Y-91609875D02*
X109093922Y-91657494D01*
X109093922Y-91657494D02*
X109141541Y-91705113D01*
X109141541Y-91705113D02*
X109189160Y-91800351D01*
X109189160Y-91800351D02*
X109189160Y-91847970D01*
X109189160Y-91847970D02*
X109141541Y-91943208D01*
X109141541Y-91943208D02*
X109093922Y-91990827D01*
X109093922Y-91990827D02*
X108998684Y-92038446D01*
X108998684Y-92038446D02*
X108808208Y-92038446D01*
X108808208Y-92038446D02*
X108712970Y-92086065D01*
X108712970Y-92086065D02*
X108665351Y-92133684D01*
X108665351Y-92133684D02*
X108617732Y-92228922D01*
X108617732Y-92228922D02*
X108617732Y-92419398D01*
X108617732Y-92419398D02*
X108665351Y-92514636D01*
X108665351Y-92514636D02*
X108712970Y-92562256D01*
X108712970Y-92562256D02*
X108808208Y-92609875D01*
X108808208Y-92609875D02*
X108998684Y-92609875D01*
X108998684Y-92609875D02*
X109093922Y-92562256D01*
X109093922Y-92562256D02*
X109141541Y-92514636D01*
X109141541Y-92514636D02*
X109189160Y-92419398D01*
X109189160Y-92419398D02*
X109189160Y-92228922D01*
X109189160Y-92228922D02*
X109141541Y-92133684D01*
X109141541Y-92133684D02*
X109093922Y-92086065D01*
X109093922Y-92086065D02*
X108998684Y-92038446D01*
X109522494Y-92609875D02*
X110046303Y-91943208D01*
X109522494Y-91943208D02*
X110046303Y-92609875D01*
X110332018Y-91609875D02*
X110951065Y-91609875D01*
X110951065Y-91609875D02*
X110617732Y-91990827D01*
X110617732Y-91990827D02*
X110760589Y-91990827D01*
X110760589Y-91990827D02*
X110855827Y-92038446D01*
X110855827Y-92038446D02*
X110903446Y-92086065D01*
X110903446Y-92086065D02*
X110951065Y-92181303D01*
X110951065Y-92181303D02*
X110951065Y-92419398D01*
X110951065Y-92419398D02*
X110903446Y-92514636D01*
X110903446Y-92514636D02*
X110855827Y-92562256D01*
X110855827Y-92562256D02*
X110760589Y-92609875D01*
X110760589Y-92609875D02*
X110474875Y-92609875D01*
X110474875Y-92609875D02*
X110379637Y-92562256D01*
X110379637Y-92562256D02*
X110332018Y-92514636D01*
X111332018Y-91705113D02*
X111379637Y-91657494D01*
X111379637Y-91657494D02*
X111474875Y-91609875D01*
X111474875Y-91609875D02*
X111712970Y-91609875D01*
X111712970Y-91609875D02*
X111808208Y-91657494D01*
X111808208Y-91657494D02*
X111855827Y-91705113D01*
X111855827Y-91705113D02*
X111903446Y-91800351D01*
X111903446Y-91800351D02*
X111903446Y-91895589D01*
X111903446Y-91895589D02*
X111855827Y-92038446D01*
X111855827Y-92038446D02*
X111284399Y-92609875D01*
X111284399Y-92609875D02*
X111903446Y-92609875D01*
X102189160Y-94172200D02*
X102332017Y-94219819D01*
X102332017Y-94219819D02*
X102570112Y-94219819D01*
X102570112Y-94219819D02*
X102665350Y-94172200D01*
X102665350Y-94172200D02*
X102712969Y-94124580D01*
X102712969Y-94124580D02*
X102760588Y-94029342D01*
X102760588Y-94029342D02*
X102760588Y-93934104D01*
X102760588Y-93934104D02*
X102712969Y-93838866D01*
X102712969Y-93838866D02*
X102665350Y-93791247D01*
X102665350Y-93791247D02*
X102570112Y-93743628D01*
X102570112Y-93743628D02*
X102379636Y-93696009D01*
X102379636Y-93696009D02*
X102284398Y-93648390D01*
X102284398Y-93648390D02*
X102236779Y-93600771D01*
X102236779Y-93600771D02*
X102189160Y-93505533D01*
X102189160Y-93505533D02*
X102189160Y-93410295D01*
X102189160Y-93410295D02*
X102236779Y-93315057D01*
X102236779Y-93315057D02*
X102284398Y-93267438D01*
X102284398Y-93267438D02*
X102379636Y-93219819D01*
X102379636Y-93219819D02*
X102617731Y-93219819D01*
X102617731Y-93219819D02*
X102760588Y-93267438D01*
X103141541Y-94172200D02*
X103284398Y-94219819D01*
X103284398Y-94219819D02*
X103522493Y-94219819D01*
X103522493Y-94219819D02*
X103617731Y-94172200D01*
X103617731Y-94172200D02*
X103665350Y-94124580D01*
X103665350Y-94124580D02*
X103712969Y-94029342D01*
X103712969Y-94029342D02*
X103712969Y-93934104D01*
X103712969Y-93934104D02*
X103665350Y-93838866D01*
X103665350Y-93838866D02*
X103617731Y-93791247D01*
X103617731Y-93791247D02*
X103522493Y-93743628D01*
X103522493Y-93743628D02*
X103332017Y-93696009D01*
X103332017Y-93696009D02*
X103236779Y-93648390D01*
X103236779Y-93648390D02*
X103189160Y-93600771D01*
X103189160Y-93600771D02*
X103141541Y-93505533D01*
X103141541Y-93505533D02*
X103141541Y-93410295D01*
X103141541Y-93410295D02*
X103189160Y-93315057D01*
X103189160Y-93315057D02*
X103236779Y-93267438D01*
X103236779Y-93267438D02*
X103332017Y-93219819D01*
X103332017Y-93219819D02*
X103570112Y-93219819D01*
X103570112Y-93219819D02*
X103712969Y-93267438D01*
X104141541Y-94219819D02*
X104141541Y-93219819D01*
X104141541Y-93219819D02*
X104379636Y-93219819D01*
X104379636Y-93219819D02*
X104522493Y-93267438D01*
X104522493Y-93267438D02*
X104617731Y-93362676D01*
X104617731Y-93362676D02*
X104665350Y-93457914D01*
X104665350Y-93457914D02*
X104712969Y-93648390D01*
X104712969Y-93648390D02*
X104712969Y-93791247D01*
X104712969Y-93791247D02*
X104665350Y-93981723D01*
X104665350Y-93981723D02*
X104617731Y-94076961D01*
X104617731Y-94076961D02*
X104522493Y-94172200D01*
X104522493Y-94172200D02*
X104379636Y-94219819D01*
X104379636Y-94219819D02*
X104141541Y-94219819D01*
X105665350Y-94219819D02*
X105093922Y-94219819D01*
X105379636Y-94219819D02*
X105379636Y-93219819D01*
X105379636Y-93219819D02*
X105284398Y-93362676D01*
X105284398Y-93362676D02*
X105189160Y-93457914D01*
X105189160Y-93457914D02*
X105093922Y-93505533D01*
X105998684Y-93219819D02*
X106617731Y-93219819D01*
X106617731Y-93219819D02*
X106284398Y-93600771D01*
X106284398Y-93600771D02*
X106427255Y-93600771D01*
X106427255Y-93600771D02*
X106522493Y-93648390D01*
X106522493Y-93648390D02*
X106570112Y-93696009D01*
X106570112Y-93696009D02*
X106617731Y-93791247D01*
X106617731Y-93791247D02*
X106617731Y-94029342D01*
X106617731Y-94029342D02*
X106570112Y-94124580D01*
X106570112Y-94124580D02*
X106522493Y-94172200D01*
X106522493Y-94172200D02*
X106427255Y-94219819D01*
X106427255Y-94219819D02*
X106141541Y-94219819D01*
X106141541Y-94219819D02*
X106046303Y-94172200D01*
X106046303Y-94172200D02*
X105998684Y-94124580D01*
X107236779Y-93219819D02*
X107332017Y-93219819D01*
X107332017Y-93219819D02*
X107427255Y-93267438D01*
X107427255Y-93267438D02*
X107474874Y-93315057D01*
X107474874Y-93315057D02*
X107522493Y-93410295D01*
X107522493Y-93410295D02*
X107570112Y-93600771D01*
X107570112Y-93600771D02*
X107570112Y-93838866D01*
X107570112Y-93838866D02*
X107522493Y-94029342D01*
X107522493Y-94029342D02*
X107474874Y-94124580D01*
X107474874Y-94124580D02*
X107427255Y-94172200D01*
X107427255Y-94172200D02*
X107332017Y-94219819D01*
X107332017Y-94219819D02*
X107236779Y-94219819D01*
X107236779Y-94219819D02*
X107141541Y-94172200D01*
X107141541Y-94172200D02*
X107093922Y-94124580D01*
X107093922Y-94124580D02*
X107046303Y-94029342D01*
X107046303Y-94029342D02*
X106998684Y-93838866D01*
X106998684Y-93838866D02*
X106998684Y-93600771D01*
X106998684Y-93600771D02*
X107046303Y-93410295D01*
X107046303Y-93410295D02*
X107093922Y-93315057D01*
X107093922Y-93315057D02*
X107141541Y-93267438D01*
X107141541Y-93267438D02*
X107236779Y-93219819D01*
X108427255Y-93219819D02*
X108236779Y-93219819D01*
X108236779Y-93219819D02*
X108141541Y-93267438D01*
X108141541Y-93267438D02*
X108093922Y-93315057D01*
X108093922Y-93315057D02*
X107998684Y-93457914D01*
X107998684Y-93457914D02*
X107951065Y-93648390D01*
X107951065Y-93648390D02*
X107951065Y-94029342D01*
X107951065Y-94029342D02*
X107998684Y-94124580D01*
X107998684Y-94124580D02*
X108046303Y-94172200D01*
X108046303Y-94172200D02*
X108141541Y-94219819D01*
X108141541Y-94219819D02*
X108332017Y-94219819D01*
X108332017Y-94219819D02*
X108427255Y-94172200D01*
X108427255Y-94172200D02*
X108474874Y-94124580D01*
X108474874Y-94124580D02*
X108522493Y-94029342D01*
X108522493Y-94029342D02*
X108522493Y-93791247D01*
X108522493Y-93791247D02*
X108474874Y-93696009D01*
X108474874Y-93696009D02*
X108427255Y-93648390D01*
X108427255Y-93648390D02*
X108332017Y-93600771D01*
X108332017Y-93600771D02*
X108141541Y-93600771D01*
X108141541Y-93600771D02*
X108046303Y-93648390D01*
X108046303Y-93648390D02*
X107998684Y-93696009D01*
X107998684Y-93696009D02*
X107951065Y-93791247D01*
X159507255Y-78529819D02*
X159697731Y-78529819D01*
X159697731Y-78529819D02*
X159792969Y-78577438D01*
X159792969Y-78577438D02*
X159888207Y-78672676D01*
X159888207Y-78672676D02*
X159935826Y-78863152D01*
X159935826Y-78863152D02*
X159935826Y-79196485D01*
X159935826Y-79196485D02*
X159888207Y-79386961D01*
X159888207Y-79386961D02*
X159792969Y-79482200D01*
X159792969Y-79482200D02*
X159697731Y-79529819D01*
X159697731Y-79529819D02*
X159507255Y-79529819D01*
X159507255Y-79529819D02*
X159412017Y-79482200D01*
X159412017Y-79482200D02*
X159316779Y-79386961D01*
X159316779Y-79386961D02*
X159269160Y-79196485D01*
X159269160Y-79196485D02*
X159269160Y-78863152D01*
X159269160Y-78863152D02*
X159316779Y-78672676D01*
X159316779Y-78672676D02*
X159412017Y-78577438D01*
X159412017Y-78577438D02*
X159507255Y-78529819D01*
X160364398Y-79529819D02*
X160364398Y-78529819D01*
X160364398Y-78529819D02*
X160935826Y-79529819D01*
X160935826Y-79529819D02*
X160935826Y-78529819D01*
X162126302Y-78482200D02*
X161269160Y-79767914D01*
X162650112Y-78529819D02*
X162840588Y-78529819D01*
X162840588Y-78529819D02*
X162935826Y-78577438D01*
X162935826Y-78577438D02*
X163031064Y-78672676D01*
X163031064Y-78672676D02*
X163078683Y-78863152D01*
X163078683Y-78863152D02*
X163078683Y-79196485D01*
X163078683Y-79196485D02*
X163031064Y-79386961D01*
X163031064Y-79386961D02*
X162935826Y-79482200D01*
X162935826Y-79482200D02*
X162840588Y-79529819D01*
X162840588Y-79529819D02*
X162650112Y-79529819D01*
X162650112Y-79529819D02*
X162554874Y-79482200D01*
X162554874Y-79482200D02*
X162459636Y-79386961D01*
X162459636Y-79386961D02*
X162412017Y-79196485D01*
X162412017Y-79196485D02*
X162412017Y-78863152D01*
X162412017Y-78863152D02*
X162459636Y-78672676D01*
X162459636Y-78672676D02*
X162554874Y-78577438D01*
X162554874Y-78577438D02*
X162650112Y-78529819D01*
X163840588Y-79006009D02*
X163507255Y-79006009D01*
X163507255Y-79529819D02*
X163507255Y-78529819D01*
X163507255Y-78529819D02*
X163983445Y-78529819D01*
X164697731Y-79006009D02*
X164364398Y-79006009D01*
X164364398Y-79529819D02*
X164364398Y-78529819D01*
X164364398Y-78529819D02*
X164840588Y-78529819D01*
X158159160Y-51675057D02*
X158206779Y-51627438D01*
X158206779Y-51627438D02*
X158302017Y-51579819D01*
X158302017Y-51579819D02*
X158540112Y-51579819D01*
X158540112Y-51579819D02*
X158635350Y-51627438D01*
X158635350Y-51627438D02*
X158682969Y-51675057D01*
X158682969Y-51675057D02*
X158730588Y-51770295D01*
X158730588Y-51770295D02*
X158730588Y-51865533D01*
X158730588Y-51865533D02*
X158682969Y-52008390D01*
X158682969Y-52008390D02*
X158111541Y-52579819D01*
X158111541Y-52579819D02*
X158730588Y-52579819D01*
X107396779Y-52639819D02*
X107396779Y-51639819D01*
X107396779Y-51639819D02*
X107730112Y-52354104D01*
X107730112Y-52354104D02*
X108063445Y-51639819D01*
X108063445Y-51639819D02*
X108063445Y-52639819D01*
X108539636Y-52639819D02*
X108539636Y-51639819D01*
X108539636Y-51639819D02*
X108920588Y-51639819D01*
X108920588Y-51639819D02*
X109015826Y-51687438D01*
X109015826Y-51687438D02*
X109063445Y-51735057D01*
X109063445Y-51735057D02*
X109111064Y-51830295D01*
X109111064Y-51830295D02*
X109111064Y-51973152D01*
X109111064Y-51973152D02*
X109063445Y-52068390D01*
X109063445Y-52068390D02*
X109015826Y-52116009D01*
X109015826Y-52116009D02*
X108920588Y-52163628D01*
X108920588Y-52163628D02*
X108539636Y-52163628D01*
X109539636Y-51639819D02*
X109539636Y-52449342D01*
X109539636Y-52449342D02*
X109587255Y-52544580D01*
X109587255Y-52544580D02*
X109634874Y-52592200D01*
X109634874Y-52592200D02*
X109730112Y-52639819D01*
X109730112Y-52639819D02*
X109920588Y-52639819D01*
X109920588Y-52639819D02*
X110015826Y-52592200D01*
X110015826Y-52592200D02*
X110063445Y-52544580D01*
X110063445Y-52544580D02*
X110111064Y-52449342D01*
X110111064Y-52449342D02*
X110111064Y-51639819D01*
X111777731Y-51639819D02*
X111587255Y-51639819D01*
X111587255Y-51639819D02*
X111492017Y-51687438D01*
X111492017Y-51687438D02*
X111444398Y-51735057D01*
X111444398Y-51735057D02*
X111349160Y-51877914D01*
X111349160Y-51877914D02*
X111301541Y-52068390D01*
X111301541Y-52068390D02*
X111301541Y-52449342D01*
X111301541Y-52449342D02*
X111349160Y-52544580D01*
X111349160Y-52544580D02*
X111396779Y-52592200D01*
X111396779Y-52592200D02*
X111492017Y-52639819D01*
X111492017Y-52639819D02*
X111682493Y-52639819D01*
X111682493Y-52639819D02*
X111777731Y-52592200D01*
X111777731Y-52592200D02*
X111825350Y-52544580D01*
X111825350Y-52544580D02*
X111872969Y-52449342D01*
X111872969Y-52449342D02*
X111872969Y-52211247D01*
X111872969Y-52211247D02*
X111825350Y-52116009D01*
X111825350Y-52116009D02*
X111777731Y-52068390D01*
X111777731Y-52068390D02*
X111682493Y-52020771D01*
X111682493Y-52020771D02*
X111492017Y-52020771D01*
X111492017Y-52020771D02*
X111396779Y-52068390D01*
X111396779Y-52068390D02*
X111349160Y-52116009D01*
X111349160Y-52116009D02*
X111301541Y-52211247D01*
X112492017Y-51639819D02*
X112587255Y-51639819D01*
X112587255Y-51639819D02*
X112682493Y-51687438D01*
X112682493Y-51687438D02*
X112730112Y-51735057D01*
X112730112Y-51735057D02*
X112777731Y-51830295D01*
X112777731Y-51830295D02*
X112825350Y-52020771D01*
X112825350Y-52020771D02*
X112825350Y-52258866D01*
X112825350Y-52258866D02*
X112777731Y-52449342D01*
X112777731Y-52449342D02*
X112730112Y-52544580D01*
X112730112Y-52544580D02*
X112682493Y-52592200D01*
X112682493Y-52592200D02*
X112587255Y-52639819D01*
X112587255Y-52639819D02*
X112492017Y-52639819D01*
X112492017Y-52639819D02*
X112396779Y-52592200D01*
X112396779Y-52592200D02*
X112349160Y-52544580D01*
X112349160Y-52544580D02*
X112301541Y-52449342D01*
X112301541Y-52449342D02*
X112253922Y-52258866D01*
X112253922Y-52258866D02*
X112253922Y-52020771D01*
X112253922Y-52020771D02*
X112301541Y-51830295D01*
X112301541Y-51830295D02*
X112349160Y-51735057D01*
X112349160Y-51735057D02*
X112396779Y-51687438D01*
X112396779Y-51687438D02*
X112492017Y-51639819D01*
X113730112Y-51639819D02*
X113253922Y-51639819D01*
X113253922Y-51639819D02*
X113206303Y-52116009D01*
X113206303Y-52116009D02*
X113253922Y-52068390D01*
X113253922Y-52068390D02*
X113349160Y-52020771D01*
X113349160Y-52020771D02*
X113587255Y-52020771D01*
X113587255Y-52020771D02*
X113682493Y-52068390D01*
X113682493Y-52068390D02*
X113730112Y-52116009D01*
X113730112Y-52116009D02*
X113777731Y-52211247D01*
X113777731Y-52211247D02*
X113777731Y-52449342D01*
X113777731Y-52449342D02*
X113730112Y-52544580D01*
X113730112Y-52544580D02*
X113682493Y-52592200D01*
X113682493Y-52592200D02*
X113587255Y-52639819D01*
X113587255Y-52639819D02*
X113349160Y-52639819D01*
X113349160Y-52639819D02*
X113253922Y-52592200D01*
X113253922Y-52592200D02*
X113206303Y-52544580D01*
X114396779Y-51639819D02*
X114492017Y-51639819D01*
X114492017Y-51639819D02*
X114587255Y-51687438D01*
X114587255Y-51687438D02*
X114634874Y-51735057D01*
X114634874Y-51735057D02*
X114682493Y-51830295D01*
X114682493Y-51830295D02*
X114730112Y-52020771D01*
X114730112Y-52020771D02*
X114730112Y-52258866D01*
X114730112Y-52258866D02*
X114682493Y-52449342D01*
X114682493Y-52449342D02*
X114634874Y-52544580D01*
X114634874Y-52544580D02*
X114587255Y-52592200D01*
X114587255Y-52592200D02*
X114492017Y-52639819D01*
X114492017Y-52639819D02*
X114396779Y-52639819D01*
X114396779Y-52639819D02*
X114301541Y-52592200D01*
X114301541Y-52592200D02*
X114253922Y-52544580D01*
X114253922Y-52544580D02*
X114206303Y-52449342D01*
X114206303Y-52449342D02*
X114158684Y-52258866D01*
X114158684Y-52258866D02*
X114158684Y-52020771D01*
X114158684Y-52020771D02*
X114206303Y-51830295D01*
X114206303Y-51830295D02*
X114253922Y-51735057D01*
X114253922Y-51735057D02*
X114301541Y-51687438D01*
X114301541Y-51687438D02*
X114396779Y-51639819D01*
X160420476Y-82504160D02*
X160896666Y-82504160D01*
X160325238Y-82789875D02*
X160658571Y-81789875D01*
X160658571Y-81789875D02*
X160991904Y-82789875D01*
X161325238Y-82123208D02*
X161325238Y-82789875D01*
X161325238Y-82218446D02*
X161372857Y-82170827D01*
X161372857Y-82170827D02*
X161468095Y-82123208D01*
X161468095Y-82123208D02*
X161610952Y-82123208D01*
X161610952Y-82123208D02*
X161706190Y-82170827D01*
X161706190Y-82170827D02*
X161753809Y-82266065D01*
X161753809Y-82266065D02*
X161753809Y-82789875D01*
X162658571Y-82789875D02*
X162658571Y-82266065D01*
X162658571Y-82266065D02*
X162610952Y-82170827D01*
X162610952Y-82170827D02*
X162515714Y-82123208D01*
X162515714Y-82123208D02*
X162325238Y-82123208D01*
X162325238Y-82123208D02*
X162230000Y-82170827D01*
X162658571Y-82742256D02*
X162563333Y-82789875D01*
X162563333Y-82789875D02*
X162325238Y-82789875D01*
X162325238Y-82789875D02*
X162230000Y-82742256D01*
X162230000Y-82742256D02*
X162182381Y-82647017D01*
X162182381Y-82647017D02*
X162182381Y-82551779D01*
X162182381Y-82551779D02*
X162230000Y-82456541D01*
X162230000Y-82456541D02*
X162325238Y-82408922D01*
X162325238Y-82408922D02*
X162563333Y-82408922D01*
X162563333Y-82408922D02*
X162658571Y-82361303D01*
X163277619Y-82789875D02*
X163182381Y-82742256D01*
X163182381Y-82742256D02*
X163134762Y-82647017D01*
X163134762Y-82647017D02*
X163134762Y-81789875D01*
X163801429Y-82789875D02*
X163706191Y-82742256D01*
X163706191Y-82742256D02*
X163658572Y-82694636D01*
X163658572Y-82694636D02*
X163610953Y-82599398D01*
X163610953Y-82599398D02*
X163610953Y-82313684D01*
X163610953Y-82313684D02*
X163658572Y-82218446D01*
X163658572Y-82218446D02*
X163706191Y-82170827D01*
X163706191Y-82170827D02*
X163801429Y-82123208D01*
X163801429Y-82123208D02*
X163944286Y-82123208D01*
X163944286Y-82123208D02*
X164039524Y-82170827D01*
X164039524Y-82170827D02*
X164087143Y-82218446D01*
X164087143Y-82218446D02*
X164134762Y-82313684D01*
X164134762Y-82313684D02*
X164134762Y-82599398D01*
X164134762Y-82599398D02*
X164087143Y-82694636D01*
X164087143Y-82694636D02*
X164039524Y-82742256D01*
X164039524Y-82742256D02*
X163944286Y-82789875D01*
X163944286Y-82789875D02*
X163801429Y-82789875D01*
X164991905Y-82123208D02*
X164991905Y-82932732D01*
X164991905Y-82932732D02*
X164944286Y-83027970D01*
X164944286Y-83027970D02*
X164896667Y-83075589D01*
X164896667Y-83075589D02*
X164801429Y-83123208D01*
X164801429Y-83123208D02*
X164658572Y-83123208D01*
X164658572Y-83123208D02*
X164563334Y-83075589D01*
X164991905Y-82742256D02*
X164896667Y-82789875D01*
X164896667Y-82789875D02*
X164706191Y-82789875D01*
X164706191Y-82789875D02*
X164610953Y-82742256D01*
X164610953Y-82742256D02*
X164563334Y-82694636D01*
X164563334Y-82694636D02*
X164515715Y-82599398D01*
X164515715Y-82599398D02*
X164515715Y-82313684D01*
X164515715Y-82313684D02*
X164563334Y-82218446D01*
X164563334Y-82218446D02*
X164610953Y-82170827D01*
X164610953Y-82170827D02*
X164706191Y-82123208D01*
X164706191Y-82123208D02*
X164896667Y-82123208D01*
X164896667Y-82123208D02*
X164991905Y-82170827D01*
X160396666Y-84352200D02*
X160539523Y-84399819D01*
X160539523Y-84399819D02*
X160777618Y-84399819D01*
X160777618Y-84399819D02*
X160872856Y-84352200D01*
X160872856Y-84352200D02*
X160920475Y-84304580D01*
X160920475Y-84304580D02*
X160968094Y-84209342D01*
X160968094Y-84209342D02*
X160968094Y-84114104D01*
X160968094Y-84114104D02*
X160920475Y-84018866D01*
X160920475Y-84018866D02*
X160872856Y-83971247D01*
X160872856Y-83971247D02*
X160777618Y-83923628D01*
X160777618Y-83923628D02*
X160587142Y-83876009D01*
X160587142Y-83876009D02*
X160491904Y-83828390D01*
X160491904Y-83828390D02*
X160444285Y-83780771D01*
X160444285Y-83780771D02*
X160396666Y-83685533D01*
X160396666Y-83685533D02*
X160396666Y-83590295D01*
X160396666Y-83590295D02*
X160444285Y-83495057D01*
X160444285Y-83495057D02*
X160491904Y-83447438D01*
X160491904Y-83447438D02*
X160587142Y-83399819D01*
X160587142Y-83399819D02*
X160825237Y-83399819D01*
X160825237Y-83399819D02*
X160968094Y-83447438D01*
X161777618Y-84352200D02*
X161682380Y-84399819D01*
X161682380Y-84399819D02*
X161491904Y-84399819D01*
X161491904Y-84399819D02*
X161396666Y-84352200D01*
X161396666Y-84352200D02*
X161349047Y-84256961D01*
X161349047Y-84256961D02*
X161349047Y-83876009D01*
X161349047Y-83876009D02*
X161396666Y-83780771D01*
X161396666Y-83780771D02*
X161491904Y-83733152D01*
X161491904Y-83733152D02*
X161682380Y-83733152D01*
X161682380Y-83733152D02*
X161777618Y-83780771D01*
X161777618Y-83780771D02*
X161825237Y-83876009D01*
X161825237Y-83876009D02*
X161825237Y-83971247D01*
X161825237Y-83971247D02*
X161349047Y-84066485D01*
X162253809Y-83733152D02*
X162253809Y-84399819D01*
X162253809Y-83828390D02*
X162301428Y-83780771D01*
X162301428Y-83780771D02*
X162396666Y-83733152D01*
X162396666Y-83733152D02*
X162539523Y-83733152D01*
X162539523Y-83733152D02*
X162634761Y-83780771D01*
X162634761Y-83780771D02*
X162682380Y-83876009D01*
X162682380Y-83876009D02*
X162682380Y-84399819D01*
X163110952Y-84352200D02*
X163206190Y-84399819D01*
X163206190Y-84399819D02*
X163396666Y-84399819D01*
X163396666Y-84399819D02*
X163491904Y-84352200D01*
X163491904Y-84352200D02*
X163539523Y-84256961D01*
X163539523Y-84256961D02*
X163539523Y-84209342D01*
X163539523Y-84209342D02*
X163491904Y-84114104D01*
X163491904Y-84114104D02*
X163396666Y-84066485D01*
X163396666Y-84066485D02*
X163253809Y-84066485D01*
X163253809Y-84066485D02*
X163158571Y-84018866D01*
X163158571Y-84018866D02*
X163110952Y-83923628D01*
X163110952Y-83923628D02*
X163110952Y-83876009D01*
X163110952Y-83876009D02*
X163158571Y-83780771D01*
X163158571Y-83780771D02*
X163253809Y-83733152D01*
X163253809Y-83733152D02*
X163396666Y-83733152D01*
X163396666Y-83733152D02*
X163491904Y-83780771D01*
X164110952Y-84399819D02*
X164015714Y-84352200D01*
X164015714Y-84352200D02*
X163968095Y-84304580D01*
X163968095Y-84304580D02*
X163920476Y-84209342D01*
X163920476Y-84209342D02*
X163920476Y-83923628D01*
X163920476Y-83923628D02*
X163968095Y-83828390D01*
X163968095Y-83828390D02*
X164015714Y-83780771D01*
X164015714Y-83780771D02*
X164110952Y-83733152D01*
X164110952Y-83733152D02*
X164253809Y-83733152D01*
X164253809Y-83733152D02*
X164349047Y-83780771D01*
X164349047Y-83780771D02*
X164396666Y-83828390D01*
X164396666Y-83828390D02*
X164444285Y-83923628D01*
X164444285Y-83923628D02*
X164444285Y-84209342D01*
X164444285Y-84209342D02*
X164396666Y-84304580D01*
X164396666Y-84304580D02*
X164349047Y-84352200D01*
X164349047Y-84352200D02*
X164253809Y-84399819D01*
X164253809Y-84399819D02*
X164110952Y-84399819D01*
X164872857Y-84399819D02*
X164872857Y-83733152D01*
X164872857Y-83923628D02*
X164920476Y-83828390D01*
X164920476Y-83828390D02*
X164968095Y-83780771D01*
X164968095Y-83780771D02*
X165063333Y-83733152D01*
X165063333Y-83733152D02*
X165158571Y-83733152D01*
X110517438Y-72619411D02*
X110469819Y-72714649D01*
X110469819Y-72714649D02*
X110469819Y-72857506D01*
X110469819Y-72857506D02*
X110517438Y-73000363D01*
X110517438Y-73000363D02*
X110612676Y-73095601D01*
X110612676Y-73095601D02*
X110707914Y-73143220D01*
X110707914Y-73143220D02*
X110898390Y-73190839D01*
X110898390Y-73190839D02*
X111041247Y-73190839D01*
X111041247Y-73190839D02*
X111231723Y-73143220D01*
X111231723Y-73143220D02*
X111326961Y-73095601D01*
X111326961Y-73095601D02*
X111422200Y-73000363D01*
X111422200Y-73000363D02*
X111469819Y-72857506D01*
X111469819Y-72857506D02*
X111469819Y-72762268D01*
X111469819Y-72762268D02*
X111422200Y-72619411D01*
X111422200Y-72619411D02*
X111374580Y-72571792D01*
X111374580Y-72571792D02*
X111041247Y-72571792D01*
X111041247Y-72571792D02*
X111041247Y-72762268D01*
X111469819Y-72143220D02*
X110469819Y-72143220D01*
X110469819Y-72143220D02*
X111469819Y-71571792D01*
X111469819Y-71571792D02*
X110469819Y-71571792D01*
X111469819Y-71095601D02*
X110469819Y-71095601D01*
X110469819Y-71095601D02*
X110469819Y-70857506D01*
X110469819Y-70857506D02*
X110517438Y-70714649D01*
X110517438Y-70714649D02*
X110612676Y-70619411D01*
X110612676Y-70619411D02*
X110707914Y-70571792D01*
X110707914Y-70571792D02*
X110898390Y-70524173D01*
X110898390Y-70524173D02*
X111041247Y-70524173D01*
X111041247Y-70524173D02*
X111231723Y-70571792D01*
X111231723Y-70571792D02*
X111326961Y-70619411D01*
X111326961Y-70619411D02*
X111422200Y-70714649D01*
X111422200Y-70714649D02*
X111469819Y-70857506D01*
X111469819Y-70857506D02*
X111469819Y-71095601D01*
X141150588Y-94707438D02*
X141055350Y-94659819D01*
X141055350Y-94659819D02*
X140912493Y-94659819D01*
X140912493Y-94659819D02*
X140769636Y-94707438D01*
X140769636Y-94707438D02*
X140674398Y-94802676D01*
X140674398Y-94802676D02*
X140626779Y-94897914D01*
X140626779Y-94897914D02*
X140579160Y-95088390D01*
X140579160Y-95088390D02*
X140579160Y-95231247D01*
X140579160Y-95231247D02*
X140626779Y-95421723D01*
X140626779Y-95421723D02*
X140674398Y-95516961D01*
X140674398Y-95516961D02*
X140769636Y-95612200D01*
X140769636Y-95612200D02*
X140912493Y-95659819D01*
X140912493Y-95659819D02*
X141007731Y-95659819D01*
X141007731Y-95659819D02*
X141150588Y-95612200D01*
X141150588Y-95612200D02*
X141198207Y-95564580D01*
X141198207Y-95564580D02*
X141198207Y-95231247D01*
X141198207Y-95231247D02*
X141007731Y-95231247D01*
X141626779Y-95659819D02*
X141626779Y-94659819D01*
X141626779Y-94659819D02*
X142198207Y-95659819D01*
X142198207Y-95659819D02*
X142198207Y-94659819D01*
X142674398Y-95659819D02*
X142674398Y-94659819D01*
X142674398Y-94659819D02*
X142912493Y-94659819D01*
X142912493Y-94659819D02*
X143055350Y-94707438D01*
X143055350Y-94707438D02*
X143150588Y-94802676D01*
X143150588Y-94802676D02*
X143198207Y-94897914D01*
X143198207Y-94897914D02*
X143245826Y-95088390D01*
X143245826Y-95088390D02*
X143245826Y-95231247D01*
X143245826Y-95231247D02*
X143198207Y-95421723D01*
X143198207Y-95421723D02*
X143150588Y-95516961D01*
X143150588Y-95516961D02*
X143055350Y-95612200D01*
X143055350Y-95612200D02*
X142912493Y-95659819D01*
X142912493Y-95659819D02*
X142674398Y-95659819D01*
X141559636Y-51378390D02*
X141464398Y-51330771D01*
X141464398Y-51330771D02*
X141416779Y-51283152D01*
X141416779Y-51283152D02*
X141369160Y-51187914D01*
X141369160Y-51187914D02*
X141369160Y-51140295D01*
X141369160Y-51140295D02*
X141416779Y-51045057D01*
X141416779Y-51045057D02*
X141464398Y-50997438D01*
X141464398Y-50997438D02*
X141559636Y-50949819D01*
X141559636Y-50949819D02*
X141750112Y-50949819D01*
X141750112Y-50949819D02*
X141845350Y-50997438D01*
X141845350Y-50997438D02*
X141892969Y-51045057D01*
X141892969Y-51045057D02*
X141940588Y-51140295D01*
X141940588Y-51140295D02*
X141940588Y-51187914D01*
X141940588Y-51187914D02*
X141892969Y-51283152D01*
X141892969Y-51283152D02*
X141845350Y-51330771D01*
X141845350Y-51330771D02*
X141750112Y-51378390D01*
X141750112Y-51378390D02*
X141559636Y-51378390D01*
X141559636Y-51378390D02*
X141464398Y-51426009D01*
X141464398Y-51426009D02*
X141416779Y-51473628D01*
X141416779Y-51473628D02*
X141369160Y-51568866D01*
X141369160Y-51568866D02*
X141369160Y-51759342D01*
X141369160Y-51759342D02*
X141416779Y-51854580D01*
X141416779Y-51854580D02*
X141464398Y-51902200D01*
X141464398Y-51902200D02*
X141559636Y-51949819D01*
X141559636Y-51949819D02*
X141750112Y-51949819D01*
X141750112Y-51949819D02*
X141845350Y-51902200D01*
X141845350Y-51902200D02*
X141892969Y-51854580D01*
X141892969Y-51854580D02*
X141940588Y-51759342D01*
X141940588Y-51759342D02*
X141940588Y-51568866D01*
X141940588Y-51568866D02*
X141892969Y-51473628D01*
X141892969Y-51473628D02*
X141845350Y-51426009D01*
X141845350Y-51426009D02*
X141750112Y-51378390D01*
X132352969Y-64049819D02*
X131876779Y-64049819D01*
X131876779Y-64049819D02*
X131876779Y-63049819D01*
X132686303Y-63526009D02*
X133019636Y-63526009D01*
X133162493Y-64049819D02*
X132686303Y-64049819D01*
X132686303Y-64049819D02*
X132686303Y-63049819D01*
X132686303Y-63049819D02*
X133162493Y-63049819D01*
X133591065Y-64049819D02*
X133591065Y-63049819D01*
X133591065Y-63049819D02*
X133829160Y-63049819D01*
X133829160Y-63049819D02*
X133972017Y-63097438D01*
X133972017Y-63097438D02*
X134067255Y-63192676D01*
X134067255Y-63192676D02*
X134114874Y-63287914D01*
X134114874Y-63287914D02*
X134162493Y-63478390D01*
X134162493Y-63478390D02*
X134162493Y-63621247D01*
X134162493Y-63621247D02*
X134114874Y-63811723D01*
X134114874Y-63811723D02*
X134067255Y-63906961D01*
X134067255Y-63906961D02*
X133972017Y-64002200D01*
X133972017Y-64002200D02*
X133829160Y-64049819D01*
X133829160Y-64049819D02*
X133591065Y-64049819D01*
X112662200Y-61890839D02*
X112709819Y-61747982D01*
X112709819Y-61747982D02*
X112709819Y-61509887D01*
X112709819Y-61509887D02*
X112662200Y-61414649D01*
X112662200Y-61414649D02*
X112614580Y-61367030D01*
X112614580Y-61367030D02*
X112519342Y-61319411D01*
X112519342Y-61319411D02*
X112424104Y-61319411D01*
X112424104Y-61319411D02*
X112328866Y-61367030D01*
X112328866Y-61367030D02*
X112281247Y-61414649D01*
X112281247Y-61414649D02*
X112233628Y-61509887D01*
X112233628Y-61509887D02*
X112186009Y-61700363D01*
X112186009Y-61700363D02*
X112138390Y-61795601D01*
X112138390Y-61795601D02*
X112090771Y-61843220D01*
X112090771Y-61843220D02*
X111995533Y-61890839D01*
X111995533Y-61890839D02*
X111900295Y-61890839D01*
X111900295Y-61890839D02*
X111805057Y-61843220D01*
X111805057Y-61843220D02*
X111757438Y-61795601D01*
X111757438Y-61795601D02*
X111709819Y-61700363D01*
X111709819Y-61700363D02*
X111709819Y-61462268D01*
X111709819Y-61462268D02*
X111757438Y-61319411D01*
X112614580Y-60319411D02*
X112662200Y-60367030D01*
X112662200Y-60367030D02*
X112709819Y-60509887D01*
X112709819Y-60509887D02*
X112709819Y-60605125D01*
X112709819Y-60605125D02*
X112662200Y-60747982D01*
X112662200Y-60747982D02*
X112566961Y-60843220D01*
X112566961Y-60843220D02*
X112471723Y-60890839D01*
X112471723Y-60890839D02*
X112281247Y-60938458D01*
X112281247Y-60938458D02*
X112138390Y-60938458D01*
X112138390Y-60938458D02*
X111947914Y-60890839D01*
X111947914Y-60890839D02*
X111852676Y-60843220D01*
X111852676Y-60843220D02*
X111757438Y-60747982D01*
X111757438Y-60747982D02*
X111709819Y-60605125D01*
X111709819Y-60605125D02*
X111709819Y-60509887D01*
X111709819Y-60509887D02*
X111757438Y-60367030D01*
X111757438Y-60367030D02*
X111805057Y-60319411D01*
X112709819Y-59414649D02*
X112709819Y-59890839D01*
X112709819Y-59890839D02*
X111709819Y-59890839D01*
X155339636Y-51559819D02*
X155339636Y-51797914D01*
X155101541Y-51702676D02*
X155339636Y-51797914D01*
X155339636Y-51797914D02*
X155577731Y-51702676D01*
X155196779Y-51988390D02*
X155339636Y-51797914D01*
X155339636Y-51797914D02*
X155482493Y-51988390D01*
X155863446Y-51559819D02*
X156482493Y-51559819D01*
X156482493Y-51559819D02*
X156149160Y-51940771D01*
X156149160Y-51940771D02*
X156292017Y-51940771D01*
X156292017Y-51940771D02*
X156387255Y-51988390D01*
X156387255Y-51988390D02*
X156434874Y-52036009D01*
X156434874Y-52036009D02*
X156482493Y-52131247D01*
X156482493Y-52131247D02*
X156482493Y-52369342D01*
X156482493Y-52369342D02*
X156434874Y-52464580D01*
X156434874Y-52464580D02*
X156387255Y-52512200D01*
X156387255Y-52512200D02*
X156292017Y-52559819D01*
X156292017Y-52559819D02*
X156006303Y-52559819D01*
X156006303Y-52559819D02*
X155911065Y-52512200D01*
X155911065Y-52512200D02*
X155863446Y-52464580D01*
X132848207Y-93424580D02*
X132800588Y-93472200D01*
X132800588Y-93472200D02*
X132657731Y-93519819D01*
X132657731Y-93519819D02*
X132562493Y-93519819D01*
X132562493Y-93519819D02*
X132419636Y-93472200D01*
X132419636Y-93472200D02*
X132324398Y-93376961D01*
X132324398Y-93376961D02*
X132276779Y-93281723D01*
X132276779Y-93281723D02*
X132229160Y-93091247D01*
X132229160Y-93091247D02*
X132229160Y-92948390D01*
X132229160Y-92948390D02*
X132276779Y-92757914D01*
X132276779Y-92757914D02*
X132324398Y-92662676D01*
X132324398Y-92662676D02*
X132419636Y-92567438D01*
X132419636Y-92567438D02*
X132562493Y-92519819D01*
X132562493Y-92519819D02*
X132657731Y-92519819D01*
X132657731Y-92519819D02*
X132800588Y-92567438D01*
X132800588Y-92567438D02*
X132848207Y-92615057D01*
X133229160Y-93234104D02*
X133705350Y-93234104D01*
X133133922Y-93519819D02*
X133467255Y-92519819D01*
X133467255Y-92519819D02*
X133800588Y-93519819D01*
X134610112Y-93519819D02*
X134133922Y-93519819D01*
X134133922Y-93519819D02*
X134133922Y-92519819D01*
X134943446Y-93519819D02*
X134943446Y-92519819D01*
X135752969Y-92996009D02*
X135895826Y-93043628D01*
X135895826Y-93043628D02*
X135943445Y-93091247D01*
X135943445Y-93091247D02*
X135991064Y-93186485D01*
X135991064Y-93186485D02*
X135991064Y-93329342D01*
X135991064Y-93329342D02*
X135943445Y-93424580D01*
X135943445Y-93424580D02*
X135895826Y-93472200D01*
X135895826Y-93472200D02*
X135800588Y-93519819D01*
X135800588Y-93519819D02*
X135419636Y-93519819D01*
X135419636Y-93519819D02*
X135419636Y-92519819D01*
X135419636Y-92519819D02*
X135752969Y-92519819D01*
X135752969Y-92519819D02*
X135848207Y-92567438D01*
X135848207Y-92567438D02*
X135895826Y-92615057D01*
X135895826Y-92615057D02*
X135943445Y-92710295D01*
X135943445Y-92710295D02*
X135943445Y-92805533D01*
X135943445Y-92805533D02*
X135895826Y-92900771D01*
X135895826Y-92900771D02*
X135848207Y-92948390D01*
X135848207Y-92948390D02*
X135752969Y-92996009D01*
X135752969Y-92996009D02*
X135419636Y-92996009D01*
X136991064Y-93519819D02*
X136657731Y-93043628D01*
X136419636Y-93519819D02*
X136419636Y-92519819D01*
X136419636Y-92519819D02*
X136800588Y-92519819D01*
X136800588Y-92519819D02*
X136895826Y-92567438D01*
X136895826Y-92567438D02*
X136943445Y-92615057D01*
X136943445Y-92615057D02*
X136991064Y-92710295D01*
X136991064Y-92710295D02*
X136991064Y-92853152D01*
X136991064Y-92853152D02*
X136943445Y-92948390D01*
X136943445Y-92948390D02*
X136895826Y-92996009D01*
X136895826Y-92996009D02*
X136800588Y-93043628D01*
X136800588Y-93043628D02*
X136419636Y-93043628D01*
X137372017Y-93234104D02*
X137848207Y-93234104D01*
X137276779Y-93519819D02*
X137610112Y-92519819D01*
X137610112Y-92519819D02*
X137943445Y-93519819D01*
X138133922Y-92519819D02*
X138705350Y-92519819D01*
X138419636Y-93519819D02*
X138419636Y-92519819D01*
X139038684Y-93519819D02*
X139038684Y-92519819D01*
X139705350Y-92519819D02*
X139895826Y-92519819D01*
X139895826Y-92519819D02*
X139991064Y-92567438D01*
X139991064Y-92567438D02*
X140086302Y-92662676D01*
X140086302Y-92662676D02*
X140133921Y-92853152D01*
X140133921Y-92853152D02*
X140133921Y-93186485D01*
X140133921Y-93186485D02*
X140086302Y-93376961D01*
X140086302Y-93376961D02*
X139991064Y-93472200D01*
X139991064Y-93472200D02*
X139895826Y-93519819D01*
X139895826Y-93519819D02*
X139705350Y-93519819D01*
X139705350Y-93519819D02*
X139610112Y-93472200D01*
X139610112Y-93472200D02*
X139514874Y-93376961D01*
X139514874Y-93376961D02*
X139467255Y-93186485D01*
X139467255Y-93186485D02*
X139467255Y-92853152D01*
X139467255Y-92853152D02*
X139514874Y-92662676D01*
X139514874Y-92662676D02*
X139610112Y-92567438D01*
X139610112Y-92567438D02*
X139705350Y-92519819D01*
X140562493Y-93519819D02*
X140562493Y-92519819D01*
X140562493Y-92519819D02*
X141133921Y-93519819D01*
X141133921Y-93519819D02*
X141133921Y-92519819D01*
X115252200Y-61870839D02*
X115299819Y-61727982D01*
X115299819Y-61727982D02*
X115299819Y-61489887D01*
X115299819Y-61489887D02*
X115252200Y-61394649D01*
X115252200Y-61394649D02*
X115204580Y-61347030D01*
X115204580Y-61347030D02*
X115109342Y-61299411D01*
X115109342Y-61299411D02*
X115014104Y-61299411D01*
X115014104Y-61299411D02*
X114918866Y-61347030D01*
X114918866Y-61347030D02*
X114871247Y-61394649D01*
X114871247Y-61394649D02*
X114823628Y-61489887D01*
X114823628Y-61489887D02*
X114776009Y-61680363D01*
X114776009Y-61680363D02*
X114728390Y-61775601D01*
X114728390Y-61775601D02*
X114680771Y-61823220D01*
X114680771Y-61823220D02*
X114585533Y-61870839D01*
X114585533Y-61870839D02*
X114490295Y-61870839D01*
X114490295Y-61870839D02*
X114395057Y-61823220D01*
X114395057Y-61823220D02*
X114347438Y-61775601D01*
X114347438Y-61775601D02*
X114299819Y-61680363D01*
X114299819Y-61680363D02*
X114299819Y-61442268D01*
X114299819Y-61442268D02*
X114347438Y-61299411D01*
X115299819Y-60870839D02*
X114299819Y-60870839D01*
X114299819Y-60870839D02*
X114299819Y-60632744D01*
X114299819Y-60632744D02*
X114347438Y-60489887D01*
X114347438Y-60489887D02*
X114442676Y-60394649D01*
X114442676Y-60394649D02*
X114537914Y-60347030D01*
X114537914Y-60347030D02*
X114728390Y-60299411D01*
X114728390Y-60299411D02*
X114871247Y-60299411D01*
X114871247Y-60299411D02*
X115061723Y-60347030D01*
X115061723Y-60347030D02*
X115156961Y-60394649D01*
X115156961Y-60394649D02*
X115252200Y-60489887D01*
X115252200Y-60489887D02*
X115299819Y-60632744D01*
X115299819Y-60632744D02*
X115299819Y-60870839D01*
X115014104Y-59918458D02*
X115014104Y-59442268D01*
X115299819Y-60013696D02*
X114299819Y-59680363D01*
X114299819Y-59680363D02*
X115299819Y-59347030D01*
X119072200Y-53420839D02*
X119119819Y-53277982D01*
X119119819Y-53277982D02*
X119119819Y-53039887D01*
X119119819Y-53039887D02*
X119072200Y-52944649D01*
X119072200Y-52944649D02*
X119024580Y-52897030D01*
X119024580Y-52897030D02*
X118929342Y-52849411D01*
X118929342Y-52849411D02*
X118834104Y-52849411D01*
X118834104Y-52849411D02*
X118738866Y-52897030D01*
X118738866Y-52897030D02*
X118691247Y-52944649D01*
X118691247Y-52944649D02*
X118643628Y-53039887D01*
X118643628Y-53039887D02*
X118596009Y-53230363D01*
X118596009Y-53230363D02*
X118548390Y-53325601D01*
X118548390Y-53325601D02*
X118500771Y-53373220D01*
X118500771Y-53373220D02*
X118405533Y-53420839D01*
X118405533Y-53420839D02*
X118310295Y-53420839D01*
X118310295Y-53420839D02*
X118215057Y-53373220D01*
X118215057Y-53373220D02*
X118167438Y-53325601D01*
X118167438Y-53325601D02*
X118119819Y-53230363D01*
X118119819Y-53230363D02*
X118119819Y-52992268D01*
X118119819Y-52992268D02*
X118167438Y-52849411D01*
X119024580Y-51849411D02*
X119072200Y-51897030D01*
X119072200Y-51897030D02*
X119119819Y-52039887D01*
X119119819Y-52039887D02*
X119119819Y-52135125D01*
X119119819Y-52135125D02*
X119072200Y-52277982D01*
X119072200Y-52277982D02*
X118976961Y-52373220D01*
X118976961Y-52373220D02*
X118881723Y-52420839D01*
X118881723Y-52420839D02*
X118691247Y-52468458D01*
X118691247Y-52468458D02*
X118548390Y-52468458D01*
X118548390Y-52468458D02*
X118357914Y-52420839D01*
X118357914Y-52420839D02*
X118262676Y-52373220D01*
X118262676Y-52373220D02*
X118167438Y-52277982D01*
X118167438Y-52277982D02*
X118119819Y-52135125D01*
X118119819Y-52135125D02*
X118119819Y-52039887D01*
X118119819Y-52039887D02*
X118167438Y-51897030D01*
X118167438Y-51897030D02*
X118215057Y-51849411D01*
X119119819Y-50944649D02*
X119119819Y-51420839D01*
X119119819Y-51420839D02*
X118119819Y-51420839D01*
X119002200Y-73050839D02*
X119049819Y-72907982D01*
X119049819Y-72907982D02*
X119049819Y-72669887D01*
X119049819Y-72669887D02*
X119002200Y-72574649D01*
X119002200Y-72574649D02*
X118954580Y-72527030D01*
X118954580Y-72527030D02*
X118859342Y-72479411D01*
X118859342Y-72479411D02*
X118764104Y-72479411D01*
X118764104Y-72479411D02*
X118668866Y-72527030D01*
X118668866Y-72527030D02*
X118621247Y-72574649D01*
X118621247Y-72574649D02*
X118573628Y-72669887D01*
X118573628Y-72669887D02*
X118526009Y-72860363D01*
X118526009Y-72860363D02*
X118478390Y-72955601D01*
X118478390Y-72955601D02*
X118430771Y-73003220D01*
X118430771Y-73003220D02*
X118335533Y-73050839D01*
X118335533Y-73050839D02*
X118240295Y-73050839D01*
X118240295Y-73050839D02*
X118145057Y-73003220D01*
X118145057Y-73003220D02*
X118097438Y-72955601D01*
X118097438Y-72955601D02*
X118049819Y-72860363D01*
X118049819Y-72860363D02*
X118049819Y-72622268D01*
X118049819Y-72622268D02*
X118097438Y-72479411D01*
X119049819Y-72050839D02*
X118049819Y-72050839D01*
X118049819Y-72050839D02*
X118049819Y-71812744D01*
X118049819Y-71812744D02*
X118097438Y-71669887D01*
X118097438Y-71669887D02*
X118192676Y-71574649D01*
X118192676Y-71574649D02*
X118287914Y-71527030D01*
X118287914Y-71527030D02*
X118478390Y-71479411D01*
X118478390Y-71479411D02*
X118621247Y-71479411D01*
X118621247Y-71479411D02*
X118811723Y-71527030D01*
X118811723Y-71527030D02*
X118906961Y-71574649D01*
X118906961Y-71574649D02*
X119002200Y-71669887D01*
X119002200Y-71669887D02*
X119049819Y-71812744D01*
X119049819Y-71812744D02*
X119049819Y-72050839D01*
X118764104Y-71098458D02*
X118764104Y-70622268D01*
X119049819Y-71193696D02*
X118049819Y-70860363D01*
X118049819Y-70860363D02*
X119049819Y-70527030D01*
X148854819Y-58316666D02*
X148378628Y-58649999D01*
X148854819Y-58888094D02*
X147854819Y-58888094D01*
X147854819Y-58888094D02*
X147854819Y-58507142D01*
X147854819Y-58507142D02*
X147902438Y-58411904D01*
X147902438Y-58411904D02*
X147950057Y-58364285D01*
X147950057Y-58364285D02*
X148045295Y-58316666D01*
X148045295Y-58316666D02*
X148188152Y-58316666D01*
X148188152Y-58316666D02*
X148283390Y-58364285D01*
X148283390Y-58364285D02*
X148331009Y-58411904D01*
X148331009Y-58411904D02*
X148378628Y-58507142D01*
X148378628Y-58507142D02*
X148378628Y-58888094D01*
X147854819Y-57983332D02*
X147854819Y-57316666D01*
X147854819Y-57316666D02*
X148854819Y-57745237D01*
X124624819Y-97793333D02*
X125339104Y-97793333D01*
X125339104Y-97793333D02*
X125481961Y-97840952D01*
X125481961Y-97840952D02*
X125577200Y-97936190D01*
X125577200Y-97936190D02*
X125624819Y-98079047D01*
X125624819Y-98079047D02*
X125624819Y-98174285D01*
X125624819Y-96793333D02*
X125624819Y-97364761D01*
X125624819Y-97079047D02*
X124624819Y-97079047D01*
X124624819Y-97079047D02*
X124767676Y-97174285D01*
X124767676Y-97174285D02*
X124862914Y-97269523D01*
X124862914Y-97269523D02*
X124910533Y-97364761D01*
X166026666Y-95934819D02*
X166026666Y-96649104D01*
X166026666Y-96649104D02*
X165979047Y-96791961D01*
X165979047Y-96791961D02*
X165883809Y-96887200D01*
X165883809Y-96887200D02*
X165740952Y-96934819D01*
X165740952Y-96934819D02*
X165645714Y-96934819D01*
X166407619Y-95934819D02*
X167026666Y-95934819D01*
X167026666Y-95934819D02*
X166693333Y-96315771D01*
X166693333Y-96315771D02*
X166836190Y-96315771D01*
X166836190Y-96315771D02*
X166931428Y-96363390D01*
X166931428Y-96363390D02*
X166979047Y-96411009D01*
X166979047Y-96411009D02*
X167026666Y-96506247D01*
X167026666Y-96506247D02*
X167026666Y-96744342D01*
X167026666Y-96744342D02*
X166979047Y-96839580D01*
X166979047Y-96839580D02*
X166931428Y-96887200D01*
X166931428Y-96887200D02*
X166836190Y-96934819D01*
X166836190Y-96934819D02*
X166550476Y-96934819D01*
X166550476Y-96934819D02*
X166455238Y-96887200D01*
X166455238Y-96887200D02*
X166407619Y-96839580D01*
X115480819Y-49533333D02*
X116195104Y-49533333D01*
X116195104Y-49533333D02*
X116337961Y-49580952D01*
X116337961Y-49580952D02*
X116433200Y-49676190D01*
X116433200Y-49676190D02*
X116480819Y-49819047D01*
X116480819Y-49819047D02*
X116480819Y-49914285D01*
X115576057Y-49104761D02*
X115528438Y-49057142D01*
X115528438Y-49057142D02*
X115480819Y-48961904D01*
X115480819Y-48961904D02*
X115480819Y-48723809D01*
X115480819Y-48723809D02*
X115528438Y-48628571D01*
X115528438Y-48628571D02*
X115576057Y-48580952D01*
X115576057Y-48580952D02*
X115671295Y-48533333D01*
X115671295Y-48533333D02*
X115766533Y-48533333D01*
X115766533Y-48533333D02*
X115909390Y-48580952D01*
X115909390Y-48580952D02*
X116480819Y-49152380D01*
X116480819Y-49152380D02*
X116480819Y-48533333D01*
X164386666Y-51484819D02*
X164386666Y-52199104D01*
X164386666Y-52199104D02*
X164339047Y-52341961D01*
X164339047Y-52341961D02*
X164243809Y-52437200D01*
X164243809Y-52437200D02*
X164100952Y-52484819D01*
X164100952Y-52484819D02*
X164005714Y-52484819D01*
X165291428Y-51818152D02*
X165291428Y-52484819D01*
X165053333Y-51437200D02*
X164815238Y-52151485D01*
X164815238Y-52151485D02*
X165434285Y-52151485D01*
X149966667Y-88747200D02*
X150109524Y-88794819D01*
X150109524Y-88794819D02*
X150347619Y-88794819D01*
X150347619Y-88794819D02*
X150442857Y-88747200D01*
X150442857Y-88747200D02*
X150490476Y-88699580D01*
X150490476Y-88699580D02*
X150538095Y-88604342D01*
X150538095Y-88604342D02*
X150538095Y-88509104D01*
X150538095Y-88509104D02*
X150490476Y-88413866D01*
X150490476Y-88413866D02*
X150442857Y-88366247D01*
X150442857Y-88366247D02*
X150347619Y-88318628D01*
X150347619Y-88318628D02*
X150157143Y-88271009D01*
X150157143Y-88271009D02*
X150061905Y-88223390D01*
X150061905Y-88223390D02*
X150014286Y-88175771D01*
X150014286Y-88175771D02*
X149966667Y-88080533D01*
X149966667Y-88080533D02*
X149966667Y-87985295D01*
X149966667Y-87985295D02*
X150014286Y-87890057D01*
X150014286Y-87890057D02*
X150061905Y-87842438D01*
X150061905Y-87842438D02*
X150157143Y-87794819D01*
X150157143Y-87794819D02*
X150395238Y-87794819D01*
X150395238Y-87794819D02*
X150538095Y-87842438D01*
X150871429Y-87794819D02*
X151109524Y-88794819D01*
X151109524Y-88794819D02*
X151300000Y-88080533D01*
X151300000Y-88080533D02*
X151490476Y-88794819D01*
X151490476Y-88794819D02*
X151728572Y-87794819D01*
X152538095Y-88128152D02*
X152538095Y-88794819D01*
X152300000Y-87747200D02*
X152061905Y-88461485D01*
X152061905Y-88461485D02*
X152680952Y-88461485D01*
X128011905Y-56734819D02*
X128011905Y-55734819D01*
X128011905Y-55734819D02*
X128250000Y-55734819D01*
X128250000Y-55734819D02*
X128392857Y-55782438D01*
X128392857Y-55782438D02*
X128488095Y-55877676D01*
X128488095Y-55877676D02*
X128535714Y-55972914D01*
X128535714Y-55972914D02*
X128583333Y-56163390D01*
X128583333Y-56163390D02*
X128583333Y-56306247D01*
X128583333Y-56306247D02*
X128535714Y-56496723D01*
X128535714Y-56496723D02*
X128488095Y-56591961D01*
X128488095Y-56591961D02*
X128392857Y-56687200D01*
X128392857Y-56687200D02*
X128250000Y-56734819D01*
X128250000Y-56734819D02*
X128011905Y-56734819D01*
X129535714Y-56734819D02*
X128964286Y-56734819D01*
X129250000Y-56734819D02*
X129250000Y-55734819D01*
X129250000Y-55734819D02*
X129154762Y-55877676D01*
X129154762Y-55877676D02*
X129059524Y-55972914D01*
X129059524Y-55972914D02*
X128964286Y-56020533D01*
X135376667Y-74177200D02*
X135519524Y-74224819D01*
X135519524Y-74224819D02*
X135757619Y-74224819D01*
X135757619Y-74224819D02*
X135852857Y-74177200D01*
X135852857Y-74177200D02*
X135900476Y-74129580D01*
X135900476Y-74129580D02*
X135948095Y-74034342D01*
X135948095Y-74034342D02*
X135948095Y-73939104D01*
X135948095Y-73939104D02*
X135900476Y-73843866D01*
X135900476Y-73843866D02*
X135852857Y-73796247D01*
X135852857Y-73796247D02*
X135757619Y-73748628D01*
X135757619Y-73748628D02*
X135567143Y-73701009D01*
X135567143Y-73701009D02*
X135471905Y-73653390D01*
X135471905Y-73653390D02*
X135424286Y-73605771D01*
X135424286Y-73605771D02*
X135376667Y-73510533D01*
X135376667Y-73510533D02*
X135376667Y-73415295D01*
X135376667Y-73415295D02*
X135424286Y-73320057D01*
X135424286Y-73320057D02*
X135471905Y-73272438D01*
X135471905Y-73272438D02*
X135567143Y-73224819D01*
X135567143Y-73224819D02*
X135805238Y-73224819D01*
X135805238Y-73224819D02*
X135948095Y-73272438D01*
X136281429Y-73224819D02*
X136519524Y-74224819D01*
X136519524Y-74224819D02*
X136710000Y-73510533D01*
X136710000Y-73510533D02*
X136900476Y-74224819D01*
X136900476Y-74224819D02*
X137138572Y-73224819D01*
X137995714Y-73224819D02*
X137519524Y-73224819D01*
X137519524Y-73224819D02*
X137471905Y-73701009D01*
X137471905Y-73701009D02*
X137519524Y-73653390D01*
X137519524Y-73653390D02*
X137614762Y-73605771D01*
X137614762Y-73605771D02*
X137852857Y-73605771D01*
X137852857Y-73605771D02*
X137948095Y-73653390D01*
X137948095Y-73653390D02*
X137995714Y-73701009D01*
X137995714Y-73701009D02*
X138043333Y-73796247D01*
X138043333Y-73796247D02*
X138043333Y-74034342D01*
X138043333Y-74034342D02*
X137995714Y-74129580D01*
X137995714Y-74129580D02*
X137948095Y-74177200D01*
X137948095Y-74177200D02*
X137852857Y-74224819D01*
X137852857Y-74224819D02*
X137614762Y-74224819D01*
X137614762Y-74224819D02*
X137519524Y-74177200D01*
X137519524Y-74177200D02*
X137471905Y-74129580D01*
X147766667Y-74147200D02*
X147909524Y-74194819D01*
X147909524Y-74194819D02*
X148147619Y-74194819D01*
X148147619Y-74194819D02*
X148242857Y-74147200D01*
X148242857Y-74147200D02*
X148290476Y-74099580D01*
X148290476Y-74099580D02*
X148338095Y-74004342D01*
X148338095Y-74004342D02*
X148338095Y-73909104D01*
X148338095Y-73909104D02*
X148290476Y-73813866D01*
X148290476Y-73813866D02*
X148242857Y-73766247D01*
X148242857Y-73766247D02*
X148147619Y-73718628D01*
X148147619Y-73718628D02*
X147957143Y-73671009D01*
X147957143Y-73671009D02*
X147861905Y-73623390D01*
X147861905Y-73623390D02*
X147814286Y-73575771D01*
X147814286Y-73575771D02*
X147766667Y-73480533D01*
X147766667Y-73480533D02*
X147766667Y-73385295D01*
X147766667Y-73385295D02*
X147814286Y-73290057D01*
X147814286Y-73290057D02*
X147861905Y-73242438D01*
X147861905Y-73242438D02*
X147957143Y-73194819D01*
X147957143Y-73194819D02*
X148195238Y-73194819D01*
X148195238Y-73194819D02*
X148338095Y-73242438D01*
X148671429Y-73194819D02*
X148909524Y-74194819D01*
X148909524Y-74194819D02*
X149100000Y-73480533D01*
X149100000Y-73480533D02*
X149290476Y-74194819D01*
X149290476Y-74194819D02*
X149528572Y-73194819D01*
X149861905Y-73290057D02*
X149909524Y-73242438D01*
X149909524Y-73242438D02*
X150004762Y-73194819D01*
X150004762Y-73194819D02*
X150242857Y-73194819D01*
X150242857Y-73194819D02*
X150338095Y-73242438D01*
X150338095Y-73242438D02*
X150385714Y-73290057D01*
X150385714Y-73290057D02*
X150433333Y-73385295D01*
X150433333Y-73385295D02*
X150433333Y-73480533D01*
X150433333Y-73480533D02*
X150385714Y-73623390D01*
X150385714Y-73623390D02*
X149814286Y-74194819D01*
X149814286Y-74194819D02*
X150433333Y-74194819D01*
X136153333Y-82994819D02*
X135820000Y-82518628D01*
X135581905Y-82994819D02*
X135581905Y-81994819D01*
X135581905Y-81994819D02*
X135962857Y-81994819D01*
X135962857Y-81994819D02*
X136058095Y-82042438D01*
X136058095Y-82042438D02*
X136105714Y-82090057D01*
X136105714Y-82090057D02*
X136153333Y-82185295D01*
X136153333Y-82185295D02*
X136153333Y-82328152D01*
X136153333Y-82328152D02*
X136105714Y-82423390D01*
X136105714Y-82423390D02*
X136058095Y-82471009D01*
X136058095Y-82471009D02*
X135962857Y-82518628D01*
X135962857Y-82518628D02*
X135581905Y-82518628D01*
X137010476Y-82328152D02*
X137010476Y-82994819D01*
X136772381Y-81947200D02*
X136534286Y-82661485D01*
X136534286Y-82661485D02*
X137153333Y-82661485D01*
X132753333Y-53954819D02*
X132420000Y-53478628D01*
X132181905Y-53954819D02*
X132181905Y-52954819D01*
X132181905Y-52954819D02*
X132562857Y-52954819D01*
X132562857Y-52954819D02*
X132658095Y-53002438D01*
X132658095Y-53002438D02*
X132705714Y-53050057D01*
X132705714Y-53050057D02*
X132753333Y-53145295D01*
X132753333Y-53145295D02*
X132753333Y-53288152D01*
X132753333Y-53288152D02*
X132705714Y-53383390D01*
X132705714Y-53383390D02*
X132658095Y-53431009D01*
X132658095Y-53431009D02*
X132562857Y-53478628D01*
X132562857Y-53478628D02*
X132181905Y-53478628D01*
X133705714Y-53954819D02*
X133134286Y-53954819D01*
X133420000Y-53954819D02*
X133420000Y-52954819D01*
X133420000Y-52954819D02*
X133324762Y-53097676D01*
X133324762Y-53097676D02*
X133229524Y-53192914D01*
X133229524Y-53192914D02*
X133134286Y-53240533D01*
X135156667Y-88827200D02*
X135299524Y-88874819D01*
X135299524Y-88874819D02*
X135537619Y-88874819D01*
X135537619Y-88874819D02*
X135632857Y-88827200D01*
X135632857Y-88827200D02*
X135680476Y-88779580D01*
X135680476Y-88779580D02*
X135728095Y-88684342D01*
X135728095Y-88684342D02*
X135728095Y-88589104D01*
X135728095Y-88589104D02*
X135680476Y-88493866D01*
X135680476Y-88493866D02*
X135632857Y-88446247D01*
X135632857Y-88446247D02*
X135537619Y-88398628D01*
X135537619Y-88398628D02*
X135347143Y-88351009D01*
X135347143Y-88351009D02*
X135251905Y-88303390D01*
X135251905Y-88303390D02*
X135204286Y-88255771D01*
X135204286Y-88255771D02*
X135156667Y-88160533D01*
X135156667Y-88160533D02*
X135156667Y-88065295D01*
X135156667Y-88065295D02*
X135204286Y-87970057D01*
X135204286Y-87970057D02*
X135251905Y-87922438D01*
X135251905Y-87922438D02*
X135347143Y-87874819D01*
X135347143Y-87874819D02*
X135585238Y-87874819D01*
X135585238Y-87874819D02*
X135728095Y-87922438D01*
X136061429Y-87874819D02*
X136299524Y-88874819D01*
X136299524Y-88874819D02*
X136490000Y-88160533D01*
X136490000Y-88160533D02*
X136680476Y-88874819D01*
X136680476Y-88874819D02*
X136918572Y-87874819D01*
X137204286Y-87874819D02*
X137823333Y-87874819D01*
X137823333Y-87874819D02*
X137490000Y-88255771D01*
X137490000Y-88255771D02*
X137632857Y-88255771D01*
X137632857Y-88255771D02*
X137728095Y-88303390D01*
X137728095Y-88303390D02*
X137775714Y-88351009D01*
X137775714Y-88351009D02*
X137823333Y-88446247D01*
X137823333Y-88446247D02*
X137823333Y-88684342D01*
X137823333Y-88684342D02*
X137775714Y-88779580D01*
X137775714Y-88779580D02*
X137728095Y-88827200D01*
X137728095Y-88827200D02*
X137632857Y-88874819D01*
X137632857Y-88874819D02*
X137347143Y-88874819D01*
X137347143Y-88874819D02*
X137251905Y-88827200D01*
X137251905Y-88827200D02*
X137204286Y-88779580D01*
X107724819Y-69108333D02*
X108439104Y-69108333D01*
X108439104Y-69108333D02*
X108581961Y-69155952D01*
X108581961Y-69155952D02*
X108677200Y-69251190D01*
X108677200Y-69251190D02*
X108724819Y-69394047D01*
X108724819Y-69394047D02*
X108724819Y-69489285D01*
X107724819Y-68203571D02*
X107724819Y-68394047D01*
X107724819Y-68394047D02*
X107772438Y-68489285D01*
X107772438Y-68489285D02*
X107820057Y-68536904D01*
X107820057Y-68536904D02*
X107962914Y-68632142D01*
X107962914Y-68632142D02*
X108153390Y-68679761D01*
X108153390Y-68679761D02*
X108534342Y-68679761D01*
X108534342Y-68679761D02*
X108629580Y-68632142D01*
X108629580Y-68632142D02*
X108677200Y-68584523D01*
X108677200Y-68584523D02*
X108724819Y-68489285D01*
X108724819Y-68489285D02*
X108724819Y-68298809D01*
X108724819Y-68298809D02*
X108677200Y-68203571D01*
X108677200Y-68203571D02*
X108629580Y-68155952D01*
X108629580Y-68155952D02*
X108534342Y-68108333D01*
X108534342Y-68108333D02*
X108296247Y-68108333D01*
X108296247Y-68108333D02*
X108201009Y-68155952D01*
X108201009Y-68155952D02*
X108153390Y-68203571D01*
X108153390Y-68203571D02*
X108105771Y-68298809D01*
X108105771Y-68298809D02*
X108105771Y-68489285D01*
X108105771Y-68489285D02*
X108153390Y-68584523D01*
X108153390Y-68584523D02*
X108201009Y-68632142D01*
X108201009Y-68632142D02*
X108296247Y-68679761D01*
X160746667Y-74087200D02*
X160889524Y-74134819D01*
X160889524Y-74134819D02*
X161127619Y-74134819D01*
X161127619Y-74134819D02*
X161222857Y-74087200D01*
X161222857Y-74087200D02*
X161270476Y-74039580D01*
X161270476Y-74039580D02*
X161318095Y-73944342D01*
X161318095Y-73944342D02*
X161318095Y-73849104D01*
X161318095Y-73849104D02*
X161270476Y-73753866D01*
X161270476Y-73753866D02*
X161222857Y-73706247D01*
X161222857Y-73706247D02*
X161127619Y-73658628D01*
X161127619Y-73658628D02*
X160937143Y-73611009D01*
X160937143Y-73611009D02*
X160841905Y-73563390D01*
X160841905Y-73563390D02*
X160794286Y-73515771D01*
X160794286Y-73515771D02*
X160746667Y-73420533D01*
X160746667Y-73420533D02*
X160746667Y-73325295D01*
X160746667Y-73325295D02*
X160794286Y-73230057D01*
X160794286Y-73230057D02*
X160841905Y-73182438D01*
X160841905Y-73182438D02*
X160937143Y-73134819D01*
X160937143Y-73134819D02*
X161175238Y-73134819D01*
X161175238Y-73134819D02*
X161318095Y-73182438D01*
X161651429Y-73134819D02*
X161889524Y-74134819D01*
X161889524Y-74134819D02*
X162080000Y-73420533D01*
X162080000Y-73420533D02*
X162270476Y-74134819D01*
X162270476Y-74134819D02*
X162508572Y-73134819D01*
X163413333Y-74134819D02*
X162841905Y-74134819D01*
X163127619Y-74134819D02*
X163127619Y-73134819D01*
X163127619Y-73134819D02*
X163032381Y-73277676D01*
X163032381Y-73277676D02*
X162937143Y-73372914D01*
X162937143Y-73372914D02*
X162841905Y-73420533D01*
X150863333Y-82884819D02*
X150530000Y-82408628D01*
X150291905Y-82884819D02*
X150291905Y-81884819D01*
X150291905Y-81884819D02*
X150672857Y-81884819D01*
X150672857Y-81884819D02*
X150768095Y-81932438D01*
X150768095Y-81932438D02*
X150815714Y-81980057D01*
X150815714Y-81980057D02*
X150863333Y-82075295D01*
X150863333Y-82075295D02*
X150863333Y-82218152D01*
X150863333Y-82218152D02*
X150815714Y-82313390D01*
X150815714Y-82313390D02*
X150768095Y-82361009D01*
X150768095Y-82361009D02*
X150672857Y-82408628D01*
X150672857Y-82408628D02*
X150291905Y-82408628D01*
X151768095Y-81884819D02*
X151291905Y-81884819D01*
X151291905Y-81884819D02*
X151244286Y-82361009D01*
X151244286Y-82361009D02*
X151291905Y-82313390D01*
X151291905Y-82313390D02*
X151387143Y-82265771D01*
X151387143Y-82265771D02*
X151625238Y-82265771D01*
X151625238Y-82265771D02*
X151720476Y-82313390D01*
X151720476Y-82313390D02*
X151768095Y-82361009D01*
X151768095Y-82361009D02*
X151815714Y-82456247D01*
X151815714Y-82456247D02*
X151815714Y-82694342D01*
X151815714Y-82694342D02*
X151768095Y-82789580D01*
X151768095Y-82789580D02*
X151720476Y-82837200D01*
X151720476Y-82837200D02*
X151625238Y-82884819D01*
X151625238Y-82884819D02*
X151387143Y-82884819D01*
X151387143Y-82884819D02*
X151291905Y-82837200D01*
X151291905Y-82837200D02*
X151244286Y-82789580D01*
X141169819Y-57863333D02*
X141884104Y-57863333D01*
X141884104Y-57863333D02*
X142026961Y-57910952D01*
X142026961Y-57910952D02*
X142122200Y-58006190D01*
X142122200Y-58006190D02*
X142169819Y-58149047D01*
X142169819Y-58149047D02*
X142169819Y-58244285D01*
X141169819Y-57482380D02*
X141169819Y-56815714D01*
X141169819Y-56815714D02*
X142169819Y-57244285D01*
X160743333Y-63314819D02*
X160410000Y-62838628D01*
X160171905Y-63314819D02*
X160171905Y-62314819D01*
X160171905Y-62314819D02*
X160552857Y-62314819D01*
X160552857Y-62314819D02*
X160648095Y-62362438D01*
X160648095Y-62362438D02*
X160695714Y-62410057D01*
X160695714Y-62410057D02*
X160743333Y-62505295D01*
X160743333Y-62505295D02*
X160743333Y-62648152D01*
X160743333Y-62648152D02*
X160695714Y-62743390D01*
X160695714Y-62743390D02*
X160648095Y-62791009D01*
X160648095Y-62791009D02*
X160552857Y-62838628D01*
X160552857Y-62838628D02*
X160171905Y-62838628D01*
X161124286Y-62410057D02*
X161171905Y-62362438D01*
X161171905Y-62362438D02*
X161267143Y-62314819D01*
X161267143Y-62314819D02*
X161505238Y-62314819D01*
X161505238Y-62314819D02*
X161600476Y-62362438D01*
X161600476Y-62362438D02*
X161648095Y-62410057D01*
X161648095Y-62410057D02*
X161695714Y-62505295D01*
X161695714Y-62505295D02*
X161695714Y-62600533D01*
X161695714Y-62600533D02*
X161648095Y-62743390D01*
X161648095Y-62743390D02*
X161076667Y-63314819D01*
X161076667Y-63314819D02*
X161695714Y-63314819D01*
X163144819Y-90595238D02*
X162668628Y-90928571D01*
X163144819Y-91166666D02*
X162144819Y-91166666D01*
X162144819Y-91166666D02*
X162144819Y-90785714D01*
X162144819Y-90785714D02*
X162192438Y-90690476D01*
X162192438Y-90690476D02*
X162240057Y-90642857D01*
X162240057Y-90642857D02*
X162335295Y-90595238D01*
X162335295Y-90595238D02*
X162478152Y-90595238D01*
X162478152Y-90595238D02*
X162573390Y-90642857D01*
X162573390Y-90642857D02*
X162621009Y-90690476D01*
X162621009Y-90690476D02*
X162668628Y-90785714D01*
X162668628Y-90785714D02*
X162668628Y-91166666D01*
X162144819Y-90309523D02*
X163144819Y-89976190D01*
X163144819Y-89976190D02*
X162144819Y-89642857D01*
X163144819Y-88785714D02*
X163144819Y-89357142D01*
X163144819Y-89071428D02*
X162144819Y-89071428D01*
X162144819Y-89071428D02*
X162287676Y-89166666D01*
X162287676Y-89166666D02*
X162382914Y-89261904D01*
X162382914Y-89261904D02*
X162430533Y-89357142D01*
X103794819Y-64273333D02*
X104509104Y-64273333D01*
X104509104Y-64273333D02*
X104651961Y-64320952D01*
X104651961Y-64320952D02*
X104747200Y-64416190D01*
X104747200Y-64416190D02*
X104794819Y-64559047D01*
X104794819Y-64559047D02*
X104794819Y-64654285D01*
X103794819Y-63320952D02*
X103794819Y-63797142D01*
X103794819Y-63797142D02*
X104271009Y-63844761D01*
X104271009Y-63844761D02*
X104223390Y-63797142D01*
X104223390Y-63797142D02*
X104175771Y-63701904D01*
X104175771Y-63701904D02*
X104175771Y-63463809D01*
X104175771Y-63463809D02*
X104223390Y-63368571D01*
X104223390Y-63368571D02*
X104271009Y-63320952D01*
X104271009Y-63320952D02*
X104366247Y-63273333D01*
X104366247Y-63273333D02*
X104604342Y-63273333D01*
X104604342Y-63273333D02*
X104699580Y-63320952D01*
X104699580Y-63320952D02*
X104747200Y-63368571D01*
X104747200Y-63368571D02*
X104794819Y-63463809D01*
X104794819Y-63463809D02*
X104794819Y-63701904D01*
X104794819Y-63701904D02*
X104747200Y-63797142D01*
X104747200Y-63797142D02*
X104699580Y-63844761D01*
X136273333Y-67794819D02*
X135940000Y-67318628D01*
X135701905Y-67794819D02*
X135701905Y-66794819D01*
X135701905Y-66794819D02*
X136082857Y-66794819D01*
X136082857Y-66794819D02*
X136178095Y-66842438D01*
X136178095Y-66842438D02*
X136225714Y-66890057D01*
X136225714Y-66890057D02*
X136273333Y-66985295D01*
X136273333Y-66985295D02*
X136273333Y-67128152D01*
X136273333Y-67128152D02*
X136225714Y-67223390D01*
X136225714Y-67223390D02*
X136178095Y-67271009D01*
X136178095Y-67271009D02*
X136082857Y-67318628D01*
X136082857Y-67318628D02*
X135701905Y-67318628D01*
X137130476Y-66794819D02*
X136940000Y-66794819D01*
X136940000Y-66794819D02*
X136844762Y-66842438D01*
X136844762Y-66842438D02*
X136797143Y-66890057D01*
X136797143Y-66890057D02*
X136701905Y-67032914D01*
X136701905Y-67032914D02*
X136654286Y-67223390D01*
X136654286Y-67223390D02*
X136654286Y-67604342D01*
X136654286Y-67604342D02*
X136701905Y-67699580D01*
X136701905Y-67699580D02*
X136749524Y-67747200D01*
X136749524Y-67747200D02*
X136844762Y-67794819D01*
X136844762Y-67794819D02*
X137035238Y-67794819D01*
X137035238Y-67794819D02*
X137130476Y-67747200D01*
X137130476Y-67747200D02*
X137178095Y-67699580D01*
X137178095Y-67699580D02*
X137225714Y-67604342D01*
X137225714Y-67604342D02*
X137225714Y-67366247D01*
X137225714Y-67366247D02*
X137178095Y-67271009D01*
X137178095Y-67271009D02*
X137130476Y-67223390D01*
X137130476Y-67223390D02*
X137035238Y-67175771D01*
X137035238Y-67175771D02*
X136844762Y-67175771D01*
X136844762Y-67175771D02*
X136749524Y-67223390D01*
X136749524Y-67223390D02*
X136701905Y-67271009D01*
X136701905Y-67271009D02*
X136654286Y-67366247D01*
X150413333Y-67934819D02*
X150080000Y-67458628D01*
X149841905Y-67934819D02*
X149841905Y-66934819D01*
X149841905Y-66934819D02*
X150222857Y-66934819D01*
X150222857Y-66934819D02*
X150318095Y-66982438D01*
X150318095Y-66982438D02*
X150365714Y-67030057D01*
X150365714Y-67030057D02*
X150413333Y-67125295D01*
X150413333Y-67125295D02*
X150413333Y-67268152D01*
X150413333Y-67268152D02*
X150365714Y-67363390D01*
X150365714Y-67363390D02*
X150318095Y-67411009D01*
X150318095Y-67411009D02*
X150222857Y-67458628D01*
X150222857Y-67458628D02*
X149841905Y-67458628D01*
X150746667Y-66934819D02*
X151365714Y-66934819D01*
X151365714Y-66934819D02*
X151032381Y-67315771D01*
X151032381Y-67315771D02*
X151175238Y-67315771D01*
X151175238Y-67315771D02*
X151270476Y-67363390D01*
X151270476Y-67363390D02*
X151318095Y-67411009D01*
X151318095Y-67411009D02*
X151365714Y-67506247D01*
X151365714Y-67506247D02*
X151365714Y-67744342D01*
X151365714Y-67744342D02*
X151318095Y-67839580D01*
X151318095Y-67839580D02*
X151270476Y-67887200D01*
X151270476Y-67887200D02*
X151175238Y-67934819D01*
X151175238Y-67934819D02*
X150889524Y-67934819D01*
X150889524Y-67934819D02*
X150794286Y-67887200D01*
X150794286Y-67887200D02*
X150746667Y-67839580D01*
D12*
%TO.C,R7*%
X148400000Y-54110000D02*
X148400000Y-54880000D01*
X149770000Y-54880000D02*
X147030000Y-54880000D01*
X147030000Y-54880000D02*
X147030000Y-61420000D01*
X149770000Y-61420000D02*
X149770000Y-54880000D01*
X147030000Y-61420000D02*
X149770000Y-61420000D01*
X148400000Y-62190000D02*
X148400000Y-61420000D01*
%TO.C,J1*%
X126610000Y-96130000D02*
X127940000Y-96130000D01*
X126610000Y-97460000D02*
X126610000Y-96130000D01*
X129210000Y-96130000D02*
X147050000Y-96130000D01*
X129210000Y-98790000D02*
X129210000Y-96130000D01*
X129210000Y-98790000D02*
X147050000Y-98790000D01*
X147050000Y-98790000D02*
X147050000Y-96130000D01*
%TO.C,J3*%
X149470000Y-96130000D02*
X150800000Y-96130000D01*
X149470000Y-97460000D02*
X149470000Y-96130000D01*
X152070000Y-96130000D02*
X164830000Y-96130000D01*
X152070000Y-98790000D02*
X152070000Y-96130000D01*
X152070000Y-98790000D02*
X164830000Y-98790000D01*
X164830000Y-98790000D02*
X164830000Y-96130000D01*
%TO.C,J2*%
X117466000Y-47870000D02*
X118796000Y-47870000D01*
X117466000Y-49200000D02*
X117466000Y-47870000D01*
X120066000Y-47870000D02*
X142986000Y-47870000D01*
X120066000Y-50530000D02*
X120066000Y-47870000D01*
X120066000Y-50530000D02*
X142986000Y-50530000D01*
X142986000Y-50530000D02*
X142986000Y-47870000D01*
%TO.C,J4*%
X144390000Y-47870000D02*
X145720000Y-47870000D01*
X144390000Y-49200000D02*
X144390000Y-47870000D01*
X146990000Y-47870000D02*
X164830000Y-47870000D01*
X146990000Y-50530000D02*
X146990000Y-47870000D01*
X146990000Y-50530000D02*
X164830000Y-50530000D01*
X164830000Y-50530000D02*
X164830000Y-47870000D01*
%TO.C,SW4*%
X147800000Y-87590000D02*
X147800000Y-89090000D01*
X149050000Y-91590000D02*
X153550000Y-91590000D01*
X153550000Y-85090000D02*
X149050000Y-85090000D01*
X154800000Y-89090000D02*
X154800000Y-87590000D01*
%TO.C,D1*%
X135410000Y-60385000D02*
X135410000Y-57295000D01*
X129860000Y-58840462D02*
G75*
G02*
X135410000Y-57295170I2990000J462D01*
G01*
X135410000Y-60384830D02*
G75*
G02*
X129860000Y-58839538I-2560000J1544830D01*
G01*
X135350000Y-58840000D02*
G75*
G02*
X130350000Y-58840000I-2500000J0D01*
G01*
X130350000Y-58840000D02*
G75*
G02*
X135350000Y-58840000I2500000J0D01*
G01*
%TO.C,SW5*%
X133210000Y-73020000D02*
X133210000Y-74520000D01*
X134460000Y-77020000D02*
X138960000Y-77020000D01*
X138960000Y-70520000D02*
X134460000Y-70520000D01*
X140210000Y-74520000D02*
X140210000Y-73020000D01*
%TO.C,SW2*%
X145600000Y-72990000D02*
X145600000Y-74490000D01*
X146850000Y-76990000D02*
X151350000Y-76990000D01*
X151350000Y-70490000D02*
X146850000Y-70490000D01*
X152600000Y-74490000D02*
X152600000Y-72990000D01*
%TO.C,R4*%
X132350000Y-82530000D02*
X133120000Y-82530000D01*
X133120000Y-81160000D02*
X133120000Y-83900000D01*
X133120000Y-83900000D02*
X139660000Y-83900000D01*
X139660000Y-81160000D02*
X133120000Y-81160000D01*
X139660000Y-83900000D02*
X139660000Y-81160000D01*
X140430000Y-82530000D02*
X139660000Y-82530000D01*
%TO.C,R1*%
X128920000Y-53530000D02*
X129690000Y-53530000D01*
X129690000Y-52160000D02*
X129690000Y-54900000D01*
X129690000Y-54900000D02*
X136230000Y-54900000D01*
X136230000Y-52160000D02*
X129690000Y-52160000D01*
X136230000Y-54900000D02*
X136230000Y-52160000D01*
X137000000Y-53530000D02*
X136230000Y-53530000D01*
%TO.C,SW3*%
X132990000Y-87670000D02*
X132990000Y-89170000D01*
X134240000Y-91670000D02*
X138740000Y-91670000D01*
X138740000Y-85170000D02*
X134240000Y-85170000D01*
X139990000Y-89170000D02*
X139990000Y-87670000D01*
%TO.C,J6*%
X109710000Y-67445000D02*
X111040000Y-67445000D01*
X109710000Y-68775000D02*
X109710000Y-67445000D01*
X112310000Y-67445000D02*
X119990000Y-67445000D01*
X112310000Y-70105000D02*
X112310000Y-67445000D01*
X112310000Y-70105000D02*
X119990000Y-70105000D01*
X119990000Y-70105000D02*
X119990000Y-67445000D01*
%TO.C,SW1*%
X158580000Y-72930000D02*
X158580000Y-74430000D01*
X159830000Y-76930000D02*
X164330000Y-76930000D01*
X164330000Y-70430000D02*
X159830000Y-70430000D01*
X165580000Y-74430000D02*
X165580000Y-72930000D01*
%TO.C,R5*%
X147060000Y-82440000D02*
X147830000Y-82440000D01*
X147830000Y-81070000D02*
X147830000Y-83810000D01*
X147830000Y-83810000D02*
X154370000Y-83810000D01*
X154370000Y-81070000D02*
X147830000Y-81070000D01*
X154370000Y-83810000D02*
X154370000Y-81070000D01*
X155140000Y-82440000D02*
X154370000Y-82440000D01*
%TO.C,J7*%
X140215000Y-52530000D02*
X140215000Y-62650000D01*
X140215000Y-62650000D02*
X146185000Y-62650000D01*
X140975000Y-53290000D02*
X140975000Y-57590000D01*
X140975000Y-61890000D02*
X140975000Y-57590000D01*
X143925000Y-52540000D02*
X143925000Y-53290000D01*
X143925000Y-53290000D02*
X140975000Y-53290000D01*
X143925000Y-61890000D02*
X140975000Y-61890000D01*
X143925000Y-62640000D02*
X143925000Y-61890000D01*
X145425000Y-52540000D02*
X145425000Y-54340000D01*
X145425000Y-54340000D02*
X146175000Y-54340000D01*
X145425000Y-55840000D02*
X145425000Y-59340000D01*
X145425000Y-59340000D02*
X146175000Y-59340000D01*
X145425000Y-60840000D02*
X145425000Y-62640000D01*
X145425000Y-62640000D02*
X146175000Y-62640000D01*
X146175000Y-52540000D02*
X145425000Y-52540000D01*
X146175000Y-54340000D02*
X146175000Y-52540000D01*
X146175000Y-55840000D02*
X145425000Y-55840000D01*
X146175000Y-59340000D02*
X146175000Y-55840000D01*
X146175000Y-60840000D02*
X145425000Y-60840000D01*
X146175000Y-62640000D02*
X146175000Y-60840000D01*
X146185000Y-52530000D02*
X140215000Y-52530000D01*
X146185000Y-62650000D02*
X146185000Y-52530000D01*
X146475000Y-52240000D02*
X145225000Y-52240000D01*
X146475000Y-53490000D02*
X146475000Y-52240000D01*
%TO.C,R2*%
X156940000Y-62810000D02*
X157710000Y-62810000D01*
X157710000Y-61440000D02*
X157710000Y-64180000D01*
X157710000Y-64180000D02*
X164250000Y-64180000D01*
X164250000Y-61440000D02*
X157710000Y-61440000D01*
X164250000Y-64180000D02*
X164250000Y-61440000D01*
X165020000Y-62810000D02*
X164250000Y-62810000D01*
%TO.C,RV1*%
X157805000Y-85115000D02*
X157805000Y-94885000D01*
X167575000Y-85115000D02*
X157805000Y-85115000D01*
X167575000Y-85115000D02*
X167575000Y-94885000D01*
X167575000Y-94885000D02*
X157805000Y-94885000D01*
%TO.C,J5*%
X105860000Y-62530000D02*
X107190000Y-62530000D01*
X105860000Y-63860000D02*
X105860000Y-62530000D01*
X108460000Y-62530000D02*
X126300000Y-62530000D01*
X108460000Y-65190000D02*
X108460000Y-62530000D01*
X108460000Y-65190000D02*
X126300000Y-65190000D01*
X126300000Y-65190000D02*
X126300000Y-62530000D01*
%TO.C,R6*%
X132370000Y-67410000D02*
X133140000Y-67410000D01*
X133140000Y-66040000D02*
X133140000Y-68780000D01*
X133140000Y-68780000D02*
X139680000Y-68780000D01*
X139680000Y-66040000D02*
X133140000Y-66040000D01*
X139680000Y-68780000D02*
X139680000Y-66040000D01*
X140450000Y-67410000D02*
X139680000Y-67410000D01*
%TO.C,R3*%
X146490000Y-67340000D02*
X147260000Y-67340000D01*
X147260000Y-65970000D02*
X147260000Y-68710000D01*
X147260000Y-68710000D02*
X153800000Y-68710000D01*
X153800000Y-65970000D02*
X147260000Y-65970000D01*
X153800000Y-68710000D02*
X153800000Y-65970000D01*
X154570000Y-67340000D02*
X153800000Y-67340000D01*
%TD*%
M02*
