%TF.GenerationSoftware,KiCad,Pcbnew,8.0.5*%
%TF.CreationDate,2025-02-01T09:45:28-07:00*%
%TF.ProjectId,Uno_Shield_ThermoPro,556e6f5f-5368-4696-956c-645f54686572,rev?*%
%TF.SameCoordinates,Original*%
%TF.FileFunction,Copper,L1,Top*%
%TF.FilePolarity,Positive*%
%FSLAX46Y46*%
G04 Gerber Fmt 4.6, Leading zero omitted, Abs format (unit mm)*
G04 Created by KiCad (PCBNEW 8.0.5) date 2025-02-01 09:45:28*
%MOMM*%
%LPD*%
G01*
G04 APERTURE LIST*
G04 Aperture macros list*
%AMRoundRect*
0 Rectangle with rounded corners*
0 $1 Rounding radius*
0 $2 $3 $4 $5 $6 $7 $8 $9 X,Y pos of 4 corners*
0 Add a 4 corners polygon primitive as box body*
4,1,4,$2,$3,$4,$5,$6,$7,$8,$9,$2,$3,0*
0 Add four circle primitives for the rounded corners*
1,1,$1+$1,$2,$3*
1,1,$1+$1,$4,$5*
1,1,$1+$1,$6,$7*
1,1,$1+$1,$8,$9*
0 Add four rect primitives between the rounded corners*
20,1,$1+$1,$2,$3,$4,$5,0*
20,1,$1+$1,$4,$5,$6,$7,0*
20,1,$1+$1,$6,$7,$8,$9,0*
20,1,$1+$1,$8,$9,$2,$3,0*%
G04 Aperture macros list end*
%TA.AperFunction,ComponentPad*%
%ADD10R,1.700000X1.700000*%
%TD*%
%TA.AperFunction,ComponentPad*%
%ADD11O,1.700000X1.700000*%
%TD*%
%TA.AperFunction,ComponentPad*%
%ADD12C,2.000000*%
%TD*%
%TA.AperFunction,ComponentPad*%
%ADD13R,1.800000X1.800000*%
%TD*%
%TA.AperFunction,ComponentPad*%
%ADD14C,1.800000*%
%TD*%
%TA.AperFunction,ComponentPad*%
%ADD15C,1.600000*%
%TD*%
%TA.AperFunction,ComponentPad*%
%ADD16O,1.600000X1.600000*%
%TD*%
%TA.AperFunction,ComponentPad*%
%ADD17RoundRect,0.250000X-0.725000X0.600000X-0.725000X-0.600000X0.725000X-0.600000X0.725000X0.600000X0*%
%TD*%
%TA.AperFunction,ComponentPad*%
%ADD18O,1.950000X1.700000*%
%TD*%
%TA.AperFunction,ComponentPad*%
%ADD19C,1.440000*%
%TD*%
%TA.AperFunction,Conductor*%
%ADD20C,0.508000*%
%TD*%
G04 APERTURE END LIST*
D10*
%TO.P,J1,1,Pin_1*%
%TO.N,unconnected-(J1-Pin_1-Pad1)*%
X127940000Y-97460000D03*
D11*
%TO.P,J1,2,Pin_2*%
%TO.N,/IOREF*%
X130480000Y-97460000D03*
%TO.P,J1,3,Pin_3*%
%TO.N,/~{RESET}*%
X133020000Y-97460000D03*
%TO.P,J1,4,Pin_4*%
%TO.N,+3V3*%
X135560000Y-97460000D03*
%TO.P,J1,5,Pin_5*%
%TO.N,+5V*%
X138100000Y-97460000D03*
%TO.P,J1,6,Pin_6*%
%TO.N,GND*%
X140640000Y-97460000D03*
%TO.P,J1,7,Pin_7*%
X143180000Y-97460000D03*
%TO.P,J1,8,Pin_8*%
%TO.N,VCC*%
X145720000Y-97460000D03*
%TD*%
D10*
%TO.P,J3,1,Pin_1*%
%TO.N,/temp_sensor*%
X150800000Y-97460000D03*
D11*
%TO.P,J3,2,Pin_2*%
%TO.N,/A1*%
X153340000Y-97460000D03*
%TO.P,J3,3,Pin_3*%
%TO.N,/A2*%
X155880000Y-97460000D03*
%TO.P,J3,4,Pin_4*%
%TO.N,/A3*%
X158420000Y-97460000D03*
%TO.P,J3,5,Pin_5*%
%TO.N,/SDA{slash}A4*%
X160960000Y-97460000D03*
%TO.P,J3,6,Pin_6*%
%TO.N,/SCL{slash}A5*%
X163500000Y-97460000D03*
%TD*%
D10*
%TO.P,J2,1,Pin_1*%
%TO.N,/I2C_SCL*%
X118796000Y-49200000D03*
D11*
%TO.P,J2,2,Pin_2*%
%TO.N,/I2C_SDA*%
X121336000Y-49200000D03*
%TO.P,J2,3,Pin_3*%
%TO.N,/AREF*%
X123876000Y-49200000D03*
%TO.P,J2,4,Pin_4*%
%TO.N,GND*%
X126416000Y-49200000D03*
%TO.P,J2,5,Pin_5*%
%TO.N,/13*%
X128956000Y-49200000D03*
%TO.P,J2,6,Pin_6*%
%TO.N,/12*%
X131496000Y-49200000D03*
%TO.P,J2,7,Pin_7*%
%TO.N,/\u002A11*%
X134036000Y-49200000D03*
%TO.P,J2,8,Pin_8*%
%TO.N,/\u002A10*%
X136576000Y-49200000D03*
%TO.P,J2,9,Pin_9*%
%TO.N,/led_light*%
X139116000Y-49200000D03*
%TO.P,J2,10,Pin_10*%
%TO.N,/temp_digital*%
X141656000Y-49200000D03*
%TD*%
D10*
%TO.P,J4,1,Pin_1*%
%TO.N,/7*%
X145720000Y-49200000D03*
D11*
%TO.P,J4,2,Pin_2*%
%TO.N,/button_light*%
X148260000Y-49200000D03*
%TO.P,J4,3,Pin_3*%
%TO.N,/button_cal*%
X150800000Y-49200000D03*
%TO.P,J4,4,Pin_4*%
%TO.N,/button_units*%
X153340000Y-49200000D03*
%TO.P,J4,5,Pin_5*%
%TO.N,/button_lock*%
X155880000Y-49200000D03*
%TO.P,J4,6,Pin_6*%
%TO.N,/button_onoff*%
X158420000Y-49200000D03*
%TO.P,J4,7,Pin_7*%
%TO.N,/TX{slash}1*%
X160960000Y-49200000D03*
%TO.P,J4,8,Pin_8*%
%TO.N,/RX{slash}0*%
X163500000Y-49200000D03*
%TD*%
D12*
%TO.P,SW4,1,A*%
%TO.N,/button_lock*%
X148050000Y-86090000D03*
X154550000Y-86090000D03*
%TO.P,SW4,2,B*%
%TO.N,+5V*%
X148050000Y-90590000D03*
X154550000Y-90590000D03*
%TD*%
D13*
%TO.P,D1,1,K*%
%TO.N,GND*%
X134120000Y-58840000D03*
D14*
%TO.P,D1,2,A*%
%TO.N,Net-(D1-A)*%
X131580000Y-58840000D03*
%TD*%
D12*
%TO.P,SW5,1,A*%
%TO.N,/button_light*%
X133460000Y-71520000D03*
X139960000Y-71520000D03*
%TO.P,SW5,2,B*%
%TO.N,+5V*%
X133460000Y-76020000D03*
X139960000Y-76020000D03*
%TD*%
%TO.P,SW2,1,A*%
%TO.N,/button_units*%
X145850000Y-71490000D03*
X152350000Y-71490000D03*
%TO.P,SW2,2,B*%
%TO.N,+5V*%
X145850000Y-75990000D03*
X152350000Y-75990000D03*
%TD*%
D15*
%TO.P,R4,1*%
%TO.N,/button_cal*%
X131310000Y-82530000D03*
D16*
%TO.P,R4,2*%
%TO.N,GND*%
X141470000Y-82530000D03*
%TD*%
D15*
%TO.P,R1,1*%
%TO.N,/led_light*%
X138040000Y-53530000D03*
D16*
%TO.P,R1,2*%
%TO.N,Net-(D1-A)*%
X127880000Y-53530000D03*
%TD*%
D12*
%TO.P,SW3,1,A*%
%TO.N,/button_cal*%
X133240000Y-86170000D03*
X139740000Y-86170000D03*
%TO.P,SW3,2,B*%
%TO.N,+5V*%
X133240000Y-90670000D03*
X139740000Y-90670000D03*
%TD*%
D10*
%TO.P,J6,1,Pin_1*%
%TO.N,GND*%
X111040000Y-68775000D03*
D11*
%TO.P,J6,2,Pin_2*%
%TO.N,+5V*%
X113580000Y-68775000D03*
%TO.P,J6,3,Pin_3*%
%TO.N,/I2C_SCL*%
X116120000Y-68775000D03*
%TO.P,J6,4,Pin_4*%
%TO.N,/I2C_SDA*%
X118660000Y-68775000D03*
%TD*%
D12*
%TO.P,SW1,1,A*%
%TO.N,/button_onoff*%
X158830000Y-71430000D03*
X165330000Y-71430000D03*
%TO.P,SW1,2,B*%
%TO.N,+5V*%
X158830000Y-75930000D03*
X165330000Y-75930000D03*
%TD*%
D15*
%TO.P,R5,1*%
%TO.N,/button_lock*%
X146020000Y-82440000D03*
D16*
%TO.P,R5,2*%
%TO.N,GND*%
X156180000Y-82440000D03*
%TD*%
D17*
%TO.P,J7,1,Pin_1*%
%TO.N,GND*%
X143725000Y-55090000D03*
D18*
%TO.P,J7,2,Pin_2*%
%TO.N,/temp_digital*%
X143725000Y-57590000D03*
%TO.P,J7,3,Pin_3*%
%TO.N,+5V*%
X143725000Y-60090000D03*
%TD*%
D15*
%TO.P,R2,1*%
%TO.N,/button_onoff*%
X155900000Y-62810000D03*
D16*
%TO.P,R2,2*%
%TO.N,GND*%
X166060000Y-62810000D03*
%TD*%
D19*
%TO.P,RV1,1,1*%
%TO.N,+5V*%
X160150000Y-90015000D03*
%TO.P,RV1,2,2*%
%TO.N,/temp_sensor*%
X162690000Y-92555000D03*
%TO.P,RV1,3,3*%
%TO.N,GND*%
X165230000Y-90015000D03*
%TD*%
D10*
%TO.P,J5,1,Pin_1*%
%TO.N,+5V*%
X107190000Y-63860000D03*
D11*
%TO.P,J5,2,Pin_2*%
%TO.N,GND*%
X109730000Y-63860000D03*
%TO.P,J5,3,Pin_3*%
%TO.N,/I2C_SCL*%
X112270000Y-63860000D03*
%TO.P,J5,4,Pin_4*%
%TO.N,/I2C_SDA*%
X114810000Y-63860000D03*
%TO.P,J5,5,Pin_5*%
%TO.N,unconnected-(J5-Pin_5-Pad5)*%
X117350000Y-63860000D03*
%TO.P,J5,6,Pin_6*%
%TO.N,unconnected-(J5-Pin_6-Pad6)*%
X119890000Y-63860000D03*
%TO.P,J5,7,Pin_7*%
%TO.N,unconnected-(J5-Pin_7-Pad7)*%
X122430000Y-63860000D03*
%TO.P,J5,8,Pin_8*%
%TO.N,unconnected-(J5-Pin_8-Pad8)*%
X124970000Y-63860000D03*
%TD*%
D15*
%TO.P,R6,1*%
%TO.N,/button_light*%
X131330000Y-67410000D03*
D16*
%TO.P,R6,2*%
%TO.N,GND*%
X141490000Y-67410000D03*
%TD*%
D15*
%TO.P,R3,1*%
%TO.N,/button_units*%
X145450000Y-67340000D03*
D16*
%TO.P,R3,2*%
%TO.N,GND*%
X155610000Y-67340000D03*
%TD*%
D20*
%TO.N,/temp_sensor*%
X151653553Y-95150000D02*
G75*
G03*
X151049984Y-95399984I-53J-853500D01*
G01*
X162690000Y-94159878D02*
G75*
G02*
X162400006Y-94860006I-990100J-22D01*
G01*
X162400000Y-94860000D02*
G75*
G02*
X161699878Y-95149991I-700100J700100D01*
G01*
X151050000Y-95400000D02*
G75*
G03*
X150800022Y-96003553I603500J-603500D01*
G01*
%TO.N,/led_light*%
X139116000Y-51693153D02*
G75*
G02*
X138577984Y-52991984I-1836900J53D01*
G01*
%TO.N,Net-(D1-A)*%
X131285000Y-53825000D02*
G75*
G03*
X130572806Y-53529997I-712200J-712200D01*
G01*
X131285000Y-53825000D02*
G75*
G02*
X131580003Y-54537193I-712200J-712200D01*
G01*
%TO.N,/button_cal*%
X150800000Y-58386036D02*
G75*
G02*
X149206199Y-62233785I-5441600J36D01*
G01*
X142485000Y-78825000D02*
G75*
G02*
X140348420Y-79710009I-2136600J2136600D01*
G01*
X132214766Y-79710000D02*
G75*
G03*
X131575010Y-79975010I34J-904800D01*
G01*
X131350000Y-85231091D02*
G75*
G03*
X131624997Y-85895003I938900J-9D01*
G01*
X131625000Y-85895000D02*
G75*
G03*
X132288908Y-86169996I663900J663900D01*
G01*
X143370000Y-76688420D02*
G75*
G02*
X142484994Y-78824994I-3021600J20D01*
G01*
X144872253Y-64780000D02*
G75*
G03*
X143810034Y-65220034I47J-1502200D01*
G01*
X143810000Y-65220000D02*
G75*
G03*
X143369952Y-66282253I1062200J-1062300D01*
G01*
X131575000Y-79975000D02*
G75*
G03*
X131309986Y-80614766I639800J-639800D01*
G01*
X147512063Y-63927936D02*
G75*
G02*
X145455000Y-64780007I-2057063J2057036D01*
G01*
%TO.N,/button_units*%
X145940000Y-67340000D02*
G75*
G03*
X145450000Y-67830000I0J-490000D01*
G01*
X146776482Y-66993517D02*
G75*
G02*
X145940000Y-67339989I-836482J836517D01*
G01*
X153340000Y-58176036D02*
G75*
G02*
X151746200Y-62023785I-5441600J36D01*
G01*
%TO.N,/button_light*%
X131280000Y-70171385D02*
G75*
G03*
X131674996Y-71125004I1348600J-15D01*
G01*
X148260000Y-59552441D02*
G75*
G02*
X147094988Y-62364988I-3977600J41D01*
G01*
X132037106Y-64702893D02*
G75*
G03*
X131329995Y-66410000I1707094J-1707107D01*
G01*
X134539360Y-63530000D02*
G75*
G03*
X132270011Y-64470011I40J-3209400D01*
G01*
X131675000Y-71125000D02*
G75*
G03*
X132628614Y-71519994I953600J953600D01*
G01*
X147095000Y-62365000D02*
G75*
G02*
X144282441Y-63530017I-2812600J2812600D01*
G01*
X134155000Y-71520000D02*
X132765000Y-71520000D01*
%TO.N,/button_lock*%
X155030000Y-76415786D02*
G75*
G02*
X154030004Y-78830004I-3414200J-14D01*
G01*
X154025000Y-68885000D02*
G75*
G02*
X155030006Y-71311284I-2426300J-2426300D01*
G01*
X146395000Y-80205000D02*
G75*
G03*
X146020012Y-81110330I905300J-905300D01*
G01*
X154450000Y-61290000D02*
G75*
G03*
X153020011Y-64742325I3452300J-3452300D01*
G01*
X147300330Y-79830000D02*
G75*
G03*
X146394991Y-80204991I-30J-1280300D01*
G01*
X155880000Y-57837674D02*
G75*
G02*
X154450007Y-61290007I-4882300J-26D01*
G01*
X154030000Y-78830000D02*
G75*
G02*
X151615786Y-79829994I-2414200J2414200D01*
G01*
X153020000Y-66458715D02*
G75*
G03*
X154025005Y-68884995I3431300J15D01*
G01*
X146240000Y-85870000D02*
G75*
G03*
X146771126Y-86089989I531100J531100D01*
G01*
X146020000Y-85338873D02*
G75*
G03*
X146239992Y-85870008I751100J-27D01*
G01*
%TO.N,/button_onoff*%
X158110000Y-63530000D02*
G75*
G02*
X158829986Y-65268233I-1738200J-1738200D01*
G01*
X158420000Y-57958090D02*
G75*
G02*
X157160003Y-61000003I-4301900J-10D01*
G01*
X157916794Y-63336794D02*
G75*
G03*
X156645000Y-62810003I-1271794J-1271806D01*
G01*
X155900000Y-62535000D02*
G75*
G03*
X156175000Y-62810000I275000J0D01*
G01*
X156094454Y-62065545D02*
G75*
G03*
X155899997Y-62535000I469446J-469455D01*
G01*
%TO.N,/I2C_SDA*%
X116278111Y-61540000D02*
G75*
G03*
X115239997Y-61969997I-11J-1468100D01*
G01*
X115045000Y-65185000D02*
G75*
G03*
X115612340Y-65419983I567300J567300D01*
G01*
X118195000Y-65865000D02*
G75*
G02*
X118639990Y-66939325I-1074300J-1074300D01*
G01*
X121336000Y-60403066D02*
G75*
G02*
X121003010Y-61207010I-1136900J-34D01*
G01*
X115240000Y-61970000D02*
G75*
G03*
X114810005Y-63008111I1038100J-1038100D01*
G01*
X121003000Y-61207000D02*
G75*
G02*
X120199066Y-61539986I-803900J803900D01*
G01*
X114810000Y-64617659D02*
G75*
G03*
X115044988Y-65185012I802300J-41D01*
G01*
X118195000Y-65865000D02*
G75*
G03*
X117120674Y-65420010I-1074300J-1074300D01*
G01*
X114810000Y-63315000D02*
X114810000Y-64405000D01*
%TO.N,/I2C_SCL*%
X112270000Y-65191888D02*
G75*
G03*
X112699997Y-66230003I1468100J-12D01*
G01*
X118243000Y-59307000D02*
G75*
G02*
X116907939Y-59860017I-1335100J1335100D01*
G01*
X118796000Y-57971939D02*
G75*
G02*
X118242988Y-59306988I-1888100J39D01*
G01*
X112845000Y-60325000D02*
G75*
G03*
X112380004Y-61447609I1122600J-1122600D01*
G01*
X113967609Y-59860000D02*
G75*
G03*
X112844997Y-60324997I-9J-1587600D01*
G01*
X115745000Y-67035000D02*
G75*
G02*
X116119988Y-67940330I-905300J-905300D01*
G01*
X115745000Y-67035000D02*
G75*
G03*
X114839669Y-66660012I-905300J-905300D01*
G01*
X112700000Y-66230000D02*
G75*
G03*
X113738111Y-66659995I1038100J1038100D01*
G01*
%TO.N,/temp_digital*%
X141998000Y-57248000D02*
G75*
G03*
X142823661Y-57590016I825700J825700D01*
G01*
X141656000Y-56422338D02*
G75*
G03*
X141998011Y-57247989I1167700J38D01*
G01*
%TO.N,+5V*%
X129440000Y-63330000D02*
G75*
G03*
X128139991Y-66468477I3138500J-3138500D01*
G01*
X107190000Y-70236036D02*
G75*
G03*
X108783800Y-74083784I5441600J36D01*
G01*
X129030000Y-89780000D02*
G75*
G03*
X131178650Y-90670021I2148700J2148700D01*
G01*
X159490000Y-76590000D02*
G75*
G02*
X160150008Y-78183380I-1593400J-1593400D01*
G01*
X128397746Y-94150000D02*
G75*
G03*
X128579921Y-93710079I-46J257700D01*
G01*
X128580000Y-93710000D02*
G75*
G03*
X129642253Y-94150019I1062300J1062300D01*
G01*
X159862500Y-90302500D02*
G75*
G02*
X159168413Y-90590006I-694100J694100D01*
G01*
X143725000Y-60457500D02*
G75*
G02*
X143465134Y-61084857I-887200J0D01*
G01*
X132578477Y-62030000D02*
G75*
G03*
X129440007Y-63330007I23J-4438500D01*
G01*
X113580000Y-79190000D02*
X113580000Y-79190000D01*
X129030000Y-89780000D02*
G75*
G03*
X128139950Y-90148650I-368700J-368600D01*
G01*
X128140000Y-87631349D02*
G75*
G03*
X129029985Y-89780015I3038600J-51D01*
G01*
X137875000Y-94375000D02*
G75*
G03*
X137331801Y-94149999I-543200J-543200D01*
G01*
X128140000Y-74575000D02*
G75*
G03*
X128157668Y-74617686I60400J0D01*
G01*
X137875000Y-94375000D02*
G75*
G02*
X138100001Y-94918198I-543200J-543200D01*
G01*
X144819999Y-79069999D02*
G75*
G03*
X143790015Y-81556639I2486601J-2486601D01*
G01*
X143790000Y-88638542D02*
G75*
G03*
X144385013Y-90074987I2031500J42D01*
G01*
X125771471Y-93301471D02*
G75*
G03*
X127820000Y-94149987I2048529J2048571D01*
G01*
X144138542Y-90670000D02*
G75*
G03*
X144384927Y-90075073I-42J348500D01*
G01*
X144385000Y-90075000D02*
G75*
G03*
X145821457Y-90670018I1436500J1436500D01*
G01*
X145850000Y-77015000D02*
G75*
G02*
X145125222Y-78764791I-2474600J0D01*
G01*
X160150000Y-89608413D02*
G75*
G02*
X159862496Y-90302496I-981600J13D01*
G01*
X128140000Y-74575000D02*
X128140000Y-74575000D01*
X128140000Y-92647746D02*
G75*
G03*
X128580013Y-93709987I1502300J46D01*
G01*
X113360796Y-78660796D02*
G75*
G02*
X113580002Y-79190000I-529196J-529204D01*
G01*
X113580000Y-80305000D02*
G75*
G03*
X114149229Y-81679211I1943400J0D01*
G01*
X128850000Y-75310000D02*
G75*
G03*
X130564091Y-76020003I1714100J1714100D01*
G01*
X143122500Y-61427500D02*
G75*
G02*
X141667936Y-62030015I-1454600J1454600D01*
G01*
X129642253Y-94150000D02*
X128397746Y-94150000D01*
X113580000Y-79810000D02*
X113580000Y-79190000D01*
X113580000Y-79190000D02*
X113580000Y-79810000D01*
X128140000Y-90148650D02*
X128140000Y-87631349D01*
X145821457Y-90670000D02*
X144138542Y-90670000D01*
X128140000Y-74575000D02*
X128140000Y-74525000D01*
X128140000Y-74525000D02*
X128140000Y-74575000D01*
X159168413Y-90590000D02*
X154550000Y-90590000D01*
X128157677Y-74617677D02*
X128850000Y-75310000D01*
X138100000Y-94918198D02*
X138100000Y-97460000D01*
X143725000Y-60457500D02*
X143725000Y-60090000D01*
X128140000Y-66468477D02*
X128140000Y-74525000D01*
X145850000Y-75990000D02*
X152350000Y-75990000D01*
X132578477Y-62030000D02*
X141667936Y-62030000D01*
X133460000Y-76020000D02*
X139960000Y-76020000D01*
X159490000Y-76590000D02*
X158830000Y-75930000D01*
X145821457Y-90670000D02*
X147970000Y-90670000D01*
X113580000Y-79810000D02*
X113580000Y-80305000D01*
X158830000Y-75930000D02*
X165330000Y-75930000D01*
X133460000Y-76020000D02*
X130564091Y-76020000D01*
X143790000Y-81556639D02*
X143790000Y-88638542D01*
X160150000Y-78183380D02*
X160150000Y-89608413D01*
X154550000Y-90590000D02*
X148050000Y-90590000D01*
X128140000Y-90148650D02*
X128140000Y-92647746D01*
X139740000Y-90670000D02*
X144138542Y-90670000D01*
X128140000Y-87631349D02*
X128140000Y-74575000D01*
X113580000Y-79190000D02*
X113580000Y-68775000D01*
X145850000Y-75990000D02*
X145850000Y-77015000D01*
X107190000Y-70236036D02*
X107190000Y-63860000D01*
X133240000Y-90670000D02*
X131178650Y-90670000D01*
X129642253Y-94150000D02*
X137331801Y-94150000D01*
X108783792Y-74083792D02*
X113360796Y-78660796D01*
X125771471Y-93301471D02*
X114149220Y-81679220D01*
X143465138Y-61084861D02*
X143122500Y-61427500D01*
X133240000Y-90670000D02*
X139740000Y-90670000D01*
X144819999Y-79069999D02*
X145125215Y-78764784D01*
X128397746Y-94150000D02*
X127820000Y-94150000D01*
%TO.N,/temp_digital*%
X142823661Y-57590000D02*
X143725000Y-57590000D01*
X141656000Y-56422338D02*
X141656000Y-49200000D01*
%TO.N,/I2C_SCL*%
X112270000Y-65191888D02*
X112270000Y-63860000D01*
X112380000Y-61447609D02*
X112380000Y-63750000D01*
X118796000Y-57971939D02*
X118796000Y-49200000D01*
X116120000Y-67940330D02*
X116120000Y-68775000D01*
X116907939Y-59860000D02*
X113967609Y-59860000D01*
X114839669Y-66660000D02*
X113738111Y-66660000D01*
%TO.N,/I2C_SDA*%
X118640000Y-66939325D02*
X118640000Y-68755000D01*
X114810000Y-64405000D02*
X114810000Y-64617659D01*
X116278111Y-61540000D02*
X120199066Y-61540000D01*
X121336000Y-60403066D02*
X121336000Y-49200000D01*
X115612340Y-65420000D02*
X117120674Y-65420000D01*
X114810000Y-63315000D02*
X114810000Y-63008111D01*
%TO.N,/button_onoff*%
X156645000Y-62810000D02*
X156175000Y-62810000D01*
X158420000Y-57958090D02*
X158420000Y-49200000D01*
X158830000Y-71430000D02*
X165330000Y-71430000D01*
X157159999Y-60999999D02*
X156094454Y-62065545D01*
X158830000Y-71430000D02*
X158830000Y-65268233D01*
X158110000Y-63530000D02*
X157916794Y-63336794D01*
%TO.N,/button_lock*%
X148050000Y-86090000D02*
X146771126Y-86090000D01*
X155880000Y-57837674D02*
X155880000Y-49200000D01*
X155030000Y-76415786D02*
X155030000Y-71311284D01*
X148050000Y-86090000D02*
X154550000Y-86090000D01*
X146020000Y-82440000D02*
X146020000Y-81110330D01*
X146020000Y-82440000D02*
X146020000Y-85338873D01*
X153020000Y-64742325D02*
X153020000Y-66458715D01*
X147300330Y-79830000D02*
X151615786Y-79830000D01*
%TO.N,/button_light*%
X134155000Y-71520000D02*
X139960000Y-71520000D01*
X131330000Y-66410000D02*
X131330000Y-67410000D01*
X134539360Y-63530000D02*
X144282441Y-63530000D01*
X148260000Y-59552441D02*
X148260000Y-49200000D01*
X132765000Y-71520000D02*
X132628614Y-71520000D01*
X132037106Y-64702893D02*
X132270000Y-64470000D01*
X131280000Y-70171385D02*
X131280000Y-67460000D01*
%TO.N,/button_units*%
X153340000Y-58176036D02*
X153340000Y-49200000D01*
X146776482Y-66993517D02*
X151746207Y-62023792D01*
X145450000Y-67830000D02*
X145450000Y-71090000D01*
X152350000Y-71490000D02*
X145850000Y-71490000D01*
%TO.N,/button_cal*%
X133240000Y-86170000D02*
X139740000Y-86170000D01*
X149206206Y-62233792D02*
X147512063Y-63927936D01*
X132288908Y-86170000D02*
X133240000Y-86170000D01*
X143370000Y-76688420D02*
X143370000Y-66282253D01*
X131350000Y-85231091D02*
X131350000Y-82570000D01*
X131310000Y-80614766D02*
X131310000Y-82530000D01*
X140348420Y-79710000D02*
X132214766Y-79710000D01*
X144872253Y-64780000D02*
X145455000Y-64780000D01*
X150800000Y-58386036D02*
X150800000Y-49200000D01*
%TO.N,Net-(D1-A)*%
X130572806Y-53530000D02*
X127880000Y-53530000D01*
X131580000Y-54537193D02*
X131580000Y-58840000D01*
%TO.N,/led_light*%
X139116000Y-51693153D02*
X139116000Y-49200000D01*
X138578000Y-52992000D02*
X138040000Y-53530000D01*
%TO.N,/temp_sensor*%
X151653553Y-95150000D02*
X161699878Y-95150000D01*
X150800000Y-96003553D02*
X150800000Y-97460000D01*
X162690000Y-94159878D02*
X162690000Y-92555000D01*
%TD*%
M02*
