%TF.GenerationSoftware,KiCad,Pcbnew,8.0.5*%
%TF.CreationDate,2025-02-01T09:45:28-07:00*%
%TF.ProjectId,Uno_Shield_ThermoPro,556e6f5f-5368-4696-956c-645f54686572,rev?*%
%TF.SameCoordinates,Original*%
%TF.FileFunction,Soldermask,Bot*%
%TF.FilePolarity,Negative*%
%FSLAX46Y46*%
G04 Gerber Fmt 4.6, Leading zero omitted, Abs format (unit mm)*
G04 Created by KiCad (PCBNEW 8.0.5) date 2025-02-01 09:45:28*
%MOMM*%
%LPD*%
G01*
G04 APERTURE LIST*
G04 Aperture macros list*
%AMRoundRect*
0 Rectangle with rounded corners*
0 $1 Rounding radius*
0 $2 $3 $4 $5 $6 $7 $8 $9 X,Y pos of 4 corners*
0 Add a 4 corners polygon primitive as box body*
4,1,4,$2,$3,$4,$5,$6,$7,$8,$9,$2,$3,0*
0 Add four circle primitives for the rounded corners*
1,1,$1+$1,$2,$3*
1,1,$1+$1,$4,$5*
1,1,$1+$1,$6,$7*
1,1,$1+$1,$8,$9*
0 Add four rect primitives between the rounded corners*
20,1,$1+$1,$2,$3,$4,$5,0*
20,1,$1+$1,$4,$5,$6,$7,0*
20,1,$1+$1,$6,$7,$8,$9,0*
20,1,$1+$1,$8,$9,$2,$3,0*%
G04 Aperture macros list end*
%ADD10R,1.700000X1.700000*%
%ADD11O,1.700000X1.700000*%
%ADD12C,2.000000*%
%ADD13R,1.800000X1.800000*%
%ADD14C,1.800000*%
%ADD15C,1.600000*%
%ADD16O,1.600000X1.600000*%
%ADD17RoundRect,0.250000X-0.725000X0.600000X-0.725000X-0.600000X0.725000X-0.600000X0.725000X0.600000X0*%
%ADD18O,1.950000X1.700000*%
%ADD19C,1.440000*%
G04 APERTURE END LIST*
D10*
%TO.C,J1*%
X127940000Y-97460000D03*
D11*
X130480000Y-97460000D03*
X133020000Y-97460000D03*
X135560000Y-97460000D03*
X138100000Y-97460000D03*
X140640000Y-97460000D03*
X143180000Y-97460000D03*
X145720000Y-97460000D03*
%TD*%
D10*
%TO.C,J3*%
X150800000Y-97460000D03*
D11*
X153340000Y-97460000D03*
X155880000Y-97460000D03*
X158420000Y-97460000D03*
X160960000Y-97460000D03*
X163500000Y-97460000D03*
%TD*%
D10*
%TO.C,J2*%
X118796000Y-49200000D03*
D11*
X121336000Y-49200000D03*
X123876000Y-49200000D03*
X126416000Y-49200000D03*
X128956000Y-49200000D03*
X131496000Y-49200000D03*
X134036000Y-49200000D03*
X136576000Y-49200000D03*
X139116000Y-49200000D03*
X141656000Y-49200000D03*
%TD*%
D10*
%TO.C,J4*%
X145720000Y-49200000D03*
D11*
X148260000Y-49200000D03*
X150800000Y-49200000D03*
X153340000Y-49200000D03*
X155880000Y-49200000D03*
X158420000Y-49200000D03*
X160960000Y-49200000D03*
X163500000Y-49200000D03*
%TD*%
D12*
%TO.C,SW4*%
X148050000Y-86090000D03*
X154550000Y-86090000D03*
X148050000Y-90590000D03*
X154550000Y-90590000D03*
%TD*%
D13*
%TO.C,D1*%
X134120000Y-58840000D03*
D14*
X131580000Y-58840000D03*
%TD*%
D12*
%TO.C,SW5*%
X133460000Y-71520000D03*
X139960000Y-71520000D03*
X133460000Y-76020000D03*
X139960000Y-76020000D03*
%TD*%
%TO.C,SW2*%
X145850000Y-71490000D03*
X152350000Y-71490000D03*
X145850000Y-75990000D03*
X152350000Y-75990000D03*
%TD*%
D15*
%TO.C,R4*%
X131310000Y-82530000D03*
D16*
X141470000Y-82530000D03*
%TD*%
D15*
%TO.C,R1*%
X138040000Y-53530000D03*
D16*
X127880000Y-53530000D03*
%TD*%
D12*
%TO.C,SW3*%
X133240000Y-86170000D03*
X139740000Y-86170000D03*
X133240000Y-90670000D03*
X139740000Y-90670000D03*
%TD*%
D10*
%TO.C,J6*%
X111040000Y-68775000D03*
D11*
X113580000Y-68775000D03*
X116120000Y-68775000D03*
X118660000Y-68775000D03*
%TD*%
D12*
%TO.C,SW1*%
X158830000Y-71430000D03*
X165330000Y-71430000D03*
X158830000Y-75930000D03*
X165330000Y-75930000D03*
%TD*%
D15*
%TO.C,R5*%
X146020000Y-82440000D03*
D16*
X156180000Y-82440000D03*
%TD*%
D17*
%TO.C,J7*%
X143725000Y-55090000D03*
D18*
X143725000Y-57590000D03*
X143725000Y-60090000D03*
%TD*%
D15*
%TO.C,R2*%
X155900000Y-62810000D03*
D16*
X166060000Y-62810000D03*
%TD*%
D19*
%TO.C,RV1*%
X160150000Y-90015000D03*
X162690000Y-92555000D03*
X165230000Y-90015000D03*
%TD*%
D10*
%TO.C,J5*%
X107190000Y-63860000D03*
D11*
X109730000Y-63860000D03*
X112270000Y-63860000D03*
X114810000Y-63860000D03*
X117350000Y-63860000D03*
X119890000Y-63860000D03*
X122430000Y-63860000D03*
X124970000Y-63860000D03*
%TD*%
D15*
%TO.C,R6*%
X131330000Y-67410000D03*
D16*
X141490000Y-67410000D03*
%TD*%
D15*
%TO.C,R3*%
X145450000Y-67340000D03*
D16*
X155610000Y-67340000D03*
%TD*%
M02*
