M48
; DRILL file {KiCad 8.0.5} date 2025-02-01T09:45:25-0700
; FORMAT={-:-/ absolute / inch / decimal}
; #@! TF.CreationDate,2025-02-01T09:45:25-07:00
; #@! TF.GenerationSoftware,Kicad,Pcbnew,8.0.5
; #@! TF.FileFunction,Plated,1,2,PTH
FMAT,2
INCH
; #@! TA.AperFunction,Plated,PTH,ComponentDrill
T1C0.0315
; #@! TA.AperFunction,Plated,PTH,ComponentDrill
T2C0.0354
; #@! TA.AperFunction,Plated,PTH,ComponentDrill
T3C0.0374
; #@! TA.AperFunction,Plated,PTH,ComponentDrill
T4C0.0394
; #@! TA.AperFunction,Plated,PTH,ComponentDrill
T5C0.0433
%
G90
G05
T1
X5.0346Y-2.1075
X5.1697Y-3.2492
X5.1705Y-2.6539
X5.4346Y-2.1075
X5.5697Y-3.2492
X5.5705Y-2.6539
X5.7264Y-2.6512
X5.7488Y-3.2457
X6.1264Y-2.6512
X6.1378Y-2.4728
X6.1488Y-3.2457
X6.3051Y-3.5439
X6.4051Y-3.6439
X6.5051Y-3.5439
X6.5378Y-2.4728
T2
X5.1803Y-2.3165
X5.2803Y-2.3165
T3
X5.6585Y-2.1689
X5.6585Y-2.2673
X5.6585Y-2.3657
T4
X4.2201Y-2.5142
X4.3201Y-2.5142
X4.3717Y-2.7077
X4.4201Y-2.5142
X4.4717Y-2.7077
X4.5201Y-2.5142
X4.5717Y-2.7077
X4.6201Y-2.5142
X4.6717Y-2.7077
X4.677Y-1.937
X4.7201Y-2.5142
X4.777Y-1.937
X4.8201Y-2.5142
X4.877Y-1.937
X4.9201Y-2.5142
X4.977Y-1.937
X5.037Y-3.837
X5.077Y-1.937
X5.137Y-3.837
X5.177Y-1.937
X5.237Y-3.837
X5.277Y-1.937
X5.337Y-3.837
X5.377Y-1.937
X5.437Y-3.837
X5.477Y-1.937
X5.537Y-3.837
X5.577Y-1.937
X5.637Y-3.837
X5.737Y-1.937
X5.737Y-3.837
X5.837Y-1.937
X5.937Y-1.937
X5.937Y-3.837
X6.037Y-1.937
X6.037Y-3.837
X6.137Y-1.937
X6.137Y-3.837
X6.237Y-1.937
X6.237Y-3.837
X6.337Y-1.937
X6.337Y-3.837
X6.437Y-1.937
X6.437Y-3.837
T5
X5.2457Y-3.3925
X5.2457Y-3.5697
X5.2543Y-2.8157
X5.2543Y-2.9929
X5.5016Y-3.3925
X5.5016Y-3.5697
X5.5102Y-2.8157
X5.5102Y-2.9929
X5.7421Y-2.8146
X5.7421Y-2.9917
X5.8287Y-3.3894
X5.8287Y-3.5665
X5.998Y-2.8146
X5.998Y-2.9917
X6.0846Y-3.3894
X6.0846Y-3.5665
X6.2531Y-2.8122
X6.2531Y-2.9894
X6.5091Y-2.8122
X6.5091Y-2.9894
M30
