%TF.GenerationSoftware,KiCad,Pcbnew,8.0.8*%
%TF.CreationDate,2025-02-13T00:23:47-07:00*%
%TF.ProjectId,Uno_Shield_ThermoPro,556e6f5f-5368-4696-956c-645f54686572,rev?*%
%TF.SameCoordinates,Original*%
%TF.FileFunction,Copper,L2,Bot*%
%TF.FilePolarity,Positive*%
%FSLAX46Y46*%
G04 Gerber Fmt 4.6, Leading zero omitted, Abs format (unit mm)*
G04 Created by KiCad (PCBNEW 8.0.8) date 2025-02-13 00:23:47*
%MOMM*%
%LPD*%
G01*
G04 APERTURE LIST*
G04 Aperture macros list*
%AMRoundRect*
0 Rectangle with rounded corners*
0 $1 Rounding radius*
0 $2 $3 $4 $5 $6 $7 $8 $9 X,Y pos of 4 corners*
0 Add a 4 corners polygon primitive as box body*
4,1,4,$2,$3,$4,$5,$6,$7,$8,$9,$2,$3,0*
0 Add four circle primitives for the rounded corners*
1,1,$1+$1,$2,$3*
1,1,$1+$1,$4,$5*
1,1,$1+$1,$6,$7*
1,1,$1+$1,$8,$9*
0 Add four rect primitives between the rounded corners*
20,1,$1+$1,$2,$3,$4,$5,0*
20,1,$1+$1,$4,$5,$6,$7,0*
20,1,$1+$1,$6,$7,$8,$9,0*
20,1,$1+$1,$8,$9,$2,$3,0*%
G04 Aperture macros list end*
%TA.AperFunction,ComponentPad*%
%ADD10C,1.600000*%
%TD*%
%TA.AperFunction,ComponentPad*%
%ADD11O,1.600000X1.600000*%
%TD*%
%TA.AperFunction,ComponentPad*%
%ADD12R,1.700000X1.700000*%
%TD*%
%TA.AperFunction,ComponentPad*%
%ADD13O,1.700000X1.700000*%
%TD*%
%TA.AperFunction,ComponentPad*%
%ADD14C,2.000000*%
%TD*%
%TA.AperFunction,ComponentPad*%
%ADD15R,1.800000X1.800000*%
%TD*%
%TA.AperFunction,ComponentPad*%
%ADD16C,1.800000*%
%TD*%
%TA.AperFunction,ComponentPad*%
%ADD17RoundRect,0.250000X-0.725000X0.600000X-0.725000X-0.600000X0.725000X-0.600000X0.725000X0.600000X0*%
%TD*%
%TA.AperFunction,ComponentPad*%
%ADD18O,1.950000X1.700000*%
%TD*%
%TA.AperFunction,ComponentPad*%
%ADD19C,1.440000*%
%TD*%
G04 APERTURE END LIST*
D10*
%TO.P,R7,1*%
%TO.N,/temp_digital*%
X148400000Y-53070000D03*
D11*
%TO.P,R7,2*%
%TO.N,+5V*%
X148400000Y-63230000D03*
%TD*%
D12*
%TO.P,J1,1,Pin_1*%
%TO.N,unconnected-(J1-Pin_1-Pad1)*%
X127940000Y-97460000D03*
D13*
%TO.P,J1,2,Pin_2*%
%TO.N,/IOREF*%
X130480000Y-97460000D03*
%TO.P,J1,3,Pin_3*%
%TO.N,/~{RESET}*%
X133020000Y-97460000D03*
%TO.P,J1,4,Pin_4*%
%TO.N,+3V3*%
X135560000Y-97460000D03*
%TO.P,J1,5,Pin_5*%
%TO.N,+5V*%
X138100000Y-97460000D03*
%TO.P,J1,6,Pin_6*%
%TO.N,GND*%
X140640000Y-97460000D03*
%TO.P,J1,7,Pin_7*%
X143180000Y-97460000D03*
%TO.P,J1,8,Pin_8*%
%TO.N,VCC*%
X145720000Y-97460000D03*
%TD*%
D12*
%TO.P,J3,1,Pin_1*%
%TO.N,/temp_sensor*%
X150800000Y-97460000D03*
D13*
%TO.P,J3,2,Pin_2*%
%TO.N,/A1*%
X153340000Y-97460000D03*
%TO.P,J3,3,Pin_3*%
%TO.N,/A2*%
X155880000Y-97460000D03*
%TO.P,J3,4,Pin_4*%
%TO.N,/A3*%
X158420000Y-97460000D03*
%TO.P,J3,5,Pin_5*%
%TO.N,/SDA{slash}A4*%
X160960000Y-97460000D03*
%TO.P,J3,6,Pin_6*%
%TO.N,/SCL{slash}A5*%
X163500000Y-97460000D03*
%TD*%
D12*
%TO.P,J2,1,Pin_1*%
%TO.N,/I2C_SCL*%
X118796000Y-49200000D03*
D13*
%TO.P,J2,2,Pin_2*%
%TO.N,/I2C_SDA*%
X121336000Y-49200000D03*
%TO.P,J2,3,Pin_3*%
%TO.N,/AREF*%
X123876000Y-49200000D03*
%TO.P,J2,4,Pin_4*%
%TO.N,GND*%
X126416000Y-49200000D03*
%TO.P,J2,5,Pin_5*%
%TO.N,/13*%
X128956000Y-49200000D03*
%TO.P,J2,6,Pin_6*%
%TO.N,/12*%
X131496000Y-49200000D03*
%TO.P,J2,7,Pin_7*%
%TO.N,/\u002A11*%
X134036000Y-49200000D03*
%TO.P,J2,8,Pin_8*%
%TO.N,/\u002A10*%
X136576000Y-49200000D03*
%TO.P,J2,9,Pin_9*%
%TO.N,/led_light*%
X139116000Y-49200000D03*
%TO.P,J2,10,Pin_10*%
%TO.N,/temp_digital*%
X141656000Y-49200000D03*
%TD*%
D12*
%TO.P,J4,1,Pin_1*%
%TO.N,/7*%
X145720000Y-49200000D03*
D13*
%TO.P,J4,2,Pin_2*%
%TO.N,/button_light*%
X148260000Y-49200000D03*
%TO.P,J4,3,Pin_3*%
%TO.N,/button_cal*%
X150800000Y-49200000D03*
%TO.P,J4,4,Pin_4*%
%TO.N,/button_units*%
X153340000Y-49200000D03*
%TO.P,J4,5,Pin_5*%
%TO.N,/button_lock*%
X155880000Y-49200000D03*
%TO.P,J4,6,Pin_6*%
%TO.N,/button_onoff*%
X158420000Y-49200000D03*
%TO.P,J4,7,Pin_7*%
%TO.N,/TX{slash}1*%
X160960000Y-49200000D03*
%TO.P,J4,8,Pin_8*%
%TO.N,/RX{slash}0*%
X163500000Y-49200000D03*
%TD*%
D14*
%TO.P,SW4,1,A*%
%TO.N,/button_lock*%
X148050000Y-86090000D03*
X154550000Y-86090000D03*
%TO.P,SW4,2,B*%
%TO.N,+5V*%
X148050000Y-90590000D03*
X154550000Y-90590000D03*
%TD*%
D15*
%TO.P,D1,1,K*%
%TO.N,GND*%
X134120000Y-58840000D03*
D16*
%TO.P,D1,2,A*%
%TO.N,Net-(D1-A)*%
X131580000Y-58840000D03*
%TD*%
D14*
%TO.P,SW5,1,A*%
%TO.N,/button_light*%
X133460000Y-71520000D03*
X139960000Y-71520000D03*
%TO.P,SW5,2,B*%
%TO.N,+5V*%
X133460000Y-76020000D03*
X139960000Y-76020000D03*
%TD*%
%TO.P,SW2,1,A*%
%TO.N,/button_units*%
X145850000Y-71490000D03*
X152350000Y-71490000D03*
%TO.P,SW2,2,B*%
%TO.N,+5V*%
X145850000Y-75990000D03*
X152350000Y-75990000D03*
%TD*%
D10*
%TO.P,R4,1*%
%TO.N,/button_cal*%
X131310000Y-82530000D03*
D11*
%TO.P,R4,2*%
%TO.N,GND*%
X141470000Y-82530000D03*
%TD*%
D10*
%TO.P,R1,1*%
%TO.N,/led_light*%
X138040000Y-53530000D03*
D11*
%TO.P,R1,2*%
%TO.N,Net-(D1-A)*%
X127880000Y-53530000D03*
%TD*%
D14*
%TO.P,SW3,1,A*%
%TO.N,/button_cal*%
X133240000Y-86170000D03*
X139740000Y-86170000D03*
%TO.P,SW3,2,B*%
%TO.N,+5V*%
X133240000Y-90670000D03*
X139740000Y-90670000D03*
%TD*%
D12*
%TO.P,J6,1,Pin_1*%
%TO.N,GND*%
X111040000Y-68775000D03*
D13*
%TO.P,J6,2,Pin_2*%
%TO.N,+5V*%
X113580000Y-68775000D03*
%TO.P,J6,3,Pin_3*%
%TO.N,/I2C_SCL*%
X116120000Y-68775000D03*
%TO.P,J6,4,Pin_4*%
%TO.N,/I2C_SDA*%
X118660000Y-68775000D03*
%TD*%
D14*
%TO.P,SW1,1,A*%
%TO.N,/button_onoff*%
X158830000Y-71430000D03*
X165330000Y-71430000D03*
%TO.P,SW1,2,B*%
%TO.N,+5V*%
X158830000Y-75930000D03*
X165330000Y-75930000D03*
%TD*%
D10*
%TO.P,R5,1*%
%TO.N,/button_lock*%
X146020000Y-82440000D03*
D11*
%TO.P,R5,2*%
%TO.N,GND*%
X156180000Y-82440000D03*
%TD*%
D17*
%TO.P,J7,1,Pin_1*%
%TO.N,GND*%
X143725000Y-55090000D03*
D18*
%TO.P,J7,2,Pin_2*%
%TO.N,/temp_digital*%
X143725000Y-57590000D03*
%TO.P,J7,3,Pin_3*%
%TO.N,+5V*%
X143725000Y-60090000D03*
%TD*%
D10*
%TO.P,R2,1*%
%TO.N,/button_onoff*%
X155900000Y-62810000D03*
D11*
%TO.P,R2,2*%
%TO.N,GND*%
X166060000Y-62810000D03*
%TD*%
D19*
%TO.P,RV1,1,1*%
%TO.N,+5V*%
X160150000Y-90015000D03*
%TO.P,RV1,2,2*%
%TO.N,/temp_sensor*%
X162690000Y-92555000D03*
%TO.P,RV1,3,3*%
%TO.N,GND*%
X165230000Y-90015000D03*
%TD*%
D12*
%TO.P,J5,1,Pin_1*%
%TO.N,+5V*%
X107190000Y-63860000D03*
D13*
%TO.P,J5,2,Pin_2*%
%TO.N,GND*%
X109730000Y-63860000D03*
%TO.P,J5,3,Pin_3*%
%TO.N,/I2C_SCL*%
X112270000Y-63860000D03*
%TO.P,J5,4,Pin_4*%
%TO.N,/I2C_SDA*%
X114810000Y-63860000D03*
%TO.P,J5,5,Pin_5*%
%TO.N,unconnected-(J5-Pin_5-Pad5)*%
X117350000Y-63860000D03*
%TO.P,J5,6,Pin_6*%
%TO.N,unconnected-(J5-Pin_6-Pad6)*%
X119890000Y-63860000D03*
%TO.P,J5,7,Pin_7*%
%TO.N,unconnected-(J5-Pin_7-Pad7)*%
X122430000Y-63860000D03*
%TO.P,J5,8,Pin_8*%
%TO.N,unconnected-(J5-Pin_8-Pad8)*%
X124970000Y-63860000D03*
%TD*%
D10*
%TO.P,R6,1*%
%TO.N,/button_light*%
X131330000Y-67410000D03*
D11*
%TO.P,R6,2*%
%TO.N,GND*%
X141490000Y-67410000D03*
%TD*%
D10*
%TO.P,R3,1*%
%TO.N,/button_units*%
X145450000Y-67340000D03*
D11*
%TO.P,R3,2*%
%TO.N,GND*%
X155610000Y-67340000D03*
%TD*%
%TA.AperFunction,Conductor*%
%TO.N,GND*%
G36*
X142714075Y-97267007D02*
G01*
X142680000Y-97394174D01*
X142680000Y-97525826D01*
X142714075Y-97652993D01*
X142746988Y-97710000D01*
X141073012Y-97710000D01*
X141105925Y-97652993D01*
X141140000Y-97525826D01*
X141140000Y-97394174D01*
X141105925Y-97267007D01*
X141073012Y-97210000D01*
X142746988Y-97210000D01*
X142714075Y-97267007D01*
G37*
%TD.AperFunction*%
%TA.AperFunction,Conductor*%
G36*
X163484404Y-46755185D02*
G01*
X163505046Y-46771819D01*
X165928181Y-49194954D01*
X165961666Y-49256277D01*
X165964500Y-49282635D01*
X165964500Y-59344982D01*
X165964500Y-59375018D01*
X165975994Y-59402767D01*
X165975995Y-59402768D01*
X168468181Y-61894954D01*
X168501666Y-61956277D01*
X168504500Y-61982635D01*
X168504500Y-96107364D01*
X168484815Y-96174403D01*
X168468181Y-96195045D01*
X165997233Y-98665994D01*
X165975995Y-98687231D01*
X165964500Y-98714982D01*
X165964500Y-99231907D01*
X165963903Y-99244062D01*
X165952505Y-99359778D01*
X165947763Y-99383618D01*
X165917832Y-99482290D01*
X165915789Y-99489024D01*
X165906486Y-99511482D01*
X165854561Y-99608627D01*
X165841056Y-99628839D01*
X165771176Y-99713988D01*
X165753988Y-99731176D01*
X165668839Y-99801056D01*
X165648627Y-99814561D01*
X165551482Y-99866486D01*
X165529028Y-99875787D01*
X165487028Y-99888528D01*
X165423618Y-99907763D01*
X165399778Y-99912505D01*
X165291162Y-99923203D01*
X165284060Y-99923903D01*
X165271907Y-99924500D01*
X100768093Y-99924500D01*
X100755939Y-99923903D01*
X100747995Y-99923120D01*
X100640221Y-99912505D01*
X100616381Y-99907763D01*
X100599445Y-99902625D01*
X100510968Y-99875786D01*
X100488517Y-99866486D01*
X100391372Y-99814561D01*
X100371160Y-99801056D01*
X100286011Y-99731176D01*
X100268823Y-99713988D01*
X100198943Y-99628839D01*
X100185438Y-99608627D01*
X100133510Y-99511476D01*
X100124215Y-99489037D01*
X100092234Y-99383612D01*
X100087494Y-99359777D01*
X100076097Y-99244061D01*
X100075500Y-99231907D01*
X100075500Y-96561345D01*
X126581500Y-96561345D01*
X126581500Y-98358654D01*
X126588011Y-98419202D01*
X126588011Y-98419204D01*
X126639111Y-98556204D01*
X126726739Y-98673261D01*
X126843796Y-98760889D01*
X126980799Y-98811989D01*
X127008050Y-98814918D01*
X127041345Y-98818499D01*
X127041362Y-98818500D01*
X128838638Y-98818500D01*
X128838654Y-98818499D01*
X128865692Y-98815591D01*
X128899201Y-98811989D01*
X129036204Y-98760889D01*
X129153261Y-98673261D01*
X129240889Y-98556204D01*
X129286138Y-98434887D01*
X129328009Y-98378956D01*
X129393474Y-98354539D01*
X129461746Y-98369391D01*
X129493545Y-98394236D01*
X129556760Y-98462906D01*
X129734424Y-98601189D01*
X129734425Y-98601189D01*
X129734427Y-98601191D01*
X129861135Y-98669761D01*
X129932426Y-98708342D01*
X130145365Y-98781444D01*
X130367431Y-98818500D01*
X130592569Y-98818500D01*
X130814635Y-98781444D01*
X131027574Y-98708342D01*
X131225576Y-98601189D01*
X131403240Y-98462906D01*
X131524594Y-98331082D01*
X131555715Y-98297276D01*
X131555715Y-98297275D01*
X131555722Y-98297268D01*
X131646193Y-98158790D01*
X131699338Y-98113437D01*
X131768569Y-98104013D01*
X131831905Y-98133515D01*
X131853804Y-98158787D01*
X131944278Y-98297268D01*
X131944283Y-98297273D01*
X131944284Y-98297276D01*
X132070968Y-98434889D01*
X132096760Y-98462906D01*
X132274424Y-98601189D01*
X132274425Y-98601189D01*
X132274427Y-98601191D01*
X132401135Y-98669761D01*
X132472426Y-98708342D01*
X132685365Y-98781444D01*
X132907431Y-98818500D01*
X133132569Y-98818500D01*
X133354635Y-98781444D01*
X133567574Y-98708342D01*
X133765576Y-98601189D01*
X133943240Y-98462906D01*
X134064594Y-98331082D01*
X134095715Y-98297276D01*
X134095715Y-98297275D01*
X134095722Y-98297268D01*
X134186193Y-98158790D01*
X134239338Y-98113437D01*
X134308569Y-98104013D01*
X134371905Y-98133515D01*
X134393804Y-98158787D01*
X134484278Y-98297268D01*
X134484283Y-98297273D01*
X134484284Y-98297276D01*
X134610968Y-98434889D01*
X134636760Y-98462906D01*
X134814424Y-98601189D01*
X134814425Y-98601189D01*
X134814427Y-98601191D01*
X134941135Y-98669761D01*
X135012426Y-98708342D01*
X135225365Y-98781444D01*
X135447431Y-98818500D01*
X135672569Y-98818500D01*
X135894635Y-98781444D01*
X136107574Y-98708342D01*
X136305576Y-98601189D01*
X136483240Y-98462906D01*
X136604594Y-98331082D01*
X136635715Y-98297276D01*
X136635715Y-98297275D01*
X136635722Y-98297268D01*
X136726193Y-98158790D01*
X136779338Y-98113437D01*
X136848569Y-98104013D01*
X136911905Y-98133515D01*
X136933804Y-98158787D01*
X137024278Y-98297268D01*
X137024283Y-98297273D01*
X137024284Y-98297276D01*
X137150968Y-98434889D01*
X137176760Y-98462906D01*
X137354424Y-98601189D01*
X137354425Y-98601189D01*
X137354427Y-98601191D01*
X137481135Y-98669761D01*
X137552426Y-98708342D01*
X137765365Y-98781444D01*
X137987431Y-98818500D01*
X138212569Y-98818500D01*
X138434635Y-98781444D01*
X138647574Y-98708342D01*
X138845576Y-98601189D01*
X139023240Y-98462906D01*
X139144594Y-98331082D01*
X139175715Y-98297276D01*
X139175715Y-98297275D01*
X139175722Y-98297268D01*
X139269749Y-98153347D01*
X139322894Y-98107994D01*
X139392125Y-98098570D01*
X139455461Y-98128072D01*
X139475130Y-98150048D01*
X139601890Y-98331078D01*
X139768917Y-98498105D01*
X139962421Y-98633600D01*
X140176507Y-98733429D01*
X140176516Y-98733433D01*
X140390000Y-98790634D01*
X140390000Y-97893012D01*
X140447007Y-97925925D01*
X140574174Y-97960000D01*
X140705826Y-97960000D01*
X140832993Y-97925925D01*
X140890000Y-97893012D01*
X140890000Y-98790633D01*
X141103483Y-98733433D01*
X141103492Y-98733429D01*
X141317578Y-98633600D01*
X141511082Y-98498105D01*
X141678105Y-98331082D01*
X141808425Y-98144968D01*
X141863002Y-98101344D01*
X141932501Y-98094151D01*
X141994855Y-98125673D01*
X142011575Y-98144968D01*
X142141894Y-98331082D01*
X142308917Y-98498105D01*
X142502421Y-98633600D01*
X142716507Y-98733429D01*
X142716516Y-98733433D01*
X142930000Y-98790634D01*
X142930000Y-97893012D01*
X142987007Y-97925925D01*
X143114174Y-97960000D01*
X143245826Y-97960000D01*
X143372993Y-97925925D01*
X143430000Y-97893012D01*
X143430000Y-98790633D01*
X143643483Y-98733433D01*
X143643492Y-98733429D01*
X143857578Y-98633600D01*
X144051082Y-98498105D01*
X144218105Y-98331082D01*
X144344868Y-98150048D01*
X144399445Y-98106423D01*
X144468944Y-98099231D01*
X144531298Y-98130753D01*
X144550251Y-98153350D01*
X144644276Y-98297265D01*
X144644284Y-98297276D01*
X144770968Y-98434889D01*
X144796760Y-98462906D01*
X144974424Y-98601189D01*
X144974425Y-98601189D01*
X144974427Y-98601191D01*
X145101135Y-98669761D01*
X145172426Y-98708342D01*
X145385365Y-98781444D01*
X145607431Y-98818500D01*
X145832569Y-98818500D01*
X146054635Y-98781444D01*
X146267574Y-98708342D01*
X146465576Y-98601189D01*
X146643240Y-98462906D01*
X146764594Y-98331082D01*
X146795715Y-98297276D01*
X146795717Y-98297273D01*
X146795722Y-98297268D01*
X146918860Y-98108791D01*
X147009296Y-97902616D01*
X147064564Y-97684368D01*
X147067164Y-97652993D01*
X147083156Y-97460005D01*
X147083156Y-97459994D01*
X147064565Y-97235640D01*
X147064563Y-97235628D01*
X147009296Y-97017385D01*
X146999071Y-96994075D01*
X146918860Y-96811209D01*
X146902706Y-96786484D01*
X146795723Y-96622734D01*
X146795715Y-96622723D01*
X146739212Y-96561345D01*
X149441500Y-96561345D01*
X149441500Y-98358654D01*
X149448011Y-98419202D01*
X149448011Y-98419204D01*
X149499111Y-98556204D01*
X149586739Y-98673261D01*
X149703796Y-98760889D01*
X149840799Y-98811989D01*
X149868050Y-98814918D01*
X149901345Y-98818499D01*
X149901362Y-98818500D01*
X151698638Y-98818500D01*
X151698654Y-98818499D01*
X151725692Y-98815591D01*
X151759201Y-98811989D01*
X151896204Y-98760889D01*
X152013261Y-98673261D01*
X152100889Y-98556204D01*
X152146138Y-98434887D01*
X152188009Y-98378956D01*
X152253474Y-98354539D01*
X152321746Y-98369391D01*
X152353545Y-98394236D01*
X152416760Y-98462906D01*
X152594424Y-98601189D01*
X152594425Y-98601189D01*
X152594427Y-98601191D01*
X152721135Y-98669761D01*
X152792426Y-98708342D01*
X153005365Y-98781444D01*
X153227431Y-98818500D01*
X153452569Y-98818500D01*
X153674635Y-98781444D01*
X153887574Y-98708342D01*
X154085576Y-98601189D01*
X154263240Y-98462906D01*
X154384594Y-98331082D01*
X154415715Y-98297276D01*
X154415715Y-98297275D01*
X154415722Y-98297268D01*
X154506193Y-98158790D01*
X154559338Y-98113437D01*
X154628569Y-98104013D01*
X154691905Y-98133515D01*
X154713804Y-98158787D01*
X154804278Y-98297268D01*
X154804283Y-98297273D01*
X154804284Y-98297276D01*
X154930968Y-98434889D01*
X154956760Y-98462906D01*
X155134424Y-98601189D01*
X155134425Y-98601189D01*
X155134427Y-98601191D01*
X155261135Y-98669761D01*
X155332426Y-98708342D01*
X155545365Y-98781444D01*
X155767431Y-98818500D01*
X155992569Y-98818500D01*
X156214635Y-98781444D01*
X156427574Y-98708342D01*
X156625576Y-98601189D01*
X156803240Y-98462906D01*
X156924594Y-98331082D01*
X156955715Y-98297276D01*
X156955715Y-98297275D01*
X156955722Y-98297268D01*
X157046193Y-98158790D01*
X157099338Y-98113437D01*
X157168569Y-98104013D01*
X157231905Y-98133515D01*
X157253804Y-98158787D01*
X157344278Y-98297268D01*
X157344283Y-98297273D01*
X157344284Y-98297276D01*
X157470968Y-98434889D01*
X157496760Y-98462906D01*
X157674424Y-98601189D01*
X157674425Y-98601189D01*
X157674427Y-98601191D01*
X157801135Y-98669761D01*
X157872426Y-98708342D01*
X158085365Y-98781444D01*
X158307431Y-98818500D01*
X158532569Y-98818500D01*
X158754635Y-98781444D01*
X158967574Y-98708342D01*
X159165576Y-98601189D01*
X159343240Y-98462906D01*
X159464594Y-98331082D01*
X159495715Y-98297276D01*
X159495715Y-98297275D01*
X159495722Y-98297268D01*
X159586193Y-98158790D01*
X159639338Y-98113437D01*
X159708569Y-98104013D01*
X159771905Y-98133515D01*
X159793804Y-98158787D01*
X159884278Y-98297268D01*
X159884283Y-98297273D01*
X159884284Y-98297276D01*
X160010968Y-98434889D01*
X160036760Y-98462906D01*
X160214424Y-98601189D01*
X160214425Y-98601189D01*
X160214427Y-98601191D01*
X160341135Y-98669761D01*
X160412426Y-98708342D01*
X160625365Y-98781444D01*
X160847431Y-98818500D01*
X161072569Y-98818500D01*
X161294635Y-98781444D01*
X161507574Y-98708342D01*
X161705576Y-98601189D01*
X161883240Y-98462906D01*
X162004594Y-98331082D01*
X162035715Y-98297276D01*
X162035715Y-98297275D01*
X162035722Y-98297268D01*
X162126193Y-98158790D01*
X162179338Y-98113437D01*
X162248569Y-98104013D01*
X162311905Y-98133515D01*
X162333804Y-98158787D01*
X162424278Y-98297268D01*
X162424283Y-98297273D01*
X162424284Y-98297276D01*
X162550968Y-98434889D01*
X162576760Y-98462906D01*
X162754424Y-98601189D01*
X162754425Y-98601189D01*
X162754427Y-98601191D01*
X162881135Y-98669761D01*
X162952426Y-98708342D01*
X163165365Y-98781444D01*
X163387431Y-98818500D01*
X163612569Y-98818500D01*
X163834635Y-98781444D01*
X164047574Y-98708342D01*
X164245576Y-98601189D01*
X164423240Y-98462906D01*
X164544594Y-98331082D01*
X164575715Y-98297276D01*
X164575717Y-98297273D01*
X164575722Y-98297268D01*
X164698860Y-98108791D01*
X164789296Y-97902616D01*
X164844564Y-97684368D01*
X164847164Y-97652993D01*
X164863156Y-97460005D01*
X164863156Y-97459994D01*
X164844565Y-97235640D01*
X164844563Y-97235628D01*
X164789296Y-97017385D01*
X164779071Y-96994075D01*
X164698860Y-96811209D01*
X164682706Y-96786484D01*
X164575723Y-96622734D01*
X164575715Y-96622723D01*
X164423243Y-96457097D01*
X164423238Y-96457092D01*
X164245577Y-96318812D01*
X164245572Y-96318808D01*
X164047580Y-96211661D01*
X164047577Y-96211659D01*
X164047574Y-96211658D01*
X164047571Y-96211657D01*
X164047569Y-96211656D01*
X163834637Y-96138556D01*
X163612569Y-96101500D01*
X163387431Y-96101500D01*
X163165362Y-96138556D01*
X162952430Y-96211656D01*
X162952419Y-96211661D01*
X162754427Y-96318808D01*
X162754422Y-96318812D01*
X162576761Y-96457092D01*
X162576756Y-96457097D01*
X162424284Y-96622723D01*
X162424276Y-96622734D01*
X162333808Y-96761206D01*
X162280662Y-96806562D01*
X162211431Y-96815986D01*
X162148095Y-96786484D01*
X162126192Y-96761206D01*
X162035723Y-96622734D01*
X162035715Y-96622723D01*
X161883243Y-96457097D01*
X161883238Y-96457092D01*
X161705577Y-96318812D01*
X161705572Y-96318808D01*
X161507580Y-96211661D01*
X161507577Y-96211659D01*
X161507574Y-96211658D01*
X161507571Y-96211657D01*
X161507569Y-96211656D01*
X161294637Y-96138556D01*
X161072569Y-96101500D01*
X160847431Y-96101500D01*
X160625362Y-96138556D01*
X160412430Y-96211656D01*
X160412419Y-96211661D01*
X160214427Y-96318808D01*
X160214422Y-96318812D01*
X160036761Y-96457092D01*
X160036756Y-96457097D01*
X159884284Y-96622723D01*
X159884276Y-96622734D01*
X159793808Y-96761206D01*
X159740662Y-96806562D01*
X159671431Y-96815986D01*
X159608095Y-96786484D01*
X159586192Y-96761206D01*
X159495723Y-96622734D01*
X159495715Y-96622723D01*
X159343243Y-96457097D01*
X159343238Y-96457092D01*
X159165577Y-96318812D01*
X159165572Y-96318808D01*
X158967580Y-96211661D01*
X158967577Y-96211659D01*
X158967574Y-96211658D01*
X158967571Y-96211657D01*
X158967569Y-96211656D01*
X158754637Y-96138556D01*
X158532569Y-96101500D01*
X158307431Y-96101500D01*
X158085362Y-96138556D01*
X157872430Y-96211656D01*
X157872419Y-96211661D01*
X157674427Y-96318808D01*
X157674422Y-96318812D01*
X157496761Y-96457092D01*
X157496756Y-96457097D01*
X157344284Y-96622723D01*
X157344276Y-96622734D01*
X157253808Y-96761206D01*
X157200662Y-96806562D01*
X157131431Y-96815986D01*
X157068095Y-96786484D01*
X157046192Y-96761206D01*
X156955723Y-96622734D01*
X156955715Y-96622723D01*
X156803243Y-96457097D01*
X156803238Y-96457092D01*
X156625577Y-96318812D01*
X156625572Y-96318808D01*
X156427580Y-96211661D01*
X156427577Y-96211659D01*
X156427574Y-96211658D01*
X156427571Y-96211657D01*
X156427569Y-96211656D01*
X156214637Y-96138556D01*
X155992569Y-96101500D01*
X155767431Y-96101500D01*
X155545362Y-96138556D01*
X155332430Y-96211656D01*
X155332419Y-96211661D01*
X155134427Y-96318808D01*
X155134422Y-96318812D01*
X154956761Y-96457092D01*
X154956756Y-96457097D01*
X154804284Y-96622723D01*
X154804276Y-96622734D01*
X154713808Y-96761206D01*
X154660662Y-96806562D01*
X154591431Y-96815986D01*
X154528095Y-96786484D01*
X154506192Y-96761206D01*
X154415723Y-96622734D01*
X154415715Y-96622723D01*
X154263243Y-96457097D01*
X154263238Y-96457092D01*
X154085577Y-96318812D01*
X154085572Y-96318808D01*
X153887580Y-96211661D01*
X153887577Y-96211659D01*
X153887574Y-96211658D01*
X153887571Y-96211657D01*
X153887569Y-96211656D01*
X153674637Y-96138556D01*
X153452569Y-96101500D01*
X153227431Y-96101500D01*
X153005362Y-96138556D01*
X152792430Y-96211656D01*
X152792419Y-96211661D01*
X152594427Y-96318808D01*
X152594422Y-96318812D01*
X152416761Y-96457092D01*
X152353548Y-96525760D01*
X152293661Y-96561750D01*
X152223823Y-96559649D01*
X152166207Y-96520124D01*
X152146138Y-96485110D01*
X152100889Y-96363796D01*
X152067214Y-96318812D01*
X152013261Y-96246739D01*
X151896204Y-96159111D01*
X151895172Y-96158726D01*
X151759203Y-96108011D01*
X151698654Y-96101500D01*
X151698638Y-96101500D01*
X149901362Y-96101500D01*
X149901345Y-96101500D01*
X149840797Y-96108011D01*
X149840795Y-96108011D01*
X149703795Y-96159111D01*
X149586739Y-96246739D01*
X149499111Y-96363795D01*
X149448011Y-96500795D01*
X149448011Y-96500797D01*
X149441500Y-96561345D01*
X146739212Y-96561345D01*
X146643243Y-96457097D01*
X146643238Y-96457092D01*
X146465577Y-96318812D01*
X146465572Y-96318808D01*
X146267580Y-96211661D01*
X146267577Y-96211659D01*
X146267574Y-96211658D01*
X146267571Y-96211657D01*
X146267569Y-96211656D01*
X146054637Y-96138556D01*
X145832569Y-96101500D01*
X145607431Y-96101500D01*
X145385362Y-96138556D01*
X145172430Y-96211656D01*
X145172419Y-96211661D01*
X144974427Y-96318808D01*
X144974422Y-96318812D01*
X144796761Y-96457092D01*
X144796756Y-96457097D01*
X144644284Y-96622723D01*
X144644276Y-96622734D01*
X144550251Y-96766650D01*
X144497105Y-96812007D01*
X144427873Y-96821430D01*
X144364538Y-96791928D01*
X144344868Y-96769951D01*
X144218113Y-96588926D01*
X144218108Y-96588920D01*
X144051082Y-96421894D01*
X143857578Y-96286399D01*
X143643492Y-96186570D01*
X143643486Y-96186567D01*
X143430000Y-96129364D01*
X143430000Y-97026988D01*
X143372993Y-96994075D01*
X143245826Y-96960000D01*
X143114174Y-96960000D01*
X142987007Y-96994075D01*
X142930000Y-97026988D01*
X142930000Y-96129364D01*
X142929999Y-96129364D01*
X142716513Y-96186567D01*
X142716507Y-96186570D01*
X142502422Y-96286399D01*
X142502420Y-96286400D01*
X142308926Y-96421886D01*
X142308920Y-96421891D01*
X142141891Y-96588920D01*
X142141890Y-96588922D01*
X142011575Y-96775031D01*
X141956998Y-96818655D01*
X141887499Y-96825848D01*
X141825145Y-96794326D01*
X141808425Y-96775031D01*
X141678109Y-96588922D01*
X141678108Y-96588920D01*
X141511082Y-96421894D01*
X141317578Y-96286399D01*
X141103492Y-96186570D01*
X141103486Y-96186567D01*
X140890000Y-96129364D01*
X140890000Y-97026988D01*
X140832993Y-96994075D01*
X140705826Y-96960000D01*
X140574174Y-96960000D01*
X140447007Y-96994075D01*
X140390000Y-97026988D01*
X140390000Y-96129364D01*
X140389999Y-96129364D01*
X140176513Y-96186567D01*
X140176507Y-96186570D01*
X139962422Y-96286399D01*
X139962420Y-96286400D01*
X139768926Y-96421886D01*
X139768920Y-96421891D01*
X139601891Y-96588920D01*
X139601890Y-96588922D01*
X139475131Y-96769952D01*
X139420554Y-96813577D01*
X139351055Y-96820769D01*
X139288701Y-96789247D01*
X139269752Y-96766656D01*
X139175722Y-96622732D01*
X139175715Y-96622725D01*
X139175715Y-96622723D01*
X139023243Y-96457097D01*
X139023238Y-96457092D01*
X138845577Y-96318812D01*
X138845572Y-96318808D01*
X138647580Y-96211661D01*
X138647577Y-96211659D01*
X138647574Y-96211658D01*
X138647571Y-96211657D01*
X138647569Y-96211656D01*
X138434637Y-96138556D01*
X138212569Y-96101500D01*
X137987431Y-96101500D01*
X137765362Y-96138556D01*
X137552430Y-96211656D01*
X137552419Y-96211661D01*
X137354427Y-96318808D01*
X137354422Y-96318812D01*
X137176761Y-96457092D01*
X137176756Y-96457097D01*
X137024284Y-96622723D01*
X137024276Y-96622734D01*
X136933808Y-96761206D01*
X136880662Y-96806562D01*
X136811431Y-96815986D01*
X136748095Y-96786484D01*
X136726192Y-96761206D01*
X136635723Y-96622734D01*
X136635715Y-96622723D01*
X136483243Y-96457097D01*
X136483238Y-96457092D01*
X136305577Y-96318812D01*
X136305572Y-96318808D01*
X136107580Y-96211661D01*
X136107577Y-96211659D01*
X136107574Y-96211658D01*
X136107571Y-96211657D01*
X136107569Y-96211656D01*
X135894637Y-96138556D01*
X135672569Y-96101500D01*
X135447431Y-96101500D01*
X135225362Y-96138556D01*
X135012430Y-96211656D01*
X135012419Y-96211661D01*
X134814427Y-96318808D01*
X134814422Y-96318812D01*
X134636761Y-96457092D01*
X134636756Y-96457097D01*
X134484284Y-96622723D01*
X134484276Y-96622734D01*
X134393808Y-96761206D01*
X134340662Y-96806562D01*
X134271431Y-96815986D01*
X134208095Y-96786484D01*
X134186192Y-96761206D01*
X134095723Y-96622734D01*
X134095715Y-96622723D01*
X133943243Y-96457097D01*
X133943238Y-96457092D01*
X133765577Y-96318812D01*
X133765572Y-96318808D01*
X133567580Y-96211661D01*
X133567577Y-96211659D01*
X133567574Y-96211658D01*
X133567571Y-96211657D01*
X133567569Y-96211656D01*
X133354637Y-96138556D01*
X133132569Y-96101500D01*
X132907431Y-96101500D01*
X132685362Y-96138556D01*
X132472430Y-96211656D01*
X132472419Y-96211661D01*
X132274427Y-96318808D01*
X132274422Y-96318812D01*
X132096761Y-96457092D01*
X132096756Y-96457097D01*
X131944284Y-96622723D01*
X131944276Y-96622734D01*
X131853808Y-96761206D01*
X131800662Y-96806562D01*
X131731431Y-96815986D01*
X131668095Y-96786484D01*
X131646192Y-96761206D01*
X131555723Y-96622734D01*
X131555715Y-96622723D01*
X131403243Y-96457097D01*
X131403238Y-96457092D01*
X131225577Y-96318812D01*
X131225572Y-96318808D01*
X131027580Y-96211661D01*
X131027577Y-96211659D01*
X131027574Y-96211658D01*
X131027571Y-96211657D01*
X131027569Y-96211656D01*
X130814637Y-96138556D01*
X130592569Y-96101500D01*
X130367431Y-96101500D01*
X130145362Y-96138556D01*
X129932430Y-96211656D01*
X129932419Y-96211661D01*
X129734427Y-96318808D01*
X129734422Y-96318812D01*
X129556761Y-96457092D01*
X129493548Y-96525760D01*
X129433661Y-96561750D01*
X129363823Y-96559649D01*
X129306207Y-96520124D01*
X129286138Y-96485110D01*
X129240889Y-96363796D01*
X129207214Y-96318812D01*
X129153261Y-96246739D01*
X129036204Y-96159111D01*
X129035172Y-96158726D01*
X128899203Y-96108011D01*
X128838654Y-96101500D01*
X128838638Y-96101500D01*
X127041362Y-96101500D01*
X127041345Y-96101500D01*
X126980797Y-96108011D01*
X126980795Y-96108011D01*
X126843795Y-96159111D01*
X126726739Y-96246739D01*
X126639111Y-96363795D01*
X126588011Y-96500795D01*
X126588011Y-96500797D01*
X126581500Y-96561345D01*
X100075500Y-96561345D01*
X100075500Y-92554998D01*
X161456807Y-92554998D01*
X161456807Y-92555001D01*
X161475541Y-92769136D01*
X161475542Y-92769144D01*
X161531176Y-92976772D01*
X161531177Y-92976774D01*
X161531178Y-92976777D01*
X161622024Y-93171597D01*
X161622026Y-93171601D01*
X161745319Y-93347682D01*
X161897317Y-93499680D01*
X162073398Y-93622973D01*
X162073400Y-93622974D01*
X162073403Y-93622976D01*
X162268223Y-93713822D01*
X162475858Y-93769458D01*
X162628816Y-93782840D01*
X162689998Y-93788193D01*
X162690000Y-93788193D01*
X162690002Y-93788193D01*
X162743535Y-93783509D01*
X162904142Y-93769458D01*
X163111777Y-93713822D01*
X163306597Y-93622976D01*
X163482681Y-93499681D01*
X163634681Y-93347681D01*
X163757976Y-93171597D01*
X163848822Y-92976777D01*
X163904458Y-92769142D01*
X163923193Y-92555000D01*
X163904458Y-92340858D01*
X163848822Y-92133223D01*
X163757976Y-91938404D01*
X163634681Y-91762319D01*
X163634679Y-91762316D01*
X163482682Y-91610319D01*
X163306601Y-91487026D01*
X163306597Y-91487024D01*
X163306595Y-91487023D01*
X163111777Y-91396178D01*
X163111774Y-91396177D01*
X163111772Y-91396176D01*
X162904144Y-91340542D01*
X162904136Y-91340541D01*
X162690002Y-91321807D01*
X162689998Y-91321807D01*
X162475863Y-91340541D01*
X162475855Y-91340542D01*
X162268227Y-91396176D01*
X162268221Y-91396179D01*
X162073405Y-91487023D01*
X162073403Y-91487024D01*
X161897316Y-91610320D01*
X161745320Y-91762316D01*
X161622024Y-91938403D01*
X161622023Y-91938405D01*
X161531179Y-92133221D01*
X161531176Y-92133227D01*
X161475542Y-92340855D01*
X161475541Y-92340863D01*
X161456807Y-92554998D01*
X100075500Y-92554998D01*
X100075500Y-90670000D01*
X131726835Y-90670000D01*
X131745465Y-90906714D01*
X131800895Y-91137595D01*
X131800895Y-91137597D01*
X131891757Y-91356959D01*
X131891759Y-91356962D01*
X132015820Y-91559410D01*
X132015821Y-91559413D01*
X132015824Y-91559416D01*
X132170031Y-91739969D01*
X132256920Y-91814179D01*
X132350586Y-91894178D01*
X132350589Y-91894179D01*
X132553037Y-92018240D01*
X132553040Y-92018242D01*
X132772403Y-92109104D01*
X132772404Y-92109104D01*
X132772406Y-92109105D01*
X133003289Y-92164535D01*
X133240000Y-92183165D01*
X133476711Y-92164535D01*
X133707594Y-92109105D01*
X133707596Y-92109104D01*
X133707597Y-92109104D01*
X133926959Y-92018242D01*
X133926960Y-92018241D01*
X133926963Y-92018240D01*
X134129416Y-91894176D01*
X134309969Y-91739969D01*
X134464176Y-91559416D01*
X134588240Y-91356963D01*
X134595043Y-91340541D01*
X134679104Y-91137597D01*
X134679104Y-91137596D01*
X134679105Y-91137594D01*
X134734535Y-90906711D01*
X134753165Y-90670000D01*
X138226835Y-90670000D01*
X138245465Y-90906714D01*
X138300895Y-91137595D01*
X138300895Y-91137597D01*
X138391757Y-91356959D01*
X138391759Y-91356962D01*
X138515820Y-91559410D01*
X138515821Y-91559413D01*
X138515824Y-91559416D01*
X138670031Y-91739969D01*
X138756920Y-91814179D01*
X138850586Y-91894178D01*
X138850589Y-91894179D01*
X139053037Y-92018240D01*
X139053040Y-92018242D01*
X139272403Y-92109104D01*
X139272404Y-92109104D01*
X139272406Y-92109105D01*
X139503289Y-92164535D01*
X139740000Y-92183165D01*
X139976711Y-92164535D01*
X140207594Y-92109105D01*
X140207596Y-92109104D01*
X140207597Y-92109104D01*
X140426959Y-92018242D01*
X140426960Y-92018241D01*
X140426963Y-92018240D01*
X140629416Y-91894176D01*
X140809969Y-91739969D01*
X140964176Y-91559416D01*
X141088240Y-91356963D01*
X141095043Y-91340541D01*
X141179104Y-91137597D01*
X141179104Y-91137596D01*
X141179105Y-91137594D01*
X141234535Y-90906711D01*
X141253165Y-90670000D01*
X141246869Y-90590000D01*
X146536835Y-90590000D01*
X146555465Y-90826714D01*
X146610895Y-91057595D01*
X146610895Y-91057597D01*
X146701757Y-91276959D01*
X146701759Y-91276962D01*
X146825820Y-91479410D01*
X146825821Y-91479413D01*
X146878076Y-91540596D01*
X146980031Y-91659969D01*
X147073698Y-91739968D01*
X147160586Y-91814178D01*
X147160589Y-91814179D01*
X147363037Y-91938240D01*
X147363040Y-91938242D01*
X147582403Y-92029104D01*
X147582404Y-92029104D01*
X147582406Y-92029105D01*
X147813289Y-92084535D01*
X148050000Y-92103165D01*
X148286711Y-92084535D01*
X148517594Y-92029105D01*
X148517596Y-92029104D01*
X148517597Y-92029104D01*
X148736959Y-91938242D01*
X148736960Y-91938241D01*
X148736963Y-91938240D01*
X148939416Y-91814176D01*
X149119969Y-91659969D01*
X149274176Y-91479416D01*
X149398240Y-91276963D01*
X149413692Y-91239660D01*
X149489104Y-91057597D01*
X149489104Y-91057596D01*
X149489105Y-91057594D01*
X149544535Y-90826711D01*
X149563165Y-90590000D01*
X153036835Y-90590000D01*
X153055465Y-90826714D01*
X153110895Y-91057595D01*
X153110895Y-91057597D01*
X153201757Y-91276959D01*
X153201759Y-91276962D01*
X153325820Y-91479410D01*
X153325821Y-91479413D01*
X153378076Y-91540596D01*
X153480031Y-91659969D01*
X153573698Y-91739968D01*
X153660586Y-91814178D01*
X153660589Y-91814179D01*
X153863037Y-91938240D01*
X153863040Y-91938242D01*
X154082403Y-92029104D01*
X154082404Y-92029104D01*
X154082406Y-92029105D01*
X154313289Y-92084535D01*
X154550000Y-92103165D01*
X154786711Y-92084535D01*
X155017594Y-92029105D01*
X155017596Y-92029104D01*
X155017597Y-92029104D01*
X155236959Y-91938242D01*
X155236960Y-91938241D01*
X155236963Y-91938240D01*
X155439416Y-91814176D01*
X155619969Y-91659969D01*
X155774176Y-91479416D01*
X155898240Y-91276963D01*
X155913692Y-91239660D01*
X155989104Y-91057597D01*
X155989104Y-91057596D01*
X155989105Y-91057594D01*
X156044535Y-90826711D01*
X156063165Y-90590000D01*
X156044535Y-90353289D01*
X155989105Y-90122406D01*
X155989104Y-90122403D01*
X155989104Y-90122402D01*
X155944616Y-90014998D01*
X158916807Y-90014998D01*
X158916807Y-90015001D01*
X158935541Y-90229136D01*
X158935542Y-90229144D01*
X158991176Y-90436772D01*
X158991177Y-90436774D01*
X158991178Y-90436777D01*
X159062627Y-90590000D01*
X159082024Y-90631597D01*
X159082026Y-90631601D01*
X159205319Y-90807682D01*
X159357317Y-90959680D01*
X159533398Y-91082973D01*
X159533400Y-91082974D01*
X159533403Y-91082976D01*
X159728223Y-91173822D01*
X159935858Y-91229458D01*
X160088816Y-91242840D01*
X160149998Y-91248193D01*
X160150000Y-91248193D01*
X160150002Y-91248193D01*
X160203535Y-91243509D01*
X160364142Y-91229458D01*
X160571777Y-91173822D01*
X160766597Y-91082976D01*
X160942681Y-90959681D01*
X161094681Y-90807681D01*
X161217976Y-90631597D01*
X161308822Y-90436777D01*
X161364458Y-90229142D01*
X161383193Y-90015000D01*
X161383193Y-90014997D01*
X164005340Y-90014997D01*
X164005340Y-90015002D01*
X164023944Y-90227654D01*
X164023945Y-90227662D01*
X164079194Y-90433853D01*
X164079197Y-90433859D01*
X164169413Y-90627329D01*
X164208415Y-90683030D01*
X164830000Y-90061445D01*
X164830000Y-90067661D01*
X164857259Y-90169394D01*
X164909920Y-90260606D01*
X164984394Y-90335080D01*
X165075606Y-90387741D01*
X165177339Y-90415000D01*
X165183554Y-90415000D01*
X164561968Y-91036584D01*
X164617663Y-91075582D01*
X164617669Y-91075586D01*
X164811140Y-91165802D01*
X164811146Y-91165805D01*
X165017337Y-91221054D01*
X165017345Y-91221055D01*
X165229998Y-91239660D01*
X165230002Y-91239660D01*
X165442654Y-91221055D01*
X165442662Y-91221054D01*
X165648853Y-91165805D01*
X165648864Y-91165801D01*
X165842325Y-91075589D01*
X165898030Y-91036583D01*
X165276447Y-90415000D01*
X165282661Y-90415000D01*
X165384394Y-90387741D01*
X165475606Y-90335080D01*
X165550080Y-90260606D01*
X165602741Y-90169394D01*
X165630000Y-90067661D01*
X165630000Y-90061446D01*
X166251583Y-90683029D01*
X166290589Y-90627325D01*
X166380801Y-90433864D01*
X166380805Y-90433853D01*
X166436054Y-90227662D01*
X166436055Y-90227654D01*
X166454660Y-90015002D01*
X166454660Y-90014997D01*
X166436055Y-89802345D01*
X166436054Y-89802337D01*
X166380805Y-89596146D01*
X166380802Y-89596140D01*
X166290586Y-89402669D01*
X166290582Y-89402663D01*
X166251584Y-89346968D01*
X165630000Y-89968552D01*
X165630000Y-89962339D01*
X165602741Y-89860606D01*
X165550080Y-89769394D01*
X165475606Y-89694920D01*
X165384394Y-89642259D01*
X165282661Y-89615000D01*
X165276447Y-89615000D01*
X165898030Y-88993415D01*
X165842329Y-88954413D01*
X165648859Y-88864197D01*
X165648853Y-88864194D01*
X165442662Y-88808945D01*
X165442654Y-88808944D01*
X165230002Y-88790340D01*
X165229998Y-88790340D01*
X165017345Y-88808944D01*
X165017337Y-88808945D01*
X164811146Y-88864194D01*
X164811140Y-88864197D01*
X164617671Y-88954412D01*
X164617669Y-88954413D01*
X164561969Y-88993415D01*
X164561968Y-88993415D01*
X165183554Y-89615000D01*
X165177339Y-89615000D01*
X165075606Y-89642259D01*
X164984394Y-89694920D01*
X164909920Y-89769394D01*
X164857259Y-89860606D01*
X164830000Y-89962339D01*
X164830000Y-89968553D01*
X164208415Y-89346968D01*
X164208415Y-89346969D01*
X164169413Y-89402669D01*
X164169412Y-89402671D01*
X164079197Y-89596140D01*
X164079194Y-89596146D01*
X164023945Y-89802337D01*
X164023944Y-89802345D01*
X164005340Y-90014997D01*
X161383193Y-90014997D01*
X161364458Y-89800858D01*
X161308822Y-89593223D01*
X161217976Y-89398404D01*
X161094681Y-89222319D01*
X161094679Y-89222316D01*
X160942682Y-89070319D01*
X160766601Y-88947026D01*
X160766597Y-88947024D01*
X160766595Y-88947023D01*
X160571777Y-88856178D01*
X160571774Y-88856177D01*
X160571772Y-88856176D01*
X160364144Y-88800542D01*
X160364136Y-88800541D01*
X160150002Y-88781807D01*
X160149998Y-88781807D01*
X159935863Y-88800541D01*
X159935855Y-88800542D01*
X159728227Y-88856176D01*
X159728221Y-88856179D01*
X159533405Y-88947023D01*
X159533403Y-88947024D01*
X159357316Y-89070320D01*
X159205320Y-89222316D01*
X159082024Y-89398403D01*
X159082023Y-89398405D01*
X158991179Y-89593221D01*
X158991176Y-89593227D01*
X158935542Y-89800855D01*
X158935541Y-89800863D01*
X158916807Y-90014998D01*
X155944616Y-90014998D01*
X155898242Y-89903040D01*
X155898240Y-89903037D01*
X155774179Y-89700589D01*
X155774178Y-89700586D01*
X155701080Y-89615000D01*
X155619969Y-89520031D01*
X155482549Y-89402663D01*
X155439413Y-89365821D01*
X155439410Y-89365820D01*
X155236962Y-89241759D01*
X155236959Y-89241757D01*
X155017596Y-89150895D01*
X154786714Y-89095465D01*
X154550000Y-89076835D01*
X154313285Y-89095465D01*
X154082404Y-89150895D01*
X154082402Y-89150895D01*
X153863040Y-89241757D01*
X153863037Y-89241759D01*
X153660589Y-89365820D01*
X153660586Y-89365821D01*
X153480031Y-89520031D01*
X153325821Y-89700586D01*
X153325820Y-89700589D01*
X153201759Y-89903037D01*
X153201757Y-89903040D01*
X153110895Y-90122402D01*
X153110895Y-90122404D01*
X153055465Y-90353285D01*
X153036835Y-90590000D01*
X149563165Y-90590000D01*
X149544535Y-90353289D01*
X149489105Y-90122406D01*
X149489104Y-90122403D01*
X149489104Y-90122402D01*
X149398242Y-89903040D01*
X149398240Y-89903037D01*
X149274179Y-89700589D01*
X149274178Y-89700586D01*
X149201080Y-89615000D01*
X149119969Y-89520031D01*
X148982549Y-89402663D01*
X148939413Y-89365821D01*
X148939410Y-89365820D01*
X148736962Y-89241759D01*
X148736959Y-89241757D01*
X148517596Y-89150895D01*
X148286714Y-89095465D01*
X148050000Y-89076835D01*
X147813285Y-89095465D01*
X147582404Y-89150895D01*
X147582402Y-89150895D01*
X147363040Y-89241757D01*
X147363037Y-89241759D01*
X147160589Y-89365820D01*
X147160586Y-89365821D01*
X146980031Y-89520031D01*
X146825821Y-89700586D01*
X146825820Y-89700589D01*
X146701759Y-89903037D01*
X146701757Y-89903040D01*
X146610895Y-90122402D01*
X146610895Y-90122404D01*
X146555465Y-90353285D01*
X146536835Y-90590000D01*
X141246869Y-90590000D01*
X141234535Y-90433289D01*
X141179105Y-90202406D01*
X141179104Y-90202403D01*
X141179104Y-90202402D01*
X141088242Y-89983040D01*
X141088240Y-89983037D01*
X141075556Y-89962339D01*
X140964178Y-89780588D01*
X140964178Y-89780586D01*
X140929340Y-89739797D01*
X140809969Y-89600031D01*
X140690596Y-89498076D01*
X140629413Y-89445821D01*
X140629410Y-89445820D01*
X140426962Y-89321759D01*
X140426959Y-89321757D01*
X140207596Y-89230895D01*
X139976714Y-89175465D01*
X139740000Y-89156835D01*
X139503285Y-89175465D01*
X139272404Y-89230895D01*
X139272402Y-89230895D01*
X139053040Y-89321757D01*
X139053037Y-89321759D01*
X138850589Y-89445820D01*
X138850586Y-89445821D01*
X138670031Y-89600031D01*
X138515821Y-89780586D01*
X138515820Y-89780589D01*
X138391759Y-89983037D01*
X138391757Y-89983040D01*
X138300895Y-90202402D01*
X138300895Y-90202404D01*
X138245465Y-90433285D01*
X138226835Y-90670000D01*
X134753165Y-90670000D01*
X134734535Y-90433289D01*
X134679105Y-90202406D01*
X134679104Y-90202403D01*
X134679104Y-90202402D01*
X134588242Y-89983040D01*
X134588240Y-89983037D01*
X134575556Y-89962339D01*
X134464178Y-89780588D01*
X134464178Y-89780586D01*
X134429340Y-89739797D01*
X134309969Y-89600031D01*
X134190596Y-89498076D01*
X134129413Y-89445821D01*
X134129410Y-89445820D01*
X133926962Y-89321759D01*
X133926959Y-89321757D01*
X133707596Y-89230895D01*
X133476714Y-89175465D01*
X133240000Y-89156835D01*
X133003285Y-89175465D01*
X132772404Y-89230895D01*
X132772402Y-89230895D01*
X132553040Y-89321757D01*
X132553037Y-89321759D01*
X132350589Y-89445820D01*
X132350586Y-89445821D01*
X132170031Y-89600031D01*
X132015821Y-89780586D01*
X132015820Y-89780589D01*
X131891759Y-89983037D01*
X131891757Y-89983040D01*
X131800895Y-90202402D01*
X131800895Y-90202404D01*
X131745465Y-90433285D01*
X131726835Y-90670000D01*
X100075500Y-90670000D01*
X100075500Y-86170000D01*
X131726835Y-86170000D01*
X131745465Y-86406714D01*
X131800895Y-86637595D01*
X131800895Y-86637597D01*
X131891757Y-86856959D01*
X131891759Y-86856962D01*
X132015820Y-87059410D01*
X132015821Y-87059413D01*
X132015824Y-87059416D01*
X132170031Y-87239969D01*
X132256920Y-87314179D01*
X132350586Y-87394178D01*
X132350589Y-87394179D01*
X132553037Y-87518240D01*
X132553040Y-87518242D01*
X132772403Y-87609104D01*
X132772404Y-87609104D01*
X132772406Y-87609105D01*
X133003289Y-87664535D01*
X133240000Y-87683165D01*
X133476711Y-87664535D01*
X133707594Y-87609105D01*
X133707596Y-87609104D01*
X133707597Y-87609104D01*
X133926959Y-87518242D01*
X133926960Y-87518241D01*
X133926963Y-87518240D01*
X134129416Y-87394176D01*
X134309969Y-87239969D01*
X134464176Y-87059416D01*
X134588240Y-86856963D01*
X134621378Y-86776962D01*
X134679104Y-86637597D01*
X134679104Y-86637596D01*
X134679105Y-86637594D01*
X134734535Y-86406711D01*
X134753165Y-86170000D01*
X138226835Y-86170000D01*
X138245465Y-86406714D01*
X138300895Y-86637595D01*
X138300895Y-86637597D01*
X138391757Y-86856959D01*
X138391759Y-86856962D01*
X138515820Y-87059410D01*
X138515821Y-87059413D01*
X138515824Y-87059416D01*
X138670031Y-87239969D01*
X138756920Y-87314179D01*
X138850586Y-87394178D01*
X138850589Y-87394179D01*
X139053037Y-87518240D01*
X139053040Y-87518242D01*
X139272403Y-87609104D01*
X139272404Y-87609104D01*
X139272406Y-87609105D01*
X139503289Y-87664535D01*
X139740000Y-87683165D01*
X139976711Y-87664535D01*
X140207594Y-87609105D01*
X140207596Y-87609104D01*
X140207597Y-87609104D01*
X140426959Y-87518242D01*
X140426960Y-87518241D01*
X140426963Y-87518240D01*
X140629416Y-87394176D01*
X140809969Y-87239969D01*
X140964176Y-87059416D01*
X141088240Y-86856963D01*
X141121378Y-86776962D01*
X141179104Y-86637597D01*
X141179104Y-86637596D01*
X141179105Y-86637594D01*
X141234535Y-86406711D01*
X141253165Y-86170000D01*
X141246869Y-86090000D01*
X146536835Y-86090000D01*
X146555465Y-86326714D01*
X146610895Y-86557595D01*
X146610895Y-86557597D01*
X146701757Y-86776959D01*
X146701759Y-86776962D01*
X146825820Y-86979410D01*
X146825821Y-86979413D01*
X146825824Y-86979416D01*
X146980031Y-87159969D01*
X147073698Y-87239968D01*
X147160586Y-87314178D01*
X147160589Y-87314179D01*
X147363037Y-87438240D01*
X147363040Y-87438242D01*
X147582403Y-87529104D01*
X147582404Y-87529104D01*
X147582406Y-87529105D01*
X147813289Y-87584535D01*
X148050000Y-87603165D01*
X148286711Y-87584535D01*
X148517594Y-87529105D01*
X148517596Y-87529104D01*
X148517597Y-87529104D01*
X148736959Y-87438242D01*
X148736960Y-87438241D01*
X148736963Y-87438240D01*
X148939416Y-87314176D01*
X149119969Y-87159969D01*
X149274176Y-86979416D01*
X149398240Y-86776963D01*
X149489105Y-86557594D01*
X149544535Y-86326711D01*
X149563165Y-86090000D01*
X153036835Y-86090000D01*
X153055465Y-86326714D01*
X153110895Y-86557595D01*
X153110895Y-86557597D01*
X153201757Y-86776959D01*
X153201759Y-86776962D01*
X153325820Y-86979410D01*
X153325821Y-86979413D01*
X153325824Y-86979416D01*
X153480031Y-87159969D01*
X153573698Y-87239968D01*
X153660586Y-87314178D01*
X153660589Y-87314179D01*
X153863037Y-87438240D01*
X153863040Y-87438242D01*
X154082403Y-87529104D01*
X154082404Y-87529104D01*
X154082406Y-87529105D01*
X154313289Y-87584535D01*
X154550000Y-87603165D01*
X154786711Y-87584535D01*
X155017594Y-87529105D01*
X155017596Y-87529104D01*
X155017597Y-87529104D01*
X155236959Y-87438242D01*
X155236960Y-87438241D01*
X155236963Y-87438240D01*
X155439416Y-87314176D01*
X155619969Y-87159969D01*
X155774176Y-86979416D01*
X155898240Y-86776963D01*
X155989105Y-86557594D01*
X156044535Y-86326711D01*
X156063165Y-86090000D01*
X156044535Y-85853289D01*
X155989105Y-85622406D01*
X155989104Y-85622403D01*
X155989104Y-85622402D01*
X155898242Y-85403040D01*
X155898240Y-85403037D01*
X155774179Y-85200589D01*
X155774178Y-85200586D01*
X155739340Y-85159797D01*
X155619969Y-85020031D01*
X155500596Y-84918076D01*
X155439413Y-84865821D01*
X155439410Y-84865820D01*
X155236962Y-84741759D01*
X155236959Y-84741757D01*
X155017596Y-84650895D01*
X154786714Y-84595465D01*
X154550000Y-84576835D01*
X154313285Y-84595465D01*
X154082404Y-84650895D01*
X154082402Y-84650895D01*
X153863040Y-84741757D01*
X153863037Y-84741759D01*
X153660589Y-84865820D01*
X153660586Y-84865821D01*
X153480031Y-85020031D01*
X153325821Y-85200586D01*
X153325820Y-85200589D01*
X153201759Y-85403037D01*
X153201757Y-85403040D01*
X153110895Y-85622402D01*
X153110895Y-85622404D01*
X153055465Y-85853285D01*
X153036835Y-86090000D01*
X149563165Y-86090000D01*
X149544535Y-85853289D01*
X149489105Y-85622406D01*
X149489104Y-85622403D01*
X149489104Y-85622402D01*
X149398242Y-85403040D01*
X149398240Y-85403037D01*
X149274179Y-85200589D01*
X149274178Y-85200586D01*
X149239340Y-85159797D01*
X149119969Y-85020031D01*
X149000596Y-84918076D01*
X148939413Y-84865821D01*
X148939410Y-84865820D01*
X148736962Y-84741759D01*
X148736959Y-84741757D01*
X148517596Y-84650895D01*
X148286714Y-84595465D01*
X148050000Y-84576835D01*
X147813285Y-84595465D01*
X147582404Y-84650895D01*
X147582402Y-84650895D01*
X147363040Y-84741757D01*
X147363037Y-84741759D01*
X147160589Y-84865820D01*
X147160586Y-84865821D01*
X146980031Y-85020031D01*
X146825821Y-85200586D01*
X146825820Y-85200589D01*
X146701759Y-85403037D01*
X146701757Y-85403040D01*
X146610895Y-85622402D01*
X146610895Y-85622404D01*
X146555465Y-85853285D01*
X146536835Y-86090000D01*
X141246869Y-86090000D01*
X141234535Y-85933289D01*
X141179105Y-85702406D01*
X141179104Y-85702403D01*
X141179104Y-85702402D01*
X141088242Y-85483040D01*
X141088240Y-85483037D01*
X140964178Y-85280588D01*
X140964178Y-85280586D01*
X140929340Y-85239797D01*
X140809969Y-85100031D01*
X140690596Y-84998076D01*
X140629413Y-84945821D01*
X140629410Y-84945820D01*
X140426962Y-84821759D01*
X140426959Y-84821757D01*
X140207596Y-84730895D01*
X139976714Y-84675465D01*
X139740000Y-84656835D01*
X139503285Y-84675465D01*
X139272404Y-84730895D01*
X139272402Y-84730895D01*
X139053040Y-84821757D01*
X139053037Y-84821759D01*
X138850589Y-84945820D01*
X138850586Y-84945821D01*
X138670031Y-85100031D01*
X138515821Y-85280586D01*
X138515820Y-85280589D01*
X138391759Y-85483037D01*
X138391757Y-85483040D01*
X138300895Y-85702402D01*
X138300895Y-85702404D01*
X138245465Y-85933285D01*
X138226835Y-86170000D01*
X134753165Y-86170000D01*
X134734535Y-85933289D01*
X134679105Y-85702406D01*
X134679104Y-85702403D01*
X134679104Y-85702402D01*
X134588242Y-85483040D01*
X134588240Y-85483037D01*
X134464178Y-85280588D01*
X134464178Y-85280586D01*
X134429340Y-85239797D01*
X134309969Y-85100031D01*
X134190596Y-84998076D01*
X134129413Y-84945821D01*
X134129410Y-84945820D01*
X133926962Y-84821759D01*
X133926959Y-84821757D01*
X133707596Y-84730895D01*
X133476714Y-84675465D01*
X133240000Y-84656835D01*
X133003285Y-84675465D01*
X132772404Y-84730895D01*
X132772402Y-84730895D01*
X132553040Y-84821757D01*
X132553037Y-84821759D01*
X132350589Y-84945820D01*
X132350586Y-84945821D01*
X132170031Y-85100031D01*
X132015821Y-85280586D01*
X132015820Y-85280589D01*
X131891759Y-85483037D01*
X131891757Y-85483040D01*
X131800895Y-85702402D01*
X131800895Y-85702404D01*
X131745465Y-85933285D01*
X131726835Y-86170000D01*
X100075500Y-86170000D01*
X100075500Y-82529998D01*
X129996502Y-82529998D01*
X129996502Y-82530001D01*
X130016456Y-82758081D01*
X130016457Y-82758089D01*
X130075714Y-82979238D01*
X130075718Y-82979249D01*
X130170487Y-83182482D01*
X130172477Y-83186749D01*
X130303802Y-83374300D01*
X130465700Y-83536198D01*
X130653251Y-83667523D01*
X130763368Y-83718871D01*
X130860750Y-83764281D01*
X130860752Y-83764281D01*
X130860757Y-83764284D01*
X131081913Y-83823543D01*
X131244832Y-83837796D01*
X131309998Y-83843498D01*
X131310000Y-83843498D01*
X131310002Y-83843498D01*
X131367021Y-83838509D01*
X131538087Y-83823543D01*
X131759243Y-83764284D01*
X131966749Y-83667523D01*
X132154300Y-83536198D01*
X132316198Y-83374300D01*
X132447523Y-83186749D01*
X132544284Y-82979243D01*
X132603543Y-82758087D01*
X132623498Y-82530000D01*
X132603543Y-82301913D01*
X132597671Y-82279999D01*
X140191127Y-82279999D01*
X140191128Y-82280000D01*
X141154314Y-82280000D01*
X141149920Y-82284394D01*
X141097259Y-82375606D01*
X141070000Y-82477339D01*
X141070000Y-82582661D01*
X141097259Y-82684394D01*
X141149920Y-82775606D01*
X141154314Y-82780000D01*
X140191128Y-82780000D01*
X140243730Y-82976317D01*
X140243734Y-82976326D01*
X140339865Y-83182482D01*
X140470342Y-83368820D01*
X140631179Y-83529657D01*
X140817517Y-83660134D01*
X141023673Y-83756265D01*
X141023682Y-83756269D01*
X141219999Y-83808872D01*
X141220000Y-83808871D01*
X141220000Y-82845686D01*
X141224394Y-82850080D01*
X141315606Y-82902741D01*
X141417339Y-82930000D01*
X141522661Y-82930000D01*
X141624394Y-82902741D01*
X141715606Y-82850080D01*
X141720000Y-82845686D01*
X141720000Y-83808872D01*
X141916317Y-83756269D01*
X141916326Y-83756265D01*
X142122482Y-83660134D01*
X142308820Y-83529657D01*
X142469657Y-83368820D01*
X142600134Y-83182482D01*
X142696265Y-82976326D01*
X142696269Y-82976317D01*
X142748872Y-82780000D01*
X141785686Y-82780000D01*
X141790080Y-82775606D01*
X141842741Y-82684394D01*
X141870000Y-82582661D01*
X141870000Y-82477339D01*
X141859995Y-82439998D01*
X144706502Y-82439998D01*
X144706502Y-82440001D01*
X144726456Y-82668081D01*
X144726457Y-82668089D01*
X144785714Y-82889238D01*
X144785718Y-82889249D01*
X144826323Y-82976326D01*
X144882477Y-83096749D01*
X145013802Y-83284300D01*
X145175700Y-83446198D01*
X145363251Y-83577523D01*
X145488091Y-83635736D01*
X145570750Y-83674281D01*
X145570752Y-83674281D01*
X145570757Y-83674284D01*
X145791913Y-83733543D01*
X145954832Y-83747796D01*
X146019998Y-83753498D01*
X146020000Y-83753498D01*
X146020002Y-83753498D01*
X146077021Y-83748509D01*
X146248087Y-83733543D01*
X146469243Y-83674284D01*
X146676749Y-83577523D01*
X146864300Y-83446198D01*
X147026198Y-83284300D01*
X147157523Y-83096749D01*
X147254284Y-82889243D01*
X147313543Y-82668087D01*
X147333498Y-82440000D01*
X147313543Y-82211913D01*
X147307671Y-82189999D01*
X154901127Y-82189999D01*
X154901128Y-82190000D01*
X155864314Y-82190000D01*
X155859920Y-82194394D01*
X155807259Y-82285606D01*
X155780000Y-82387339D01*
X155780000Y-82492661D01*
X155807259Y-82594394D01*
X155859920Y-82685606D01*
X155864314Y-82690000D01*
X154901128Y-82690000D01*
X154953730Y-82886317D01*
X154953734Y-82886326D01*
X155049865Y-83092482D01*
X155180342Y-83278820D01*
X155341179Y-83439657D01*
X155527517Y-83570134D01*
X155733673Y-83666265D01*
X155733682Y-83666269D01*
X155929999Y-83718872D01*
X155930000Y-83718871D01*
X155930000Y-82755686D01*
X155934394Y-82760080D01*
X156025606Y-82812741D01*
X156127339Y-82840000D01*
X156232661Y-82840000D01*
X156334394Y-82812741D01*
X156425606Y-82760080D01*
X156430000Y-82755686D01*
X156430000Y-83718872D01*
X156626317Y-83666269D01*
X156626326Y-83666265D01*
X156832482Y-83570134D01*
X157018820Y-83439657D01*
X157179657Y-83278820D01*
X157310134Y-83092482D01*
X157406265Y-82886326D01*
X157406269Y-82886317D01*
X157458872Y-82690000D01*
X156495686Y-82690000D01*
X156500080Y-82685606D01*
X156552741Y-82594394D01*
X156580000Y-82492661D01*
X156580000Y-82387339D01*
X156552741Y-82285606D01*
X156500080Y-82194394D01*
X156495686Y-82190000D01*
X157458872Y-82190000D01*
X157458872Y-82189999D01*
X157406269Y-81993682D01*
X157406265Y-81993673D01*
X157310134Y-81787517D01*
X157179657Y-81601179D01*
X157018820Y-81440342D01*
X156832482Y-81309865D01*
X156626328Y-81213734D01*
X156430000Y-81161127D01*
X156430000Y-82124314D01*
X156425606Y-82119920D01*
X156334394Y-82067259D01*
X156232661Y-82040000D01*
X156127339Y-82040000D01*
X156025606Y-82067259D01*
X155934394Y-82119920D01*
X155930000Y-82124314D01*
X155930000Y-81161127D01*
X155733671Y-81213734D01*
X155527517Y-81309865D01*
X155341179Y-81440342D01*
X155180342Y-81601179D01*
X155049865Y-81787517D01*
X154953734Y-81993673D01*
X154953730Y-81993682D01*
X154901127Y-82189999D01*
X147307671Y-82189999D01*
X147254284Y-81990757D01*
X147157523Y-81783251D01*
X147026198Y-81595700D01*
X146864300Y-81433802D01*
X146676749Y-81302477D01*
X146676745Y-81302475D01*
X146469249Y-81205718D01*
X146469238Y-81205714D01*
X146248089Y-81146457D01*
X146248081Y-81146456D01*
X146020002Y-81126502D01*
X146019998Y-81126502D01*
X145791918Y-81146456D01*
X145791910Y-81146457D01*
X145570761Y-81205714D01*
X145570750Y-81205718D01*
X145363254Y-81302475D01*
X145363252Y-81302476D01*
X145352700Y-81309865D01*
X145175700Y-81433802D01*
X145175698Y-81433803D01*
X145175695Y-81433806D01*
X145013806Y-81595695D01*
X144882476Y-81783252D01*
X144882475Y-81783254D01*
X144785718Y-81990750D01*
X144785714Y-81990761D01*
X144726457Y-82211910D01*
X144726456Y-82211918D01*
X144706502Y-82439998D01*
X141859995Y-82439998D01*
X141842741Y-82375606D01*
X141790080Y-82284394D01*
X141785686Y-82280000D01*
X142748872Y-82280000D01*
X142748872Y-82279999D01*
X142696269Y-82083682D01*
X142696265Y-82083673D01*
X142600134Y-81877517D01*
X142469657Y-81691179D01*
X142308820Y-81530342D01*
X142122482Y-81399865D01*
X141916328Y-81303734D01*
X141720000Y-81251127D01*
X141720000Y-82214314D01*
X141715606Y-82209920D01*
X141624394Y-82157259D01*
X141522661Y-82130000D01*
X141417339Y-82130000D01*
X141315606Y-82157259D01*
X141224394Y-82209920D01*
X141220000Y-82214314D01*
X141220000Y-81251127D01*
X141023671Y-81303734D01*
X140817517Y-81399865D01*
X140631179Y-81530342D01*
X140470342Y-81691179D01*
X140339865Y-81877517D01*
X140243734Y-82083673D01*
X140243730Y-82083682D01*
X140191127Y-82279999D01*
X132597671Y-82279999D01*
X132544284Y-82080757D01*
X132447523Y-81873251D01*
X132316198Y-81685700D01*
X132154300Y-81523802D01*
X131966749Y-81392477D01*
X131966745Y-81392475D01*
X131759249Y-81295718D01*
X131759238Y-81295714D01*
X131538089Y-81236457D01*
X131538081Y-81236456D01*
X131310002Y-81216502D01*
X131309998Y-81216502D01*
X131081918Y-81236456D01*
X131081910Y-81236457D01*
X130860761Y-81295714D01*
X130860750Y-81295718D01*
X130653254Y-81392475D01*
X130653252Y-81392476D01*
X130653251Y-81392477D01*
X130465700Y-81523802D01*
X130465698Y-81523803D01*
X130465695Y-81523806D01*
X130303806Y-81685695D01*
X130172476Y-81873252D01*
X130172475Y-81873254D01*
X130075718Y-82080750D01*
X130075714Y-82080761D01*
X130016457Y-82301910D01*
X130016456Y-82301918D01*
X129996502Y-82529998D01*
X100075500Y-82529998D01*
X100075500Y-76020000D01*
X131946835Y-76020000D01*
X131965465Y-76256714D01*
X132020895Y-76487595D01*
X132020895Y-76487597D01*
X132111757Y-76706959D01*
X132111759Y-76706962D01*
X132235820Y-76909410D01*
X132235821Y-76909413D01*
X132235824Y-76909416D01*
X132390031Y-77089969D01*
X132529797Y-77209340D01*
X132570586Y-77244178D01*
X132570589Y-77244179D01*
X132773037Y-77368240D01*
X132773040Y-77368242D01*
X132992403Y-77459104D01*
X132992404Y-77459104D01*
X132992406Y-77459105D01*
X133223289Y-77514535D01*
X133460000Y-77533165D01*
X133696711Y-77514535D01*
X133927594Y-77459105D01*
X133927596Y-77459104D01*
X133927597Y-77459104D01*
X134146959Y-77368242D01*
X134146960Y-77368241D01*
X134146963Y-77368240D01*
X134349416Y-77244176D01*
X134529969Y-77089969D01*
X134684176Y-76909416D01*
X134808240Y-76706963D01*
X134820667Y-76676963D01*
X134899104Y-76487597D01*
X134899104Y-76487596D01*
X134899105Y-76487594D01*
X134954535Y-76256711D01*
X134973165Y-76020000D01*
X138446835Y-76020000D01*
X138465465Y-76256714D01*
X138520895Y-76487595D01*
X138520895Y-76487597D01*
X138611757Y-76706959D01*
X138611759Y-76706962D01*
X138735820Y-76909410D01*
X138735821Y-76909413D01*
X138735824Y-76909416D01*
X138890031Y-77089969D01*
X139029797Y-77209340D01*
X139070586Y-77244178D01*
X139070589Y-77244179D01*
X139273037Y-77368240D01*
X139273040Y-77368242D01*
X139492403Y-77459104D01*
X139492404Y-77459104D01*
X139492406Y-77459105D01*
X139723289Y-77514535D01*
X139960000Y-77533165D01*
X140196711Y-77514535D01*
X140427594Y-77459105D01*
X140427596Y-77459104D01*
X140427597Y-77459104D01*
X140646959Y-77368242D01*
X140646960Y-77368241D01*
X140646963Y-77368240D01*
X140849416Y-77244176D01*
X141029969Y-77089969D01*
X141184176Y-76909416D01*
X141308240Y-76706963D01*
X141320667Y-76676963D01*
X141399104Y-76487597D01*
X141399104Y-76487596D01*
X141399105Y-76487594D01*
X141454535Y-76256711D01*
X141473165Y-76020000D01*
X141470804Y-75990000D01*
X144336835Y-75990000D01*
X144355465Y-76226714D01*
X144410895Y-76457595D01*
X144410895Y-76457597D01*
X144501757Y-76676959D01*
X144501759Y-76676962D01*
X144625820Y-76879410D01*
X144625821Y-76879413D01*
X144625824Y-76879416D01*
X144780031Y-77059969D01*
X144890337Y-77154179D01*
X144960586Y-77214178D01*
X144960589Y-77214179D01*
X145163037Y-77338240D01*
X145163040Y-77338242D01*
X145382403Y-77429104D01*
X145382404Y-77429104D01*
X145382406Y-77429105D01*
X145613289Y-77484535D01*
X145850000Y-77503165D01*
X146086711Y-77484535D01*
X146317594Y-77429105D01*
X146317596Y-77429104D01*
X146317597Y-77429104D01*
X146536959Y-77338242D01*
X146536960Y-77338241D01*
X146536963Y-77338240D01*
X146739416Y-77214176D01*
X146919969Y-77059969D01*
X147074176Y-76879416D01*
X147198240Y-76676963D01*
X147223095Y-76616959D01*
X147289104Y-76457597D01*
X147289104Y-76457596D01*
X147289105Y-76457594D01*
X147344535Y-76226711D01*
X147363165Y-75990000D01*
X150836835Y-75990000D01*
X150855465Y-76226714D01*
X150910895Y-76457595D01*
X150910895Y-76457597D01*
X151001757Y-76676959D01*
X151001759Y-76676962D01*
X151125820Y-76879410D01*
X151125821Y-76879413D01*
X151125824Y-76879416D01*
X151280031Y-77059969D01*
X151390337Y-77154179D01*
X151460586Y-77214178D01*
X151460589Y-77214179D01*
X151663037Y-77338240D01*
X151663040Y-77338242D01*
X151882403Y-77429104D01*
X151882404Y-77429104D01*
X151882406Y-77429105D01*
X152113289Y-77484535D01*
X152350000Y-77503165D01*
X152586711Y-77484535D01*
X152817594Y-77429105D01*
X152817596Y-77429104D01*
X152817597Y-77429104D01*
X153036959Y-77338242D01*
X153036960Y-77338241D01*
X153036963Y-77338240D01*
X153239416Y-77214176D01*
X153419969Y-77059969D01*
X153574176Y-76879416D01*
X153698240Y-76676963D01*
X153723095Y-76616959D01*
X153789104Y-76457597D01*
X153789104Y-76457596D01*
X153789105Y-76457594D01*
X153844535Y-76226711D01*
X153863165Y-75990000D01*
X153858443Y-75930000D01*
X157316835Y-75930000D01*
X157335465Y-76166714D01*
X157390895Y-76397595D01*
X157390895Y-76397597D01*
X157481757Y-76616959D01*
X157481759Y-76616962D01*
X157605820Y-76819410D01*
X157605821Y-76819413D01*
X157605824Y-76819416D01*
X157760031Y-76999969D01*
X157899797Y-77119340D01*
X157940586Y-77154178D01*
X157940588Y-77154178D01*
X158087450Y-77244176D01*
X158143037Y-77278240D01*
X158143040Y-77278242D01*
X158362403Y-77369104D01*
X158362404Y-77369104D01*
X158362406Y-77369105D01*
X158593289Y-77424535D01*
X158830000Y-77443165D01*
X159066711Y-77424535D01*
X159297594Y-77369105D01*
X159297596Y-77369104D01*
X159297597Y-77369104D01*
X159516959Y-77278242D01*
X159516960Y-77278241D01*
X159516963Y-77278240D01*
X159719416Y-77154176D01*
X159899969Y-76999969D01*
X160054176Y-76819416D01*
X160178240Y-76616963D01*
X160244253Y-76457594D01*
X160269104Y-76397597D01*
X160269104Y-76397596D01*
X160269105Y-76397594D01*
X160324535Y-76166711D01*
X160343165Y-75930000D01*
X163816835Y-75930000D01*
X163835465Y-76166714D01*
X163890895Y-76397595D01*
X163890895Y-76397597D01*
X163981757Y-76616959D01*
X163981759Y-76616962D01*
X164105820Y-76819410D01*
X164105821Y-76819413D01*
X164105824Y-76819416D01*
X164260031Y-76999969D01*
X164399797Y-77119340D01*
X164440586Y-77154178D01*
X164440588Y-77154178D01*
X164587450Y-77244176D01*
X164643037Y-77278240D01*
X164643040Y-77278242D01*
X164862403Y-77369104D01*
X164862404Y-77369104D01*
X164862406Y-77369105D01*
X165093289Y-77424535D01*
X165330000Y-77443165D01*
X165566711Y-77424535D01*
X165797594Y-77369105D01*
X165797596Y-77369104D01*
X165797597Y-77369104D01*
X166016959Y-77278242D01*
X166016960Y-77278241D01*
X166016963Y-77278240D01*
X166219416Y-77154176D01*
X166399969Y-76999969D01*
X166554176Y-76819416D01*
X166678240Y-76616963D01*
X166744253Y-76457594D01*
X166769104Y-76397597D01*
X166769104Y-76397596D01*
X166769105Y-76397594D01*
X166824535Y-76166711D01*
X166843165Y-75930000D01*
X166824535Y-75693289D01*
X166769105Y-75462406D01*
X166769104Y-75462403D01*
X166769104Y-75462402D01*
X166678242Y-75243040D01*
X166678240Y-75243037D01*
X166554179Y-75040589D01*
X166554178Y-75040586D01*
X166476836Y-74950031D01*
X166399969Y-74860031D01*
X166280596Y-74758076D01*
X166219413Y-74705821D01*
X166219410Y-74705820D01*
X166016962Y-74581759D01*
X166016959Y-74581757D01*
X165797596Y-74490895D01*
X165566714Y-74435465D01*
X165330000Y-74416835D01*
X165093285Y-74435465D01*
X164862404Y-74490895D01*
X164862402Y-74490895D01*
X164643040Y-74581757D01*
X164643037Y-74581759D01*
X164440589Y-74705820D01*
X164440586Y-74705821D01*
X164260031Y-74860031D01*
X164105821Y-75040586D01*
X164105820Y-75040589D01*
X163981759Y-75243037D01*
X163981757Y-75243040D01*
X163890895Y-75462402D01*
X163890895Y-75462404D01*
X163835465Y-75693285D01*
X163816835Y-75930000D01*
X160343165Y-75930000D01*
X160324535Y-75693289D01*
X160269105Y-75462406D01*
X160269104Y-75462403D01*
X160269104Y-75462402D01*
X160178242Y-75243040D01*
X160178240Y-75243037D01*
X160054179Y-75040589D01*
X160054178Y-75040586D01*
X159976836Y-74950031D01*
X159899969Y-74860031D01*
X159780596Y-74758076D01*
X159719413Y-74705821D01*
X159719410Y-74705820D01*
X159516962Y-74581759D01*
X159516959Y-74581757D01*
X159297596Y-74490895D01*
X159066714Y-74435465D01*
X158830000Y-74416835D01*
X158593285Y-74435465D01*
X158362404Y-74490895D01*
X158362402Y-74490895D01*
X158143040Y-74581757D01*
X158143037Y-74581759D01*
X157940589Y-74705820D01*
X157940586Y-74705821D01*
X157760031Y-74860031D01*
X157605821Y-75040586D01*
X157605820Y-75040589D01*
X157481759Y-75243037D01*
X157481757Y-75243040D01*
X157390895Y-75462402D01*
X157390895Y-75462404D01*
X157335465Y-75693285D01*
X157316835Y-75930000D01*
X153858443Y-75930000D01*
X153844535Y-75753289D01*
X153789105Y-75522406D01*
X153789104Y-75522403D01*
X153789104Y-75522402D01*
X153698242Y-75303040D01*
X153698240Y-75303037D01*
X153574179Y-75100589D01*
X153574178Y-75100586D01*
X153445591Y-74950031D01*
X153419969Y-74920031D01*
X153300596Y-74818076D01*
X153239413Y-74765821D01*
X153239410Y-74765820D01*
X153036962Y-74641759D01*
X153036959Y-74641757D01*
X152817596Y-74550895D01*
X152586714Y-74495465D01*
X152350000Y-74476835D01*
X152113285Y-74495465D01*
X151882404Y-74550895D01*
X151882402Y-74550895D01*
X151663040Y-74641757D01*
X151663037Y-74641759D01*
X151460589Y-74765820D01*
X151460586Y-74765821D01*
X151280031Y-74920031D01*
X151125821Y-75100586D01*
X151125820Y-75100589D01*
X151001759Y-75303037D01*
X151001757Y-75303040D01*
X150910895Y-75522402D01*
X150910895Y-75522404D01*
X150855465Y-75753285D01*
X150836835Y-75990000D01*
X147363165Y-75990000D01*
X147344535Y-75753289D01*
X147289105Y-75522406D01*
X147289104Y-75522403D01*
X147289104Y-75522402D01*
X147198242Y-75303040D01*
X147198240Y-75303037D01*
X147074179Y-75100589D01*
X147074178Y-75100586D01*
X146945591Y-74950031D01*
X146919969Y-74920031D01*
X146800596Y-74818076D01*
X146739413Y-74765821D01*
X146739410Y-74765820D01*
X146536962Y-74641759D01*
X146536959Y-74641757D01*
X146317596Y-74550895D01*
X146086714Y-74495465D01*
X145850000Y-74476835D01*
X145613285Y-74495465D01*
X145382404Y-74550895D01*
X145382402Y-74550895D01*
X145163040Y-74641757D01*
X145163037Y-74641759D01*
X144960589Y-74765820D01*
X144960586Y-74765821D01*
X144780031Y-74920031D01*
X144625821Y-75100586D01*
X144625820Y-75100589D01*
X144501759Y-75303037D01*
X144501757Y-75303040D01*
X144410895Y-75522402D01*
X144410895Y-75522404D01*
X144355465Y-75753285D01*
X144336835Y-75990000D01*
X141470804Y-75990000D01*
X141454535Y-75783289D01*
X141399105Y-75552406D01*
X141399104Y-75552403D01*
X141399104Y-75552402D01*
X141308242Y-75333040D01*
X141308240Y-75333037D01*
X141184179Y-75130589D01*
X141184178Y-75130586D01*
X141107310Y-75040586D01*
X141029969Y-74950031D01*
X140910596Y-74848076D01*
X140849413Y-74795821D01*
X140849410Y-74795820D01*
X140646962Y-74671759D01*
X140646959Y-74671757D01*
X140427596Y-74580895D01*
X140196714Y-74525465D01*
X139960000Y-74506835D01*
X139723285Y-74525465D01*
X139492404Y-74580895D01*
X139492402Y-74580895D01*
X139273040Y-74671757D01*
X139273037Y-74671759D01*
X139070589Y-74795820D01*
X139070586Y-74795821D01*
X138890031Y-74950031D01*
X138735821Y-75130586D01*
X138735820Y-75130589D01*
X138611759Y-75333037D01*
X138611757Y-75333040D01*
X138520895Y-75552402D01*
X138520895Y-75552404D01*
X138465465Y-75783285D01*
X138446835Y-76020000D01*
X134973165Y-76020000D01*
X134954535Y-75783289D01*
X134899105Y-75552406D01*
X134899104Y-75552403D01*
X134899104Y-75552402D01*
X134808242Y-75333040D01*
X134808240Y-75333037D01*
X134684179Y-75130589D01*
X134684178Y-75130586D01*
X134607310Y-75040586D01*
X134529969Y-74950031D01*
X134410596Y-74848076D01*
X134349413Y-74795821D01*
X134349410Y-74795820D01*
X134146962Y-74671759D01*
X134146959Y-74671757D01*
X133927596Y-74580895D01*
X133696714Y-74525465D01*
X133460000Y-74506835D01*
X133223285Y-74525465D01*
X132992404Y-74580895D01*
X132992402Y-74580895D01*
X132773040Y-74671757D01*
X132773037Y-74671759D01*
X132570589Y-74795820D01*
X132570586Y-74795821D01*
X132390031Y-74950031D01*
X132235821Y-75130586D01*
X132235820Y-75130589D01*
X132111759Y-75333037D01*
X132111757Y-75333040D01*
X132020895Y-75552402D01*
X132020895Y-75552404D01*
X131965465Y-75783285D01*
X131946835Y-76020000D01*
X100075500Y-76020000D01*
X100075500Y-71520000D01*
X131946835Y-71520000D01*
X131965465Y-71756714D01*
X132020895Y-71987595D01*
X132020895Y-71987597D01*
X132111757Y-72206959D01*
X132111759Y-72206962D01*
X132235820Y-72409410D01*
X132235821Y-72409413D01*
X132235824Y-72409416D01*
X132390031Y-72589969D01*
X132529797Y-72709340D01*
X132570586Y-72744178D01*
X132570589Y-72744179D01*
X132773037Y-72868240D01*
X132773040Y-72868242D01*
X132992403Y-72959104D01*
X132992404Y-72959104D01*
X132992406Y-72959105D01*
X133223289Y-73014535D01*
X133460000Y-73033165D01*
X133696711Y-73014535D01*
X133927594Y-72959105D01*
X133927596Y-72959104D01*
X133927597Y-72959104D01*
X134146959Y-72868242D01*
X134146960Y-72868241D01*
X134146963Y-72868240D01*
X134349416Y-72744176D01*
X134529969Y-72589969D01*
X134684176Y-72409416D01*
X134808240Y-72206963D01*
X134820667Y-72176963D01*
X134899104Y-71987597D01*
X134899104Y-71987596D01*
X134899105Y-71987594D01*
X134954535Y-71756711D01*
X134973165Y-71520000D01*
X138446835Y-71520000D01*
X138465465Y-71756714D01*
X138520895Y-71987595D01*
X138520895Y-71987597D01*
X138611757Y-72206959D01*
X138611759Y-72206962D01*
X138735820Y-72409410D01*
X138735821Y-72409413D01*
X138735824Y-72409416D01*
X138890031Y-72589969D01*
X139029797Y-72709340D01*
X139070586Y-72744178D01*
X139070589Y-72744179D01*
X139273037Y-72868240D01*
X139273040Y-72868242D01*
X139492403Y-72959104D01*
X139492404Y-72959104D01*
X139492406Y-72959105D01*
X139723289Y-73014535D01*
X139960000Y-73033165D01*
X140196711Y-73014535D01*
X140427594Y-72959105D01*
X140427596Y-72959104D01*
X140427597Y-72959104D01*
X140646959Y-72868242D01*
X140646960Y-72868241D01*
X140646963Y-72868240D01*
X140849416Y-72744176D01*
X141029969Y-72589969D01*
X141184176Y-72409416D01*
X141308240Y-72206963D01*
X141320667Y-72176963D01*
X141399104Y-71987597D01*
X141399104Y-71987596D01*
X141399105Y-71987594D01*
X141454535Y-71756711D01*
X141473165Y-71520000D01*
X141470804Y-71490000D01*
X144336835Y-71490000D01*
X144355465Y-71726714D01*
X144410895Y-71957595D01*
X144410895Y-71957597D01*
X144501757Y-72176959D01*
X144501759Y-72176962D01*
X144625820Y-72379410D01*
X144625821Y-72379413D01*
X144625824Y-72379416D01*
X144780031Y-72559969D01*
X144890337Y-72654179D01*
X144960586Y-72714178D01*
X144960589Y-72714179D01*
X145163037Y-72838240D01*
X145163040Y-72838242D01*
X145382403Y-72929104D01*
X145382404Y-72929104D01*
X145382406Y-72929105D01*
X145613289Y-72984535D01*
X145850000Y-73003165D01*
X146086711Y-72984535D01*
X146317594Y-72929105D01*
X146317596Y-72929104D01*
X146317597Y-72929104D01*
X146536959Y-72838242D01*
X146536960Y-72838241D01*
X146536963Y-72838240D01*
X146739416Y-72714176D01*
X146919969Y-72559969D01*
X147074176Y-72379416D01*
X147198240Y-72176963D01*
X147223095Y-72116959D01*
X147289104Y-71957597D01*
X147289104Y-71957596D01*
X147289105Y-71957594D01*
X147344535Y-71726711D01*
X147363165Y-71490000D01*
X150836835Y-71490000D01*
X150855465Y-71726714D01*
X150910895Y-71957595D01*
X150910895Y-71957597D01*
X151001757Y-72176959D01*
X151001759Y-72176962D01*
X151125820Y-72379410D01*
X151125821Y-72379413D01*
X151125824Y-72379416D01*
X151280031Y-72559969D01*
X151390337Y-72654179D01*
X151460586Y-72714178D01*
X151460589Y-72714179D01*
X151663037Y-72838240D01*
X151663040Y-72838242D01*
X151882403Y-72929104D01*
X151882404Y-72929104D01*
X151882406Y-72929105D01*
X152113289Y-72984535D01*
X152350000Y-73003165D01*
X152586711Y-72984535D01*
X152817594Y-72929105D01*
X152817596Y-72929104D01*
X152817597Y-72929104D01*
X153036959Y-72838242D01*
X153036960Y-72838241D01*
X153036963Y-72838240D01*
X153239416Y-72714176D01*
X153419969Y-72559969D01*
X153574176Y-72379416D01*
X153698240Y-72176963D01*
X153723095Y-72116959D01*
X153789104Y-71957597D01*
X153789104Y-71957596D01*
X153789105Y-71957594D01*
X153844535Y-71726711D01*
X153863165Y-71490000D01*
X153858443Y-71430000D01*
X157316835Y-71430000D01*
X157335465Y-71666714D01*
X157390895Y-71897595D01*
X157390895Y-71897597D01*
X157481757Y-72116959D01*
X157481759Y-72116962D01*
X157605820Y-72319410D01*
X157605821Y-72319413D01*
X157605824Y-72319416D01*
X157760031Y-72499969D01*
X157899797Y-72619340D01*
X157940586Y-72654178D01*
X157940588Y-72654178D01*
X158087450Y-72744176D01*
X158143037Y-72778240D01*
X158143040Y-72778242D01*
X158362403Y-72869104D01*
X158362404Y-72869104D01*
X158362406Y-72869105D01*
X158593289Y-72924535D01*
X158830000Y-72943165D01*
X159066711Y-72924535D01*
X159297594Y-72869105D01*
X159297596Y-72869104D01*
X159297597Y-72869104D01*
X159516959Y-72778242D01*
X159516960Y-72778241D01*
X159516963Y-72778240D01*
X159719416Y-72654176D01*
X159899969Y-72499969D01*
X160054176Y-72319416D01*
X160178240Y-72116963D01*
X160244253Y-71957594D01*
X160269104Y-71897597D01*
X160269104Y-71897596D01*
X160269105Y-71897594D01*
X160324535Y-71666711D01*
X160343165Y-71430000D01*
X163816835Y-71430000D01*
X163835465Y-71666714D01*
X163890895Y-71897595D01*
X163890895Y-71897597D01*
X163981757Y-72116959D01*
X163981759Y-72116962D01*
X164105820Y-72319410D01*
X164105821Y-72319413D01*
X164105824Y-72319416D01*
X164260031Y-72499969D01*
X164399797Y-72619340D01*
X164440586Y-72654178D01*
X164440588Y-72654178D01*
X164587450Y-72744176D01*
X164643037Y-72778240D01*
X164643040Y-72778242D01*
X164862403Y-72869104D01*
X164862404Y-72869104D01*
X164862406Y-72869105D01*
X165093289Y-72924535D01*
X165330000Y-72943165D01*
X165566711Y-72924535D01*
X165797594Y-72869105D01*
X165797596Y-72869104D01*
X165797597Y-72869104D01*
X166016959Y-72778242D01*
X166016960Y-72778241D01*
X166016963Y-72778240D01*
X166219416Y-72654176D01*
X166399969Y-72499969D01*
X166554176Y-72319416D01*
X166678240Y-72116963D01*
X166744253Y-71957594D01*
X166769104Y-71897597D01*
X166769104Y-71897596D01*
X166769105Y-71897594D01*
X166824535Y-71666711D01*
X166843165Y-71430000D01*
X166824535Y-71193289D01*
X166769105Y-70962406D01*
X166769104Y-70962403D01*
X166769104Y-70962402D01*
X166678242Y-70743040D01*
X166678240Y-70743037D01*
X166554179Y-70540589D01*
X166554178Y-70540586D01*
X166476836Y-70450031D01*
X166399969Y-70360031D01*
X166280596Y-70258076D01*
X166219413Y-70205821D01*
X166219410Y-70205820D01*
X166016962Y-70081759D01*
X166016959Y-70081757D01*
X165797596Y-69990895D01*
X165566714Y-69935465D01*
X165330000Y-69916835D01*
X165093285Y-69935465D01*
X164862404Y-69990895D01*
X164862402Y-69990895D01*
X164643040Y-70081757D01*
X164643037Y-70081759D01*
X164440589Y-70205820D01*
X164440586Y-70205821D01*
X164260031Y-70360031D01*
X164105821Y-70540586D01*
X164105820Y-70540589D01*
X163981759Y-70743037D01*
X163981757Y-70743040D01*
X163890895Y-70962402D01*
X163890895Y-70962404D01*
X163835465Y-71193285D01*
X163816835Y-71430000D01*
X160343165Y-71430000D01*
X160324535Y-71193289D01*
X160269105Y-70962406D01*
X160269104Y-70962403D01*
X160269104Y-70962402D01*
X160178242Y-70743040D01*
X160178240Y-70743037D01*
X160054179Y-70540589D01*
X160054178Y-70540586D01*
X159976836Y-70450031D01*
X159899969Y-70360031D01*
X159780596Y-70258076D01*
X159719413Y-70205821D01*
X159719410Y-70205820D01*
X159516962Y-70081759D01*
X159516959Y-70081757D01*
X159297596Y-69990895D01*
X159066714Y-69935465D01*
X158830000Y-69916835D01*
X158593285Y-69935465D01*
X158362404Y-69990895D01*
X158362402Y-69990895D01*
X158143040Y-70081757D01*
X158143037Y-70081759D01*
X157940589Y-70205820D01*
X157940586Y-70205821D01*
X157760031Y-70360031D01*
X157605821Y-70540586D01*
X157605820Y-70540589D01*
X157481759Y-70743037D01*
X157481757Y-70743040D01*
X157390895Y-70962402D01*
X157390895Y-70962404D01*
X157335465Y-71193285D01*
X157316835Y-71430000D01*
X153858443Y-71430000D01*
X153844535Y-71253289D01*
X153789105Y-71022406D01*
X153789104Y-71022403D01*
X153789104Y-71022402D01*
X153698242Y-70803040D01*
X153698240Y-70803037D01*
X153574179Y-70600589D01*
X153574178Y-70600586D01*
X153445591Y-70450031D01*
X153419969Y-70420031D01*
X153300596Y-70318076D01*
X153239413Y-70265821D01*
X153239410Y-70265820D01*
X153036962Y-70141759D01*
X153036959Y-70141757D01*
X152817596Y-70050895D01*
X152586714Y-69995465D01*
X152350000Y-69976835D01*
X152113285Y-69995465D01*
X151882404Y-70050895D01*
X151882402Y-70050895D01*
X151663040Y-70141757D01*
X151663037Y-70141759D01*
X151460589Y-70265820D01*
X151460586Y-70265821D01*
X151280031Y-70420031D01*
X151125821Y-70600586D01*
X151125820Y-70600589D01*
X151001759Y-70803037D01*
X151001757Y-70803040D01*
X150910895Y-71022402D01*
X150910895Y-71022404D01*
X150855465Y-71253285D01*
X150836835Y-71490000D01*
X147363165Y-71490000D01*
X147344535Y-71253289D01*
X147289105Y-71022406D01*
X147289104Y-71022403D01*
X147289104Y-71022402D01*
X147198242Y-70803040D01*
X147198240Y-70803037D01*
X147074179Y-70600589D01*
X147074178Y-70600586D01*
X146945591Y-70450031D01*
X146919969Y-70420031D01*
X146800596Y-70318076D01*
X146739413Y-70265821D01*
X146739410Y-70265820D01*
X146536962Y-70141759D01*
X146536959Y-70141757D01*
X146317596Y-70050895D01*
X146086714Y-69995465D01*
X145850000Y-69976835D01*
X145613285Y-69995465D01*
X145382404Y-70050895D01*
X145382402Y-70050895D01*
X145163040Y-70141757D01*
X145163037Y-70141759D01*
X144960589Y-70265820D01*
X144960586Y-70265821D01*
X144780031Y-70420031D01*
X144625821Y-70600586D01*
X144625820Y-70600589D01*
X144501759Y-70803037D01*
X144501757Y-70803040D01*
X144410895Y-71022402D01*
X144410895Y-71022404D01*
X144355465Y-71253285D01*
X144336835Y-71490000D01*
X141470804Y-71490000D01*
X141454535Y-71283289D01*
X141399105Y-71052406D01*
X141399104Y-71052403D01*
X141399104Y-71052402D01*
X141308242Y-70833040D01*
X141308240Y-70833037D01*
X141184179Y-70630589D01*
X141184178Y-70630586D01*
X141107310Y-70540586D01*
X141029969Y-70450031D01*
X140910596Y-70348076D01*
X140849413Y-70295821D01*
X140849410Y-70295820D01*
X140646962Y-70171759D01*
X140646959Y-70171757D01*
X140427596Y-70080895D01*
X140196714Y-70025465D01*
X139960000Y-70006835D01*
X139723285Y-70025465D01*
X139492404Y-70080895D01*
X139492402Y-70080895D01*
X139273040Y-70171757D01*
X139273037Y-70171759D01*
X139070589Y-70295820D01*
X139070586Y-70295821D01*
X138890031Y-70450031D01*
X138735821Y-70630586D01*
X138735820Y-70630589D01*
X138611759Y-70833037D01*
X138611757Y-70833040D01*
X138520895Y-71052402D01*
X138520895Y-71052404D01*
X138465465Y-71283285D01*
X138446835Y-71520000D01*
X134973165Y-71520000D01*
X134954535Y-71283289D01*
X134899105Y-71052406D01*
X134899104Y-71052403D01*
X134899104Y-71052402D01*
X134808242Y-70833040D01*
X134808240Y-70833037D01*
X134684179Y-70630589D01*
X134684178Y-70630586D01*
X134607310Y-70540586D01*
X134529969Y-70450031D01*
X134410596Y-70348076D01*
X134349413Y-70295821D01*
X134349410Y-70295820D01*
X134146962Y-70171759D01*
X134146959Y-70171757D01*
X133927596Y-70080895D01*
X133696714Y-70025465D01*
X133460000Y-70006835D01*
X133223285Y-70025465D01*
X132992404Y-70080895D01*
X132992402Y-70080895D01*
X132773040Y-70171757D01*
X132773037Y-70171759D01*
X132570589Y-70295820D01*
X132570586Y-70295821D01*
X132390031Y-70450031D01*
X132235821Y-70630586D01*
X132235820Y-70630589D01*
X132111759Y-70833037D01*
X132111757Y-70833040D01*
X132020895Y-71052402D01*
X132020895Y-71052404D01*
X131965465Y-71283285D01*
X131946835Y-71520000D01*
X100075500Y-71520000D01*
X100075500Y-67877155D01*
X109690000Y-67877155D01*
X109690000Y-68525000D01*
X110606988Y-68525000D01*
X110574075Y-68582007D01*
X110540000Y-68709174D01*
X110540000Y-68840826D01*
X110574075Y-68967993D01*
X110606988Y-69025000D01*
X109690000Y-69025000D01*
X109690000Y-69672844D01*
X109696401Y-69732372D01*
X109696403Y-69732379D01*
X109746645Y-69867086D01*
X109746649Y-69867093D01*
X109832809Y-69982187D01*
X109832812Y-69982190D01*
X109947906Y-70068350D01*
X109947913Y-70068354D01*
X110082620Y-70118596D01*
X110082627Y-70118598D01*
X110142155Y-70124999D01*
X110142172Y-70125000D01*
X110790000Y-70125000D01*
X110790000Y-69208012D01*
X110847007Y-69240925D01*
X110974174Y-69275000D01*
X111105826Y-69275000D01*
X111232993Y-69240925D01*
X111290000Y-69208012D01*
X111290000Y-70125000D01*
X111937828Y-70125000D01*
X111937844Y-70124999D01*
X111997372Y-70118598D01*
X111997379Y-70118596D01*
X112132086Y-70068354D01*
X112132093Y-70068350D01*
X112247187Y-69982190D01*
X112247190Y-69982187D01*
X112333350Y-69867093D01*
X112333354Y-69867086D01*
X112379681Y-69742877D01*
X112421552Y-69686943D01*
X112487016Y-69662526D01*
X112555289Y-69677377D01*
X112587089Y-69702223D01*
X112656760Y-69777906D01*
X112834424Y-69916189D01*
X112834425Y-69916189D01*
X112834427Y-69916191D01*
X112870043Y-69935465D01*
X113032426Y-70023342D01*
X113245365Y-70096444D01*
X113467431Y-70133500D01*
X113692569Y-70133500D01*
X113914635Y-70096444D01*
X114127574Y-70023342D01*
X114325576Y-69916189D01*
X114503240Y-69777906D01*
X114655722Y-69612268D01*
X114746193Y-69473790D01*
X114799338Y-69428437D01*
X114868569Y-69419013D01*
X114931905Y-69448515D01*
X114953804Y-69473787D01*
X115044278Y-69612268D01*
X115044283Y-69612273D01*
X115044284Y-69612276D01*
X115164513Y-69742877D01*
X115196760Y-69777906D01*
X115374424Y-69916189D01*
X115374425Y-69916189D01*
X115374427Y-69916191D01*
X115410043Y-69935465D01*
X115572426Y-70023342D01*
X115785365Y-70096444D01*
X116007431Y-70133500D01*
X116232569Y-70133500D01*
X116454635Y-70096444D01*
X116667574Y-70023342D01*
X116865576Y-69916189D01*
X117043240Y-69777906D01*
X117195722Y-69612268D01*
X117286193Y-69473790D01*
X117339338Y-69428437D01*
X117408569Y-69419013D01*
X117471905Y-69448515D01*
X117493804Y-69473787D01*
X117584278Y-69612268D01*
X117584283Y-69612273D01*
X117584284Y-69612276D01*
X117704513Y-69742877D01*
X117736760Y-69777906D01*
X117914424Y-69916189D01*
X117914425Y-69916189D01*
X117914427Y-69916191D01*
X117950043Y-69935465D01*
X118112426Y-70023342D01*
X118325365Y-70096444D01*
X118547431Y-70133500D01*
X118772569Y-70133500D01*
X118994635Y-70096444D01*
X119207574Y-70023342D01*
X119405576Y-69916189D01*
X119583240Y-69777906D01*
X119735722Y-69612268D01*
X119858860Y-69423791D01*
X119949296Y-69217616D01*
X120004564Y-68999368D01*
X120007164Y-68967993D01*
X120023156Y-68775005D01*
X120023156Y-68774994D01*
X120004565Y-68550640D01*
X120004563Y-68550628D01*
X119998073Y-68525000D01*
X119949296Y-68332384D01*
X119858860Y-68126209D01*
X119842706Y-68101484D01*
X119735723Y-67937734D01*
X119735715Y-67937723D01*
X119583243Y-67772097D01*
X119583238Y-67772092D01*
X119411072Y-67638089D01*
X119405576Y-67633811D01*
X119405575Y-67633810D01*
X119405572Y-67633808D01*
X119207580Y-67526661D01*
X119207577Y-67526659D01*
X119207574Y-67526658D01*
X119207571Y-67526657D01*
X119207569Y-67526656D01*
X118994637Y-67453556D01*
X118772569Y-67416500D01*
X118547431Y-67416500D01*
X118325362Y-67453556D01*
X118112430Y-67526656D01*
X118112419Y-67526661D01*
X117914427Y-67633808D01*
X117914422Y-67633812D01*
X117736761Y-67772092D01*
X117736756Y-67772097D01*
X117584284Y-67937723D01*
X117584276Y-67937734D01*
X117493808Y-68076206D01*
X117440662Y-68121562D01*
X117371431Y-68130986D01*
X117308095Y-68101484D01*
X117286192Y-68076206D01*
X117195723Y-67937734D01*
X117195715Y-67937723D01*
X117043243Y-67772097D01*
X117043238Y-67772092D01*
X116871072Y-67638089D01*
X116865576Y-67633811D01*
X116865575Y-67633810D01*
X116865572Y-67633808D01*
X116667580Y-67526661D01*
X116667577Y-67526659D01*
X116667574Y-67526658D01*
X116667571Y-67526657D01*
X116667569Y-67526656D01*
X116454637Y-67453556D01*
X116232569Y-67416500D01*
X116007431Y-67416500D01*
X115785362Y-67453556D01*
X115572430Y-67526656D01*
X115572419Y-67526661D01*
X115374427Y-67633808D01*
X115374422Y-67633812D01*
X115196761Y-67772092D01*
X115196756Y-67772097D01*
X115044284Y-67937723D01*
X115044276Y-67937734D01*
X114953808Y-68076206D01*
X114900662Y-68121562D01*
X114831431Y-68130986D01*
X114768095Y-68101484D01*
X114746192Y-68076206D01*
X114655723Y-67937734D01*
X114655715Y-67937723D01*
X114503243Y-67772097D01*
X114503238Y-67772092D01*
X114331072Y-67638089D01*
X114325576Y-67633811D01*
X114325575Y-67633810D01*
X114325572Y-67633808D01*
X114127580Y-67526661D01*
X114127577Y-67526659D01*
X114127574Y-67526658D01*
X114127571Y-67526657D01*
X114127569Y-67526656D01*
X113914637Y-67453556D01*
X113692569Y-67416500D01*
X113467431Y-67416500D01*
X113245362Y-67453556D01*
X113032430Y-67526656D01*
X113032419Y-67526661D01*
X112834427Y-67633808D01*
X112834422Y-67633812D01*
X112656761Y-67772092D01*
X112587092Y-67847773D01*
X112527205Y-67883763D01*
X112457367Y-67881662D01*
X112399751Y-67842137D01*
X112379681Y-67807122D01*
X112333354Y-67682913D01*
X112333350Y-67682906D01*
X112247190Y-67567812D01*
X112247187Y-67567809D01*
X112132093Y-67481649D01*
X112132086Y-67481645D01*
X111997379Y-67431403D01*
X111997372Y-67431401D01*
X111937844Y-67425000D01*
X111290000Y-67425000D01*
X111290000Y-68341988D01*
X111232993Y-68309075D01*
X111105826Y-68275000D01*
X110974174Y-68275000D01*
X110847007Y-68309075D01*
X110790000Y-68341988D01*
X110790000Y-67425000D01*
X110142155Y-67425000D01*
X110082627Y-67431401D01*
X110082620Y-67431403D01*
X109947913Y-67481645D01*
X109947906Y-67481649D01*
X109832812Y-67567809D01*
X109832809Y-67567812D01*
X109746649Y-67682906D01*
X109746645Y-67682913D01*
X109696403Y-67817620D01*
X109696401Y-67817627D01*
X109690000Y-67877155D01*
X100075500Y-67877155D01*
X100075500Y-67409998D01*
X130016502Y-67409998D01*
X130016502Y-67410001D01*
X130036456Y-67638081D01*
X130036457Y-67638089D01*
X130095714Y-67859238D01*
X130095718Y-67859249D01*
X130190487Y-68062482D01*
X130192477Y-68066749D01*
X130323802Y-68254300D01*
X130485700Y-68416198D01*
X130673251Y-68547523D01*
X130730641Y-68574284D01*
X130880750Y-68644281D01*
X130880752Y-68644281D01*
X130880757Y-68644284D01*
X131101913Y-68703543D01*
X131264832Y-68717796D01*
X131329998Y-68723498D01*
X131330000Y-68723498D01*
X131330002Y-68723498D01*
X131387021Y-68718509D01*
X131558087Y-68703543D01*
X131779243Y-68644284D01*
X131986749Y-68547523D01*
X132174300Y-68416198D01*
X132336198Y-68254300D01*
X132467523Y-68066749D01*
X132564284Y-67859243D01*
X132623543Y-67638087D01*
X132640647Y-67442583D01*
X132643498Y-67410001D01*
X132643498Y-67409998D01*
X132637374Y-67339998D01*
X132623543Y-67181913D01*
X132617671Y-67159999D01*
X140211127Y-67159999D01*
X140211128Y-67160000D01*
X141174314Y-67160000D01*
X141169920Y-67164394D01*
X141117259Y-67255606D01*
X141090000Y-67357339D01*
X141090000Y-67462661D01*
X141117259Y-67564394D01*
X141169920Y-67655606D01*
X141174314Y-67660000D01*
X140211128Y-67660000D01*
X140263730Y-67856317D01*
X140263734Y-67856326D01*
X140359865Y-68062482D01*
X140490342Y-68248820D01*
X140651179Y-68409657D01*
X140837517Y-68540134D01*
X141043673Y-68636265D01*
X141043682Y-68636269D01*
X141239999Y-68688872D01*
X141240000Y-68688871D01*
X141240000Y-67725686D01*
X141244394Y-67730080D01*
X141335606Y-67782741D01*
X141437339Y-67810000D01*
X141542661Y-67810000D01*
X141644394Y-67782741D01*
X141735606Y-67730080D01*
X141740000Y-67725686D01*
X141740000Y-68688872D01*
X141936317Y-68636269D01*
X141936326Y-68636265D01*
X142142482Y-68540134D01*
X142328820Y-68409657D01*
X142489657Y-68248820D01*
X142620134Y-68062482D01*
X142716265Y-67856326D01*
X142716269Y-67856317D01*
X142768872Y-67660000D01*
X141805686Y-67660000D01*
X141810080Y-67655606D01*
X141862741Y-67564394D01*
X141890000Y-67462661D01*
X141890000Y-67357339D01*
X141885354Y-67339998D01*
X144136502Y-67339998D01*
X144136502Y-67340001D01*
X144156456Y-67568081D01*
X144156457Y-67568089D01*
X144215714Y-67789238D01*
X144215718Y-67789249D01*
X144258811Y-67881662D01*
X144312477Y-67996749D01*
X144443802Y-68184300D01*
X144605700Y-68346198D01*
X144793251Y-68477523D01*
X144918091Y-68535736D01*
X145000750Y-68574281D01*
X145000752Y-68574281D01*
X145000757Y-68574284D01*
X145221913Y-68633543D01*
X145384832Y-68647796D01*
X145449998Y-68653498D01*
X145450000Y-68653498D01*
X145450002Y-68653498D01*
X145507021Y-68648509D01*
X145678087Y-68633543D01*
X145899243Y-68574284D01*
X146106749Y-68477523D01*
X146294300Y-68346198D01*
X146456198Y-68184300D01*
X146587523Y-67996749D01*
X146684284Y-67789243D01*
X146743543Y-67568087D01*
X146763498Y-67340000D01*
X146743543Y-67111913D01*
X146737671Y-67089999D01*
X154331127Y-67089999D01*
X154331128Y-67090000D01*
X155294314Y-67090000D01*
X155289920Y-67094394D01*
X155237259Y-67185606D01*
X155210000Y-67287339D01*
X155210000Y-67392661D01*
X155237259Y-67494394D01*
X155289920Y-67585606D01*
X155294314Y-67590000D01*
X154331128Y-67590000D01*
X154383730Y-67786317D01*
X154383734Y-67786326D01*
X154479865Y-67992482D01*
X154610342Y-68178820D01*
X154771179Y-68339657D01*
X154957517Y-68470134D01*
X155163673Y-68566265D01*
X155163682Y-68566269D01*
X155359999Y-68618872D01*
X155360000Y-68618871D01*
X155360000Y-67655686D01*
X155364394Y-67660080D01*
X155455606Y-67712741D01*
X155557339Y-67740000D01*
X155662661Y-67740000D01*
X155764394Y-67712741D01*
X155855606Y-67660080D01*
X155860000Y-67655686D01*
X155860000Y-68618872D01*
X156056317Y-68566269D01*
X156056326Y-68566265D01*
X156262482Y-68470134D01*
X156448820Y-68339657D01*
X156609657Y-68178820D01*
X156740134Y-67992482D01*
X156836265Y-67786326D01*
X156836269Y-67786317D01*
X156888872Y-67590000D01*
X155925686Y-67590000D01*
X155930080Y-67585606D01*
X155982741Y-67494394D01*
X156010000Y-67392661D01*
X156010000Y-67287339D01*
X155982741Y-67185606D01*
X155930080Y-67094394D01*
X155925686Y-67090000D01*
X156888872Y-67090000D01*
X156888872Y-67089999D01*
X156836269Y-66893682D01*
X156836265Y-66893673D01*
X156740134Y-66687517D01*
X156609657Y-66501179D01*
X156448820Y-66340342D01*
X156262482Y-66209865D01*
X156056328Y-66113734D01*
X155860000Y-66061127D01*
X155860000Y-67024314D01*
X155855606Y-67019920D01*
X155764394Y-66967259D01*
X155662661Y-66940000D01*
X155557339Y-66940000D01*
X155455606Y-66967259D01*
X155364394Y-67019920D01*
X155360000Y-67024314D01*
X155360000Y-66061127D01*
X155163671Y-66113734D01*
X154957517Y-66209865D01*
X154771179Y-66340342D01*
X154610342Y-66501179D01*
X154479865Y-66687517D01*
X154383734Y-66893673D01*
X154383730Y-66893682D01*
X154331127Y-67089999D01*
X146737671Y-67089999D01*
X146684284Y-66890757D01*
X146587523Y-66683251D01*
X146456198Y-66495700D01*
X146294300Y-66333802D01*
X146106749Y-66202477D01*
X146106745Y-66202475D01*
X145899249Y-66105718D01*
X145899238Y-66105714D01*
X145678089Y-66046457D01*
X145678081Y-66046456D01*
X145450002Y-66026502D01*
X145449998Y-66026502D01*
X145221918Y-66046456D01*
X145221910Y-66046457D01*
X145000761Y-66105714D01*
X145000750Y-66105718D01*
X144793254Y-66202475D01*
X144793252Y-66202476D01*
X144793251Y-66202477D01*
X144605700Y-66333802D01*
X144605698Y-66333803D01*
X144605695Y-66333806D01*
X144443806Y-66495695D01*
X144443803Y-66495698D01*
X144443802Y-66495700D01*
X144390951Y-66571179D01*
X144312476Y-66683252D01*
X144312475Y-66683254D01*
X144215718Y-66890750D01*
X144215714Y-66890761D01*
X144156457Y-67111910D01*
X144156456Y-67111918D01*
X144136502Y-67339998D01*
X141885354Y-67339998D01*
X141862741Y-67255606D01*
X141810080Y-67164394D01*
X141805686Y-67160000D01*
X142768872Y-67160000D01*
X142768872Y-67159999D01*
X142716269Y-66963682D01*
X142716265Y-66963673D01*
X142620134Y-66757517D01*
X142489657Y-66571179D01*
X142328820Y-66410342D01*
X142142482Y-66279865D01*
X141936328Y-66183734D01*
X141740000Y-66131127D01*
X141740000Y-67094314D01*
X141735606Y-67089920D01*
X141644394Y-67037259D01*
X141542661Y-67010000D01*
X141437339Y-67010000D01*
X141335606Y-67037259D01*
X141244394Y-67089920D01*
X141240000Y-67094314D01*
X141240000Y-66131127D01*
X141043671Y-66183734D01*
X140837517Y-66279865D01*
X140651179Y-66410342D01*
X140490342Y-66571179D01*
X140359865Y-66757517D01*
X140263734Y-66963673D01*
X140263730Y-66963682D01*
X140211127Y-67159999D01*
X132617671Y-67159999D01*
X132564284Y-66960757D01*
X132467523Y-66753251D01*
X132336198Y-66565700D01*
X132174300Y-66403802D01*
X131986749Y-66272477D01*
X131986745Y-66272475D01*
X131779249Y-66175718D01*
X131779238Y-66175714D01*
X131558089Y-66116457D01*
X131558081Y-66116456D01*
X131330002Y-66096502D01*
X131329998Y-66096502D01*
X131101918Y-66116456D01*
X131101910Y-66116457D01*
X130880761Y-66175714D01*
X130880750Y-66175718D01*
X130673254Y-66272475D01*
X130673252Y-66272476D01*
X130673251Y-66272477D01*
X130485700Y-66403802D01*
X130485698Y-66403803D01*
X130485695Y-66403806D01*
X130323806Y-66565695D01*
X130192476Y-66753252D01*
X130192475Y-66753254D01*
X130095718Y-66960750D01*
X130095714Y-66960761D01*
X130036457Y-67181910D01*
X130036456Y-67181918D01*
X130016502Y-67409998D01*
X100075500Y-67409998D01*
X100075500Y-62961345D01*
X105831500Y-62961345D01*
X105831500Y-64758654D01*
X105838011Y-64819202D01*
X105838011Y-64819204D01*
X105889111Y-64956204D01*
X105976739Y-65073261D01*
X106093796Y-65160889D01*
X106230799Y-65211989D01*
X106258050Y-65214918D01*
X106291345Y-65218499D01*
X106291362Y-65218500D01*
X108088638Y-65218500D01*
X108088654Y-65218499D01*
X108115692Y-65215591D01*
X108149201Y-65211989D01*
X108286204Y-65160889D01*
X108403261Y-65073261D01*
X108490889Y-64956204D01*
X108539223Y-64826615D01*
X108581093Y-64770686D01*
X108646557Y-64746269D01*
X108714830Y-64761121D01*
X108743084Y-64782272D01*
X108858917Y-64898105D01*
X109052421Y-65033600D01*
X109266507Y-65133429D01*
X109266516Y-65133433D01*
X109480000Y-65190634D01*
X109480000Y-64293012D01*
X109537007Y-64325925D01*
X109664174Y-64360000D01*
X109795826Y-64360000D01*
X109922993Y-64325925D01*
X109980000Y-64293012D01*
X109980000Y-65190633D01*
X110193483Y-65133433D01*
X110193492Y-65133429D01*
X110407578Y-65033600D01*
X110601082Y-64898105D01*
X110768105Y-64731082D01*
X110894868Y-64550048D01*
X110949445Y-64506423D01*
X111018944Y-64499231D01*
X111081298Y-64530753D01*
X111100251Y-64553350D01*
X111194276Y-64697265D01*
X111194284Y-64697276D01*
X111313355Y-64826619D01*
X111346760Y-64862906D01*
X111524424Y-65001189D01*
X111524425Y-65001189D01*
X111524427Y-65001191D01*
X111584314Y-65033600D01*
X111722426Y-65108342D01*
X111935365Y-65181444D01*
X112157431Y-65218500D01*
X112382569Y-65218500D01*
X112604635Y-65181444D01*
X112817574Y-65108342D01*
X113015576Y-65001189D01*
X113193240Y-64862906D01*
X113345722Y-64697268D01*
X113436193Y-64558790D01*
X113489338Y-64513437D01*
X113558569Y-64504013D01*
X113621905Y-64533515D01*
X113643804Y-64558787D01*
X113734278Y-64697268D01*
X113734283Y-64697273D01*
X113734284Y-64697276D01*
X113853355Y-64826619D01*
X113886760Y-64862906D01*
X114064424Y-65001189D01*
X114064425Y-65001189D01*
X114064427Y-65001191D01*
X114124314Y-65033600D01*
X114262426Y-65108342D01*
X114475365Y-65181444D01*
X114697431Y-65218500D01*
X114922569Y-65218500D01*
X115144635Y-65181444D01*
X115357574Y-65108342D01*
X115555576Y-65001189D01*
X115733240Y-64862906D01*
X115885722Y-64697268D01*
X115976193Y-64558790D01*
X116029338Y-64513437D01*
X116098569Y-64504013D01*
X116161905Y-64533515D01*
X116183804Y-64558787D01*
X116274278Y-64697268D01*
X116274283Y-64697273D01*
X116274284Y-64697276D01*
X116393355Y-64826619D01*
X116426760Y-64862906D01*
X116604424Y-65001189D01*
X116604425Y-65001189D01*
X116604427Y-65001191D01*
X116664314Y-65033600D01*
X116802426Y-65108342D01*
X117015365Y-65181444D01*
X117237431Y-65218500D01*
X117462569Y-65218500D01*
X117684635Y-65181444D01*
X117897574Y-65108342D01*
X118095576Y-65001189D01*
X118273240Y-64862906D01*
X118425722Y-64697268D01*
X118516193Y-64558790D01*
X118569338Y-64513437D01*
X118638569Y-64504013D01*
X118701905Y-64533515D01*
X118723804Y-64558787D01*
X118814278Y-64697268D01*
X118814283Y-64697273D01*
X118814284Y-64697276D01*
X118933355Y-64826619D01*
X118966760Y-64862906D01*
X119144424Y-65001189D01*
X119144425Y-65001189D01*
X119144427Y-65001191D01*
X119204314Y-65033600D01*
X119342426Y-65108342D01*
X119555365Y-65181444D01*
X119777431Y-65218500D01*
X120002569Y-65218500D01*
X120224635Y-65181444D01*
X120437574Y-65108342D01*
X120635576Y-65001189D01*
X120813240Y-64862906D01*
X120965722Y-64697268D01*
X121056193Y-64558790D01*
X121109338Y-64513437D01*
X121178569Y-64504013D01*
X121241905Y-64533515D01*
X121263804Y-64558787D01*
X121354278Y-64697268D01*
X121354283Y-64697273D01*
X121354284Y-64697276D01*
X121473355Y-64826619D01*
X121506760Y-64862906D01*
X121684424Y-65001189D01*
X121684425Y-65001189D01*
X121684427Y-65001191D01*
X121744314Y-65033600D01*
X121882426Y-65108342D01*
X122095365Y-65181444D01*
X122317431Y-65218500D01*
X122542569Y-65218500D01*
X122764635Y-65181444D01*
X122977574Y-65108342D01*
X123175576Y-65001189D01*
X123353240Y-64862906D01*
X123505722Y-64697268D01*
X123596193Y-64558790D01*
X123649338Y-64513437D01*
X123718569Y-64504013D01*
X123781905Y-64533515D01*
X123803804Y-64558787D01*
X123894278Y-64697268D01*
X123894283Y-64697273D01*
X123894284Y-64697276D01*
X124013355Y-64826619D01*
X124046760Y-64862906D01*
X124224424Y-65001189D01*
X124224425Y-65001189D01*
X124224427Y-65001191D01*
X124284314Y-65033600D01*
X124422426Y-65108342D01*
X124635365Y-65181444D01*
X124857431Y-65218500D01*
X125082569Y-65218500D01*
X125304635Y-65181444D01*
X125517574Y-65108342D01*
X125715576Y-65001189D01*
X125893240Y-64862906D01*
X126045722Y-64697268D01*
X126168860Y-64508791D01*
X126259296Y-64302616D01*
X126314564Y-64084368D01*
X126315398Y-64074304D01*
X126333156Y-63860005D01*
X126333156Y-63859994D01*
X126314565Y-63635640D01*
X126314563Y-63635628D01*
X126259296Y-63417385D01*
X126249071Y-63394075D01*
X126177101Y-63229998D01*
X147086502Y-63229998D01*
X147086502Y-63230001D01*
X147106456Y-63458081D01*
X147106457Y-63458089D01*
X147165714Y-63679238D01*
X147165718Y-63679249D01*
X147250001Y-63859994D01*
X147262477Y-63886749D01*
X147393802Y-64074300D01*
X147555700Y-64236198D01*
X147743251Y-64367523D01*
X147868091Y-64425736D01*
X147950750Y-64464281D01*
X147950752Y-64464281D01*
X147950757Y-64464284D01*
X148171913Y-64523543D01*
X148334832Y-64537796D01*
X148399998Y-64543498D01*
X148400000Y-64543498D01*
X148400002Y-64543498D01*
X148457021Y-64538509D01*
X148628087Y-64523543D01*
X148849243Y-64464284D01*
X149056749Y-64367523D01*
X149244300Y-64236198D01*
X149406198Y-64074300D01*
X149537523Y-63886749D01*
X149634284Y-63679243D01*
X149693543Y-63458087D01*
X149713498Y-63230000D01*
X149711447Y-63206562D01*
X149698625Y-63060000D01*
X149693543Y-63001913D01*
X149642119Y-62809998D01*
X154586502Y-62809998D01*
X154586502Y-62810001D01*
X154606456Y-63038081D01*
X154606457Y-63038089D01*
X154665714Y-63259238D01*
X154665718Y-63259249D01*
X154739458Y-63417384D01*
X154762477Y-63466749D01*
X154893802Y-63654300D01*
X155055700Y-63816198D01*
X155243251Y-63947523D01*
X155368091Y-64005736D01*
X155450750Y-64044281D01*
X155450752Y-64044281D01*
X155450757Y-64044284D01*
X155671913Y-64103543D01*
X155834832Y-64117796D01*
X155899998Y-64123498D01*
X155900000Y-64123498D01*
X155900002Y-64123498D01*
X155957021Y-64118509D01*
X156128087Y-64103543D01*
X156349243Y-64044284D01*
X156556749Y-63947523D01*
X156744300Y-63816198D01*
X156906198Y-63654300D01*
X157037523Y-63466749D01*
X157134284Y-63259243D01*
X157193543Y-63038087D01*
X157213498Y-62810000D01*
X157193543Y-62581913D01*
X157187671Y-62559999D01*
X164781127Y-62559999D01*
X164781128Y-62560000D01*
X165744314Y-62560000D01*
X165739920Y-62564394D01*
X165687259Y-62655606D01*
X165660000Y-62757339D01*
X165660000Y-62862661D01*
X165687259Y-62964394D01*
X165739920Y-63055606D01*
X165744314Y-63060000D01*
X164781128Y-63060000D01*
X164833730Y-63256317D01*
X164833734Y-63256326D01*
X164929865Y-63462482D01*
X165060342Y-63648820D01*
X165221179Y-63809657D01*
X165407517Y-63940134D01*
X165613673Y-64036265D01*
X165613682Y-64036269D01*
X165809999Y-64088872D01*
X165810000Y-64088871D01*
X165810000Y-63125686D01*
X165814394Y-63130080D01*
X165905606Y-63182741D01*
X166007339Y-63210000D01*
X166112661Y-63210000D01*
X166214394Y-63182741D01*
X166305606Y-63130080D01*
X166310000Y-63125686D01*
X166310000Y-64088872D01*
X166506317Y-64036269D01*
X166506326Y-64036265D01*
X166712482Y-63940134D01*
X166898820Y-63809657D01*
X167059657Y-63648820D01*
X167190134Y-63462482D01*
X167286265Y-63256326D01*
X167286269Y-63256317D01*
X167338872Y-63060000D01*
X166375686Y-63060000D01*
X166380080Y-63055606D01*
X166432741Y-62964394D01*
X166460000Y-62862661D01*
X166460000Y-62757339D01*
X166432741Y-62655606D01*
X166380080Y-62564394D01*
X166375686Y-62560000D01*
X167338872Y-62560000D01*
X167338872Y-62559999D01*
X167286269Y-62363682D01*
X167286265Y-62363673D01*
X167190134Y-62157517D01*
X167059657Y-61971179D01*
X166898820Y-61810342D01*
X166712482Y-61679865D01*
X166506328Y-61583734D01*
X166310000Y-61531127D01*
X166310000Y-62494314D01*
X166305606Y-62489920D01*
X166214394Y-62437259D01*
X166112661Y-62410000D01*
X166007339Y-62410000D01*
X165905606Y-62437259D01*
X165814394Y-62489920D01*
X165810000Y-62494314D01*
X165810000Y-61531127D01*
X165613671Y-61583734D01*
X165407517Y-61679865D01*
X165221179Y-61810342D01*
X165060342Y-61971179D01*
X164929865Y-62157517D01*
X164833734Y-62363673D01*
X164833730Y-62363682D01*
X164781127Y-62559999D01*
X157187671Y-62559999D01*
X157134284Y-62360757D01*
X157037523Y-62153251D01*
X156906198Y-61965700D01*
X156744300Y-61803802D01*
X156556749Y-61672477D01*
X156556745Y-61672475D01*
X156349249Y-61575718D01*
X156349238Y-61575714D01*
X156128089Y-61516457D01*
X156128081Y-61516456D01*
X155900002Y-61496502D01*
X155899998Y-61496502D01*
X155671918Y-61516456D01*
X155671910Y-61516457D01*
X155450761Y-61575714D01*
X155450750Y-61575718D01*
X155243254Y-61672475D01*
X155243252Y-61672476D01*
X155243251Y-61672477D01*
X155055700Y-61803802D01*
X155055698Y-61803803D01*
X155055695Y-61803806D01*
X154893806Y-61965695D01*
X154762476Y-62153252D01*
X154762475Y-62153254D01*
X154665718Y-62360750D01*
X154665714Y-62360761D01*
X154606457Y-62581910D01*
X154606456Y-62581918D01*
X154586502Y-62809998D01*
X149642119Y-62809998D01*
X149634284Y-62780757D01*
X149537523Y-62573251D01*
X149406198Y-62385700D01*
X149244300Y-62223802D01*
X149056749Y-62092477D01*
X149056745Y-62092475D01*
X148849249Y-61995718D01*
X148849238Y-61995714D01*
X148628089Y-61936457D01*
X148628081Y-61936456D01*
X148400002Y-61916502D01*
X148399998Y-61916502D01*
X148171918Y-61936456D01*
X148171910Y-61936457D01*
X147950761Y-61995714D01*
X147950750Y-61995718D01*
X147743254Y-62092475D01*
X147743252Y-62092476D01*
X147743251Y-62092477D01*
X147555700Y-62223802D01*
X147555698Y-62223803D01*
X147555695Y-62223806D01*
X147393806Y-62385695D01*
X147262476Y-62573252D01*
X147262475Y-62573254D01*
X147165718Y-62780750D01*
X147165714Y-62780761D01*
X147106457Y-63001910D01*
X147106456Y-63001918D01*
X147086502Y-63229998D01*
X126177101Y-63229998D01*
X126168860Y-63211209D01*
X126152706Y-63186484D01*
X126070070Y-63060000D01*
X126045722Y-63022732D01*
X126045719Y-63022729D01*
X126045715Y-63022723D01*
X125893243Y-62857097D01*
X125893238Y-62857092D01*
X125715577Y-62718812D01*
X125715572Y-62718808D01*
X125517580Y-62611661D01*
X125517577Y-62611659D01*
X125517574Y-62611658D01*
X125517571Y-62611657D01*
X125517569Y-62611656D01*
X125304637Y-62538556D01*
X125082569Y-62501500D01*
X124857431Y-62501500D01*
X124635362Y-62538556D01*
X124422430Y-62611656D01*
X124422419Y-62611661D01*
X124224427Y-62718808D01*
X124224422Y-62718812D01*
X124046761Y-62857092D01*
X124046756Y-62857097D01*
X123894284Y-63022723D01*
X123894276Y-63022734D01*
X123803808Y-63161206D01*
X123750662Y-63206562D01*
X123681431Y-63215986D01*
X123618095Y-63186484D01*
X123596192Y-63161206D01*
X123505723Y-63022734D01*
X123505715Y-63022723D01*
X123353243Y-62857097D01*
X123353238Y-62857092D01*
X123175577Y-62718812D01*
X123175572Y-62718808D01*
X122977580Y-62611661D01*
X122977577Y-62611659D01*
X122977574Y-62611658D01*
X122977571Y-62611657D01*
X122977569Y-62611656D01*
X122764637Y-62538556D01*
X122542569Y-62501500D01*
X122317431Y-62501500D01*
X122095362Y-62538556D01*
X121882430Y-62611656D01*
X121882419Y-62611661D01*
X121684427Y-62718808D01*
X121684422Y-62718812D01*
X121506761Y-62857092D01*
X121506756Y-62857097D01*
X121354284Y-63022723D01*
X121354276Y-63022734D01*
X121263808Y-63161206D01*
X121210662Y-63206562D01*
X121141431Y-63215986D01*
X121078095Y-63186484D01*
X121056192Y-63161206D01*
X120965723Y-63022734D01*
X120965715Y-63022723D01*
X120813243Y-62857097D01*
X120813238Y-62857092D01*
X120635577Y-62718812D01*
X120635572Y-62718808D01*
X120437580Y-62611661D01*
X120437577Y-62611659D01*
X120437574Y-62611658D01*
X120437571Y-62611657D01*
X120437569Y-62611656D01*
X120224637Y-62538556D01*
X120002569Y-62501500D01*
X119777431Y-62501500D01*
X119555362Y-62538556D01*
X119342430Y-62611656D01*
X119342419Y-62611661D01*
X119144427Y-62718808D01*
X119144422Y-62718812D01*
X118966761Y-62857092D01*
X118966756Y-62857097D01*
X118814284Y-63022723D01*
X118814276Y-63022734D01*
X118723808Y-63161206D01*
X118670662Y-63206562D01*
X118601431Y-63215986D01*
X118538095Y-63186484D01*
X118516192Y-63161206D01*
X118425723Y-63022734D01*
X118425715Y-63022723D01*
X118273243Y-62857097D01*
X118273238Y-62857092D01*
X118095577Y-62718812D01*
X118095572Y-62718808D01*
X117897580Y-62611661D01*
X117897577Y-62611659D01*
X117897574Y-62611658D01*
X117897571Y-62611657D01*
X117897569Y-62611656D01*
X117684637Y-62538556D01*
X117462569Y-62501500D01*
X117237431Y-62501500D01*
X117015362Y-62538556D01*
X116802430Y-62611656D01*
X116802419Y-62611661D01*
X116604427Y-62718808D01*
X116604422Y-62718812D01*
X116426761Y-62857092D01*
X116426756Y-62857097D01*
X116274284Y-63022723D01*
X116274276Y-63022734D01*
X116183808Y-63161206D01*
X116130662Y-63206562D01*
X116061431Y-63215986D01*
X115998095Y-63186484D01*
X115976192Y-63161206D01*
X115885723Y-63022734D01*
X115885715Y-63022723D01*
X115733243Y-62857097D01*
X115733238Y-62857092D01*
X115555577Y-62718812D01*
X115555572Y-62718808D01*
X115357580Y-62611661D01*
X115357577Y-62611659D01*
X115357574Y-62611658D01*
X115357571Y-62611657D01*
X115357569Y-62611656D01*
X115144637Y-62538556D01*
X114922569Y-62501500D01*
X114697431Y-62501500D01*
X114475362Y-62538556D01*
X114262430Y-62611656D01*
X114262419Y-62611661D01*
X114064427Y-62718808D01*
X114064422Y-62718812D01*
X113886761Y-62857092D01*
X113886756Y-62857097D01*
X113734284Y-63022723D01*
X113734276Y-63022734D01*
X113643808Y-63161206D01*
X113590662Y-63206562D01*
X113521431Y-63215986D01*
X113458095Y-63186484D01*
X113436192Y-63161206D01*
X113345723Y-63022734D01*
X113345715Y-63022723D01*
X113193243Y-62857097D01*
X113193238Y-62857092D01*
X113015577Y-62718812D01*
X113015572Y-62718808D01*
X112817580Y-62611661D01*
X112817577Y-62611659D01*
X112817574Y-62611658D01*
X112817571Y-62611657D01*
X112817569Y-62611656D01*
X112604637Y-62538556D01*
X112382569Y-62501500D01*
X112157431Y-62501500D01*
X111935362Y-62538556D01*
X111722430Y-62611656D01*
X111722419Y-62611661D01*
X111524427Y-62718808D01*
X111524422Y-62718812D01*
X111346761Y-62857092D01*
X111346756Y-62857097D01*
X111194284Y-63022723D01*
X111194276Y-63022734D01*
X111100251Y-63166650D01*
X111047105Y-63212007D01*
X110977873Y-63221430D01*
X110914538Y-63191928D01*
X110894868Y-63169951D01*
X110768113Y-62988926D01*
X110768108Y-62988920D01*
X110601082Y-62821894D01*
X110407578Y-62686399D01*
X110193492Y-62586570D01*
X110193486Y-62586567D01*
X109980000Y-62529364D01*
X109980000Y-63426988D01*
X109922993Y-63394075D01*
X109795826Y-63360000D01*
X109664174Y-63360000D01*
X109537007Y-63394075D01*
X109480000Y-63426988D01*
X109480000Y-62529364D01*
X109479999Y-62529364D01*
X109266513Y-62586567D01*
X109266507Y-62586570D01*
X109052422Y-62686399D01*
X109052420Y-62686400D01*
X108858926Y-62821886D01*
X108743084Y-62937728D01*
X108681761Y-62971212D01*
X108612069Y-62966228D01*
X108556136Y-62924356D01*
X108539223Y-62893384D01*
X108490889Y-62763796D01*
X108486055Y-62757339D01*
X108457214Y-62718812D01*
X108403261Y-62646739D01*
X108286204Y-62559111D01*
X108149203Y-62508011D01*
X108088654Y-62501500D01*
X108088638Y-62501500D01*
X106291362Y-62501500D01*
X106291345Y-62501500D01*
X106230797Y-62508011D01*
X106230795Y-62508011D01*
X106093795Y-62559111D01*
X105976739Y-62646739D01*
X105889111Y-62763795D01*
X105838011Y-62900795D01*
X105838011Y-62900797D01*
X105831500Y-62961345D01*
X100075500Y-62961345D01*
X100075500Y-58839994D01*
X130166673Y-58839994D01*
X130166673Y-58840005D01*
X130185948Y-59072622D01*
X130243251Y-59298907D01*
X130337015Y-59512668D01*
X130464686Y-59708084D01*
X130616354Y-59872838D01*
X130622780Y-59879818D01*
X130806983Y-60023190D01*
X130806985Y-60023191D01*
X130806988Y-60023193D01*
X130926331Y-60087777D01*
X131012273Y-60134287D01*
X131126914Y-60173643D01*
X131233045Y-60210079D01*
X131233047Y-60210079D01*
X131233049Y-60210080D01*
X131463288Y-60248500D01*
X131463289Y-60248500D01*
X131696711Y-60248500D01*
X131696712Y-60248500D01*
X131926951Y-60210080D01*
X132147727Y-60134287D01*
X132353017Y-60023190D01*
X132537220Y-59879818D01*
X132543646Y-59872837D01*
X132603531Y-59836845D01*
X132673369Y-59838944D01*
X132730986Y-59878466D01*
X132751059Y-59913485D01*
X132776645Y-59982086D01*
X132776649Y-59982093D01*
X132862809Y-60097187D01*
X132862812Y-60097190D01*
X132977906Y-60183350D01*
X132977913Y-60183354D01*
X133112620Y-60233596D01*
X133112627Y-60233598D01*
X133172155Y-60239999D01*
X133172172Y-60240000D01*
X133870000Y-60240000D01*
X133870000Y-59215277D01*
X133946306Y-59259333D01*
X134060756Y-59290000D01*
X134179244Y-59290000D01*
X134293694Y-59259333D01*
X134370000Y-59215277D01*
X134370000Y-60240000D01*
X135067828Y-60240000D01*
X135067844Y-60239999D01*
X135127372Y-60233598D01*
X135127379Y-60233596D01*
X135262086Y-60183354D01*
X135262093Y-60183350D01*
X135377187Y-60097190D01*
X135377190Y-60097187D01*
X135463350Y-59982093D01*
X135463354Y-59982086D01*
X135513596Y-59847379D01*
X135513598Y-59847372D01*
X135519999Y-59787844D01*
X135520000Y-59787827D01*
X135520000Y-59090000D01*
X134495278Y-59090000D01*
X134539333Y-59013694D01*
X134570000Y-58899244D01*
X134570000Y-58780756D01*
X134539333Y-58666306D01*
X134495278Y-58590000D01*
X135520000Y-58590000D01*
X135520000Y-57892172D01*
X135519999Y-57892155D01*
X135513598Y-57832627D01*
X135513596Y-57832620D01*
X135463354Y-57697913D01*
X135463350Y-57697906D01*
X135377190Y-57582812D01*
X135377187Y-57582809D01*
X135262093Y-57496649D01*
X135262086Y-57496645D01*
X135225727Y-57483084D01*
X142241500Y-57483084D01*
X142241500Y-57696915D01*
X142274951Y-57908117D01*
X142341026Y-58111480D01*
X142341027Y-58111483D01*
X142438106Y-58302009D01*
X142563794Y-58475004D01*
X142714996Y-58626206D01*
X142817344Y-58700566D01*
X142871182Y-58739682D01*
X142913847Y-58795012D01*
X142919826Y-58864626D01*
X142887220Y-58926421D01*
X142871182Y-58940318D01*
X142802297Y-58990365D01*
X142714996Y-59053794D01*
X142714994Y-59053796D01*
X142714993Y-59053796D01*
X142563796Y-59204993D01*
X142438106Y-59377990D01*
X142341027Y-59568516D01*
X142341026Y-59568519D01*
X142274951Y-59771882D01*
X142241500Y-59983084D01*
X142241500Y-60196915D01*
X142274951Y-60408117D01*
X142341026Y-60611480D01*
X142341027Y-60611483D01*
X142438106Y-60802009D01*
X142563794Y-60975004D01*
X142714996Y-61126206D01*
X142887991Y-61251894D01*
X142981438Y-61299507D01*
X143078516Y-61348972D01*
X143078519Y-61348973D01*
X143180200Y-61382010D01*
X143281884Y-61415049D01*
X143493084Y-61448500D01*
X143493085Y-61448500D01*
X143956915Y-61448500D01*
X143956916Y-61448500D01*
X144168116Y-61415049D01*
X144371483Y-61348972D01*
X144562009Y-61251894D01*
X144735004Y-61126206D01*
X144886206Y-60975004D01*
X145011894Y-60802009D01*
X145108972Y-60611483D01*
X145175049Y-60408116D01*
X145208500Y-60196916D01*
X145208500Y-59983084D01*
X145175049Y-59771884D01*
X145108972Y-59568517D01*
X145108972Y-59568516D01*
X145059507Y-59471438D01*
X145011894Y-59377991D01*
X144886206Y-59204996D01*
X144735004Y-59053794D01*
X144679811Y-59013694D01*
X144578818Y-58940318D01*
X144536152Y-58884988D01*
X144530173Y-58815375D01*
X144562779Y-58753580D01*
X144578818Y-58739682D01*
X144629200Y-58703076D01*
X144735004Y-58626206D01*
X144886206Y-58475004D01*
X145011894Y-58302009D01*
X145108972Y-58111483D01*
X145175049Y-57908116D01*
X145208500Y-57696916D01*
X145208500Y-57483084D01*
X145175049Y-57271884D01*
X145108972Y-57068517D01*
X145108972Y-57068516D01*
X145011893Y-56877990D01*
X144886206Y-56704996D01*
X144747929Y-56566719D01*
X144714444Y-56505396D01*
X144719428Y-56435704D01*
X144761300Y-56379771D01*
X144770513Y-56373499D01*
X144918345Y-56282315D01*
X145042315Y-56158345D01*
X145134356Y-56009124D01*
X145134358Y-56009119D01*
X145189505Y-55842697D01*
X145189506Y-55842690D01*
X145199999Y-55739986D01*
X145200000Y-55739973D01*
X145200000Y-55340000D01*
X144129146Y-55340000D01*
X144167630Y-55273343D01*
X144200000Y-55152535D01*
X144200000Y-55027465D01*
X144167630Y-54906657D01*
X144129146Y-54840000D01*
X145199999Y-54840000D01*
X145199999Y-54440028D01*
X145199998Y-54440013D01*
X145189505Y-54337302D01*
X145134358Y-54170880D01*
X145134356Y-54170875D01*
X145042315Y-54021654D01*
X144918345Y-53897684D01*
X144769124Y-53805643D01*
X144769119Y-53805641D01*
X144602697Y-53750494D01*
X144602690Y-53750493D01*
X144499986Y-53740000D01*
X143975000Y-53740000D01*
X143975000Y-54685854D01*
X143908343Y-54647370D01*
X143787535Y-54615000D01*
X143662465Y-54615000D01*
X143541657Y-54647370D01*
X143475000Y-54685854D01*
X143475000Y-53740000D01*
X142950028Y-53740000D01*
X142950012Y-53740001D01*
X142847302Y-53750494D01*
X142680880Y-53805641D01*
X142680875Y-53805643D01*
X142531654Y-53897684D01*
X142407684Y-54021654D01*
X142315643Y-54170875D01*
X142315641Y-54170880D01*
X142260494Y-54337302D01*
X142260493Y-54337309D01*
X142250000Y-54440013D01*
X142250000Y-54840000D01*
X143320854Y-54840000D01*
X143282370Y-54906657D01*
X143250000Y-55027465D01*
X143250000Y-55152535D01*
X143282370Y-55273343D01*
X143320854Y-55340000D01*
X142250001Y-55340000D01*
X142250001Y-55739986D01*
X142260494Y-55842697D01*
X142315641Y-56009119D01*
X142315643Y-56009124D01*
X142407684Y-56158345D01*
X142531654Y-56282315D01*
X142679486Y-56373499D01*
X142726210Y-56425447D01*
X142737433Y-56494410D01*
X142709589Y-56558492D01*
X142702071Y-56566719D01*
X142563793Y-56704997D01*
X142438106Y-56877990D01*
X142341027Y-57068516D01*
X142341026Y-57068519D01*
X142274951Y-57271882D01*
X142241500Y-57483084D01*
X135225727Y-57483084D01*
X135127379Y-57446403D01*
X135127372Y-57446401D01*
X135067844Y-57440000D01*
X134370000Y-57440000D01*
X134370000Y-58464722D01*
X134293694Y-58420667D01*
X134179244Y-58390000D01*
X134060756Y-58390000D01*
X133946306Y-58420667D01*
X133870000Y-58464722D01*
X133870000Y-57440000D01*
X133172155Y-57440000D01*
X133112627Y-57446401D01*
X133112620Y-57446403D01*
X132977913Y-57496645D01*
X132977906Y-57496649D01*
X132862812Y-57582809D01*
X132862809Y-57582812D01*
X132776649Y-57697906D01*
X132776645Y-57697913D01*
X132751059Y-57766514D01*
X132709188Y-57822448D01*
X132643723Y-57846865D01*
X132575450Y-57832013D01*
X132543649Y-57807165D01*
X132537224Y-57800186D01*
X132537222Y-57800184D01*
X132537220Y-57800182D01*
X132353017Y-57656810D01*
X132353015Y-57656809D01*
X132353014Y-57656808D01*
X132353011Y-57656806D01*
X132147733Y-57545716D01*
X132147730Y-57545715D01*
X132147727Y-57545713D01*
X132147721Y-57545711D01*
X132147719Y-57545710D01*
X131926954Y-57469920D01*
X131747650Y-57440000D01*
X131696712Y-57431500D01*
X131463288Y-57431500D01*
X131417240Y-57439184D01*
X131233045Y-57469920D01*
X131012280Y-57545710D01*
X131012266Y-57545716D01*
X130806988Y-57656806D01*
X130806985Y-57656808D01*
X130622781Y-57800181D01*
X130622776Y-57800185D01*
X130464686Y-57971915D01*
X130337015Y-58167331D01*
X130243251Y-58381092D01*
X130185948Y-58607377D01*
X130166673Y-58839994D01*
X100075500Y-58839994D01*
X100075500Y-53529998D01*
X126566502Y-53529998D01*
X126566502Y-53530001D01*
X126586456Y-53758081D01*
X126586457Y-53758089D01*
X126645714Y-53979238D01*
X126645718Y-53979249D01*
X126735075Y-54170875D01*
X126742477Y-54186749D01*
X126873802Y-54374300D01*
X127035700Y-54536198D01*
X127223251Y-54667523D01*
X127314140Y-54709905D01*
X127430750Y-54764281D01*
X127430752Y-54764281D01*
X127430757Y-54764284D01*
X127651913Y-54823543D01*
X127814832Y-54837796D01*
X127879998Y-54843498D01*
X127880000Y-54843498D01*
X127880002Y-54843498D01*
X127937021Y-54838509D01*
X128108087Y-54823543D01*
X128329243Y-54764284D01*
X128536749Y-54667523D01*
X128724300Y-54536198D01*
X128886198Y-54374300D01*
X129017523Y-54186749D01*
X129114284Y-53979243D01*
X129173543Y-53758087D01*
X129193498Y-53530000D01*
X129193498Y-53529998D01*
X136726502Y-53529998D01*
X136726502Y-53530001D01*
X136746456Y-53758081D01*
X136746457Y-53758089D01*
X136805714Y-53979238D01*
X136805718Y-53979249D01*
X136895075Y-54170875D01*
X136902477Y-54186749D01*
X137033802Y-54374300D01*
X137195700Y-54536198D01*
X137383251Y-54667523D01*
X137474140Y-54709905D01*
X137590750Y-54764281D01*
X137590752Y-54764281D01*
X137590757Y-54764284D01*
X137811913Y-54823543D01*
X137974832Y-54837796D01*
X138039998Y-54843498D01*
X138040000Y-54843498D01*
X138040002Y-54843498D01*
X138097021Y-54838509D01*
X138268087Y-54823543D01*
X138489243Y-54764284D01*
X138696749Y-54667523D01*
X138884300Y-54536198D01*
X139046198Y-54374300D01*
X139177523Y-54186749D01*
X139274284Y-53979243D01*
X139333543Y-53758087D01*
X139353498Y-53530000D01*
X139352557Y-53519249D01*
X139333543Y-53301918D01*
X139333543Y-53301913D01*
X139274284Y-53080757D01*
X139269268Y-53070001D01*
X139269267Y-53069998D01*
X147086502Y-53069998D01*
X147086502Y-53070001D01*
X147106456Y-53298081D01*
X147106457Y-53298089D01*
X147165714Y-53519238D01*
X147165718Y-53519249D01*
X147262475Y-53726745D01*
X147262477Y-53726749D01*
X147393802Y-53914300D01*
X147555700Y-54076198D01*
X147743251Y-54207523D01*
X147868091Y-54265736D01*
X147950750Y-54304281D01*
X147950752Y-54304281D01*
X147950757Y-54304284D01*
X148171913Y-54363543D01*
X148334832Y-54377796D01*
X148399998Y-54383498D01*
X148400000Y-54383498D01*
X148400002Y-54383498D01*
X148457021Y-54378509D01*
X148628087Y-54363543D01*
X148849243Y-54304284D01*
X149056749Y-54207523D01*
X149244300Y-54076198D01*
X149406198Y-53914300D01*
X149537523Y-53726749D01*
X149634284Y-53519243D01*
X149693543Y-53298087D01*
X149712557Y-53080757D01*
X149713498Y-53070001D01*
X149713498Y-53069998D01*
X149696285Y-52873254D01*
X149693543Y-52841913D01*
X149634284Y-52620757D01*
X149537523Y-52413251D01*
X149406198Y-52225700D01*
X149244300Y-52063802D01*
X149056749Y-51932477D01*
X149056745Y-51932475D01*
X148849249Y-51835718D01*
X148849238Y-51835714D01*
X148628089Y-51776457D01*
X148628081Y-51776456D01*
X148400002Y-51756502D01*
X148399998Y-51756502D01*
X148171918Y-51776456D01*
X148171910Y-51776457D01*
X147950761Y-51835714D01*
X147950750Y-51835718D01*
X147743254Y-51932475D01*
X147743252Y-51932476D01*
X147743251Y-51932477D01*
X147555700Y-52063802D01*
X147555698Y-52063803D01*
X147555695Y-52063806D01*
X147393806Y-52225695D01*
X147262476Y-52413252D01*
X147262475Y-52413254D01*
X147165718Y-52620750D01*
X147165714Y-52620761D01*
X147106457Y-52841910D01*
X147106456Y-52841918D01*
X147086502Y-53069998D01*
X139269267Y-53069998D01*
X139177524Y-52873254D01*
X139177523Y-52873252D01*
X139177523Y-52873251D01*
X139046198Y-52685700D01*
X138884300Y-52523802D01*
X138696749Y-52392477D01*
X138696745Y-52392475D01*
X138489249Y-52295718D01*
X138489238Y-52295714D01*
X138268089Y-52236457D01*
X138268081Y-52236456D01*
X138040002Y-52216502D01*
X138039998Y-52216502D01*
X137811918Y-52236456D01*
X137811910Y-52236457D01*
X137590761Y-52295714D01*
X137590750Y-52295718D01*
X137383254Y-52392475D01*
X137383252Y-52392476D01*
X137353581Y-52413252D01*
X137195700Y-52523802D01*
X137195698Y-52523803D01*
X137195695Y-52523806D01*
X137033806Y-52685695D01*
X136902476Y-52873252D01*
X136902475Y-52873254D01*
X136805718Y-53080750D01*
X136805714Y-53080761D01*
X136746457Y-53301910D01*
X136746456Y-53301918D01*
X136726502Y-53529998D01*
X129193498Y-53529998D01*
X129192557Y-53519249D01*
X129173543Y-53301918D01*
X129173543Y-53301913D01*
X129114284Y-53080757D01*
X129109268Y-53070001D01*
X129017524Y-52873254D01*
X129017523Y-52873252D01*
X129017523Y-52873251D01*
X128886198Y-52685700D01*
X128724300Y-52523802D01*
X128536749Y-52392477D01*
X128536745Y-52392475D01*
X128329249Y-52295718D01*
X128329238Y-52295714D01*
X128108089Y-52236457D01*
X128108081Y-52236456D01*
X127880002Y-52216502D01*
X127879998Y-52216502D01*
X127651918Y-52236456D01*
X127651910Y-52236457D01*
X127430761Y-52295714D01*
X127430750Y-52295718D01*
X127223254Y-52392475D01*
X127223252Y-52392476D01*
X127193581Y-52413252D01*
X127035700Y-52523802D01*
X127035698Y-52523803D01*
X127035695Y-52523806D01*
X126873806Y-52685695D01*
X126742476Y-52873252D01*
X126742475Y-52873254D01*
X126645718Y-53080750D01*
X126645714Y-53080761D01*
X126586457Y-53301910D01*
X126586456Y-53301918D01*
X126566502Y-53529998D01*
X100075500Y-53529998D01*
X100075500Y-48301345D01*
X117437500Y-48301345D01*
X117437500Y-50098654D01*
X117444011Y-50159202D01*
X117444011Y-50159204D01*
X117495111Y-50296204D01*
X117582739Y-50413261D01*
X117699796Y-50500889D01*
X117836799Y-50551989D01*
X117864050Y-50554918D01*
X117897345Y-50558499D01*
X117897362Y-50558500D01*
X119694638Y-50558500D01*
X119694654Y-50558499D01*
X119721692Y-50555591D01*
X119755201Y-50551989D01*
X119892204Y-50500889D01*
X120009261Y-50413261D01*
X120096889Y-50296204D01*
X120142138Y-50174887D01*
X120184009Y-50118956D01*
X120249474Y-50094539D01*
X120317746Y-50109391D01*
X120349545Y-50134236D01*
X120412760Y-50202906D01*
X120590424Y-50341189D01*
X120590425Y-50341189D01*
X120590427Y-50341191D01*
X120650314Y-50373600D01*
X120788426Y-50448342D01*
X121001365Y-50521444D01*
X121223431Y-50558500D01*
X121448569Y-50558500D01*
X121670635Y-50521444D01*
X121883574Y-50448342D01*
X122081576Y-50341189D01*
X122259240Y-50202906D01*
X122380594Y-50071082D01*
X122411715Y-50037276D01*
X122411715Y-50037275D01*
X122411722Y-50037268D01*
X122502193Y-49898790D01*
X122555338Y-49853437D01*
X122624569Y-49844013D01*
X122687905Y-49873515D01*
X122709804Y-49898787D01*
X122800278Y-50037268D01*
X122800283Y-50037273D01*
X122800284Y-50037276D01*
X122926968Y-50174889D01*
X122952760Y-50202906D01*
X123130424Y-50341189D01*
X123130425Y-50341189D01*
X123130427Y-50341191D01*
X123190314Y-50373600D01*
X123328426Y-50448342D01*
X123541365Y-50521444D01*
X123763431Y-50558500D01*
X123988569Y-50558500D01*
X124210635Y-50521444D01*
X124423574Y-50448342D01*
X124621576Y-50341189D01*
X124799240Y-50202906D01*
X124920594Y-50071082D01*
X124951715Y-50037276D01*
X124951715Y-50037275D01*
X124951722Y-50037268D01*
X125045749Y-49893347D01*
X125098894Y-49847994D01*
X125168125Y-49838570D01*
X125231461Y-49868072D01*
X125251130Y-49890048D01*
X125377890Y-50071078D01*
X125544917Y-50238105D01*
X125738421Y-50373600D01*
X125952507Y-50473429D01*
X125952516Y-50473433D01*
X126166000Y-50530634D01*
X126166000Y-49633012D01*
X126223007Y-49665925D01*
X126350174Y-49700000D01*
X126481826Y-49700000D01*
X126608993Y-49665925D01*
X126666000Y-49633012D01*
X126666000Y-50530633D01*
X126879483Y-50473433D01*
X126879492Y-50473429D01*
X127093578Y-50373600D01*
X127287082Y-50238105D01*
X127454105Y-50071082D01*
X127580868Y-49890048D01*
X127635445Y-49846423D01*
X127704944Y-49839231D01*
X127767298Y-49870753D01*
X127786251Y-49893350D01*
X127880276Y-50037265D01*
X127880284Y-50037276D01*
X128006968Y-50174889D01*
X128032760Y-50202906D01*
X128210424Y-50341189D01*
X128210425Y-50341189D01*
X128210427Y-50341191D01*
X128270314Y-50373600D01*
X128408426Y-50448342D01*
X128621365Y-50521444D01*
X128843431Y-50558500D01*
X129068569Y-50558500D01*
X129290635Y-50521444D01*
X129503574Y-50448342D01*
X129701576Y-50341189D01*
X129879240Y-50202906D01*
X130000594Y-50071082D01*
X130031715Y-50037276D01*
X130031715Y-50037275D01*
X130031722Y-50037268D01*
X130122193Y-49898790D01*
X130175338Y-49853437D01*
X130244569Y-49844013D01*
X130307905Y-49873515D01*
X130329804Y-49898787D01*
X130420278Y-50037268D01*
X130420283Y-50037273D01*
X130420284Y-50037276D01*
X130546968Y-50174889D01*
X130572760Y-50202906D01*
X130750424Y-50341189D01*
X130750425Y-50341189D01*
X130750427Y-50341191D01*
X130810314Y-50373600D01*
X130948426Y-50448342D01*
X131161365Y-50521444D01*
X131383431Y-50558500D01*
X131608569Y-50558500D01*
X131830635Y-50521444D01*
X132043574Y-50448342D01*
X132241576Y-50341189D01*
X132419240Y-50202906D01*
X132540594Y-50071082D01*
X132571715Y-50037276D01*
X132571715Y-50037275D01*
X132571722Y-50037268D01*
X132662193Y-49898790D01*
X132715338Y-49853437D01*
X132784569Y-49844013D01*
X132847905Y-49873515D01*
X132869804Y-49898787D01*
X132960278Y-50037268D01*
X132960283Y-50037273D01*
X132960284Y-50037276D01*
X133086968Y-50174889D01*
X133112760Y-50202906D01*
X133290424Y-50341189D01*
X133290425Y-50341189D01*
X133290427Y-50341191D01*
X133350314Y-50373600D01*
X133488426Y-50448342D01*
X133701365Y-50521444D01*
X133923431Y-50558500D01*
X134148569Y-50558500D01*
X134370635Y-50521444D01*
X134583574Y-50448342D01*
X134781576Y-50341189D01*
X134959240Y-50202906D01*
X135080594Y-50071082D01*
X135111715Y-50037276D01*
X135111715Y-50037275D01*
X135111722Y-50037268D01*
X135202193Y-49898790D01*
X135255338Y-49853437D01*
X135324569Y-49844013D01*
X135387905Y-49873515D01*
X135409804Y-49898787D01*
X135500278Y-50037268D01*
X135500283Y-50037273D01*
X135500284Y-50037276D01*
X135626968Y-50174889D01*
X135652760Y-50202906D01*
X135830424Y-50341189D01*
X135830425Y-50341189D01*
X135830427Y-50341191D01*
X135890314Y-50373600D01*
X136028426Y-50448342D01*
X136241365Y-50521444D01*
X136463431Y-50558500D01*
X136688569Y-50558500D01*
X136910635Y-50521444D01*
X137123574Y-50448342D01*
X137321576Y-50341189D01*
X137499240Y-50202906D01*
X137620594Y-50071082D01*
X137651715Y-50037276D01*
X137651715Y-50037275D01*
X137651722Y-50037268D01*
X137742193Y-49898790D01*
X137795338Y-49853437D01*
X137864569Y-49844013D01*
X137927905Y-49873515D01*
X137949804Y-49898787D01*
X138040278Y-50037268D01*
X138040283Y-50037273D01*
X138040284Y-50037276D01*
X138166968Y-50174889D01*
X138192760Y-50202906D01*
X138370424Y-50341189D01*
X138370425Y-50341189D01*
X138370427Y-50341191D01*
X138430314Y-50373600D01*
X138568426Y-50448342D01*
X138781365Y-50521444D01*
X139003431Y-50558500D01*
X139228569Y-50558500D01*
X139450635Y-50521444D01*
X139663574Y-50448342D01*
X139861576Y-50341189D01*
X140039240Y-50202906D01*
X140160594Y-50071082D01*
X140191715Y-50037276D01*
X140191715Y-50037275D01*
X140191722Y-50037268D01*
X140282193Y-49898790D01*
X140335338Y-49853437D01*
X140404569Y-49844013D01*
X140467905Y-49873515D01*
X140489804Y-49898787D01*
X140580278Y-50037268D01*
X140580283Y-50037273D01*
X140580284Y-50037276D01*
X140706968Y-50174889D01*
X140732760Y-50202906D01*
X140910424Y-50341189D01*
X140910425Y-50341189D01*
X140910427Y-50341191D01*
X140970314Y-50373600D01*
X141108426Y-50448342D01*
X141321365Y-50521444D01*
X141543431Y-50558500D01*
X141768569Y-50558500D01*
X141990635Y-50521444D01*
X142203574Y-50448342D01*
X142401576Y-50341189D01*
X142579240Y-50202906D01*
X142700594Y-50071082D01*
X142731715Y-50037276D01*
X142731717Y-50037273D01*
X142731722Y-50037268D01*
X142854860Y-49848791D01*
X142945296Y-49642616D01*
X143000564Y-49424368D01*
X143012309Y-49282635D01*
X143019156Y-49200005D01*
X143019156Y-49199994D01*
X143000565Y-48975640D01*
X143000563Y-48975628D01*
X142945296Y-48757385D01*
X142935071Y-48734075D01*
X142854860Y-48551209D01*
X142838706Y-48526484D01*
X142731723Y-48362734D01*
X142731715Y-48362723D01*
X142675212Y-48301345D01*
X144361500Y-48301345D01*
X144361500Y-50098654D01*
X144368011Y-50159202D01*
X144368011Y-50159204D01*
X144419111Y-50296204D01*
X144506739Y-50413261D01*
X144623796Y-50500889D01*
X144760799Y-50551989D01*
X144788050Y-50554918D01*
X144821345Y-50558499D01*
X144821362Y-50558500D01*
X146618638Y-50558500D01*
X146618654Y-50558499D01*
X146645692Y-50555591D01*
X146679201Y-50551989D01*
X146816204Y-50500889D01*
X146933261Y-50413261D01*
X147020889Y-50296204D01*
X147066138Y-50174887D01*
X147108009Y-50118956D01*
X147173474Y-50094539D01*
X147241746Y-50109391D01*
X147273545Y-50134236D01*
X147336760Y-50202906D01*
X147514424Y-50341189D01*
X147514425Y-50341189D01*
X147514427Y-50341191D01*
X147574314Y-50373600D01*
X147712426Y-50448342D01*
X147925365Y-50521444D01*
X148147431Y-50558500D01*
X148372569Y-50558500D01*
X148594635Y-50521444D01*
X148807574Y-50448342D01*
X149005576Y-50341189D01*
X149183240Y-50202906D01*
X149304594Y-50071082D01*
X149335715Y-50037276D01*
X149335715Y-50037275D01*
X149335722Y-50037268D01*
X149426193Y-49898790D01*
X149479338Y-49853437D01*
X149548569Y-49844013D01*
X149611905Y-49873515D01*
X149633804Y-49898787D01*
X149724278Y-50037268D01*
X149724283Y-50037273D01*
X149724284Y-50037276D01*
X149850968Y-50174889D01*
X149876760Y-50202906D01*
X150054424Y-50341189D01*
X150054425Y-50341189D01*
X150054427Y-50341191D01*
X150114314Y-50373600D01*
X150252426Y-50448342D01*
X150465365Y-50521444D01*
X150687431Y-50558500D01*
X150912569Y-50558500D01*
X151134635Y-50521444D01*
X151347574Y-50448342D01*
X151545576Y-50341189D01*
X151723240Y-50202906D01*
X151844594Y-50071082D01*
X151875715Y-50037276D01*
X151875715Y-50037275D01*
X151875722Y-50037268D01*
X151966193Y-49898790D01*
X152019338Y-49853437D01*
X152088569Y-49844013D01*
X152151905Y-49873515D01*
X152173804Y-49898787D01*
X152264278Y-50037268D01*
X152264283Y-50037273D01*
X152264284Y-50037276D01*
X152390968Y-50174889D01*
X152416760Y-50202906D01*
X152594424Y-50341189D01*
X152594425Y-50341189D01*
X152594427Y-50341191D01*
X152654314Y-50373600D01*
X152792426Y-50448342D01*
X153005365Y-50521444D01*
X153227431Y-50558500D01*
X153452569Y-50558500D01*
X153674635Y-50521444D01*
X153887574Y-50448342D01*
X154085576Y-50341189D01*
X154263240Y-50202906D01*
X154384594Y-50071082D01*
X154415715Y-50037276D01*
X154415715Y-50037275D01*
X154415722Y-50037268D01*
X154506193Y-49898790D01*
X154559338Y-49853437D01*
X154628569Y-49844013D01*
X154691905Y-49873515D01*
X154713804Y-49898787D01*
X154804278Y-50037268D01*
X154804283Y-50037273D01*
X154804284Y-50037276D01*
X154930968Y-50174889D01*
X154956760Y-50202906D01*
X155134424Y-50341189D01*
X155134425Y-50341189D01*
X155134427Y-50341191D01*
X155194314Y-50373600D01*
X155332426Y-50448342D01*
X155545365Y-50521444D01*
X155767431Y-50558500D01*
X155992569Y-50558500D01*
X156214635Y-50521444D01*
X156427574Y-50448342D01*
X156625576Y-50341189D01*
X156803240Y-50202906D01*
X156924594Y-50071082D01*
X156955715Y-50037276D01*
X156955715Y-50037275D01*
X156955722Y-50037268D01*
X157046193Y-49898790D01*
X157099338Y-49853437D01*
X157168569Y-49844013D01*
X157231905Y-49873515D01*
X157253804Y-49898787D01*
X157344278Y-50037268D01*
X157344283Y-50037273D01*
X157344284Y-50037276D01*
X157470968Y-50174889D01*
X157496760Y-50202906D01*
X157674424Y-50341189D01*
X157674425Y-50341189D01*
X157674427Y-50341191D01*
X157734314Y-50373600D01*
X157872426Y-50448342D01*
X158085365Y-50521444D01*
X158307431Y-50558500D01*
X158532569Y-50558500D01*
X158754635Y-50521444D01*
X158967574Y-50448342D01*
X159165576Y-50341189D01*
X159343240Y-50202906D01*
X159464594Y-50071082D01*
X159495715Y-50037276D01*
X159495715Y-50037275D01*
X159495722Y-50037268D01*
X159586193Y-49898790D01*
X159639338Y-49853437D01*
X159708569Y-49844013D01*
X159771905Y-49873515D01*
X159793804Y-49898787D01*
X159884278Y-50037268D01*
X159884283Y-50037273D01*
X159884284Y-50037276D01*
X160010968Y-50174889D01*
X160036760Y-50202906D01*
X160214424Y-50341189D01*
X160214425Y-50341189D01*
X160214427Y-50341191D01*
X160274314Y-50373600D01*
X160412426Y-50448342D01*
X160625365Y-50521444D01*
X160847431Y-50558500D01*
X161072569Y-50558500D01*
X161294635Y-50521444D01*
X161507574Y-50448342D01*
X161705576Y-50341189D01*
X161883240Y-50202906D01*
X162004594Y-50071082D01*
X162035715Y-50037276D01*
X162035715Y-50037275D01*
X162035722Y-50037268D01*
X162126193Y-49898790D01*
X162179338Y-49853437D01*
X162248569Y-49844013D01*
X162311905Y-49873515D01*
X162333804Y-49898787D01*
X162424278Y-50037268D01*
X162424283Y-50037273D01*
X162424284Y-50037276D01*
X162550968Y-50174889D01*
X162576760Y-50202906D01*
X162754424Y-50341189D01*
X162754425Y-50341189D01*
X162754427Y-50341191D01*
X162814314Y-50373600D01*
X162952426Y-50448342D01*
X163165365Y-50521444D01*
X163387431Y-50558500D01*
X163612569Y-50558500D01*
X163834635Y-50521444D01*
X164047574Y-50448342D01*
X164245576Y-50341189D01*
X164423240Y-50202906D01*
X164544594Y-50071082D01*
X164575715Y-50037276D01*
X164575717Y-50037273D01*
X164575722Y-50037268D01*
X164698860Y-49848791D01*
X164789296Y-49642616D01*
X164844564Y-49424368D01*
X164856309Y-49282635D01*
X164863156Y-49200005D01*
X164863156Y-49199994D01*
X164844565Y-48975640D01*
X164844563Y-48975628D01*
X164789296Y-48757385D01*
X164779071Y-48734075D01*
X164698860Y-48551209D01*
X164682706Y-48526484D01*
X164575723Y-48362734D01*
X164575715Y-48362723D01*
X164423243Y-48197097D01*
X164423238Y-48197092D01*
X164245577Y-48058812D01*
X164245572Y-48058808D01*
X164047580Y-47951661D01*
X164047577Y-47951659D01*
X164047574Y-47951658D01*
X164047571Y-47951657D01*
X164047569Y-47951656D01*
X163834637Y-47878556D01*
X163612569Y-47841500D01*
X163387431Y-47841500D01*
X163165362Y-47878556D01*
X162952430Y-47951656D01*
X162952419Y-47951661D01*
X162754427Y-48058808D01*
X162754422Y-48058812D01*
X162576761Y-48197092D01*
X162576756Y-48197097D01*
X162424284Y-48362723D01*
X162424276Y-48362734D01*
X162333808Y-48501206D01*
X162280662Y-48546562D01*
X162211431Y-48555986D01*
X162148095Y-48526484D01*
X162126192Y-48501206D01*
X162035723Y-48362734D01*
X162035715Y-48362723D01*
X161883243Y-48197097D01*
X161883238Y-48197092D01*
X161705577Y-48058812D01*
X161705572Y-48058808D01*
X161507580Y-47951661D01*
X161507577Y-47951659D01*
X161507574Y-47951658D01*
X161507571Y-47951657D01*
X161507569Y-47951656D01*
X161294637Y-47878556D01*
X161072569Y-47841500D01*
X160847431Y-47841500D01*
X160625362Y-47878556D01*
X160412430Y-47951656D01*
X160412419Y-47951661D01*
X160214427Y-48058808D01*
X160214422Y-48058812D01*
X160036761Y-48197092D01*
X160036756Y-48197097D01*
X159884284Y-48362723D01*
X159884276Y-48362734D01*
X159793808Y-48501206D01*
X159740662Y-48546562D01*
X159671431Y-48555986D01*
X159608095Y-48526484D01*
X159586192Y-48501206D01*
X159495723Y-48362734D01*
X159495715Y-48362723D01*
X159343243Y-48197097D01*
X159343238Y-48197092D01*
X159165577Y-48058812D01*
X159165572Y-48058808D01*
X158967580Y-47951661D01*
X158967577Y-47951659D01*
X158967574Y-47951658D01*
X158967571Y-47951657D01*
X158967569Y-47951656D01*
X158754637Y-47878556D01*
X158532569Y-47841500D01*
X158307431Y-47841500D01*
X158085362Y-47878556D01*
X157872430Y-47951656D01*
X157872419Y-47951661D01*
X157674427Y-48058808D01*
X157674422Y-48058812D01*
X157496761Y-48197092D01*
X157496756Y-48197097D01*
X157344284Y-48362723D01*
X157344276Y-48362734D01*
X157253808Y-48501206D01*
X157200662Y-48546562D01*
X157131431Y-48555986D01*
X157068095Y-48526484D01*
X157046192Y-48501206D01*
X156955723Y-48362734D01*
X156955715Y-48362723D01*
X156803243Y-48197097D01*
X156803238Y-48197092D01*
X156625577Y-48058812D01*
X156625572Y-48058808D01*
X156427580Y-47951661D01*
X156427577Y-47951659D01*
X156427574Y-47951658D01*
X156427571Y-47951657D01*
X156427569Y-47951656D01*
X156214637Y-47878556D01*
X155992569Y-47841500D01*
X155767431Y-47841500D01*
X155545362Y-47878556D01*
X155332430Y-47951656D01*
X155332419Y-47951661D01*
X155134427Y-48058808D01*
X155134422Y-48058812D01*
X154956761Y-48197092D01*
X154956756Y-48197097D01*
X154804284Y-48362723D01*
X154804276Y-48362734D01*
X154713808Y-48501206D01*
X154660662Y-48546562D01*
X154591431Y-48555986D01*
X154528095Y-48526484D01*
X154506192Y-48501206D01*
X154415723Y-48362734D01*
X154415715Y-48362723D01*
X154263243Y-48197097D01*
X154263238Y-48197092D01*
X154085577Y-48058812D01*
X154085572Y-48058808D01*
X153887580Y-47951661D01*
X153887577Y-47951659D01*
X153887574Y-47951658D01*
X153887571Y-47951657D01*
X153887569Y-47951656D01*
X153674637Y-47878556D01*
X153452569Y-47841500D01*
X153227431Y-47841500D01*
X153005362Y-47878556D01*
X152792430Y-47951656D01*
X152792419Y-47951661D01*
X152594427Y-48058808D01*
X152594422Y-48058812D01*
X152416761Y-48197092D01*
X152416756Y-48197097D01*
X152264284Y-48362723D01*
X152264276Y-48362734D01*
X152173808Y-48501206D01*
X152120662Y-48546562D01*
X152051431Y-48555986D01*
X151988095Y-48526484D01*
X151966192Y-48501206D01*
X151875723Y-48362734D01*
X151875715Y-48362723D01*
X151723243Y-48197097D01*
X151723238Y-48197092D01*
X151545577Y-48058812D01*
X151545572Y-48058808D01*
X151347580Y-47951661D01*
X151347577Y-47951659D01*
X151347574Y-47951658D01*
X151347571Y-47951657D01*
X151347569Y-47951656D01*
X151134637Y-47878556D01*
X150912569Y-47841500D01*
X150687431Y-47841500D01*
X150465362Y-47878556D01*
X150252430Y-47951656D01*
X150252419Y-47951661D01*
X150054427Y-48058808D01*
X150054422Y-48058812D01*
X149876761Y-48197092D01*
X149876756Y-48197097D01*
X149724284Y-48362723D01*
X149724276Y-48362734D01*
X149633808Y-48501206D01*
X149580662Y-48546562D01*
X149511431Y-48555986D01*
X149448095Y-48526484D01*
X149426192Y-48501206D01*
X149335723Y-48362734D01*
X149335715Y-48362723D01*
X149183243Y-48197097D01*
X149183238Y-48197092D01*
X149005577Y-48058812D01*
X149005572Y-48058808D01*
X148807580Y-47951661D01*
X148807577Y-47951659D01*
X148807574Y-47951658D01*
X148807571Y-47951657D01*
X148807569Y-47951656D01*
X148594637Y-47878556D01*
X148372569Y-47841500D01*
X148147431Y-47841500D01*
X147925362Y-47878556D01*
X147712430Y-47951656D01*
X147712419Y-47951661D01*
X147514427Y-48058808D01*
X147514422Y-48058812D01*
X147336761Y-48197092D01*
X147273548Y-48265760D01*
X147213661Y-48301750D01*
X147143823Y-48299649D01*
X147086207Y-48260124D01*
X147066138Y-48225110D01*
X147020889Y-48103796D01*
X146987214Y-48058812D01*
X146933261Y-47986739D01*
X146816204Y-47899111D01*
X146679203Y-47848011D01*
X146618654Y-47841500D01*
X146618638Y-47841500D01*
X144821362Y-47841500D01*
X144821345Y-47841500D01*
X144760797Y-47848011D01*
X144760795Y-47848011D01*
X144623795Y-47899111D01*
X144506739Y-47986739D01*
X144419111Y-48103795D01*
X144368011Y-48240795D01*
X144368011Y-48240797D01*
X144361500Y-48301345D01*
X142675212Y-48301345D01*
X142579243Y-48197097D01*
X142579238Y-48197092D01*
X142401577Y-48058812D01*
X142401572Y-48058808D01*
X142203580Y-47951661D01*
X142203577Y-47951659D01*
X142203574Y-47951658D01*
X142203571Y-47951657D01*
X142203569Y-47951656D01*
X141990637Y-47878556D01*
X141768569Y-47841500D01*
X141543431Y-47841500D01*
X141321362Y-47878556D01*
X141108430Y-47951656D01*
X141108419Y-47951661D01*
X140910427Y-48058808D01*
X140910422Y-48058812D01*
X140732761Y-48197092D01*
X140732756Y-48197097D01*
X140580284Y-48362723D01*
X140580276Y-48362734D01*
X140489808Y-48501206D01*
X140436662Y-48546562D01*
X140367431Y-48555986D01*
X140304095Y-48526484D01*
X140282192Y-48501206D01*
X140191723Y-48362734D01*
X140191715Y-48362723D01*
X140039243Y-48197097D01*
X140039238Y-48197092D01*
X139861577Y-48058812D01*
X139861572Y-48058808D01*
X139663580Y-47951661D01*
X139663577Y-47951659D01*
X139663574Y-47951658D01*
X139663571Y-47951657D01*
X139663569Y-47951656D01*
X139450637Y-47878556D01*
X139228569Y-47841500D01*
X139003431Y-47841500D01*
X138781362Y-47878556D01*
X138568430Y-47951656D01*
X138568419Y-47951661D01*
X138370427Y-48058808D01*
X138370422Y-48058812D01*
X138192761Y-48197092D01*
X138192756Y-48197097D01*
X138040284Y-48362723D01*
X138040276Y-48362734D01*
X137949808Y-48501206D01*
X137896662Y-48546562D01*
X137827431Y-48555986D01*
X137764095Y-48526484D01*
X137742192Y-48501206D01*
X137651723Y-48362734D01*
X137651715Y-48362723D01*
X137499243Y-48197097D01*
X137499238Y-48197092D01*
X137321577Y-48058812D01*
X137321572Y-48058808D01*
X137123580Y-47951661D01*
X137123577Y-47951659D01*
X137123574Y-47951658D01*
X137123571Y-47951657D01*
X137123569Y-47951656D01*
X136910637Y-47878556D01*
X136688569Y-47841500D01*
X136463431Y-47841500D01*
X136241362Y-47878556D01*
X136028430Y-47951656D01*
X136028419Y-47951661D01*
X135830427Y-48058808D01*
X135830422Y-48058812D01*
X135652761Y-48197092D01*
X135652756Y-48197097D01*
X135500284Y-48362723D01*
X135500276Y-48362734D01*
X135409808Y-48501206D01*
X135356662Y-48546562D01*
X135287431Y-48555986D01*
X135224095Y-48526484D01*
X135202192Y-48501206D01*
X135111723Y-48362734D01*
X135111715Y-48362723D01*
X134959243Y-48197097D01*
X134959238Y-48197092D01*
X134781577Y-48058812D01*
X134781572Y-48058808D01*
X134583580Y-47951661D01*
X134583577Y-47951659D01*
X134583574Y-47951658D01*
X134583571Y-47951657D01*
X134583569Y-47951656D01*
X134370637Y-47878556D01*
X134148569Y-47841500D01*
X133923431Y-47841500D01*
X133701362Y-47878556D01*
X133488430Y-47951656D01*
X133488419Y-47951661D01*
X133290427Y-48058808D01*
X133290422Y-48058812D01*
X133112761Y-48197092D01*
X133112756Y-48197097D01*
X132960284Y-48362723D01*
X132960276Y-48362734D01*
X132869808Y-48501206D01*
X132816662Y-48546562D01*
X132747431Y-48555986D01*
X132684095Y-48526484D01*
X132662192Y-48501206D01*
X132571723Y-48362734D01*
X132571715Y-48362723D01*
X132419243Y-48197097D01*
X132419238Y-48197092D01*
X132241577Y-48058812D01*
X132241572Y-48058808D01*
X132043580Y-47951661D01*
X132043577Y-47951659D01*
X132043574Y-47951658D01*
X132043571Y-47951657D01*
X132043569Y-47951656D01*
X131830637Y-47878556D01*
X131608569Y-47841500D01*
X131383431Y-47841500D01*
X131161362Y-47878556D01*
X130948430Y-47951656D01*
X130948419Y-47951661D01*
X130750427Y-48058808D01*
X130750422Y-48058812D01*
X130572761Y-48197092D01*
X130572756Y-48197097D01*
X130420284Y-48362723D01*
X130420276Y-48362734D01*
X130329808Y-48501206D01*
X130276662Y-48546562D01*
X130207431Y-48555986D01*
X130144095Y-48526484D01*
X130122192Y-48501206D01*
X130031723Y-48362734D01*
X130031715Y-48362723D01*
X129879243Y-48197097D01*
X129879238Y-48197092D01*
X129701577Y-48058812D01*
X129701572Y-48058808D01*
X129503580Y-47951661D01*
X129503577Y-47951659D01*
X129503574Y-47951658D01*
X129503571Y-47951657D01*
X129503569Y-47951656D01*
X129290637Y-47878556D01*
X129068569Y-47841500D01*
X128843431Y-47841500D01*
X128621362Y-47878556D01*
X128408430Y-47951656D01*
X128408419Y-47951661D01*
X128210427Y-48058808D01*
X128210422Y-48058812D01*
X128032761Y-48197092D01*
X128032756Y-48197097D01*
X127880284Y-48362723D01*
X127880276Y-48362734D01*
X127786251Y-48506650D01*
X127733105Y-48552007D01*
X127663873Y-48561430D01*
X127600538Y-48531928D01*
X127580868Y-48509951D01*
X127454113Y-48328926D01*
X127454108Y-48328920D01*
X127287082Y-48161894D01*
X127093578Y-48026399D01*
X126879492Y-47926570D01*
X126879486Y-47926567D01*
X126666000Y-47869364D01*
X126666000Y-48766988D01*
X126608993Y-48734075D01*
X126481826Y-48700000D01*
X126350174Y-48700000D01*
X126223007Y-48734075D01*
X126166000Y-48766988D01*
X126166000Y-47869364D01*
X126165999Y-47869364D01*
X125952513Y-47926567D01*
X125952507Y-47926570D01*
X125738422Y-48026399D01*
X125738420Y-48026400D01*
X125544926Y-48161886D01*
X125544920Y-48161891D01*
X125377891Y-48328920D01*
X125377890Y-48328922D01*
X125251131Y-48509952D01*
X125196554Y-48553577D01*
X125127055Y-48560769D01*
X125064701Y-48529247D01*
X125045752Y-48506656D01*
X124951722Y-48362732D01*
X124951715Y-48362725D01*
X124951715Y-48362723D01*
X124799243Y-48197097D01*
X124799238Y-48197092D01*
X124621577Y-48058812D01*
X124621572Y-48058808D01*
X124423580Y-47951661D01*
X124423577Y-47951659D01*
X124423574Y-47951658D01*
X124423571Y-47951657D01*
X124423569Y-47951656D01*
X124210637Y-47878556D01*
X123988569Y-47841500D01*
X123763431Y-47841500D01*
X123541362Y-47878556D01*
X123328430Y-47951656D01*
X123328419Y-47951661D01*
X123130427Y-48058808D01*
X123130422Y-48058812D01*
X122952761Y-48197092D01*
X122952756Y-48197097D01*
X122800284Y-48362723D01*
X122800276Y-48362734D01*
X122709808Y-48501206D01*
X122656662Y-48546562D01*
X122587431Y-48555986D01*
X122524095Y-48526484D01*
X122502192Y-48501206D01*
X122411723Y-48362734D01*
X122411715Y-48362723D01*
X122259243Y-48197097D01*
X122259238Y-48197092D01*
X122081577Y-48058812D01*
X122081572Y-48058808D01*
X121883580Y-47951661D01*
X121883577Y-47951659D01*
X121883574Y-47951658D01*
X121883571Y-47951657D01*
X121883569Y-47951656D01*
X121670637Y-47878556D01*
X121448569Y-47841500D01*
X121223431Y-47841500D01*
X121001362Y-47878556D01*
X120788430Y-47951656D01*
X120788419Y-47951661D01*
X120590427Y-48058808D01*
X120590422Y-48058812D01*
X120412761Y-48197092D01*
X120349548Y-48265760D01*
X120289661Y-48301750D01*
X120219823Y-48299649D01*
X120162207Y-48260124D01*
X120142138Y-48225110D01*
X120096889Y-48103796D01*
X120063214Y-48058812D01*
X120009261Y-47986739D01*
X119892204Y-47899111D01*
X119755203Y-47848011D01*
X119694654Y-47841500D01*
X119694638Y-47841500D01*
X117897362Y-47841500D01*
X117897345Y-47841500D01*
X117836797Y-47848011D01*
X117836795Y-47848011D01*
X117699795Y-47899111D01*
X117582739Y-47986739D01*
X117495111Y-48103795D01*
X117444011Y-48240795D01*
X117444011Y-48240797D01*
X117437500Y-48301345D01*
X100075500Y-48301345D01*
X100075500Y-47428092D01*
X100076097Y-47415938D01*
X100087494Y-47300222D01*
X100092234Y-47276389D01*
X100124216Y-47170959D01*
X100133508Y-47148526D01*
X100185442Y-47051365D01*
X100198938Y-47031166D01*
X100268827Y-46946006D01*
X100286006Y-46928827D01*
X100371166Y-46858938D01*
X100391365Y-46845442D01*
X100488526Y-46793508D01*
X100510959Y-46784216D01*
X100616389Y-46752234D01*
X100640220Y-46747494D01*
X100755939Y-46736097D01*
X100768093Y-46735500D01*
X100786531Y-46735500D01*
X163417365Y-46735500D01*
X163484404Y-46755185D01*
G37*
%TD.AperFunction*%
%TD*%
M02*
