%TF.GenerationSoftware,KiCad,Pcbnew,10.0.3*%
%TF.CreationDate,2026-06-19T01:48:56-06:00*%
%TF.ProjectId,2026_ESP32_FPAA_v2,32303236-5f45-4535-9033-325f46504141,rev?*%
%TF.SameCoordinates,Original*%
%TF.FileFunction,Copper,L4,Bot*%
%TF.FilePolarity,Positive*%
%FSLAX46Y46*%
G04 Gerber Fmt 4.6, Leading zero omitted, Abs format (unit mm)*
G04 Created by KiCad (PCBNEW 10.0.3) date 2026-06-19 01:48:56*
%MOMM*%
%LPD*%
G01*
G04 APERTURE LIST*
%TA.AperFunction,ComponentPad*%
%ADD10R,1.700000X1.700000*%
%TD*%
%TA.AperFunction,ComponentPad*%
%ADD11O,1.700000X1.700000*%
%TD*%
%TA.AperFunction,ComponentPad*%
%ADD12O,2.100000X1.000000*%
%TD*%
%TA.AperFunction,ComponentPad*%
%ADD13O,1.600000X1.000000*%
%TD*%
%TA.AperFunction,ComponentPad*%
%ADD14C,1.700000*%
%TD*%
%TA.AperFunction,ViaPad*%
%ADD15C,0.600000*%
%TD*%
%TA.AperFunction,Conductor*%
%ADD16C,0.200000*%
%TD*%
%TA.AperFunction,Conductor*%
%ADD17C,0.203200*%
%TD*%
%TA.AperFunction,Conductor*%
%ADD18C,0.508000*%
%TD*%
G04 APERTURE END LIST*
D10*
%TO.P,J1,1,Pin_1_1*%
%TO.N,/AN_IO5P*%
X127940000Y-97460000D03*
D11*
%TO.P,J1,2,Pin_2_2*%
%TO.N,/AN_IO5N*%
X130480000Y-97460000D03*
%TO.P,J1,3,Pin_3_3*%
%TO.N,/AN_IO6P*%
X133020000Y-97460000D03*
%TO.P,J1,4,Pin_4_4*%
%TO.N,/AN_IO6N*%
X135560000Y-97460000D03*
%TO.P,J1,5,Pin_5_5*%
%TO.N,/AN_IO7P*%
X138100000Y-97460000D03*
%TO.P,J1,6,Pin_6_6*%
%TO.N,/AN_IO7N*%
X140640000Y-97460000D03*
%TO.P,J1,7,Pin_7_7*%
%TO.N,/OP_S5*%
X143180000Y-97460000D03*
%TO.P,J1,8,Pin_8_8*%
%TO.N,/OP_S6*%
X145720000Y-97460000D03*
%TD*%
D10*
%TO.P,J3,1,Pin_1_1*%
%TO.N,+5V*%
X150800000Y-97460000D03*
D11*
%TO.P,J3,2,Pin_2_2*%
%TO.N,GND*%
X153340000Y-97460000D03*
%TO.P,J3,3,Pin_3_3*%
%TO.N,/RX*%
X155880000Y-97460000D03*
%TO.P,J3,4,Pin_4_4*%
%TO.N,/TX*%
X158420000Y-97460000D03*
%TO.P,J3,5,Pin_5_5*%
%TO.N,/A0*%
X160960000Y-97460000D03*
%TO.P,J3,6,Pin_6_6*%
%TO.N,/A1*%
X163500000Y-97460000D03*
%TD*%
D10*
%TO.P,J2,1,Pin_1_1*%
%TO.N,/AN_I4P*%
X118796000Y-49200000D03*
D11*
%TO.P,J2,2,Pin_2_2*%
%TO.N,/AN_I4N*%
X121336000Y-49200000D03*
%TO.P,J2,3,Pin_3_3*%
%TO.N,/AN_O4N*%
X123876000Y-49200000D03*
%TO.P,J2,4,Pin_4_4*%
%TO.N,/AN_O4P*%
X126416000Y-49200000D03*
%TO.P,J2,5,Pin_5_5*%
%TO.N,/AN_O3P*%
X128956000Y-49200000D03*
%TO.P,J2,6,Pin_6_6*%
%TO.N,/AN_O3N*%
X131496000Y-49200000D03*
%TO.P,J2,7,Pin_7_7*%
%TO.N,/AN_I3N*%
X134036000Y-49200000D03*
%TO.P,J2,8,Pin_8_8*%
%TO.N,/AN_I3P*%
X136576000Y-49200000D03*
%TO.P,J2,9,Pin_9_9*%
%TO.N,/AN_I2P*%
X139116000Y-49200000D03*
%TO.P,J2,10,Pin_10_10*%
%TO.N,/AN_I2N*%
X141656000Y-49200000D03*
%TD*%
D10*
%TO.P,J4,1,Pin_1_1*%
%TO.N,/AN_O2N*%
X145720000Y-49200000D03*
D11*
%TO.P,J4,2,Pin_2_2*%
%TO.N,/AN_O2P*%
X148260000Y-49200000D03*
%TO.P,J4,3,Pin_3_3*%
%TO.N,/RA_S2*%
X150800000Y-49200000D03*
%TO.P,J4,4,Pin_4_4*%
%TO.N,/AN_O1P*%
X153340000Y-49200000D03*
%TO.P,J4,5,Pin_5_5*%
%TO.N,/AN_O1N*%
X155880000Y-49200000D03*
%TO.P,J4,6,Pin_6_6*%
%TO.N,/AN_I1N*%
X158420000Y-49200000D03*
%TO.P,J4,7,Pin_7_7*%
%TO.N,/AN_I1P*%
X160960000Y-49200000D03*
%TO.P,J4,8,Pin_8_8*%
%TO.N,/RA_S1*%
X163500000Y-49200000D03*
%TD*%
D12*
%TO.P,J5,SH,SHIELD_SH*%
%TO.N,GND*%
X107067400Y-70737200D03*
D13*
X102887400Y-70737200D03*
D12*
X107067400Y-79377200D03*
D13*
X102887400Y-79377200D03*
%TD*%
D10*
%TO.P,J6,1,Pin_1_1*%
%TO.N,+3V3*%
X110972800Y-49149200D03*
D14*
%TO.P,J6,2,Pin_2_2*%
X108432800Y-49149200D03*
%TO.P,J6,3,Pin_3_3*%
%TO.N,GND*%
X105892800Y-49149200D03*
%TO.P,J6,4,Pin_4_4*%
X103352800Y-49149200D03*
%TD*%
D10*
%TO.P,J7,1,Pin_1_1*%
%TO.N,GND*%
X113462000Y-81529200D03*
D14*
%TO.P,J7,2,Pin_2_2*%
%TO.N,-3V3*%
X113462000Y-84069200D03*
%TD*%
D15*
%TO.N,/AN_IO5P*%
X116179800Y-79324400D03*
X126263600Y-78918000D03*
X119431000Y-61696800D03*
%TO.N,/AN_IO5N*%
X117170400Y-76301800D03*
X122961600Y-83667800D03*
X119456400Y-62611200D03*
%TO.N,/AN_IO6P*%
X118389600Y-78257600D03*
X134594800Y-77267000D03*
X119481800Y-63576400D03*
%TO.N,/AN_IO6N*%
X119532600Y-64668600D03*
X138531800Y-84937800D03*
X119558000Y-76505000D03*
%TO.N,/AN_IO7P*%
X120878800Y-78587800D03*
X119608800Y-65659200D03*
%TO.N,/AN_IO7N*%
X120447000Y-66294200D03*
X121844000Y-76327200D03*
%TO.N,+5V*%
X106477000Y-66954600D03*
%TO.N,GND*%
X113081000Y-60757000D03*
X113817600Y-94208800D03*
X152882800Y-74879400D03*
X105054600Y-83185200D03*
X158369200Y-90932200D03*
X161442600Y-76251000D03*
X161442600Y-78791000D03*
X161391800Y-82220000D03*
X144805600Y-87782600D03*
X123876000Y-62128600D03*
X161950600Y-58979000D03*
X127914600Y-62128600D03*
X107467600Y-86055400D03*
X111049000Y-93904000D03*
X141478200Y-81483400D03*
X127838400Y-66141800D03*
X133350200Y-66624400D03*
X106858000Y-63170000D03*
X122845400Y-72868900D03*
X161417200Y-80518200D03*
X149479200Y-85572800D03*
X112903200Y-66954600D03*
X102108200Y-88824000D03*
X125958800Y-64033600D03*
X155448200Y-77013000D03*
X147320200Y-91262400D03*
X132766000Y-78054400D03*
X126071200Y-72868900D03*
X131699200Y-89281200D03*
X155295800Y-69012000D03*
X151612800Y-84556800D03*
X161417200Y-83896400D03*
X150266600Y-88646200D03*
X134375566Y-68731160D03*
X104953000Y-93675400D03*
X160680600Y-63881200D03*
X160528200Y-73736400D03*
X159664600Y-85623600D03*
X161417200Y-77114600D03*
X126035000Y-66192600D03*
X102082800Y-91694200D03*
X152374800Y-68910400D03*
X113309600Y-70713800D03*
X118846800Y-98450600D03*
X139598600Y-81483400D03*
X109321800Y-53060800D03*
X164643000Y-53568800D03*
X115189200Y-76962200D03*
X130937200Y-78079800D03*
X164693800Y-55169000D03*
X149428400Y-73609400D03*
X113081000Y-62916000D03*
X155422800Y-82220000D03*
X161417200Y-79654600D03*
X150749200Y-81610400D03*
X158851800Y-85598200D03*
X124471000Y-72868900D03*
X107467600Y-93675400D03*
X141300400Y-77394000D03*
X162204600Y-92075200D03*
X124180800Y-57251800D03*
X161417200Y-74549200D03*
X161112400Y-67869000D03*
X127747600Y-72868900D03*
X162052200Y-93548400D03*
X148590200Y-65303600D03*
X127838400Y-63982800D03*
X102819400Y-76581200D03*
X138684200Y-72212400D03*
X146532800Y-77317800D03*
X147421800Y-94183400D03*
X150546000Y-77317800D03*
X146583600Y-83159800D03*
X122987000Y-77368600D03*
X158039000Y-79629200D03*
X161417200Y-77952800D03*
X161391800Y-83083600D03*
X161417200Y-75387400D03*
X161112400Y-70053400D03*
X131724600Y-83515400D03*
X123799800Y-66218000D03*
X159639200Y-76886000D03*
X102667000Y-73584000D03*
X158597800Y-65938600D03*
X101600200Y-51867000D03*
X161417200Y-81356400D03*
X103175000Y-54991200D03*
X159156600Y-83490000D03*
X166522600Y-96393200D03*
X131826200Y-72161600D03*
X161391800Y-85572800D03*
X152857400Y-79629200D03*
X132689800Y-81280200D03*
X144145200Y-54737200D03*
X161391800Y-84734600D03*
X106781800Y-60833200D03*
X158597800Y-74777800D03*
X161391800Y-73711000D03*
X110388600Y-74981000D03*
X122936200Y-82067600D03*
X105054600Y-82321600D03*
X105054600Y-84023400D03*
X141503600Y-83363000D03*
X111506200Y-58293200D03*
X113258800Y-79121200D03*
X125984200Y-62103200D03*
X139370000Y-77419400D03*
X150292000Y-90652800D03*
X134823400Y-59537800D03*
X101828800Y-58064600D03*
X106858000Y-52756000D03*
X123876000Y-64033600D03*
X130988000Y-81305600D03*
X154787800Y-84556800D03*
X144018200Y-52375000D03*
X109347200Y-53721200D03*
%TO.N,/AN_I2P*%
X137541200Y-59487000D03*
%TO.N,/AN_I2N*%
X138481000Y-63728800D03*
%TO.N,/AN_O2N*%
X139928800Y-59766400D03*
%TO.N,/AN_O2P*%
X140741600Y-68021400D03*
%TO.N,/RA_S2*%
X147447200Y-59918800D03*
%TO.N,/AN_O1P*%
X150571400Y-64795600D03*
%TO.N,/AN_O1N*%
X150698400Y-59512400D03*
%TO.N,/AN_I1N*%
X150673000Y-63068400D03*
%TO.N,/AN_I1P*%
X150571400Y-61290400D03*
%TO.N,+3V3*%
X134518600Y-61214200D03*
X158826400Y-70510600D03*
X122250400Y-58039200D03*
X131343600Y-91160800D03*
X156108600Y-88392200D03*
X114579600Y-53035400D03*
X132080200Y-67234000D03*
X121539200Y-70002600D03*
X134493200Y-63779600D03*
X135711066Y-72972960D03*
%TO.N,-3V3*%
X114249400Y-86944400D03*
X130073600Y-81915200D03*
%TD*%
%TO.N,/AN_IO5P*%
D16*
X116179800Y-79324400D02*
X116179800Y-74168200D01*
X117526000Y-85268000D02*
X123545800Y-85268000D01*
D17*
X119431000Y-61696800D02*
X116637000Y-61696800D01*
D16*
X116179800Y-79324400D02*
X116179800Y-83921800D01*
X123545800Y-85268000D02*
X124180800Y-84633000D01*
X115341600Y-71145600D02*
X115367000Y-71120200D01*
X116179800Y-74168200D02*
X115341600Y-73330000D01*
X115367000Y-62966800D02*
X115875000Y-62458800D01*
X126187400Y-78918000D02*
X126263600Y-78918000D01*
X115341600Y-73330000D02*
X115341600Y-71145600D01*
X124180800Y-84633000D02*
X124180800Y-80924600D01*
D17*
X116637000Y-61696800D02*
X115875000Y-62458800D01*
D16*
X115367000Y-71120200D02*
X115367000Y-62966800D01*
X116179800Y-83921800D02*
X117526000Y-85268000D01*
X124180800Y-80924600D02*
X126187400Y-78918000D01*
%TO.N,/AN_IO5N*%
X116129000Y-72822000D02*
X116129000Y-63703400D01*
X117627600Y-83667800D02*
X117170400Y-83210600D01*
D17*
X117221200Y-62611200D02*
X116586200Y-63246200D01*
D16*
X122961600Y-83667800D02*
X117627600Y-83667800D01*
X116129000Y-63703400D02*
X116586200Y-63246200D01*
D17*
X119456400Y-62611200D02*
X117221200Y-62611200D01*
D16*
X117170400Y-76301800D02*
X117170400Y-73863400D01*
X117170400Y-73863400D02*
X116129000Y-72822000D01*
X117170400Y-83210600D02*
X117170400Y-76301800D01*
%TO.N,/AN_IO6P*%
X123368000Y-80365800D02*
X119100800Y-80365800D01*
D17*
X119481800Y-63576400D02*
X118186400Y-63576400D01*
D16*
X119100800Y-80365800D02*
X118389600Y-79654600D01*
X118389600Y-73787200D02*
X116967200Y-72364800D01*
X116967200Y-64795600D02*
X117475200Y-64287600D01*
X116967200Y-72364800D02*
X116967200Y-64795600D01*
X118389600Y-79654600D02*
X118389600Y-78257600D01*
D17*
X118186400Y-63576400D02*
X117475200Y-64287600D01*
D16*
X134594800Y-77267000D02*
X126466800Y-77267000D01*
X118389600Y-78257600D02*
X118389600Y-73787200D01*
X126466800Y-77267000D02*
X123368000Y-80365800D01*
%TO.N,/AN_IO6N*%
X119558000Y-73787200D02*
X117881600Y-72110800D01*
X117881600Y-72110800D02*
X117881600Y-65481400D01*
D17*
X118694400Y-64668600D02*
X118186400Y-65176600D01*
D16*
X135560000Y-97460000D02*
X138531800Y-94488200D01*
X119558000Y-76505000D02*
X119558000Y-73787200D01*
D17*
X119532600Y-64668600D02*
X118694400Y-64668600D01*
D16*
X117881600Y-65481400D02*
X118186400Y-65176600D01*
X138531800Y-94488200D02*
X138531800Y-84937800D01*
%TO.N,/AN_IO7P*%
X120878800Y-78587800D02*
X120878800Y-73787200D01*
X120878800Y-73787200D02*
X119126200Y-72034600D01*
D17*
X119608800Y-65659200D02*
X119126200Y-66141800D01*
D16*
X119126200Y-72034600D02*
X119126200Y-68148400D01*
D17*
X119126200Y-66141800D02*
X119126200Y-68148400D01*
%TO.N,/AN_IO7N*%
D16*
X121844000Y-76327200D02*
X121844000Y-73507800D01*
X120447000Y-72110800D02*
X120447000Y-66294200D01*
X121844000Y-73507800D02*
X120447000Y-72110800D01*
%TO.N,+5V*%
D18*
X122098000Y-99136400D02*
X149123600Y-99136400D01*
X104699000Y-68732600D02*
X104699000Y-80569000D01*
X106477000Y-66954600D02*
X104699000Y-68732600D01*
X106248400Y-88874800D02*
X107467600Y-90094000D01*
X106248400Y-82118400D02*
X106248400Y-88874800D01*
X149123600Y-99136400D02*
X150800000Y-97460000D01*
X113055600Y-90094000D02*
X122098000Y-99136400D01*
X104699000Y-80569000D02*
X106248400Y-82118400D01*
X107467600Y-90094000D02*
X113055600Y-90094000D01*
%TO.N,/AN_I2P*%
D17*
X139116000Y-49200000D02*
X139116000Y-55499200D01*
X139116000Y-55499200D02*
X137541200Y-57074000D01*
X137541200Y-57074000D02*
X137541200Y-59487000D01*
%TO.N,/AN_I2N*%
X141656000Y-49200000D02*
X141656000Y-56108800D01*
X138633400Y-63576400D02*
X138481000Y-63728800D01*
X138633400Y-59131400D02*
X138633400Y-63576400D01*
X141656000Y-56108800D02*
X138633400Y-59131400D01*
%TO.N,/AN_O2N*%
X145720000Y-59131400D02*
X145720000Y-49200000D01*
X139928800Y-59766400D02*
X140208200Y-59487000D01*
X145364400Y-59487000D02*
X145720000Y-59131400D01*
X140208200Y-59487000D02*
X145364400Y-59487000D01*
%TO.N,/AN_O2P*%
X148260000Y-55626200D02*
X146482000Y-57404200D01*
X146482000Y-57404200D02*
X146482000Y-67513400D01*
X146482000Y-67513400D02*
X145974000Y-68021400D01*
X145974000Y-68021400D02*
X140741600Y-68021400D01*
X148260000Y-49200000D02*
X148260000Y-55626200D01*
%TO.N,/RA_S2*%
X150800000Y-49200000D02*
X150800000Y-54686400D01*
X150800000Y-54686400D02*
X147447200Y-58039200D01*
X147447200Y-58039200D02*
X147447200Y-59918800D01*
%TO.N,/AN_O1P*%
X148488600Y-58877400D02*
X148488600Y-63119200D01*
X150165000Y-64795600D02*
X150571400Y-64795600D01*
X153340000Y-54026000D02*
X148488600Y-58877400D01*
X153340000Y-49200000D02*
X153340000Y-54026000D01*
X148488600Y-63119200D02*
X150165000Y-64795600D01*
%TO.N,/AN_O1N*%
X155880000Y-49200000D02*
X155880000Y-58979000D01*
X155880000Y-58979000D02*
X155346600Y-59512400D01*
X155346600Y-59512400D02*
X150698400Y-59512400D01*
%TO.N,/AN_I1N*%
X149352200Y-62357200D02*
X150063400Y-63068400D01*
X149352200Y-60604600D02*
X149352200Y-62357200D01*
X158420000Y-49200000D02*
X158420000Y-58902800D01*
X157073800Y-60249000D02*
X149707800Y-60249000D01*
X149707800Y-60249000D02*
X149352200Y-60604600D01*
X158420000Y-58902800D02*
X157073800Y-60249000D01*
X150063400Y-63068400D02*
X150673000Y-63068400D01*
%TO.N,/AN_I1P*%
X160960000Y-60020400D02*
X159690000Y-61290400D01*
X159690000Y-61290400D02*
X150571400Y-61290400D01*
X160960000Y-49200000D02*
X160960000Y-60020400D01*
%TO.N,+3V3*%
D18*
X132308800Y-67462600D02*
X132080200Y-67234000D01*
X136398200Y-62001600D02*
X136398200Y-65710000D01*
X136398200Y-72542600D02*
X136398200Y-72847400D01*
X135711066Y-72972960D02*
X135967840Y-72972960D01*
X156743600Y-87630200D02*
X156743600Y-71425000D01*
X136398200Y-59207600D02*
X136398200Y-62001600D01*
X135331400Y-61214200D02*
X134518600Y-61214200D01*
X136398200Y-62001600D02*
X136398200Y-62560400D01*
X156108600Y-88392200D02*
X156108600Y-88265200D01*
X156108600Y-88265200D02*
X156743600Y-87630200D01*
X136398200Y-54737200D02*
X136398200Y-59207600D01*
X120167600Y-53035400D02*
X122250400Y-55118200D01*
X136398200Y-59207600D02*
X136398200Y-60147400D01*
X136398200Y-65710000D02*
X136398200Y-71552000D01*
X135967840Y-72972960D02*
X136398200Y-72542600D01*
X122250400Y-68554800D02*
X121539200Y-69266000D01*
X135814000Y-67462600D02*
X132308800Y-67462600D01*
X136398200Y-60147400D02*
X135331400Y-61214200D01*
X155829200Y-70510600D02*
X137439600Y-70510600D01*
X158826400Y-70510600D02*
X155829200Y-70510600D01*
X132893000Y-53035400D02*
X134696400Y-53035400D01*
X156743600Y-71425000D02*
X155829200Y-70510600D01*
X122250400Y-55118200D02*
X122250400Y-58039200D01*
X135179000Y-63779600D02*
X134493200Y-63779600D01*
X136398200Y-62560400D02*
X135179000Y-63779600D01*
X132893000Y-53035400D02*
X120167600Y-53035400D01*
X136398200Y-66878400D02*
X135814000Y-67462600D01*
X136398200Y-72847400D02*
X136398200Y-90627400D01*
X122250400Y-58039200D02*
X122250400Y-68554800D01*
X137439600Y-70510600D02*
X136398200Y-71552000D01*
X121539200Y-69266000D02*
X121539200Y-70002600D01*
X134696400Y-53035400D02*
X136398200Y-54737200D01*
X135864800Y-91160800D02*
X131343600Y-91160800D01*
X136398200Y-65710000D02*
X136398200Y-66878400D01*
X136398200Y-90627400D02*
X135864800Y-91160800D01*
X120167600Y-53035400D02*
X114579600Y-53035400D01*
X136398200Y-71552000D02*
X136398200Y-72542600D01*
%TO.N,-3V3*%
X123926800Y-86944400D02*
X128956000Y-81915200D01*
X128956000Y-81915200D02*
X130073600Y-81915200D01*
X114249400Y-86944400D02*
X123926800Y-86944400D01*
%TD*%
M02*
