%TF.GenerationSoftware,KiCad,Pcbnew,8.0.5*%
%TF.CreationDate,2024-12-22T00:31:45-07:00*%
%TF.ProjectId,2024_11_STM32F303_DaisyShape_v1_3,32303234-5f31-4315-9f53-544d33324633,rev?*%
%TF.SameCoordinates,Original*%
%TF.FileFunction,Soldermask,Bot*%
%TF.FilePolarity,Negative*%
%FSLAX46Y46*%
G04 Gerber Fmt 4.6, Leading zero omitted, Abs format (unit mm)*
G04 Created by KiCad (PCBNEW 8.0.5) date 2024-12-22 00:31:45*
%MOMM*%
%LPD*%
G01*
G04 APERTURE LIST*
G04 Aperture macros list*
%AMRoundRect*
0 Rectangle with rounded corners*
0 $1 Rounding radius*
0 $2 $3 $4 $5 $6 $7 $8 $9 X,Y pos of 4 corners*
0 Add a 4 corners polygon primitive as box body*
4,1,4,$2,$3,$4,$5,$6,$7,$8,$9,$2,$3,0*
0 Add four circle primitives for the rounded corners*
1,1,$1+$1,$2,$3*
1,1,$1+$1,$4,$5*
1,1,$1+$1,$6,$7*
1,1,$1+$1,$8,$9*
0 Add four rect primitives between the rounded corners*
20,1,$1+$1,$2,$3,$4,$5,0*
20,1,$1+$1,$4,$5,$6,$7,0*
20,1,$1+$1,$6,$7,$8,$9,0*
20,1,$1+$1,$8,$9,$2,$3,0*%
G04 Aperture macros list end*
%ADD10O,1.004000X1.804000*%
%ADD11O,1.704000X0.954000*%
%ADD12R,1.700000X1.700000*%
%ADD13O,1.700000X1.700000*%
%ADD14RoundRect,0.250000X-0.475000X0.337500X-0.475000X-0.337500X0.475000X-0.337500X0.475000X0.337500X0*%
%ADD15RoundRect,0.250000X0.475000X-0.337500X0.475000X0.337500X-0.475000X0.337500X-0.475000X-0.337500X0*%
%ADD16RoundRect,0.250000X0.337500X0.475000X-0.337500X0.475000X-0.337500X-0.475000X0.337500X-0.475000X0*%
%ADD17RoundRect,0.250000X-0.450000X0.350000X-0.450000X-0.350000X0.450000X-0.350000X0.450000X0.350000X0*%
%ADD18RoundRect,0.250000X0.450000X-0.325000X0.450000X0.325000X-0.450000X0.325000X-0.450000X-0.325000X0*%
%ADD19RoundRect,0.375000X-0.625000X-0.375000X0.625000X-0.375000X0.625000X0.375000X-0.625000X0.375000X0*%
%ADD20RoundRect,0.500000X-0.500000X-1.400000X0.500000X-1.400000X0.500000X1.400000X-0.500000X1.400000X0*%
G04 APERTURE END LIST*
D10*
%TO.C,J1*%
X109850000Y-51000000D03*
X109850000Y-56000000D03*
D11*
X107150000Y-49975000D03*
X107150000Y-57025000D03*
%TD*%
D12*
%TO.C,J4*%
X106675000Y-63495000D03*
D13*
X109215000Y-63495000D03*
X111755000Y-63495000D03*
X114295000Y-63495000D03*
X116835000Y-63495000D03*
X119375000Y-63495000D03*
X121915000Y-63495000D03*
X124455000Y-63495000D03*
X126995000Y-63495000D03*
X129535000Y-63495000D03*
X132075000Y-63495000D03*
X134615000Y-63495000D03*
X137155000Y-63495000D03*
X139695000Y-63495000D03*
X142235000Y-63495000D03*
X144775000Y-63495000D03*
X147315000Y-63495000D03*
X149855000Y-63495000D03*
X152395000Y-63495000D03*
X154935000Y-63495000D03*
X157475000Y-63495000D03*
X160015000Y-63495000D03*
X162555000Y-63495000D03*
X165095000Y-63495000D03*
%TD*%
D12*
%TO.C,J5*%
X106675000Y-43495000D03*
D13*
X109215000Y-43495000D03*
X111755000Y-43495000D03*
X114295000Y-43495000D03*
X116835000Y-43495000D03*
X119375000Y-43495000D03*
X121915000Y-43495000D03*
X124455000Y-43495000D03*
X126995000Y-43495000D03*
X129535000Y-43495000D03*
X132075000Y-43495000D03*
X134615000Y-43495000D03*
X137155000Y-43495000D03*
X139695000Y-43495000D03*
X142235000Y-43495000D03*
X144775000Y-43495000D03*
X147315000Y-43495000D03*
X149855000Y-43495000D03*
X152395000Y-43495000D03*
X154935000Y-43495000D03*
X157475000Y-43495000D03*
X160015000Y-43495000D03*
X162555000Y-43495000D03*
X165095000Y-43495000D03*
%TD*%
D14*
%TO.C,C18*%
X115230000Y-53525000D03*
X115230000Y-55600000D03*
%TD*%
D15*
%TO.C,C17*%
X123475000Y-48712500D03*
X123475000Y-46637500D03*
%TD*%
D16*
%TO.C,C5*%
X129437500Y-48950000D03*
X127362500Y-48950000D03*
%TD*%
%TO.C,C21*%
X152212500Y-56650000D03*
X150137500Y-56650000D03*
%TD*%
D17*
%TO.C,R5*%
X121275000Y-46725000D03*
X121275000Y-48725000D03*
%TD*%
D15*
%TO.C,C15*%
X115900000Y-51062500D03*
X115900000Y-48987500D03*
%TD*%
%TO.C,C6*%
X135375000Y-53012500D03*
X135375000Y-50937500D03*
%TD*%
D18*
%TO.C,D3*%
X119075000Y-48700000D03*
X119075000Y-46650000D03*
%TD*%
D15*
%TO.C,C4*%
X139970000Y-56225000D03*
X139970000Y-54150000D03*
%TD*%
D19*
%TO.C,U4*%
X118625000Y-55687500D03*
X118625000Y-53387500D03*
D20*
X124925000Y-53387500D03*
D19*
X118625000Y-51087500D03*
%TD*%
D15*
%TO.C,C16*%
X113600000Y-51062500D03*
X113600000Y-48987500D03*
%TD*%
M02*
