%TF.GenerationSoftware,KiCad,Pcbnew,8.0.5*%
%TF.CreationDate,2024-12-22T00:31:45-07:00*%
%TF.ProjectId,2024_11_STM32F303_DaisyShape_v1_3,32303234-5f31-4315-9f53-544d33324633,rev?*%
%TF.SameCoordinates,Original*%
%TF.FileFunction,Paste,Top*%
%TF.FilePolarity,Positive*%
%FSLAX46Y46*%
G04 Gerber Fmt 4.6, Leading zero omitted, Abs format (unit mm)*
G04 Created by KiCad (PCBNEW 8.0.5) date 2024-12-22 00:31:45*
%MOMM*%
%LPD*%
G01*
G04 APERTURE LIST*
G04 Aperture macros list*
%AMRoundRect*
0 Rectangle with rounded corners*
0 $1 Rounding radius*
0 $2 $3 $4 $5 $6 $7 $8 $9 X,Y pos of 4 corners*
0 Add a 4 corners polygon primitive as box body*
4,1,4,$2,$3,$4,$5,$6,$7,$8,$9,$2,$3,0*
0 Add four circle primitives for the rounded corners*
1,1,$1+$1,$2,$3*
1,1,$1+$1,$4,$5*
1,1,$1+$1,$6,$7*
1,1,$1+$1,$8,$9*
0 Add four rect primitives between the rounded corners*
20,1,$1+$1,$2,$3,$4,$5,0*
20,1,$1+$1,$4,$5,$6,$7,0*
20,1,$1+$1,$6,$7,$8,$9,0*
20,1,$1+$1,$8,$9,$2,$3,0*%
G04 Aperture macros list end*
%ADD10C,0.010000*%
%ADD11RoundRect,0.250000X0.450000X-0.325000X0.450000X0.325000X-0.450000X0.325000X-0.450000X-0.325000X0*%
%ADD12RoundRect,0.250000X0.350000X0.450000X-0.350000X0.450000X-0.350000X-0.450000X0.350000X-0.450000X0*%
%ADD13RoundRect,0.250000X0.325000X0.450000X-0.325000X0.450000X-0.325000X-0.450000X0.325000X-0.450000X0*%
%ADD14RoundRect,0.250000X-0.475000X0.337500X-0.475000X-0.337500X0.475000X-0.337500X0.475000X0.337500X0*%
%ADD15R,1.200000X1.400000*%
%ADD16RoundRect,0.250000X0.337500X0.475000X-0.337500X0.475000X-0.337500X-0.475000X0.337500X-0.475000X0*%
%ADD17RoundRect,0.250000X0.450000X-0.350000X0.450000X0.350000X-0.450000X0.350000X-0.450000X-0.350000X0*%
%ADD18RoundRect,0.250000X-0.337500X-0.475000X0.337500X-0.475000X0.337500X0.475000X-0.337500X0.475000X0*%
%ADD19RoundRect,0.125000X0.625000X0.125000X-0.625000X0.125000X-0.625000X-0.125000X0.625000X-0.125000X0*%
%ADD20RoundRect,0.125000X0.125000X0.625000X-0.125000X0.625000X-0.125000X-0.625000X0.125000X-0.625000X0*%
%ADD21R,1.350000X0.400000*%
%ADD22R,1.550000X1.500000*%
%ADD23R,0.400000X1.200000*%
%ADD24R,2.300000X1.500000*%
%ADD25RoundRect,0.250000X-0.350000X-0.450000X0.350000X-0.450000X0.350000X0.450000X-0.350000X0.450000X0*%
%ADD26RoundRect,0.150000X-0.150000X-0.625000X0.150000X-0.625000X0.150000X0.625000X-0.150000X0.625000X0*%
%ADD27RoundRect,0.250000X-0.350000X-0.650000X0.350000X-0.650000X0.350000X0.650000X-0.350000X0.650000X0*%
G04 APERTURE END LIST*
D10*
%TO.C,J1*%
X107451000Y-49556000D02*
X107477000Y-49558000D01*
X107503000Y-49561000D01*
X107529000Y-49566000D01*
X107554000Y-49572000D01*
X107580000Y-49579000D01*
X107604000Y-49588000D01*
X107628000Y-49598000D01*
X107652000Y-49609000D01*
X107675000Y-49622000D01*
X107697000Y-49636000D01*
X107719000Y-49650000D01*
X107740000Y-49666000D01*
X107760000Y-49683000D01*
X107779000Y-49701000D01*
X107797000Y-49720000D01*
X107814000Y-49740000D01*
X107830000Y-49761000D01*
X107844000Y-49783000D01*
X107858000Y-49805000D01*
X107871000Y-49828000D01*
X107882000Y-49852000D01*
X107892000Y-49876000D01*
X107901000Y-49900000D01*
X107908000Y-49926000D01*
X107914000Y-49951000D01*
X107919000Y-49977000D01*
X107922000Y-50003000D01*
X107924000Y-50029000D01*
X107925000Y-50055000D01*
X107925000Y-51200000D01*
X106375000Y-51200000D01*
X106375000Y-50055000D01*
X106376000Y-50029000D01*
X106378000Y-50003000D01*
X106381000Y-49977000D01*
X106386000Y-49951000D01*
X106392000Y-49926000D01*
X106399000Y-49900000D01*
X106408000Y-49876000D01*
X106418000Y-49852000D01*
X106429000Y-49828000D01*
X106442000Y-49805000D01*
X106456000Y-49783000D01*
X106470000Y-49761000D01*
X106486000Y-49740000D01*
X106503000Y-49720000D01*
X106521000Y-49701000D01*
X106540000Y-49683000D01*
X106560000Y-49666000D01*
X106581000Y-49650000D01*
X106603000Y-49636000D01*
X106625000Y-49622000D01*
X106648000Y-49609000D01*
X106672000Y-49598000D01*
X106696000Y-49588000D01*
X106720000Y-49579000D01*
X106746000Y-49572000D01*
X106771000Y-49566000D01*
X106797000Y-49561000D01*
X106823000Y-49558000D01*
X106849000Y-49556000D01*
X106875000Y-49555000D01*
X107425000Y-49555000D01*
X107451000Y-49556000D01*
G36*
X107451000Y-49556000D02*
G01*
X107477000Y-49558000D01*
X107503000Y-49561000D01*
X107529000Y-49566000D01*
X107554000Y-49572000D01*
X107580000Y-49579000D01*
X107604000Y-49588000D01*
X107628000Y-49598000D01*
X107652000Y-49609000D01*
X107675000Y-49622000D01*
X107697000Y-49636000D01*
X107719000Y-49650000D01*
X107740000Y-49666000D01*
X107760000Y-49683000D01*
X107779000Y-49701000D01*
X107797000Y-49720000D01*
X107814000Y-49740000D01*
X107830000Y-49761000D01*
X107844000Y-49783000D01*
X107858000Y-49805000D01*
X107871000Y-49828000D01*
X107882000Y-49852000D01*
X107892000Y-49876000D01*
X107901000Y-49900000D01*
X107908000Y-49926000D01*
X107914000Y-49951000D01*
X107919000Y-49977000D01*
X107922000Y-50003000D01*
X107924000Y-50029000D01*
X107925000Y-50055000D01*
X107925000Y-51200000D01*
X106375000Y-51200000D01*
X106375000Y-50055000D01*
X106376000Y-50029000D01*
X106378000Y-50003000D01*
X106381000Y-49977000D01*
X106386000Y-49951000D01*
X106392000Y-49926000D01*
X106399000Y-49900000D01*
X106408000Y-49876000D01*
X106418000Y-49852000D01*
X106429000Y-49828000D01*
X106442000Y-49805000D01*
X106456000Y-49783000D01*
X106470000Y-49761000D01*
X106486000Y-49740000D01*
X106503000Y-49720000D01*
X106521000Y-49701000D01*
X106540000Y-49683000D01*
X106560000Y-49666000D01*
X106581000Y-49650000D01*
X106603000Y-49636000D01*
X106625000Y-49622000D01*
X106648000Y-49609000D01*
X106672000Y-49598000D01*
X106696000Y-49588000D01*
X106720000Y-49579000D01*
X106746000Y-49572000D01*
X106771000Y-49566000D01*
X106797000Y-49561000D01*
X106823000Y-49558000D01*
X106849000Y-49556000D01*
X106875000Y-49555000D01*
X107425000Y-49555000D01*
X107451000Y-49556000D01*
G37*
X107925000Y-56945000D02*
X107924000Y-56971000D01*
X107922000Y-56997000D01*
X107919000Y-57023000D01*
X107914000Y-57049000D01*
X107908000Y-57074000D01*
X107901000Y-57100000D01*
X107892000Y-57124000D01*
X107882000Y-57148000D01*
X107871000Y-57172000D01*
X107858000Y-57195000D01*
X107844000Y-57217000D01*
X107830000Y-57239000D01*
X107814000Y-57260000D01*
X107797000Y-57280000D01*
X107779000Y-57299000D01*
X107760000Y-57317000D01*
X107740000Y-57334000D01*
X107719000Y-57350000D01*
X107697000Y-57364000D01*
X107675000Y-57378000D01*
X107652000Y-57391000D01*
X107628000Y-57402000D01*
X107604000Y-57412000D01*
X107580000Y-57421000D01*
X107554000Y-57428000D01*
X107529000Y-57434000D01*
X107503000Y-57439000D01*
X107477000Y-57442000D01*
X107451000Y-57444000D01*
X107425000Y-57445000D01*
X106875000Y-57445000D01*
X106849000Y-57444000D01*
X106823000Y-57442000D01*
X106797000Y-57439000D01*
X106771000Y-57434000D01*
X106746000Y-57428000D01*
X106720000Y-57421000D01*
X106696000Y-57412000D01*
X106672000Y-57402000D01*
X106648000Y-57391000D01*
X106625000Y-57378000D01*
X106603000Y-57364000D01*
X106581000Y-57350000D01*
X106560000Y-57334000D01*
X106540000Y-57317000D01*
X106521000Y-57299000D01*
X106503000Y-57280000D01*
X106486000Y-57260000D01*
X106470000Y-57239000D01*
X106456000Y-57217000D01*
X106442000Y-57195000D01*
X106429000Y-57172000D01*
X106418000Y-57148000D01*
X106408000Y-57124000D01*
X106399000Y-57100000D01*
X106392000Y-57074000D01*
X106386000Y-57049000D01*
X106381000Y-57023000D01*
X106378000Y-56997000D01*
X106376000Y-56971000D01*
X106375000Y-56945000D01*
X106375000Y-55800000D01*
X107925000Y-55800000D01*
X107925000Y-56945000D01*
G36*
X107925000Y-56945000D02*
G01*
X107924000Y-56971000D01*
X107922000Y-56997000D01*
X107919000Y-57023000D01*
X107914000Y-57049000D01*
X107908000Y-57074000D01*
X107901000Y-57100000D01*
X107892000Y-57124000D01*
X107882000Y-57148000D01*
X107871000Y-57172000D01*
X107858000Y-57195000D01*
X107844000Y-57217000D01*
X107830000Y-57239000D01*
X107814000Y-57260000D01*
X107797000Y-57280000D01*
X107779000Y-57299000D01*
X107760000Y-57317000D01*
X107740000Y-57334000D01*
X107719000Y-57350000D01*
X107697000Y-57364000D01*
X107675000Y-57378000D01*
X107652000Y-57391000D01*
X107628000Y-57402000D01*
X107604000Y-57412000D01*
X107580000Y-57421000D01*
X107554000Y-57428000D01*
X107529000Y-57434000D01*
X107503000Y-57439000D01*
X107477000Y-57442000D01*
X107451000Y-57444000D01*
X107425000Y-57445000D01*
X106875000Y-57445000D01*
X106849000Y-57444000D01*
X106823000Y-57442000D01*
X106797000Y-57439000D01*
X106771000Y-57434000D01*
X106746000Y-57428000D01*
X106720000Y-57421000D01*
X106696000Y-57412000D01*
X106672000Y-57402000D01*
X106648000Y-57391000D01*
X106625000Y-57378000D01*
X106603000Y-57364000D01*
X106581000Y-57350000D01*
X106560000Y-57334000D01*
X106540000Y-57317000D01*
X106521000Y-57299000D01*
X106503000Y-57280000D01*
X106486000Y-57260000D01*
X106470000Y-57239000D01*
X106456000Y-57217000D01*
X106442000Y-57195000D01*
X106429000Y-57172000D01*
X106418000Y-57148000D01*
X106408000Y-57124000D01*
X106399000Y-57100000D01*
X106392000Y-57074000D01*
X106386000Y-57049000D01*
X106381000Y-57023000D01*
X106378000Y-56997000D01*
X106376000Y-56971000D01*
X106375000Y-56945000D01*
X106375000Y-55800000D01*
X107925000Y-55800000D01*
X107925000Y-56945000D01*
G37*
%TD*%
D11*
%TO.C,D5*%
X123700000Y-54900000D03*
X123700000Y-52850000D03*
%TD*%
D12*
%TO.C,R4*%
X114490000Y-47175000D03*
X112490000Y-47175000D03*
%TD*%
D13*
%TO.C,D4*%
X150550000Y-50300000D03*
X148500000Y-50300000D03*
%TD*%
D14*
%TO.C,C19*%
X147550000Y-55462500D03*
X147550000Y-57537500D03*
%TD*%
D15*
%TO.C,Y3*%
X145350000Y-57475000D03*
X145350000Y-55275000D03*
X143650000Y-55275000D03*
X143650000Y-57475000D03*
%TD*%
D16*
%TO.C,C20*%
X145637500Y-52975000D03*
X143562500Y-52975000D03*
%TD*%
D17*
%TO.C,R9*%
X123675000Y-50925000D03*
X123675000Y-48925000D03*
%TD*%
D13*
%TO.C,D2*%
X118512500Y-47145000D03*
X116462500Y-47145000D03*
%TD*%
D18*
%TO.C,C2*%
X120562500Y-46900000D03*
X122637500Y-46900000D03*
%TD*%
D19*
%TO.C,U1*%
X137775000Y-56225000D03*
X137775000Y-55425000D03*
X137775000Y-54625000D03*
X137775000Y-53825000D03*
X137775000Y-53025000D03*
X137775000Y-52225000D03*
X137775000Y-51425000D03*
X137775000Y-50625000D03*
D20*
X136400000Y-49250000D03*
X135600000Y-49250000D03*
X134800000Y-49250000D03*
X134000000Y-49250000D03*
X133200000Y-49250000D03*
X132400000Y-49250000D03*
X131600000Y-49250000D03*
X130800000Y-49250000D03*
D19*
X129425000Y-50625000D03*
X129425000Y-51425000D03*
X129425000Y-52225000D03*
X129425000Y-53025000D03*
X129425000Y-53825000D03*
X129425000Y-54625000D03*
X129425000Y-55425000D03*
X129425000Y-56225000D03*
D20*
X130800000Y-57600000D03*
X131600000Y-57600000D03*
X132400000Y-57600000D03*
X133200000Y-57600000D03*
X134000000Y-57600000D03*
X134800000Y-57600000D03*
X135600000Y-57600000D03*
X136400000Y-57600000D03*
%TD*%
D21*
%TO.C,J1*%
X109825000Y-52200000D03*
X109825000Y-52850000D03*
X109825000Y-53500000D03*
X109825000Y-54150000D03*
X109825000Y-54800000D03*
D22*
X107150000Y-52500000D03*
X107150000Y-54500000D03*
%TD*%
D23*
%TO.C,U2*%
X117352500Y-55000000D03*
X117987500Y-55000000D03*
X118622500Y-55000000D03*
X119257500Y-55000000D03*
X119892500Y-55000000D03*
X120527500Y-55000000D03*
X121162500Y-55000000D03*
X121797500Y-55000000D03*
X121797500Y-49800000D03*
X121162500Y-49800000D03*
X120527500Y-49800000D03*
X119892500Y-49800000D03*
X119257500Y-49800000D03*
X118622500Y-49800000D03*
X117987500Y-49800000D03*
X117352500Y-49800000D03*
%TD*%
D12*
%TO.C,R8*%
X115275000Y-51900000D03*
X113275000Y-51900000D03*
%TD*%
%TO.C,R6*%
X139950000Y-59075000D03*
X137950000Y-59075000D03*
%TD*%
D24*
%TO.C,SW2*%
X159050000Y-54475000D03*
X152350000Y-54475000D03*
%TD*%
D25*
%TO.C,R7*%
X113275000Y-54025000D03*
X115275000Y-54025000D03*
%TD*%
D12*
%TO.C,R10*%
X146500000Y-50300000D03*
X144500000Y-50300000D03*
%TD*%
D26*
%TO.C,J3*%
X117650000Y-60275000D03*
X118650000Y-60275000D03*
X119650000Y-60275000D03*
X120650000Y-60275000D03*
X121650000Y-60275000D03*
D27*
X116350000Y-57750000D03*
X122950000Y-57750000D03*
%TD*%
M02*
