%TF.GenerationSoftware,KiCad,Pcbnew,8.0.5*%
%TF.CreationDate,2024-12-22T00:31:45-07:00*%
%TF.ProjectId,2024_11_STM32F303_DaisyShape_v1_3,32303234-5f31-4315-9f53-544d33324633,rev?*%
%TF.SameCoordinates,Original*%
%TF.FileFunction,Copper,L4,Bot*%
%TF.FilePolarity,Positive*%
%FSLAX46Y46*%
G04 Gerber Fmt 4.6, Leading zero omitted, Abs format (unit mm)*
G04 Created by KiCad (PCBNEW 8.0.5) date 2024-12-22 00:31:45*
%MOMM*%
%LPD*%
G01*
G04 APERTURE LIST*
G04 Aperture macros list*
%AMRoundRect*
0 Rectangle with rounded corners*
0 $1 Rounding radius*
0 $2 $3 $4 $5 $6 $7 $8 $9 X,Y pos of 4 corners*
0 Add a 4 corners polygon primitive as box body*
4,1,4,$2,$3,$4,$5,$6,$7,$8,$9,$2,$3,0*
0 Add four circle primitives for the rounded corners*
1,1,$1+$1,$2,$3*
1,1,$1+$1,$4,$5*
1,1,$1+$1,$6,$7*
1,1,$1+$1,$8,$9*
0 Add four rect primitives between the rounded corners*
20,1,$1+$1,$2,$3,$4,$5,0*
20,1,$1+$1,$4,$5,$6,$7,0*
20,1,$1+$1,$6,$7,$8,$9,0*
20,1,$1+$1,$8,$9,$2,$3,0*%
G04 Aperture macros list end*
%TA.AperFunction,ComponentPad*%
%ADD10O,0.800000X1.600000*%
%TD*%
%TA.AperFunction,ComponentPad*%
%ADD11O,1.500000X0.750000*%
%TD*%
%TA.AperFunction,ComponentPad*%
%ADD12R,1.700000X1.700000*%
%TD*%
%TA.AperFunction,ComponentPad*%
%ADD13O,1.700000X1.700000*%
%TD*%
%TA.AperFunction,SMDPad,CuDef*%
%ADD14RoundRect,0.250000X-0.475000X0.337500X-0.475000X-0.337500X0.475000X-0.337500X0.475000X0.337500X0*%
%TD*%
%TA.AperFunction,SMDPad,CuDef*%
%ADD15RoundRect,0.250000X0.475000X-0.337500X0.475000X0.337500X-0.475000X0.337500X-0.475000X-0.337500X0*%
%TD*%
%TA.AperFunction,SMDPad,CuDef*%
%ADD16RoundRect,0.250000X0.337500X0.475000X-0.337500X0.475000X-0.337500X-0.475000X0.337500X-0.475000X0*%
%TD*%
%TA.AperFunction,SMDPad,CuDef*%
%ADD17RoundRect,0.250000X-0.450000X0.350000X-0.450000X-0.350000X0.450000X-0.350000X0.450000X0.350000X0*%
%TD*%
%TA.AperFunction,SMDPad,CuDef*%
%ADD18RoundRect,0.250000X0.450000X-0.325000X0.450000X0.325000X-0.450000X0.325000X-0.450000X-0.325000X0*%
%TD*%
%TA.AperFunction,SMDPad,CuDef*%
%ADD19RoundRect,0.375000X-0.625000X-0.375000X0.625000X-0.375000X0.625000X0.375000X-0.625000X0.375000X0*%
%TD*%
%TA.AperFunction,SMDPad,CuDef*%
%ADD20RoundRect,0.500000X-0.500000X-1.400000X0.500000X-1.400000X0.500000X1.400000X-0.500000X1.400000X0*%
%TD*%
%TA.AperFunction,ViaPad*%
%ADD21C,0.600000*%
%TD*%
%TA.AperFunction,Conductor*%
%ADD22C,0.200000*%
%TD*%
%TA.AperFunction,Conductor*%
%ADD23C,0.254000*%
%TD*%
%TA.AperFunction,Conductor*%
%ADD24C,0.381000*%
%TD*%
%TA.AperFunction,Conductor*%
%ADD25C,0.152400*%
%TD*%
%TA.AperFunction,Conductor*%
%ADD26C,0.304800*%
%TD*%
%TA.AperFunction,Conductor*%
%ADD27C,0.203200*%
%TD*%
G04 APERTURE END LIST*
D10*
%TO.P,J1,S1,SHIELD*%
%TO.N,unconnected-(J1-SHIELD-PadS1)*%
X109850000Y-51000000D03*
%TO.P,J1,S2,SHIELD__1*%
%TO.N,unconnected-(J1-SHIELD__1-PadS2)*%
X109850000Y-56000000D03*
D11*
%TO.P,J1,S3,SHIELD__2*%
%TO.N,unconnected-(J1-SHIELD__2-PadS3)*%
X107150000Y-49975000D03*
%TO.P,J1,S6,SHIELD__5*%
%TO.N,unconnected-(J1-SHIELD__5-PadS6)*%
X107150000Y-57025000D03*
%TD*%
D12*
%TO.P,J4,1,Pin_1*%
%TO.N,+3.3V*%
X106675000Y-63495000D03*
D13*
%TO.P,J4,2,Pin_2*%
X109215000Y-63495000D03*
%TO.P,J4,3,Pin_3*%
X111755000Y-63495000D03*
%TO.P,J4,4,Pin_4*%
%TO.N,unconnected-(J4-Pin_4-Pad4)*%
X114295000Y-63495000D03*
%TO.P,J4,5,Pin_5*%
%TO.N,unconnected-(J4-Pin_5-Pad5)*%
X116835000Y-63495000D03*
%TO.P,J4,6,Pin_6*%
%TO.N,unconnected-(J4-Pin_6-Pad6)*%
X119375000Y-63495000D03*
%TO.P,J4,7,Pin_7*%
%TO.N,unconnected-(J4-Pin_7-Pad7)*%
X121915000Y-63495000D03*
%TO.P,J4,8,Pin_8*%
%TO.N,/PA11*%
X124455000Y-63495000D03*
%TO.P,J4,9,Pin_9*%
%TO.N,/PA12*%
X126995000Y-63495000D03*
%TO.P,J4,10,Pin_10*%
%TO.N,/PA15*%
X129535000Y-63495000D03*
%TO.P,J4,11,Pin_11*%
%TO.N,/PB3*%
X132075000Y-63495000D03*
%TO.P,J4,12,Pin_12*%
%TO.N,GND*%
X134615000Y-63495000D03*
%TO.P,J4,13,Pin_13*%
%TO.N,/PB4*%
X137155000Y-63495000D03*
%TO.P,J4,14,Pin_14*%
%TO.N,/PB5*%
X139695000Y-63495000D03*
%TO.P,J4,15,Pin_15*%
%TO.N,/PB6*%
X142235000Y-63495000D03*
%TO.P,J4,16,Pin_16*%
%TO.N,/PB7*%
X144775000Y-63495000D03*
%TO.P,J4,17,Pin_17*%
%TO.N,unconnected-(J4-Pin_17-Pad17)*%
X147315000Y-63495000D03*
%TO.P,J4,18,Pin_18*%
%TO.N,unconnected-(J4-Pin_18-Pad18)*%
X149855000Y-63495000D03*
%TO.P,J4,19,Pin_19*%
%TO.N,unconnected-(J4-Pin_19-Pad19)*%
X152395000Y-63495000D03*
%TO.P,J4,20,Pin_20*%
%TO.N,unconnected-(J4-Pin_20-Pad20)*%
X154935000Y-63495000D03*
%TO.P,J4,21,Pin_21*%
%TO.N,unconnected-(J4-Pin_21-Pad21)*%
X157475000Y-63495000D03*
%TO.P,J4,22,Pin_22*%
%TO.N,GND*%
X160015000Y-63495000D03*
%TO.P,J4,23,Pin_23*%
X162555000Y-63495000D03*
%TO.P,J4,24,Pin_24*%
X165095000Y-63495000D03*
%TD*%
D12*
%TO.P,J5,1,Pin_1*%
%TO.N,+5V*%
X106675000Y-43495000D03*
D13*
%TO.P,J5,2,Pin_2*%
X109215000Y-43495000D03*
%TO.P,J5,3,Pin_3*%
X111755000Y-43495000D03*
%TO.P,J5,4,Pin_4*%
%TO.N,unconnected-(J5-Pin_4-Pad4)*%
X114295000Y-43495000D03*
%TO.P,J5,5,Pin_5*%
%TO.N,unconnected-(J5-Pin_5-Pad5)*%
X116835000Y-43495000D03*
%TO.P,J5,6,Pin_6*%
%TO.N,unconnected-(J5-Pin_6-Pad6)*%
X119375000Y-43495000D03*
%TO.P,J5,7,Pin_7*%
%TO.N,unconnected-(J5-Pin_7-Pad7)*%
X121915000Y-43495000D03*
%TO.P,J5,8,Pin_8*%
%TO.N,/PB1*%
X124455000Y-43495000D03*
%TO.P,J5,9,Pin_9*%
%TO.N,/PB0*%
X126995000Y-43495000D03*
%TO.P,J5,10,Pin_10*%
%TO.N,/PA7*%
X129535000Y-43495000D03*
%TO.P,J5,11,Pin_11*%
%TO.N,/PA6*%
X132075000Y-43495000D03*
%TO.P,J5,12,Pin_12*%
%TO.N,GND*%
X134615000Y-43495000D03*
%TO.P,J5,13,Pin_13*%
%TO.N,/PA5*%
X137155000Y-43495000D03*
%TO.P,J5,14,Pin_14*%
%TO.N,/PA4*%
X139695000Y-43495000D03*
%TO.P,J5,15,Pin_15*%
%TO.N,/PA3*%
X142235000Y-43495000D03*
%TO.P,J5,16,Pin_16*%
%TO.N,/PA2*%
X144775000Y-43495000D03*
%TO.P,J5,17,Pin_17*%
%TO.N,/PA1*%
X147315000Y-43495000D03*
%TO.P,J5,18,Pin_18*%
%TO.N,unconnected-(J5-Pin_18-Pad18)*%
X149855000Y-43495000D03*
%TO.P,J5,19,Pin_19*%
%TO.N,unconnected-(J5-Pin_19-Pad19)*%
X152395000Y-43495000D03*
%TO.P,J5,20,Pin_20*%
%TO.N,unconnected-(J5-Pin_20-Pad20)*%
X154935000Y-43495000D03*
%TO.P,J5,21,Pin_21*%
%TO.N,unconnected-(J5-Pin_21-Pad21)*%
X157475000Y-43495000D03*
%TO.P,J5,22,Pin_22*%
%TO.N,GND*%
X160015000Y-43495000D03*
%TO.P,J5,23,Pin_23*%
X162555000Y-43495000D03*
%TO.P,J5,24,Pin_24*%
X165095000Y-43495000D03*
%TD*%
D14*
%TO.P,C18,1*%
%TO.N,+3.3V*%
X115230000Y-53525000D03*
%TO.P,C18,2*%
%TO.N,GND*%
X115230000Y-55600000D03*
%TD*%
D15*
%TO.P,C17,1*%
%TO.N,+3.3V*%
X123475000Y-48712500D03*
%TO.P,C17,2*%
%TO.N,GND*%
X123475000Y-46637500D03*
%TD*%
D16*
%TO.P,C5,1*%
%TO.N,+3.3V*%
X129437500Y-48950000D03*
%TO.P,C5,2*%
%TO.N,GND*%
X127362500Y-48950000D03*
%TD*%
%TO.P,C21,1*%
%TO.N,/RESET*%
X152212500Y-56650000D03*
%TO.P,C21,2*%
%TO.N,GND*%
X150137500Y-56650000D03*
%TD*%
D17*
%TO.P,R5,1*%
%TO.N,Net-(D3-A)*%
X121275000Y-46725000D03*
%TO.P,R5,2*%
%TO.N,+3.3V*%
X121275000Y-48725000D03*
%TD*%
D15*
%TO.P,C15,1*%
%TO.N,+5V*%
X115900000Y-51062500D03*
%TO.P,C15,2*%
%TO.N,GND*%
X115900000Y-48987500D03*
%TD*%
%TO.P,C6,1*%
%TO.N,+3.3V*%
X135375000Y-53012500D03*
%TO.P,C6,2*%
%TO.N,GND*%
X135375000Y-50937500D03*
%TD*%
D18*
%TO.P,D3,1,K*%
%TO.N,GND*%
X119075000Y-48700000D03*
%TO.P,D3,2,A*%
%TO.N,Net-(D3-A)*%
X119075000Y-46650000D03*
%TD*%
D15*
%TO.P,C4,1*%
%TO.N,+3.3V*%
X139970000Y-56225000D03*
%TO.P,C4,2*%
%TO.N,GND*%
X139970000Y-54150000D03*
%TD*%
D19*
%TO.P,U4,1,GND*%
%TO.N,GND*%
X118625000Y-55687500D03*
%TO.P,U4,2,VO*%
%TO.N,+3.3V*%
X118625000Y-53387500D03*
D20*
X124925000Y-53387500D03*
D19*
%TO.P,U4,3,VI*%
%TO.N,+5V*%
X118625000Y-51087500D03*
%TD*%
D15*
%TO.P,C16,1*%
%TO.N,+5V*%
X113600000Y-51062500D03*
%TO.P,C16,2*%
%TO.N,GND*%
X113600000Y-48987500D03*
%TD*%
D21*
%TO.N,GND*%
X108640000Y-56225000D03*
X153625000Y-62550000D03*
X136390000Y-58665000D03*
X161310000Y-51815000D03*
X146230000Y-60745000D03*
X108000000Y-47000000D03*
X123190000Y-62645000D03*
X118100000Y-62600000D03*
X113025000Y-62225000D03*
X130790000Y-62645000D03*
X132380000Y-54305000D03*
X146230000Y-47075000D03*
X121150000Y-51535000D03*
X143525000Y-44925000D03*
X114190000Y-55625000D03*
X156200000Y-44900000D03*
X161300000Y-44900000D03*
X110375000Y-60700000D03*
X158790000Y-58435000D03*
X108825000Y-58925000D03*
X143520000Y-47035000D03*
X117610000Y-48555000D03*
X130790000Y-50305000D03*
X139950000Y-53145000D03*
X141050000Y-44925000D03*
X108000000Y-45225000D03*
X145350000Y-54265000D03*
X148650000Y-44925000D03*
X163880000Y-60375000D03*
X120190000Y-53905000D03*
X163825000Y-44825000D03*
X138475000Y-48850000D03*
X163820000Y-58485000D03*
X156170000Y-58465000D03*
X130800000Y-44950000D03*
X111300000Y-58925000D03*
X110525000Y-45200000D03*
X134340000Y-50937500D03*
X161325000Y-47275000D03*
X158750000Y-62550000D03*
X115550000Y-62250000D03*
X119640000Y-59185000D03*
X133200000Y-61315000D03*
X149280000Y-52715000D03*
X148625000Y-47125000D03*
X108000000Y-61975000D03*
X136070000Y-55835000D03*
X156220000Y-51865000D03*
X151150000Y-47175000D03*
X142730000Y-57445000D03*
X138420000Y-62715000D03*
X153750000Y-47175000D03*
X148530000Y-59015000D03*
X153730000Y-51835000D03*
X136100000Y-54565000D03*
X148550000Y-60685000D03*
X153600000Y-60625000D03*
X161240000Y-60385000D03*
X125730000Y-62665000D03*
X156225000Y-62525000D03*
X106525000Y-58325000D03*
X150360000Y-58935000D03*
X126460000Y-48945000D03*
X107825000Y-60250000D03*
X149280000Y-54395000D03*
X149230000Y-56655000D03*
X148600000Y-62645000D03*
X135925000Y-44950000D03*
X158725000Y-49775000D03*
X116680000Y-56245000D03*
X125130000Y-48265000D03*
X148590000Y-55385000D03*
X108625000Y-50825000D03*
X115550000Y-45150000D03*
X143390000Y-59065000D03*
X158690000Y-60495000D03*
X132330000Y-51005000D03*
X126280000Y-51165000D03*
X150400000Y-60665000D03*
X153600000Y-58485000D03*
X156225000Y-47225000D03*
X146550000Y-52955000D03*
X151120000Y-62665000D03*
X141120000Y-48755000D03*
X164000000Y-49675000D03*
X113050000Y-60650000D03*
X132350000Y-52395000D03*
X140920000Y-62645000D03*
X111325000Y-55450000D03*
X118100000Y-45125000D03*
X128225000Y-44975000D03*
X156200000Y-49825000D03*
X153675000Y-44900000D03*
X146100000Y-44900000D03*
X131080000Y-55655000D03*
X165300000Y-53175000D03*
X128280000Y-62725000D03*
X120650000Y-62675000D03*
X143490000Y-62665000D03*
X161190000Y-58485000D03*
X146020000Y-62615000D03*
X131050000Y-54325000D03*
X138525000Y-44925000D03*
X140860000Y-59065000D03*
X151090000Y-52605000D03*
X161150000Y-56075000D03*
X115950000Y-49885000D03*
X133350000Y-44950000D03*
X113025000Y-45125000D03*
X123480000Y-45715000D03*
X108830000Y-54815000D03*
X122390000Y-45865000D03*
X151125000Y-44900000D03*
X158775000Y-47225000D03*
X159080000Y-53405000D03*
X133340000Y-62715000D03*
X156150000Y-60535000D03*
X134770000Y-54585000D03*
X146230000Y-59085000D03*
X163875000Y-47300000D03*
X132410000Y-55605000D03*
X161275000Y-49750000D03*
X163850000Y-62525000D03*
X134830000Y-55815000D03*
X110400000Y-62325000D03*
X158770000Y-51855000D03*
X113620000Y-49885000D03*
X129500000Y-59000000D03*
X158775000Y-44875000D03*
X149660000Y-50305000D03*
X130990000Y-52395000D03*
X161300000Y-62525000D03*
%TO.N,/RESET*%
X122700000Y-60725000D03*
X152150000Y-55575000D03*
%TO.N,+3.3V*%
X136450000Y-53050000D03*
X116425000Y-60725000D03*
X138850000Y-56225000D03*
X129425000Y-50025000D03*
%TO.N,/FTDI_RX*%
X117925000Y-58225000D03*
X124975000Y-57125000D03*
%TO.N,/PA11*%
X126725000Y-57600000D03*
X125800000Y-60750000D03*
%TO.N,+5V*%
X120290000Y-51135000D03*
X111725000Y-51075000D03*
%TO.N,/FTDI_TX*%
X125225000Y-58100000D03*
X121325000Y-58200000D03*
%TO.N,/PA12*%
X127400000Y-58200000D03*
X127400000Y-60400000D03*
%TD*%
D22*
%TO.N,GND*%
X135375000Y-50937500D02*
X134340000Y-50937500D01*
D23*
X114190000Y-55625000D02*
X115205000Y-55625000D01*
X115900000Y-49835000D02*
X115950000Y-49885000D01*
X113600000Y-48987500D02*
X113600000Y-49865000D01*
X115205000Y-55625000D02*
X115230000Y-55600000D01*
D24*
X116680000Y-56245000D02*
X116680000Y-56055000D01*
D23*
X123475000Y-46637500D02*
X123475000Y-45720000D01*
X149235000Y-56650000D02*
X149230000Y-56655000D01*
X139950000Y-53145000D02*
X139950000Y-54130000D01*
X117610000Y-48555000D02*
X118930000Y-48555000D01*
X126465000Y-48950000D02*
X126460000Y-48945000D01*
X113600000Y-49865000D02*
X113620000Y-49885000D01*
X127362500Y-48950000D02*
X126465000Y-48950000D01*
X123475000Y-45720000D02*
X123480000Y-45715000D01*
D24*
X117047500Y-55687500D02*
X118625000Y-55687500D01*
D23*
X118930000Y-48555000D02*
X119075000Y-48700000D01*
X115900000Y-48987500D02*
X115900000Y-49835000D01*
X150137500Y-56650000D02*
X149235000Y-56650000D01*
D24*
X116680000Y-56055000D02*
X117047500Y-55687500D01*
D23*
X139950000Y-54130000D02*
X139970000Y-54150000D01*
%TO.N,/RESET*%
X123950000Y-61975000D02*
X127350000Y-61975000D01*
D25*
X152175000Y-60800000D02*
X151000000Y-61975000D01*
X152175000Y-56687500D02*
X152175000Y-60800000D01*
X152212500Y-56650000D02*
X152175000Y-56687500D01*
D23*
X122700000Y-60725000D02*
X123950000Y-61975000D01*
D25*
X151000000Y-61975000D02*
X127350000Y-61975000D01*
D26*
X152150000Y-56587500D02*
X152212500Y-56650000D01*
X152150000Y-55575000D02*
X152150000Y-56587500D01*
%TO.N,+3.3V*%
X112895000Y-58050000D02*
X113270000Y-58425000D01*
X107950000Y-58050000D02*
X112895000Y-58050000D01*
X124925000Y-53387500D02*
X133087500Y-53387500D01*
X134312500Y-53012500D02*
X135375000Y-53012500D01*
D23*
X136450000Y-53050000D02*
X135412500Y-53050000D01*
D26*
X124192500Y-52655000D02*
X124925000Y-53387500D01*
X107950000Y-58050000D02*
X106675000Y-59325000D01*
X133087500Y-53387500D02*
X133650000Y-53950000D01*
X106675000Y-59325000D02*
X106675000Y-63495000D01*
X133650000Y-49650000D02*
X132950000Y-48950000D01*
X134887500Y-57162500D02*
X139772500Y-57162500D01*
X118487500Y-53525000D02*
X118625000Y-53387500D01*
X119790000Y-52655000D02*
X124192500Y-52655000D01*
X114510000Y-60725000D02*
X116425000Y-60725000D01*
X121275000Y-48725000D02*
X123462500Y-48725000D01*
X124312500Y-48712500D02*
X124925000Y-49325000D01*
D23*
X135412500Y-53050000D02*
X135375000Y-53012500D01*
D26*
X139970000Y-56965000D02*
X139970000Y-56225000D01*
X118625000Y-53387500D02*
X119057500Y-53387500D01*
X132950000Y-48950000D02*
X129437500Y-48950000D01*
X133650000Y-55925000D02*
X134887500Y-57162500D01*
X133650000Y-52025000D02*
X133650000Y-49650000D01*
X133650000Y-53950000D02*
X133650000Y-55925000D01*
D23*
X139970000Y-56225000D02*
X138850000Y-56225000D01*
D26*
X133650000Y-53950000D02*
X133650000Y-52025000D01*
D23*
X129425000Y-50025000D02*
X129425000Y-48962500D01*
D26*
X113280000Y-57665000D02*
X113280000Y-54165000D01*
X113270000Y-58425000D02*
X113270000Y-59485000D01*
X123462500Y-48725000D02*
X123475000Y-48712500D01*
X115230000Y-53525000D02*
X118487500Y-53525000D01*
X115217500Y-53512500D02*
X115230000Y-53525000D01*
X124925000Y-49325000D02*
X124925000Y-53387500D01*
X113280000Y-54165000D02*
X113932500Y-53512500D01*
D23*
X129425000Y-48962500D02*
X129437500Y-48950000D01*
D26*
X123475000Y-48712500D02*
X124312500Y-48712500D01*
X133650000Y-52025000D02*
X133650000Y-52350000D01*
X133650000Y-52350000D02*
X134312500Y-53012500D01*
X113932500Y-53512500D02*
X115217500Y-53512500D01*
X113270000Y-59485000D02*
X114510000Y-60725000D01*
X119057500Y-53387500D02*
X119790000Y-52655000D01*
X139772500Y-57162500D02*
X139970000Y-56965000D01*
X112895000Y-58050000D02*
X113280000Y-57665000D01*
D25*
%TO.N,/FTDI_RX*%
X117925000Y-58225000D02*
X119025000Y-57125000D01*
X119025000Y-57125000D02*
X124975000Y-57125000D01*
%TO.N,/PA11*%
X126725000Y-59825000D02*
X125800000Y-60750000D01*
X126725000Y-57600000D02*
X126725000Y-59825000D01*
D27*
%TO.N,+5V*%
X120290000Y-51135000D02*
X118672500Y-51135000D01*
D26*
X113600000Y-51062500D02*
X115900000Y-51062500D01*
X111725000Y-51075000D02*
X111737500Y-51062500D01*
X115925000Y-51087500D02*
X115900000Y-51062500D01*
X118625000Y-51087500D02*
X115925000Y-51087500D01*
D27*
X118672500Y-51135000D02*
X118625000Y-51087500D01*
D26*
X111737500Y-51062500D02*
X113600000Y-51062500D01*
%TO.N,Net-(D3-A)*%
X119075000Y-46650000D02*
X121200000Y-46650000D01*
X121200000Y-46650000D02*
X121275000Y-46725000D01*
D25*
%TO.N,/FTDI_TX*%
X125225000Y-58100000D02*
X121425000Y-58100000D01*
X121425000Y-58100000D02*
X121325000Y-58200000D01*
%TO.N,/PA12*%
X127400000Y-58200000D02*
X127400000Y-60400000D01*
%TD*%
M02*
