%TF.GenerationSoftware,KiCad,Pcbnew,8.0.5*%
%TF.CreationDate,2024-12-22T00:31:45-07:00*%
%TF.ProjectId,2024_11_STM32F303_DaisyShape_v1_3,32303234-5f31-4315-9f53-544d33324633,rev?*%
%TF.SameCoordinates,Original*%
%TF.FileFunction,Legend,Bot*%
%TF.FilePolarity,Positive*%
%FSLAX46Y46*%
G04 Gerber Fmt 4.6, Leading zero omitted, Abs format (unit mm)*
G04 Created by KiCad (PCBNEW 8.0.5) date 2024-12-22 00:31:45*
%MOMM*%
%LPD*%
G01*
G04 APERTURE LIST*
%ADD10C,0.150000*%
%ADD11C,0.120000*%
G04 APERTURE END LIST*
D10*
X162289847Y-49524524D02*
X163289847Y-49857857D01*
X163289847Y-49857857D02*
X162289847Y-50191190D01*
X163242228Y-50905476D02*
X163289847Y-50810238D01*
X163289847Y-50810238D02*
X163289847Y-50619762D01*
X163289847Y-50619762D02*
X163242228Y-50524524D01*
X163242228Y-50524524D02*
X163146989Y-50476905D01*
X163146989Y-50476905D02*
X162766037Y-50476905D01*
X162766037Y-50476905D02*
X162670799Y-50524524D01*
X162670799Y-50524524D02*
X162623180Y-50619762D01*
X162623180Y-50619762D02*
X162623180Y-50810238D01*
X162623180Y-50810238D02*
X162670799Y-50905476D01*
X162670799Y-50905476D02*
X162766037Y-50953095D01*
X162766037Y-50953095D02*
X162861275Y-50953095D01*
X162861275Y-50953095D02*
X162956513Y-50476905D01*
X163289847Y-51381667D02*
X162623180Y-51381667D01*
X162813656Y-51381667D02*
X162718418Y-51429286D01*
X162718418Y-51429286D02*
X162670799Y-51476905D01*
X162670799Y-51476905D02*
X162623180Y-51572143D01*
X162623180Y-51572143D02*
X162623180Y-51667381D01*
X163242228Y-51953096D02*
X163289847Y-52048334D01*
X163289847Y-52048334D02*
X163289847Y-52238810D01*
X163289847Y-52238810D02*
X163242228Y-52334048D01*
X163242228Y-52334048D02*
X163146989Y-52381667D01*
X163146989Y-52381667D02*
X163099370Y-52381667D01*
X163099370Y-52381667D02*
X163004132Y-52334048D01*
X163004132Y-52334048D02*
X162956513Y-52238810D01*
X162956513Y-52238810D02*
X162956513Y-52095953D01*
X162956513Y-52095953D02*
X162908894Y-52000715D01*
X162908894Y-52000715D02*
X162813656Y-51953096D01*
X162813656Y-51953096D02*
X162766037Y-51953096D01*
X162766037Y-51953096D02*
X162670799Y-52000715D01*
X162670799Y-52000715D02*
X162623180Y-52095953D01*
X162623180Y-52095953D02*
X162623180Y-52238810D01*
X162623180Y-52238810D02*
X162670799Y-52334048D01*
X163289847Y-52810239D02*
X162623180Y-52810239D01*
X162289847Y-52810239D02*
X162337466Y-52762620D01*
X162337466Y-52762620D02*
X162385085Y-52810239D01*
X162385085Y-52810239D02*
X162337466Y-52857858D01*
X162337466Y-52857858D02*
X162289847Y-52810239D01*
X162289847Y-52810239D02*
X162385085Y-52810239D01*
X163289847Y-53429286D02*
X163242228Y-53334048D01*
X163242228Y-53334048D02*
X163194608Y-53286429D01*
X163194608Y-53286429D02*
X163099370Y-53238810D01*
X163099370Y-53238810D02*
X162813656Y-53238810D01*
X162813656Y-53238810D02*
X162718418Y-53286429D01*
X162718418Y-53286429D02*
X162670799Y-53334048D01*
X162670799Y-53334048D02*
X162623180Y-53429286D01*
X162623180Y-53429286D02*
X162623180Y-53572143D01*
X162623180Y-53572143D02*
X162670799Y-53667381D01*
X162670799Y-53667381D02*
X162718418Y-53715000D01*
X162718418Y-53715000D02*
X162813656Y-53762619D01*
X162813656Y-53762619D02*
X163099370Y-53762619D01*
X163099370Y-53762619D02*
X163194608Y-53715000D01*
X163194608Y-53715000D02*
X163242228Y-53667381D01*
X163242228Y-53667381D02*
X163289847Y-53572143D01*
X163289847Y-53572143D02*
X163289847Y-53429286D01*
X162623180Y-54191191D02*
X163289847Y-54191191D01*
X162718418Y-54191191D02*
X162670799Y-54238810D01*
X162670799Y-54238810D02*
X162623180Y-54334048D01*
X162623180Y-54334048D02*
X162623180Y-54476905D01*
X162623180Y-54476905D02*
X162670799Y-54572143D01*
X162670799Y-54572143D02*
X162766037Y-54619762D01*
X162766037Y-54619762D02*
X163289847Y-54619762D01*
X163289847Y-56381667D02*
X163289847Y-55810239D01*
X163289847Y-56095953D02*
X162289847Y-56095953D01*
X162289847Y-56095953D02*
X162432704Y-56000715D01*
X162432704Y-56000715D02*
X162527942Y-55905477D01*
X162527942Y-55905477D02*
X162575561Y-55810239D01*
X163194608Y-56810239D02*
X163242228Y-56857858D01*
X163242228Y-56857858D02*
X163289847Y-56810239D01*
X163289847Y-56810239D02*
X163242228Y-56762620D01*
X163242228Y-56762620D02*
X163194608Y-56810239D01*
X163194608Y-56810239D02*
X163289847Y-56810239D01*
X162289847Y-57191191D02*
X162289847Y-57810238D01*
X162289847Y-57810238D02*
X162670799Y-57476905D01*
X162670799Y-57476905D02*
X162670799Y-57619762D01*
X162670799Y-57619762D02*
X162718418Y-57715000D01*
X162718418Y-57715000D02*
X162766037Y-57762619D01*
X162766037Y-57762619D02*
X162861275Y-57810238D01*
X162861275Y-57810238D02*
X163099370Y-57810238D01*
X163099370Y-57810238D02*
X163194608Y-57762619D01*
X163194608Y-57762619D02*
X163242228Y-57715000D01*
X163242228Y-57715000D02*
X163289847Y-57619762D01*
X163289847Y-57619762D02*
X163289847Y-57334048D01*
X163289847Y-57334048D02*
X163242228Y-57238810D01*
X163242228Y-57238810D02*
X163194608Y-57191191D01*
X164899791Y-50310238D02*
X163899791Y-50310238D01*
X163899791Y-50310238D02*
X164899791Y-50881666D01*
X164899791Y-50881666D02*
X163899791Y-50881666D01*
X164899791Y-51500714D02*
X164852172Y-51405476D01*
X164852172Y-51405476D02*
X164804552Y-51357857D01*
X164804552Y-51357857D02*
X164709314Y-51310238D01*
X164709314Y-51310238D02*
X164423600Y-51310238D01*
X164423600Y-51310238D02*
X164328362Y-51357857D01*
X164328362Y-51357857D02*
X164280743Y-51405476D01*
X164280743Y-51405476D02*
X164233124Y-51500714D01*
X164233124Y-51500714D02*
X164233124Y-51643571D01*
X164233124Y-51643571D02*
X164280743Y-51738809D01*
X164280743Y-51738809D02*
X164328362Y-51786428D01*
X164328362Y-51786428D02*
X164423600Y-51834047D01*
X164423600Y-51834047D02*
X164709314Y-51834047D01*
X164709314Y-51834047D02*
X164804552Y-51786428D01*
X164804552Y-51786428D02*
X164852172Y-51738809D01*
X164852172Y-51738809D02*
X164899791Y-51643571D01*
X164899791Y-51643571D02*
X164899791Y-51500714D01*
X164233124Y-52167381D02*
X164899791Y-52405476D01*
X164899791Y-52405476D02*
X164233124Y-52643571D01*
X163995029Y-53738810D02*
X163947410Y-53786429D01*
X163947410Y-53786429D02*
X163899791Y-53881667D01*
X163899791Y-53881667D02*
X163899791Y-54119762D01*
X163899791Y-54119762D02*
X163947410Y-54215000D01*
X163947410Y-54215000D02*
X163995029Y-54262619D01*
X163995029Y-54262619D02*
X164090267Y-54310238D01*
X164090267Y-54310238D02*
X164185505Y-54310238D01*
X164185505Y-54310238D02*
X164328362Y-54262619D01*
X164328362Y-54262619D02*
X164899791Y-53691191D01*
X164899791Y-53691191D02*
X164899791Y-54310238D01*
X163899791Y-54929286D02*
X163899791Y-55024524D01*
X163899791Y-55024524D02*
X163947410Y-55119762D01*
X163947410Y-55119762D02*
X163995029Y-55167381D01*
X163995029Y-55167381D02*
X164090267Y-55215000D01*
X164090267Y-55215000D02*
X164280743Y-55262619D01*
X164280743Y-55262619D02*
X164518838Y-55262619D01*
X164518838Y-55262619D02*
X164709314Y-55215000D01*
X164709314Y-55215000D02*
X164804552Y-55167381D01*
X164804552Y-55167381D02*
X164852172Y-55119762D01*
X164852172Y-55119762D02*
X164899791Y-55024524D01*
X164899791Y-55024524D02*
X164899791Y-54929286D01*
X164899791Y-54929286D02*
X164852172Y-54834048D01*
X164852172Y-54834048D02*
X164804552Y-54786429D01*
X164804552Y-54786429D02*
X164709314Y-54738810D01*
X164709314Y-54738810D02*
X164518838Y-54691191D01*
X164518838Y-54691191D02*
X164280743Y-54691191D01*
X164280743Y-54691191D02*
X164090267Y-54738810D01*
X164090267Y-54738810D02*
X163995029Y-54786429D01*
X163995029Y-54786429D02*
X163947410Y-54834048D01*
X163947410Y-54834048D02*
X163899791Y-54929286D01*
X163995029Y-55643572D02*
X163947410Y-55691191D01*
X163947410Y-55691191D02*
X163899791Y-55786429D01*
X163899791Y-55786429D02*
X163899791Y-56024524D01*
X163899791Y-56024524D02*
X163947410Y-56119762D01*
X163947410Y-56119762D02*
X163995029Y-56167381D01*
X163995029Y-56167381D02*
X164090267Y-56215000D01*
X164090267Y-56215000D02*
X164185505Y-56215000D01*
X164185505Y-56215000D02*
X164328362Y-56167381D01*
X164328362Y-56167381D02*
X164899791Y-55595953D01*
X164899791Y-55595953D02*
X164899791Y-56215000D01*
X164233124Y-57072143D02*
X164899791Y-57072143D01*
X163852172Y-56834048D02*
X164566457Y-56595953D01*
X164566457Y-56595953D02*
X164566457Y-57215000D01*
X113554580Y-53974642D02*
X113602200Y-53927023D01*
X113602200Y-53927023D02*
X113649819Y-53784166D01*
X113649819Y-53784166D02*
X113649819Y-53688928D01*
X113649819Y-53688928D02*
X113602200Y-53546071D01*
X113602200Y-53546071D02*
X113506961Y-53450833D01*
X113506961Y-53450833D02*
X113411723Y-53403214D01*
X113411723Y-53403214D02*
X113221247Y-53355595D01*
X113221247Y-53355595D02*
X113078390Y-53355595D01*
X113078390Y-53355595D02*
X112887914Y-53403214D01*
X112887914Y-53403214D02*
X112792676Y-53450833D01*
X112792676Y-53450833D02*
X112697438Y-53546071D01*
X112697438Y-53546071D02*
X112649819Y-53688928D01*
X112649819Y-53688928D02*
X112649819Y-53784166D01*
X112649819Y-53784166D02*
X112697438Y-53927023D01*
X112697438Y-53927023D02*
X112745057Y-53974642D01*
X113649819Y-54927023D02*
X113649819Y-54355595D01*
X113649819Y-54641309D02*
X112649819Y-54641309D01*
X112649819Y-54641309D02*
X112792676Y-54546071D01*
X112792676Y-54546071D02*
X112887914Y-54450833D01*
X112887914Y-54450833D02*
X112935533Y-54355595D01*
X113078390Y-55498452D02*
X113030771Y-55403214D01*
X113030771Y-55403214D02*
X112983152Y-55355595D01*
X112983152Y-55355595D02*
X112887914Y-55307976D01*
X112887914Y-55307976D02*
X112840295Y-55307976D01*
X112840295Y-55307976D02*
X112745057Y-55355595D01*
X112745057Y-55355595D02*
X112697438Y-55403214D01*
X112697438Y-55403214D02*
X112649819Y-55498452D01*
X112649819Y-55498452D02*
X112649819Y-55688928D01*
X112649819Y-55688928D02*
X112697438Y-55784166D01*
X112697438Y-55784166D02*
X112745057Y-55831785D01*
X112745057Y-55831785D02*
X112840295Y-55879404D01*
X112840295Y-55879404D02*
X112887914Y-55879404D01*
X112887914Y-55879404D02*
X112983152Y-55831785D01*
X112983152Y-55831785D02*
X113030771Y-55784166D01*
X113030771Y-55784166D02*
X113078390Y-55688928D01*
X113078390Y-55688928D02*
X113078390Y-55498452D01*
X113078390Y-55498452D02*
X113126009Y-55403214D01*
X113126009Y-55403214D02*
X113173628Y-55355595D01*
X113173628Y-55355595D02*
X113268866Y-55307976D01*
X113268866Y-55307976D02*
X113459342Y-55307976D01*
X113459342Y-55307976D02*
X113554580Y-55355595D01*
X113554580Y-55355595D02*
X113602200Y-55403214D01*
X113602200Y-55403214D02*
X113649819Y-55498452D01*
X113649819Y-55498452D02*
X113649819Y-55688928D01*
X113649819Y-55688928D02*
X113602200Y-55784166D01*
X113602200Y-55784166D02*
X113554580Y-55831785D01*
X113554580Y-55831785D02*
X113459342Y-55879404D01*
X113459342Y-55879404D02*
X113268866Y-55879404D01*
X113268866Y-55879404D02*
X113173628Y-55831785D01*
X113173628Y-55831785D02*
X113126009Y-55784166D01*
X113126009Y-55784166D02*
X113078390Y-55688928D01*
X125834580Y-45582142D02*
X125882200Y-45534523D01*
X125882200Y-45534523D02*
X125929819Y-45391666D01*
X125929819Y-45391666D02*
X125929819Y-45296428D01*
X125929819Y-45296428D02*
X125882200Y-45153571D01*
X125882200Y-45153571D02*
X125786961Y-45058333D01*
X125786961Y-45058333D02*
X125691723Y-45010714D01*
X125691723Y-45010714D02*
X125501247Y-44963095D01*
X125501247Y-44963095D02*
X125358390Y-44963095D01*
X125358390Y-44963095D02*
X125167914Y-45010714D01*
X125167914Y-45010714D02*
X125072676Y-45058333D01*
X125072676Y-45058333D02*
X124977438Y-45153571D01*
X124977438Y-45153571D02*
X124929819Y-45296428D01*
X124929819Y-45296428D02*
X124929819Y-45391666D01*
X124929819Y-45391666D02*
X124977438Y-45534523D01*
X124977438Y-45534523D02*
X125025057Y-45582142D01*
X125929819Y-46534523D02*
X125929819Y-45963095D01*
X125929819Y-46248809D02*
X124929819Y-46248809D01*
X124929819Y-46248809D02*
X125072676Y-46153571D01*
X125072676Y-46153571D02*
X125167914Y-46058333D01*
X125167914Y-46058333D02*
X125215533Y-45963095D01*
X124929819Y-46867857D02*
X124929819Y-47534523D01*
X124929819Y-47534523D02*
X125929819Y-47105952D01*
X128591666Y-47559580D02*
X128639285Y-47607200D01*
X128639285Y-47607200D02*
X128782142Y-47654819D01*
X128782142Y-47654819D02*
X128877380Y-47654819D01*
X128877380Y-47654819D02*
X129020237Y-47607200D01*
X129020237Y-47607200D02*
X129115475Y-47511961D01*
X129115475Y-47511961D02*
X129163094Y-47416723D01*
X129163094Y-47416723D02*
X129210713Y-47226247D01*
X129210713Y-47226247D02*
X129210713Y-47083390D01*
X129210713Y-47083390D02*
X129163094Y-46892914D01*
X129163094Y-46892914D02*
X129115475Y-46797676D01*
X129115475Y-46797676D02*
X129020237Y-46702438D01*
X129020237Y-46702438D02*
X128877380Y-46654819D01*
X128877380Y-46654819D02*
X128782142Y-46654819D01*
X128782142Y-46654819D02*
X128639285Y-46702438D01*
X128639285Y-46702438D02*
X128591666Y-46750057D01*
X127686904Y-46654819D02*
X128163094Y-46654819D01*
X128163094Y-46654819D02*
X128210713Y-47131009D01*
X128210713Y-47131009D02*
X128163094Y-47083390D01*
X128163094Y-47083390D02*
X128067856Y-47035771D01*
X128067856Y-47035771D02*
X127829761Y-47035771D01*
X127829761Y-47035771D02*
X127734523Y-47083390D01*
X127734523Y-47083390D02*
X127686904Y-47131009D01*
X127686904Y-47131009D02*
X127639285Y-47226247D01*
X127639285Y-47226247D02*
X127639285Y-47464342D01*
X127639285Y-47464342D02*
X127686904Y-47559580D01*
X127686904Y-47559580D02*
X127734523Y-47607200D01*
X127734523Y-47607200D02*
X127829761Y-47654819D01*
X127829761Y-47654819D02*
X128067856Y-47654819D01*
X128067856Y-47654819D02*
X128163094Y-47607200D01*
X128163094Y-47607200D02*
X128210713Y-47559580D01*
X155172857Y-56964580D02*
X155220476Y-57012200D01*
X155220476Y-57012200D02*
X155363333Y-57059819D01*
X155363333Y-57059819D02*
X155458571Y-57059819D01*
X155458571Y-57059819D02*
X155601428Y-57012200D01*
X155601428Y-57012200D02*
X155696666Y-56916961D01*
X155696666Y-56916961D02*
X155744285Y-56821723D01*
X155744285Y-56821723D02*
X155791904Y-56631247D01*
X155791904Y-56631247D02*
X155791904Y-56488390D01*
X155791904Y-56488390D02*
X155744285Y-56297914D01*
X155744285Y-56297914D02*
X155696666Y-56202676D01*
X155696666Y-56202676D02*
X155601428Y-56107438D01*
X155601428Y-56107438D02*
X155458571Y-56059819D01*
X155458571Y-56059819D02*
X155363333Y-56059819D01*
X155363333Y-56059819D02*
X155220476Y-56107438D01*
X155220476Y-56107438D02*
X155172857Y-56155057D01*
X154791904Y-56155057D02*
X154744285Y-56107438D01*
X154744285Y-56107438D02*
X154649047Y-56059819D01*
X154649047Y-56059819D02*
X154410952Y-56059819D01*
X154410952Y-56059819D02*
X154315714Y-56107438D01*
X154315714Y-56107438D02*
X154268095Y-56155057D01*
X154268095Y-56155057D02*
X154220476Y-56250295D01*
X154220476Y-56250295D02*
X154220476Y-56345533D01*
X154220476Y-56345533D02*
X154268095Y-56488390D01*
X154268095Y-56488390D02*
X154839523Y-57059819D01*
X154839523Y-57059819D02*
X154220476Y-57059819D01*
X153268095Y-57059819D02*
X153839523Y-57059819D01*
X153553809Y-57059819D02*
X153553809Y-56059819D01*
X153553809Y-56059819D02*
X153649047Y-56202676D01*
X153649047Y-56202676D02*
X153744285Y-56297914D01*
X153744285Y-56297914D02*
X153839523Y-56345533D01*
X120866666Y-45529819D02*
X121199999Y-45053628D01*
X121438094Y-45529819D02*
X121438094Y-44529819D01*
X121438094Y-44529819D02*
X121057142Y-44529819D01*
X121057142Y-44529819D02*
X120961904Y-44577438D01*
X120961904Y-44577438D02*
X120914285Y-44625057D01*
X120914285Y-44625057D02*
X120866666Y-44720295D01*
X120866666Y-44720295D02*
X120866666Y-44863152D01*
X120866666Y-44863152D02*
X120914285Y-44958390D01*
X120914285Y-44958390D02*
X120961904Y-45006009D01*
X120961904Y-45006009D02*
X121057142Y-45053628D01*
X121057142Y-45053628D02*
X121438094Y-45053628D01*
X119961904Y-44529819D02*
X120438094Y-44529819D01*
X120438094Y-44529819D02*
X120485713Y-45006009D01*
X120485713Y-45006009D02*
X120438094Y-44958390D01*
X120438094Y-44958390D02*
X120342856Y-44910771D01*
X120342856Y-44910771D02*
X120104761Y-44910771D01*
X120104761Y-44910771D02*
X120009523Y-44958390D01*
X120009523Y-44958390D02*
X119961904Y-45006009D01*
X119961904Y-45006009D02*
X119914285Y-45101247D01*
X119914285Y-45101247D02*
X119914285Y-45339342D01*
X119914285Y-45339342D02*
X119961904Y-45434580D01*
X119961904Y-45434580D02*
X120009523Y-45482200D01*
X120009523Y-45482200D02*
X120104761Y-45529819D01*
X120104761Y-45529819D02*
X120342856Y-45529819D01*
X120342856Y-45529819D02*
X120438094Y-45482200D01*
X120438094Y-45482200D02*
X120485713Y-45434580D01*
X115567857Y-47459580D02*
X115615476Y-47507200D01*
X115615476Y-47507200D02*
X115758333Y-47554819D01*
X115758333Y-47554819D02*
X115853571Y-47554819D01*
X115853571Y-47554819D02*
X115996428Y-47507200D01*
X115996428Y-47507200D02*
X116091666Y-47411961D01*
X116091666Y-47411961D02*
X116139285Y-47316723D01*
X116139285Y-47316723D02*
X116186904Y-47126247D01*
X116186904Y-47126247D02*
X116186904Y-46983390D01*
X116186904Y-46983390D02*
X116139285Y-46792914D01*
X116139285Y-46792914D02*
X116091666Y-46697676D01*
X116091666Y-46697676D02*
X115996428Y-46602438D01*
X115996428Y-46602438D02*
X115853571Y-46554819D01*
X115853571Y-46554819D02*
X115758333Y-46554819D01*
X115758333Y-46554819D02*
X115615476Y-46602438D01*
X115615476Y-46602438D02*
X115567857Y-46650057D01*
X114615476Y-47554819D02*
X115186904Y-47554819D01*
X114901190Y-47554819D02*
X114901190Y-46554819D01*
X114901190Y-46554819D02*
X114996428Y-46697676D01*
X114996428Y-46697676D02*
X115091666Y-46792914D01*
X115091666Y-46792914D02*
X115186904Y-46840533D01*
X113710714Y-46554819D02*
X114186904Y-46554819D01*
X114186904Y-46554819D02*
X114234523Y-47031009D01*
X114234523Y-47031009D02*
X114186904Y-46983390D01*
X114186904Y-46983390D02*
X114091666Y-46935771D01*
X114091666Y-46935771D02*
X113853571Y-46935771D01*
X113853571Y-46935771D02*
X113758333Y-46983390D01*
X113758333Y-46983390D02*
X113710714Y-47031009D01*
X113710714Y-47031009D02*
X113663095Y-47126247D01*
X113663095Y-47126247D02*
X113663095Y-47364342D01*
X113663095Y-47364342D02*
X113710714Y-47459580D01*
X113710714Y-47459580D02*
X113758333Y-47507200D01*
X113758333Y-47507200D02*
X113853571Y-47554819D01*
X113853571Y-47554819D02*
X114091666Y-47554819D01*
X114091666Y-47554819D02*
X114186904Y-47507200D01*
X114186904Y-47507200D02*
X114234523Y-47459580D01*
X133959580Y-51783333D02*
X134007200Y-51735714D01*
X134007200Y-51735714D02*
X134054819Y-51592857D01*
X134054819Y-51592857D02*
X134054819Y-51497619D01*
X134054819Y-51497619D02*
X134007200Y-51354762D01*
X134007200Y-51354762D02*
X133911961Y-51259524D01*
X133911961Y-51259524D02*
X133816723Y-51211905D01*
X133816723Y-51211905D02*
X133626247Y-51164286D01*
X133626247Y-51164286D02*
X133483390Y-51164286D01*
X133483390Y-51164286D02*
X133292914Y-51211905D01*
X133292914Y-51211905D02*
X133197676Y-51259524D01*
X133197676Y-51259524D02*
X133102438Y-51354762D01*
X133102438Y-51354762D02*
X133054819Y-51497619D01*
X133054819Y-51497619D02*
X133054819Y-51592857D01*
X133054819Y-51592857D02*
X133102438Y-51735714D01*
X133102438Y-51735714D02*
X133150057Y-51783333D01*
X133054819Y-52640476D02*
X133054819Y-52450000D01*
X133054819Y-52450000D02*
X133102438Y-52354762D01*
X133102438Y-52354762D02*
X133150057Y-52307143D01*
X133150057Y-52307143D02*
X133292914Y-52211905D01*
X133292914Y-52211905D02*
X133483390Y-52164286D01*
X133483390Y-52164286D02*
X133864342Y-52164286D01*
X133864342Y-52164286D02*
X133959580Y-52211905D01*
X133959580Y-52211905D02*
X134007200Y-52259524D01*
X134007200Y-52259524D02*
X134054819Y-52354762D01*
X134054819Y-52354762D02*
X134054819Y-52545238D01*
X134054819Y-52545238D02*
X134007200Y-52640476D01*
X134007200Y-52640476D02*
X133959580Y-52688095D01*
X133959580Y-52688095D02*
X133864342Y-52735714D01*
X133864342Y-52735714D02*
X133626247Y-52735714D01*
X133626247Y-52735714D02*
X133531009Y-52688095D01*
X133531009Y-52688095D02*
X133483390Y-52640476D01*
X133483390Y-52640476D02*
X133435771Y-52545238D01*
X133435771Y-52545238D02*
X133435771Y-52354762D01*
X133435771Y-52354762D02*
X133483390Y-52259524D01*
X133483390Y-52259524D02*
X133531009Y-52211905D01*
X133531009Y-52211905D02*
X133626247Y-52164286D01*
X117804819Y-46136905D02*
X116804819Y-46136905D01*
X116804819Y-46136905D02*
X116804819Y-46375000D01*
X116804819Y-46375000D02*
X116852438Y-46517857D01*
X116852438Y-46517857D02*
X116947676Y-46613095D01*
X116947676Y-46613095D02*
X117042914Y-46660714D01*
X117042914Y-46660714D02*
X117233390Y-46708333D01*
X117233390Y-46708333D02*
X117376247Y-46708333D01*
X117376247Y-46708333D02*
X117566723Y-46660714D01*
X117566723Y-46660714D02*
X117661961Y-46613095D01*
X117661961Y-46613095D02*
X117757200Y-46517857D01*
X117757200Y-46517857D02*
X117804819Y-46375000D01*
X117804819Y-46375000D02*
X117804819Y-46136905D01*
X116804819Y-47041667D02*
X116804819Y-47660714D01*
X116804819Y-47660714D02*
X117185771Y-47327381D01*
X117185771Y-47327381D02*
X117185771Y-47470238D01*
X117185771Y-47470238D02*
X117233390Y-47565476D01*
X117233390Y-47565476D02*
X117281009Y-47613095D01*
X117281009Y-47613095D02*
X117376247Y-47660714D01*
X117376247Y-47660714D02*
X117614342Y-47660714D01*
X117614342Y-47660714D02*
X117709580Y-47613095D01*
X117709580Y-47613095D02*
X117757200Y-47565476D01*
X117757200Y-47565476D02*
X117804819Y-47470238D01*
X117804819Y-47470238D02*
X117804819Y-47184524D01*
X117804819Y-47184524D02*
X117757200Y-47089286D01*
X117757200Y-47089286D02*
X117709580Y-47041667D01*
X142129580Y-55095833D02*
X142177200Y-55048214D01*
X142177200Y-55048214D02*
X142224819Y-54905357D01*
X142224819Y-54905357D02*
X142224819Y-54810119D01*
X142224819Y-54810119D02*
X142177200Y-54667262D01*
X142177200Y-54667262D02*
X142081961Y-54572024D01*
X142081961Y-54572024D02*
X141986723Y-54524405D01*
X141986723Y-54524405D02*
X141796247Y-54476786D01*
X141796247Y-54476786D02*
X141653390Y-54476786D01*
X141653390Y-54476786D02*
X141462914Y-54524405D01*
X141462914Y-54524405D02*
X141367676Y-54572024D01*
X141367676Y-54572024D02*
X141272438Y-54667262D01*
X141272438Y-54667262D02*
X141224819Y-54810119D01*
X141224819Y-54810119D02*
X141224819Y-54905357D01*
X141224819Y-54905357D02*
X141272438Y-55048214D01*
X141272438Y-55048214D02*
X141320057Y-55095833D01*
X141558152Y-55952976D02*
X142224819Y-55952976D01*
X141177200Y-55714881D02*
X141891485Y-55476786D01*
X141891485Y-55476786D02*
X141891485Y-56095833D01*
X122521904Y-55039819D02*
X122521904Y-55849342D01*
X122521904Y-55849342D02*
X122474285Y-55944580D01*
X122474285Y-55944580D02*
X122426666Y-55992200D01*
X122426666Y-55992200D02*
X122331428Y-56039819D01*
X122331428Y-56039819D02*
X122140952Y-56039819D01*
X122140952Y-56039819D02*
X122045714Y-55992200D01*
X122045714Y-55992200D02*
X121998095Y-55944580D01*
X121998095Y-55944580D02*
X121950476Y-55849342D01*
X121950476Y-55849342D02*
X121950476Y-55039819D01*
X121045714Y-55373152D02*
X121045714Y-56039819D01*
X121283809Y-54992200D02*
X121521904Y-55706485D01*
X121521904Y-55706485D02*
X120902857Y-55706485D01*
X112134580Y-47832142D02*
X112182200Y-47784523D01*
X112182200Y-47784523D02*
X112229819Y-47641666D01*
X112229819Y-47641666D02*
X112229819Y-47546428D01*
X112229819Y-47546428D02*
X112182200Y-47403571D01*
X112182200Y-47403571D02*
X112086961Y-47308333D01*
X112086961Y-47308333D02*
X111991723Y-47260714D01*
X111991723Y-47260714D02*
X111801247Y-47213095D01*
X111801247Y-47213095D02*
X111658390Y-47213095D01*
X111658390Y-47213095D02*
X111467914Y-47260714D01*
X111467914Y-47260714D02*
X111372676Y-47308333D01*
X111372676Y-47308333D02*
X111277438Y-47403571D01*
X111277438Y-47403571D02*
X111229819Y-47546428D01*
X111229819Y-47546428D02*
X111229819Y-47641666D01*
X111229819Y-47641666D02*
X111277438Y-47784523D01*
X111277438Y-47784523D02*
X111325057Y-47832142D01*
X112229819Y-48784523D02*
X112229819Y-48213095D01*
X112229819Y-48498809D02*
X111229819Y-48498809D01*
X111229819Y-48498809D02*
X111372676Y-48403571D01*
X111372676Y-48403571D02*
X111467914Y-48308333D01*
X111467914Y-48308333D02*
X111515533Y-48213095D01*
X111229819Y-49641666D02*
X111229819Y-49451190D01*
X111229819Y-49451190D02*
X111277438Y-49355952D01*
X111277438Y-49355952D02*
X111325057Y-49308333D01*
X111325057Y-49308333D02*
X111467914Y-49213095D01*
X111467914Y-49213095D02*
X111658390Y-49165476D01*
X111658390Y-49165476D02*
X112039342Y-49165476D01*
X112039342Y-49165476D02*
X112134580Y-49213095D01*
X112134580Y-49213095D02*
X112182200Y-49260714D01*
X112182200Y-49260714D02*
X112229819Y-49355952D01*
X112229819Y-49355952D02*
X112229819Y-49546428D01*
X112229819Y-49546428D02*
X112182200Y-49641666D01*
X112182200Y-49641666D02*
X112134580Y-49689285D01*
X112134580Y-49689285D02*
X112039342Y-49736904D01*
X112039342Y-49736904D02*
X111801247Y-49736904D01*
X111801247Y-49736904D02*
X111706009Y-49689285D01*
X111706009Y-49689285D02*
X111658390Y-49641666D01*
X111658390Y-49641666D02*
X111610771Y-49546428D01*
X111610771Y-49546428D02*
X111610771Y-49355952D01*
X111610771Y-49355952D02*
X111658390Y-49260714D01*
X111658390Y-49260714D02*
X111706009Y-49213095D01*
X111706009Y-49213095D02*
X111801247Y-49165476D01*
D11*
%TO.C,C18*%
X114495000Y-54823752D02*
X114495000Y-54301248D01*
X115965000Y-54823752D02*
X115965000Y-54301248D01*
%TO.C,C17*%
X122740000Y-47413748D02*
X122740000Y-47936252D01*
X124210000Y-47413748D02*
X124210000Y-47936252D01*
%TO.C,C5*%
X128138748Y-48215000D02*
X128661252Y-48215000D01*
X128138748Y-49685000D02*
X128661252Y-49685000D01*
%TO.C,C21*%
X150913748Y-55915000D02*
X151436252Y-55915000D01*
X150913748Y-57385000D02*
X151436252Y-57385000D01*
%TO.C,R5*%
X120540000Y-47952064D02*
X120540000Y-47497936D01*
X122010000Y-47952064D02*
X122010000Y-47497936D01*
%TO.C,C15*%
X115165000Y-49763748D02*
X115165000Y-50286252D01*
X116635000Y-49763748D02*
X116635000Y-50286252D01*
%TO.C,C6*%
X134640000Y-51713748D02*
X134640000Y-52236252D01*
X136110000Y-51713748D02*
X136110000Y-52236252D01*
%TO.C,D3*%
X118115000Y-46675000D02*
X118115000Y-49535000D01*
X118115000Y-49535000D02*
X120035000Y-49535000D01*
X120035000Y-49535000D02*
X120035000Y-46675000D01*
%TO.C,C4*%
X139235000Y-54926248D02*
X139235000Y-55448752D01*
X140705000Y-54926248D02*
X140705000Y-55448752D01*
%TO.C,U4*%
X123685000Y-49977500D02*
X119925000Y-49977500D01*
X123685000Y-51237500D02*
X123685000Y-49977500D01*
X123685000Y-55537500D02*
X123685000Y-56797500D01*
X123685000Y-56797500D02*
X119925000Y-56797500D01*
X118885000Y-57027500D02*
X118405000Y-57027500D01*
X118645000Y-56697500D01*
X118885000Y-57027500D01*
G36*
X118885000Y-57027500D02*
G01*
X118405000Y-57027500D01*
X118645000Y-56697500D01*
X118885000Y-57027500D01*
G37*
%TO.C,C16*%
X112865000Y-49763748D02*
X112865000Y-50286252D01*
X114335000Y-49763748D02*
X114335000Y-50286252D01*
%TD*%
M02*
