M48
; DRILL file {KiCad 8.0.5} date 2024-12-22T00:31:44-0700
; FORMAT={-:-/ absolute / inch / decimal}
; #@! TF.CreationDate,2024-12-22T00:31:44-07:00
; #@! TF.GenerationSoftware,Kicad,Pcbnew,8.0.5
; #@! TF.FileFunction,Plated,1,4,PTH
FMAT,2
INCH
; #@! TA.AperFunction,Plated,PTH,ViaDrill
T1C0.0118
; #@! TA.AperFunction,Plated,PTH,ComponentDrill
T2C0.0217
; #@! TA.AperFunction,Plated,PTH,ComponentDrill
T3C0.0236
; #@! TA.AperFunction,Plated,PTH,ComponentDrill
T4C0.0394
%
G90
G05
T1
X4.1939Y-2.2963
X4.2451Y-2.372
X4.252Y-1.7805
X4.252Y-1.8504
X4.252Y-2.44
X4.2766Y-2.001
X4.2772Y-2.2136
X4.2844Y-2.3199
X4.2846Y-2.1581
X4.3455Y-2.3898
X4.3465Y-2.4537
X4.3514Y-1.7795
X4.3819Y-2.3199
X4.3829Y-2.1831
X4.3986Y-2.0108
X4.4498Y-1.7766
X4.4498Y-2.4498
X4.4508Y-2.3878
X4.4732Y-1.964
X4.4957Y-2.19
X4.5492Y-1.7776
X4.5492Y-2.4508
X4.565Y-1.964
X4.5837Y-2.3907
X4.5937Y-2.2144
X4.6303Y-1.9116
X4.6427Y-2.2923
X4.6496Y-1.7766
X4.6496Y-2.4646
X4.7102Y-2.3301
X4.7319Y-2.1222
X4.7358Y-2.0132
X4.75Y-2.4675
X4.7697Y-2.0289
X4.7766Y-2.2913
X4.8185Y-1.8057
X4.8307Y-2.3907
X4.85Y-2.4663
X4.8614Y-1.7998
X4.9203Y-2.249
X4.9264Y-1.9002
X4.9301Y-2.2874
X4.95Y-2.4671
X4.9528Y-2.3917
X4.9717Y-2.0144
X4.9787Y-1.927
X4.9892Y-2.2677
X5.0157Y-2.2913
X5.0157Y-2.378
X5.0482Y-1.7707
X5.0504Y-2.4695
X5.0955Y-1.9695
X5.0984Y-2.3228
X5.1492Y-1.9805
X5.1492Y-2.4663
X5.1496Y-1.7697
X5.1571Y-2.0628
X5.1594Y-2.1388
X5.1606Y-2.1911
X5.2098Y-2.0081
X5.2106Y-2.0628
X5.2118Y-2.138
X5.213Y-2.1892
X5.2441Y-2.414
X5.2496Y-2.4691
X5.25Y-1.7697
X5.289Y-2.0054
X5.3059Y-2.149
X5.3083Y-2.1974
X5.3514Y-1.7697
X5.3571Y-2.1982
X5.3583Y-2.1482
X5.3697Y-2.3096
X5.372Y-2.0886
X5.4496Y-2.4691
X5.4518Y-1.9232
X5.4537Y-1.7687
X5.4665Y-2.2136
X5.5098Y-2.0923
X5.5457Y-2.3254
X5.548Y-2.4663
X5.5531Y-1.7687
X5.5559Y-1.9195
X5.6193Y-2.2616
X5.6453Y-2.3254
X5.6492Y-2.4671
X5.6504Y-1.8518
X5.6506Y-1.7687
X5.7224Y-2.1364
X5.7488Y-2.4652
X5.752Y-1.7677
X5.7571Y-1.8533
X5.7571Y-2.3262
X5.7571Y-2.3915
X5.7697Y-2.0848
X5.8476Y-2.3234
X5.8484Y-2.3892
X5.85Y-2.1805
X5.8504Y-2.4663
X5.8514Y-1.8553
X5.8524Y-1.7687
X5.8752Y-2.2305
X5.8772Y-2.0754
X5.8772Y-2.1415
X5.8921Y-1.9805
X5.9197Y-2.3203
X5.9213Y-2.3884
X5.9484Y-2.0711
X5.9496Y-2.4671
X5.9498Y-1.7677
X5.9508Y-1.8573
X5.9902Y-2.188
X6.0472Y-2.3026
X6.0472Y-2.3868
X6.0482Y-2.4626
X6.0502Y-1.7677
X6.0524Y-2.0407
X6.0531Y-1.8573
X6.1476Y-2.3833
X6.1484Y-2.3018
X6.1496Y-1.7677
X6.1496Y-1.9616
X6.1504Y-2.0419
X6.1506Y-1.8593
X6.1506Y-2.4616
X6.2476Y-2.3817
X6.249Y-1.9596
X6.25Y-2.4626
X6.2508Y-2.0415
X6.251Y-1.7667
X6.251Y-1.8593
X6.2516Y-2.3006
X6.263Y-2.1026
X6.3445Y-2.2077
X6.3461Y-2.3026
X6.348Y-2.3774
X6.3494Y-1.9587
X6.3504Y-1.7677
X6.3504Y-2.4616
X6.3508Y-2.04
X6.3514Y-1.8612
X6.4496Y-2.3026
X6.4498Y-1.7648
X6.4508Y-2.4616
X6.4518Y-1.8622
X6.452Y-2.377
X6.4567Y-1.9557
X6.5079Y-2.0935
T4
X4.1998Y-1.7124
X4.1998Y-2.4998
X4.2998Y-1.7124
X4.2998Y-2.4998
X4.3998Y-1.7124
X4.3998Y-2.4998
X4.4998Y-1.7124
X4.4998Y-2.4998
X4.5998Y-1.7124
X4.5998Y-2.4998
X4.6998Y-1.7124
X4.6998Y-2.4998
X4.7998Y-1.7124
X4.7998Y-2.4998
X4.8998Y-1.7124
X4.8998Y-2.4998
X4.9998Y-1.7124
X4.9998Y-2.4998
X5.0998Y-1.7124
X5.0998Y-2.4998
X5.1998Y-1.7124
X5.1998Y-2.4998
X5.2998Y-1.7124
X5.2998Y-2.4998
X5.3998Y-1.7124
X5.3998Y-2.4998
X5.4998Y-1.7124
X5.4998Y-2.4998
X5.5998Y-1.7124
X5.5998Y-2.4998
X5.6998Y-1.7124
X5.6998Y-2.4998
X5.7998Y-1.7124
X5.7998Y-2.4998
X5.8998Y-1.7124
X5.8998Y-2.4998
X5.9998Y-1.7124
X5.9998Y-2.4998
X6.0998Y-1.7124
X6.0998Y-2.4998
X6.1998Y-1.7124
X6.1998Y-2.4998
X6.2998Y-1.7124
X6.2998Y-2.4998
X6.3998Y-1.7124
X6.3998Y-2.4998
X6.4998Y-1.7124
X6.4998Y-2.4998
T2
G00X4.2313Y-1.9675
M15
G01X4.2057Y-1.9675
M16
G05
G00X4.2313Y-2.2451
M15
G01X4.2057Y-2.2451
M16
G05
T3
G00X4.3248Y-2.002
M15
G01X4.3248Y-2.0138
M16
G05
G00X4.3248Y-2.1988
M15
G01X4.3248Y-2.2106
M16
G05
M30
