%TF.GenerationSoftware,KiCad,Pcbnew,8.0.5*%
%TF.CreationDate,2024-12-22T00:31:45-07:00*%
%TF.ProjectId,2024_11_STM32F303_DaisyShape_v1_3,32303234-5f31-4315-9f53-544d33324633,rev?*%
%TF.SameCoordinates,Original*%
%TF.FileFunction,Soldermask,Top*%
%TF.FilePolarity,Negative*%
%FSLAX46Y46*%
G04 Gerber Fmt 4.6, Leading zero omitted, Abs format (unit mm)*
G04 Created by KiCad (PCBNEW 8.0.5) date 2024-12-22 00:31:45*
%MOMM*%
%LPD*%
G01*
G04 APERTURE LIST*
G04 Aperture macros list*
%AMRoundRect*
0 Rectangle with rounded corners*
0 $1 Rounding radius*
0 $2 $3 $4 $5 $6 $7 $8 $9 X,Y pos of 4 corners*
0 Add a 4 corners polygon primitive as box body*
4,1,4,$2,$3,$4,$5,$6,$7,$8,$9,$2,$3,0*
0 Add four circle primitives for the rounded corners*
1,1,$1+$1,$2,$3*
1,1,$1+$1,$4,$5*
1,1,$1+$1,$6,$7*
1,1,$1+$1,$8,$9*
0 Add four rect primitives between the rounded corners*
20,1,$1+$1,$2,$3,$4,$5,0*
20,1,$1+$1,$4,$5,$6,$7,0*
20,1,$1+$1,$6,$7,$8,$9,0*
20,1,$1+$1,$8,$9,$2,$3,0*%
G04 Aperture macros list end*
%ADD10C,0.010000*%
%ADD11RoundRect,0.250000X0.450000X-0.325000X0.450000X0.325000X-0.450000X0.325000X-0.450000X-0.325000X0*%
%ADD12RoundRect,0.250000X0.350000X0.450000X-0.350000X0.450000X-0.350000X-0.450000X0.350000X-0.450000X0*%
%ADD13RoundRect,0.250000X0.325000X0.450000X-0.325000X0.450000X-0.325000X-0.450000X0.325000X-0.450000X0*%
%ADD14RoundRect,0.250000X-0.475000X0.337500X-0.475000X-0.337500X0.475000X-0.337500X0.475000X0.337500X0*%
%ADD15R,1.200000X1.400000*%
%ADD16RoundRect,0.250000X0.337500X0.475000X-0.337500X0.475000X-0.337500X-0.475000X0.337500X-0.475000X0*%
%ADD17RoundRect,0.250000X0.450000X-0.350000X0.450000X0.350000X-0.450000X0.350000X-0.450000X-0.350000X0*%
%ADD18RoundRect,0.250000X-0.337500X-0.475000X0.337500X-0.475000X0.337500X0.475000X-0.337500X0.475000X0*%
%ADD19RoundRect,0.125000X0.625000X0.125000X-0.625000X0.125000X-0.625000X-0.125000X0.625000X-0.125000X0*%
%ADD20RoundRect,0.125000X0.125000X0.625000X-0.125000X0.625000X-0.125000X-0.625000X0.125000X-0.625000X0*%
%ADD21RoundRect,0.102000X-0.675000X0.200000X-0.675000X-0.200000X0.675000X-0.200000X0.675000X0.200000X0*%
%ADD22O,1.004000X1.804000*%
%ADD23O,1.704000X0.954000*%
%ADD24RoundRect,0.102000X-0.775000X0.750000X-0.775000X-0.750000X0.775000X-0.750000X0.775000X0.750000X0*%
%ADD25R,0.400000X1.200000*%
%ADD26R,1.700000X1.700000*%
%ADD27O,1.700000X1.700000*%
%ADD28R,2.300000X1.500000*%
%ADD29RoundRect,0.250000X-0.350000X-0.450000X0.350000X-0.450000X0.350000X0.450000X-0.350000X0.450000X0*%
%ADD30RoundRect,0.150000X-0.150000X-0.625000X0.150000X-0.625000X0.150000X0.625000X-0.150000X0.625000X0*%
%ADD31RoundRect,0.250000X-0.350000X-0.650000X0.350000X-0.650000X0.350000X0.650000X-0.350000X0.650000X0*%
G04 APERTURE END LIST*
D10*
%TO.C,J1*%
X107551000Y-49456000D02*
X107577000Y-49458000D01*
X107603000Y-49461000D01*
X107629000Y-49466000D01*
X107654000Y-49472000D01*
X107680000Y-49479000D01*
X107704000Y-49488000D01*
X107728000Y-49498000D01*
X107752000Y-49509000D01*
X107775000Y-49522000D01*
X107797000Y-49536000D01*
X107819000Y-49550000D01*
X107840000Y-49566000D01*
X107860000Y-49583000D01*
X107879000Y-49601000D01*
X107897000Y-49620000D01*
X107914000Y-49640000D01*
X107930000Y-49661000D01*
X107944000Y-49683000D01*
X107958000Y-49705000D01*
X107971000Y-49728000D01*
X107982000Y-49752000D01*
X107992000Y-49776000D01*
X108001000Y-49800000D01*
X108008000Y-49826000D01*
X108014000Y-49851000D01*
X108019000Y-49877000D01*
X108022000Y-49903000D01*
X108024000Y-49929000D01*
X108025000Y-49955000D01*
X108025000Y-51300000D01*
X106275000Y-51300000D01*
X106275000Y-49955000D01*
X106276000Y-49929000D01*
X106278000Y-49903000D01*
X106281000Y-49877000D01*
X106286000Y-49851000D01*
X106292000Y-49826000D01*
X106299000Y-49800000D01*
X106308000Y-49776000D01*
X106318000Y-49752000D01*
X106329000Y-49728000D01*
X106342000Y-49705000D01*
X106356000Y-49683000D01*
X106370000Y-49661000D01*
X106386000Y-49640000D01*
X106403000Y-49620000D01*
X106421000Y-49601000D01*
X106440000Y-49583000D01*
X106460000Y-49566000D01*
X106481000Y-49550000D01*
X106503000Y-49536000D01*
X106525000Y-49522000D01*
X106548000Y-49509000D01*
X106572000Y-49498000D01*
X106596000Y-49488000D01*
X106620000Y-49479000D01*
X106646000Y-49472000D01*
X106671000Y-49466000D01*
X106697000Y-49461000D01*
X106723000Y-49458000D01*
X106749000Y-49456000D01*
X106775000Y-49455000D01*
X107525000Y-49455000D01*
X107551000Y-49456000D01*
G36*
X107551000Y-49456000D02*
G01*
X107577000Y-49458000D01*
X107603000Y-49461000D01*
X107629000Y-49466000D01*
X107654000Y-49472000D01*
X107680000Y-49479000D01*
X107704000Y-49488000D01*
X107728000Y-49498000D01*
X107752000Y-49509000D01*
X107775000Y-49522000D01*
X107797000Y-49536000D01*
X107819000Y-49550000D01*
X107840000Y-49566000D01*
X107860000Y-49583000D01*
X107879000Y-49601000D01*
X107897000Y-49620000D01*
X107914000Y-49640000D01*
X107930000Y-49661000D01*
X107944000Y-49683000D01*
X107958000Y-49705000D01*
X107971000Y-49728000D01*
X107982000Y-49752000D01*
X107992000Y-49776000D01*
X108001000Y-49800000D01*
X108008000Y-49826000D01*
X108014000Y-49851000D01*
X108019000Y-49877000D01*
X108022000Y-49903000D01*
X108024000Y-49929000D01*
X108025000Y-49955000D01*
X108025000Y-51300000D01*
X106275000Y-51300000D01*
X106275000Y-49955000D01*
X106276000Y-49929000D01*
X106278000Y-49903000D01*
X106281000Y-49877000D01*
X106286000Y-49851000D01*
X106292000Y-49826000D01*
X106299000Y-49800000D01*
X106308000Y-49776000D01*
X106318000Y-49752000D01*
X106329000Y-49728000D01*
X106342000Y-49705000D01*
X106356000Y-49683000D01*
X106370000Y-49661000D01*
X106386000Y-49640000D01*
X106403000Y-49620000D01*
X106421000Y-49601000D01*
X106440000Y-49583000D01*
X106460000Y-49566000D01*
X106481000Y-49550000D01*
X106503000Y-49536000D01*
X106525000Y-49522000D01*
X106548000Y-49509000D01*
X106572000Y-49498000D01*
X106596000Y-49488000D01*
X106620000Y-49479000D01*
X106646000Y-49472000D01*
X106671000Y-49466000D01*
X106697000Y-49461000D01*
X106723000Y-49458000D01*
X106749000Y-49456000D01*
X106775000Y-49455000D01*
X107525000Y-49455000D01*
X107551000Y-49456000D01*
G37*
X108025000Y-57045000D02*
X108024000Y-57071000D01*
X108022000Y-57097000D01*
X108019000Y-57123000D01*
X108014000Y-57149000D01*
X108008000Y-57174000D01*
X108001000Y-57200000D01*
X107992000Y-57224000D01*
X107982000Y-57248000D01*
X107971000Y-57272000D01*
X107958000Y-57295000D01*
X107944000Y-57317000D01*
X107930000Y-57339000D01*
X107914000Y-57360000D01*
X107897000Y-57380000D01*
X107879000Y-57399000D01*
X107860000Y-57417000D01*
X107840000Y-57434000D01*
X107819000Y-57450000D01*
X107797000Y-57464000D01*
X107775000Y-57478000D01*
X107752000Y-57491000D01*
X107728000Y-57502000D01*
X107704000Y-57512000D01*
X107680000Y-57521000D01*
X107654000Y-57528000D01*
X107629000Y-57534000D01*
X107603000Y-57539000D01*
X107577000Y-57542000D01*
X107551000Y-57544000D01*
X107525000Y-57545000D01*
X106775000Y-57545000D01*
X106749000Y-57544000D01*
X106723000Y-57542000D01*
X106697000Y-57539000D01*
X106671000Y-57534000D01*
X106646000Y-57528000D01*
X106620000Y-57521000D01*
X106596000Y-57512000D01*
X106572000Y-57502000D01*
X106548000Y-57491000D01*
X106525000Y-57478000D01*
X106503000Y-57464000D01*
X106481000Y-57450000D01*
X106460000Y-57434000D01*
X106440000Y-57417000D01*
X106421000Y-57399000D01*
X106403000Y-57380000D01*
X106386000Y-57360000D01*
X106370000Y-57339000D01*
X106356000Y-57317000D01*
X106342000Y-57295000D01*
X106329000Y-57272000D01*
X106318000Y-57248000D01*
X106308000Y-57224000D01*
X106299000Y-57200000D01*
X106292000Y-57174000D01*
X106286000Y-57149000D01*
X106281000Y-57123000D01*
X106278000Y-57097000D01*
X106276000Y-57071000D01*
X106275000Y-57045000D01*
X106275000Y-55700000D01*
X108025000Y-55700000D01*
X108025000Y-57045000D01*
G36*
X108025000Y-57045000D02*
G01*
X108024000Y-57071000D01*
X108022000Y-57097000D01*
X108019000Y-57123000D01*
X108014000Y-57149000D01*
X108008000Y-57174000D01*
X108001000Y-57200000D01*
X107992000Y-57224000D01*
X107982000Y-57248000D01*
X107971000Y-57272000D01*
X107958000Y-57295000D01*
X107944000Y-57317000D01*
X107930000Y-57339000D01*
X107914000Y-57360000D01*
X107897000Y-57380000D01*
X107879000Y-57399000D01*
X107860000Y-57417000D01*
X107840000Y-57434000D01*
X107819000Y-57450000D01*
X107797000Y-57464000D01*
X107775000Y-57478000D01*
X107752000Y-57491000D01*
X107728000Y-57502000D01*
X107704000Y-57512000D01*
X107680000Y-57521000D01*
X107654000Y-57528000D01*
X107629000Y-57534000D01*
X107603000Y-57539000D01*
X107577000Y-57542000D01*
X107551000Y-57544000D01*
X107525000Y-57545000D01*
X106775000Y-57545000D01*
X106749000Y-57544000D01*
X106723000Y-57542000D01*
X106697000Y-57539000D01*
X106671000Y-57534000D01*
X106646000Y-57528000D01*
X106620000Y-57521000D01*
X106596000Y-57512000D01*
X106572000Y-57502000D01*
X106548000Y-57491000D01*
X106525000Y-57478000D01*
X106503000Y-57464000D01*
X106481000Y-57450000D01*
X106460000Y-57434000D01*
X106440000Y-57417000D01*
X106421000Y-57399000D01*
X106403000Y-57380000D01*
X106386000Y-57360000D01*
X106370000Y-57339000D01*
X106356000Y-57317000D01*
X106342000Y-57295000D01*
X106329000Y-57272000D01*
X106318000Y-57248000D01*
X106308000Y-57224000D01*
X106299000Y-57200000D01*
X106292000Y-57174000D01*
X106286000Y-57149000D01*
X106281000Y-57123000D01*
X106278000Y-57097000D01*
X106276000Y-57071000D01*
X106275000Y-57045000D01*
X106275000Y-55700000D01*
X108025000Y-55700000D01*
X108025000Y-57045000D01*
G37*
%TD*%
D11*
%TO.C,D5*%
X123700000Y-54900000D03*
X123700000Y-52850000D03*
%TD*%
D12*
%TO.C,R4*%
X114490000Y-47175000D03*
X112490000Y-47175000D03*
%TD*%
D13*
%TO.C,D4*%
X150550000Y-50300000D03*
X148500000Y-50300000D03*
%TD*%
D14*
%TO.C,C19*%
X147550000Y-55462500D03*
X147550000Y-57537500D03*
%TD*%
D15*
%TO.C,Y3*%
X145350000Y-57475000D03*
X145350000Y-55275000D03*
X143650000Y-55275000D03*
X143650000Y-57475000D03*
%TD*%
D16*
%TO.C,C20*%
X145637500Y-52975000D03*
X143562500Y-52975000D03*
%TD*%
D17*
%TO.C,R9*%
X123675000Y-50925000D03*
X123675000Y-48925000D03*
%TD*%
D13*
%TO.C,D2*%
X118512500Y-47145000D03*
X116462500Y-47145000D03*
%TD*%
D18*
%TO.C,C2*%
X120562500Y-46900000D03*
X122637500Y-46900000D03*
%TD*%
D19*
%TO.C,U1*%
X137775000Y-56225000D03*
X137775000Y-55425000D03*
X137775000Y-54625000D03*
X137775000Y-53825000D03*
X137775000Y-53025000D03*
X137775000Y-52225000D03*
X137775000Y-51425000D03*
X137775000Y-50625000D03*
D20*
X136400000Y-49250000D03*
X135600000Y-49250000D03*
X134800000Y-49250000D03*
X134000000Y-49250000D03*
X133200000Y-49250000D03*
X132400000Y-49250000D03*
X131600000Y-49250000D03*
X130800000Y-49250000D03*
D19*
X129425000Y-50625000D03*
X129425000Y-51425000D03*
X129425000Y-52225000D03*
X129425000Y-53025000D03*
X129425000Y-53825000D03*
X129425000Y-54625000D03*
X129425000Y-55425000D03*
X129425000Y-56225000D03*
D20*
X130800000Y-57600000D03*
X131600000Y-57600000D03*
X132400000Y-57600000D03*
X133200000Y-57600000D03*
X134000000Y-57600000D03*
X134800000Y-57600000D03*
X135600000Y-57600000D03*
X136400000Y-57600000D03*
%TD*%
D21*
%TO.C,J1*%
X109825000Y-52200000D03*
X109825000Y-52850000D03*
X109825000Y-53500000D03*
X109825000Y-54150000D03*
X109825000Y-54800000D03*
D22*
X109850000Y-51000000D03*
X109850000Y-56000000D03*
D23*
X107150000Y-49975000D03*
D24*
X107150000Y-52500000D03*
X107150000Y-54500000D03*
D23*
X107150000Y-57025000D03*
%TD*%
D25*
%TO.C,U2*%
X117352500Y-55000000D03*
X117987500Y-55000000D03*
X118622500Y-55000000D03*
X119257500Y-55000000D03*
X119892500Y-55000000D03*
X120527500Y-55000000D03*
X121162500Y-55000000D03*
X121797500Y-55000000D03*
X121797500Y-49800000D03*
X121162500Y-49800000D03*
X120527500Y-49800000D03*
X119892500Y-49800000D03*
X119257500Y-49800000D03*
X118622500Y-49800000D03*
X117987500Y-49800000D03*
X117352500Y-49800000D03*
%TD*%
D26*
%TO.C,J4*%
X106675000Y-63495000D03*
D27*
X109215000Y-63495000D03*
X111755000Y-63495000D03*
X114295000Y-63495000D03*
X116835000Y-63495000D03*
X119375000Y-63495000D03*
X121915000Y-63495000D03*
X124455000Y-63495000D03*
X126995000Y-63495000D03*
X129535000Y-63495000D03*
X132075000Y-63495000D03*
X134615000Y-63495000D03*
X137155000Y-63495000D03*
X139695000Y-63495000D03*
X142235000Y-63495000D03*
X144775000Y-63495000D03*
X147315000Y-63495000D03*
X149855000Y-63495000D03*
X152395000Y-63495000D03*
X154935000Y-63495000D03*
X157475000Y-63495000D03*
X160015000Y-63495000D03*
X162555000Y-63495000D03*
X165095000Y-63495000D03*
%TD*%
D12*
%TO.C,R8*%
X115275000Y-51900000D03*
X113275000Y-51900000D03*
%TD*%
%TO.C,R6*%
X139950000Y-59075000D03*
X137950000Y-59075000D03*
%TD*%
D28*
%TO.C,SW2*%
X159050000Y-54475000D03*
X152350000Y-54475000D03*
%TD*%
D29*
%TO.C,R7*%
X113275000Y-54025000D03*
X115275000Y-54025000D03*
%TD*%
D26*
%TO.C,J5*%
X106675000Y-43495000D03*
D27*
X109215000Y-43495000D03*
X111755000Y-43495000D03*
X114295000Y-43495000D03*
X116835000Y-43495000D03*
X119375000Y-43495000D03*
X121915000Y-43495000D03*
X124455000Y-43495000D03*
X126995000Y-43495000D03*
X129535000Y-43495000D03*
X132075000Y-43495000D03*
X134615000Y-43495000D03*
X137155000Y-43495000D03*
X139695000Y-43495000D03*
X142235000Y-43495000D03*
X144775000Y-43495000D03*
X147315000Y-43495000D03*
X149855000Y-43495000D03*
X152395000Y-43495000D03*
X154935000Y-43495000D03*
X157475000Y-43495000D03*
X160015000Y-43495000D03*
X162555000Y-43495000D03*
X165095000Y-43495000D03*
%TD*%
D12*
%TO.C,R10*%
X146500000Y-50300000D03*
X144500000Y-50300000D03*
%TD*%
D30*
%TO.C,J3*%
X117650000Y-60275000D03*
X118650000Y-60275000D03*
X119650000Y-60275000D03*
X120650000Y-60275000D03*
X121650000Y-60275000D03*
D31*
X116350000Y-57750000D03*
X122950000Y-57750000D03*
%TD*%
M02*
