%TF.GenerationSoftware,KiCad,Pcbnew,9.0.0*%
%TF.CreationDate,2025-05-21T10:21:18-06:00*%
%TF.ProjectId,Brush_EBoot_PCB_v1,42727573-685f-4454-926f-6f745f504342,rev?*%
%TF.SameCoordinates,Original*%
%TF.FileFunction,Copper,L2,Bot*%
%TF.FilePolarity,Positive*%
%FSLAX46Y46*%
G04 Gerber Fmt 4.6, Leading zero omitted, Abs format (unit mm)*
G04 Created by KiCad (PCBNEW 9.0.0) date 2025-05-21 10:21:18*
%MOMM*%
%LPD*%
G01*
G04 APERTURE LIST*
G04 Aperture macros list*
%AMRoundRect*
0 Rectangle with rounded corners*
0 $1 Rounding radius*
0 $2 $3 $4 $5 $6 $7 $8 $9 X,Y pos of 4 corners*
0 Add a 4 corners polygon primitive as box body*
4,1,4,$2,$3,$4,$5,$6,$7,$8,$9,$2,$3,0*
0 Add four circle primitives for the rounded corners*
1,1,$1+$1,$2,$3*
1,1,$1+$1,$4,$5*
1,1,$1+$1,$6,$7*
1,1,$1+$1,$8,$9*
0 Add four rect primitives between the rounded corners*
20,1,$1+$1,$2,$3,$4,$5,0*
20,1,$1+$1,$4,$5,$6,$7,0*
20,1,$1+$1,$6,$7,$8,$9,0*
20,1,$1+$1,$8,$9,$2,$3,0*%
G04 Aperture macros list end*
%TA.AperFunction,ComponentPad*%
%ADD10RoundRect,0.250000X0.725000X-0.600000X0.725000X0.600000X-0.725000X0.600000X-0.725000X-0.600000X0*%
%TD*%
%TA.AperFunction,ComponentPad*%
%ADD11O,1.950000X1.700000*%
%TD*%
%TA.AperFunction,ComponentPad*%
%ADD12R,1.700000X1.700000*%
%TD*%
%TA.AperFunction,ComponentPad*%
%ADD13O,1.700000X1.700000*%
%TD*%
%TA.AperFunction,ComponentPad*%
%ADD14R,1.600000X1.600000*%
%TD*%
%TA.AperFunction,ComponentPad*%
%ADD15C,1.600000*%
%TD*%
%TA.AperFunction,ComponentPad*%
%ADD16O,1.600000X1.600000*%
%TD*%
%TA.AperFunction,ComponentPad*%
%ADD17R,3.500000X3.500000*%
%TD*%
%TA.AperFunction,ComponentPad*%
%ADD18RoundRect,0.750000X-0.750000X-1.000000X0.750000X-1.000000X0.750000X1.000000X-0.750000X1.000000X0*%
%TD*%
%TA.AperFunction,ComponentPad*%
%ADD19RoundRect,0.875000X-0.875000X-0.875000X0.875000X-0.875000X0.875000X0.875000X-0.875000X0.875000X0*%
%TD*%
%TA.AperFunction,ComponentPad*%
%ADD20RoundRect,0.250000X-0.600000X-0.725000X0.600000X-0.725000X0.600000X0.725000X-0.600000X0.725000X0*%
%TD*%
%TA.AperFunction,ComponentPad*%
%ADD21O,1.700000X1.950000*%
%TD*%
%TA.AperFunction,ComponentPad*%
%ADD22RoundRect,0.250000X-0.600000X-0.750000X0.600000X-0.750000X0.600000X0.750000X-0.600000X0.750000X0*%
%TD*%
%TA.AperFunction,ComponentPad*%
%ADD23O,1.700000X2.000000*%
%TD*%
%TA.AperFunction,ViaPad*%
%ADD24C,0.600000*%
%TD*%
%TA.AperFunction,Conductor*%
%ADD25C,0.381000*%
%TD*%
G04 APERTURE END LIST*
D10*
%TO.P,J6,1,Pin_1*%
%TO.N,VCC*%
X102990000Y-73690000D03*
D11*
%TO.P,J6,2,Pin_2*%
%TO.N,Net-(J6-Pin_2)*%
X102990000Y-71190000D03*
%TO.P,J6,3,Pin_3*%
%TO.N,unconnected-(J6-Pin_3-Pad3)*%
X102990000Y-68690000D03*
%TD*%
D12*
%TO.P,J9,1,Pin_1*%
%TO.N,GND*%
X159300000Y-87720000D03*
D13*
%TO.P,J9,2,Pin_2*%
%TO.N,unconnected-(J9-Pin_2-Pad2)*%
X159300000Y-90260000D03*
%TO.P,J9,3,Pin_3*%
%TO.N,unconnected-(J9-Pin_3-Pad3)*%
X161840000Y-87720000D03*
%TO.P,J9,4,Pin_4*%
%TO.N,unconnected-(J9-Pin_4-Pad4)*%
X161840000Y-90260000D03*
%TO.P,J9,5,Pin_5*%
%TO.N,unconnected-(J9-Pin_5-Pad5)*%
X164380000Y-87720000D03*
%TO.P,J9,6,Pin_6*%
%TO.N,/RX_OPENLOG*%
X164380000Y-90260000D03*
%TO.P,J9,7,Pin_7*%
%TO.N,unconnected-(J9-Pin_7-Pad7)*%
X166920000Y-87720000D03*
%TO.P,J9,8,Pin_8*%
%TO.N,/TX_OPENLOG*%
X166920000Y-90260000D03*
%TO.P,J9,9,Pin_9*%
%TO.N,unconnected-(J9-Pin_9-Pad9)*%
X169460000Y-87720000D03*
%TO.P,J9,10,Pin_10*%
%TO.N,/RX_MIDI*%
X169460000Y-90260000D03*
%TO.P,J9,11,Pin_11*%
%TO.N,unconnected-(J9-Pin_11-Pad11)*%
X172000000Y-87720000D03*
%TO.P,J9,12,Pin_12*%
%TO.N,/TX_MIDI*%
X172000000Y-90260000D03*
%TO.P,J9,13,Pin_13*%
%TO.N,unconnected-(J9-Pin_13-Pad13)*%
X174540000Y-87720000D03*
%TO.P,J9,14,Pin_14*%
%TO.N,GND*%
X174540000Y-90260000D03*
%TO.P,J9,15,Pin_15*%
%TO.N,unconnected-(J9-Pin_15-Pad15)*%
X177080000Y-87720000D03*
%TO.P,J9,16,Pin_16*%
%TO.N,+5V*%
X177080000Y-90260000D03*
%TO.P,J9,17,Pin_17*%
%TO.N,unconnected-(J9-Pin_17-Pad17)*%
X179620000Y-87720000D03*
%TO.P,J9,18,Pin_18*%
%TO.N,unconnected-(J9-Pin_18-Pad18)*%
X179620000Y-90260000D03*
%TO.P,J9,19,Pin_19*%
%TO.N,unconnected-(J9-Pin_19-Pad19)*%
X182160000Y-87720000D03*
%TO.P,J9,20,Pin_20*%
%TO.N,unconnected-(J9-Pin_20-Pad20)*%
X182160000Y-90260000D03*
%TD*%
D12*
%TO.P,J1,1,Pin_1*%
%TO.N,GND*%
X101550000Y-97550000D03*
D13*
%TO.P,J1,2,Pin_2*%
%TO.N,+5V*%
X101550000Y-100090000D03*
%TO.P,J1,3,Pin_3*%
%TO.N,/SDA_RTC*%
X101550000Y-102630000D03*
%TO.P,J1,4,Pin_4*%
%TO.N,/SCL_RTC*%
X101550000Y-105170000D03*
%TO.P,J1,5,Pin_5*%
%TO.N,unconnected-(J1-Pin_5-Pad5)*%
X101550000Y-107710000D03*
%TD*%
D14*
%TO.P,C1,1*%
%TO.N,+5V*%
X133070000Y-70270000D03*
D15*
%TO.P,C1,2*%
%TO.N,GND*%
X133070000Y-66770000D03*
%TD*%
D12*
%TO.P,J3,1,Pin_1*%
%TO.N,+5V*%
X141035000Y-70305000D03*
D13*
%TO.P,J3,2,Pin_2*%
%TO.N,Net-(J3-Pin_2)*%
X143575000Y-70305000D03*
%TO.P,J3,3,Pin_3*%
%TO.N,/TX_MIDI*%
X146115000Y-70305000D03*
%TO.P,J3,4,Pin_4*%
%TO.N,unconnected-(J3-Pin_4-Pad4)*%
X148655000Y-70305000D03*
%TO.P,J3,5,Pin_5*%
%TO.N,unconnected-(J3-Pin_5-Pad5)*%
X151195000Y-70305000D03*
%TO.P,J3,6,Pin_6*%
%TO.N,/SPEAKER_L*%
X153735000Y-70305000D03*
%TO.P,J3,7,Pin_7*%
%TO.N,unconnected-(J3-Pin_7-Pad7)*%
X156275000Y-70305000D03*
%TO.P,J3,8,Pin_8*%
%TO.N,/SPEAKER_R*%
X158815000Y-70305000D03*
%TD*%
D12*
%TO.P,J11,1,Pin_1*%
%TO.N,VCC*%
X110380000Y-75520000D03*
%TD*%
D15*
%TO.P,R1,1*%
%TO.N,/RX_MIDI*%
X133230000Y-76330000D03*
D16*
%TO.P,R1,2*%
%TO.N,Net-(J3-Pin_2)*%
X143390000Y-76330000D03*
%TD*%
D12*
%TO.P,J14,1,Pin_1*%
%TO.N,+5V*%
X124880000Y-75520000D03*
%TD*%
D17*
%TO.P,J7,1*%
%TO.N,Net-(J6-Pin_2)*%
X113990000Y-54812500D03*
D18*
%TO.P,J7,2*%
%TO.N,GND*%
X107990000Y-54812500D03*
D19*
%TO.P,J7,3*%
X110990000Y-59512500D03*
%TD*%
D12*
%TO.P,J2,1,Pin_1*%
%TO.N,unconnected-(J2-Pin_1-Pad1)*%
X171970000Y-61800000D03*
D13*
%TO.P,J2,2,Pin_2*%
%TO.N,GND*%
X171970000Y-59260000D03*
%TO.P,J2,3,Pin_3*%
%TO.N,+5V*%
X171970000Y-56720000D03*
%TO.P,J2,4,Pin_4*%
%TO.N,/TX_OPENLOG*%
X171970000Y-54180000D03*
%TO.P,J2,5,Pin_5*%
%TO.N,/RX_OPENLOG*%
X171970000Y-51640000D03*
%TO.P,J2,6,Pin_6*%
%TO.N,unconnected-(J2-Pin_6-Pad6)*%
X171970000Y-49100000D03*
%TD*%
D12*
%TO.P,J8,1,Pin_1*%
%TO.N,unconnected-(J8-Pin_1-Pad1)*%
X159300000Y-112800000D03*
D13*
%TO.P,J8,2,Pin_2*%
%TO.N,GND*%
X159300000Y-115340000D03*
%TO.P,J8,3,Pin_3*%
%TO.N,unconnected-(J8-Pin_3-Pad3)*%
X161840000Y-112800000D03*
%TO.P,J8,4,Pin_4*%
%TO.N,unconnected-(J8-Pin_4-Pad4)*%
X161840000Y-115340000D03*
%TO.P,J8,5,Pin_5*%
%TO.N,/SCL_RTC*%
X164380000Y-112800000D03*
%TO.P,J8,6,Pin_6*%
%TO.N,unconnected-(J8-Pin_6-Pad6)*%
X164380000Y-115340000D03*
%TO.P,J8,7,Pin_7*%
%TO.N,/SPI_SCK*%
X166920000Y-112800000D03*
%TO.P,J8,8,Pin_8*%
%TO.N,unconnected-(J8-Pin_8-Pad8)*%
X166920000Y-115340000D03*
%TO.P,J8,9,Pin_9*%
%TO.N,unconnected-(J8-Pin_9-Pad9)*%
X169460000Y-112800000D03*
%TO.P,J8,10,Pin_10*%
%TO.N,unconnected-(J8-Pin_10-Pad10)*%
X169460000Y-115340000D03*
%TO.P,J8,11,Pin_11*%
%TO.N,/SPI_MOSI*%
X172000000Y-112800000D03*
%TO.P,J8,12,Pin_12*%
%TO.N,unconnected-(J8-Pin_12-Pad12)*%
X172000000Y-115340000D03*
%TO.P,J8,13,Pin_13*%
%TO.N,/SPI_CS*%
X174540000Y-112800000D03*
%TO.P,J8,14,Pin_14*%
%TO.N,unconnected-(J8-Pin_14-Pad14)*%
X174540000Y-115340000D03*
%TO.P,J8,15,Pin_15*%
%TO.N,unconnected-(J8-Pin_15-Pad15)*%
X177080000Y-112800000D03*
%TO.P,J8,16,Pin_16*%
%TO.N,unconnected-(J8-Pin_16-Pad16)*%
X177080000Y-115340000D03*
%TO.P,J8,17,Pin_17*%
%TO.N,/SDA_RTC*%
X179620000Y-112800000D03*
%TO.P,J8,18,Pin_18*%
%TO.N,unconnected-(J8-Pin_18-Pad18)*%
X179620000Y-115340000D03*
%TO.P,J8,19,Pin_19*%
%TO.N,unconnected-(J8-Pin_19-Pad19)*%
X182160000Y-112800000D03*
%TO.P,J8,20,Pin_20*%
%TO.N,unconnected-(J8-Pin_20-Pad20)*%
X182160000Y-115340000D03*
%TD*%
D12*
%TO.P,J12,1,Pin_1*%
%TO.N,GND*%
X110380000Y-67020000D03*
%TD*%
D20*
%TO.P,J10,1,Pin_1*%
%TO.N,+5V*%
X176730000Y-73130000D03*
D21*
%TO.P,J10,2,Pin_2*%
%TO.N,GND*%
X179230000Y-73130000D03*
%TO.P,J10,3,Pin_3*%
%TO.N,/SPI_MOSI*%
X181730000Y-73130000D03*
%TO.P,J10,4,Pin_4*%
%TO.N,/SPI_CS*%
X184230000Y-73130000D03*
%TO.P,J10,5,Pin_5*%
%TO.N,/SPI_SCK*%
X186730000Y-73130000D03*
%TD*%
D12*
%TO.P,J13,1,Pin_1*%
%TO.N,GND*%
X124880000Y-67020000D03*
%TD*%
D22*
%TO.P,J5,1,Pin_1*%
%TO.N,/SPEAKER_L*%
X154930000Y-77000000D03*
D23*
%TO.P,J5,2,Pin_2*%
%TO.N,/SPEAKER_R*%
X157430000Y-77000000D03*
%TD*%
D12*
%TO.P,J4,1,Pin_1*%
%TO.N,unconnected-(J4-Pin_1-Pad1)*%
X141035000Y-52305000D03*
D13*
%TO.P,J4,2,Pin_2*%
%TO.N,unconnected-(J4-Pin_2-Pad2)*%
X143575000Y-52305000D03*
%TO.P,J4,3,Pin_3*%
%TO.N,unconnected-(J4-Pin_3-Pad3)*%
X146115000Y-52305000D03*
%TO.P,J4,4,Pin_4*%
%TO.N,unconnected-(J4-Pin_4-Pad4)*%
X148655000Y-52305000D03*
%TO.P,J4,5,Pin_5*%
%TO.N,unconnected-(J4-Pin_5-Pad5)*%
X151195000Y-52305000D03*
%TO.P,J4,6,Pin_6*%
%TO.N,unconnected-(J4-Pin_6-Pad6)*%
X153735000Y-52305000D03*
%TO.P,J4,7,Pin_7*%
%TO.N,GND*%
X156275000Y-52305000D03*
%TO.P,J4,8,Pin_8*%
%TO.N,unconnected-(J4-Pin_8-Pad8)*%
X158815000Y-52305000D03*
%TD*%
D24*
%TO.N,GND*%
X186340000Y-102770000D03*
X145110000Y-95010000D03*
X167250000Y-55210000D03*
X145100000Y-97710000D03*
X164490000Y-55160000D03*
X183630000Y-102770000D03*
%TO.N,/TX_OPENLOG*%
X166720000Y-54210000D03*
X165140000Y-54240000D03*
%TO.N,/TX_MIDI*%
X146100000Y-97150000D03*
X146120000Y-95590000D03*
%TO.N,/SPI_SCK*%
X184140000Y-103760000D03*
X185750000Y-103730000D03*
%TD*%
D25*
%TO.N,/TX_OPENLOG*%
X166720000Y-54210000D02*
X165170000Y-54210000D01*
X165170000Y-54210000D02*
X165140000Y-54240000D01*
%TO.N,/TX_MIDI*%
X146120000Y-97130000D02*
X146100000Y-97150000D01*
X146120000Y-95590000D02*
X146120000Y-97130000D01*
%TO.N,/SPI_SCK*%
X185750000Y-103730000D02*
X184170000Y-103730000D01*
X184170000Y-103730000D02*
X184140000Y-103760000D01*
%TD*%
%TA.AperFunction,Conductor*%
%TO.N,GND*%
G36*
X194522539Y-46050185D02*
G01*
X194568294Y-46102989D01*
X194579500Y-46154500D01*
X194579500Y-119905500D01*
X194559815Y-119972539D01*
X194507011Y-120018294D01*
X194455500Y-120029500D01*
X95704500Y-120029500D01*
X95637461Y-120009815D01*
X95591706Y-119957011D01*
X95580500Y-119905500D01*
X95580500Y-111902135D01*
X157949500Y-111902135D01*
X157949500Y-113697870D01*
X157949501Y-113697876D01*
X157955908Y-113757483D01*
X158006202Y-113892328D01*
X158006206Y-113892335D01*
X158092452Y-114007544D01*
X158092455Y-114007547D01*
X158207664Y-114093793D01*
X158207671Y-114093797D01*
X158207674Y-114093798D01*
X158339598Y-114143002D01*
X158395531Y-114184873D01*
X158419949Y-114250337D01*
X158405098Y-114318610D01*
X158383947Y-114346865D01*
X158270271Y-114460541D01*
X158145379Y-114632442D01*
X158048904Y-114821782D01*
X157983242Y-115023870D01*
X157983242Y-115023873D01*
X157972769Y-115090000D01*
X158866988Y-115090000D01*
X158834075Y-115147007D01*
X158800000Y-115274174D01*
X158800000Y-115405826D01*
X158834075Y-115532993D01*
X158866988Y-115590000D01*
X157972769Y-115590000D01*
X157983242Y-115656126D01*
X157983242Y-115656129D01*
X158048904Y-115858217D01*
X158145379Y-116047557D01*
X158270272Y-116219459D01*
X158270276Y-116219464D01*
X158420535Y-116369723D01*
X158420540Y-116369727D01*
X158592442Y-116494620D01*
X158781782Y-116591095D01*
X158983871Y-116656757D01*
X159050000Y-116667231D01*
X159050000Y-115773012D01*
X159107007Y-115805925D01*
X159234174Y-115840000D01*
X159365826Y-115840000D01*
X159492993Y-115805925D01*
X159550000Y-115773012D01*
X159550000Y-116667230D01*
X159616126Y-116656757D01*
X159616129Y-116656757D01*
X159818217Y-116591095D01*
X160007557Y-116494620D01*
X160179459Y-116369727D01*
X160179464Y-116369723D01*
X160329723Y-116219464D01*
X160329727Y-116219459D01*
X160454620Y-116047558D01*
X160459232Y-116038507D01*
X160507205Y-115987709D01*
X160575025Y-115970912D01*
X160641161Y-115993447D01*
X160680204Y-116038504D01*
X160684949Y-116047817D01*
X160809890Y-116219786D01*
X160960213Y-116370109D01*
X161132179Y-116495048D01*
X161132181Y-116495049D01*
X161132184Y-116495051D01*
X161321588Y-116591557D01*
X161523757Y-116657246D01*
X161733713Y-116690500D01*
X161733714Y-116690500D01*
X161946286Y-116690500D01*
X161946287Y-116690500D01*
X162156243Y-116657246D01*
X162358412Y-116591557D01*
X162547816Y-116495051D01*
X162569789Y-116479086D01*
X162719786Y-116370109D01*
X162719788Y-116370106D01*
X162719792Y-116370104D01*
X162870104Y-116219792D01*
X162870106Y-116219788D01*
X162870109Y-116219786D01*
X162995048Y-116047820D01*
X162995050Y-116047817D01*
X162995051Y-116047816D01*
X162999514Y-116039054D01*
X163047488Y-115988259D01*
X163115308Y-115971463D01*
X163181444Y-115993999D01*
X163220486Y-116039056D01*
X163224951Y-116047820D01*
X163349890Y-116219786D01*
X163500213Y-116370109D01*
X163672179Y-116495048D01*
X163672181Y-116495049D01*
X163672184Y-116495051D01*
X163861588Y-116591557D01*
X164063757Y-116657246D01*
X164273713Y-116690500D01*
X164273714Y-116690500D01*
X164486286Y-116690500D01*
X164486287Y-116690500D01*
X164696243Y-116657246D01*
X164898412Y-116591557D01*
X165087816Y-116495051D01*
X165109789Y-116479086D01*
X165259786Y-116370109D01*
X165259788Y-116370106D01*
X165259792Y-116370104D01*
X165410104Y-116219792D01*
X165410106Y-116219788D01*
X165410109Y-116219786D01*
X165535048Y-116047820D01*
X165535050Y-116047817D01*
X165535051Y-116047816D01*
X165539514Y-116039054D01*
X165587488Y-115988259D01*
X165655308Y-115971463D01*
X165721444Y-115993999D01*
X165760486Y-116039056D01*
X165764951Y-116047820D01*
X165889890Y-116219786D01*
X166040213Y-116370109D01*
X166212179Y-116495048D01*
X166212181Y-116495049D01*
X166212184Y-116495051D01*
X166401588Y-116591557D01*
X166603757Y-116657246D01*
X166813713Y-116690500D01*
X166813714Y-116690500D01*
X167026286Y-116690500D01*
X167026287Y-116690500D01*
X167236243Y-116657246D01*
X167438412Y-116591557D01*
X167627816Y-116495051D01*
X167649789Y-116479086D01*
X167799786Y-116370109D01*
X167799788Y-116370106D01*
X167799792Y-116370104D01*
X167950104Y-116219792D01*
X167950106Y-116219788D01*
X167950109Y-116219786D01*
X168075048Y-116047820D01*
X168075050Y-116047817D01*
X168075051Y-116047816D01*
X168079514Y-116039054D01*
X168127488Y-115988259D01*
X168195308Y-115971463D01*
X168261444Y-115993999D01*
X168300486Y-116039056D01*
X168304951Y-116047820D01*
X168429890Y-116219786D01*
X168580213Y-116370109D01*
X168752179Y-116495048D01*
X168752181Y-116495049D01*
X168752184Y-116495051D01*
X168941588Y-116591557D01*
X169143757Y-116657246D01*
X169353713Y-116690500D01*
X169353714Y-116690500D01*
X169566286Y-116690500D01*
X169566287Y-116690500D01*
X169776243Y-116657246D01*
X169978412Y-116591557D01*
X170167816Y-116495051D01*
X170189789Y-116479086D01*
X170339786Y-116370109D01*
X170339788Y-116370106D01*
X170339792Y-116370104D01*
X170490104Y-116219792D01*
X170490106Y-116219788D01*
X170490109Y-116219786D01*
X170615048Y-116047820D01*
X170615050Y-116047817D01*
X170615051Y-116047816D01*
X170619514Y-116039054D01*
X170667488Y-115988259D01*
X170735308Y-115971463D01*
X170801444Y-115993999D01*
X170840486Y-116039056D01*
X170844951Y-116047820D01*
X170969890Y-116219786D01*
X171120213Y-116370109D01*
X171292179Y-116495048D01*
X171292181Y-116495049D01*
X171292184Y-116495051D01*
X171481588Y-116591557D01*
X171683757Y-116657246D01*
X171893713Y-116690500D01*
X171893714Y-116690500D01*
X172106286Y-116690500D01*
X172106287Y-116690500D01*
X172316243Y-116657246D01*
X172518412Y-116591557D01*
X172707816Y-116495051D01*
X172729789Y-116479086D01*
X172879786Y-116370109D01*
X172879788Y-116370106D01*
X172879792Y-116370104D01*
X173030104Y-116219792D01*
X173030106Y-116219788D01*
X173030109Y-116219786D01*
X173155048Y-116047820D01*
X173155050Y-116047817D01*
X173155051Y-116047816D01*
X173159514Y-116039054D01*
X173207488Y-115988259D01*
X173275308Y-115971463D01*
X173341444Y-115993999D01*
X173380486Y-116039056D01*
X173384951Y-116047820D01*
X173509890Y-116219786D01*
X173660213Y-116370109D01*
X173832179Y-116495048D01*
X173832181Y-116495049D01*
X173832184Y-116495051D01*
X174021588Y-116591557D01*
X174223757Y-116657246D01*
X174433713Y-116690500D01*
X174433714Y-116690500D01*
X174646286Y-116690500D01*
X174646287Y-116690500D01*
X174856243Y-116657246D01*
X175058412Y-116591557D01*
X175247816Y-116495051D01*
X175269789Y-116479086D01*
X175419786Y-116370109D01*
X175419788Y-116370106D01*
X175419792Y-116370104D01*
X175570104Y-116219792D01*
X175570106Y-116219788D01*
X175570109Y-116219786D01*
X175695048Y-116047820D01*
X175695050Y-116047817D01*
X175695051Y-116047816D01*
X175699514Y-116039054D01*
X175747488Y-115988259D01*
X175815308Y-115971463D01*
X175881444Y-115993999D01*
X175920486Y-116039056D01*
X175924951Y-116047820D01*
X176049890Y-116219786D01*
X176200213Y-116370109D01*
X176372179Y-116495048D01*
X176372181Y-116495049D01*
X176372184Y-116495051D01*
X176561588Y-116591557D01*
X176763757Y-116657246D01*
X176973713Y-116690500D01*
X176973714Y-116690500D01*
X177186286Y-116690500D01*
X177186287Y-116690500D01*
X177396243Y-116657246D01*
X177598412Y-116591557D01*
X177787816Y-116495051D01*
X177809789Y-116479086D01*
X177959786Y-116370109D01*
X177959788Y-116370106D01*
X177959792Y-116370104D01*
X178110104Y-116219792D01*
X178110106Y-116219788D01*
X178110109Y-116219786D01*
X178235048Y-116047820D01*
X178235050Y-116047817D01*
X178235051Y-116047816D01*
X178239514Y-116039054D01*
X178287488Y-115988259D01*
X178355308Y-115971463D01*
X178421444Y-115993999D01*
X178460486Y-116039056D01*
X178464951Y-116047820D01*
X178589890Y-116219786D01*
X178740213Y-116370109D01*
X178912179Y-116495048D01*
X178912181Y-116495049D01*
X178912184Y-116495051D01*
X179101588Y-116591557D01*
X179303757Y-116657246D01*
X179513713Y-116690500D01*
X179513714Y-116690500D01*
X179726286Y-116690500D01*
X179726287Y-116690500D01*
X179936243Y-116657246D01*
X180138412Y-116591557D01*
X180327816Y-116495051D01*
X180349789Y-116479086D01*
X180499786Y-116370109D01*
X180499788Y-116370106D01*
X180499792Y-116370104D01*
X180650104Y-116219792D01*
X180650106Y-116219788D01*
X180650109Y-116219786D01*
X180775048Y-116047820D01*
X180775050Y-116047817D01*
X180775051Y-116047816D01*
X180779514Y-116039054D01*
X180827488Y-115988259D01*
X180895308Y-115971463D01*
X180961444Y-115993999D01*
X181000486Y-116039056D01*
X181004951Y-116047820D01*
X181129890Y-116219786D01*
X181280213Y-116370109D01*
X181452179Y-116495048D01*
X181452181Y-116495049D01*
X181452184Y-116495051D01*
X181641588Y-116591557D01*
X181843757Y-116657246D01*
X182053713Y-116690500D01*
X182053714Y-116690500D01*
X182266286Y-116690500D01*
X182266287Y-116690500D01*
X182476243Y-116657246D01*
X182678412Y-116591557D01*
X182867816Y-116495051D01*
X182889789Y-116479086D01*
X183039786Y-116370109D01*
X183039788Y-116370106D01*
X183039792Y-116370104D01*
X183190104Y-116219792D01*
X183190106Y-116219788D01*
X183190109Y-116219786D01*
X183315048Y-116047820D01*
X183315050Y-116047817D01*
X183315051Y-116047816D01*
X183411557Y-115858412D01*
X183477246Y-115656243D01*
X183510500Y-115446287D01*
X183510500Y-115233713D01*
X183477246Y-115023757D01*
X183411557Y-114821588D01*
X183315051Y-114632184D01*
X183315049Y-114632181D01*
X183315048Y-114632179D01*
X183190109Y-114460213D01*
X183039786Y-114309890D01*
X182867820Y-114184951D01*
X182867115Y-114184591D01*
X182859054Y-114180485D01*
X182808259Y-114132512D01*
X182791463Y-114064692D01*
X182813999Y-113998556D01*
X182859054Y-113959515D01*
X182867816Y-113955051D01*
X182954138Y-113892335D01*
X183039786Y-113830109D01*
X183039788Y-113830106D01*
X183039792Y-113830104D01*
X183190104Y-113679792D01*
X183190106Y-113679788D01*
X183190109Y-113679786D01*
X183315048Y-113507820D01*
X183315047Y-113507820D01*
X183315051Y-113507816D01*
X183411557Y-113318412D01*
X183477246Y-113116243D01*
X183510500Y-112906287D01*
X183510500Y-112693713D01*
X183477246Y-112483757D01*
X183411557Y-112281588D01*
X183315051Y-112092184D01*
X183315049Y-112092181D01*
X183315048Y-112092179D01*
X183190109Y-111920213D01*
X183039786Y-111769890D01*
X182867820Y-111644951D01*
X182678414Y-111548444D01*
X182678413Y-111548443D01*
X182678412Y-111548443D01*
X182476243Y-111482754D01*
X182476241Y-111482753D01*
X182476240Y-111482753D01*
X182314957Y-111457208D01*
X182266287Y-111449500D01*
X182053713Y-111449500D01*
X182005042Y-111457208D01*
X181843760Y-111482753D01*
X181641585Y-111548444D01*
X181452179Y-111644951D01*
X181280213Y-111769890D01*
X181129890Y-111920213D01*
X181004949Y-112092182D01*
X181000484Y-112100946D01*
X180952509Y-112151742D01*
X180884688Y-112168536D01*
X180818553Y-112145998D01*
X180779516Y-112100946D01*
X180775050Y-112092182D01*
X180650109Y-111920213D01*
X180499786Y-111769890D01*
X180327820Y-111644951D01*
X180138414Y-111548444D01*
X180138413Y-111548443D01*
X180138412Y-111548443D01*
X179936243Y-111482754D01*
X179936241Y-111482753D01*
X179936240Y-111482753D01*
X179774957Y-111457208D01*
X179726287Y-111449500D01*
X179513713Y-111449500D01*
X179465042Y-111457208D01*
X179303760Y-111482753D01*
X179101585Y-111548444D01*
X178912179Y-111644951D01*
X178740213Y-111769890D01*
X178589890Y-111920213D01*
X178464949Y-112092182D01*
X178460484Y-112100946D01*
X178412509Y-112151742D01*
X178344688Y-112168536D01*
X178278553Y-112145998D01*
X178239516Y-112100946D01*
X178235050Y-112092182D01*
X178110109Y-111920213D01*
X177959786Y-111769890D01*
X177787820Y-111644951D01*
X177598414Y-111548444D01*
X177598413Y-111548443D01*
X177598412Y-111548443D01*
X177396243Y-111482754D01*
X177396241Y-111482753D01*
X177396240Y-111482753D01*
X177234957Y-111457208D01*
X177186287Y-111449500D01*
X176973713Y-111449500D01*
X176925042Y-111457208D01*
X176763760Y-111482753D01*
X176561585Y-111548444D01*
X176372179Y-111644951D01*
X176200213Y-111769890D01*
X176049890Y-111920213D01*
X175924949Y-112092182D01*
X175920484Y-112100946D01*
X175872509Y-112151742D01*
X175804688Y-112168536D01*
X175738553Y-112145998D01*
X175699516Y-112100946D01*
X175695050Y-112092182D01*
X175570109Y-111920213D01*
X175419786Y-111769890D01*
X175247820Y-111644951D01*
X175058414Y-111548444D01*
X175058413Y-111548443D01*
X175058412Y-111548443D01*
X174856243Y-111482754D01*
X174856241Y-111482753D01*
X174856240Y-111482753D01*
X174694957Y-111457208D01*
X174646287Y-111449500D01*
X174433713Y-111449500D01*
X174385042Y-111457208D01*
X174223760Y-111482753D01*
X174021585Y-111548444D01*
X173832179Y-111644951D01*
X173660213Y-111769890D01*
X173509890Y-111920213D01*
X173384949Y-112092182D01*
X173380484Y-112100946D01*
X173332509Y-112151742D01*
X173264688Y-112168536D01*
X173198553Y-112145998D01*
X173159516Y-112100946D01*
X173155050Y-112092182D01*
X173030109Y-111920213D01*
X172879786Y-111769890D01*
X172707820Y-111644951D01*
X172518414Y-111548444D01*
X172518413Y-111548443D01*
X172518412Y-111548443D01*
X172316243Y-111482754D01*
X172316241Y-111482753D01*
X172316240Y-111482753D01*
X172154957Y-111457208D01*
X172106287Y-111449500D01*
X171893713Y-111449500D01*
X171845042Y-111457208D01*
X171683760Y-111482753D01*
X171481585Y-111548444D01*
X171292179Y-111644951D01*
X171120213Y-111769890D01*
X170969890Y-111920213D01*
X170844949Y-112092182D01*
X170840484Y-112100946D01*
X170792509Y-112151742D01*
X170724688Y-112168536D01*
X170658553Y-112145998D01*
X170619516Y-112100946D01*
X170615050Y-112092182D01*
X170490109Y-111920213D01*
X170339786Y-111769890D01*
X170167820Y-111644951D01*
X169978414Y-111548444D01*
X169978413Y-111548443D01*
X169978412Y-111548443D01*
X169776243Y-111482754D01*
X169776241Y-111482753D01*
X169776240Y-111482753D01*
X169614957Y-111457208D01*
X169566287Y-111449500D01*
X169353713Y-111449500D01*
X169305042Y-111457208D01*
X169143760Y-111482753D01*
X168941585Y-111548444D01*
X168752179Y-111644951D01*
X168580213Y-111769890D01*
X168429890Y-111920213D01*
X168304949Y-112092182D01*
X168300484Y-112100946D01*
X168252509Y-112151742D01*
X168184688Y-112168536D01*
X168118553Y-112145998D01*
X168079516Y-112100946D01*
X168075050Y-112092182D01*
X167950109Y-111920213D01*
X167799786Y-111769890D01*
X167627820Y-111644951D01*
X167438414Y-111548444D01*
X167438413Y-111548443D01*
X167438412Y-111548443D01*
X167236243Y-111482754D01*
X167236241Y-111482753D01*
X167236240Y-111482753D01*
X167074957Y-111457208D01*
X167026287Y-111449500D01*
X166813713Y-111449500D01*
X166765042Y-111457208D01*
X166603760Y-111482753D01*
X166401585Y-111548444D01*
X166212179Y-111644951D01*
X166040213Y-111769890D01*
X165889890Y-111920213D01*
X165764949Y-112092182D01*
X165760484Y-112100946D01*
X165712509Y-112151742D01*
X165644688Y-112168536D01*
X165578553Y-112145998D01*
X165539516Y-112100946D01*
X165535050Y-112092182D01*
X165410109Y-111920213D01*
X165259786Y-111769890D01*
X165087820Y-111644951D01*
X164898414Y-111548444D01*
X164898413Y-111548443D01*
X164898412Y-111548443D01*
X164696243Y-111482754D01*
X164696241Y-111482753D01*
X164696240Y-111482753D01*
X164534957Y-111457208D01*
X164486287Y-111449500D01*
X164273713Y-111449500D01*
X164225042Y-111457208D01*
X164063760Y-111482753D01*
X163861585Y-111548444D01*
X163672179Y-111644951D01*
X163500213Y-111769890D01*
X163349890Y-111920213D01*
X163224949Y-112092182D01*
X163220484Y-112100946D01*
X163172509Y-112151742D01*
X163104688Y-112168536D01*
X163038553Y-112145998D01*
X162999516Y-112100946D01*
X162995050Y-112092182D01*
X162870109Y-111920213D01*
X162719786Y-111769890D01*
X162547820Y-111644951D01*
X162358414Y-111548444D01*
X162358413Y-111548443D01*
X162358412Y-111548443D01*
X162156243Y-111482754D01*
X162156241Y-111482753D01*
X162156240Y-111482753D01*
X161994957Y-111457208D01*
X161946287Y-111449500D01*
X161733713Y-111449500D01*
X161685042Y-111457208D01*
X161523760Y-111482753D01*
X161321585Y-111548444D01*
X161132179Y-111644951D01*
X160960215Y-111769889D01*
X160846673Y-111883431D01*
X160785350Y-111916915D01*
X160715658Y-111911931D01*
X160659725Y-111870059D01*
X160642810Y-111839082D01*
X160593797Y-111707671D01*
X160593793Y-111707664D01*
X160507547Y-111592455D01*
X160507544Y-111592452D01*
X160392335Y-111506206D01*
X160392328Y-111506202D01*
X160257482Y-111455908D01*
X160257483Y-111455908D01*
X160197883Y-111449501D01*
X160197881Y-111449500D01*
X160197873Y-111449500D01*
X160197864Y-111449500D01*
X158402129Y-111449500D01*
X158402123Y-111449501D01*
X158342516Y-111455908D01*
X158207671Y-111506202D01*
X158207664Y-111506206D01*
X158092455Y-111592452D01*
X158092452Y-111592455D01*
X158006206Y-111707664D01*
X158006202Y-111707671D01*
X157955908Y-111842517D01*
X157949501Y-111902116D01*
X157949500Y-111902135D01*
X95580500Y-111902135D01*
X95580500Y-99983713D01*
X100199500Y-99983713D01*
X100199500Y-100196286D01*
X100232753Y-100406239D01*
X100298444Y-100608414D01*
X100394951Y-100797820D01*
X100519890Y-100969786D01*
X100670213Y-101120109D01*
X100842182Y-101245050D01*
X100850946Y-101249516D01*
X100901742Y-101297491D01*
X100918536Y-101365312D01*
X100895998Y-101431447D01*
X100850946Y-101470484D01*
X100842182Y-101474949D01*
X100670213Y-101599890D01*
X100519890Y-101750213D01*
X100394951Y-101922179D01*
X100298444Y-102111585D01*
X100232753Y-102313760D01*
X100199500Y-102523713D01*
X100199500Y-102736287D01*
X100232754Y-102946243D01*
X100295128Y-103138211D01*
X100298444Y-103148414D01*
X100394951Y-103337820D01*
X100519890Y-103509786D01*
X100670213Y-103660109D01*
X100842182Y-103785050D01*
X100850946Y-103789516D01*
X100901742Y-103837491D01*
X100918536Y-103905312D01*
X100895998Y-103971447D01*
X100850946Y-104010484D01*
X100842182Y-104014949D01*
X100670213Y-104139890D01*
X100519890Y-104290213D01*
X100394951Y-104462179D01*
X100298444Y-104651585D01*
X100232753Y-104853760D01*
X100199500Y-105063713D01*
X100199500Y-105276286D01*
X100232753Y-105486239D01*
X100298444Y-105688414D01*
X100394951Y-105877820D01*
X100519890Y-106049786D01*
X100670213Y-106200109D01*
X100842182Y-106325050D01*
X100850946Y-106329516D01*
X100901742Y-106377491D01*
X100918536Y-106445312D01*
X100895998Y-106511447D01*
X100850946Y-106550484D01*
X100842182Y-106554949D01*
X100670213Y-106679890D01*
X100519890Y-106830213D01*
X100394951Y-107002179D01*
X100298444Y-107191585D01*
X100232753Y-107393760D01*
X100199500Y-107603713D01*
X100199500Y-107816286D01*
X100232753Y-108026239D01*
X100298444Y-108228414D01*
X100394951Y-108417820D01*
X100519890Y-108589786D01*
X100670213Y-108740109D01*
X100842179Y-108865048D01*
X100842181Y-108865049D01*
X100842184Y-108865051D01*
X101031588Y-108961557D01*
X101233757Y-109027246D01*
X101443713Y-109060500D01*
X101443714Y-109060500D01*
X101656286Y-109060500D01*
X101656287Y-109060500D01*
X101866243Y-109027246D01*
X102068412Y-108961557D01*
X102257816Y-108865051D01*
X102279789Y-108849086D01*
X102429786Y-108740109D01*
X102429788Y-108740106D01*
X102429792Y-108740104D01*
X102580104Y-108589792D01*
X102580106Y-108589788D01*
X102580109Y-108589786D01*
X102705048Y-108417820D01*
X102705047Y-108417820D01*
X102705051Y-108417816D01*
X102801557Y-108228412D01*
X102867246Y-108026243D01*
X102900500Y-107816287D01*
X102900500Y-107603713D01*
X102867246Y-107393757D01*
X102801557Y-107191588D01*
X102705051Y-107002184D01*
X102705049Y-107002181D01*
X102705048Y-107002179D01*
X102580109Y-106830213D01*
X102429786Y-106679890D01*
X102257820Y-106554951D01*
X102257115Y-106554591D01*
X102249054Y-106550485D01*
X102198259Y-106502512D01*
X102181463Y-106434692D01*
X102203999Y-106368556D01*
X102249054Y-106329515D01*
X102257816Y-106325051D01*
X102279789Y-106309086D01*
X102429786Y-106200109D01*
X102429788Y-106200106D01*
X102429792Y-106200104D01*
X102580104Y-106049792D01*
X102580106Y-106049788D01*
X102580109Y-106049786D01*
X102705048Y-105877820D01*
X102705047Y-105877820D01*
X102705051Y-105877816D01*
X102801557Y-105688412D01*
X102867246Y-105486243D01*
X102900500Y-105276287D01*
X102900500Y-105063713D01*
X102867246Y-104853757D01*
X102801557Y-104651588D01*
X102705051Y-104462184D01*
X102705049Y-104462181D01*
X102705048Y-104462179D01*
X102580109Y-104290213D01*
X102429786Y-104139890D01*
X102257820Y-104014951D01*
X102257115Y-104014591D01*
X102249054Y-104010485D01*
X102198259Y-103962512D01*
X102181463Y-103894692D01*
X102203999Y-103828556D01*
X102249054Y-103789515D01*
X102257816Y-103785051D01*
X102279789Y-103769086D01*
X102400821Y-103681153D01*
X183339500Y-103681153D01*
X183339500Y-103838846D01*
X183370261Y-103993489D01*
X183370264Y-103993501D01*
X183430602Y-104139172D01*
X183430609Y-104139185D01*
X183518210Y-104270288D01*
X183518213Y-104270292D01*
X183629707Y-104381786D01*
X183629711Y-104381789D01*
X183760814Y-104469390D01*
X183760827Y-104469397D01*
X183834078Y-104499738D01*
X183906503Y-104529737D01*
X184061153Y-104560499D01*
X184061156Y-104560500D01*
X184061158Y-104560500D01*
X184218844Y-104560500D01*
X184218845Y-104560499D01*
X184373497Y-104529737D01*
X184519179Y-104469394D01*
X184531021Y-104461481D01*
X184560331Y-104441898D01*
X184627008Y-104421020D01*
X184629221Y-104421000D01*
X185305677Y-104421000D01*
X185364509Y-104438275D01*
X185365447Y-104436521D01*
X185370815Y-104439390D01*
X185370821Y-104439394D01*
X185516503Y-104499737D01*
X185667312Y-104529735D01*
X185671153Y-104530499D01*
X185671156Y-104530500D01*
X185671158Y-104530500D01*
X185828844Y-104530500D01*
X185828845Y-104530499D01*
X185983497Y-104499737D01*
X186129179Y-104439394D01*
X186260289Y-104351789D01*
X186371789Y-104240289D01*
X186459394Y-104109179D01*
X186519737Y-103963497D01*
X186550500Y-103808842D01*
X186550500Y-103651158D01*
X186550500Y-103651155D01*
X186550499Y-103651153D01*
X186537815Y-103587385D01*
X186519737Y-103496503D01*
X186471823Y-103380827D01*
X186459397Y-103350827D01*
X186459390Y-103350814D01*
X186371789Y-103219711D01*
X186371786Y-103219707D01*
X186260292Y-103108213D01*
X186260288Y-103108210D01*
X186129185Y-103020609D01*
X186129172Y-103020602D01*
X185983501Y-102960264D01*
X185983489Y-102960261D01*
X185828845Y-102929500D01*
X185828842Y-102929500D01*
X185671158Y-102929500D01*
X185671155Y-102929500D01*
X185516510Y-102960261D01*
X185516498Y-102960264D01*
X185370828Y-103020602D01*
X185365447Y-103023479D01*
X185364294Y-103021323D01*
X185307869Y-103038981D01*
X185305677Y-103039000D01*
X184515824Y-103039000D01*
X184468372Y-103029561D01*
X184373501Y-102990264D01*
X184373489Y-102990261D01*
X184218845Y-102959500D01*
X184218842Y-102959500D01*
X184061158Y-102959500D01*
X184061155Y-102959500D01*
X183906510Y-102990261D01*
X183906498Y-102990264D01*
X183760827Y-103050602D01*
X183760814Y-103050609D01*
X183629711Y-103138210D01*
X183629707Y-103138213D01*
X183518213Y-103249707D01*
X183518210Y-103249711D01*
X183430609Y-103380814D01*
X183430602Y-103380827D01*
X183370264Y-103526498D01*
X183370261Y-103526510D01*
X183339500Y-103681153D01*
X102400821Y-103681153D01*
X102429786Y-103660109D01*
X102429788Y-103660106D01*
X102429792Y-103660104D01*
X102580104Y-103509792D01*
X102580106Y-103509788D01*
X102580109Y-103509786D01*
X102705048Y-103337820D01*
X102705047Y-103337820D01*
X102705051Y-103337816D01*
X102801557Y-103148412D01*
X102867246Y-102946243D01*
X102900500Y-102736287D01*
X102900500Y-102523713D01*
X102867246Y-102313757D01*
X102801557Y-102111588D01*
X102705051Y-101922184D01*
X102705049Y-101922181D01*
X102705048Y-101922179D01*
X102580109Y-101750213D01*
X102429786Y-101599890D01*
X102257820Y-101474951D01*
X102257115Y-101474591D01*
X102249054Y-101470485D01*
X102198259Y-101422512D01*
X102181463Y-101354692D01*
X102203999Y-101288556D01*
X102249054Y-101249515D01*
X102257816Y-101245051D01*
X102279789Y-101229086D01*
X102429786Y-101120109D01*
X102429788Y-101120106D01*
X102429792Y-101120104D01*
X102580104Y-100969792D01*
X102580106Y-100969788D01*
X102580109Y-100969786D01*
X102705048Y-100797820D01*
X102705047Y-100797820D01*
X102705051Y-100797816D01*
X102801557Y-100608412D01*
X102867246Y-100406243D01*
X102900500Y-100196287D01*
X102900500Y-99983713D01*
X102867246Y-99773757D01*
X102801557Y-99571588D01*
X102705051Y-99382184D01*
X102705049Y-99382181D01*
X102705048Y-99382179D01*
X102580109Y-99210213D01*
X102466181Y-99096285D01*
X102432696Y-99034962D01*
X102437680Y-98965270D01*
X102479552Y-98909337D01*
X102510529Y-98892422D01*
X102642086Y-98843354D01*
X102642093Y-98843350D01*
X102757187Y-98757190D01*
X102757190Y-98757187D01*
X102843350Y-98642093D01*
X102843354Y-98642086D01*
X102893596Y-98507379D01*
X102893598Y-98507372D01*
X102899999Y-98447844D01*
X102900000Y-98447827D01*
X102900000Y-97800000D01*
X101983012Y-97800000D01*
X102015925Y-97742993D01*
X102050000Y-97615826D01*
X102050000Y-97484174D01*
X102015925Y-97357007D01*
X101983012Y-97300000D01*
X102900000Y-97300000D01*
X102900000Y-97071153D01*
X145299500Y-97071153D01*
X145299500Y-97228846D01*
X145330261Y-97383489D01*
X145330264Y-97383501D01*
X145390602Y-97529172D01*
X145390609Y-97529185D01*
X145478210Y-97660288D01*
X145478213Y-97660292D01*
X145589707Y-97771786D01*
X145589711Y-97771789D01*
X145720814Y-97859390D01*
X145720827Y-97859397D01*
X145866498Y-97919735D01*
X145866503Y-97919737D01*
X146019142Y-97950099D01*
X146021153Y-97950499D01*
X146021156Y-97950500D01*
X146021158Y-97950500D01*
X146178844Y-97950500D01*
X146178845Y-97950499D01*
X146333497Y-97919737D01*
X146479179Y-97859394D01*
X146610289Y-97771789D01*
X146721789Y-97660289D01*
X146809394Y-97529179D01*
X146869737Y-97383497D01*
X146900500Y-97228842D01*
X146900500Y-97071158D01*
X146900500Y-97071155D01*
X146900499Y-97071153D01*
X146869739Y-96916511D01*
X146869736Y-96916501D01*
X146820439Y-96797486D01*
X146811000Y-96750034D01*
X146811000Y-96034322D01*
X146828277Y-95975482D01*
X146826525Y-95974546D01*
X146829390Y-95969184D01*
X146829394Y-95969179D01*
X146889737Y-95823497D01*
X146920500Y-95668842D01*
X146920500Y-95511158D01*
X146920500Y-95511155D01*
X146920499Y-95511153D01*
X146889738Y-95356510D01*
X146889737Y-95356503D01*
X146889735Y-95356498D01*
X146829397Y-95210827D01*
X146829390Y-95210814D01*
X146741789Y-95079711D01*
X146741786Y-95079707D01*
X146630292Y-94968213D01*
X146630288Y-94968210D01*
X146499185Y-94880609D01*
X146499172Y-94880602D01*
X146353501Y-94820264D01*
X146353489Y-94820261D01*
X146198845Y-94789500D01*
X146198842Y-94789500D01*
X146041158Y-94789500D01*
X146041155Y-94789500D01*
X145886510Y-94820261D01*
X145886498Y-94820264D01*
X145740827Y-94880602D01*
X145740814Y-94880609D01*
X145609711Y-94968210D01*
X145609707Y-94968213D01*
X145498213Y-95079707D01*
X145498210Y-95079711D01*
X145410609Y-95210814D01*
X145410602Y-95210827D01*
X145350264Y-95356498D01*
X145350261Y-95356510D01*
X145319500Y-95511153D01*
X145319500Y-95668846D01*
X145350261Y-95823489D01*
X145350264Y-95823501D01*
X145410603Y-95969174D01*
X145413475Y-95974546D01*
X145411317Y-95975699D01*
X145428980Y-96032108D01*
X145429000Y-96034322D01*
X145429000Y-96675745D01*
X145409315Y-96742784D01*
X145408103Y-96744635D01*
X145390608Y-96770817D01*
X145390602Y-96770828D01*
X145330264Y-96916498D01*
X145330261Y-96916510D01*
X145299500Y-97071153D01*
X102900000Y-97071153D01*
X102900000Y-96652172D01*
X102899999Y-96652155D01*
X102893598Y-96592627D01*
X102893596Y-96592620D01*
X102843354Y-96457913D01*
X102843350Y-96457906D01*
X102757190Y-96342812D01*
X102757187Y-96342809D01*
X102642093Y-96256649D01*
X102642086Y-96256645D01*
X102507379Y-96206403D01*
X102507372Y-96206401D01*
X102447844Y-96200000D01*
X101800000Y-96200000D01*
X101800000Y-97116988D01*
X101742993Y-97084075D01*
X101615826Y-97050000D01*
X101484174Y-97050000D01*
X101357007Y-97084075D01*
X101300000Y-97116988D01*
X101300000Y-96200000D01*
X100652155Y-96200000D01*
X100592627Y-96206401D01*
X100592620Y-96206403D01*
X100457913Y-96256645D01*
X100457906Y-96256649D01*
X100342812Y-96342809D01*
X100342809Y-96342812D01*
X100256649Y-96457906D01*
X100256645Y-96457913D01*
X100206403Y-96592620D01*
X100206401Y-96592627D01*
X100200000Y-96652155D01*
X100200000Y-97300000D01*
X101116988Y-97300000D01*
X101084075Y-97357007D01*
X101050000Y-97484174D01*
X101050000Y-97615826D01*
X101084075Y-97742993D01*
X101116988Y-97800000D01*
X100200000Y-97800000D01*
X100200000Y-98447844D01*
X100206401Y-98507372D01*
X100206403Y-98507379D01*
X100256645Y-98642086D01*
X100256649Y-98642093D01*
X100342809Y-98757187D01*
X100342812Y-98757190D01*
X100457906Y-98843350D01*
X100457913Y-98843354D01*
X100589470Y-98892422D01*
X100645404Y-98934293D01*
X100669821Y-98999758D01*
X100654969Y-99068031D01*
X100633819Y-99096285D01*
X100519889Y-99210215D01*
X100394951Y-99382179D01*
X100298444Y-99571585D01*
X100232753Y-99773760D01*
X100199500Y-99983713D01*
X95580500Y-99983713D01*
X95580500Y-90153713D01*
X157949500Y-90153713D01*
X157949500Y-90366287D01*
X157959534Y-90429644D01*
X157982753Y-90576239D01*
X158048444Y-90778414D01*
X158144951Y-90967820D01*
X158269890Y-91139786D01*
X158420213Y-91290109D01*
X158592179Y-91415048D01*
X158592181Y-91415049D01*
X158592184Y-91415051D01*
X158781588Y-91511557D01*
X158983757Y-91577246D01*
X159193713Y-91610500D01*
X159193714Y-91610500D01*
X159406286Y-91610500D01*
X159406287Y-91610500D01*
X159616243Y-91577246D01*
X159818412Y-91511557D01*
X160007816Y-91415051D01*
X160029789Y-91399086D01*
X160179786Y-91290109D01*
X160179788Y-91290106D01*
X160179792Y-91290104D01*
X160330104Y-91139792D01*
X160330106Y-91139788D01*
X160330109Y-91139786D01*
X160455048Y-90967820D01*
X160455047Y-90967820D01*
X160455051Y-90967816D01*
X160459514Y-90959054D01*
X160507488Y-90908259D01*
X160575308Y-90891463D01*
X160641444Y-90913999D01*
X160680486Y-90959056D01*
X160684951Y-90967820D01*
X160809890Y-91139786D01*
X160960213Y-91290109D01*
X161132179Y-91415048D01*
X161132181Y-91415049D01*
X161132184Y-91415051D01*
X161321588Y-91511557D01*
X161523757Y-91577246D01*
X161733713Y-91610500D01*
X161733714Y-91610500D01*
X161946286Y-91610500D01*
X161946287Y-91610500D01*
X162156243Y-91577246D01*
X162358412Y-91511557D01*
X162547816Y-91415051D01*
X162569789Y-91399086D01*
X162719786Y-91290109D01*
X162719788Y-91290106D01*
X162719792Y-91290104D01*
X162870104Y-91139792D01*
X162870106Y-91139788D01*
X162870109Y-91139786D01*
X162995048Y-90967820D01*
X162995047Y-90967820D01*
X162995051Y-90967816D01*
X162999514Y-90959054D01*
X163047488Y-90908259D01*
X163115308Y-90891463D01*
X163181444Y-90913999D01*
X163220486Y-90959056D01*
X163224951Y-90967820D01*
X163349890Y-91139786D01*
X163500213Y-91290109D01*
X163672179Y-91415048D01*
X163672181Y-91415049D01*
X163672184Y-91415051D01*
X163861588Y-91511557D01*
X164063757Y-91577246D01*
X164273713Y-91610500D01*
X164273714Y-91610500D01*
X164486286Y-91610500D01*
X164486287Y-91610500D01*
X164696243Y-91577246D01*
X164898412Y-91511557D01*
X165087816Y-91415051D01*
X165109789Y-91399086D01*
X165259786Y-91290109D01*
X165259788Y-91290106D01*
X165259792Y-91290104D01*
X165410104Y-91139792D01*
X165410106Y-91139788D01*
X165410109Y-91139786D01*
X165535048Y-90967820D01*
X165535047Y-90967820D01*
X165535051Y-90967816D01*
X165539514Y-90959054D01*
X165587488Y-90908259D01*
X165655308Y-90891463D01*
X165721444Y-90913999D01*
X165760486Y-90959056D01*
X165764951Y-90967820D01*
X165889890Y-91139786D01*
X166040213Y-91290109D01*
X166212179Y-91415048D01*
X166212181Y-91415049D01*
X166212184Y-91415051D01*
X166401588Y-91511557D01*
X166603757Y-91577246D01*
X166813713Y-91610500D01*
X166813714Y-91610500D01*
X167026286Y-91610500D01*
X167026287Y-91610500D01*
X167236243Y-91577246D01*
X167438412Y-91511557D01*
X167627816Y-91415051D01*
X167649789Y-91399086D01*
X167799786Y-91290109D01*
X167799788Y-91290106D01*
X167799792Y-91290104D01*
X167950104Y-91139792D01*
X167950106Y-91139788D01*
X167950109Y-91139786D01*
X168075048Y-90967820D01*
X168075047Y-90967820D01*
X168075051Y-90967816D01*
X168079514Y-90959054D01*
X168127488Y-90908259D01*
X168195308Y-90891463D01*
X168261444Y-90913999D01*
X168300486Y-90959056D01*
X168304951Y-90967820D01*
X168429890Y-91139786D01*
X168580213Y-91290109D01*
X168752179Y-91415048D01*
X168752181Y-91415049D01*
X168752184Y-91415051D01*
X168941588Y-91511557D01*
X169143757Y-91577246D01*
X169353713Y-91610500D01*
X169353714Y-91610500D01*
X169566286Y-91610500D01*
X169566287Y-91610500D01*
X169776243Y-91577246D01*
X169978412Y-91511557D01*
X170167816Y-91415051D01*
X170189789Y-91399086D01*
X170339786Y-91290109D01*
X170339788Y-91290106D01*
X170339792Y-91290104D01*
X170490104Y-91139792D01*
X170490106Y-91139788D01*
X170490109Y-91139786D01*
X170615048Y-90967820D01*
X170615047Y-90967820D01*
X170615051Y-90967816D01*
X170619514Y-90959054D01*
X170667488Y-90908259D01*
X170735308Y-90891463D01*
X170801444Y-90913999D01*
X170840486Y-90959056D01*
X170844951Y-90967820D01*
X170969890Y-91139786D01*
X171120213Y-91290109D01*
X171292179Y-91415048D01*
X171292181Y-91415049D01*
X171292184Y-91415051D01*
X171481588Y-91511557D01*
X171683757Y-91577246D01*
X171893713Y-91610500D01*
X171893714Y-91610500D01*
X172106286Y-91610500D01*
X172106287Y-91610500D01*
X172316243Y-91577246D01*
X172518412Y-91511557D01*
X172707816Y-91415051D01*
X172729789Y-91399086D01*
X172879786Y-91290109D01*
X172879788Y-91290106D01*
X172879792Y-91290104D01*
X173030104Y-91139792D01*
X173030106Y-91139788D01*
X173030109Y-91139786D01*
X173155048Y-90967820D01*
X173155051Y-90967816D01*
X173159793Y-90958508D01*
X173207763Y-90907711D01*
X173275583Y-90890911D01*
X173341719Y-90913445D01*
X173380763Y-90958500D01*
X173385377Y-90967555D01*
X173510272Y-91139459D01*
X173510276Y-91139464D01*
X173660535Y-91289723D01*
X173660540Y-91289727D01*
X173832442Y-91414620D01*
X174021782Y-91511095D01*
X174223871Y-91576757D01*
X174290000Y-91587231D01*
X174290000Y-90693012D01*
X174347007Y-90725925D01*
X174474174Y-90760000D01*
X174605826Y-90760000D01*
X174732993Y-90725925D01*
X174790000Y-90693012D01*
X174790000Y-91587230D01*
X174856126Y-91576757D01*
X174856129Y-91576757D01*
X175058217Y-91511095D01*
X175247557Y-91414620D01*
X175419459Y-91289727D01*
X175419464Y-91289723D01*
X175569723Y-91139464D01*
X175569727Y-91139459D01*
X175694620Y-90967558D01*
X175699232Y-90958507D01*
X175747205Y-90907709D01*
X175815025Y-90890912D01*
X175881161Y-90913447D01*
X175920204Y-90958504D01*
X175924949Y-90967817D01*
X176049890Y-91139786D01*
X176200213Y-91290109D01*
X176372179Y-91415048D01*
X176372181Y-91415049D01*
X176372184Y-91415051D01*
X176561588Y-91511557D01*
X176763757Y-91577246D01*
X176973713Y-91610500D01*
X176973714Y-91610500D01*
X177186286Y-91610500D01*
X177186287Y-91610500D01*
X177396243Y-91577246D01*
X177598412Y-91511557D01*
X177787816Y-91415051D01*
X177809789Y-91399086D01*
X177959786Y-91290109D01*
X177959788Y-91290106D01*
X177959792Y-91290104D01*
X178110104Y-91139792D01*
X178110106Y-91139788D01*
X178110109Y-91139786D01*
X178235048Y-90967820D01*
X178235047Y-90967820D01*
X178235051Y-90967816D01*
X178239514Y-90959054D01*
X178287488Y-90908259D01*
X178355308Y-90891463D01*
X178421444Y-90913999D01*
X178460486Y-90959056D01*
X178464951Y-90967820D01*
X178589890Y-91139786D01*
X178740213Y-91290109D01*
X178912179Y-91415048D01*
X178912181Y-91415049D01*
X178912184Y-91415051D01*
X179101588Y-91511557D01*
X179303757Y-91577246D01*
X179513713Y-91610500D01*
X179513714Y-91610500D01*
X179726286Y-91610500D01*
X179726287Y-91610500D01*
X179936243Y-91577246D01*
X180138412Y-91511557D01*
X180327816Y-91415051D01*
X180349789Y-91399086D01*
X180499786Y-91290109D01*
X180499788Y-91290106D01*
X180499792Y-91290104D01*
X180650104Y-91139792D01*
X180650106Y-91139788D01*
X180650109Y-91139786D01*
X180775048Y-90967820D01*
X180775047Y-90967820D01*
X180775051Y-90967816D01*
X180779514Y-90959054D01*
X180827488Y-90908259D01*
X180895308Y-90891463D01*
X180961444Y-90913999D01*
X181000486Y-90959056D01*
X181004951Y-90967820D01*
X181129890Y-91139786D01*
X181280213Y-91290109D01*
X181452179Y-91415048D01*
X181452181Y-91415049D01*
X181452184Y-91415051D01*
X181641588Y-91511557D01*
X181843757Y-91577246D01*
X182053713Y-91610500D01*
X182053714Y-91610500D01*
X182266286Y-91610500D01*
X182266287Y-91610500D01*
X182476243Y-91577246D01*
X182678412Y-91511557D01*
X182867816Y-91415051D01*
X182889789Y-91399086D01*
X183039786Y-91290109D01*
X183039788Y-91290106D01*
X183039792Y-91290104D01*
X183190104Y-91139792D01*
X183190106Y-91139788D01*
X183190109Y-91139786D01*
X183315048Y-90967820D01*
X183315047Y-90967820D01*
X183315051Y-90967816D01*
X183411557Y-90778412D01*
X183477246Y-90576243D01*
X183510500Y-90366287D01*
X183510500Y-90153713D01*
X183477246Y-89943757D01*
X183411557Y-89741588D01*
X183315051Y-89552184D01*
X183315049Y-89552181D01*
X183315048Y-89552179D01*
X183190109Y-89380213D01*
X183039786Y-89229890D01*
X182867820Y-89104951D01*
X182867115Y-89104591D01*
X182859054Y-89100485D01*
X182808259Y-89052512D01*
X182791463Y-88984692D01*
X182813999Y-88918556D01*
X182859054Y-88879515D01*
X182867816Y-88875051D01*
X182954471Y-88812093D01*
X183039786Y-88750109D01*
X183039788Y-88750106D01*
X183039792Y-88750104D01*
X183190104Y-88599792D01*
X183190106Y-88599788D01*
X183190109Y-88599786D01*
X183315048Y-88427820D01*
X183315047Y-88427820D01*
X183315051Y-88427816D01*
X183411557Y-88238412D01*
X183477246Y-88036243D01*
X183510500Y-87826287D01*
X183510500Y-87613713D01*
X183477246Y-87403757D01*
X183411557Y-87201588D01*
X183315051Y-87012184D01*
X183315049Y-87012181D01*
X183315048Y-87012179D01*
X183190109Y-86840213D01*
X183039786Y-86689890D01*
X182867820Y-86564951D01*
X182678414Y-86468444D01*
X182678413Y-86468443D01*
X182678412Y-86468443D01*
X182476243Y-86402754D01*
X182476241Y-86402753D01*
X182476240Y-86402753D01*
X182314957Y-86377208D01*
X182266287Y-86369500D01*
X182053713Y-86369500D01*
X182005042Y-86377208D01*
X181843760Y-86402753D01*
X181641585Y-86468444D01*
X181452179Y-86564951D01*
X181280213Y-86689890D01*
X181129890Y-86840213D01*
X181004949Y-87012182D01*
X181000484Y-87020946D01*
X180952509Y-87071742D01*
X180884688Y-87088536D01*
X180818553Y-87065998D01*
X180779516Y-87020946D01*
X180775050Y-87012182D01*
X180650109Y-86840213D01*
X180499786Y-86689890D01*
X180327820Y-86564951D01*
X180138414Y-86468444D01*
X180138413Y-86468443D01*
X180138412Y-86468443D01*
X179936243Y-86402754D01*
X179936241Y-86402753D01*
X179936240Y-86402753D01*
X179774957Y-86377208D01*
X179726287Y-86369500D01*
X179513713Y-86369500D01*
X179465042Y-86377208D01*
X179303760Y-86402753D01*
X179101585Y-86468444D01*
X178912179Y-86564951D01*
X178740213Y-86689890D01*
X178589890Y-86840213D01*
X178464949Y-87012182D01*
X178460484Y-87020946D01*
X178412509Y-87071742D01*
X178344688Y-87088536D01*
X178278553Y-87065998D01*
X178239516Y-87020946D01*
X178235050Y-87012182D01*
X178110109Y-86840213D01*
X177959786Y-86689890D01*
X177787820Y-86564951D01*
X177598414Y-86468444D01*
X177598413Y-86468443D01*
X177598412Y-86468443D01*
X177396243Y-86402754D01*
X177396241Y-86402753D01*
X177396240Y-86402753D01*
X177234957Y-86377208D01*
X177186287Y-86369500D01*
X176973713Y-86369500D01*
X176925042Y-86377208D01*
X176763760Y-86402753D01*
X176561585Y-86468444D01*
X176372179Y-86564951D01*
X176200213Y-86689890D01*
X176049890Y-86840213D01*
X175924949Y-87012182D01*
X175920484Y-87020946D01*
X175872509Y-87071742D01*
X175804688Y-87088536D01*
X175738553Y-87065998D01*
X175699516Y-87020946D01*
X175695050Y-87012182D01*
X175570109Y-86840213D01*
X175419786Y-86689890D01*
X175247820Y-86564951D01*
X175058414Y-86468444D01*
X175058413Y-86468443D01*
X175058412Y-86468443D01*
X174856243Y-86402754D01*
X174856241Y-86402753D01*
X174856240Y-86402753D01*
X174694957Y-86377208D01*
X174646287Y-86369500D01*
X174433713Y-86369500D01*
X174385042Y-86377208D01*
X174223760Y-86402753D01*
X174021585Y-86468444D01*
X173832179Y-86564951D01*
X173660213Y-86689890D01*
X173509890Y-86840213D01*
X173384949Y-87012182D01*
X173380484Y-87020946D01*
X173332509Y-87071742D01*
X173264688Y-87088536D01*
X173198553Y-87065998D01*
X173159516Y-87020946D01*
X173155050Y-87012182D01*
X173030109Y-86840213D01*
X172879786Y-86689890D01*
X172707820Y-86564951D01*
X172518414Y-86468444D01*
X172518413Y-86468443D01*
X172518412Y-86468443D01*
X172316243Y-86402754D01*
X172316241Y-86402753D01*
X172316240Y-86402753D01*
X172154957Y-86377208D01*
X172106287Y-86369500D01*
X171893713Y-86369500D01*
X171845042Y-86377208D01*
X171683760Y-86402753D01*
X171481585Y-86468444D01*
X171292179Y-86564951D01*
X171120213Y-86689890D01*
X170969890Y-86840213D01*
X170844949Y-87012182D01*
X170840484Y-87020946D01*
X170792509Y-87071742D01*
X170724688Y-87088536D01*
X170658553Y-87065998D01*
X170619516Y-87020946D01*
X170615050Y-87012182D01*
X170490109Y-86840213D01*
X170339786Y-86689890D01*
X170167820Y-86564951D01*
X169978414Y-86468444D01*
X169978413Y-86468443D01*
X169978412Y-86468443D01*
X169776243Y-86402754D01*
X169776241Y-86402753D01*
X169776240Y-86402753D01*
X169614957Y-86377208D01*
X169566287Y-86369500D01*
X169353713Y-86369500D01*
X169305042Y-86377208D01*
X169143760Y-86402753D01*
X168941585Y-86468444D01*
X168752179Y-86564951D01*
X168580213Y-86689890D01*
X168429890Y-86840213D01*
X168304949Y-87012182D01*
X168300484Y-87020946D01*
X168252509Y-87071742D01*
X168184688Y-87088536D01*
X168118553Y-87065998D01*
X168079516Y-87020946D01*
X168075050Y-87012182D01*
X167950109Y-86840213D01*
X167799786Y-86689890D01*
X167627820Y-86564951D01*
X167438414Y-86468444D01*
X167438413Y-86468443D01*
X167438412Y-86468443D01*
X167236243Y-86402754D01*
X167236241Y-86402753D01*
X167236240Y-86402753D01*
X167074957Y-86377208D01*
X167026287Y-86369500D01*
X166813713Y-86369500D01*
X166765042Y-86377208D01*
X166603760Y-86402753D01*
X166401585Y-86468444D01*
X166212179Y-86564951D01*
X166040213Y-86689890D01*
X165889890Y-86840213D01*
X165764949Y-87012182D01*
X165760484Y-87020946D01*
X165712509Y-87071742D01*
X165644688Y-87088536D01*
X165578553Y-87065998D01*
X165539516Y-87020946D01*
X165535050Y-87012182D01*
X165410109Y-86840213D01*
X165259786Y-86689890D01*
X165087820Y-86564951D01*
X164898414Y-86468444D01*
X164898413Y-86468443D01*
X164898412Y-86468443D01*
X164696243Y-86402754D01*
X164696241Y-86402753D01*
X164696240Y-86402753D01*
X164534957Y-86377208D01*
X164486287Y-86369500D01*
X164273713Y-86369500D01*
X164225042Y-86377208D01*
X164063760Y-86402753D01*
X163861585Y-86468444D01*
X163672179Y-86564951D01*
X163500213Y-86689890D01*
X163349890Y-86840213D01*
X163224949Y-87012182D01*
X163220484Y-87020946D01*
X163172509Y-87071742D01*
X163104688Y-87088536D01*
X163038553Y-87065998D01*
X162999516Y-87020946D01*
X162995050Y-87012182D01*
X162870109Y-86840213D01*
X162719786Y-86689890D01*
X162547820Y-86564951D01*
X162358414Y-86468444D01*
X162358413Y-86468443D01*
X162358412Y-86468443D01*
X162156243Y-86402754D01*
X162156241Y-86402753D01*
X162156240Y-86402753D01*
X161994957Y-86377208D01*
X161946287Y-86369500D01*
X161733713Y-86369500D01*
X161685042Y-86377208D01*
X161523760Y-86402753D01*
X161321585Y-86468444D01*
X161132179Y-86564951D01*
X160960215Y-86689889D01*
X160846285Y-86803819D01*
X160784962Y-86837303D01*
X160715270Y-86832319D01*
X160659337Y-86790447D01*
X160642422Y-86759470D01*
X160593354Y-86627913D01*
X160593350Y-86627906D01*
X160507190Y-86512812D01*
X160507187Y-86512809D01*
X160392093Y-86426649D01*
X160392086Y-86426645D01*
X160257379Y-86376403D01*
X160257372Y-86376401D01*
X160197844Y-86370000D01*
X159550000Y-86370000D01*
X159550000Y-87286988D01*
X159492993Y-87254075D01*
X159365826Y-87220000D01*
X159234174Y-87220000D01*
X159107007Y-87254075D01*
X159050000Y-87286988D01*
X159050000Y-86370000D01*
X158402155Y-86370000D01*
X158342627Y-86376401D01*
X158342620Y-86376403D01*
X158207913Y-86426645D01*
X158207906Y-86426649D01*
X158092812Y-86512809D01*
X158092809Y-86512812D01*
X158006649Y-86627906D01*
X158006645Y-86627913D01*
X157956403Y-86762620D01*
X157956401Y-86762627D01*
X157950000Y-86822155D01*
X157950000Y-87470000D01*
X158866988Y-87470000D01*
X158834075Y-87527007D01*
X158800000Y-87654174D01*
X158800000Y-87785826D01*
X158834075Y-87912993D01*
X158866988Y-87970000D01*
X157950000Y-87970000D01*
X157950000Y-88617844D01*
X157956401Y-88677372D01*
X157956403Y-88677379D01*
X158006645Y-88812086D01*
X158006649Y-88812093D01*
X158092809Y-88927187D01*
X158092812Y-88927190D01*
X158207906Y-89013350D01*
X158207913Y-89013354D01*
X158339470Y-89062422D01*
X158395404Y-89104293D01*
X158419821Y-89169758D01*
X158404969Y-89238031D01*
X158383819Y-89266285D01*
X158269889Y-89380215D01*
X158144951Y-89552179D01*
X158048444Y-89741585D01*
X157982753Y-89943760D01*
X157981291Y-89952993D01*
X157949500Y-90153713D01*
X95580500Y-90153713D01*
X95580500Y-82888872D01*
X102868672Y-82888872D01*
X102868672Y-83151127D01*
X102889608Y-83310140D01*
X102902902Y-83411116D01*
X102924350Y-83491161D01*
X102970774Y-83664418D01*
X102970777Y-83664428D01*
X103071125Y-83906690D01*
X103071130Y-83906700D01*
X103202247Y-84133803D01*
X103361890Y-84341851D01*
X103361898Y-84341860D01*
X103547312Y-84527274D01*
X103547320Y-84527281D01*
X103755368Y-84686924D01*
X103982471Y-84818041D01*
X103982481Y-84818046D01*
X104224743Y-84918394D01*
X104224753Y-84918398D01*
X104478056Y-84986270D01*
X104738052Y-85020500D01*
X104738059Y-85020500D01*
X105000285Y-85020500D01*
X105000292Y-85020500D01*
X105260288Y-84986270D01*
X105513591Y-84918398D01*
X105755869Y-84818043D01*
X105982975Y-84686924D01*
X106191023Y-84527282D01*
X106191027Y-84527277D01*
X106191032Y-84527274D01*
X106376446Y-84341860D01*
X106376449Y-84341855D01*
X106376454Y-84341851D01*
X106536096Y-84133803D01*
X106667215Y-83906697D01*
X106767570Y-83664419D01*
X106835442Y-83411116D01*
X106869672Y-83151120D01*
X106869672Y-82888880D01*
X106869671Y-82888872D01*
X168619500Y-82888872D01*
X168619500Y-83151127D01*
X168640436Y-83310140D01*
X168653730Y-83411116D01*
X168675178Y-83491161D01*
X168721602Y-83664418D01*
X168721605Y-83664428D01*
X168821953Y-83906690D01*
X168821958Y-83906700D01*
X168953075Y-84133803D01*
X169112718Y-84341851D01*
X169112726Y-84341860D01*
X169298140Y-84527274D01*
X169298148Y-84527281D01*
X169506196Y-84686924D01*
X169733299Y-84818041D01*
X169733309Y-84818046D01*
X169975571Y-84918394D01*
X169975581Y-84918398D01*
X170228884Y-84986270D01*
X170488880Y-85020500D01*
X170488887Y-85020500D01*
X170751113Y-85020500D01*
X170751120Y-85020500D01*
X171011116Y-84986270D01*
X171264419Y-84918398D01*
X171506697Y-84818043D01*
X171733803Y-84686924D01*
X171941851Y-84527282D01*
X171941855Y-84527277D01*
X171941860Y-84527274D01*
X172127274Y-84341860D01*
X172127277Y-84341855D01*
X172127282Y-84341851D01*
X172286924Y-84133803D01*
X172418043Y-83906697D01*
X172518398Y-83664419D01*
X172586270Y-83411116D01*
X172620500Y-83151120D01*
X172620500Y-82888880D01*
X172586270Y-82628884D01*
X172518398Y-82375581D01*
X172420204Y-82138520D01*
X172418046Y-82133309D01*
X172418041Y-82133299D01*
X172286924Y-81906196D01*
X172127281Y-81698148D01*
X172127274Y-81698140D01*
X171941860Y-81512726D01*
X171941851Y-81512718D01*
X171733803Y-81353075D01*
X171506700Y-81221958D01*
X171506690Y-81221953D01*
X171264428Y-81121605D01*
X171264421Y-81121603D01*
X171264419Y-81121602D01*
X171011116Y-81053730D01*
X170953339Y-81046123D01*
X170751127Y-81019500D01*
X170751120Y-81019500D01*
X170488880Y-81019500D01*
X170488872Y-81019500D01*
X170257772Y-81049926D01*
X170228884Y-81053730D01*
X169975581Y-81121602D01*
X169975571Y-81121605D01*
X169733309Y-81221953D01*
X169733299Y-81221958D01*
X169506196Y-81353075D01*
X169298148Y-81512718D01*
X169112718Y-81698148D01*
X168953075Y-81906196D01*
X168821958Y-82133299D01*
X168821953Y-82133309D01*
X168721605Y-82375571D01*
X168721602Y-82375581D01*
X168653730Y-82628885D01*
X168619500Y-82888872D01*
X106869671Y-82888872D01*
X106835442Y-82628884D01*
X106767570Y-82375581D01*
X106669376Y-82138520D01*
X106667218Y-82133309D01*
X106667213Y-82133299D01*
X106536096Y-81906196D01*
X106376453Y-81698148D01*
X106376446Y-81698140D01*
X106191032Y-81512726D01*
X106191023Y-81512718D01*
X105982975Y-81353075D01*
X105755872Y-81221958D01*
X105755862Y-81221953D01*
X105513600Y-81121605D01*
X105513593Y-81121603D01*
X105513591Y-81121602D01*
X105260288Y-81053730D01*
X105202511Y-81046123D01*
X105000299Y-81019500D01*
X105000292Y-81019500D01*
X104738052Y-81019500D01*
X104738044Y-81019500D01*
X104506944Y-81049926D01*
X104478056Y-81053730D01*
X104224753Y-81121602D01*
X104224743Y-81121605D01*
X103982481Y-81221953D01*
X103982471Y-81221958D01*
X103755368Y-81353075D01*
X103547320Y-81512718D01*
X103361890Y-81698148D01*
X103202247Y-81906196D01*
X103071130Y-82133299D01*
X103071125Y-82133309D01*
X102970777Y-82375571D01*
X102970774Y-82375581D01*
X102902902Y-82628885D01*
X102868672Y-82888872D01*
X95580500Y-82888872D01*
X95580500Y-68583713D01*
X101514500Y-68583713D01*
X101514500Y-68796286D01*
X101544825Y-68987754D01*
X101547754Y-69006243D01*
X101582264Y-69112454D01*
X101613444Y-69208414D01*
X101709951Y-69397820D01*
X101834890Y-69569786D01*
X101985209Y-69720105D01*
X101985214Y-69720109D01*
X102149793Y-69839682D01*
X102192459Y-69895011D01*
X102198438Y-69964625D01*
X102165833Y-70026420D01*
X102149793Y-70040318D01*
X101985214Y-70159890D01*
X101985209Y-70159894D01*
X101834890Y-70310213D01*
X101709951Y-70482179D01*
X101613444Y-70671585D01*
X101547753Y-70873760D01*
X101514500Y-71083713D01*
X101514500Y-71296286D01*
X101535289Y-71427546D01*
X101547754Y-71506243D01*
X101606730Y-71687753D01*
X101613444Y-71708414D01*
X101709951Y-71897820D01*
X101834890Y-72069786D01*
X101973705Y-72208601D01*
X102007190Y-72269924D01*
X102002206Y-72339616D01*
X101960334Y-72395549D01*
X101951121Y-72401821D01*
X101796342Y-72497289D01*
X101672289Y-72621342D01*
X101580187Y-72770663D01*
X101580186Y-72770666D01*
X101525001Y-72937203D01*
X101525001Y-72937204D01*
X101525000Y-72937204D01*
X101514500Y-73039983D01*
X101514500Y-74340001D01*
X101514501Y-74340018D01*
X101525000Y-74442796D01*
X101525001Y-74442799D01*
X101580185Y-74609331D01*
X101580187Y-74609336D01*
X101615069Y-74665888D01*
X101672288Y-74758656D01*
X101796344Y-74882712D01*
X101945666Y-74974814D01*
X102112203Y-75029999D01*
X102214991Y-75040500D01*
X103765008Y-75040499D01*
X103867797Y-75029999D01*
X104034334Y-74974814D01*
X104183656Y-74882712D01*
X104307712Y-74758656D01*
X104391918Y-74622135D01*
X109029500Y-74622135D01*
X109029500Y-76417870D01*
X109029501Y-76417876D01*
X109035908Y-76477483D01*
X109086202Y-76612328D01*
X109086206Y-76612335D01*
X109172452Y-76727544D01*
X109172455Y-76727547D01*
X109287664Y-76813793D01*
X109287671Y-76813797D01*
X109422517Y-76864091D01*
X109422516Y-76864091D01*
X109429444Y-76864835D01*
X109482127Y-76870500D01*
X111277872Y-76870499D01*
X111337483Y-76864091D01*
X111472331Y-76813796D01*
X111587546Y-76727546D01*
X111673796Y-76612331D01*
X111724091Y-76477483D01*
X111730500Y-76417873D01*
X111730499Y-74622135D01*
X123529500Y-74622135D01*
X123529500Y-76417870D01*
X123529501Y-76417876D01*
X123535908Y-76477483D01*
X123586202Y-76612328D01*
X123586206Y-76612335D01*
X123672452Y-76727544D01*
X123672455Y-76727547D01*
X123787664Y-76813793D01*
X123787671Y-76813797D01*
X123922517Y-76864091D01*
X123922516Y-76864091D01*
X123929444Y-76864835D01*
X123982127Y-76870500D01*
X125777872Y-76870499D01*
X125837483Y-76864091D01*
X125972331Y-76813796D01*
X126087546Y-76727546D01*
X126173796Y-76612331D01*
X126224091Y-76477483D01*
X126230500Y-76417873D01*
X126230500Y-76227648D01*
X131929500Y-76227648D01*
X131929500Y-76432351D01*
X131961522Y-76634534D01*
X132024781Y-76829223D01*
X132117715Y-77011613D01*
X132238028Y-77177213D01*
X132382786Y-77321971D01*
X132537749Y-77434556D01*
X132548390Y-77442287D01*
X132664607Y-77501503D01*
X132730776Y-77535218D01*
X132730778Y-77535218D01*
X132730781Y-77535220D01*
X132835137Y-77569127D01*
X132925465Y-77598477D01*
X133026557Y-77614488D01*
X133127648Y-77630500D01*
X133127649Y-77630500D01*
X133332351Y-77630500D01*
X133332352Y-77630500D01*
X133534534Y-77598477D01*
X133729219Y-77535220D01*
X133911610Y-77442287D01*
X134004590Y-77374732D01*
X134077213Y-77321971D01*
X134077215Y-77321968D01*
X134077219Y-77321966D01*
X134221966Y-77177219D01*
X134221968Y-77177215D01*
X134221971Y-77177213D01*
X134274732Y-77104590D01*
X134342287Y-77011610D01*
X134435220Y-76829219D01*
X134498477Y-76634534D01*
X134530500Y-76432352D01*
X134530500Y-76227648D01*
X142089500Y-76227648D01*
X142089500Y-76432351D01*
X142121522Y-76634534D01*
X142184781Y-76829223D01*
X142277715Y-77011613D01*
X142398028Y-77177213D01*
X142542786Y-77321971D01*
X142697749Y-77434556D01*
X142708390Y-77442287D01*
X142824607Y-77501503D01*
X142890776Y-77535218D01*
X142890778Y-77535218D01*
X142890781Y-77535220D01*
X142995137Y-77569127D01*
X143085465Y-77598477D01*
X143186557Y-77614488D01*
X143287648Y-77630500D01*
X143287649Y-77630500D01*
X143492351Y-77630500D01*
X143492352Y-77630500D01*
X143694534Y-77598477D01*
X143889219Y-77535220D01*
X144071610Y-77442287D01*
X144164590Y-77374732D01*
X144237213Y-77321971D01*
X144237215Y-77321968D01*
X144237219Y-77321966D01*
X144381966Y-77177219D01*
X144381968Y-77177215D01*
X144381971Y-77177213D01*
X144434732Y-77104590D01*
X144502287Y-77011610D01*
X144595220Y-76829219D01*
X144658477Y-76634534D01*
X144690500Y-76432352D01*
X144690500Y-76227648D01*
X144686118Y-76199983D01*
X153579500Y-76199983D01*
X153579500Y-77800001D01*
X153579501Y-77800018D01*
X153590000Y-77902796D01*
X153590001Y-77902799D01*
X153635894Y-78041294D01*
X153645186Y-78069334D01*
X153737288Y-78218656D01*
X153861344Y-78342712D01*
X154010666Y-78434814D01*
X154177203Y-78489999D01*
X154279991Y-78500500D01*
X155580008Y-78500499D01*
X155682797Y-78489999D01*
X155849334Y-78434814D01*
X155998656Y-78342712D01*
X156122712Y-78218656D01*
X156214814Y-78069334D01*
X156214814Y-78069331D01*
X156218178Y-78063879D01*
X156270126Y-78017154D01*
X156339088Y-78005931D01*
X156403170Y-78033774D01*
X156411398Y-78041294D01*
X156550213Y-78180109D01*
X156722179Y-78305048D01*
X156722181Y-78305049D01*
X156722184Y-78305051D01*
X156911588Y-78401557D01*
X157113757Y-78467246D01*
X157323713Y-78500500D01*
X157323714Y-78500500D01*
X157536286Y-78500500D01*
X157536287Y-78500500D01*
X157746243Y-78467246D01*
X157948412Y-78401557D01*
X158137816Y-78305051D01*
X158159789Y-78289086D01*
X158309786Y-78180109D01*
X158309788Y-78180106D01*
X158309792Y-78180104D01*
X158460104Y-78029792D01*
X158460106Y-78029788D01*
X158460109Y-78029786D01*
X158585048Y-77857820D01*
X158585047Y-77857820D01*
X158585051Y-77857816D01*
X158681557Y-77668412D01*
X158747246Y-77466243D01*
X158780500Y-77256287D01*
X158780500Y-76743713D01*
X158747246Y-76533757D01*
X158681557Y-76331588D01*
X158585051Y-76142184D01*
X158585049Y-76142181D01*
X158585048Y-76142179D01*
X158460109Y-75970213D01*
X158309786Y-75819890D01*
X158137820Y-75694951D01*
X157948414Y-75598444D01*
X157948413Y-75598443D01*
X157948412Y-75598443D01*
X157746243Y-75532754D01*
X157746241Y-75532753D01*
X157746240Y-75532753D01*
X157584957Y-75507208D01*
X157536287Y-75499500D01*
X157323713Y-75499500D01*
X157275042Y-75507208D01*
X157113760Y-75532753D01*
X156911585Y-75598444D01*
X156722179Y-75694951D01*
X156550215Y-75819889D01*
X156411398Y-75958706D01*
X156350075Y-75992190D01*
X156280383Y-75987206D01*
X156224450Y-75945334D01*
X156218178Y-75936120D01*
X156122712Y-75781344D01*
X155998657Y-75657289D01*
X155998656Y-75657288D01*
X155849334Y-75565186D01*
X155682797Y-75510001D01*
X155682795Y-75510000D01*
X155580010Y-75499500D01*
X154279998Y-75499500D01*
X154279981Y-75499501D01*
X154177203Y-75510000D01*
X154177200Y-75510001D01*
X154010668Y-75565185D01*
X154010663Y-75565187D01*
X153861342Y-75657289D01*
X153737289Y-75781342D01*
X153645187Y-75930663D01*
X153645185Y-75930668D01*
X153640325Y-75945334D01*
X153590001Y-76097203D01*
X153590001Y-76097204D01*
X153590000Y-76097204D01*
X153579500Y-76199983D01*
X144686118Y-76199983D01*
X144680181Y-76162500D01*
X144658477Y-76025465D01*
X144595218Y-75830776D01*
X144561503Y-75764607D01*
X144502287Y-75648390D01*
X144494556Y-75637749D01*
X144381971Y-75482786D01*
X144237213Y-75338028D01*
X144071613Y-75217715D01*
X144071612Y-75217714D01*
X144071610Y-75217713D01*
X144014653Y-75188691D01*
X143889223Y-75124781D01*
X143694534Y-75061522D01*
X143519995Y-75033878D01*
X143492352Y-75029500D01*
X143287648Y-75029500D01*
X143263329Y-75033351D01*
X143085465Y-75061522D01*
X142890776Y-75124781D01*
X142708386Y-75217715D01*
X142542786Y-75338028D01*
X142398028Y-75482786D01*
X142277715Y-75648386D01*
X142184781Y-75830776D01*
X142121522Y-76025465D01*
X142089500Y-76227648D01*
X134530500Y-76227648D01*
X134528691Y-76216227D01*
X134498477Y-76025465D01*
X134435218Y-75830776D01*
X134401503Y-75764607D01*
X134342287Y-75648390D01*
X134334556Y-75637749D01*
X134221971Y-75482786D01*
X134077213Y-75338028D01*
X133911613Y-75217715D01*
X133911612Y-75217714D01*
X133911610Y-75217713D01*
X133854653Y-75188691D01*
X133729223Y-75124781D01*
X133534534Y-75061522D01*
X133359995Y-75033878D01*
X133332352Y-75029500D01*
X133127648Y-75029500D01*
X133103329Y-75033351D01*
X132925465Y-75061522D01*
X132730776Y-75124781D01*
X132548386Y-75217715D01*
X132382786Y-75338028D01*
X132238028Y-75482786D01*
X132117715Y-75648386D01*
X132024781Y-75830776D01*
X131961522Y-76025465D01*
X131929500Y-76227648D01*
X126230500Y-76227648D01*
X126230499Y-75510001D01*
X126230499Y-74622129D01*
X126230498Y-74622123D01*
X126230497Y-74622116D01*
X126224091Y-74562517D01*
X126215623Y-74539814D01*
X126173797Y-74427671D01*
X126173793Y-74427664D01*
X126087547Y-74312455D01*
X126087544Y-74312452D01*
X125972335Y-74226206D01*
X125972328Y-74226202D01*
X125837482Y-74175908D01*
X125837483Y-74175908D01*
X125777883Y-74169501D01*
X125777881Y-74169500D01*
X125777873Y-74169500D01*
X125777864Y-74169500D01*
X123982129Y-74169500D01*
X123982123Y-74169501D01*
X123922516Y-74175908D01*
X123787671Y-74226202D01*
X123787664Y-74226206D01*
X123672455Y-74312452D01*
X123672452Y-74312455D01*
X123586206Y-74427664D01*
X123586202Y-74427671D01*
X123535908Y-74562517D01*
X123530875Y-74609334D01*
X123529501Y-74622123D01*
X123529500Y-74622135D01*
X111730499Y-74622135D01*
X111730499Y-74622128D01*
X111724091Y-74562517D01*
X111715623Y-74539814D01*
X111673797Y-74427671D01*
X111673793Y-74427664D01*
X111587547Y-74312455D01*
X111587544Y-74312452D01*
X111472335Y-74226206D01*
X111472328Y-74226202D01*
X111337482Y-74175908D01*
X111337483Y-74175908D01*
X111277883Y-74169501D01*
X111277881Y-74169500D01*
X111277873Y-74169500D01*
X111277864Y-74169500D01*
X109482129Y-74169500D01*
X109482123Y-74169501D01*
X109422516Y-74175908D01*
X109287671Y-74226202D01*
X109287664Y-74226206D01*
X109172455Y-74312452D01*
X109172452Y-74312455D01*
X109086206Y-74427664D01*
X109086202Y-74427671D01*
X109035908Y-74562517D01*
X109030875Y-74609334D01*
X109029501Y-74622123D01*
X109029500Y-74622135D01*
X104391918Y-74622135D01*
X104399814Y-74609334D01*
X104404564Y-74594999D01*
X104409598Y-74579808D01*
X104409600Y-74579802D01*
X104415328Y-74562516D01*
X104454999Y-74442797D01*
X104465500Y-74340009D01*
X104465499Y-73039992D01*
X104454999Y-72937203D01*
X104399814Y-72770666D01*
X104307712Y-72621344D01*
X104183656Y-72497288D01*
X104183655Y-72497287D01*
X104118943Y-72457373D01*
X104034334Y-72405186D01*
X104034332Y-72405185D01*
X104028878Y-72401821D01*
X103986750Y-72354983D01*
X175379500Y-72354983D01*
X175379500Y-73905001D01*
X175379501Y-73905018D01*
X175390000Y-74007796D01*
X175390001Y-74007799D01*
X175424031Y-74110493D01*
X175445186Y-74174334D01*
X175537288Y-74323656D01*
X175661344Y-74447712D01*
X175810666Y-74539814D01*
X175977203Y-74594999D01*
X176079991Y-74605500D01*
X177380008Y-74605499D01*
X177482797Y-74594999D01*
X177649334Y-74539814D01*
X177798656Y-74447712D01*
X177922712Y-74323656D01*
X178014814Y-74174334D01*
X178014814Y-74174331D01*
X178018448Y-74168441D01*
X178070395Y-74121716D01*
X178139358Y-74110493D01*
X178203440Y-74138336D01*
X178211668Y-74145856D01*
X178350535Y-74284723D01*
X178350540Y-74284727D01*
X178522442Y-74409620D01*
X178711782Y-74506095D01*
X178913871Y-74571757D01*
X178980000Y-74582231D01*
X178980000Y-73534145D01*
X179046657Y-73572630D01*
X179167465Y-73605000D01*
X179292535Y-73605000D01*
X179413343Y-73572630D01*
X179480000Y-73534145D01*
X179480000Y-74582230D01*
X179546126Y-74571757D01*
X179546129Y-74571757D01*
X179748217Y-74506095D01*
X179937557Y-74409620D01*
X180109459Y-74284727D01*
X180109464Y-74284723D01*
X180259721Y-74134466D01*
X180379371Y-73969781D01*
X180434701Y-73927115D01*
X180504314Y-73921136D01*
X180566110Y-73953741D01*
X180580008Y-73969781D01*
X180699890Y-74134785D01*
X180699894Y-74134790D01*
X180850213Y-74285109D01*
X181022179Y-74410048D01*
X181022181Y-74410049D01*
X181022184Y-74410051D01*
X181211588Y-74506557D01*
X181413757Y-74572246D01*
X181623713Y-74605500D01*
X181623714Y-74605500D01*
X181836286Y-74605500D01*
X181836287Y-74605500D01*
X182046243Y-74572246D01*
X182248412Y-74506557D01*
X182437816Y-74410051D01*
X182534212Y-74340016D01*
X182609786Y-74285109D01*
X182609788Y-74285106D01*
X182609792Y-74285104D01*
X182760104Y-74134792D01*
X182879683Y-73970204D01*
X182935011Y-73927540D01*
X183004624Y-73921561D01*
X183066420Y-73954166D01*
X183080313Y-73970199D01*
X183182242Y-74110493D01*
X183199896Y-74134792D01*
X183350213Y-74285109D01*
X183522179Y-74410048D01*
X183522181Y-74410049D01*
X183522184Y-74410051D01*
X183711588Y-74506557D01*
X183913757Y-74572246D01*
X184123713Y-74605500D01*
X184123714Y-74605500D01*
X184336286Y-74605500D01*
X184336287Y-74605500D01*
X184546243Y-74572246D01*
X184748412Y-74506557D01*
X184937816Y-74410051D01*
X185034212Y-74340016D01*
X185109786Y-74285109D01*
X185109788Y-74285106D01*
X185109792Y-74285104D01*
X185260104Y-74134792D01*
X185379683Y-73970204D01*
X185435011Y-73927540D01*
X185504624Y-73921561D01*
X185566420Y-73954166D01*
X185580313Y-73970199D01*
X185682242Y-74110493D01*
X185699896Y-74134792D01*
X185850213Y-74285109D01*
X186022179Y-74410048D01*
X186022181Y-74410049D01*
X186022184Y-74410051D01*
X186211588Y-74506557D01*
X186413757Y-74572246D01*
X186623713Y-74605500D01*
X186623714Y-74605500D01*
X186836286Y-74605500D01*
X186836287Y-74605500D01*
X187046243Y-74572246D01*
X187248412Y-74506557D01*
X187437816Y-74410051D01*
X187534212Y-74340016D01*
X187609786Y-74285109D01*
X187609788Y-74285106D01*
X187609792Y-74285104D01*
X187760104Y-74134792D01*
X187760106Y-74134788D01*
X187760109Y-74134786D01*
X187885048Y-73962820D01*
X187885047Y-73962820D01*
X187885051Y-73962816D01*
X187981557Y-73773412D01*
X188047246Y-73571243D01*
X188080500Y-73361287D01*
X188080500Y-72898713D01*
X188047246Y-72688757D01*
X187981557Y-72486588D01*
X187885051Y-72297184D01*
X187885049Y-72297181D01*
X187885048Y-72297179D01*
X187760109Y-72125213D01*
X187609786Y-71974890D01*
X187437820Y-71849951D01*
X187248414Y-71753444D01*
X187248413Y-71753443D01*
X187248412Y-71753443D01*
X187046243Y-71687754D01*
X187046241Y-71687753D01*
X187046240Y-71687753D01*
X186884957Y-71662208D01*
X186836287Y-71654500D01*
X186623713Y-71654500D01*
X186575042Y-71662208D01*
X186413760Y-71687753D01*
X186211585Y-71753444D01*
X186022179Y-71849951D01*
X185850213Y-71974890D01*
X185699894Y-72125209D01*
X185699890Y-72125214D01*
X185580318Y-72289793D01*
X185524989Y-72332459D01*
X185455375Y-72338438D01*
X185393580Y-72305833D01*
X185379682Y-72289793D01*
X185260109Y-72125214D01*
X185260105Y-72125209D01*
X185109786Y-71974890D01*
X184937820Y-71849951D01*
X184748414Y-71753444D01*
X184748413Y-71753443D01*
X184748412Y-71753443D01*
X184546243Y-71687754D01*
X184546241Y-71687753D01*
X184546240Y-71687753D01*
X184384957Y-71662208D01*
X184336287Y-71654500D01*
X184123713Y-71654500D01*
X184075042Y-71662208D01*
X183913760Y-71687753D01*
X183711585Y-71753444D01*
X183522179Y-71849951D01*
X183350213Y-71974890D01*
X183199894Y-72125209D01*
X183199890Y-72125214D01*
X183080318Y-72289793D01*
X183024989Y-72332459D01*
X182955375Y-72338438D01*
X182893580Y-72305833D01*
X182879682Y-72289793D01*
X182760109Y-72125214D01*
X182760105Y-72125209D01*
X182609786Y-71974890D01*
X182437820Y-71849951D01*
X182248414Y-71753444D01*
X182248413Y-71753443D01*
X182248412Y-71753443D01*
X182046243Y-71687754D01*
X182046241Y-71687753D01*
X182046240Y-71687753D01*
X181884957Y-71662208D01*
X181836287Y-71654500D01*
X181623713Y-71654500D01*
X181575042Y-71662208D01*
X181413760Y-71687753D01*
X181211585Y-71753444D01*
X181022179Y-71849951D01*
X180850213Y-71974890D01*
X180699894Y-72125209D01*
X180699890Y-72125214D01*
X180580008Y-72290218D01*
X180524678Y-72332884D01*
X180455065Y-72338863D01*
X180393270Y-72306257D01*
X180379372Y-72290218D01*
X180259727Y-72125540D01*
X180259723Y-72125535D01*
X180109464Y-71975276D01*
X180109459Y-71975272D01*
X179937557Y-71850379D01*
X179748215Y-71753903D01*
X179546124Y-71688241D01*
X179480000Y-71677768D01*
X179480000Y-72725854D01*
X179413343Y-72687370D01*
X179292535Y-72655000D01*
X179167465Y-72655000D01*
X179046657Y-72687370D01*
X178980000Y-72725854D01*
X178980000Y-71677768D01*
X178979999Y-71677768D01*
X178913875Y-71688241D01*
X178711784Y-71753903D01*
X178522442Y-71850379D01*
X178350541Y-71975271D01*
X178211668Y-72114144D01*
X178150345Y-72147628D01*
X178080653Y-72142644D01*
X178024720Y-72100772D01*
X178018448Y-72091558D01*
X177922712Y-71936344D01*
X177798657Y-71812289D01*
X177798656Y-71812288D01*
X177649334Y-71720186D01*
X177482797Y-71665001D01*
X177482795Y-71665000D01*
X177380010Y-71654500D01*
X176079998Y-71654500D01*
X176079981Y-71654501D01*
X175977203Y-71665000D01*
X175977200Y-71665001D01*
X175810668Y-71720185D01*
X175810663Y-71720187D01*
X175661342Y-71812289D01*
X175537289Y-71936342D01*
X175445187Y-72085663D01*
X175445185Y-72085668D01*
X175440180Y-72100772D01*
X175390001Y-72252203D01*
X175390001Y-72252204D01*
X175390000Y-72252204D01*
X175379500Y-72354983D01*
X103986750Y-72354983D01*
X103982154Y-72349873D01*
X103970931Y-72280910D01*
X103998775Y-72216828D01*
X104006272Y-72208623D01*
X104145104Y-72069792D01*
X104214050Y-71974896D01*
X104270048Y-71897820D01*
X104270047Y-71897820D01*
X104270051Y-71897816D01*
X104366557Y-71708412D01*
X104432246Y-71506243D01*
X104465500Y-71296287D01*
X104465500Y-71083713D01*
X104432246Y-70873757D01*
X104366557Y-70671588D01*
X104270051Y-70482184D01*
X104270049Y-70482181D01*
X104270048Y-70482179D01*
X104145109Y-70310213D01*
X103994792Y-70159896D01*
X103994784Y-70159890D01*
X103830204Y-70040316D01*
X103787540Y-69984989D01*
X103781561Y-69915376D01*
X103814166Y-69853580D01*
X103830199Y-69839686D01*
X103994792Y-69720104D01*
X104145104Y-69569792D01*
X104145106Y-69569788D01*
X104145109Y-69569786D01*
X104252382Y-69422135D01*
X131769500Y-69422135D01*
X131769500Y-71117870D01*
X131769501Y-71117876D01*
X131775908Y-71177483D01*
X131826202Y-71312328D01*
X131826206Y-71312335D01*
X131912452Y-71427544D01*
X131912455Y-71427547D01*
X132027664Y-71513793D01*
X132027671Y-71513797D01*
X132162517Y-71564091D01*
X132162516Y-71564091D01*
X132169444Y-71564835D01*
X132222127Y-71570500D01*
X133917872Y-71570499D01*
X133977483Y-71564091D01*
X134112331Y-71513796D01*
X134227546Y-71427546D01*
X134313796Y-71312331D01*
X134364091Y-71177483D01*
X134370500Y-71117873D01*
X134370499Y-69422128D01*
X134370498Y-69422116D01*
X134370498Y-69422114D01*
X134369955Y-69417063D01*
X134369955Y-69417062D01*
X134369954Y-69417059D01*
X134368887Y-69407135D01*
X139684500Y-69407135D01*
X139684500Y-71202870D01*
X139684501Y-71202876D01*
X139690908Y-71262483D01*
X139741202Y-71397328D01*
X139741206Y-71397335D01*
X139827452Y-71512544D01*
X139827455Y-71512547D01*
X139942664Y-71598793D01*
X139942671Y-71598797D01*
X140077517Y-71649091D01*
X140077516Y-71649091D01*
X140084444Y-71649835D01*
X140137127Y-71655500D01*
X141932872Y-71655499D01*
X141992483Y-71649091D01*
X142127331Y-71598796D01*
X142242546Y-71512546D01*
X142328796Y-71397331D01*
X142377810Y-71265916D01*
X142419681Y-71209984D01*
X142485145Y-71185566D01*
X142553418Y-71200417D01*
X142581673Y-71221569D01*
X142695213Y-71335109D01*
X142867179Y-71460048D01*
X142867181Y-71460049D01*
X142867184Y-71460051D01*
X143056588Y-71556557D01*
X143258757Y-71622246D01*
X143468713Y-71655500D01*
X143468714Y-71655500D01*
X143681286Y-71655500D01*
X143681287Y-71655500D01*
X143891243Y-71622246D01*
X144093412Y-71556557D01*
X144282816Y-71460051D01*
X144369138Y-71397335D01*
X144454786Y-71335109D01*
X144454788Y-71335106D01*
X144454792Y-71335104D01*
X144605104Y-71184792D01*
X144605106Y-71184788D01*
X144605109Y-71184786D01*
X144730048Y-71012820D01*
X144730047Y-71012820D01*
X144730051Y-71012816D01*
X144734514Y-71004054D01*
X144782488Y-70953259D01*
X144850308Y-70936463D01*
X144916444Y-70958999D01*
X144955486Y-71004056D01*
X144959951Y-71012820D01*
X145084890Y-71184786D01*
X145235213Y-71335109D01*
X145407179Y-71460048D01*
X145407181Y-71460049D01*
X145407184Y-71460051D01*
X145596588Y-71556557D01*
X145798757Y-71622246D01*
X146008713Y-71655500D01*
X146008714Y-71655500D01*
X146221286Y-71655500D01*
X146221287Y-71655500D01*
X146431243Y-71622246D01*
X146633412Y-71556557D01*
X146822816Y-71460051D01*
X146909138Y-71397335D01*
X146994786Y-71335109D01*
X146994788Y-71335106D01*
X146994792Y-71335104D01*
X147145104Y-71184792D01*
X147145106Y-71184788D01*
X147145109Y-71184786D01*
X147270048Y-71012820D01*
X147270047Y-71012820D01*
X147270051Y-71012816D01*
X147274514Y-71004054D01*
X147322488Y-70953259D01*
X147390308Y-70936463D01*
X147456444Y-70958999D01*
X147495486Y-71004056D01*
X147499951Y-71012820D01*
X147624890Y-71184786D01*
X147775213Y-71335109D01*
X147947179Y-71460048D01*
X147947181Y-71460049D01*
X147947184Y-71460051D01*
X148136588Y-71556557D01*
X148338757Y-71622246D01*
X148548713Y-71655500D01*
X148548714Y-71655500D01*
X148761286Y-71655500D01*
X148761287Y-71655500D01*
X148971243Y-71622246D01*
X149173412Y-71556557D01*
X149362816Y-71460051D01*
X149449138Y-71397335D01*
X149534786Y-71335109D01*
X149534788Y-71335106D01*
X149534792Y-71335104D01*
X149685104Y-71184792D01*
X149685106Y-71184788D01*
X149685109Y-71184786D01*
X149810048Y-71012820D01*
X149810047Y-71012820D01*
X149810051Y-71012816D01*
X149814514Y-71004054D01*
X149862488Y-70953259D01*
X149930308Y-70936463D01*
X149996444Y-70958999D01*
X150035486Y-71004056D01*
X150039951Y-71012820D01*
X150164890Y-71184786D01*
X150315213Y-71335109D01*
X150487179Y-71460048D01*
X150487181Y-71460049D01*
X150487184Y-71460051D01*
X150676588Y-71556557D01*
X150878757Y-71622246D01*
X151088713Y-71655500D01*
X151088714Y-71655500D01*
X151301286Y-71655500D01*
X151301287Y-71655500D01*
X151511243Y-71622246D01*
X151713412Y-71556557D01*
X151902816Y-71460051D01*
X151989138Y-71397335D01*
X152074786Y-71335109D01*
X152074788Y-71335106D01*
X152074792Y-71335104D01*
X152225104Y-71184792D01*
X152225106Y-71184788D01*
X152225109Y-71184786D01*
X152350048Y-71012820D01*
X152350047Y-71012820D01*
X152350051Y-71012816D01*
X152354514Y-71004054D01*
X152402488Y-70953259D01*
X152470308Y-70936463D01*
X152536444Y-70958999D01*
X152575486Y-71004056D01*
X152579951Y-71012820D01*
X152704890Y-71184786D01*
X152855213Y-71335109D01*
X153027179Y-71460048D01*
X153027181Y-71460049D01*
X153027184Y-71460051D01*
X153216588Y-71556557D01*
X153418757Y-71622246D01*
X153628713Y-71655500D01*
X153628714Y-71655500D01*
X153841286Y-71655500D01*
X153841287Y-71655500D01*
X154051243Y-71622246D01*
X154253412Y-71556557D01*
X154442816Y-71460051D01*
X154529138Y-71397335D01*
X154614786Y-71335109D01*
X154614788Y-71335106D01*
X154614792Y-71335104D01*
X154765104Y-71184792D01*
X154765106Y-71184788D01*
X154765109Y-71184786D01*
X154890048Y-71012820D01*
X154890047Y-71012820D01*
X154890051Y-71012816D01*
X154894514Y-71004054D01*
X154942488Y-70953259D01*
X155010308Y-70936463D01*
X155076444Y-70958999D01*
X155115486Y-71004056D01*
X155119951Y-71012820D01*
X155244890Y-71184786D01*
X155395213Y-71335109D01*
X155567179Y-71460048D01*
X155567181Y-71460049D01*
X155567184Y-71460051D01*
X155756588Y-71556557D01*
X155958757Y-71622246D01*
X156168713Y-71655500D01*
X156168714Y-71655500D01*
X156381286Y-71655500D01*
X156381287Y-71655500D01*
X156591243Y-71622246D01*
X156793412Y-71556557D01*
X156982816Y-71460051D01*
X157069138Y-71397335D01*
X157154786Y-71335109D01*
X157154788Y-71335106D01*
X157154792Y-71335104D01*
X157305104Y-71184792D01*
X157305106Y-71184788D01*
X157305109Y-71184786D01*
X157430048Y-71012820D01*
X157430047Y-71012820D01*
X157430051Y-71012816D01*
X157434514Y-71004054D01*
X157482488Y-70953259D01*
X157550308Y-70936463D01*
X157616444Y-70958999D01*
X157655486Y-71004056D01*
X157659951Y-71012820D01*
X157784890Y-71184786D01*
X157935213Y-71335109D01*
X158107179Y-71460048D01*
X158107181Y-71460049D01*
X158107184Y-71460051D01*
X158296588Y-71556557D01*
X158498757Y-71622246D01*
X158708713Y-71655500D01*
X158708714Y-71655500D01*
X158921286Y-71655500D01*
X158921287Y-71655500D01*
X159131243Y-71622246D01*
X159333412Y-71556557D01*
X159522816Y-71460051D01*
X159609138Y-71397335D01*
X159694786Y-71335109D01*
X159694788Y-71335106D01*
X159694792Y-71335104D01*
X159845104Y-71184792D01*
X159845106Y-71184788D01*
X159845109Y-71184786D01*
X159970048Y-71012820D01*
X159970047Y-71012820D01*
X159970051Y-71012816D01*
X160066557Y-70823412D01*
X160132246Y-70621243D01*
X160165500Y-70411287D01*
X160165500Y-70198713D01*
X160132246Y-69988757D01*
X160066557Y-69786588D01*
X159970051Y-69597184D01*
X159970049Y-69597181D01*
X159970048Y-69597179D01*
X159845109Y-69425213D01*
X159694786Y-69274890D01*
X159522820Y-69149951D01*
X159333414Y-69053444D01*
X159333413Y-69053443D01*
X159333412Y-69053443D01*
X159131243Y-68987754D01*
X159131241Y-68987753D01*
X159131240Y-68987753D01*
X158969957Y-68962208D01*
X158921287Y-68954500D01*
X158708713Y-68954500D01*
X158660042Y-68962208D01*
X158498760Y-68987753D01*
X158296585Y-69053444D01*
X158107179Y-69149951D01*
X157935213Y-69274890D01*
X157784890Y-69425213D01*
X157659949Y-69597182D01*
X157655484Y-69605946D01*
X157607509Y-69656742D01*
X157539688Y-69673536D01*
X157473553Y-69650998D01*
X157434516Y-69605946D01*
X157430050Y-69597182D01*
X157305109Y-69425213D01*
X157154786Y-69274890D01*
X156982820Y-69149951D01*
X156793414Y-69053444D01*
X156793413Y-69053443D01*
X156793412Y-69053443D01*
X156591243Y-68987754D01*
X156591241Y-68987753D01*
X156591240Y-68987753D01*
X156429957Y-68962208D01*
X156381287Y-68954500D01*
X156168713Y-68954500D01*
X156120042Y-68962208D01*
X155958760Y-68987753D01*
X155756585Y-69053444D01*
X155567179Y-69149951D01*
X155395213Y-69274890D01*
X155244890Y-69425213D01*
X155119949Y-69597182D01*
X155115484Y-69605946D01*
X155067509Y-69656742D01*
X154999688Y-69673536D01*
X154933553Y-69650998D01*
X154894516Y-69605946D01*
X154890050Y-69597182D01*
X154765109Y-69425213D01*
X154614786Y-69274890D01*
X154442820Y-69149951D01*
X154253414Y-69053444D01*
X154253413Y-69053443D01*
X154253412Y-69053443D01*
X154051243Y-68987754D01*
X154051241Y-68987753D01*
X154051240Y-68987753D01*
X153889957Y-68962208D01*
X153841287Y-68954500D01*
X153628713Y-68954500D01*
X153580042Y-68962208D01*
X153418760Y-68987753D01*
X153216585Y-69053444D01*
X153027179Y-69149951D01*
X152855213Y-69274890D01*
X152704890Y-69425213D01*
X152579949Y-69597182D01*
X152575484Y-69605946D01*
X152527509Y-69656742D01*
X152459688Y-69673536D01*
X152393553Y-69650998D01*
X152354516Y-69605946D01*
X152350050Y-69597182D01*
X152225109Y-69425213D01*
X152074786Y-69274890D01*
X151902820Y-69149951D01*
X151713414Y-69053444D01*
X151713413Y-69053443D01*
X151713412Y-69053443D01*
X151511243Y-68987754D01*
X151511241Y-68987753D01*
X151511240Y-68987753D01*
X151349957Y-68962208D01*
X151301287Y-68954500D01*
X151088713Y-68954500D01*
X151040042Y-68962208D01*
X150878760Y-68987753D01*
X150676585Y-69053444D01*
X150487179Y-69149951D01*
X150315213Y-69274890D01*
X150164890Y-69425213D01*
X150039949Y-69597182D01*
X150035484Y-69605946D01*
X149987509Y-69656742D01*
X149919688Y-69673536D01*
X149853553Y-69650998D01*
X149814516Y-69605946D01*
X149810050Y-69597182D01*
X149685109Y-69425213D01*
X149534786Y-69274890D01*
X149362820Y-69149951D01*
X149173414Y-69053444D01*
X149173413Y-69053443D01*
X149173412Y-69053443D01*
X148971243Y-68987754D01*
X148971241Y-68987753D01*
X148971240Y-68987753D01*
X148809957Y-68962208D01*
X148761287Y-68954500D01*
X148548713Y-68954500D01*
X148500042Y-68962208D01*
X148338760Y-68987753D01*
X148136585Y-69053444D01*
X147947179Y-69149951D01*
X147775213Y-69274890D01*
X147624890Y-69425213D01*
X147499949Y-69597182D01*
X147495484Y-69605946D01*
X147447509Y-69656742D01*
X147379688Y-69673536D01*
X147313553Y-69650998D01*
X147274516Y-69605946D01*
X147270050Y-69597182D01*
X147145109Y-69425213D01*
X146994786Y-69274890D01*
X146822820Y-69149951D01*
X146633414Y-69053444D01*
X146633413Y-69053443D01*
X146633412Y-69053443D01*
X146431243Y-68987754D01*
X146431241Y-68987753D01*
X146431240Y-68987753D01*
X146269957Y-68962208D01*
X146221287Y-68954500D01*
X146008713Y-68954500D01*
X145960042Y-68962208D01*
X145798760Y-68987753D01*
X145596585Y-69053444D01*
X145407179Y-69149951D01*
X145235213Y-69274890D01*
X145084890Y-69425213D01*
X144959949Y-69597182D01*
X144955484Y-69605946D01*
X144907509Y-69656742D01*
X144839688Y-69673536D01*
X144773553Y-69650998D01*
X144734516Y-69605946D01*
X144730050Y-69597182D01*
X144605109Y-69425213D01*
X144454786Y-69274890D01*
X144282820Y-69149951D01*
X144093414Y-69053444D01*
X144093413Y-69053443D01*
X144093412Y-69053443D01*
X143891243Y-68987754D01*
X143891241Y-68987753D01*
X143891240Y-68987753D01*
X143729957Y-68962208D01*
X143681287Y-68954500D01*
X143468713Y-68954500D01*
X143420042Y-68962208D01*
X143258760Y-68987753D01*
X143056585Y-69053444D01*
X142867179Y-69149951D01*
X142695215Y-69274889D01*
X142581673Y-69388431D01*
X142520350Y-69421915D01*
X142450658Y-69416931D01*
X142394725Y-69375059D01*
X142377810Y-69344082D01*
X142328797Y-69212671D01*
X142328793Y-69212664D01*
X142242547Y-69097455D01*
X142242544Y-69097452D01*
X142127335Y-69011206D01*
X142127328Y-69011202D01*
X141992482Y-68960908D01*
X141992483Y-68960908D01*
X141932883Y-68954501D01*
X141932881Y-68954500D01*
X141932873Y-68954500D01*
X141932864Y-68954500D01*
X140137129Y-68954500D01*
X140137123Y-68954501D01*
X140077516Y-68960908D01*
X139942671Y-69011202D01*
X139942664Y-69011206D01*
X139827455Y-69097452D01*
X139827452Y-69097455D01*
X139741206Y-69212664D01*
X139741202Y-69212671D01*
X139690908Y-69347517D01*
X139684501Y-69407116D01*
X139684500Y-69407135D01*
X134368887Y-69407135D01*
X134368886Y-69407128D01*
X134364091Y-69362517D01*
X134364088Y-69362510D01*
X134313797Y-69227671D01*
X134313793Y-69227664D01*
X134227547Y-69112455D01*
X134227544Y-69112452D01*
X134112335Y-69026206D01*
X134112328Y-69026202D01*
X133977482Y-68975908D01*
X133977483Y-68975908D01*
X133917883Y-68969501D01*
X133917881Y-68969500D01*
X133917873Y-68969500D01*
X133917864Y-68969500D01*
X132222129Y-68969500D01*
X132222123Y-68969501D01*
X132162516Y-68975908D01*
X132027671Y-69026202D01*
X132027664Y-69026206D01*
X131912455Y-69112452D01*
X131912452Y-69112455D01*
X131826206Y-69227664D01*
X131826202Y-69227671D01*
X131775908Y-69362517D01*
X131769501Y-69422116D01*
X131769500Y-69422135D01*
X104252382Y-69422135D01*
X104252396Y-69422116D01*
X104270051Y-69397816D01*
X104277315Y-69383557D01*
X104288041Y-69362510D01*
X104332685Y-69274889D01*
X104366557Y-69208412D01*
X104432246Y-69006243D01*
X104465500Y-68796287D01*
X104465500Y-68583713D01*
X104432246Y-68373757D01*
X104366557Y-68171588D01*
X104270051Y-67982184D01*
X104270049Y-67982181D01*
X104270048Y-67982179D01*
X104145109Y-67810213D01*
X103994786Y-67659890D01*
X103822820Y-67534951D01*
X103633414Y-67438444D01*
X103633413Y-67438443D01*
X103633412Y-67438443D01*
X103431243Y-67372754D01*
X103431241Y-67372753D01*
X103431239Y-67372753D01*
X103231458Y-67341111D01*
X103231457Y-67341110D01*
X103221287Y-67339500D01*
X102758713Y-67339500D01*
X102748542Y-67341111D01*
X102548760Y-67372753D01*
X102346585Y-67438444D01*
X102157179Y-67534951D01*
X101985213Y-67659890D01*
X101834890Y-67810213D01*
X101709951Y-67982179D01*
X101613444Y-68171585D01*
X101547753Y-68373760D01*
X101514500Y-68583713D01*
X95580500Y-68583713D01*
X95580500Y-66122155D01*
X109030000Y-66122155D01*
X109030000Y-66770000D01*
X109946988Y-66770000D01*
X109914075Y-66827007D01*
X109880000Y-66954174D01*
X109880000Y-67085826D01*
X109914075Y-67212993D01*
X109946988Y-67270000D01*
X109030000Y-67270000D01*
X109030000Y-67917844D01*
X109036401Y-67977372D01*
X109036403Y-67977379D01*
X109086645Y-68112086D01*
X109086649Y-68112093D01*
X109172809Y-68227187D01*
X109172812Y-68227190D01*
X109287906Y-68313350D01*
X109287913Y-68313354D01*
X109422620Y-68363596D01*
X109422627Y-68363598D01*
X109482155Y-68369999D01*
X109482172Y-68370000D01*
X110130000Y-68370000D01*
X110130000Y-67453012D01*
X110187007Y-67485925D01*
X110314174Y-67520000D01*
X110445826Y-67520000D01*
X110572993Y-67485925D01*
X110630000Y-67453012D01*
X110630000Y-68370000D01*
X111277828Y-68370000D01*
X111277844Y-68369999D01*
X111337372Y-68363598D01*
X111337379Y-68363596D01*
X111472086Y-68313354D01*
X111472093Y-68313350D01*
X111587187Y-68227190D01*
X111587190Y-68227187D01*
X111673350Y-68112093D01*
X111673354Y-68112086D01*
X111723596Y-67977379D01*
X111723598Y-67977372D01*
X111729999Y-67917844D01*
X111730000Y-67917827D01*
X111730000Y-67270000D01*
X110813012Y-67270000D01*
X110845925Y-67212993D01*
X110880000Y-67085826D01*
X110880000Y-66954174D01*
X110845925Y-66827007D01*
X110813012Y-66770000D01*
X111730000Y-66770000D01*
X111730000Y-66122172D01*
X111729999Y-66122155D01*
X123530000Y-66122155D01*
X123530000Y-66770000D01*
X124446988Y-66770000D01*
X124414075Y-66827007D01*
X124380000Y-66954174D01*
X124380000Y-67085826D01*
X124414075Y-67212993D01*
X124446988Y-67270000D01*
X123530000Y-67270000D01*
X123530000Y-67917844D01*
X123536401Y-67977372D01*
X123536403Y-67977379D01*
X123586645Y-68112086D01*
X123586649Y-68112093D01*
X123672809Y-68227187D01*
X123672812Y-68227190D01*
X123787906Y-68313350D01*
X123787913Y-68313354D01*
X123922620Y-68363596D01*
X123922627Y-68363598D01*
X123982155Y-68369999D01*
X123982172Y-68370000D01*
X124630000Y-68370000D01*
X124630000Y-67453012D01*
X124687007Y-67485925D01*
X124814174Y-67520000D01*
X124945826Y-67520000D01*
X125072993Y-67485925D01*
X125130000Y-67453012D01*
X125130000Y-68370000D01*
X125777828Y-68370000D01*
X125777844Y-68369999D01*
X125837372Y-68363598D01*
X125837379Y-68363596D01*
X125972086Y-68313354D01*
X125972093Y-68313350D01*
X126087187Y-68227190D01*
X126087190Y-68227187D01*
X126173350Y-68112093D01*
X126173354Y-68112086D01*
X126223596Y-67977379D01*
X126223598Y-67977372D01*
X126229999Y-67917844D01*
X126230000Y-67917827D01*
X126230000Y-67270000D01*
X125313012Y-67270000D01*
X125345925Y-67212993D01*
X125380000Y-67085826D01*
X125380000Y-66954174D01*
X125345925Y-66827007D01*
X125313012Y-66770000D01*
X126230000Y-66770000D01*
X126230000Y-66667682D01*
X131770000Y-66667682D01*
X131770000Y-66872317D01*
X131802009Y-67074417D01*
X131865244Y-67269031D01*
X131958141Y-67451350D01*
X131958147Y-67451359D01*
X131990523Y-67495921D01*
X131990524Y-67495922D01*
X132670000Y-66816446D01*
X132670000Y-66822661D01*
X132697259Y-66924394D01*
X132749920Y-67015606D01*
X132824394Y-67090080D01*
X132915606Y-67142741D01*
X133017339Y-67170000D01*
X133023553Y-67170000D01*
X132344076Y-67849474D01*
X132388650Y-67881859D01*
X132570968Y-67974755D01*
X132765582Y-68037990D01*
X132967683Y-68070000D01*
X133172317Y-68070000D01*
X133374417Y-68037990D01*
X133569031Y-67974755D01*
X133751349Y-67881859D01*
X133795921Y-67849474D01*
X133116447Y-67170000D01*
X133122661Y-67170000D01*
X133224394Y-67142741D01*
X133315606Y-67090080D01*
X133390080Y-67015606D01*
X133442741Y-66924394D01*
X133470000Y-66822661D01*
X133470000Y-66816448D01*
X134149474Y-67495922D01*
X134149474Y-67495921D01*
X134181859Y-67451349D01*
X134274755Y-67269031D01*
X134337990Y-67074417D01*
X134370000Y-66872317D01*
X134370000Y-66667682D01*
X134337990Y-66465582D01*
X134274755Y-66270968D01*
X134181859Y-66088650D01*
X134149474Y-66044077D01*
X134149474Y-66044076D01*
X133470000Y-66723551D01*
X133470000Y-66717339D01*
X133442741Y-66615606D01*
X133390080Y-66524394D01*
X133315606Y-66449920D01*
X133224394Y-66397259D01*
X133122661Y-66370000D01*
X133116446Y-66370000D01*
X133795922Y-65690524D01*
X133795921Y-65690523D01*
X133751359Y-65658147D01*
X133751350Y-65658141D01*
X133569031Y-65565244D01*
X133374417Y-65502009D01*
X133172317Y-65470000D01*
X132967683Y-65470000D01*
X132765582Y-65502009D01*
X132570968Y-65565244D01*
X132388644Y-65658143D01*
X132344077Y-65690523D01*
X132344077Y-65690524D01*
X133023554Y-66370000D01*
X133017339Y-66370000D01*
X132915606Y-66397259D01*
X132824394Y-66449920D01*
X132749920Y-66524394D01*
X132697259Y-66615606D01*
X132670000Y-66717339D01*
X132670000Y-66723553D01*
X131990524Y-66044077D01*
X131990523Y-66044077D01*
X131958143Y-66088644D01*
X131865244Y-66270968D01*
X131802009Y-66465582D01*
X131770000Y-66667682D01*
X126230000Y-66667682D01*
X126230000Y-66122172D01*
X126229999Y-66122155D01*
X126223598Y-66062627D01*
X126223596Y-66062620D01*
X126173354Y-65927913D01*
X126173353Y-65927911D01*
X126087187Y-65812809D01*
X125972093Y-65726649D01*
X125972086Y-65726645D01*
X125837379Y-65676403D01*
X125837372Y-65676401D01*
X125777844Y-65670000D01*
X125130000Y-65670000D01*
X125130000Y-66586988D01*
X125072993Y-66554075D01*
X124945826Y-66520000D01*
X124814174Y-66520000D01*
X124687007Y-66554075D01*
X124630000Y-66586988D01*
X124630000Y-65670000D01*
X123982155Y-65670000D01*
X123922627Y-65676401D01*
X123922620Y-65676403D01*
X123787913Y-65726645D01*
X123787906Y-65726649D01*
X123672812Y-65812809D01*
X123672809Y-65812812D01*
X123586649Y-65927906D01*
X123586645Y-65927913D01*
X123536403Y-66062620D01*
X123536401Y-66062627D01*
X123530000Y-66122155D01*
X111729999Y-66122155D01*
X111723598Y-66062627D01*
X111723596Y-66062620D01*
X111673354Y-65927913D01*
X111673350Y-65927906D01*
X111587190Y-65812812D01*
X111587187Y-65812809D01*
X111472093Y-65726649D01*
X111472086Y-65726645D01*
X111337379Y-65676403D01*
X111337372Y-65676401D01*
X111277844Y-65670000D01*
X110630000Y-65670000D01*
X110630000Y-66586988D01*
X110572993Y-66554075D01*
X110445826Y-66520000D01*
X110314174Y-66520000D01*
X110187007Y-66554075D01*
X110130000Y-66586988D01*
X110130000Y-65670000D01*
X109482155Y-65670000D01*
X109422627Y-65676401D01*
X109422620Y-65676403D01*
X109287913Y-65726645D01*
X109287906Y-65726649D01*
X109172812Y-65812809D01*
X109172809Y-65812812D01*
X109086649Y-65927906D01*
X109086645Y-65927913D01*
X109036403Y-66062620D01*
X109036401Y-66062627D01*
X109030000Y-66122155D01*
X95580500Y-66122155D01*
X95580500Y-58543921D01*
X108740000Y-58543921D01*
X108740000Y-59262500D01*
X109556988Y-59262500D01*
X109524075Y-59319507D01*
X109490000Y-59446674D01*
X109490000Y-59578326D01*
X109524075Y-59705493D01*
X109556988Y-59762500D01*
X108740001Y-59762500D01*
X108740001Y-60481088D01*
X108742794Y-60533691D01*
X108787237Y-60763487D01*
X108869879Y-60982475D01*
X108988339Y-61184341D01*
X108988344Y-61184348D01*
X109139211Y-61363286D01*
X109139213Y-61363288D01*
X109318151Y-61514155D01*
X109318158Y-61514160D01*
X109520024Y-61632620D01*
X109739012Y-61715262D01*
X109968809Y-61759705D01*
X110021382Y-61762498D01*
X110021421Y-61762499D01*
X110739999Y-61762499D01*
X110740000Y-61762498D01*
X110740000Y-60012500D01*
X111240000Y-60012500D01*
X111240000Y-61762499D01*
X111958576Y-61762499D01*
X111958588Y-61762498D01*
X112011191Y-61759705D01*
X112240987Y-61715262D01*
X112459975Y-61632620D01*
X112661841Y-61514160D01*
X112661848Y-61514155D01*
X112840786Y-61363288D01*
X112840788Y-61363286D01*
X112991655Y-61184348D01*
X112991660Y-61184341D01*
X113110121Y-60982473D01*
X113158218Y-60855025D01*
X113158218Y-60855024D01*
X113192762Y-60763487D01*
X113237205Y-60533691D01*
X113237205Y-60533690D01*
X113239998Y-60481117D01*
X113240000Y-60481078D01*
X113240000Y-59762500D01*
X112423012Y-59762500D01*
X112455925Y-59705493D01*
X112490000Y-59578326D01*
X112490000Y-59446674D01*
X112455925Y-59319507D01*
X112423012Y-59262500D01*
X113239999Y-59262500D01*
X113239999Y-58543923D01*
X113239998Y-58543911D01*
X113237205Y-58491308D01*
X113192762Y-58261512D01*
X113110120Y-58042524D01*
X112991660Y-57840658D01*
X112991655Y-57840651D01*
X112840788Y-57661713D01*
X112840786Y-57661711D01*
X112661848Y-57510844D01*
X112661841Y-57510839D01*
X112459975Y-57392379D01*
X112240984Y-57309736D01*
X112235840Y-57308741D01*
X112173760Y-57276680D01*
X112138869Y-57216146D01*
X112142244Y-57146358D01*
X112182814Y-57089473D01*
X112247697Y-57063552D01*
X112259374Y-57062999D01*
X115787872Y-57062999D01*
X115847483Y-57056591D01*
X115982331Y-57006296D01*
X116097546Y-56920046D01*
X116183796Y-56804831D01*
X116234091Y-56669983D01*
X116240500Y-56610373D01*
X116240499Y-54161153D01*
X164339500Y-54161153D01*
X164339500Y-54318846D01*
X164370261Y-54473489D01*
X164370264Y-54473501D01*
X164430602Y-54619172D01*
X164430609Y-54619185D01*
X164518210Y-54750288D01*
X164518213Y-54750292D01*
X164629707Y-54861786D01*
X164629711Y-54861789D01*
X164760814Y-54949390D01*
X164760827Y-54949397D01*
X164834078Y-54979738D01*
X164906503Y-55009737D01*
X165061153Y-55040499D01*
X165061156Y-55040500D01*
X165061158Y-55040500D01*
X165218844Y-55040500D01*
X165218845Y-55040499D01*
X165373497Y-55009737D01*
X165519179Y-54949394D01*
X165531021Y-54941481D01*
X165560331Y-54921898D01*
X165627008Y-54901020D01*
X165629221Y-54901000D01*
X166275677Y-54901000D01*
X166334509Y-54918275D01*
X166335447Y-54916521D01*
X166340815Y-54919390D01*
X166340821Y-54919394D01*
X166486503Y-54979737D01*
X166637312Y-55009735D01*
X166641153Y-55010499D01*
X166641156Y-55010500D01*
X166641158Y-55010500D01*
X166798844Y-55010500D01*
X166798845Y-55010499D01*
X166953497Y-54979737D01*
X167099179Y-54919394D01*
X167230289Y-54831789D01*
X167341789Y-54720289D01*
X167429394Y-54589179D01*
X167489737Y-54443497D01*
X167520500Y-54288842D01*
X167520500Y-54131158D01*
X167520500Y-54131155D01*
X167520499Y-54131153D01*
X167509073Y-54073713D01*
X167489737Y-53976503D01*
X167443038Y-53863760D01*
X167429397Y-53830827D01*
X167429390Y-53830814D01*
X167341789Y-53699711D01*
X167341786Y-53699707D01*
X167230292Y-53588213D01*
X167230288Y-53588210D01*
X167099185Y-53500609D01*
X167099172Y-53500602D01*
X166953501Y-53440264D01*
X166953489Y-53440261D01*
X166798845Y-53409500D01*
X166798842Y-53409500D01*
X166641158Y-53409500D01*
X166641155Y-53409500D01*
X166486510Y-53440261D01*
X166486498Y-53440264D01*
X166340828Y-53500602D01*
X166335447Y-53503479D01*
X166334294Y-53501323D01*
X166277869Y-53518981D01*
X166275677Y-53519000D01*
X165515824Y-53519000D01*
X165468372Y-53509561D01*
X165373501Y-53470264D01*
X165373489Y-53470261D01*
X165218845Y-53439500D01*
X165218842Y-53439500D01*
X165061158Y-53439500D01*
X165061155Y-53439500D01*
X164906510Y-53470261D01*
X164906498Y-53470264D01*
X164760827Y-53530602D01*
X164760814Y-53530609D01*
X164629711Y-53618210D01*
X164629707Y-53618213D01*
X164518213Y-53729707D01*
X164518210Y-53729711D01*
X164430609Y-53860814D01*
X164430602Y-53860827D01*
X164370264Y-54006498D01*
X164370261Y-54006510D01*
X164339500Y-54161153D01*
X116240499Y-54161153D01*
X116240499Y-53014628D01*
X116234460Y-52958447D01*
X116234091Y-52955016D01*
X116183797Y-52820171D01*
X116183793Y-52820164D01*
X116097547Y-52704955D01*
X116097544Y-52704952D01*
X115982335Y-52618706D01*
X115982328Y-52618702D01*
X115847482Y-52568408D01*
X115847483Y-52568408D01*
X115787883Y-52562001D01*
X115787881Y-52562000D01*
X115787873Y-52562000D01*
X115787864Y-52562000D01*
X112192129Y-52562000D01*
X112192123Y-52562001D01*
X112132516Y-52568408D01*
X111997671Y-52618702D01*
X111997664Y-52618706D01*
X111882455Y-52704952D01*
X111882452Y-52704955D01*
X111796206Y-52820164D01*
X111796202Y-52820171D01*
X111745908Y-52955017D01*
X111739694Y-53012818D01*
X111739501Y-53014623D01*
X111739500Y-53014635D01*
X111739500Y-56610370D01*
X111739501Y-56610376D01*
X111745908Y-56669983D01*
X111796202Y-56804828D01*
X111796206Y-56804835D01*
X111882452Y-56920044D01*
X111882455Y-56920047D01*
X111997664Y-57006293D01*
X111997673Y-57006298D01*
X112046506Y-57024511D01*
X112102440Y-57066381D01*
X112126858Y-57131845D01*
X112112007Y-57200118D01*
X112062603Y-57249524D01*
X111996598Y-57264518D01*
X111958625Y-57262501D01*
X111958579Y-57262500D01*
X111240000Y-57262500D01*
X111240000Y-59012500D01*
X110740000Y-59012500D01*
X110740000Y-57262500D01*
X110021423Y-57262500D01*
X110021411Y-57262501D01*
X109968808Y-57265294D01*
X109739012Y-57309737D01*
X109520024Y-57392379D01*
X109318158Y-57510839D01*
X109318151Y-57510844D01*
X109139213Y-57661711D01*
X109139211Y-57661713D01*
X108988344Y-57840651D01*
X108988339Y-57840658D01*
X108869879Y-58042524D01*
X108787237Y-58261512D01*
X108742794Y-58491308D01*
X108742794Y-58491309D01*
X108740001Y-58543882D01*
X108740000Y-58543921D01*
X95580500Y-58543921D01*
X95580500Y-53748303D01*
X105990000Y-53748303D01*
X105990000Y-54562500D01*
X107490000Y-54562500D01*
X107490000Y-55062500D01*
X105990001Y-55062500D01*
X105990001Y-55876697D01*
X106000400Y-56008832D01*
X106055377Y-56227019D01*
X106148428Y-56431874D01*
X106148431Y-56431880D01*
X106276559Y-56616823D01*
X106276569Y-56616835D01*
X106435664Y-56775930D01*
X106435676Y-56775940D01*
X106620619Y-56904068D01*
X106620625Y-56904071D01*
X106825480Y-56997122D01*
X107043667Y-57052099D01*
X107175810Y-57062499D01*
X107739999Y-57062499D01*
X107740000Y-57062498D01*
X107740000Y-56245512D01*
X107797007Y-56278425D01*
X107924174Y-56312500D01*
X108055826Y-56312500D01*
X108182993Y-56278425D01*
X108240000Y-56245512D01*
X108240000Y-57062499D01*
X108804182Y-57062499D01*
X108804197Y-57062498D01*
X108936332Y-57052099D01*
X109154519Y-56997122D01*
X109359374Y-56904071D01*
X109359380Y-56904068D01*
X109544323Y-56775940D01*
X109544335Y-56775930D01*
X109703430Y-56616835D01*
X109703440Y-56616823D01*
X109831568Y-56431880D01*
X109831571Y-56431874D01*
X109924622Y-56227019D01*
X109979599Y-56008832D01*
X109989999Y-55876696D01*
X109990000Y-55876684D01*
X109990000Y-55062500D01*
X108490000Y-55062500D01*
X108490000Y-54562500D01*
X109989999Y-54562500D01*
X109989999Y-53748317D01*
X109989998Y-53748302D01*
X109979599Y-53616167D01*
X109924622Y-53397980D01*
X109831571Y-53193125D01*
X109831568Y-53193119D01*
X109703440Y-53008176D01*
X109703430Y-53008164D01*
X109544335Y-52849069D01*
X109544323Y-52849059D01*
X109359380Y-52720931D01*
X109359374Y-52720928D01*
X109154519Y-52627877D01*
X108936332Y-52572900D01*
X108804196Y-52562500D01*
X108240000Y-52562500D01*
X108240000Y-53379488D01*
X108182993Y-53346575D01*
X108055826Y-53312500D01*
X107924174Y-53312500D01*
X107797007Y-53346575D01*
X107740000Y-53379488D01*
X107740000Y-52562500D01*
X107175817Y-52562500D01*
X107175802Y-52562501D01*
X107043667Y-52572900D01*
X106825480Y-52627877D01*
X106620625Y-52720928D01*
X106620619Y-52720931D01*
X106435676Y-52849059D01*
X106435664Y-52849069D01*
X106276569Y-53008164D01*
X106276559Y-53008176D01*
X106148431Y-53193119D01*
X106148428Y-53193125D01*
X106055377Y-53397980D01*
X106000400Y-53616167D01*
X105990000Y-53748303D01*
X95580500Y-53748303D01*
X95580500Y-51407135D01*
X139684500Y-51407135D01*
X139684500Y-53202870D01*
X139684501Y-53202876D01*
X139690908Y-53262483D01*
X139741202Y-53397328D01*
X139741206Y-53397335D01*
X139827452Y-53512544D01*
X139827455Y-53512547D01*
X139942664Y-53598793D01*
X139942671Y-53598797D01*
X140077517Y-53649091D01*
X140077516Y-53649091D01*
X140084444Y-53649835D01*
X140137127Y-53655500D01*
X141932872Y-53655499D01*
X141992483Y-53649091D01*
X142127331Y-53598796D01*
X142242546Y-53512546D01*
X142328796Y-53397331D01*
X142377810Y-53265916D01*
X142419681Y-53209984D01*
X142485145Y-53185566D01*
X142553418Y-53200417D01*
X142581673Y-53221569D01*
X142695213Y-53335109D01*
X142867179Y-53460048D01*
X142867181Y-53460049D01*
X142867184Y-53460051D01*
X143056588Y-53556557D01*
X143258757Y-53622246D01*
X143468713Y-53655500D01*
X143468714Y-53655500D01*
X143681286Y-53655500D01*
X143681287Y-53655500D01*
X143891243Y-53622246D01*
X144093412Y-53556557D01*
X144282816Y-53460051D01*
X144369138Y-53397335D01*
X144454786Y-53335109D01*
X144454788Y-53335106D01*
X144454792Y-53335104D01*
X144605104Y-53184792D01*
X144605106Y-53184788D01*
X144605109Y-53184786D01*
X144728734Y-53014629D01*
X144730051Y-53012816D01*
X144734514Y-53004054D01*
X144782488Y-52953259D01*
X144850308Y-52936463D01*
X144916444Y-52958999D01*
X144955486Y-53004056D01*
X144959951Y-53012820D01*
X145084890Y-53184786D01*
X145235213Y-53335109D01*
X145407179Y-53460048D01*
X145407181Y-53460049D01*
X145407184Y-53460051D01*
X145596588Y-53556557D01*
X145798757Y-53622246D01*
X146008713Y-53655500D01*
X146008714Y-53655500D01*
X146221286Y-53655500D01*
X146221287Y-53655500D01*
X146431243Y-53622246D01*
X146633412Y-53556557D01*
X146822816Y-53460051D01*
X146909138Y-53397335D01*
X146994786Y-53335109D01*
X146994788Y-53335106D01*
X146994792Y-53335104D01*
X147145104Y-53184792D01*
X147145106Y-53184788D01*
X147145109Y-53184786D01*
X147268734Y-53014629D01*
X147270051Y-53012816D01*
X147274514Y-53004054D01*
X147322488Y-52953259D01*
X147390308Y-52936463D01*
X147456444Y-52958999D01*
X147495486Y-53004056D01*
X147499951Y-53012820D01*
X147624890Y-53184786D01*
X147775213Y-53335109D01*
X147947179Y-53460048D01*
X147947181Y-53460049D01*
X147947184Y-53460051D01*
X148136588Y-53556557D01*
X148338757Y-53622246D01*
X148548713Y-53655500D01*
X148548714Y-53655500D01*
X148761286Y-53655500D01*
X148761287Y-53655500D01*
X148971243Y-53622246D01*
X149173412Y-53556557D01*
X149362816Y-53460051D01*
X149449138Y-53397335D01*
X149534786Y-53335109D01*
X149534788Y-53335106D01*
X149534792Y-53335104D01*
X149685104Y-53184792D01*
X149685106Y-53184788D01*
X149685109Y-53184786D01*
X149808734Y-53014629D01*
X149810051Y-53012816D01*
X149814514Y-53004054D01*
X149862488Y-52953259D01*
X149930308Y-52936463D01*
X149996444Y-52958999D01*
X150035486Y-53004056D01*
X150039951Y-53012820D01*
X150164890Y-53184786D01*
X150315213Y-53335109D01*
X150487179Y-53460048D01*
X150487181Y-53460049D01*
X150487184Y-53460051D01*
X150676588Y-53556557D01*
X150878757Y-53622246D01*
X151088713Y-53655500D01*
X151088714Y-53655500D01*
X151301286Y-53655500D01*
X151301287Y-53655500D01*
X151511243Y-53622246D01*
X151713412Y-53556557D01*
X151902816Y-53460051D01*
X151989138Y-53397335D01*
X152074786Y-53335109D01*
X152074788Y-53335106D01*
X152074792Y-53335104D01*
X152225104Y-53184792D01*
X152225106Y-53184788D01*
X152225109Y-53184786D01*
X152348734Y-53014629D01*
X152350051Y-53012816D01*
X152354514Y-53004054D01*
X152402488Y-52953259D01*
X152470308Y-52936463D01*
X152536444Y-52958999D01*
X152575486Y-53004056D01*
X152579951Y-53012820D01*
X152704890Y-53184786D01*
X152855213Y-53335109D01*
X153027179Y-53460048D01*
X153027181Y-53460049D01*
X153027184Y-53460051D01*
X153216588Y-53556557D01*
X153418757Y-53622246D01*
X153628713Y-53655500D01*
X153628714Y-53655500D01*
X153841286Y-53655500D01*
X153841287Y-53655500D01*
X154051243Y-53622246D01*
X154253412Y-53556557D01*
X154442816Y-53460051D01*
X154529138Y-53397335D01*
X154614786Y-53335109D01*
X154614788Y-53335106D01*
X154614792Y-53335104D01*
X154765104Y-53184792D01*
X154765106Y-53184788D01*
X154765109Y-53184786D01*
X154881234Y-53024951D01*
X154890051Y-53012816D01*
X154894793Y-53003508D01*
X154942763Y-52952711D01*
X155010583Y-52935911D01*
X155076719Y-52958445D01*
X155115763Y-53003500D01*
X155120377Y-53012555D01*
X155245272Y-53184459D01*
X155245276Y-53184464D01*
X155395535Y-53334723D01*
X155395540Y-53334727D01*
X155567442Y-53459620D01*
X155756782Y-53556095D01*
X155958871Y-53621757D01*
X156025000Y-53632231D01*
X156025000Y-52738012D01*
X156082007Y-52770925D01*
X156209174Y-52805000D01*
X156340826Y-52805000D01*
X156467993Y-52770925D01*
X156525000Y-52738012D01*
X156525000Y-53632230D01*
X156591126Y-53621757D01*
X156591129Y-53621757D01*
X156793217Y-53556095D01*
X156982557Y-53459620D01*
X157154459Y-53334727D01*
X157154464Y-53334723D01*
X157304723Y-53184464D01*
X157304727Y-53184459D01*
X157429620Y-53012558D01*
X157434232Y-53003507D01*
X157482205Y-52952709D01*
X157550025Y-52935912D01*
X157616161Y-52958447D01*
X157655204Y-53003504D01*
X157659949Y-53012817D01*
X157784890Y-53184786D01*
X157935213Y-53335109D01*
X158107179Y-53460048D01*
X158107181Y-53460049D01*
X158107184Y-53460051D01*
X158296588Y-53556557D01*
X158498757Y-53622246D01*
X158708713Y-53655500D01*
X158708714Y-53655500D01*
X158921286Y-53655500D01*
X158921287Y-53655500D01*
X159131243Y-53622246D01*
X159333412Y-53556557D01*
X159522816Y-53460051D01*
X159609138Y-53397335D01*
X159694786Y-53335109D01*
X159694788Y-53335106D01*
X159694792Y-53335104D01*
X159845104Y-53184792D01*
X159845106Y-53184788D01*
X159845109Y-53184786D01*
X159968734Y-53014629D01*
X159970051Y-53012816D01*
X160066557Y-52823412D01*
X160132246Y-52621243D01*
X160165500Y-52411287D01*
X160165500Y-52198713D01*
X160132246Y-51988757D01*
X160066557Y-51786588D01*
X159970051Y-51597184D01*
X159970049Y-51597181D01*
X159970048Y-51597179D01*
X159845109Y-51425213D01*
X159694786Y-51274890D01*
X159522820Y-51149951D01*
X159333414Y-51053444D01*
X159333413Y-51053443D01*
X159333412Y-51053443D01*
X159131243Y-50987754D01*
X159131241Y-50987753D01*
X159131240Y-50987753D01*
X158969957Y-50962208D01*
X158921287Y-50954500D01*
X158708713Y-50954500D01*
X158660042Y-50962208D01*
X158498760Y-50987753D01*
X158296585Y-51053444D01*
X158107179Y-51149951D01*
X157935213Y-51274890D01*
X157784890Y-51425213D01*
X157659949Y-51597182D01*
X157655202Y-51606499D01*
X157607227Y-51657293D01*
X157539405Y-51674087D01*
X157473271Y-51651548D01*
X157434234Y-51606495D01*
X157429622Y-51597444D01*
X157304727Y-51425540D01*
X157304723Y-51425535D01*
X157154464Y-51275276D01*
X157154459Y-51275272D01*
X156982557Y-51150379D01*
X156793215Y-51053903D01*
X156591124Y-50988241D01*
X156525000Y-50977768D01*
X156525000Y-51871988D01*
X156467993Y-51839075D01*
X156340826Y-51805000D01*
X156209174Y-51805000D01*
X156082007Y-51839075D01*
X156025000Y-51871988D01*
X156025000Y-50977768D01*
X156024999Y-50977768D01*
X155958875Y-50988241D01*
X155756784Y-51053903D01*
X155567442Y-51150379D01*
X155395540Y-51275272D01*
X155395535Y-51275276D01*
X155245276Y-51425535D01*
X155245272Y-51425540D01*
X155120378Y-51597443D01*
X155115762Y-51606502D01*
X155067784Y-51657295D01*
X154999963Y-51674087D01*
X154933829Y-51651546D01*
X154894794Y-51606493D01*
X154890051Y-51597184D01*
X154890049Y-51597181D01*
X154890048Y-51597179D01*
X154765109Y-51425213D01*
X154614786Y-51274890D01*
X154442820Y-51149951D01*
X154253414Y-51053444D01*
X154253413Y-51053443D01*
X154253412Y-51053443D01*
X154051243Y-50987754D01*
X154051241Y-50987753D01*
X154051240Y-50987753D01*
X153889957Y-50962208D01*
X153841287Y-50954500D01*
X153628713Y-50954500D01*
X153580042Y-50962208D01*
X153418760Y-50987753D01*
X153216585Y-51053444D01*
X153027179Y-51149951D01*
X152855213Y-51274890D01*
X152704890Y-51425213D01*
X152579949Y-51597182D01*
X152575484Y-51605946D01*
X152527509Y-51656742D01*
X152459688Y-51673536D01*
X152393553Y-51650998D01*
X152354516Y-51605946D01*
X152350050Y-51597182D01*
X152225109Y-51425213D01*
X152074786Y-51274890D01*
X151902820Y-51149951D01*
X151713414Y-51053444D01*
X151713413Y-51053443D01*
X151713412Y-51053443D01*
X151511243Y-50987754D01*
X151511241Y-50987753D01*
X151511240Y-50987753D01*
X151349957Y-50962208D01*
X151301287Y-50954500D01*
X151088713Y-50954500D01*
X151040042Y-50962208D01*
X150878760Y-50987753D01*
X150676585Y-51053444D01*
X150487179Y-51149951D01*
X150315213Y-51274890D01*
X150164890Y-51425213D01*
X150039949Y-51597182D01*
X150035484Y-51605946D01*
X149987509Y-51656742D01*
X149919688Y-51673536D01*
X149853553Y-51650998D01*
X149814516Y-51605946D01*
X149810050Y-51597182D01*
X149685109Y-51425213D01*
X149534786Y-51274890D01*
X149362820Y-51149951D01*
X149173414Y-51053444D01*
X149173413Y-51053443D01*
X149173412Y-51053443D01*
X148971243Y-50987754D01*
X148971241Y-50987753D01*
X148971240Y-50987753D01*
X148809957Y-50962208D01*
X148761287Y-50954500D01*
X148548713Y-50954500D01*
X148500042Y-50962208D01*
X148338760Y-50987753D01*
X148136585Y-51053444D01*
X147947179Y-51149951D01*
X147775213Y-51274890D01*
X147624890Y-51425213D01*
X147499949Y-51597182D01*
X147495484Y-51605946D01*
X147447509Y-51656742D01*
X147379688Y-51673536D01*
X147313553Y-51650998D01*
X147274516Y-51605946D01*
X147270050Y-51597182D01*
X147145109Y-51425213D01*
X146994786Y-51274890D01*
X146822820Y-51149951D01*
X146633414Y-51053444D01*
X146633413Y-51053443D01*
X146633412Y-51053443D01*
X146431243Y-50987754D01*
X146431241Y-50987753D01*
X146431240Y-50987753D01*
X146269957Y-50962208D01*
X146221287Y-50954500D01*
X146008713Y-50954500D01*
X145960042Y-50962208D01*
X145798760Y-50987753D01*
X145596585Y-51053444D01*
X145407179Y-51149951D01*
X145235213Y-51274890D01*
X145084890Y-51425213D01*
X144959949Y-51597182D01*
X144955484Y-51605946D01*
X144907509Y-51656742D01*
X144839688Y-51673536D01*
X144773553Y-51650998D01*
X144734516Y-51605946D01*
X144730050Y-51597182D01*
X144605109Y-51425213D01*
X144454786Y-51274890D01*
X144282820Y-51149951D01*
X144093414Y-51053444D01*
X144093413Y-51053443D01*
X144093412Y-51053443D01*
X143891243Y-50987754D01*
X143891241Y-50987753D01*
X143891240Y-50987753D01*
X143729957Y-50962208D01*
X143681287Y-50954500D01*
X143468713Y-50954500D01*
X143420042Y-50962208D01*
X143258760Y-50987753D01*
X143056585Y-51053444D01*
X142867179Y-51149951D01*
X142695215Y-51274889D01*
X142581673Y-51388431D01*
X142520350Y-51421915D01*
X142450658Y-51416931D01*
X142394725Y-51375059D01*
X142377810Y-51344082D01*
X142328797Y-51212671D01*
X142328793Y-51212664D01*
X142242547Y-51097455D01*
X142242544Y-51097452D01*
X142127335Y-51011206D01*
X142127328Y-51011202D01*
X141992482Y-50960908D01*
X141992483Y-50960908D01*
X141932883Y-50954501D01*
X141932881Y-50954500D01*
X141932873Y-50954500D01*
X141932864Y-50954500D01*
X140137129Y-50954500D01*
X140137123Y-50954501D01*
X140077516Y-50960908D01*
X139942671Y-51011202D01*
X139942664Y-51011206D01*
X139827455Y-51097452D01*
X139827452Y-51097455D01*
X139741206Y-51212664D01*
X139741202Y-51212671D01*
X139690908Y-51347517D01*
X139684501Y-51407116D01*
X139684500Y-51407135D01*
X95580500Y-51407135D01*
X95580500Y-48993713D01*
X170619500Y-48993713D01*
X170619500Y-49206286D01*
X170652753Y-49416239D01*
X170718444Y-49618414D01*
X170814951Y-49807820D01*
X170939890Y-49979786D01*
X171090213Y-50130109D01*
X171262182Y-50255050D01*
X171270946Y-50259516D01*
X171321742Y-50307491D01*
X171338536Y-50375312D01*
X171315998Y-50441447D01*
X171270946Y-50480484D01*
X171262182Y-50484949D01*
X171090213Y-50609890D01*
X170939890Y-50760213D01*
X170814951Y-50932179D01*
X170718444Y-51121585D01*
X170652753Y-51323760D01*
X170636685Y-51425213D01*
X170619500Y-51533713D01*
X170619500Y-51746287D01*
X170652754Y-51956243D01*
X170666319Y-51997993D01*
X170718444Y-52158414D01*
X170814951Y-52347820D01*
X170939890Y-52519786D01*
X171090213Y-52670109D01*
X171262182Y-52795050D01*
X171270946Y-52799516D01*
X171321742Y-52847491D01*
X171338536Y-52915312D01*
X171315998Y-52981447D01*
X171270946Y-53020484D01*
X171262182Y-53024949D01*
X171090213Y-53149890D01*
X170939890Y-53300213D01*
X170814951Y-53472179D01*
X170718444Y-53661585D01*
X170652753Y-53863760D01*
X170619500Y-54073713D01*
X170619500Y-54286286D01*
X170644398Y-54443489D01*
X170652754Y-54496243D01*
X170692700Y-54619185D01*
X170718444Y-54698414D01*
X170814951Y-54887820D01*
X170939890Y-55059786D01*
X171090213Y-55210109D01*
X171262182Y-55335050D01*
X171270946Y-55339516D01*
X171321742Y-55387491D01*
X171338536Y-55455312D01*
X171315998Y-55521447D01*
X171270946Y-55560484D01*
X171262182Y-55564949D01*
X171090213Y-55689890D01*
X170939890Y-55840213D01*
X170814951Y-56012179D01*
X170718444Y-56201585D01*
X170652753Y-56403760D01*
X170619500Y-56613713D01*
X170619500Y-56826286D01*
X170650895Y-57024511D01*
X170652754Y-57036243D01*
X170711208Y-57216146D01*
X170718444Y-57238414D01*
X170814951Y-57427820D01*
X170939890Y-57599786D01*
X171090213Y-57750109D01*
X171262179Y-57875048D01*
X171262181Y-57875049D01*
X171262184Y-57875051D01*
X171271493Y-57879794D01*
X171322290Y-57927766D01*
X171339087Y-57995587D01*
X171316552Y-58061722D01*
X171271502Y-58100762D01*
X171262443Y-58105378D01*
X171090540Y-58230272D01*
X171090535Y-58230276D01*
X170940276Y-58380535D01*
X170940272Y-58380540D01*
X170815379Y-58552442D01*
X170718904Y-58741782D01*
X170653242Y-58943870D01*
X170653242Y-58943873D01*
X170642769Y-59010000D01*
X171536988Y-59010000D01*
X171504075Y-59067007D01*
X171470000Y-59194174D01*
X171470000Y-59325826D01*
X171504075Y-59452993D01*
X171536988Y-59510000D01*
X170642769Y-59510000D01*
X170653242Y-59576126D01*
X170653242Y-59576129D01*
X170718904Y-59778217D01*
X170815379Y-59967557D01*
X170940272Y-60139459D01*
X170940276Y-60139464D01*
X171053946Y-60253134D01*
X171087431Y-60314457D01*
X171082447Y-60384149D01*
X171040575Y-60440082D01*
X171009598Y-60456997D01*
X170877671Y-60506202D01*
X170877664Y-60506206D01*
X170762455Y-60592452D01*
X170762452Y-60592455D01*
X170676206Y-60707664D01*
X170676202Y-60707671D01*
X170625908Y-60842517D01*
X170619501Y-60902116D01*
X170619501Y-60902123D01*
X170619500Y-60902135D01*
X170619500Y-62697870D01*
X170619501Y-62697876D01*
X170625908Y-62757483D01*
X170676202Y-62892328D01*
X170676206Y-62892335D01*
X170762452Y-63007544D01*
X170762455Y-63007547D01*
X170877664Y-63093793D01*
X170877671Y-63093797D01*
X171012517Y-63144091D01*
X171012516Y-63144091D01*
X171019444Y-63144835D01*
X171072127Y-63150500D01*
X172867872Y-63150499D01*
X172927483Y-63144091D01*
X173062331Y-63093796D01*
X173177546Y-63007546D01*
X173263796Y-62892331D01*
X173314091Y-62757483D01*
X173320500Y-62697873D01*
X173320499Y-60902128D01*
X173314091Y-60842517D01*
X173263796Y-60707669D01*
X173263795Y-60707668D01*
X173263793Y-60707664D01*
X173177547Y-60592455D01*
X173177544Y-60592452D01*
X173062335Y-60506206D01*
X173062328Y-60506202D01*
X172930401Y-60456997D01*
X172874467Y-60415126D01*
X172850050Y-60349662D01*
X172864902Y-60281389D01*
X172886053Y-60253133D01*
X172999728Y-60139458D01*
X173124620Y-59967557D01*
X173221095Y-59778217D01*
X173286757Y-59576129D01*
X173286757Y-59576126D01*
X173297231Y-59510000D01*
X172403012Y-59510000D01*
X172435925Y-59452993D01*
X172470000Y-59325826D01*
X172470000Y-59194174D01*
X172435925Y-59067007D01*
X172403012Y-59010000D01*
X173297231Y-59010000D01*
X173286757Y-58943873D01*
X173286757Y-58943870D01*
X173221095Y-58741782D01*
X173124620Y-58552442D01*
X172999727Y-58380540D01*
X172999723Y-58380535D01*
X172849464Y-58230276D01*
X172849459Y-58230272D01*
X172677555Y-58105377D01*
X172668500Y-58100763D01*
X172617706Y-58052788D01*
X172600912Y-57984966D01*
X172623451Y-57918832D01*
X172668508Y-57879793D01*
X172677816Y-57875051D01*
X172757007Y-57817515D01*
X172849786Y-57750109D01*
X172849788Y-57750106D01*
X172849792Y-57750104D01*
X173000104Y-57599792D01*
X173000106Y-57599788D01*
X173000109Y-57599786D01*
X173125048Y-57427820D01*
X173125047Y-57427820D01*
X173125051Y-57427816D01*
X173221557Y-57238412D01*
X173287246Y-57036243D01*
X173320500Y-56826287D01*
X173320500Y-56613713D01*
X173287246Y-56403757D01*
X173221557Y-56201588D01*
X173125051Y-56012184D01*
X173125049Y-56012181D01*
X173125048Y-56012179D01*
X173000109Y-55840213D01*
X172849786Y-55689890D01*
X172677820Y-55564951D01*
X172677115Y-55564591D01*
X172669054Y-55560485D01*
X172618259Y-55512512D01*
X172601463Y-55444692D01*
X172623999Y-55378556D01*
X172669054Y-55339515D01*
X172677816Y-55335051D01*
X172699789Y-55319086D01*
X172849786Y-55210109D01*
X172849788Y-55210106D01*
X172849792Y-55210104D01*
X173000104Y-55059792D01*
X173000106Y-55059788D01*
X173000109Y-55059786D01*
X173125048Y-54887820D01*
X173125047Y-54887820D01*
X173125051Y-54887816D01*
X173221557Y-54698412D01*
X173287246Y-54496243D01*
X173320500Y-54286287D01*
X173320500Y-54073713D01*
X173287246Y-53863757D01*
X173221557Y-53661588D01*
X173125051Y-53472184D01*
X173125049Y-53472181D01*
X173125048Y-53472179D01*
X173000109Y-53300213D01*
X172849786Y-53149890D01*
X172677820Y-53024951D01*
X172677115Y-53024591D01*
X172669054Y-53020485D01*
X172618259Y-52972512D01*
X172601463Y-52904692D01*
X172623999Y-52838556D01*
X172669054Y-52799515D01*
X172677816Y-52795051D01*
X172716907Y-52766650D01*
X172849786Y-52670109D01*
X172849788Y-52670106D01*
X172849792Y-52670104D01*
X173000104Y-52519792D01*
X173000106Y-52519788D01*
X173000109Y-52519786D01*
X173125048Y-52347820D01*
X173125047Y-52347820D01*
X173125051Y-52347816D01*
X173221557Y-52158412D01*
X173287246Y-51956243D01*
X173320500Y-51746287D01*
X173320500Y-51533713D01*
X173287246Y-51323757D01*
X173221557Y-51121588D01*
X173125051Y-50932184D01*
X173125049Y-50932181D01*
X173125048Y-50932179D01*
X173000109Y-50760213D01*
X172849786Y-50609890D01*
X172677820Y-50484951D01*
X172677115Y-50484591D01*
X172669054Y-50480485D01*
X172618259Y-50432512D01*
X172601463Y-50364692D01*
X172623999Y-50298556D01*
X172669054Y-50259515D01*
X172677816Y-50255051D01*
X172699789Y-50239086D01*
X172849786Y-50130109D01*
X172849788Y-50130106D01*
X172849792Y-50130104D01*
X173000104Y-49979792D01*
X173000106Y-49979788D01*
X173000109Y-49979786D01*
X173125048Y-49807820D01*
X173125047Y-49807820D01*
X173125051Y-49807816D01*
X173221557Y-49618412D01*
X173287246Y-49416243D01*
X173320500Y-49206287D01*
X173320500Y-48993713D01*
X173287246Y-48783757D01*
X173221557Y-48581588D01*
X173125051Y-48392184D01*
X173125049Y-48392181D01*
X173125048Y-48392179D01*
X173000109Y-48220213D01*
X172849786Y-48069890D01*
X172677820Y-47944951D01*
X172488414Y-47848444D01*
X172488413Y-47848443D01*
X172488412Y-47848443D01*
X172286243Y-47782754D01*
X172286241Y-47782753D01*
X172286240Y-47782753D01*
X172124957Y-47757208D01*
X172076287Y-47749500D01*
X171863713Y-47749500D01*
X171815042Y-47757208D01*
X171653760Y-47782753D01*
X171451585Y-47848444D01*
X171262179Y-47944951D01*
X171090213Y-48069890D01*
X170939890Y-48220213D01*
X170814951Y-48392179D01*
X170718444Y-48581585D01*
X170652753Y-48783760D01*
X170619500Y-48993713D01*
X95580500Y-48993713D01*
X95580500Y-46154500D01*
X95600185Y-46087461D01*
X95652989Y-46041706D01*
X95704500Y-46030500D01*
X194455500Y-46030500D01*
X194522539Y-46050185D01*
G37*
%TD.AperFunction*%
%TD*%
M02*
