M48
; DRILL file {KiCad 9.0.0} date 2025-05-21T10:21:16-0600
; FORMAT={-:-/ absolute / inch / decimal}
; #@! TF.CreationDate,2025-05-21T10:21:16-06:00
; #@! TF.GenerationSoftware,Kicad,Pcbnew,9.0.0
; #@! TF.FileFunction,Plated,1,2,PTH
FMAT,2
INCH
; #@! TA.AperFunction,Plated,PTH,ViaDrill
T1C0.0118
; #@! TA.AperFunction,Plated,PTH,ComponentDrill
T2C0.0315
; #@! TA.AperFunction,Plated,PTH,ComponentDrill
T3C0.0374
; #@! TA.AperFunction,Plated,PTH,ComponentDrill
T4C0.0394
%
G90
G05
T1
X5.7126Y-3.8469
X5.713Y-3.7406
X5.752Y-3.8248
X5.7528Y-3.7634
X6.476Y-2.1717
X6.5016Y-2.1354
X6.5638Y-2.1343
X6.5846Y-2.1736
X7.2295Y-4.0461
X7.2496Y-4.085
X7.313Y-4.0839
X7.3362Y-4.0461
T2
X5.239Y-2.6287
X5.239Y-2.7665
X5.2453Y-3.0051
X5.6453Y-3.0051
T3
X4.0547Y-2.7043
X4.0547Y-2.8028
X4.0547Y-2.9012
X6.9579Y-2.8791
X7.0563Y-2.8791
X7.1547Y-2.8791
X7.2531Y-2.8791
X7.3516Y-2.8791
T4
X3.998Y-3.8406
X3.998Y-3.9406
X3.998Y-4.0406
X3.998Y-4.1406
X3.998Y-4.2406
X4.3457Y-2.6386
X4.3457Y-2.9732
X4.9165Y-2.6386
X4.9165Y-2.9732
X5.5526Y-2.0593
X5.5526Y-2.7679
X5.6526Y-2.0593
X5.6526Y-2.7679
X5.7526Y-2.0593
X5.7526Y-2.7679
X5.8526Y-2.0593
X5.8526Y-2.7679
X5.9526Y-2.0593
X5.9526Y-2.7679
X6.0526Y-2.0593
X6.0526Y-2.7679
X6.0996Y-3.0315
X6.1526Y-2.0593
X6.1526Y-2.7679
X6.198Y-3.0315
X6.2526Y-2.0593
X6.2526Y-2.7679
X6.2717Y-3.4535
X6.2717Y-3.5535
X6.2717Y-4.4409
X6.2717Y-4.5409
X6.3717Y-3.4535
X6.3717Y-3.5535
X6.3717Y-4.4409
X6.3717Y-4.5409
X6.4717Y-3.4535
X6.4717Y-3.5535
X6.4717Y-4.4409
X6.4717Y-4.5409
X6.5717Y-3.4535
X6.5717Y-3.5535
X6.5717Y-4.4409
X6.5717Y-4.5409
X6.6717Y-3.4535
X6.6717Y-3.5535
X6.6717Y-4.4409
X6.6717Y-4.5409
X6.7705Y-1.9331
X6.7705Y-2.0331
X6.7705Y-2.1331
X6.7705Y-2.2331
X6.7705Y-2.3331
X6.7705Y-2.4331
X6.7717Y-3.4535
X6.7717Y-3.5535
X6.7717Y-4.4409
X6.7717Y-4.5409
X6.8717Y-3.4535
X6.8717Y-3.5535
X6.8717Y-4.4409
X6.8717Y-4.5409
X6.9717Y-3.4535
X6.9717Y-3.5535
X6.9717Y-4.4409
X6.9717Y-4.5409
X7.0717Y-3.4535
X7.0717Y-3.5535
X7.0717Y-4.4409
X7.0717Y-4.5409
X7.1717Y-3.4535
X7.1717Y-3.5535
X7.1717Y-4.4409
X7.1717Y-4.5409
T4
G00X4.2516Y-2.1186
M15
G01X4.2516Y-2.1973
M16
G05
G00X4.3303Y-2.343
M15
G01X4.4091Y-2.343
M16
G05
G00X4.4878Y-2.1186
M15
G01X4.4878Y-2.1973
M16
G05
M30
