%TF.GenerationSoftware,KiCad,Pcbnew,9.0.0*%
%TF.CreationDate,2025-05-21T10:21:18-06:00*%
%TF.ProjectId,Brush_EBoot_PCB_v1,42727573-685f-4454-926f-6f745f504342,rev?*%
%TF.SameCoordinates,Original*%
%TF.FileFunction,Soldermask,Top*%
%TF.FilePolarity,Negative*%
%FSLAX46Y46*%
G04 Gerber Fmt 4.6, Leading zero omitted, Abs format (unit mm)*
G04 Created by KiCad (PCBNEW 9.0.0) date 2025-05-21 10:21:18*
%MOMM*%
%LPD*%
G01*
G04 APERTURE LIST*
G04 Aperture macros list*
%AMRoundRect*
0 Rectangle with rounded corners*
0 $1 Rounding radius*
0 $2 $3 $4 $5 $6 $7 $8 $9 X,Y pos of 4 corners*
0 Add a 4 corners polygon primitive as box body*
4,1,4,$2,$3,$4,$5,$6,$7,$8,$9,$2,$3,0*
0 Add four circle primitives for the rounded corners*
1,1,$1+$1,$2,$3*
1,1,$1+$1,$4,$5*
1,1,$1+$1,$6,$7*
1,1,$1+$1,$8,$9*
0 Add four rect primitives between the rounded corners*
20,1,$1+$1,$2,$3,$4,$5,0*
20,1,$1+$1,$4,$5,$6,$7,0*
20,1,$1+$1,$6,$7,$8,$9,0*
20,1,$1+$1,$8,$9,$2,$3,0*%
G04 Aperture macros list end*
%ADD10RoundRect,0.250000X0.725000X-0.600000X0.725000X0.600000X-0.725000X0.600000X-0.725000X-0.600000X0*%
%ADD11O,1.950000X1.700000*%
%ADD12R,1.700000X1.700000*%
%ADD13O,1.700000X1.700000*%
%ADD14R,1.600000X1.600000*%
%ADD15C,1.600000*%
%ADD16O,1.600000X1.600000*%
%ADD17R,3.500000X3.500000*%
%ADD18RoundRect,0.750000X-0.750000X-1.000000X0.750000X-1.000000X0.750000X1.000000X-0.750000X1.000000X0*%
%ADD19RoundRect,0.875000X-0.875000X-0.875000X0.875000X-0.875000X0.875000X0.875000X-0.875000X0.875000X0*%
%ADD20RoundRect,0.250000X-0.600000X-0.725000X0.600000X-0.725000X0.600000X0.725000X-0.600000X0.725000X0*%
%ADD21O,1.700000X1.950000*%
%ADD22RoundRect,0.250000X-0.600000X-0.750000X0.600000X-0.750000X0.600000X0.750000X-0.600000X0.750000X0*%
%ADD23O,1.700000X2.000000*%
G04 APERTURE END LIST*
D10*
%TO.C,J6*%
X102990000Y-73690000D03*
D11*
X102990000Y-71190000D03*
X102990000Y-68690000D03*
%TD*%
D12*
%TO.C,J9*%
X159300000Y-87720000D03*
D13*
X159300000Y-90260000D03*
X161840000Y-87720000D03*
X161840000Y-90260000D03*
X164380000Y-87720000D03*
X164380000Y-90260000D03*
X166920000Y-87720000D03*
X166920000Y-90260000D03*
X169460000Y-87720000D03*
X169460000Y-90260000D03*
X172000000Y-87720000D03*
X172000000Y-90260000D03*
X174540000Y-87720000D03*
X174540000Y-90260000D03*
X177080000Y-87720000D03*
X177080000Y-90260000D03*
X179620000Y-87720000D03*
X179620000Y-90260000D03*
X182160000Y-87720000D03*
X182160000Y-90260000D03*
%TD*%
D12*
%TO.C,J1*%
X101550000Y-97550000D03*
D13*
X101550000Y-100090000D03*
X101550000Y-102630000D03*
X101550000Y-105170000D03*
X101550000Y-107710000D03*
%TD*%
D14*
%TO.C,C1*%
X133070000Y-70270000D03*
D15*
X133070000Y-66770000D03*
%TD*%
D12*
%TO.C,J3*%
X141035000Y-70305000D03*
D13*
X143575000Y-70305000D03*
X146115000Y-70305000D03*
X148655000Y-70305000D03*
X151195000Y-70305000D03*
X153735000Y-70305000D03*
X156275000Y-70305000D03*
X158815000Y-70305000D03*
%TD*%
D12*
%TO.C,J11*%
X110380000Y-75520000D03*
%TD*%
D15*
%TO.C,R1*%
X133230000Y-76330000D03*
D16*
X143390000Y-76330000D03*
%TD*%
D12*
%TO.C,J14*%
X124880000Y-75520000D03*
%TD*%
D17*
%TO.C,J7*%
X113990000Y-54812500D03*
D18*
X107990000Y-54812500D03*
D19*
X110990000Y-59512500D03*
%TD*%
D12*
%TO.C,J2*%
X171970000Y-61800000D03*
D13*
X171970000Y-59260000D03*
X171970000Y-56720000D03*
X171970000Y-54180000D03*
X171970000Y-51640000D03*
X171970000Y-49100000D03*
%TD*%
D12*
%TO.C,J8*%
X159300000Y-112800000D03*
D13*
X159300000Y-115340000D03*
X161840000Y-112800000D03*
X161840000Y-115340000D03*
X164380000Y-112800000D03*
X164380000Y-115340000D03*
X166920000Y-112800000D03*
X166920000Y-115340000D03*
X169460000Y-112800000D03*
X169460000Y-115340000D03*
X172000000Y-112800000D03*
X172000000Y-115340000D03*
X174540000Y-112800000D03*
X174540000Y-115340000D03*
X177080000Y-112800000D03*
X177080000Y-115340000D03*
X179620000Y-112800000D03*
X179620000Y-115340000D03*
X182160000Y-112800000D03*
X182160000Y-115340000D03*
%TD*%
D12*
%TO.C,J12*%
X110380000Y-67020000D03*
%TD*%
D20*
%TO.C,J10*%
X176730000Y-73130000D03*
D21*
X179230000Y-73130000D03*
X181730000Y-73130000D03*
X184230000Y-73130000D03*
X186730000Y-73130000D03*
%TD*%
D12*
%TO.C,J13*%
X124880000Y-67020000D03*
%TD*%
D22*
%TO.C,J5*%
X154930000Y-77000000D03*
D23*
X157430000Y-77000000D03*
%TD*%
D12*
%TO.C,J4*%
X141035000Y-52305000D03*
D13*
X143575000Y-52305000D03*
X146115000Y-52305000D03*
X148655000Y-52305000D03*
X151195000Y-52305000D03*
X153735000Y-52305000D03*
X156275000Y-52305000D03*
X158815000Y-52305000D03*
%TD*%
M02*
