%TF.GenerationSoftware,KiCad,Pcbnew,7.0.1*%
%TF.CreationDate,2023-04-11T01:40:26-06:00*%
%TF.ProjectId,ATMEGA_DevBoard,41544d45-4741-45f4-9465-76426f617264,rev?*%
%TF.SameCoordinates,Original*%
%TF.FileFunction,Soldermask,Top*%
%TF.FilePolarity,Negative*%
%FSLAX46Y46*%
G04 Gerber Fmt 4.6, Leading zero omitted, Abs format (unit mm)*
G04 Created by KiCad (PCBNEW 7.0.1) date 2023-04-11 01:40:26*
%MOMM*%
%LPD*%
G01*
G04 APERTURE LIST*
G04 Aperture macros list*
%AMRoundRect*
0 Rectangle with rounded corners*
0 $1 Rounding radius*
0 $2 $3 $4 $5 $6 $7 $8 $9 X,Y pos of 4 corners*
0 Add a 4 corners polygon primitive as box body*
4,1,4,$2,$3,$4,$5,$6,$7,$8,$9,$2,$3,0*
0 Add four circle primitives for the rounded corners*
1,1,$1+$1,$2,$3*
1,1,$1+$1,$4,$5*
1,1,$1+$1,$6,$7*
1,1,$1+$1,$8,$9*
0 Add four rect primitives between the rounded corners*
20,1,$1+$1,$2,$3,$4,$5,0*
20,1,$1+$1,$4,$5,$6,$7,0*
20,1,$1+$1,$6,$7,$8,$9,0*
20,1,$1+$1,$8,$9,$2,$3,0*%
G04 Aperture macros list end*
%ADD10R,1.700000X1.700000*%
%ADD11O,1.700000X1.700000*%
%ADD12RoundRect,0.225000X-0.250000X0.225000X-0.250000X-0.225000X0.250000X-0.225000X0.250000X0.225000X0*%
%ADD13RoundRect,0.225000X0.250000X-0.225000X0.250000X0.225000X-0.250000X0.225000X-0.250000X-0.225000X0*%
%ADD14R,1.200000X1.400000*%
%ADD15RoundRect,0.225000X0.225000X0.250000X-0.225000X0.250000X-0.225000X-0.250000X0.225000X-0.250000X0*%
%ADD16R,1.000000X0.700000*%
%ADD17C,1.000000*%
%ADD18R,2.000000X0.500000*%
%ADD19R,1.700000X2.000000*%
%ADD20RoundRect,0.200000X-0.275000X0.200000X-0.275000X-0.200000X0.275000X-0.200000X0.275000X0.200000X0*%
%ADD21RoundRect,0.150000X-0.512500X-0.150000X0.512500X-0.150000X0.512500X0.150000X-0.512500X0.150000X0*%
%ADD22RoundRect,0.243750X0.243750X0.456250X-0.243750X0.456250X-0.243750X-0.456250X0.243750X-0.456250X0*%
%ADD23R,1.500000X0.550000*%
%ADD24R,0.550000X1.500000*%
%ADD25RoundRect,0.200000X-0.200000X-0.275000X0.200000X-0.275000X0.200000X0.275000X-0.200000X0.275000X0*%
%ADD26RoundRect,0.150000X-0.150000X0.512500X-0.150000X-0.512500X0.150000X-0.512500X0.150000X0.512500X0*%
%ADD27RoundRect,0.250000X-0.312500X-1.450000X0.312500X-1.450000X0.312500X1.450000X-0.312500X1.450000X0*%
%ADD28RoundRect,0.225000X-0.225000X-0.250000X0.225000X-0.250000X0.225000X0.250000X-0.225000X0.250000X0*%
%ADD29RoundRect,0.250000X0.475000X-0.250000X0.475000X0.250000X-0.475000X0.250000X-0.475000X-0.250000X0*%
G04 APERTURE END LIST*
D10*
%TO.C,J6*%
X90170000Y-106426000D03*
D11*
X92710000Y-106426000D03*
X95250000Y-106426000D03*
X97790000Y-106426000D03*
%TD*%
%TO.C,J5*%
X109474000Y-85598000D03*
X106934000Y-85598000D03*
X104394000Y-85598000D03*
D10*
X101854000Y-85598000D03*
%TD*%
D12*
%TO.C,C2*%
X126869500Y-105699500D03*
X126869500Y-107249500D03*
%TD*%
D10*
%TO.C,J4*%
X164084000Y-86879583D03*
D11*
X161544000Y-86879583D03*
X159004000Y-86879583D03*
X156464000Y-86879583D03*
X153924000Y-86879583D03*
X151384000Y-86879583D03*
X148844000Y-86879583D03*
X146304000Y-86879583D03*
X143764000Y-86879583D03*
X141224000Y-86879583D03*
X138684000Y-86879583D03*
X136144000Y-86879583D03*
%TD*%
D13*
%TO.C,C12*%
X122174000Y-86119000D03*
X122174000Y-84569000D03*
%TD*%
D14*
%TO.C,Y1*%
X125052500Y-107701500D03*
X125052500Y-105501500D03*
X123352500Y-105501500D03*
X123352500Y-107701500D03*
%TD*%
D10*
%TO.C,J1*%
X114031000Y-100858000D03*
D11*
X114031000Y-98318000D03*
X111491000Y-100858000D03*
X111491000Y-98318000D03*
X108951000Y-100858000D03*
X108951000Y-98318000D03*
%TD*%
D15*
%TO.C,C10*%
X117094000Y-94742000D03*
X115544000Y-94742000D03*
%TD*%
D16*
%TO.C,S3*%
X117395500Y-108022000D03*
X111395500Y-108022000D03*
X117395500Y-104322000D03*
X111395500Y-104322000D03*
%TD*%
D15*
%TO.C,C6*%
X117107000Y-90424000D03*
X115557000Y-90424000D03*
%TD*%
D17*
%TO.C,J2*%
X86162000Y-92410000D03*
X86162000Y-96810000D03*
D18*
X88862000Y-93010000D03*
X88862000Y-93810000D03*
X88862000Y-94610000D03*
X88862000Y-95410000D03*
X88862000Y-96210000D03*
D19*
X88762000Y-90160000D03*
X83312000Y-90160000D03*
X88762000Y-99060000D03*
X83312000Y-99060000D03*
%TD*%
D12*
%TO.C,C7*%
X122428000Y-101333000D03*
X122428000Y-102883000D03*
%TD*%
D10*
%TO.C,J3*%
X136110585Y-104659583D03*
D11*
X138650585Y-104659583D03*
X141190585Y-104659583D03*
X143730585Y-104659583D03*
X146270585Y-104659583D03*
X148810585Y-104659583D03*
X151350585Y-104659583D03*
X153890585Y-104659583D03*
X156430585Y-104659583D03*
X158970585Y-104659583D03*
X161510585Y-104659583D03*
X164050585Y-104659583D03*
%TD*%
D20*
%TO.C,R13*%
X116840000Y-100775000D03*
X116840000Y-102425000D03*
%TD*%
D21*
%TO.C,U4*%
X96028115Y-93231688D03*
X96028115Y-94181688D03*
X96028115Y-95131688D03*
X98303115Y-95131688D03*
X98303115Y-94181688D03*
X98303115Y-93231688D03*
%TD*%
D13*
%TO.C,C15*%
X96520000Y-102362000D03*
X96520000Y-100812000D03*
%TD*%
D22*
%TO.C,D3*%
X104491000Y-90678000D03*
X102616000Y-90678000D03*
%TD*%
D23*
%TO.C,U3*%
X119014000Y-89726000D03*
X119014000Y-90526000D03*
X119014000Y-91326000D03*
X119014000Y-92126000D03*
X119014000Y-92926000D03*
X119014000Y-93726000D03*
X119014000Y-94526000D03*
X119014000Y-95326000D03*
X119014000Y-96126000D03*
X119014000Y-96926000D03*
X119014000Y-97726000D03*
D24*
X120714000Y-99426000D03*
X121514000Y-99426000D03*
X122314000Y-99426000D03*
X123114000Y-99426000D03*
X123914000Y-99426000D03*
X124714000Y-99426000D03*
X125514000Y-99426000D03*
X126314000Y-99426000D03*
X127114000Y-99426000D03*
X127914000Y-99426000D03*
X128714000Y-99426000D03*
D23*
X130414000Y-97726000D03*
X130414000Y-96926000D03*
X130414000Y-96126000D03*
X130414000Y-95326000D03*
X130414000Y-94526000D03*
X130414000Y-93726000D03*
X130414000Y-92926000D03*
X130414000Y-92126000D03*
X130414000Y-91326000D03*
X130414000Y-90526000D03*
X130414000Y-89726000D03*
D24*
X128714000Y-88026000D03*
X127914000Y-88026000D03*
X127114000Y-88026000D03*
X126314000Y-88026000D03*
X125514000Y-88026000D03*
X124714000Y-88026000D03*
X123914000Y-88026000D03*
X123114000Y-88026000D03*
X122314000Y-88026000D03*
X121514000Y-88026000D03*
X120714000Y-88026000D03*
%TD*%
D15*
%TO.C,C11*%
X120409000Y-86106000D03*
X118859000Y-86106000D03*
%TD*%
D25*
%TO.C,R15*%
X91631911Y-93445905D03*
X93281911Y-93445905D03*
%TD*%
D26*
%TO.C,U5*%
X100264000Y-99954500D03*
X99314000Y-99954500D03*
X98364000Y-99954500D03*
X98364000Y-102229500D03*
X100264000Y-102229500D03*
%TD*%
D25*
%TO.C,R14*%
X91631000Y-94996000D03*
X93281000Y-94996000D03*
%TD*%
D12*
%TO.C,C5*%
X132321000Y-97028000D03*
X132321000Y-98578000D03*
%TD*%
%TO.C,C3*%
X121535500Y-105826500D03*
X121535500Y-107376500D03*
%TD*%
%TO.C,C14*%
X102108000Y-102209000D03*
X102108000Y-103759000D03*
%TD*%
D20*
%TO.C,R16*%
X100838000Y-89853000D03*
X100838000Y-91503000D03*
%TD*%
D13*
%TO.C,C13*%
X102108000Y-99848000D03*
X102108000Y-98298000D03*
%TD*%
D27*
%TO.C,F1*%
X92858500Y-88646000D03*
X97133500Y-88646000D03*
%TD*%
D28*
%TO.C,C4*%
X128778000Y-86106000D03*
X130328000Y-86106000D03*
%TD*%
D15*
%TO.C,C9*%
X117094000Y-93218000D03*
X115544000Y-93218000D03*
%TD*%
D29*
%TO.C,C8*%
X116840000Y-88707000D03*
X116840000Y-86807000D03*
%TD*%
M02*
