%TF.GenerationSoftware,KiCad,Pcbnew,7.0.1*%
%TF.CreationDate,2023-04-11T01:40:26-06:00*%
%TF.ProjectId,ATMEGA_DevBoard,41544d45-4741-45f4-9465-76426f617264,rev?*%
%TF.SameCoordinates,Original*%
%TF.FileFunction,Soldermask,Bot*%
%TF.FilePolarity,Negative*%
%FSLAX46Y46*%
G04 Gerber Fmt 4.6, Leading zero omitted, Abs format (unit mm)*
G04 Created by KiCad (PCBNEW 7.0.1) date 2023-04-11 01:40:26*
%MOMM*%
%LPD*%
G01*
G04 APERTURE LIST*
%ADD10R,1.700000X1.700000*%
%ADD11O,1.700000X1.700000*%
%ADD12C,1.000000*%
G04 APERTURE END LIST*
D10*
%TO.C,J6*%
X90170000Y-106426000D03*
D11*
X92710000Y-106426000D03*
X95250000Y-106426000D03*
X97790000Y-106426000D03*
%TD*%
%TO.C,J5*%
X109474000Y-85598000D03*
X106934000Y-85598000D03*
X104394000Y-85598000D03*
D10*
X101854000Y-85598000D03*
%TD*%
%TO.C,J4*%
X164084000Y-86879583D03*
D11*
X161544000Y-86879583D03*
X159004000Y-86879583D03*
X156464000Y-86879583D03*
X153924000Y-86879583D03*
X151384000Y-86879583D03*
X148844000Y-86879583D03*
X146304000Y-86879583D03*
X143764000Y-86879583D03*
X141224000Y-86879583D03*
X138684000Y-86879583D03*
X136144000Y-86879583D03*
%TD*%
D10*
%TO.C,J1*%
X114031000Y-100858000D03*
D11*
X114031000Y-98318000D03*
X111491000Y-100858000D03*
X111491000Y-98318000D03*
X108951000Y-100858000D03*
X108951000Y-98318000D03*
%TD*%
D12*
%TO.C,J2*%
X86162000Y-92410000D03*
X86162000Y-96810000D03*
%TD*%
D10*
%TO.C,J3*%
X136110585Y-104659583D03*
D11*
X138650585Y-104659583D03*
X141190585Y-104659583D03*
X143730585Y-104659583D03*
X146270585Y-104659583D03*
X148810585Y-104659583D03*
X151350585Y-104659583D03*
X153890585Y-104659583D03*
X156430585Y-104659583D03*
X158970585Y-104659583D03*
X161510585Y-104659583D03*
X164050585Y-104659583D03*
%TD*%
M02*
