M48
; DRILL file {KiCad 7.0.1} date Tue Apr 11 01:40:24 2023
; FORMAT={-:-/ absolute / inch / decimal}
; #@! TF.CreationDate,2023-04-11T01:40:24-06:00
; #@! TF.GenerationSoftware,Kicad,Pcbnew,7.0.1
; #@! TF.FileFunction,Plated,1,2,PTH
FMAT,2
INCH
; #@! TA.AperFunction,Plated,PTH,ViaDrill
T1C0.0157
; #@! TA.AperFunction,Plated,PTH,ComponentDrill
T2C0.0394
%
G90
G05
T1
X3.555Y-3.79
X3.7373Y-3.708
X3.8Y-3.935
X3.91Y-3.89
X4.055Y-3.87
X4.055Y-4.085
X4.15Y-3.57
X4.5129Y-3.6702
X4.5131Y-3.7303
X4.515Y-3.56
X4.5535Y-3.4172
X4.58Y-3.82
X4.6Y-3.91
X4.6269Y-4.2228
X4.6786Y-3.3539
X4.69Y-3.5
X4.7339Y-3.6583
X4.74Y-3.76
X4.7487Y-4.2272
X4.75Y-3.97
X4.75Y-4.05
X4.79Y-3.525
X4.82Y-4.085
X4.845Y-3.33
X4.846Y-3.8655
X4.8574Y-4.2861
X4.9207Y-3.3707
X4.9225Y-4.1085
X4.94Y-4.003
X4.94Y-4.0424
X4.95Y-3.55
X4.9603Y-3.3702
X4.99Y-3.54
X5.03Y-3.52
X5.0311Y-4.161
X5.0869Y-3.8546
X5.1306Y-3.4259
X5.1416Y-3.5041
X5.2Y-3.53
X5.24Y-3.5364
X5.245Y-3.88
T2
X3.55Y-4.19
X3.65Y-4.19
X3.75Y-4.19
X3.85Y-4.19
X4.01Y-3.37
X4.11Y-3.37
X4.21Y-3.37
X4.2894Y-3.8708
X4.2894Y-3.9708
X4.31Y-3.37
X4.3894Y-3.8708
X4.3894Y-3.9708
X4.4894Y-3.8708
X4.4894Y-3.9708
X5.3587Y-4.1205
X5.36Y-3.4205
X5.4587Y-4.1205
X5.46Y-3.4205
X5.5587Y-4.1205
X5.56Y-3.4205
X5.6587Y-4.1205
X5.66Y-3.4205
X5.7587Y-4.1205
X5.76Y-3.4205
X5.8587Y-4.1205
X5.86Y-3.4205
X5.9587Y-4.1205
X5.96Y-3.4205
X6.0587Y-4.1205
X6.06Y-3.4205
X6.1587Y-4.1205
X6.16Y-3.4205
X6.2587Y-4.1205
X6.26Y-3.4205
X6.3587Y-4.1205
X6.36Y-3.4205
X6.4587Y-4.1205
X6.46Y-3.4205
T0
M30
