%TF.GenerationSoftware,KiCad,Pcbnew,7.0.1*%
%TF.CreationDate,2023-04-11T01:40:26-06:00*%
%TF.ProjectId,ATMEGA_DevBoard,41544d45-4741-45f4-9465-76426f617264,rev?*%
%TF.SameCoordinates,Original*%
%TF.FileFunction,Copper,L2,Bot*%
%TF.FilePolarity,Positive*%
%FSLAX46Y46*%
G04 Gerber Fmt 4.6, Leading zero omitted, Abs format (unit mm)*
G04 Created by KiCad (PCBNEW 7.0.1) date 2023-04-11 01:40:26*
%MOMM*%
%LPD*%
G01*
G04 APERTURE LIST*
%TA.AperFunction,ComponentPad*%
%ADD10R,1.700000X1.700000*%
%TD*%
%TA.AperFunction,ComponentPad*%
%ADD11O,1.700000X1.700000*%
%TD*%
%TA.AperFunction,ViaPad*%
%ADD12C,0.800000*%
%TD*%
%TA.AperFunction,Conductor*%
%ADD13C,0.203200*%
%TD*%
G04 APERTURE END LIST*
D10*
%TO.P,J6,1,Pin_1*%
%TO.N,+3.3V*%
X90170000Y-106426000D03*
D11*
%TO.P,J6,2,Pin_2*%
X92710000Y-106426000D03*
%TO.P,J6,3,Pin_3*%
X95250000Y-106426000D03*
%TO.P,J6,4,Pin_4*%
X97790000Y-106426000D03*
%TD*%
%TO.P,J5,4,Pin_4*%
%TO.N,+5V*%
X109474000Y-85598000D03*
%TO.P,J5,3,Pin_3*%
X106934000Y-85598000D03*
%TO.P,J5,2,Pin_2*%
X104394000Y-85598000D03*
D10*
%TO.P,J5,1,Pin_1*%
X101854000Y-85598000D03*
%TD*%
%TO.P,J4,1,Pin_1*%
%TO.N,GND*%
X164084000Y-86879583D03*
D11*
%TO.P,J4,2,Pin_2*%
%TO.N,PB4*%
X161544000Y-86879583D03*
%TO.P,J4,3,Pin_3*%
%TO.N,PB5*%
X159004000Y-86879583D03*
%TO.P,J4,4,Pin_4*%
%TO.N,PB6*%
X156464000Y-86879583D03*
%TO.P,J4,5,Pin_5*%
%TO.N,PC6*%
X153924000Y-86879583D03*
%TO.P,J4,6,Pin_6*%
%TO.N,PC7*%
X151384000Y-86879583D03*
%TO.P,J4,7,Pin_7*%
%TO.N,PF0*%
X148844000Y-86879583D03*
%TO.P,J4,8,Pin_8*%
%TO.N,PF1*%
X146304000Y-86879583D03*
%TO.P,J4,9,Pin_9*%
%TO.N,PF4*%
X143764000Y-86879583D03*
%TO.P,J4,10,Pin_10*%
%TO.N,PF5*%
X141224000Y-86879583D03*
%TO.P,J4,11,Pin_11*%
%TO.N,PF6*%
X138684000Y-86879583D03*
%TO.P,J4,12,Pin_12*%
%TO.N,PF7*%
X136144000Y-86879583D03*
%TD*%
D10*
%TO.P,J1,1,MISO*%
%TO.N,MISO*%
X114031000Y-100858000D03*
D11*
%TO.P,J1,2,VCC*%
%TO.N,+5V*%
X114031000Y-98318000D03*
%TO.P,J1,3,SCK*%
%TO.N,SCK*%
X111491000Y-100858000D03*
%TO.P,J1,4,MOSI*%
%TO.N,MOSI*%
X111491000Y-98318000D03*
%TO.P,J1,5,~{RST}*%
%TO.N,RST*%
X108951000Y-100858000D03*
%TO.P,J1,6,GND*%
%TO.N,GND*%
X108951000Y-98318000D03*
%TD*%
D10*
%TO.P,J3,1,Pin_1*%
%TO.N,PB7*%
X136110585Y-104659583D03*
D11*
%TO.P,J3,2,Pin_2*%
%TO.N,PB0*%
X138650585Y-104659583D03*
%TO.P,J3,3,Pin_3*%
%TO.N,PE6*%
X141190585Y-104659583D03*
%TO.P,J3,4,Pin_4*%
%TO.N,PD0*%
X143730585Y-104659583D03*
%TO.P,J3,5,Pin_5*%
%TO.N,PD1*%
X146270585Y-104659583D03*
%TO.P,J3,6,Pin_6*%
%TO.N,PD2*%
X148810585Y-104659583D03*
%TO.P,J3,7,Pin_7*%
%TO.N,PD3*%
X151350585Y-104659583D03*
%TO.P,J3,8,Pin_8*%
%TO.N,PD5*%
X153890585Y-104659583D03*
%TO.P,J3,9,Pin_9*%
%TO.N,PD4*%
X156430585Y-104659583D03*
%TO.P,J3,10,Pin_10*%
%TO.N,PD6*%
X158970585Y-104659583D03*
%TO.P,J3,11,Pin_11*%
%TO.N,PD7*%
X161510585Y-104659583D03*
%TO.P,J3,12,Pin_12*%
%TO.N,GND*%
X164050585Y-104659583D03*
%TD*%
D12*
%TO.N,PF6*%
X125730000Y-90170000D03*
X133096000Y-89824900D03*
%TO.N,PF7*%
X132080000Y-89662000D03*
X126746000Y-89916000D03*
%TO.N,PF5*%
X125991723Y-85603500D03*
%TO.N,PF4*%
X124986858Y-85616858D03*
%TO.N,GND*%
X130318067Y-87016836D03*
X94927568Y-94183676D03*
X122428000Y-103759000D03*
X99314000Y-98806000D03*
X121666000Y-89535000D03*
X127762000Y-89408000D03*
X105410000Y-90678000D03*
X133223000Y-98552000D03*
X115659806Y-86797896D03*
X120240310Y-92921157D03*
X120617428Y-107370892D03*
X123377191Y-108866851D03*
X96520000Y-99949000D03*
X102997000Y-103759000D03*
X114632608Y-94748694D03*
X127790378Y-105688528D03*
X90297000Y-96266000D03*
X125031740Y-104356388D03*
X130595586Y-89003476D03*
X129206701Y-97906659D03*
X114626396Y-93221820D03*
X102997000Y-98298000D03*
X118836998Y-85189074D03*
X117522500Y-107260000D03*
X123063000Y-84582000D03*
X114681000Y-90424000D03*
X123089352Y-98183580D03*
%TO.N,+5V*%
X116840000Y-99314000D03*
%TO.N,MOSI*%
X116332000Y-97028000D03*
%TO.N,PB7*%
X120650000Y-100838000D03*
X120650000Y-102870000D03*
%TO.N,PE6*%
X125476000Y-101677397D03*
X119126000Y-88900000D03*
%TO.N,PB0*%
X125476000Y-102676900D03*
X120396000Y-95504000D03*
%TD*%
D13*
%TO.N,PF6*%
X126641200Y-91081200D02*
X131839700Y-91081200D01*
X125730000Y-90170000D02*
X126641200Y-91081200D01*
X131839700Y-91081200D02*
X133096000Y-89824900D01*
%TO.N,PF7*%
X127508000Y-90678000D02*
X129286000Y-90678000D01*
X129286000Y-90678000D02*
X131064000Y-90678000D01*
X126746000Y-89916000D02*
X127508000Y-90678000D01*
X131064000Y-90678000D02*
X132080000Y-89662000D01*
%TO.N,PF5*%
X126759223Y-84836000D02*
X139180417Y-84836000D01*
X125991723Y-85603500D02*
X126759223Y-84836000D01*
X139180417Y-84836000D02*
X141224000Y-86879583D01*
%TO.N,PF4*%
X126275716Y-84328000D02*
X141212417Y-84328000D01*
X141212417Y-84328000D02*
X143764000Y-86879583D01*
X124986858Y-85616858D02*
X126275716Y-84328000D01*
%TO.N,+5V*%
X114031000Y-98318000D02*
X115844000Y-98318000D01*
X115844000Y-98318000D02*
X116840000Y-99314000D01*
%TO.N,MOSI*%
X111491000Y-98318000D02*
X112781000Y-97028000D01*
X112781000Y-97028000D02*
X116332000Y-97028000D01*
%TO.N,PB7*%
X120650000Y-100838000D02*
X120650000Y-102870000D01*
%TO.N,PE6*%
X124206000Y-100407397D02*
X125476000Y-101677397D01*
X119126000Y-88900000D02*
X119634000Y-88900000D01*
X124206000Y-93472000D02*
X124206000Y-97536000D01*
X119634000Y-88900000D02*
X122174000Y-91440000D01*
X122174000Y-91440000D02*
X124206000Y-93472000D01*
X124206000Y-97536000D02*
X124206000Y-99943800D01*
X124206000Y-99943800D02*
X124206000Y-100407397D01*
%TO.N,PB0*%
X121158000Y-98552000D02*
X125282900Y-102676900D01*
X121158000Y-96266000D02*
X121158000Y-98552000D01*
X120396000Y-95504000D02*
X121158000Y-96266000D01*
X125282900Y-102676900D02*
X125476000Y-102676900D01*
%TD*%
%TA.AperFunction,Conductor*%
%TO.N,GND*%
G36*
X129531107Y-79772044D02*
G01*
X129576148Y-79814780D01*
X131902022Y-83536180D01*
X131920827Y-83598645D01*
X131905326Y-83662011D01*
X131859807Y-83708741D01*
X131796870Y-83725900D01*
X126323295Y-83725900D01*
X126307110Y-83724839D01*
X126304214Y-83724457D01*
X126275716Y-83720705D01*
X126247217Y-83724457D01*
X126244321Y-83724839D01*
X126244305Y-83724840D01*
X126118535Y-83741398D01*
X126014990Y-83784287D01*
X126014982Y-83784290D01*
X126014967Y-83784297D01*
X125980443Y-83798597D01*
X125972065Y-83802068D01*
X125877868Y-83874349D01*
X125846292Y-83898579D01*
X125827008Y-83923709D01*
X125816317Y-83935899D01*
X125072179Y-84680039D01*
X125031951Y-84706919D01*
X124984498Y-84716358D01*
X124892210Y-84716358D01*
X124707055Y-84755713D01*
X124534127Y-84832706D01*
X124380987Y-84943968D01*
X124254324Y-85084641D01*
X124159678Y-85248573D01*
X124101184Y-85428600D01*
X124081398Y-85616857D01*
X124101184Y-85805115D01*
X124159678Y-85985142D01*
X124254324Y-86149074D01*
X124380987Y-86289747D01*
X124534127Y-86401009D01*
X124707055Y-86478002D01*
X124892210Y-86517358D01*
X124892212Y-86517358D01*
X125081504Y-86517358D01*
X125081506Y-86517358D01*
X125204942Y-86491120D01*
X125266661Y-86478002D01*
X125439588Y-86401009D01*
X125439588Y-86401008D01*
X125451494Y-86395708D01*
X125452914Y-86398897D01*
X125490732Y-86384365D01*
X125554159Y-86394404D01*
X125711920Y-86464644D01*
X125897075Y-86504000D01*
X125897077Y-86504000D01*
X126086369Y-86504000D01*
X126086371Y-86504000D01*
X126209806Y-86477762D01*
X126271526Y-86464644D01*
X126444453Y-86387651D01*
X126579207Y-86289747D01*
X126597593Y-86276389D01*
X126724256Y-86135716D01*
X126818902Y-85971784D01*
X126821626Y-85963401D01*
X126877397Y-85791756D01*
X126897183Y-85603500D01*
X126897182Y-85603498D01*
X126898545Y-85590538D01*
X126900921Y-85590787D01*
X126904661Y-85559149D01*
X126933871Y-85512847D01*
X126972303Y-85474416D01*
X127012532Y-85447538D01*
X127059983Y-85438100D01*
X135480387Y-85438100D01*
X135544252Y-85455811D01*
X135589872Y-85503885D01*
X135604217Y-85568589D01*
X135583188Y-85631440D01*
X135532792Y-85674482D01*
X135466170Y-85705548D01*
X135272598Y-85841088D01*
X135105505Y-86008181D01*
X134969965Y-86201753D01*
X134870097Y-86415919D01*
X134808936Y-86644175D01*
X134788340Y-86879582D01*
X134808936Y-87114990D01*
X134853709Y-87282085D01*
X134870097Y-87343246D01*
X134969965Y-87557413D01*
X135105505Y-87750984D01*
X135272599Y-87918078D01*
X135466170Y-88053618D01*
X135680337Y-88153486D01*
X135908592Y-88214646D01*
X136144000Y-88235242D01*
X136379408Y-88214646D01*
X136607663Y-88153486D01*
X136821830Y-88053618D01*
X137015401Y-87918078D01*
X137182495Y-87750984D01*
X137312426Y-87565422D01*
X137356743Y-87526558D01*
X137414000Y-87512547D01*
X137471257Y-87526558D01*
X137515573Y-87565422D01*
X137645505Y-87750984D01*
X137812599Y-87918078D01*
X138006170Y-88053618D01*
X138220337Y-88153486D01*
X138448592Y-88214646D01*
X138684000Y-88235242D01*
X138919408Y-88214646D01*
X139147663Y-88153486D01*
X139361830Y-88053618D01*
X139555401Y-87918078D01*
X139722495Y-87750984D01*
X139852426Y-87565422D01*
X139896743Y-87526558D01*
X139954000Y-87512547D01*
X140011257Y-87526558D01*
X140055573Y-87565422D01*
X140185505Y-87750984D01*
X140352599Y-87918078D01*
X140546170Y-88053618D01*
X140760337Y-88153486D01*
X140988592Y-88214646D01*
X141224000Y-88235242D01*
X141459408Y-88214646D01*
X141687663Y-88153486D01*
X141901830Y-88053618D01*
X142095401Y-87918078D01*
X142262495Y-87750984D01*
X142392426Y-87565422D01*
X142436743Y-87526558D01*
X142494000Y-87512547D01*
X142551257Y-87526558D01*
X142595573Y-87565422D01*
X142725505Y-87750984D01*
X142892599Y-87918078D01*
X143086170Y-88053618D01*
X143300337Y-88153486D01*
X143528592Y-88214646D01*
X143764000Y-88235242D01*
X143999408Y-88214646D01*
X144227663Y-88153486D01*
X144441830Y-88053618D01*
X144635401Y-87918078D01*
X144802495Y-87750984D01*
X144932426Y-87565422D01*
X144976743Y-87526558D01*
X145034000Y-87512547D01*
X145091257Y-87526558D01*
X145135573Y-87565422D01*
X145265505Y-87750984D01*
X145432599Y-87918078D01*
X145626170Y-88053618D01*
X145840337Y-88153486D01*
X146068592Y-88214646D01*
X146304000Y-88235242D01*
X146539408Y-88214646D01*
X146767663Y-88153486D01*
X146981830Y-88053618D01*
X147175401Y-87918078D01*
X147342495Y-87750984D01*
X147472426Y-87565422D01*
X147516743Y-87526558D01*
X147574000Y-87512547D01*
X147631257Y-87526558D01*
X147675573Y-87565422D01*
X147805505Y-87750984D01*
X147972599Y-87918078D01*
X148166170Y-88053618D01*
X148380337Y-88153486D01*
X148608592Y-88214646D01*
X148844000Y-88235242D01*
X149079408Y-88214646D01*
X149307663Y-88153486D01*
X149521830Y-88053618D01*
X149715401Y-87918078D01*
X149882495Y-87750984D01*
X150012426Y-87565422D01*
X150056743Y-87526558D01*
X150114000Y-87512547D01*
X150171257Y-87526558D01*
X150215573Y-87565422D01*
X150345505Y-87750984D01*
X150512599Y-87918078D01*
X150706170Y-88053618D01*
X150920337Y-88153486D01*
X151148592Y-88214646D01*
X151384000Y-88235242D01*
X151619408Y-88214646D01*
X151847663Y-88153486D01*
X152061830Y-88053618D01*
X152255401Y-87918078D01*
X152422495Y-87750984D01*
X152552426Y-87565422D01*
X152596743Y-87526558D01*
X152654000Y-87512547D01*
X152711257Y-87526558D01*
X152755573Y-87565422D01*
X152885505Y-87750984D01*
X153052599Y-87918078D01*
X153246170Y-88053618D01*
X153460337Y-88153486D01*
X153688592Y-88214646D01*
X153924000Y-88235242D01*
X154159408Y-88214646D01*
X154387663Y-88153486D01*
X154601830Y-88053618D01*
X154795401Y-87918078D01*
X154962495Y-87750984D01*
X155092426Y-87565422D01*
X155136743Y-87526558D01*
X155194000Y-87512547D01*
X155251257Y-87526558D01*
X155295573Y-87565422D01*
X155425505Y-87750984D01*
X155592599Y-87918078D01*
X155786170Y-88053618D01*
X156000337Y-88153486D01*
X156228592Y-88214646D01*
X156464000Y-88235242D01*
X156699408Y-88214646D01*
X156927663Y-88153486D01*
X157141830Y-88053618D01*
X157335401Y-87918078D01*
X157502495Y-87750984D01*
X157632426Y-87565422D01*
X157676743Y-87526558D01*
X157734000Y-87512547D01*
X157791257Y-87526558D01*
X157835573Y-87565422D01*
X157965505Y-87750984D01*
X158132599Y-87918078D01*
X158326170Y-88053618D01*
X158540337Y-88153486D01*
X158768592Y-88214646D01*
X159004000Y-88235242D01*
X159239408Y-88214646D01*
X159467663Y-88153486D01*
X159681830Y-88053618D01*
X159875401Y-87918078D01*
X160042495Y-87750984D01*
X160172426Y-87565422D01*
X160216743Y-87526558D01*
X160274000Y-87512547D01*
X160331257Y-87526558D01*
X160375573Y-87565422D01*
X160505505Y-87750984D01*
X160672599Y-87918078D01*
X160866170Y-88053618D01*
X161080337Y-88153486D01*
X161308592Y-88214646D01*
X161544000Y-88235242D01*
X161779408Y-88214646D01*
X162007663Y-88153486D01*
X162221830Y-88053618D01*
X162415401Y-87918078D01*
X162537717Y-87795761D01*
X162590460Y-87764468D01*
X162651752Y-87762279D01*
X162706597Y-87789732D01*
X162741577Y-87840111D01*
X162790647Y-87971671D01*
X162876811Y-88086771D01*
X162991910Y-88172935D01*
X163126624Y-88223180D01*
X163186176Y-88229583D01*
X163834000Y-88229583D01*
X163834000Y-87129583D01*
X164334000Y-87129583D01*
X164334000Y-88229583D01*
X164981824Y-88229583D01*
X165041375Y-88223180D01*
X165176089Y-88172935D01*
X165291188Y-88086771D01*
X165377352Y-87971672D01*
X165427597Y-87836958D01*
X165434000Y-87777407D01*
X165434000Y-87129583D01*
X164334000Y-87129583D01*
X163834000Y-87129583D01*
X163834000Y-85529583D01*
X164334000Y-85529583D01*
X164334000Y-86629583D01*
X165434000Y-86629583D01*
X165434000Y-85981759D01*
X165427597Y-85922207D01*
X165377352Y-85787493D01*
X165291188Y-85672394D01*
X165176089Y-85586230D01*
X165041375Y-85535985D01*
X164981824Y-85529583D01*
X164334000Y-85529583D01*
X163834000Y-85529583D01*
X163186176Y-85529583D01*
X163126624Y-85535985D01*
X162991910Y-85586230D01*
X162876811Y-85672394D01*
X162790646Y-85787496D01*
X162741576Y-85919055D01*
X162706597Y-85969433D01*
X162651753Y-85996886D01*
X162590460Y-85994697D01*
X162537714Y-85963401D01*
X162415404Y-85841091D01*
X162415401Y-85841088D01*
X162221830Y-85705548D01*
X162007663Y-85605680D01*
X161935074Y-85586230D01*
X161779407Y-85544519D01*
X161544000Y-85523923D01*
X161308592Y-85544519D01*
X161080336Y-85605680D01*
X160866170Y-85705548D01*
X160672598Y-85841088D01*
X160505505Y-86008181D01*
X160375575Y-86193742D01*
X160331257Y-86232608D01*
X160274000Y-86246619D01*
X160216743Y-86232608D01*
X160172425Y-86193742D01*
X160131795Y-86135716D01*
X160042495Y-86008182D01*
X159875401Y-85841088D01*
X159681830Y-85705548D01*
X159467663Y-85605680D01*
X159395074Y-85586230D01*
X159239407Y-85544519D01*
X159004000Y-85523923D01*
X158768592Y-85544519D01*
X158540336Y-85605680D01*
X158326170Y-85705548D01*
X158132598Y-85841088D01*
X157965505Y-86008181D01*
X157835575Y-86193742D01*
X157791257Y-86232608D01*
X157734000Y-86246619D01*
X157676743Y-86232608D01*
X157632425Y-86193742D01*
X157591795Y-86135716D01*
X157502495Y-86008182D01*
X157335401Y-85841088D01*
X157141830Y-85705548D01*
X156927663Y-85605680D01*
X156855074Y-85586230D01*
X156699407Y-85544519D01*
X156464000Y-85523923D01*
X156228592Y-85544519D01*
X156000336Y-85605680D01*
X155786170Y-85705548D01*
X155592598Y-85841088D01*
X155425505Y-86008181D01*
X155295575Y-86193742D01*
X155251257Y-86232608D01*
X155194000Y-86246619D01*
X155136743Y-86232608D01*
X155092425Y-86193742D01*
X155051795Y-86135716D01*
X154962495Y-86008182D01*
X154795401Y-85841088D01*
X154601830Y-85705548D01*
X154387663Y-85605680D01*
X154315074Y-85586230D01*
X154159407Y-85544519D01*
X153924000Y-85523923D01*
X153688592Y-85544519D01*
X153460336Y-85605680D01*
X153246170Y-85705548D01*
X153052598Y-85841088D01*
X152885505Y-86008181D01*
X152755575Y-86193742D01*
X152711257Y-86232608D01*
X152654000Y-86246619D01*
X152596743Y-86232608D01*
X152552425Y-86193742D01*
X152511795Y-86135716D01*
X152422495Y-86008182D01*
X152255401Y-85841088D01*
X152061830Y-85705548D01*
X151847663Y-85605680D01*
X151775074Y-85586230D01*
X151619407Y-85544519D01*
X151384000Y-85523923D01*
X151148592Y-85544519D01*
X150920336Y-85605680D01*
X150706170Y-85705548D01*
X150512598Y-85841088D01*
X150345505Y-86008181D01*
X150215575Y-86193742D01*
X150171257Y-86232608D01*
X150114000Y-86246619D01*
X150056743Y-86232608D01*
X150012425Y-86193742D01*
X149971795Y-86135716D01*
X149882495Y-86008182D01*
X149715401Y-85841088D01*
X149521830Y-85705548D01*
X149307663Y-85605680D01*
X149235074Y-85586230D01*
X149079407Y-85544519D01*
X148844000Y-85523923D01*
X148608592Y-85544519D01*
X148380336Y-85605680D01*
X148166170Y-85705548D01*
X147972598Y-85841088D01*
X147805505Y-86008181D01*
X147675575Y-86193742D01*
X147631257Y-86232608D01*
X147574000Y-86246619D01*
X147516743Y-86232608D01*
X147472425Y-86193742D01*
X147431795Y-86135716D01*
X147342495Y-86008182D01*
X147175401Y-85841088D01*
X146981830Y-85705548D01*
X146767663Y-85605680D01*
X146695074Y-85586230D01*
X146539407Y-85544519D01*
X146304000Y-85523923D01*
X146068592Y-85544519D01*
X145840336Y-85605680D01*
X145626170Y-85705548D01*
X145432598Y-85841088D01*
X145265505Y-86008181D01*
X145135575Y-86193742D01*
X145091257Y-86232608D01*
X145034000Y-86246619D01*
X144976743Y-86232608D01*
X144932425Y-86193742D01*
X144891795Y-86135716D01*
X144802495Y-86008182D01*
X144635401Y-85841088D01*
X144441830Y-85705548D01*
X144227663Y-85605680D01*
X144155074Y-85586230D01*
X143999407Y-85544519D01*
X143764000Y-85523923D01*
X143528593Y-85544519D01*
X143402027Y-85578432D01*
X143337840Y-85578432D01*
X143282253Y-85546338D01*
X141768096Y-84032181D01*
X141737846Y-83982818D01*
X141733304Y-83925102D01*
X141755459Y-83871615D01*
X141799482Y-83834015D01*
X141855777Y-83820500D01*
X165303138Y-83820500D01*
X165350591Y-83829939D01*
X165390819Y-83856819D01*
X166587181Y-85053181D01*
X166614061Y-85093409D01*
X166623500Y-85140862D01*
X166623500Y-106127706D01*
X166616094Y-106169919D01*
X166594759Y-106207089D01*
X165391596Y-107650883D01*
X165348932Y-107683793D01*
X165296337Y-107695500D01*
X132099144Y-107695500D01*
X132091939Y-107694392D01*
X132079757Y-107695476D01*
X132071576Y-107703623D01*
X132067736Y-107709933D01*
X130396172Y-109715812D01*
X129692159Y-110560629D01*
X129576947Y-110698883D01*
X129534283Y-110731793D01*
X129481688Y-110743500D01*
X82338872Y-110743500D01*
X82297827Y-110736510D01*
X82261410Y-110716328D01*
X81095617Y-109783692D01*
X81068406Y-109753344D01*
X81052506Y-109715815D01*
X81046235Y-109689696D01*
X81043285Y-109671579D01*
X81031008Y-109531244D01*
X81030957Y-109530632D01*
X81026882Y-109478853D01*
X81026500Y-109469126D01*
X81026500Y-107323869D01*
X88819500Y-107323869D01*
X88825909Y-107383484D01*
X88851056Y-107450907D01*
X88876204Y-107518331D01*
X88962454Y-107633546D01*
X89077669Y-107719796D01*
X89212517Y-107770091D01*
X89272127Y-107776500D01*
X91067872Y-107776499D01*
X91127483Y-107770091D01*
X91262331Y-107719796D01*
X91377546Y-107633546D01*
X91463796Y-107518331D01*
X91512810Y-107386916D01*
X91547789Y-107336537D01*
X91602634Y-107309084D01*
X91663927Y-107311273D01*
X91716673Y-107342569D01*
X91838599Y-107464495D01*
X92032170Y-107600035D01*
X92246337Y-107699903D01*
X92474592Y-107761063D01*
X92710000Y-107781659D01*
X92945408Y-107761063D01*
X93173663Y-107699903D01*
X93387830Y-107600035D01*
X93581401Y-107464495D01*
X93748495Y-107297401D01*
X93878426Y-107111839D01*
X93922743Y-107072975D01*
X93980000Y-107058964D01*
X94037257Y-107072975D01*
X94081573Y-107111839D01*
X94211505Y-107297401D01*
X94378599Y-107464495D01*
X94572170Y-107600035D01*
X94786337Y-107699903D01*
X95014592Y-107761063D01*
X95250000Y-107781659D01*
X95485408Y-107761063D01*
X95713663Y-107699903D01*
X95927830Y-107600035D01*
X96121401Y-107464495D01*
X96288495Y-107297401D01*
X96418426Y-107111839D01*
X96462743Y-107072975D01*
X96520000Y-107058964D01*
X96577257Y-107072975D01*
X96621573Y-107111839D01*
X96751505Y-107297401D01*
X96918599Y-107464495D01*
X97112170Y-107600035D01*
X97326337Y-107699903D01*
X97554592Y-107761063D01*
X97790000Y-107781659D01*
X98025408Y-107761063D01*
X98253663Y-107699903D01*
X98467830Y-107600035D01*
X98661401Y-107464495D01*
X98828495Y-107297401D01*
X98964035Y-107103830D01*
X99063903Y-106889663D01*
X99125063Y-106661408D01*
X99145659Y-106426000D01*
X99125063Y-106190592D01*
X99063903Y-105962337D01*
X98964035Y-105748171D01*
X98830493Y-105557452D01*
X134760085Y-105557452D01*
X134766494Y-105617067D01*
X134791641Y-105684489D01*
X134816789Y-105751914D01*
X134903039Y-105867129D01*
X135018254Y-105953379D01*
X135153102Y-106003674D01*
X135212712Y-106010083D01*
X137008457Y-106010082D01*
X137068068Y-106003674D01*
X137202916Y-105953379D01*
X137318131Y-105867129D01*
X137404381Y-105751914D01*
X137453395Y-105620499D01*
X137488374Y-105570120D01*
X137543219Y-105542667D01*
X137604512Y-105544856D01*
X137657258Y-105576152D01*
X137779184Y-105698078D01*
X137972755Y-105833618D01*
X138186922Y-105933486D01*
X138415177Y-105994646D01*
X138650585Y-106015242D01*
X138885993Y-105994646D01*
X139114248Y-105933486D01*
X139328415Y-105833618D01*
X139521986Y-105698078D01*
X139689080Y-105530984D01*
X139819011Y-105345422D01*
X139863328Y-105306558D01*
X139920585Y-105292547D01*
X139977842Y-105306558D01*
X140022158Y-105345422D01*
X140152090Y-105530984D01*
X140319184Y-105698078D01*
X140512755Y-105833618D01*
X140726922Y-105933486D01*
X140955177Y-105994646D01*
X141190585Y-106015242D01*
X141425993Y-105994646D01*
X141654248Y-105933486D01*
X141868415Y-105833618D01*
X142061986Y-105698078D01*
X142229080Y-105530984D01*
X142359011Y-105345422D01*
X142403328Y-105306558D01*
X142460585Y-105292547D01*
X142517842Y-105306558D01*
X142562158Y-105345422D01*
X142692090Y-105530984D01*
X142859184Y-105698078D01*
X143052755Y-105833618D01*
X143266922Y-105933486D01*
X143495177Y-105994646D01*
X143730585Y-106015242D01*
X143965993Y-105994646D01*
X144194248Y-105933486D01*
X144408415Y-105833618D01*
X144601986Y-105698078D01*
X144769080Y-105530984D01*
X144899011Y-105345422D01*
X144943328Y-105306558D01*
X145000585Y-105292547D01*
X145057842Y-105306558D01*
X145102158Y-105345422D01*
X145232090Y-105530984D01*
X145399184Y-105698078D01*
X145592755Y-105833618D01*
X145806922Y-105933486D01*
X146035177Y-105994646D01*
X146270585Y-106015242D01*
X146505993Y-105994646D01*
X146734248Y-105933486D01*
X146948415Y-105833618D01*
X147141986Y-105698078D01*
X147309080Y-105530984D01*
X147439011Y-105345422D01*
X147483328Y-105306558D01*
X147540585Y-105292547D01*
X147597842Y-105306558D01*
X147642158Y-105345422D01*
X147772090Y-105530984D01*
X147939184Y-105698078D01*
X148132755Y-105833618D01*
X148346922Y-105933486D01*
X148575177Y-105994646D01*
X148810585Y-106015242D01*
X149045993Y-105994646D01*
X149274248Y-105933486D01*
X149488415Y-105833618D01*
X149681986Y-105698078D01*
X149849080Y-105530984D01*
X149979011Y-105345422D01*
X150023328Y-105306558D01*
X150080585Y-105292547D01*
X150137842Y-105306558D01*
X150182158Y-105345422D01*
X150312090Y-105530984D01*
X150479184Y-105698078D01*
X150672755Y-105833618D01*
X150886922Y-105933486D01*
X151115177Y-105994646D01*
X151350585Y-106015242D01*
X151585993Y-105994646D01*
X151814248Y-105933486D01*
X152028415Y-105833618D01*
X152221986Y-105698078D01*
X152389080Y-105530984D01*
X152519011Y-105345422D01*
X152563328Y-105306558D01*
X152620585Y-105292547D01*
X152677842Y-105306558D01*
X152722158Y-105345422D01*
X152852090Y-105530984D01*
X153019184Y-105698078D01*
X153212755Y-105833618D01*
X153426922Y-105933486D01*
X153655177Y-105994646D01*
X153890585Y-106015242D01*
X154125993Y-105994646D01*
X154354248Y-105933486D01*
X154568415Y-105833618D01*
X154761986Y-105698078D01*
X154929080Y-105530984D01*
X155059011Y-105345422D01*
X155103328Y-105306558D01*
X155160585Y-105292547D01*
X155217842Y-105306558D01*
X155262158Y-105345422D01*
X155392090Y-105530984D01*
X155559184Y-105698078D01*
X155752755Y-105833618D01*
X155966922Y-105933486D01*
X156195177Y-105994646D01*
X156430585Y-106015242D01*
X156665993Y-105994646D01*
X156894248Y-105933486D01*
X157108415Y-105833618D01*
X157301986Y-105698078D01*
X157469080Y-105530984D01*
X157599011Y-105345422D01*
X157643328Y-105306558D01*
X157700585Y-105292547D01*
X157757842Y-105306558D01*
X157802158Y-105345422D01*
X157932090Y-105530984D01*
X158099184Y-105698078D01*
X158292755Y-105833618D01*
X158506922Y-105933486D01*
X158735177Y-105994646D01*
X158970585Y-106015242D01*
X159205993Y-105994646D01*
X159434248Y-105933486D01*
X159648415Y-105833618D01*
X159841986Y-105698078D01*
X160009080Y-105530984D01*
X160139011Y-105345422D01*
X160183328Y-105306558D01*
X160240585Y-105292547D01*
X160297842Y-105306558D01*
X160342158Y-105345422D01*
X160472090Y-105530984D01*
X160639184Y-105698078D01*
X160832755Y-105833618D01*
X161046922Y-105933486D01*
X161275177Y-105994646D01*
X161510585Y-106015242D01*
X161745993Y-105994646D01*
X161974248Y-105933486D01*
X162188415Y-105833618D01*
X162381986Y-105698078D01*
X162549080Y-105530984D01*
X162679317Y-105344985D01*
X162723633Y-105306122D01*
X162780890Y-105292111D01*
X162838147Y-105306122D01*
X162882465Y-105344987D01*
X163012478Y-105530664D01*
X163179503Y-105697689D01*
X163373008Y-105833183D01*
X163587092Y-105933013D01*
X163800584Y-105990218D01*
X163800585Y-105990219D01*
X163800585Y-104909583D01*
X164300585Y-104909583D01*
X164300585Y-105990218D01*
X164514077Y-105933013D01*
X164728161Y-105833183D01*
X164921666Y-105697689D01*
X165088691Y-105530664D01*
X165224185Y-105337159D01*
X165324015Y-105123075D01*
X165381221Y-104909583D01*
X164300585Y-104909583D01*
X163800585Y-104909583D01*
X163800585Y-103328947D01*
X164300585Y-103328947D01*
X164300585Y-104409583D01*
X165381221Y-104409583D01*
X165381220Y-104409582D01*
X165324015Y-104196090D01*
X165224184Y-103982004D01*
X165088694Y-103788504D01*
X164921666Y-103621476D01*
X164728161Y-103485982D01*
X164514077Y-103386152D01*
X164300585Y-103328947D01*
X163800585Y-103328947D01*
X163800584Y-103328947D01*
X163587092Y-103386152D01*
X163373006Y-103485983D01*
X163179506Y-103621473D01*
X163012478Y-103788501D01*
X162882465Y-103974179D01*
X162838147Y-104013044D01*
X162780890Y-104027055D01*
X162723633Y-104013044D01*
X162679315Y-103974178D01*
X162549079Y-103788181D01*
X162381989Y-103621091D01*
X162381989Y-103621090D01*
X162381986Y-103621088D01*
X162188415Y-103485548D01*
X161974248Y-103385680D01*
X161913086Y-103369292D01*
X161745992Y-103324519D01*
X161510585Y-103303923D01*
X161275177Y-103324519D01*
X161046921Y-103385680D01*
X160832755Y-103485548D01*
X160639183Y-103621088D01*
X160472090Y-103788181D01*
X160342160Y-103973742D01*
X160297842Y-104012608D01*
X160240585Y-104026619D01*
X160183328Y-104012608D01*
X160139010Y-103973742D01*
X160009079Y-103788181D01*
X159841989Y-103621091D01*
X159841989Y-103621090D01*
X159841986Y-103621088D01*
X159648415Y-103485548D01*
X159434248Y-103385680D01*
X159373086Y-103369292D01*
X159205992Y-103324519D01*
X158970585Y-103303923D01*
X158735177Y-103324519D01*
X158506921Y-103385680D01*
X158292755Y-103485548D01*
X158099183Y-103621088D01*
X157932090Y-103788181D01*
X157802160Y-103973742D01*
X157757842Y-104012608D01*
X157700585Y-104026619D01*
X157643328Y-104012608D01*
X157599010Y-103973742D01*
X157469079Y-103788181D01*
X157301989Y-103621091D01*
X157301989Y-103621090D01*
X157301986Y-103621088D01*
X157108415Y-103485548D01*
X156894248Y-103385680D01*
X156833086Y-103369292D01*
X156665992Y-103324519D01*
X156430585Y-103303923D01*
X156195177Y-103324519D01*
X155966921Y-103385680D01*
X155752755Y-103485548D01*
X155559183Y-103621088D01*
X155392090Y-103788181D01*
X155262160Y-103973742D01*
X155217842Y-104012608D01*
X155160585Y-104026619D01*
X155103328Y-104012608D01*
X155059010Y-103973742D01*
X154929079Y-103788181D01*
X154761989Y-103621091D01*
X154761989Y-103621090D01*
X154761986Y-103621088D01*
X154568415Y-103485548D01*
X154354248Y-103385680D01*
X154293086Y-103369292D01*
X154125992Y-103324519D01*
X153890585Y-103303923D01*
X153655177Y-103324519D01*
X153426921Y-103385680D01*
X153212755Y-103485548D01*
X153019183Y-103621088D01*
X152852090Y-103788181D01*
X152722160Y-103973742D01*
X152677842Y-104012608D01*
X152620585Y-104026619D01*
X152563328Y-104012608D01*
X152519010Y-103973742D01*
X152389079Y-103788181D01*
X152221989Y-103621091D01*
X152221989Y-103621090D01*
X152221986Y-103621088D01*
X152028415Y-103485548D01*
X151814248Y-103385680D01*
X151753086Y-103369292D01*
X151585992Y-103324519D01*
X151350585Y-103303923D01*
X151115177Y-103324519D01*
X150886921Y-103385680D01*
X150672755Y-103485548D01*
X150479183Y-103621088D01*
X150312090Y-103788181D01*
X150182160Y-103973742D01*
X150137842Y-104012608D01*
X150080585Y-104026619D01*
X150023328Y-104012608D01*
X149979010Y-103973742D01*
X149849079Y-103788181D01*
X149681989Y-103621091D01*
X149681989Y-103621090D01*
X149681986Y-103621088D01*
X149488415Y-103485548D01*
X149274248Y-103385680D01*
X149213086Y-103369292D01*
X149045992Y-103324519D01*
X148810585Y-103303923D01*
X148575177Y-103324519D01*
X148346921Y-103385680D01*
X148132755Y-103485548D01*
X147939183Y-103621088D01*
X147772090Y-103788181D01*
X147642160Y-103973742D01*
X147597842Y-104012608D01*
X147540585Y-104026619D01*
X147483328Y-104012608D01*
X147439010Y-103973742D01*
X147309079Y-103788181D01*
X147141989Y-103621091D01*
X147141989Y-103621090D01*
X147141986Y-103621088D01*
X146948415Y-103485548D01*
X146734248Y-103385680D01*
X146673086Y-103369292D01*
X146505992Y-103324519D01*
X146270585Y-103303923D01*
X146035177Y-103324519D01*
X145806921Y-103385680D01*
X145592755Y-103485548D01*
X145399183Y-103621088D01*
X145232090Y-103788181D01*
X145102160Y-103973742D01*
X145057842Y-104012608D01*
X145000585Y-104026619D01*
X144943328Y-104012608D01*
X144899010Y-103973742D01*
X144769079Y-103788181D01*
X144601989Y-103621091D01*
X144601989Y-103621090D01*
X144601986Y-103621088D01*
X144408415Y-103485548D01*
X144194248Y-103385680D01*
X144133086Y-103369292D01*
X143965992Y-103324519D01*
X143730585Y-103303923D01*
X143495177Y-103324519D01*
X143266921Y-103385680D01*
X143052755Y-103485548D01*
X142859183Y-103621088D01*
X142692090Y-103788181D01*
X142562160Y-103973742D01*
X142517842Y-104012608D01*
X142460585Y-104026619D01*
X142403328Y-104012608D01*
X142359010Y-103973742D01*
X142229079Y-103788181D01*
X142061989Y-103621091D01*
X142061989Y-103621090D01*
X142061986Y-103621088D01*
X141868415Y-103485548D01*
X141654248Y-103385680D01*
X141593086Y-103369292D01*
X141425992Y-103324519D01*
X141190585Y-103303923D01*
X140955177Y-103324519D01*
X140726921Y-103385680D01*
X140512755Y-103485548D01*
X140319183Y-103621088D01*
X140152090Y-103788181D01*
X140022160Y-103973742D01*
X139977842Y-104012608D01*
X139920585Y-104026619D01*
X139863328Y-104012608D01*
X139819010Y-103973742D01*
X139689079Y-103788181D01*
X139521989Y-103621091D01*
X139521989Y-103621090D01*
X139521986Y-103621088D01*
X139328415Y-103485548D01*
X139114248Y-103385680D01*
X139053086Y-103369292D01*
X138885992Y-103324519D01*
X138650585Y-103303923D01*
X138415177Y-103324519D01*
X138186921Y-103385680D01*
X137972755Y-103485548D01*
X137779186Y-103621086D01*
X137657258Y-103743014D01*
X137604511Y-103774309D01*
X137543219Y-103776498D01*
X137488374Y-103749045D01*
X137453395Y-103698665D01*
X137424604Y-103621473D01*
X137404381Y-103567252D01*
X137318131Y-103452037D01*
X137202916Y-103365787D01*
X137068068Y-103315492D01*
X137008458Y-103309083D01*
X137008454Y-103309083D01*
X135212715Y-103309083D01*
X135153100Y-103315492D01*
X135018254Y-103365787D01*
X134903039Y-103452037D01*
X134816789Y-103567251D01*
X134766494Y-103702099D01*
X134760085Y-103761713D01*
X134760085Y-105557452D01*
X98830493Y-105557452D01*
X98828495Y-105554599D01*
X98661401Y-105387505D01*
X98467830Y-105251965D01*
X98253663Y-105152097D01*
X98192502Y-105135709D01*
X98025407Y-105090936D01*
X97790000Y-105070340D01*
X97554592Y-105090936D01*
X97326336Y-105152097D01*
X97112170Y-105251965D01*
X96918598Y-105387505D01*
X96751505Y-105554598D01*
X96621575Y-105740159D01*
X96577257Y-105779025D01*
X96520000Y-105793036D01*
X96462743Y-105779025D01*
X96418425Y-105740159D01*
X96332235Y-105617067D01*
X96288495Y-105554599D01*
X96121401Y-105387505D01*
X95927830Y-105251965D01*
X95713663Y-105152097D01*
X95652502Y-105135709D01*
X95485407Y-105090936D01*
X95250000Y-105070340D01*
X95014592Y-105090936D01*
X94786336Y-105152097D01*
X94572170Y-105251965D01*
X94378598Y-105387505D01*
X94211505Y-105554598D01*
X94081575Y-105740159D01*
X94037257Y-105779025D01*
X93980000Y-105793036D01*
X93922743Y-105779025D01*
X93878425Y-105740159D01*
X93792235Y-105617067D01*
X93748495Y-105554599D01*
X93581401Y-105387505D01*
X93387830Y-105251965D01*
X93173663Y-105152097D01*
X93112502Y-105135709D01*
X92945407Y-105090936D01*
X92710000Y-105070340D01*
X92474592Y-105090936D01*
X92246336Y-105152097D01*
X92032170Y-105251965D01*
X91838601Y-105387503D01*
X91716673Y-105509431D01*
X91663926Y-105540726D01*
X91602634Y-105542915D01*
X91547789Y-105515462D01*
X91512810Y-105465082D01*
X91505658Y-105445907D01*
X91463796Y-105333669D01*
X91377546Y-105218454D01*
X91262331Y-105132204D01*
X91127483Y-105081909D01*
X91067873Y-105075500D01*
X91067869Y-105075500D01*
X89272130Y-105075500D01*
X89212515Y-105081909D01*
X89077669Y-105132204D01*
X88962454Y-105218454D01*
X88876204Y-105333668D01*
X88825909Y-105468516D01*
X88819500Y-105528130D01*
X88819500Y-107323869D01*
X81026500Y-107323869D01*
X81026500Y-102869999D01*
X119744540Y-102869999D01*
X119764326Y-103058257D01*
X119822820Y-103238284D01*
X119917466Y-103402216D01*
X120044129Y-103542889D01*
X120197269Y-103654151D01*
X120370197Y-103731144D01*
X120555352Y-103770500D01*
X120555354Y-103770500D01*
X120744646Y-103770500D01*
X120744648Y-103770500D01*
X120868084Y-103744262D01*
X120929803Y-103731144D01*
X121102730Y-103654151D01*
X121102729Y-103654151D01*
X121255870Y-103542889D01*
X121260233Y-103538044D01*
X121382533Y-103402216D01*
X121477179Y-103238284D01*
X121535674Y-103058256D01*
X121555460Y-102870000D01*
X121535674Y-102681744D01*
X121477179Y-102501716D01*
X121477179Y-102501715D01*
X121382533Y-102337783D01*
X121283950Y-102228296D01*
X121260336Y-102189762D01*
X121252100Y-102145324D01*
X121252100Y-101562676D01*
X121260336Y-101518238D01*
X121283950Y-101479704D01*
X121382533Y-101370216D01*
X121477179Y-101206284D01*
X121477179Y-101206283D01*
X121535674Y-101026256D01*
X121555460Y-100838000D01*
X121535674Y-100649744D01*
X121477179Y-100469716D01*
X121477179Y-100469715D01*
X121382533Y-100305783D01*
X121255870Y-100165110D01*
X121102730Y-100053848D01*
X120929802Y-99976855D01*
X120744648Y-99937500D01*
X120744646Y-99937500D01*
X120555354Y-99937500D01*
X120555352Y-99937500D01*
X120370197Y-99976855D01*
X120197269Y-100053848D01*
X120044129Y-100165110D01*
X119917466Y-100305783D01*
X119822820Y-100469715D01*
X119764326Y-100649742D01*
X119744540Y-100838000D01*
X119764326Y-101026257D01*
X119822820Y-101206284D01*
X119917466Y-101370216D01*
X120016050Y-101479704D01*
X120039664Y-101518238D01*
X120047900Y-101562676D01*
X120047900Y-102145324D01*
X120039664Y-102189762D01*
X120016050Y-102228296D01*
X119917466Y-102337783D01*
X119822820Y-102501715D01*
X119764326Y-102681742D01*
X119744540Y-102869999D01*
X81026500Y-102869999D01*
X81026500Y-100857999D01*
X107595340Y-100857999D01*
X107615936Y-101093407D01*
X107660709Y-101260501D01*
X107677097Y-101321663D01*
X107776965Y-101535830D01*
X107912505Y-101729401D01*
X108079599Y-101896495D01*
X108273170Y-102032035D01*
X108487337Y-102131903D01*
X108715592Y-102193063D01*
X108951000Y-102213659D01*
X109186408Y-102193063D01*
X109414663Y-102131903D01*
X109628830Y-102032035D01*
X109822401Y-101896495D01*
X109989495Y-101729401D01*
X110119428Y-101543837D01*
X110163742Y-101504975D01*
X110220999Y-101490964D01*
X110278255Y-101504974D01*
X110322573Y-101543839D01*
X110452505Y-101729401D01*
X110619599Y-101896495D01*
X110813170Y-102032035D01*
X111027337Y-102131903D01*
X111255592Y-102193063D01*
X111491000Y-102213659D01*
X111726408Y-102193063D01*
X111954663Y-102131903D01*
X112168830Y-102032035D01*
X112362401Y-101896495D01*
X112484329Y-101774566D01*
X112537072Y-101743273D01*
X112598365Y-101741084D01*
X112653209Y-101768537D01*
X112688189Y-101818916D01*
X112714291Y-101888898D01*
X112737204Y-101950331D01*
X112823454Y-102065546D01*
X112938669Y-102151796D01*
X113073517Y-102202091D01*
X113133127Y-102208500D01*
X114928872Y-102208499D01*
X114988483Y-102202091D01*
X115123331Y-102151796D01*
X115238546Y-102065546D01*
X115324796Y-101950331D01*
X115375091Y-101815483D01*
X115381500Y-101755873D01*
X115381499Y-99960128D01*
X115375091Y-99900517D01*
X115324796Y-99765669D01*
X115238546Y-99650454D01*
X115123331Y-99564204D01*
X115061898Y-99541291D01*
X114991916Y-99515189D01*
X114941537Y-99480209D01*
X114914084Y-99425365D01*
X114916273Y-99364072D01*
X114947566Y-99311329D01*
X115069495Y-99189401D01*
X115205035Y-98995830D01*
X115206963Y-98991694D01*
X115252720Y-98939519D01*
X115319345Y-98920100D01*
X115543240Y-98920100D01*
X115590693Y-98929539D01*
X115630921Y-98956419D01*
X115897850Y-99223348D01*
X115927055Y-99269632D01*
X115930803Y-99301288D01*
X115933178Y-99301039D01*
X115934540Y-99313999D01*
X115934540Y-99314000D01*
X115938966Y-99356109D01*
X115954326Y-99502257D01*
X116012820Y-99682284D01*
X116107466Y-99846216D01*
X116234129Y-99986889D01*
X116387269Y-100098151D01*
X116560197Y-100175144D01*
X116745352Y-100214500D01*
X116745354Y-100214500D01*
X116934646Y-100214500D01*
X116934648Y-100214500D01*
X117058083Y-100188262D01*
X117119803Y-100175144D01*
X117292730Y-100098151D01*
X117445871Y-99986888D01*
X117572533Y-99846216D01*
X117667179Y-99682284D01*
X117725674Y-99502256D01*
X117745460Y-99314000D01*
X117725674Y-99125744D01*
X117686065Y-99003841D01*
X117667179Y-98945715D01*
X117572533Y-98781783D01*
X117445870Y-98641110D01*
X117292730Y-98529848D01*
X117119802Y-98452855D01*
X116934648Y-98413500D01*
X116934646Y-98413500D01*
X116842360Y-98413500D01*
X116794907Y-98404061D01*
X116754679Y-98377181D01*
X116488636Y-98111138D01*
X116456132Y-98053980D01*
X116457423Y-97988239D01*
X116492146Y-97932401D01*
X116550537Y-97902167D01*
X116611802Y-97889145D01*
X116784730Y-97812151D01*
X116937870Y-97700889D01*
X117064533Y-97560216D01*
X117159179Y-97396284D01*
X117161601Y-97388829D01*
X117217674Y-97216256D01*
X117237460Y-97028000D01*
X117217674Y-96839744D01*
X117159179Y-96659716D01*
X117159179Y-96659715D01*
X117064533Y-96495783D01*
X116937870Y-96355110D01*
X116784730Y-96243848D01*
X116611802Y-96166855D01*
X116426648Y-96127500D01*
X116426646Y-96127500D01*
X116237354Y-96127500D01*
X116237352Y-96127500D01*
X116052197Y-96166855D01*
X115879269Y-96243848D01*
X115726130Y-96355110D01*
X115699333Y-96384872D01*
X115657619Y-96415180D01*
X115607183Y-96425900D01*
X112828579Y-96425900D01*
X112812394Y-96424839D01*
X112809498Y-96424457D01*
X112781000Y-96420705D01*
X112752501Y-96424457D01*
X112749605Y-96424839D01*
X112749589Y-96424840D01*
X112623819Y-96441398D01*
X112520274Y-96484287D01*
X112520266Y-96484290D01*
X112520251Y-96484297D01*
X112492520Y-96495784D01*
X112477349Y-96502068D01*
X112383152Y-96574349D01*
X112351576Y-96598579D01*
X112332292Y-96623709D01*
X112321601Y-96635899D01*
X111972745Y-96984755D01*
X111917158Y-97016849D01*
X111852971Y-97016849D01*
X111808480Y-97004927D01*
X111726406Y-96982936D01*
X111491000Y-96962340D01*
X111255592Y-96982936D01*
X111027336Y-97044097D01*
X110813170Y-97143965D01*
X110619598Y-97279505D01*
X110452508Y-97446595D01*
X110452505Y-97446598D01*
X110452505Y-97446599D01*
X110417536Y-97496540D01*
X110322269Y-97632596D01*
X110277951Y-97671461D01*
X110220694Y-97685472D01*
X110163437Y-97671461D01*
X110119119Y-97632595D01*
X109989109Y-97446921D01*
X109822081Y-97279893D01*
X109628576Y-97144399D01*
X109414492Y-97044569D01*
X109201000Y-96987364D01*
X109201000Y-98444000D01*
X109184387Y-98506000D01*
X109139000Y-98551387D01*
X109077000Y-98568000D01*
X107620364Y-98568000D01*
X107677569Y-98781492D01*
X107777399Y-98995576D01*
X107912893Y-99189081D01*
X108079918Y-99356106D01*
X108265595Y-99486119D01*
X108304460Y-99530437D01*
X108318471Y-99587694D01*
X108304460Y-99644951D01*
X108265595Y-99689269D01*
X108079595Y-99819508D01*
X107912505Y-99986598D01*
X107776965Y-100180170D01*
X107677097Y-100394336D01*
X107615936Y-100622592D01*
X107595340Y-100857999D01*
X81026500Y-100857999D01*
X81026500Y-98068000D01*
X107620364Y-98068000D01*
X108701000Y-98068000D01*
X108701000Y-96987364D01*
X108700999Y-96987364D01*
X108487507Y-97044569D01*
X108273421Y-97144400D01*
X108079921Y-97279890D01*
X107912890Y-97446921D01*
X107777400Y-97640421D01*
X107677569Y-97854507D01*
X107620364Y-98067999D01*
X107620364Y-98068000D01*
X81026500Y-98068000D01*
X81026500Y-96853934D01*
X85407668Y-96853934D01*
X85423058Y-96941207D01*
X85438135Y-97026711D01*
X85473752Y-97109281D01*
X85507623Y-97187804D01*
X85612390Y-97328530D01*
X85746783Y-97441300D01*
X85746784Y-97441300D01*
X85746786Y-97441302D01*
X85903567Y-97520040D01*
X85903568Y-97520040D01*
X85903570Y-97520041D01*
X86074277Y-97560500D01*
X86074279Y-97560500D01*
X86205704Y-97560500D01*
X86205709Y-97560500D01*
X86336255Y-97545241D01*
X86501117Y-97485237D01*
X86647696Y-97388830D01*
X86768092Y-97261218D01*
X86855812Y-97109281D01*
X86906130Y-96941210D01*
X86916331Y-96766065D01*
X86885865Y-96593289D01*
X86816377Y-96432196D01*
X86711610Y-96291470D01*
X86654858Y-96243849D01*
X86577216Y-96178699D01*
X86420429Y-96099958D01*
X86249723Y-96059500D01*
X86249721Y-96059500D01*
X86118291Y-96059500D01*
X86036699Y-96069036D01*
X85987742Y-96074759D01*
X85822883Y-96134762D01*
X85676303Y-96231170D01*
X85555908Y-96358780D01*
X85468188Y-96510718D01*
X85468188Y-96510719D01*
X85417870Y-96678790D01*
X85417869Y-96678792D01*
X85417870Y-96678792D01*
X85407668Y-96853934D01*
X81026500Y-96853934D01*
X81026500Y-92453934D01*
X85407668Y-92453934D01*
X85423058Y-92541207D01*
X85438135Y-92626711D01*
X85473752Y-92709281D01*
X85507623Y-92787804D01*
X85612390Y-92928530D01*
X85746783Y-93041300D01*
X85746784Y-93041300D01*
X85746786Y-93041302D01*
X85903567Y-93120040D01*
X85903568Y-93120040D01*
X85903570Y-93120041D01*
X86074277Y-93160500D01*
X86074279Y-93160500D01*
X86205704Y-93160500D01*
X86205709Y-93160500D01*
X86336255Y-93145241D01*
X86501117Y-93085237D01*
X86647696Y-92988830D01*
X86768092Y-92861218D01*
X86855812Y-92709281D01*
X86906130Y-92541210D01*
X86916331Y-92366065D01*
X86885865Y-92193289D01*
X86816377Y-92032196D01*
X86711610Y-91891470D01*
X86647705Y-91837847D01*
X86577216Y-91778699D01*
X86420429Y-91699958D01*
X86249723Y-91659500D01*
X86249721Y-91659500D01*
X86118291Y-91659500D01*
X86047265Y-91667802D01*
X85987742Y-91674759D01*
X85822883Y-91734762D01*
X85676303Y-91831170D01*
X85555908Y-91958780D01*
X85468188Y-92110718D01*
X85468188Y-92110719D01*
X85417870Y-92278790D01*
X85417869Y-92278792D01*
X85417870Y-92278792D01*
X85407668Y-92453934D01*
X81026500Y-92453934D01*
X81026500Y-88900000D01*
X118220540Y-88900000D01*
X118240326Y-89088257D01*
X118298820Y-89268284D01*
X118393466Y-89432216D01*
X118520129Y-89572889D01*
X118673269Y-89684151D01*
X118846197Y-89761144D01*
X119031352Y-89800500D01*
X119031354Y-89800500D01*
X119220646Y-89800500D01*
X119220648Y-89800500D01*
X119405801Y-89761145D01*
X119424880Y-89752650D01*
X119492519Y-89722534D01*
X119540788Y-89711833D01*
X119589405Y-89720843D01*
X119630635Y-89748133D01*
X123567581Y-93685079D01*
X123594461Y-93725307D01*
X123603900Y-93772760D01*
X123603900Y-99847040D01*
X123590385Y-99903335D01*
X123552785Y-99947358D01*
X123499298Y-99969513D01*
X123441582Y-99964971D01*
X123392219Y-99934721D01*
X121796419Y-98338921D01*
X121769539Y-98298693D01*
X121760100Y-98251240D01*
X121760100Y-96313586D01*
X121761161Y-96297400D01*
X121765295Y-96265999D01*
X121762379Y-96243848D01*
X121744602Y-96108820D01*
X121683933Y-95962353D01*
X121611652Y-95868154D01*
X121611648Y-95868150D01*
X121606704Y-95861707D01*
X121606704Y-95861706D01*
X121606700Y-95861702D01*
X121587422Y-95836578D01*
X121562287Y-95817291D01*
X121550101Y-95806603D01*
X121338149Y-95594651D01*
X121308936Y-95548344D01*
X121305199Y-95516712D01*
X121302822Y-95516962D01*
X121301460Y-95504000D01*
X121281674Y-95315744D01*
X121223179Y-95135716D01*
X121223179Y-95135715D01*
X121128533Y-94971783D01*
X121001870Y-94831110D01*
X120848730Y-94719848D01*
X120675802Y-94642855D01*
X120490648Y-94603500D01*
X120490646Y-94603500D01*
X120301354Y-94603500D01*
X120301352Y-94603500D01*
X120116197Y-94642855D01*
X119943269Y-94719848D01*
X119790129Y-94831110D01*
X119663466Y-94971783D01*
X119568820Y-95135715D01*
X119510326Y-95315742D01*
X119490540Y-95504000D01*
X119510326Y-95692257D01*
X119568820Y-95872284D01*
X119663466Y-96036216D01*
X119790129Y-96176889D01*
X119943269Y-96288151D01*
X120116197Y-96365144D01*
X120301352Y-96404500D01*
X120301354Y-96404500D01*
X120393640Y-96404500D01*
X120441093Y-96413939D01*
X120481321Y-96440819D01*
X120519581Y-96479079D01*
X120546461Y-96519307D01*
X120555900Y-96566760D01*
X120555900Y-98504420D01*
X120554839Y-98520605D01*
X120550705Y-98552000D01*
X120554839Y-98583395D01*
X120554839Y-98583402D01*
X120555900Y-98591460D01*
X120562437Y-98641112D01*
X120571398Y-98709180D01*
X120632067Y-98855647D01*
X120704349Y-98949847D01*
X120704351Y-98949849D01*
X120704353Y-98949851D01*
X120704355Y-98949855D01*
X120728577Y-98981422D01*
X120753708Y-99000706D01*
X120765902Y-99011400D01*
X124555831Y-102801329D01*
X124580064Y-102835612D01*
X124585020Y-102853176D01*
X124586299Y-102852761D01*
X124590325Y-102865154D01*
X124590326Y-102865156D01*
X124591900Y-102869999D01*
X124648820Y-103045184D01*
X124743466Y-103209116D01*
X124870129Y-103349789D01*
X125023269Y-103461051D01*
X125196197Y-103538044D01*
X125381352Y-103577400D01*
X125381354Y-103577400D01*
X125570646Y-103577400D01*
X125570648Y-103577400D01*
X125694083Y-103551162D01*
X125755803Y-103538044D01*
X125928730Y-103461051D01*
X126081871Y-103349788D01*
X126208533Y-103209116D01*
X126303179Y-103045184D01*
X126361674Y-102865156D01*
X126381460Y-102676900D01*
X126361674Y-102488644D01*
X126332426Y-102398630D01*
X126303180Y-102308618D01*
X126303179Y-102308616D01*
X126263069Y-102239144D01*
X126246458Y-102177148D01*
X126263071Y-102115149D01*
X126303179Y-102045681D01*
X126361674Y-101865653D01*
X126381460Y-101677397D01*
X126361674Y-101489141D01*
X126307257Y-101321663D01*
X126303179Y-101309112D01*
X126208533Y-101145180D01*
X126081870Y-101004507D01*
X125928730Y-100893245D01*
X125755802Y-100816252D01*
X125570648Y-100776897D01*
X125570646Y-100776897D01*
X125478360Y-100776897D01*
X125430907Y-100767458D01*
X125390679Y-100740578D01*
X124844419Y-100194318D01*
X124817539Y-100154090D01*
X124808100Y-100106637D01*
X124808100Y-93519580D01*
X124809161Y-93503395D01*
X124813294Y-93471999D01*
X124809161Y-93440605D01*
X124809161Y-93440598D01*
X124792602Y-93314820D01*
X124731933Y-93168353D01*
X124725907Y-93160500D01*
X124659651Y-93074153D01*
X124659648Y-93074150D01*
X124635422Y-93042578D01*
X124610287Y-93023291D01*
X124598101Y-93012603D01*
X121755498Y-90170000D01*
X124824540Y-90170000D01*
X124844326Y-90358257D01*
X124902820Y-90538284D01*
X124997466Y-90702216D01*
X125124129Y-90842889D01*
X125277269Y-90954151D01*
X125450197Y-91031144D01*
X125635352Y-91070500D01*
X125635354Y-91070500D01*
X125727640Y-91070500D01*
X125775093Y-91079939D01*
X125815321Y-91106819D01*
X126181799Y-91473297D01*
X126192493Y-91485491D01*
X126211776Y-91510620D01*
X126211778Y-91510622D01*
X126236903Y-91529901D01*
X126236905Y-91529903D01*
X126243351Y-91534849D01*
X126243353Y-91534851D01*
X126324582Y-91597180D01*
X126337553Y-91607133D01*
X126484020Y-91667802D01*
X126601740Y-91683300D01*
X126601745Y-91683300D01*
X126609789Y-91684359D01*
X126609802Y-91684360D01*
X126641200Y-91688494D01*
X126672595Y-91684361D01*
X126688780Y-91683300D01*
X131792120Y-91683300D01*
X131808304Y-91684360D01*
X131839700Y-91688494D01*
X131871095Y-91684360D01*
X131871108Y-91684360D01*
X131879159Y-91683300D01*
X131879160Y-91683300D01*
X131996880Y-91667802D01*
X132143347Y-91607133D01*
X132156318Y-91597180D01*
X132237547Y-91534851D01*
X132237549Y-91534848D01*
X132269122Y-91510622D01*
X132288410Y-91485484D01*
X132299090Y-91473306D01*
X133010678Y-90761719D01*
X133050907Y-90734839D01*
X133098360Y-90725400D01*
X133190648Y-90725400D01*
X133314084Y-90699162D01*
X133375803Y-90686044D01*
X133548730Y-90609051D01*
X133701871Y-90497788D01*
X133828533Y-90357116D01*
X133923179Y-90193184D01*
X133981674Y-90013156D01*
X134001460Y-89824900D01*
X133981674Y-89636644D01*
X133936337Y-89497112D01*
X133923179Y-89456615D01*
X133828533Y-89292683D01*
X133701870Y-89152010D01*
X133548730Y-89040748D01*
X133375802Y-88963755D01*
X133190648Y-88924400D01*
X133190646Y-88924400D01*
X133001354Y-88924400D01*
X133001352Y-88924400D01*
X132816198Y-88963754D01*
X132779152Y-88980249D01*
X132715755Y-88990290D01*
X132655832Y-88967287D01*
X132532730Y-88877848D01*
X132359802Y-88800855D01*
X132174648Y-88761500D01*
X132174646Y-88761500D01*
X131985354Y-88761500D01*
X131985352Y-88761500D01*
X131800197Y-88800855D01*
X131627269Y-88877848D01*
X131474129Y-88989110D01*
X131347466Y-89129783D01*
X131252820Y-89293715D01*
X131194326Y-89473742D01*
X131173178Y-89674961D01*
X131170802Y-89674711D01*
X131167056Y-89706362D01*
X131137850Y-89752650D01*
X130850918Y-90039583D01*
X130810693Y-90066461D01*
X130763240Y-90075900D01*
X129325460Y-90075900D01*
X127808760Y-90075900D01*
X127761307Y-90066461D01*
X127721079Y-90039581D01*
X127688149Y-90006651D01*
X127658936Y-89960344D01*
X127655199Y-89928712D01*
X127652822Y-89928962D01*
X127641885Y-89824899D01*
X127631674Y-89727744D01*
X127573179Y-89547716D01*
X127573179Y-89547715D01*
X127478533Y-89383783D01*
X127351870Y-89243110D01*
X127198730Y-89131848D01*
X127025802Y-89054855D01*
X126840648Y-89015500D01*
X126840646Y-89015500D01*
X126651354Y-89015500D01*
X126651352Y-89015500D01*
X126466197Y-89054855D01*
X126293269Y-89131848D01*
X126140129Y-89243111D01*
X126117409Y-89268344D01*
X126063578Y-89303302D01*
X125999479Y-89306661D01*
X125824648Y-89269500D01*
X125824646Y-89269500D01*
X125635354Y-89269500D01*
X125635352Y-89269500D01*
X125450197Y-89308855D01*
X125277269Y-89385848D01*
X125124129Y-89497110D01*
X124997466Y-89637783D01*
X124902820Y-89801715D01*
X124844326Y-89981742D01*
X124824540Y-90170000D01*
X121755498Y-90170000D01*
X120093396Y-88507898D01*
X120082701Y-88495703D01*
X120063421Y-88470577D01*
X120031849Y-88446351D01*
X120031847Y-88446349D01*
X119937647Y-88374067D01*
X119883826Y-88351773D01*
X119846417Y-88336277D01*
X119801723Y-88304690D01*
X119773733Y-88273604D01*
X119731870Y-88227110D01*
X119578730Y-88115848D01*
X119405802Y-88038855D01*
X119220648Y-87999500D01*
X119220646Y-87999500D01*
X119031354Y-87999500D01*
X119031352Y-87999500D01*
X118846197Y-88038855D01*
X118673269Y-88115848D01*
X118520129Y-88227110D01*
X118393466Y-88367783D01*
X118298820Y-88531715D01*
X118240326Y-88711742D01*
X118220540Y-88900000D01*
X81026500Y-88900000D01*
X81026500Y-86495869D01*
X100503500Y-86495869D01*
X100509909Y-86555484D01*
X100535056Y-86622907D01*
X100560204Y-86690331D01*
X100646454Y-86805546D01*
X100761669Y-86891796D01*
X100896517Y-86942091D01*
X100956127Y-86948500D01*
X102751872Y-86948499D01*
X102811483Y-86942091D01*
X102946331Y-86891796D01*
X103061546Y-86805546D01*
X103147796Y-86690331D01*
X103196810Y-86558916D01*
X103231789Y-86508537D01*
X103286634Y-86481084D01*
X103347927Y-86483273D01*
X103400672Y-86514568D01*
X103522599Y-86636495D01*
X103716170Y-86772035D01*
X103930337Y-86871903D01*
X104158592Y-86933063D01*
X104394000Y-86953659D01*
X104629408Y-86933063D01*
X104857663Y-86871903D01*
X105071830Y-86772035D01*
X105265401Y-86636495D01*
X105432495Y-86469401D01*
X105562426Y-86283839D01*
X105606743Y-86244975D01*
X105664000Y-86230964D01*
X105721257Y-86244975D01*
X105765573Y-86283839D01*
X105895505Y-86469401D01*
X106062599Y-86636495D01*
X106256170Y-86772035D01*
X106470337Y-86871903D01*
X106698592Y-86933063D01*
X106934000Y-86953659D01*
X107169408Y-86933063D01*
X107397663Y-86871903D01*
X107611830Y-86772035D01*
X107805401Y-86636495D01*
X107972495Y-86469401D01*
X108102426Y-86283839D01*
X108146743Y-86244975D01*
X108204000Y-86230964D01*
X108261257Y-86244975D01*
X108305573Y-86283839D01*
X108435505Y-86469401D01*
X108602599Y-86636495D01*
X108796170Y-86772035D01*
X109010337Y-86871903D01*
X109238592Y-86933063D01*
X109474000Y-86953659D01*
X109709408Y-86933063D01*
X109937663Y-86871903D01*
X110151830Y-86772035D01*
X110345401Y-86636495D01*
X110512495Y-86469401D01*
X110648035Y-86275830D01*
X110747903Y-86061663D01*
X110809063Y-85833408D01*
X110829659Y-85598000D01*
X110809063Y-85362592D01*
X110747903Y-85134337D01*
X110648035Y-84920171D01*
X110512495Y-84726599D01*
X110345401Y-84559505D01*
X110151830Y-84423965D01*
X109937663Y-84324097D01*
X109876501Y-84307709D01*
X109709407Y-84262936D01*
X109473999Y-84242340D01*
X109238592Y-84262936D01*
X109010336Y-84324097D01*
X108796170Y-84423965D01*
X108602598Y-84559505D01*
X108435505Y-84726598D01*
X108305575Y-84912159D01*
X108261257Y-84951025D01*
X108204000Y-84965036D01*
X108146743Y-84951025D01*
X108102425Y-84912159D01*
X107972494Y-84726598D01*
X107805404Y-84559508D01*
X107805401Y-84559505D01*
X107611830Y-84423965D01*
X107397663Y-84324097D01*
X107336501Y-84307709D01*
X107169407Y-84262936D01*
X106933999Y-84242340D01*
X106698592Y-84262936D01*
X106470336Y-84324097D01*
X106256170Y-84423965D01*
X106062598Y-84559505D01*
X105895505Y-84726598D01*
X105765575Y-84912159D01*
X105721257Y-84951025D01*
X105664000Y-84965036D01*
X105606743Y-84951025D01*
X105562425Y-84912159D01*
X105432494Y-84726598D01*
X105265404Y-84559508D01*
X105265401Y-84559505D01*
X105071830Y-84423965D01*
X104857663Y-84324097D01*
X104796501Y-84307709D01*
X104629407Y-84262936D01*
X104393999Y-84242340D01*
X104158592Y-84262936D01*
X103930336Y-84324097D01*
X103716170Y-84423965D01*
X103522601Y-84559503D01*
X103400673Y-84681431D01*
X103347926Y-84712726D01*
X103286634Y-84714915D01*
X103231789Y-84687462D01*
X103196810Y-84637082D01*
X103183836Y-84602297D01*
X103147796Y-84505669D01*
X103061546Y-84390454D01*
X102946331Y-84304204D01*
X102811483Y-84253909D01*
X102751873Y-84247500D01*
X102751869Y-84247500D01*
X100956130Y-84247500D01*
X100896515Y-84253909D01*
X100761669Y-84304204D01*
X100646454Y-84390454D01*
X100560204Y-84505668D01*
X100509909Y-84640516D01*
X100503500Y-84700130D01*
X100503500Y-86495869D01*
X81026500Y-86495869D01*
X81026500Y-81068870D01*
X81033490Y-81027825D01*
X81053668Y-80991414D01*
X81986311Y-79825610D01*
X82016653Y-79798405D01*
X82054179Y-79782507D01*
X82080303Y-79776235D01*
X82098416Y-79773286D01*
X82238790Y-79761005D01*
X82239342Y-79760959D01*
X82285382Y-79757335D01*
X82291148Y-79756882D01*
X82300874Y-79756500D01*
X129470996Y-79756500D01*
X129531107Y-79772044D01*
G37*
%TD.AperFunction*%
%TD*%
M02*
