%TF.GenerationSoftware,KiCad,Pcbnew,8.0.0*%
%TF.CreationDate,2024-05-21T23:25:33-06:00*%
%TF.ProjectId,2024_Discovery_DDS_Shield,32303234-5f44-4697-9363-6f766572795f,rev?*%
%TF.SameCoordinates,Original*%
%TF.FileFunction,Soldermask,Bot*%
%TF.FilePolarity,Negative*%
%FSLAX46Y46*%
G04 Gerber Fmt 4.6, Leading zero omitted, Abs format (unit mm)*
G04 Created by KiCad (PCBNEW 8.0.0) date 2024-05-21 23:25:33*
%MOMM*%
%LPD*%
G01*
G04 APERTURE LIST*
G04 Aperture macros list*
%AMRoundRect*
0 Rectangle with rounded corners*
0 $1 Rounding radius*
0 $2 $3 $4 $5 $6 $7 $8 $9 X,Y pos of 4 corners*
0 Add a 4 corners polygon primitive as box body*
4,1,4,$2,$3,$4,$5,$6,$7,$8,$9,$2,$3,0*
0 Add four circle primitives for the rounded corners*
1,1,$1+$1,$2,$3*
1,1,$1+$1,$4,$5*
1,1,$1+$1,$6,$7*
1,1,$1+$1,$8,$9*
0 Add four rect primitives between the rounded corners*
20,1,$1+$1,$2,$3,$4,$5,0*
20,1,$1+$1,$4,$5,$6,$7,0*
20,1,$1+$1,$6,$7,$8,$9,0*
20,1,$1+$1,$8,$9,$2,$3,0*%
G04 Aperture macros list end*
%ADD10O,1.004000X1.804000*%
%ADD11O,1.704000X0.954000*%
%ADD12C,2.000000*%
%ADD13RoundRect,0.102000X0.699000X0.699000X-0.699000X0.699000X-0.699000X-0.699000X0.699000X-0.699000X0*%
%ADD14C,1.602000*%
%ADD15C,3.219000*%
%ADD16R,1.800000X1.800000*%
%ADD17C,1.800000*%
%ADD18RoundRect,0.750000X0.750000X-1.250000X0.750000X1.250000X-0.750000X1.250000X-0.750000X-1.250000X0*%
%ADD19R,1.700000X1.700000*%
%ADD20O,1.700000X1.700000*%
%ADD21C,1.440000*%
G04 APERTURE END LIST*
D10*
%TO.C,J2*%
X87430800Y-85042400D03*
X87430800Y-90042400D03*
D11*
X84730800Y-84017400D03*
X84730800Y-91067400D03*
%TD*%
D12*
%TO.C,SW3*%
X120904000Y-114122200D03*
X114404000Y-114122200D03*
X120904000Y-109622200D03*
X114404000Y-109622200D03*
%TD*%
%TO.C,SW2*%
X110363000Y-114046000D03*
X103863000Y-114046000D03*
X110363000Y-109546000D03*
X103863000Y-109546000D03*
%TD*%
D13*
%TO.C,J9*%
X169799000Y-69748400D03*
D14*
X169799000Y-67208400D03*
D15*
X174879000Y-64668400D03*
X174879000Y-74828400D03*
%TD*%
D16*
%TO.C,RV7*%
X168746800Y-95813600D03*
D17*
X171246800Y-95813600D03*
X173746800Y-95813600D03*
D18*
X166846800Y-88813600D03*
X175646800Y-88813600D03*
%TD*%
D19*
%TO.C,J3*%
X88773000Y-95427800D03*
D20*
X91313000Y-95427800D03*
X93853000Y-95427800D03*
%TD*%
D16*
%TO.C,RV8*%
X168645200Y-113949200D03*
D17*
X171145200Y-113949200D03*
X173645200Y-113949200D03*
D18*
X166745200Y-106949200D03*
X175545200Y-106949200D03*
%TD*%
D19*
%TO.C,J4*%
X160426400Y-104470200D03*
D20*
X160426400Y-107010200D03*
X160426400Y-109550200D03*
%TD*%
D12*
%TO.C,SW4*%
X131673600Y-114223800D03*
X125173600Y-114223800D03*
X131673600Y-109723800D03*
X125173600Y-109723800D03*
%TD*%
D19*
%TO.C,J1*%
X136819800Y-84389600D03*
D20*
X139359800Y-84389600D03*
X141899800Y-84389600D03*
%TD*%
D19*
%TO.C,J5*%
X93594902Y-43644400D03*
D20*
X96134902Y-43644400D03*
X98674902Y-43644400D03*
X101214902Y-43644400D03*
X103754902Y-43644400D03*
X106294902Y-43644400D03*
X108834902Y-43644400D03*
X111374902Y-43644400D03*
X113914902Y-43644400D03*
X116454902Y-43644400D03*
X118994902Y-43644400D03*
X121534902Y-43644400D03*
X124074902Y-43644400D03*
X126614902Y-43644400D03*
X129154902Y-43644400D03*
X131694902Y-43644400D03*
%TD*%
D19*
%TO.C,J6*%
X156083000Y-37236400D03*
D20*
X158623000Y-37236400D03*
X161163000Y-37236400D03*
%TD*%
D12*
%TO.C,SW6*%
X99593400Y-114046000D03*
X93093400Y-114046000D03*
X99593400Y-109546000D03*
X93093400Y-109546000D03*
%TD*%
D21*
%TO.C,RV2*%
X128905000Y-37160200D03*
X126365000Y-37160200D03*
X123825000Y-37160200D03*
%TD*%
%TO.C,RV1*%
X101244400Y-37134800D03*
X98704400Y-37134800D03*
X96164400Y-37134800D03*
%TD*%
D12*
%TO.C,SW5*%
X142367000Y-114300000D03*
X135867000Y-114300000D03*
X142367000Y-109800000D03*
X135867000Y-109800000D03*
%TD*%
D21*
%TO.C,RV6*%
X124780800Y-83296000D03*
X127320800Y-83296000D03*
X129860800Y-83296000D03*
%TD*%
D19*
%TO.C,J7*%
X147950600Y-50787200D03*
D20*
X147950600Y-53327200D03*
X145410600Y-50787200D03*
X145410600Y-53327200D03*
X142870600Y-50787200D03*
X142870600Y-53327200D03*
X140330600Y-50787200D03*
X140330600Y-53327200D03*
X137790600Y-50787200D03*
X137790600Y-53327200D03*
X135250600Y-50787200D03*
X135250600Y-53327200D03*
X132710600Y-50787200D03*
X132710600Y-53327200D03*
X130170600Y-50787200D03*
X130170600Y-53327200D03*
X127630600Y-50787200D03*
X127630600Y-53327200D03*
X125090600Y-50787200D03*
X125090600Y-53327200D03*
X122550600Y-50787200D03*
X122550600Y-53327200D03*
X120010600Y-50787200D03*
X120010600Y-53327200D03*
X117470600Y-50787200D03*
X117470600Y-53327200D03*
X114930600Y-50787200D03*
X114930600Y-53327200D03*
X112390600Y-50787200D03*
X112390600Y-53327200D03*
X109850600Y-50787200D03*
X109850600Y-53327200D03*
X107310600Y-50787200D03*
X107310600Y-53327200D03*
X104770600Y-50787200D03*
X104770600Y-53327200D03*
X102230600Y-50787200D03*
X102230600Y-53327200D03*
X99690600Y-50787200D03*
X99690600Y-53327200D03*
X97150600Y-50787200D03*
X97150600Y-53327200D03*
X94610600Y-50787200D03*
X94610600Y-53327200D03*
X92070600Y-50787200D03*
X92070600Y-53327200D03*
X89530600Y-50787200D03*
X89530600Y-53327200D03*
X86990600Y-50787200D03*
X86990600Y-53327200D03*
%TD*%
D19*
%TO.C,J8*%
X147925200Y-101587200D03*
D20*
X147925200Y-104127200D03*
X145385200Y-101587200D03*
X145385200Y-104127200D03*
X142845200Y-101587200D03*
X142845200Y-104127200D03*
X140305200Y-101587200D03*
X140305200Y-104127200D03*
X137765200Y-101587200D03*
X137765200Y-104127200D03*
X135225200Y-101587200D03*
X135225200Y-104127200D03*
X132685200Y-101587200D03*
X132685200Y-104127200D03*
X130145200Y-101587200D03*
X130145200Y-104127200D03*
X127605200Y-101587200D03*
X127605200Y-104127200D03*
X125065200Y-101587200D03*
X125065200Y-104127200D03*
X122525200Y-101587200D03*
X122525200Y-104127200D03*
X119985200Y-101587200D03*
X119985200Y-104127200D03*
X117445200Y-101587200D03*
X117445200Y-104127200D03*
X114905200Y-101587200D03*
X114905200Y-104127200D03*
X112365200Y-101587200D03*
X112365200Y-104127200D03*
X109825200Y-101587200D03*
X109825200Y-104127200D03*
X107285200Y-101587200D03*
X107285200Y-104127200D03*
X104745200Y-101587200D03*
X104745200Y-104127200D03*
X102205200Y-101587200D03*
X102205200Y-104127200D03*
X99665200Y-101587200D03*
X99665200Y-104127200D03*
X97125200Y-101587200D03*
X97125200Y-104127200D03*
X94585200Y-101587200D03*
X94585200Y-104127200D03*
X92045200Y-101587200D03*
X92045200Y-104127200D03*
X89505200Y-101587200D03*
X89505200Y-104127200D03*
X86965200Y-101587200D03*
X86965200Y-104127200D03*
%TD*%
M02*
