%TF.GenerationSoftware,KiCad,Pcbnew,8.0.0*%
%TF.CreationDate,2024-05-30T16:12:21-06:00*%
%TF.ProjectId,2024_Discovery_DDS_Shield,32303234-5f44-4697-9363-6f766572795f,rev?*%
%TF.SameCoordinates,Original*%
%TF.FileFunction,Legend,Bot*%
%TF.FilePolarity,Positive*%
%FSLAX46Y46*%
G04 Gerber Fmt 4.6, Leading zero omitted, Abs format (unit mm)*
G04 Created by KiCad (PCBNEW 8.0.0) date 2024-05-30 16:12:21*
%MOMM*%
%LPD*%
G01*
G04 APERTURE LIST*
%ADD10C,0.150000*%
%ADD11C,0.120000*%
G04 APERTURE END LIST*
D10*
X150175419Y-51723866D02*
X150889704Y-51723866D01*
X150889704Y-51723866D02*
X151032561Y-51676247D01*
X151032561Y-51676247D02*
X151127800Y-51581009D01*
X151127800Y-51581009D02*
X151175419Y-51438152D01*
X151175419Y-51438152D02*
X151175419Y-51342914D01*
X150175419Y-52104819D02*
X150175419Y-52771485D01*
X150175419Y-52771485D02*
X151175419Y-52342914D01*
X150150019Y-102523866D02*
X150864304Y-102523866D01*
X150864304Y-102523866D02*
X151007161Y-102476247D01*
X151007161Y-102476247D02*
X151102400Y-102381009D01*
X151102400Y-102381009D02*
X151150019Y-102238152D01*
X151150019Y-102238152D02*
X151150019Y-102142914D01*
X150578590Y-103142914D02*
X150530971Y-103047676D01*
X150530971Y-103047676D02*
X150483352Y-103000057D01*
X150483352Y-103000057D02*
X150388114Y-102952438D01*
X150388114Y-102952438D02*
X150340495Y-102952438D01*
X150340495Y-102952438D02*
X150245257Y-103000057D01*
X150245257Y-103000057D02*
X150197638Y-103047676D01*
X150197638Y-103047676D02*
X150150019Y-103142914D01*
X150150019Y-103142914D02*
X150150019Y-103333390D01*
X150150019Y-103333390D02*
X150197638Y-103428628D01*
X150197638Y-103428628D02*
X150245257Y-103476247D01*
X150245257Y-103476247D02*
X150340495Y-103523866D01*
X150340495Y-103523866D02*
X150388114Y-103523866D01*
X150388114Y-103523866D02*
X150483352Y-103476247D01*
X150483352Y-103476247D02*
X150530971Y-103428628D01*
X150530971Y-103428628D02*
X150578590Y-103333390D01*
X150578590Y-103333390D02*
X150578590Y-103142914D01*
X150578590Y-103142914D02*
X150626209Y-103047676D01*
X150626209Y-103047676D02*
X150673828Y-103000057D01*
X150673828Y-103000057D02*
X150769066Y-102952438D01*
X150769066Y-102952438D02*
X150959542Y-102952438D01*
X150959542Y-102952438D02*
X151054780Y-103000057D01*
X151054780Y-103000057D02*
X151102400Y-103047676D01*
X151102400Y-103047676D02*
X151150019Y-103142914D01*
X151150019Y-103142914D02*
X151150019Y-103333390D01*
X151150019Y-103333390D02*
X151102400Y-103428628D01*
X151102400Y-103428628D02*
X151054780Y-103476247D01*
X151054780Y-103476247D02*
X150959542Y-103523866D01*
X150959542Y-103523866D02*
X150769066Y-103523866D01*
X150769066Y-103523866D02*
X150673828Y-103476247D01*
X150673828Y-103476247D02*
X150626209Y-103428628D01*
X150626209Y-103428628D02*
X150578590Y-103333390D01*
D11*
%TO.C,J7*%
X85660600Y-49457200D02*
X85660600Y-54657200D01*
X85660600Y-49457200D02*
X146680600Y-49457200D01*
X85660600Y-54657200D02*
X149280600Y-54657200D01*
X146680600Y-49457200D02*
X146680600Y-52057200D01*
X146680600Y-52057200D02*
X149280600Y-52057200D01*
X147950600Y-49457200D02*
X149280600Y-49457200D01*
X149280600Y-49457200D02*
X149280600Y-50787200D01*
X149280600Y-52057200D02*
X149280600Y-54657200D01*
%TO.C,J8*%
X85635200Y-100257200D02*
X85635200Y-105457200D01*
X85635200Y-100257200D02*
X146655200Y-100257200D01*
X85635200Y-105457200D02*
X149255200Y-105457200D01*
X146655200Y-100257200D02*
X146655200Y-102857200D01*
X146655200Y-102857200D02*
X149255200Y-102857200D01*
X147925200Y-100257200D02*
X149255200Y-100257200D01*
X149255200Y-100257200D02*
X149255200Y-101587200D01*
X149255200Y-102857200D02*
X149255200Y-105457200D01*
%TD*%
M02*
