M48
; DRILL file {KiCad 8.0.0} date 2024-05-30T16:12:19-0600
; FORMAT={-:-/ absolute / inch / decimal}
; #@! TF.CreationDate,2024-05-30T16:12:19-06:00
; #@! TF.GenerationSoftware,Kicad,Pcbnew,8.0.0
; #@! TF.FileFunction,Plated,1,2,PTH
FMAT,2
INCH
; #@! TA.AperFunction,Plated,PTH,ViaDrill
T1C0.0118
; #@! TA.AperFunction,Plated,PTH,ComponentDrill
T2C0.0217
; #@! TA.AperFunction,Plated,PTH,ComponentDrill
T3C0.0236
; #@! TA.AperFunction,Plated,PTH,ComponentDrill
T4C0.0315
; #@! TA.AperFunction,Plated,PTH,ComponentDrill
T5C0.0350
; #@! TA.AperFunction,Plated,PTH,ComponentDrill
T6C0.0394
; #@! TA.AperFunction,Plated,PTH,ComponentDrill
T7C0.0433
; #@! TA.AperFunction,Plated,PTH,ComponentDrill
T8C0.0709
; #@! TA.AperFunction,Plated,PTH,ComponentDrill
T9C0.0791
%
G90
G05
T1
X3.398Y-3.498
X3.773Y-2.912
X3.8785Y-3.3645
X3.88Y-3.081
X3.9025Y-3.4925
X3.924Y-3.594
X3.942Y-3.081
X3.984Y-3.593
X4.028Y-3.143
X4.045Y-3.906
X4.074Y-3.232
X4.108Y-3.906
X4.943Y-2.787
X4.944Y-2.913
X5.006Y-3.441
X5.014Y-2.948
X5.25Y-3.071
X5.401Y-3.136
X5.418Y-2.57
X5.418Y-2.628
X5.499Y-2.674
X5.526Y-3.097
X5.672Y-3.455
X5.675Y-3.307
X5.717Y-3.417
X5.982Y-3.371
X6.02Y-3.187
X6.095Y-3.831
X6.097Y-3.753
X6.147Y-2.758
X6.148Y-2.862
X6.153Y-3.832
X6.154Y-3.753
X6.305Y-3.41
T4
X3.786Y-1.462
X3.886Y-1.462
X3.986Y-1.462
X4.875Y-1.463
X4.9126Y-3.2794
X4.975Y-1.463
X5.0126Y-3.2794
X5.075Y-1.463
X5.1126Y-3.2794
T5
X6.685Y-2.646
X6.685Y-2.746
T6
X3.4238Y-3.9995
X3.4238Y-4.0995
X3.4248Y-1.9995
X3.4248Y-2.0995
X3.5238Y-3.9995
X3.5238Y-4.0995
X3.5248Y-1.9995
X3.5248Y-2.0995
X3.6238Y-3.9995
X3.6238Y-4.0995
X3.6248Y-1.9995
X3.6248Y-2.0995
X3.6848Y-1.7183
X3.7238Y-3.9995
X3.7238Y-4.0995
X3.7248Y-1.9995
X3.7248Y-2.0995
X3.7848Y-1.7183
X3.8238Y-3.9995
X3.8238Y-4.0995
X3.8248Y-1.9995
X3.8248Y-2.0995
X3.8848Y-1.7183
X3.9238Y-3.9995
X3.9238Y-4.0995
X3.9248Y-1.9995
X3.9248Y-2.0995
X3.9848Y-1.7183
X4.0238Y-3.9995
X4.0238Y-4.0995
X4.0248Y-1.9995
X4.0248Y-2.0995
X4.0848Y-1.7183
X4.1238Y-3.9995
X4.1238Y-4.0995
X4.1248Y-1.9995
X4.1248Y-2.0995
X4.1848Y-1.7183
X4.2238Y-3.9995
X4.2238Y-4.0995
X4.2248Y-1.9995
X4.2248Y-2.0995
X4.2848Y-1.7183
X4.3238Y-3.9995
X4.3238Y-4.0995
X4.3248Y-1.9995
X4.3248Y-2.0995
X4.3848Y-1.7183
X4.4238Y-3.9995
X4.4238Y-4.0995
X4.4248Y-1.9995
X4.4248Y-2.0995
X4.4848Y-1.7183
X4.5238Y-3.9995
X4.5238Y-4.0995
X4.5248Y-1.9995
X4.5248Y-2.0995
X4.5848Y-1.7183
X4.6238Y-3.9995
X4.6238Y-4.0995
X4.6248Y-1.9995
X4.6248Y-2.0995
X4.6848Y-1.7183
X4.7238Y-3.9995
X4.7238Y-4.0995
X4.7248Y-1.9995
X4.7248Y-2.0995
X4.7848Y-1.7183
X4.8238Y-3.9995
X4.8238Y-4.0995
X4.8248Y-1.9995
X4.8248Y-2.0995
X4.8848Y-1.7183
X4.9238Y-3.9995
X4.9238Y-4.0995
X4.9248Y-1.9995
X4.9248Y-2.0995
X4.9848Y-1.7183
X5.0238Y-3.9995
X5.0238Y-4.0995
X5.0248Y-1.9995
X5.0248Y-2.0995
X5.0848Y-1.7183
X5.1238Y-3.9995
X5.1238Y-4.0995
X5.1248Y-1.9995
X5.1248Y-2.0995
X5.1848Y-1.7183
X5.2238Y-3.9995
X5.2238Y-4.0995
X5.2248Y-1.9995
X5.2248Y-2.0995
X5.3238Y-3.9995
X5.3238Y-4.0995
X5.3248Y-1.9995
X5.3248Y-2.0995
X5.3866Y-3.3224
X5.4238Y-3.9995
X5.4238Y-4.0995
X5.4248Y-1.9995
X5.4248Y-2.0995
X5.4866Y-3.3224
X5.5238Y-3.9995
X5.5238Y-4.0995
X5.5248Y-1.9995
X5.5248Y-2.0995
X5.5866Y-3.3224
X5.6238Y-3.9995
X5.6238Y-4.0995
X5.6248Y-1.9995
X5.6248Y-2.0995
X5.7238Y-3.9995
X5.7238Y-4.0995
X5.7248Y-1.9995
X5.7248Y-2.0995
X5.8238Y-3.9995
X5.8238Y-4.0995
X5.8248Y-1.9995
X5.8248Y-2.0995
X6.145Y-1.466
X6.245Y-1.466
X6.316Y-4.113
X6.316Y-4.213
X6.316Y-4.313
X6.345Y-1.466
X6.6396Y-4.4862
X6.6436Y-3.7722
X6.738Y-4.4862
X6.742Y-3.7722
X6.8364Y-4.4862
X6.8404Y-3.7722
T7
X3.6651Y-4.3128
X3.6651Y-4.49
X3.921Y-4.3128
X3.921Y-4.49
X4.0891Y-4.3128
X4.0891Y-4.49
X4.345Y-4.3128
X4.345Y-4.49
X4.5041Y-4.3158
X4.5041Y-4.493
X4.76Y-4.3158
X4.76Y-4.493
X4.9281Y-4.3198
X4.9281Y-4.497
X5.184Y-4.3198
X5.184Y-4.497
X5.3491Y-4.3228
X5.3491Y-4.5
X5.605Y-4.3228
X5.605Y-4.5
T9
X6.885Y-2.546
X6.885Y-2.946
T2
G00X3.3487Y-3.3078
M15
G01X3.3231Y-3.3078
M16
G05
G00X3.3487Y-3.5853
M15
G01X3.3231Y-3.5853
M16
G05
T3
G00X3.4422Y-3.3422
M15
G01X3.4422Y-3.354
M16
G05
G00X3.4422Y-3.5391
M15
G01X3.4422Y-3.5509
M16
G05
T8
G00X6.5648Y-4.2165
M15
G01X6.5648Y-4.2047
M16
G05
G00X6.5688Y-3.5025
M15
G01X6.5688Y-3.4907
M16
G05
G00X6.9112Y-4.2165
M15
G01X6.9112Y-4.2047
M16
G05
G00X6.9152Y-3.5025
M15
G01X6.9152Y-3.4907
M16
G05
M30
