%TF.GenerationSoftware,KiCad,Pcbnew,8.0.0*%
%TF.CreationDate,2024-05-21T23:25:33-06:00*%
%TF.ProjectId,2024_Discovery_DDS_Shield,32303234-5f44-4697-9363-6f766572795f,rev?*%
%TF.SameCoordinates,Original*%
%TF.FileFunction,Paste,Top*%
%TF.FilePolarity,Positive*%
%FSLAX46Y46*%
G04 Gerber Fmt 4.6, Leading zero omitted, Abs format (unit mm)*
G04 Created by KiCad (PCBNEW 8.0.0) date 2024-05-21 23:25:33*
%MOMM*%
%LPD*%
G01*
G04 APERTURE LIST*
G04 Aperture macros list*
%AMRoundRect*
0 Rectangle with rounded corners*
0 $1 Rounding radius*
0 $2 $3 $4 $5 $6 $7 $8 $9 X,Y pos of 4 corners*
0 Add a 4 corners polygon primitive as box body*
4,1,4,$2,$3,$4,$5,$6,$7,$8,$9,$2,$3,0*
0 Add four circle primitives for the rounded corners*
1,1,$1+$1,$2,$3*
1,1,$1+$1,$4,$5*
1,1,$1+$1,$6,$7*
1,1,$1+$1,$8,$9*
0 Add four rect primitives between the rounded corners*
20,1,$1+$1,$2,$3,$4,$5,0*
20,1,$1+$1,$4,$5,$6,$7,0*
20,1,$1+$1,$6,$7,$8,$9,0*
20,1,$1+$1,$8,$9,$2,$3,0*%
G04 Aperture macros list end*
%ADD10C,0.010000*%
%ADD11RoundRect,0.250000X-0.337500X-0.475000X0.337500X-0.475000X0.337500X0.475000X-0.337500X0.475000X0*%
%ADD12RoundRect,0.250000X0.350000X0.450000X-0.350000X0.450000X-0.350000X-0.450000X0.350000X-0.450000X0*%
%ADD13R,1.350000X0.400000*%
%ADD14R,1.550000X1.500000*%
%ADD15RoundRect,0.250000X0.337500X0.475000X-0.337500X0.475000X-0.337500X-0.475000X0.337500X-0.475000X0*%
%ADD16RoundRect,0.250000X-0.350000X-0.450000X0.350000X-0.450000X0.350000X0.450000X-0.350000X0.450000X0*%
%ADD17RoundRect,0.250000X0.450000X-0.350000X0.450000X0.350000X-0.450000X0.350000X-0.450000X-0.350000X0*%
%ADD18RoundRect,0.150000X-0.825000X-0.150000X0.825000X-0.150000X0.825000X0.150000X-0.825000X0.150000X0*%
%ADD19RoundRect,0.250000X0.475000X-0.337500X0.475000X0.337500X-0.475000X0.337500X-0.475000X-0.337500X0*%
%ADD20RoundRect,0.250000X-0.450000X0.350000X-0.450000X-0.350000X0.450000X-0.350000X0.450000X0.350000X0*%
%ADD21RoundRect,0.250000X-0.325000X-0.450000X0.325000X-0.450000X0.325000X0.450000X-0.325000X0.450000X0*%
%ADD22R,0.400000X1.200000*%
%ADD23RoundRect,0.250000X0.325000X0.450000X-0.325000X0.450000X-0.325000X-0.450000X0.325000X-0.450000X0*%
%ADD24RoundRect,0.250000X-0.475000X0.337500X-0.475000X-0.337500X0.475000X-0.337500X0.475000X0.337500X0*%
G04 APERTURE END LIST*
D10*
%TO.C,J2*%
X85031800Y-83598400D02*
X85057800Y-83600400D01*
X85083800Y-83603400D01*
X85109800Y-83608400D01*
X85134800Y-83614400D01*
X85160800Y-83621400D01*
X85184800Y-83630400D01*
X85208800Y-83640400D01*
X85232800Y-83651400D01*
X85255800Y-83664400D01*
X85277800Y-83678400D01*
X85299800Y-83692400D01*
X85320800Y-83708400D01*
X85340800Y-83725400D01*
X85359800Y-83743400D01*
X85377800Y-83762400D01*
X85394800Y-83782400D01*
X85410800Y-83803400D01*
X85424800Y-83825400D01*
X85438800Y-83847400D01*
X85451800Y-83870400D01*
X85462800Y-83894400D01*
X85472800Y-83918400D01*
X85481800Y-83942400D01*
X85488800Y-83968400D01*
X85494800Y-83993400D01*
X85499800Y-84019400D01*
X85502800Y-84045400D01*
X85504800Y-84071400D01*
X85505800Y-84097400D01*
X85505800Y-85242400D01*
X83955800Y-85242400D01*
X83955800Y-84097400D01*
X83956800Y-84071400D01*
X83958800Y-84045400D01*
X83961800Y-84019400D01*
X83966800Y-83993400D01*
X83972800Y-83968400D01*
X83979800Y-83942400D01*
X83988800Y-83918400D01*
X83998800Y-83894400D01*
X84009800Y-83870400D01*
X84022800Y-83847400D01*
X84036800Y-83825400D01*
X84050800Y-83803400D01*
X84066800Y-83782400D01*
X84083800Y-83762400D01*
X84101800Y-83743400D01*
X84120800Y-83725400D01*
X84140800Y-83708400D01*
X84161800Y-83692400D01*
X84183800Y-83678400D01*
X84205800Y-83664400D01*
X84228800Y-83651400D01*
X84252800Y-83640400D01*
X84276800Y-83630400D01*
X84300800Y-83621400D01*
X84326800Y-83614400D01*
X84351800Y-83608400D01*
X84377800Y-83603400D01*
X84403800Y-83600400D01*
X84429800Y-83598400D01*
X84455800Y-83597400D01*
X85005800Y-83597400D01*
X85031800Y-83598400D01*
G36*
X85031800Y-83598400D02*
G01*
X85057800Y-83600400D01*
X85083800Y-83603400D01*
X85109800Y-83608400D01*
X85134800Y-83614400D01*
X85160800Y-83621400D01*
X85184800Y-83630400D01*
X85208800Y-83640400D01*
X85232800Y-83651400D01*
X85255800Y-83664400D01*
X85277800Y-83678400D01*
X85299800Y-83692400D01*
X85320800Y-83708400D01*
X85340800Y-83725400D01*
X85359800Y-83743400D01*
X85377800Y-83762400D01*
X85394800Y-83782400D01*
X85410800Y-83803400D01*
X85424800Y-83825400D01*
X85438800Y-83847400D01*
X85451800Y-83870400D01*
X85462800Y-83894400D01*
X85472800Y-83918400D01*
X85481800Y-83942400D01*
X85488800Y-83968400D01*
X85494800Y-83993400D01*
X85499800Y-84019400D01*
X85502800Y-84045400D01*
X85504800Y-84071400D01*
X85505800Y-84097400D01*
X85505800Y-85242400D01*
X83955800Y-85242400D01*
X83955800Y-84097400D01*
X83956800Y-84071400D01*
X83958800Y-84045400D01*
X83961800Y-84019400D01*
X83966800Y-83993400D01*
X83972800Y-83968400D01*
X83979800Y-83942400D01*
X83988800Y-83918400D01*
X83998800Y-83894400D01*
X84009800Y-83870400D01*
X84022800Y-83847400D01*
X84036800Y-83825400D01*
X84050800Y-83803400D01*
X84066800Y-83782400D01*
X84083800Y-83762400D01*
X84101800Y-83743400D01*
X84120800Y-83725400D01*
X84140800Y-83708400D01*
X84161800Y-83692400D01*
X84183800Y-83678400D01*
X84205800Y-83664400D01*
X84228800Y-83651400D01*
X84252800Y-83640400D01*
X84276800Y-83630400D01*
X84300800Y-83621400D01*
X84326800Y-83614400D01*
X84351800Y-83608400D01*
X84377800Y-83603400D01*
X84403800Y-83600400D01*
X84429800Y-83598400D01*
X84455800Y-83597400D01*
X85005800Y-83597400D01*
X85031800Y-83598400D01*
G37*
X85505800Y-90987400D02*
X85504800Y-91013400D01*
X85502800Y-91039400D01*
X85499800Y-91065400D01*
X85494800Y-91091400D01*
X85488800Y-91116400D01*
X85481800Y-91142400D01*
X85472800Y-91166400D01*
X85462800Y-91190400D01*
X85451800Y-91214400D01*
X85438800Y-91237400D01*
X85424800Y-91259400D01*
X85410800Y-91281400D01*
X85394800Y-91302400D01*
X85377800Y-91322400D01*
X85359800Y-91341400D01*
X85340800Y-91359400D01*
X85320800Y-91376400D01*
X85299800Y-91392400D01*
X85277800Y-91406400D01*
X85255800Y-91420400D01*
X85232800Y-91433400D01*
X85208800Y-91444400D01*
X85184800Y-91454400D01*
X85160800Y-91463400D01*
X85134800Y-91470400D01*
X85109800Y-91476400D01*
X85083800Y-91481400D01*
X85057800Y-91484400D01*
X85031800Y-91486400D01*
X85005800Y-91487400D01*
X84455800Y-91487400D01*
X84429800Y-91486400D01*
X84403800Y-91484400D01*
X84377800Y-91481400D01*
X84351800Y-91476400D01*
X84326800Y-91470400D01*
X84300800Y-91463400D01*
X84276800Y-91454400D01*
X84252800Y-91444400D01*
X84228800Y-91433400D01*
X84205800Y-91420400D01*
X84183800Y-91406400D01*
X84161800Y-91392400D01*
X84140800Y-91376400D01*
X84120800Y-91359400D01*
X84101800Y-91341400D01*
X84083800Y-91322400D01*
X84066800Y-91302400D01*
X84050800Y-91281400D01*
X84036800Y-91259400D01*
X84022800Y-91237400D01*
X84009800Y-91214400D01*
X83998800Y-91190400D01*
X83988800Y-91166400D01*
X83979800Y-91142400D01*
X83972800Y-91116400D01*
X83966800Y-91091400D01*
X83961800Y-91065400D01*
X83958800Y-91039400D01*
X83956800Y-91013400D01*
X83955800Y-90987400D01*
X83955800Y-89842400D01*
X85505800Y-89842400D01*
X85505800Y-90987400D01*
G36*
X85505800Y-90987400D02*
G01*
X85504800Y-91013400D01*
X85502800Y-91039400D01*
X85499800Y-91065400D01*
X85494800Y-91091400D01*
X85488800Y-91116400D01*
X85481800Y-91142400D01*
X85472800Y-91166400D01*
X85462800Y-91190400D01*
X85451800Y-91214400D01*
X85438800Y-91237400D01*
X85424800Y-91259400D01*
X85410800Y-91281400D01*
X85394800Y-91302400D01*
X85377800Y-91322400D01*
X85359800Y-91341400D01*
X85340800Y-91359400D01*
X85320800Y-91376400D01*
X85299800Y-91392400D01*
X85277800Y-91406400D01*
X85255800Y-91420400D01*
X85232800Y-91433400D01*
X85208800Y-91444400D01*
X85184800Y-91454400D01*
X85160800Y-91463400D01*
X85134800Y-91470400D01*
X85109800Y-91476400D01*
X85083800Y-91481400D01*
X85057800Y-91484400D01*
X85031800Y-91486400D01*
X85005800Y-91487400D01*
X84455800Y-91487400D01*
X84429800Y-91486400D01*
X84403800Y-91484400D01*
X84377800Y-91481400D01*
X84351800Y-91476400D01*
X84326800Y-91470400D01*
X84300800Y-91463400D01*
X84276800Y-91454400D01*
X84252800Y-91444400D01*
X84228800Y-91433400D01*
X84205800Y-91420400D01*
X84183800Y-91406400D01*
X84161800Y-91392400D01*
X84140800Y-91376400D01*
X84120800Y-91359400D01*
X84101800Y-91341400D01*
X84083800Y-91322400D01*
X84066800Y-91302400D01*
X84050800Y-91281400D01*
X84036800Y-91259400D01*
X84022800Y-91237400D01*
X84009800Y-91214400D01*
X83998800Y-91190400D01*
X83988800Y-91166400D01*
X83979800Y-91142400D01*
X83972800Y-91116400D01*
X83966800Y-91091400D01*
X83961800Y-91065400D01*
X83958800Y-91039400D01*
X83956800Y-91013400D01*
X83955800Y-90987400D01*
X83955800Y-89842400D01*
X85505800Y-89842400D01*
X85505800Y-90987400D01*
G37*
%TD*%
D11*
%TO.C,C6*%
X128283300Y-74853800D03*
X130358300Y-74853800D03*
%TD*%
D12*
%TO.C,R51*%
X125612400Y-72466200D03*
X123612400Y-72466200D03*
%TD*%
D13*
%TO.C,J2*%
X87405800Y-86242400D03*
X87405800Y-86892400D03*
X87405800Y-87542400D03*
X87405800Y-88192400D03*
X87405800Y-88842400D03*
D14*
X84730800Y-86542400D03*
X84730800Y-88542400D03*
%TD*%
D15*
%TO.C,C3*%
X142169300Y-71475600D03*
X140094300Y-71475600D03*
%TD*%
D16*
%TO.C,R3*%
X97568000Y-69926200D03*
X99568000Y-69926200D03*
%TD*%
D17*
%TO.C,R53*%
X142062200Y-69224400D03*
X142062200Y-67224400D03*
%TD*%
D16*
%TO.C,R7*%
X95338300Y-82245200D03*
X97338300Y-82245200D03*
%TD*%
%TO.C,R59*%
X158131000Y-81076800D03*
X160131000Y-81076800D03*
%TD*%
D17*
%TO.C,R29*%
X106594400Y-67573400D03*
X106594400Y-65573400D03*
%TD*%
D18*
%TO.C,U1*%
X132840200Y-71069200D03*
X132840200Y-72339200D03*
X132840200Y-73609200D03*
X132840200Y-74879200D03*
X137790200Y-74879200D03*
X137790200Y-73609200D03*
X137790200Y-72339200D03*
X137790200Y-71069200D03*
%TD*%
D17*
%TO.C,R48*%
X122647200Y-67446400D03*
X122647200Y-65446400D03*
%TD*%
D16*
%TO.C,R58*%
X158156400Y-85598000D03*
X160156400Y-85598000D03*
%TD*%
D15*
%TO.C,C7*%
X155901300Y-80949800D03*
X153826300Y-80949800D03*
%TD*%
D16*
%TO.C,R30*%
X109566200Y-69944400D03*
X111566200Y-69944400D03*
%TD*%
D17*
%TO.C,R1*%
X94783400Y-73964800D03*
X94783400Y-71964800D03*
%TD*%
D18*
%TO.C,U2*%
X150647400Y-83083400D03*
X150647400Y-84353400D03*
X150647400Y-85623400D03*
X150647400Y-86893400D03*
X155597400Y-86893400D03*
X155597400Y-85623400D03*
X155597400Y-84353400D03*
X155597400Y-83083400D03*
%TD*%
D19*
%TO.C,C1*%
X127775300Y-72436900D03*
X127775300Y-70361900D03*
%TD*%
D17*
%TO.C,R31*%
X110464600Y-67446400D03*
X110464600Y-65446400D03*
%TD*%
D12*
%TO.C,R50*%
X130073400Y-87452200D03*
X128073400Y-87452200D03*
%TD*%
D11*
%TO.C,C8*%
X146155500Y-86791800D03*
X148230500Y-86791800D03*
%TD*%
D17*
%TO.C,R6*%
X102555800Y-67598800D03*
X102555800Y-65598800D03*
%TD*%
D20*
%TO.C,R57*%
X155575000Y-91176600D03*
X155575000Y-93176600D03*
%TD*%
D17*
%TO.C,R4*%
X98568000Y-67598800D03*
X98568000Y-65598800D03*
%TD*%
%TO.C,R33*%
X114493800Y-67395600D03*
X114493800Y-65395600D03*
%TD*%
D21*
%TO.C,D4*%
X100380800Y-94945200D03*
X102430800Y-94945200D03*
%TD*%
D11*
%TO.C,C5*%
X137605100Y-68986400D03*
X139680100Y-68986400D03*
%TD*%
D12*
%TO.C,R56*%
X155584400Y-88976200D03*
X153584400Y-88976200D03*
%TD*%
D16*
%TO.C,R49*%
X123120400Y-87436200D03*
X125120400Y-87436200D03*
%TD*%
D15*
%TO.C,C18*%
X101443700Y-82219800D03*
X99368700Y-82219800D03*
%TD*%
D16*
%TO.C,R45*%
X117634000Y-70002400D03*
X119634000Y-70002400D03*
%TD*%
D22*
%TO.C,U5*%
X96596200Y-89683900D03*
X97231200Y-89683900D03*
X97866200Y-89683900D03*
X98501200Y-89683900D03*
X99136200Y-89683900D03*
X99771200Y-89683900D03*
X100406200Y-89683900D03*
X101041200Y-89683900D03*
X101041200Y-84483900D03*
X100406200Y-84483900D03*
X99771200Y-84483900D03*
X99136200Y-84483900D03*
X98501200Y-84483900D03*
X97866200Y-84483900D03*
X97231200Y-84483900D03*
X96596200Y-84483900D03*
%TD*%
D12*
%TO.C,R8*%
X102431200Y-92786200D03*
X100431200Y-92786200D03*
%TD*%
D16*
%TO.C,R28*%
X105594400Y-69951600D03*
X107594400Y-69951600D03*
%TD*%
D17*
%TO.C,R46*%
X118541800Y-67446400D03*
X118541800Y-65446400D03*
%TD*%
D15*
%TO.C,C4*%
X160193900Y-83362800D03*
X158118900Y-83362800D03*
%TD*%
D16*
%TO.C,R55*%
X140208000Y-73634600D03*
X142208000Y-73634600D03*
%TD*%
D23*
%TO.C,D3*%
X97337900Y-80010000D03*
X95287900Y-80010000D03*
%TD*%
D20*
%TO.C,R52*%
X130108200Y-70399400D03*
X130108200Y-72399400D03*
%TD*%
D24*
%TO.C,C17*%
X97866200Y-91828800D03*
X97866200Y-93903800D03*
%TD*%
D12*
%TO.C,R47*%
X123698000Y-70002400D03*
X121698000Y-70002400D03*
%TD*%
D16*
%TO.C,R10*%
X91710000Y-86156800D03*
X93710000Y-86156800D03*
%TD*%
%TO.C,R9*%
X91710000Y-88163400D03*
X93710000Y-88163400D03*
%TD*%
%TO.C,R32*%
X113620800Y-70002400D03*
X115620800Y-70002400D03*
%TD*%
D17*
%TO.C,R2*%
X94656400Y-67675000D03*
X94656400Y-65675000D03*
%TD*%
D12*
%TO.C,R54*%
X148209000Y-84455000D03*
X146209000Y-84455000D03*
%TD*%
D16*
%TO.C,R5*%
X101555800Y-69926200D03*
X103555800Y-69926200D03*
%TD*%
D20*
%TO.C,R60*%
X158140400Y-76333600D03*
X158140400Y-78333600D03*
%TD*%
D19*
%TO.C,C2*%
X140344400Y-77716200D03*
X140344400Y-75641200D03*
%TD*%
M02*
