%TF.GenerationSoftware,KiCad,Pcbnew,8.0.0*%
%TF.CreationDate,2024-05-21T23:25:33-06:00*%
%TF.ProjectId,2024_Discovery_DDS_Shield,32303234-5f44-4697-9363-6f766572795f,rev?*%
%TF.SameCoordinates,Original*%
%TF.FileFunction,Copper,L1,Top*%
%TF.FilePolarity,Positive*%
%FSLAX46Y46*%
G04 Gerber Fmt 4.6, Leading zero omitted, Abs format (unit mm)*
G04 Created by KiCad (PCBNEW 8.0.0) date 2024-05-21 23:25:33*
%MOMM*%
%LPD*%
G01*
G04 APERTURE LIST*
G04 Aperture macros list*
%AMRoundRect*
0 Rectangle with rounded corners*
0 $1 Rounding radius*
0 $2 $3 $4 $5 $6 $7 $8 $9 X,Y pos of 4 corners*
0 Add a 4 corners polygon primitive as box body*
4,1,4,$2,$3,$4,$5,$6,$7,$8,$9,$2,$3,0*
0 Add four circle primitives for the rounded corners*
1,1,$1+$1,$2,$3*
1,1,$1+$1,$4,$5*
1,1,$1+$1,$6,$7*
1,1,$1+$1,$8,$9*
0 Add four rect primitives between the rounded corners*
20,1,$1+$1,$2,$3,$4,$5,0*
20,1,$1+$1,$4,$5,$6,$7,0*
20,1,$1+$1,$6,$7,$8,$9,0*
20,1,$1+$1,$8,$9,$2,$3,0*%
G04 Aperture macros list end*
%TA.AperFunction,EtchedComponent*%
%ADD10C,0.010000*%
%TD*%
%TA.AperFunction,SMDPad,CuDef*%
%ADD11RoundRect,0.250000X-0.337500X-0.475000X0.337500X-0.475000X0.337500X0.475000X-0.337500X0.475000X0*%
%TD*%
%TA.AperFunction,SMDPad,CuDef*%
%ADD12RoundRect,0.250000X0.350000X0.450000X-0.350000X0.450000X-0.350000X-0.450000X0.350000X-0.450000X0*%
%TD*%
%TA.AperFunction,SMDPad,CuDef*%
%ADD13R,1.350000X0.400000*%
%TD*%
%TA.AperFunction,ComponentPad*%
%ADD14O,0.800000X1.600000*%
%TD*%
%TA.AperFunction,ComponentPad*%
%ADD15O,1.500000X0.750000*%
%TD*%
%TA.AperFunction,SMDPad,CuDef*%
%ADD16R,1.550000X1.500000*%
%TD*%
%TA.AperFunction,ComponentPad*%
%ADD17C,2.000000*%
%TD*%
%TA.AperFunction,SMDPad,CuDef*%
%ADD18RoundRect,0.250000X0.337500X0.475000X-0.337500X0.475000X-0.337500X-0.475000X0.337500X-0.475000X0*%
%TD*%
%TA.AperFunction,SMDPad,CuDef*%
%ADD19RoundRect,0.250000X-0.350000X-0.450000X0.350000X-0.450000X0.350000X0.450000X-0.350000X0.450000X0*%
%TD*%
%TA.AperFunction,SMDPad,CuDef*%
%ADD20RoundRect,0.250000X0.450000X-0.350000X0.450000X0.350000X-0.450000X0.350000X-0.450000X-0.350000X0*%
%TD*%
%TA.AperFunction,SMDPad,CuDef*%
%ADD21RoundRect,0.150000X-0.825000X-0.150000X0.825000X-0.150000X0.825000X0.150000X-0.825000X0.150000X0*%
%TD*%
%TA.AperFunction,ComponentPad*%
%ADD22R,1.398000X1.398000*%
%TD*%
%TA.AperFunction,ComponentPad*%
%ADD23C,1.398000*%
%TD*%
%TA.AperFunction,ComponentPad*%
%ADD24C,3.015000*%
%TD*%
%TA.AperFunction,ComponentPad*%
%ADD25R,1.800000X1.800000*%
%TD*%
%TA.AperFunction,ComponentPad*%
%ADD26C,1.800000*%
%TD*%
%TA.AperFunction,ComponentPad*%
%ADD27RoundRect,0.750000X0.750000X-1.250000X0.750000X1.250000X-0.750000X1.250000X-0.750000X-1.250000X0*%
%TD*%
%TA.AperFunction,SMDPad,CuDef*%
%ADD28RoundRect,0.250000X0.475000X-0.337500X0.475000X0.337500X-0.475000X0.337500X-0.475000X-0.337500X0*%
%TD*%
%TA.AperFunction,SMDPad,CuDef*%
%ADD29RoundRect,0.250000X-0.450000X0.350000X-0.450000X-0.350000X0.450000X-0.350000X0.450000X0.350000X0*%
%TD*%
%TA.AperFunction,ComponentPad*%
%ADD30R,1.700000X1.700000*%
%TD*%
%TA.AperFunction,ComponentPad*%
%ADD31O,1.700000X1.700000*%
%TD*%
%TA.AperFunction,SMDPad,CuDef*%
%ADD32RoundRect,0.250000X-0.325000X-0.450000X0.325000X-0.450000X0.325000X0.450000X-0.325000X0.450000X0*%
%TD*%
%TA.AperFunction,SMDPad,CuDef*%
%ADD33R,0.400000X1.200000*%
%TD*%
%TA.AperFunction,ComponentPad*%
%ADD34C,1.440000*%
%TD*%
%TA.AperFunction,SMDPad,CuDef*%
%ADD35RoundRect,0.250000X0.325000X0.450000X-0.325000X0.450000X-0.325000X-0.450000X0.325000X-0.450000X0*%
%TD*%
%TA.AperFunction,SMDPad,CuDef*%
%ADD36RoundRect,0.250000X-0.475000X0.337500X-0.475000X-0.337500X0.475000X-0.337500X0.475000X0.337500X0*%
%TD*%
%TA.AperFunction,ViaPad*%
%ADD37C,0.600000*%
%TD*%
%TA.AperFunction,Conductor*%
%ADD38C,0.254000*%
%TD*%
%TA.AperFunction,Conductor*%
%ADD39C,0.200000*%
%TD*%
G04 APERTURE END LIST*
D10*
%TO.C,J2*%
X85031800Y-83598400D02*
X85057800Y-83600400D01*
X85083800Y-83603400D01*
X85109800Y-83608400D01*
X85134800Y-83614400D01*
X85160800Y-83621400D01*
X85184800Y-83630400D01*
X85208800Y-83640400D01*
X85232800Y-83651400D01*
X85255800Y-83664400D01*
X85277800Y-83678400D01*
X85299800Y-83692400D01*
X85320800Y-83708400D01*
X85340800Y-83725400D01*
X85359800Y-83743400D01*
X85377800Y-83762400D01*
X85394800Y-83782400D01*
X85410800Y-83803400D01*
X85424800Y-83825400D01*
X85438800Y-83847400D01*
X85451800Y-83870400D01*
X85462800Y-83894400D01*
X85472800Y-83918400D01*
X85481800Y-83942400D01*
X85488800Y-83968400D01*
X85494800Y-83993400D01*
X85499800Y-84019400D01*
X85502800Y-84045400D01*
X85504800Y-84071400D01*
X85505800Y-84097400D01*
X85505800Y-85242400D01*
X83955800Y-85242400D01*
X83955800Y-84097400D01*
X83956800Y-84071400D01*
X83958800Y-84045400D01*
X83961800Y-84019400D01*
X83966800Y-83993400D01*
X83972800Y-83968400D01*
X83979800Y-83942400D01*
X83988800Y-83918400D01*
X83998800Y-83894400D01*
X84009800Y-83870400D01*
X84022800Y-83847400D01*
X84036800Y-83825400D01*
X84050800Y-83803400D01*
X84066800Y-83782400D01*
X84083800Y-83762400D01*
X84101800Y-83743400D01*
X84120800Y-83725400D01*
X84140800Y-83708400D01*
X84161800Y-83692400D01*
X84183800Y-83678400D01*
X84205800Y-83664400D01*
X84228800Y-83651400D01*
X84252800Y-83640400D01*
X84276800Y-83630400D01*
X84300800Y-83621400D01*
X84326800Y-83614400D01*
X84351800Y-83608400D01*
X84377800Y-83603400D01*
X84403800Y-83600400D01*
X84429800Y-83598400D01*
X84455800Y-83597400D01*
X85005800Y-83597400D01*
X85031800Y-83598400D01*
%TA.AperFunction,EtchedComponent*%
G36*
X85031800Y-83598400D02*
G01*
X85057800Y-83600400D01*
X85083800Y-83603400D01*
X85109800Y-83608400D01*
X85134800Y-83614400D01*
X85160800Y-83621400D01*
X85184800Y-83630400D01*
X85208800Y-83640400D01*
X85232800Y-83651400D01*
X85255800Y-83664400D01*
X85277800Y-83678400D01*
X85299800Y-83692400D01*
X85320800Y-83708400D01*
X85340800Y-83725400D01*
X85359800Y-83743400D01*
X85377800Y-83762400D01*
X85394800Y-83782400D01*
X85410800Y-83803400D01*
X85424800Y-83825400D01*
X85438800Y-83847400D01*
X85451800Y-83870400D01*
X85462800Y-83894400D01*
X85472800Y-83918400D01*
X85481800Y-83942400D01*
X85488800Y-83968400D01*
X85494800Y-83993400D01*
X85499800Y-84019400D01*
X85502800Y-84045400D01*
X85504800Y-84071400D01*
X85505800Y-84097400D01*
X85505800Y-85242400D01*
X83955800Y-85242400D01*
X83955800Y-84097400D01*
X83956800Y-84071400D01*
X83958800Y-84045400D01*
X83961800Y-84019400D01*
X83966800Y-83993400D01*
X83972800Y-83968400D01*
X83979800Y-83942400D01*
X83988800Y-83918400D01*
X83998800Y-83894400D01*
X84009800Y-83870400D01*
X84022800Y-83847400D01*
X84036800Y-83825400D01*
X84050800Y-83803400D01*
X84066800Y-83782400D01*
X84083800Y-83762400D01*
X84101800Y-83743400D01*
X84120800Y-83725400D01*
X84140800Y-83708400D01*
X84161800Y-83692400D01*
X84183800Y-83678400D01*
X84205800Y-83664400D01*
X84228800Y-83651400D01*
X84252800Y-83640400D01*
X84276800Y-83630400D01*
X84300800Y-83621400D01*
X84326800Y-83614400D01*
X84351800Y-83608400D01*
X84377800Y-83603400D01*
X84403800Y-83600400D01*
X84429800Y-83598400D01*
X84455800Y-83597400D01*
X85005800Y-83597400D01*
X85031800Y-83598400D01*
G37*
%TD.AperFunction*%
X85505800Y-90987400D02*
X85504800Y-91013400D01*
X85502800Y-91039400D01*
X85499800Y-91065400D01*
X85494800Y-91091400D01*
X85488800Y-91116400D01*
X85481800Y-91142400D01*
X85472800Y-91166400D01*
X85462800Y-91190400D01*
X85451800Y-91214400D01*
X85438800Y-91237400D01*
X85424800Y-91259400D01*
X85410800Y-91281400D01*
X85394800Y-91302400D01*
X85377800Y-91322400D01*
X85359800Y-91341400D01*
X85340800Y-91359400D01*
X85320800Y-91376400D01*
X85299800Y-91392400D01*
X85277800Y-91406400D01*
X85255800Y-91420400D01*
X85232800Y-91433400D01*
X85208800Y-91444400D01*
X85184800Y-91454400D01*
X85160800Y-91463400D01*
X85134800Y-91470400D01*
X85109800Y-91476400D01*
X85083800Y-91481400D01*
X85057800Y-91484400D01*
X85031800Y-91486400D01*
X85005800Y-91487400D01*
X84455800Y-91487400D01*
X84429800Y-91486400D01*
X84403800Y-91484400D01*
X84377800Y-91481400D01*
X84351800Y-91476400D01*
X84326800Y-91470400D01*
X84300800Y-91463400D01*
X84276800Y-91454400D01*
X84252800Y-91444400D01*
X84228800Y-91433400D01*
X84205800Y-91420400D01*
X84183800Y-91406400D01*
X84161800Y-91392400D01*
X84140800Y-91376400D01*
X84120800Y-91359400D01*
X84101800Y-91341400D01*
X84083800Y-91322400D01*
X84066800Y-91302400D01*
X84050800Y-91281400D01*
X84036800Y-91259400D01*
X84022800Y-91237400D01*
X84009800Y-91214400D01*
X83998800Y-91190400D01*
X83988800Y-91166400D01*
X83979800Y-91142400D01*
X83972800Y-91116400D01*
X83966800Y-91091400D01*
X83961800Y-91065400D01*
X83958800Y-91039400D01*
X83956800Y-91013400D01*
X83955800Y-90987400D01*
X83955800Y-89842400D01*
X85505800Y-89842400D01*
X85505800Y-90987400D01*
%TA.AperFunction,EtchedComponent*%
G36*
X85505800Y-90987400D02*
G01*
X85504800Y-91013400D01*
X85502800Y-91039400D01*
X85499800Y-91065400D01*
X85494800Y-91091400D01*
X85488800Y-91116400D01*
X85481800Y-91142400D01*
X85472800Y-91166400D01*
X85462800Y-91190400D01*
X85451800Y-91214400D01*
X85438800Y-91237400D01*
X85424800Y-91259400D01*
X85410800Y-91281400D01*
X85394800Y-91302400D01*
X85377800Y-91322400D01*
X85359800Y-91341400D01*
X85340800Y-91359400D01*
X85320800Y-91376400D01*
X85299800Y-91392400D01*
X85277800Y-91406400D01*
X85255800Y-91420400D01*
X85232800Y-91433400D01*
X85208800Y-91444400D01*
X85184800Y-91454400D01*
X85160800Y-91463400D01*
X85134800Y-91470400D01*
X85109800Y-91476400D01*
X85083800Y-91481400D01*
X85057800Y-91484400D01*
X85031800Y-91486400D01*
X85005800Y-91487400D01*
X84455800Y-91487400D01*
X84429800Y-91486400D01*
X84403800Y-91484400D01*
X84377800Y-91481400D01*
X84351800Y-91476400D01*
X84326800Y-91470400D01*
X84300800Y-91463400D01*
X84276800Y-91454400D01*
X84252800Y-91444400D01*
X84228800Y-91433400D01*
X84205800Y-91420400D01*
X84183800Y-91406400D01*
X84161800Y-91392400D01*
X84140800Y-91376400D01*
X84120800Y-91359400D01*
X84101800Y-91341400D01*
X84083800Y-91322400D01*
X84066800Y-91302400D01*
X84050800Y-91281400D01*
X84036800Y-91259400D01*
X84022800Y-91237400D01*
X84009800Y-91214400D01*
X83998800Y-91190400D01*
X83988800Y-91166400D01*
X83979800Y-91142400D01*
X83972800Y-91116400D01*
X83966800Y-91091400D01*
X83961800Y-91065400D01*
X83958800Y-91039400D01*
X83956800Y-91013400D01*
X83955800Y-90987400D01*
X83955800Y-89842400D01*
X85505800Y-89842400D01*
X85505800Y-90987400D01*
G37*
%TD.AperFunction*%
%TD*%
D11*
%TO.P,C6,1*%
%TO.N,GND*%
X128283300Y-74853800D03*
%TO.P,C6,2*%
%TO.N,VEE*%
X130358300Y-74853800D03*
%TD*%
D12*
%TO.P,R51,1*%
%TO.N,Net-(U1A--)*%
X125612400Y-72466200D03*
%TO.P,R51,2*%
%TO.N,Net-(R47-Pad1)*%
X123612400Y-72466200D03*
%TD*%
D13*
%TO.P,J2,1,1*%
%TO.N,FTDI_VCC*%
X87405800Y-86242400D03*
%TO.P,J2,2,2*%
%TO.N,/D-*%
X87405800Y-86892400D03*
%TO.P,J2,3,3*%
%TO.N,/D+*%
X87405800Y-87542400D03*
%TO.P,J2,4,4*%
%TO.N,unconnected-(J2-Pad4)*%
X87405800Y-88192400D03*
%TO.P,J2,5,5*%
%TO.N,GND*%
X87405800Y-88842400D03*
D14*
%TO.P,J2,S1,SHIELD*%
%TO.N,unconnected-(J2-SHIELD-PadS1)*%
X87430800Y-85042400D03*
%TO.P,J2,S2,SHIELD__1*%
%TO.N,unconnected-(J2-SHIELD__1-PadS2)*%
X87430800Y-90042400D03*
D15*
%TO.P,J2,S3,SHIELD__2*%
%TO.N,unconnected-(J2-SHIELD__2-PadS3)*%
X84730800Y-84017400D03*
D16*
%TO.P,J2,S4,SHIELD__3*%
%TO.N,unconnected-(J2-SHIELD__3-PadS4)*%
X84730800Y-86542400D03*
%TO.P,J2,S5,SHIELD__4*%
%TO.N,unconnected-(J2-SHIELD__4-PadS5)*%
X84730800Y-88542400D03*
D15*
%TO.P,J2,S6,SHIELD__5*%
%TO.N,unconnected-(J2-SHIELD__5-PadS6)*%
X84730800Y-91067400D03*
%TD*%
D17*
%TO.P,SW3,1,1*%
%TO.N,GND*%
X120904000Y-114122200D03*
X114404000Y-114122200D03*
%TO.P,SW3,2,2*%
%TO.N,/SW_CURSOR*%
X120904000Y-109622200D03*
X114404000Y-109622200D03*
%TD*%
D18*
%TO.P,C3,1*%
%TO.N,Net-(C3-Pad1)*%
X142169300Y-71475600D03*
%TO.P,C3,2*%
%TO.N,Net-(J1-Pin_3)*%
X140094300Y-71475600D03*
%TD*%
D19*
%TO.P,R3,1*%
%TO.N,Net-(R1-Pad2)*%
X97568000Y-69926200D03*
%TO.P,R3,2*%
%TO.N,Net-(R3-Pad2)*%
X99568000Y-69926200D03*
%TD*%
D20*
%TO.P,R53,1*%
%TO.N,Net-(C3-Pad1)*%
X142062200Y-69224400D03*
%TO.P,R53,2*%
%TO.N,Net-(J1-Pin_1)*%
X142062200Y-67224400D03*
%TD*%
D19*
%TO.P,R7,1*%
%TO.N,Net-(D3-A)*%
X95338300Y-82245200D03*
%TO.P,R7,2*%
%TO.N,Net-(U5-CBUS1)*%
X97338300Y-82245200D03*
%TD*%
D17*
%TO.P,SW2,1,1*%
%TO.N,GND*%
X110363000Y-114046000D03*
X103863000Y-114046000D03*
%TO.P,SW2,2,2*%
%TO.N,/SW_MODE*%
X110363000Y-109546000D03*
X103863000Y-109546000D03*
%TD*%
D19*
%TO.P,R59,1*%
%TO.N,Net-(C4-Pad2)*%
X158131000Y-81076800D03*
%TO.P,R59,2*%
%TO.N,Net-(U2B--)*%
X160131000Y-81076800D03*
%TD*%
D20*
%TO.P,R29,1*%
%TO.N,Net-(R28-Pad2)*%
X106594400Y-67573400D03*
%TO.P,R29,2*%
%TO.N,DAC_3*%
X106594400Y-65573400D03*
%TD*%
D21*
%TO.P,U1,1*%
%TO.N,Net-(J1-Pin_1)*%
X132840200Y-71069200D03*
%TO.P,U1,2,-*%
%TO.N,Net-(U1A--)*%
X132840200Y-72339200D03*
%TO.P,U1,3,+*%
%TO.N,Net-(U1A-+)*%
X132840200Y-73609200D03*
%TO.P,U1,4,V-*%
%TO.N,VEE*%
X132840200Y-74879200D03*
%TO.P,U1,5,+*%
%TO.N,Net-(U1B-+)*%
X137790200Y-74879200D03*
%TO.P,U1,6,-*%
%TO.N,Net-(J1-Pin_3)*%
X137790200Y-73609200D03*
%TO.P,U1,7*%
X137790200Y-72339200D03*
%TO.P,U1,8,V+*%
%TO.N,VCC*%
X137790200Y-71069200D03*
%TD*%
D20*
%TO.P,R48,1*%
%TO.N,Net-(R47-Pad1)*%
X122647200Y-67446400D03*
%TO.P,R48,2*%
%TO.N,DAC_7*%
X122647200Y-65446400D03*
%TD*%
D19*
%TO.P,R58,1*%
%TO.N,Net-(U2B--)*%
X158156400Y-85598000D03*
%TO.P,R58,2*%
%TO.N,GND*%
X160156400Y-85598000D03*
%TD*%
D18*
%TO.P,C7,1*%
%TO.N,VCC*%
X155901300Y-80949800D03*
%TO.P,C7,2*%
%TO.N,GND*%
X153826300Y-80949800D03*
%TD*%
D19*
%TO.P,R30,1*%
%TO.N,Net-(R28-Pad2)*%
X109566200Y-69944400D03*
%TO.P,R30,2*%
%TO.N,Net-(R30-Pad2)*%
X111566200Y-69944400D03*
%TD*%
D22*
%TO.P,J9,1,1*%
%TO.N,Net-(J9-Pad1)*%
X169799000Y-69748400D03*
D23*
%TO.P,J9,2,2*%
%TO.N,GND*%
X169799000Y-67208400D03*
D24*
%TO.P,J9,P1,SHIELD*%
%TO.N,unconnected-(J9-SHIELD-PadP1)*%
X174879000Y-64668400D03*
%TO.P,J9,P2,SHIELD__1*%
%TO.N,unconnected-(J9-SHIELD__1-PadP2)*%
X174879000Y-74828400D03*
%TD*%
D20*
%TO.P,R1,1*%
%TO.N,GND*%
X94783400Y-73964800D03*
%TO.P,R1,2*%
%TO.N,Net-(R1-Pad2)*%
X94783400Y-71964800D03*
%TD*%
D25*
%TO.P,RV7,1,1*%
%TO.N,Net-(U2A--)*%
X168746800Y-95813600D03*
D26*
%TO.P,RV7,2,2*%
%TO.N,Net-(R56-Pad2)*%
X171246800Y-95813600D03*
%TO.P,RV7,3,3*%
X173746800Y-95813600D03*
D27*
%TO.P,RV7,MP*%
%TO.N,N/C*%
X166846800Y-88813600D03*
X175646800Y-88813600D03*
%TD*%
D21*
%TO.P,U2,1*%
%TO.N,Net-(R56-Pad2)*%
X150647400Y-83083400D03*
%TO.P,U2,2,-*%
%TO.N,Net-(U2A--)*%
X150647400Y-84353400D03*
%TO.P,U2,3,+*%
%TO.N,GND*%
X150647400Y-85623400D03*
%TO.P,U2,4,V-*%
%TO.N,VEE*%
X150647400Y-86893400D03*
%TO.P,U2,5,+*%
%TO.N,Net-(U2B-+)*%
X155597400Y-86893400D03*
%TO.P,U2,6,-*%
%TO.N,Net-(U2B--)*%
X155597400Y-85623400D03*
%TO.P,U2,7*%
%TO.N,Net-(C4-Pad2)*%
X155597400Y-84353400D03*
%TO.P,U2,8,V+*%
%TO.N,VCC*%
X155597400Y-83083400D03*
%TD*%
D28*
%TO.P,C1,1*%
%TO.N,Net-(U1A--)*%
X127775300Y-72436900D03*
%TO.P,C1,2*%
%TO.N,Net-(J1-Pin_1)*%
X127775300Y-70361900D03*
%TD*%
D20*
%TO.P,R31,1*%
%TO.N,Net-(R30-Pad2)*%
X110464600Y-67446400D03*
%TO.P,R31,2*%
%TO.N,DAC_4*%
X110464600Y-65446400D03*
%TD*%
D12*
%TO.P,R50,1*%
%TO.N,Net-(R50-Pad1)*%
X130073400Y-87452200D03*
%TO.P,R50,2*%
%TO.N,GND*%
X128073400Y-87452200D03*
%TD*%
D11*
%TO.P,C8,1*%
%TO.N,GND*%
X146155500Y-86791800D03*
%TO.P,C8,2*%
%TO.N,VEE*%
X148230500Y-86791800D03*
%TD*%
D20*
%TO.P,R6,1*%
%TO.N,Net-(R28-Pad1)*%
X102555800Y-67598800D03*
%TO.P,R6,2*%
%TO.N,DAC_2*%
X102555800Y-65598800D03*
%TD*%
D29*
%TO.P,R57,1*%
%TO.N,Net-(U2B-+)*%
X155575000Y-91176600D03*
%TO.P,R57,2*%
%TO.N,Net-(J4-Pin_2)*%
X155575000Y-93176600D03*
%TD*%
D20*
%TO.P,R4,1*%
%TO.N,Net-(R3-Pad2)*%
X98568000Y-67598800D03*
%TO.P,R4,2*%
%TO.N,DAC_1*%
X98568000Y-65598800D03*
%TD*%
D30*
%TO.P,J3,1,Pin_1*%
%TO.N,GND*%
X88773000Y-95427800D03*
D31*
%TO.P,J3,2,Pin_2*%
%TO.N,/FTDI_RX*%
X91313000Y-95427800D03*
%TO.P,J3,3,Pin_3*%
%TO.N,/FTDI_TX*%
X93853000Y-95427800D03*
%TD*%
D20*
%TO.P,R33,1*%
%TO.N,Net-(R32-Pad2)*%
X114493800Y-67395600D03*
%TO.P,R33,2*%
%TO.N,DAC_5*%
X114493800Y-65395600D03*
%TD*%
D25*
%TO.P,RV8,1,1*%
%TO.N,VCC*%
X168645200Y-113949200D03*
D26*
%TO.P,RV8,2,2*%
%TO.N,Net-(J4-Pin_3)*%
X171145200Y-113949200D03*
%TO.P,RV8,3,3*%
%TO.N,VEE*%
X173645200Y-113949200D03*
D27*
%TO.P,RV8,MP*%
%TO.N,N/C*%
X166745200Y-106949200D03*
X175545200Y-106949200D03*
%TD*%
D30*
%TO.P,J4,1,Pin_1*%
%TO.N,GND*%
X160426400Y-104470200D03*
D31*
%TO.P,J4,2,Pin_2*%
%TO.N,Net-(J4-Pin_2)*%
X160426400Y-107010200D03*
%TO.P,J4,3,Pin_3*%
%TO.N,Net-(J4-Pin_3)*%
X160426400Y-109550200D03*
%TD*%
D17*
%TO.P,SW4,1,1*%
%TO.N,GND*%
X131673600Y-114223800D03*
X125173600Y-114223800D03*
%TO.P,SW4,2,2*%
%TO.N,/SW_PLUS*%
X131673600Y-109723800D03*
X125173600Y-109723800D03*
%TD*%
D32*
%TO.P,D4,1,K*%
%TO.N,GND*%
X100380800Y-94945200D03*
%TO.P,D4,2,A*%
%TO.N,Net-(D4-A)*%
X102430800Y-94945200D03*
%TD*%
D11*
%TO.P,C5,1*%
%TO.N,VCC*%
X137605100Y-68986400D03*
%TO.P,C5,2*%
%TO.N,GND*%
X139680100Y-68986400D03*
%TD*%
D12*
%TO.P,R56,1*%
%TO.N,Net-(U2B-+)*%
X155584400Y-88976200D03*
%TO.P,R56,2*%
%TO.N,Net-(R56-Pad2)*%
X153584400Y-88976200D03*
%TD*%
D30*
%TO.P,J1,1,Pin_1*%
%TO.N,Net-(J1-Pin_1)*%
X136819800Y-84389600D03*
D31*
%TO.P,J1,2,Pin_2*%
%TO.N,Net-(J1-Pin_2)*%
X139359800Y-84389600D03*
%TO.P,J1,3,Pin_3*%
%TO.N,Net-(J1-Pin_3)*%
X141899800Y-84389600D03*
%TD*%
D30*
%TO.P,J5,1,Pin_1*%
%TO.N,GND*%
X93594902Y-43644400D03*
D31*
%TO.P,J5,2,Pin_2*%
%TO.N,+5V*%
X96134902Y-43644400D03*
%TO.P,J5,3,Pin_3*%
%TO.N,Net-(J5-Pin_3)*%
X98674902Y-43644400D03*
%TO.P,J5,4,Pin_4*%
%TO.N,/RS*%
X101214902Y-43644400D03*
%TO.P,J5,5,Pin_5*%
%TO.N,GND*%
X103754902Y-43644400D03*
%TO.P,J5,6,Pin_6*%
%TO.N,/E*%
X106294902Y-43644400D03*
%TO.P,J5,7,Pin_7*%
%TO.N,/D0*%
X108834902Y-43644400D03*
%TO.P,J5,8,Pin_8*%
%TO.N,/D1*%
X111374902Y-43644400D03*
%TO.P,J5,9,Pin_9*%
%TO.N,/D2*%
X113914902Y-43644400D03*
%TO.P,J5,10,Pin_10*%
%TO.N,/D3*%
X116454902Y-43644400D03*
%TO.P,J5,11,Pin_11*%
%TO.N,/D4*%
X118994902Y-43644400D03*
%TO.P,J5,12,Pin_12*%
%TO.N,/D5*%
X121534902Y-43644400D03*
%TO.P,J5,13,Pin_13*%
%TO.N,/D6*%
X124074902Y-43644400D03*
%TO.P,J5,14,Pin_14*%
%TO.N,/D7*%
X126614902Y-43644400D03*
%TO.P,J5,15,Pin_15*%
%TO.N,/A*%
X129154902Y-43644400D03*
%TO.P,J5,16,Pin_16*%
%TO.N,GND*%
X131694902Y-43644400D03*
%TD*%
D30*
%TO.P,J6,1,Pin_1*%
%TO.N,VCC*%
X156083000Y-37236400D03*
D31*
%TO.P,J6,2,Pin_2*%
%TO.N,GND*%
X158623000Y-37236400D03*
%TO.P,J6,3,Pin_3*%
%TO.N,VEE*%
X161163000Y-37236400D03*
%TD*%
D19*
%TO.P,R49,1*%
%TO.N,+5V*%
X123120400Y-87436200D03*
%TO.P,R49,2*%
%TO.N,Net-(R49-Pad2)*%
X125120400Y-87436200D03*
%TD*%
D18*
%TO.P,C18,1*%
%TO.N,GND*%
X101443700Y-82219800D03*
%TO.P,C18,2*%
%TO.N,FTDI_VCC*%
X99368700Y-82219800D03*
%TD*%
D17*
%TO.P,SW6,1,1*%
%TO.N,GND*%
X99593400Y-114046000D03*
X93093400Y-114046000D03*
%TO.P,SW6,2,2*%
%TO.N,/SW_RUN_STOP*%
X99593400Y-109546000D03*
X93093400Y-109546000D03*
%TD*%
D19*
%TO.P,R45,1*%
%TO.N,Net-(R32-Pad2)*%
X117634000Y-70002400D03*
%TO.P,R45,2*%
%TO.N,Net-(R45-Pad2)*%
X119634000Y-70002400D03*
%TD*%
D33*
%TO.P,U5,1,TXD*%
%TO.N,/FTDI_TX*%
X96596200Y-89683900D03*
%TO.P,U5,2,~{RTS}*%
%TO.N,unconnected-(U5-~{RTS}-Pad2)*%
X97231200Y-89683900D03*
%TO.P,U5,3,VCCIO*%
%TO.N,/MODE*%
X97866200Y-89683900D03*
%TO.P,U5,4,RXD*%
%TO.N,/FTDI_RX*%
X98501200Y-89683900D03*
%TO.P,U5,5,GND*%
%TO.N,GND*%
X99136200Y-89683900D03*
%TO.P,U5,6,~{CTS}*%
%TO.N,unconnected-(U5-~{CTS}-Pad6)*%
X99771200Y-89683900D03*
%TO.P,U5,7,CBUS2*%
%TO.N,Net-(U5-CBUS2)*%
X100406200Y-89683900D03*
%TO.P,U5,8,USBDP*%
%TO.N,/FTDI_D+*%
X101041200Y-89683900D03*
%TO.P,U5,9,USBDM*%
%TO.N,/FTDI_D-*%
X101041200Y-84483900D03*
%TO.P,U5,10,3V3OUT*%
%TO.N,/MODE*%
X100406200Y-84483900D03*
%TO.P,U5,11,~{RESET}*%
X99771200Y-84483900D03*
%TO.P,U5,12,VCC*%
%TO.N,FTDI_VCC*%
X99136200Y-84483900D03*
%TO.P,U5,13,GND*%
%TO.N,GND*%
X98501200Y-84483900D03*
%TO.P,U5,14,CBUS1*%
%TO.N,Net-(U5-CBUS1)*%
X97866200Y-84483900D03*
%TO.P,U5,15,CBUS0*%
%TO.N,unconnected-(U5-CBUS0-Pad15)*%
X97231200Y-84483900D03*
%TO.P,U5,16,CBUS3*%
%TO.N,unconnected-(U5-CBUS3-Pad16)*%
X96596200Y-84483900D03*
%TD*%
D12*
%TO.P,R8,1*%
%TO.N,Net-(D4-A)*%
X102431200Y-92786200D03*
%TO.P,R8,2*%
%TO.N,Net-(U5-CBUS2)*%
X100431200Y-92786200D03*
%TD*%
D19*
%TO.P,R28,1*%
%TO.N,Net-(R28-Pad1)*%
X105594400Y-69951600D03*
%TO.P,R28,2*%
%TO.N,Net-(R28-Pad2)*%
X107594400Y-69951600D03*
%TD*%
D34*
%TO.P,RV2,1,1*%
%TO.N,/A*%
X128905000Y-37160200D03*
%TO.P,RV2,2,2*%
X126365000Y-37160200D03*
%TO.P,RV2,3,3*%
%TO.N,+5V*%
X123825000Y-37160200D03*
%TD*%
D20*
%TO.P,R46,1*%
%TO.N,Net-(R45-Pad2)*%
X118541800Y-67446400D03*
%TO.P,R46,2*%
%TO.N,DAC_6*%
X118541800Y-65446400D03*
%TD*%
D18*
%TO.P,C4,1*%
%TO.N,Net-(U2B--)*%
X160193900Y-83362800D03*
%TO.P,C4,2*%
%TO.N,Net-(C4-Pad2)*%
X158118900Y-83362800D03*
%TD*%
D19*
%TO.P,R55,1*%
%TO.N,Net-(U1B-+)*%
X140208000Y-73634600D03*
%TO.P,R55,2*%
%TO.N,Net-(C3-Pad1)*%
X142208000Y-73634600D03*
%TD*%
D35*
%TO.P,D3,1,K*%
%TO.N,GND*%
X97337900Y-80010000D03*
%TO.P,D3,2,A*%
%TO.N,Net-(D3-A)*%
X95287900Y-80010000D03*
%TD*%
D29*
%TO.P,R52,1*%
%TO.N,Net-(J1-Pin_1)*%
X130108200Y-70399400D03*
%TO.P,R52,2*%
%TO.N,Net-(U1A--)*%
X130108200Y-72399400D03*
%TD*%
D36*
%TO.P,C17,1*%
%TO.N,/MODE*%
X97866200Y-91828800D03*
%TO.P,C17,2*%
%TO.N,GND*%
X97866200Y-93903800D03*
%TD*%
D12*
%TO.P,R47,1*%
%TO.N,Net-(R47-Pad1)*%
X123698000Y-70002400D03*
%TO.P,R47,2*%
%TO.N,Net-(R45-Pad2)*%
X121698000Y-70002400D03*
%TD*%
D19*
%TO.P,R10,1*%
%TO.N,/D-*%
X91710000Y-86156800D03*
%TO.P,R10,2*%
%TO.N,/FTDI_D-*%
X93710000Y-86156800D03*
%TD*%
D34*
%TO.P,RV1,1,1*%
%TO.N,GND*%
X101244400Y-37134800D03*
%TO.P,RV1,2,2*%
%TO.N,Net-(J5-Pin_3)*%
X98704400Y-37134800D03*
%TO.P,RV1,3,3*%
%TO.N,+5V*%
X96164400Y-37134800D03*
%TD*%
D19*
%TO.P,R9,1*%
%TO.N,/D+*%
X91710000Y-88163400D03*
%TO.P,R9,2*%
%TO.N,/FTDI_D+*%
X93710000Y-88163400D03*
%TD*%
D17*
%TO.P,SW5,1,1*%
%TO.N,GND*%
X142367000Y-114300000D03*
X135867000Y-114300000D03*
%TO.P,SW5,2,2*%
%TO.N,/SW_MINUS*%
X142367000Y-109800000D03*
X135867000Y-109800000D03*
%TD*%
D19*
%TO.P,R32,1*%
%TO.N,Net-(R30-Pad2)*%
X113620800Y-70002400D03*
%TO.P,R32,2*%
%TO.N,Net-(R32-Pad2)*%
X115620800Y-70002400D03*
%TD*%
D20*
%TO.P,R2,1*%
%TO.N,Net-(R1-Pad2)*%
X94656400Y-67675000D03*
%TO.P,R2,2*%
%TO.N,DAC_0*%
X94656400Y-65675000D03*
%TD*%
D12*
%TO.P,R54,1*%
%TO.N,Net-(U2A--)*%
X148209000Y-84455000D03*
%TO.P,R54,2*%
%TO.N,Net-(J1-Pin_2)*%
X146209000Y-84455000D03*
%TD*%
D19*
%TO.P,R5,1*%
%TO.N,Net-(R3-Pad2)*%
X101555800Y-69926200D03*
%TO.P,R5,2*%
%TO.N,Net-(R28-Pad1)*%
X103555800Y-69926200D03*
%TD*%
D29*
%TO.P,R60,1*%
%TO.N,Net-(J9-Pad1)*%
X158140400Y-76333600D03*
%TO.P,R60,2*%
%TO.N,Net-(C4-Pad2)*%
X158140400Y-78333600D03*
%TD*%
D34*
%TO.P,RV6,1,1*%
%TO.N,Net-(R49-Pad2)*%
X124780800Y-83296000D03*
%TO.P,RV6,2,2*%
%TO.N,Net-(U1A-+)*%
X127320800Y-83296000D03*
%TO.P,RV6,3,3*%
%TO.N,Net-(R50-Pad1)*%
X129860800Y-83296000D03*
%TD*%
D28*
%TO.P,C2,1*%
%TO.N,GND*%
X140344400Y-77716200D03*
%TO.P,C2,2*%
%TO.N,Net-(U1B-+)*%
X140344400Y-75641200D03*
%TD*%
D30*
%TO.P,J7,1,Pin_1*%
%TO.N,GND*%
X147950600Y-50787200D03*
D31*
%TO.P,J7,2,Pin_2*%
X147950600Y-53327200D03*
%TO.P,J7,3,Pin_3*%
%TO.N,+5V*%
X145410600Y-50787200D03*
%TO.P,J7,4,Pin_4*%
X145410600Y-53327200D03*
%TO.P,J7,5,Pin_5*%
%TO.N,+3V0*%
X142870600Y-50787200D03*
%TO.P,J7,6,Pin_6*%
X142870600Y-53327200D03*
%TO.P,J7,7,Pin_7*%
%TO.N,unconnected-(J7-Pin_7-Pad7)*%
X140330600Y-50787200D03*
%TO.P,J7,8,Pin_8*%
%TO.N,unconnected-(J7-Pin_8-Pad8)*%
X140330600Y-53327200D03*
%TO.P,J7,9,Pin_9*%
%TO.N,unconnected-(J7-Pin_9-Pad9)*%
X137790600Y-50787200D03*
%TO.P,J7,10,Pin_10*%
%TO.N,unconnected-(J7-Pin_10-Pad10)*%
X137790600Y-53327200D03*
%TO.P,J7,11,Pin_11*%
%TO.N,unconnected-(J7-Pin_11-Pad11)*%
X135250600Y-50787200D03*
%TO.P,J7,12,Pin_12*%
%TO.N,unconnected-(J7-Pin_12-Pad12)*%
X135250600Y-53327200D03*
%TO.P,J7,13,Pin_13*%
%TO.N,/D7*%
X132710600Y-50787200D03*
%TO.P,J7,14,Pin_14*%
%TO.N,/D6*%
X132710600Y-53327200D03*
%TO.P,J7,15,Pin_15*%
%TO.N,/D5*%
X130170600Y-50787200D03*
%TO.P,J7,16,Pin_16*%
%TO.N,/D4*%
X130170600Y-53327200D03*
%TO.P,J7,17,Pin_17*%
%TO.N,/E*%
X127630600Y-50787200D03*
%TO.P,J7,18,Pin_18*%
%TO.N,/RS*%
X127630600Y-53327200D03*
%TO.P,J7,19,Pin_19*%
%TO.N,unconnected-(J7-Pin_19-Pad19)*%
X125090600Y-50787200D03*
%TO.P,J7,20,Pin_20*%
%TO.N,unconnected-(J7-Pin_20-Pad20)*%
X125090600Y-53327200D03*
%TO.P,J7,21,Pin_21*%
%TO.N,unconnected-(J7-Pin_21-Pad21)*%
X122550600Y-50787200D03*
%TO.P,J7,22,Pin_22*%
%TO.N,unconnected-(J7-Pin_22-Pad22)*%
X122550600Y-53327200D03*
%TO.P,J7,23,Pin_23*%
%TO.N,unconnected-(J7-Pin_23-Pad23)*%
X120010600Y-50787200D03*
%TO.P,J7,24,Pin_24*%
%TO.N,unconnected-(J7-Pin_24-Pad24)*%
X120010600Y-53327200D03*
%TO.P,J7,25,Pin_25*%
%TO.N,unconnected-(J7-Pin_25-Pad25)*%
X117470600Y-50787200D03*
%TO.P,J7,26,Pin_26*%
%TO.N,unconnected-(J7-Pin_26-Pad26)*%
X117470600Y-53327200D03*
%TO.P,J7,27,Pin_27*%
%TO.N,unconnected-(J7-Pin_27-Pad27)*%
X114930600Y-50787200D03*
%TO.P,J7,28,Pin_28*%
%TO.N,DAC_7*%
X114930600Y-53327200D03*
%TO.P,J7,29,Pin_29*%
%TO.N,DAC_6*%
X112390600Y-50787200D03*
%TO.P,J7,30,Pin_30*%
%TO.N,DAC_5*%
X112390600Y-53327200D03*
%TO.P,J7,31,Pin_31*%
%TO.N,DAC_4*%
X109850600Y-50787200D03*
%TO.P,J7,32,Pin_32*%
%TO.N,DAC_3*%
X109850600Y-53327200D03*
%TO.P,J7,33,Pin_33*%
%TO.N,DAC_2*%
X107310600Y-50787200D03*
%TO.P,J7,34,Pin_34*%
%TO.N,DAC_1*%
X107310600Y-53327200D03*
%TO.P,J7,35,Pin_35*%
%TO.N,DAC_0*%
X104770600Y-50787200D03*
%TO.P,J7,36,Pin_36*%
%TO.N,unconnected-(J7-Pin_36-Pad36)*%
X104770600Y-53327200D03*
%TO.P,J7,37,Pin_37*%
%TO.N,unconnected-(J7-Pin_37-Pad37)*%
X102230600Y-50787200D03*
%TO.P,J7,38,Pin_38*%
%TO.N,unconnected-(J7-Pin_38-Pad38)*%
X102230600Y-53327200D03*
%TO.P,J7,39,Pin_39*%
%TO.N,unconnected-(J7-Pin_39-Pad39)*%
X99690600Y-50787200D03*
%TO.P,J7,40,Pin_40*%
%TO.N,unconnected-(J7-Pin_40-Pad40)*%
X99690600Y-53327200D03*
%TO.P,J7,41,Pin_41*%
%TO.N,unconnected-(J7-Pin_41-Pad41)*%
X97150600Y-50787200D03*
%TO.P,J7,42,Pin_42*%
%TO.N,unconnected-(J7-Pin_42-Pad42)*%
X97150600Y-53327200D03*
%TO.P,J7,43,Pin_43*%
%TO.N,unconnected-(J7-Pin_43-Pad43)*%
X94610600Y-50787200D03*
%TO.P,J7,44,Pin_44*%
%TO.N,unconnected-(J7-Pin_44-Pad44)*%
X94610600Y-53327200D03*
%TO.P,J7,45,Pin_45*%
%TO.N,unconnected-(J7-Pin_45-Pad45)*%
X92070600Y-50787200D03*
%TO.P,J7,46,Pin_46*%
%TO.N,unconnected-(J7-Pin_46-Pad46)*%
X92070600Y-53327200D03*
%TO.P,J7,47,Pin_47*%
%TO.N,unconnected-(J7-Pin_47-Pad47)*%
X89530600Y-50787200D03*
%TO.P,J7,48,Pin_48*%
%TO.N,unconnected-(J7-Pin_48-Pad48)*%
X89530600Y-53327200D03*
%TO.P,J7,49,Pin_49*%
%TO.N,GND*%
X86990600Y-50787200D03*
%TO.P,J7,50,Pin_50*%
X86990600Y-53327200D03*
%TD*%
D30*
%TO.P,J8,1,Pin_1*%
%TO.N,GND*%
X147925200Y-101587200D03*
D31*
%TO.P,J8,2,Pin_2*%
X147925200Y-104127200D03*
%TO.P,J8,3,Pin_3*%
%TO.N,unconnected-(J8-Pin_3-Pad3)*%
X145385200Y-101587200D03*
%TO.P,J8,4,Pin_4*%
%TO.N,unconnected-(J8-Pin_4-Pad4)*%
X145385200Y-104127200D03*
%TO.P,J8,5,Pin_5*%
%TO.N,unconnected-(J8-Pin_5-Pad5)*%
X142845200Y-101587200D03*
%TO.P,J8,6,Pin_6*%
%TO.N,GND*%
X142845200Y-104127200D03*
%TO.P,J8,7,Pin_7*%
%TO.N,unconnected-(J8-Pin_7-Pad7)*%
X140305200Y-101587200D03*
%TO.P,J8,8,Pin_8*%
%TO.N,unconnected-(J8-Pin_8-Pad8)*%
X140305200Y-104127200D03*
%TO.P,J8,9,Pin_9*%
%TO.N,unconnected-(J8-Pin_9-Pad9)*%
X137765200Y-101587200D03*
%TO.P,J8,10,Pin_10*%
%TO.N,unconnected-(J8-Pin_10-Pad10)*%
X137765200Y-104127200D03*
%TO.P,J8,11,Pin_11*%
%TO.N,unconnected-(J8-Pin_11-Pad11)*%
X135225200Y-101587200D03*
%TO.P,J8,12,Pin_12*%
%TO.N,/SW_MINUS*%
X135225200Y-104127200D03*
%TO.P,J8,13,Pin_13*%
%TO.N,unconnected-(J8-Pin_13-Pad13)*%
X132685200Y-101587200D03*
%TO.P,J8,14,Pin_14*%
%TO.N,unconnected-(J8-Pin_14-Pad14)*%
X132685200Y-104127200D03*
%TO.P,J8,15,Pin_15*%
%TO.N,unconnected-(J8-Pin_15-Pad15)*%
X130145200Y-101587200D03*
%TO.P,J8,16,Pin_16*%
%TO.N,unconnected-(J8-Pin_16-Pad16)*%
X130145200Y-104127200D03*
%TO.P,J8,17,Pin_17*%
%TO.N,unconnected-(J8-Pin_17-Pad17)*%
X127605200Y-101587200D03*
%TO.P,J8,18,Pin_18*%
%TO.N,unconnected-(J8-Pin_18-Pad18)*%
X127605200Y-104127200D03*
%TO.P,J8,19,Pin_19*%
%TO.N,unconnected-(J8-Pin_19-Pad19)*%
X125065200Y-101587200D03*
%TO.P,J8,20,Pin_20*%
%TO.N,/SW_PLUS*%
X125065200Y-104127200D03*
%TO.P,J8,21,Pin_21*%
%TO.N,unconnected-(J8-Pin_21-Pad21)*%
X122525200Y-101587200D03*
%TO.P,J8,22,Pin_22*%
%TO.N,unconnected-(J8-Pin_22-Pad22)*%
X122525200Y-104127200D03*
%TO.P,J8,23,Pin_23*%
%TO.N,unconnected-(J8-Pin_23-Pad23)*%
X119985200Y-101587200D03*
%TO.P,J8,24,Pin_24*%
%TO.N,GND*%
X119985200Y-104127200D03*
%TO.P,J8,25,Pin_25*%
%TO.N,unconnected-(J8-Pin_25-Pad25)*%
X117445200Y-101587200D03*
%TO.P,J8,26,Pin_26*%
%TO.N,unconnected-(J8-Pin_26-Pad26)*%
X117445200Y-104127200D03*
%TO.P,J8,27,Pin_27*%
%TO.N,unconnected-(J8-Pin_27-Pad27)*%
X114905200Y-101587200D03*
%TO.P,J8,28,Pin_28*%
%TO.N,/SW_CURSOR*%
X114905200Y-104127200D03*
%TO.P,J8,29,Pin_29*%
%TO.N,unconnected-(J8-Pin_29-Pad29)*%
X112365200Y-101587200D03*
%TO.P,J8,30,Pin_30*%
%TO.N,unconnected-(J8-Pin_30-Pad30)*%
X112365200Y-104127200D03*
%TO.P,J8,31,Pin_31*%
%TO.N,unconnected-(J8-Pin_31-Pad31)*%
X109825200Y-101587200D03*
%TO.P,J8,32,Pin_32*%
%TO.N,unconnected-(J8-Pin_32-Pad32)*%
X109825200Y-104127200D03*
%TO.P,J8,33,Pin_33*%
%TO.N,/FTDI_RX*%
X107285200Y-101587200D03*
%TO.P,J8,34,Pin_34*%
%TO.N,unconnected-(J8-Pin_34-Pad34)*%
X107285200Y-104127200D03*
%TO.P,J8,35,Pin_35*%
%TO.N,unconnected-(J8-Pin_35-Pad35)*%
X104745200Y-101587200D03*
%TO.P,J8,36,Pin_36*%
%TO.N,/FTDI_TX*%
X104745200Y-104127200D03*
%TO.P,J8,37,Pin_37*%
%TO.N,unconnected-(J8-Pin_37-Pad37)*%
X102205200Y-101587200D03*
%TO.P,J8,38,Pin_38*%
%TO.N,/SW_MODE*%
X102205200Y-104127200D03*
%TO.P,J8,39,Pin_39*%
%TO.N,unconnected-(J8-Pin_39-Pad39)*%
X99665200Y-101587200D03*
%TO.P,J8,40,Pin_40*%
%TO.N,/SW_RUN_STOP*%
X99665200Y-104127200D03*
%TO.P,J8,41,Pin_41*%
%TO.N,unconnected-(J8-Pin_41-Pad41)*%
X97125200Y-101587200D03*
%TO.P,J8,42,Pin_42*%
%TO.N,unconnected-(J8-Pin_42-Pad42)*%
X97125200Y-104127200D03*
%TO.P,J8,43,Pin_43*%
%TO.N,unconnected-(J8-Pin_43-Pad43)*%
X94585200Y-101587200D03*
%TO.P,J8,44,Pin_44*%
%TO.N,unconnected-(J8-Pin_44-Pad44)*%
X94585200Y-104127200D03*
%TO.P,J8,45,Pin_45*%
%TO.N,unconnected-(J8-Pin_45-Pad45)*%
X92045200Y-101587200D03*
%TO.P,J8,46,Pin_46*%
%TO.N,unconnected-(J8-Pin_46-Pad46)*%
X92045200Y-104127200D03*
%TO.P,J8,47,Pin_47*%
%TO.N,unconnected-(J8-Pin_47-Pad47)*%
X89505200Y-101587200D03*
%TO.P,J8,48,Pin_48*%
%TO.N,unconnected-(J8-Pin_48-Pad48)*%
X89505200Y-104127200D03*
%TO.P,J8,49,Pin_49*%
%TO.N,GND*%
X86965200Y-101587200D03*
%TO.P,J8,50,Pin_50*%
X86965200Y-104127200D03*
%TD*%
D37*
%TO.N,/FTDI_RX*%
X102489000Y-99314000D03*
X104165400Y-99314000D03*
%TO.N,GND*%
X151942800Y-85623400D03*
X98223400Y-80010000D03*
X139674600Y-67919600D03*
X140360400Y-78663800D03*
X100364600Y-95968400D03*
X99123500Y-88709500D03*
X127355600Y-74879200D03*
X98513900Y-85458300D03*
X127152400Y-87401400D03*
X152908000Y-80949800D03*
X160147000Y-86614000D03*
X86309200Y-88849200D03*
X145211800Y-86791800D03*
X95834200Y-73964800D03*
X101449200Y-81178400D03*
X98933200Y-93889500D03*
%TO.N,Net-(U2A--)*%
X154813000Y-97307400D03*
X156286200Y-97332800D03*
%TO.N,Net-(R56-Pad2)*%
X154863800Y-95326200D03*
X156311600Y-95326200D03*
%TO.N,+5V*%
X125577600Y-73990200D03*
X125552200Y-70789800D03*
%TO.N,/MODE*%
X101117400Y-91211400D03*
X99771200Y-91211400D03*
%TO.N,VCC*%
X156133800Y-70053200D03*
X137617200Y-66751200D03*
X156159200Y-72694800D03*
X137617200Y-65278000D03*
%TO.N,VEE*%
X137185400Y-79654400D03*
X144145000Y-83997800D03*
X144068800Y-87757000D03*
X133350000Y-78003400D03*
%TD*%
D38*
%TO.N,/FTDI_RX*%
X107285200Y-100249400D02*
X107285200Y-101587200D01*
X106349800Y-99314000D02*
X107285200Y-100249400D01*
X104165400Y-99314000D02*
X106349800Y-99314000D01*
X91770200Y-99314000D02*
X102489000Y-99314000D01*
X91313000Y-98856800D02*
X91770200Y-99314000D01*
X91313000Y-95427800D02*
X91313000Y-98856800D01*
%TO.N,/FTDI_TX*%
X103428800Y-102810800D02*
X104745200Y-104127200D01*
X103428800Y-99060000D02*
X103428800Y-102810800D01*
X102438200Y-98069400D02*
X103428800Y-99060000D01*
X93853000Y-95427800D02*
X96494600Y-98069400D01*
X96494600Y-98069400D02*
X102438200Y-98069400D01*
X93954600Y-95326200D02*
X93853000Y-95427800D01*
X96596200Y-90424000D02*
X93954600Y-93065600D01*
X96596200Y-89683900D02*
X96596200Y-90424000D01*
X93954600Y-93065600D02*
X93954600Y-95326200D01*
%TO.N,/FTDI_RX*%
X91313000Y-91871800D02*
X91313000Y-95427800D01*
X92151200Y-91033600D02*
X91313000Y-91871800D01*
X95046800Y-90220800D02*
X94234000Y-91033600D01*
X95046800Y-88798400D02*
X95046800Y-90220800D01*
X95326200Y-88519000D02*
X95046800Y-88798400D01*
X98171000Y-88519000D02*
X95326200Y-88519000D01*
X98501200Y-88849200D02*
X98171000Y-88519000D01*
X94234000Y-91033600D02*
X92151200Y-91033600D01*
X98501200Y-89683900D02*
X98501200Y-88849200D01*
%TO.N,Net-(U1A--)*%
X125612400Y-72466200D02*
X127746000Y-72466200D01*
X130070700Y-72436900D02*
X130108200Y-72399400D01*
X127746000Y-72466200D02*
X127775300Y-72436900D01*
X132780000Y-72399400D02*
X132840200Y-72339200D01*
X127775300Y-72436900D02*
X130070700Y-72436900D01*
X130108200Y-72399400D02*
X132780000Y-72399400D01*
%TO.N,GND*%
X94783400Y-73964800D02*
X95834200Y-73964800D01*
X101443700Y-81183900D02*
X101449200Y-81178400D01*
X98501200Y-85445600D02*
X98513900Y-85458300D01*
X139680100Y-68986400D02*
X139680100Y-67925100D01*
X86316000Y-88842400D02*
X86309200Y-88849200D01*
X98501200Y-84483900D02*
X98501200Y-85445600D01*
X139680100Y-67925100D02*
X139674600Y-67919600D01*
X160147000Y-86614000D02*
X160147000Y-85607400D01*
X101443700Y-82219800D02*
X101443700Y-81183900D01*
X140344400Y-77716200D02*
X140344400Y-78647800D01*
X153826300Y-80949800D02*
X152908000Y-80949800D01*
X127203200Y-87452200D02*
X127152400Y-87401400D01*
X98933200Y-93889500D02*
X97880500Y-93889500D01*
X98223400Y-80010000D02*
X97337900Y-80010000D01*
X99136200Y-89683900D02*
X99136200Y-88722200D01*
X160147000Y-85607400D02*
X160156400Y-85598000D01*
X127381000Y-74853800D02*
X127355600Y-74879200D01*
X145211800Y-86791800D02*
X146155500Y-86791800D01*
X128283300Y-74853800D02*
X127381000Y-74853800D01*
X151942800Y-85623400D02*
X150647400Y-85623400D01*
X140344400Y-78647800D02*
X140360400Y-78663800D01*
X100364600Y-95968400D02*
X100364600Y-94961400D01*
X99136200Y-88722200D02*
X99123500Y-88709500D01*
X100364600Y-94961400D02*
X100380800Y-94945200D01*
X128073400Y-87452200D02*
X127203200Y-87452200D01*
X87405800Y-88842400D02*
X86316000Y-88842400D01*
X97880500Y-93889500D02*
X97866200Y-93903800D01*
%TO.N,/SW_CURSOR*%
X114905200Y-109121000D02*
X114404000Y-109622200D01*
X120904000Y-109622200D02*
X114404000Y-109622200D01*
X114905200Y-104127200D02*
X114905200Y-109121000D01*
%TO.N,Net-(J1-Pin_1)*%
X132840200Y-71069200D02*
X132840200Y-70131200D01*
X136956800Y-66014600D02*
X141706600Y-66014600D01*
X136819800Y-84389600D02*
X135229600Y-82799400D01*
X132170400Y-70399400D02*
X132840200Y-71069200D01*
X132840200Y-70131200D02*
X136956800Y-66014600D01*
X127812800Y-70399400D02*
X127775300Y-70361900D01*
X135229600Y-82799400D02*
X135229600Y-72313800D01*
X130108200Y-70399400D02*
X127812800Y-70399400D01*
X135229600Y-72313800D02*
X133985000Y-71069200D01*
X141986000Y-66294000D02*
X141986000Y-67148200D01*
X141986000Y-67148200D02*
X142062200Y-67224400D01*
X133985000Y-71069200D02*
X132840200Y-71069200D01*
X130108200Y-70399400D02*
X132170400Y-70399400D01*
X141706600Y-66014600D02*
X141986000Y-66294000D01*
%TO.N,Net-(U1B-+)*%
X140208000Y-73634600D02*
X140344400Y-73771000D01*
X140344400Y-73771000D02*
X140344400Y-75641200D01*
X137790200Y-74879200D02*
X139582400Y-74879200D01*
X139582400Y-74879200D02*
X140344400Y-75641200D01*
%TO.N,Net-(J1-Pin_3)*%
X141899800Y-81701800D02*
X141899800Y-84389600D01*
X139230700Y-72339200D02*
X140094300Y-71475600D01*
X137790200Y-72339200D02*
X139230700Y-72339200D01*
X141122400Y-80924400D02*
X141899800Y-81701800D01*
X136626600Y-73609200D02*
X136017000Y-74218800D01*
X137790200Y-72339200D02*
X137790200Y-73609200D01*
X136017000Y-79654400D02*
X137287000Y-80924400D01*
X137287000Y-80924400D02*
X141122400Y-80924400D01*
X137790200Y-73609200D02*
X136626600Y-73609200D01*
X136017000Y-74218800D02*
X136017000Y-79654400D01*
%TO.N,Net-(C3-Pad1)*%
X142062200Y-71368500D02*
X142169300Y-71475600D01*
X142062200Y-69224400D02*
X142062200Y-71368500D01*
X142208000Y-71514300D02*
X142169300Y-71475600D01*
X142208000Y-73634600D02*
X142208000Y-71514300D01*
%TO.N,Net-(U2B--)*%
X155622800Y-85598000D02*
X155597400Y-85623400D01*
X160131000Y-83299900D02*
X160193900Y-83362800D01*
X158156400Y-85598000D02*
X155622800Y-85598000D01*
X160131000Y-81076800D02*
X160131000Y-83299900D01*
X160193900Y-83362800D02*
X160193900Y-83560500D01*
X160193900Y-83560500D02*
X158156400Y-85598000D01*
%TO.N,Net-(C4-Pad2)*%
X158140400Y-78333600D02*
X158131000Y-78343000D01*
X158118900Y-81088900D02*
X158131000Y-81076800D01*
X155597400Y-84353400D02*
X157128300Y-84353400D01*
X157128300Y-84353400D02*
X158118900Y-83362800D01*
X158131000Y-78343000D02*
X158131000Y-81076800D01*
X158118900Y-83362800D02*
X158118900Y-81088900D01*
%TO.N,Net-(J1-Pin_2)*%
X144881600Y-84378800D02*
X146132800Y-84378800D01*
X143662400Y-86817200D02*
X144246600Y-86233000D01*
X139359800Y-86273800D02*
X139903200Y-86817200D01*
X144246600Y-86233000D02*
X144246600Y-85013800D01*
X139359800Y-84389600D02*
X139359800Y-86273800D01*
X146132800Y-84378800D02*
X146209000Y-84455000D01*
X139903200Y-86817200D02*
X143662400Y-86817200D01*
X144246600Y-85013800D02*
X144881600Y-84378800D01*
%TO.N,Net-(J4-Pin_3)*%
X171145200Y-111683800D02*
X171145200Y-113949200D01*
X160426400Y-109550200D02*
X161950400Y-111074200D01*
X170535600Y-111074200D02*
X171145200Y-111683800D01*
X161950400Y-111074200D02*
X170535600Y-111074200D01*
%TO.N,Net-(J4-Pin_2)*%
X160274000Y-107162600D02*
X160426400Y-107010200D01*
X155575000Y-93176600D02*
X155575000Y-104902000D01*
X155575000Y-104902000D02*
X157835600Y-107162600D01*
X157835600Y-107162600D02*
X160274000Y-107162600D01*
%TO.N,Net-(J9-Pad1)*%
X158140400Y-76333600D02*
X158140400Y-72771000D01*
X158140400Y-72771000D02*
X161137600Y-69773800D01*
X169773600Y-69773800D02*
X169799000Y-69748400D01*
X161137600Y-69773800D02*
X169773600Y-69773800D01*
%TO.N,Net-(R1-Pad2)*%
X94783400Y-71964800D02*
X94783400Y-67802000D01*
X97568000Y-69926200D02*
X95529400Y-71964800D01*
X94783400Y-67802000D02*
X94656400Y-67675000D01*
X95529400Y-71964800D02*
X94783400Y-71964800D01*
%TO.N,Net-(R3-Pad2)*%
X99568000Y-68598800D02*
X99568000Y-69926200D01*
X98568000Y-67598800D02*
X99568000Y-68598800D01*
X99568000Y-69926200D02*
X101555800Y-69926200D01*
%TO.N,Net-(R28-Pad1)*%
X103555800Y-69926200D02*
X103555800Y-68598800D01*
X105594400Y-69951600D02*
X103581200Y-69951600D01*
X103581200Y-69951600D02*
X103555800Y-69926200D01*
X103555800Y-68598800D02*
X102555800Y-67598800D01*
%TO.N,Net-(R28-Pad2)*%
X107594400Y-69951600D02*
X107594400Y-68573400D01*
X109566200Y-69944400D02*
X107601600Y-69944400D01*
X107601600Y-69944400D02*
X107594400Y-69951600D01*
X107594400Y-68573400D02*
X106594400Y-67573400D01*
%TO.N,Net-(R30-Pad2)*%
X111624200Y-70002400D02*
X111566200Y-69944400D01*
X113620800Y-70002400D02*
X111624200Y-70002400D01*
X111566200Y-69944400D02*
X111566200Y-68548000D01*
X111566200Y-68548000D02*
X110464600Y-67446400D01*
%TO.N,Net-(R32-Pad2)*%
X115620800Y-68522600D02*
X114493800Y-67395600D01*
X117634000Y-70002400D02*
X115620800Y-70002400D01*
X115620800Y-70002400D02*
X115620800Y-68522600D01*
%TO.N,Net-(R45-Pad2)*%
X121698000Y-70002400D02*
X119634000Y-70002400D01*
X119634000Y-68538600D02*
X118541800Y-67446400D01*
X119634000Y-70002400D02*
X119634000Y-68538600D01*
%TO.N,Net-(R47-Pad1)*%
X123612400Y-72466200D02*
X123612400Y-70088000D01*
X123698000Y-68497200D02*
X123698000Y-70002400D01*
X122647200Y-67446400D02*
X123698000Y-68497200D01*
X123612400Y-70088000D02*
X123698000Y-70002400D01*
%TO.N,Net-(R49-Pad2)*%
X125120400Y-83635600D02*
X124780800Y-83296000D01*
X125120400Y-87436200D02*
X125120400Y-83635600D01*
%TO.N,Net-(R50-Pad1)*%
X129860800Y-83296000D02*
X129860800Y-87239600D01*
X129860800Y-87239600D02*
X130073400Y-87452200D01*
%TO.N,Net-(U2A--)*%
X152044400Y-88036400D02*
X152857200Y-87223600D01*
X167253000Y-97307400D02*
X166014400Y-97307400D01*
X154279600Y-97307400D02*
X152044400Y-95072200D01*
X168746800Y-95813600D02*
X167253000Y-97307400D01*
X152857200Y-87223600D02*
X152857200Y-84734400D01*
X154813000Y-97307400D02*
X154279600Y-97307400D01*
X152044400Y-95072200D02*
X152044400Y-88036400D01*
X152857200Y-84734400D02*
X152476200Y-84353400D01*
X156311600Y-97307400D02*
X156286200Y-97332800D01*
X152476200Y-84353400D02*
X150647400Y-84353400D01*
X166014400Y-97307400D02*
X156311600Y-97307400D01*
X150545800Y-84455000D02*
X150647400Y-84353400D01*
X148209000Y-84455000D02*
X150545800Y-84455000D01*
%TO.N,Net-(R56-Pad2)*%
X170688000Y-94005400D02*
X160401000Y-94005400D01*
X153584400Y-88976200D02*
X153584400Y-84013800D01*
X152781000Y-83210400D02*
X150774400Y-83210400D01*
X171246800Y-94564200D02*
X170688000Y-94005400D01*
X154863800Y-95326200D02*
X153584400Y-94046800D01*
X159385000Y-95021400D02*
X159080200Y-95326200D01*
X150774400Y-83210400D02*
X150647400Y-83083400D01*
X159080200Y-95326200D02*
X156311600Y-95326200D01*
X171246800Y-95813600D02*
X171246800Y-94564200D01*
X153584400Y-94046800D02*
X153584400Y-88976200D01*
X160401000Y-94005400D02*
X159385000Y-95021400D01*
X173746800Y-95813600D02*
X171246800Y-95813600D01*
X153584400Y-84013800D02*
X152781000Y-83210400D01*
%TO.N,Net-(U2B-+)*%
X155575000Y-88985600D02*
X155584400Y-88976200D01*
X155575000Y-91176600D02*
X155575000Y-88985600D01*
X155584400Y-86906400D02*
X155597400Y-86893400D01*
X155584400Y-88976200D02*
X155584400Y-86906400D01*
%TO.N,Net-(U1A-+)*%
X128397000Y-78917800D02*
X127320800Y-79994000D01*
X134086600Y-73609200D02*
X134493000Y-74015600D01*
X132840200Y-73609200D02*
X134086600Y-73609200D01*
X134493000Y-77825600D02*
X133400800Y-78917800D01*
X127320800Y-79994000D02*
X127320800Y-83296000D01*
X133400800Y-78917800D02*
X128397000Y-78917800D01*
X134493000Y-74015600D02*
X134493000Y-77825600D01*
%TO.N,+5V*%
X132384800Y-58140600D02*
X132257800Y-58267600D01*
X145410600Y-50787200D02*
X145410600Y-53327200D01*
X96164400Y-37134800D02*
X96164400Y-43614902D01*
X145410600Y-57078200D02*
X144348200Y-58140600D01*
X123825000Y-36322000D02*
X123825000Y-37160200D01*
X145410600Y-50787200D02*
X145415000Y-50782800D01*
X96164400Y-36118800D02*
X96647000Y-35636200D01*
X96647000Y-35636200D02*
X123139200Y-35636200D01*
X145415000Y-50782800D02*
X145415000Y-38506400D01*
X145410600Y-53327200D02*
X145410600Y-57078200D01*
X145415000Y-38506400D02*
X142544800Y-35636200D01*
X96164400Y-37134800D02*
X96164400Y-36118800D01*
X123139200Y-35636200D02*
X123825000Y-36322000D01*
X96164400Y-43614902D02*
X96134902Y-43644400D01*
X144348200Y-58140600D02*
X132384800Y-58140600D01*
X123120400Y-80155800D02*
X123120400Y-87436200D01*
X125577600Y-73990200D02*
X125577600Y-77698600D01*
X125552200Y-64973200D02*
X125552200Y-70789800D01*
X132257800Y-58267600D02*
X125552200Y-64973200D01*
X142544800Y-35636200D02*
X123139200Y-35636200D01*
X125577600Y-77698600D02*
X123120400Y-80155800D01*
%TO.N,Net-(D3-A)*%
X95338300Y-80060400D02*
X95287900Y-80010000D01*
X95338300Y-82245200D02*
X95338300Y-80060400D01*
%TO.N,Net-(D4-A)*%
X102431200Y-92786200D02*
X102431200Y-94944800D01*
X102431200Y-94944800D02*
X102430800Y-94945200D01*
%TO.N,Net-(U5-CBUS1)*%
X97866200Y-84483900D02*
X97866200Y-82773100D01*
X97866200Y-82773100D02*
X97338300Y-82245200D01*
%TO.N,Net-(U5-CBUS2)*%
X100431200Y-92786200D02*
X100431200Y-89708900D01*
X100406200Y-92761200D02*
X100431200Y-92786200D01*
X100431200Y-89708900D02*
X100406200Y-89683900D01*
%TO.N,FTDI_VCC*%
X99136200Y-82452300D02*
X99368700Y-82219800D01*
X91338400Y-78232000D02*
X98425000Y-78232000D01*
X90195400Y-84912200D02*
X90195400Y-79375000D01*
X99314000Y-79121000D02*
X99314000Y-82165100D01*
X88865200Y-86242400D02*
X90195400Y-84912200D01*
X90195400Y-79375000D02*
X91338400Y-78232000D01*
X99136200Y-84483900D02*
X99136200Y-82452300D01*
X87405800Y-86242400D02*
X88865200Y-86242400D01*
X98425000Y-78232000D02*
X99314000Y-79121000D01*
X99314000Y-82165100D02*
X99368700Y-82219800D01*
D39*
%TO.N,/FTDI_D+*%
X100618500Y-87385100D02*
X101015800Y-87782400D01*
X95538301Y-87385100D02*
X100618500Y-87385100D01*
X101015800Y-89658500D02*
X101041200Y-89683900D01*
X93710000Y-88163400D02*
X94760001Y-88163400D01*
X101015800Y-87782400D02*
X101015800Y-89658500D01*
X94760001Y-88163400D02*
X95538301Y-87385100D01*
%TO.N,/FTDI_D-*%
X94760001Y-86156800D02*
X95538301Y-86935100D01*
X100643900Y-86935100D02*
X101015800Y-86563200D01*
X95538301Y-86935100D02*
X100643900Y-86935100D01*
X93710000Y-86156800D02*
X94760001Y-86156800D01*
X101015800Y-86563200D02*
X101015800Y-84509300D01*
X101015800Y-84509300D02*
X101041200Y-84483900D01*
D38*
%TO.N,/MODE*%
X101879400Y-90754200D02*
X101422200Y-91211400D01*
X97866200Y-91828800D02*
X97866200Y-89683900D01*
X100558600Y-83464400D02*
X101854000Y-83464400D01*
X101854000Y-83464400D02*
X102057200Y-83667600D01*
X102057200Y-90576400D02*
X101879400Y-90754200D01*
X102057200Y-83667600D02*
X102057200Y-90576400D01*
X100406200Y-84483900D02*
X100406200Y-83616800D01*
X101422200Y-91211400D02*
X101117400Y-91211400D01*
X100406200Y-84483900D02*
X99771200Y-84483900D01*
X99771200Y-91211400D02*
X98483600Y-91211400D01*
X100406200Y-83616800D02*
X100558600Y-83464400D01*
X98483600Y-91211400D02*
X97866200Y-91828800D01*
%TO.N,/E*%
X106294902Y-43644400D02*
X106294902Y-46909702D01*
X126288800Y-48006000D02*
X127630600Y-49347800D01*
X127630600Y-49347800D02*
X127630600Y-50787200D01*
X106294902Y-46909702D02*
X107391200Y-48006000D01*
X107391200Y-48006000D02*
X126288800Y-48006000D01*
%TO.N,/RS*%
X126288800Y-49961800D02*
X126288800Y-51985400D01*
X125095000Y-48768000D02*
X126288800Y-49961800D01*
X101214902Y-47951102D02*
X102031800Y-48768000D01*
X126288800Y-51985400D02*
X127630600Y-53327200D01*
X102031800Y-48768000D02*
X125095000Y-48768000D01*
X101214902Y-43644400D02*
X101214902Y-47951102D01*
%TO.N,/D4*%
X128879600Y-52036200D02*
X130170600Y-53327200D01*
X127584200Y-47345600D02*
X128879600Y-48641000D01*
X118994902Y-43644400D02*
X118994902Y-46249302D01*
X118994902Y-46249302D02*
X120091200Y-47345600D01*
X120091200Y-47345600D02*
X127584200Y-47345600D01*
X128879600Y-48641000D02*
X128879600Y-52036200D01*
%TO.N,/A*%
X126365000Y-37160200D02*
X128905000Y-37160200D01*
X128905000Y-43394498D02*
X129154902Y-43644400D01*
X128905000Y-37160200D02*
X128905000Y-43394498D01*
%TO.N,/D6*%
X124764800Y-45999400D02*
X129438400Y-45999400D01*
X129438400Y-45999400D02*
X131445000Y-48006000D01*
X124074902Y-43644400D02*
X124074902Y-45309502D01*
X131445000Y-48006000D02*
X131445000Y-52061600D01*
X124074902Y-45309502D02*
X124764800Y-45999400D01*
X131445000Y-52061600D02*
X132710600Y-53327200D01*
%TO.N,/D5*%
X130170600Y-48535000D02*
X130170600Y-50787200D01*
X121534902Y-43644400D02*
X121534902Y-45792102D01*
X122351800Y-46609000D02*
X128244600Y-46609000D01*
X121534902Y-45792102D02*
X122351800Y-46609000D01*
X128244600Y-46609000D02*
X130170600Y-48535000D01*
%TO.N,/D7*%
X126614902Y-43644400D02*
X126614902Y-44674502D01*
X132710600Y-46553800D02*
X132710600Y-50787200D01*
X126614902Y-44674502D02*
X127152400Y-45212000D01*
X127152400Y-45212000D02*
X131368800Y-45212000D01*
X131368800Y-45212000D02*
X132710600Y-46553800D01*
%TO.N,Net-(J5-Pin_3)*%
X98704400Y-37134800D02*
X98704400Y-43614902D01*
X98704400Y-43614902D02*
X98674902Y-43644400D01*
%TO.N,/SW_MODE*%
X102205200Y-107888200D02*
X103863000Y-109546000D01*
X102205200Y-104127200D02*
X102205200Y-107888200D01*
X110363000Y-109546000D02*
X103863000Y-109546000D01*
%TO.N,/SW_PLUS*%
X125065200Y-104127200D02*
X125065200Y-109615400D01*
X131673600Y-109723800D02*
X125173600Y-109723800D01*
X125065200Y-109615400D02*
X125173600Y-109723800D01*
%TO.N,/SW_MINUS*%
X135867000Y-109800000D02*
X135225200Y-109158200D01*
X135225200Y-109158200D02*
X135225200Y-104127200D01*
X135867000Y-109800000D02*
X142367000Y-109800000D01*
%TO.N,/SW_RUN_STOP*%
X99665200Y-109474200D02*
X99593400Y-109546000D01*
X99593400Y-109546000D02*
X93093400Y-109546000D01*
X99665200Y-104127200D02*
X99665200Y-109474200D01*
%TO.N,VCC*%
X156159200Y-72694800D02*
X156159200Y-80691900D01*
X169748200Y-116459000D02*
X178054000Y-116459000D01*
X156159200Y-80691900D02*
X155901300Y-80949800D01*
X156083000Y-70002400D02*
X156133800Y-70053200D01*
X156083000Y-37236400D02*
X156083000Y-61620400D01*
X155901300Y-80949800D02*
X155901300Y-82779500D01*
X179882800Y-114630200D02*
X179882800Y-47752000D01*
X178054000Y-116459000D02*
X179882800Y-114630200D01*
X157784800Y-35534600D02*
X156083000Y-37236400D01*
X168645200Y-113949200D02*
X168645200Y-115356000D01*
X137605100Y-68986400D02*
X137790200Y-69171500D01*
X179882800Y-47752000D02*
X167665400Y-35534600D01*
X137605100Y-68986400D02*
X137617200Y-68974300D01*
X153670000Y-64033400D02*
X156083000Y-61620400D01*
X137617200Y-68974300D02*
X137617200Y-66751200D01*
X137617200Y-65278000D02*
X138861800Y-64033400D01*
X167665400Y-35534600D02*
X157784800Y-35534600D01*
X138861800Y-64033400D02*
X153670000Y-64033400D01*
X137790200Y-69171500D02*
X137790200Y-71069200D01*
X156083000Y-61620400D02*
X156083000Y-70002400D01*
X155901300Y-82779500D02*
X155597400Y-83083400D01*
X168645200Y-115356000D02*
X169748200Y-116459000D01*
%TO.N,VEE*%
X161163000Y-66471800D02*
X155930600Y-71704200D01*
X148230500Y-87887900D02*
X147345400Y-88773000D01*
X133350000Y-78003400D02*
X133350000Y-77845500D01*
X147929600Y-79705200D02*
X146177000Y-79705200D01*
X130358300Y-74853800D02*
X132814800Y-74853800D01*
X148230500Y-86791800D02*
X150545800Y-86791800D01*
X178739800Y-49657000D02*
X178739800Y-113131600D01*
X132814800Y-74853800D02*
X132840200Y-74879200D01*
X146177000Y-79705200D02*
X137236200Y-79705200D01*
X144145000Y-83997800D02*
X144145000Y-81737200D01*
X166319200Y-37236400D02*
X178739800Y-49657000D01*
X147345400Y-88773000D02*
X145084800Y-88773000D01*
X161163000Y-37236400D02*
X166319200Y-37236400D01*
X145084800Y-88773000D02*
X144068800Y-87757000D01*
X155930600Y-71704200D02*
X147929600Y-79705200D01*
X148230500Y-86791800D02*
X148230500Y-87887900D01*
X177922200Y-113949200D02*
X173645200Y-113949200D01*
X161163000Y-37236400D02*
X161163000Y-66471800D01*
X137236200Y-79705200D02*
X137185400Y-79654400D01*
X178739800Y-113131600D02*
X177922200Y-113949200D01*
X150545800Y-86791800D02*
X150647400Y-86893400D01*
X133350000Y-77845500D02*
X130358300Y-74853800D01*
X144145000Y-81737200D02*
X146177000Y-79705200D01*
%TO.N,DAC_1*%
X98568000Y-65598800D02*
X98568000Y-62069800D01*
X98568000Y-62069800D02*
X107310600Y-53327200D01*
%TO.N,DAC_0*%
X103428800Y-55295800D02*
X103428800Y-52129000D01*
X94656400Y-64068200D02*
X103428800Y-55295800D01*
X94656400Y-65675000D02*
X94656400Y-64068200D01*
X103428800Y-52129000D02*
X104770600Y-50787200D01*
%TO.N,DAC_2*%
X102555800Y-60639200D02*
X108508800Y-54686200D01*
X102555800Y-65598800D02*
X102555800Y-60639200D01*
X108508800Y-54686200D02*
X108508800Y-51985400D01*
X108508800Y-51985400D02*
X107310600Y-50787200D01*
%TO.N,DAC_3*%
X106594400Y-65573400D02*
X106594400Y-59470800D01*
X109850600Y-56214600D02*
X109850600Y-53327200D01*
X106594400Y-59470800D02*
X109850600Y-56214600D01*
%TO.N,DAC_4*%
X111074200Y-58013600D02*
X111074200Y-52010800D01*
X110464600Y-65446400D02*
X110464600Y-58623200D01*
X111074200Y-52010800D02*
X109850600Y-50787200D01*
X110464600Y-58623200D02*
X111074200Y-58013600D01*
%TO.N,DAC_5*%
X112420400Y-56464200D02*
X112420400Y-53357000D01*
X114493800Y-65395600D02*
X114493800Y-58537600D01*
X112420400Y-53357000D02*
X112390600Y-53327200D01*
X114493800Y-58537600D02*
X112420400Y-56464200D01*
%TO.N,DAC_6*%
X113690400Y-52087000D02*
X113690400Y-55499000D01*
X112390600Y-50787200D02*
X113690400Y-52087000D01*
X118541800Y-60350400D02*
X118541800Y-65446400D01*
X113690400Y-55499000D02*
X118541800Y-60350400D01*
%TO.N,DAC_7*%
X122647200Y-65446400D02*
X122647200Y-61043800D01*
X122647200Y-61043800D02*
X114930600Y-53327200D01*
%TO.N,+3V0*%
X142870600Y-50787200D02*
X142870600Y-53327200D01*
D39*
%TO.N,/D+*%
X90831700Y-87385100D02*
X91610000Y-88163400D01*
X90094706Y-87385100D02*
X90831700Y-87385100D01*
X88418301Y-87542400D02*
X88518301Y-87442400D01*
X91610000Y-88163400D02*
X91710000Y-88163400D01*
X87405800Y-87542400D02*
X88418301Y-87542400D01*
X90037406Y-87442400D02*
X90094706Y-87385100D01*
X88518301Y-87442400D02*
X90037406Y-87442400D01*
%TO.N,/D-*%
X89865200Y-86992400D02*
X89922500Y-86935100D01*
X89922500Y-86935100D02*
X90831700Y-86935100D01*
X91610000Y-86156800D02*
X91710000Y-86156800D01*
X87405800Y-86892400D02*
X88418301Y-86892400D01*
X88418301Y-86892400D02*
X88518301Y-86992400D01*
X90831700Y-86935100D02*
X91610000Y-86156800D01*
X88518301Y-86992400D02*
X89865200Y-86992400D01*
%TD*%
M02*
