M48
; DRILL file {KiCad 9.0.4} date 2026-02-02T00:24:01-0700
; FORMAT={-:-/ absolute / inch / decimal}
; #@! TF.CreationDate,2026-02-02T00:24:01-07:00
; #@! TF.GenerationSoftware,Kicad,Pcbnew,9.0.4
; #@! TF.FileFunction,Plated,1,2,PTH
FMAT,2
INCH
; #@! TA.AperFunction,Plated,PTH,ComponentDrill
T1C0.0157
; #@! TA.AperFunction,Plated,PTH,ComponentDrill
T2C0.0315
; #@! TA.AperFunction,Plated,PTH,ComponentDrill
T3C0.0394
; #@! TA.AperFunction,Plated,PTH,ComponentDrill
T4C0.0433
%
G90
G05
T2
X4.413Y-2.474
X4.413Y-2.574
X4.4146Y-2.2091
X4.4146Y-2.3091
X4.5638Y-3.5992
X4.5701Y-2.474
X4.5701Y-2.574
X4.5705Y-2.2098
X4.5705Y-2.3098
X4.6128Y-3.289
X4.6638Y-3.5992
X4.7128Y-3.189
X4.7128Y-3.389
X4.7256Y-2.4724
X4.7256Y-2.5724
X4.7264Y-2.2098
X4.7264Y-2.3098
X4.7882Y-3.5972
X4.8118Y-2.8244
X4.8118Y-2.9244
X4.8846Y-2.2091
X4.8846Y-2.3091
X4.8846Y-2.4728
X4.8846Y-2.5728
X4.8882Y-3.5972
X4.9748Y-2.9228
X4.9748Y-3.0228
X5.0445Y-2.2079
X5.0445Y-2.3079
X5.0453Y-2.4732
X5.0453Y-2.5732
X5.1138Y-2.9173
X5.1138Y-3.0157
X5.2039Y-2.2079
X5.2039Y-2.3079
X5.2039Y-2.4713
X5.2039Y-2.5713
X5.248Y-2.9201
X5.248Y-3.0201
X5.248Y-3.1201
X5.248Y-3.2201
X5.2876Y-3.4413
X5.2876Y-3.6413
X5.3402Y-2.763
X5.365Y-2.2091
X5.365Y-2.3091
X5.3681Y-2.4728
X5.3681Y-2.5728
X5.3876Y-3.5413
X5.4402Y-2.763
X5.5256Y-2.4732
X5.5256Y-2.5732
X5.5264Y-2.2106
X5.5264Y-2.3106
X5.548Y-2.9201
X5.548Y-3.0201
X5.548Y-3.1201
X5.548Y-3.2201
X5.6815Y-2.2102
X5.6815Y-2.3102
X5.6839Y-2.4744
X5.6839Y-2.5744
X5.7285Y-3.4413
X5.7285Y-3.6413
X5.7563Y-2.9176
X5.7563Y-3.016
X5.8285Y-3.5413
X5.8394Y-2.2106
X5.8394Y-2.3106
X5.8402Y-2.4437
X5.8402Y-2.5437
X6.0323Y-2.1524
X6.0323Y-2.2524
X6.0339Y-2.4728
X6.0339Y-2.5728
T3
X3.5307Y-2.6665
X3.6307Y-2.6665
X3.7307Y-2.6665
X3.7756Y-2.8441
X3.8307Y-2.6665
X3.8756Y-2.8441
X3.9307Y-2.6665
X3.9756Y-2.8441
X4.0307Y-2.6665
X4.0756Y-2.8441
X4.1307Y-2.6665
X4.2307Y-2.6665
X4.677Y-1.937
X4.777Y-1.937
X4.877Y-1.937
X4.977Y-1.937
X5.0016Y-3.1925
X5.0016Y-3.2925
X5.0016Y-3.3925
X5.037Y-3.837
X5.077Y-1.937
X5.137Y-3.837
X5.177Y-1.937
X5.237Y-3.837
X5.277Y-1.937
X5.337Y-3.837
X5.377Y-1.937
X5.437Y-3.837
X5.477Y-1.937
X5.537Y-3.837
X5.577Y-1.937
X5.637Y-3.837
X5.737Y-1.937
X5.737Y-3.837
X5.837Y-1.937
X5.937Y-1.937
X5.937Y-3.837
X6.0358Y-2.8315
X6.0358Y-2.9315
X6.0358Y-3.0315
X6.037Y-1.937
X6.037Y-3.837
X6.048Y-3.3346
X6.048Y-3.4346
X6.048Y-3.5346
X6.137Y-1.937
X6.137Y-3.837
X6.237Y-1.937
X6.237Y-3.837
X6.337Y-1.937
X6.337Y-3.837
X6.437Y-1.937
X6.437Y-3.837
T4
X6.1894Y-2.1012
X6.1894Y-2.2783
X6.1894Y-2.4232
X6.1894Y-2.6004
X6.4453Y-2.1012
X6.4453Y-2.2783
X6.4453Y-2.4232
X6.4453Y-2.6004
T1
G00X6.2831Y-2.7295
M15
G01X6.2437Y-2.7295
M16
G05
G00X6.2437Y-3.1232
M15
G01X6.2831Y-3.1232
M16
G05
G00X6.2831Y-3.2496
M15
G01X6.2437Y-3.2496
M16
G05
G00X6.2437Y-3.6433
M15
G01X6.2831Y-3.6433
M16
G05
G00X6.4602Y-2.9461
M15
G01X6.4602Y-2.9067
M16
G05
G00X6.4602Y-3.4661
M15
G01X6.4602Y-3.4268
M16
G05
T2
G00X6.2772Y-2.828
M15
G01X6.2496Y-2.828
M16
G05
G00X6.2496Y-3.0248
M15
G01X6.2772Y-3.0248
M16
G05
G00X6.2772Y-3.348
M15
G01X6.2496Y-3.348
M16
G05
G00X6.2496Y-3.5449
M15
G01X6.2772Y-3.5449
M16
G05
M30
