%TF.GenerationSoftware,KiCad,Pcbnew,9.0.4*%
%TF.CreationDate,2026-02-02T00:24:03-07:00*%
%TF.ProjectId,Uno_Shield_DSP_Class_v1,556e6f5f-5368-4696-956c-645f4453505f,rev?*%
%TF.SameCoordinates,Original*%
%TF.FileFunction,Profile,NP*%
%FSLAX46Y46*%
G04 Gerber Fmt 4.6, Leading zero omitted, Abs format (unit mm)*
G04 Created by KiCad (PCBNEW 9.0.4) date 2026-02-02 00:24:03*
%MOMM*%
%LPD*%
G01*
G04 APERTURE LIST*
%TA.AperFunction,Profile*%
%ADD10C,0.150000*%
%TD*%
%TA.AperFunction,Profile*%
%ADD11C,0.120000*%
%TD*%
G04 APERTURE END LIST*
D10*
X84762000Y-48660000D02*
G75*
G02*
X86762000Y-46660000I2000000J0D01*
G01*
X86762000Y-100000000D02*
G75*
G02*
X84762000Y-98000000I0J2000000D01*
G01*
X168580000Y-98000000D02*
G75*
G02*
X166580000Y-100000000I-2000000J0D01*
G01*
X166580000Y-46670000D02*
G75*
G02*
X168580000Y-48670000I0J-2000000D01*
G01*
X168580000Y-96190000D02*
X168580000Y-98000000D01*
X165278000Y-100000000D02*
X166580000Y-100000000D01*
X163500000Y-46660000D02*
X166580000Y-46670000D01*
X168580000Y-61900000D02*
X168580000Y-48670000D01*
X100762000Y-46660000D02*
X86762000Y-46660000D01*
X168580000Y-96190000D02*
X168590000Y-94040000D01*
X165278000Y-100000000D02*
X100762000Y-100000000D01*
X100762000Y-46660000D02*
X163500000Y-46660000D01*
X168590000Y-67830000D02*
X168580000Y-61900000D01*
X100762000Y-100000000D02*
X86762000Y-100000000D01*
X168590000Y-80830000D02*
X168590000Y-81040000D01*
X84762000Y-98000000D02*
X84762000Y-48660000D01*
D11*
%TO.C,J11*%
X167190000Y-72530000D02*
X167190000Y-76130000D01*
X167590000Y-72130000D02*
X168590000Y-72130000D01*
X167590000Y-76530000D02*
X168590000Y-76530000D01*
X168590000Y-72130000D02*
X168590000Y-67830000D01*
X168590000Y-76530000D02*
X168590000Y-80830000D01*
X167190000Y-72530000D02*
G75*
G02*
X167590000Y-72130000I400000J0D01*
G01*
X167590000Y-76530000D02*
G75*
G02*
X167190000Y-76130000I2J400002D01*
G01*
%TO.C,J10*%
X167190000Y-85740000D02*
X167190000Y-89340000D01*
X167590000Y-85340000D02*
X168590000Y-85340000D01*
X167590000Y-89740000D02*
X168590000Y-89740000D01*
X168590000Y-85340000D02*
X168590000Y-81040000D01*
X168590000Y-89740000D02*
X168590000Y-94040000D01*
X167190000Y-85740000D02*
G75*
G02*
X167590000Y-85340000I400000J0D01*
G01*
X167590000Y-89740000D02*
G75*
G02*
X167190000Y-89340000I2J400002D01*
G01*
%TD*%
M02*
