%TF.GenerationSoftware,KiCad,Pcbnew,8.0.5*%
%TF.CreationDate,2024-11-23T20:35:32-07:00*%
%TF.ProjectId,2024_10_STM32C011J4M6_TestBoard,32303234-5f31-4305-9f53-544d33324330,rev?*%
%TF.SameCoordinates,Original*%
%TF.FileFunction,Paste,Top*%
%TF.FilePolarity,Positive*%
%FSLAX46Y46*%
G04 Gerber Fmt 4.6, Leading zero omitted, Abs format (unit mm)*
G04 Created by KiCad (PCBNEW 8.0.5) date 2024-11-23 20:35:32*
%MOMM*%
%LPD*%
G01*
G04 APERTURE LIST*
G04 Aperture macros list*
%AMRoundRect*
0 Rectangle with rounded corners*
0 $1 Rounding radius*
0 $2 $3 $4 $5 $6 $7 $8 $9 X,Y pos of 4 corners*
0 Add a 4 corners polygon primitive as box body*
4,1,4,$2,$3,$4,$5,$6,$7,$8,$9,$2,$3,0*
0 Add four circle primitives for the rounded corners*
1,1,$1+$1,$2,$3*
1,1,$1+$1,$4,$5*
1,1,$1+$1,$6,$7*
1,1,$1+$1,$8,$9*
0 Add four rect primitives between the rounded corners*
20,1,$1+$1,$2,$3,$4,$5,0*
20,1,$1+$1,$4,$5,$6,$7,0*
20,1,$1+$1,$6,$7,$8,$9,0*
20,1,$1+$1,$8,$9,$2,$3,0*%
G04 Aperture macros list end*
%ADD10C,0.010000*%
%ADD11RoundRect,0.237500X0.250000X0.237500X-0.250000X0.237500X-0.250000X-0.237500X0.250000X-0.237500X0*%
%ADD12RoundRect,0.237500X-0.250000X-0.237500X0.250000X-0.237500X0.250000X0.237500X-0.250000X0.237500X0*%
%ADD13RoundRect,0.237500X0.237500X-0.250000X0.237500X0.250000X-0.237500X0.250000X-0.237500X-0.250000X0*%
%ADD14RoundRect,0.237500X0.300000X0.237500X-0.300000X0.237500X-0.300000X-0.237500X0.300000X-0.237500X0*%
%ADD15R,1.200000X0.400000*%
%ADD16RoundRect,0.237500X-0.300000X-0.237500X0.300000X-0.237500X0.300000X0.237500X-0.300000X0.237500X0*%
%ADD17RoundRect,0.237500X-0.237500X0.250000X-0.237500X-0.250000X0.237500X-0.250000X0.237500X0.250000X0*%
%ADD18RoundRect,0.237500X0.237500X-0.287500X0.237500X0.287500X-0.237500X0.287500X-0.237500X-0.287500X0*%
%ADD19RoundRect,0.375000X0.375000X-0.625000X0.375000X0.625000X-0.375000X0.625000X-0.375000X-0.625000X0*%
%ADD20RoundRect,0.500000X1.400000X-0.500000X1.400000X0.500000X-1.400000X0.500000X-1.400000X-0.500000X0*%
%ADD21RoundRect,0.150000X-0.150000X-0.500000X0.150000X-0.500000X0.150000X0.500000X-0.150000X0.500000X0*%
%ADD22RoundRect,0.075000X-0.075000X-0.575000X0.075000X-0.575000X0.075000X0.575000X-0.075000X0.575000X0*%
%ADD23RoundRect,0.237500X0.287500X0.237500X-0.287500X0.237500X-0.287500X-0.237500X0.287500X-0.237500X0*%
%ADD24RoundRect,0.237500X-0.237500X0.300000X-0.237500X-0.300000X0.237500X-0.300000X0.237500X0.300000X0*%
%ADD25RoundRect,0.150000X0.625000X-0.150000X0.625000X0.150000X-0.625000X0.150000X-0.625000X-0.150000X0*%
%ADD26RoundRect,0.250000X0.650000X-0.350000X0.650000X0.350000X-0.650000X0.350000X-0.650000X-0.350000X0*%
%ADD27RoundRect,0.150000X0.150000X-0.825000X0.150000X0.825000X-0.150000X0.825000X-0.150000X-0.825000X0*%
G04 APERTURE END LIST*
D10*
%TO.C,MT1*%
X117021900Y-69348200D02*
X116571900Y-69348200D01*
X116571900Y-69110200D01*
X117021900Y-69110200D01*
X117021900Y-69348200D01*
G36*
X117021900Y-69348200D02*
G01*
X116571900Y-69348200D01*
X116571900Y-69110200D01*
X117021900Y-69110200D01*
X117021900Y-69348200D01*
G37*
X117021900Y-69848200D02*
X116571900Y-69848200D01*
X116571900Y-69610200D01*
X117021900Y-69610200D01*
X117021900Y-69848200D01*
G36*
X117021900Y-69848200D02*
G01*
X116571900Y-69848200D01*
X116571900Y-69610200D01*
X117021900Y-69610200D01*
X117021900Y-69848200D01*
G37*
X117021900Y-70348200D02*
X116571900Y-70348200D01*
X116571900Y-70110200D01*
X117021900Y-70110200D01*
X117021900Y-70348200D01*
G36*
X117021900Y-70348200D02*
G01*
X116571900Y-70348200D01*
X116571900Y-70110200D01*
X117021900Y-70110200D01*
X117021900Y-70348200D01*
G37*
X117078400Y-68791700D02*
X116840400Y-68791700D01*
X116840400Y-68341700D01*
X117078400Y-68341700D01*
X117078400Y-68791700D01*
G36*
X117078400Y-68791700D02*
G01*
X116840400Y-68791700D01*
X116840400Y-68341700D01*
X117078400Y-68341700D01*
X117078400Y-68791700D01*
G37*
X117078400Y-71116700D02*
X116840400Y-71116700D01*
X116840400Y-70666700D01*
X117078400Y-70666700D01*
X117078400Y-71116700D01*
G36*
X117078400Y-71116700D02*
G01*
X116840400Y-71116700D01*
X116840400Y-70666700D01*
X117078400Y-70666700D01*
X117078400Y-71116700D01*
G37*
X117578400Y-68791700D02*
X117340400Y-68791700D01*
X117340400Y-68341700D01*
X117578400Y-68341700D01*
X117578400Y-68791700D01*
G36*
X117578400Y-68791700D02*
G01*
X117340400Y-68791700D01*
X117340400Y-68341700D01*
X117578400Y-68341700D01*
X117578400Y-68791700D01*
G37*
X117578400Y-71116700D02*
X117340400Y-71116700D01*
X117340400Y-70666700D01*
X117578400Y-70666700D01*
X117578400Y-71116700D01*
G36*
X117578400Y-71116700D02*
G01*
X117340400Y-71116700D01*
X117340400Y-70666700D01*
X117578400Y-70666700D01*
X117578400Y-71116700D01*
G37*
X118078400Y-68791700D02*
X117840400Y-68791700D01*
X117840400Y-68341700D01*
X118078400Y-68341700D01*
X118078400Y-68791700D01*
G36*
X118078400Y-68791700D02*
G01*
X117840400Y-68791700D01*
X117840400Y-68341700D01*
X118078400Y-68341700D01*
X118078400Y-68791700D01*
G37*
X118078400Y-71116700D02*
X117840400Y-71116700D01*
X117840400Y-70666700D01*
X118078400Y-70666700D01*
X118078400Y-71116700D01*
G36*
X118078400Y-71116700D02*
G01*
X117840400Y-71116700D01*
X117840400Y-70666700D01*
X118078400Y-70666700D01*
X118078400Y-71116700D01*
G37*
X118578400Y-68791700D02*
X118340400Y-68791700D01*
X118340400Y-68341700D01*
X118578400Y-68341700D01*
X118578400Y-68791700D01*
G36*
X118578400Y-68791700D02*
G01*
X118340400Y-68791700D01*
X118340400Y-68341700D01*
X118578400Y-68341700D01*
X118578400Y-68791700D01*
G37*
X118578400Y-71116700D02*
X118340400Y-71116700D01*
X118340400Y-70666700D01*
X118578400Y-70666700D01*
X118578400Y-71116700D01*
G36*
X118578400Y-71116700D02*
G01*
X118340400Y-71116700D01*
X118340400Y-70666700D01*
X118578400Y-70666700D01*
X118578400Y-71116700D01*
G37*
X118846900Y-69348200D02*
X118396900Y-69348200D01*
X118396900Y-69110200D01*
X118846900Y-69110200D01*
X118846900Y-69348200D01*
G36*
X118846900Y-69348200D02*
G01*
X118396900Y-69348200D01*
X118396900Y-69110200D01*
X118846900Y-69110200D01*
X118846900Y-69348200D01*
G37*
X118846900Y-69848200D02*
X118396900Y-69848200D01*
X118396900Y-69610200D01*
X118846900Y-69610200D01*
X118846900Y-69848200D01*
G36*
X118846900Y-69848200D02*
G01*
X118396900Y-69848200D01*
X118396900Y-69610200D01*
X118846900Y-69610200D01*
X118846900Y-69848200D01*
G37*
X118846900Y-70348200D02*
X118396900Y-70348200D01*
X118396900Y-70110200D01*
X118846900Y-70110200D01*
X118846900Y-70348200D01*
G36*
X118846900Y-70348200D02*
G01*
X118396900Y-70348200D01*
X118396900Y-70110200D01*
X118846900Y-70110200D01*
X118846900Y-70348200D01*
G37*
%TD*%
D11*
%TO.C,R6*%
X122021900Y-70729200D03*
X120196900Y-70729200D03*
%TD*%
D12*
%TO.C,R5*%
X120171900Y-68254200D03*
X121996900Y-68254200D03*
%TD*%
D13*
%TO.C,R4*%
X117551200Y-85926300D03*
X117551200Y-84101300D03*
%TD*%
D14*
%TO.C,C7*%
X125652700Y-74422000D03*
X123927700Y-74422000D03*
%TD*%
D15*
%TO.C,U2*%
X126094800Y-80804600D03*
X126094800Y-80169600D03*
X126094800Y-79534600D03*
X126094800Y-78899600D03*
X126094800Y-78264600D03*
X126094800Y-77629600D03*
X126094800Y-76994600D03*
X126094800Y-76359600D03*
X120894800Y-76359600D03*
X120894800Y-76994600D03*
X120894800Y-77629600D03*
X120894800Y-78264600D03*
X120894800Y-78899600D03*
X120894800Y-79534600D03*
X120894800Y-80169600D03*
X120894800Y-80804600D03*
%TD*%
D16*
%TO.C,C9*%
X117869100Y-74289100D03*
X119594100Y-74289100D03*
%TD*%
D14*
%TO.C,C5*%
X111327100Y-87884000D03*
X109602100Y-87884000D03*
%TD*%
D17*
%TO.C,R3*%
X130454400Y-84101300D03*
X130454400Y-85926300D03*
%TD*%
D18*
%TO.C,D2*%
X127965200Y-77024200D03*
X127965200Y-75274200D03*
%TD*%
D14*
%TO.C,C1*%
X118769300Y-76835000D03*
X117044300Y-76835000D03*
%TD*%
D19*
%TO.C,U3*%
X109841000Y-85547600D03*
X112141000Y-85547600D03*
D20*
X112141000Y-79247600D03*
D19*
X114441000Y-85547600D03*
%TD*%
D14*
%TO.C,C3*%
X115392200Y-89509600D03*
X113667200Y-89509600D03*
%TD*%
D21*
%TO.C,J3*%
X120828200Y-84494600D03*
X121628200Y-84494600D03*
D22*
X122778200Y-84494600D03*
X123778200Y-84494600D03*
X124278200Y-84494600D03*
X125278200Y-84494600D03*
D21*
X126428200Y-84494600D03*
X127228200Y-84494600D03*
X127228200Y-84494600D03*
X126428200Y-84494600D03*
D22*
X125778200Y-84494600D03*
X124778200Y-84494600D03*
X123278200Y-84494600D03*
X122278200Y-84494600D03*
D21*
X121628200Y-84494600D03*
X120828200Y-84494600D03*
%TD*%
D12*
%TO.C,R1*%
X116994300Y-81178400D03*
X118819300Y-81178400D03*
%TD*%
D16*
%TO.C,C6*%
X111532500Y-76962000D03*
X113257500Y-76962000D03*
%TD*%
D23*
%TO.C,D1*%
X118767800Y-79476600D03*
X117017800Y-79476600D03*
%TD*%
D24*
%TO.C,C10*%
X115017000Y-68917500D03*
X115017000Y-70642500D03*
%TD*%
D14*
%TO.C,C8*%
X116946900Y-72529200D03*
X115221900Y-72529200D03*
%TD*%
D25*
%TO.C,J2*%
X111353600Y-71602600D03*
X111353600Y-70602600D03*
X111353600Y-69602600D03*
X111353600Y-68602600D03*
D26*
X108828600Y-72902600D03*
X108828600Y-67302600D03*
%TD*%
D17*
%TO.C,R2*%
X129616200Y-75236700D03*
X129616200Y-77061700D03*
%TD*%
D14*
%TO.C,C4*%
X115365700Y-87807800D03*
X113640700Y-87807800D03*
%TD*%
D27*
%TO.C,U1*%
X125069600Y-72274200D03*
X126339600Y-72274200D03*
X127609600Y-72274200D03*
X128879600Y-72274200D03*
X128879600Y-67324200D03*
X127609600Y-67324200D03*
X126339600Y-67324200D03*
X125069600Y-67324200D03*
%TD*%
M02*
