%TF.GenerationSoftware,KiCad,Pcbnew,8.0.5*%
%TF.CreationDate,2024-10-05T00:07:48-06:00*%
%TF.ProjectId,2024_10_STM32C011J4M6_TestBoard,32303234-5f31-4305-9f53-544d33324330,rev?*%
%TF.SameCoordinates,Original*%
%TF.FileFunction,Copper,L1,Top*%
%TF.FilePolarity,Positive*%
%FSLAX46Y46*%
G04 Gerber Fmt 4.6, Leading zero omitted, Abs format (unit mm)*
G04 Created by KiCad (PCBNEW 8.0.5) date 2024-10-05 00:07:48*
%MOMM*%
%LPD*%
G01*
G04 APERTURE LIST*
G04 Aperture macros list*
%AMRoundRect*
0 Rectangle with rounded corners*
0 $1 Rounding radius*
0 $2 $3 $4 $5 $6 $7 $8 $9 X,Y pos of 4 corners*
0 Add a 4 corners polygon primitive as box body*
4,1,4,$2,$3,$4,$5,$6,$7,$8,$9,$2,$3,0*
0 Add four circle primitives for the rounded corners*
1,1,$1+$1,$2,$3*
1,1,$1+$1,$4,$5*
1,1,$1+$1,$6,$7*
1,1,$1+$1,$8,$9*
0 Add four rect primitives between the rounded corners*
20,1,$1+$1,$2,$3,$4,$5,0*
20,1,$1+$1,$4,$5,$6,$7,0*
20,1,$1+$1,$6,$7,$8,$9,0*
20,1,$1+$1,$8,$9,$2,$3,0*%
G04 Aperture macros list end*
%TA.AperFunction,SMDPad,CuDef*%
%ADD10RoundRect,0.237500X0.237500X-0.250000X0.237500X0.250000X-0.237500X0.250000X-0.237500X-0.250000X0*%
%TD*%
%TA.AperFunction,SMDPad,CuDef*%
%ADD11RoundRect,0.237500X0.300000X0.237500X-0.300000X0.237500X-0.300000X-0.237500X0.300000X-0.237500X0*%
%TD*%
%TA.AperFunction,SMDPad,CuDef*%
%ADD12R,1.200000X0.400000*%
%TD*%
%TA.AperFunction,SMDPad,CuDef*%
%ADD13RoundRect,0.237500X-0.300000X-0.237500X0.300000X-0.237500X0.300000X0.237500X-0.300000X0.237500X0*%
%TD*%
%TA.AperFunction,SMDPad,CuDef*%
%ADD14RoundRect,0.237500X-0.237500X0.250000X-0.237500X-0.250000X0.237500X-0.250000X0.237500X0.250000X0*%
%TD*%
%TA.AperFunction,SMDPad,CuDef*%
%ADD15RoundRect,0.237500X0.237500X-0.287500X0.237500X0.287500X-0.237500X0.287500X-0.237500X-0.287500X0*%
%TD*%
%TA.AperFunction,SMDPad,CuDef*%
%ADD16RoundRect,0.375000X0.375000X-0.625000X0.375000X0.625000X-0.375000X0.625000X-0.375000X-0.625000X0*%
%TD*%
%TA.AperFunction,SMDPad,CuDef*%
%ADD17RoundRect,0.500000X1.400000X-0.500000X1.400000X0.500000X-1.400000X0.500000X-1.400000X-0.500000X0*%
%TD*%
%TA.AperFunction,SMDPad,CuDef*%
%ADD18R,0.250000X0.475000*%
%TD*%
%TA.AperFunction,SMDPad,CuDef*%
%ADD19R,0.475000X0.250000*%
%TD*%
%TA.AperFunction,SMDPad,CuDef*%
%ADD20RoundRect,0.150000X-0.150000X-0.500000X0.150000X-0.500000X0.150000X0.500000X-0.150000X0.500000X0*%
%TD*%
%TA.AperFunction,SMDPad,CuDef*%
%ADD21RoundRect,0.075000X-0.075000X-0.575000X0.075000X-0.575000X0.075000X0.575000X-0.075000X0.575000X0*%
%TD*%
%TA.AperFunction,ComponentPad*%
%ADD22O,1.000000X2.100000*%
%TD*%
%TA.AperFunction,ComponentPad*%
%ADD23O,1.000000X1.600000*%
%TD*%
%TA.AperFunction,SMDPad,CuDef*%
%ADD24RoundRect,0.237500X-0.250000X-0.237500X0.250000X-0.237500X0.250000X0.237500X-0.250000X0.237500X0*%
%TD*%
%TA.AperFunction,SMDPad,CuDef*%
%ADD25RoundRect,0.237500X0.287500X0.237500X-0.287500X0.237500X-0.287500X-0.237500X0.287500X-0.237500X0*%
%TD*%
%TA.AperFunction,SMDPad,CuDef*%
%ADD26RoundRect,0.237500X-0.237500X0.300000X-0.237500X-0.300000X0.237500X-0.300000X0.237500X0.300000X0*%
%TD*%
%TA.AperFunction,SMDPad,CuDef*%
%ADD27RoundRect,0.150000X0.625000X-0.150000X0.625000X0.150000X-0.625000X0.150000X-0.625000X-0.150000X0*%
%TD*%
%TA.AperFunction,SMDPad,CuDef*%
%ADD28RoundRect,0.250000X0.650000X-0.350000X0.650000X0.350000X-0.650000X0.350000X-0.650000X-0.350000X0*%
%TD*%
%TA.AperFunction,SMDPad,CuDef*%
%ADD29RoundRect,0.150000X0.150000X-0.825000X0.150000X0.825000X-0.150000X0.825000X-0.150000X-0.825000X0*%
%TD*%
%TA.AperFunction,ViaPad*%
%ADD30C,0.600000*%
%TD*%
%TA.AperFunction,Conductor*%
%ADD31C,0.254000*%
%TD*%
%TA.AperFunction,Conductor*%
%ADD32C,0.508000*%
%TD*%
%TA.AperFunction,Conductor*%
%ADD33C,0.381000*%
%TD*%
%TA.AperFunction,Conductor*%
%ADD34C,0.304800*%
%TD*%
G04 APERTURE END LIST*
D10*
%TO.P,R4,1*%
%TO.N,GND*%
X117551200Y-85926300D03*
%TO.P,R4,2*%
%TO.N,Net-(J3-CC1)*%
X117551200Y-84101300D03*
%TD*%
D11*
%TO.P,C7,1*%
%TO.N,+3.3V*%
X125652700Y-74422000D03*
%TO.P,C7,2*%
%TO.N,GND*%
X123927700Y-74422000D03*
%TD*%
D12*
%TO.P,U2,1,TXD*%
%TO.N,/FTDI_TX*%
X126094800Y-80804600D03*
%TO.P,U2,2,~{RTS}*%
%TO.N,unconnected-(U2-~{RTS}-Pad2)*%
X126094800Y-80169600D03*
%TO.P,U2,3,VCCIO*%
%TO.N,/MODE*%
X126094800Y-79534600D03*
%TO.P,U2,4,RXD*%
%TO.N,/FTDI_RX*%
X126094800Y-78899600D03*
%TO.P,U2,5,GND*%
%TO.N,GND*%
X126094800Y-78264600D03*
%TO.P,U2,6,~{CTS}*%
%TO.N,unconnected-(U2-~{CTS}-Pad6)*%
X126094800Y-77629600D03*
%TO.P,U2,7,CBUS2*%
%TO.N,Net-(D2-K)*%
X126094800Y-76994600D03*
%TO.P,U2,8,USBDP*%
%TO.N,/FTDI_D+*%
X126094800Y-76359600D03*
%TO.P,U2,9,USBDM*%
%TO.N,/FTDI_D-*%
X120894800Y-76359600D03*
%TO.P,U2,10,3V3OUT*%
%TO.N,/MODE*%
X120894800Y-76994600D03*
%TO.P,U2,11,~{RESET}*%
X120894800Y-77629600D03*
%TO.P,U2,12,VCC*%
%TO.N,+5V*%
X120894800Y-78264600D03*
%TO.P,U2,13,GND*%
%TO.N,GND*%
X120894800Y-78899600D03*
%TO.P,U2,14,CBUS1*%
%TO.N,Net-(D1-K)*%
X120894800Y-79534600D03*
%TO.P,U2,15,CBUS0*%
%TO.N,unconnected-(U2-CBUS0-Pad15)*%
X120894800Y-80169600D03*
%TO.P,U2,16,CBUS3*%
%TO.N,unconnected-(U2-CBUS3-Pad16)*%
X120894800Y-80804600D03*
%TD*%
D13*
%TO.P,C9,1*%
%TO.N,+3.3V*%
X117869100Y-74289100D03*
%TO.P,C9,2*%
%TO.N,GND*%
X119594100Y-74289100D03*
%TD*%
D11*
%TO.P,C5,1*%
%TO.N,+3.3V*%
X111327100Y-87884000D03*
%TO.P,C5,2*%
%TO.N,GND*%
X109602100Y-87884000D03*
%TD*%
D14*
%TO.P,R3,1*%
%TO.N,Net-(J3-CC2)*%
X130454400Y-84101300D03*
%TO.P,R3,2*%
%TO.N,GND*%
X130454400Y-85926300D03*
%TD*%
D15*
%TO.P,D2,1,K*%
%TO.N,Net-(D2-K)*%
X127965200Y-77024200D03*
%TO.P,D2,2,A*%
%TO.N,Net-(D2-A)*%
X127965200Y-75274200D03*
%TD*%
D11*
%TO.P,C1,1*%
%TO.N,/MODE*%
X118769300Y-76835000D03*
%TO.P,C1,2*%
%TO.N,GND*%
X117044300Y-76835000D03*
%TD*%
D16*
%TO.P,U3,1,GND*%
%TO.N,GND*%
X109841000Y-85547600D03*
%TO.P,U3,2,VO*%
%TO.N,+3.3V*%
X112141000Y-85547600D03*
D17*
X112141000Y-79247600D03*
D16*
%TO.P,U3,3,VI*%
%TO.N,+5V*%
X114441000Y-85547600D03*
%TD*%
D18*
%TO.P,MT1,1,AP_SDO/AP_AD0*%
%TO.N,unconnected-(MT1-AP_SDO{slash}AP_AD0-Pad1)*%
X119354600Y-68605400D03*
%TO.P,MT1,2,RESV*%
%TO.N,unconnected-(MT1-RESV-Pad2)*%
X118854600Y-68605400D03*
%TO.P,MT1,3,RESV__1*%
%TO.N,unconnected-(MT1-RESV__1-Pad3)*%
X118354600Y-68605400D03*
%TO.P,MT1,4,INT1/INT*%
%TO.N,unconnected-(MT1-INT1{slash}INT-Pad4)*%
X117854600Y-68605400D03*
D19*
%TO.P,MT1,5,VDDIO*%
%TO.N,+3.3V*%
X117692100Y-69267900D03*
%TO.P,MT1,6,GND*%
%TO.N,GND*%
X117692100Y-69767900D03*
%TO.P,MT1,7,RESV__2*%
%TO.N,unconnected-(MT1-RESV__2-Pad7)*%
X117692100Y-70267900D03*
D18*
%TO.P,MT1,8,VDD*%
%TO.N,+3.3V*%
X117854600Y-70930400D03*
%TO.P,MT1,9,INT2/FSYNC*%
%TO.N,GND*%
X118354600Y-70930400D03*
%TO.P,MT1,10,RESV__3*%
%TO.N,unconnected-(MT1-RESV__3-Pad10)*%
X118854600Y-70930400D03*
%TO.P,MT1,11,RESV__4*%
%TO.N,unconnected-(MT1-RESV__4-Pad11)*%
X119354600Y-70930400D03*
D19*
%TO.P,MT1,12,AP_CS*%
%TO.N,+3.3V*%
X119517100Y-70267900D03*
%TO.P,MT1,13,AP_SCL/AP_SCLK*%
%TO.N,/I2C_SCL*%
X119517100Y-69767900D03*
%TO.P,MT1,14,AP_SDA/AP_SDIO/AP_SDI*%
%TO.N,/I2C_SDA*%
X119517100Y-69267900D03*
%TD*%
D11*
%TO.P,C3,1*%
%TO.N,+5V*%
X115392200Y-89509600D03*
%TO.P,C3,2*%
%TO.N,GND*%
X113667200Y-89509600D03*
%TD*%
D20*
%TO.P,J3,A1,GND*%
%TO.N,GND*%
X120828200Y-84494600D03*
%TO.P,J3,A4,VBUS*%
%TO.N,+5V*%
X121628200Y-84494600D03*
D21*
%TO.P,J3,A5,CC1*%
%TO.N,Net-(J3-CC1)*%
X122778200Y-84494600D03*
%TO.P,J3,A6,D+*%
%TO.N,/FTDI_D+*%
X123778200Y-84494600D03*
%TO.P,J3,A7,D-*%
%TO.N,/FTDI_D-*%
X124278200Y-84494600D03*
%TO.P,J3,A8*%
%TO.N,N/C*%
X125278200Y-84494600D03*
D20*
%TO.P,J3,A9,VBUS*%
%TO.N,+5V*%
X126428200Y-84494600D03*
%TO.P,J3,A12,GND*%
%TO.N,GND*%
X127228200Y-84494600D03*
%TO.P,J3,B1,GND*%
X127228200Y-84494600D03*
%TO.P,J3,B4,VBUS*%
%TO.N,+5V*%
X126428200Y-84494600D03*
D21*
%TO.P,J3,B5,CC2*%
%TO.N,Net-(J3-CC2)*%
X125778200Y-84494600D03*
%TO.P,J3,B6,D+*%
%TO.N,/FTDI_D+*%
X124778200Y-84494600D03*
%TO.P,J3,B7,D-*%
%TO.N,/FTDI_D-*%
X123278200Y-84494600D03*
%TO.P,J3,B8*%
%TO.N,N/C*%
X122278200Y-84494600D03*
D20*
%TO.P,J3,B9,VBUS*%
%TO.N,+5V*%
X121628200Y-84494600D03*
%TO.P,J3,B12,GND*%
%TO.N,GND*%
X120828200Y-84494600D03*
D22*
%TO.P,J3,S1,SHIELD*%
X119708200Y-85134600D03*
D23*
X119708200Y-89314600D03*
D22*
X128348200Y-85134600D03*
D23*
X128348200Y-89314600D03*
%TD*%
D24*
%TO.P,R1,1*%
%TO.N,Net-(D1-A)*%
X116994300Y-81178400D03*
%TO.P,R1,2*%
%TO.N,/MODE*%
X118819300Y-81178400D03*
%TD*%
D13*
%TO.P,C6,1*%
%TO.N,+3.3V*%
X111532500Y-76962000D03*
%TO.P,C6,2*%
%TO.N,GND*%
X113257500Y-76962000D03*
%TD*%
D25*
%TO.P,D1,1,K*%
%TO.N,Net-(D1-K)*%
X118767800Y-79476600D03*
%TO.P,D1,2,A*%
%TO.N,Net-(D1-A)*%
X117017800Y-79476600D03*
%TD*%
D26*
%TO.P,C10,1*%
%TO.N,+3.3V*%
X115912200Y-68956200D03*
%TO.P,C10,2*%
%TO.N,GND*%
X115912200Y-70681200D03*
%TD*%
D11*
%TO.P,C8,1*%
%TO.N,+3.3V*%
X117854900Y-72491600D03*
%TO.P,C8,2*%
%TO.N,GND*%
X116129900Y-72491600D03*
%TD*%
D27*
%TO.P,J2,1,Pin_1*%
%TO.N,+3.3V*%
X111353600Y-71602600D03*
%TO.P,J2,2,Pin_2*%
%TO.N,/SWCLK*%
X111353600Y-70602600D03*
%TO.P,J2,3,Pin_3*%
%TO.N,GND*%
X111353600Y-69602600D03*
%TO.P,J2,4,Pin_4*%
%TO.N,/SWDIO*%
X111353600Y-68602600D03*
D28*
%TO.P,J2,MP*%
%TO.N,N/C*%
X108828600Y-72902600D03*
X108828600Y-67302600D03*
%TD*%
D14*
%TO.P,R2,1*%
%TO.N,Net-(D2-A)*%
X129616200Y-75236700D03*
%TO.P,R2,2*%
%TO.N,/MODE*%
X129616200Y-77061700D03*
%TD*%
D11*
%TO.P,C4,1*%
%TO.N,+5V*%
X115365700Y-87807800D03*
%TO.P,C4,2*%
%TO.N,GND*%
X113640700Y-87807800D03*
%TD*%
D29*
%TO.P,U1,1,PC14/PB7*%
%TO.N,/I2C_SCL*%
X125069600Y-72274200D03*
%TO.P,U1,2,VDD*%
%TO.N,+3.3V*%
X126339600Y-72274200D03*
%TO.P,U1,3,VSS*%
%TO.N,GND*%
X127609600Y-72274200D03*
%TO.P,U1,4,PF2/PA0/PA1/PA2*%
%TO.N,/FTDI_RX*%
X128879600Y-72274200D03*
%TO.P,U1,5,PA8/PA9/PA11*%
%TO.N,/FTDI_TX*%
X128879600Y-67324200D03*
%TO.P,U1,6,PA10/PA12*%
%TO.N,/I2C_SDA*%
X127609600Y-67324200D03*
%TO.P,U1,7,PA13*%
%TO.N,/SWDIO*%
X126339600Y-67324200D03*
%TO.P,U1,8,PC15/PA14/PB6*%
%TO.N,/SWCLK*%
X125069600Y-67324200D03*
%TD*%
D30*
%TO.N,GND*%
X119024400Y-71729600D03*
X108762800Y-84836000D03*
X115277200Y-72485700D03*
X130454400Y-86741000D03*
X109829600Y-84201000D03*
X110261400Y-69596000D03*
X108737400Y-87884000D03*
X123063000Y-74422000D03*
X125171200Y-78257400D03*
X112776000Y-87807800D03*
X112801400Y-89509600D03*
X114122200Y-76962000D03*
X117017800Y-76022200D03*
X108762800Y-86233000D03*
X116916200Y-69773800D03*
X121945400Y-78892400D03*
X127609600Y-73609200D03*
X120472200Y-74269600D03*
X115112800Y-70662800D03*
X116763800Y-85928200D03*
%TO.N,/MODE*%
X129565400Y-78257400D03*
X129438400Y-79603600D03*
%TD*%
D31*
%TO.N,+3.3V*%
X120700800Y-72059800D02*
X121132600Y-72491600D01*
X120700800Y-70764400D02*
X120700800Y-72059800D01*
D32*
X121132600Y-72491600D02*
X117854900Y-72491600D01*
D31*
X119517100Y-70267900D02*
X120204300Y-70267900D01*
D32*
X122885200Y-72491600D02*
X121132600Y-72491600D01*
D31*
X120204300Y-70267900D02*
X120700800Y-70764400D01*
%TO.N,GND*%
X118354600Y-71440800D02*
X118643400Y-71729600D01*
X118354600Y-70930400D02*
X118354600Y-71440800D01*
X118643400Y-71729600D02*
X119024400Y-71729600D01*
D32*
X109829600Y-85536200D02*
X109841000Y-85547600D01*
X109841000Y-85547600D02*
X109841000Y-86069200D01*
D33*
X126094800Y-78264600D02*
X125178400Y-78264600D01*
D32*
X115131200Y-70681200D02*
X115112800Y-70662800D01*
X109829600Y-84201000D02*
X109829600Y-85536200D01*
X127228200Y-84494600D02*
X127708200Y-84494600D01*
X119594100Y-74289100D02*
X120452700Y-74289100D01*
X123927700Y-74422000D02*
X123063000Y-74422000D01*
X116129900Y-72491600D02*
X115283100Y-72491600D01*
X127609600Y-72274200D02*
X127609600Y-73609200D01*
X110261400Y-69596000D02*
X111347000Y-69596000D01*
X120828200Y-84494600D02*
X120348200Y-84494600D01*
X109841000Y-86069200D02*
X109677200Y-86233000D01*
X112776000Y-87807800D02*
X113640700Y-87807800D01*
D31*
X116922100Y-69767900D02*
X116916200Y-69773800D01*
D32*
X109129400Y-84836000D02*
X109841000Y-85547600D01*
D31*
X120894800Y-78899600D02*
X121938200Y-78899600D01*
D32*
X115912200Y-70681200D02*
X115131200Y-70681200D01*
X114122200Y-76962000D02*
X113257500Y-76962000D01*
X108762800Y-84836000D02*
X109129400Y-84836000D01*
D33*
X125178400Y-78264600D02*
X125171200Y-78257400D01*
D32*
X130454400Y-85926300D02*
X130454400Y-86741000D01*
X120452700Y-74289100D02*
X120472200Y-74269600D01*
X115283100Y-72491600D02*
X115277200Y-72485700D01*
X108737400Y-87884000D02*
X109602100Y-87884000D01*
X109677200Y-86233000D02*
X108762800Y-86233000D01*
X120348200Y-84494600D02*
X119708200Y-85134600D01*
D31*
X117692100Y-69767900D02*
X116922100Y-69767900D01*
D32*
X127708200Y-84494600D02*
X128348200Y-85134600D01*
D31*
X121938200Y-78899600D02*
X121945400Y-78892400D01*
D32*
X111347000Y-69596000D02*
X111353600Y-69602600D01*
X112801400Y-89509600D02*
X113667200Y-89509600D01*
X117551200Y-85926300D02*
X116765700Y-85926300D01*
X116765700Y-85926300D02*
X116763800Y-85928200D01*
X117017800Y-76022200D02*
X117017800Y-76808500D01*
X117017800Y-76808500D02*
X117044300Y-76835000D01*
D31*
%TO.N,/MODE*%
X122682000Y-81203800D02*
X122326400Y-81559400D01*
X118769300Y-76835000D02*
X118769300Y-75667700D01*
X120894800Y-76994600D02*
X120894800Y-77629600D01*
X118948200Y-75488800D02*
X126568200Y-75488800D01*
X126568200Y-75488800D02*
X127228600Y-76149200D01*
X129438400Y-79603600D02*
X127152400Y-79603600D01*
X127083400Y-79534600D02*
X126094800Y-79534600D01*
X122682000Y-77952600D02*
X122682000Y-81203800D01*
X119989600Y-81559400D02*
X119608600Y-81178400D01*
X120894800Y-76994600D02*
X118928900Y-76994600D01*
X129616200Y-76860400D02*
X129616200Y-77061700D01*
X122326400Y-81559400D02*
X119989600Y-81559400D01*
X118769300Y-75667700D02*
X118948200Y-75488800D01*
X119608600Y-81178400D02*
X118819300Y-81178400D01*
X129616200Y-78206600D02*
X129565400Y-78257400D01*
X129616200Y-77061700D02*
X129616200Y-78206600D01*
X128905000Y-76149200D02*
X129616200Y-76860400D01*
X120894800Y-77629600D02*
X122359000Y-77629600D01*
X122359000Y-77629600D02*
X122682000Y-77952600D01*
X127228600Y-76149200D02*
X128905000Y-76149200D01*
X118928900Y-76994600D02*
X118769300Y-76835000D01*
X127152400Y-79603600D02*
X127083400Y-79534600D01*
D32*
%TO.N,+5V*%
X115392200Y-87834300D02*
X115365700Y-87807800D01*
X115239800Y-78409800D02*
X115239800Y-81280000D01*
D31*
X126428200Y-85103000D02*
X125882400Y-85648800D01*
D32*
X125882400Y-87426800D02*
X125882400Y-86283800D01*
D34*
X125882400Y-85928200D02*
X125882400Y-86106000D01*
D32*
X115365700Y-87807800D02*
X121335800Y-87807800D01*
D31*
X121628200Y-85103000D02*
X122224800Y-85699600D01*
D32*
X115392200Y-89509600D02*
X115392200Y-87834300D01*
X122224800Y-87122000D02*
X121539000Y-87807800D01*
X121335800Y-87807800D02*
X125501400Y-87807800D01*
D31*
X126428200Y-84494600D02*
X126428200Y-85103000D01*
D33*
X125882400Y-86106000D02*
X125882400Y-86283800D01*
D32*
X115570000Y-78079600D02*
X115239800Y-78409800D01*
X114441000Y-82078800D02*
X114441000Y-85547600D01*
X121539000Y-87807800D02*
X121335800Y-87807800D01*
D33*
X119946000Y-78264600D02*
X119761000Y-78079600D01*
X122224800Y-86131400D02*
X122224800Y-86309200D01*
D32*
X125501400Y-87807800D02*
X125882400Y-87426800D01*
X115366800Y-86473400D02*
X114441000Y-85547600D01*
D34*
X122224800Y-85953600D02*
X122224800Y-86131400D01*
D32*
X122224800Y-86309200D02*
X122224800Y-87122000D01*
X119532400Y-78079600D02*
X115570000Y-78079600D01*
X115365700Y-87807800D02*
X115366800Y-87806700D01*
D33*
X120894800Y-78264600D02*
X119946000Y-78264600D01*
X119761000Y-78079600D02*
X119532400Y-78079600D01*
D31*
X125882400Y-85648800D02*
X125882400Y-85928200D01*
D32*
X115366800Y-87806700D02*
X115366800Y-86473400D01*
D31*
X122224800Y-85699600D02*
X122224800Y-85953600D01*
X121628200Y-84494600D02*
X121628200Y-85103000D01*
D32*
X115239800Y-81280000D02*
X114441000Y-82078800D01*
%TO.N,+3.3V*%
X112979200Y-73812400D02*
X112445800Y-74345800D01*
D31*
X124739400Y-73787000D02*
X125374400Y-74422000D01*
X125374400Y-74422000D02*
X125652700Y-74422000D01*
D32*
X111532500Y-78639100D02*
X112141000Y-79247600D01*
D31*
X117854600Y-72491300D02*
X117854900Y-72491600D01*
D32*
X111353600Y-71602600D02*
X112522000Y-71602600D01*
D31*
X117144800Y-68961000D02*
X115917000Y-68961000D01*
D32*
X112141000Y-85547600D02*
X112141000Y-79247600D01*
D31*
X115917000Y-68961000D02*
X115912200Y-68956200D01*
X124307600Y-73355200D02*
X124739400Y-73787000D01*
D32*
X111532500Y-76962000D02*
X111532500Y-75259100D01*
X113639600Y-74345800D02*
X117812400Y-74345800D01*
X112445800Y-74345800D02*
X113639600Y-74345800D01*
D31*
X123444000Y-72491600D02*
X123266200Y-72491600D01*
D33*
X123088400Y-72491600D02*
X122885200Y-72491600D01*
D32*
X111532500Y-76962000D02*
X111532500Y-78639100D01*
D31*
X117692100Y-69267900D02*
X117451700Y-69267900D01*
X117451700Y-69267900D02*
X117144800Y-68961000D01*
D32*
X113995200Y-69519800D02*
X114558800Y-68956200D01*
D31*
X117854600Y-70930400D02*
X117854600Y-72491300D01*
D32*
X112141000Y-85547600D02*
X112141000Y-87070100D01*
X117869100Y-74289100D02*
X117869100Y-72505800D01*
X126339600Y-73735100D02*
X125652700Y-74422000D01*
D34*
X123266200Y-72491600D02*
X123088400Y-72491600D01*
D32*
X113995200Y-73990200D02*
X113995200Y-69519800D01*
X113639600Y-74345800D02*
X113995200Y-73990200D01*
X111532500Y-75259100D02*
X112445800Y-74345800D01*
X117869100Y-72505800D02*
X117854900Y-72491600D01*
X114558800Y-68956200D02*
X115912200Y-68956200D01*
X112979200Y-72059800D02*
X112979200Y-73812400D01*
D31*
X124307600Y-73355200D02*
X123444000Y-72491600D01*
D32*
X112522000Y-71602600D02*
X112979200Y-72059800D01*
X112141000Y-87070100D02*
X111327100Y-87884000D01*
X117812400Y-74345800D02*
X117869100Y-74289100D01*
X126339600Y-72274200D02*
X126339600Y-73735100D01*
D31*
%TO.N,/SWDIO*%
X113715800Y-67183000D02*
X122758200Y-67183000D01*
X126339600Y-68224400D02*
X126339600Y-67324200D01*
X125857000Y-68707000D02*
X126339600Y-68224400D01*
X112296200Y-68602600D02*
X113715800Y-67183000D01*
X124282200Y-68707000D02*
X125857000Y-68707000D01*
X122758200Y-67183000D02*
X124282200Y-68707000D01*
X111353600Y-68602600D02*
X112296200Y-68602600D01*
%TO.N,/SWCLK*%
X109540800Y-70602600D02*
X109143800Y-70205600D01*
X109143800Y-70205600D02*
X109143800Y-69037200D01*
X111353600Y-70602600D02*
X109540800Y-70602600D01*
X109143800Y-69037200D02*
X111633000Y-66548000D01*
X123571000Y-66548000D02*
X124347200Y-67324200D01*
X111633000Y-66548000D02*
X123571000Y-66548000D01*
X124347200Y-67324200D02*
X125069600Y-67324200D01*
%TO.N,/FTDI_D+*%
X123778200Y-84494600D02*
X123780200Y-84492600D01*
X124778200Y-83503200D02*
X124587000Y-83312000D01*
X123780200Y-76930600D02*
X124351200Y-76359600D01*
X124778200Y-84494600D02*
X124778200Y-83503200D01*
X124587000Y-83312000D02*
X124008800Y-83312000D01*
X124351200Y-76359600D02*
X126094800Y-76359600D01*
X124008800Y-83312000D02*
X123780200Y-83540600D01*
X123780200Y-83540600D02*
X123780200Y-76930600D01*
X123780200Y-84492600D02*
X123780200Y-83540600D01*
%TO.N,/FTDI_D-*%
X123278200Y-84494600D02*
X123276200Y-84492600D01*
X124278200Y-85627400D02*
X124278200Y-84494600D01*
X123276200Y-76870400D02*
X122765400Y-76359600D01*
X122765400Y-76359600D02*
X120894800Y-76359600D01*
X123278200Y-84494600D02*
X123278200Y-85635400D01*
X123278200Y-85635400D02*
X123418600Y-85775800D01*
X123418600Y-85775800D02*
X124129800Y-85775800D01*
X123276200Y-84492600D02*
X123276200Y-76870400D01*
X124129800Y-85775800D02*
X124278200Y-85627400D01*
%TO.N,/I2C_SCL*%
X125069600Y-70358000D02*
X125069600Y-72274200D01*
X124479500Y-69767900D02*
X125069600Y-70358000D01*
X119517100Y-69767900D02*
X124479500Y-69767900D01*
%TO.N,/I2C_SDA*%
X127328100Y-69267900D02*
X127609600Y-68986400D01*
X127609600Y-68986400D02*
X127609600Y-67324200D01*
X119517100Y-69267900D02*
X127328100Y-69267900D01*
%TO.N,/FTDI_RX*%
X130371000Y-78899600D02*
X130759200Y-78511400D01*
X130327400Y-74015600D02*
X129108200Y-74015600D01*
X130759200Y-78511400D02*
X130759200Y-74447400D01*
X128905000Y-73812400D02*
X128905000Y-72299600D01*
X130759200Y-74447400D02*
X130327400Y-74015600D01*
X128905000Y-72299600D02*
X128879600Y-72274200D01*
X126094800Y-78899600D02*
X130371000Y-78899600D01*
X129108200Y-74015600D02*
X128905000Y-73812400D01*
%TO.N,/FTDI_TX*%
X131267200Y-70129400D02*
X130251200Y-69113400D01*
X131267200Y-80111600D02*
X131267200Y-70129400D01*
X129133600Y-69113400D02*
X128879600Y-68859400D01*
X130251200Y-69113400D02*
X129133600Y-69113400D01*
X126094800Y-80804600D02*
X130574200Y-80804600D01*
X128879600Y-68859400D02*
X128879600Y-67324200D01*
X130574200Y-80804600D02*
X131267200Y-80111600D01*
%TO.N,Net-(J3-CC1)*%
X117551200Y-82677000D02*
X117551200Y-84101300D01*
X122778200Y-82519200D02*
X122453400Y-82194400D01*
X118033800Y-82194400D02*
X117551200Y-82677000D01*
X122778200Y-84494600D02*
X122778200Y-82519200D01*
X122453400Y-82194400D02*
X118033800Y-82194400D01*
%TO.N,Net-(J3-CC2)*%
X125778200Y-82374800D02*
X126111000Y-82042000D01*
X126111000Y-82042000D02*
X129971800Y-82042000D01*
X125778200Y-84494600D02*
X125778200Y-82374800D01*
X130454400Y-82524600D02*
X130454400Y-84101300D01*
X129971800Y-82042000D02*
X130454400Y-82524600D01*
%TO.N,Net-(D1-K)*%
X120894800Y-79534600D02*
X118825800Y-79534600D01*
X118825800Y-79534600D02*
X118767800Y-79476600D01*
%TO.N,Net-(D1-A)*%
X117017800Y-79476600D02*
X117017800Y-81154900D01*
X117017800Y-81154900D02*
X116994300Y-81178400D01*
%TO.N,Net-(D2-A)*%
X127965200Y-75274200D02*
X129578700Y-75274200D01*
X129578700Y-75274200D02*
X129616200Y-75236700D01*
%TO.N,Net-(D2-K)*%
X127935600Y-76994600D02*
X127965200Y-77024200D01*
X126094800Y-76994600D02*
X127935600Y-76994600D01*
%TD*%
M02*
