%TF.GenerationSoftware,KiCad,Pcbnew,8.0.5*%
%TF.CreationDate,2024-10-05T00:07:48-06:00*%
%TF.ProjectId,2024_10_STM32C011J4M6_TestBoard,32303234-5f31-4305-9f53-544d33324330,rev?*%
%TF.SameCoordinates,Original*%
%TF.FileFunction,Copper,L2,Bot*%
%TF.FilePolarity,Positive*%
%FSLAX46Y46*%
G04 Gerber Fmt 4.6, Leading zero omitted, Abs format (unit mm)*
G04 Created by KiCad (PCBNEW 8.0.5) date 2024-10-05 00:07:48*
%MOMM*%
%LPD*%
G01*
G04 APERTURE LIST*
%TA.AperFunction,ComponentPad*%
%ADD10O,1.000000X2.100000*%
%TD*%
%TA.AperFunction,ComponentPad*%
%ADD11O,1.000000X1.600000*%
%TD*%
%TA.AperFunction,ViaPad*%
%ADD12C,0.600000*%
%TD*%
%TA.AperFunction,Conductor*%
%ADD13C,0.254000*%
%TD*%
G04 APERTURE END LIST*
D10*
%TO.P,J3,S1,SHIELD*%
%TO.N,GND*%
X119708200Y-85134600D03*
D11*
X119708200Y-89314600D03*
D10*
X128348200Y-85134600D03*
D11*
X128348200Y-89314600D03*
%TD*%
D12*
%TO.N,GND*%
X119024400Y-71729600D03*
X108762800Y-84836000D03*
X115277200Y-72485700D03*
X130454400Y-86741000D03*
X109829600Y-84201000D03*
X110261400Y-69596000D03*
X108737400Y-87884000D03*
X123063000Y-74422000D03*
X125171200Y-78257400D03*
X112776000Y-87807800D03*
X112801400Y-89509600D03*
X114122200Y-76962000D03*
X117017800Y-76022200D03*
X108762800Y-86233000D03*
X116916200Y-69773800D03*
X121945400Y-78892400D03*
X127609600Y-73609200D03*
X120472200Y-74269600D03*
X115112800Y-70662800D03*
X116763800Y-85928200D03*
%TO.N,/MODE*%
X129565400Y-78257400D03*
X129438400Y-79603600D03*
%TD*%
D13*
%TO.N,/MODE*%
X129565400Y-78257400D02*
X129565400Y-79476600D01*
X129565400Y-79476600D02*
X129438400Y-79603600D01*
%TD*%
%TA.AperFunction,Conductor*%
%TO.N,GND*%
G36*
X130959922Y-66261880D02*
G01*
X131050266Y-66272059D01*
X131077331Y-66278236D01*
X131156540Y-66305952D01*
X131181553Y-66317998D01*
X131252606Y-66362643D01*
X131274313Y-66379955D01*
X131333644Y-66439286D01*
X131350957Y-66460995D01*
X131395600Y-66532044D01*
X131407648Y-66557062D01*
X131435362Y-66636266D01*
X131441540Y-66663335D01*
X131451720Y-66753676D01*
X131452500Y-66767561D01*
X131452500Y-89753638D01*
X131451720Y-89767523D01*
X131441540Y-89857864D01*
X131435362Y-89884933D01*
X131407648Y-89964137D01*
X131395600Y-89989155D01*
X131350957Y-90060204D01*
X131333644Y-90081913D01*
X131274313Y-90141244D01*
X131252604Y-90158557D01*
X131181555Y-90203200D01*
X131156537Y-90215248D01*
X131077333Y-90242962D01*
X131050264Y-90249140D01*
X130970075Y-90258176D01*
X130959921Y-90259320D01*
X130946038Y-90260100D01*
X129348797Y-90260100D01*
X129281758Y-90240415D01*
X129236003Y-90187611D01*
X129226059Y-90118453D01*
X129234236Y-90088647D01*
X129309770Y-89906289D01*
X129309772Y-89906281D01*
X129348199Y-89713095D01*
X129348200Y-89713092D01*
X129348200Y-89564600D01*
X128648200Y-89564600D01*
X128648200Y-89064600D01*
X129348200Y-89064600D01*
X129348200Y-88916108D01*
X129348199Y-88916104D01*
X129309772Y-88722918D01*
X129309769Y-88722906D01*
X129234392Y-88540928D01*
X129234385Y-88540915D01*
X129124951Y-88377137D01*
X129124948Y-88377133D01*
X128985666Y-88237851D01*
X128985662Y-88237848D01*
X128821884Y-88128414D01*
X128821871Y-88128407D01*
X128639891Y-88053029D01*
X128639883Y-88053027D01*
X128598200Y-88044735D01*
X128598200Y-88847611D01*
X128588260Y-88830395D01*
X128532405Y-88774540D01*
X128463996Y-88735044D01*
X128387696Y-88714600D01*
X128308704Y-88714600D01*
X128232404Y-88735044D01*
X128163995Y-88774540D01*
X128108140Y-88830395D01*
X128098200Y-88847611D01*
X128098200Y-88044736D01*
X128098199Y-88044735D01*
X128056516Y-88053027D01*
X128056508Y-88053029D01*
X127874528Y-88128407D01*
X127874515Y-88128414D01*
X127710737Y-88237848D01*
X127710733Y-88237851D01*
X127571451Y-88377133D01*
X127571448Y-88377137D01*
X127462014Y-88540915D01*
X127462007Y-88540928D01*
X127386630Y-88722906D01*
X127386627Y-88722918D01*
X127348200Y-88916104D01*
X127348200Y-89064600D01*
X128048200Y-89064600D01*
X128048200Y-89564600D01*
X127348200Y-89564600D01*
X127348200Y-89713095D01*
X127386627Y-89906281D01*
X127386629Y-89906289D01*
X127462164Y-90088647D01*
X127469633Y-90158117D01*
X127438358Y-90220596D01*
X127378269Y-90256248D01*
X127347603Y-90260100D01*
X120708797Y-90260100D01*
X120641758Y-90240415D01*
X120596003Y-90187611D01*
X120586059Y-90118453D01*
X120594236Y-90088647D01*
X120669770Y-89906289D01*
X120669772Y-89906281D01*
X120708199Y-89713095D01*
X120708200Y-89713092D01*
X120708200Y-89564600D01*
X120008200Y-89564600D01*
X120008200Y-89064600D01*
X120708200Y-89064600D01*
X120708200Y-88916108D01*
X120708199Y-88916104D01*
X120669772Y-88722918D01*
X120669769Y-88722906D01*
X120594392Y-88540928D01*
X120594385Y-88540915D01*
X120484951Y-88377137D01*
X120484948Y-88377133D01*
X120345666Y-88237851D01*
X120345662Y-88237848D01*
X120181884Y-88128414D01*
X120181871Y-88128407D01*
X119999891Y-88053029D01*
X119999883Y-88053027D01*
X119958200Y-88044735D01*
X119958200Y-88847611D01*
X119948260Y-88830395D01*
X119892405Y-88774540D01*
X119823996Y-88735044D01*
X119747696Y-88714600D01*
X119668704Y-88714600D01*
X119592404Y-88735044D01*
X119523995Y-88774540D01*
X119468140Y-88830395D01*
X119458200Y-88847611D01*
X119458200Y-88044736D01*
X119458199Y-88044735D01*
X119416516Y-88053027D01*
X119416508Y-88053029D01*
X119234528Y-88128407D01*
X119234515Y-88128414D01*
X119070737Y-88237848D01*
X119070733Y-88237851D01*
X118931451Y-88377133D01*
X118931448Y-88377137D01*
X118822014Y-88540915D01*
X118822007Y-88540928D01*
X118746630Y-88722906D01*
X118746627Y-88722918D01*
X118708200Y-88916104D01*
X118708200Y-89064600D01*
X119408200Y-89064600D01*
X119408200Y-89564600D01*
X118708200Y-89564600D01*
X118708200Y-89713095D01*
X118746627Y-89906281D01*
X118746629Y-89906289D01*
X118822164Y-90088647D01*
X118829633Y-90158117D01*
X118798358Y-90220596D01*
X118738269Y-90256248D01*
X118707603Y-90260100D01*
X107959962Y-90260100D01*
X107946078Y-90259320D01*
X107933553Y-90257908D01*
X107855735Y-90249140D01*
X107828666Y-90242962D01*
X107749462Y-90215248D01*
X107724444Y-90203200D01*
X107653395Y-90158557D01*
X107631686Y-90141244D01*
X107572355Y-90081913D01*
X107555042Y-90060204D01*
X107510399Y-89989155D01*
X107498351Y-89964137D01*
X107470637Y-89884933D01*
X107464459Y-89857863D01*
X107454280Y-89767522D01*
X107453500Y-89753638D01*
X107453500Y-84486104D01*
X118708200Y-84486104D01*
X118708200Y-84884600D01*
X119408200Y-84884600D01*
X119408200Y-85384600D01*
X118708200Y-85384600D01*
X118708200Y-85783095D01*
X118746627Y-85976281D01*
X118746630Y-85976293D01*
X118822007Y-86158271D01*
X118822014Y-86158284D01*
X118931448Y-86322062D01*
X118931451Y-86322066D01*
X119070733Y-86461348D01*
X119070737Y-86461351D01*
X119234515Y-86570785D01*
X119234528Y-86570792D01*
X119416508Y-86646169D01*
X119458200Y-86654462D01*
X119458200Y-85851588D01*
X119468140Y-85868805D01*
X119523995Y-85924660D01*
X119592404Y-85964156D01*
X119668704Y-85984600D01*
X119747696Y-85984600D01*
X119823996Y-85964156D01*
X119892405Y-85924660D01*
X119948260Y-85868805D01*
X119958200Y-85851588D01*
X119958200Y-86654462D01*
X119999890Y-86646169D01*
X119999892Y-86646169D01*
X120181871Y-86570792D01*
X120181884Y-86570785D01*
X120345662Y-86461351D01*
X120345666Y-86461348D01*
X120484948Y-86322066D01*
X120484951Y-86322062D01*
X120594385Y-86158284D01*
X120594386Y-86158282D01*
X120598329Y-86148763D01*
X120642168Y-86094357D01*
X120708461Y-86072289D01*
X120776161Y-86089565D01*
X120781600Y-86093247D01*
X120784834Y-86095114D01*
X120784835Y-86095115D01*
X120916065Y-86170881D01*
X121062434Y-86210100D01*
X121062436Y-86210100D01*
X121213964Y-86210100D01*
X121213966Y-86210100D01*
X121360335Y-86170881D01*
X121491565Y-86095115D01*
X121598715Y-85987965D01*
X121674481Y-85856735D01*
X121713700Y-85710366D01*
X121713700Y-85558834D01*
X126342700Y-85558834D01*
X126342700Y-85710365D01*
X126381919Y-85856736D01*
X126419802Y-85922350D01*
X126457685Y-85987965D01*
X126564835Y-86095115D01*
X126696065Y-86170881D01*
X126842434Y-86210100D01*
X126842436Y-86210100D01*
X126993964Y-86210100D01*
X126993966Y-86210100D01*
X127140335Y-86170881D01*
X127271565Y-86095115D01*
X127271566Y-86095113D01*
X127278603Y-86091051D01*
X127279876Y-86093256D01*
X127333156Y-86072643D01*
X127401605Y-86086663D01*
X127451607Y-86135464D01*
X127458067Y-86148757D01*
X127462009Y-86158274D01*
X127462014Y-86158284D01*
X127571448Y-86322062D01*
X127571451Y-86322066D01*
X127710733Y-86461348D01*
X127710737Y-86461351D01*
X127874515Y-86570785D01*
X127874528Y-86570792D01*
X128056508Y-86646169D01*
X128098200Y-86654462D01*
X128098200Y-85851588D01*
X128108140Y-85868805D01*
X128163995Y-85924660D01*
X128232404Y-85964156D01*
X128308704Y-85984600D01*
X128387696Y-85984600D01*
X128463996Y-85964156D01*
X128532405Y-85924660D01*
X128588260Y-85868805D01*
X128598200Y-85851588D01*
X128598200Y-86654462D01*
X128639890Y-86646169D01*
X128639892Y-86646169D01*
X128821871Y-86570792D01*
X128821884Y-86570785D01*
X128985662Y-86461351D01*
X128985666Y-86461348D01*
X129124948Y-86322066D01*
X129124951Y-86322062D01*
X129234385Y-86158284D01*
X129234392Y-86158271D01*
X129309769Y-85976293D01*
X129309772Y-85976281D01*
X129348199Y-85783095D01*
X129348200Y-85783092D01*
X129348200Y-85384600D01*
X128648200Y-85384600D01*
X128648200Y-84884600D01*
X129348200Y-84884600D01*
X129348200Y-84486108D01*
X129348199Y-84486104D01*
X129309772Y-84292918D01*
X129309769Y-84292906D01*
X129234392Y-84110928D01*
X129234385Y-84110915D01*
X129124951Y-83947137D01*
X129124948Y-83947133D01*
X128985666Y-83807851D01*
X128985662Y-83807848D01*
X128821884Y-83698414D01*
X128821871Y-83698407D01*
X128639891Y-83623029D01*
X128639883Y-83623027D01*
X128598200Y-83614735D01*
X128598200Y-84417611D01*
X128588260Y-84400395D01*
X128532405Y-84344540D01*
X128463996Y-84305044D01*
X128387696Y-84284600D01*
X128308704Y-84284600D01*
X128232404Y-84305044D01*
X128163995Y-84344540D01*
X128108140Y-84400395D01*
X128098200Y-84417611D01*
X128098200Y-83614736D01*
X128098199Y-83614735D01*
X128056516Y-83623027D01*
X128056508Y-83623029D01*
X127874528Y-83698407D01*
X127874515Y-83698414D01*
X127710737Y-83807848D01*
X127710733Y-83807851D01*
X127571451Y-83947133D01*
X127571448Y-83947137D01*
X127462014Y-84110915D01*
X127462007Y-84110928D01*
X127386630Y-84292906D01*
X127386627Y-84292918D01*
X127348200Y-84486104D01*
X127348200Y-85003555D01*
X127328515Y-85070594D01*
X127275711Y-85116349D01*
X127206553Y-85126293D01*
X127162200Y-85110942D01*
X127140338Y-85098320D01*
X127140335Y-85098319D01*
X126993966Y-85059100D01*
X126842434Y-85059100D01*
X126696063Y-85098319D01*
X126564835Y-85174085D01*
X126564832Y-85174087D01*
X126457687Y-85281232D01*
X126457685Y-85281235D01*
X126381919Y-85412463D01*
X126342700Y-85558834D01*
X121713700Y-85558834D01*
X121674481Y-85412465D01*
X121598715Y-85281235D01*
X121491565Y-85174085D01*
X121382199Y-85110942D01*
X121360336Y-85098319D01*
X121287150Y-85078709D01*
X121213966Y-85059100D01*
X121062434Y-85059100D01*
X120916065Y-85098319D01*
X120916064Y-85098319D01*
X120916062Y-85098320D01*
X120916061Y-85098320D01*
X120894200Y-85110942D01*
X120826299Y-85127415D01*
X120760273Y-85104562D01*
X120717082Y-85049641D01*
X120708200Y-85003555D01*
X120708200Y-84486108D01*
X120708199Y-84486104D01*
X120669772Y-84292918D01*
X120669769Y-84292906D01*
X120594392Y-84110928D01*
X120594385Y-84110915D01*
X120484951Y-83947137D01*
X120484948Y-83947133D01*
X120345666Y-83807851D01*
X120345662Y-83807848D01*
X120181884Y-83698414D01*
X120181871Y-83698407D01*
X119999891Y-83623029D01*
X119999883Y-83623027D01*
X119958200Y-83614735D01*
X119958200Y-84417611D01*
X119948260Y-84400395D01*
X119892405Y-84344540D01*
X119823996Y-84305044D01*
X119747696Y-84284600D01*
X119668704Y-84284600D01*
X119592404Y-84305044D01*
X119523995Y-84344540D01*
X119468140Y-84400395D01*
X119458200Y-84417611D01*
X119458200Y-83614736D01*
X119458199Y-83614735D01*
X119416516Y-83623027D01*
X119416508Y-83623029D01*
X119234528Y-83698407D01*
X119234515Y-83698414D01*
X119070737Y-83807848D01*
X119070733Y-83807851D01*
X118931451Y-83947133D01*
X118931448Y-83947137D01*
X118822014Y-84110915D01*
X118822007Y-84110928D01*
X118746630Y-84292906D01*
X118746627Y-84292918D01*
X118708200Y-84486104D01*
X107453500Y-84486104D01*
X107453500Y-79603596D01*
X128632835Y-79603596D01*
X128632835Y-79603603D01*
X128653030Y-79782849D01*
X128653031Y-79782854D01*
X128712611Y-79953123D01*
X128808584Y-80105862D01*
X128936138Y-80233416D01*
X129088878Y-80329389D01*
X129259145Y-80388968D01*
X129259150Y-80388969D01*
X129438396Y-80409165D01*
X129438400Y-80409165D01*
X129438404Y-80409165D01*
X129617649Y-80388969D01*
X129617652Y-80388968D01*
X129617655Y-80388968D01*
X129787922Y-80329389D01*
X129940662Y-80233416D01*
X130068216Y-80105862D01*
X130164189Y-79953122D01*
X130223768Y-79782855D01*
X130243965Y-79603600D01*
X130223768Y-79424345D01*
X130199857Y-79356013D01*
X130192900Y-79315059D01*
X130192900Y-78799071D01*
X130211907Y-78733098D01*
X130291188Y-78606924D01*
X130350768Y-78436654D01*
X130350769Y-78436649D01*
X130370965Y-78257403D01*
X130370965Y-78257396D01*
X130350769Y-78078150D01*
X130350768Y-78078145D01*
X130291188Y-77907876D01*
X130195215Y-77755137D01*
X130067662Y-77627584D01*
X129914923Y-77531611D01*
X129744654Y-77472031D01*
X129744649Y-77472030D01*
X129565404Y-77451835D01*
X129565396Y-77451835D01*
X129386150Y-77472030D01*
X129386145Y-77472031D01*
X129215876Y-77531611D01*
X129063137Y-77627584D01*
X128935584Y-77755137D01*
X128839611Y-77907876D01*
X128780031Y-78078145D01*
X128780030Y-78078150D01*
X128759835Y-78257396D01*
X128759835Y-78257403D01*
X128780030Y-78436649D01*
X128780031Y-78436654D01*
X128839611Y-78606924D01*
X128918893Y-78733098D01*
X128937900Y-78799071D01*
X128937900Y-78920659D01*
X128918215Y-78987698D01*
X128901582Y-79008340D01*
X128808583Y-79101339D01*
X128712611Y-79254076D01*
X128653031Y-79424345D01*
X128653030Y-79424350D01*
X128632835Y-79603596D01*
X107453500Y-79603596D01*
X107453500Y-66767561D01*
X107454280Y-66753677D01*
X107454280Y-66753676D01*
X107464459Y-66663331D01*
X107470635Y-66636270D01*
X107498353Y-66557056D01*
X107510396Y-66532050D01*
X107555046Y-66460989D01*
X107572351Y-66439290D01*
X107631690Y-66379951D01*
X107653389Y-66362646D01*
X107724450Y-66317996D01*
X107749456Y-66305953D01*
X107828670Y-66278235D01*
X107855733Y-66272059D01*
X107918419Y-66264996D01*
X107946079Y-66261880D01*
X107959962Y-66261100D01*
X108018892Y-66261100D01*
X130887108Y-66261100D01*
X130946038Y-66261100D01*
X130959922Y-66261880D01*
G37*
%TD.AperFunction*%
%TD*%
M02*
