%TF.GenerationSoftware,KiCad,Pcbnew,8.0.5*%
%TF.CreationDate,2024-10-05T00:07:48-06:00*%
%TF.ProjectId,2024_10_STM32C011J4M6_TestBoard,32303234-5f31-4305-9f53-544d33324330,rev?*%
%TF.SameCoordinates,Original*%
%TF.FileFunction,Legend,Top*%
%TF.FilePolarity,Positive*%
%FSLAX46Y46*%
G04 Gerber Fmt 4.6, Leading zero omitted, Abs format (unit mm)*
G04 Created by KiCad (PCBNEW 8.0.5) date 2024-10-05 00:07:48*
%MOMM*%
%LPD*%
G01*
G04 APERTURE LIST*
%ADD10C,0.100000*%
%ADD11C,0.250000*%
%ADD12C,0.160000*%
%ADD13C,0.150000*%
%ADD14C,0.120000*%
%ADD15C,0.000000*%
%ADD16C,0.127000*%
%ADD17C,0.200000*%
G04 APERTURE END LIST*
D10*
X121450100Y-67081400D02*
X122745500Y-67081400D01*
X121462800Y-67106800D02*
X121462800Y-68402200D01*
X121462800Y-68402200D02*
X121234200Y-68148200D01*
X122745500Y-67081400D02*
X122491500Y-67310000D01*
D11*
X121575100Y-67081400D02*
G75*
G02*
X121325100Y-67081400I-125000J0D01*
G01*
X121325100Y-67081400D02*
G75*
G02*
X121575100Y-67081400I125000J0D01*
G01*
D10*
X121462800Y-68402200D02*
X121691400Y-68148200D01*
X122745500Y-67081400D02*
X122491500Y-66852800D01*
D12*
X122994941Y-67255551D02*
X123528275Y-67065075D01*
X122994941Y-66874598D02*
X123528275Y-67065075D01*
X123528275Y-67065075D02*
X123718751Y-67141265D01*
X123718751Y-67141265D02*
X123756846Y-67179360D01*
X123756846Y-67179360D02*
X123794941Y-67255551D01*
X120912075Y-68347751D02*
X120378741Y-67928703D01*
X120378741Y-68347751D02*
X120912075Y-67928703D01*
D13*
X116673333Y-83182619D02*
X116340000Y-82706428D01*
X116101905Y-83182619D02*
X116101905Y-82182619D01*
X116101905Y-82182619D02*
X116482857Y-82182619D01*
X116482857Y-82182619D02*
X116578095Y-82230238D01*
X116578095Y-82230238D02*
X116625714Y-82277857D01*
X116625714Y-82277857D02*
X116673333Y-82373095D01*
X116673333Y-82373095D02*
X116673333Y-82515952D01*
X116673333Y-82515952D02*
X116625714Y-82611190D01*
X116625714Y-82611190D02*
X116578095Y-82658809D01*
X116578095Y-82658809D02*
X116482857Y-82706428D01*
X116482857Y-82706428D02*
X116101905Y-82706428D01*
X117530476Y-82515952D02*
X117530476Y-83182619D01*
X117292381Y-82135000D02*
X117054286Y-82849285D01*
X117054286Y-82849285D02*
X117673333Y-82849285D01*
X121778733Y-74425980D02*
X121731114Y-74473600D01*
X121731114Y-74473600D02*
X121588257Y-74521219D01*
X121588257Y-74521219D02*
X121493019Y-74521219D01*
X121493019Y-74521219D02*
X121350162Y-74473600D01*
X121350162Y-74473600D02*
X121254924Y-74378361D01*
X121254924Y-74378361D02*
X121207305Y-74283123D01*
X121207305Y-74283123D02*
X121159686Y-74092647D01*
X121159686Y-74092647D02*
X121159686Y-73949790D01*
X121159686Y-73949790D02*
X121207305Y-73759314D01*
X121207305Y-73759314D02*
X121254924Y-73664076D01*
X121254924Y-73664076D02*
X121350162Y-73568838D01*
X121350162Y-73568838D02*
X121493019Y-73521219D01*
X121493019Y-73521219D02*
X121588257Y-73521219D01*
X121588257Y-73521219D02*
X121731114Y-73568838D01*
X121731114Y-73568838D02*
X121778733Y-73616457D01*
X122112067Y-73521219D02*
X122778733Y-73521219D01*
X122778733Y-73521219D02*
X122350162Y-74521219D01*
X122693495Y-79679719D02*
X122693495Y-80489242D01*
X122693495Y-80489242D02*
X122741114Y-80584480D01*
X122741114Y-80584480D02*
X122788733Y-80632100D01*
X122788733Y-80632100D02*
X122883971Y-80679719D01*
X122883971Y-80679719D02*
X123074447Y-80679719D01*
X123074447Y-80679719D02*
X123169685Y-80632100D01*
X123169685Y-80632100D02*
X123217304Y-80584480D01*
X123217304Y-80584480D02*
X123264923Y-80489242D01*
X123264923Y-80489242D02*
X123264923Y-79679719D01*
X123693495Y-79774957D02*
X123741114Y-79727338D01*
X123741114Y-79727338D02*
X123836352Y-79679719D01*
X123836352Y-79679719D02*
X124074447Y-79679719D01*
X124074447Y-79679719D02*
X124169685Y-79727338D01*
X124169685Y-79727338D02*
X124217304Y-79774957D01*
X124217304Y-79774957D02*
X124264923Y-79870195D01*
X124264923Y-79870195D02*
X124264923Y-79965433D01*
X124264923Y-79965433D02*
X124217304Y-80108290D01*
X124217304Y-80108290D02*
X123645876Y-80679719D01*
X123645876Y-80679719D02*
X124264923Y-80679719D01*
X115745533Y-74572480D02*
X115697914Y-74620100D01*
X115697914Y-74620100D02*
X115555057Y-74667719D01*
X115555057Y-74667719D02*
X115459819Y-74667719D01*
X115459819Y-74667719D02*
X115316962Y-74620100D01*
X115316962Y-74620100D02*
X115221724Y-74524861D01*
X115221724Y-74524861D02*
X115174105Y-74429623D01*
X115174105Y-74429623D02*
X115126486Y-74239147D01*
X115126486Y-74239147D02*
X115126486Y-74096290D01*
X115126486Y-74096290D02*
X115174105Y-73905814D01*
X115174105Y-73905814D02*
X115221724Y-73810576D01*
X115221724Y-73810576D02*
X115316962Y-73715338D01*
X115316962Y-73715338D02*
X115459819Y-73667719D01*
X115459819Y-73667719D02*
X115555057Y-73667719D01*
X115555057Y-73667719D02*
X115697914Y-73715338D01*
X115697914Y-73715338D02*
X115745533Y-73762957D01*
X116221724Y-74667719D02*
X116412200Y-74667719D01*
X116412200Y-74667719D02*
X116507438Y-74620100D01*
X116507438Y-74620100D02*
X116555057Y-74572480D01*
X116555057Y-74572480D02*
X116650295Y-74429623D01*
X116650295Y-74429623D02*
X116697914Y-74239147D01*
X116697914Y-74239147D02*
X116697914Y-73858195D01*
X116697914Y-73858195D02*
X116650295Y-73762957D01*
X116650295Y-73762957D02*
X116602676Y-73715338D01*
X116602676Y-73715338D02*
X116507438Y-73667719D01*
X116507438Y-73667719D02*
X116316962Y-73667719D01*
X116316962Y-73667719D02*
X116221724Y-73715338D01*
X116221724Y-73715338D02*
X116174105Y-73762957D01*
X116174105Y-73762957D02*
X116126486Y-73858195D01*
X116126486Y-73858195D02*
X116126486Y-74096290D01*
X116126486Y-74096290D02*
X116174105Y-74191528D01*
X116174105Y-74191528D02*
X116221724Y-74239147D01*
X116221724Y-74239147D02*
X116316962Y-74286766D01*
X116316962Y-74286766D02*
X116507438Y-74286766D01*
X116507438Y-74286766D02*
X116602676Y-74239147D01*
X116602676Y-74239147D02*
X116650295Y-74191528D01*
X116650295Y-74191528D02*
X116697914Y-74096290D01*
X110170933Y-89792980D02*
X110123314Y-89840600D01*
X110123314Y-89840600D02*
X109980457Y-89888219D01*
X109980457Y-89888219D02*
X109885219Y-89888219D01*
X109885219Y-89888219D02*
X109742362Y-89840600D01*
X109742362Y-89840600D02*
X109647124Y-89745361D01*
X109647124Y-89745361D02*
X109599505Y-89650123D01*
X109599505Y-89650123D02*
X109551886Y-89459647D01*
X109551886Y-89459647D02*
X109551886Y-89316790D01*
X109551886Y-89316790D02*
X109599505Y-89126314D01*
X109599505Y-89126314D02*
X109647124Y-89031076D01*
X109647124Y-89031076D02*
X109742362Y-88935838D01*
X109742362Y-88935838D02*
X109885219Y-88888219D01*
X109885219Y-88888219D02*
X109980457Y-88888219D01*
X109980457Y-88888219D02*
X110123314Y-88935838D01*
X110123314Y-88935838D02*
X110170933Y-88983457D01*
X111075695Y-88888219D02*
X110599505Y-88888219D01*
X110599505Y-88888219D02*
X110551886Y-89364409D01*
X110551886Y-89364409D02*
X110599505Y-89316790D01*
X110599505Y-89316790D02*
X110694743Y-89269171D01*
X110694743Y-89269171D02*
X110932838Y-89269171D01*
X110932838Y-89269171D02*
X111028076Y-89316790D01*
X111028076Y-89316790D02*
X111075695Y-89364409D01*
X111075695Y-89364409D02*
X111123314Y-89459647D01*
X111123314Y-89459647D02*
X111123314Y-89697742D01*
X111123314Y-89697742D02*
X111075695Y-89792980D01*
X111075695Y-89792980D02*
X111028076Y-89840600D01*
X111028076Y-89840600D02*
X110932838Y-89888219D01*
X110932838Y-89888219D02*
X110694743Y-89888219D01*
X110694743Y-89888219D02*
X110599505Y-89840600D01*
X110599505Y-89840600D02*
X110551886Y-89792980D01*
X130236933Y-83055619D02*
X129903600Y-82579428D01*
X129665505Y-83055619D02*
X129665505Y-82055619D01*
X129665505Y-82055619D02*
X130046457Y-82055619D01*
X130046457Y-82055619D02*
X130141695Y-82103238D01*
X130141695Y-82103238D02*
X130189314Y-82150857D01*
X130189314Y-82150857D02*
X130236933Y-82246095D01*
X130236933Y-82246095D02*
X130236933Y-82388952D01*
X130236933Y-82388952D02*
X130189314Y-82484190D01*
X130189314Y-82484190D02*
X130141695Y-82531809D01*
X130141695Y-82531809D02*
X130046457Y-82579428D01*
X130046457Y-82579428D02*
X129665505Y-82579428D01*
X130570267Y-82055619D02*
X131189314Y-82055619D01*
X131189314Y-82055619D02*
X130855981Y-82436571D01*
X130855981Y-82436571D02*
X130998838Y-82436571D01*
X130998838Y-82436571D02*
X131094076Y-82484190D01*
X131094076Y-82484190D02*
X131141695Y-82531809D01*
X131141695Y-82531809D02*
X131189314Y-82627047D01*
X131189314Y-82627047D02*
X131189314Y-82865142D01*
X131189314Y-82865142D02*
X131141695Y-82960380D01*
X131141695Y-82960380D02*
X131094076Y-83008000D01*
X131094076Y-83008000D02*
X130998838Y-83055619D01*
X130998838Y-83055619D02*
X130713124Y-83055619D01*
X130713124Y-83055619D02*
X130617886Y-83008000D01*
X130617886Y-83008000D02*
X130570267Y-82960380D01*
X128496219Y-79732094D02*
X127496219Y-79732094D01*
X127496219Y-79732094D02*
X127496219Y-79493999D01*
X127496219Y-79493999D02*
X127543838Y-79351142D01*
X127543838Y-79351142D02*
X127639076Y-79255904D01*
X127639076Y-79255904D02*
X127734314Y-79208285D01*
X127734314Y-79208285D02*
X127924790Y-79160666D01*
X127924790Y-79160666D02*
X128067647Y-79160666D01*
X128067647Y-79160666D02*
X128258123Y-79208285D01*
X128258123Y-79208285D02*
X128353361Y-79255904D01*
X128353361Y-79255904D02*
X128448600Y-79351142D01*
X128448600Y-79351142D02*
X128496219Y-79493999D01*
X128496219Y-79493999D02*
X128496219Y-79732094D01*
X127591457Y-78779713D02*
X127543838Y-78732094D01*
X127543838Y-78732094D02*
X127496219Y-78636856D01*
X127496219Y-78636856D02*
X127496219Y-78398761D01*
X127496219Y-78398761D02*
X127543838Y-78303523D01*
X127543838Y-78303523D02*
X127591457Y-78255904D01*
X127591457Y-78255904D02*
X127686695Y-78208285D01*
X127686695Y-78208285D02*
X127781933Y-78208285D01*
X127781933Y-78208285D02*
X127924790Y-78255904D01*
X127924790Y-78255904D02*
X128496219Y-78827332D01*
X128496219Y-78827332D02*
X128496219Y-78208285D01*
X115174733Y-76508780D02*
X115127114Y-76556400D01*
X115127114Y-76556400D02*
X114984257Y-76604019D01*
X114984257Y-76604019D02*
X114889019Y-76604019D01*
X114889019Y-76604019D02*
X114746162Y-76556400D01*
X114746162Y-76556400D02*
X114650924Y-76461161D01*
X114650924Y-76461161D02*
X114603305Y-76365923D01*
X114603305Y-76365923D02*
X114555686Y-76175447D01*
X114555686Y-76175447D02*
X114555686Y-76032590D01*
X114555686Y-76032590D02*
X114603305Y-75842114D01*
X114603305Y-75842114D02*
X114650924Y-75746876D01*
X114650924Y-75746876D02*
X114746162Y-75651638D01*
X114746162Y-75651638D02*
X114889019Y-75604019D01*
X114889019Y-75604019D02*
X114984257Y-75604019D01*
X114984257Y-75604019D02*
X115127114Y-75651638D01*
X115127114Y-75651638D02*
X115174733Y-75699257D01*
X116127114Y-76604019D02*
X115555686Y-76604019D01*
X115841400Y-76604019D02*
X115841400Y-75604019D01*
X115841400Y-75604019D02*
X115746162Y-75746876D01*
X115746162Y-75746876D02*
X115650924Y-75842114D01*
X115650924Y-75842114D02*
X115555686Y-75889733D01*
X109417019Y-83194304D02*
X110226542Y-83194304D01*
X110226542Y-83194304D02*
X110321780Y-83146685D01*
X110321780Y-83146685D02*
X110369400Y-83099066D01*
X110369400Y-83099066D02*
X110417019Y-83003828D01*
X110417019Y-83003828D02*
X110417019Y-82813352D01*
X110417019Y-82813352D02*
X110369400Y-82718114D01*
X110369400Y-82718114D02*
X110321780Y-82670495D01*
X110321780Y-82670495D02*
X110226542Y-82622876D01*
X110226542Y-82622876D02*
X109417019Y-82622876D01*
X109417019Y-82241923D02*
X109417019Y-81622876D01*
X109417019Y-81622876D02*
X109797971Y-81956209D01*
X109797971Y-81956209D02*
X109797971Y-81813352D01*
X109797971Y-81813352D02*
X109845590Y-81718114D01*
X109845590Y-81718114D02*
X109893209Y-81670495D01*
X109893209Y-81670495D02*
X109988447Y-81622876D01*
X109988447Y-81622876D02*
X110226542Y-81622876D01*
X110226542Y-81622876D02*
X110321780Y-81670495D01*
X110321780Y-81670495D02*
X110369400Y-81718114D01*
X110369400Y-81718114D02*
X110417019Y-81813352D01*
X110417019Y-81813352D02*
X110417019Y-82099066D01*
X110417019Y-82099066D02*
X110369400Y-82194304D01*
X110369400Y-82194304D02*
X110321780Y-82241923D01*
X116284524Y-67688619D02*
X116284524Y-66688619D01*
X116284524Y-66688619D02*
X116617857Y-67402904D01*
X116617857Y-67402904D02*
X116951190Y-66688619D01*
X116951190Y-66688619D02*
X116951190Y-67688619D01*
X117284524Y-66688619D02*
X117855952Y-66688619D01*
X117570238Y-67688619D02*
X117570238Y-66688619D01*
X118713095Y-67688619D02*
X118141667Y-67688619D01*
X118427381Y-67688619D02*
X118427381Y-66688619D01*
X118427381Y-66688619D02*
X118332143Y-66831476D01*
X118332143Y-66831476D02*
X118236905Y-66926714D01*
X118236905Y-66926714D02*
X118141667Y-66974333D01*
X117158133Y-89818380D02*
X117110514Y-89866000D01*
X117110514Y-89866000D02*
X116967657Y-89913619D01*
X116967657Y-89913619D02*
X116872419Y-89913619D01*
X116872419Y-89913619D02*
X116729562Y-89866000D01*
X116729562Y-89866000D02*
X116634324Y-89770761D01*
X116634324Y-89770761D02*
X116586705Y-89675523D01*
X116586705Y-89675523D02*
X116539086Y-89485047D01*
X116539086Y-89485047D02*
X116539086Y-89342190D01*
X116539086Y-89342190D02*
X116586705Y-89151714D01*
X116586705Y-89151714D02*
X116634324Y-89056476D01*
X116634324Y-89056476D02*
X116729562Y-88961238D01*
X116729562Y-88961238D02*
X116872419Y-88913619D01*
X116872419Y-88913619D02*
X116967657Y-88913619D01*
X116967657Y-88913619D02*
X117110514Y-88961238D01*
X117110514Y-88961238D02*
X117158133Y-89008857D01*
X117491467Y-88913619D02*
X118110514Y-88913619D01*
X118110514Y-88913619D02*
X117777181Y-89294571D01*
X117777181Y-89294571D02*
X117920038Y-89294571D01*
X117920038Y-89294571D02*
X118015276Y-89342190D01*
X118015276Y-89342190D02*
X118062895Y-89389809D01*
X118062895Y-89389809D02*
X118110514Y-89485047D01*
X118110514Y-89485047D02*
X118110514Y-89723142D01*
X118110514Y-89723142D02*
X118062895Y-89818380D01*
X118062895Y-89818380D02*
X118015276Y-89866000D01*
X118015276Y-89866000D02*
X117920038Y-89913619D01*
X117920038Y-89913619D02*
X117634324Y-89913619D01*
X117634324Y-89913619D02*
X117539086Y-89866000D01*
X117539086Y-89866000D02*
X117491467Y-89818380D01*
X123847266Y-87313419D02*
X123847266Y-88027704D01*
X123847266Y-88027704D02*
X123799647Y-88170561D01*
X123799647Y-88170561D02*
X123704409Y-88265800D01*
X123704409Y-88265800D02*
X123561552Y-88313419D01*
X123561552Y-88313419D02*
X123466314Y-88313419D01*
X124228219Y-87313419D02*
X124847266Y-87313419D01*
X124847266Y-87313419D02*
X124513933Y-87694371D01*
X124513933Y-87694371D02*
X124656790Y-87694371D01*
X124656790Y-87694371D02*
X124752028Y-87741990D01*
X124752028Y-87741990D02*
X124799647Y-87789609D01*
X124799647Y-87789609D02*
X124847266Y-87884847D01*
X124847266Y-87884847D02*
X124847266Y-88122942D01*
X124847266Y-88122942D02*
X124799647Y-88218180D01*
X124799647Y-88218180D02*
X124752028Y-88265800D01*
X124752028Y-88265800D02*
X124656790Y-88313419D01*
X124656790Y-88313419D02*
X124371076Y-88313419D01*
X124371076Y-88313419D02*
X124275838Y-88265800D01*
X124275838Y-88265800D02*
X124228219Y-88218180D01*
X120457933Y-82725419D02*
X120124600Y-82249228D01*
X119886505Y-82725419D02*
X119886505Y-81725419D01*
X119886505Y-81725419D02*
X120267457Y-81725419D01*
X120267457Y-81725419D02*
X120362695Y-81773038D01*
X120362695Y-81773038D02*
X120410314Y-81820657D01*
X120410314Y-81820657D02*
X120457933Y-81915895D01*
X120457933Y-81915895D02*
X120457933Y-82058752D01*
X120457933Y-82058752D02*
X120410314Y-82153990D01*
X120410314Y-82153990D02*
X120362695Y-82201609D01*
X120362695Y-82201609D02*
X120267457Y-82249228D01*
X120267457Y-82249228D02*
X119886505Y-82249228D01*
X121410314Y-82725419D02*
X120838886Y-82725419D01*
X121124600Y-82725419D02*
X121124600Y-81725419D01*
X121124600Y-81725419D02*
X121029362Y-81868276D01*
X121029362Y-81868276D02*
X120934124Y-81963514D01*
X120934124Y-81963514D02*
X120838886Y-82011133D01*
X109434333Y-77397780D02*
X109386714Y-77445400D01*
X109386714Y-77445400D02*
X109243857Y-77493019D01*
X109243857Y-77493019D02*
X109148619Y-77493019D01*
X109148619Y-77493019D02*
X109005762Y-77445400D01*
X109005762Y-77445400D02*
X108910524Y-77350161D01*
X108910524Y-77350161D02*
X108862905Y-77254923D01*
X108862905Y-77254923D02*
X108815286Y-77064447D01*
X108815286Y-77064447D02*
X108815286Y-76921590D01*
X108815286Y-76921590D02*
X108862905Y-76731114D01*
X108862905Y-76731114D02*
X108910524Y-76635876D01*
X108910524Y-76635876D02*
X109005762Y-76540638D01*
X109005762Y-76540638D02*
X109148619Y-76493019D01*
X109148619Y-76493019D02*
X109243857Y-76493019D01*
X109243857Y-76493019D02*
X109386714Y-76540638D01*
X109386714Y-76540638D02*
X109434333Y-76588257D01*
X110291476Y-76493019D02*
X110101000Y-76493019D01*
X110101000Y-76493019D02*
X110005762Y-76540638D01*
X110005762Y-76540638D02*
X109958143Y-76588257D01*
X109958143Y-76588257D02*
X109862905Y-76731114D01*
X109862905Y-76731114D02*
X109815286Y-76921590D01*
X109815286Y-76921590D02*
X109815286Y-77302542D01*
X109815286Y-77302542D02*
X109862905Y-77397780D01*
X109862905Y-77397780D02*
X109910524Y-77445400D01*
X109910524Y-77445400D02*
X110005762Y-77493019D01*
X110005762Y-77493019D02*
X110196238Y-77493019D01*
X110196238Y-77493019D02*
X110291476Y-77445400D01*
X110291476Y-77445400D02*
X110339095Y-77397780D01*
X110339095Y-77397780D02*
X110386714Y-77302542D01*
X110386714Y-77302542D02*
X110386714Y-77064447D01*
X110386714Y-77064447D02*
X110339095Y-76969209D01*
X110339095Y-76969209D02*
X110291476Y-76921590D01*
X110291476Y-76921590D02*
X110196238Y-76873971D01*
X110196238Y-76873971D02*
X110005762Y-76873971D01*
X110005762Y-76873971D02*
X109910524Y-76921590D01*
X109910524Y-76921590D02*
X109862905Y-76969209D01*
X109862905Y-76969209D02*
X109815286Y-77064447D01*
X117219505Y-78483619D02*
X117219505Y-77483619D01*
X117219505Y-77483619D02*
X117457600Y-77483619D01*
X117457600Y-77483619D02*
X117600457Y-77531238D01*
X117600457Y-77531238D02*
X117695695Y-77626476D01*
X117695695Y-77626476D02*
X117743314Y-77721714D01*
X117743314Y-77721714D02*
X117790933Y-77912190D01*
X117790933Y-77912190D02*
X117790933Y-78055047D01*
X117790933Y-78055047D02*
X117743314Y-78245523D01*
X117743314Y-78245523D02*
X117695695Y-78340761D01*
X117695695Y-78340761D02*
X117600457Y-78436000D01*
X117600457Y-78436000D02*
X117457600Y-78483619D01*
X117457600Y-78483619D02*
X117219505Y-78483619D01*
X118743314Y-78483619D02*
X118171886Y-78483619D01*
X118457600Y-78483619D02*
X118457600Y-77483619D01*
X118457600Y-77483619D02*
X118362362Y-77626476D01*
X118362362Y-77626476D02*
X118267124Y-77721714D01*
X118267124Y-77721714D02*
X118171886Y-77769333D01*
X114532580Y-71102457D02*
X114580200Y-71150076D01*
X114580200Y-71150076D02*
X114627819Y-71292933D01*
X114627819Y-71292933D02*
X114627819Y-71388171D01*
X114627819Y-71388171D02*
X114580200Y-71531028D01*
X114580200Y-71531028D02*
X114484961Y-71626266D01*
X114484961Y-71626266D02*
X114389723Y-71673885D01*
X114389723Y-71673885D02*
X114199247Y-71721504D01*
X114199247Y-71721504D02*
X114056390Y-71721504D01*
X114056390Y-71721504D02*
X113865914Y-71673885D01*
X113865914Y-71673885D02*
X113770676Y-71626266D01*
X113770676Y-71626266D02*
X113675438Y-71531028D01*
X113675438Y-71531028D02*
X113627819Y-71388171D01*
X113627819Y-71388171D02*
X113627819Y-71292933D01*
X113627819Y-71292933D02*
X113675438Y-71150076D01*
X113675438Y-71150076D02*
X113723057Y-71102457D01*
X114627819Y-70150076D02*
X114627819Y-70721504D01*
X114627819Y-70435790D02*
X113627819Y-70435790D01*
X113627819Y-70435790D02*
X113770676Y-70531028D01*
X113770676Y-70531028D02*
X113865914Y-70626266D01*
X113865914Y-70626266D02*
X113913533Y-70721504D01*
X113627819Y-69531028D02*
X113627819Y-69435790D01*
X113627819Y-69435790D02*
X113675438Y-69340552D01*
X113675438Y-69340552D02*
X113723057Y-69292933D01*
X113723057Y-69292933D02*
X113818295Y-69245314D01*
X113818295Y-69245314D02*
X114008771Y-69197695D01*
X114008771Y-69197695D02*
X114246866Y-69197695D01*
X114246866Y-69197695D02*
X114437342Y-69245314D01*
X114437342Y-69245314D02*
X114532580Y-69292933D01*
X114532580Y-69292933D02*
X114580200Y-69340552D01*
X114580200Y-69340552D02*
X114627819Y-69435790D01*
X114627819Y-69435790D02*
X114627819Y-69531028D01*
X114627819Y-69531028D02*
X114580200Y-69626266D01*
X114580200Y-69626266D02*
X114532580Y-69673885D01*
X114532580Y-69673885D02*
X114437342Y-69721504D01*
X114437342Y-69721504D02*
X114246866Y-69769123D01*
X114246866Y-69769123D02*
X114008771Y-69769123D01*
X114008771Y-69769123D02*
X113818295Y-69721504D01*
X113818295Y-69721504D02*
X113723057Y-69673885D01*
X113723057Y-69673885D02*
X113675438Y-69626266D01*
X113675438Y-69626266D02*
X113627819Y-69531028D01*
X119492733Y-73206780D02*
X119445114Y-73254400D01*
X119445114Y-73254400D02*
X119302257Y-73302019D01*
X119302257Y-73302019D02*
X119207019Y-73302019D01*
X119207019Y-73302019D02*
X119064162Y-73254400D01*
X119064162Y-73254400D02*
X118968924Y-73159161D01*
X118968924Y-73159161D02*
X118921305Y-73063923D01*
X118921305Y-73063923D02*
X118873686Y-72873447D01*
X118873686Y-72873447D02*
X118873686Y-72730590D01*
X118873686Y-72730590D02*
X118921305Y-72540114D01*
X118921305Y-72540114D02*
X118968924Y-72444876D01*
X118968924Y-72444876D02*
X119064162Y-72349638D01*
X119064162Y-72349638D02*
X119207019Y-72302019D01*
X119207019Y-72302019D02*
X119302257Y-72302019D01*
X119302257Y-72302019D02*
X119445114Y-72349638D01*
X119445114Y-72349638D02*
X119492733Y-72397257D01*
X120064162Y-72730590D02*
X119968924Y-72682971D01*
X119968924Y-72682971D02*
X119921305Y-72635352D01*
X119921305Y-72635352D02*
X119873686Y-72540114D01*
X119873686Y-72540114D02*
X119873686Y-72492495D01*
X119873686Y-72492495D02*
X119921305Y-72397257D01*
X119921305Y-72397257D02*
X119968924Y-72349638D01*
X119968924Y-72349638D02*
X120064162Y-72302019D01*
X120064162Y-72302019D02*
X120254638Y-72302019D01*
X120254638Y-72302019D02*
X120349876Y-72349638D01*
X120349876Y-72349638D02*
X120397495Y-72397257D01*
X120397495Y-72397257D02*
X120445114Y-72492495D01*
X120445114Y-72492495D02*
X120445114Y-72540114D01*
X120445114Y-72540114D02*
X120397495Y-72635352D01*
X120397495Y-72635352D02*
X120349876Y-72682971D01*
X120349876Y-72682971D02*
X120254638Y-72730590D01*
X120254638Y-72730590D02*
X120064162Y-72730590D01*
X120064162Y-72730590D02*
X119968924Y-72778209D01*
X119968924Y-72778209D02*
X119921305Y-72825828D01*
X119921305Y-72825828D02*
X119873686Y-72921066D01*
X119873686Y-72921066D02*
X119873686Y-73111542D01*
X119873686Y-73111542D02*
X119921305Y-73206780D01*
X119921305Y-73206780D02*
X119968924Y-73254400D01*
X119968924Y-73254400D02*
X120064162Y-73302019D01*
X120064162Y-73302019D02*
X120254638Y-73302019D01*
X120254638Y-73302019D02*
X120349876Y-73254400D01*
X120349876Y-73254400D02*
X120397495Y-73206780D01*
X120397495Y-73206780D02*
X120445114Y-73111542D01*
X120445114Y-73111542D02*
X120445114Y-72921066D01*
X120445114Y-72921066D02*
X120397495Y-72825828D01*
X120397495Y-72825828D02*
X120349876Y-72778209D01*
X120349876Y-72778209D02*
X120254638Y-72730590D01*
X108365419Y-70504133D02*
X109079704Y-70504133D01*
X109079704Y-70504133D02*
X109222561Y-70551752D01*
X109222561Y-70551752D02*
X109317800Y-70646990D01*
X109317800Y-70646990D02*
X109365419Y-70789847D01*
X109365419Y-70789847D02*
X109365419Y-70885085D01*
X108460657Y-70075561D02*
X108413038Y-70027942D01*
X108413038Y-70027942D02*
X108365419Y-69932704D01*
X108365419Y-69932704D02*
X108365419Y-69694609D01*
X108365419Y-69694609D02*
X108413038Y-69599371D01*
X108413038Y-69599371D02*
X108460657Y-69551752D01*
X108460657Y-69551752D02*
X108555895Y-69504133D01*
X108555895Y-69504133D02*
X108651133Y-69504133D01*
X108651133Y-69504133D02*
X108793990Y-69551752D01*
X108793990Y-69551752D02*
X109365419Y-70123180D01*
X109365419Y-70123180D02*
X109365419Y-69504133D01*
X130985419Y-73572666D02*
X130509228Y-73905999D01*
X130985419Y-74144094D02*
X129985419Y-74144094D01*
X129985419Y-74144094D02*
X129985419Y-73763142D01*
X129985419Y-73763142D02*
X130033038Y-73667904D01*
X130033038Y-73667904D02*
X130080657Y-73620285D01*
X130080657Y-73620285D02*
X130175895Y-73572666D01*
X130175895Y-73572666D02*
X130318752Y-73572666D01*
X130318752Y-73572666D02*
X130413990Y-73620285D01*
X130413990Y-73620285D02*
X130461609Y-73667904D01*
X130461609Y-73667904D02*
X130509228Y-73763142D01*
X130509228Y-73763142D02*
X130509228Y-74144094D01*
X130080657Y-73191713D02*
X130033038Y-73144094D01*
X130033038Y-73144094D02*
X129985419Y-73048856D01*
X129985419Y-73048856D02*
X129985419Y-72810761D01*
X129985419Y-72810761D02*
X130033038Y-72715523D01*
X130033038Y-72715523D02*
X130080657Y-72667904D01*
X130080657Y-72667904D02*
X130175895Y-72620285D01*
X130175895Y-72620285D02*
X130271133Y-72620285D01*
X130271133Y-72620285D02*
X130413990Y-72667904D01*
X130413990Y-72667904D02*
X130985419Y-73239332D01*
X130985419Y-73239332D02*
X130985419Y-72620285D01*
X117132733Y-88192780D02*
X117085114Y-88240400D01*
X117085114Y-88240400D02*
X116942257Y-88288019D01*
X116942257Y-88288019D02*
X116847019Y-88288019D01*
X116847019Y-88288019D02*
X116704162Y-88240400D01*
X116704162Y-88240400D02*
X116608924Y-88145161D01*
X116608924Y-88145161D02*
X116561305Y-88049923D01*
X116561305Y-88049923D02*
X116513686Y-87859447D01*
X116513686Y-87859447D02*
X116513686Y-87716590D01*
X116513686Y-87716590D02*
X116561305Y-87526114D01*
X116561305Y-87526114D02*
X116608924Y-87430876D01*
X116608924Y-87430876D02*
X116704162Y-87335638D01*
X116704162Y-87335638D02*
X116847019Y-87288019D01*
X116847019Y-87288019D02*
X116942257Y-87288019D01*
X116942257Y-87288019D02*
X117085114Y-87335638D01*
X117085114Y-87335638D02*
X117132733Y-87383257D01*
X117989876Y-87621352D02*
X117989876Y-88288019D01*
X117751781Y-87240400D02*
X117513686Y-87954685D01*
X117513686Y-87954685D02*
X118132733Y-87954685D01*
X124825819Y-70530904D02*
X125635342Y-70530904D01*
X125635342Y-70530904D02*
X125730580Y-70483285D01*
X125730580Y-70483285D02*
X125778200Y-70435666D01*
X125778200Y-70435666D02*
X125825819Y-70340428D01*
X125825819Y-70340428D02*
X125825819Y-70149952D01*
X125825819Y-70149952D02*
X125778200Y-70054714D01*
X125778200Y-70054714D02*
X125730580Y-70007095D01*
X125730580Y-70007095D02*
X125635342Y-69959476D01*
X125635342Y-69959476D02*
X124825819Y-69959476D01*
X125825819Y-68959476D02*
X125825819Y-69530904D01*
X125825819Y-69245190D02*
X124825819Y-69245190D01*
X124825819Y-69245190D02*
X124968676Y-69340428D01*
X124968676Y-69340428D02*
X125063914Y-69435666D01*
X125063914Y-69435666D02*
X125111533Y-69530904D01*
D14*
%TO.C,R4*%
X117028700Y-85268524D02*
X117028700Y-84759076D01*
X118073700Y-85268524D02*
X118073700Y-84759076D01*
D15*
%TO.C,G\u002A\u002A\u002A*%
G36*
X121911471Y-69242909D02*
G01*
X122137278Y-69313057D01*
X122351972Y-69421983D01*
X122403624Y-69455539D01*
X122537672Y-69547024D01*
X122587837Y-69499896D01*
X122680206Y-69438745D01*
X122776930Y-69419342D01*
X122872557Y-69438689D01*
X122961638Y-69493787D01*
X123038722Y-69581640D01*
X123098359Y-69699249D01*
X123126481Y-69796153D01*
X123137883Y-69869041D01*
X123145815Y-69958690D01*
X123150237Y-70055180D01*
X123151113Y-70148591D01*
X123148403Y-70229004D01*
X123142070Y-70286498D01*
X123132075Y-70311153D01*
X123128458Y-70310727D01*
X123114613Y-70281096D01*
X123106467Y-70222923D01*
X123105555Y-70193653D01*
X123095468Y-70065579D01*
X123068164Y-69930129D01*
X123028074Y-69803558D01*
X122979631Y-69702119D01*
X122965852Y-69681365D01*
X122894134Y-69597972D01*
X122828781Y-69557266D01*
X122765530Y-69557375D01*
X122726596Y-69576397D01*
X122666409Y-69615833D01*
X122817742Y-69772587D01*
X122936381Y-69911096D01*
X123020640Y-70043816D01*
X123068195Y-70166214D01*
X123076721Y-70273754D01*
X123076308Y-70277022D01*
X123071157Y-70333708D01*
X123083727Y-70361321D01*
X123125383Y-70374847D01*
X123154371Y-70379946D01*
X123247152Y-70414308D01*
X123323752Y-70470147D01*
X123375467Y-70526868D01*
X123398597Y-70580584D01*
X123403301Y-70640719D01*
X123384644Y-70757079D01*
X123326946Y-70871470D01*
X123227615Y-70988563D01*
X123190990Y-71023384D01*
X123127245Y-71076016D01*
X123049354Y-71132208D01*
X122966560Y-71186339D01*
X122888105Y-71232791D01*
X122823230Y-71265945D01*
X122781177Y-71280183D01*
X122771547Y-71278402D01*
X122783778Y-71261471D01*
X122825417Y-71226140D01*
X122887880Y-71179604D01*
X122897408Y-71172878D01*
X123022307Y-71073727D01*
X123129589Y-70966120D01*
X123213558Y-70857457D01*
X123268517Y-70755135D01*
X123288771Y-70666552D01*
X123288783Y-70664597D01*
X123271650Y-70625238D01*
X123231115Y-70578883D01*
X123183477Y-70541387D01*
X123148709Y-70528311D01*
X123130571Y-70547953D01*
X123116151Y-70591295D01*
X123067070Y-70788043D01*
X123009607Y-70944107D01*
X122941146Y-71064248D01*
X122859073Y-71153224D01*
X122777662Y-71207382D01*
X122733990Y-71236672D01*
X122722944Y-71272630D01*
X122729828Y-71314129D01*
X122741285Y-71421221D01*
X122729823Y-71524258D01*
X122698711Y-71611552D01*
X122651217Y-71671415D01*
X122625793Y-71686124D01*
X122567000Y-71702249D01*
X122487176Y-71715994D01*
X122406774Y-71724635D01*
X122346248Y-71725446D01*
X122338287Y-71724422D01*
X122204871Y-71689244D01*
X122057713Y-71631397D01*
X121916755Y-71559256D01*
X121858661Y-71523022D01*
X121705267Y-71420146D01*
X121636386Y-71478106D01*
X121572429Y-71518719D01*
X121496889Y-71534827D01*
X121457833Y-71536065D01*
X121364328Y-71525102D01*
X121289925Y-71487895D01*
X121226144Y-71417971D01*
X121167008Y-71313992D01*
X121139387Y-71253205D01*
X121120704Y-71196848D01*
X121108887Y-71132933D01*
X121101867Y-71049471D01*
X121097572Y-70934474D01*
X121096892Y-70908003D01*
X121095280Y-70784726D01*
X121097604Y-70705993D01*
X121103839Y-70672202D01*
X121111350Y-70677183D01*
X121127072Y-70732918D01*
X121134243Y-70798631D01*
X121146050Y-70912797D01*
X121173818Y-71038250D01*
X121212634Y-71158132D01*
X121257588Y-71255585D01*
X121275556Y-71283642D01*
X121345875Y-71365953D01*
X121409325Y-71406157D01*
X121470831Y-71406409D01*
X121487249Y-71398416D01*
X121731344Y-71398416D01*
X121751465Y-71420572D01*
X121805153Y-71452432D01*
X121882389Y-71489598D01*
X121973159Y-71527671D01*
X122067445Y-71562252D01*
X122155232Y-71588942D01*
X122177962Y-71594559D01*
X122330287Y-71616853D01*
X122455852Y-71607968D01*
X122545291Y-71571955D01*
X122582924Y-71528232D01*
X122603030Y-71468987D01*
X122600790Y-71414067D01*
X122588684Y-71393285D01*
X122562082Y-71393773D01*
X122506064Y-71408156D01*
X122445537Y-71428721D01*
X122330811Y-71460318D01*
X122202844Y-71477794D01*
X122074207Y-71481178D01*
X121957469Y-71470502D01*
X121865200Y-71445793D01*
X121830874Y-71427274D01*
X121772639Y-71388669D01*
X121741984Y-71377662D01*
X121731623Y-71392140D01*
X121731344Y-71398416D01*
X121487249Y-71398416D01*
X121511247Y-71386733D01*
X121571662Y-71347148D01*
X121402880Y-71170486D01*
X121288930Y-71039827D01*
X121212682Y-70923912D01*
X121171060Y-70816614D01*
X121161474Y-70716826D01*
X121284475Y-70716826D01*
X121286737Y-70799717D01*
X121310350Y-70893018D01*
X121334486Y-70948704D01*
X121367332Y-71003611D01*
X121414647Y-71072050D01*
X121468696Y-71144134D01*
X121521747Y-71209976D01*
X121566066Y-71259687D01*
X121593919Y-71283380D01*
X121596836Y-71284127D01*
X121617998Y-71265597D01*
X121628628Y-71249358D01*
X121855952Y-71249358D01*
X121859154Y-71267023D01*
X121892989Y-71309260D01*
X121959082Y-71348797D01*
X122043989Y-71379863D01*
X122134264Y-71396686D01*
X122164635Y-71398141D01*
X122244238Y-71394236D01*
X122342886Y-71383641D01*
X122410847Y-71373390D01*
X122485266Y-71356978D01*
X122537583Y-71338849D01*
X122555870Y-71323938D01*
X122540257Y-71284143D01*
X122498762Y-71222954D01*
X122439407Y-71149786D01*
X122370210Y-71074051D01*
X122299192Y-71005162D01*
X122247758Y-70962287D01*
X122177269Y-70912026D01*
X122130409Y-70887931D01*
X122096643Y-70885656D01*
X122078875Y-70892638D01*
X122014857Y-70942089D01*
X121953248Y-71014937D01*
X121901357Y-71098731D01*
X121866489Y-71181022D01*
X121855952Y-71249358D01*
X121628628Y-71249358D01*
X121648456Y-71219068D01*
X121660413Y-71196865D01*
X121700387Y-71101836D01*
X121735210Y-70989333D01*
X121760775Y-70876075D01*
X121772975Y-70778780D01*
X121772666Y-70739962D01*
X121762686Y-70685623D01*
X121750840Y-70671413D01*
X122440343Y-70671413D01*
X122455361Y-70754461D01*
X122504127Y-70903034D01*
X122583411Y-71037914D01*
X122637966Y-71088606D01*
X122701812Y-71096469D01*
X122777224Y-71061347D01*
X122826942Y-71021418D01*
X122885490Y-70953067D01*
X122948379Y-70854598D01*
X123007872Y-70740080D01*
X123056231Y-70623581D01*
X123071616Y-70576581D01*
X123087809Y-70521787D01*
X122930631Y-70533892D01*
X122822155Y-70549730D01*
X122700033Y-70578737D01*
X122606898Y-70608705D01*
X122440343Y-70671413D01*
X121750840Y-70671413D01*
X121735823Y-70653399D01*
X121678558Y-70627668D01*
X121674085Y-70626069D01*
X121587118Y-70606738D01*
X121491295Y-70603040D01*
X121401295Y-70613682D01*
X121331791Y-70637372D01*
X121305009Y-70658573D01*
X121284475Y-70716826D01*
X121161474Y-70716826D01*
X121160992Y-70711805D01*
X121162433Y-70691244D01*
X121165654Y-70632121D01*
X121152742Y-70603314D01*
X121112533Y-70589604D01*
X121084203Y-70584582D01*
X120998527Y-70552975D01*
X120917655Y-70494860D01*
X120916041Y-70493089D01*
X122006186Y-70493089D01*
X122025690Y-70562945D01*
X122083212Y-70607913D01*
X122115784Y-70618375D01*
X122137336Y-70608403D01*
X122178768Y-70582935D01*
X122224881Y-70531176D01*
X122237787Y-70468354D01*
X122217735Y-70409711D01*
X122175403Y-70374743D01*
X122105574Y-70362806D01*
X122047826Y-70389459D01*
X122012429Y-70447519D01*
X122006186Y-70493089D01*
X120916041Y-70493089D01*
X120865921Y-70438103D01*
X120842792Y-70384350D01*
X120838107Y-70324465D01*
X120850604Y-70215641D01*
X120891740Y-70116173D01*
X120966978Y-70014929D01*
X121014864Y-69964374D01*
X121070499Y-69915879D01*
X121144433Y-69860997D01*
X121227541Y-69805307D01*
X121310700Y-69754386D01*
X121384783Y-69713811D01*
X121440666Y-69689162D01*
X121469224Y-69686014D01*
X121469643Y-69686387D01*
X121457343Y-69703104D01*
X121415733Y-69737679D01*
X121353726Y-69782726D01*
X121351748Y-69784091D01*
X121266801Y-69850061D01*
X121175774Y-69932136D01*
X121111680Y-69998129D01*
X121024047Y-70111425D01*
X120972181Y-70212784D01*
X120956720Y-70298856D01*
X120978301Y-70366290D01*
X121033315Y-70409866D01*
X121081913Y-70430535D01*
X121105828Y-70427745D01*
X121110330Y-70414679D01*
X121169328Y-70414679D01*
X121182745Y-70431959D01*
X121215373Y-70436686D01*
X121266004Y-70436569D01*
X121356262Y-70430842D01*
X121445987Y-70416721D01*
X121467953Y-70411403D01*
X121546742Y-70386382D01*
X121636525Y-70353073D01*
X121668359Y-70340000D01*
X121734041Y-70308297D01*
X121766629Y-70279049D01*
X121776839Y-70241344D01*
X121777151Y-70229235D01*
X121775489Y-70217706D01*
X122460712Y-70217706D01*
X122464579Y-70275002D01*
X122473013Y-70291870D01*
X122531075Y-70327349D01*
X122618991Y-70351934D01*
X122721581Y-70363103D01*
X122823663Y-70358334D01*
X122848135Y-70354195D01*
X122917385Y-70325438D01*
X122952286Y-70271800D01*
X122953947Y-70190152D01*
X122934662Y-70110594D01*
X122908023Y-70047019D01*
X122865594Y-69968195D01*
X122813829Y-69883735D01*
X122759187Y-69803251D01*
X122708124Y-69736357D01*
X122667097Y-69692668D01*
X122646046Y-69680880D01*
X122616705Y-69701871D01*
X122583583Y-69758152D01*
X122549520Y-69839690D01*
X122517360Y-69936448D01*
X122489944Y-70038394D01*
X122470114Y-70135491D01*
X122460712Y-70217706D01*
X121775489Y-70217706D01*
X121764425Y-70140959D01*
X121730760Y-70049620D01*
X121682926Y-69966210D01*
X121627690Y-69901716D01*
X121571821Y-69867127D01*
X121552242Y-69864109D01*
X121495674Y-69883187D01*
X121427885Y-69934177D01*
X121357508Y-70007708D01*
X121293176Y-70094409D01*
X121243522Y-70184912D01*
X121233123Y-70210473D01*
X121195637Y-70311642D01*
X121173998Y-70377142D01*
X121169328Y-70414679D01*
X121110330Y-70414679D01*
X121117679Y-70393351D01*
X121124788Y-70350808D01*
X121151030Y-70238164D01*
X121192568Y-70112915D01*
X121242157Y-69994459D01*
X121291994Y-69903040D01*
X121349958Y-69836150D01*
X121421230Y-69779844D01*
X121438929Y-69769775D01*
X121494610Y-69736706D01*
X121515631Y-69707544D01*
X121512138Y-69675768D01*
X121507121Y-69643150D01*
X121685551Y-69643150D01*
X121701983Y-69685171D01*
X121745835Y-69747804D01*
X121808989Y-69822760D01*
X121883326Y-69901749D01*
X121960730Y-69976481D01*
X122033082Y-70038666D01*
X122092263Y-70080016D01*
X122125666Y-70092576D01*
X122149878Y-70077999D01*
X122193968Y-70040063D01*
X122225921Y-70009303D01*
X122294578Y-69927869D01*
X122346400Y-69841671D01*
X122376414Y-69761616D01*
X122379651Y-69698608D01*
X122374262Y-69683907D01*
X122330877Y-69641558D01*
X122256433Y-69604050D01*
X122165669Y-69577087D01*
X122073323Y-69566374D01*
X122070583Y-69566363D01*
X121984949Y-69570542D01*
X121893099Y-69581576D01*
X121806328Y-69597213D01*
X121735933Y-69615200D01*
X121693207Y-69633285D01*
X121685551Y-69643150D01*
X121507121Y-69643150D01*
X121498699Y-69588394D01*
X121502769Y-69500861D01*
X121639710Y-69500861D01*
X121641847Y-69552712D01*
X121651033Y-69570031D01*
X121676636Y-69568876D01*
X121733984Y-69555487D01*
X121811542Y-69532636D01*
X121825807Y-69528042D01*
X121965388Y-69492511D01*
X122100744Y-69475534D01*
X122131272Y-69474749D01*
X122246596Y-69483281D01*
X122345208Y-69512850D01*
X122385938Y-69531912D01*
X122454457Y-69566492D01*
X122491591Y-69583429D01*
X122506933Y-69585551D01*
X122510075Y-69575688D01*
X122510063Y-69568522D01*
X122490031Y-69547188D01*
X122436536Y-69515540D01*
X122359477Y-69478022D01*
X122268755Y-69439077D01*
X122174272Y-69403150D01*
X122085927Y-69374685D01*
X122066411Y-69369373D01*
X121940089Y-69347452D01*
X121824397Y-69347624D01*
X121730517Y-69369047D01*
X121681485Y-69398253D01*
X121654199Y-69442171D01*
X121639710Y-69500861D01*
X121502769Y-69500861D01*
X121503387Y-69487565D01*
X121524150Y-69396052D01*
X121540635Y-69359676D01*
X121603900Y-69294426D01*
X121696997Y-69251109D01*
X121807668Y-69233586D01*
X121911471Y-69242909D01*
G37*
D14*
%TO.C,C7*%
X124936467Y-73912000D02*
X124643933Y-73912000D01*
X124936467Y-74932000D02*
X124643933Y-74932000D01*
D13*
%TO.C,U2*%
X125494800Y-75882100D02*
X121494800Y-75882100D01*
X125494800Y-81282100D02*
X121494800Y-81282100D01*
D14*
X126084800Y-81612100D02*
X125604800Y-81612100D01*
X125844800Y-81282100D01*
X126084800Y-81612100D01*
G36*
X126084800Y-81612100D02*
G01*
X125604800Y-81612100D01*
X125844800Y-81282100D01*
X126084800Y-81612100D01*
G37*
%TO.C,C9*%
X118585333Y-73779100D02*
X118877867Y-73779100D01*
X118585333Y-74799100D02*
X118877867Y-74799100D01*
%TO.C,C5*%
X110610867Y-87374000D02*
X110318333Y-87374000D01*
X110610867Y-88394000D02*
X110318333Y-88394000D01*
%TO.C,R3*%
X129931900Y-84759076D02*
X129931900Y-85268524D01*
X130976900Y-84759076D02*
X130976900Y-85268524D01*
%TO.C,D2*%
X127230200Y-75349200D02*
X127230200Y-77809200D01*
X127230200Y-77809200D02*
X128700200Y-77809200D01*
X128700200Y-77809200D02*
X128700200Y-75349200D01*
%TO.C,C1*%
X118053067Y-76325000D02*
X117760533Y-76325000D01*
X118053067Y-77345000D02*
X117760533Y-77345000D01*
%TO.C,U3*%
X108731000Y-80487600D02*
X109991000Y-80487600D01*
X108731000Y-84247600D02*
X108731000Y-80487600D01*
X115551000Y-80487600D02*
X114291000Y-80487600D01*
X115551000Y-84247600D02*
X115551000Y-80487600D01*
X108831000Y-85527600D02*
X108501000Y-85767600D01*
X108501000Y-85287600D01*
X108831000Y-85527600D01*
G36*
X108831000Y-85527600D02*
G01*
X108501000Y-85767600D01*
X108501000Y-85287600D01*
X108831000Y-85527600D01*
G37*
D16*
%TO.C,MT1*%
X117354600Y-68267900D02*
X117409600Y-68267900D01*
X117354600Y-68822900D02*
X117354600Y-68267900D01*
X117354600Y-71267900D02*
X117354600Y-70712900D01*
X117354600Y-71267900D02*
X117409600Y-71267900D01*
X119799600Y-68267900D02*
X119854600Y-68267900D01*
X119854600Y-68267900D02*
X119854600Y-68822900D01*
X119854600Y-70712900D02*
X119854600Y-71267900D01*
X119854600Y-71267900D02*
X119799600Y-71267900D01*
D17*
X119454600Y-67767900D02*
G75*
G02*
X119254600Y-67767900I-100000J0D01*
G01*
X119254600Y-67767900D02*
G75*
G02*
X119454600Y-67767900I100000J0D01*
G01*
D14*
%TO.C,C3*%
X114675967Y-88999600D02*
X114383433Y-88999600D01*
X114675967Y-90019600D02*
X114383433Y-90019600D01*
%TO.C,J3*%
X119328200Y-86459600D02*
X119328200Y-88239600D01*
X121228200Y-83539600D02*
X120428200Y-83539600D01*
X128728200Y-86459600D02*
X128728200Y-88239600D01*
%TO.C,R1*%
X117652076Y-80655900D02*
X118161524Y-80655900D01*
X117652076Y-81700900D02*
X118161524Y-81700900D01*
%TO.C,C6*%
X112248733Y-76452000D02*
X112541267Y-76452000D01*
X112248733Y-77472000D02*
X112541267Y-77472000D01*
%TO.C,D1*%
X117092800Y-80211600D02*
X119552800Y-80211600D01*
X119552800Y-78741600D02*
X117092800Y-78741600D01*
X119552800Y-80211600D02*
X119552800Y-78741600D01*
%TO.C,C10*%
X115402200Y-69672433D02*
X115402200Y-69964967D01*
X116422200Y-69672433D02*
X116422200Y-69964967D01*
%TO.C,C8*%
X117138667Y-71981600D02*
X116846133Y-71981600D01*
X117138667Y-73001600D02*
X116846133Y-73001600D01*
%TO.C,J2*%
X108018600Y-72042600D02*
X108018600Y-68162600D01*
X109988600Y-66992600D02*
X111138600Y-66992600D01*
X109988600Y-73212600D02*
X111138600Y-73212600D01*
X111138600Y-66992600D02*
X111138600Y-68042600D01*
X111138600Y-72162600D02*
X112128600Y-72162600D01*
X111138600Y-73212600D02*
X111138600Y-72162600D01*
%TO.C,R2*%
X129093700Y-75894476D02*
X129093700Y-76403924D01*
X130138700Y-75894476D02*
X130138700Y-76403924D01*
%TO.C,C4*%
X114649467Y-87297800D02*
X114356933Y-87297800D01*
X114649467Y-88317800D02*
X114356933Y-88317800D01*
%TO.C,U1*%
X124414600Y-69799200D02*
X124414600Y-67849200D01*
X124414600Y-69799200D02*
X124414600Y-71749200D01*
X129534600Y-69799200D02*
X129534600Y-67849200D01*
X129534600Y-69799200D02*
X129534600Y-71749200D01*
X124509600Y-72499200D02*
X124179600Y-72739200D01*
X124179600Y-72259200D01*
X124509600Y-72499200D01*
G36*
X124509600Y-72499200D02*
G01*
X124179600Y-72739200D01*
X124179600Y-72259200D01*
X124509600Y-72499200D01*
G37*
%TD*%
M02*
