M48
; DRILL file {KiCad 8.0.5} date 2024-10-05T00:07:46-0600
; FORMAT={-:-/ absolute / inch / decimal}
; #@! TF.CreationDate,2024-10-05T00:07:46-06:00
; #@! TF.GenerationSoftware,Kicad,Pcbnew,8.0.5
; #@! TF.FileFunction,Plated,1,2,PTH
FMAT,2
INCH
; #@! TA.AperFunction,Plated,PTH,ViaDrill
T1C0.0118
; #@! TA.AperFunction,Plated,PTH,ComponentDrill
T2C0.0236
%
G90
G05
T1
X4.281Y-3.46
X4.282Y-3.34
X4.282Y-3.395
X4.324Y-3.315
X4.341Y-2.74
X4.44Y-3.457
X4.441Y-3.524
X4.493Y-3.03
X4.532Y-2.782
X4.5385Y-2.8538
X4.597Y-3.383
X4.603Y-2.747
X4.607Y-2.993
X4.686Y-2.824
X4.743Y-2.924
X4.801Y-3.106
X4.845Y-2.93
X4.928Y-3.081
X5.024Y-2.898
X5.096Y-3.134
X5.101Y-3.081
X5.136Y-3.415
T2
G00X4.7129Y-3.3301
M15
G01X4.7129Y-3.3734
M16
G05
G00X4.7129Y-3.5045
M15
G01X4.7129Y-3.5281
M16
G05
G00X5.0531Y-3.3301
M15
G01X5.0531Y-3.3734
M16
G05
G00X5.0531Y-3.5045
M15
G01X5.0531Y-3.5281
M16
G05
M30
