M48
; DRILL file {KiCad 8.0.2} date 2024-06-03T18:04:31-0600
; FORMAT={-:-/ absolute / inch / decimal}
; #@! TF.CreationDate,2024-06-03T18:04:31-06:00
; #@! TF.GenerationSoftware,Kicad,Pcbnew,8.0.2
; #@! TF.FileFunction,Plated,1,2,PTH
FMAT,2
INCH
; #@! TA.AperFunction,Plated,PTH,ViaDrill
T1C0.0118
; #@! TA.AperFunction,Plated,PTH,ComponentDrill
T2C0.0315
; #@! TA.AperFunction,Plated,PTH,ComponentDrill
T3C0.0350
; #@! TA.AperFunction,Plated,PTH,ComponentDrill
T4C0.0394
; #@! TA.AperFunction,Plated,PTH,ComponentDrill
T5C0.0791
; #@! TA.AperFunction,Plated,PTH,ComponentDrill
T6C0.1260
%
G90
G05
T1
X3.512Y-2.461
X3.5124Y-2.543
X3.5124Y-2.643
X3.5124Y-2.843
X3.5124Y-3.243
X3.5124Y-3.343
X3.5124Y-3.443
X3.5124Y-3.543
X3.5124Y-3.643
X3.515Y-2.268
X3.515Y-2.364
X3.612Y-2.461
X3.6124Y-2.243
X3.6124Y-2.364
X3.6124Y-2.543
X3.6124Y-2.643
X3.6124Y-2.843
X3.6124Y-2.943
X3.6124Y-3.243
X3.6124Y-3.343
X3.6124Y-3.643
X3.712Y-2.461
X3.7124Y-2.243
X3.7124Y-2.543
X3.7124Y-2.643
X3.7124Y-2.843
X3.7124Y-3.343
X3.7124Y-3.643
X3.723Y-2.362
X3.792Y-3.143
X3.793Y-2.845
X3.794Y-2.943
X3.794Y-3.343
X3.797Y-2.746
X3.812Y-2.461
X3.8124Y-2.543
X3.8124Y-3.443
X3.8124Y-3.543
X3.8124Y-3.643
X3.832Y-2.359
X3.838Y-2.265
X3.903Y-2.997
X3.903Y-3.054
X3.9124Y-2.443
X3.9124Y-2.543
X3.9124Y-3.243
X3.9124Y-3.443
X3.9124Y-3.543
X3.9124Y-3.643
X3.914Y-2.361
X3.931Y-2.262
X4.0124Y-2.261
X4.0124Y-2.343
X4.0124Y-3.543
X4.0124Y-3.643
X4.1124Y-2.243
X4.1124Y-2.343
X4.1124Y-3.543
X4.1124Y-3.643
X4.175Y-3.155
X4.199Y-3.07
X4.2124Y-2.243
X4.2124Y-2.343
X4.2124Y-3.543
X4.2124Y-3.643
X4.213Y-2.42
X4.264Y-3.069
X4.264Y-3.129
X4.266Y-2.875
X4.267Y-2.817
X4.3124Y-2.243
X4.3124Y-3.343
X4.3124Y-3.443
X4.3124Y-3.543
X4.3124Y-3.643
X4.4124Y-2.243
X4.4124Y-2.443
X4.4124Y-2.543
X4.4124Y-2.643
X4.4124Y-3.043
X4.4124Y-3.143
X4.4124Y-3.343
X4.4124Y-3.443
X4.415Y-3.533
X4.5124Y-2.243
X4.5124Y-3.243
X4.5124Y-3.643
X4.522Y-2.543
X4.522Y-2.643
X4.523Y-3.343
X4.712Y-3.659
X4.7124Y-3.043
X4.7124Y-3.143
X4.7124Y-3.243
X4.7124Y-3.443
X4.7124Y-3.543
X4.713Y-3.327
X4.812Y-3.659
X4.8124Y-3.543
X4.91Y-2.426
X4.912Y-3.659
X4.9124Y-3.331
X4.927Y-2.543
X4.929Y-3.54
X5.0Y-3.053
X5.0124Y-2.243
X5.0124Y-2.343
X5.0124Y-3.343
X5.055Y-2.734
X5.066Y-2.697
X5.098Y-2.776
X5.1124Y-2.243
X5.1124Y-2.343
X5.1124Y-3.143
X5.1124Y-3.343
X5.1124Y-3.443
X5.1124Y-3.543
X5.1124Y-3.643
X5.122Y-3.038
X5.13Y-2.748
X5.2124Y-2.243
X5.2124Y-2.343
X5.2124Y-2.443
X5.2124Y-2.743
X5.2124Y-3.243
X5.2124Y-3.543
X5.2124Y-3.643
X5.215Y-2.824
X5.215Y-2.883
X5.224Y-2.543
X5.224Y-2.643
X5.3124Y-2.543
X5.3124Y-2.943
X5.3124Y-3.243
X5.3124Y-3.543
X5.3124Y-3.643
X5.4124Y-2.543
X5.4124Y-2.643
X5.4124Y-2.743
X5.4124Y-2.943
X5.4124Y-3.143
X5.4124Y-3.443
X5.4124Y-3.543
X5.4124Y-3.643
X5.5124Y-2.243
X5.5124Y-2.343
X5.5124Y-2.443
X5.5124Y-2.543
X5.5124Y-2.643
X5.5124Y-2.743
X5.5124Y-3.143
X5.5124Y-3.343
X5.5124Y-3.443
X5.5124Y-3.543
X5.5124Y-3.643
X5.608Y-2.799
X5.609Y-3.013
X5.6124Y-3.143
X5.6124Y-3.443
X5.6124Y-3.543
X5.6124Y-3.643
X5.7124Y-2.243
X5.7124Y-2.943
X5.7124Y-3.043
X5.7124Y-3.143
X5.7124Y-3.443
X5.7124Y-3.543
X5.7124Y-3.643
X5.8124Y-2.243
X5.8124Y-2.343
X5.8124Y-2.443
X5.8124Y-2.543
X5.8124Y-2.643
X5.8124Y-2.743
X5.8124Y-2.843
X5.8124Y-2.943
X5.8124Y-3.043
X5.8124Y-3.143
X5.8124Y-3.218
X5.8124Y-3.443
X5.8124Y-3.543
X5.8124Y-3.643
X5.814Y-3.323
X5.9124Y-2.443
X5.9124Y-2.543
X5.9124Y-2.843
X5.9124Y-2.943
X5.9124Y-3.043
X5.9124Y-3.143
X5.9124Y-3.218
X5.9124Y-3.343
X5.9124Y-3.643
X6.012Y-3.322
X6.0124Y-2.243
X6.0124Y-2.343
X6.0124Y-2.443
X6.0124Y-2.543
X6.0124Y-2.643
X6.0124Y-2.743
X6.0124Y-2.843
X6.0124Y-2.943
X6.0124Y-3.043
X6.0124Y-3.143
X6.0124Y-3.243
X6.0124Y-3.643
X6.1124Y-2.243
X6.1124Y-2.343
X6.1124Y-2.443
X6.1124Y-2.543
X6.1124Y-2.643
X6.1124Y-2.743
X6.1124Y-2.843
X6.1124Y-2.943
X6.1124Y-3.043
X6.1124Y-3.143
X6.1124Y-3.243
X6.1124Y-3.343
X6.1124Y-3.643
T2
X4.316Y-2.355
X4.316Y-2.755
X4.345Y-2.973
X4.4434Y-2.973
X4.449Y-3.226
X4.449Y-3.626
X4.45Y-2.355
X4.45Y-2.755
X4.578Y-2.5
X4.579Y-3.446
X4.58Y-3.582
X4.597Y-2.671
X4.597Y-2.771
X4.597Y-2.871
X4.597Y-2.971
X4.597Y-3.071
X4.597Y-3.171
X4.597Y-3.271
X4.897Y-2.671
X4.897Y-2.771
X4.897Y-2.871
X4.897Y-2.971
X4.897Y-3.071
X4.897Y-3.171
X4.897Y-3.271
X4.978Y-2.5
X4.979Y-3.446
X4.98Y-3.582
X5.046Y-2.97
X5.058Y-3.227
X5.1444Y-2.97
X5.15Y-2.485
X5.15Y-2.6819
X5.298Y-2.686
X5.298Y-3.086
X5.458Y-3.227
T3
X5.7099Y-2.377
X5.7099Y-2.477
T4
X4.0022Y-3.2454
X4.0022Y-3.3454
X4.0022Y-3.4454
X4.0042Y-2.4734
X4.0042Y-2.5734
X4.0042Y-2.6734
X4.0042Y-2.8604
X4.0042Y-2.9604
X4.0042Y-3.0604
X4.1022Y-3.2454
X4.1022Y-3.3454
X4.1022Y-3.4454
X4.1042Y-2.4734
X4.1042Y-2.5734
X4.1042Y-2.6734
X4.1042Y-2.8604
X4.1042Y-2.9604
X4.1042Y-3.0604
X4.665Y-2.338
X4.765Y-2.338
X4.865Y-2.338
X5.2132Y-3.387
X5.3132Y-3.387
X5.497Y-2.853
X5.497Y-2.953
X5.497Y-3.053
X5.656Y-3.2608
X5.656Y-3.3608
T5
X5.9099Y-2.277
X5.9099Y-2.677
T6
X3.665Y-3.49
X5.363Y-2.323
X6.016Y-3.477
T4
G00X3.4693Y-2.9641
M15
G01X3.489Y-2.9641
M16
G05
G00X3.6662Y-2.7673
M15
G01X3.6858Y-2.7673
M16
G05
G00X3.6662Y-3.161
M15
G01X3.6858Y-3.161
M16
G05
M30
