%TF.GenerationSoftware,KiCad,Pcbnew,10.0.0*%
%TF.CreationDate,2026-05-01T01:25:42-06:00*%
%TF.ProjectId,Daisy_Seed_POD_v1,44616973-795f-4536-9565-645f504f445f,rev?*%
%TF.SameCoordinates,Original*%
%TF.FileFunction,Copper,L1,Top*%
%TF.FilePolarity,Positive*%
%FSLAX46Y46*%
G04 Gerber Fmt 4.6, Leading zero omitted, Abs format (unit mm)*
G04 Created by KiCad (PCBNEW 10.0.0) date 2026-05-01 01:25:42*
%MOMM*%
%LPD*%
G01*
G04 APERTURE LIST*
G04 Aperture macros list*
%AMRoundRect*
0 Rectangle with rounded corners*
0 $1 Rounding radius*
0 $2 $3 $4 $5 $6 $7 $8 $9 X,Y pos of 4 corners*
0 Add a 4 corners polygon primitive as box body*
4,1,4,$2,$3,$4,$5,$6,$7,$8,$9,$2,$3,0*
0 Add four circle primitives for the rounded corners*
1,1,$1+$1,$2,$3*
1,1,$1+$1,$4,$5*
1,1,$1+$1,$6,$7*
1,1,$1+$1,$8,$9*
0 Add four rect primitives between the rounded corners*
20,1,$1+$1,$2,$3,$4,$5,0*
20,1,$1+$1,$4,$5,$6,$7,0*
20,1,$1+$1,$6,$7,$8,$9,0*
20,1,$1+$1,$8,$9,$2,$3,0*%
G04 Aperture macros list end*
%TA.AperFunction,SMDPad,CuDef*%
%ADD10R,2.200000X2.500000*%
%TD*%
%TA.AperFunction,SMDPad,CuDef*%
%ADD11R,2.200000X2.900000*%
%TD*%
%TA.AperFunction,SMDPad,CuDef*%
%ADD12RoundRect,0.250000X0.262500X0.450000X-0.262500X0.450000X-0.262500X-0.450000X0.262500X-0.450000X0*%
%TD*%
%TA.AperFunction,SMDPad,CuDef*%
%ADD13R,3.200000X1.600000*%
%TD*%
%TA.AperFunction,SMDPad,CuDef*%
%ADD14RoundRect,0.250000X-0.450000X0.262500X-0.450000X-0.262500X0.450000X-0.262500X0.450000X0.262500X0*%
%TD*%
%TA.AperFunction,SMDPad,CuDef*%
%ADD15RoundRect,0.250000X-0.250000X-0.475000X0.250000X-0.475000X0.250000X0.475000X-0.250000X0.475000X0*%
%TD*%
%TA.AperFunction,ComponentPad*%
%ADD16R,1.700000X1.700000*%
%TD*%
%TA.AperFunction,ComponentPad*%
%ADD17C,1.700000*%
%TD*%
%TA.AperFunction,SMDPad,CuDef*%
%ADD18RoundRect,0.250000X-0.262500X-0.450000X0.262500X-0.450000X0.262500X0.450000X-0.262500X0.450000X0*%
%TD*%
%TA.AperFunction,SMDPad,CuDef*%
%ADD19RoundRect,0.098750X-0.596250X-0.296250X0.596250X-0.296250X0.596250X0.296250X-0.596250X0.296250X0*%
%TD*%
%TA.AperFunction,SMDPad,CuDef*%
%ADD20RoundRect,0.250000X0.475000X-0.250000X0.475000X0.250000X-0.475000X0.250000X-0.475000X-0.250000X0*%
%TD*%
%TA.AperFunction,SMDPad,CuDef*%
%ADD21R,0.460000X1.040000*%
%TD*%
%TA.AperFunction,ComponentPad*%
%ADD22C,0.800000*%
%TD*%
%TA.AperFunction,ComponentPad*%
%ADD23C,6.400000*%
%TD*%
%TA.AperFunction,SMDPad,CuDef*%
%ADD24RoundRect,0.250000X-0.475000X0.250000X-0.475000X-0.250000X0.475000X-0.250000X0.475000X0.250000X0*%
%TD*%
%TA.AperFunction,SMDPad,CuDef*%
%ADD25RoundRect,0.150000X-0.500000X0.150000X-0.500000X-0.150000X0.500000X-0.150000X0.500000X0.150000X0*%
%TD*%
%TA.AperFunction,SMDPad,CuDef*%
%ADD26RoundRect,0.075000X-0.575000X0.075000X-0.575000X-0.075000X0.575000X-0.075000X0.575000X0.075000X0*%
%TD*%
%TA.AperFunction,ComponentPad*%
%ADD27O,2.100000X1.000000*%
%TD*%
%TA.AperFunction,ComponentPad*%
%ADD28O,1.600000X1.000000*%
%TD*%
%TA.AperFunction,ComponentPad*%
%ADD29C,1.440000*%
%TD*%
%TA.AperFunction,SMDPad,CuDef*%
%ADD30R,1.300000X2.400000*%
%TD*%
%TA.AperFunction,SMDPad,CuDef*%
%ADD31R,3.750000X4.000000*%
%TD*%
%TA.AperFunction,SMDPad,CuDef*%
%ADD32R,2.500000X3.200000*%
%TD*%
%TA.AperFunction,SMDPad,CuDef*%
%ADD33RoundRect,0.125000X-0.600000X-0.125000X0.600000X-0.125000X0.600000X0.125000X-0.600000X0.125000X0*%
%TD*%
%TA.AperFunction,HeatsinkPad*%
%ADD34R,1.570000X1.890000*%
%TD*%
%TA.AperFunction,SMDPad,CuDef*%
%ADD35RoundRect,0.250000X0.450000X-0.262500X0.450000X0.262500X-0.450000X0.262500X-0.450000X-0.262500X0*%
%TD*%
%TA.AperFunction,SMDPad,CuDef*%
%ADD36R,1.050000X0.650000*%
%TD*%
%TA.AperFunction,SMDPad,CuDef*%
%ADD37R,1.520000X1.780000*%
%TD*%
%TA.AperFunction,SMDPad,CuDef*%
%ADD38R,1.200000X1.400000*%
%TD*%
%TA.AperFunction,ComponentPad*%
%ADD39C,3.762000*%
%TD*%
%TA.AperFunction,SMDPad,CuDef*%
%ADD40R,2.200000X1.400000*%
%TD*%
%TA.AperFunction,ViaPad*%
%ADD41C,0.600000*%
%TD*%
%TA.AperFunction,Conductor*%
%ADD42C,0.203200*%
%TD*%
%TA.AperFunction,Conductor*%
%ADD43C,0.381000*%
%TD*%
%TA.AperFunction,Conductor*%
%ADD44C,0.508000*%
%TD*%
%TA.AperFunction,Conductor*%
%ADD45C,0.254000*%
%TD*%
%TA.AperFunction,Conductor*%
%ADD46C,0.304800*%
%TD*%
%TA.AperFunction,Conductor*%
%ADD47C,0.200000*%
%TD*%
G04 APERTURE END LIST*
D10*
%TO.P,J1,1,SLEEVE_1_1*%
%TO.N,GND*%
X170097400Y-48855000D03*
%TO.P,J1,2,TIP_2*%
%TO.N,/MIDI_IN_TIP*%
X163397400Y-48855000D03*
%TO.P,J1,3,RING_3*%
%TO.N,/MIDI_IN_RING*%
X167497400Y-56555000D03*
%TO.P,J1,4,SLEEVE_2_4*%
%TO.N,unconnected-(J1-SLEEVE_2-Pad4)*%
X171097400Y-56555000D03*
D11*
%TO.P,J1,10,TIP_SWITCH_10*%
%TO.N,unconnected-(J1-TIP_SWITCH-Pad10)*%
X161597400Y-56355000D03*
%TD*%
D12*
%TO.P,R7,1*%
%TO.N,/MIDI_IN_TIP*%
X158977500Y-40210000D03*
%TO.P,R7,2*%
%TO.N,/MIDI_IN_B*%
X157152500Y-40210000D03*
%TD*%
D10*
%TO.P,J3,1,SLEEVE_1_1*%
%TO.N,GND*%
X170120200Y-73830800D03*
%TO.P,J3,2,TIP_2*%
%TO.N,/AUDIO_OUT_L*%
X163420200Y-73830800D03*
%TO.P,J3,3,RING_3*%
%TO.N,/AUDIO_OUT_R*%
X167520200Y-81530800D03*
%TO.P,J3,4,SLEEVE_2_4*%
%TO.N,unconnected-(J3-SLEEVE_2-Pad4)*%
X171120200Y-81530800D03*
D11*
%TO.P,J3,10,TIP_SWITCH_10*%
%TO.N,unconnected-(J3-TIP_SWITCH-Pad10)*%
X161620200Y-81330800D03*
%TD*%
D10*
%TO.P,J4,1,SLEEVE_1_1*%
%TO.N,GND*%
X170170600Y-86280000D03*
%TO.P,J4,2,TIP_2*%
%TO.N,/HEADPHONE_OUT_L*%
X163470600Y-86280000D03*
%TO.P,J4,3,RING_3*%
%TO.N,/HEADPHONE_OUT_R*%
X167570600Y-93980000D03*
%TO.P,J4,4,SLEEVE_2_4*%
%TO.N,unconnected-(J4-SLEEVE_2-Pad4)*%
X171170600Y-93980000D03*
D11*
%TO.P,J4,10,TIP_SWITCH_10*%
%TO.N,unconnected-(J4-TIP_SWITCH-Pad10)*%
X161670600Y-93780000D03*
%TD*%
D13*
%TO.P,C6,1*%
%TO.N,Net-(U1-VO1)*%
X151425000Y-85500000D03*
%TO.P,C6,2*%
%TO.N,/HEADPHONE_OUT_L*%
X156425000Y-85500000D03*
%TD*%
D14*
%TO.P,R18,1*%
%TO.N,Net-(J6-CC2)*%
X91675000Y-52862500D03*
%TO.P,R18,2*%
%TO.N,GND*%
X91675000Y-54687500D03*
%TD*%
D12*
%TO.P,R5,1*%
%TO.N,/MIDI_IN_RING*%
X159002500Y-44610000D03*
%TO.P,R5,2*%
%TO.N,/MIDI_IN_A*%
X157177500Y-44610000D03*
%TD*%
D15*
%TO.P,C2,1*%
%TO.N,/HEADPHONE_WIPER_L*%
X146400000Y-76625000D03*
%TO.P,C2,2*%
%TO.N,Net-(C2-Pad2)*%
X148300000Y-76625000D03*
%TD*%
D16*
%TO.P,A1,1,USB_ID_1*%
%TO.N,unconnected-(A1-USB_ID-Pad1)*%
X85425000Y-58415000D03*
D17*
%TO.P,A1,2,SD_DATA_3_2*%
%TO.N,unconnected-(A1-SD_DATA_3-Pad2)*%
X87965000Y-58415000D03*
%TO.P,A1,3,SD_DATA_2_3*%
%TO.N,unconnected-(A1-SD_DATA_2-Pad3)*%
X90505000Y-58415000D03*
%TO.P,A1,4,SD_DATA_1_4*%
%TO.N,unconnected-(A1-SD_DATA_1-Pad4)*%
X93045000Y-58415000D03*
%TO.P,A1,5,SD_DATA_0_5*%
%TO.N,unconnected-(A1-SD_DATA_0-Pad5)*%
X95585000Y-58415000D03*
%TO.P,A1,6,SD_CMD_6*%
%TO.N,unconnected-(A1-SD_CMD-Pad6)*%
X98125000Y-58415000D03*
%TO.P,A1,7,SD_CLK_7*%
%TO.N,unconnected-(A1-SD_CLK-Pad7)*%
X100665000Y-58415000D03*
%TO.P,A1,8,SPI1_CS_8*%
%TO.N,unconnected-(A1-SPI1_CS-Pad8)*%
X103205000Y-58415000D03*
%TO.P,A1,9,SPI1_SCK_9*%
%TO.N,unconnected-(A1-SPI1_SCK-Pad9)*%
X105745000Y-58415000D03*
%TO.P,A1,10,SPI1_POCI_10*%
%TO.N,unconnected-(A1-SPI1_POCI-Pad10)*%
X108285000Y-58415000D03*
%TO.P,A1,11,SPI1_PICO_11*%
%TO.N,unconnected-(A1-SPI1_PICO-Pad11)*%
X110825000Y-58415000D03*
%TO.P,A1,12,I2C1_SCL_12*%
%TO.N,/OLED_SCL*%
X113365000Y-58415000D03*
%TO.P,A1,13,I2C1_SDA_13*%
%TO.N,/OLED_SDA*%
X115905000Y-58415000D03*
%TO.P,A1,14,USART1_TX_14*%
%TO.N,/ENC_CLICK*%
X118445000Y-58415000D03*
%TO.P,A1,15,USART1_RX_15*%
%TO.N,/USART_RX*%
X120985000Y-58415000D03*
%TO.P,A1,16,AUDIO_IN_1_16*%
%TO.N,/AUDIO_IN_L*%
X123525000Y-58415000D03*
%TO.P,A1,17,AUDIO_IN_2_17*%
%TO.N,/AUDIO_IN_R*%
X126065000Y-58415000D03*
%TO.P,A1,18,AUDIO_OUT_1_18*%
%TO.N,/AUDIO_OUT_L*%
X128605000Y-58415000D03*
%TO.P,A1,19,AUDIO_OUT_2_19*%
%TO.N,/AUDIO_OUT_R*%
X131145000Y-58415000D03*
%TO.P,A1,20,AGND_20*%
%TO.N,GND*%
X133685000Y-58415000D03*
%TO.P,A1,21,3V3_A_21*%
%TO.N,+3V3*%
X133685000Y-43175000D03*
%TO.P,A1,22,ADC_0_22*%
%TO.N,/POT_2*%
X131145000Y-43175000D03*
%TO.P,A1,23,ADC_1_23*%
%TO.N,unconnected-(A1-ADC_1-Pad23)*%
X128605000Y-43175000D03*
%TO.P,A1,24,ADC_2_24*%
%TO.N,/LED_1_B*%
X126065000Y-43175000D03*
%TO.P,A1,25,ADC_3_25*%
%TO.N,/LED_1_G*%
X123525000Y-43175000D03*
%TO.P,A1,26,ADC_4_26*%
%TO.N,/LED_1_R*%
X120985000Y-43175000D03*
%TO.P,A1,27,ADC_5_27*%
%TO.N,/LED_2_B*%
X118445000Y-43175000D03*
%TO.P,A1,28,ADC_6_28*%
%TO.N,/POT_1*%
X115905000Y-43175000D03*
%TO.P,A1,29,DAC_OUT2_29*%
%TO.N,unconnected-(A1-DAC_OUT2-Pad29)*%
X113365000Y-43175000D03*
%TO.P,A1,30,DAC_OUT1_30*%
%TO.N,/LED_2_G*%
X110825000Y-43175000D03*
%TO.P,A1,31,SAI2_MCLK_31*%
%TO.N,/LED_2_R*%
X108285000Y-43175000D03*
%TO.P,A1,32,SAI2_SD_B_32*%
%TO.N,/ENC_A*%
X105745000Y-43175000D03*
%TO.P,A1,33,SAI2_SD_A_33*%
%TO.N,/ENC_B*%
X103205000Y-43175000D03*
%TO.P,A1,34,SAI2_FS_34*%
%TO.N,/TAC_SW_1*%
X100665000Y-43175000D03*
%TO.P,A1,35,SAI2_SCK_35*%
%TO.N,/TAC_SW_2*%
X98125000Y-43175000D03*
%TO.P,A1,36,USB_D_-_36*%
%TO.N,/USB_D-*%
X95585000Y-43175000D03*
%TO.P,A1,37,USB_D_+_37*%
%TO.N,/USB_D+*%
X93045000Y-43175000D03*
%TO.P,A1,38,3V3_D_38*%
%TO.N,+3V3*%
X90505000Y-43175000D03*
%TO.P,A1,39,VIN_39*%
%TO.N,Vin*%
X87965000Y-43175000D03*
%TO.P,A1,40,DGND_40*%
%TO.N,GND*%
X85425000Y-43175000D03*
%TD*%
D18*
%TO.P,R12,1*%
%TO.N,/LED_2_R*%
X93137500Y-92175000D03*
%TO.P,R12,2*%
%TO.N,Net-(D3-Pad1)*%
X94962500Y-92175000D03*
%TD*%
%TO.P,R11,1*%
%TO.N,Net-(D3-Pad4)*%
X96787500Y-92175000D03*
%TO.P,R11,2*%
%TO.N,/LED_2_G*%
X98612500Y-92175000D03*
%TD*%
D19*
%TO.P,D3,1*%
%TO.N,Net-(D3-Pad1)*%
X94445000Y-94350000D03*
%TO.P,D3,2*%
%TO.N,+3V3*%
X94445000Y-95850000D03*
%TO.P,D3,3*%
%TO.N,Net-(D3-Pad3)*%
X97475000Y-95850000D03*
%TO.P,D3,4*%
%TO.N,Net-(D3-Pad4)*%
X97475000Y-94350000D03*
%TD*%
D20*
%TO.P,C3,1*%
%TO.N,+3V3*%
X145550000Y-80600000D03*
%TO.P,C3,2*%
%TO.N,GND*%
X145550000Y-78700000D03*
%TD*%
D13*
%TO.P,C5,1*%
%TO.N,Net-(U1-VO2)*%
X151500000Y-93200000D03*
%TO.P,C5,2*%
%TO.N,/HEADPHONE_OUT_R*%
X156500000Y-93200000D03*
%TD*%
D19*
%TO.P,D2,1*%
%TO.N,Net-(D2-Pad1)*%
X106010000Y-94225000D03*
%TO.P,D2,2*%
%TO.N,+3V3*%
X106010000Y-95725000D03*
%TO.P,D2,3*%
%TO.N,Net-(D2-Pad3)*%
X109040000Y-95725000D03*
%TO.P,D2,4*%
%TO.N,Net-(D2-Pad4)*%
X109040000Y-94225000D03*
%TD*%
D21*
%TO.P,D1,1,K_1*%
%TO.N,Net-(D1-K)*%
X152915000Y-46300000D03*
%TO.P,D1,2,A_2*%
%TO.N,/MIDI_IN_B*%
X152915000Y-43920000D03*
%TD*%
D12*
%TO.P,R6,1*%
%TO.N,/MIDI_IN_TIP*%
X158990000Y-46760000D03*
%TO.P,R6,2*%
%TO.N,/MIDI_IN_A*%
X157165000Y-46760000D03*
%TD*%
D16*
%TO.P,J5,1,Pin_1_1*%
%TO.N,GND*%
X93947800Y-62874800D03*
D17*
%TO.P,J5,2,Pin_2_2*%
%TO.N,+3V3*%
X96487800Y-62874800D03*
%TO.P,J5,3,Pin_3_3*%
%TO.N,/OLED_SCL*%
X99027800Y-62874800D03*
%TO.P,J5,4,Pin_4_4*%
%TO.N,/OLED_SDA*%
X101567800Y-62874800D03*
%TD*%
D15*
%TO.P,C4,1*%
%TO.N,Net-(U1-BYPASS)*%
X140975000Y-80450000D03*
%TO.P,C4,2*%
%TO.N,GND*%
X142875000Y-80450000D03*
%TD*%
D22*
%TO.P,H4,1*%
%TO.N,N/C*%
X166300000Y-41975000D03*
X167002944Y-40277944D03*
X167002944Y-43672056D03*
X168700000Y-39575000D03*
D23*
X168700000Y-41975000D03*
D22*
X168700000Y-44375000D03*
X170397056Y-40277944D03*
X170397056Y-43672056D03*
X171100000Y-41975000D03*
%TD*%
D18*
%TO.P,R2,1*%
%TO.N,Net-(U1-IN2-)*%
X142402500Y-86730000D03*
%TO.P,R2,2*%
%TO.N,Net-(U1-VO2)*%
X144227500Y-86730000D03*
%TD*%
D24*
%TO.P,C7,1*%
%TO.N,+3V3*%
X138315000Y-46760000D03*
%TO.P,C7,2*%
%TO.N,GND*%
X138315000Y-48660000D03*
%TD*%
D25*
%TO.P,J6,A1,GND_A1*%
%TO.N,GND*%
X89085000Y-47800000D03*
%TO.P,J6,A4,VBUS_A4*%
%TO.N,Vin*%
X89085000Y-48600000D03*
D26*
%TO.P,J6,A5,CC1_A5*%
%TO.N,Net-(J6-CC1)*%
X89085000Y-49750000D03*
%TO.P,J6,A6,D+_A6*%
%TO.N,/USB_D+*%
X89085000Y-50750000D03*
%TO.P,J6,A7,D-_A7*%
%TO.N,/USB_D-*%
X89085000Y-51250000D03*
%TO.P,J6,A8*%
%TO.N,N/C*%
X89085000Y-52250000D03*
D25*
%TO.P,J6,A9,VBUS_A9*%
%TO.N,Vin*%
X89085000Y-53400000D03*
%TO.P,J6,A12,GND_A12*%
%TO.N,GND*%
X89085000Y-54200000D03*
%TO.P,J6,B1,GND_B1*%
X89085000Y-54200000D03*
%TO.P,J6,B4,VBUS_B4*%
%TO.N,Vin*%
X89085000Y-53400000D03*
D26*
%TO.P,J6,B5,CC2_B5*%
%TO.N,Net-(J6-CC2)*%
X89085000Y-52750000D03*
%TO.P,J6,B6,D+_B6*%
%TO.N,/USB_D+*%
X89085000Y-51750000D03*
%TO.P,J6,B7,D-_B7*%
%TO.N,/USB_D-*%
X89085000Y-50250000D03*
%TO.P,J6,B8*%
%TO.N,N/C*%
X89085000Y-49250000D03*
D25*
%TO.P,J6,B9,VBUS_B9*%
%TO.N,Vin*%
X89085000Y-48600000D03*
%TO.P,J6,B12,GND_B12*%
%TO.N,GND*%
X89085000Y-47800000D03*
D27*
%TO.P,J6,SH,SHIELD_SH*%
%TO.N,unconnected-(J6-SHIELD-PadSH)_3*%
X88445000Y-46680000D03*
D28*
%TO.N,unconnected-(J6-SHIELD-PadSH)_2*%
X84265000Y-46680000D03*
D27*
%TO.N,unconnected-(J6-SHIELD-PadSH)_1*%
X88445000Y-55320000D03*
D28*
%TO.N,unconnected-(J6-SHIELD-PadSH)*%
X84265000Y-55320000D03*
%TD*%
D29*
%TO.P,RV4,1,1_1*%
%TO.N,+3V3*%
X132935000Y-70990000D03*
%TO.P,RV4,2,2_2*%
%TO.N,/POT_2*%
X135475000Y-68450000D03*
%TO.P,RV4,3,3_3*%
%TO.N,GND*%
X132935000Y-65910000D03*
%TD*%
D30*
%TO.P,U2,A1,A1_A1*%
%TO.N,/ENC_A*%
X145400000Y-67575000D03*
%TO.P,U2,B1,B1_B1*%
%TO.N,/ENC_B*%
X150400000Y-67575000D03*
%TO.P,U2,C1,C1_C1*%
%TO.N,GND*%
X147900000Y-67575000D03*
%TO.P,U2,D1,COM_D1*%
X145400000Y-53275000D03*
%TO.P,U2,E1,NO_E1*%
%TO.N,/ENC_CLICK*%
X150400000Y-53275000D03*
D31*
%TO.P,U2,MP1,MP1_MP1*%
%TO.N,GND*%
X141525000Y-60275000D03*
%TO.P,U2,MP2,MP2_MP2*%
X154275000Y-60275000D03*
D32*
%TO.P,U2,MP3,MP3_MP3*%
X142900000Y-52375000D03*
%TO.P,U2,MP4,MP4_MP4*%
X152900000Y-52375000D03*
%TO.P,U2,MP5,MP5_MP5*%
X142900000Y-68175000D03*
%TO.P,U2,MP6,MP6_MP6*%
X152900000Y-68175000D03*
%TD*%
D33*
%TO.P,U1,1,BYPASS_1*%
%TO.N,Net-(U1-BYPASS)*%
X141250000Y-82650000D03*
%TO.P,U1,2,GND_2*%
%TO.N,GND*%
X141250000Y-83300000D03*
%TO.P,U1,3,SHDN_3*%
X141250000Y-83950000D03*
%TO.P,U1,4,IN2-_4*%
%TO.N,Net-(U1-IN2-)*%
X141250000Y-84600000D03*
%TO.P,U1,5,VO2_5*%
%TO.N,Net-(U1-VO2)*%
X145550000Y-84600000D03*
%TO.P,U1,6,VDD_6*%
%TO.N,+3V3*%
X145550000Y-83950000D03*
%TO.P,U1,7,VO1_7*%
%TO.N,Net-(U1-VO1)*%
X145550000Y-83300000D03*
%TO.P,U1,8,IN1-_8*%
%TO.N,Net-(U1-IN1-)*%
X145550000Y-82650000D03*
D34*
%TO.P,U1,9,GND_9*%
%TO.N,GND*%
X143400000Y-83625000D03*
%TD*%
D12*
%TO.P,R8,1*%
%TO.N,/MIDI_IN_RING*%
X158952500Y-42385000D03*
%TO.P,R8,2*%
%TO.N,/MIDI_IN_B*%
X157127500Y-42385000D03*
%TD*%
D14*
%TO.P,R1,1*%
%TO.N,Net-(U1-IN1-)*%
X148100000Y-82237500D03*
%TO.P,R1,2*%
%TO.N,Net-(U1-VO1)*%
X148100000Y-84062500D03*
%TD*%
%TO.P,R4,1*%
%TO.N,Net-(C2-Pad2)*%
X148075000Y-78637500D03*
%TO.P,R4,2*%
%TO.N,Net-(U1-IN1-)*%
X148075000Y-80462500D03*
%TD*%
D22*
%TO.P,H2,1*%
%TO.N,N/C*%
X125800000Y-48900000D03*
X126502944Y-47202944D03*
X126502944Y-50597056D03*
X128200000Y-46500000D03*
D23*
X128200000Y-48900000D03*
D22*
X128200000Y-51300000D03*
X129897056Y-47202944D03*
X129897056Y-50597056D03*
X130600000Y-48900000D03*
%TD*%
D14*
%TO.P,R10,1*%
%TO.N,/USART_RX*%
X138290000Y-43022500D03*
%TO.P,R10,2*%
%TO.N,+3V3*%
X138290000Y-44847500D03*
%TD*%
D22*
%TO.P,H1,1*%
%TO.N,N/C*%
X85400000Y-92450000D03*
X86102944Y-90752944D03*
X86102944Y-94147056D03*
X87800000Y-90050000D03*
D23*
X87800000Y-92450000D03*
D22*
X87800000Y-94850000D03*
X89497056Y-90752944D03*
X89497056Y-94147056D03*
X90200000Y-92450000D03*
%TD*%
D18*
%TO.P,R14,1*%
%TO.N,/LED_1_R*%
X104737500Y-92025000D03*
%TO.P,R14,2*%
%TO.N,Net-(D2-Pad1)*%
X106562500Y-92025000D03*
%TD*%
%TO.P,R15,1*%
%TO.N,Net-(D2-Pad4)*%
X108537500Y-92000000D03*
%TO.P,R15,2*%
%TO.N,/LED_1_G*%
X110362500Y-92000000D03*
%TD*%
D14*
%TO.P,R9,1*%
%TO.N,/MIDI_IN_A*%
X155040000Y-44522500D03*
%TO.P,R9,2*%
%TO.N,Net-(D1-K)*%
X155040000Y-46347500D03*
%TD*%
D35*
%TO.P,R16,1*%
%TO.N,Net-(D2-Pad3)*%
X111400000Y-95887500D03*
%TO.P,R16,2*%
%TO.N,/LED_1_B*%
X111400000Y-94062500D03*
%TD*%
%TO.P,R13,1*%
%TO.N,Net-(D3-Pad3)*%
X99825000Y-95987500D03*
%TO.P,R13,2*%
%TO.N,/LED_2_B*%
X99825000Y-94162500D03*
%TD*%
D36*
%TO.P,SW2,1,1_1*%
%TO.N,/TAC_SW_2*%
X113850152Y-87125000D03*
%TO.P,SW2,2,2_2*%
X118000152Y-87125000D03*
%TO.P,SW2,3,K_3*%
%TO.N,GND*%
X113850152Y-89275000D03*
%TO.P,SW2,4,A_4*%
X118000152Y-89275000D03*
%TD*%
D37*
%TO.P,U3,1*%
%TO.N,Net-(D1-K)*%
X150030000Y-46340000D03*
%TO.P,U3,2*%
%TO.N,/MIDI_IN_B*%
X150030000Y-43800000D03*
%TO.P,U3,3*%
%TO.N,N/C*%
X150030000Y-41260000D03*
%TO.P,U3,4*%
%TO.N,/USART_RX*%
X141020000Y-41260000D03*
%TO.P,U3,5*%
%TO.N,GND*%
X141020000Y-43800000D03*
%TO.P,U3,6*%
%TO.N,+3V3*%
X141020000Y-46340000D03*
%TD*%
D36*
%TO.P,SW1,1,1_1*%
%TO.N,/TAC_SW_1*%
X113800152Y-79325000D03*
%TO.P,SW1,2,2_2*%
X117950152Y-79325000D03*
%TO.P,SW1,3,K_3*%
%TO.N,GND*%
X113800152Y-81475000D03*
%TO.P,SW1,4,A_4*%
X117950152Y-81475000D03*
%TD*%
D14*
%TO.P,R17,1*%
%TO.N,GND*%
X91625000Y-47187500D03*
%TO.P,R17,2*%
%TO.N,Net-(J6-CC1)*%
X91625000Y-49012500D03*
%TD*%
D38*
%TO.P,VR1,1,1/1_1*%
%TO.N,GND*%
X132250000Y-82525000D03*
%TO.P,VR1,2,2_1_2*%
%TO.N,/HEADPHONE_WIPER_R*%
X128250000Y-82525000D03*
%TO.P,VR1,3,3_1_3*%
%TO.N,/AUDIO_OUT_R*%
X126250000Y-82525000D03*
%TO.P,VR1,4,2_2_4*%
%TO.N,/HEADPHONE_WIPER_L*%
X130250000Y-82525000D03*
%TO.P,VR1,5,3_2_5*%
%TO.N,/AUDIO_OUT_L*%
X124250000Y-82525000D03*
D39*
%TO.P,VR1,MH1,MH1_MH1*%
%TO.N,unconnected-(VR1-PadMH1)*%
X128250000Y-87825000D03*
%TO.P,VR1,MH2,MH2_MH2*%
%TO.N,unconnected-(VR1-PadMH2)*%
X128250000Y-95225000D03*
D40*
%TO.P,VR1,MP1,MP1_MP1*%
%TO.N,unconnected-(VR1-PadMP1)*%
X122150000Y-94025000D03*
%TO.P,VR1,MP2,MP2_MP2*%
%TO.N,unconnected-(VR1-PadMP2)*%
X134350000Y-94025000D03*
%TD*%
D16*
%TO.P,J7,1,Pin_1_1*%
%TO.N,GND*%
X106830000Y-39875000D03*
D17*
%TO.P,J7,2,Pin_2_2*%
%TO.N,+3V3*%
X109370000Y-39875000D03*
%TO.P,J7,3,Pin_3_3*%
%TO.N,/OLED_SCL*%
X111910000Y-39875000D03*
%TO.P,J7,4,Pin_4_4*%
%TO.N,/OLED_SDA*%
X114450000Y-39875000D03*
%TD*%
D10*
%TO.P,J2,1,SLEEVE_1_1*%
%TO.N,GND*%
X170094400Y-61311800D03*
%TO.P,J2,2,TIP_2*%
%TO.N,/AUDIO_IN_L*%
X163394400Y-61311800D03*
%TO.P,J2,3,RING_3*%
%TO.N,/AUDIO_IN_R*%
X167494400Y-69011800D03*
%TO.P,J2,4,SLEEVE_2_4*%
%TO.N,unconnected-(J2-SLEEVE_2-Pad4)*%
X171094400Y-69011800D03*
D11*
%TO.P,J2,10,TIP_SWITCH_10*%
%TO.N,unconnected-(J2-TIP_SWITCH-Pad10)*%
X161594400Y-68811800D03*
%TD*%
D35*
%TO.P,R3,1*%
%TO.N,Net-(C1-Pad2)*%
X138900000Y-86437500D03*
%TO.P,R3,2*%
%TO.N,Net-(U1-IN2-)*%
X138900000Y-84612500D03*
%TD*%
D22*
%TO.P,H3,1*%
%TO.N,N/C*%
X142350000Y-92700000D03*
X143052944Y-91002944D03*
X143052944Y-94397056D03*
X144750000Y-90300000D03*
D23*
X144750000Y-92700000D03*
D22*
X144750000Y-95100000D03*
X146447056Y-91002944D03*
X146447056Y-94397056D03*
X147150000Y-92700000D03*
%TD*%
D20*
%TO.P,C1,1*%
%TO.N,/HEADPHONE_WIPER_R*%
X138900000Y-90200000D03*
%TO.P,C1,2*%
%TO.N,Net-(C1-Pad2)*%
X138900000Y-88300000D03*
%TD*%
D29*
%TO.P,RV3,1,1_1*%
%TO.N,+3V3*%
X118535000Y-71165000D03*
%TO.P,RV3,2,2_2*%
%TO.N,/POT_1*%
X121075000Y-68625000D03*
%TO.P,RV3,3,3_3*%
%TO.N,GND*%
X118535000Y-66085000D03*
%TD*%
D41*
%TO.N,GND*%
X156475000Y-60275000D03*
X141320000Y-52400000D03*
X148875000Y-67600000D03*
X143400000Y-83025000D03*
X113850000Y-89925000D03*
X168675000Y-61325000D03*
X141325000Y-68225000D03*
X171600000Y-86250000D03*
X145400000Y-51750000D03*
X171525000Y-48875000D03*
X142050000Y-80475000D03*
X90175000Y-46875000D03*
X113800152Y-82125000D03*
X139350000Y-48650000D03*
X118000000Y-89925000D03*
X140200000Y-83275000D03*
X154475000Y-68150000D03*
X117975152Y-82125000D03*
X168700000Y-73850000D03*
X154475000Y-52375000D03*
X143725000Y-60275000D03*
X90000000Y-54900000D03*
X145550000Y-79525000D03*
X133175000Y-82850000D03*
X139950000Y-43800000D03*
%TO.N,/MIDI_IN_TIP*%
X163375000Y-43750000D03*
X163375000Y-45425000D03*
%TO.N,/OLED_SCL*%
X112100000Y-48850000D03*
X112100000Y-52850000D03*
%TO.N,/OLED_SDA*%
X113950000Y-48850000D03*
X113975000Y-52875000D03*
%TO.N,/USART_RX*%
X122200000Y-55000000D03*
X122200000Y-53350000D03*
%TO.N,+3V3*%
X116250000Y-71175000D03*
X122900000Y-71175000D03*
X127000000Y-71175000D03*
X92350000Y-65600000D03*
X86000000Y-65600000D03*
%TO.N,/POT_2*%
X136325000Y-53325000D03*
X134600000Y-50775000D03*
X135875000Y-51875000D03*
X136325000Y-57650000D03*
%TO.N,/POT_1*%
X119800000Y-54950000D03*
X119800000Y-53300000D03*
%TO.N,/ENC_A*%
X127125000Y-72600000D03*
X116375000Y-72575000D03*
X112000000Y-66500000D03*
X117850000Y-72575000D03*
X112000000Y-60175000D03*
X105750000Y-52875000D03*
X122850000Y-72575000D03*
X105750000Y-46825000D03*
%TO.N,/ENC_B*%
X103225000Y-52900000D03*
X116450000Y-74175000D03*
X109475000Y-66475000D03*
X127125000Y-74175000D03*
X117850000Y-74175000D03*
X103200000Y-46750000D03*
X123475000Y-74175000D03*
X109475000Y-60175000D03*
%TO.N,/TAC_SW_1*%
X107025000Y-60175000D03*
X107025000Y-66525000D03*
X100675000Y-52875000D03*
X100675000Y-46850000D03*
%TO.N,/TAC_SW_2*%
X104475000Y-60175000D03*
X98675000Y-46875000D03*
X104475000Y-66500000D03*
X98675000Y-52925000D03*
%TO.N,Vin*%
X86925000Y-48750000D03*
%TD*%
%TO.N,/POT_2*%
D42*
X131145000Y-45545000D02*
X131145000Y-43175000D01*
X134600000Y-49000000D02*
X131145000Y-45545000D01*
X134600000Y-50775000D02*
X134600000Y-49000000D01*
%TO.N,/POT_1*%
X115905000Y-42095000D02*
X115905000Y-43175000D01*
X126700000Y-41175000D02*
X116825000Y-41175000D01*
X119800000Y-51300000D02*
X127350000Y-43750000D01*
X127350000Y-43750000D02*
X127350000Y-41825000D01*
X127350000Y-41825000D02*
X126700000Y-41175000D01*
X116825000Y-41175000D02*
X115905000Y-42095000D01*
X119800000Y-53300000D02*
X119800000Y-51300000D01*
%TO.N,/LED_1_B*%
X117150000Y-74525000D02*
X117150000Y-52450000D01*
X119350000Y-76725000D02*
X117150000Y-74525000D01*
X126065000Y-43535000D02*
X126065000Y-43175000D01*
X118612500Y-94062500D02*
X119350000Y-93325000D01*
X111400000Y-94062500D02*
X118612500Y-94062500D01*
X119350000Y-93325000D02*
X119350000Y-76725000D01*
X117150000Y-52450000D02*
X126065000Y-43535000D01*
%TO.N,/LED_1_G*%
X123525000Y-44775000D02*
X123525000Y-43175000D01*
X116125000Y-52175000D02*
X123525000Y-44775000D01*
X97600000Y-52175000D02*
X116125000Y-52175000D01*
X96875000Y-59375000D02*
X96875000Y-52900000D01*
X96875000Y-52900000D02*
X97600000Y-52175000D01*
X92200000Y-61125000D02*
X95125000Y-61125000D01*
X91675000Y-72700000D02*
X91675000Y-61650000D01*
X95125000Y-61125000D02*
X96875000Y-59375000D01*
X110362500Y-91387500D02*
X91675000Y-72700000D01*
X110362500Y-92000000D02*
X110362500Y-91387500D01*
X91675000Y-61650000D02*
X92200000Y-61125000D01*
%TO.N,/USART_RX*%
D43*
X136475000Y-43150000D02*
X138162500Y-43150000D01*
X135750000Y-43875000D02*
X136475000Y-43150000D01*
X138162500Y-43150000D02*
X138290000Y-43022500D01*
X135750000Y-50875000D02*
X135750000Y-43875000D01*
X133625000Y-53000000D02*
X135750000Y-50875000D01*
X122200000Y-53350000D02*
X122550000Y-53000000D01*
X122550000Y-53000000D02*
X133625000Y-53000000D01*
%TO.N,GND*%
D44*
X89250000Y-47800000D02*
X90175000Y-46875000D01*
X145550000Y-79525000D02*
X145550000Y-78700000D01*
X90212500Y-54687500D02*
X90000000Y-54900000D01*
X154450000Y-68175000D02*
X152900000Y-68175000D01*
X90487500Y-47187500D02*
X90175000Y-46875000D01*
X145400000Y-51750000D02*
X145400000Y-53275000D01*
X171600000Y-86250000D02*
X171570000Y-86280000D01*
X117950152Y-82100000D02*
X117950152Y-81475000D01*
X154475000Y-52375000D02*
X152900000Y-52375000D01*
D45*
X140225000Y-83300000D02*
X140200000Y-83275000D01*
D44*
X141375000Y-68175000D02*
X142900000Y-68175000D01*
X168675000Y-61325000D02*
X170081200Y-61325000D01*
X168719200Y-73830800D02*
X170120200Y-73830800D01*
X147925000Y-67600000D02*
X147900000Y-67575000D01*
X118000000Y-89925000D02*
X118000000Y-89275152D01*
X117975152Y-82125000D02*
X117950152Y-82100000D01*
X113800152Y-82125000D02*
X113800152Y-81475000D01*
D45*
X141250000Y-83300000D02*
X140225000Y-83300000D01*
D44*
X141325000Y-68225000D02*
X141375000Y-68175000D01*
X91625000Y-47187500D02*
X90487500Y-47187500D01*
X143725000Y-60275000D02*
X141525000Y-60275000D01*
X89085000Y-47800000D02*
X89250000Y-47800000D01*
X170081200Y-61325000D02*
X170094400Y-61311800D01*
X171525000Y-48875000D02*
X170117400Y-48875000D01*
X133175000Y-82850000D02*
X132250000Y-82850000D01*
X142075000Y-80450000D02*
X142875000Y-80450000D01*
X143400000Y-83025000D02*
X143400000Y-83625000D01*
X139950000Y-43800000D02*
X141020000Y-43800000D01*
X168700000Y-73850000D02*
X168719200Y-73830800D01*
X91675000Y-54687500D02*
X90212500Y-54687500D01*
X148875000Y-67600000D02*
X147925000Y-67600000D01*
X171570000Y-86280000D02*
X170170600Y-86280000D01*
X142875000Y-52400000D02*
X142900000Y-52375000D01*
X154475000Y-68150000D02*
X154450000Y-68175000D01*
X139350000Y-48650000D02*
X138325000Y-48650000D01*
X156475000Y-60275000D02*
X154275000Y-60275000D01*
X89300000Y-54200000D02*
X90000000Y-54900000D01*
X113850152Y-89924848D02*
X113850000Y-89925000D01*
X113850152Y-89275000D02*
X113850152Y-89924848D01*
X138325000Y-48650000D02*
X138315000Y-48660000D01*
D45*
X141250000Y-83950000D02*
X141250000Y-83300000D01*
D44*
X142050000Y-80475000D02*
X142075000Y-80450000D01*
X118000000Y-89275152D02*
X118000152Y-89275000D01*
X141320000Y-52400000D02*
X142875000Y-52400000D01*
X170117400Y-48875000D02*
X170097400Y-48855000D01*
X89085000Y-54200000D02*
X89300000Y-54200000D01*
%TO.N,/MIDI_IN_TIP*%
D43*
X163397400Y-47250000D02*
X163397400Y-45447400D01*
X162860000Y-40210000D02*
X158977500Y-40210000D01*
X163375000Y-43750000D02*
X163375000Y-40725000D01*
X158990000Y-46760000D02*
X162907400Y-46760000D01*
X163397400Y-45447400D02*
X163375000Y-45425000D01*
X162907400Y-46760000D02*
X163397400Y-47250000D01*
X163375000Y-40725000D02*
X162860000Y-40210000D01*
X163397400Y-48855000D02*
X163397400Y-47250000D01*
%TO.N,/MIDI_IN_RING*%
X167497400Y-46647400D02*
X165460000Y-44610000D01*
X158952500Y-44560000D02*
X159002500Y-44610000D01*
X167497400Y-56555000D02*
X167497400Y-46647400D01*
X158952500Y-42385000D02*
X158952500Y-44560000D01*
X165460000Y-44610000D02*
X159002500Y-44610000D01*
%TO.N,/MIDI_IN_B*%
X157127500Y-40235000D02*
X157152500Y-40210000D01*
X152915000Y-43920000D02*
X152915000Y-43335000D01*
X150030000Y-43800000D02*
X152795000Y-43800000D01*
X153865000Y-42385000D02*
X157127500Y-42385000D01*
X152795000Y-43800000D02*
X152915000Y-43920000D01*
X152915000Y-43335000D02*
X153865000Y-42385000D01*
X157127500Y-42385000D02*
X157127500Y-40235000D01*
%TO.N,/AUDIO_OUT_L*%
X124250000Y-64025000D02*
X124250000Y-82525000D01*
X154850000Y-63025000D02*
X149875000Y-63025000D01*
X138525000Y-62525000D02*
X138525000Y-57800000D01*
X156325000Y-64500000D02*
X154850000Y-63025000D01*
X163420200Y-73830800D02*
X161089400Y-71500000D01*
X137575000Y-56850000D02*
X129500000Y-56850000D01*
X128605000Y-58415000D02*
X128605000Y-59670000D01*
X149875000Y-63025000D02*
X149425000Y-62575000D01*
X156325000Y-69375000D02*
X156325000Y-64500000D01*
X158450000Y-71500000D02*
X156325000Y-69375000D01*
X161089400Y-71500000D02*
X158450000Y-71500000D01*
X128605000Y-59670000D02*
X124250000Y-64025000D01*
X144725000Y-63125000D02*
X139125000Y-63125000D01*
X149425000Y-62575000D02*
X145275000Y-62575000D01*
X129500000Y-56850000D02*
X128605000Y-57745000D01*
X145275000Y-62575000D02*
X144725000Y-63125000D01*
X138525000Y-57800000D02*
X137575000Y-56850000D01*
X128605000Y-57745000D02*
X128605000Y-58415000D01*
X139125000Y-63125000D02*
X138525000Y-62525000D01*
%TO.N,/AUDIO_OUT_R*%
X167520200Y-81530800D02*
X165425000Y-79435600D01*
X159050000Y-75100000D02*
X127350000Y-75100000D01*
X126250000Y-76200000D02*
X126250000Y-82525000D01*
X165425000Y-79435600D02*
X163385600Y-79435600D01*
X127350000Y-75100000D02*
X126250000Y-76200000D01*
X131145000Y-59680000D02*
X126250000Y-64575000D01*
X163385600Y-79435600D02*
X159050000Y-75100000D01*
X126250000Y-74825000D02*
X126250000Y-76200000D01*
X131145000Y-58415000D02*
X131145000Y-59680000D01*
X126250000Y-64575000D02*
X126250000Y-74825000D01*
%TO.N,/HEADPHONE_OUT_L*%
X163470600Y-86280000D02*
X157205000Y-86280000D01*
X157205000Y-86280000D02*
X156425000Y-85500000D01*
%TO.N,/HEADPHONE_OUT_R*%
X167570600Y-93980000D02*
X167570600Y-92845600D01*
X158075000Y-91625000D02*
X156500000Y-93200000D01*
X167570600Y-92845600D02*
X166350000Y-91625000D01*
X166350000Y-91625000D02*
X158075000Y-91625000D01*
%TO.N,Net-(U1-VO1)*%
X149537500Y-85500000D02*
X148100000Y-84062500D01*
X151425000Y-85500000D02*
X149537500Y-85500000D01*
X145550000Y-83300000D02*
X147337500Y-83300000D01*
X147337500Y-83300000D02*
X148100000Y-84062500D01*
%TO.N,/MIDI_IN_A*%
X157090000Y-44522500D02*
X157177500Y-44610000D01*
X155040000Y-44522500D02*
X157090000Y-44522500D01*
X157165000Y-44622500D02*
X157177500Y-44610000D01*
X157165000Y-46760000D02*
X157165000Y-44622500D01*
%TO.N,/HEADPHONE_WIPER_L*%
X146400000Y-76625000D02*
X133300000Y-76625000D01*
X130250000Y-79675000D02*
X130250000Y-82525000D01*
X133300000Y-76625000D02*
X130250000Y-79675000D01*
%TO.N,Net-(C2-Pad2)*%
X148075000Y-78637500D02*
X148075000Y-76850000D01*
X148075000Y-76850000D02*
X148300000Y-76625000D01*
%TO.N,/OLED_SCL*%
X99027800Y-61697200D02*
X99800000Y-60925000D01*
D45*
X111910000Y-39875000D02*
X111910000Y-41585000D01*
D43*
X112900000Y-60925000D02*
X113365000Y-60460000D01*
D45*
X112075000Y-48825000D02*
X112100000Y-48850000D01*
X111910000Y-41585000D02*
X112075000Y-41750000D01*
X113365000Y-54115000D02*
X113365000Y-58415000D01*
D43*
X99027800Y-62874800D02*
X99027800Y-61697200D01*
X113365000Y-60460000D02*
X113365000Y-58415000D01*
X99800000Y-60925000D02*
X112900000Y-60925000D01*
D45*
X112100000Y-52850000D02*
X113365000Y-54115000D01*
X112075000Y-41750000D02*
X112075000Y-48825000D01*
%TO.N,/OLED_SDA*%
X115905000Y-55380000D02*
X115905000Y-58415000D01*
D43*
X115905000Y-62295000D02*
X115905000Y-58415000D01*
D45*
X113975000Y-53450000D02*
X115905000Y-55380000D01*
X114450000Y-41800000D02*
X114625000Y-41975000D01*
X114625000Y-41975000D02*
X114625000Y-47950000D01*
X113950000Y-48625000D02*
X113950000Y-48850000D01*
X114625000Y-47950000D02*
X113950000Y-48625000D01*
D43*
X101567800Y-62874800D02*
X115325200Y-62874800D01*
D45*
X114450000Y-39875000D02*
X114450000Y-41800000D01*
X113975000Y-52875000D02*
X113975000Y-53450000D01*
D43*
X115325200Y-62874800D02*
X115905000Y-62295000D01*
%TO.N,/ENC_CLICK*%
X150400000Y-50600000D02*
X150400000Y-53275000D01*
X118445000Y-58415000D02*
X118445000Y-54830000D01*
X140712500Y-49975000D02*
X149775000Y-49975000D01*
X140200000Y-50487500D02*
X140712500Y-49975000D01*
X119125000Y-54150000D02*
X139125000Y-54150000D01*
X118445000Y-54830000D02*
X119125000Y-54150000D01*
X149775000Y-49975000D02*
X150400000Y-50600000D01*
X139125000Y-54150000D02*
X140200000Y-53075000D01*
X140200000Y-53075000D02*
X140200000Y-50487500D01*
%TO.N,/USART_RX*%
X122200000Y-57200000D02*
X122200000Y-55000000D01*
X138665000Y-41260000D02*
X138290000Y-41635000D01*
X141020000Y-41260000D02*
X138665000Y-41260000D01*
X120985000Y-58415000D02*
X122200000Y-57200000D01*
X138290000Y-41635000D02*
X138290000Y-43022500D01*
%TO.N,/AUDIO_IN_L*%
X161236800Y-61311800D02*
X159075000Y-59150000D01*
X159075000Y-59150000D02*
X159075000Y-56925000D01*
X125375000Y-55050000D02*
X123525000Y-56900000D01*
X163394400Y-61311800D02*
X161236800Y-61311800D01*
X123525000Y-56900000D02*
X123525000Y-58415000D01*
X159075000Y-56925000D02*
X157200000Y-55050000D01*
X157200000Y-55050000D02*
X125375000Y-55050000D01*
%TO.N,/AUDIO_IN_R*%
X157450000Y-59425000D02*
X157450000Y-57300000D01*
X161450000Y-63425000D02*
X157450000Y-59425000D01*
X165325000Y-63425000D02*
X161450000Y-63425000D01*
X127575000Y-55900000D02*
X126065000Y-57410000D01*
X126065000Y-57410000D02*
X126065000Y-58415000D01*
X167494400Y-69011800D02*
X167494400Y-65594400D01*
X167494400Y-65594400D02*
X165325000Y-63425000D01*
X157450000Y-57300000D02*
X156050000Y-55900000D01*
X156050000Y-55900000D02*
X127575000Y-55900000D01*
%TO.N,+3V3*%
X138290000Y-46735000D02*
X138315000Y-46760000D01*
D44*
X153100000Y-79575000D02*
X149625000Y-79575000D01*
X95750000Y-65625000D02*
X92375000Y-65625000D01*
X90505000Y-44570000D02*
X90025000Y-45050000D01*
X85950000Y-56050000D02*
X85225000Y-56775000D01*
X93725000Y-97150000D02*
X105425000Y-97150000D01*
D43*
X143000000Y-39150000D02*
X134450000Y-39150000D01*
D44*
X153100000Y-97025000D02*
X154000000Y-96125000D01*
X92375000Y-65625000D02*
X92350000Y-65600000D01*
X83583400Y-95433400D02*
X85300000Y-97150000D01*
D43*
X90505000Y-43175000D02*
X90505000Y-39645000D01*
D44*
X124850000Y-96000000D02*
X124850000Y-93575000D01*
X132750000Y-71175000D02*
X132935000Y-70990000D01*
X132825000Y-97025000D02*
X153100000Y-97025000D01*
X116250000Y-71175000D02*
X115350000Y-71175000D01*
X123700000Y-97150000D02*
X124850000Y-96000000D01*
X106010000Y-96565000D02*
X106010000Y-95725000D01*
X90025000Y-45050000D02*
X86600000Y-45050000D01*
X131675000Y-95875000D02*
X132825000Y-97025000D01*
D46*
X105062700Y-38612700D02*
X105075000Y-38625000D01*
D44*
X85225000Y-56775000D02*
X84550000Y-56775000D01*
D43*
X143300000Y-45700000D02*
X143300000Y-39450000D01*
D44*
X114725000Y-70550000D02*
X114725000Y-66200000D01*
D43*
X134450000Y-39150000D02*
X133685000Y-39915000D01*
D46*
X109370000Y-39555000D02*
X110300000Y-38625000D01*
D44*
X105425000Y-97150000D02*
X106010000Y-96565000D01*
X83583400Y-64875000D02*
X83583400Y-95433400D01*
X86600000Y-45050000D02*
X85950000Y-45700000D01*
X124850000Y-93575000D02*
X126425000Y-92000000D01*
X129875000Y-92000000D02*
X131675000Y-93800000D01*
D43*
X138290000Y-44847500D02*
X138290000Y-46735000D01*
X90505000Y-39645000D02*
X91537300Y-38612700D01*
D46*
X105075000Y-38625000D02*
X110300000Y-38625000D01*
D42*
X144486600Y-83761600D02*
X144486600Y-81663400D01*
D44*
X126425000Y-92000000D02*
X129875000Y-92000000D01*
D43*
X141020000Y-46340000D02*
X138735000Y-46340000D01*
D42*
X145775000Y-80600000D02*
X146875000Y-79500000D01*
D44*
X127000000Y-71175000D02*
X132750000Y-71175000D01*
D46*
X132025000Y-38625000D02*
X132550000Y-39150000D01*
X110300000Y-38625000D02*
X132025000Y-38625000D01*
D42*
X145550000Y-83950000D02*
X144675000Y-83950000D01*
D44*
X96487800Y-62874800D02*
X96487800Y-64887200D01*
D42*
X144675000Y-83950000D02*
X144486600Y-83761600D01*
D44*
X105425000Y-97150000D02*
X123700000Y-97150000D01*
X90505000Y-43175000D02*
X90505000Y-44570000D01*
D43*
X133685000Y-39915000D02*
X133685000Y-43175000D01*
D44*
X114150000Y-65625000D02*
X95750000Y-65625000D01*
X94445000Y-95850000D02*
X94445000Y-96430000D01*
D43*
X142660000Y-46340000D02*
X143300000Y-45700000D01*
X141020000Y-46340000D02*
X142660000Y-46340000D01*
D44*
X83583400Y-57741600D02*
X83583400Y-64875000D01*
D43*
X143300000Y-39450000D02*
X143000000Y-39150000D01*
D44*
X114725000Y-66200000D02*
X114150000Y-65625000D01*
D42*
X149550000Y-79500000D02*
X149625000Y-79575000D01*
D46*
X109370000Y-39875000D02*
X109370000Y-39555000D01*
D44*
X94445000Y-96430000D02*
X93725000Y-97150000D01*
X131675000Y-93800000D02*
X131675000Y-95875000D01*
D43*
X138735000Y-46340000D02*
X138315000Y-46760000D01*
D44*
X115350000Y-71175000D02*
X114725000Y-70550000D01*
D46*
X91537300Y-38612700D02*
X105062700Y-38612700D01*
D44*
X85950000Y-45700000D02*
X85950000Y-56050000D01*
X154000000Y-96125000D02*
X154000000Y-80475000D01*
D42*
X144486600Y-81663400D02*
X145550000Y-80600000D01*
X145550000Y-80600000D02*
X145775000Y-80600000D01*
D44*
X84550000Y-56775000D02*
X83583400Y-57741600D01*
D42*
X146875000Y-79500000D02*
X149550000Y-79500000D01*
D44*
X84308400Y-65600000D02*
X83583400Y-64875000D01*
X86000000Y-65600000D02*
X84308400Y-65600000D01*
D46*
X132550000Y-39150000D02*
X134450000Y-39150000D01*
D44*
X118535000Y-71165000D02*
X122890000Y-71165000D01*
X96487800Y-64887200D02*
X95750000Y-65625000D01*
X154000000Y-80475000D02*
X153100000Y-79575000D01*
X85300000Y-97150000D02*
X93725000Y-97150000D01*
X122890000Y-71165000D02*
X122900000Y-71175000D01*
%TO.N,/POT_2*%
D42*
X135475000Y-68450000D02*
X136300000Y-67625000D01*
X136300000Y-57675000D02*
X136325000Y-57650000D01*
X136325000Y-53325000D02*
X136325000Y-52325000D01*
X136300000Y-67625000D02*
X136300000Y-57675000D01*
X136325000Y-52325000D02*
X135875000Y-51875000D01*
%TO.N,/LED_1_R*%
X93725000Y-60550000D02*
X94325000Y-59950000D01*
X95875000Y-52425000D02*
X97450000Y-50850000D01*
X90825000Y-60550000D02*
X93725000Y-60550000D01*
X104737500Y-92025000D02*
X104737500Y-90137500D01*
X89950000Y-61425000D02*
X90825000Y-60550000D01*
X95875000Y-55875000D02*
X95875000Y-52425000D01*
X104737500Y-90137500D02*
X89950000Y-75350000D01*
X115725000Y-50850000D02*
X120985000Y-45590000D01*
X94325000Y-59950000D02*
X94325000Y-57425000D01*
X97450000Y-50850000D02*
X115725000Y-50850000D01*
X94325000Y-57425000D02*
X95875000Y-55875000D01*
X89950000Y-75350000D02*
X89950000Y-61425000D01*
X120985000Y-45590000D02*
X120985000Y-43175000D01*
%TO.N,/LED_2_B*%
X97250000Y-49525000D02*
X114350000Y-49525000D01*
X99825000Y-89500000D02*
X89025000Y-78700000D01*
X89025000Y-60750000D02*
X89850000Y-59925000D01*
X114350000Y-49525000D02*
X118445000Y-45430000D01*
X95300000Y-51475000D02*
X97250000Y-49525000D01*
X91775000Y-59500000D02*
X91775000Y-57350000D01*
X95300000Y-55300000D02*
X95300000Y-51475000D01*
X91775000Y-57350000D02*
X92225000Y-56900000D01*
X91350000Y-59925000D02*
X91775000Y-59500000D01*
X89025000Y-78700000D02*
X89025000Y-60750000D01*
X93700000Y-56900000D02*
X95300000Y-55300000D01*
X118445000Y-45430000D02*
X118445000Y-43175000D01*
X89850000Y-59925000D02*
X91350000Y-59925000D01*
X92225000Y-56900000D02*
X93700000Y-56900000D01*
X99825000Y-94162500D02*
X99825000Y-89500000D01*
%TO.N,/POT_1*%
X121075000Y-61700000D02*
X119750000Y-60375000D01*
X119750000Y-60375000D02*
X119750000Y-55000000D01*
X119750000Y-55000000D02*
X119800000Y-54950000D01*
X121075000Y-68625000D02*
X121075000Y-61700000D01*
%TO.N,/LED_2_G*%
X96925000Y-48450000D02*
X108400000Y-48450000D01*
X94750000Y-54775000D02*
X94750000Y-50625000D01*
X89225000Y-59525000D02*
X89225000Y-57525000D01*
X93200000Y-56325000D02*
X94750000Y-54775000D01*
X90425000Y-56325000D02*
X93200000Y-56325000D01*
X98612500Y-91387500D02*
X87875000Y-80650000D01*
X87875000Y-60875000D02*
X89225000Y-59525000D01*
X89225000Y-57525000D02*
X90425000Y-56325000D01*
X110825000Y-46025000D02*
X110825000Y-43175000D01*
X94750000Y-50625000D02*
X96925000Y-48450000D01*
X87875000Y-80650000D02*
X87875000Y-60875000D01*
X98612500Y-92175000D02*
X98612500Y-91387500D01*
X108400000Y-48450000D02*
X110825000Y-46025000D01*
%TO.N,/LED_2_R*%
X92875000Y-55750000D02*
X94150000Y-54475000D01*
X86750000Y-57675000D02*
X87675000Y-56750000D01*
X106975000Y-47550000D02*
X108285000Y-46240000D01*
X90100000Y-55750000D02*
X92875000Y-55750000D01*
X108285000Y-46240000D02*
X108285000Y-43175000D01*
X89100000Y-56750000D02*
X90100000Y-55750000D01*
X87675000Y-56750000D02*
X89100000Y-56750000D01*
X94150000Y-50325000D02*
X96925000Y-47550000D01*
X93137500Y-92175000D02*
X86750000Y-85787500D01*
X86750000Y-85787500D02*
X86750000Y-57675000D01*
X96925000Y-47550000D02*
X106975000Y-47550000D01*
X94150000Y-54475000D02*
X94150000Y-50325000D01*
%TO.N,/ENC_A*%
X112000000Y-71925000D02*
X112000000Y-66500000D01*
X145175000Y-72600000D02*
X127125000Y-72600000D01*
X116375000Y-72575000D02*
X112650000Y-72575000D01*
X112050000Y-60125000D02*
X112050000Y-54275000D01*
X145425000Y-72350000D02*
X145175000Y-72600000D01*
X145400000Y-67575000D02*
X145425000Y-67600000D01*
X145425000Y-67600000D02*
X145425000Y-72350000D01*
X122850000Y-72575000D02*
X117850000Y-72575000D01*
D43*
X105745000Y-46820000D02*
X105750000Y-46825000D01*
D42*
X112050000Y-54275000D02*
X111525000Y-53750000D01*
X112000000Y-60175000D02*
X112050000Y-60125000D01*
X112650000Y-72575000D02*
X112000000Y-71925000D01*
X111525000Y-53750000D02*
X106125000Y-53750000D01*
D43*
X105745000Y-43175000D02*
X105745000Y-46820000D01*
D42*
X106125000Y-53750000D02*
X105750000Y-53375000D01*
X105750000Y-53375000D02*
X105750000Y-52875000D01*
%TO.N,/ENC_B*%
X104050000Y-54500000D02*
X103225000Y-53675000D01*
X127150000Y-74200000D02*
X127125000Y-74175000D01*
X116450000Y-74175000D02*
X110325000Y-74175000D01*
D43*
X103205000Y-46745000D02*
X103200000Y-46750000D01*
D42*
X108975000Y-54500000D02*
X104050000Y-54500000D01*
D43*
X103205000Y-43175000D02*
X103205000Y-46745000D01*
D42*
X150400000Y-67575000D02*
X150400000Y-73675000D01*
X109475000Y-55000000D02*
X108975000Y-54500000D01*
X110325000Y-74175000D02*
X109475000Y-73325000D01*
X109475000Y-73325000D02*
X109475000Y-66475000D01*
X103225000Y-53675000D02*
X103225000Y-52900000D01*
X123475000Y-74175000D02*
X117850000Y-74175000D01*
X150400000Y-73675000D02*
X149875000Y-74200000D01*
X109475000Y-60175000D02*
X109475000Y-55000000D01*
X149875000Y-74200000D02*
X127150000Y-74200000D01*
%TO.N,/TAC_SW_1*%
D47*
X100675000Y-54000000D02*
X101975000Y-55300000D01*
X100665000Y-46840000D02*
X100675000Y-46850000D01*
X107025000Y-66525000D02*
X107025000Y-78200000D01*
X113800152Y-79325000D02*
X117950152Y-79325000D01*
X108150000Y-79325000D02*
X113800152Y-79325000D01*
X100675000Y-52875000D02*
X100675000Y-54000000D01*
X101975000Y-55300000D02*
X106025000Y-55300000D01*
X107025000Y-56300000D02*
X107025000Y-60175000D01*
X106025000Y-55300000D02*
X107025000Y-56300000D01*
X100665000Y-43175000D02*
X100665000Y-46840000D01*
X107025000Y-78200000D02*
X108150000Y-79325000D01*
%TO.N,/TAC_SW_2*%
X98675000Y-55550000D02*
X99425000Y-56300000D01*
X113850152Y-87125000D02*
X109150000Y-87125000D01*
X98125000Y-43175000D02*
X98125000Y-46325000D01*
X103925000Y-56300000D02*
X104475000Y-56850000D01*
X99425000Y-56300000D02*
X103925000Y-56300000D01*
X98125000Y-46325000D02*
X98675000Y-46875000D01*
X109150000Y-87125000D02*
X107200000Y-85175000D01*
X104475000Y-66500000D02*
X104475000Y-82450000D01*
X113850152Y-87125000D02*
X118000152Y-87125000D01*
X104475000Y-82450000D02*
X107200000Y-85175000D01*
X104475000Y-56850000D02*
X104475000Y-60175000D01*
X98675000Y-52925000D02*
X98675000Y-55550000D01*
%TO.N,Net-(D3-Pad1)*%
D43*
X94445000Y-92692500D02*
X94962500Y-92175000D01*
X94445000Y-94350000D02*
X94445000Y-92692500D01*
%TO.N,Net-(D3-Pad4)*%
X97475000Y-94350000D02*
X97475000Y-92862500D01*
X97475000Y-92862500D02*
X96787500Y-92175000D01*
%TO.N,Net-(D3-Pad3)*%
X99825000Y-95987500D02*
X97612500Y-95987500D01*
X97612500Y-95987500D02*
X97475000Y-95850000D01*
%TO.N,Net-(U1-VO2)*%
X146300000Y-87500000D02*
X145550000Y-86750000D01*
X145550000Y-86325000D02*
X145550000Y-84600000D01*
X144227500Y-86730000D02*
X145145000Y-86730000D01*
X151500000Y-89350000D02*
X149650000Y-87500000D01*
X145550000Y-86750000D02*
X145550000Y-86325000D01*
X149650000Y-87500000D02*
X146300000Y-87500000D01*
X145145000Y-86730000D02*
X145550000Y-86325000D01*
X151500000Y-93200000D02*
X151500000Y-89350000D01*
%TO.N,Net-(D2-Pad1)*%
X106010000Y-94225000D02*
X106010000Y-92577500D01*
X106010000Y-92577500D02*
X106562500Y-92025000D01*
%TO.N,Net-(D2-Pad3)*%
X109040000Y-95725000D02*
X111237500Y-95725000D01*
X111237500Y-95725000D02*
X111400000Y-95887500D01*
%TO.N,Net-(D2-Pad4)*%
X108537500Y-93722500D02*
X109040000Y-94225000D01*
X108537500Y-92000000D02*
X108537500Y-93722500D01*
%TO.N,Net-(D1-K)*%
X152915000Y-46300000D02*
X154992500Y-46300000D01*
X154992500Y-46300000D02*
X155040000Y-46347500D01*
X152875000Y-46340000D02*
X152915000Y-46300000D01*
X150030000Y-46340000D02*
X152875000Y-46340000D01*
%TO.N,Net-(U1-BYPASS)*%
X141250000Y-82650000D02*
X141250000Y-80725000D01*
X141250000Y-80725000D02*
X140975000Y-80450000D01*
%TO.N,Net-(U1-IN2-)*%
X141250000Y-85950000D02*
X141250000Y-84600000D01*
X142402500Y-86730000D02*
X142030000Y-86730000D01*
X141250000Y-84600000D02*
X138912500Y-84600000D01*
X138912500Y-84600000D02*
X138900000Y-84612500D01*
X142030000Y-86730000D02*
X141250000Y-85950000D01*
%TO.N,Net-(U1-IN1-)*%
X145550000Y-82650000D02*
X147687500Y-82650000D01*
X147687500Y-82650000D02*
X148100000Y-82237500D01*
X148075000Y-82212500D02*
X148100000Y-82237500D01*
X148075000Y-80462500D02*
X148075000Y-82212500D01*
%TO.N,/HEADPHONE_WIPER_R*%
X128250000Y-84475000D02*
X128250000Y-82525000D01*
X128250000Y-84475000D02*
X129050000Y-85275000D01*
X129050000Y-85275000D02*
X132475000Y-85275000D01*
X137400000Y-90200000D02*
X138900000Y-90200000D01*
X132475000Y-85275000D02*
X137400000Y-90200000D01*
%TO.N,Net-(C1-Pad2)*%
X138900000Y-86437500D02*
X138900000Y-88300000D01*
%TO.N,/USB_D+*%
D45*
X87975000Y-50825000D02*
X87975000Y-51550000D01*
X93625000Y-43755000D02*
X93045000Y-43175000D01*
X89085000Y-50750000D02*
X88050000Y-50750000D01*
X92075000Y-51750000D02*
X93625000Y-50200000D01*
X87975000Y-51550000D02*
X88175000Y-51750000D01*
X88175000Y-51750000D02*
X89085000Y-51750000D01*
X89085000Y-51750000D02*
X92075000Y-51750000D01*
X93625000Y-50200000D02*
X93625000Y-43755000D01*
X88050000Y-50750000D02*
X87975000Y-50825000D01*
%TO.N,/USB_D-*%
X91750000Y-42275000D02*
X92225000Y-41800000D01*
X90400000Y-51100000D02*
X90400000Y-50475000D01*
X92700000Y-50250000D02*
X93000000Y-49950000D01*
X91750000Y-44050000D02*
X91750000Y-42275000D01*
X93000000Y-45300000D02*
X91750000Y-44050000D01*
X90175000Y-50250000D02*
X92700000Y-50250000D01*
X90250000Y-51250000D02*
X90400000Y-51100000D01*
X93000000Y-49950000D02*
X93000000Y-45300000D01*
X89085000Y-51250000D02*
X90250000Y-51250000D01*
X90175000Y-50250000D02*
X89085000Y-50250000D01*
X92225000Y-41800000D02*
X94210000Y-41800000D01*
X94210000Y-41800000D02*
X95585000Y-43175000D01*
X90400000Y-50475000D02*
X90175000Y-50250000D01*
%TO.N,Vin*%
X89085000Y-53400000D02*
X88450000Y-53400000D01*
X87175000Y-49000000D02*
X86925000Y-48750000D01*
X88050000Y-49000000D02*
X87175000Y-49000000D01*
X88450000Y-48600000D02*
X88050000Y-49000000D01*
X88450000Y-53400000D02*
X86925000Y-51875000D01*
X86925000Y-48750000D02*
X86925000Y-51875000D01*
X89085000Y-48600000D02*
X88450000Y-48600000D01*
%TO.N,Net-(J6-CC1)*%
X90887500Y-49750000D02*
X91625000Y-49012500D01*
X89085000Y-49750000D02*
X90887500Y-49750000D01*
%TO.N,Net-(J6-CC2)*%
X91562500Y-52750000D02*
X91675000Y-52862500D01*
X89085000Y-52750000D02*
X91562500Y-52750000D01*
%TD*%
M02*
