M48
; DRILL file KiCad 10.0.0 date 2026-05-01T01:25:40
; FORMAT={-:-/ absolute / metric / decimal}
; #@! TF.CreationDate,2026-05-01T01:25:40-06:00
; #@! TF.GenerationSoftware,Kicad,Pcbnew,10.0.0
; #@! TF.FileFunction,Plated,1,2,PTH
FMAT,2
METRIC
; #@! TA.AperFunction,Plated,PTH,ViaDrill
T1C0.300
; #@! TA.AperFunction,Plated,PTH,ComponentDrill
T2C0.500
; #@! TA.AperFunction,Plated,PTH,ComponentDrill
T3C0.600
; #@! TA.AperFunction,Plated,PTH,ComponentDrill
T4C0.800
; #@! TA.AperFunction,Plated,PTH,ComponentDrill
T5C1.000
; #@! TA.AperFunction,Plated,PTH,ComponentDrill
T6C1.100
; #@! TA.AperFunction,Plated,PTH,ComponentDrill
T7C2.508
; #@! TA.AperFunction,Plated,PTH,ComponentDrill
T8C3.200
%
G90
G05
T1
X86.0Y-65.6
X86.925Y-48.75
X90.0Y-54.9
X90.175Y-46.875
X92.35Y-65.6
X98.675Y-46.875
X98.675Y-52.925
X100.675Y-46.85
X100.675Y-52.875
X103.2Y-46.75
X103.225Y-52.9
X104.475Y-60.175
X104.475Y-66.5
X105.75Y-46.825
X105.75Y-52.875
X107.025Y-60.175
X107.025Y-66.525
X109.475Y-60.175
X109.475Y-66.475
X112.0Y-60.175
X112.0Y-66.5
X112.1Y-48.85
X112.1Y-52.85
X113.8Y-82.125
X113.85Y-89.925
X113.95Y-48.85
X113.975Y-52.875
X116.25Y-71.175
X116.375Y-72.575
X116.45Y-74.175
X117.85Y-72.575
X117.85Y-74.175
X117.975Y-82.125
X118.0Y-89.925
X119.8Y-53.3
X119.8Y-54.95
X122.2Y-53.35
X122.2Y-55.0
X122.85Y-72.575
X122.9Y-71.175
X123.475Y-74.175
X127.0Y-71.175
X127.125Y-72.6
X127.125Y-74.175
X133.175Y-82.85
X134.6Y-50.775
X135.875Y-51.875
X136.325Y-53.325
X136.325Y-57.65
X139.35Y-48.65
X139.95Y-43.8
X140.2Y-83.275
X141.32Y-52.4
X141.325Y-68.225
X142.05Y-80.475
X143.4Y-83.025
X143.725Y-60.275
X145.4Y-51.75
X145.55Y-79.525
X148.875Y-67.6
X154.475Y-52.375
X154.475Y-68.15
X156.475Y-60.275
X163.375Y-43.75
X163.375Y-45.425
X168.675Y-61.325
X168.7Y-73.85
X171.525Y-48.875
X171.6Y-86.25
T2
X85.4Y-92.45
X86.103Y-90.753
X86.103Y-94.147
X87.8Y-90.05
X87.8Y-94.85
X89.497Y-90.753
X89.497Y-94.147
X90.2Y-92.45
X125.8Y-48.9
X126.503Y-47.203
X126.503Y-50.597
X128.2Y-46.5
X128.2Y-51.3
X129.897Y-47.203
X129.897Y-50.597
X130.6Y-48.9
X142.35Y-92.7
X143.053Y-91.003
X143.053Y-94.397
X144.75Y-90.3
X144.75Y-95.1
X146.447Y-91.003
X146.447Y-94.397
X147.15Y-92.7
X166.3Y-41.975
X167.003Y-40.278
X167.003Y-43.672
X168.7Y-39.575
X168.7Y-44.375
X170.397Y-40.278
X170.397Y-43.672
X171.1Y-41.975
T4
X118.535Y-66.085
X118.535Y-71.165
X121.075Y-68.625
X132.935Y-65.91
X132.935Y-70.99
X135.475Y-68.45
T5
X93.948Y-62.875
X96.488Y-62.875
X99.028Y-62.875
X101.568Y-62.875
X106.83Y-39.875
X109.37Y-39.875
X111.91Y-39.875
X114.45Y-39.875
T6
X85.425Y-43.175
X85.425Y-58.415
X87.965Y-43.175
X87.965Y-58.415
X90.505Y-43.175
X90.505Y-58.415
X93.045Y-43.175
X93.045Y-58.415
X95.585Y-43.175
X95.585Y-58.415
X98.125Y-43.175
X98.125Y-58.415
X100.665Y-43.175
X100.665Y-58.415
X103.205Y-43.175
X103.205Y-58.415
X105.745Y-43.175
X105.745Y-58.415
X108.285Y-43.175
X108.285Y-58.415
X110.825Y-43.175
X110.825Y-58.415
X113.365Y-43.175
X113.365Y-58.415
X115.905Y-43.175
X115.905Y-58.415
X118.445Y-43.175
X118.445Y-58.415
X120.985Y-43.175
X120.985Y-58.415
X123.525Y-43.175
X123.525Y-58.415
X126.065Y-43.175
X126.065Y-58.415
X128.605Y-43.175
X128.605Y-58.415
X131.145Y-43.175
X131.145Y-58.415
X133.685Y-43.175
X133.685Y-58.415
T7
X128.25Y-87.825
X128.25Y-95.225
T8
X87.8Y-92.45
X128.2Y-48.9
X144.75Y-92.7
X168.7Y-41.975
T3
G00X84.565Y-46.68
M15
G01X83.965Y-46.68
M16
G05
G00X84.565Y-55.32
M15
G01X83.965Y-55.32
M16
G05
G00X88.995Y-46.68
M15
G01X87.895Y-46.68
M16
G05
G00X88.995Y-55.32
M15
G01X87.895Y-55.32
M16
G05
M30
