M48
; DRILL file {KiCad 8.0.0} date 2024-05-30T16:45:57-0600
; FORMAT={-:-/ absolute / inch / decimal}
; #@! TF.CreationDate,2024-05-30T16:45:57-06:00
; #@! TF.GenerationSoftware,Kicad,Pcbnew,8.0.0
; #@! TF.FileFunction,Plated,1,2,PTH
FMAT,2
INCH
; #@! TA.AperFunction,Plated,PTH,ViaDrill
T1C0.0118
; #@! TA.AperFunction,Plated,PTH,ComponentDrill
T2C0.0394
%
G90
G05
T1
X4.4665Y-1.87
X4.541Y-1.871
X4.604Y-1.871
X4.6675Y-1.871
X4.7313Y-1.8707
X4.7313Y-1.9337
X4.7313Y-1.9972
X4.734Y-2.153
X4.7935Y-2.153
X4.7935Y-2.216
X4.7942Y-1.8707
X4.7942Y-1.9337
X4.7942Y-1.9972
X4.856Y-2.153
X4.856Y-2.216
X4.8567Y-1.8707
X4.8567Y-1.9337
X4.8567Y-1.9972
X4.943Y-2.213
X5.0083Y-1.8707
X5.0083Y-1.9337
X5.0708Y-1.8707
X5.0708Y-1.9337
X5.0708Y-1.9972
X5.139Y-2.249
X5.197Y-1.903
X5.209Y-2.021
X5.233Y-2.135
X5.265Y-2.248
X5.294Y-2.12
X5.314Y-1.918
X5.363Y-1.917
X5.589Y-2.248
X5.598Y-1.875
T2
X5.678Y-1.925
X5.678Y-2.025
X5.678Y-2.125
X5.678Y-2.225
M30
