%TF.GenerationSoftware,KiCad,Pcbnew,8.0.0*%
%TF.CreationDate,2024-05-30T16:45:59-06:00*%
%TF.ProjectId,2024_USB_FTDI,32303234-5f55-4534-925f-465444492e6b,rev?*%
%TF.SameCoordinates,Original*%
%TF.FileFunction,Legend,Bot*%
%TF.FilePolarity,Positive*%
%FSLAX46Y46*%
G04 Gerber Fmt 4.6, Leading zero omitted, Abs format (unit mm)*
G04 Created by KiCad (PCBNEW 8.0.0) date 2024-05-30 16:45:59*
%MOMM*%
%LPD*%
G01*
G04 APERTURE LIST*
%ADD10C,0.100000*%
G04 APERTURE END LIST*
D10*
X141383490Y-56963805D02*
X140573967Y-56963805D01*
X140573967Y-56963805D02*
X140478729Y-56916186D01*
X140478729Y-56916186D02*
X140431110Y-56868567D01*
X140431110Y-56868567D02*
X140383490Y-56773329D01*
X140383490Y-56773329D02*
X140383490Y-56582853D01*
X140383490Y-56582853D02*
X140431110Y-56487615D01*
X140431110Y-56487615D02*
X140478729Y-56439996D01*
X140478729Y-56439996D02*
X140573967Y-56392377D01*
X140573967Y-56392377D02*
X141383490Y-56392377D01*
X140431110Y-55963805D02*
X140383490Y-55820948D01*
X140383490Y-55820948D02*
X140383490Y-55582853D01*
X140383490Y-55582853D02*
X140431110Y-55487615D01*
X140431110Y-55487615D02*
X140478729Y-55439996D01*
X140478729Y-55439996D02*
X140573967Y-55392377D01*
X140573967Y-55392377D02*
X140669205Y-55392377D01*
X140669205Y-55392377D02*
X140764443Y-55439996D01*
X140764443Y-55439996D02*
X140812062Y-55487615D01*
X140812062Y-55487615D02*
X140859681Y-55582853D01*
X140859681Y-55582853D02*
X140907300Y-55773329D01*
X140907300Y-55773329D02*
X140954919Y-55868567D01*
X140954919Y-55868567D02*
X141002538Y-55916186D01*
X141002538Y-55916186D02*
X141097776Y-55963805D01*
X141097776Y-55963805D02*
X141193014Y-55963805D01*
X141193014Y-55963805D02*
X141288252Y-55916186D01*
X141288252Y-55916186D02*
X141335871Y-55868567D01*
X141335871Y-55868567D02*
X141383490Y-55773329D01*
X141383490Y-55773329D02*
X141383490Y-55535234D01*
X141383490Y-55535234D02*
X141335871Y-55392377D01*
X140907300Y-54630472D02*
X140859681Y-54487615D01*
X140859681Y-54487615D02*
X140812062Y-54439996D01*
X140812062Y-54439996D02*
X140716824Y-54392377D01*
X140716824Y-54392377D02*
X140573967Y-54392377D01*
X140573967Y-54392377D02*
X140478729Y-54439996D01*
X140478729Y-54439996D02*
X140431110Y-54487615D01*
X140431110Y-54487615D02*
X140383490Y-54582853D01*
X140383490Y-54582853D02*
X140383490Y-54963805D01*
X140383490Y-54963805D02*
X141383490Y-54963805D01*
X141383490Y-54963805D02*
X141383490Y-54630472D01*
X141383490Y-54630472D02*
X141335871Y-54535234D01*
X141335871Y-54535234D02*
X141288252Y-54487615D01*
X141288252Y-54487615D02*
X141193014Y-54439996D01*
X141193014Y-54439996D02*
X141097776Y-54439996D01*
X141097776Y-54439996D02*
X141002538Y-54487615D01*
X141002538Y-54487615D02*
X140954919Y-54535234D01*
X140954919Y-54535234D02*
X140907300Y-54630472D01*
X140907300Y-54630472D02*
X140907300Y-54963805D01*
X141050157Y-53344757D02*
X141050157Y-52963805D01*
X141383490Y-53201900D02*
X140526348Y-53201900D01*
X140526348Y-53201900D02*
X140431110Y-53154281D01*
X140431110Y-53154281D02*
X140383490Y-53059043D01*
X140383490Y-53059043D02*
X140383490Y-52963805D01*
X140383490Y-52487614D02*
X140431110Y-52582852D01*
X140431110Y-52582852D02*
X140478729Y-52630471D01*
X140478729Y-52630471D02*
X140573967Y-52678090D01*
X140573967Y-52678090D02*
X140859681Y-52678090D01*
X140859681Y-52678090D02*
X140954919Y-52630471D01*
X140954919Y-52630471D02*
X141002538Y-52582852D01*
X141002538Y-52582852D02*
X141050157Y-52487614D01*
X141050157Y-52487614D02*
X141050157Y-52344757D01*
X141050157Y-52344757D02*
X141002538Y-52249519D01*
X141002538Y-52249519D02*
X140954919Y-52201900D01*
X140954919Y-52201900D02*
X140859681Y-52154281D01*
X140859681Y-52154281D02*
X140573967Y-52154281D01*
X140573967Y-52154281D02*
X140478729Y-52201900D01*
X140478729Y-52201900D02*
X140431110Y-52249519D01*
X140431110Y-52249519D02*
X140383490Y-52344757D01*
X140383490Y-52344757D02*
X140383490Y-52487614D01*
X141383490Y-50963804D02*
X140573967Y-50963804D01*
X140573967Y-50963804D02*
X140478729Y-50916185D01*
X140478729Y-50916185D02*
X140431110Y-50868566D01*
X140431110Y-50868566D02*
X140383490Y-50773328D01*
X140383490Y-50773328D02*
X140383490Y-50582852D01*
X140383490Y-50582852D02*
X140431110Y-50487614D01*
X140431110Y-50487614D02*
X140478729Y-50439995D01*
X140478729Y-50439995D02*
X140573967Y-50392376D01*
X140573967Y-50392376D02*
X141383490Y-50392376D01*
X140669205Y-49963804D02*
X140669205Y-49487614D01*
X140383490Y-50059042D02*
X141383490Y-49725709D01*
X141383490Y-49725709D02*
X140383490Y-49392376D01*
X140383490Y-48487614D02*
X140859681Y-48820947D01*
X140383490Y-49059042D02*
X141383490Y-49059042D01*
X141383490Y-49059042D02*
X141383490Y-48678090D01*
X141383490Y-48678090D02*
X141335871Y-48582852D01*
X141335871Y-48582852D02*
X141288252Y-48535233D01*
X141288252Y-48535233D02*
X141193014Y-48487614D01*
X141193014Y-48487614D02*
X141050157Y-48487614D01*
X141050157Y-48487614D02*
X140954919Y-48535233D01*
X140954919Y-48535233D02*
X140907300Y-48582852D01*
X140907300Y-48582852D02*
X140859681Y-48678090D01*
X140859681Y-48678090D02*
X140859681Y-49059042D01*
X141383490Y-48201899D02*
X141383490Y-47630471D01*
X140383490Y-47916185D02*
X141383490Y-47916185D01*
X138773546Y-56963805D02*
X139773546Y-56963805D01*
X139773546Y-56963805D02*
X139059261Y-56630472D01*
X139059261Y-56630472D02*
X139773546Y-56297139D01*
X139773546Y-56297139D02*
X138773546Y-56297139D01*
X138773546Y-55392377D02*
X139297356Y-55392377D01*
X139297356Y-55392377D02*
X139392594Y-55439996D01*
X139392594Y-55439996D02*
X139440213Y-55535234D01*
X139440213Y-55535234D02*
X139440213Y-55725710D01*
X139440213Y-55725710D02*
X139392594Y-55820948D01*
X138821166Y-55392377D02*
X138773546Y-55487615D01*
X138773546Y-55487615D02*
X138773546Y-55725710D01*
X138773546Y-55725710D02*
X138821166Y-55820948D01*
X138821166Y-55820948D02*
X138916404Y-55868567D01*
X138916404Y-55868567D02*
X139011642Y-55868567D01*
X139011642Y-55868567D02*
X139106880Y-55820948D01*
X139106880Y-55820948D02*
X139154499Y-55725710D01*
X139154499Y-55725710D02*
X139154499Y-55487615D01*
X139154499Y-55487615D02*
X139202118Y-55392377D01*
X139440213Y-55011424D02*
X138773546Y-54773329D01*
X139440213Y-54535234D02*
X138773546Y-54773329D01*
X138773546Y-54773329D02*
X138535451Y-54868567D01*
X138535451Y-54868567D02*
X138487832Y-54916186D01*
X138487832Y-54916186D02*
X138440213Y-55011424D01*
X139678308Y-53439995D02*
X139725927Y-53392376D01*
X139725927Y-53392376D02*
X139773546Y-53297138D01*
X139773546Y-53297138D02*
X139773546Y-53059043D01*
X139773546Y-53059043D02*
X139725927Y-52963805D01*
X139725927Y-52963805D02*
X139678308Y-52916186D01*
X139678308Y-52916186D02*
X139583070Y-52868567D01*
X139583070Y-52868567D02*
X139487832Y-52868567D01*
X139487832Y-52868567D02*
X139344975Y-52916186D01*
X139344975Y-52916186D02*
X138773546Y-53487614D01*
X138773546Y-53487614D02*
X138773546Y-52868567D01*
X139773546Y-52249519D02*
X139773546Y-52154281D01*
X139773546Y-52154281D02*
X139725927Y-52059043D01*
X139725927Y-52059043D02*
X139678308Y-52011424D01*
X139678308Y-52011424D02*
X139583070Y-51963805D01*
X139583070Y-51963805D02*
X139392594Y-51916186D01*
X139392594Y-51916186D02*
X139154499Y-51916186D01*
X139154499Y-51916186D02*
X138964023Y-51963805D01*
X138964023Y-51963805D02*
X138868785Y-52011424D01*
X138868785Y-52011424D02*
X138821166Y-52059043D01*
X138821166Y-52059043D02*
X138773546Y-52154281D01*
X138773546Y-52154281D02*
X138773546Y-52249519D01*
X138773546Y-52249519D02*
X138821166Y-52344757D01*
X138821166Y-52344757D02*
X138868785Y-52392376D01*
X138868785Y-52392376D02*
X138964023Y-52439995D01*
X138964023Y-52439995D02*
X139154499Y-52487614D01*
X139154499Y-52487614D02*
X139392594Y-52487614D01*
X139392594Y-52487614D02*
X139583070Y-52439995D01*
X139583070Y-52439995D02*
X139678308Y-52392376D01*
X139678308Y-52392376D02*
X139725927Y-52344757D01*
X139725927Y-52344757D02*
X139773546Y-52249519D01*
X139678308Y-51535233D02*
X139725927Y-51487614D01*
X139725927Y-51487614D02*
X139773546Y-51392376D01*
X139773546Y-51392376D02*
X139773546Y-51154281D01*
X139773546Y-51154281D02*
X139725927Y-51059043D01*
X139725927Y-51059043D02*
X139678308Y-51011424D01*
X139678308Y-51011424D02*
X139583070Y-50963805D01*
X139583070Y-50963805D02*
X139487832Y-50963805D01*
X139487832Y-50963805D02*
X139344975Y-51011424D01*
X139344975Y-51011424D02*
X138773546Y-51582852D01*
X138773546Y-51582852D02*
X138773546Y-50963805D01*
X139440213Y-50106662D02*
X138773546Y-50106662D01*
X139821166Y-50344757D02*
X139106880Y-50582852D01*
X139106880Y-50582852D02*
X139106880Y-49963805D01*
X138163602Y-57106662D02*
X137163602Y-56773329D01*
X137163602Y-56773329D02*
X138163602Y-56439996D01*
X137211222Y-55725710D02*
X137163602Y-55820948D01*
X137163602Y-55820948D02*
X137163602Y-56011424D01*
X137163602Y-56011424D02*
X137211222Y-56106662D01*
X137211222Y-56106662D02*
X137306460Y-56154281D01*
X137306460Y-56154281D02*
X137687412Y-56154281D01*
X137687412Y-56154281D02*
X137782650Y-56106662D01*
X137782650Y-56106662D02*
X137830269Y-56011424D01*
X137830269Y-56011424D02*
X137830269Y-55820948D01*
X137830269Y-55820948D02*
X137782650Y-55725710D01*
X137782650Y-55725710D02*
X137687412Y-55678091D01*
X137687412Y-55678091D02*
X137592174Y-55678091D01*
X137592174Y-55678091D02*
X137496936Y-56154281D01*
X137163602Y-55249519D02*
X137830269Y-55249519D01*
X137639793Y-55249519D02*
X137735031Y-55201900D01*
X137735031Y-55201900D02*
X137782650Y-55154281D01*
X137782650Y-55154281D02*
X137830269Y-55059043D01*
X137830269Y-55059043D02*
X137830269Y-54963805D01*
X137211222Y-54678090D02*
X137163602Y-54582852D01*
X137163602Y-54582852D02*
X137163602Y-54392376D01*
X137163602Y-54392376D02*
X137211222Y-54297138D01*
X137211222Y-54297138D02*
X137306460Y-54249519D01*
X137306460Y-54249519D02*
X137354079Y-54249519D01*
X137354079Y-54249519D02*
X137449317Y-54297138D01*
X137449317Y-54297138D02*
X137496936Y-54392376D01*
X137496936Y-54392376D02*
X137496936Y-54535233D01*
X137496936Y-54535233D02*
X137544555Y-54630471D01*
X137544555Y-54630471D02*
X137639793Y-54678090D01*
X137639793Y-54678090D02*
X137687412Y-54678090D01*
X137687412Y-54678090D02*
X137782650Y-54630471D01*
X137782650Y-54630471D02*
X137830269Y-54535233D01*
X137830269Y-54535233D02*
X137830269Y-54392376D01*
X137830269Y-54392376D02*
X137782650Y-54297138D01*
X137163602Y-53820947D02*
X137830269Y-53820947D01*
X138163602Y-53820947D02*
X138115983Y-53868566D01*
X138115983Y-53868566D02*
X138068364Y-53820947D01*
X138068364Y-53820947D02*
X138115983Y-53773328D01*
X138115983Y-53773328D02*
X138163602Y-53820947D01*
X138163602Y-53820947D02*
X138068364Y-53820947D01*
X137163602Y-53201900D02*
X137211222Y-53297138D01*
X137211222Y-53297138D02*
X137258841Y-53344757D01*
X137258841Y-53344757D02*
X137354079Y-53392376D01*
X137354079Y-53392376D02*
X137639793Y-53392376D01*
X137639793Y-53392376D02*
X137735031Y-53344757D01*
X137735031Y-53344757D02*
X137782650Y-53297138D01*
X137782650Y-53297138D02*
X137830269Y-53201900D01*
X137830269Y-53201900D02*
X137830269Y-53059043D01*
X137830269Y-53059043D02*
X137782650Y-52963805D01*
X137782650Y-52963805D02*
X137735031Y-52916186D01*
X137735031Y-52916186D02*
X137639793Y-52868567D01*
X137639793Y-52868567D02*
X137354079Y-52868567D01*
X137354079Y-52868567D02*
X137258841Y-52916186D01*
X137258841Y-52916186D02*
X137211222Y-52963805D01*
X137211222Y-52963805D02*
X137163602Y-53059043D01*
X137163602Y-53059043D02*
X137163602Y-53201900D01*
X137830269Y-52439995D02*
X137163602Y-52439995D01*
X137735031Y-52439995D02*
X137782650Y-52392376D01*
X137782650Y-52392376D02*
X137830269Y-52297138D01*
X137830269Y-52297138D02*
X137830269Y-52154281D01*
X137830269Y-52154281D02*
X137782650Y-52059043D01*
X137782650Y-52059043D02*
X137687412Y-52011424D01*
X137687412Y-52011424D02*
X137163602Y-52011424D01*
X138068364Y-50820947D02*
X138115983Y-50773328D01*
X138115983Y-50773328D02*
X138163602Y-50678090D01*
X138163602Y-50678090D02*
X138163602Y-50439995D01*
X138163602Y-50439995D02*
X138115983Y-50344757D01*
X138115983Y-50344757D02*
X138068364Y-50297138D01*
X138068364Y-50297138D02*
X137973126Y-50249519D01*
X137973126Y-50249519D02*
X137877888Y-50249519D01*
X137877888Y-50249519D02*
X137735031Y-50297138D01*
X137735031Y-50297138D02*
X137163602Y-50868566D01*
X137163602Y-50868566D02*
X137163602Y-50249519D01*
X137258841Y-49820947D02*
X137211222Y-49773328D01*
X137211222Y-49773328D02*
X137163602Y-49820947D01*
X137163602Y-49820947D02*
X137211222Y-49868566D01*
X137211222Y-49868566D02*
X137258841Y-49820947D01*
X137258841Y-49820947D02*
X137163602Y-49820947D01*
X138163602Y-49154281D02*
X138163602Y-49059043D01*
X138163602Y-49059043D02*
X138115983Y-48963805D01*
X138115983Y-48963805D02*
X138068364Y-48916186D01*
X138068364Y-48916186D02*
X137973126Y-48868567D01*
X137973126Y-48868567D02*
X137782650Y-48820948D01*
X137782650Y-48820948D02*
X137544555Y-48820948D01*
X137544555Y-48820948D02*
X137354079Y-48868567D01*
X137354079Y-48868567D02*
X137258841Y-48916186D01*
X137258841Y-48916186D02*
X137211222Y-48963805D01*
X137211222Y-48963805D02*
X137163602Y-49059043D01*
X137163602Y-49059043D02*
X137163602Y-49154281D01*
X137163602Y-49154281D02*
X137211222Y-49249519D01*
X137211222Y-49249519D02*
X137258841Y-49297138D01*
X137258841Y-49297138D02*
X137354079Y-49344757D01*
X137354079Y-49344757D02*
X137544555Y-49392376D01*
X137544555Y-49392376D02*
X137782650Y-49392376D01*
X137782650Y-49392376D02*
X137973126Y-49344757D01*
X137973126Y-49344757D02*
X138068364Y-49297138D01*
X138068364Y-49297138D02*
X138115983Y-49249519D01*
X138115983Y-49249519D02*
X138163602Y-49154281D01*
M02*
