%TF.GenerationSoftware,KiCad,Pcbnew,8.0.5*%
%TF.CreationDate,2024-11-10T02:12:05-07:00*%
%TF.ProjectId,2024_11_ADC_ADS8689,32303234-5f31-4315-9f41-44435f414453,rev?*%
%TF.SameCoordinates,Original*%
%TF.FileFunction,Copper,L2,Bot*%
%TF.FilePolarity,Positive*%
%FSLAX46Y46*%
G04 Gerber Fmt 4.6, Leading zero omitted, Abs format (unit mm)*
G04 Created by KiCad (PCBNEW 8.0.5) date 2024-11-10 02:12:05*
%MOMM*%
%LPD*%
G01*
G04 APERTURE LIST*
%TA.AperFunction,ComponentPad*%
%ADD10R,1.700000X1.700000*%
%TD*%
%TA.AperFunction,ComponentPad*%
%ADD11O,1.700000X1.700000*%
%TD*%
%TA.AperFunction,ViaPad*%
%ADD12C,0.600000*%
%TD*%
G04 APERTURE END LIST*
D10*
%TO.P,J5,1,Pin_1*%
%TO.N,+3.3V*%
X102092800Y-53670200D03*
D11*
%TO.P,J5,2,Pin_2*%
%TO.N,/ADC_RVS*%
X102092800Y-56210200D03*
%TO.P,J5,3,Pin_3*%
%TO.N,/ADC_ALARM*%
X102092800Y-58750200D03*
%TO.P,J5,4,Pin_4*%
%TO.N,/ADC_SDO*%
X102092800Y-61290200D03*
%TO.P,J5,5,Pin_5*%
%TO.N,/ADC_SCLK*%
X102092800Y-63830200D03*
%TO.P,J5,6,Pin_6*%
%TO.N,/ADC_CS*%
X102092800Y-66370200D03*
%TO.P,J5,7,Pin_7*%
%TO.N,/ADC_SDI*%
X102092800Y-68910200D03*
%TO.P,J5,8,Pin_8*%
%TO.N,/RST*%
X102092800Y-71450200D03*
%TD*%
D10*
%TO.P,J4,1,Pin_1*%
%TO.N,GND*%
X82067400Y-53670200D03*
D11*
%TO.P,J4,2,Pin_2*%
%TO.N,+5V*%
X82067400Y-56210200D03*
%TO.P,J4,3,Pin_3*%
%TO.N,GND*%
X82067400Y-58750200D03*
%TO.P,J4,4,Pin_4*%
%TO.N,unconnected-(J4-Pin_4-Pad4)*%
X82067400Y-61290200D03*
%TO.P,J4,5,Pin_5*%
%TO.N,unconnected-(J4-Pin_5-Pad5)*%
X82067400Y-63830200D03*
%TO.P,J4,6,Pin_6*%
%TO.N,unconnected-(J4-Pin_6-Pad6)*%
X82067400Y-66370200D03*
%TO.P,J4,7,Pin_7*%
%TO.N,/AIN_P*%
X82067400Y-68910200D03*
%TO.P,J4,8,Pin_8*%
%TO.N,GND*%
X82067400Y-71450200D03*
%TD*%
D12*
%TO.N,GND*%
X88825000Y-60300000D03*
X90050000Y-63550000D03*
X90050000Y-62250000D03*
X87450000Y-65800000D03*
X87475000Y-69300000D03*
X87475000Y-67150000D03*
X85450000Y-59725000D03*
X92750000Y-58025000D03*
X89800000Y-59025000D03*
X90675000Y-55750000D03*
%TD*%
%TA.AperFunction,Conductor*%
%TO.N,GND*%
G36*
X103056522Y-51021880D02*
G01*
X103146866Y-51032059D01*
X103173931Y-51038236D01*
X103253140Y-51065952D01*
X103278153Y-51077998D01*
X103349206Y-51122643D01*
X103370913Y-51139955D01*
X103430244Y-51199286D01*
X103447557Y-51220995D01*
X103492200Y-51292044D01*
X103504248Y-51317062D01*
X103531962Y-51396266D01*
X103538140Y-51423335D01*
X103548320Y-51513676D01*
X103549100Y-51527561D01*
X103549100Y-52422389D01*
X103529415Y-52489428D01*
X103476611Y-52535183D01*
X103407453Y-52545127D01*
X103343897Y-52516102D01*
X103325834Y-52496701D01*
X103300614Y-52463012D01*
X103300346Y-52462654D01*
X103300344Y-52462653D01*
X103300344Y-52462652D01*
X103185135Y-52376406D01*
X103185128Y-52376402D01*
X103050282Y-52326108D01*
X103050283Y-52326108D01*
X102990683Y-52319701D01*
X102990681Y-52319700D01*
X102990673Y-52319700D01*
X102990664Y-52319700D01*
X101194929Y-52319700D01*
X101194923Y-52319701D01*
X101135316Y-52326108D01*
X101000471Y-52376402D01*
X101000464Y-52376406D01*
X100885255Y-52462652D01*
X100885252Y-52462655D01*
X100799006Y-52577864D01*
X100799002Y-52577871D01*
X100748708Y-52712717D01*
X100742301Y-52772316D01*
X100742300Y-52772335D01*
X100742300Y-54568070D01*
X100742301Y-54568076D01*
X100748708Y-54627683D01*
X100799002Y-54762528D01*
X100799006Y-54762535D01*
X100885252Y-54877744D01*
X100885255Y-54877747D01*
X101000464Y-54963993D01*
X101000471Y-54963997D01*
X101131881Y-55013010D01*
X101187815Y-55054881D01*
X101212232Y-55120345D01*
X101197380Y-55188618D01*
X101176230Y-55216873D01*
X101054303Y-55338800D01*
X100918765Y-55532369D01*
X100918764Y-55532371D01*
X100818898Y-55746535D01*
X100818894Y-55746544D01*
X100757738Y-55974786D01*
X100757736Y-55974796D01*
X100737141Y-56210199D01*
X100737141Y-56210200D01*
X100757736Y-56445603D01*
X100757738Y-56445613D01*
X100818894Y-56673855D01*
X100818896Y-56673859D01*
X100818897Y-56673863D01*
X100897319Y-56842038D01*
X100918765Y-56888030D01*
X100918767Y-56888034D01*
X101054301Y-57081595D01*
X101054306Y-57081602D01*
X101221397Y-57248693D01*
X101221403Y-57248698D01*
X101406958Y-57378625D01*
X101450583Y-57433202D01*
X101457777Y-57502700D01*
X101426254Y-57565055D01*
X101406958Y-57581775D01*
X101221397Y-57711705D01*
X101054305Y-57878797D01*
X100918765Y-58072369D01*
X100918764Y-58072371D01*
X100818898Y-58286535D01*
X100818894Y-58286544D01*
X100757738Y-58514786D01*
X100757736Y-58514796D01*
X100737141Y-58750199D01*
X100737141Y-58750200D01*
X100757736Y-58985603D01*
X100757738Y-58985613D01*
X100818894Y-59213855D01*
X100818896Y-59213859D01*
X100818897Y-59213863D01*
X100897319Y-59382038D01*
X100918765Y-59428030D01*
X100918767Y-59428034D01*
X101054301Y-59621595D01*
X101054306Y-59621602D01*
X101221397Y-59788693D01*
X101221403Y-59788698D01*
X101406958Y-59918625D01*
X101450583Y-59973202D01*
X101457777Y-60042700D01*
X101426254Y-60105055D01*
X101406958Y-60121775D01*
X101221397Y-60251705D01*
X101054305Y-60418797D01*
X100918765Y-60612369D01*
X100918764Y-60612371D01*
X100818898Y-60826535D01*
X100818894Y-60826544D01*
X100757738Y-61054786D01*
X100757736Y-61054796D01*
X100737141Y-61290199D01*
X100737141Y-61290200D01*
X100757736Y-61525603D01*
X100757738Y-61525613D01*
X100818894Y-61753855D01*
X100818896Y-61753859D01*
X100818897Y-61753863D01*
X100897319Y-61922038D01*
X100918765Y-61968030D01*
X100918767Y-61968034D01*
X101054301Y-62161595D01*
X101054306Y-62161602D01*
X101221397Y-62328693D01*
X101221403Y-62328698D01*
X101406958Y-62458625D01*
X101450583Y-62513202D01*
X101457777Y-62582700D01*
X101426254Y-62645055D01*
X101406958Y-62661775D01*
X101221397Y-62791705D01*
X101054305Y-62958797D01*
X100918765Y-63152369D01*
X100918764Y-63152371D01*
X100818898Y-63366535D01*
X100818894Y-63366544D01*
X100757738Y-63594786D01*
X100757736Y-63594796D01*
X100737141Y-63830199D01*
X100737141Y-63830200D01*
X100757736Y-64065603D01*
X100757738Y-64065613D01*
X100818894Y-64293855D01*
X100818896Y-64293859D01*
X100818897Y-64293863D01*
X100897319Y-64462038D01*
X100918765Y-64508030D01*
X100918767Y-64508034D01*
X101054301Y-64701595D01*
X101054306Y-64701602D01*
X101221397Y-64868693D01*
X101221403Y-64868698D01*
X101406958Y-64998625D01*
X101450583Y-65053202D01*
X101457777Y-65122700D01*
X101426254Y-65185055D01*
X101406958Y-65201775D01*
X101221397Y-65331705D01*
X101054305Y-65498797D01*
X100918765Y-65692369D01*
X100918764Y-65692371D01*
X100818898Y-65906535D01*
X100818894Y-65906544D01*
X100757738Y-66134786D01*
X100757736Y-66134796D01*
X100737141Y-66370199D01*
X100737141Y-66370200D01*
X100757736Y-66605603D01*
X100757738Y-66605613D01*
X100818894Y-66833855D01*
X100818896Y-66833859D01*
X100818897Y-66833863D01*
X100897319Y-67002038D01*
X100918765Y-67048030D01*
X100918767Y-67048034D01*
X101054301Y-67241595D01*
X101054306Y-67241602D01*
X101221397Y-67408693D01*
X101221403Y-67408698D01*
X101406958Y-67538625D01*
X101450583Y-67593202D01*
X101457777Y-67662700D01*
X101426254Y-67725055D01*
X101406958Y-67741775D01*
X101221397Y-67871705D01*
X101054305Y-68038797D01*
X100918765Y-68232369D01*
X100918764Y-68232371D01*
X100818898Y-68446535D01*
X100818894Y-68446544D01*
X100757738Y-68674786D01*
X100757736Y-68674796D01*
X100737141Y-68910199D01*
X100737141Y-68910200D01*
X100757736Y-69145603D01*
X100757738Y-69145613D01*
X100818894Y-69373855D01*
X100818896Y-69373859D01*
X100818897Y-69373863D01*
X100897319Y-69542038D01*
X100918765Y-69588030D01*
X100918767Y-69588034D01*
X101054301Y-69781595D01*
X101054306Y-69781602D01*
X101221397Y-69948693D01*
X101221403Y-69948698D01*
X101406958Y-70078625D01*
X101450583Y-70133202D01*
X101457777Y-70202700D01*
X101426254Y-70265055D01*
X101406958Y-70281775D01*
X101221397Y-70411705D01*
X101054305Y-70578797D01*
X100918765Y-70772369D01*
X100918764Y-70772371D01*
X100818898Y-70986535D01*
X100818894Y-70986544D01*
X100757738Y-71214786D01*
X100757736Y-71214796D01*
X100737141Y-71450199D01*
X100737141Y-71450200D01*
X100757736Y-71685603D01*
X100757738Y-71685613D01*
X100818894Y-71913855D01*
X100818896Y-71913859D01*
X100818897Y-71913863D01*
X100897319Y-72082038D01*
X100918765Y-72128030D01*
X100918767Y-72128034D01*
X101027081Y-72282721D01*
X101054305Y-72321601D01*
X101221399Y-72488695D01*
X101318184Y-72556465D01*
X101414965Y-72624232D01*
X101414967Y-72624233D01*
X101414970Y-72624235D01*
X101629137Y-72724103D01*
X101857392Y-72785263D01*
X102045718Y-72801739D01*
X102092799Y-72805859D01*
X102092800Y-72805859D01*
X102092801Y-72805859D01*
X102132034Y-72802426D01*
X102328208Y-72785263D01*
X102556463Y-72724103D01*
X102770630Y-72624235D01*
X102964201Y-72488695D01*
X103131295Y-72321601D01*
X103266835Y-72128030D01*
X103312718Y-72029632D01*
X103358890Y-71977194D01*
X103426084Y-71958042D01*
X103492965Y-71978258D01*
X103538299Y-72031423D01*
X103549100Y-72082038D01*
X103549100Y-73513638D01*
X103548320Y-73527523D01*
X103538140Y-73617864D01*
X103531962Y-73644933D01*
X103504248Y-73724137D01*
X103492200Y-73749155D01*
X103447557Y-73820204D01*
X103430244Y-73841913D01*
X103370913Y-73901244D01*
X103349204Y-73918557D01*
X103278155Y-73963200D01*
X103253137Y-73975248D01*
X103173933Y-74002962D01*
X103146864Y-74009140D01*
X103066675Y-74018176D01*
X103056521Y-74019320D01*
X103042638Y-74020100D01*
X81056562Y-74020100D01*
X81042678Y-74019320D01*
X81030153Y-74017908D01*
X80952335Y-74009140D01*
X80925266Y-74002962D01*
X80846062Y-73975248D01*
X80821044Y-73963200D01*
X80749995Y-73918557D01*
X80728286Y-73901244D01*
X80668955Y-73841913D01*
X80651642Y-73820204D01*
X80606999Y-73749155D01*
X80594951Y-73724137D01*
X80567237Y-73644933D01*
X80561059Y-73617863D01*
X80550880Y-73527522D01*
X80550100Y-73513638D01*
X80550100Y-71945434D01*
X80569785Y-71878395D01*
X80622589Y-71832640D01*
X80691747Y-71822696D01*
X80755303Y-71851721D01*
X80791904Y-71908673D01*
X80792115Y-71908597D01*
X80792455Y-71909531D01*
X80793077Y-71910499D01*
X80793876Y-71913344D01*
X80793967Y-71913686D01*
X80793970Y-71913692D01*
X80893799Y-72127778D01*
X81029294Y-72321282D01*
X81196317Y-72488305D01*
X81389821Y-72623800D01*
X81603907Y-72723629D01*
X81603916Y-72723633D01*
X81817400Y-72780834D01*
X81817400Y-71883212D01*
X81874407Y-71916125D01*
X82001574Y-71950200D01*
X82133226Y-71950200D01*
X82260393Y-71916125D01*
X82317400Y-71883212D01*
X82317400Y-72780833D01*
X82530883Y-72723633D01*
X82530892Y-72723629D01*
X82744978Y-72623800D01*
X82938482Y-72488305D01*
X83105505Y-72321282D01*
X83241000Y-72127778D01*
X83340829Y-71913692D01*
X83340832Y-71913686D01*
X83398036Y-71700200D01*
X82500412Y-71700200D01*
X82533325Y-71643193D01*
X82567400Y-71516026D01*
X82567400Y-71384374D01*
X82533325Y-71257207D01*
X82500412Y-71200200D01*
X83398036Y-71200200D01*
X83398035Y-71200199D01*
X83340832Y-70986713D01*
X83340829Y-70986707D01*
X83241000Y-70772622D01*
X83240999Y-70772620D01*
X83105513Y-70579126D01*
X83105508Y-70579120D01*
X82938478Y-70412090D01*
X82752805Y-70282079D01*
X82709180Y-70227502D01*
X82701988Y-70158004D01*
X82733510Y-70095649D01*
X82752806Y-70078930D01*
X82753242Y-70078625D01*
X82938801Y-69948695D01*
X83105895Y-69781601D01*
X83241435Y-69588030D01*
X83341303Y-69373863D01*
X83402463Y-69145608D01*
X83423059Y-68910200D01*
X83402463Y-68674792D01*
X83341303Y-68446537D01*
X83241435Y-68232371D01*
X83105895Y-68038799D01*
X83105894Y-68038797D01*
X82938802Y-67871706D01*
X82938796Y-67871701D01*
X82753242Y-67741775D01*
X82709617Y-67687198D01*
X82702423Y-67617700D01*
X82733946Y-67555345D01*
X82753242Y-67538625D01*
X82775426Y-67523091D01*
X82938801Y-67408695D01*
X83105895Y-67241601D01*
X83241435Y-67048030D01*
X83341303Y-66833863D01*
X83402463Y-66605608D01*
X83423059Y-66370200D01*
X83402463Y-66134792D01*
X83341303Y-65906537D01*
X83241435Y-65692371D01*
X83105895Y-65498799D01*
X83105894Y-65498797D01*
X82938802Y-65331706D01*
X82938796Y-65331701D01*
X82753242Y-65201775D01*
X82709617Y-65147198D01*
X82702423Y-65077700D01*
X82733946Y-65015345D01*
X82753242Y-64998625D01*
X82775426Y-64983091D01*
X82938801Y-64868695D01*
X83105895Y-64701601D01*
X83241435Y-64508030D01*
X83341303Y-64293863D01*
X83402463Y-64065608D01*
X83423059Y-63830200D01*
X83402463Y-63594792D01*
X83341303Y-63366537D01*
X83241435Y-63152371D01*
X83105895Y-62958799D01*
X83105894Y-62958797D01*
X82938802Y-62791706D01*
X82938796Y-62791701D01*
X82753242Y-62661775D01*
X82709617Y-62607198D01*
X82702423Y-62537700D01*
X82733946Y-62475345D01*
X82753242Y-62458625D01*
X82775426Y-62443091D01*
X82938801Y-62328695D01*
X83105895Y-62161601D01*
X83241435Y-61968030D01*
X83341303Y-61753863D01*
X83402463Y-61525608D01*
X83423059Y-61290200D01*
X83402463Y-61054792D01*
X83341303Y-60826537D01*
X83241435Y-60612371D01*
X83105895Y-60418799D01*
X83105894Y-60418797D01*
X82938802Y-60251706D01*
X82938801Y-60251705D01*
X82752805Y-60121469D01*
X82709181Y-60066892D01*
X82701988Y-59997393D01*
X82733510Y-59935039D01*
X82752805Y-59918319D01*
X82938482Y-59788305D01*
X83105505Y-59621282D01*
X83241000Y-59427778D01*
X83340829Y-59213692D01*
X83340832Y-59213686D01*
X83398036Y-59000200D01*
X82500412Y-59000200D01*
X82533325Y-58943193D01*
X82567400Y-58816026D01*
X82567400Y-58684374D01*
X82533325Y-58557207D01*
X82500412Y-58500200D01*
X83398036Y-58500200D01*
X83398035Y-58500199D01*
X83340832Y-58286713D01*
X83340829Y-58286707D01*
X83241000Y-58072622D01*
X83240999Y-58072620D01*
X83105513Y-57879126D01*
X83105508Y-57879120D01*
X82938478Y-57712090D01*
X82752805Y-57582079D01*
X82709180Y-57527502D01*
X82701988Y-57458004D01*
X82733510Y-57395649D01*
X82752806Y-57378930D01*
X82753242Y-57378625D01*
X82938801Y-57248695D01*
X83105895Y-57081601D01*
X83241435Y-56888030D01*
X83341303Y-56673863D01*
X83402463Y-56445608D01*
X83423059Y-56210200D01*
X83402463Y-55974792D01*
X83341303Y-55746537D01*
X83241435Y-55532371D01*
X83105895Y-55338799D01*
X82983579Y-55216483D01*
X82950096Y-55155163D01*
X82955080Y-55085471D01*
X82996951Y-55029537D01*
X83027929Y-55012622D01*
X83159486Y-54963554D01*
X83159493Y-54963550D01*
X83274587Y-54877390D01*
X83274590Y-54877387D01*
X83360750Y-54762293D01*
X83360754Y-54762286D01*
X83410996Y-54627579D01*
X83410998Y-54627572D01*
X83417399Y-54568044D01*
X83417400Y-54568027D01*
X83417400Y-53920200D01*
X82500412Y-53920200D01*
X82533325Y-53863193D01*
X82567400Y-53736026D01*
X82567400Y-53604374D01*
X82533325Y-53477207D01*
X82500412Y-53420200D01*
X83417400Y-53420200D01*
X83417400Y-52772372D01*
X83417399Y-52772355D01*
X83410998Y-52712827D01*
X83410996Y-52712820D01*
X83360754Y-52578113D01*
X83360750Y-52578106D01*
X83274590Y-52463012D01*
X83274587Y-52463009D01*
X83159493Y-52376849D01*
X83159486Y-52376845D01*
X83024779Y-52326603D01*
X83024772Y-52326601D01*
X82965244Y-52320200D01*
X82317400Y-52320200D01*
X82317400Y-53237188D01*
X82260393Y-53204275D01*
X82133226Y-53170200D01*
X82001574Y-53170200D01*
X81874407Y-53204275D01*
X81817400Y-53237188D01*
X81817400Y-52320200D01*
X81169555Y-52320200D01*
X81110027Y-52326601D01*
X81110020Y-52326603D01*
X80975313Y-52376845D01*
X80975306Y-52376849D01*
X80860212Y-52463009D01*
X80773366Y-52579020D01*
X80717432Y-52620890D01*
X80647740Y-52625874D01*
X80586418Y-52592388D01*
X80552933Y-52531065D01*
X80550100Y-52504708D01*
X80550100Y-51527561D01*
X80550880Y-51513677D01*
X80550880Y-51513676D01*
X80561059Y-51423331D01*
X80567235Y-51396270D01*
X80594953Y-51317056D01*
X80606996Y-51292050D01*
X80651646Y-51220989D01*
X80668951Y-51199290D01*
X80728290Y-51139951D01*
X80749989Y-51122646D01*
X80821050Y-51077996D01*
X80846056Y-51065953D01*
X80925270Y-51038235D01*
X80952333Y-51032059D01*
X81015019Y-51024996D01*
X81042679Y-51021880D01*
X81056562Y-51021100D01*
X81115492Y-51021100D01*
X102983708Y-51021100D01*
X103042638Y-51021100D01*
X103056522Y-51021880D01*
G37*
%TD.AperFunction*%
%TD*%
M02*
