%TF.GenerationSoftware,KiCad,Pcbnew,8.0.5*%
%TF.CreationDate,2024-11-10T02:12:05-07:00*%
%TF.ProjectId,2024_11_ADC_ADS8689,32303234-5f31-4315-9f41-44435f414453,rev?*%
%TF.SameCoordinates,Original*%
%TF.FileFunction,Copper,L1,Top*%
%TF.FilePolarity,Positive*%
%FSLAX46Y46*%
G04 Gerber Fmt 4.6, Leading zero omitted, Abs format (unit mm)*
G04 Created by KiCad (PCBNEW 8.0.5) date 2024-11-10 02:12:05*
%MOMM*%
%LPD*%
G01*
G04 APERTURE LIST*
G04 Aperture macros list*
%AMRoundRect*
0 Rectangle with rounded corners*
0 $1 Rounding radius*
0 $2 $3 $4 $5 $6 $7 $8 $9 X,Y pos of 4 corners*
0 Add a 4 corners polygon primitive as box body*
4,1,4,$2,$3,$4,$5,$6,$7,$8,$9,$2,$3,0*
0 Add four circle primitives for the rounded corners*
1,1,$1+$1,$2,$3*
1,1,$1+$1,$4,$5*
1,1,$1+$1,$6,$7*
1,1,$1+$1,$8,$9*
0 Add four rect primitives between the rounded corners*
20,1,$1+$1,$2,$3,$4,$5,0*
20,1,$1+$1,$4,$5,$6,$7,0*
20,1,$1+$1,$6,$7,$8,$9,0*
20,1,$1+$1,$8,$9,$2,$3,0*%
G04 Aperture macros list end*
%TA.AperFunction,SMDPad,CuDef*%
%ADD10RoundRect,0.250000X0.262500X0.450000X-0.262500X0.450000X-0.262500X-0.450000X0.262500X-0.450000X0*%
%TD*%
%TA.AperFunction,SMDPad,CuDef*%
%ADD11RoundRect,0.250000X-0.337500X-0.475000X0.337500X-0.475000X0.337500X0.475000X-0.337500X0.475000X0*%
%TD*%
%TA.AperFunction,SMDPad,CuDef*%
%ADD12RoundRect,0.250000X0.337500X0.475000X-0.337500X0.475000X-0.337500X-0.475000X0.337500X-0.475000X0*%
%TD*%
%TA.AperFunction,SMDPad,CuDef*%
%ADD13RoundRect,0.250000X0.475000X-0.337500X0.475000X0.337500X-0.475000X0.337500X-0.475000X-0.337500X0*%
%TD*%
%TA.AperFunction,SMDPad,CuDef*%
%ADD14RoundRect,0.051250X-0.733750X-0.153750X0.733750X-0.153750X0.733750X0.153750X-0.733750X0.153750X0*%
%TD*%
%TA.AperFunction,ComponentPad*%
%ADD15R,1.700000X1.700000*%
%TD*%
%TA.AperFunction,ComponentPad*%
%ADD16O,1.700000X1.700000*%
%TD*%
%TA.AperFunction,ViaPad*%
%ADD17C,0.600000*%
%TD*%
%TA.AperFunction,Conductor*%
%ADD18C,0.381000*%
%TD*%
%TA.AperFunction,Conductor*%
%ADD19C,0.508000*%
%TD*%
G04 APERTURE END LIST*
D10*
%TO.P,R1,1*%
%TO.N,/RST*%
X94862500Y-67275000D03*
%TO.P,R1,2*%
%TO.N,+3.3V*%
X93037500Y-67275000D03*
%TD*%
D11*
%TO.P,C5,2*%
%TO.N,+3.3V*%
X94817500Y-59075000D03*
%TO.P,C5,1*%
%TO.N,GND*%
X92742500Y-59075000D03*
%TD*%
D12*
%TO.P,C4,2*%
%TO.N,+5V*%
X88592500Y-56800000D03*
%TO.P,C4,1*%
%TO.N,GND*%
X90667500Y-56800000D03*
%TD*%
D13*
%TO.P,C3,1*%
%TO.N,Net-(U2-REFIO)*%
X85450000Y-62712500D03*
%TO.P,C3,2*%
%TO.N,GND*%
X85450000Y-60637500D03*
%TD*%
D12*
%TO.P,C2,1*%
%TO.N,Net-(U2-REFCAP)*%
X90462500Y-69300000D03*
%TO.P,C2,2*%
%TO.N,GND*%
X88387500Y-69300000D03*
%TD*%
%TO.P,C1,1*%
%TO.N,Net-(U2-REFCAP)*%
X90450000Y-67175000D03*
%TO.P,C1,2*%
%TO.N,GND*%
X88375000Y-67175000D03*
%TD*%
D14*
%TO.P,U2,1,DGND*%
%TO.N,GND*%
X88835000Y-60950000D03*
%TO.P,U2,2,AVDD*%
%TO.N,+5V*%
X88835000Y-61600000D03*
%TO.P,U2,3,AGND*%
%TO.N,GND*%
X88835000Y-62250000D03*
%TO.P,U2,4,REFIO*%
%TO.N,Net-(U2-REFIO)*%
X88835000Y-62900000D03*
%TO.P,U2,5,REFGND*%
%TO.N,GND*%
X88835000Y-63550000D03*
%TO.P,U2,6,REFCAP*%
%TO.N,Net-(U2-REFCAP)*%
X88835000Y-64200000D03*
%TO.P,U2,7,AIN_P*%
%TO.N,/AIN_P*%
X88835000Y-64850000D03*
%TO.P,U2,8,AIN_GND*%
%TO.N,GND*%
X88835000Y-65500000D03*
%TO.P,U2,9,~{RST}*%
%TO.N,/RST*%
X94575000Y-65500000D03*
%TO.P,U2,10,SDI*%
%TO.N,/ADC_SDI*%
X94575000Y-64850000D03*
%TO.P,U2,11,CONVST/~{CS}*%
%TO.N,/ADC_CS*%
X94575000Y-64200000D03*
%TO.P,U2,12,SCLK*%
%TO.N,/ADC_SCLK*%
X94575000Y-63550000D03*
%TO.P,U2,13,SDO-0*%
%TO.N,/ADC_SDO*%
X94575000Y-62900000D03*
%TO.P,U2,14,ALARM/SDO-1/GPO*%
%TO.N,/ADC_ALARM*%
X94575000Y-62250000D03*
%TO.P,U2,15,RVS*%
%TO.N,/ADC_RVS*%
X94575000Y-61600000D03*
%TO.P,U2,16,DVDD*%
%TO.N,+3.3V*%
X94575000Y-60950000D03*
%TD*%
D11*
%TO.P,C13,2*%
%TO.N,GND*%
X90692500Y-59050000D03*
%TO.P,C13,1*%
%TO.N,+5V*%
X88617500Y-59050000D03*
%TD*%
D15*
%TO.P,J5,1,Pin_1*%
%TO.N,+3.3V*%
X102092800Y-53670200D03*
D16*
%TO.P,J5,2,Pin_2*%
%TO.N,/ADC_RVS*%
X102092800Y-56210200D03*
%TO.P,J5,3,Pin_3*%
%TO.N,/ADC_ALARM*%
X102092800Y-58750200D03*
%TO.P,J5,4,Pin_4*%
%TO.N,/ADC_SDO*%
X102092800Y-61290200D03*
%TO.P,J5,5,Pin_5*%
%TO.N,/ADC_SCLK*%
X102092800Y-63830200D03*
%TO.P,J5,6,Pin_6*%
%TO.N,/ADC_CS*%
X102092800Y-66370200D03*
%TO.P,J5,7,Pin_7*%
%TO.N,/ADC_SDI*%
X102092800Y-68910200D03*
%TO.P,J5,8,Pin_8*%
%TO.N,/RST*%
X102092800Y-71450200D03*
%TD*%
D15*
%TO.P,J4,1,Pin_1*%
%TO.N,GND*%
X82067400Y-53670200D03*
D16*
%TO.P,J4,2,Pin_2*%
%TO.N,+5V*%
X82067400Y-56210200D03*
%TO.P,J4,3,Pin_3*%
%TO.N,GND*%
X82067400Y-58750200D03*
%TO.P,J4,4,Pin_4*%
%TO.N,unconnected-(J4-Pin_4-Pad4)*%
X82067400Y-61290200D03*
%TO.P,J4,5,Pin_5*%
%TO.N,unconnected-(J4-Pin_5-Pad5)*%
X82067400Y-63830200D03*
%TO.P,J4,6,Pin_6*%
%TO.N,unconnected-(J4-Pin_6-Pad6)*%
X82067400Y-66370200D03*
%TO.P,J4,7,Pin_7*%
%TO.N,/AIN_P*%
X82067400Y-68910200D03*
%TO.P,J4,8,Pin_8*%
%TO.N,GND*%
X82067400Y-71450200D03*
%TD*%
D17*
%TO.N,GND*%
X88825000Y-60300000D03*
X90050000Y-63550000D03*
X90050000Y-62250000D03*
X87450000Y-65800000D03*
X87475000Y-69300000D03*
X87475000Y-67150000D03*
X85450000Y-59725000D03*
X92750000Y-58025000D03*
X89800000Y-59025000D03*
X90675000Y-55750000D03*
%TD*%
D18*
%TO.N,+5V*%
X88063200Y-56800000D02*
X87200000Y-57663200D01*
X88592500Y-56800000D02*
X88063200Y-56800000D01*
X87200000Y-57663200D02*
X87200000Y-59625000D01*
X85747000Y-56210200D02*
X87200000Y-57663200D01*
X82067400Y-56210200D02*
X85747000Y-56210200D01*
%TO.N,/RST*%
X97575200Y-71450200D02*
X102092800Y-71450200D01*
X96050000Y-67000000D02*
X96050000Y-69925000D01*
X96050000Y-69925000D02*
X97575200Y-71450200D01*
%TO.N,/ADC_SDI*%
X102057600Y-68875000D02*
X102092800Y-68910200D01*
X99750000Y-68875000D02*
X102057600Y-68875000D01*
X97950000Y-67075000D02*
X99750000Y-68875000D01*
X97950000Y-65775000D02*
X97950000Y-67075000D01*
X94575000Y-64850000D02*
X97025000Y-64850000D01*
X97025000Y-64850000D02*
X97950000Y-65775000D01*
%TO.N,/ADC_CS*%
X98300000Y-64200000D02*
X100470200Y-66370200D01*
X100470200Y-66370200D02*
X102092800Y-66370200D01*
X94575000Y-64200000D02*
X98300000Y-64200000D01*
%TO.N,/ADC_SCLK*%
X101812600Y-63550000D02*
X102092800Y-63830200D01*
X94575000Y-63550000D02*
X101812600Y-63550000D01*
%TO.N,/ADC_SDO*%
X102033000Y-61350000D02*
X102092800Y-61290200D01*
X99000000Y-61350000D02*
X102033000Y-61350000D01*
X97450000Y-62900000D02*
X99000000Y-61350000D01*
X94575000Y-62900000D02*
X97450000Y-62900000D01*
%TO.N,/ADC_ALARM*%
X97675000Y-59500000D02*
X98424800Y-58750200D01*
X98424800Y-58750200D02*
X102092800Y-58750200D01*
X94575000Y-62250000D02*
X97075000Y-62250000D01*
X97075000Y-62250000D02*
X97675000Y-61650000D01*
X97675000Y-61650000D02*
X97675000Y-59500000D01*
%TO.N,/ADC_RVS*%
X96825000Y-57425000D02*
X98039800Y-56210200D01*
X98039800Y-56210200D02*
X102092800Y-56210200D01*
X96475000Y-61600000D02*
X96825000Y-61250000D01*
X96825000Y-61250000D02*
X96825000Y-57425000D01*
X94575000Y-61600000D02*
X96475000Y-61600000D01*
%TO.N,+3.3V*%
X101972600Y-53550000D02*
X102092800Y-53670200D01*
X94817500Y-54432500D02*
X95700000Y-53550000D01*
X95700000Y-53550000D02*
X101972600Y-53550000D01*
X94817500Y-59075000D02*
X94817500Y-54432500D01*
%TO.N,GND*%
X88825000Y-60940000D02*
X88835000Y-60950000D01*
X88825000Y-60300000D02*
X88825000Y-60940000D01*
%TO.N,+3.3V*%
X96050000Y-59375000D02*
X95750000Y-59075000D01*
X95700000Y-60950000D02*
X96050000Y-60600000D01*
X94575000Y-60950000D02*
X95700000Y-60950000D01*
X96050000Y-60600000D02*
X96050000Y-59375000D01*
X95750000Y-59075000D02*
X94817500Y-59075000D01*
%TO.N,+5V*%
X87200000Y-59625000D02*
X87775000Y-59050000D01*
X87475000Y-61600000D02*
X87200000Y-61325000D01*
X87775000Y-59050000D02*
X88617500Y-59050000D01*
X88835000Y-61600000D02*
X87475000Y-61600000D01*
X87200000Y-61325000D02*
X87200000Y-59625000D01*
%TO.N,GND*%
X90050000Y-63550000D02*
X88835000Y-63550000D01*
X90050000Y-62250000D02*
X88835000Y-62250000D01*
%TO.N,+3.3V*%
X93300000Y-60950000D02*
X94575000Y-60950000D01*
X93037500Y-61212500D02*
X93300000Y-60950000D01*
X93037500Y-67275000D02*
X93037500Y-61212500D01*
%TO.N,/RST*%
X96050000Y-67000000D02*
X95775000Y-67275000D01*
X96050000Y-65750000D02*
X96050000Y-67000000D01*
X95800000Y-65500000D02*
X96050000Y-65750000D01*
X95775000Y-67275000D02*
X94862500Y-67275000D01*
X94575000Y-65500000D02*
X95800000Y-65500000D01*
%TO.N,Net-(U2-REFCAP)*%
X90462500Y-67187500D02*
X90450000Y-67175000D01*
X90462500Y-69300000D02*
X90462500Y-67187500D01*
X90450000Y-64850000D02*
X90450000Y-67175000D01*
X89800000Y-64200000D02*
X90450000Y-64850000D01*
X88835000Y-64200000D02*
X89800000Y-64200000D01*
%TO.N,Net-(U2-REFIO)*%
X85637500Y-62900000D02*
X85450000Y-62712500D01*
X88835000Y-62900000D02*
X85637500Y-62900000D01*
%TO.N,/AIN_P*%
X84550000Y-65275000D02*
X84975000Y-64850000D01*
X84975000Y-64850000D02*
X88835000Y-64850000D01*
X84550000Y-68250000D02*
X84550000Y-65275000D01*
X83889800Y-68910200D02*
X84550000Y-68250000D01*
X82067400Y-68910200D02*
X83889800Y-68910200D01*
%TO.N,GND*%
X87750000Y-65500000D02*
X87450000Y-65800000D01*
X88835000Y-65500000D02*
X87750000Y-65500000D01*
D19*
X87475000Y-69300000D02*
X88387500Y-69300000D01*
X88350000Y-67150000D02*
X88375000Y-67175000D01*
X87475000Y-67150000D02*
X88350000Y-67150000D01*
X85450000Y-59725000D02*
X85450000Y-60637500D01*
X92750000Y-59067500D02*
X92742500Y-59075000D01*
X92750000Y-58025000D02*
X92750000Y-59067500D01*
X90667500Y-59025000D02*
X90692500Y-59050000D01*
X89800000Y-59025000D02*
X90667500Y-59025000D01*
X90667500Y-55757500D02*
X90675000Y-55750000D01*
X90667500Y-56800000D02*
X90667500Y-55757500D01*
%TD*%
M02*
