M48
; DRILL file {KiCad 9.0.4} date 2025-10-06T02:07:30-0600
; FORMAT={-:-/ absolute / inch / decimal}
; #@! TF.CreationDate,2025-10-06T02:07:30-06:00
; #@! TF.GenerationSoftware,Kicad,Pcbnew,9.0.4
; #@! TF.FileFunction,Plated,1,2,PTH
FMAT,2
INCH
; #@! TA.AperFunction,Plated,PTH,ViaDrill
T1C0.0118
; #@! TA.AperFunction,Plated,PTH,ComponentDrill
T2C0.0374
; #@! TA.AperFunction,Plated,PTH,ComponentDrill
T3C0.0394
; #@! TA.AperFunction,Plated,PTH,ComponentDrill
T4C0.0709
; #@! TA.AperFunction,Plated,PTH,ComponentDrill
T5C0.1260
%
G90
G05
T1
X4.5366Y-3.4118
X4.5374Y-3.3441
X4.6264Y-4.1311
X4.6469Y-3.5535
X4.6752Y-2.6146
X4.7409Y-3.4701
X4.7417Y-3.4433
X4.8496Y-3.4421
X4.8496Y-3.4673
X4.9323Y-2.9512
X5.1882Y-3.6228
X5.2413Y-3.7697
X5.4374Y-2.9244
X5.5906Y-3.3846
X5.6031Y-4.0665
X5.9732Y-4.0878
X5.9736Y-4.0602
X5.974Y-4.0031
X5.974Y-4.0311
X5.9744Y-4.1157
X6.0461Y-4.0024
X6.0465Y-4.0854
X6.0469Y-4.0299
X6.0469Y-4.0575
X6.0469Y-4.113
X6.2976Y-2.8685
X6.5315Y-2.7472
X6.5811Y-2.8776
X6.7272Y-2.8382
X6.8571Y-2.4728
X7.0311Y-2.8378
X7.0949Y-2.5988
X7.2756Y-3.6654
T2
X4.6409Y-2.4063
X4.7394Y-2.4063
X4.8075Y-3.9094
X4.8378Y-2.4063
X4.9059Y-3.9094
X5.0043Y-3.9094
X5.8248Y-2.3362
X5.9232Y-2.3362
X6.0217Y-2.3362
T3
X4.2114Y-3.2925
X4.3098Y-3.2925
X4.4083Y-3.2925
X4.4933Y-2.6598
X4.915Y-3.2315
X4.9925Y-2.6346
X5.248Y-3.0961
X5.2563Y-2.8063
X5.348Y-3.0961
X5.3547Y-2.8063
X5.4465Y-3.4205
X5.448Y-3.0961
X5.4531Y-2.8063
X5.4764Y-3.8142
X6.2748Y-3.1992
X6.2748Y-3.2992
X6.2748Y-3.3992
X6.4665Y-4.0457
X6.5008Y-3.0402
X6.565Y-4.0457
X6.6634Y-4.0457
X6.8244Y-2.1937
X7.0713Y-3.9323
X7.0917Y-3.535
X7.163Y-2.802
X7.1713Y-3.9323
X7.1902Y-3.535
X7.2713Y-3.9323
X7.2886Y-3.535
T5
X4.2063Y-2.3378
X5.3201Y-4.0587
X7.3217Y-2.2957
T3
G00X4.2532Y-3.6457
M15
G01X4.332Y-3.6457
M16
G05
G00X4.2532Y-3.8819
M15
G01X4.332Y-3.8819
M16
G05
G00X4.4777Y-3.8031
M15
G01X4.4777Y-3.7244
M16
G05
T4
G00X4.1366Y-3.0228
M15
G01X4.1366Y-3.011
M16
G05
G00X4.4831Y-3.0228
M15
G01X4.4831Y-3.011
M16
G05
G00X5.1815Y-2.5366
M15
G01X5.1815Y-2.5248
M16
G05
G00X5.528Y-2.5366
M15
G01X5.528Y-2.5248
M16
G05
G00X6.3917Y-3.776
M15
G01X6.3917Y-3.7642
M16
G05
G00X6.7382Y-3.776
M15
G01X6.7382Y-3.7642
M16
G05
G00X7.0169Y-3.2654
M15
G01X7.0169Y-3.2535
M16
G05
G00X7.3634Y-3.2654
M15
G01X7.3634Y-3.2535
M16
G05
M30
