%TF.GenerationSoftware,KiCad,Pcbnew,9.0.4*%
%TF.CreationDate,2025-10-06T02:07:33-06:00*%
%TF.ProjectId,Levitation_Analog_v1,4c657669-7461-4746-996f-6e5f416e616c,rev?*%
%TF.SameCoordinates,Original*%
%TF.FileFunction,Legend,Bot*%
%TF.FilePolarity,Positive*%
%FSLAX46Y46*%
G04 Gerber Fmt 4.6, Leading zero omitted, Abs format (unit mm)*
G04 Created by KiCad (PCBNEW 9.0.4) date 2025-10-06 02:07:33*
%MOMM*%
%LPD*%
G01*
G04 APERTURE LIST*
%ADD10C,0.200000*%
G04 APERTURE END LIST*
D10*
X169276993Y-63296196D02*
X169991279Y-63296196D01*
X169991279Y-63296196D02*
X169991279Y-61796196D01*
X168205564Y-63224768D02*
X168348421Y-63296196D01*
X168348421Y-63296196D02*
X168634136Y-63296196D01*
X168634136Y-63296196D02*
X168776993Y-63224768D01*
X168776993Y-63224768D02*
X168848421Y-63081910D01*
X168848421Y-63081910D02*
X168848421Y-62510482D01*
X168848421Y-62510482D02*
X168776993Y-62367625D01*
X168776993Y-62367625D02*
X168634136Y-62296196D01*
X168634136Y-62296196D02*
X168348421Y-62296196D01*
X168348421Y-62296196D02*
X168205564Y-62367625D01*
X168205564Y-62367625D02*
X168134136Y-62510482D01*
X168134136Y-62510482D02*
X168134136Y-62653339D01*
X168134136Y-62653339D02*
X168848421Y-62796196D01*
X167634136Y-62296196D02*
X167276993Y-63296196D01*
X167276993Y-63296196D02*
X166919850Y-62296196D01*
X166348422Y-63296196D02*
X166348422Y-62296196D01*
X166348422Y-61796196D02*
X166419850Y-61867625D01*
X166419850Y-61867625D02*
X166348422Y-61939053D01*
X166348422Y-61939053D02*
X166276993Y-61867625D01*
X166276993Y-61867625D02*
X166348422Y-61796196D01*
X166348422Y-61796196D02*
X166348422Y-61939053D01*
X165848421Y-62296196D02*
X165276993Y-62296196D01*
X165634136Y-61796196D02*
X165634136Y-63081910D01*
X165634136Y-63081910D02*
X165562707Y-63224768D01*
X165562707Y-63224768D02*
X165419850Y-63296196D01*
X165419850Y-63296196D02*
X165276993Y-63296196D01*
X164134136Y-63296196D02*
X164134136Y-62510482D01*
X164134136Y-62510482D02*
X164205564Y-62367625D01*
X164205564Y-62367625D02*
X164348421Y-62296196D01*
X164348421Y-62296196D02*
X164634136Y-62296196D01*
X164634136Y-62296196D02*
X164776993Y-62367625D01*
X164134136Y-63224768D02*
X164276993Y-63296196D01*
X164276993Y-63296196D02*
X164634136Y-63296196D01*
X164634136Y-63296196D02*
X164776993Y-63224768D01*
X164776993Y-63224768D02*
X164848421Y-63081910D01*
X164848421Y-63081910D02*
X164848421Y-62939053D01*
X164848421Y-62939053D02*
X164776993Y-62796196D01*
X164776993Y-62796196D02*
X164634136Y-62724768D01*
X164634136Y-62724768D02*
X164276993Y-62724768D01*
X164276993Y-62724768D02*
X164134136Y-62653339D01*
X163634135Y-62296196D02*
X163062707Y-62296196D01*
X163419850Y-61796196D02*
X163419850Y-63081910D01*
X163419850Y-63081910D02*
X163348421Y-63224768D01*
X163348421Y-63224768D02*
X163205564Y-63296196D01*
X163205564Y-63296196D02*
X163062707Y-63296196D01*
X162562707Y-63296196D02*
X162562707Y-62296196D01*
X162562707Y-61796196D02*
X162634135Y-61867625D01*
X162634135Y-61867625D02*
X162562707Y-61939053D01*
X162562707Y-61939053D02*
X162491278Y-61867625D01*
X162491278Y-61867625D02*
X162562707Y-61796196D01*
X162562707Y-61796196D02*
X162562707Y-61939053D01*
X161634135Y-63296196D02*
X161776992Y-63224768D01*
X161776992Y-63224768D02*
X161848421Y-63153339D01*
X161848421Y-63153339D02*
X161919849Y-63010482D01*
X161919849Y-63010482D02*
X161919849Y-62581910D01*
X161919849Y-62581910D02*
X161848421Y-62439053D01*
X161848421Y-62439053D02*
X161776992Y-62367625D01*
X161776992Y-62367625D02*
X161634135Y-62296196D01*
X161634135Y-62296196D02*
X161419849Y-62296196D01*
X161419849Y-62296196D02*
X161276992Y-62367625D01*
X161276992Y-62367625D02*
X161205564Y-62439053D01*
X161205564Y-62439053D02*
X161134135Y-62581910D01*
X161134135Y-62581910D02*
X161134135Y-63010482D01*
X161134135Y-63010482D02*
X161205564Y-63153339D01*
X161205564Y-63153339D02*
X161276992Y-63224768D01*
X161276992Y-63224768D02*
X161419849Y-63296196D01*
X161419849Y-63296196D02*
X161634135Y-63296196D01*
X160491278Y-62296196D02*
X160491278Y-63296196D01*
X160491278Y-62439053D02*
X160419849Y-62367625D01*
X160419849Y-62367625D02*
X160276992Y-62296196D01*
X160276992Y-62296196D02*
X160062706Y-62296196D01*
X160062706Y-62296196D02*
X159919849Y-62367625D01*
X159919849Y-62367625D02*
X159848421Y-62510482D01*
X159848421Y-62510482D02*
X159848421Y-63296196D01*
X158062706Y-62867625D02*
X157348421Y-62867625D01*
X158205563Y-63296196D02*
X157705563Y-61796196D01*
X157705563Y-61796196D02*
X157205563Y-63296196D01*
X156705564Y-62296196D02*
X156705564Y-63296196D01*
X156705564Y-62439053D02*
X156634135Y-62367625D01*
X156634135Y-62367625D02*
X156491278Y-62296196D01*
X156491278Y-62296196D02*
X156276992Y-62296196D01*
X156276992Y-62296196D02*
X156134135Y-62367625D01*
X156134135Y-62367625D02*
X156062707Y-62510482D01*
X156062707Y-62510482D02*
X156062707Y-63296196D01*
X154705564Y-63296196D02*
X154705564Y-62510482D01*
X154705564Y-62510482D02*
X154776992Y-62367625D01*
X154776992Y-62367625D02*
X154919849Y-62296196D01*
X154919849Y-62296196D02*
X155205564Y-62296196D01*
X155205564Y-62296196D02*
X155348421Y-62367625D01*
X154705564Y-63224768D02*
X154848421Y-63296196D01*
X154848421Y-63296196D02*
X155205564Y-63296196D01*
X155205564Y-63296196D02*
X155348421Y-63224768D01*
X155348421Y-63224768D02*
X155419849Y-63081910D01*
X155419849Y-63081910D02*
X155419849Y-62939053D01*
X155419849Y-62939053D02*
X155348421Y-62796196D01*
X155348421Y-62796196D02*
X155205564Y-62724768D01*
X155205564Y-62724768D02*
X154848421Y-62724768D01*
X154848421Y-62724768D02*
X154705564Y-62653339D01*
X153776992Y-63296196D02*
X153919849Y-63224768D01*
X153919849Y-63224768D02*
X153991278Y-63081910D01*
X153991278Y-63081910D02*
X153991278Y-61796196D01*
X152991278Y-63296196D02*
X153134135Y-63224768D01*
X153134135Y-63224768D02*
X153205564Y-63153339D01*
X153205564Y-63153339D02*
X153276992Y-63010482D01*
X153276992Y-63010482D02*
X153276992Y-62581910D01*
X153276992Y-62581910D02*
X153205564Y-62439053D01*
X153205564Y-62439053D02*
X153134135Y-62367625D01*
X153134135Y-62367625D02*
X152991278Y-62296196D01*
X152991278Y-62296196D02*
X152776992Y-62296196D01*
X152776992Y-62296196D02*
X152634135Y-62367625D01*
X152634135Y-62367625D02*
X152562707Y-62439053D01*
X152562707Y-62439053D02*
X152491278Y-62581910D01*
X152491278Y-62581910D02*
X152491278Y-63010482D01*
X152491278Y-63010482D02*
X152562707Y-63153339D01*
X152562707Y-63153339D02*
X152634135Y-63224768D01*
X152634135Y-63224768D02*
X152776992Y-63296196D01*
X152776992Y-63296196D02*
X152991278Y-63296196D01*
X151205564Y-62296196D02*
X151205564Y-63510482D01*
X151205564Y-63510482D02*
X151276992Y-63653339D01*
X151276992Y-63653339D02*
X151348421Y-63724768D01*
X151348421Y-63724768D02*
X151491278Y-63796196D01*
X151491278Y-63796196D02*
X151705564Y-63796196D01*
X151705564Y-63796196D02*
X151848421Y-63724768D01*
X151205564Y-63224768D02*
X151348421Y-63296196D01*
X151348421Y-63296196D02*
X151634135Y-63296196D01*
X151634135Y-63296196D02*
X151776992Y-63224768D01*
X151776992Y-63224768D02*
X151848421Y-63153339D01*
X151848421Y-63153339D02*
X151919849Y-63010482D01*
X151919849Y-63010482D02*
X151919849Y-62581910D01*
X151919849Y-62581910D02*
X151848421Y-62439053D01*
X151848421Y-62439053D02*
X151776992Y-62367625D01*
X151776992Y-62367625D02*
X151634135Y-62296196D01*
X151634135Y-62296196D02*
X151348421Y-62296196D01*
X151348421Y-62296196D02*
X151205564Y-62367625D01*
X170205564Y-64211112D02*
X169705564Y-65711112D01*
X169705564Y-65711112D02*
X169205564Y-64211112D01*
X168134136Y-65639684D02*
X168276993Y-65711112D01*
X168276993Y-65711112D02*
X168562708Y-65711112D01*
X168562708Y-65711112D02*
X168705565Y-65639684D01*
X168705565Y-65639684D02*
X168776993Y-65496826D01*
X168776993Y-65496826D02*
X168776993Y-64925398D01*
X168776993Y-64925398D02*
X168705565Y-64782541D01*
X168705565Y-64782541D02*
X168562708Y-64711112D01*
X168562708Y-64711112D02*
X168276993Y-64711112D01*
X168276993Y-64711112D02*
X168134136Y-64782541D01*
X168134136Y-64782541D02*
X168062708Y-64925398D01*
X168062708Y-64925398D02*
X168062708Y-65068255D01*
X168062708Y-65068255D02*
X168776993Y-65211112D01*
X167419851Y-65711112D02*
X167419851Y-64711112D01*
X167419851Y-64996826D02*
X167348422Y-64853969D01*
X167348422Y-64853969D02*
X167276994Y-64782541D01*
X167276994Y-64782541D02*
X167134136Y-64711112D01*
X167134136Y-64711112D02*
X166991279Y-64711112D01*
X166562708Y-65639684D02*
X166419851Y-65711112D01*
X166419851Y-65711112D02*
X166134137Y-65711112D01*
X166134137Y-65711112D02*
X165991280Y-65639684D01*
X165991280Y-65639684D02*
X165919851Y-65496826D01*
X165919851Y-65496826D02*
X165919851Y-65425398D01*
X165919851Y-65425398D02*
X165991280Y-65282541D01*
X165991280Y-65282541D02*
X166134137Y-65211112D01*
X166134137Y-65211112D02*
X166348423Y-65211112D01*
X166348423Y-65211112D02*
X166491280Y-65139684D01*
X166491280Y-65139684D02*
X166562708Y-64996826D01*
X166562708Y-64996826D02*
X166562708Y-64925398D01*
X166562708Y-64925398D02*
X166491280Y-64782541D01*
X166491280Y-64782541D02*
X166348423Y-64711112D01*
X166348423Y-64711112D02*
X166134137Y-64711112D01*
X166134137Y-64711112D02*
X165991280Y-64782541D01*
X165276994Y-65711112D02*
X165276994Y-64711112D01*
X165276994Y-64211112D02*
X165348422Y-64282541D01*
X165348422Y-64282541D02*
X165276994Y-64353969D01*
X165276994Y-64353969D02*
X165205565Y-64282541D01*
X165205565Y-64282541D02*
X165276994Y-64211112D01*
X165276994Y-64211112D02*
X165276994Y-64353969D01*
X164348422Y-65711112D02*
X164491279Y-65639684D01*
X164491279Y-65639684D02*
X164562708Y-65568255D01*
X164562708Y-65568255D02*
X164634136Y-65425398D01*
X164634136Y-65425398D02*
X164634136Y-64996826D01*
X164634136Y-64996826D02*
X164562708Y-64853969D01*
X164562708Y-64853969D02*
X164491279Y-64782541D01*
X164491279Y-64782541D02*
X164348422Y-64711112D01*
X164348422Y-64711112D02*
X164134136Y-64711112D01*
X164134136Y-64711112D02*
X163991279Y-64782541D01*
X163991279Y-64782541D02*
X163919851Y-64853969D01*
X163919851Y-64853969D02*
X163848422Y-64996826D01*
X163848422Y-64996826D02*
X163848422Y-65425398D01*
X163848422Y-65425398D02*
X163919851Y-65568255D01*
X163919851Y-65568255D02*
X163991279Y-65639684D01*
X163991279Y-65639684D02*
X164134136Y-65711112D01*
X164134136Y-65711112D02*
X164348422Y-65711112D01*
X163205565Y-64711112D02*
X163205565Y-65711112D01*
X163205565Y-64853969D02*
X163134136Y-64782541D01*
X163134136Y-64782541D02*
X162991279Y-64711112D01*
X162991279Y-64711112D02*
X162776993Y-64711112D01*
X162776993Y-64711112D02*
X162634136Y-64782541D01*
X162634136Y-64782541D02*
X162562708Y-64925398D01*
X162562708Y-64925398D02*
X162562708Y-65711112D01*
X159919850Y-65711112D02*
X160776993Y-65711112D01*
X160348422Y-65711112D02*
X160348422Y-64211112D01*
X160348422Y-64211112D02*
X160491279Y-64425398D01*
X160491279Y-64425398D02*
X160634136Y-64568255D01*
X160634136Y-64568255D02*
X160776993Y-64639684D01*
X159276994Y-65568255D02*
X159205565Y-65639684D01*
X159205565Y-65639684D02*
X159276994Y-65711112D01*
X159276994Y-65711112D02*
X159348422Y-65639684D01*
X159348422Y-65639684D02*
X159276994Y-65568255D01*
X159276994Y-65568255D02*
X159276994Y-65711112D01*
X158276993Y-64211112D02*
X158134136Y-64211112D01*
X158134136Y-64211112D02*
X157991279Y-64282541D01*
X157991279Y-64282541D02*
X157919851Y-64353969D01*
X157919851Y-64353969D02*
X157848422Y-64496826D01*
X157848422Y-64496826D02*
X157776993Y-64782541D01*
X157776993Y-64782541D02*
X157776993Y-65139684D01*
X157776993Y-65139684D02*
X157848422Y-65425398D01*
X157848422Y-65425398D02*
X157919851Y-65568255D01*
X157919851Y-65568255D02*
X157991279Y-65639684D01*
X157991279Y-65639684D02*
X158134136Y-65711112D01*
X158134136Y-65711112D02*
X158276993Y-65711112D01*
X158276993Y-65711112D02*
X158419851Y-65639684D01*
X158419851Y-65639684D02*
X158491279Y-65568255D01*
X158491279Y-65568255D02*
X158562708Y-65425398D01*
X158562708Y-65425398D02*
X158634136Y-65139684D01*
X158634136Y-65139684D02*
X158634136Y-64782541D01*
X158634136Y-64782541D02*
X158562708Y-64496826D01*
X158562708Y-64496826D02*
X158491279Y-64353969D01*
X158491279Y-64353969D02*
X158419851Y-64282541D01*
X158419851Y-64282541D02*
X158276993Y-64211112D01*
X169705564Y-66626028D02*
X169419850Y-66626028D01*
X169419850Y-66626028D02*
X169276993Y-66697457D01*
X169276993Y-66697457D02*
X169134136Y-66840314D01*
X169134136Y-66840314D02*
X169062707Y-67126028D01*
X169062707Y-67126028D02*
X169062707Y-67626028D01*
X169062707Y-67626028D02*
X169134136Y-67911742D01*
X169134136Y-67911742D02*
X169276993Y-68054600D01*
X169276993Y-68054600D02*
X169419850Y-68126028D01*
X169419850Y-68126028D02*
X169705564Y-68126028D01*
X169705564Y-68126028D02*
X169848422Y-68054600D01*
X169848422Y-68054600D02*
X169991279Y-67911742D01*
X169991279Y-67911742D02*
X170062707Y-67626028D01*
X170062707Y-67626028D02*
X170062707Y-67126028D01*
X170062707Y-67126028D02*
X169991279Y-66840314D01*
X169991279Y-66840314D02*
X169848422Y-66697457D01*
X169848422Y-66697457D02*
X169705564Y-66626028D01*
X167776993Y-68054600D02*
X167919850Y-68126028D01*
X167919850Y-68126028D02*
X168205564Y-68126028D01*
X168205564Y-68126028D02*
X168348421Y-68054600D01*
X168348421Y-68054600D02*
X168419850Y-67983171D01*
X168419850Y-67983171D02*
X168491278Y-67840314D01*
X168491278Y-67840314D02*
X168491278Y-67411742D01*
X168491278Y-67411742D02*
X168419850Y-67268885D01*
X168419850Y-67268885D02*
X168348421Y-67197457D01*
X168348421Y-67197457D02*
X168205564Y-67126028D01*
X168205564Y-67126028D02*
X167919850Y-67126028D01*
X167919850Y-67126028D02*
X167776993Y-67197457D01*
X167348421Y-67126028D02*
X166776993Y-67126028D01*
X167134136Y-66626028D02*
X167134136Y-67911742D01*
X167134136Y-67911742D02*
X167062707Y-68054600D01*
X167062707Y-68054600D02*
X166919850Y-68126028D01*
X166919850Y-68126028D02*
X166776993Y-68126028D01*
X165205564Y-66768885D02*
X165134136Y-66697457D01*
X165134136Y-66697457D02*
X164991279Y-66626028D01*
X164991279Y-66626028D02*
X164634136Y-66626028D01*
X164634136Y-66626028D02*
X164491279Y-66697457D01*
X164491279Y-66697457D02*
X164419850Y-66768885D01*
X164419850Y-66768885D02*
X164348421Y-66911742D01*
X164348421Y-66911742D02*
X164348421Y-67054600D01*
X164348421Y-67054600D02*
X164419850Y-67268885D01*
X164419850Y-67268885D02*
X165276993Y-68126028D01*
X165276993Y-68126028D02*
X164348421Y-68126028D01*
X163419850Y-66626028D02*
X163276993Y-66626028D01*
X163276993Y-66626028D02*
X163134136Y-66697457D01*
X163134136Y-66697457D02*
X163062708Y-66768885D01*
X163062708Y-66768885D02*
X162991279Y-66911742D01*
X162991279Y-66911742D02*
X162919850Y-67197457D01*
X162919850Y-67197457D02*
X162919850Y-67554600D01*
X162919850Y-67554600D02*
X162991279Y-67840314D01*
X162991279Y-67840314D02*
X163062708Y-67983171D01*
X163062708Y-67983171D02*
X163134136Y-68054600D01*
X163134136Y-68054600D02*
X163276993Y-68126028D01*
X163276993Y-68126028D02*
X163419850Y-68126028D01*
X163419850Y-68126028D02*
X163562708Y-68054600D01*
X163562708Y-68054600D02*
X163634136Y-67983171D01*
X163634136Y-67983171D02*
X163705565Y-67840314D01*
X163705565Y-67840314D02*
X163776993Y-67554600D01*
X163776993Y-67554600D02*
X163776993Y-67197457D01*
X163776993Y-67197457D02*
X163705565Y-66911742D01*
X163705565Y-66911742D02*
X163634136Y-66768885D01*
X163634136Y-66768885D02*
X163562708Y-66697457D01*
X163562708Y-66697457D02*
X163419850Y-66626028D01*
X162348422Y-66768885D02*
X162276994Y-66697457D01*
X162276994Y-66697457D02*
X162134137Y-66626028D01*
X162134137Y-66626028D02*
X161776994Y-66626028D01*
X161776994Y-66626028D02*
X161634137Y-66697457D01*
X161634137Y-66697457D02*
X161562708Y-66768885D01*
X161562708Y-66768885D02*
X161491279Y-66911742D01*
X161491279Y-66911742D02*
X161491279Y-67054600D01*
X161491279Y-67054600D02*
X161562708Y-67268885D01*
X161562708Y-67268885D02*
X162419851Y-68126028D01*
X162419851Y-68126028D02*
X161491279Y-68126028D01*
X160134137Y-66626028D02*
X160848423Y-66626028D01*
X160848423Y-66626028D02*
X160919851Y-67340314D01*
X160919851Y-67340314D02*
X160848423Y-67268885D01*
X160848423Y-67268885D02*
X160705566Y-67197457D01*
X160705566Y-67197457D02*
X160348423Y-67197457D01*
X160348423Y-67197457D02*
X160205566Y-67268885D01*
X160205566Y-67268885D02*
X160134137Y-67340314D01*
X160134137Y-67340314D02*
X160062708Y-67483171D01*
X160062708Y-67483171D02*
X160062708Y-67840314D01*
X160062708Y-67840314D02*
X160134137Y-67983171D01*
X160134137Y-67983171D02*
X160205566Y-68054600D01*
X160205566Y-68054600D02*
X160348423Y-68126028D01*
X160348423Y-68126028D02*
X160705566Y-68126028D01*
X160705566Y-68126028D02*
X160848423Y-68054600D01*
X160848423Y-68054600D02*
X160919851Y-67983171D01*
M02*
