%TF.GenerationSoftware,KiCad,Pcbnew,9.0.4*%
%TF.CreationDate,2025-10-06T02:07:33-06:00*%
%TF.ProjectId,Levitation_Analog_v1,4c657669-7461-4746-996f-6e5f416e616c,rev?*%
%TF.SameCoordinates,Original*%
%TF.FileFunction,Soldermask,Top*%
%TF.FilePolarity,Negative*%
%FSLAX46Y46*%
G04 Gerber Fmt 4.6, Leading zero omitted, Abs format (unit mm)*
G04 Created by KiCad (PCBNEW 9.0.4) date 2025-10-06 02:07:33*
%MOMM*%
%LPD*%
G01*
G04 APERTURE LIST*
G04 Aperture macros list*
%AMRoundRect*
0 Rectangle with rounded corners*
0 $1 Rounding radius*
0 $2 $3 $4 $5 $6 $7 $8 $9 X,Y pos of 4 corners*
0 Add a 4 corners polygon primitive as box body*
4,1,4,$2,$3,$4,$5,$6,$7,$8,$9,$2,$3,0*
0 Add four circle primitives for the rounded corners*
1,1,$1+$1,$2,$3*
1,1,$1+$1,$4,$5*
1,1,$1+$1,$6,$7*
1,1,$1+$1,$8,$9*
0 Add four rect primitives between the rounded corners*
20,1,$1+$1,$2,$3,$4,$5,0*
20,1,$1+$1,$4,$5,$6,$7,0*
20,1,$1+$1,$6,$7,$8,$9,0*
20,1,$1+$1,$8,$9,$2,$3,0*%
G04 Aperture macros list end*
%ADD10C,2.000000*%
%ADD11R,1.800000X1.800000*%
%ADD12C,1.800000*%
%ADD13RoundRect,0.750000X0.750000X-1.250000X0.750000X1.250000X-0.750000X1.250000X-0.750000X-1.250000X0*%
%ADD14C,6.400000*%
%ADD15RoundRect,0.250000X0.375000X0.625000X-0.375000X0.625000X-0.375000X-0.625000X0.375000X-0.625000X0*%
%ADD16R,1.041400X3.810000*%
%ADD17R,10.769600X9.880600*%
%ADD18RoundRect,0.250000X-0.500000X-1.100000X0.500000X-1.100000X0.500000X1.100000X-0.500000X1.100000X0*%
%ADD19RoundRect,0.250000X-0.375000X-0.625000X0.375000X-0.625000X0.375000X0.625000X-0.375000X0.625000X0*%
%ADD20RoundRect,0.250000X-0.650000X0.412500X-0.650000X-0.412500X0.650000X-0.412500X0.650000X0.412500X0*%
%ADD21RoundRect,0.102000X-1.250000X0.600000X-1.250000X-0.600000X1.250000X-0.600000X1.250000X0.600000X0*%
%ADD22RoundRect,0.250000X-0.412500X-0.650000X0.412500X-0.650000X0.412500X0.650000X-0.412500X0.650000X0*%
%ADD23RoundRect,0.250000X-0.625000X0.400000X-0.625000X-0.400000X0.625000X-0.400000X0.625000X0.400000X0*%
%ADD24RoundRect,0.250000X-0.400000X-0.625000X0.400000X-0.625000X0.400000X0.625000X-0.400000X0.625000X0*%
%ADD25R,1.700000X1.700000*%
%ADD26C,1.700000*%
%ADD27RoundRect,0.250000X0.600000X0.725000X-0.600000X0.725000X-0.600000X-0.725000X0.600000X-0.725000X0*%
%ADD28O,1.700000X1.950000*%
%ADD29RoundRect,0.198500X0.508500X0.198500X-0.508500X0.198500X-0.508500X-0.198500X0.508500X-0.198500X0*%
%ADD30RoundRect,0.162500X-0.825000X-0.162500X0.825000X-0.162500X0.825000X0.162500X-0.825000X0.162500X0*%
%ADD31RoundRect,0.250000X0.400000X0.625000X-0.400000X0.625000X-0.400000X-0.625000X0.400000X-0.625000X0*%
%ADD32R,3.500000X3.500000*%
%ADD33RoundRect,0.750000X1.000000X-0.750000X1.000000X0.750000X-1.000000X0.750000X-1.000000X-0.750000X0*%
%ADD34RoundRect,0.875000X0.875000X-0.875000X0.875000X0.875000X-0.875000X0.875000X-0.875000X-0.875000X0*%
%ADD35RoundRect,0.162500X-0.162500X0.825000X-0.162500X-0.825000X0.162500X-0.825000X0.162500X0.825000X0*%
%ADD36RoundRect,0.250000X0.650000X-0.412500X0.650000X0.412500X-0.650000X0.412500X-0.650000X-0.412500X0*%
%ADD37RoundRect,0.375000X-0.625000X-0.375000X0.625000X-0.375000X0.625000X0.375000X-0.625000X0.375000X0*%
%ADD38RoundRect,0.500000X-0.500000X-1.400000X0.500000X-1.400000X0.500000X1.400000X-0.500000X1.400000X0*%
G04 APERTURE END LIST*
D10*
%TO.C,TP7*%
X114130000Y-67560000D03*
%TD*%
%TO.C,TP8*%
X173340000Y-55720000D03*
%TD*%
D11*
%TO.C,RV3*%
X164250000Y-102760000D03*
D12*
X166750000Y-102760000D03*
X169250000Y-102760000D03*
D13*
X162350000Y-95760000D03*
X171150000Y-95760000D03*
%TD*%
D14*
%TO.C,H3*%
X135130000Y-103090000D03*
%TD*%
D15*
%TO.C,D2*%
X175120000Y-62820000D03*
X172320000Y-62820000D03*
%TD*%
D11*
%TO.C,RV1*%
X133510000Y-71280000D03*
D12*
X136010000Y-71280000D03*
X138510000Y-71280000D03*
D13*
X131610000Y-64280000D03*
X140410000Y-64280000D03*
%TD*%
D16*
%TO.C,MOSFET1*%
X147860000Y-83805900D03*
X152940000Y-83805900D03*
D17*
X150400000Y-73430000D03*
%TD*%
D18*
%TO.C,D1*%
X148290000Y-65520000D03*
X153090000Y-65520000D03*
%TD*%
D19*
%TO.C,D3*%
X132170000Y-95750000D03*
X134970000Y-95750000D03*
%TD*%
D10*
%TO.C,TP1*%
X124840000Y-82080000D03*
%TD*%
D20*
%TO.C,C2*%
X125290000Y-72827500D03*
X125290000Y-75952500D03*
%TD*%
D21*
%TO.C,S1*%
X160662500Y-57025000D03*
X160662500Y-59525000D03*
X160662500Y-62025000D03*
X166162500Y-57025000D03*
X166162500Y-59525000D03*
X166162500Y-62025000D03*
%TD*%
D22*
%TO.C,C7*%
X182657500Y-93110000D03*
X185782500Y-93110000D03*
%TD*%
D15*
%TO.C,D4*%
X118470000Y-104940000D03*
X115670000Y-104940000D03*
%TD*%
D23*
%TO.C,R1*%
X142000000Y-83850000D03*
X142000000Y-86950000D03*
%TD*%
D20*
%TO.C,C6*%
X159962500Y-70722500D03*
X159962500Y-73847500D03*
%TD*%
%TO.C,C4*%
X131780000Y-89895000D03*
X131780000Y-93020000D03*
%TD*%
D24*
%TO.C,R3*%
X165052500Y-73095000D03*
X168152500Y-73095000D03*
%TD*%
D10*
%TO.C,TP6*%
X126810000Y-66920000D03*
%TD*%
D25*
%TO.C,J2*%
X138380000Y-78640000D03*
D26*
X135840000Y-78640000D03*
X133300000Y-78640000D03*
%TD*%
D23*
%TO.C,R6*%
X134960000Y-89920000D03*
X134960000Y-93020000D03*
%TD*%
D22*
%TO.C,C5*%
X178077500Y-66020000D03*
X181202500Y-66020000D03*
%TD*%
D17*
%TO.C,MOSFET2*%
X150130000Y-92830000D03*
D16*
X152670000Y-103205900D03*
X147590000Y-103205900D03*
%TD*%
D25*
%TO.C,J3*%
X184690000Y-99880000D03*
D26*
X182150000Y-99880000D03*
X179610000Y-99880000D03*
%TD*%
D27*
%TO.C,J1*%
X122880000Y-61120000D03*
D28*
X120380000Y-61120000D03*
X117880000Y-61120000D03*
%TD*%
D11*
%TO.C,RV4*%
X180130000Y-89790000D03*
D12*
X182630000Y-89790000D03*
X185130000Y-89790000D03*
D13*
X178230000Y-82790000D03*
X187030000Y-82790000D03*
%TD*%
D29*
%TO.C,U4*%
X164970000Y-70735000D03*
X164970000Y-69785000D03*
X164970000Y-68835000D03*
X162460000Y-68835000D03*
X162460000Y-70735000D03*
%TD*%
D30*
%TO.C,U3*%
X172202500Y-68275000D03*
X172202500Y-69545000D03*
X172202500Y-70815000D03*
X172202500Y-72085000D03*
X177277500Y-72085000D03*
X177277500Y-70815000D03*
X177277500Y-69545000D03*
X177277500Y-68275000D03*
%TD*%
D31*
%TO.C,R2*%
X144450000Y-103280000D03*
X141350000Y-103280000D03*
%TD*%
%TO.C,R5*%
X175330000Y-65540000D03*
X172230000Y-65540000D03*
%TD*%
D11*
%TO.C,RV2*%
X106970000Y-83630000D03*
D12*
X109470000Y-83630000D03*
X111970000Y-83630000D03*
D13*
X105070000Y-76630000D03*
X113870000Y-76630000D03*
%TD*%
D10*
%TO.C,TP5*%
X139100000Y-96880000D03*
%TD*%
%TO.C,TP3*%
X138340000Y-86880000D03*
%TD*%
%TO.C,TP2*%
X181940000Y-71170000D03*
%TD*%
D32*
%TO.C,J7*%
X109032500Y-92600000D03*
D33*
X109032500Y-98600000D03*
D34*
X113732500Y-95600000D03*
%TD*%
D14*
%TO.C,H2*%
X185970000Y-58310000D03*
%TD*%
D22*
%TO.C,C1*%
X135987500Y-74270000D03*
X139112500Y-74270000D03*
%TD*%
D14*
%TO.C,H1*%
X106840000Y-59380000D03*
%TD*%
D35*
%TO.C,U1*%
X122565000Y-67732500D03*
X121295000Y-67732500D03*
X120025000Y-67732500D03*
X118755000Y-67732500D03*
X118755000Y-72807500D03*
X120025000Y-72807500D03*
X121295000Y-72807500D03*
X122565000Y-72807500D03*
%TD*%
D27*
%TO.C,J4*%
X127110000Y-99300000D03*
D28*
X124610000Y-99300000D03*
X122110000Y-99300000D03*
%TD*%
D24*
%TO.C,R4*%
X162162500Y-66335000D03*
X165262500Y-66335000D03*
%TD*%
D36*
%TO.C,C3*%
X118030000Y-89267500D03*
X118030000Y-92392500D03*
%TD*%
D37*
%TO.C,U2*%
X121820000Y-87750000D03*
X121820000Y-90050000D03*
D38*
X128120000Y-90050000D03*
D37*
X121820000Y-92350000D03*
%TD*%
D23*
%TO.C,R7*%
X117250000Y-99300000D03*
X117250000Y-102400000D03*
%TD*%
D25*
%TO.C,J6*%
X159380000Y-81260000D03*
D26*
X159380000Y-83800000D03*
X159380000Y-86340000D03*
%TD*%
D10*
%TO.C,TP4*%
X165120000Y-77220000D03*
%TD*%
D27*
%TO.C,J5*%
X152950000Y-59340000D03*
D28*
X150450000Y-59340000D03*
X147950000Y-59340000D03*
%TD*%
M02*
