%TF.GenerationSoftware,KiCad,Pcbnew,9.0.4*%
%TF.CreationDate,2025-10-06T02:07:33-06:00*%
%TF.ProjectId,Levitation_Analog_v1,4c657669-7461-4746-996f-6e5f416e616c,rev?*%
%TF.SameCoordinates,Original*%
%TF.FileFunction,Legend,Top*%
%TF.FilePolarity,Positive*%
%FSLAX46Y46*%
G04 Gerber Fmt 4.6, Leading zero omitted, Abs format (unit mm)*
G04 Created by KiCad (PCBNEW 9.0.4) date 2025-10-06 02:07:33*
%MOMM*%
%LPD*%
G01*
G04 APERTURE LIST*
%ADD10C,0.100000*%
%ADD11C,0.150000*%
%ADD12C,0.120000*%
%ADD13C,0.152400*%
%ADD14C,0.127000*%
%ADD15C,0.200000*%
G04 APERTURE END LIST*
D10*
X122272419Y-56359925D02*
X122272419Y-56836115D01*
X122272419Y-56836115D02*
X122748609Y-56883734D01*
X122748609Y-56883734D02*
X122700990Y-56836115D01*
X122700990Y-56836115D02*
X122653371Y-56740877D01*
X122653371Y-56740877D02*
X122653371Y-56502782D01*
X122653371Y-56502782D02*
X122700990Y-56407544D01*
X122700990Y-56407544D02*
X122748609Y-56359925D01*
X122748609Y-56359925D02*
X122843847Y-56312306D01*
X122843847Y-56312306D02*
X123081942Y-56312306D01*
X123081942Y-56312306D02*
X123177180Y-56359925D01*
X123177180Y-56359925D02*
X123224800Y-56407544D01*
X123224800Y-56407544D02*
X123272419Y-56502782D01*
X123272419Y-56502782D02*
X123272419Y-56740877D01*
X123272419Y-56740877D02*
X123224800Y-56836115D01*
X123224800Y-56836115D02*
X123177180Y-56883734D01*
X122272419Y-56026591D02*
X123272419Y-55693258D01*
X123272419Y-55693258D02*
X122272419Y-55359925D01*
X132000475Y-82142475D02*
X132000475Y-81142475D01*
X132000475Y-81618665D02*
X132571903Y-81618665D01*
X132571903Y-82142475D02*
X132571903Y-81142475D01*
X133476665Y-82142475D02*
X133476665Y-81618665D01*
X133476665Y-81618665D02*
X133429046Y-81523427D01*
X133429046Y-81523427D02*
X133333808Y-81475808D01*
X133333808Y-81475808D02*
X133143332Y-81475808D01*
X133143332Y-81475808D02*
X133048094Y-81523427D01*
X133476665Y-82094856D02*
X133381427Y-82142475D01*
X133381427Y-82142475D02*
X133143332Y-82142475D01*
X133143332Y-82142475D02*
X133048094Y-82094856D01*
X133048094Y-82094856D02*
X133000475Y-81999617D01*
X133000475Y-81999617D02*
X133000475Y-81904379D01*
X133000475Y-81904379D02*
X133048094Y-81809141D01*
X133048094Y-81809141D02*
X133143332Y-81761522D01*
X133143332Y-81761522D02*
X133381427Y-81761522D01*
X133381427Y-81761522D02*
X133476665Y-81713903D01*
X134095713Y-82142475D02*
X134000475Y-82094856D01*
X134000475Y-82094856D02*
X133952856Y-81999617D01*
X133952856Y-81999617D02*
X133952856Y-81142475D01*
X134619523Y-82142475D02*
X134524285Y-82094856D01*
X134524285Y-82094856D02*
X134476666Y-81999617D01*
X134476666Y-81999617D02*
X134476666Y-81142475D01*
X135762381Y-81618665D02*
X136095714Y-81618665D01*
X136238571Y-82142475D02*
X135762381Y-82142475D01*
X135762381Y-82142475D02*
X135762381Y-81142475D01*
X135762381Y-81142475D02*
X136238571Y-81142475D01*
X136524286Y-81475808D02*
X136905238Y-81475808D01*
X136667143Y-82142475D02*
X136667143Y-81285332D01*
X136667143Y-81285332D02*
X136714762Y-81190094D01*
X136714762Y-81190094D02*
X136810000Y-81142475D01*
X136810000Y-81142475D02*
X136905238Y-81142475D01*
X137095715Y-81475808D02*
X137476667Y-81475808D01*
X137238572Y-82142475D02*
X137238572Y-81285332D01*
X137238572Y-81285332D02*
X137286191Y-81190094D01*
X137286191Y-81190094D02*
X137381429Y-81142475D01*
X137381429Y-81142475D02*
X137476667Y-81142475D01*
X138190953Y-82094856D02*
X138095715Y-82142475D01*
X138095715Y-82142475D02*
X137905239Y-82142475D01*
X137905239Y-82142475D02*
X137810001Y-82094856D01*
X137810001Y-82094856D02*
X137762382Y-81999617D01*
X137762382Y-81999617D02*
X137762382Y-81618665D01*
X137762382Y-81618665D02*
X137810001Y-81523427D01*
X137810001Y-81523427D02*
X137905239Y-81475808D01*
X137905239Y-81475808D02*
X138095715Y-81475808D01*
X138095715Y-81475808D02*
X138190953Y-81523427D01*
X138190953Y-81523427D02*
X138238572Y-81618665D01*
X138238572Y-81618665D02*
X138238572Y-81713903D01*
X138238572Y-81713903D02*
X137762382Y-81809141D01*
X139095715Y-82094856D02*
X139000477Y-82142475D01*
X139000477Y-82142475D02*
X138810001Y-82142475D01*
X138810001Y-82142475D02*
X138714763Y-82094856D01*
X138714763Y-82094856D02*
X138667144Y-82047236D01*
X138667144Y-82047236D02*
X138619525Y-81951998D01*
X138619525Y-81951998D02*
X138619525Y-81666284D01*
X138619525Y-81666284D02*
X138667144Y-81571046D01*
X138667144Y-81571046D02*
X138714763Y-81523427D01*
X138714763Y-81523427D02*
X138810001Y-81475808D01*
X138810001Y-81475808D02*
X139000477Y-81475808D01*
X139000477Y-81475808D02*
X139095715Y-81523427D01*
X139381430Y-81475808D02*
X139762382Y-81475808D01*
X139524287Y-81142475D02*
X139524287Y-81999617D01*
X139524287Y-81999617D02*
X139571906Y-82094856D01*
X139571906Y-82094856D02*
X139667144Y-82142475D01*
X139667144Y-82142475D02*
X139762382Y-82142475D01*
X134429047Y-83228609D02*
X134095714Y-83228609D01*
X134095714Y-83752419D02*
X134095714Y-82752419D01*
X134095714Y-82752419D02*
X134571904Y-82752419D01*
X134952857Y-83752419D02*
X134952857Y-83085752D01*
X134952857Y-82752419D02*
X134905238Y-82800038D01*
X134905238Y-82800038D02*
X134952857Y-82847657D01*
X134952857Y-82847657D02*
X135000476Y-82800038D01*
X135000476Y-82800038D02*
X134952857Y-82752419D01*
X134952857Y-82752419D02*
X134952857Y-82847657D01*
X135571904Y-83752419D02*
X135476666Y-83704800D01*
X135476666Y-83704800D02*
X135429047Y-83609561D01*
X135429047Y-83609561D02*
X135429047Y-82752419D01*
X135810000Y-83085752D02*
X136190952Y-83085752D01*
X135952857Y-82752419D02*
X135952857Y-83609561D01*
X135952857Y-83609561D02*
X136000476Y-83704800D01*
X136000476Y-83704800D02*
X136095714Y-83752419D01*
X136095714Y-83752419D02*
X136190952Y-83752419D01*
X136905238Y-83704800D02*
X136810000Y-83752419D01*
X136810000Y-83752419D02*
X136619524Y-83752419D01*
X136619524Y-83752419D02*
X136524286Y-83704800D01*
X136524286Y-83704800D02*
X136476667Y-83609561D01*
X136476667Y-83609561D02*
X136476667Y-83228609D01*
X136476667Y-83228609D02*
X136524286Y-83133371D01*
X136524286Y-83133371D02*
X136619524Y-83085752D01*
X136619524Y-83085752D02*
X136810000Y-83085752D01*
X136810000Y-83085752D02*
X136905238Y-83133371D01*
X136905238Y-83133371D02*
X136952857Y-83228609D01*
X136952857Y-83228609D02*
X136952857Y-83323847D01*
X136952857Y-83323847D02*
X136476667Y-83419085D01*
X137381429Y-83752419D02*
X137381429Y-83085752D01*
X137381429Y-83276228D02*
X137429048Y-83180990D01*
X137429048Y-83180990D02*
X137476667Y-83133371D01*
X137476667Y-83133371D02*
X137571905Y-83085752D01*
X137571905Y-83085752D02*
X137667143Y-83085752D01*
X106448094Y-86582475D02*
X106114761Y-86106284D01*
X105876666Y-86582475D02*
X105876666Y-85582475D01*
X105876666Y-85582475D02*
X106257618Y-85582475D01*
X106257618Y-85582475D02*
X106352856Y-85630094D01*
X106352856Y-85630094D02*
X106400475Y-85677713D01*
X106400475Y-85677713D02*
X106448094Y-85772951D01*
X106448094Y-85772951D02*
X106448094Y-85915808D01*
X106448094Y-85915808D02*
X106400475Y-86011046D01*
X106400475Y-86011046D02*
X106352856Y-86058665D01*
X106352856Y-86058665D02*
X106257618Y-86106284D01*
X106257618Y-86106284D02*
X105876666Y-86106284D01*
X107257618Y-86534856D02*
X107162380Y-86582475D01*
X107162380Y-86582475D02*
X106971904Y-86582475D01*
X106971904Y-86582475D02*
X106876666Y-86534856D01*
X106876666Y-86534856D02*
X106829047Y-86439617D01*
X106829047Y-86439617D02*
X106829047Y-86058665D01*
X106829047Y-86058665D02*
X106876666Y-85963427D01*
X106876666Y-85963427D02*
X106971904Y-85915808D01*
X106971904Y-85915808D02*
X107162380Y-85915808D01*
X107162380Y-85915808D02*
X107257618Y-85963427D01*
X107257618Y-85963427D02*
X107305237Y-86058665D01*
X107305237Y-86058665D02*
X107305237Y-86153903D01*
X107305237Y-86153903D02*
X106829047Y-86249141D01*
X107590952Y-85915808D02*
X107971904Y-85915808D01*
X107733809Y-86582475D02*
X107733809Y-85725332D01*
X107733809Y-85725332D02*
X107781428Y-85630094D01*
X107781428Y-85630094D02*
X107876666Y-85582475D01*
X107876666Y-85582475D02*
X107971904Y-85582475D01*
X108686190Y-86534856D02*
X108590952Y-86582475D01*
X108590952Y-86582475D02*
X108400476Y-86582475D01*
X108400476Y-86582475D02*
X108305238Y-86534856D01*
X108305238Y-86534856D02*
X108257619Y-86439617D01*
X108257619Y-86439617D02*
X108257619Y-86058665D01*
X108257619Y-86058665D02*
X108305238Y-85963427D01*
X108305238Y-85963427D02*
X108400476Y-85915808D01*
X108400476Y-85915808D02*
X108590952Y-85915808D01*
X108590952Y-85915808D02*
X108686190Y-85963427D01*
X108686190Y-85963427D02*
X108733809Y-86058665D01*
X108733809Y-86058665D02*
X108733809Y-86153903D01*
X108733809Y-86153903D02*
X108257619Y-86249141D01*
X109162381Y-86582475D02*
X109162381Y-85915808D01*
X109162381Y-86106284D02*
X109210000Y-86011046D01*
X109210000Y-86011046D02*
X109257619Y-85963427D01*
X109257619Y-85963427D02*
X109352857Y-85915808D01*
X109352857Y-85915808D02*
X109448095Y-85915808D01*
X110162381Y-86534856D02*
X110067143Y-86582475D01*
X110067143Y-86582475D02*
X109876667Y-86582475D01*
X109876667Y-86582475D02*
X109781429Y-86534856D01*
X109781429Y-86534856D02*
X109733810Y-86439617D01*
X109733810Y-86439617D02*
X109733810Y-86058665D01*
X109733810Y-86058665D02*
X109781429Y-85963427D01*
X109781429Y-85963427D02*
X109876667Y-85915808D01*
X109876667Y-85915808D02*
X110067143Y-85915808D01*
X110067143Y-85915808D02*
X110162381Y-85963427D01*
X110162381Y-85963427D02*
X110210000Y-86058665D01*
X110210000Y-86058665D02*
X110210000Y-86153903D01*
X110210000Y-86153903D02*
X109733810Y-86249141D01*
X110638572Y-85915808D02*
X110638572Y-86582475D01*
X110638572Y-86011046D02*
X110686191Y-85963427D01*
X110686191Y-85963427D02*
X110781429Y-85915808D01*
X110781429Y-85915808D02*
X110924286Y-85915808D01*
X110924286Y-85915808D02*
X111019524Y-85963427D01*
X111019524Y-85963427D02*
X111067143Y-86058665D01*
X111067143Y-86058665D02*
X111067143Y-86582475D01*
X111971905Y-86534856D02*
X111876667Y-86582475D01*
X111876667Y-86582475D02*
X111686191Y-86582475D01*
X111686191Y-86582475D02*
X111590953Y-86534856D01*
X111590953Y-86534856D02*
X111543334Y-86487236D01*
X111543334Y-86487236D02*
X111495715Y-86391998D01*
X111495715Y-86391998D02*
X111495715Y-86106284D01*
X111495715Y-86106284D02*
X111543334Y-86011046D01*
X111543334Y-86011046D02*
X111590953Y-85963427D01*
X111590953Y-85963427D02*
X111686191Y-85915808D01*
X111686191Y-85915808D02*
X111876667Y-85915808D01*
X111876667Y-85915808D02*
X111971905Y-85963427D01*
X112781429Y-86534856D02*
X112686191Y-86582475D01*
X112686191Y-86582475D02*
X112495715Y-86582475D01*
X112495715Y-86582475D02*
X112400477Y-86534856D01*
X112400477Y-86534856D02*
X112352858Y-86439617D01*
X112352858Y-86439617D02*
X112352858Y-86058665D01*
X112352858Y-86058665D02*
X112400477Y-85963427D01*
X112400477Y-85963427D02*
X112495715Y-85915808D01*
X112495715Y-85915808D02*
X112686191Y-85915808D01*
X112686191Y-85915808D02*
X112781429Y-85963427D01*
X112781429Y-85963427D02*
X112829048Y-86058665D01*
X112829048Y-86058665D02*
X112829048Y-86153903D01*
X112829048Y-86153903D02*
X112352858Y-86249141D01*
X107043333Y-87192419D02*
X107376666Y-88192419D01*
X107376666Y-88192419D02*
X107709999Y-87192419D01*
X108186190Y-88192419D02*
X108090952Y-88144800D01*
X108090952Y-88144800D02*
X108043333Y-88097180D01*
X108043333Y-88097180D02*
X107995714Y-88001942D01*
X107995714Y-88001942D02*
X107995714Y-87716228D01*
X107995714Y-87716228D02*
X108043333Y-87620990D01*
X108043333Y-87620990D02*
X108090952Y-87573371D01*
X108090952Y-87573371D02*
X108186190Y-87525752D01*
X108186190Y-87525752D02*
X108329047Y-87525752D01*
X108329047Y-87525752D02*
X108424285Y-87573371D01*
X108424285Y-87573371D02*
X108471904Y-87620990D01*
X108471904Y-87620990D02*
X108519523Y-87716228D01*
X108519523Y-87716228D02*
X108519523Y-88001942D01*
X108519523Y-88001942D02*
X108471904Y-88097180D01*
X108471904Y-88097180D02*
X108424285Y-88144800D01*
X108424285Y-88144800D02*
X108329047Y-88192419D01*
X108329047Y-88192419D02*
X108186190Y-88192419D01*
X109090952Y-88192419D02*
X108995714Y-88144800D01*
X108995714Y-88144800D02*
X108948095Y-88049561D01*
X108948095Y-88049561D02*
X108948095Y-87192419D01*
X109329048Y-87525752D02*
X109710000Y-87525752D01*
X109471905Y-87192419D02*
X109471905Y-88049561D01*
X109471905Y-88049561D02*
X109519524Y-88144800D01*
X109519524Y-88144800D02*
X109614762Y-88192419D01*
X109614762Y-88192419D02*
X109710000Y-88192419D01*
X110471905Y-88192419D02*
X110471905Y-87668609D01*
X110471905Y-87668609D02*
X110424286Y-87573371D01*
X110424286Y-87573371D02*
X110329048Y-87525752D01*
X110329048Y-87525752D02*
X110138572Y-87525752D01*
X110138572Y-87525752D02*
X110043334Y-87573371D01*
X110471905Y-88144800D02*
X110376667Y-88192419D01*
X110376667Y-88192419D02*
X110138572Y-88192419D01*
X110138572Y-88192419D02*
X110043334Y-88144800D01*
X110043334Y-88144800D02*
X109995715Y-88049561D01*
X109995715Y-88049561D02*
X109995715Y-87954323D01*
X109995715Y-87954323D02*
X110043334Y-87859085D01*
X110043334Y-87859085D02*
X110138572Y-87811466D01*
X110138572Y-87811466D02*
X110376667Y-87811466D01*
X110376667Y-87811466D02*
X110471905Y-87763847D01*
X111376667Y-87525752D02*
X111376667Y-88335276D01*
X111376667Y-88335276D02*
X111329048Y-88430514D01*
X111329048Y-88430514D02*
X111281429Y-88478133D01*
X111281429Y-88478133D02*
X111186191Y-88525752D01*
X111186191Y-88525752D02*
X111043334Y-88525752D01*
X111043334Y-88525752D02*
X110948096Y-88478133D01*
X111376667Y-88144800D02*
X111281429Y-88192419D01*
X111281429Y-88192419D02*
X111090953Y-88192419D01*
X111090953Y-88192419D02*
X110995715Y-88144800D01*
X110995715Y-88144800D02*
X110948096Y-88097180D01*
X110948096Y-88097180D02*
X110900477Y-88001942D01*
X110900477Y-88001942D02*
X110900477Y-87716228D01*
X110900477Y-87716228D02*
X110948096Y-87620990D01*
X110948096Y-87620990D02*
X110995715Y-87573371D01*
X110995715Y-87573371D02*
X111090953Y-87525752D01*
X111090953Y-87525752D02*
X111281429Y-87525752D01*
X111281429Y-87525752D02*
X111376667Y-87573371D01*
X112233810Y-88144800D02*
X112138572Y-88192419D01*
X112138572Y-88192419D02*
X111948096Y-88192419D01*
X111948096Y-88192419D02*
X111852858Y-88144800D01*
X111852858Y-88144800D02*
X111805239Y-88049561D01*
X111805239Y-88049561D02*
X111805239Y-87668609D01*
X111805239Y-87668609D02*
X111852858Y-87573371D01*
X111852858Y-87573371D02*
X111948096Y-87525752D01*
X111948096Y-87525752D02*
X112138572Y-87525752D01*
X112138572Y-87525752D02*
X112233810Y-87573371D01*
X112233810Y-87573371D02*
X112281429Y-87668609D01*
X112281429Y-87668609D02*
X112281429Y-87763847D01*
X112281429Y-87763847D02*
X111805239Y-87859085D01*
X121600038Y-105822306D02*
X121552419Y-105917544D01*
X121552419Y-105917544D02*
X121552419Y-106060401D01*
X121552419Y-106060401D02*
X121600038Y-106203258D01*
X121600038Y-106203258D02*
X121695276Y-106298496D01*
X121695276Y-106298496D02*
X121790514Y-106346115D01*
X121790514Y-106346115D02*
X121980990Y-106393734D01*
X121980990Y-106393734D02*
X122123847Y-106393734D01*
X122123847Y-106393734D02*
X122314323Y-106346115D01*
X122314323Y-106346115D02*
X122409561Y-106298496D01*
X122409561Y-106298496D02*
X122504800Y-106203258D01*
X122504800Y-106203258D02*
X122552419Y-106060401D01*
X122552419Y-106060401D02*
X122552419Y-105965163D01*
X122552419Y-105965163D02*
X122504800Y-105822306D01*
X122504800Y-105822306D02*
X122457180Y-105774687D01*
X122457180Y-105774687D02*
X122123847Y-105774687D01*
X122123847Y-105774687D02*
X122123847Y-105965163D01*
X122552419Y-105346115D02*
X121552419Y-105346115D01*
X121552419Y-105346115D02*
X122552419Y-104774687D01*
X122552419Y-104774687D02*
X121552419Y-104774687D01*
X122552419Y-104298496D02*
X121552419Y-104298496D01*
X121552419Y-104298496D02*
X121552419Y-104060401D01*
X121552419Y-104060401D02*
X121600038Y-103917544D01*
X121600038Y-103917544D02*
X121695276Y-103822306D01*
X121695276Y-103822306D02*
X121790514Y-103774687D01*
X121790514Y-103774687D02*
X121980990Y-103727068D01*
X121980990Y-103727068D02*
X122123847Y-103727068D01*
X122123847Y-103727068D02*
X122314323Y-103774687D01*
X122314323Y-103774687D02*
X122409561Y-103822306D01*
X122409561Y-103822306D02*
X122504800Y-103917544D01*
X122504800Y-103917544D02*
X122552419Y-104060401D01*
X122552419Y-104060401D02*
X122552419Y-104298496D01*
X179829523Y-74062475D02*
X179353333Y-74062475D01*
X179353333Y-74062475D02*
X179353333Y-73062475D01*
X180305714Y-74062475D02*
X180210476Y-74014856D01*
X180210476Y-74014856D02*
X180162857Y-73967236D01*
X180162857Y-73967236D02*
X180115238Y-73871998D01*
X180115238Y-73871998D02*
X180115238Y-73586284D01*
X180115238Y-73586284D02*
X180162857Y-73491046D01*
X180162857Y-73491046D02*
X180210476Y-73443427D01*
X180210476Y-73443427D02*
X180305714Y-73395808D01*
X180305714Y-73395808D02*
X180448571Y-73395808D01*
X180448571Y-73395808D02*
X180543809Y-73443427D01*
X180543809Y-73443427D02*
X180591428Y-73491046D01*
X180591428Y-73491046D02*
X180639047Y-73586284D01*
X180639047Y-73586284D02*
X180639047Y-73871998D01*
X180639047Y-73871998D02*
X180591428Y-73967236D01*
X180591428Y-73967236D02*
X180543809Y-74014856D01*
X180543809Y-74014856D02*
X180448571Y-74062475D01*
X180448571Y-74062475D02*
X180305714Y-74062475D01*
X180972381Y-73395808D02*
X181162857Y-74062475D01*
X181162857Y-74062475D02*
X181353333Y-73586284D01*
X181353333Y-73586284D02*
X181543809Y-74062475D01*
X181543809Y-74062475D02*
X181734285Y-73395808D01*
X182877143Y-74062475D02*
X182877143Y-73062475D01*
X182877143Y-73062475D02*
X183258095Y-73062475D01*
X183258095Y-73062475D02*
X183353333Y-73110094D01*
X183353333Y-73110094D02*
X183400952Y-73157713D01*
X183400952Y-73157713D02*
X183448571Y-73252951D01*
X183448571Y-73252951D02*
X183448571Y-73395808D01*
X183448571Y-73395808D02*
X183400952Y-73491046D01*
X183400952Y-73491046D02*
X183353333Y-73538665D01*
X183353333Y-73538665D02*
X183258095Y-73586284D01*
X183258095Y-73586284D02*
X182877143Y-73586284D01*
X184305714Y-74062475D02*
X184305714Y-73538665D01*
X184305714Y-73538665D02*
X184258095Y-73443427D01*
X184258095Y-73443427D02*
X184162857Y-73395808D01*
X184162857Y-73395808D02*
X183972381Y-73395808D01*
X183972381Y-73395808D02*
X183877143Y-73443427D01*
X184305714Y-74014856D02*
X184210476Y-74062475D01*
X184210476Y-74062475D02*
X183972381Y-74062475D01*
X183972381Y-74062475D02*
X183877143Y-74014856D01*
X183877143Y-74014856D02*
X183829524Y-73919617D01*
X183829524Y-73919617D02*
X183829524Y-73824379D01*
X183829524Y-73824379D02*
X183877143Y-73729141D01*
X183877143Y-73729141D02*
X183972381Y-73681522D01*
X183972381Y-73681522D02*
X184210476Y-73681522D01*
X184210476Y-73681522D02*
X184305714Y-73633903D01*
X184734286Y-74014856D02*
X184829524Y-74062475D01*
X184829524Y-74062475D02*
X185020000Y-74062475D01*
X185020000Y-74062475D02*
X185115238Y-74014856D01*
X185115238Y-74014856D02*
X185162857Y-73919617D01*
X185162857Y-73919617D02*
X185162857Y-73871998D01*
X185162857Y-73871998D02*
X185115238Y-73776760D01*
X185115238Y-73776760D02*
X185020000Y-73729141D01*
X185020000Y-73729141D02*
X184877143Y-73729141D01*
X184877143Y-73729141D02*
X184781905Y-73681522D01*
X184781905Y-73681522D02*
X184734286Y-73586284D01*
X184734286Y-73586284D02*
X184734286Y-73538665D01*
X184734286Y-73538665D02*
X184781905Y-73443427D01*
X184781905Y-73443427D02*
X184877143Y-73395808D01*
X184877143Y-73395808D02*
X185020000Y-73395808D01*
X185020000Y-73395808D02*
X185115238Y-73443427D01*
X185543810Y-74014856D02*
X185639048Y-74062475D01*
X185639048Y-74062475D02*
X185829524Y-74062475D01*
X185829524Y-74062475D02*
X185924762Y-74014856D01*
X185924762Y-74014856D02*
X185972381Y-73919617D01*
X185972381Y-73919617D02*
X185972381Y-73871998D01*
X185972381Y-73871998D02*
X185924762Y-73776760D01*
X185924762Y-73776760D02*
X185829524Y-73729141D01*
X185829524Y-73729141D02*
X185686667Y-73729141D01*
X185686667Y-73729141D02*
X185591429Y-73681522D01*
X185591429Y-73681522D02*
X185543810Y-73586284D01*
X185543810Y-73586284D02*
X185543810Y-73538665D01*
X185543810Y-73538665D02*
X185591429Y-73443427D01*
X185591429Y-73443427D02*
X185686667Y-73395808D01*
X185686667Y-73395808D02*
X185829524Y-73395808D01*
X185829524Y-73395808D02*
X185924762Y-73443427D01*
X181639047Y-75148609D02*
X181305714Y-75148609D01*
X181305714Y-75672419D02*
X181305714Y-74672419D01*
X181305714Y-74672419D02*
X181781904Y-74672419D01*
X182162857Y-75672419D02*
X182162857Y-75005752D01*
X182162857Y-74672419D02*
X182115238Y-74720038D01*
X182115238Y-74720038D02*
X182162857Y-74767657D01*
X182162857Y-74767657D02*
X182210476Y-74720038D01*
X182210476Y-74720038D02*
X182162857Y-74672419D01*
X182162857Y-74672419D02*
X182162857Y-74767657D01*
X182781904Y-75672419D02*
X182686666Y-75624800D01*
X182686666Y-75624800D02*
X182639047Y-75529561D01*
X182639047Y-75529561D02*
X182639047Y-74672419D01*
X183020000Y-75005752D02*
X183400952Y-75005752D01*
X183162857Y-74672419D02*
X183162857Y-75529561D01*
X183162857Y-75529561D02*
X183210476Y-75624800D01*
X183210476Y-75624800D02*
X183305714Y-75672419D01*
X183305714Y-75672419D02*
X183400952Y-75672419D01*
X184115238Y-75624800D02*
X184020000Y-75672419D01*
X184020000Y-75672419D02*
X183829524Y-75672419D01*
X183829524Y-75672419D02*
X183734286Y-75624800D01*
X183734286Y-75624800D02*
X183686667Y-75529561D01*
X183686667Y-75529561D02*
X183686667Y-75148609D01*
X183686667Y-75148609D02*
X183734286Y-75053371D01*
X183734286Y-75053371D02*
X183829524Y-75005752D01*
X183829524Y-75005752D02*
X184020000Y-75005752D01*
X184020000Y-75005752D02*
X184115238Y-75053371D01*
X184115238Y-75053371D02*
X184162857Y-75148609D01*
X184162857Y-75148609D02*
X184162857Y-75243847D01*
X184162857Y-75243847D02*
X183686667Y-75339085D01*
X184591429Y-75672419D02*
X184591429Y-75005752D01*
X184591429Y-75196228D02*
X184639048Y-75100990D01*
X184639048Y-75100990D02*
X184686667Y-75053371D01*
X184686667Y-75053371D02*
X184781905Y-75005752D01*
X184781905Y-75005752D02*
X184877143Y-75005752D01*
X161984360Y-85952419D02*
X162174836Y-85952419D01*
X162174836Y-85952419D02*
X162270074Y-86000038D01*
X162270074Y-86000038D02*
X162365312Y-86095276D01*
X162365312Y-86095276D02*
X162412931Y-86285752D01*
X162412931Y-86285752D02*
X162412931Y-86619085D01*
X162412931Y-86619085D02*
X162365312Y-86809561D01*
X162365312Y-86809561D02*
X162270074Y-86904800D01*
X162270074Y-86904800D02*
X162174836Y-86952419D01*
X162174836Y-86952419D02*
X161984360Y-86952419D01*
X161984360Y-86952419D02*
X161889122Y-86904800D01*
X161889122Y-86904800D02*
X161793884Y-86809561D01*
X161793884Y-86809561D02*
X161746265Y-86619085D01*
X161746265Y-86619085D02*
X161746265Y-86285752D01*
X161746265Y-86285752D02*
X161793884Y-86095276D01*
X161793884Y-86095276D02*
X161889122Y-86000038D01*
X161889122Y-86000038D02*
X161984360Y-85952419D01*
X162841503Y-86952419D02*
X162841503Y-85952419D01*
X162841503Y-85952419D02*
X163412931Y-86952419D01*
X163412931Y-86952419D02*
X163412931Y-85952419D01*
X168594360Y-61592419D02*
X168784836Y-61592419D01*
X168784836Y-61592419D02*
X168880074Y-61640038D01*
X168880074Y-61640038D02*
X168975312Y-61735276D01*
X168975312Y-61735276D02*
X169022931Y-61925752D01*
X169022931Y-61925752D02*
X169022931Y-62259085D01*
X169022931Y-62259085D02*
X168975312Y-62449561D01*
X168975312Y-62449561D02*
X168880074Y-62544800D01*
X168880074Y-62544800D02*
X168784836Y-62592419D01*
X168784836Y-62592419D02*
X168594360Y-62592419D01*
X168594360Y-62592419D02*
X168499122Y-62544800D01*
X168499122Y-62544800D02*
X168403884Y-62449561D01*
X168403884Y-62449561D02*
X168356265Y-62259085D01*
X168356265Y-62259085D02*
X168356265Y-61925752D01*
X168356265Y-61925752D02*
X168403884Y-61735276D01*
X168403884Y-61735276D02*
X168499122Y-61640038D01*
X168499122Y-61640038D02*
X168594360Y-61592419D01*
X169451503Y-62592419D02*
X169451503Y-61592419D01*
X169451503Y-61592419D02*
X170022931Y-62592419D01*
X170022931Y-62592419D02*
X170022931Y-61592419D01*
X161964360Y-80762419D02*
X162154836Y-80762419D01*
X162154836Y-80762419D02*
X162250074Y-80810038D01*
X162250074Y-80810038D02*
X162345312Y-80905276D01*
X162345312Y-80905276D02*
X162392931Y-81095752D01*
X162392931Y-81095752D02*
X162392931Y-81429085D01*
X162392931Y-81429085D02*
X162345312Y-81619561D01*
X162345312Y-81619561D02*
X162250074Y-81714800D01*
X162250074Y-81714800D02*
X162154836Y-81762419D01*
X162154836Y-81762419D02*
X161964360Y-81762419D01*
X161964360Y-81762419D02*
X161869122Y-81714800D01*
X161869122Y-81714800D02*
X161773884Y-81619561D01*
X161773884Y-81619561D02*
X161726265Y-81429085D01*
X161726265Y-81429085D02*
X161726265Y-81095752D01*
X161726265Y-81095752D02*
X161773884Y-80905276D01*
X161773884Y-80905276D02*
X161869122Y-80810038D01*
X161869122Y-80810038D02*
X161964360Y-80762419D01*
X163154836Y-81238609D02*
X162821503Y-81238609D01*
X162821503Y-81762419D02*
X162821503Y-80762419D01*
X162821503Y-80762419D02*
X163297693Y-80762419D01*
X164011979Y-81238609D02*
X163678646Y-81238609D01*
X163678646Y-81762419D02*
X163678646Y-80762419D01*
X163678646Y-80762419D02*
X164154836Y-80762419D01*
X128764360Y-78132419D02*
X128954836Y-78132419D01*
X128954836Y-78132419D02*
X129050074Y-78180038D01*
X129050074Y-78180038D02*
X129145312Y-78275276D01*
X129145312Y-78275276D02*
X129192931Y-78465752D01*
X129192931Y-78465752D02*
X129192931Y-78799085D01*
X129192931Y-78799085D02*
X129145312Y-78989561D01*
X129145312Y-78989561D02*
X129050074Y-79084800D01*
X129050074Y-79084800D02*
X128954836Y-79132419D01*
X128954836Y-79132419D02*
X128764360Y-79132419D01*
X128764360Y-79132419D02*
X128669122Y-79084800D01*
X128669122Y-79084800D02*
X128573884Y-78989561D01*
X128573884Y-78989561D02*
X128526265Y-78799085D01*
X128526265Y-78799085D02*
X128526265Y-78465752D01*
X128526265Y-78465752D02*
X128573884Y-78275276D01*
X128573884Y-78275276D02*
X128669122Y-78180038D01*
X128669122Y-78180038D02*
X128764360Y-78132419D01*
X129954836Y-78608609D02*
X129621503Y-78608609D01*
X129621503Y-79132419D02*
X129621503Y-78132419D01*
X129621503Y-78132419D02*
X130097693Y-78132419D01*
X130811979Y-78608609D02*
X130478646Y-78608609D01*
X130478646Y-79132419D02*
X130478646Y-78132419D01*
X130478646Y-78132419D02*
X130954836Y-78132419D01*
X177436665Y-103197236D02*
X177389046Y-103244856D01*
X177389046Y-103244856D02*
X177246189Y-103292475D01*
X177246189Y-103292475D02*
X177150951Y-103292475D01*
X177150951Y-103292475D02*
X177008094Y-103244856D01*
X177008094Y-103244856D02*
X176912856Y-103149617D01*
X176912856Y-103149617D02*
X176865237Y-103054379D01*
X176865237Y-103054379D02*
X176817618Y-102863903D01*
X176817618Y-102863903D02*
X176817618Y-102721046D01*
X176817618Y-102721046D02*
X176865237Y-102530570D01*
X176865237Y-102530570D02*
X176912856Y-102435332D01*
X176912856Y-102435332D02*
X177008094Y-102340094D01*
X177008094Y-102340094D02*
X177150951Y-102292475D01*
X177150951Y-102292475D02*
X177246189Y-102292475D01*
X177246189Y-102292475D02*
X177389046Y-102340094D01*
X177389046Y-102340094D02*
X177436665Y-102387713D01*
X178293808Y-102625808D02*
X178293808Y-103292475D01*
X177865237Y-102625808D02*
X177865237Y-103149617D01*
X177865237Y-103149617D02*
X177912856Y-103244856D01*
X177912856Y-103244856D02*
X178008094Y-103292475D01*
X178008094Y-103292475D02*
X178150951Y-103292475D01*
X178150951Y-103292475D02*
X178246189Y-103244856D01*
X178246189Y-103244856D02*
X178293808Y-103197236D01*
X178769999Y-103292475D02*
X178769999Y-102625808D01*
X178769999Y-102816284D02*
X178817618Y-102721046D01*
X178817618Y-102721046D02*
X178865237Y-102673427D01*
X178865237Y-102673427D02*
X178960475Y-102625808D01*
X178960475Y-102625808D02*
X179055713Y-102625808D01*
X179389047Y-103292475D02*
X179389047Y-102625808D01*
X179389047Y-102816284D02*
X179436666Y-102721046D01*
X179436666Y-102721046D02*
X179484285Y-102673427D01*
X179484285Y-102673427D02*
X179579523Y-102625808D01*
X179579523Y-102625808D02*
X179674761Y-102625808D01*
X180389047Y-103244856D02*
X180293809Y-103292475D01*
X180293809Y-103292475D02*
X180103333Y-103292475D01*
X180103333Y-103292475D02*
X180008095Y-103244856D01*
X180008095Y-103244856D02*
X179960476Y-103149617D01*
X179960476Y-103149617D02*
X179960476Y-102768665D01*
X179960476Y-102768665D02*
X180008095Y-102673427D01*
X180008095Y-102673427D02*
X180103333Y-102625808D01*
X180103333Y-102625808D02*
X180293809Y-102625808D01*
X180293809Y-102625808D02*
X180389047Y-102673427D01*
X180389047Y-102673427D02*
X180436666Y-102768665D01*
X180436666Y-102768665D02*
X180436666Y-102863903D01*
X180436666Y-102863903D02*
X179960476Y-102959141D01*
X180865238Y-102625808D02*
X180865238Y-103292475D01*
X180865238Y-102721046D02*
X180912857Y-102673427D01*
X180912857Y-102673427D02*
X181008095Y-102625808D01*
X181008095Y-102625808D02*
X181150952Y-102625808D01*
X181150952Y-102625808D02*
X181246190Y-102673427D01*
X181246190Y-102673427D02*
X181293809Y-102768665D01*
X181293809Y-102768665D02*
X181293809Y-103292475D01*
X181627143Y-102625808D02*
X182008095Y-102625808D01*
X181770000Y-102292475D02*
X181770000Y-103149617D01*
X181770000Y-103149617D02*
X181817619Y-103244856D01*
X181817619Y-103244856D02*
X181912857Y-103292475D01*
X181912857Y-103292475D02*
X182008095Y-103292475D01*
X183055715Y-103244856D02*
X183198572Y-103292475D01*
X183198572Y-103292475D02*
X183436667Y-103292475D01*
X183436667Y-103292475D02*
X183531905Y-103244856D01*
X183531905Y-103244856D02*
X183579524Y-103197236D01*
X183579524Y-103197236D02*
X183627143Y-103101998D01*
X183627143Y-103101998D02*
X183627143Y-103006760D01*
X183627143Y-103006760D02*
X183579524Y-102911522D01*
X183579524Y-102911522D02*
X183531905Y-102863903D01*
X183531905Y-102863903D02*
X183436667Y-102816284D01*
X183436667Y-102816284D02*
X183246191Y-102768665D01*
X183246191Y-102768665D02*
X183150953Y-102721046D01*
X183150953Y-102721046D02*
X183103334Y-102673427D01*
X183103334Y-102673427D02*
X183055715Y-102578189D01*
X183055715Y-102578189D02*
X183055715Y-102482951D01*
X183055715Y-102482951D02*
X183103334Y-102387713D01*
X183103334Y-102387713D02*
X183150953Y-102340094D01*
X183150953Y-102340094D02*
X183246191Y-102292475D01*
X183246191Y-102292475D02*
X183484286Y-102292475D01*
X183484286Y-102292475D02*
X183627143Y-102340094D01*
X184436667Y-103244856D02*
X184341429Y-103292475D01*
X184341429Y-103292475D02*
X184150953Y-103292475D01*
X184150953Y-103292475D02*
X184055715Y-103244856D01*
X184055715Y-103244856D02*
X184008096Y-103149617D01*
X184008096Y-103149617D02*
X184008096Y-102768665D01*
X184008096Y-102768665D02*
X184055715Y-102673427D01*
X184055715Y-102673427D02*
X184150953Y-102625808D01*
X184150953Y-102625808D02*
X184341429Y-102625808D01*
X184341429Y-102625808D02*
X184436667Y-102673427D01*
X184436667Y-102673427D02*
X184484286Y-102768665D01*
X184484286Y-102768665D02*
X184484286Y-102863903D01*
X184484286Y-102863903D02*
X184008096Y-102959141D01*
X184912858Y-102625808D02*
X184912858Y-103292475D01*
X184912858Y-102721046D02*
X184960477Y-102673427D01*
X184960477Y-102673427D02*
X185055715Y-102625808D01*
X185055715Y-102625808D02*
X185198572Y-102625808D01*
X185198572Y-102625808D02*
X185293810Y-102673427D01*
X185293810Y-102673427D02*
X185341429Y-102768665D01*
X185341429Y-102768665D02*
X185341429Y-103292475D01*
X185770001Y-103244856D02*
X185865239Y-103292475D01*
X185865239Y-103292475D02*
X186055715Y-103292475D01*
X186055715Y-103292475D02*
X186150953Y-103244856D01*
X186150953Y-103244856D02*
X186198572Y-103149617D01*
X186198572Y-103149617D02*
X186198572Y-103101998D01*
X186198572Y-103101998D02*
X186150953Y-103006760D01*
X186150953Y-103006760D02*
X186055715Y-102959141D01*
X186055715Y-102959141D02*
X185912858Y-102959141D01*
X185912858Y-102959141D02*
X185817620Y-102911522D01*
X185817620Y-102911522D02*
X185770001Y-102816284D01*
X185770001Y-102816284D02*
X185770001Y-102768665D01*
X185770001Y-102768665D02*
X185817620Y-102673427D01*
X185817620Y-102673427D02*
X185912858Y-102625808D01*
X185912858Y-102625808D02*
X186055715Y-102625808D01*
X186055715Y-102625808D02*
X186150953Y-102673427D01*
X186770001Y-103292475D02*
X186674763Y-103244856D01*
X186674763Y-103244856D02*
X186627144Y-103197236D01*
X186627144Y-103197236D02*
X186579525Y-103101998D01*
X186579525Y-103101998D02*
X186579525Y-102816284D01*
X186579525Y-102816284D02*
X186627144Y-102721046D01*
X186627144Y-102721046D02*
X186674763Y-102673427D01*
X186674763Y-102673427D02*
X186770001Y-102625808D01*
X186770001Y-102625808D02*
X186912858Y-102625808D01*
X186912858Y-102625808D02*
X187008096Y-102673427D01*
X187008096Y-102673427D02*
X187055715Y-102721046D01*
X187055715Y-102721046D02*
X187103334Y-102816284D01*
X187103334Y-102816284D02*
X187103334Y-103101998D01*
X187103334Y-103101998D02*
X187055715Y-103197236D01*
X187055715Y-103197236D02*
X187008096Y-103244856D01*
X187008096Y-103244856D02*
X186912858Y-103292475D01*
X186912858Y-103292475D02*
X186770001Y-103292475D01*
X187531906Y-103292475D02*
X187531906Y-102625808D01*
X187531906Y-102816284D02*
X187579525Y-102721046D01*
X187579525Y-102721046D02*
X187627144Y-102673427D01*
X187627144Y-102673427D02*
X187722382Y-102625808D01*
X187722382Y-102625808D02*
X187817620Y-102625808D01*
X180889047Y-104378609D02*
X180555714Y-104378609D01*
X180555714Y-104902419D02*
X180555714Y-103902419D01*
X180555714Y-103902419D02*
X181031904Y-103902419D01*
X181412857Y-104902419D02*
X181412857Y-104235752D01*
X181412857Y-103902419D02*
X181365238Y-103950038D01*
X181365238Y-103950038D02*
X181412857Y-103997657D01*
X181412857Y-103997657D02*
X181460476Y-103950038D01*
X181460476Y-103950038D02*
X181412857Y-103902419D01*
X181412857Y-103902419D02*
X181412857Y-103997657D01*
X182031904Y-104902419D02*
X181936666Y-104854800D01*
X181936666Y-104854800D02*
X181889047Y-104759561D01*
X181889047Y-104759561D02*
X181889047Y-103902419D01*
X182270000Y-104235752D02*
X182650952Y-104235752D01*
X182412857Y-103902419D02*
X182412857Y-104759561D01*
X182412857Y-104759561D02*
X182460476Y-104854800D01*
X182460476Y-104854800D02*
X182555714Y-104902419D01*
X182555714Y-104902419D02*
X182650952Y-104902419D01*
X183365238Y-104854800D02*
X183270000Y-104902419D01*
X183270000Y-104902419D02*
X183079524Y-104902419D01*
X183079524Y-104902419D02*
X182984286Y-104854800D01*
X182984286Y-104854800D02*
X182936667Y-104759561D01*
X182936667Y-104759561D02*
X182936667Y-104378609D01*
X182936667Y-104378609D02*
X182984286Y-104283371D01*
X182984286Y-104283371D02*
X183079524Y-104235752D01*
X183079524Y-104235752D02*
X183270000Y-104235752D01*
X183270000Y-104235752D02*
X183365238Y-104283371D01*
X183365238Y-104283371D02*
X183412857Y-104378609D01*
X183412857Y-104378609D02*
X183412857Y-104473847D01*
X183412857Y-104473847D02*
X182936667Y-104569085D01*
X183841429Y-104902419D02*
X183841429Y-104235752D01*
X183841429Y-104426228D02*
X183889048Y-104330990D01*
X183889048Y-104330990D02*
X183936667Y-104283371D01*
X183936667Y-104283371D02*
X184031905Y-104235752D01*
X184031905Y-104235752D02*
X184127143Y-104235752D01*
X168895312Y-59167236D02*
X168847693Y-59214856D01*
X168847693Y-59214856D02*
X168704836Y-59262475D01*
X168704836Y-59262475D02*
X168609598Y-59262475D01*
X168609598Y-59262475D02*
X168466741Y-59214856D01*
X168466741Y-59214856D02*
X168371503Y-59119617D01*
X168371503Y-59119617D02*
X168323884Y-59024379D01*
X168323884Y-59024379D02*
X168276265Y-58833903D01*
X168276265Y-58833903D02*
X168276265Y-58691046D01*
X168276265Y-58691046D02*
X168323884Y-58500570D01*
X168323884Y-58500570D02*
X168371503Y-58405332D01*
X168371503Y-58405332D02*
X168466741Y-58310094D01*
X168466741Y-58310094D02*
X168609598Y-58262475D01*
X168609598Y-58262475D02*
X168704836Y-58262475D01*
X168704836Y-58262475D02*
X168847693Y-58310094D01*
X168847693Y-58310094D02*
X168895312Y-58357713D01*
X169752455Y-58595808D02*
X169752455Y-59262475D01*
X169323884Y-58595808D02*
X169323884Y-59119617D01*
X169323884Y-59119617D02*
X169371503Y-59214856D01*
X169371503Y-59214856D02*
X169466741Y-59262475D01*
X169466741Y-59262475D02*
X169609598Y-59262475D01*
X169609598Y-59262475D02*
X169704836Y-59214856D01*
X169704836Y-59214856D02*
X169752455Y-59167236D01*
X170228646Y-59262475D02*
X170228646Y-58595808D01*
X170228646Y-58786284D02*
X170276265Y-58691046D01*
X170276265Y-58691046D02*
X170323884Y-58643427D01*
X170323884Y-58643427D02*
X170419122Y-58595808D01*
X170419122Y-58595808D02*
X170514360Y-58595808D01*
X170847694Y-59262475D02*
X170847694Y-58595808D01*
X170847694Y-58786284D02*
X170895313Y-58691046D01*
X170895313Y-58691046D02*
X170942932Y-58643427D01*
X170942932Y-58643427D02*
X171038170Y-58595808D01*
X171038170Y-58595808D02*
X171133408Y-58595808D01*
X171847694Y-59214856D02*
X171752456Y-59262475D01*
X171752456Y-59262475D02*
X171561980Y-59262475D01*
X171561980Y-59262475D02*
X171466742Y-59214856D01*
X171466742Y-59214856D02*
X171419123Y-59119617D01*
X171419123Y-59119617D02*
X171419123Y-58738665D01*
X171419123Y-58738665D02*
X171466742Y-58643427D01*
X171466742Y-58643427D02*
X171561980Y-58595808D01*
X171561980Y-58595808D02*
X171752456Y-58595808D01*
X171752456Y-58595808D02*
X171847694Y-58643427D01*
X171847694Y-58643427D02*
X171895313Y-58738665D01*
X171895313Y-58738665D02*
X171895313Y-58833903D01*
X171895313Y-58833903D02*
X171419123Y-58929141D01*
X172323885Y-58595808D02*
X172323885Y-59262475D01*
X172323885Y-58691046D02*
X172371504Y-58643427D01*
X172371504Y-58643427D02*
X172466742Y-58595808D01*
X172466742Y-58595808D02*
X172609599Y-58595808D01*
X172609599Y-58595808D02*
X172704837Y-58643427D01*
X172704837Y-58643427D02*
X172752456Y-58738665D01*
X172752456Y-58738665D02*
X172752456Y-59262475D01*
X173085790Y-58595808D02*
X173466742Y-58595808D01*
X173228647Y-58262475D02*
X173228647Y-59119617D01*
X173228647Y-59119617D02*
X173276266Y-59214856D01*
X173276266Y-59214856D02*
X173371504Y-59262475D01*
X173371504Y-59262475D02*
X173466742Y-59262475D01*
X168276265Y-60824800D02*
X168419122Y-60872419D01*
X168419122Y-60872419D02*
X168657217Y-60872419D01*
X168657217Y-60872419D02*
X168752455Y-60824800D01*
X168752455Y-60824800D02*
X168800074Y-60777180D01*
X168800074Y-60777180D02*
X168847693Y-60681942D01*
X168847693Y-60681942D02*
X168847693Y-60586704D01*
X168847693Y-60586704D02*
X168800074Y-60491466D01*
X168800074Y-60491466D02*
X168752455Y-60443847D01*
X168752455Y-60443847D02*
X168657217Y-60396228D01*
X168657217Y-60396228D02*
X168466741Y-60348609D01*
X168466741Y-60348609D02*
X168371503Y-60300990D01*
X168371503Y-60300990D02*
X168323884Y-60253371D01*
X168323884Y-60253371D02*
X168276265Y-60158133D01*
X168276265Y-60158133D02*
X168276265Y-60062895D01*
X168276265Y-60062895D02*
X168323884Y-59967657D01*
X168323884Y-59967657D02*
X168371503Y-59920038D01*
X168371503Y-59920038D02*
X168466741Y-59872419D01*
X168466741Y-59872419D02*
X168704836Y-59872419D01*
X168704836Y-59872419D02*
X168847693Y-59920038D01*
X169657217Y-60824800D02*
X169561979Y-60872419D01*
X169561979Y-60872419D02*
X169371503Y-60872419D01*
X169371503Y-60872419D02*
X169276265Y-60824800D01*
X169276265Y-60824800D02*
X169228646Y-60729561D01*
X169228646Y-60729561D02*
X169228646Y-60348609D01*
X169228646Y-60348609D02*
X169276265Y-60253371D01*
X169276265Y-60253371D02*
X169371503Y-60205752D01*
X169371503Y-60205752D02*
X169561979Y-60205752D01*
X169561979Y-60205752D02*
X169657217Y-60253371D01*
X169657217Y-60253371D02*
X169704836Y-60348609D01*
X169704836Y-60348609D02*
X169704836Y-60443847D01*
X169704836Y-60443847D02*
X169228646Y-60539085D01*
X170133408Y-60205752D02*
X170133408Y-60872419D01*
X170133408Y-60300990D02*
X170181027Y-60253371D01*
X170181027Y-60253371D02*
X170276265Y-60205752D01*
X170276265Y-60205752D02*
X170419122Y-60205752D01*
X170419122Y-60205752D02*
X170514360Y-60253371D01*
X170514360Y-60253371D02*
X170561979Y-60348609D01*
X170561979Y-60348609D02*
X170561979Y-60872419D01*
X170990551Y-60824800D02*
X171085789Y-60872419D01*
X171085789Y-60872419D02*
X171276265Y-60872419D01*
X171276265Y-60872419D02*
X171371503Y-60824800D01*
X171371503Y-60824800D02*
X171419122Y-60729561D01*
X171419122Y-60729561D02*
X171419122Y-60681942D01*
X171419122Y-60681942D02*
X171371503Y-60586704D01*
X171371503Y-60586704D02*
X171276265Y-60539085D01*
X171276265Y-60539085D02*
X171133408Y-60539085D01*
X171133408Y-60539085D02*
X171038170Y-60491466D01*
X171038170Y-60491466D02*
X170990551Y-60396228D01*
X170990551Y-60396228D02*
X170990551Y-60348609D01*
X170990551Y-60348609D02*
X171038170Y-60253371D01*
X171038170Y-60253371D02*
X171133408Y-60205752D01*
X171133408Y-60205752D02*
X171276265Y-60205752D01*
X171276265Y-60205752D02*
X171371503Y-60253371D01*
X172228646Y-60824800D02*
X172133408Y-60872419D01*
X172133408Y-60872419D02*
X171942932Y-60872419D01*
X171942932Y-60872419D02*
X171847694Y-60824800D01*
X171847694Y-60824800D02*
X171800075Y-60729561D01*
X171800075Y-60729561D02*
X171800075Y-60348609D01*
X171800075Y-60348609D02*
X171847694Y-60253371D01*
X171847694Y-60253371D02*
X171942932Y-60205752D01*
X171942932Y-60205752D02*
X172133408Y-60205752D01*
X172133408Y-60205752D02*
X172228646Y-60253371D01*
X172228646Y-60253371D02*
X172276265Y-60348609D01*
X172276265Y-60348609D02*
X172276265Y-60443847D01*
X172276265Y-60443847D02*
X171800075Y-60539085D01*
X153001466Y-55156115D02*
X153001466Y-54394211D01*
X153382419Y-54775163D02*
X152620514Y-54775163D01*
X133069523Y-55582475D02*
X132593333Y-55582475D01*
X132593333Y-55582475D02*
X132593333Y-54582475D01*
X133545714Y-55582475D02*
X133450476Y-55534856D01*
X133450476Y-55534856D02*
X133402857Y-55487236D01*
X133402857Y-55487236D02*
X133355238Y-55391998D01*
X133355238Y-55391998D02*
X133355238Y-55106284D01*
X133355238Y-55106284D02*
X133402857Y-55011046D01*
X133402857Y-55011046D02*
X133450476Y-54963427D01*
X133450476Y-54963427D02*
X133545714Y-54915808D01*
X133545714Y-54915808D02*
X133688571Y-54915808D01*
X133688571Y-54915808D02*
X133783809Y-54963427D01*
X133783809Y-54963427D02*
X133831428Y-55011046D01*
X133831428Y-55011046D02*
X133879047Y-55106284D01*
X133879047Y-55106284D02*
X133879047Y-55391998D01*
X133879047Y-55391998D02*
X133831428Y-55487236D01*
X133831428Y-55487236D02*
X133783809Y-55534856D01*
X133783809Y-55534856D02*
X133688571Y-55582475D01*
X133688571Y-55582475D02*
X133545714Y-55582475D01*
X134212381Y-54915808D02*
X134402857Y-55582475D01*
X134402857Y-55582475D02*
X134593333Y-55106284D01*
X134593333Y-55106284D02*
X134783809Y-55582475D01*
X134783809Y-55582475D02*
X134974285Y-54915808D01*
X136117143Y-55582475D02*
X136117143Y-54582475D01*
X136117143Y-54582475D02*
X136498095Y-54582475D01*
X136498095Y-54582475D02*
X136593333Y-54630094D01*
X136593333Y-54630094D02*
X136640952Y-54677713D01*
X136640952Y-54677713D02*
X136688571Y-54772951D01*
X136688571Y-54772951D02*
X136688571Y-54915808D01*
X136688571Y-54915808D02*
X136640952Y-55011046D01*
X136640952Y-55011046D02*
X136593333Y-55058665D01*
X136593333Y-55058665D02*
X136498095Y-55106284D01*
X136498095Y-55106284D02*
X136117143Y-55106284D01*
X137545714Y-55582475D02*
X137545714Y-55058665D01*
X137545714Y-55058665D02*
X137498095Y-54963427D01*
X137498095Y-54963427D02*
X137402857Y-54915808D01*
X137402857Y-54915808D02*
X137212381Y-54915808D01*
X137212381Y-54915808D02*
X137117143Y-54963427D01*
X137545714Y-55534856D02*
X137450476Y-55582475D01*
X137450476Y-55582475D02*
X137212381Y-55582475D01*
X137212381Y-55582475D02*
X137117143Y-55534856D01*
X137117143Y-55534856D02*
X137069524Y-55439617D01*
X137069524Y-55439617D02*
X137069524Y-55344379D01*
X137069524Y-55344379D02*
X137117143Y-55249141D01*
X137117143Y-55249141D02*
X137212381Y-55201522D01*
X137212381Y-55201522D02*
X137450476Y-55201522D01*
X137450476Y-55201522D02*
X137545714Y-55153903D01*
X137974286Y-55534856D02*
X138069524Y-55582475D01*
X138069524Y-55582475D02*
X138260000Y-55582475D01*
X138260000Y-55582475D02*
X138355238Y-55534856D01*
X138355238Y-55534856D02*
X138402857Y-55439617D01*
X138402857Y-55439617D02*
X138402857Y-55391998D01*
X138402857Y-55391998D02*
X138355238Y-55296760D01*
X138355238Y-55296760D02*
X138260000Y-55249141D01*
X138260000Y-55249141D02*
X138117143Y-55249141D01*
X138117143Y-55249141D02*
X138021905Y-55201522D01*
X138021905Y-55201522D02*
X137974286Y-55106284D01*
X137974286Y-55106284D02*
X137974286Y-55058665D01*
X137974286Y-55058665D02*
X138021905Y-54963427D01*
X138021905Y-54963427D02*
X138117143Y-54915808D01*
X138117143Y-54915808D02*
X138260000Y-54915808D01*
X138260000Y-54915808D02*
X138355238Y-54963427D01*
X138783810Y-55534856D02*
X138879048Y-55582475D01*
X138879048Y-55582475D02*
X139069524Y-55582475D01*
X139069524Y-55582475D02*
X139164762Y-55534856D01*
X139164762Y-55534856D02*
X139212381Y-55439617D01*
X139212381Y-55439617D02*
X139212381Y-55391998D01*
X139212381Y-55391998D02*
X139164762Y-55296760D01*
X139164762Y-55296760D02*
X139069524Y-55249141D01*
X139069524Y-55249141D02*
X138926667Y-55249141D01*
X138926667Y-55249141D02*
X138831429Y-55201522D01*
X138831429Y-55201522D02*
X138783810Y-55106284D01*
X138783810Y-55106284D02*
X138783810Y-55058665D01*
X138783810Y-55058665D02*
X138831429Y-54963427D01*
X138831429Y-54963427D02*
X138926667Y-54915808D01*
X138926667Y-54915808D02*
X139069524Y-54915808D01*
X139069524Y-54915808D02*
X139164762Y-54963427D01*
X134879047Y-56668609D02*
X134545714Y-56668609D01*
X134545714Y-57192419D02*
X134545714Y-56192419D01*
X134545714Y-56192419D02*
X135021904Y-56192419D01*
X135402857Y-57192419D02*
X135402857Y-56525752D01*
X135402857Y-56192419D02*
X135355238Y-56240038D01*
X135355238Y-56240038D02*
X135402857Y-56287657D01*
X135402857Y-56287657D02*
X135450476Y-56240038D01*
X135450476Y-56240038D02*
X135402857Y-56192419D01*
X135402857Y-56192419D02*
X135402857Y-56287657D01*
X136021904Y-57192419D02*
X135926666Y-57144800D01*
X135926666Y-57144800D02*
X135879047Y-57049561D01*
X135879047Y-57049561D02*
X135879047Y-56192419D01*
X136260000Y-56525752D02*
X136640952Y-56525752D01*
X136402857Y-56192419D02*
X136402857Y-57049561D01*
X136402857Y-57049561D02*
X136450476Y-57144800D01*
X136450476Y-57144800D02*
X136545714Y-57192419D01*
X136545714Y-57192419D02*
X136640952Y-57192419D01*
X137355238Y-57144800D02*
X137260000Y-57192419D01*
X137260000Y-57192419D02*
X137069524Y-57192419D01*
X137069524Y-57192419D02*
X136974286Y-57144800D01*
X136974286Y-57144800D02*
X136926667Y-57049561D01*
X136926667Y-57049561D02*
X136926667Y-56668609D01*
X136926667Y-56668609D02*
X136974286Y-56573371D01*
X136974286Y-56573371D02*
X137069524Y-56525752D01*
X137069524Y-56525752D02*
X137260000Y-56525752D01*
X137260000Y-56525752D02*
X137355238Y-56573371D01*
X137355238Y-56573371D02*
X137402857Y-56668609D01*
X137402857Y-56668609D02*
X137402857Y-56763847D01*
X137402857Y-56763847D02*
X136926667Y-56859085D01*
X137831429Y-57192419D02*
X137831429Y-56525752D01*
X137831429Y-56716228D02*
X137879048Y-56620990D01*
X137879048Y-56620990D02*
X137926667Y-56573371D01*
X137926667Y-56573371D02*
X138021905Y-56525752D01*
X138021905Y-56525752D02*
X138117143Y-56525752D01*
X168644360Y-56412419D02*
X168834836Y-56412419D01*
X168834836Y-56412419D02*
X168930074Y-56460038D01*
X168930074Y-56460038D02*
X169025312Y-56555276D01*
X169025312Y-56555276D02*
X169072931Y-56745752D01*
X169072931Y-56745752D02*
X169072931Y-57079085D01*
X169072931Y-57079085D02*
X169025312Y-57269561D01*
X169025312Y-57269561D02*
X168930074Y-57364800D01*
X168930074Y-57364800D02*
X168834836Y-57412419D01*
X168834836Y-57412419D02*
X168644360Y-57412419D01*
X168644360Y-57412419D02*
X168549122Y-57364800D01*
X168549122Y-57364800D02*
X168453884Y-57269561D01*
X168453884Y-57269561D02*
X168406265Y-57079085D01*
X168406265Y-57079085D02*
X168406265Y-56745752D01*
X168406265Y-56745752D02*
X168453884Y-56555276D01*
X168453884Y-56555276D02*
X168549122Y-56460038D01*
X168549122Y-56460038D02*
X168644360Y-56412419D01*
X169834836Y-56888609D02*
X169501503Y-56888609D01*
X169501503Y-57412419D02*
X169501503Y-56412419D01*
X169501503Y-56412419D02*
X169977693Y-56412419D01*
X170691979Y-56888609D02*
X170358646Y-56888609D01*
X170358646Y-57412419D02*
X170358646Y-56412419D01*
X170358646Y-56412419D02*
X170834836Y-56412419D01*
X175164360Y-99472419D02*
X175354836Y-99472419D01*
X175354836Y-99472419D02*
X175450074Y-99520038D01*
X175450074Y-99520038D02*
X175545312Y-99615276D01*
X175545312Y-99615276D02*
X175592931Y-99805752D01*
X175592931Y-99805752D02*
X175592931Y-100139085D01*
X175592931Y-100139085D02*
X175545312Y-100329561D01*
X175545312Y-100329561D02*
X175450074Y-100424800D01*
X175450074Y-100424800D02*
X175354836Y-100472419D01*
X175354836Y-100472419D02*
X175164360Y-100472419D01*
X175164360Y-100472419D02*
X175069122Y-100424800D01*
X175069122Y-100424800D02*
X174973884Y-100329561D01*
X174973884Y-100329561D02*
X174926265Y-100139085D01*
X174926265Y-100139085D02*
X174926265Y-99805752D01*
X174926265Y-99805752D02*
X174973884Y-99615276D01*
X174973884Y-99615276D02*
X175069122Y-99520038D01*
X175069122Y-99520038D02*
X175164360Y-99472419D01*
X176354836Y-99948609D02*
X176021503Y-99948609D01*
X176021503Y-100472419D02*
X176021503Y-99472419D01*
X176021503Y-99472419D02*
X176497693Y-99472419D01*
X177211979Y-99948609D02*
X176878646Y-99948609D01*
X176878646Y-100472419D02*
X176878646Y-99472419D01*
X176878646Y-99472419D02*
X177354836Y-99472419D01*
X162311427Y-83567236D02*
X162263808Y-83614856D01*
X162263808Y-83614856D02*
X162120951Y-83662475D01*
X162120951Y-83662475D02*
X162025713Y-83662475D01*
X162025713Y-83662475D02*
X161882856Y-83614856D01*
X161882856Y-83614856D02*
X161787618Y-83519617D01*
X161787618Y-83519617D02*
X161739999Y-83424379D01*
X161739999Y-83424379D02*
X161692380Y-83233903D01*
X161692380Y-83233903D02*
X161692380Y-83091046D01*
X161692380Y-83091046D02*
X161739999Y-82900570D01*
X161739999Y-82900570D02*
X161787618Y-82805332D01*
X161787618Y-82805332D02*
X161882856Y-82710094D01*
X161882856Y-82710094D02*
X162025713Y-82662475D01*
X162025713Y-82662475D02*
X162120951Y-82662475D01*
X162120951Y-82662475D02*
X162263808Y-82710094D01*
X162263808Y-82710094D02*
X162311427Y-82757713D01*
X163168570Y-82995808D02*
X163168570Y-83662475D01*
X162739999Y-82995808D02*
X162739999Y-83519617D01*
X162739999Y-83519617D02*
X162787618Y-83614856D01*
X162787618Y-83614856D02*
X162882856Y-83662475D01*
X162882856Y-83662475D02*
X163025713Y-83662475D01*
X163025713Y-83662475D02*
X163120951Y-83614856D01*
X163120951Y-83614856D02*
X163168570Y-83567236D01*
X163644761Y-83662475D02*
X163644761Y-82995808D01*
X163644761Y-83186284D02*
X163692380Y-83091046D01*
X163692380Y-83091046D02*
X163739999Y-83043427D01*
X163739999Y-83043427D02*
X163835237Y-82995808D01*
X163835237Y-82995808D02*
X163930475Y-82995808D01*
X164263809Y-83662475D02*
X164263809Y-82995808D01*
X164263809Y-83186284D02*
X164311428Y-83091046D01*
X164311428Y-83091046D02*
X164359047Y-83043427D01*
X164359047Y-83043427D02*
X164454285Y-82995808D01*
X164454285Y-82995808D02*
X164549523Y-82995808D01*
X165263809Y-83614856D02*
X165168571Y-83662475D01*
X165168571Y-83662475D02*
X164978095Y-83662475D01*
X164978095Y-83662475D02*
X164882857Y-83614856D01*
X164882857Y-83614856D02*
X164835238Y-83519617D01*
X164835238Y-83519617D02*
X164835238Y-83138665D01*
X164835238Y-83138665D02*
X164882857Y-83043427D01*
X164882857Y-83043427D02*
X164978095Y-82995808D01*
X164978095Y-82995808D02*
X165168571Y-82995808D01*
X165168571Y-82995808D02*
X165263809Y-83043427D01*
X165263809Y-83043427D02*
X165311428Y-83138665D01*
X165311428Y-83138665D02*
X165311428Y-83233903D01*
X165311428Y-83233903D02*
X164835238Y-83329141D01*
X165740000Y-82995808D02*
X165740000Y-83662475D01*
X165740000Y-83091046D02*
X165787619Y-83043427D01*
X165787619Y-83043427D02*
X165882857Y-82995808D01*
X165882857Y-82995808D02*
X166025714Y-82995808D01*
X166025714Y-82995808D02*
X166120952Y-83043427D01*
X166120952Y-83043427D02*
X166168571Y-83138665D01*
X166168571Y-83138665D02*
X166168571Y-83662475D01*
X166501905Y-82995808D02*
X166882857Y-82995808D01*
X166644762Y-82662475D02*
X166644762Y-83519617D01*
X166644762Y-83519617D02*
X166692381Y-83614856D01*
X166692381Y-83614856D02*
X166787619Y-83662475D01*
X166787619Y-83662475D02*
X166882857Y-83662475D01*
X162335237Y-85177180D02*
X162287618Y-85224800D01*
X162287618Y-85224800D02*
X162144761Y-85272419D01*
X162144761Y-85272419D02*
X162049523Y-85272419D01*
X162049523Y-85272419D02*
X161906666Y-85224800D01*
X161906666Y-85224800D02*
X161811428Y-85129561D01*
X161811428Y-85129561D02*
X161763809Y-85034323D01*
X161763809Y-85034323D02*
X161716190Y-84843847D01*
X161716190Y-84843847D02*
X161716190Y-84700990D01*
X161716190Y-84700990D02*
X161763809Y-84510514D01*
X161763809Y-84510514D02*
X161811428Y-84415276D01*
X161811428Y-84415276D02*
X161906666Y-84320038D01*
X161906666Y-84320038D02*
X162049523Y-84272419D01*
X162049523Y-84272419D02*
X162144761Y-84272419D01*
X162144761Y-84272419D02*
X162287618Y-84320038D01*
X162287618Y-84320038D02*
X162335237Y-84367657D01*
X162906666Y-85272419D02*
X162811428Y-85224800D01*
X162811428Y-85224800D02*
X162763809Y-85177180D01*
X162763809Y-85177180D02*
X162716190Y-85081942D01*
X162716190Y-85081942D02*
X162716190Y-84796228D01*
X162716190Y-84796228D02*
X162763809Y-84700990D01*
X162763809Y-84700990D02*
X162811428Y-84653371D01*
X162811428Y-84653371D02*
X162906666Y-84605752D01*
X162906666Y-84605752D02*
X163049523Y-84605752D01*
X163049523Y-84605752D02*
X163144761Y-84653371D01*
X163144761Y-84653371D02*
X163192380Y-84700990D01*
X163192380Y-84700990D02*
X163239999Y-84796228D01*
X163239999Y-84796228D02*
X163239999Y-85081942D01*
X163239999Y-85081942D02*
X163192380Y-85177180D01*
X163192380Y-85177180D02*
X163144761Y-85224800D01*
X163144761Y-85224800D02*
X163049523Y-85272419D01*
X163049523Y-85272419D02*
X162906666Y-85272419D01*
X163668571Y-84605752D02*
X163668571Y-85272419D01*
X163668571Y-84700990D02*
X163716190Y-84653371D01*
X163716190Y-84653371D02*
X163811428Y-84605752D01*
X163811428Y-84605752D02*
X163954285Y-84605752D01*
X163954285Y-84605752D02*
X164049523Y-84653371D01*
X164049523Y-84653371D02*
X164097142Y-84748609D01*
X164097142Y-84748609D02*
X164097142Y-85272419D01*
X164430476Y-84605752D02*
X164811428Y-84605752D01*
X164573333Y-84272419D02*
X164573333Y-85129561D01*
X164573333Y-85129561D02*
X164620952Y-85224800D01*
X164620952Y-85224800D02*
X164716190Y-85272419D01*
X164716190Y-85272419D02*
X164811428Y-85272419D01*
X165144762Y-85272419D02*
X165144762Y-84605752D01*
X165144762Y-84796228D02*
X165192381Y-84700990D01*
X165192381Y-84700990D02*
X165240000Y-84653371D01*
X165240000Y-84653371D02*
X165335238Y-84605752D01*
X165335238Y-84605752D02*
X165430476Y-84605752D01*
X165906667Y-85272419D02*
X165811429Y-85224800D01*
X165811429Y-85224800D02*
X165763810Y-85177180D01*
X165763810Y-85177180D02*
X165716191Y-85081942D01*
X165716191Y-85081942D02*
X165716191Y-84796228D01*
X165716191Y-84796228D02*
X165763810Y-84700990D01*
X165763810Y-84700990D02*
X165811429Y-84653371D01*
X165811429Y-84653371D02*
X165906667Y-84605752D01*
X165906667Y-84605752D02*
X166049524Y-84605752D01*
X166049524Y-84605752D02*
X166144762Y-84653371D01*
X166144762Y-84653371D02*
X166192381Y-84700990D01*
X166192381Y-84700990D02*
X166240000Y-84796228D01*
X166240000Y-84796228D02*
X166240000Y-85081942D01*
X166240000Y-85081942D02*
X166192381Y-85177180D01*
X166192381Y-85177180D02*
X166144762Y-85224800D01*
X166144762Y-85224800D02*
X166049524Y-85272419D01*
X166049524Y-85272419D02*
X165906667Y-85272419D01*
X166811429Y-85272419D02*
X166716191Y-85224800D01*
X166716191Y-85224800D02*
X166668572Y-85129561D01*
X166668572Y-85129561D02*
X166668572Y-84272419D01*
X119950038Y-56332306D02*
X119902419Y-56427544D01*
X119902419Y-56427544D02*
X119902419Y-56570401D01*
X119902419Y-56570401D02*
X119950038Y-56713258D01*
X119950038Y-56713258D02*
X120045276Y-56808496D01*
X120045276Y-56808496D02*
X120140514Y-56856115D01*
X120140514Y-56856115D02*
X120330990Y-56903734D01*
X120330990Y-56903734D02*
X120473847Y-56903734D01*
X120473847Y-56903734D02*
X120664323Y-56856115D01*
X120664323Y-56856115D02*
X120759561Y-56808496D01*
X120759561Y-56808496D02*
X120854800Y-56713258D01*
X120854800Y-56713258D02*
X120902419Y-56570401D01*
X120902419Y-56570401D02*
X120902419Y-56475163D01*
X120902419Y-56475163D02*
X120854800Y-56332306D01*
X120854800Y-56332306D02*
X120807180Y-56284687D01*
X120807180Y-56284687D02*
X120473847Y-56284687D01*
X120473847Y-56284687D02*
X120473847Y-56475163D01*
X120902419Y-55856115D02*
X119902419Y-55856115D01*
X119902419Y-55856115D02*
X120902419Y-55284687D01*
X120902419Y-55284687D02*
X119902419Y-55284687D01*
X120902419Y-54808496D02*
X119902419Y-54808496D01*
X119902419Y-54808496D02*
X119902419Y-54570401D01*
X119902419Y-54570401D02*
X119950038Y-54427544D01*
X119950038Y-54427544D02*
X120045276Y-54332306D01*
X120045276Y-54332306D02*
X120140514Y-54284687D01*
X120140514Y-54284687D02*
X120330990Y-54237068D01*
X120330990Y-54237068D02*
X120473847Y-54237068D01*
X120473847Y-54237068D02*
X120664323Y-54284687D01*
X120664323Y-54284687D02*
X120759561Y-54332306D01*
X120759561Y-54332306D02*
X120854800Y-54427544D01*
X120854800Y-54427544D02*
X120902419Y-54570401D01*
X120902419Y-54570401D02*
X120902419Y-54808496D01*
X163948094Y-105592475D02*
X163614761Y-105116284D01*
X163376666Y-105592475D02*
X163376666Y-104592475D01*
X163376666Y-104592475D02*
X163757618Y-104592475D01*
X163757618Y-104592475D02*
X163852856Y-104640094D01*
X163852856Y-104640094D02*
X163900475Y-104687713D01*
X163900475Y-104687713D02*
X163948094Y-104782951D01*
X163948094Y-104782951D02*
X163948094Y-104925808D01*
X163948094Y-104925808D02*
X163900475Y-105021046D01*
X163900475Y-105021046D02*
X163852856Y-105068665D01*
X163852856Y-105068665D02*
X163757618Y-105116284D01*
X163757618Y-105116284D02*
X163376666Y-105116284D01*
X164757618Y-105544856D02*
X164662380Y-105592475D01*
X164662380Y-105592475D02*
X164471904Y-105592475D01*
X164471904Y-105592475D02*
X164376666Y-105544856D01*
X164376666Y-105544856D02*
X164329047Y-105449617D01*
X164329047Y-105449617D02*
X164329047Y-105068665D01*
X164329047Y-105068665D02*
X164376666Y-104973427D01*
X164376666Y-104973427D02*
X164471904Y-104925808D01*
X164471904Y-104925808D02*
X164662380Y-104925808D01*
X164662380Y-104925808D02*
X164757618Y-104973427D01*
X164757618Y-104973427D02*
X164805237Y-105068665D01*
X164805237Y-105068665D02*
X164805237Y-105163903D01*
X164805237Y-105163903D02*
X164329047Y-105259141D01*
X165090952Y-104925808D02*
X165471904Y-104925808D01*
X165233809Y-105592475D02*
X165233809Y-104735332D01*
X165233809Y-104735332D02*
X165281428Y-104640094D01*
X165281428Y-104640094D02*
X165376666Y-104592475D01*
X165376666Y-104592475D02*
X165471904Y-104592475D01*
X166186190Y-105544856D02*
X166090952Y-105592475D01*
X166090952Y-105592475D02*
X165900476Y-105592475D01*
X165900476Y-105592475D02*
X165805238Y-105544856D01*
X165805238Y-105544856D02*
X165757619Y-105449617D01*
X165757619Y-105449617D02*
X165757619Y-105068665D01*
X165757619Y-105068665D02*
X165805238Y-104973427D01*
X165805238Y-104973427D02*
X165900476Y-104925808D01*
X165900476Y-104925808D02*
X166090952Y-104925808D01*
X166090952Y-104925808D02*
X166186190Y-104973427D01*
X166186190Y-104973427D02*
X166233809Y-105068665D01*
X166233809Y-105068665D02*
X166233809Y-105163903D01*
X166233809Y-105163903D02*
X165757619Y-105259141D01*
X166662381Y-105592475D02*
X166662381Y-104925808D01*
X166662381Y-105116284D02*
X166710000Y-105021046D01*
X166710000Y-105021046D02*
X166757619Y-104973427D01*
X166757619Y-104973427D02*
X166852857Y-104925808D01*
X166852857Y-104925808D02*
X166948095Y-104925808D01*
X167662381Y-105544856D02*
X167567143Y-105592475D01*
X167567143Y-105592475D02*
X167376667Y-105592475D01*
X167376667Y-105592475D02*
X167281429Y-105544856D01*
X167281429Y-105544856D02*
X167233810Y-105449617D01*
X167233810Y-105449617D02*
X167233810Y-105068665D01*
X167233810Y-105068665D02*
X167281429Y-104973427D01*
X167281429Y-104973427D02*
X167376667Y-104925808D01*
X167376667Y-104925808D02*
X167567143Y-104925808D01*
X167567143Y-104925808D02*
X167662381Y-104973427D01*
X167662381Y-104973427D02*
X167710000Y-105068665D01*
X167710000Y-105068665D02*
X167710000Y-105163903D01*
X167710000Y-105163903D02*
X167233810Y-105259141D01*
X168138572Y-104925808D02*
X168138572Y-105592475D01*
X168138572Y-105021046D02*
X168186191Y-104973427D01*
X168186191Y-104973427D02*
X168281429Y-104925808D01*
X168281429Y-104925808D02*
X168424286Y-104925808D01*
X168424286Y-104925808D02*
X168519524Y-104973427D01*
X168519524Y-104973427D02*
X168567143Y-105068665D01*
X168567143Y-105068665D02*
X168567143Y-105592475D01*
X169471905Y-105544856D02*
X169376667Y-105592475D01*
X169376667Y-105592475D02*
X169186191Y-105592475D01*
X169186191Y-105592475D02*
X169090953Y-105544856D01*
X169090953Y-105544856D02*
X169043334Y-105497236D01*
X169043334Y-105497236D02*
X168995715Y-105401998D01*
X168995715Y-105401998D02*
X168995715Y-105116284D01*
X168995715Y-105116284D02*
X169043334Y-105021046D01*
X169043334Y-105021046D02*
X169090953Y-104973427D01*
X169090953Y-104973427D02*
X169186191Y-104925808D01*
X169186191Y-104925808D02*
X169376667Y-104925808D01*
X169376667Y-104925808D02*
X169471905Y-104973427D01*
X170281429Y-105544856D02*
X170186191Y-105592475D01*
X170186191Y-105592475D02*
X169995715Y-105592475D01*
X169995715Y-105592475D02*
X169900477Y-105544856D01*
X169900477Y-105544856D02*
X169852858Y-105449617D01*
X169852858Y-105449617D02*
X169852858Y-105068665D01*
X169852858Y-105068665D02*
X169900477Y-104973427D01*
X169900477Y-104973427D02*
X169995715Y-104925808D01*
X169995715Y-104925808D02*
X170186191Y-104925808D01*
X170186191Y-104925808D02*
X170281429Y-104973427D01*
X170281429Y-104973427D02*
X170329048Y-105068665D01*
X170329048Y-105068665D02*
X170329048Y-105163903D01*
X170329048Y-105163903D02*
X169852858Y-105259141D01*
X164543333Y-106202419D02*
X164876666Y-107202419D01*
X164876666Y-107202419D02*
X165209999Y-106202419D01*
X165686190Y-107202419D02*
X165590952Y-107154800D01*
X165590952Y-107154800D02*
X165543333Y-107107180D01*
X165543333Y-107107180D02*
X165495714Y-107011942D01*
X165495714Y-107011942D02*
X165495714Y-106726228D01*
X165495714Y-106726228D02*
X165543333Y-106630990D01*
X165543333Y-106630990D02*
X165590952Y-106583371D01*
X165590952Y-106583371D02*
X165686190Y-106535752D01*
X165686190Y-106535752D02*
X165829047Y-106535752D01*
X165829047Y-106535752D02*
X165924285Y-106583371D01*
X165924285Y-106583371D02*
X165971904Y-106630990D01*
X165971904Y-106630990D02*
X166019523Y-106726228D01*
X166019523Y-106726228D02*
X166019523Y-107011942D01*
X166019523Y-107011942D02*
X165971904Y-107107180D01*
X165971904Y-107107180D02*
X165924285Y-107154800D01*
X165924285Y-107154800D02*
X165829047Y-107202419D01*
X165829047Y-107202419D02*
X165686190Y-107202419D01*
X166590952Y-107202419D02*
X166495714Y-107154800D01*
X166495714Y-107154800D02*
X166448095Y-107059561D01*
X166448095Y-107059561D02*
X166448095Y-106202419D01*
X166829048Y-106535752D02*
X167210000Y-106535752D01*
X166971905Y-106202419D02*
X166971905Y-107059561D01*
X166971905Y-107059561D02*
X167019524Y-107154800D01*
X167019524Y-107154800D02*
X167114762Y-107202419D01*
X167114762Y-107202419D02*
X167210000Y-107202419D01*
X167971905Y-107202419D02*
X167971905Y-106678609D01*
X167971905Y-106678609D02*
X167924286Y-106583371D01*
X167924286Y-106583371D02*
X167829048Y-106535752D01*
X167829048Y-106535752D02*
X167638572Y-106535752D01*
X167638572Y-106535752D02*
X167543334Y-106583371D01*
X167971905Y-107154800D02*
X167876667Y-107202419D01*
X167876667Y-107202419D02*
X167638572Y-107202419D01*
X167638572Y-107202419D02*
X167543334Y-107154800D01*
X167543334Y-107154800D02*
X167495715Y-107059561D01*
X167495715Y-107059561D02*
X167495715Y-106964323D01*
X167495715Y-106964323D02*
X167543334Y-106869085D01*
X167543334Y-106869085D02*
X167638572Y-106821466D01*
X167638572Y-106821466D02*
X167876667Y-106821466D01*
X167876667Y-106821466D02*
X167971905Y-106773847D01*
X168876667Y-106535752D02*
X168876667Y-107345276D01*
X168876667Y-107345276D02*
X168829048Y-107440514D01*
X168829048Y-107440514D02*
X168781429Y-107488133D01*
X168781429Y-107488133D02*
X168686191Y-107535752D01*
X168686191Y-107535752D02*
X168543334Y-107535752D01*
X168543334Y-107535752D02*
X168448096Y-107488133D01*
X168876667Y-107154800D02*
X168781429Y-107202419D01*
X168781429Y-107202419D02*
X168590953Y-107202419D01*
X168590953Y-107202419D02*
X168495715Y-107154800D01*
X168495715Y-107154800D02*
X168448096Y-107107180D01*
X168448096Y-107107180D02*
X168400477Y-107011942D01*
X168400477Y-107011942D02*
X168400477Y-106726228D01*
X168400477Y-106726228D02*
X168448096Y-106630990D01*
X168448096Y-106630990D02*
X168495715Y-106583371D01*
X168495715Y-106583371D02*
X168590953Y-106535752D01*
X168590953Y-106535752D02*
X168781429Y-106535752D01*
X168781429Y-106535752D02*
X168876667Y-106583371D01*
X169733810Y-107154800D02*
X169638572Y-107202419D01*
X169638572Y-107202419D02*
X169448096Y-107202419D01*
X169448096Y-107202419D02*
X169352858Y-107154800D01*
X169352858Y-107154800D02*
X169305239Y-107059561D01*
X169305239Y-107059561D02*
X169305239Y-106678609D01*
X169305239Y-106678609D02*
X169352858Y-106583371D01*
X169352858Y-106583371D02*
X169448096Y-106535752D01*
X169448096Y-106535752D02*
X169638572Y-106535752D01*
X169638572Y-106535752D02*
X169733810Y-106583371D01*
X169733810Y-106583371D02*
X169781429Y-106678609D01*
X169781429Y-106678609D02*
X169781429Y-106773847D01*
X169781429Y-106773847D02*
X169305239Y-106869085D01*
X187224360Y-99362419D02*
X187414836Y-99362419D01*
X187414836Y-99362419D02*
X187510074Y-99410038D01*
X187510074Y-99410038D02*
X187605312Y-99505276D01*
X187605312Y-99505276D02*
X187652931Y-99695752D01*
X187652931Y-99695752D02*
X187652931Y-100029085D01*
X187652931Y-100029085D02*
X187605312Y-100219561D01*
X187605312Y-100219561D02*
X187510074Y-100314800D01*
X187510074Y-100314800D02*
X187414836Y-100362419D01*
X187414836Y-100362419D02*
X187224360Y-100362419D01*
X187224360Y-100362419D02*
X187129122Y-100314800D01*
X187129122Y-100314800D02*
X187033884Y-100219561D01*
X187033884Y-100219561D02*
X186986265Y-100029085D01*
X186986265Y-100029085D02*
X186986265Y-99695752D01*
X186986265Y-99695752D02*
X187033884Y-99505276D01*
X187033884Y-99505276D02*
X187129122Y-99410038D01*
X187129122Y-99410038D02*
X187224360Y-99362419D01*
X188081503Y-100362419D02*
X188081503Y-99362419D01*
X188081503Y-99362419D02*
X188652931Y-100362419D01*
X188652931Y-100362419D02*
X188652931Y-99362419D01*
X127682419Y-105772306D02*
X127682419Y-106343734D01*
X127682419Y-106058020D02*
X126682419Y-106058020D01*
X126682419Y-106058020D02*
X126825276Y-106153258D01*
X126825276Y-106153258D02*
X126920514Y-106248496D01*
X126920514Y-106248496D02*
X126968133Y-106343734D01*
X126777657Y-105391353D02*
X126730038Y-105343734D01*
X126730038Y-105343734D02*
X126682419Y-105248496D01*
X126682419Y-105248496D02*
X126682419Y-105010401D01*
X126682419Y-105010401D02*
X126730038Y-104915163D01*
X126730038Y-104915163D02*
X126777657Y-104867544D01*
X126777657Y-104867544D02*
X126872895Y-104819925D01*
X126872895Y-104819925D02*
X126968133Y-104819925D01*
X126968133Y-104819925D02*
X127110990Y-104867544D01*
X127110990Y-104867544D02*
X127682419Y-105438972D01*
X127682419Y-105438972D02*
X127682419Y-104819925D01*
X126682419Y-104534210D02*
X127682419Y-104200877D01*
X127682419Y-104200877D02*
X126682419Y-103867544D01*
X118304800Y-56873734D02*
X118352419Y-56730877D01*
X118352419Y-56730877D02*
X118352419Y-56492782D01*
X118352419Y-56492782D02*
X118304800Y-56397544D01*
X118304800Y-56397544D02*
X118257180Y-56349925D01*
X118257180Y-56349925D02*
X118161942Y-56302306D01*
X118161942Y-56302306D02*
X118066704Y-56302306D01*
X118066704Y-56302306D02*
X117971466Y-56349925D01*
X117971466Y-56349925D02*
X117923847Y-56397544D01*
X117923847Y-56397544D02*
X117876228Y-56492782D01*
X117876228Y-56492782D02*
X117828609Y-56683258D01*
X117828609Y-56683258D02*
X117780990Y-56778496D01*
X117780990Y-56778496D02*
X117733371Y-56826115D01*
X117733371Y-56826115D02*
X117638133Y-56873734D01*
X117638133Y-56873734D02*
X117542895Y-56873734D01*
X117542895Y-56873734D02*
X117447657Y-56826115D01*
X117447657Y-56826115D02*
X117400038Y-56778496D01*
X117400038Y-56778496D02*
X117352419Y-56683258D01*
X117352419Y-56683258D02*
X117352419Y-56445163D01*
X117352419Y-56445163D02*
X117400038Y-56302306D01*
X118352419Y-55873734D02*
X117352419Y-55873734D01*
X117400038Y-54873735D02*
X117352419Y-54968973D01*
X117352419Y-54968973D02*
X117352419Y-55111830D01*
X117352419Y-55111830D02*
X117400038Y-55254687D01*
X117400038Y-55254687D02*
X117495276Y-55349925D01*
X117495276Y-55349925D02*
X117590514Y-55397544D01*
X117590514Y-55397544D02*
X117780990Y-55445163D01*
X117780990Y-55445163D02*
X117923847Y-55445163D01*
X117923847Y-55445163D02*
X118114323Y-55397544D01*
X118114323Y-55397544D02*
X118209561Y-55349925D01*
X118209561Y-55349925D02*
X118304800Y-55254687D01*
X118304800Y-55254687D02*
X118352419Y-55111830D01*
X118352419Y-55111830D02*
X118352419Y-55016592D01*
X118352419Y-55016592D02*
X118304800Y-54873735D01*
X118304800Y-54873735D02*
X118257180Y-54826116D01*
X118257180Y-54826116D02*
X117923847Y-54826116D01*
X117923847Y-54826116D02*
X117923847Y-55016592D01*
X148296115Y-54848533D02*
X147534211Y-54848533D01*
X140904360Y-78152419D02*
X141094836Y-78152419D01*
X141094836Y-78152419D02*
X141190074Y-78200038D01*
X141190074Y-78200038D02*
X141285312Y-78295276D01*
X141285312Y-78295276D02*
X141332931Y-78485752D01*
X141332931Y-78485752D02*
X141332931Y-78819085D01*
X141332931Y-78819085D02*
X141285312Y-79009561D01*
X141285312Y-79009561D02*
X141190074Y-79104800D01*
X141190074Y-79104800D02*
X141094836Y-79152419D01*
X141094836Y-79152419D02*
X140904360Y-79152419D01*
X140904360Y-79152419D02*
X140809122Y-79104800D01*
X140809122Y-79104800D02*
X140713884Y-79009561D01*
X140713884Y-79009561D02*
X140666265Y-78819085D01*
X140666265Y-78819085D02*
X140666265Y-78485752D01*
X140666265Y-78485752D02*
X140713884Y-78295276D01*
X140713884Y-78295276D02*
X140809122Y-78200038D01*
X140809122Y-78200038D02*
X140904360Y-78152419D01*
X141761503Y-79152419D02*
X141761503Y-78152419D01*
X141761503Y-78152419D02*
X142332931Y-79152419D01*
X142332931Y-79152419D02*
X142332931Y-78152419D01*
D11*
X109178095Y-67184819D02*
X109749523Y-67184819D01*
X109463809Y-68184819D02*
X109463809Y-67184819D01*
X110082857Y-68184819D02*
X110082857Y-67184819D01*
X110082857Y-67184819D02*
X110463809Y-67184819D01*
X110463809Y-67184819D02*
X110559047Y-67232438D01*
X110559047Y-67232438D02*
X110606666Y-67280057D01*
X110606666Y-67280057D02*
X110654285Y-67375295D01*
X110654285Y-67375295D02*
X110654285Y-67518152D01*
X110654285Y-67518152D02*
X110606666Y-67613390D01*
X110606666Y-67613390D02*
X110559047Y-67661009D01*
X110559047Y-67661009D02*
X110463809Y-67708628D01*
X110463809Y-67708628D02*
X110082857Y-67708628D01*
X110987619Y-67184819D02*
X111654285Y-67184819D01*
X111654285Y-67184819D02*
X111225714Y-68184819D01*
X175688095Y-55174819D02*
X176259523Y-55174819D01*
X175973809Y-56174819D02*
X175973809Y-55174819D01*
X176592857Y-56174819D02*
X176592857Y-55174819D01*
X176592857Y-55174819D02*
X176973809Y-55174819D01*
X176973809Y-55174819D02*
X177069047Y-55222438D01*
X177069047Y-55222438D02*
X177116666Y-55270057D01*
X177116666Y-55270057D02*
X177164285Y-55365295D01*
X177164285Y-55365295D02*
X177164285Y-55508152D01*
X177164285Y-55508152D02*
X177116666Y-55603390D01*
X177116666Y-55603390D02*
X177069047Y-55651009D01*
X177069047Y-55651009D02*
X176973809Y-55698628D01*
X176973809Y-55698628D02*
X176592857Y-55698628D01*
X177735714Y-55603390D02*
X177640476Y-55555771D01*
X177640476Y-55555771D02*
X177592857Y-55508152D01*
X177592857Y-55508152D02*
X177545238Y-55412914D01*
X177545238Y-55412914D02*
X177545238Y-55365295D01*
X177545238Y-55365295D02*
X177592857Y-55270057D01*
X177592857Y-55270057D02*
X177640476Y-55222438D01*
X177640476Y-55222438D02*
X177735714Y-55174819D01*
X177735714Y-55174819D02*
X177926190Y-55174819D01*
X177926190Y-55174819D02*
X178021428Y-55222438D01*
X178021428Y-55222438D02*
X178069047Y-55270057D01*
X178069047Y-55270057D02*
X178116666Y-55365295D01*
X178116666Y-55365295D02*
X178116666Y-55412914D01*
X178116666Y-55412914D02*
X178069047Y-55508152D01*
X178069047Y-55508152D02*
X178021428Y-55555771D01*
X178021428Y-55555771D02*
X177926190Y-55603390D01*
X177926190Y-55603390D02*
X177735714Y-55603390D01*
X177735714Y-55603390D02*
X177640476Y-55651009D01*
X177640476Y-55651009D02*
X177592857Y-55698628D01*
X177592857Y-55698628D02*
X177545238Y-55793866D01*
X177545238Y-55793866D02*
X177545238Y-55984342D01*
X177545238Y-55984342D02*
X177592857Y-56079580D01*
X177592857Y-56079580D02*
X177640476Y-56127200D01*
X177640476Y-56127200D02*
X177735714Y-56174819D01*
X177735714Y-56174819D02*
X177926190Y-56174819D01*
X177926190Y-56174819D02*
X178021428Y-56127200D01*
X178021428Y-56127200D02*
X178069047Y-56079580D01*
X178069047Y-56079580D02*
X178116666Y-55984342D01*
X178116666Y-55984342D02*
X178116666Y-55793866D01*
X178116666Y-55793866D02*
X178069047Y-55698628D01*
X178069047Y-55698628D02*
X178021428Y-55651009D01*
X178021428Y-55651009D02*
X177926190Y-55603390D01*
X166074761Y-96184819D02*
X165741428Y-95708628D01*
X165503333Y-96184819D02*
X165503333Y-95184819D01*
X165503333Y-95184819D02*
X165884285Y-95184819D01*
X165884285Y-95184819D02*
X165979523Y-95232438D01*
X165979523Y-95232438D02*
X166027142Y-95280057D01*
X166027142Y-95280057D02*
X166074761Y-95375295D01*
X166074761Y-95375295D02*
X166074761Y-95518152D01*
X166074761Y-95518152D02*
X166027142Y-95613390D01*
X166027142Y-95613390D02*
X165979523Y-95661009D01*
X165979523Y-95661009D02*
X165884285Y-95708628D01*
X165884285Y-95708628D02*
X165503333Y-95708628D01*
X166360476Y-95184819D02*
X166693809Y-96184819D01*
X166693809Y-96184819D02*
X167027142Y-95184819D01*
X167265238Y-95184819D02*
X167884285Y-95184819D01*
X167884285Y-95184819D02*
X167550952Y-95565771D01*
X167550952Y-95565771D02*
X167693809Y-95565771D01*
X167693809Y-95565771D02*
X167789047Y-95613390D01*
X167789047Y-95613390D02*
X167836666Y-95661009D01*
X167836666Y-95661009D02*
X167884285Y-95756247D01*
X167884285Y-95756247D02*
X167884285Y-95994342D01*
X167884285Y-95994342D02*
X167836666Y-96089580D01*
X167836666Y-96089580D02*
X167789047Y-96137200D01*
X167789047Y-96137200D02*
X167693809Y-96184819D01*
X167693809Y-96184819D02*
X167408095Y-96184819D01*
X167408095Y-96184819D02*
X167312857Y-96137200D01*
X167312857Y-96137200D02*
X167265238Y-96089580D01*
X176551905Y-63294819D02*
X176551905Y-62294819D01*
X176551905Y-62294819D02*
X176790000Y-62294819D01*
X176790000Y-62294819D02*
X176932857Y-62342438D01*
X176932857Y-62342438D02*
X177028095Y-62437676D01*
X177028095Y-62437676D02*
X177075714Y-62532914D01*
X177075714Y-62532914D02*
X177123333Y-62723390D01*
X177123333Y-62723390D02*
X177123333Y-62866247D01*
X177123333Y-62866247D02*
X177075714Y-63056723D01*
X177075714Y-63056723D02*
X177028095Y-63151961D01*
X177028095Y-63151961D02*
X176932857Y-63247200D01*
X176932857Y-63247200D02*
X176790000Y-63294819D01*
X176790000Y-63294819D02*
X176551905Y-63294819D01*
X177504286Y-62390057D02*
X177551905Y-62342438D01*
X177551905Y-62342438D02*
X177647143Y-62294819D01*
X177647143Y-62294819D02*
X177885238Y-62294819D01*
X177885238Y-62294819D02*
X177980476Y-62342438D01*
X177980476Y-62342438D02*
X178028095Y-62390057D01*
X178028095Y-62390057D02*
X178075714Y-62485295D01*
X178075714Y-62485295D02*
X178075714Y-62580533D01*
X178075714Y-62580533D02*
X178028095Y-62723390D01*
X178028095Y-62723390D02*
X177456667Y-63294819D01*
X177456667Y-63294819D02*
X178075714Y-63294819D01*
X135304761Y-64784819D02*
X134971428Y-64308628D01*
X134733333Y-64784819D02*
X134733333Y-63784819D01*
X134733333Y-63784819D02*
X135114285Y-63784819D01*
X135114285Y-63784819D02*
X135209523Y-63832438D01*
X135209523Y-63832438D02*
X135257142Y-63880057D01*
X135257142Y-63880057D02*
X135304761Y-63975295D01*
X135304761Y-63975295D02*
X135304761Y-64118152D01*
X135304761Y-64118152D02*
X135257142Y-64213390D01*
X135257142Y-64213390D02*
X135209523Y-64261009D01*
X135209523Y-64261009D02*
X135114285Y-64308628D01*
X135114285Y-64308628D02*
X134733333Y-64308628D01*
X135590476Y-63784819D02*
X135923809Y-64784819D01*
X135923809Y-64784819D02*
X136257142Y-63784819D01*
X137114285Y-64784819D02*
X136542857Y-64784819D01*
X136828571Y-64784819D02*
X136828571Y-63784819D01*
X136828571Y-63784819D02*
X136733333Y-63927676D01*
X136733333Y-63927676D02*
X136638095Y-64022914D01*
X136638095Y-64022914D02*
X136542857Y-64070533D01*
X146070000Y-82764819D02*
X146070000Y-83002914D01*
X145831905Y-82907676D02*
X146070000Y-83002914D01*
X146070000Y-83002914D02*
X146308095Y-82907676D01*
X145927143Y-83193390D02*
X146070000Y-83002914D01*
X146070000Y-83002914D02*
X146212857Y-83193390D01*
X149929405Y-65974819D02*
X149929405Y-64974819D01*
X149929405Y-64974819D02*
X150167500Y-64974819D01*
X150167500Y-64974819D02*
X150310357Y-65022438D01*
X150310357Y-65022438D02*
X150405595Y-65117676D01*
X150405595Y-65117676D02*
X150453214Y-65212914D01*
X150453214Y-65212914D02*
X150500833Y-65403390D01*
X150500833Y-65403390D02*
X150500833Y-65546247D01*
X150500833Y-65546247D02*
X150453214Y-65736723D01*
X150453214Y-65736723D02*
X150405595Y-65831961D01*
X150405595Y-65831961D02*
X150310357Y-65927200D01*
X150310357Y-65927200D02*
X150167500Y-65974819D01*
X150167500Y-65974819D02*
X149929405Y-65974819D01*
X151453214Y-65974819D02*
X150881786Y-65974819D01*
X151167500Y-65974819D02*
X151167500Y-64974819D01*
X151167500Y-64974819D02*
X151072262Y-65117676D01*
X151072262Y-65117676D02*
X150977024Y-65212914D01*
X150977024Y-65212914D02*
X150881786Y-65260533D01*
X132821905Y-98364819D02*
X132821905Y-97364819D01*
X132821905Y-97364819D02*
X133060000Y-97364819D01*
X133060000Y-97364819D02*
X133202857Y-97412438D01*
X133202857Y-97412438D02*
X133298095Y-97507676D01*
X133298095Y-97507676D02*
X133345714Y-97602914D01*
X133345714Y-97602914D02*
X133393333Y-97793390D01*
X133393333Y-97793390D02*
X133393333Y-97936247D01*
X133393333Y-97936247D02*
X133345714Y-98126723D01*
X133345714Y-98126723D02*
X133298095Y-98221961D01*
X133298095Y-98221961D02*
X133202857Y-98317200D01*
X133202857Y-98317200D02*
X133060000Y-98364819D01*
X133060000Y-98364819D02*
X132821905Y-98364819D01*
X133726667Y-97364819D02*
X134345714Y-97364819D01*
X134345714Y-97364819D02*
X134012381Y-97745771D01*
X134012381Y-97745771D02*
X134155238Y-97745771D01*
X134155238Y-97745771D02*
X134250476Y-97793390D01*
X134250476Y-97793390D02*
X134298095Y-97841009D01*
X134298095Y-97841009D02*
X134345714Y-97936247D01*
X134345714Y-97936247D02*
X134345714Y-98174342D01*
X134345714Y-98174342D02*
X134298095Y-98269580D01*
X134298095Y-98269580D02*
X134250476Y-98317200D01*
X134250476Y-98317200D02*
X134155238Y-98364819D01*
X134155238Y-98364819D02*
X133869524Y-98364819D01*
X133869524Y-98364819D02*
X133774286Y-98317200D01*
X133774286Y-98317200D02*
X133726667Y-98269580D01*
X120458095Y-83084819D02*
X121029523Y-83084819D01*
X120743809Y-84084819D02*
X120743809Y-83084819D01*
X121362857Y-84084819D02*
X121362857Y-83084819D01*
X121362857Y-83084819D02*
X121743809Y-83084819D01*
X121743809Y-83084819D02*
X121839047Y-83132438D01*
X121839047Y-83132438D02*
X121886666Y-83180057D01*
X121886666Y-83180057D02*
X121934285Y-83275295D01*
X121934285Y-83275295D02*
X121934285Y-83418152D01*
X121934285Y-83418152D02*
X121886666Y-83513390D01*
X121886666Y-83513390D02*
X121839047Y-83561009D01*
X121839047Y-83561009D02*
X121743809Y-83608628D01*
X121743809Y-83608628D02*
X121362857Y-83608628D01*
X122886666Y-84084819D02*
X122315238Y-84084819D01*
X122600952Y-84084819D02*
X122600952Y-83084819D01*
X122600952Y-83084819D02*
X122505714Y-83227676D01*
X122505714Y-83227676D02*
X122410476Y-83322914D01*
X122410476Y-83322914D02*
X122315238Y-83370533D01*
X125063333Y-78179580D02*
X125015714Y-78227200D01*
X125015714Y-78227200D02*
X124872857Y-78274819D01*
X124872857Y-78274819D02*
X124777619Y-78274819D01*
X124777619Y-78274819D02*
X124634762Y-78227200D01*
X124634762Y-78227200D02*
X124539524Y-78131961D01*
X124539524Y-78131961D02*
X124491905Y-78036723D01*
X124491905Y-78036723D02*
X124444286Y-77846247D01*
X124444286Y-77846247D02*
X124444286Y-77703390D01*
X124444286Y-77703390D02*
X124491905Y-77512914D01*
X124491905Y-77512914D02*
X124539524Y-77417676D01*
X124539524Y-77417676D02*
X124634762Y-77322438D01*
X124634762Y-77322438D02*
X124777619Y-77274819D01*
X124777619Y-77274819D02*
X124872857Y-77274819D01*
X124872857Y-77274819D02*
X125015714Y-77322438D01*
X125015714Y-77322438D02*
X125063333Y-77370057D01*
X125444286Y-77370057D02*
X125491905Y-77322438D01*
X125491905Y-77322438D02*
X125587143Y-77274819D01*
X125587143Y-77274819D02*
X125825238Y-77274819D01*
X125825238Y-77274819D02*
X125920476Y-77322438D01*
X125920476Y-77322438D02*
X125968095Y-77370057D01*
X125968095Y-77370057D02*
X126015714Y-77465295D01*
X126015714Y-77465295D02*
X126015714Y-77560533D01*
X126015714Y-77560533D02*
X125968095Y-77703390D01*
X125968095Y-77703390D02*
X125396667Y-78274819D01*
X125396667Y-78274819D02*
X126015714Y-78274819D01*
X162660595Y-56502200D02*
X162803452Y-56549819D01*
X162803452Y-56549819D02*
X163041547Y-56549819D01*
X163041547Y-56549819D02*
X163136785Y-56502200D01*
X163136785Y-56502200D02*
X163184404Y-56454580D01*
X163184404Y-56454580D02*
X163232023Y-56359342D01*
X163232023Y-56359342D02*
X163232023Y-56264104D01*
X163232023Y-56264104D02*
X163184404Y-56168866D01*
X163184404Y-56168866D02*
X163136785Y-56121247D01*
X163136785Y-56121247D02*
X163041547Y-56073628D01*
X163041547Y-56073628D02*
X162851071Y-56026009D01*
X162851071Y-56026009D02*
X162755833Y-55978390D01*
X162755833Y-55978390D02*
X162708214Y-55930771D01*
X162708214Y-55930771D02*
X162660595Y-55835533D01*
X162660595Y-55835533D02*
X162660595Y-55740295D01*
X162660595Y-55740295D02*
X162708214Y-55645057D01*
X162708214Y-55645057D02*
X162755833Y-55597438D01*
X162755833Y-55597438D02*
X162851071Y-55549819D01*
X162851071Y-55549819D02*
X163089166Y-55549819D01*
X163089166Y-55549819D02*
X163232023Y-55597438D01*
X164184404Y-56549819D02*
X163612976Y-56549819D01*
X163898690Y-56549819D02*
X163898690Y-55549819D01*
X163898690Y-55549819D02*
X163803452Y-55692676D01*
X163803452Y-55692676D02*
X163708214Y-55787914D01*
X163708214Y-55787914D02*
X163612976Y-55835533D01*
X187853333Y-93439580D02*
X187805714Y-93487200D01*
X187805714Y-93487200D02*
X187662857Y-93534819D01*
X187662857Y-93534819D02*
X187567619Y-93534819D01*
X187567619Y-93534819D02*
X187424762Y-93487200D01*
X187424762Y-93487200D02*
X187329524Y-93391961D01*
X187329524Y-93391961D02*
X187281905Y-93296723D01*
X187281905Y-93296723D02*
X187234286Y-93106247D01*
X187234286Y-93106247D02*
X187234286Y-92963390D01*
X187234286Y-92963390D02*
X187281905Y-92772914D01*
X187281905Y-92772914D02*
X187329524Y-92677676D01*
X187329524Y-92677676D02*
X187424762Y-92582438D01*
X187424762Y-92582438D02*
X187567619Y-92534819D01*
X187567619Y-92534819D02*
X187662857Y-92534819D01*
X187662857Y-92534819D02*
X187805714Y-92582438D01*
X187805714Y-92582438D02*
X187853333Y-92630057D01*
X188186667Y-92534819D02*
X188853333Y-92534819D01*
X188853333Y-92534819D02*
X188424762Y-93534819D01*
X116351905Y-107494819D02*
X116351905Y-106494819D01*
X116351905Y-106494819D02*
X116590000Y-106494819D01*
X116590000Y-106494819D02*
X116732857Y-106542438D01*
X116732857Y-106542438D02*
X116828095Y-106637676D01*
X116828095Y-106637676D02*
X116875714Y-106732914D01*
X116875714Y-106732914D02*
X116923333Y-106923390D01*
X116923333Y-106923390D02*
X116923333Y-107066247D01*
X116923333Y-107066247D02*
X116875714Y-107256723D01*
X116875714Y-107256723D02*
X116828095Y-107351961D01*
X116828095Y-107351961D02*
X116732857Y-107447200D01*
X116732857Y-107447200D02*
X116590000Y-107494819D01*
X116590000Y-107494819D02*
X116351905Y-107494819D01*
X117780476Y-106828152D02*
X117780476Y-107494819D01*
X117542381Y-106447200D02*
X117304286Y-107161485D01*
X117304286Y-107161485D02*
X117923333Y-107161485D01*
X141923333Y-82524819D02*
X141590000Y-82048628D01*
X141351905Y-82524819D02*
X141351905Y-81524819D01*
X141351905Y-81524819D02*
X141732857Y-81524819D01*
X141732857Y-81524819D02*
X141828095Y-81572438D01*
X141828095Y-81572438D02*
X141875714Y-81620057D01*
X141875714Y-81620057D02*
X141923333Y-81715295D01*
X141923333Y-81715295D02*
X141923333Y-81858152D01*
X141923333Y-81858152D02*
X141875714Y-81953390D01*
X141875714Y-81953390D02*
X141828095Y-82001009D01*
X141828095Y-82001009D02*
X141732857Y-82048628D01*
X141732857Y-82048628D02*
X141351905Y-82048628D01*
X142875714Y-82524819D02*
X142304286Y-82524819D01*
X142590000Y-82524819D02*
X142590000Y-81524819D01*
X142590000Y-81524819D02*
X142494762Y-81667676D01*
X142494762Y-81667676D02*
X142399524Y-81762914D01*
X142399524Y-81762914D02*
X142304286Y-81810533D01*
X159845833Y-76064580D02*
X159798214Y-76112200D01*
X159798214Y-76112200D02*
X159655357Y-76159819D01*
X159655357Y-76159819D02*
X159560119Y-76159819D01*
X159560119Y-76159819D02*
X159417262Y-76112200D01*
X159417262Y-76112200D02*
X159322024Y-76016961D01*
X159322024Y-76016961D02*
X159274405Y-75921723D01*
X159274405Y-75921723D02*
X159226786Y-75731247D01*
X159226786Y-75731247D02*
X159226786Y-75588390D01*
X159226786Y-75588390D02*
X159274405Y-75397914D01*
X159274405Y-75397914D02*
X159322024Y-75302676D01*
X159322024Y-75302676D02*
X159417262Y-75207438D01*
X159417262Y-75207438D02*
X159560119Y-75159819D01*
X159560119Y-75159819D02*
X159655357Y-75159819D01*
X159655357Y-75159819D02*
X159798214Y-75207438D01*
X159798214Y-75207438D02*
X159845833Y-75255057D01*
X160702976Y-75159819D02*
X160512500Y-75159819D01*
X160512500Y-75159819D02*
X160417262Y-75207438D01*
X160417262Y-75207438D02*
X160369643Y-75255057D01*
X160369643Y-75255057D02*
X160274405Y-75397914D01*
X160274405Y-75397914D02*
X160226786Y-75588390D01*
X160226786Y-75588390D02*
X160226786Y-75969342D01*
X160226786Y-75969342D02*
X160274405Y-76064580D01*
X160274405Y-76064580D02*
X160322024Y-76112200D01*
X160322024Y-76112200D02*
X160417262Y-76159819D01*
X160417262Y-76159819D02*
X160607738Y-76159819D01*
X160607738Y-76159819D02*
X160702976Y-76112200D01*
X160702976Y-76112200D02*
X160750595Y-76064580D01*
X160750595Y-76064580D02*
X160798214Y-75969342D01*
X160798214Y-75969342D02*
X160798214Y-75731247D01*
X160798214Y-75731247D02*
X160750595Y-75636009D01*
X160750595Y-75636009D02*
X160702976Y-75588390D01*
X160702976Y-75588390D02*
X160607738Y-75540771D01*
X160607738Y-75540771D02*
X160417262Y-75540771D01*
X160417262Y-75540771D02*
X160322024Y-75588390D01*
X160322024Y-75588390D02*
X160274405Y-75636009D01*
X160274405Y-75636009D02*
X160226786Y-75731247D01*
X131593333Y-88149580D02*
X131545714Y-88197200D01*
X131545714Y-88197200D02*
X131402857Y-88244819D01*
X131402857Y-88244819D02*
X131307619Y-88244819D01*
X131307619Y-88244819D02*
X131164762Y-88197200D01*
X131164762Y-88197200D02*
X131069524Y-88101961D01*
X131069524Y-88101961D02*
X131021905Y-88006723D01*
X131021905Y-88006723D02*
X130974286Y-87816247D01*
X130974286Y-87816247D02*
X130974286Y-87673390D01*
X130974286Y-87673390D02*
X131021905Y-87482914D01*
X131021905Y-87482914D02*
X131069524Y-87387676D01*
X131069524Y-87387676D02*
X131164762Y-87292438D01*
X131164762Y-87292438D02*
X131307619Y-87244819D01*
X131307619Y-87244819D02*
X131402857Y-87244819D01*
X131402857Y-87244819D02*
X131545714Y-87292438D01*
X131545714Y-87292438D02*
X131593333Y-87340057D01*
X132450476Y-87578152D02*
X132450476Y-88244819D01*
X132212381Y-87197200D02*
X131974286Y-87911485D01*
X131974286Y-87911485D02*
X132593333Y-87911485D01*
X163777319Y-73261666D02*
X163301128Y-73594999D01*
X163777319Y-73833094D02*
X162777319Y-73833094D01*
X162777319Y-73833094D02*
X162777319Y-73452142D01*
X162777319Y-73452142D02*
X162824938Y-73356904D01*
X162824938Y-73356904D02*
X162872557Y-73309285D01*
X162872557Y-73309285D02*
X162967795Y-73261666D01*
X162967795Y-73261666D02*
X163110652Y-73261666D01*
X163110652Y-73261666D02*
X163205890Y-73309285D01*
X163205890Y-73309285D02*
X163253509Y-73356904D01*
X163253509Y-73356904D02*
X163301128Y-73452142D01*
X163301128Y-73452142D02*
X163301128Y-73833094D01*
X162777319Y-72928332D02*
X162777319Y-72309285D01*
X162777319Y-72309285D02*
X163158271Y-72642618D01*
X163158271Y-72642618D02*
X163158271Y-72499761D01*
X163158271Y-72499761D02*
X163205890Y-72404523D01*
X163205890Y-72404523D02*
X163253509Y-72356904D01*
X163253509Y-72356904D02*
X163348747Y-72309285D01*
X163348747Y-72309285D02*
X163586842Y-72309285D01*
X163586842Y-72309285D02*
X163682080Y-72356904D01*
X163682080Y-72356904D02*
X163729700Y-72404523D01*
X163729700Y-72404523D02*
X163777319Y-72499761D01*
X163777319Y-72499761D02*
X163777319Y-72785475D01*
X163777319Y-72785475D02*
X163729700Y-72880713D01*
X163729700Y-72880713D02*
X163682080Y-72928332D01*
X125618095Y-69204819D02*
X126189523Y-69204819D01*
X125903809Y-70204819D02*
X125903809Y-69204819D01*
X126522857Y-70204819D02*
X126522857Y-69204819D01*
X126522857Y-69204819D02*
X126903809Y-69204819D01*
X126903809Y-69204819D02*
X126999047Y-69252438D01*
X126999047Y-69252438D02*
X127046666Y-69300057D01*
X127046666Y-69300057D02*
X127094285Y-69395295D01*
X127094285Y-69395295D02*
X127094285Y-69538152D01*
X127094285Y-69538152D02*
X127046666Y-69633390D01*
X127046666Y-69633390D02*
X126999047Y-69681009D01*
X126999047Y-69681009D02*
X126903809Y-69728628D01*
X126903809Y-69728628D02*
X126522857Y-69728628D01*
X127951428Y-69204819D02*
X127760952Y-69204819D01*
X127760952Y-69204819D02*
X127665714Y-69252438D01*
X127665714Y-69252438D02*
X127618095Y-69300057D01*
X127618095Y-69300057D02*
X127522857Y-69442914D01*
X127522857Y-69442914D02*
X127475238Y-69633390D01*
X127475238Y-69633390D02*
X127475238Y-70014342D01*
X127475238Y-70014342D02*
X127522857Y-70109580D01*
X127522857Y-70109580D02*
X127570476Y-70157200D01*
X127570476Y-70157200D02*
X127665714Y-70204819D01*
X127665714Y-70204819D02*
X127856190Y-70204819D01*
X127856190Y-70204819D02*
X127951428Y-70157200D01*
X127951428Y-70157200D02*
X127999047Y-70109580D01*
X127999047Y-70109580D02*
X128046666Y-70014342D01*
X128046666Y-70014342D02*
X128046666Y-69776247D01*
X128046666Y-69776247D02*
X127999047Y-69681009D01*
X127999047Y-69681009D02*
X127951428Y-69633390D01*
X127951428Y-69633390D02*
X127856190Y-69585771D01*
X127856190Y-69585771D02*
X127665714Y-69585771D01*
X127665714Y-69585771D02*
X127570476Y-69633390D01*
X127570476Y-69633390D02*
X127522857Y-69681009D01*
X127522857Y-69681009D02*
X127475238Y-69776247D01*
X132656666Y-75404819D02*
X132656666Y-76119104D01*
X132656666Y-76119104D02*
X132609047Y-76261961D01*
X132609047Y-76261961D02*
X132513809Y-76357200D01*
X132513809Y-76357200D02*
X132370952Y-76404819D01*
X132370952Y-76404819D02*
X132275714Y-76404819D01*
X133085238Y-75500057D02*
X133132857Y-75452438D01*
X133132857Y-75452438D02*
X133228095Y-75404819D01*
X133228095Y-75404819D02*
X133466190Y-75404819D01*
X133466190Y-75404819D02*
X133561428Y-75452438D01*
X133561428Y-75452438D02*
X133609047Y-75500057D01*
X133609047Y-75500057D02*
X133656666Y-75595295D01*
X133656666Y-75595295D02*
X133656666Y-75690533D01*
X133656666Y-75690533D02*
X133609047Y-75833390D01*
X133609047Y-75833390D02*
X133037619Y-76404819D01*
X133037619Y-76404819D02*
X133656666Y-76404819D01*
X137594819Y-91846666D02*
X137118628Y-92179999D01*
X137594819Y-92418094D02*
X136594819Y-92418094D01*
X136594819Y-92418094D02*
X136594819Y-92037142D01*
X136594819Y-92037142D02*
X136642438Y-91941904D01*
X136642438Y-91941904D02*
X136690057Y-91894285D01*
X136690057Y-91894285D02*
X136785295Y-91846666D01*
X136785295Y-91846666D02*
X136928152Y-91846666D01*
X136928152Y-91846666D02*
X137023390Y-91894285D01*
X137023390Y-91894285D02*
X137071009Y-91941904D01*
X137071009Y-91941904D02*
X137118628Y-92037142D01*
X137118628Y-92037142D02*
X137118628Y-92418094D01*
X136594819Y-90989523D02*
X136594819Y-91179999D01*
X136594819Y-91179999D02*
X136642438Y-91275237D01*
X136642438Y-91275237D02*
X136690057Y-91322856D01*
X136690057Y-91322856D02*
X136832914Y-91418094D01*
X136832914Y-91418094D02*
X137023390Y-91465713D01*
X137023390Y-91465713D02*
X137404342Y-91465713D01*
X137404342Y-91465713D02*
X137499580Y-91418094D01*
X137499580Y-91418094D02*
X137547200Y-91370475D01*
X137547200Y-91370475D02*
X137594819Y-91275237D01*
X137594819Y-91275237D02*
X137594819Y-91084761D01*
X137594819Y-91084761D02*
X137547200Y-90989523D01*
X137547200Y-90989523D02*
X137499580Y-90941904D01*
X137499580Y-90941904D02*
X137404342Y-90894285D01*
X137404342Y-90894285D02*
X137166247Y-90894285D01*
X137166247Y-90894285D02*
X137071009Y-90941904D01*
X137071009Y-90941904D02*
X137023390Y-90989523D01*
X137023390Y-90989523D02*
X136975771Y-91084761D01*
X136975771Y-91084761D02*
X136975771Y-91275237D01*
X136975771Y-91275237D02*
X137023390Y-91370475D01*
X137023390Y-91370475D02*
X137071009Y-91418094D01*
X137071009Y-91418094D02*
X137166247Y-91465713D01*
X183377080Y-66176666D02*
X183424700Y-66224285D01*
X183424700Y-66224285D02*
X183472319Y-66367142D01*
X183472319Y-66367142D02*
X183472319Y-66462380D01*
X183472319Y-66462380D02*
X183424700Y-66605237D01*
X183424700Y-66605237D02*
X183329461Y-66700475D01*
X183329461Y-66700475D02*
X183234223Y-66748094D01*
X183234223Y-66748094D02*
X183043747Y-66795713D01*
X183043747Y-66795713D02*
X182900890Y-66795713D01*
X182900890Y-66795713D02*
X182710414Y-66748094D01*
X182710414Y-66748094D02*
X182615176Y-66700475D01*
X182615176Y-66700475D02*
X182519938Y-66605237D01*
X182519938Y-66605237D02*
X182472319Y-66462380D01*
X182472319Y-66462380D02*
X182472319Y-66367142D01*
X182472319Y-66367142D02*
X182519938Y-66224285D01*
X182519938Y-66224285D02*
X182567557Y-66176666D01*
X182472319Y-65271904D02*
X182472319Y-65748094D01*
X182472319Y-65748094D02*
X182948509Y-65795713D01*
X182948509Y-65795713D02*
X182900890Y-65748094D01*
X182900890Y-65748094D02*
X182853271Y-65652856D01*
X182853271Y-65652856D02*
X182853271Y-65414761D01*
X182853271Y-65414761D02*
X182900890Y-65319523D01*
X182900890Y-65319523D02*
X182948509Y-65271904D01*
X182948509Y-65271904D02*
X183043747Y-65224285D01*
X183043747Y-65224285D02*
X183281842Y-65224285D01*
X183281842Y-65224285D02*
X183377080Y-65271904D01*
X183377080Y-65271904D02*
X183424700Y-65319523D01*
X183424700Y-65319523D02*
X183472319Y-65414761D01*
X183472319Y-65414761D02*
X183472319Y-65652856D01*
X183472319Y-65652856D02*
X183424700Y-65748094D01*
X183424700Y-65748094D02*
X183377080Y-65795713D01*
X145930000Y-102054819D02*
X145930000Y-102292914D01*
X145691905Y-102197676D02*
X145930000Y-102292914D01*
X145930000Y-102292914D02*
X146168095Y-102197676D01*
X145787143Y-102483390D02*
X145930000Y-102292914D01*
X145930000Y-102292914D02*
X146072857Y-102483390D01*
X179026666Y-96464819D02*
X179026666Y-97179104D01*
X179026666Y-97179104D02*
X178979047Y-97321961D01*
X178979047Y-97321961D02*
X178883809Y-97417200D01*
X178883809Y-97417200D02*
X178740952Y-97464819D01*
X178740952Y-97464819D02*
X178645714Y-97464819D01*
X179407619Y-96464819D02*
X180026666Y-96464819D01*
X180026666Y-96464819D02*
X179693333Y-96845771D01*
X179693333Y-96845771D02*
X179836190Y-96845771D01*
X179836190Y-96845771D02*
X179931428Y-96893390D01*
X179931428Y-96893390D02*
X179979047Y-96941009D01*
X179979047Y-96941009D02*
X180026666Y-97036247D01*
X180026666Y-97036247D02*
X180026666Y-97274342D01*
X180026666Y-97274342D02*
X179979047Y-97369580D01*
X179979047Y-97369580D02*
X179931428Y-97417200D01*
X179931428Y-97417200D02*
X179836190Y-97464819D01*
X179836190Y-97464819D02*
X179550476Y-97464819D01*
X179550476Y-97464819D02*
X179455238Y-97417200D01*
X179455238Y-97417200D02*
X179407619Y-97369580D01*
X121076666Y-58844819D02*
X121076666Y-59559104D01*
X121076666Y-59559104D02*
X121029047Y-59701961D01*
X121029047Y-59701961D02*
X120933809Y-59797200D01*
X120933809Y-59797200D02*
X120790952Y-59844819D01*
X120790952Y-59844819D02*
X120695714Y-59844819D01*
X122076666Y-59844819D02*
X121505238Y-59844819D01*
X121790952Y-59844819D02*
X121790952Y-58844819D01*
X121790952Y-58844819D02*
X121695714Y-58987676D01*
X121695714Y-58987676D02*
X121600476Y-59082914D01*
X121600476Y-59082914D02*
X121505238Y-59130533D01*
X182054761Y-83174819D02*
X181721428Y-82698628D01*
X181483333Y-83174819D02*
X181483333Y-82174819D01*
X181483333Y-82174819D02*
X181864285Y-82174819D01*
X181864285Y-82174819D02*
X181959523Y-82222438D01*
X181959523Y-82222438D02*
X182007142Y-82270057D01*
X182007142Y-82270057D02*
X182054761Y-82365295D01*
X182054761Y-82365295D02*
X182054761Y-82508152D01*
X182054761Y-82508152D02*
X182007142Y-82603390D01*
X182007142Y-82603390D02*
X181959523Y-82651009D01*
X181959523Y-82651009D02*
X181864285Y-82698628D01*
X181864285Y-82698628D02*
X181483333Y-82698628D01*
X182340476Y-82174819D02*
X182673809Y-83174819D01*
X182673809Y-83174819D02*
X183007142Y-82174819D01*
X183769047Y-82508152D02*
X183769047Y-83174819D01*
X183530952Y-82127200D02*
X183292857Y-82841485D01*
X183292857Y-82841485D02*
X183911904Y-82841485D01*
X166682976Y-68457295D02*
X166682976Y-69104914D01*
X166682976Y-69104914D02*
X166721071Y-69181104D01*
X166721071Y-69181104D02*
X166759166Y-69219200D01*
X166759166Y-69219200D02*
X166835357Y-69257295D01*
X166835357Y-69257295D02*
X166987738Y-69257295D01*
X166987738Y-69257295D02*
X167063928Y-69219200D01*
X167063928Y-69219200D02*
X167102023Y-69181104D01*
X167102023Y-69181104D02*
X167140119Y-69104914D01*
X167140119Y-69104914D02*
X167140119Y-68457295D01*
X167863928Y-68723961D02*
X167863928Y-69257295D01*
X167673452Y-68419200D02*
X167482975Y-68990628D01*
X167482975Y-68990628D02*
X167978214Y-68990628D01*
X173978095Y-69572319D02*
X173978095Y-70381842D01*
X173978095Y-70381842D02*
X174025714Y-70477080D01*
X174025714Y-70477080D02*
X174073333Y-70524700D01*
X174073333Y-70524700D02*
X174168571Y-70572319D01*
X174168571Y-70572319D02*
X174359047Y-70572319D01*
X174359047Y-70572319D02*
X174454285Y-70524700D01*
X174454285Y-70524700D02*
X174501904Y-70477080D01*
X174501904Y-70477080D02*
X174549523Y-70381842D01*
X174549523Y-70381842D02*
X174549523Y-69572319D01*
X174930476Y-69572319D02*
X175549523Y-69572319D01*
X175549523Y-69572319D02*
X175216190Y-69953271D01*
X175216190Y-69953271D02*
X175359047Y-69953271D01*
X175359047Y-69953271D02*
X175454285Y-70000890D01*
X175454285Y-70000890D02*
X175501904Y-70048509D01*
X175501904Y-70048509D02*
X175549523Y-70143747D01*
X175549523Y-70143747D02*
X175549523Y-70381842D01*
X175549523Y-70381842D02*
X175501904Y-70477080D01*
X175501904Y-70477080D02*
X175454285Y-70524700D01*
X175454285Y-70524700D02*
X175359047Y-70572319D01*
X175359047Y-70572319D02*
X175073333Y-70572319D01*
X175073333Y-70572319D02*
X174978095Y-70524700D01*
X174978095Y-70524700D02*
X174930476Y-70477080D01*
X141303333Y-101694819D02*
X140970000Y-101218628D01*
X140731905Y-101694819D02*
X140731905Y-100694819D01*
X140731905Y-100694819D02*
X141112857Y-100694819D01*
X141112857Y-100694819D02*
X141208095Y-100742438D01*
X141208095Y-100742438D02*
X141255714Y-100790057D01*
X141255714Y-100790057D02*
X141303333Y-100885295D01*
X141303333Y-100885295D02*
X141303333Y-101028152D01*
X141303333Y-101028152D02*
X141255714Y-101123390D01*
X141255714Y-101123390D02*
X141208095Y-101171009D01*
X141208095Y-101171009D02*
X141112857Y-101218628D01*
X141112857Y-101218628D02*
X140731905Y-101218628D01*
X141684286Y-100790057D02*
X141731905Y-100742438D01*
X141731905Y-100742438D02*
X141827143Y-100694819D01*
X141827143Y-100694819D02*
X142065238Y-100694819D01*
X142065238Y-100694819D02*
X142160476Y-100742438D01*
X142160476Y-100742438D02*
X142208095Y-100790057D01*
X142208095Y-100790057D02*
X142255714Y-100885295D01*
X142255714Y-100885295D02*
X142255714Y-100980533D01*
X142255714Y-100980533D02*
X142208095Y-101123390D01*
X142208095Y-101123390D02*
X141636667Y-101694819D01*
X141636667Y-101694819D02*
X142255714Y-101694819D01*
X170894819Y-65616666D02*
X170418628Y-65949999D01*
X170894819Y-66188094D02*
X169894819Y-66188094D01*
X169894819Y-66188094D02*
X169894819Y-65807142D01*
X169894819Y-65807142D02*
X169942438Y-65711904D01*
X169942438Y-65711904D02*
X169990057Y-65664285D01*
X169990057Y-65664285D02*
X170085295Y-65616666D01*
X170085295Y-65616666D02*
X170228152Y-65616666D01*
X170228152Y-65616666D02*
X170323390Y-65664285D01*
X170323390Y-65664285D02*
X170371009Y-65711904D01*
X170371009Y-65711904D02*
X170418628Y-65807142D01*
X170418628Y-65807142D02*
X170418628Y-66188094D01*
X169894819Y-64711904D02*
X169894819Y-65188094D01*
X169894819Y-65188094D02*
X170371009Y-65235713D01*
X170371009Y-65235713D02*
X170323390Y-65188094D01*
X170323390Y-65188094D02*
X170275771Y-65092856D01*
X170275771Y-65092856D02*
X170275771Y-64854761D01*
X170275771Y-64854761D02*
X170323390Y-64759523D01*
X170323390Y-64759523D02*
X170371009Y-64711904D01*
X170371009Y-64711904D02*
X170466247Y-64664285D01*
X170466247Y-64664285D02*
X170704342Y-64664285D01*
X170704342Y-64664285D02*
X170799580Y-64711904D01*
X170799580Y-64711904D02*
X170847200Y-64759523D01*
X170847200Y-64759523D02*
X170894819Y-64854761D01*
X170894819Y-64854761D02*
X170894819Y-65092856D01*
X170894819Y-65092856D02*
X170847200Y-65188094D01*
X170847200Y-65188094D02*
X170799580Y-65235713D01*
X108804761Y-77074819D02*
X108471428Y-76598628D01*
X108233333Y-77074819D02*
X108233333Y-76074819D01*
X108233333Y-76074819D02*
X108614285Y-76074819D01*
X108614285Y-76074819D02*
X108709523Y-76122438D01*
X108709523Y-76122438D02*
X108757142Y-76170057D01*
X108757142Y-76170057D02*
X108804761Y-76265295D01*
X108804761Y-76265295D02*
X108804761Y-76408152D01*
X108804761Y-76408152D02*
X108757142Y-76503390D01*
X108757142Y-76503390D02*
X108709523Y-76551009D01*
X108709523Y-76551009D02*
X108614285Y-76598628D01*
X108614285Y-76598628D02*
X108233333Y-76598628D01*
X109090476Y-76074819D02*
X109423809Y-77074819D01*
X109423809Y-77074819D02*
X109757142Y-76074819D01*
X110042857Y-76170057D02*
X110090476Y-76122438D01*
X110090476Y-76122438D02*
X110185714Y-76074819D01*
X110185714Y-76074819D02*
X110423809Y-76074819D01*
X110423809Y-76074819D02*
X110519047Y-76122438D01*
X110519047Y-76122438D02*
X110566666Y-76170057D01*
X110566666Y-76170057D02*
X110614285Y-76265295D01*
X110614285Y-76265295D02*
X110614285Y-76360533D01*
X110614285Y-76360533D02*
X110566666Y-76503390D01*
X110566666Y-76503390D02*
X109995238Y-77074819D01*
X109995238Y-77074819D02*
X110614285Y-77074819D01*
X139218095Y-93324819D02*
X139789523Y-93324819D01*
X139503809Y-94324819D02*
X139503809Y-93324819D01*
X140122857Y-94324819D02*
X140122857Y-93324819D01*
X140122857Y-93324819D02*
X140503809Y-93324819D01*
X140503809Y-93324819D02*
X140599047Y-93372438D01*
X140599047Y-93372438D02*
X140646666Y-93420057D01*
X140646666Y-93420057D02*
X140694285Y-93515295D01*
X140694285Y-93515295D02*
X140694285Y-93658152D01*
X140694285Y-93658152D02*
X140646666Y-93753390D01*
X140646666Y-93753390D02*
X140599047Y-93801009D01*
X140599047Y-93801009D02*
X140503809Y-93848628D01*
X140503809Y-93848628D02*
X140122857Y-93848628D01*
X141599047Y-93324819D02*
X141122857Y-93324819D01*
X141122857Y-93324819D02*
X141075238Y-93801009D01*
X141075238Y-93801009D02*
X141122857Y-93753390D01*
X141122857Y-93753390D02*
X141218095Y-93705771D01*
X141218095Y-93705771D02*
X141456190Y-93705771D01*
X141456190Y-93705771D02*
X141551428Y-93753390D01*
X141551428Y-93753390D02*
X141599047Y-93801009D01*
X141599047Y-93801009D02*
X141646666Y-93896247D01*
X141646666Y-93896247D02*
X141646666Y-94134342D01*
X141646666Y-94134342D02*
X141599047Y-94229580D01*
X141599047Y-94229580D02*
X141551428Y-94277200D01*
X141551428Y-94277200D02*
X141456190Y-94324819D01*
X141456190Y-94324819D02*
X141218095Y-94324819D01*
X141218095Y-94324819D02*
X141122857Y-94277200D01*
X141122857Y-94277200D02*
X141075238Y-94229580D01*
X134964819Y-88071904D02*
X134964819Y-87500476D01*
X135964819Y-87786190D02*
X134964819Y-87786190D01*
X135964819Y-87167142D02*
X134964819Y-87167142D01*
X134964819Y-87167142D02*
X134964819Y-86786190D01*
X134964819Y-86786190D02*
X135012438Y-86690952D01*
X135012438Y-86690952D02*
X135060057Y-86643333D01*
X135060057Y-86643333D02*
X135155295Y-86595714D01*
X135155295Y-86595714D02*
X135298152Y-86595714D01*
X135298152Y-86595714D02*
X135393390Y-86643333D01*
X135393390Y-86643333D02*
X135441009Y-86690952D01*
X135441009Y-86690952D02*
X135488628Y-86786190D01*
X135488628Y-86786190D02*
X135488628Y-87167142D01*
X134964819Y-86262380D02*
X134964819Y-85643333D01*
X134964819Y-85643333D02*
X135345771Y-85976666D01*
X135345771Y-85976666D02*
X135345771Y-85833809D01*
X135345771Y-85833809D02*
X135393390Y-85738571D01*
X135393390Y-85738571D02*
X135441009Y-85690952D01*
X135441009Y-85690952D02*
X135536247Y-85643333D01*
X135536247Y-85643333D02*
X135774342Y-85643333D01*
X135774342Y-85643333D02*
X135869580Y-85690952D01*
X135869580Y-85690952D02*
X135917200Y-85738571D01*
X135917200Y-85738571D02*
X135964819Y-85833809D01*
X135964819Y-85833809D02*
X135964819Y-86119523D01*
X135964819Y-86119523D02*
X135917200Y-86214761D01*
X135917200Y-86214761D02*
X135869580Y-86262380D01*
X183988095Y-69924819D02*
X184559523Y-69924819D01*
X184273809Y-70924819D02*
X184273809Y-69924819D01*
X184892857Y-70924819D02*
X184892857Y-69924819D01*
X184892857Y-69924819D02*
X185273809Y-69924819D01*
X185273809Y-69924819D02*
X185369047Y-69972438D01*
X185369047Y-69972438D02*
X185416666Y-70020057D01*
X185416666Y-70020057D02*
X185464285Y-70115295D01*
X185464285Y-70115295D02*
X185464285Y-70258152D01*
X185464285Y-70258152D02*
X185416666Y-70353390D01*
X185416666Y-70353390D02*
X185369047Y-70401009D01*
X185369047Y-70401009D02*
X185273809Y-70448628D01*
X185273809Y-70448628D02*
X184892857Y-70448628D01*
X185845238Y-70020057D02*
X185892857Y-69972438D01*
X185892857Y-69972438D02*
X185988095Y-69924819D01*
X185988095Y-69924819D02*
X186226190Y-69924819D01*
X186226190Y-69924819D02*
X186321428Y-69972438D01*
X186321428Y-69972438D02*
X186369047Y-70020057D01*
X186369047Y-70020057D02*
X186416666Y-70115295D01*
X186416666Y-70115295D02*
X186416666Y-70210533D01*
X186416666Y-70210533D02*
X186369047Y-70353390D01*
X186369047Y-70353390D02*
X185797619Y-70924819D01*
X185797619Y-70924819D02*
X186416666Y-70924819D01*
X105889166Y-95534819D02*
X105889166Y-96249104D01*
X105889166Y-96249104D02*
X105841547Y-96391961D01*
X105841547Y-96391961D02*
X105746309Y-96487200D01*
X105746309Y-96487200D02*
X105603452Y-96534819D01*
X105603452Y-96534819D02*
X105508214Y-96534819D01*
X106270119Y-95534819D02*
X106936785Y-95534819D01*
X106936785Y-95534819D02*
X106508214Y-96534819D01*
X141393333Y-74609580D02*
X141345714Y-74657200D01*
X141345714Y-74657200D02*
X141202857Y-74704819D01*
X141202857Y-74704819D02*
X141107619Y-74704819D01*
X141107619Y-74704819D02*
X140964762Y-74657200D01*
X140964762Y-74657200D02*
X140869524Y-74561961D01*
X140869524Y-74561961D02*
X140821905Y-74466723D01*
X140821905Y-74466723D02*
X140774286Y-74276247D01*
X140774286Y-74276247D02*
X140774286Y-74133390D01*
X140774286Y-74133390D02*
X140821905Y-73942914D01*
X140821905Y-73942914D02*
X140869524Y-73847676D01*
X140869524Y-73847676D02*
X140964762Y-73752438D01*
X140964762Y-73752438D02*
X141107619Y-73704819D01*
X141107619Y-73704819D02*
X141202857Y-73704819D01*
X141202857Y-73704819D02*
X141345714Y-73752438D01*
X141345714Y-73752438D02*
X141393333Y-73800057D01*
X142345714Y-74704819D02*
X141774286Y-74704819D01*
X142060000Y-74704819D02*
X142060000Y-73704819D01*
X142060000Y-73704819D02*
X141964762Y-73847676D01*
X141964762Y-73847676D02*
X141869524Y-73942914D01*
X141869524Y-73942914D02*
X141774286Y-73990533D01*
X120177319Y-71031904D02*
X120986842Y-71031904D01*
X120986842Y-71031904D02*
X121082080Y-70984285D01*
X121082080Y-70984285D02*
X121129700Y-70936666D01*
X121129700Y-70936666D02*
X121177319Y-70841428D01*
X121177319Y-70841428D02*
X121177319Y-70650952D01*
X121177319Y-70650952D02*
X121129700Y-70555714D01*
X121129700Y-70555714D02*
X121082080Y-70508095D01*
X121082080Y-70508095D02*
X120986842Y-70460476D01*
X120986842Y-70460476D02*
X120177319Y-70460476D01*
X121177319Y-69460476D02*
X121177319Y-70031904D01*
X121177319Y-69746190D02*
X120177319Y-69746190D01*
X120177319Y-69746190D02*
X120320176Y-69841428D01*
X120320176Y-69841428D02*
X120415414Y-69936666D01*
X120415414Y-69936666D02*
X120463033Y-70031904D01*
X123066666Y-97094819D02*
X123066666Y-97809104D01*
X123066666Y-97809104D02*
X123019047Y-97951961D01*
X123019047Y-97951961D02*
X122923809Y-98047200D01*
X122923809Y-98047200D02*
X122780952Y-98094819D01*
X122780952Y-98094819D02*
X122685714Y-98094819D01*
X123971428Y-97428152D02*
X123971428Y-98094819D01*
X123733333Y-97047200D02*
X123495238Y-97761485D01*
X123495238Y-97761485D02*
X124114285Y-97761485D01*
X160897319Y-66551666D02*
X160421128Y-66884999D01*
X160897319Y-67123094D02*
X159897319Y-67123094D01*
X159897319Y-67123094D02*
X159897319Y-66742142D01*
X159897319Y-66742142D02*
X159944938Y-66646904D01*
X159944938Y-66646904D02*
X159992557Y-66599285D01*
X159992557Y-66599285D02*
X160087795Y-66551666D01*
X160087795Y-66551666D02*
X160230652Y-66551666D01*
X160230652Y-66551666D02*
X160325890Y-66599285D01*
X160325890Y-66599285D02*
X160373509Y-66646904D01*
X160373509Y-66646904D02*
X160421128Y-66742142D01*
X160421128Y-66742142D02*
X160421128Y-67123094D01*
X160230652Y-65694523D02*
X160897319Y-65694523D01*
X159849700Y-65932618D02*
X160563985Y-66170713D01*
X160563985Y-66170713D02*
X160563985Y-65551666D01*
X117923333Y-87459580D02*
X117875714Y-87507200D01*
X117875714Y-87507200D02*
X117732857Y-87554819D01*
X117732857Y-87554819D02*
X117637619Y-87554819D01*
X117637619Y-87554819D02*
X117494762Y-87507200D01*
X117494762Y-87507200D02*
X117399524Y-87411961D01*
X117399524Y-87411961D02*
X117351905Y-87316723D01*
X117351905Y-87316723D02*
X117304286Y-87126247D01*
X117304286Y-87126247D02*
X117304286Y-86983390D01*
X117304286Y-86983390D02*
X117351905Y-86792914D01*
X117351905Y-86792914D02*
X117399524Y-86697676D01*
X117399524Y-86697676D02*
X117494762Y-86602438D01*
X117494762Y-86602438D02*
X117637619Y-86554819D01*
X117637619Y-86554819D02*
X117732857Y-86554819D01*
X117732857Y-86554819D02*
X117875714Y-86602438D01*
X117875714Y-86602438D02*
X117923333Y-86650057D01*
X118256667Y-86554819D02*
X118875714Y-86554819D01*
X118875714Y-86554819D02*
X118542381Y-86935771D01*
X118542381Y-86935771D02*
X118685238Y-86935771D01*
X118685238Y-86935771D02*
X118780476Y-86983390D01*
X118780476Y-86983390D02*
X118828095Y-87031009D01*
X118828095Y-87031009D02*
X118875714Y-87126247D01*
X118875714Y-87126247D02*
X118875714Y-87364342D01*
X118875714Y-87364342D02*
X118828095Y-87459580D01*
X118828095Y-87459580D02*
X118780476Y-87507200D01*
X118780476Y-87507200D02*
X118685238Y-87554819D01*
X118685238Y-87554819D02*
X118399524Y-87554819D01*
X118399524Y-87554819D02*
X118304286Y-87507200D01*
X118304286Y-87507200D02*
X118256667Y-87459580D01*
X124424819Y-90774404D02*
X125234342Y-90774404D01*
X125234342Y-90774404D02*
X125329580Y-90726785D01*
X125329580Y-90726785D02*
X125377200Y-90679166D01*
X125377200Y-90679166D02*
X125424819Y-90583928D01*
X125424819Y-90583928D02*
X125424819Y-90393452D01*
X125424819Y-90393452D02*
X125377200Y-90298214D01*
X125377200Y-90298214D02*
X125329580Y-90250595D01*
X125329580Y-90250595D02*
X125234342Y-90202976D01*
X125234342Y-90202976D02*
X124424819Y-90202976D01*
X124520057Y-89774404D02*
X124472438Y-89726785D01*
X124472438Y-89726785D02*
X124424819Y-89631547D01*
X124424819Y-89631547D02*
X124424819Y-89393452D01*
X124424819Y-89393452D02*
X124472438Y-89298214D01*
X124472438Y-89298214D02*
X124520057Y-89250595D01*
X124520057Y-89250595D02*
X124615295Y-89202976D01*
X124615295Y-89202976D02*
X124710533Y-89202976D01*
X124710533Y-89202976D02*
X124853390Y-89250595D01*
X124853390Y-89250595D02*
X125424819Y-89822023D01*
X125424819Y-89822023D02*
X125424819Y-89202976D01*
X117143333Y-97834819D02*
X116810000Y-97358628D01*
X116571905Y-97834819D02*
X116571905Y-96834819D01*
X116571905Y-96834819D02*
X116952857Y-96834819D01*
X116952857Y-96834819D02*
X117048095Y-96882438D01*
X117048095Y-96882438D02*
X117095714Y-96930057D01*
X117095714Y-96930057D02*
X117143333Y-97025295D01*
X117143333Y-97025295D02*
X117143333Y-97168152D01*
X117143333Y-97168152D02*
X117095714Y-97263390D01*
X117095714Y-97263390D02*
X117048095Y-97311009D01*
X117048095Y-97311009D02*
X116952857Y-97358628D01*
X116952857Y-97358628D02*
X116571905Y-97358628D01*
X117476667Y-96834819D02*
X118143333Y-96834819D01*
X118143333Y-96834819D02*
X117714762Y-97834819D01*
X159046666Y-78334819D02*
X159046666Y-79049104D01*
X159046666Y-79049104D02*
X158999047Y-79191961D01*
X158999047Y-79191961D02*
X158903809Y-79287200D01*
X158903809Y-79287200D02*
X158760952Y-79334819D01*
X158760952Y-79334819D02*
X158665714Y-79334819D01*
X159951428Y-78334819D02*
X159760952Y-78334819D01*
X159760952Y-78334819D02*
X159665714Y-78382438D01*
X159665714Y-78382438D02*
X159618095Y-78430057D01*
X159618095Y-78430057D02*
X159522857Y-78572914D01*
X159522857Y-78572914D02*
X159475238Y-78763390D01*
X159475238Y-78763390D02*
X159475238Y-79144342D01*
X159475238Y-79144342D02*
X159522857Y-79239580D01*
X159522857Y-79239580D02*
X159570476Y-79287200D01*
X159570476Y-79287200D02*
X159665714Y-79334819D01*
X159665714Y-79334819D02*
X159856190Y-79334819D01*
X159856190Y-79334819D02*
X159951428Y-79287200D01*
X159951428Y-79287200D02*
X159999047Y-79239580D01*
X159999047Y-79239580D02*
X160046666Y-79144342D01*
X160046666Y-79144342D02*
X160046666Y-78906247D01*
X160046666Y-78906247D02*
X159999047Y-78811009D01*
X159999047Y-78811009D02*
X159951428Y-78763390D01*
X159951428Y-78763390D02*
X159856190Y-78715771D01*
X159856190Y-78715771D02*
X159665714Y-78715771D01*
X159665714Y-78715771D02*
X159570476Y-78763390D01*
X159570476Y-78763390D02*
X159522857Y-78811009D01*
X159522857Y-78811009D02*
X159475238Y-78906247D01*
X167268095Y-75924819D02*
X167839523Y-75924819D01*
X167553809Y-76924819D02*
X167553809Y-75924819D01*
X168172857Y-76924819D02*
X168172857Y-75924819D01*
X168172857Y-75924819D02*
X168553809Y-75924819D01*
X168553809Y-75924819D02*
X168649047Y-75972438D01*
X168649047Y-75972438D02*
X168696666Y-76020057D01*
X168696666Y-76020057D02*
X168744285Y-76115295D01*
X168744285Y-76115295D02*
X168744285Y-76258152D01*
X168744285Y-76258152D02*
X168696666Y-76353390D01*
X168696666Y-76353390D02*
X168649047Y-76401009D01*
X168649047Y-76401009D02*
X168553809Y-76448628D01*
X168553809Y-76448628D02*
X168172857Y-76448628D01*
X169601428Y-76258152D02*
X169601428Y-76924819D01*
X169363333Y-75877200D02*
X169125238Y-76591485D01*
X169125238Y-76591485D02*
X169744285Y-76591485D01*
X148816666Y-57034819D02*
X148816666Y-57749104D01*
X148816666Y-57749104D02*
X148769047Y-57891961D01*
X148769047Y-57891961D02*
X148673809Y-57987200D01*
X148673809Y-57987200D02*
X148530952Y-58034819D01*
X148530952Y-58034819D02*
X148435714Y-58034819D01*
X149769047Y-57034819D02*
X149292857Y-57034819D01*
X149292857Y-57034819D02*
X149245238Y-57511009D01*
X149245238Y-57511009D02*
X149292857Y-57463390D01*
X149292857Y-57463390D02*
X149388095Y-57415771D01*
X149388095Y-57415771D02*
X149626190Y-57415771D01*
X149626190Y-57415771D02*
X149721428Y-57463390D01*
X149721428Y-57463390D02*
X149769047Y-57511009D01*
X149769047Y-57511009D02*
X149816666Y-57606247D01*
X149816666Y-57606247D02*
X149816666Y-57844342D01*
X149816666Y-57844342D02*
X149769047Y-57939580D01*
X149769047Y-57939580D02*
X149721428Y-57987200D01*
X149721428Y-57987200D02*
X149626190Y-58034819D01*
X149626190Y-58034819D02*
X149388095Y-58034819D01*
X149388095Y-58034819D02*
X149292857Y-57987200D01*
X149292857Y-57987200D02*
X149245238Y-57939580D01*
D12*
%TO.C,TP7*%
X115630000Y-67560000D02*
G75*
G02*
X112630000Y-67560000I-1500000J0D01*
G01*
X112630000Y-67560000D02*
G75*
G02*
X115630000Y-67560000I1500000J0D01*
G01*
%TO.C,TP8*%
X174840000Y-55720000D02*
G75*
G02*
X171840000Y-55720000I-1500000J0D01*
G01*
X171840000Y-55720000D02*
G75*
G02*
X174840000Y-55720000I1500000J0D01*
G01*
%TO.C,RV3*%
X161729000Y-89640000D02*
X171770000Y-89640000D01*
X161729000Y-93576000D02*
X161729000Y-89640000D01*
X161729000Y-101880000D02*
X161729000Y-97943000D01*
X161729000Y-101880000D02*
X163050000Y-101880000D01*
X165500000Y-101880000D02*
X165880000Y-101880000D01*
X167621000Y-101880000D02*
X168380000Y-101880000D01*
X170120000Y-101880000D02*
X171770000Y-101880000D01*
X171770000Y-93576000D02*
X171770000Y-89640000D01*
X171770000Y-101880000D02*
X171770000Y-97943000D01*
%TO.C,D2*%
X176005000Y-63955000D02*
X176005000Y-61685000D01*
X176005000Y-61685000D02*
X172120000Y-61685000D01*
X172120000Y-63955000D02*
X176005000Y-63955000D01*
%TO.C,RV1*%
X130989000Y-58160000D02*
X141030000Y-58160000D01*
X130989000Y-62096000D02*
X130989000Y-58160000D01*
X130989000Y-70400000D02*
X130989000Y-66463000D01*
X130989000Y-70400000D02*
X132310000Y-70400000D01*
X134760000Y-70400000D02*
X135140000Y-70400000D01*
X136881000Y-70400000D02*
X137640000Y-70400000D01*
X139380000Y-70400000D02*
X141030000Y-70400000D01*
X141030000Y-62096000D02*
X141030000Y-58160000D01*
X141030000Y-70400000D02*
X141030000Y-66463000D01*
D13*
%TO.C,MOSFET1*%
X144939000Y-78694197D02*
X144939000Y-80707100D01*
X144939000Y-80707100D02*
X149384000Y-80707100D01*
X147364700Y-81189700D02*
X147364700Y-81545300D01*
X148355300Y-81189700D02*
X148355300Y-81545300D01*
X149384000Y-80707100D02*
X149384000Y-82485100D01*
X149384000Y-82485100D02*
X151416000Y-82485100D01*
X151416000Y-80707100D02*
X155861000Y-80707100D01*
X151416000Y-82485100D02*
X151416000Y-80707100D01*
X152444700Y-81189700D02*
X152444700Y-81545300D01*
X153435300Y-81189700D02*
X153435300Y-81545300D01*
X155861000Y-80707100D02*
X155861000Y-78694197D01*
D12*
%TO.C,D1*%
X147280000Y-63910000D02*
X147280000Y-67130000D01*
X147280000Y-67130000D02*
X153090000Y-67130000D01*
X153090000Y-63910000D02*
X147280000Y-63910000D01*
%TO.C,D3*%
X131285000Y-94615000D02*
X131285000Y-96885000D01*
X131285000Y-96885000D02*
X135170000Y-96885000D01*
X135170000Y-94615000D02*
X131285000Y-94615000D01*
%TO.C,TP1*%
X126340000Y-82080000D02*
G75*
G02*
X123340000Y-82080000I-1500000J0D01*
G01*
X123340000Y-82080000D02*
G75*
G02*
X126340000Y-82080000I1500000J0D01*
G01*
%TO.C,C2*%
X124380000Y-73678748D02*
X124380000Y-75101252D01*
X126200000Y-73678748D02*
X126200000Y-75101252D01*
D14*
%TO.C,S1*%
X161612500Y-55025000D02*
X161612500Y-56105000D01*
X161612500Y-62945000D02*
X161612500Y-64025000D01*
X161612500Y-64025000D02*
X165212500Y-64025000D01*
X165212500Y-55025000D02*
X161612500Y-55025000D01*
X165212500Y-56105000D02*
X165212500Y-55025000D01*
X165212500Y-64025000D02*
X165212500Y-62945000D01*
D15*
X160762500Y-55685000D02*
G75*
G02*
X160562500Y-55685000I-100000J0D01*
G01*
X160562500Y-55685000D02*
G75*
G02*
X160762500Y-55685000I100000J0D01*
G01*
D12*
%TO.C,C7*%
X183508748Y-92200000D02*
X184931252Y-92200000D01*
X183508748Y-94020000D02*
X184931252Y-94020000D01*
%TO.C,D4*%
X115470000Y-106075000D02*
X119355000Y-106075000D01*
X119355000Y-103805000D02*
X115470000Y-103805000D01*
X119355000Y-106075000D02*
X119355000Y-103805000D01*
%TO.C,R1*%
X141090000Y-84672936D02*
X141090000Y-86127064D01*
X142910000Y-84672936D02*
X142910000Y-86127064D01*
%TO.C,C6*%
X159052500Y-71573748D02*
X159052500Y-72996252D01*
X160872500Y-71573748D02*
X160872500Y-72996252D01*
%TO.C,C4*%
X130870000Y-90746248D02*
X130870000Y-92168752D01*
X132690000Y-90746248D02*
X132690000Y-92168752D01*
%TO.C,R3*%
X165875436Y-72185000D02*
X167329564Y-72185000D01*
X165875436Y-74005000D02*
X167329564Y-74005000D01*
%TO.C,TP6*%
X128310000Y-66920000D02*
G75*
G02*
X125310000Y-66920000I-1500000J0D01*
G01*
X125310000Y-66920000D02*
G75*
G02*
X128310000Y-66920000I1500000J0D01*
G01*
%TO.C,J2*%
X131920000Y-77260000D02*
X131920000Y-80020000D01*
X137110000Y-77260000D02*
X131920000Y-77260000D01*
X137110000Y-77260000D02*
X137110000Y-80020000D01*
X137110000Y-80020000D02*
X131920000Y-80020000D01*
X138380000Y-77260000D02*
X139760000Y-77260000D01*
X139760000Y-77260000D02*
X139760000Y-78640000D01*
%TO.C,R6*%
X134050000Y-90742936D02*
X134050000Y-92197064D01*
X135870000Y-90742936D02*
X135870000Y-92197064D01*
%TO.C,C5*%
X178928748Y-65110000D02*
X180351252Y-65110000D01*
X178928748Y-66930000D02*
X180351252Y-66930000D01*
D13*
%TO.C,MOSFET2*%
X155591000Y-100107100D02*
X155591000Y-98094197D01*
X153165300Y-100589700D02*
X153165300Y-100945300D01*
X152174700Y-100589700D02*
X152174700Y-100945300D01*
X151146000Y-101885100D02*
X151146000Y-100107100D01*
X151146000Y-100107100D02*
X155591000Y-100107100D01*
X149114000Y-101885100D02*
X151146000Y-101885100D01*
X149114000Y-100107100D02*
X149114000Y-101885100D01*
X148085300Y-100589700D02*
X148085300Y-100945300D01*
X147094700Y-100589700D02*
X147094700Y-100945300D01*
X144669000Y-100107100D02*
X149114000Y-100107100D01*
X144669000Y-98094197D02*
X144669000Y-100107100D01*
D12*
%TO.C,J3*%
X178230000Y-98500000D02*
X178230000Y-101260000D01*
X183420000Y-98500000D02*
X178230000Y-98500000D01*
X183420000Y-98500000D02*
X183420000Y-101260000D01*
X183420000Y-101260000D02*
X178230000Y-101260000D01*
X184690000Y-98500000D02*
X186070000Y-98500000D01*
X186070000Y-98500000D02*
X186070000Y-99880000D01*
%TO.C,J1*%
X115270000Y-57810000D02*
X115270000Y-64430000D01*
X115270000Y-61120000D02*
X116280000Y-61120000D01*
X115270000Y-64430000D02*
X117980000Y-64430000D01*
X116280000Y-58520000D02*
X116280000Y-62820000D01*
X116280000Y-62820000D02*
X124480000Y-62820000D01*
X117980000Y-63430000D02*
X119580000Y-63430000D01*
X117980000Y-64430000D02*
X117980000Y-63430000D01*
X119580000Y-63430000D02*
X119580000Y-64030000D01*
X119580000Y-64030000D02*
X121180000Y-64030000D01*
X121180000Y-63430000D02*
X122780000Y-63430000D01*
X121180000Y-64030000D02*
X121180000Y-63430000D01*
X122780000Y-63430000D02*
X122780000Y-64430000D01*
X122780000Y-64430000D02*
X125490000Y-64430000D01*
X124480000Y-58520000D02*
X116280000Y-58520000D01*
X124480000Y-62820000D02*
X124480000Y-58520000D01*
X124540000Y-64730000D02*
X125790000Y-64730000D01*
X125490000Y-57810000D02*
X115270000Y-57810000D01*
X125490000Y-61120000D02*
X124480000Y-61120000D01*
X125490000Y-64430000D02*
X125490000Y-57810000D01*
X125790000Y-64730000D02*
X125790000Y-63480000D01*
%TO.C,RV4*%
X177609000Y-76670000D02*
X187650000Y-76670000D01*
X177609000Y-80606000D02*
X177609000Y-76670000D01*
X177609000Y-88910000D02*
X177609000Y-84973000D01*
X177609000Y-88910000D02*
X178930000Y-88910000D01*
X181380000Y-88910000D02*
X181760000Y-88910000D01*
X183501000Y-88910000D02*
X184260000Y-88910000D01*
X186000000Y-88910000D02*
X187650000Y-88910000D01*
X187650000Y-80606000D02*
X187650000Y-76670000D01*
X187650000Y-88910000D02*
X187650000Y-84973000D01*
D14*
%TO.C,U4*%
X162915000Y-70120000D02*
X162915000Y-69450000D01*
X163385000Y-68335000D02*
X164045000Y-68335000D01*
X164045000Y-71235000D02*
X163385000Y-71235000D01*
D15*
X166225000Y-70835000D02*
G75*
G02*
X166025000Y-70835000I-100000J0D01*
G01*
X166025000Y-70835000D02*
G75*
G02*
X166225000Y-70835000I100000J0D01*
G01*
D12*
%TO.C,U3*%
X174740000Y-67590000D02*
X172860000Y-67590000D01*
X174740000Y-67590000D02*
X176620000Y-67590000D01*
X174740000Y-72770000D02*
X172860000Y-72770000D01*
X174740000Y-72770000D02*
X176620000Y-72770000D01*
X172037500Y-67690000D02*
X171797500Y-67360000D01*
X172277500Y-67360000D01*
X172037500Y-67690000D01*
G36*
X172037500Y-67690000D02*
G01*
X171797500Y-67360000D01*
X172277500Y-67360000D01*
X172037500Y-67690000D01*
G37*
%TO.C,R2*%
X143627064Y-102370000D02*
X142172936Y-102370000D01*
X143627064Y-104190000D02*
X142172936Y-104190000D01*
%TO.C,R5*%
X174507064Y-66450000D02*
X173052936Y-66450000D01*
X174507064Y-64630000D02*
X173052936Y-64630000D01*
%TO.C,RV2*%
X104449000Y-70510000D02*
X114490000Y-70510000D01*
X104449000Y-74446000D02*
X104449000Y-70510000D01*
X104449000Y-82750000D02*
X104449000Y-78813000D01*
X104449000Y-82750000D02*
X105770000Y-82750000D01*
X108220000Y-82750000D02*
X108600000Y-82750000D01*
X110341000Y-82750000D02*
X111100000Y-82750000D01*
X112840000Y-82750000D02*
X114490000Y-82750000D01*
X114490000Y-74446000D02*
X114490000Y-70510000D01*
X114490000Y-82750000D02*
X114490000Y-78813000D01*
%TO.C,TP5*%
X140600000Y-96880000D02*
G75*
G02*
X137600000Y-96880000I-1500000J0D01*
G01*
X137600000Y-96880000D02*
G75*
G02*
X140600000Y-96880000I1500000J0D01*
G01*
%TO.C,TP3*%
X139840000Y-86880000D02*
G75*
G02*
X136840000Y-86880000I-1500000J0D01*
G01*
X136840000Y-86880000D02*
G75*
G02*
X139840000Y-86880000I1500000J0D01*
G01*
%TO.C,TP2*%
X183440000Y-71170000D02*
G75*
G02*
X180440000Y-71170000I-1500000J0D01*
G01*
X180440000Y-71170000D02*
G75*
G02*
X183440000Y-71170000I1500000J0D01*
G01*
%TO.C,J7*%
X104232500Y-92550000D02*
X104232500Y-91500000D01*
X104432500Y-91700000D02*
X107032500Y-91700000D01*
X104432500Y-106400000D02*
X104432500Y-91700000D01*
X105282500Y-91500000D02*
X104232500Y-91500000D01*
X110932500Y-91700000D02*
X113632500Y-91700000D01*
X113632500Y-91700000D02*
X113632500Y-93600000D01*
X113632500Y-97600000D02*
X113632500Y-106400000D01*
X113632500Y-106400000D02*
X104432500Y-106400000D01*
%TO.C,C1*%
X136838748Y-73360000D02*
X138261252Y-73360000D01*
X136838748Y-75180000D02*
X138261252Y-75180000D01*
%TO.C,U1*%
X118070000Y-70270000D02*
X118070000Y-68390000D01*
X118070000Y-70270000D02*
X118070000Y-72150000D01*
X123250000Y-70270000D02*
X123250000Y-68390000D01*
X123250000Y-70270000D02*
X123250000Y-72150000D01*
X123480000Y-67807500D02*
X123150000Y-67567500D01*
X123480000Y-67327500D01*
X123480000Y-67807500D01*
G36*
X123480000Y-67807500D02*
G01*
X123150000Y-67567500D01*
X123480000Y-67327500D01*
X123480000Y-67807500D01*
G37*
%TO.C,J4*%
X119500000Y-95990000D02*
X119500000Y-102610000D01*
X119500000Y-99300000D02*
X120510000Y-99300000D01*
X119500000Y-102610000D02*
X122210000Y-102610000D01*
X120510000Y-96700000D02*
X120510000Y-101000000D01*
X120510000Y-101000000D02*
X128710000Y-101000000D01*
X122210000Y-101610000D02*
X123810000Y-101610000D01*
X122210000Y-102610000D02*
X122210000Y-101610000D01*
X123810000Y-101610000D02*
X123810000Y-102210000D01*
X123810000Y-102210000D02*
X125410000Y-102210000D01*
X125410000Y-101610000D02*
X127010000Y-101610000D01*
X125410000Y-102210000D02*
X125410000Y-101610000D01*
X127010000Y-101610000D02*
X127010000Y-102610000D01*
X127010000Y-102610000D02*
X129720000Y-102610000D01*
X128710000Y-96700000D02*
X120510000Y-96700000D01*
X128710000Y-101000000D02*
X128710000Y-96700000D01*
X128770000Y-102910000D02*
X130020000Y-102910000D01*
X129720000Y-95990000D02*
X119500000Y-95990000D01*
X129720000Y-99300000D02*
X128710000Y-99300000D01*
X129720000Y-102610000D02*
X129720000Y-95990000D01*
X130020000Y-102910000D02*
X130020000Y-101660000D01*
%TO.C,R4*%
X162985436Y-65425000D02*
X164439564Y-65425000D01*
X162985436Y-67245000D02*
X164439564Y-67245000D01*
%TO.C,C3*%
X118940000Y-91541252D02*
X118940000Y-90118748D01*
X117120000Y-91541252D02*
X117120000Y-90118748D01*
%TO.C,U2*%
X123120000Y-86640000D02*
X126880000Y-86640000D01*
X123120000Y-93460000D02*
X126880000Y-93460000D01*
X126880000Y-86640000D02*
X126880000Y-87900000D01*
X126880000Y-93460000D02*
X126880000Y-92200000D01*
X121840000Y-86740000D02*
X121600000Y-86410000D01*
X122080000Y-86410000D01*
X121840000Y-86740000D01*
G36*
X121840000Y-86740000D02*
G01*
X121600000Y-86410000D01*
X122080000Y-86410000D01*
X121840000Y-86740000D01*
G37*
%TO.C,R7*%
X116340000Y-100122936D02*
X116340000Y-101577064D01*
X118160000Y-100122936D02*
X118160000Y-101577064D01*
%TO.C,J6*%
X158000000Y-79880000D02*
X159380000Y-79880000D01*
X158000000Y-81260000D02*
X158000000Y-79880000D01*
X158000000Y-82530000D02*
X158000000Y-87720000D01*
X158000000Y-82530000D02*
X160760000Y-82530000D01*
X158000000Y-87720000D02*
X160760000Y-87720000D01*
X160760000Y-82530000D02*
X160760000Y-87720000D01*
%TO.C,TP4*%
X166620000Y-77220000D02*
G75*
G02*
X163620000Y-77220000I-1500000J0D01*
G01*
X163620000Y-77220000D02*
G75*
G02*
X166620000Y-77220000I1500000J0D01*
G01*
%TO.C,J5*%
X145340000Y-56030000D02*
X145340000Y-62650000D01*
X145340000Y-59340000D02*
X146350000Y-59340000D01*
X145340000Y-62650000D02*
X148050000Y-62650000D01*
X146350000Y-56740000D02*
X146350000Y-61040000D01*
X146350000Y-61040000D02*
X154550000Y-61040000D01*
X148050000Y-61650000D02*
X149650000Y-61650000D01*
X148050000Y-62650000D02*
X148050000Y-61650000D01*
X149650000Y-61650000D02*
X149650000Y-62250000D01*
X149650000Y-62250000D02*
X151250000Y-62250000D01*
X151250000Y-61650000D02*
X152850000Y-61650000D01*
X151250000Y-62250000D02*
X151250000Y-61650000D01*
X152850000Y-61650000D02*
X152850000Y-62650000D01*
X152850000Y-62650000D02*
X155560000Y-62650000D01*
X154550000Y-56740000D02*
X146350000Y-56740000D01*
X154550000Y-61040000D02*
X154550000Y-56740000D01*
X154610000Y-62950000D02*
X155860000Y-62950000D01*
X155560000Y-56030000D02*
X145340000Y-56030000D01*
X155560000Y-59340000D02*
X154550000Y-59340000D01*
X155560000Y-62650000D02*
X155560000Y-56030000D01*
X155860000Y-62950000D02*
X155860000Y-61700000D01*
%TD*%
M02*
