%TF.GenerationSoftware,KiCad,Pcbnew,(5.1.9)-1*%
%TF.CreationDate,2021-06-02T09:14:58-06:00*%
%TF.ProjectId,VCO_PCB_A_REV1,56434f5f-5043-4425-9f41-5f524556312e,rev?*%
%TF.SameCoordinates,Original*%
%TF.FileFunction,Copper,L2,Bot*%
%TF.FilePolarity,Positive*%
%FSLAX46Y46*%
G04 Gerber Fmt 4.6, Leading zero omitted, Abs format (unit mm)*
G04 Created by KiCad (PCBNEW (5.1.9)-1) date 2021-06-02 09:14:58*
%MOMM*%
%LPD*%
G01*
G04 APERTURE LIST*
%TA.AperFunction,ComponentPad*%
%ADD10O,3.100000X2.300000*%
%TD*%
%TA.AperFunction,ComponentPad*%
%ADD11R,1.700000X1.700000*%
%TD*%
%TA.AperFunction,ComponentPad*%
%ADD12O,1.700000X1.700000*%
%TD*%
%TA.AperFunction,ComponentPad*%
%ADD13C,1.800000*%
%TD*%
%TA.AperFunction,WasherPad*%
%ADD14C,4.000000*%
%TD*%
%TA.AperFunction,ComponentPad*%
%ADD15O,1.600000X1.600000*%
%TD*%
%TA.AperFunction,ComponentPad*%
%ADD16C,1.600000*%
%TD*%
%TA.AperFunction,ComponentPad*%
%ADD17O,5.000000X3.200000*%
%TD*%
%TA.AperFunction,ComponentPad*%
%ADD18R,1.600000X1.600000*%
%TD*%
%TA.AperFunction,ViaPad*%
%ADD19C,0.800000*%
%TD*%
%TA.AperFunction,Conductor*%
%ADD20C,0.500000*%
%TD*%
G04 APERTURE END LIST*
%TO.P,U12,TN*%
%TO.N,SQR*%
%TA.AperFunction,ComponentPad*%
G36*
G01*
X86700000Y-141780000D02*
X86700000Y-140480000D01*
G75*
G02*
X87350000Y-139830000I650000J0D01*
G01*
X88650000Y-139830000D01*
G75*
G02*
X89300000Y-140480000I0J-650000D01*
G01*
X89300000Y-141780000D01*
G75*
G02*
X88650000Y-142430000I-650000J0D01*
G01*
X87350000Y-142430000D01*
G75*
G02*
X86700000Y-141780000I0J650000D01*
G01*
G37*
%TD.AperFunction*%
D10*
%TO.P,U12,S*%
%TO.N,GND*%
X88000000Y-144230000D03*
%TO.P,U12,T*%
%TO.N,SQR*%
%TA.AperFunction,ComponentPad*%
G36*
G01*
X86700000Y-133480000D02*
X86700000Y-132180000D01*
G75*
G02*
X87350000Y-131530000I650000J0D01*
G01*
X88650000Y-131530000D01*
G75*
G02*
X89300000Y-132180000I0J-650000D01*
G01*
X89300000Y-133480000D01*
G75*
G02*
X88650000Y-134130000I-650000J0D01*
G01*
X87350000Y-134130000D01*
G75*
G02*
X86700000Y-133480000I0J650000D01*
G01*
G37*
%TD.AperFunction*%
%TD*%
D11*
%TO.P,J1,1*%
%TO.N,-12V*%
X70000000Y-70750000D03*
D12*
%TO.P,J1,2*%
X72540000Y-70750000D03*
%TO.P,J1,3*%
%TO.N,FREQ_CV*%
X70000000Y-73290000D03*
%TO.P,J1,4*%
%TO.N,PWM_IN*%
X72540000Y-73290000D03*
%TO.P,J1,5*%
%TO.N,LIN_FM*%
X70000000Y-75830000D03*
%TO.P,J1,6*%
%TO.N,Net-(J1-Pad6)*%
X72540000Y-75830000D03*
%TO.P,J1,7*%
%TO.N,GND*%
X70000000Y-78370000D03*
%TO.P,J1,8*%
X72540000Y-78370000D03*
%TO.P,J1,9*%
%TO.N,+12V*%
X70000000Y-80910000D03*
%TO.P,J1,10*%
X72540000Y-80910000D03*
%TO.P,J1,11*%
%TO.N,+5V*%
X70000000Y-83450000D03*
%TO.P,J1,12*%
X72540000Y-83450000D03*
%TO.P,J1,13*%
%TO.N,Net-(J1-Pad13)*%
X70000000Y-85990000D03*
%TO.P,J1,14*%
%TO.N,SOFT_SYNC*%
X72540000Y-85990000D03*
%TO.P,J1,15*%
%TO.N,Net-(J1-Pad15)*%
X70000000Y-88530000D03*
%TO.P,J1,16*%
%TO.N,HARD_SYNC*%
X72540000Y-88530000D03*
%TD*%
D13*
%TO.P,RV9,3*%
%TO.N,GND*%
X102500000Y-128750000D03*
%TO.P,RV9,2*%
%TO.N,Net-(R20-Pad1)*%
X105000000Y-128750000D03*
%TO.P,RV9,1*%
%TO.N,Net-(R19-Pad2)*%
X107500000Y-128750000D03*
D14*
%TO.P,RV9,*%
%TO.N,*%
X100600000Y-121750000D03*
X109400000Y-121750000D03*
%TD*%
D13*
%TO.P,RV6,3*%
%TO.N,GND*%
X85500000Y-95750000D03*
%TO.P,RV6,2*%
%TO.N,Net-(R14-Pad1)*%
X88000000Y-95750000D03*
%TO.P,RV6,1*%
%TO.N,PULSE*%
X90500000Y-95750000D03*
D14*
%TO.P,RV6,*%
%TO.N,*%
X83600000Y-88750000D03*
X92400000Y-88750000D03*
%TD*%
D15*
%TO.P,R22,2*%
%TO.N,Net-(R22-Pad2)*%
X112000000Y-139120000D03*
D16*
%TO.P,R22,1*%
%TO.N,Net-(R21-Pad2)*%
X112000000Y-131500000D03*
%TD*%
D15*
%TO.P,R21,2*%
%TO.N,Net-(R21-Pad2)*%
X115500000Y-139120000D03*
D16*
%TO.P,R21,1*%
%TO.N,Net-(R20-Pad2)*%
X115500000Y-131500000D03*
%TD*%
D15*
%TO.P,R20,2*%
%TO.N,Net-(R20-Pad2)*%
X113750000Y-116880000D03*
D16*
%TO.P,R20,1*%
%TO.N,Net-(R20-Pad1)*%
X113750000Y-124500000D03*
%TD*%
D15*
%TO.P,R19,2*%
%TO.N,Net-(R19-Pad2)*%
X104000000Y-107870000D03*
D16*
%TO.P,R19,1*%
%TO.N,Net-(R10-Pad2)*%
X104000000Y-100250000D03*
%TD*%
D15*
%TO.P,R18,2*%
%TO.N,Net-(R18-Pad2)*%
X72380000Y-99000000D03*
D16*
%TO.P,R18,1*%
%TO.N,RAMP*%
X80000000Y-99000000D03*
%TD*%
D15*
%TO.P,R17,2*%
%TO.N,Net-(R17-Pad2)*%
X72380000Y-105500000D03*
D16*
%TO.P,R17,1*%
%TO.N,PULSE*%
X80000000Y-105500000D03*
%TD*%
D15*
%TO.P,R16,2*%
%TO.N,Net-(R10-Pad2)*%
X112750000Y-74370000D03*
D16*
%TO.P,R16,1*%
%TO.N,Net-(R16-Pad1)*%
X112750000Y-66750000D03*
%TD*%
D15*
%TO.P,R15,2*%
%TO.N,Net-(R10-Pad2)*%
X112750000Y-96120000D03*
D16*
%TO.P,R15,1*%
%TO.N,Net-(R15-Pad1)*%
X112750000Y-88500000D03*
%TD*%
D15*
%TO.P,R14,2*%
%TO.N,Net-(R10-Pad2)*%
X100750000Y-100130000D03*
D16*
%TO.P,R14,1*%
%TO.N,Net-(R14-Pad1)*%
X100750000Y-107750000D03*
%TD*%
D15*
%TO.P,R13,2*%
%TO.N,Net-(R13-Pad2)*%
X44130000Y-96750000D03*
D16*
%TO.P,R13,1*%
%TO.N,TRIAN*%
X51750000Y-96750000D03*
%TD*%
D15*
%TO.P,R12,2*%
%TO.N,Net-(R12-Pad2)*%
X39750000Y-102120000D03*
D16*
%TO.P,R12,1*%
%TO.N,SINE*%
X39750000Y-94500000D03*
%TD*%
D15*
%TO.P,R11,2*%
%TO.N,Net-(R10-Pad2)*%
X97500000Y-100130000D03*
D16*
%TO.P,R11,1*%
%TO.N,Net-(R11-Pad1)*%
X97500000Y-107750000D03*
%TD*%
D15*
%TO.P,R10,2*%
%TO.N,Net-(R10-Pad2)*%
X112750000Y-85120000D03*
D16*
%TO.P,R10,1*%
%TO.N,Net-(R10-Pad1)*%
X112750000Y-77500000D03*
%TD*%
D15*
%TO.P,R9,2*%
%TO.N,GND*%
X95250000Y-134120000D03*
D16*
%TO.P,R9,1*%
%TO.N,PWM_IN*%
X95250000Y-126500000D03*
%TD*%
D15*
%TO.P,R8,2*%
%TO.N,FREQ_CV*%
X53250000Y-65120000D03*
D16*
%TO.P,R8,1*%
%TO.N,Net-(R8-Pad1)*%
X53250000Y-57500000D03*
%TD*%
D15*
%TO.P,R7,2*%
%TO.N,PWM_IN*%
X95250000Y-123620000D03*
D16*
%TO.P,R7,1*%
%TO.N,Net-(R7-Pad1)*%
X95250000Y-116000000D03*
%TD*%
D15*
%TO.P,R6,2*%
%TO.N,PWM_IN*%
X95250000Y-136880000D03*
D16*
%TO.P,R6,1*%
%TO.N,+5V*%
X95250000Y-144500000D03*
%TD*%
D15*
%TO.P,R5,2*%
%TO.N,LIN_FM*%
X79870000Y-102250000D03*
D16*
%TO.P,R5,1*%
%TO.N,Net-(C1-Pad2)*%
X72250000Y-102250000D03*
%TD*%
D15*
%TO.P,R4,2*%
%TO.N,FREQ_CV*%
X72380000Y-108750000D03*
D16*
%TO.P,R4,1*%
%TO.N,Net-(R4-Pad1)*%
X80000000Y-108750000D03*
%TD*%
D15*
%TO.P,R3,2*%
%TO.N,FREQ_CV*%
X61370000Y-112750000D03*
D16*
%TO.P,R3,1*%
%TO.N,Net-(R3-Pad1)*%
X53750000Y-112750000D03*
%TD*%
D15*
%TO.P,R2,2*%
%TO.N,FREQ_CV*%
X39750000Y-105130000D03*
D16*
%TO.P,R2,1*%
%TO.N,Net-(R2-Pad1)*%
X39750000Y-112750000D03*
%TD*%
D15*
%TO.P,R1,2*%
%TO.N,FREQ_CV*%
X39000000Y-81380000D03*
D16*
%TO.P,R1,1*%
%TO.N,Net-(R1-Pad1)*%
X39000000Y-89000000D03*
%TD*%
D14*
%TO.P,RV3,*%
%TO.N,*%
X66400000Y-57750000D03*
X57600000Y-57750000D03*
D13*
%TO.P,RV3,1*%
%TO.N,+12V*%
X64500000Y-64750000D03*
%TO.P,RV3,2*%
%TO.N,Net-(R8-Pad1)*%
X62000000Y-64750000D03*
%TO.P,RV3,3*%
%TO.N,-12V*%
X59500000Y-64750000D03*
%TD*%
D17*
%TO.P,SW1,1*%
%TO.N,SOFT_SYNC*%
X66000000Y-110200000D03*
%TO.P,SW1,2*%
%TO.N,Net-(C2-Pad2)*%
X66000000Y-105750000D03*
%TO.P,SW1,3*%
%TO.N,HARD_SYNC*%
X66000000Y-101300000D03*
%TD*%
D13*
%TO.P,RV1,3*%
%TO.N,GND*%
X45500000Y-89750000D03*
%TO.P,RV1,2*%
%TO.N,Net-(R1-Pad1)*%
X48000000Y-89750000D03*
%TO.P,RV1,1*%
%TO.N,+12V*%
X50500000Y-89750000D03*
D14*
%TO.P,RV1,*%
%TO.N,*%
X43600000Y-82750000D03*
X52400000Y-82750000D03*
%TD*%
%TO.P,U8,T*%
%TO.N,Net-(R13-Pad2)*%
%TA.AperFunction,ComponentPad*%
G36*
G01*
X53700000Y-133480000D02*
X53700000Y-132180000D01*
G75*
G02*
X54350000Y-131530000I650000J0D01*
G01*
X55650000Y-131530000D01*
G75*
G02*
X56300000Y-132180000I0J-650000D01*
G01*
X56300000Y-133480000D01*
G75*
G02*
X55650000Y-134130000I-650000J0D01*
G01*
X54350000Y-134130000D01*
G75*
G02*
X53700000Y-133480000I0J650000D01*
G01*
G37*
%TD.AperFunction*%
D10*
%TO.P,U8,S*%
%TO.N,GND*%
X55000000Y-144230000D03*
%TO.P,U8,TN*%
%TO.N,Net-(R13-Pad2)*%
%TA.AperFunction,ComponentPad*%
G36*
G01*
X53700000Y-141780000D02*
X53700000Y-140480000D01*
G75*
G02*
X54350000Y-139830000I650000J0D01*
G01*
X55650000Y-139830000D01*
G75*
G02*
X56300000Y-140480000I0J-650000D01*
G01*
X56300000Y-141780000D01*
G75*
G02*
X55650000Y-142430000I-650000J0D01*
G01*
X54350000Y-142430000D01*
G75*
G02*
X53700000Y-141780000I0J650000D01*
G01*
G37*
%TD.AperFunction*%
%TD*%
D16*
%TO.P,C1,2*%
%TO.N,Net-(C1-Pad2)*%
X74500000Y-112500000D03*
%TO.P,C1,1*%
%TO.N,Net-(C1-Pad1)*%
X79500000Y-112500000D03*
%TD*%
%TO.P,C2,1*%
%TO.N,Net-(C2-Pad1)*%
X54750000Y-109250000D03*
%TO.P,C2,2*%
%TO.N,Net-(C2-Pad2)*%
X59750000Y-109250000D03*
%TD*%
D18*
%TO.P,C3,1*%
%TO.N,+12V*%
X103000000Y-113500000D03*
D16*
%TO.P,C3,2*%
%TO.N,GND*%
X103000000Y-111000000D03*
%TD*%
%TO.P,C4,2*%
%TO.N,-12V*%
X115750000Y-101000000D03*
D18*
%TO.P,C4,1*%
%TO.N,GND*%
X113250000Y-101000000D03*
%TD*%
D13*
%TO.P,RV2,3*%
%TO.N,GND*%
X85500000Y-112750000D03*
%TO.P,RV2,2*%
%TO.N,Net-(R7-Pad1)*%
X88000000Y-112750000D03*
%TO.P,RV2,1*%
%TO.N,Net-(RV2-Pad1)*%
X90500000Y-112750000D03*
D14*
%TO.P,RV2,*%
%TO.N,*%
X83600000Y-105750000D03*
X92400000Y-105750000D03*
%TD*%
D13*
%TO.P,RV5,3*%
%TO.N,GND*%
X85500000Y-80000000D03*
%TO.P,RV5,2*%
%TO.N,Net-(R11-Pad1)*%
X88000000Y-80000000D03*
%TO.P,RV5,1*%
%TO.N,TRIAN*%
X90500000Y-80000000D03*
D14*
%TO.P,RV5,*%
%TO.N,*%
X83600000Y-73000000D03*
X92400000Y-73000000D03*
%TD*%
%TO.P,RV8,*%
%TO.N,*%
X100400000Y-57750000D03*
X91600000Y-57750000D03*
D13*
%TO.P,RV8,1*%
%TO.N,SQR*%
X98500000Y-64750000D03*
%TO.P,RV8,2*%
%TO.N,Net-(R16-Pad1)*%
X96000000Y-64750000D03*
%TO.P,RV8,3*%
%TO.N,GND*%
X93500000Y-64750000D03*
%TD*%
D14*
%TO.P,RV4,*%
%TO.N,*%
X108400000Y-73000000D03*
X99600000Y-73000000D03*
D13*
%TO.P,RV4,1*%
%TO.N,SINE*%
X106500000Y-80000000D03*
%TO.P,RV4,2*%
%TO.N,Net-(R10-Pad1)*%
X104000000Y-80000000D03*
%TO.P,RV4,3*%
%TO.N,GND*%
X101500000Y-80000000D03*
%TD*%
D14*
%TO.P,RV7,*%
%TO.N,*%
X108400000Y-88750000D03*
X99600000Y-88750000D03*
D13*
%TO.P,RV7,1*%
%TO.N,RAMP*%
X106500000Y-95750000D03*
%TO.P,RV7,2*%
%TO.N,Net-(R15-Pad1)*%
X104000000Y-95750000D03*
%TO.P,RV7,3*%
%TO.N,GND*%
X101500000Y-95750000D03*
%TD*%
%TO.P,U1,TN*%
%TO.N,Net-(U1-PadTN)*%
%TA.AperFunction,ComponentPad*%
G36*
G01*
X42700000Y-125780000D02*
X42700000Y-124480000D01*
G75*
G02*
X43350000Y-123830000I650000J0D01*
G01*
X44650000Y-123830000D01*
G75*
G02*
X45300000Y-124480000I0J-650000D01*
G01*
X45300000Y-125780000D01*
G75*
G02*
X44650000Y-126430000I-650000J0D01*
G01*
X43350000Y-126430000D01*
G75*
G02*
X42700000Y-125780000I0J650000D01*
G01*
G37*
%TD.AperFunction*%
D10*
%TO.P,U1,S*%
%TO.N,GND*%
X44000000Y-128230000D03*
%TO.P,U1,T*%
%TO.N,Net-(R2-Pad1)*%
%TA.AperFunction,ComponentPad*%
G36*
G01*
X42700000Y-117480000D02*
X42700000Y-116180000D01*
G75*
G02*
X43350000Y-115530000I650000J0D01*
G01*
X44650000Y-115530000D01*
G75*
G02*
X45300000Y-116180000I0J-650000D01*
G01*
X45300000Y-117480000D01*
G75*
G02*
X44650000Y-118130000I-650000J0D01*
G01*
X43350000Y-118130000D01*
G75*
G02*
X42700000Y-117480000I0J650000D01*
G01*
G37*
%TD.AperFunction*%
%TD*%
%TO.P,U2,T*%
%TO.N,Net-(R3-Pad1)*%
%TA.AperFunction,ComponentPad*%
G36*
G01*
X53700000Y-117480000D02*
X53700000Y-116180000D01*
G75*
G02*
X54350000Y-115530000I650000J0D01*
G01*
X55650000Y-115530000D01*
G75*
G02*
X56300000Y-116180000I0J-650000D01*
G01*
X56300000Y-117480000D01*
G75*
G02*
X55650000Y-118130000I-650000J0D01*
G01*
X54350000Y-118130000D01*
G75*
G02*
X53700000Y-117480000I0J650000D01*
G01*
G37*
%TD.AperFunction*%
%TO.P,U2,S*%
%TO.N,GND*%
X55000000Y-128230000D03*
%TO.P,U2,TN*%
%TO.N,Net-(U2-PadTN)*%
%TA.AperFunction,ComponentPad*%
G36*
G01*
X53700000Y-125780000D02*
X53700000Y-124480000D01*
G75*
G02*
X54350000Y-123830000I650000J0D01*
G01*
X55650000Y-123830000D01*
G75*
G02*
X56300000Y-124480000I0J-650000D01*
G01*
X56300000Y-125780000D01*
G75*
G02*
X55650000Y-126430000I-650000J0D01*
G01*
X54350000Y-126430000D01*
G75*
G02*
X53700000Y-125780000I0J650000D01*
G01*
G37*
%TD.AperFunction*%
%TD*%
%TO.P,U3,T*%
%TO.N,Net-(R4-Pad1)*%
%TA.AperFunction,ComponentPad*%
G36*
G01*
X64700000Y-117480000D02*
X64700000Y-116180000D01*
G75*
G02*
X65350000Y-115530000I650000J0D01*
G01*
X66650000Y-115530000D01*
G75*
G02*
X67300000Y-116180000I0J-650000D01*
G01*
X67300000Y-117480000D01*
G75*
G02*
X66650000Y-118130000I-650000J0D01*
G01*
X65350000Y-118130000D01*
G75*
G02*
X64700000Y-117480000I0J650000D01*
G01*
G37*
%TD.AperFunction*%
%TO.P,U3,S*%
%TO.N,GND*%
X66000000Y-128230000D03*
%TO.P,U3,TN*%
%TO.N,Net-(U3-PadTN)*%
%TA.AperFunction,ComponentPad*%
G36*
G01*
X64700000Y-125780000D02*
X64700000Y-124480000D01*
G75*
G02*
X65350000Y-123830000I650000J0D01*
G01*
X66650000Y-123830000D01*
G75*
G02*
X67300000Y-124480000I0J-650000D01*
G01*
X67300000Y-125780000D01*
G75*
G02*
X66650000Y-126430000I-650000J0D01*
G01*
X65350000Y-126430000D01*
G75*
G02*
X64700000Y-125780000I0J650000D01*
G01*
G37*
%TD.AperFunction*%
%TD*%
%TO.P,U4,TN*%
%TO.N,Net-(U4-PadTN)*%
%TA.AperFunction,ComponentPad*%
G36*
G01*
X75700000Y-125780000D02*
X75700000Y-124480000D01*
G75*
G02*
X76350000Y-123830000I650000J0D01*
G01*
X77650000Y-123830000D01*
G75*
G02*
X78300000Y-124480000I0J-650000D01*
G01*
X78300000Y-125780000D01*
G75*
G02*
X77650000Y-126430000I-650000J0D01*
G01*
X76350000Y-126430000D01*
G75*
G02*
X75700000Y-125780000I0J650000D01*
G01*
G37*
%TD.AperFunction*%
%TO.P,U4,S*%
%TO.N,GND*%
X77000000Y-128230000D03*
%TO.P,U4,T*%
%TO.N,Net-(C1-Pad1)*%
%TA.AperFunction,ComponentPad*%
G36*
G01*
X75700000Y-117480000D02*
X75700000Y-116180000D01*
G75*
G02*
X76350000Y-115530000I650000J0D01*
G01*
X77650000Y-115530000D01*
G75*
G02*
X78300000Y-116180000I0J-650000D01*
G01*
X78300000Y-117480000D01*
G75*
G02*
X77650000Y-118130000I-650000J0D01*
G01*
X76350000Y-118130000D01*
G75*
G02*
X75700000Y-117480000I0J650000D01*
G01*
G37*
%TD.AperFunction*%
%TD*%
%TO.P,U5,TN*%
%TO.N,+5V*%
%TA.AperFunction,ComponentPad*%
G36*
G01*
X86700000Y-125780000D02*
X86700000Y-124480000D01*
G75*
G02*
X87350000Y-123830000I650000J0D01*
G01*
X88650000Y-123830000D01*
G75*
G02*
X89300000Y-124480000I0J-650000D01*
G01*
X89300000Y-125780000D01*
G75*
G02*
X88650000Y-126430000I-650000J0D01*
G01*
X87350000Y-126430000D01*
G75*
G02*
X86700000Y-125780000I0J650000D01*
G01*
G37*
%TD.AperFunction*%
%TO.P,U5,S*%
%TO.N,GND*%
X88000000Y-128230000D03*
%TO.P,U5,T*%
%TO.N,Net-(RV2-Pad1)*%
%TA.AperFunction,ComponentPad*%
G36*
G01*
X86700000Y-117480000D02*
X86700000Y-116180000D01*
G75*
G02*
X87350000Y-115530000I650000J0D01*
G01*
X88650000Y-115530000D01*
G75*
G02*
X89300000Y-116180000I0J-650000D01*
G01*
X89300000Y-117480000D01*
G75*
G02*
X88650000Y-118130000I-650000J0D01*
G01*
X87350000Y-118130000D01*
G75*
G02*
X86700000Y-117480000I0J650000D01*
G01*
G37*
%TD.AperFunction*%
%TD*%
%TO.P,U6,T*%
%TO.N,Net-(C2-Pad1)*%
%TA.AperFunction,ComponentPad*%
G36*
G01*
X46700000Y-101480000D02*
X46700000Y-100180000D01*
G75*
G02*
X47350000Y-99530000I650000J0D01*
G01*
X48650000Y-99530000D01*
G75*
G02*
X49300000Y-100180000I0J-650000D01*
G01*
X49300000Y-101480000D01*
G75*
G02*
X48650000Y-102130000I-650000J0D01*
G01*
X47350000Y-102130000D01*
G75*
G02*
X46700000Y-101480000I0J650000D01*
G01*
G37*
%TD.AperFunction*%
%TO.P,U6,S*%
%TO.N,GND*%
X48000000Y-112230000D03*
%TO.P,U6,TN*%
%TO.N,Net-(U6-PadTN)*%
%TA.AperFunction,ComponentPad*%
G36*
G01*
X46700000Y-109780000D02*
X46700000Y-108480000D01*
G75*
G02*
X47350000Y-107830000I650000J0D01*
G01*
X48650000Y-107830000D01*
G75*
G02*
X49300000Y-108480000I0J-650000D01*
G01*
X49300000Y-109780000D01*
G75*
G02*
X48650000Y-110430000I-650000J0D01*
G01*
X47350000Y-110430000D01*
G75*
G02*
X46700000Y-109780000I0J650000D01*
G01*
G37*
%TD.AperFunction*%
%TD*%
D18*
%TO.P,U11,1*%
%TO.N,Net-(R19-Pad2)*%
X107750000Y-105500000D03*
D15*
%TO.P,U11,5*%
%TO.N,GND*%
X115370000Y-113120000D03*
%TO.P,U11,2*%
%TO.N,Net-(R10-Pad2)*%
X110290000Y-105500000D03*
%TO.P,U11,6*%
%TO.N,Net-(R20-Pad2)*%
X112830000Y-113120000D03*
%TO.P,U11,3*%
%TO.N,GND*%
X112830000Y-105500000D03*
%TO.P,U11,7*%
%TO.N,Net-(R21-Pad2)*%
X110290000Y-113120000D03*
%TO.P,U11,4*%
%TO.N,-12V*%
X115370000Y-105500000D03*
%TO.P,U11,8*%
%TO.N,+12V*%
X107750000Y-113120000D03*
%TD*%
%TO.P,U13,TN*%
%TO.N,Net-(R22-Pad2)*%
%TA.AperFunction,ComponentPad*%
G36*
G01*
X103700000Y-141780000D02*
X103700000Y-140480000D01*
G75*
G02*
X104350000Y-139830000I650000J0D01*
G01*
X105650000Y-139830000D01*
G75*
G02*
X106300000Y-140480000I0J-650000D01*
G01*
X106300000Y-141780000D01*
G75*
G02*
X105650000Y-142430000I-650000J0D01*
G01*
X104350000Y-142430000D01*
G75*
G02*
X103700000Y-141780000I0J650000D01*
G01*
G37*
%TD.AperFunction*%
D10*
%TO.P,U13,S*%
%TO.N,GND*%
X105000000Y-144230000D03*
%TO.P,U13,T*%
%TO.N,Net-(R22-Pad2)*%
%TA.AperFunction,ComponentPad*%
G36*
G01*
X103700000Y-133480000D02*
X103700000Y-132180000D01*
G75*
G02*
X104350000Y-131530000I650000J0D01*
G01*
X105650000Y-131530000D01*
G75*
G02*
X106300000Y-132180000I0J-650000D01*
G01*
X106300000Y-133480000D01*
G75*
G02*
X105650000Y-134130000I-650000J0D01*
G01*
X104350000Y-134130000D01*
G75*
G02*
X103700000Y-133480000I0J650000D01*
G01*
G37*
%TD.AperFunction*%
%TD*%
%TO.P,U7,T*%
%TO.N,Net-(R12-Pad2)*%
%TA.AperFunction,ComponentPad*%
G36*
G01*
X42700000Y-133480000D02*
X42700000Y-132180000D01*
G75*
G02*
X43350000Y-131530000I650000J0D01*
G01*
X44650000Y-131530000D01*
G75*
G02*
X45300000Y-132180000I0J-650000D01*
G01*
X45300000Y-133480000D01*
G75*
G02*
X44650000Y-134130000I-650000J0D01*
G01*
X43350000Y-134130000D01*
G75*
G02*
X42700000Y-133480000I0J650000D01*
G01*
G37*
%TD.AperFunction*%
%TO.P,U7,S*%
%TO.N,GND*%
X44000000Y-144230000D03*
%TO.P,U7,TN*%
%TO.N,Net-(R12-Pad2)*%
%TA.AperFunction,ComponentPad*%
G36*
G01*
X42700000Y-141780000D02*
X42700000Y-140480000D01*
G75*
G02*
X43350000Y-139830000I650000J0D01*
G01*
X44650000Y-139830000D01*
G75*
G02*
X45300000Y-140480000I0J-650000D01*
G01*
X45300000Y-141780000D01*
G75*
G02*
X44650000Y-142430000I-650000J0D01*
G01*
X43350000Y-142430000D01*
G75*
G02*
X42700000Y-141780000I0J650000D01*
G01*
G37*
%TD.AperFunction*%
%TD*%
%TO.P,U10,T*%
%TO.N,Net-(R18-Pad2)*%
%TA.AperFunction,ComponentPad*%
G36*
G01*
X75700000Y-133480000D02*
X75700000Y-132180000D01*
G75*
G02*
X76350000Y-131530000I650000J0D01*
G01*
X77650000Y-131530000D01*
G75*
G02*
X78300000Y-132180000I0J-650000D01*
G01*
X78300000Y-133480000D01*
G75*
G02*
X77650000Y-134130000I-650000J0D01*
G01*
X76350000Y-134130000D01*
G75*
G02*
X75700000Y-133480000I0J650000D01*
G01*
G37*
%TD.AperFunction*%
%TO.P,U10,S*%
%TO.N,GND*%
X77000000Y-144230000D03*
%TO.P,U10,TN*%
%TO.N,Net-(R18-Pad2)*%
%TA.AperFunction,ComponentPad*%
G36*
G01*
X75700000Y-141780000D02*
X75700000Y-140480000D01*
G75*
G02*
X76350000Y-139830000I650000J0D01*
G01*
X77650000Y-139830000D01*
G75*
G02*
X78300000Y-140480000I0J-650000D01*
G01*
X78300000Y-141780000D01*
G75*
G02*
X77650000Y-142430000I-650000J0D01*
G01*
X76350000Y-142430000D01*
G75*
G02*
X75700000Y-141780000I0J650000D01*
G01*
G37*
%TD.AperFunction*%
%TD*%
%TO.P,U9,T*%
%TO.N,Net-(R17-Pad2)*%
%TA.AperFunction,ComponentPad*%
G36*
G01*
X64700000Y-133480000D02*
X64700000Y-132180000D01*
G75*
G02*
X65350000Y-131530000I650000J0D01*
G01*
X66650000Y-131530000D01*
G75*
G02*
X67300000Y-132180000I0J-650000D01*
G01*
X67300000Y-133480000D01*
G75*
G02*
X66650000Y-134130000I-650000J0D01*
G01*
X65350000Y-134130000D01*
G75*
G02*
X64700000Y-133480000I0J650000D01*
G01*
G37*
%TD.AperFunction*%
%TO.P,U9,S*%
%TO.N,GND*%
X66000000Y-144230000D03*
%TO.P,U9,TN*%
%TO.N,Net-(R17-Pad2)*%
%TA.AperFunction,ComponentPad*%
G36*
G01*
X64700000Y-141780000D02*
X64700000Y-140480000D01*
G75*
G02*
X65350000Y-139830000I650000J0D01*
G01*
X66650000Y-139830000D01*
G75*
G02*
X67300000Y-140480000I0J-650000D01*
G01*
X67300000Y-141780000D01*
G75*
G02*
X66650000Y-142430000I-650000J0D01*
G01*
X65350000Y-142430000D01*
G75*
G02*
X64700000Y-141780000I0J650000D01*
G01*
G37*
%TD.AperFunction*%
%TD*%
D11*
%TO.P,J2,1*%
%TO.N,SINE*%
X61000000Y-79750000D03*
D12*
%TO.P,J2,2*%
%TO.N,RAMP*%
X63540000Y-79750000D03*
%TO.P,J2,3*%
%TO.N,TRIAN*%
X61000000Y-82290000D03*
%TO.P,J2,4*%
%TO.N,SQR*%
X63540000Y-82290000D03*
%TO.P,J2,5*%
%TO.N,PULSE*%
X61000000Y-84830000D03*
%TO.P,J2,6*%
%TO.N,Net-(J2-Pad6)*%
X63540000Y-84830000D03*
%TO.P,J2,7*%
%TO.N,GND*%
X61000000Y-87370000D03*
%TO.P,J2,8*%
X63540000Y-87370000D03*
%TD*%
D19*
%TO.N,+12V*%
X64500000Y-68750000D03*
X64250000Y-75750000D03*
X96250000Y-110000000D03*
X87250000Y-102750000D03*
X83500000Y-96750000D03*
X87000000Y-85500000D03*
X82500000Y-81000000D03*
X79500000Y-81000000D03*
X76250000Y-81000000D03*
%TO.N,+5V*%
X57750000Y-113000000D03*
X57750000Y-107750000D03*
X58500000Y-96750000D03*
X63500000Y-91750000D03*
%TO.N,LIN_FM*%
X78150000Y-92000000D03*
X74000000Y-68250000D03*
X71500000Y-68250000D03*
X67250000Y-68750000D03*
X67250000Y-74250000D03*
%TO.N,PWM_IN*%
X82250000Y-112000000D03*
X77250000Y-94000000D03*
%TO.N,TRIAN*%
X64750000Y-96500000D03*
X71000000Y-96500000D03*
%TO.N,SQR*%
X74000000Y-66750000D03*
X71500000Y-66750000D03*
X65750000Y-68750000D03*
X65750000Y-78750000D03*
X73000000Y-130500000D03*
X69500000Y-130500000D03*
X63250000Y-130500000D03*
X56500000Y-130500000D03*
X51250000Y-110750000D03*
X52500000Y-105750000D03*
X57500000Y-95750000D03*
X62250000Y-91000000D03*
%TO.N,RAMP*%
X88250000Y-98000000D03*
X97750000Y-98000000D03*
X66000000Y-83500000D03*
X66000000Y-87250000D03*
X66250000Y-90750000D03*
X70250000Y-90750000D03*
X81750000Y-92000000D03*
%TO.N,PULSE*%
X75000000Y-98250000D03*
X68750000Y-93000000D03*
%TO.N,SINE*%
X97500000Y-84250000D03*
X94500000Y-84250000D03*
X83000000Y-84250000D03*
X79750000Y-84250000D03*
X72500000Y-95250000D03*
X66500000Y-95250000D03*
X57750000Y-83500000D03*
X57750000Y-81000000D03*
%TO.N,Net-(R12-Pad2)*%
X42250000Y-106500000D03*
%TO.N,Net-(R13-Pad2)*%
X44250000Y-106500000D03*
X44250000Y-103750000D03*
%TO.N,Net-(R14-Pad1)*%
X94750000Y-102250000D03*
%TO.N,Net-(R17-Pad2)*%
X72250000Y-113500000D03*
%TO.N,Net-(R18-Pad2)*%
X70750000Y-118250000D03*
X70750000Y-110750000D03*
%TD*%
D20*
%TO.N,+12V*%
X70000000Y-80910000D02*
X72540000Y-80910000D01*
X107370000Y-113500000D02*
X107750000Y-113120000D01*
X103000000Y-113500000D02*
X107370000Y-113500000D01*
X50500000Y-89750000D02*
X50500000Y-87000000D01*
X50500000Y-87000000D02*
X48500000Y-85000000D01*
X48500000Y-85000000D02*
X48500000Y-79000000D01*
X48500000Y-79000000D02*
X51750000Y-75750000D01*
X51750000Y-75750000D02*
X64250000Y-75750000D01*
X64250000Y-75750000D02*
X66750000Y-78250000D01*
X66750000Y-78250000D02*
X66750000Y-80000000D01*
X67660000Y-80910000D02*
X70000000Y-80910000D01*
X66750000Y-80000000D02*
X67660000Y-80910000D01*
X64500000Y-64750000D02*
X64500000Y-68750000D01*
X96250000Y-110000000D02*
X95250000Y-109000000D01*
X95250000Y-109000000D02*
X90250000Y-109000000D01*
X87250000Y-106000000D02*
X87250000Y-102750000D01*
X90250000Y-109000000D02*
X87250000Y-106000000D01*
X83500000Y-96750000D02*
X83500000Y-94250000D01*
X87000000Y-90750000D02*
X87000000Y-85500000D01*
X83500000Y-94250000D02*
X87000000Y-90750000D01*
X82500000Y-81000000D02*
X79500000Y-81000000D01*
X72630000Y-81000000D02*
X72540000Y-80910000D01*
X76250000Y-81000000D02*
X72630000Y-81000000D01*
%TO.N,-12V*%
X70000000Y-70750000D02*
X62750000Y-70750000D01*
X59500000Y-67500000D02*
X59500000Y-64750000D01*
X62750000Y-70750000D02*
X59500000Y-67500000D01*
X70000000Y-70750000D02*
X72540000Y-70750000D01*
X115750000Y-105120000D02*
X115370000Y-105500000D01*
X115750000Y-101000000D02*
X115750000Y-105120000D01*
X72540000Y-62460000D02*
X72540000Y-70750000D01*
X73750000Y-61250000D02*
X72540000Y-62460000D01*
X116000000Y-61250000D02*
X73750000Y-61250000D01*
X116500000Y-61750000D02*
X116000000Y-61250000D01*
X116500000Y-100250000D02*
X116500000Y-61750000D01*
X115750000Y-101000000D02*
X116500000Y-100250000D01*
%TO.N,+5V*%
X70000000Y-83450000D02*
X72540000Y-83450000D01*
X95250000Y-144500000D02*
X93250000Y-146500000D01*
X93250000Y-146500000D02*
X61000000Y-146500000D01*
X57750000Y-143250000D02*
X57750000Y-113000000D01*
X61000000Y-146500000D02*
X57750000Y-143250000D01*
X57750000Y-97500000D02*
X58500000Y-96750000D01*
X57750000Y-107750000D02*
X57750000Y-97500000D01*
X63500000Y-91750000D02*
X67250000Y-88000000D01*
X67250000Y-88000000D02*
X67250000Y-83750000D01*
X67550000Y-83450000D02*
X70000000Y-83450000D01*
X67250000Y-83750000D02*
X67550000Y-83450000D01*
X88000000Y-125130000D02*
X90630000Y-125130000D01*
X90630000Y-125130000D02*
X91750000Y-126250000D01*
X91750000Y-141000000D02*
X95250000Y-144500000D01*
X91750000Y-126250000D02*
X91750000Y-141000000D01*
%TO.N,Net-(R1-Pad1)*%
X39000000Y-89000000D02*
X39000000Y-87250000D01*
X39000000Y-87250000D02*
X39500000Y-86750000D01*
X39500000Y-86750000D02*
X47250000Y-86750000D01*
X48000000Y-87500000D02*
X48000000Y-89750000D01*
X47250000Y-86750000D02*
X48000000Y-87500000D01*
%TO.N,FREQ_CV*%
X61370000Y-112750000D02*
X70750000Y-112750000D01*
X72380000Y-111120000D02*
X72380000Y-108750000D01*
X70750000Y-112750000D02*
X72380000Y-111120000D01*
X39750000Y-105130000D02*
X47630000Y-105130000D01*
X47630000Y-105130000D02*
X53500000Y-111000000D01*
X59620000Y-111000000D02*
X61370000Y-112750000D01*
X53500000Y-111000000D02*
X59620000Y-111000000D01*
X39750000Y-105130000D02*
X37500000Y-102880000D01*
X37500000Y-82880000D02*
X39000000Y-81380000D01*
X37500000Y-102880000D02*
X37500000Y-82880000D01*
X39000000Y-81380000D02*
X39000000Y-67250000D01*
X41130000Y-65120000D02*
X53250000Y-65120000D01*
X39000000Y-67250000D02*
X41130000Y-65120000D01*
X61420000Y-73290000D02*
X53250000Y-65120000D01*
X70000000Y-73290000D02*
X61420000Y-73290000D01*
%TO.N,Net-(R2-Pad1)*%
X43830000Y-116830000D02*
X44000000Y-116830000D01*
X39750000Y-112750000D02*
X43830000Y-116830000D01*
%TO.N,Net-(R3-Pad1)*%
X53750000Y-115580000D02*
X55000000Y-116830000D01*
X53750000Y-112750000D02*
X53750000Y-115580000D01*
%TO.N,Net-(R4-Pad1)*%
X80000000Y-108750000D02*
X78000000Y-108750000D01*
X78000000Y-108750000D02*
X77000000Y-109750000D01*
X77000000Y-109750000D02*
X77000000Y-112750000D01*
X72920000Y-116830000D02*
X66000000Y-116830000D01*
X77000000Y-112750000D02*
X72920000Y-116830000D01*
%TO.N,LIN_FM*%
X78150000Y-72400000D02*
X74000000Y-68250000D01*
X78150000Y-92000000D02*
X78150000Y-72400000D01*
X67750000Y-68250000D02*
X67250000Y-68750000D01*
X71500000Y-68250000D02*
X67750000Y-68250000D01*
X67250000Y-74250000D02*
X67250000Y-75250000D01*
X67830000Y-75830000D02*
X70000000Y-75830000D01*
X67250000Y-75250000D02*
X67830000Y-75830000D01*
%TO.N,PWM_IN*%
X95250000Y-126500000D02*
X95250000Y-123620000D01*
X95250000Y-136880000D02*
X97500000Y-134630000D01*
X97500000Y-128750000D02*
X95250000Y-126500000D01*
X97500000Y-134630000D02*
X97500000Y-128750000D01*
X95250000Y-123620000D02*
X91130000Y-119500000D01*
X91130000Y-119500000D02*
X85250000Y-119500000D01*
X82250000Y-116500000D02*
X82250000Y-112000000D01*
X85250000Y-119500000D02*
X82250000Y-116500000D01*
X77250000Y-94000000D02*
X77250000Y-75000000D01*
X75540000Y-73290000D02*
X72540000Y-73290000D01*
X77250000Y-75000000D02*
X75540000Y-73290000D01*
%TO.N,Net-(R7-Pad1)*%
X88000000Y-112750000D02*
X88000000Y-111250000D01*
X88000000Y-111250000D02*
X88750000Y-110500000D01*
X88750000Y-110500000D02*
X94000000Y-110500000D01*
X95250000Y-111750000D02*
X95250000Y-116000000D01*
X94000000Y-110500000D02*
X95250000Y-111750000D01*
%TO.N,Net-(R8-Pad1)*%
X62000000Y-64750000D02*
X59000000Y-61750000D01*
X59000000Y-61750000D02*
X54500000Y-61750000D01*
X53250000Y-60500000D02*
X53250000Y-57500000D01*
X54500000Y-61750000D02*
X53250000Y-60500000D01*
%TO.N,Net-(R16-Pad1)*%
X96000000Y-64750000D02*
X96000000Y-62750000D01*
X96000000Y-62750000D02*
X96250000Y-62500000D01*
X96250000Y-62500000D02*
X112000000Y-62500000D01*
X112750000Y-63250000D02*
X112750000Y-66750000D01*
X112000000Y-62500000D02*
X112750000Y-63250000D01*
%TO.N,Net-(R19-Pad2)*%
X106370000Y-105500000D02*
X104000000Y-107870000D01*
X107750000Y-105500000D02*
X106370000Y-105500000D01*
X105750000Y-130500000D02*
X107500000Y-128750000D01*
X100500000Y-130500000D02*
X105750000Y-130500000D01*
X97500000Y-127500000D02*
X100500000Y-130500000D01*
X97500000Y-111500000D02*
X97500000Y-127500000D01*
X99000000Y-110000000D02*
X97500000Y-111500000D01*
X101500000Y-110000000D02*
X99000000Y-110000000D01*
X103630000Y-107870000D02*
X101500000Y-110000000D01*
X104000000Y-107870000D02*
X103630000Y-107870000D01*
%TO.N,Net-(R20-Pad2)*%
X113750000Y-114040000D02*
X112830000Y-113120000D01*
X113750000Y-116880000D02*
X113750000Y-114040000D01*
X115500000Y-118630000D02*
X113750000Y-116880000D01*
X115500000Y-131500000D02*
X115500000Y-118630000D01*
%TO.N,TRIAN*%
X56500000Y-92000000D02*
X56500000Y-82750000D01*
X56960000Y-82290000D02*
X61000000Y-82290000D01*
X56500000Y-82750000D02*
X56960000Y-82290000D01*
X90500000Y-80000000D02*
X90500000Y-81250000D01*
X90500000Y-81250000D02*
X89750000Y-82000000D01*
X89750000Y-82000000D02*
X81500000Y-82000000D01*
X81500000Y-82000000D02*
X80750000Y-82750000D01*
X80750000Y-95250000D02*
X79500000Y-96500000D01*
X80750000Y-82750000D02*
X80750000Y-95250000D01*
X60750000Y-96500000D02*
X56375000Y-92125000D01*
X64750000Y-96500000D02*
X60750000Y-96500000D01*
X56375000Y-92125000D02*
X56500000Y-92000000D01*
X51750000Y-96750000D02*
X56375000Y-92125000D01*
X79500000Y-96500000D02*
X71000000Y-96500000D01*
%TO.N,SQR*%
X88000000Y-141130000D02*
X88000000Y-132830000D01*
X98500000Y-64750000D02*
X98500000Y-66000000D01*
X97750000Y-66750000D02*
X74000000Y-66750000D01*
X98500000Y-66000000D02*
X97750000Y-66750000D01*
X71500000Y-66750000D02*
X67500000Y-66750000D01*
X65750000Y-68500000D02*
X65750000Y-68750000D01*
X67500000Y-66750000D02*
X65750000Y-68500000D01*
X65750000Y-78750000D02*
X65750000Y-82000000D01*
X65750000Y-82000000D02*
X65460000Y-82290000D01*
X88000000Y-132830000D02*
X84830000Y-132830000D01*
X82500000Y-130500000D02*
X73000000Y-130500000D01*
X84830000Y-132830000D02*
X82500000Y-130500000D01*
X69500000Y-130500000D02*
X63250000Y-130500000D01*
X56500000Y-130500000D02*
X52250000Y-130500000D01*
X51250000Y-129500000D02*
X51250000Y-110750000D01*
X52250000Y-130500000D02*
X51250000Y-129500000D01*
X52500000Y-105750000D02*
X56000000Y-102250000D01*
X64540000Y-82290000D02*
X63540000Y-82290000D01*
X65460000Y-82290000D02*
X64540000Y-82290000D01*
X56000000Y-97250000D02*
X57500000Y-95750000D01*
X56000000Y-102250000D02*
X56000000Y-97250000D01*
X65149999Y-82899999D02*
X64540000Y-82290000D01*
X65149999Y-88100001D02*
X65149999Y-82899999D01*
X62250000Y-91000000D02*
X65149999Y-88100001D01*
%TO.N,RAMP*%
X80250000Y-98750000D02*
X80000000Y-99000000D01*
X80000000Y-99000000D02*
X81000000Y-98000000D01*
X81000000Y-98000000D02*
X88250000Y-98000000D01*
X97750000Y-98000000D02*
X105750000Y-98000000D01*
X106500000Y-97250000D02*
X106500000Y-95750000D01*
X105750000Y-98000000D02*
X106500000Y-97250000D01*
X66000000Y-83500000D02*
X66000000Y-87250000D01*
X66250000Y-90750000D02*
X70250000Y-90750000D01*
X81750000Y-97250000D02*
X81000000Y-98000000D01*
X81750000Y-92000000D02*
X81750000Y-97250000D01*
%TO.N,PULSE*%
X90500000Y-97750000D02*
X90500000Y-95750000D01*
X90500000Y-100500000D02*
X90500000Y-97750000D01*
X89750000Y-101250000D02*
X90500000Y-100500000D01*
X83500000Y-101250000D02*
X89750000Y-101250000D01*
X80000000Y-104750000D02*
X83500000Y-101250000D01*
X80000000Y-105500000D02*
X80000000Y-104750000D01*
X75000000Y-100500000D02*
X75000000Y-98250000D01*
X80000000Y-105500000D02*
X75000000Y-100500000D01*
X68750000Y-93000000D02*
X62750000Y-93000000D01*
X62750000Y-93000000D02*
X59000000Y-89250000D01*
X59000000Y-89250000D02*
X59000000Y-85500000D01*
X59670000Y-84830000D02*
X61000000Y-84830000D01*
X59000000Y-85500000D02*
X59670000Y-84830000D01*
%TO.N,SINE*%
X56500000Y-79750000D02*
X55250000Y-81000000D01*
X55250000Y-81000000D02*
X55250000Y-90500000D01*
X55250000Y-90500000D02*
X53750000Y-92000000D01*
X53750000Y-92000000D02*
X40250000Y-92000000D01*
X39750000Y-92500000D02*
X39750000Y-94500000D01*
X40250000Y-92000000D02*
X39750000Y-92500000D01*
X102250000Y-84250000D02*
X97500000Y-84250000D01*
X106500000Y-80000000D02*
X102250000Y-84250000D01*
X94500000Y-84250000D02*
X83000000Y-84250000D01*
X79750000Y-84250000D02*
X79000000Y-85000000D01*
X79000000Y-85000000D02*
X79000000Y-94500000D01*
X79000000Y-94500000D02*
X79000000Y-94750000D01*
X78500000Y-95250000D02*
X72500000Y-95250000D01*
X79000000Y-94750000D02*
X78500000Y-95250000D01*
X66500000Y-95250000D02*
X62750000Y-95250000D01*
X57750000Y-90250000D02*
X57750000Y-83500000D01*
X62750000Y-95250000D02*
X57750000Y-90250000D01*
X57750000Y-80250000D02*
X58250000Y-79750000D01*
X57750000Y-81000000D02*
X57750000Y-80250000D01*
X58250000Y-79750000D02*
X56500000Y-79750000D01*
X61000000Y-79750000D02*
X58250000Y-79750000D01*
%TO.N,Net-(RV2-Pad1)*%
X88000000Y-116830000D02*
X89670000Y-116830000D01*
X90500000Y-116000000D02*
X90500000Y-112750000D01*
X89670000Y-116830000D02*
X90500000Y-116000000D01*
%TO.N,SOFT_SYNC*%
X66000000Y-110200000D02*
X67300000Y-110200000D01*
X67300000Y-110200000D02*
X70000000Y-107500000D01*
X70000000Y-107500000D02*
X70000000Y-96000000D01*
X70000000Y-96000000D02*
X75250000Y-90750000D01*
X75250000Y-90750000D02*
X75250000Y-87250000D01*
X73990000Y-85990000D02*
X72540000Y-85990000D01*
X75250000Y-87250000D02*
X73990000Y-85990000D01*
%TO.N,HARD_SYNC*%
X66000000Y-101300000D02*
X66000000Y-97250000D01*
X72540000Y-90710000D02*
X72540000Y-88530000D01*
X66000000Y-97250000D02*
X72540000Y-90710000D01*
%TO.N,Net-(C1-Pad2)*%
X74500000Y-104500000D02*
X72250000Y-102250000D01*
X74500000Y-112500000D02*
X74500000Y-104500000D01*
%TO.N,Net-(C1-Pad1)*%
X79500000Y-114330000D02*
X77000000Y-116830000D01*
X79500000Y-112500000D02*
X79500000Y-114330000D01*
%TO.N,Net-(C2-Pad1)*%
X48000000Y-102500000D02*
X54750000Y-109250000D01*
X48000000Y-100830000D02*
X48000000Y-102500000D01*
%TO.N,Net-(C2-Pad2)*%
X63250000Y-105750000D02*
X59750000Y-109250000D01*
X66000000Y-105750000D02*
X63250000Y-105750000D01*
%TO.N,Net-(R10-Pad1)*%
X104000000Y-80000000D02*
X104000000Y-77750000D01*
X104250000Y-77500000D02*
X112750000Y-77500000D01*
X104000000Y-77750000D02*
X104250000Y-77500000D01*
%TO.N,Net-(R10-Pad2)*%
X112750000Y-96120000D02*
X114630000Y-96120000D01*
X114630000Y-96120000D02*
X115500000Y-95250000D01*
X112750000Y-85120000D02*
X114620000Y-85120000D01*
X115500000Y-86000000D02*
X115500000Y-95250000D01*
X114620000Y-85120000D02*
X115500000Y-86000000D01*
X112750000Y-74370000D02*
X115120000Y-74370000D01*
X115500000Y-74750000D02*
X115500000Y-86000000D01*
X115120000Y-74370000D02*
X115500000Y-74750000D01*
X97500000Y-100130000D02*
X100750000Y-100130000D01*
X103880000Y-100130000D02*
X104000000Y-100250000D01*
X100750000Y-100130000D02*
X103880000Y-100130000D01*
X108620000Y-100250000D02*
X112750000Y-96120000D01*
X104000000Y-100250000D02*
X108620000Y-100250000D01*
X110290000Y-101920000D02*
X108620000Y-100250000D01*
X110290000Y-105500000D02*
X110290000Y-101920000D01*
%TO.N,Net-(R11-Pad1)*%
X96000000Y-106250000D02*
X97500000Y-107750000D01*
X96000000Y-78000000D02*
X96000000Y-106250000D01*
X95500000Y-77500000D02*
X96000000Y-78000000D01*
X88500000Y-77500000D02*
X95500000Y-77500000D01*
X88000000Y-78000000D02*
X88500000Y-77500000D01*
X88000000Y-80000000D02*
X88000000Y-78000000D01*
%TO.N,Net-(R12-Pad2)*%
X44000000Y-141130000D02*
X44000000Y-132830000D01*
X44000000Y-132830000D02*
X41330000Y-132830000D01*
X41330000Y-132830000D02*
X37500000Y-129000000D01*
X37500000Y-129000000D02*
X37500000Y-110750000D01*
X37500000Y-110750000D02*
X38750000Y-109500000D01*
X41000000Y-109500000D02*
X41500000Y-109500000D01*
X38750000Y-109500000D02*
X41000000Y-109500000D01*
X41000000Y-109500000D02*
X41250000Y-109500000D01*
X42250000Y-108750000D02*
X42250000Y-106500000D01*
X41500000Y-109500000D02*
X42250000Y-108750000D01*
%TO.N,Net-(R13-Pad2)*%
X55000000Y-141130000D02*
X55000000Y-132830000D01*
X55000000Y-132830000D02*
X51080000Y-132830000D01*
X51080000Y-132830000D02*
X49250000Y-131000000D01*
X49250000Y-131000000D02*
X49250000Y-118000000D01*
X44250000Y-113000000D02*
X44250000Y-106500000D01*
X49250000Y-118000000D02*
X44250000Y-113000000D01*
X44250000Y-96870000D02*
X44130000Y-96750000D01*
X44250000Y-103750000D02*
X44250000Y-96870000D01*
%TO.N,Net-(R14-Pad1)*%
X94750000Y-102250000D02*
X93750000Y-101250000D01*
X93750000Y-101250000D02*
X93750000Y-94750000D01*
X93750000Y-94750000D02*
X92000000Y-93000000D01*
X92000000Y-93000000D02*
X88500000Y-93000000D01*
X88000000Y-93500000D02*
X88000000Y-95750000D01*
X88500000Y-93000000D02*
X88000000Y-93500000D01*
%TO.N,Net-(R15-Pad1)*%
X104000000Y-95750000D02*
X104000000Y-93500000D01*
X104000000Y-93500000D02*
X104500000Y-93000000D01*
X104500000Y-93000000D02*
X112000000Y-93000000D01*
X112750000Y-92250000D02*
X112750000Y-88500000D01*
X112000000Y-93000000D02*
X112750000Y-92250000D01*
%TO.N,Net-(R17-Pad2)*%
X66000000Y-141130000D02*
X66000000Y-132830000D01*
X72250000Y-113500000D02*
X72250000Y-114000000D01*
X72250000Y-114000000D02*
X71750000Y-114500000D01*
X71750000Y-114500000D02*
X63250000Y-114500000D01*
X63250000Y-114500000D02*
X62000000Y-115750000D01*
X62000000Y-115750000D02*
X62000000Y-132250000D01*
X62580000Y-132830000D02*
X66000000Y-132830000D01*
X62000000Y-132250000D02*
X62580000Y-132830000D01*
%TO.N,Net-(R18-Pad2)*%
X77000000Y-141130000D02*
X77000000Y-132830000D01*
X70750000Y-118250000D02*
X70750000Y-130750000D01*
X72830000Y-132830000D02*
X77000000Y-132830000D01*
X70750000Y-130750000D02*
X72830000Y-132830000D01*
X70750000Y-100630000D02*
X72380000Y-99000000D01*
X70750000Y-110750000D02*
X70750000Y-100630000D01*
%TO.N,Net-(R21-Pad2)*%
X115500000Y-135000000D02*
X112000000Y-131500000D01*
X115500000Y-139120000D02*
X115500000Y-135000000D01*
X112000000Y-131500000D02*
X112000000Y-115500000D01*
X110290000Y-113790000D02*
X110290000Y-113120000D01*
X112000000Y-115500000D02*
X110290000Y-113790000D01*
%TO.N,Net-(R22-Pad2)*%
X109990000Y-141130000D02*
X112000000Y-139120000D01*
X105000000Y-141130000D02*
X109990000Y-141130000D01*
X105000000Y-141130000D02*
X105000000Y-132830000D01*
%TD*%
M02*
