M48
; DRILL file {KiCad (5.1.9)-1} date 06/02/21 09:14:56
; FORMAT={-:-/ absolute / inch / decimal}
; #@! TF.CreationDate,2021-06-02T09:14:56-06:00
; #@! TF.GenerationSoftware,Kicad,Pcbnew,(5.1.9)-1
; #@! TF.FileFunction,Plated,1,2,PTH
FMAT,2
INCH
T1C0.0157
T2C0.0236
T3C0.0315
T4C0.0394
%
G90
G05
T1
X1.6634Y-4.1929
X1.7421Y-4.0846
X1.7421Y-4.1929
X2.0177Y-4.3602
X2.0669Y-4.1634
X2.2244Y-5.1378
X2.2638Y-3.7697
X2.2736Y-3.189
X2.2736Y-3.2874
X2.2736Y-4.2421
X2.2736Y-4.4488
X2.3031Y-3.8091
X2.4508Y-3.5827
X2.4902Y-5.1378
X2.5Y-3.6122
X2.5295Y-2.9823
X2.5394Y-2.7067
X2.5492Y-3.7992
X2.5886Y-2.7067
X2.5886Y-3.1004
X2.5984Y-3.2874
X2.5984Y-3.435
X2.6083Y-3.5728
X2.6181Y-3.75
X2.6476Y-2.7067
X2.6476Y-2.9232
X2.7067Y-3.6614
X2.7362Y-5.1378
X2.7657Y-3.5728
X2.7854Y-4.3602
X2.7854Y-4.6555
X2.7953Y-3.7992
X2.815Y-2.628
X2.815Y-2.687
X2.8445Y-4.4685
X2.8543Y-3.75
X2.874Y-5.1378
X2.9134Y-2.628
X2.9134Y-2.687
X2.9528Y-3.8681
X3.002Y-3.189
X3.0413Y-3.7008
X3.0768Y-3.622
X3.1299Y-3.189
X3.1398Y-3.3169
X3.2185Y-3.622
X3.2382Y-4.4094
X3.248Y-3.189
X3.2677Y-3.3169
X3.2874Y-3.8091
X3.4252Y-3.3661
X3.435Y-4.0453
X3.4744Y-3.8583
X3.7205Y-3.3169
X3.7303Y-4.0256
X3.7894Y-4.3307
X3.8386Y-3.3169
X3.8484Y-3.8583
T3
X1.5354Y-3.2039
X1.5354Y-3.5039
X1.565Y-3.7205
X1.565Y-4.0205
X1.565Y-4.139
X1.565Y-4.439
X1.7374Y-3.8091
X2.0374Y-3.8091
X2.0965Y-2.2638
X2.0965Y-2.5638
X2.1161Y-4.439
X2.1555Y-4.3012
X2.3524Y-4.3012
X2.4161Y-4.439
X2.8445Y-4.0256
X2.8496Y-3.8976
X2.8496Y-4.1535
X2.8496Y-4.2815
X2.9331Y-4.4291
X3.1299Y-4.4291
X3.1445Y-4.0256
X3.1496Y-3.8976
X3.1496Y-4.1535
X3.1496Y-4.2815
X3.75Y-4.5669
X3.75Y-4.8669
X3.75Y-4.9803
X3.75Y-5.2803
X3.75Y-5.389
X3.75Y-5.689
X3.8386Y-3.9421
X3.8386Y-4.2421
X3.9665Y-3.9421
X3.9665Y-4.2421
X4.0551Y-4.3701
X4.0551Y-4.4685
X4.0945Y-3.9469
X4.0945Y-4.2469
X4.2421Y-4.1535
X4.2421Y-4.4535
X4.3421Y-4.1535
X4.3421Y-4.4535
X4.4094Y-5.1772
X4.4094Y-5.4772
X4.439Y-2.628
X4.439Y-2.928
X4.439Y-3.0512
X4.439Y-3.3512
X4.439Y-3.4843
X4.439Y-3.7843
X4.4421Y-4.1535
X4.4421Y-4.4535
X4.4587Y-3.9764
X4.4783Y-4.6016
X4.4783Y-4.9016
X4.5421Y-4.1535
X4.5421Y-4.4535
X4.5472Y-5.1772
X4.5472Y-5.4772
X4.5571Y-3.9764
T4
X1.7913Y-3.5335
X1.8898Y-3.5335
X1.9882Y-3.5335
X2.3425Y-2.5492
X2.4016Y-3.1398
X2.4016Y-3.2398
X2.4016Y-3.3398
X2.4016Y-3.4398
X2.4409Y-2.5492
X2.5016Y-3.1398
X2.5016Y-3.2398
X2.5016Y-3.3398
X2.5016Y-3.4398
X2.5394Y-2.5492
X2.7559Y-2.7854
X2.7559Y-2.8854
X2.7559Y-2.9854
X2.7559Y-3.0854
X2.7559Y-3.1854
X2.7559Y-3.2854
X2.7559Y-3.3854
X2.7559Y-3.4854
X2.8559Y-2.7854
X2.8559Y-2.8854
X2.8559Y-2.9854
X2.8559Y-3.0854
X2.8559Y-3.1854
X2.8559Y-3.2854
X2.8559Y-3.3854
X2.8559Y-3.4854
X3.3661Y-3.1496
X3.3661Y-3.7697
X3.3661Y-4.439
X3.4646Y-3.1496
X3.4646Y-3.7697
X3.4646Y-4.439
X3.563Y-3.1496
X3.563Y-3.7697
X3.563Y-4.439
X3.6811Y-2.5492
X3.7795Y-2.5492
X3.878Y-2.5492
X3.9961Y-3.1496
X3.9961Y-3.7697
X4.0354Y-5.0689
X4.0945Y-3.1496
X4.0945Y-3.7697
X4.1339Y-5.0689
X4.1929Y-3.1496
X4.1929Y-3.7697
X4.2323Y-5.0689
T2
G00X1.7126Y-4.5996
M15
G01X1.752Y-4.5996
M16
G05
G00X1.7126Y-4.9264
M15
G01X1.752Y-4.9264
M16
G05
G00X1.7126Y-5.0484
M15
G01X1.752Y-5.0484
M16
G05
G00X1.7126Y-5.2295
M15
G01X1.752Y-5.2295
M16
G05
G00X1.7126Y-5.5563
M15
G01X1.752Y-5.5563
M16
G05
G00X1.7126Y-5.6783
M15
G01X1.752Y-5.6783
M16
G05
G00X1.8701Y-3.9697
M15
G01X1.9094Y-3.9697
M16
G05
G00X1.8701Y-4.2965
M15
G01X1.9094Y-4.2965
M16
G05
G00X1.8701Y-4.4185
M15
G01X1.9094Y-4.4185
M16
G05
G00X2.1457Y-4.5996
M15
G01X2.185Y-4.5996
M16
G05
G00X2.1457Y-4.9264
M15
G01X2.185Y-4.9264
M16
G05
G00X2.1457Y-5.0484
M15
G01X2.185Y-5.0484
M16
G05
G00X2.1457Y-5.2295
M15
G01X2.185Y-5.2295
M16
G05
G00X2.1457Y-5.5563
M15
G01X2.185Y-5.5563
M16
G05
G00X2.1457Y-5.6783
M15
G01X2.185Y-5.6783
M16
G05
G00X2.5787Y-4.5996
M15
G01X2.6181Y-4.5996
M16
G05
G00X2.5787Y-4.9264
M15
G01X2.6181Y-4.9264
M16
G05
G00X2.5787Y-5.0484
M15
G01X2.6181Y-5.0484
M16
G05
G00X2.5787Y-5.2295
M15
G01X2.6181Y-5.2295
M16
G05
G00X2.5787Y-5.5563
M15
G01X2.6181Y-5.5563
M16
G05
G00X2.5787Y-5.6783
M15
G01X2.6181Y-5.6783
M16
G05
G00X3.0118Y-4.5996
M15
G01X3.0512Y-4.5996
M16
G05
G00X3.0118Y-4.9264
M15
G01X3.0512Y-4.9264
M16
G05
G00X3.0118Y-5.0484
M15
G01X3.0512Y-5.0484
M16
G05
G00X3.0118Y-5.2295
M15
G01X3.0512Y-5.2295
M16
G05
G00X3.0118Y-5.5563
M15
G01X3.0512Y-5.5563
M16
G05
G00X3.0118Y-5.6783
M15
G01X3.0512Y-5.6783
M16
G05
G00X3.4449Y-4.5996
M15
G01X3.4843Y-4.5996
M16
G05
G00X3.4449Y-4.9264
M15
G01X3.4843Y-4.9264
M16
G05
G00X3.4449Y-5.0484
M15
G01X3.4843Y-5.0484
M16
G05
G00X3.4449Y-5.2295
M15
G01X3.4843Y-5.2295
M16
G05
G00X3.4449Y-5.5563
M15
G01X3.4843Y-5.5563
M16
G05
G00X3.4449Y-5.6783
M15
G01X3.4843Y-5.6783
M16
G05
G00X4.1142Y-5.2295
M15
G01X4.1535Y-5.2295
M16
G05
G00X4.1142Y-5.5563
M15
G01X4.1535Y-5.5563
M16
G05
G00X4.1142Y-5.6783
M15
G01X4.1535Y-5.6783
M16
G05
T4
G00X2.5728Y-3.9882
M15
G01X2.624Y-3.9882
M16
G05
G00X2.5728Y-4.1634
M15
G01X2.624Y-4.1634
M16
G05
G00X2.5728Y-4.3386
M15
G01X2.624Y-4.3386
M16
G05
T0
M30
