%TF.GenerationSoftware,KiCad,Pcbnew,7.0.1*%
%TF.CreationDate,2023-04-05T02:41:21-06:00*%
%TF.ProjectId,Phase_B_ATMEGA,50686173-655f-4425-9f41-544d4547412e,rev?*%
%TF.SameCoordinates,Original*%
%TF.FileFunction,Legend,Top*%
%TF.FilePolarity,Positive*%
%FSLAX46Y46*%
G04 Gerber Fmt 4.6, Leading zero omitted, Abs format (unit mm)*
G04 Created by KiCad (PCBNEW 7.0.1) date 2023-04-05 02:41:21*
%MOMM*%
%LPD*%
G01*
G04 APERTURE LIST*
%ADD10C,0.150000*%
%ADD11C,0.240000*%
%ADD12C,0.300000*%
%ADD13C,0.254000*%
%ADD14C,0.120000*%
%ADD15C,0.127000*%
%ADD16C,0.200000*%
%ADD17C,0.100000*%
G04 APERTURE END LIST*
D10*
X96393095Y-101824619D02*
X96964523Y-101824619D01*
X96678809Y-102824619D02*
X96678809Y-101824619D01*
X97202619Y-101824619D02*
X97869285Y-102824619D01*
X97869285Y-101824619D02*
X97202619Y-102824619D01*
D11*
X133178428Y-71989142D02*
X132778428Y-71417714D01*
X132492714Y-71989142D02*
X132492714Y-70789142D01*
X132492714Y-70789142D02*
X132949857Y-70789142D01*
X132949857Y-70789142D02*
X133064142Y-70846285D01*
X133064142Y-70846285D02*
X133121285Y-70903428D01*
X133121285Y-70903428D02*
X133178428Y-71017714D01*
X133178428Y-71017714D02*
X133178428Y-71189142D01*
X133178428Y-71189142D02*
X133121285Y-71303428D01*
X133121285Y-71303428D02*
X133064142Y-71360571D01*
X133064142Y-71360571D02*
X132949857Y-71417714D01*
X132949857Y-71417714D02*
X132492714Y-71417714D01*
X133692714Y-71360571D02*
X134092714Y-71360571D01*
X134264142Y-71989142D02*
X133692714Y-71989142D01*
X133692714Y-71989142D02*
X133692714Y-70789142D01*
X133692714Y-70789142D02*
X134264142Y-70789142D01*
X134778428Y-71989142D02*
X134778428Y-70789142D01*
X134778428Y-70789142D02*
X135064142Y-70789142D01*
X135064142Y-70789142D02*
X135235571Y-70846285D01*
X135235571Y-70846285D02*
X135349856Y-70960571D01*
X135349856Y-70960571D02*
X135406999Y-71074857D01*
X135406999Y-71074857D02*
X135464142Y-71303428D01*
X135464142Y-71303428D02*
X135464142Y-71474857D01*
X135464142Y-71474857D02*
X135406999Y-71703428D01*
X135406999Y-71703428D02*
X135349856Y-71817714D01*
X135349856Y-71817714D02*
X135235571Y-71932000D01*
X135235571Y-71932000D02*
X135064142Y-71989142D01*
X135064142Y-71989142D02*
X134778428Y-71989142D01*
D12*
X137898142Y-50719714D02*
X138398142Y-50719714D01*
X138612428Y-51505428D02*
X137898142Y-51505428D01*
X137898142Y-51505428D02*
X137898142Y-50005428D01*
X137898142Y-50005428D02*
X138612428Y-50005428D01*
X139255285Y-51505428D02*
X139255285Y-50505428D01*
X139255285Y-50648285D02*
X139326714Y-50576857D01*
X139326714Y-50576857D02*
X139469571Y-50505428D01*
X139469571Y-50505428D02*
X139683857Y-50505428D01*
X139683857Y-50505428D02*
X139826714Y-50576857D01*
X139826714Y-50576857D02*
X139898143Y-50719714D01*
X139898143Y-50719714D02*
X139898143Y-51505428D01*
X139898143Y-50719714D02*
X139969571Y-50576857D01*
X139969571Y-50576857D02*
X140112428Y-50505428D01*
X140112428Y-50505428D02*
X140326714Y-50505428D01*
X140326714Y-50505428D02*
X140469571Y-50576857D01*
X140469571Y-50576857D02*
X140541000Y-50719714D01*
X140541000Y-50719714D02*
X140541000Y-51505428D01*
X141255285Y-51505428D02*
X141255285Y-50005428D01*
X141255285Y-50576857D02*
X141398143Y-50505428D01*
X141398143Y-50505428D02*
X141683857Y-50505428D01*
X141683857Y-50505428D02*
X141826714Y-50576857D01*
X141826714Y-50576857D02*
X141898143Y-50648285D01*
X141898143Y-50648285D02*
X141969571Y-50791142D01*
X141969571Y-50791142D02*
X141969571Y-51219714D01*
X141969571Y-51219714D02*
X141898143Y-51362571D01*
X141898143Y-51362571D02*
X141826714Y-51434000D01*
X141826714Y-51434000D02*
X141683857Y-51505428D01*
X141683857Y-51505428D02*
X141398143Y-51505428D01*
X141398143Y-51505428D02*
X141255285Y-51434000D01*
X143183857Y-51434000D02*
X143041000Y-51505428D01*
X143041000Y-51505428D02*
X142755286Y-51505428D01*
X142755286Y-51505428D02*
X142612428Y-51434000D01*
X142612428Y-51434000D02*
X142541000Y-51291142D01*
X142541000Y-51291142D02*
X142541000Y-50719714D01*
X142541000Y-50719714D02*
X142612428Y-50576857D01*
X142612428Y-50576857D02*
X142755286Y-50505428D01*
X142755286Y-50505428D02*
X143041000Y-50505428D01*
X143041000Y-50505428D02*
X143183857Y-50576857D01*
X143183857Y-50576857D02*
X143255286Y-50719714D01*
X143255286Y-50719714D02*
X143255286Y-50862571D01*
X143255286Y-50862571D02*
X142541000Y-51005428D01*
X144541000Y-51505428D02*
X144541000Y-50005428D01*
X144541000Y-51434000D02*
X144398142Y-51505428D01*
X144398142Y-51505428D02*
X144112428Y-51505428D01*
X144112428Y-51505428D02*
X143969571Y-51434000D01*
X143969571Y-51434000D02*
X143898142Y-51362571D01*
X143898142Y-51362571D02*
X143826714Y-51219714D01*
X143826714Y-51219714D02*
X143826714Y-50791142D01*
X143826714Y-50791142D02*
X143898142Y-50648285D01*
X143898142Y-50648285D02*
X143969571Y-50576857D01*
X143969571Y-50576857D02*
X144112428Y-50505428D01*
X144112428Y-50505428D02*
X144398142Y-50505428D01*
X144398142Y-50505428D02*
X144541000Y-50576857D01*
X145898143Y-51505428D02*
X145898143Y-50005428D01*
X145898143Y-51434000D02*
X145755285Y-51505428D01*
X145755285Y-51505428D02*
X145469571Y-51505428D01*
X145469571Y-51505428D02*
X145326714Y-51434000D01*
X145326714Y-51434000D02*
X145255285Y-51362571D01*
X145255285Y-51362571D02*
X145183857Y-51219714D01*
X145183857Y-51219714D02*
X145183857Y-50791142D01*
X145183857Y-50791142D02*
X145255285Y-50648285D01*
X145255285Y-50648285D02*
X145326714Y-50576857D01*
X145326714Y-50576857D02*
X145469571Y-50505428D01*
X145469571Y-50505428D02*
X145755285Y-50505428D01*
X145755285Y-50505428D02*
X145898143Y-50576857D01*
X147183857Y-51434000D02*
X147041000Y-51505428D01*
X147041000Y-51505428D02*
X146755286Y-51505428D01*
X146755286Y-51505428D02*
X146612428Y-51434000D01*
X146612428Y-51434000D02*
X146541000Y-51291142D01*
X146541000Y-51291142D02*
X146541000Y-50719714D01*
X146541000Y-50719714D02*
X146612428Y-50576857D01*
X146612428Y-50576857D02*
X146755286Y-50505428D01*
X146755286Y-50505428D02*
X147041000Y-50505428D01*
X147041000Y-50505428D02*
X147183857Y-50576857D01*
X147183857Y-50576857D02*
X147255286Y-50719714D01*
X147255286Y-50719714D02*
X147255286Y-50862571D01*
X147255286Y-50862571D02*
X146541000Y-51005428D01*
X148541000Y-51505428D02*
X148541000Y-50005428D01*
X148541000Y-51434000D02*
X148398142Y-51505428D01*
X148398142Y-51505428D02*
X148112428Y-51505428D01*
X148112428Y-51505428D02*
X147969571Y-51434000D01*
X147969571Y-51434000D02*
X147898142Y-51362571D01*
X147898142Y-51362571D02*
X147826714Y-51219714D01*
X147826714Y-51219714D02*
X147826714Y-50791142D01*
X147826714Y-50791142D02*
X147898142Y-50648285D01*
X147898142Y-50648285D02*
X147969571Y-50576857D01*
X147969571Y-50576857D02*
X148112428Y-50505428D01*
X148112428Y-50505428D02*
X148398142Y-50505428D01*
X148398142Y-50505428D02*
X148541000Y-50576857D01*
X150326714Y-51434000D02*
X150541000Y-51505428D01*
X150541000Y-51505428D02*
X150898142Y-51505428D01*
X150898142Y-51505428D02*
X151041000Y-51434000D01*
X151041000Y-51434000D02*
X151112428Y-51362571D01*
X151112428Y-51362571D02*
X151183857Y-51219714D01*
X151183857Y-51219714D02*
X151183857Y-51076857D01*
X151183857Y-51076857D02*
X151112428Y-50934000D01*
X151112428Y-50934000D02*
X151041000Y-50862571D01*
X151041000Y-50862571D02*
X150898142Y-50791142D01*
X150898142Y-50791142D02*
X150612428Y-50719714D01*
X150612428Y-50719714D02*
X150469571Y-50648285D01*
X150469571Y-50648285D02*
X150398142Y-50576857D01*
X150398142Y-50576857D02*
X150326714Y-50434000D01*
X150326714Y-50434000D02*
X150326714Y-50291142D01*
X150326714Y-50291142D02*
X150398142Y-50148285D01*
X150398142Y-50148285D02*
X150469571Y-50076857D01*
X150469571Y-50076857D02*
X150612428Y-50005428D01*
X150612428Y-50005428D02*
X150969571Y-50005428D01*
X150969571Y-50005428D02*
X151183857Y-50076857D01*
X151683856Y-50505428D02*
X152040999Y-51505428D01*
X152398142Y-50505428D02*
X152040999Y-51505428D01*
X152040999Y-51505428D02*
X151898142Y-51862571D01*
X151898142Y-51862571D02*
X151826713Y-51934000D01*
X151826713Y-51934000D02*
X151683856Y-52005428D01*
X152898142Y-51434000D02*
X153040999Y-51505428D01*
X153040999Y-51505428D02*
X153326713Y-51505428D01*
X153326713Y-51505428D02*
X153469570Y-51434000D01*
X153469570Y-51434000D02*
X153540999Y-51291142D01*
X153540999Y-51291142D02*
X153540999Y-51219714D01*
X153540999Y-51219714D02*
X153469570Y-51076857D01*
X153469570Y-51076857D02*
X153326713Y-51005428D01*
X153326713Y-51005428D02*
X153112428Y-51005428D01*
X153112428Y-51005428D02*
X152969570Y-50934000D01*
X152969570Y-50934000D02*
X152898142Y-50791142D01*
X152898142Y-50791142D02*
X152898142Y-50719714D01*
X152898142Y-50719714D02*
X152969570Y-50576857D01*
X152969570Y-50576857D02*
X153112428Y-50505428D01*
X153112428Y-50505428D02*
X153326713Y-50505428D01*
X153326713Y-50505428D02*
X153469570Y-50576857D01*
X153969571Y-50505428D02*
X154540999Y-50505428D01*
X154183856Y-50005428D02*
X154183856Y-51291142D01*
X154183856Y-51291142D02*
X154255285Y-51434000D01*
X154255285Y-51434000D02*
X154398142Y-51505428D01*
X154398142Y-51505428D02*
X154540999Y-51505428D01*
X155612428Y-51434000D02*
X155469571Y-51505428D01*
X155469571Y-51505428D02*
X155183857Y-51505428D01*
X155183857Y-51505428D02*
X155040999Y-51434000D01*
X155040999Y-51434000D02*
X154969571Y-51291142D01*
X154969571Y-51291142D02*
X154969571Y-50719714D01*
X154969571Y-50719714D02*
X155040999Y-50576857D01*
X155040999Y-50576857D02*
X155183857Y-50505428D01*
X155183857Y-50505428D02*
X155469571Y-50505428D01*
X155469571Y-50505428D02*
X155612428Y-50576857D01*
X155612428Y-50576857D02*
X155683857Y-50719714D01*
X155683857Y-50719714D02*
X155683857Y-50862571D01*
X155683857Y-50862571D02*
X154969571Y-51005428D01*
X156326713Y-51505428D02*
X156326713Y-50505428D01*
X156326713Y-50648285D02*
X156398142Y-50576857D01*
X156398142Y-50576857D02*
X156540999Y-50505428D01*
X156540999Y-50505428D02*
X156755285Y-50505428D01*
X156755285Y-50505428D02*
X156898142Y-50576857D01*
X156898142Y-50576857D02*
X156969571Y-50719714D01*
X156969571Y-50719714D02*
X156969571Y-51505428D01*
X156969571Y-50719714D02*
X157040999Y-50576857D01*
X157040999Y-50576857D02*
X157183856Y-50505428D01*
X157183856Y-50505428D02*
X157398142Y-50505428D01*
X157398142Y-50505428D02*
X157540999Y-50576857D01*
X157540999Y-50576857D02*
X157612428Y-50719714D01*
X157612428Y-50719714D02*
X157612428Y-51505428D01*
X158255285Y-51434000D02*
X158398142Y-51505428D01*
X158398142Y-51505428D02*
X158683856Y-51505428D01*
X158683856Y-51505428D02*
X158826713Y-51434000D01*
X158826713Y-51434000D02*
X158898142Y-51291142D01*
X158898142Y-51291142D02*
X158898142Y-51219714D01*
X158898142Y-51219714D02*
X158826713Y-51076857D01*
X158826713Y-51076857D02*
X158683856Y-51005428D01*
X158683856Y-51005428D02*
X158469571Y-51005428D01*
X158469571Y-51005428D02*
X158326713Y-50934000D01*
X158326713Y-50934000D02*
X158255285Y-50791142D01*
X158255285Y-50791142D02*
X158255285Y-50719714D01*
X158255285Y-50719714D02*
X158326713Y-50576857D01*
X158326713Y-50576857D02*
X158469571Y-50505428D01*
X158469571Y-50505428D02*
X158683856Y-50505428D01*
X158683856Y-50505428D02*
X158826713Y-50576857D01*
D10*
X106005380Y-102951619D02*
X105672047Y-102475428D01*
X105433952Y-102951619D02*
X105433952Y-101951619D01*
X105433952Y-101951619D02*
X105814904Y-101951619D01*
X105814904Y-101951619D02*
X105910142Y-101999238D01*
X105910142Y-101999238D02*
X105957761Y-102046857D01*
X105957761Y-102046857D02*
X106005380Y-102142095D01*
X106005380Y-102142095D02*
X106005380Y-102284952D01*
X106005380Y-102284952D02*
X105957761Y-102380190D01*
X105957761Y-102380190D02*
X105910142Y-102427809D01*
X105910142Y-102427809D02*
X105814904Y-102475428D01*
X105814904Y-102475428D02*
X105433952Y-102475428D01*
X106386333Y-102904000D02*
X106529190Y-102951619D01*
X106529190Y-102951619D02*
X106767285Y-102951619D01*
X106767285Y-102951619D02*
X106862523Y-102904000D01*
X106862523Y-102904000D02*
X106910142Y-102856380D01*
X106910142Y-102856380D02*
X106957761Y-102761142D01*
X106957761Y-102761142D02*
X106957761Y-102665904D01*
X106957761Y-102665904D02*
X106910142Y-102570666D01*
X106910142Y-102570666D02*
X106862523Y-102523047D01*
X106862523Y-102523047D02*
X106767285Y-102475428D01*
X106767285Y-102475428D02*
X106576809Y-102427809D01*
X106576809Y-102427809D02*
X106481571Y-102380190D01*
X106481571Y-102380190D02*
X106433952Y-102332571D01*
X106433952Y-102332571D02*
X106386333Y-102237333D01*
X106386333Y-102237333D02*
X106386333Y-102142095D01*
X106386333Y-102142095D02*
X106433952Y-102046857D01*
X106433952Y-102046857D02*
X106481571Y-101999238D01*
X106481571Y-101999238D02*
X106576809Y-101951619D01*
X106576809Y-101951619D02*
X106814904Y-101951619D01*
X106814904Y-101951619D02*
X106957761Y-101999238D01*
X107243476Y-101951619D02*
X107814904Y-101951619D01*
X107529190Y-102951619D02*
X107529190Y-101951619D01*
D11*
X107092714Y-94976142D02*
X107092714Y-93776142D01*
X107607000Y-94919000D02*
X107778429Y-94976142D01*
X107778429Y-94976142D02*
X108064143Y-94976142D01*
X108064143Y-94976142D02*
X108178429Y-94919000D01*
X108178429Y-94919000D02*
X108235571Y-94861857D01*
X108235571Y-94861857D02*
X108292714Y-94747571D01*
X108292714Y-94747571D02*
X108292714Y-94633285D01*
X108292714Y-94633285D02*
X108235571Y-94519000D01*
X108235571Y-94519000D02*
X108178429Y-94461857D01*
X108178429Y-94461857D02*
X108064143Y-94404714D01*
X108064143Y-94404714D02*
X107835571Y-94347571D01*
X107835571Y-94347571D02*
X107721286Y-94290428D01*
X107721286Y-94290428D02*
X107664143Y-94233285D01*
X107664143Y-94233285D02*
X107607000Y-94119000D01*
X107607000Y-94119000D02*
X107607000Y-94004714D01*
X107607000Y-94004714D02*
X107664143Y-93890428D01*
X107664143Y-93890428D02*
X107721286Y-93833285D01*
X107721286Y-93833285D02*
X107835571Y-93776142D01*
X107835571Y-93776142D02*
X108121286Y-93776142D01*
X108121286Y-93776142D02*
X108292714Y-93833285D01*
X108807000Y-94976142D02*
X108807000Y-93776142D01*
X108807000Y-93776142D02*
X109264143Y-93776142D01*
X109264143Y-93776142D02*
X109378428Y-93833285D01*
X109378428Y-93833285D02*
X109435571Y-93890428D01*
X109435571Y-93890428D02*
X109492714Y-94004714D01*
X109492714Y-94004714D02*
X109492714Y-94176142D01*
X109492714Y-94176142D02*
X109435571Y-94290428D01*
X109435571Y-94290428D02*
X109378428Y-94347571D01*
X109378428Y-94347571D02*
X109264143Y-94404714D01*
X109264143Y-94404714D02*
X108807000Y-94404714D01*
X164134000Y-91465428D02*
X164191142Y-91294000D01*
X164191142Y-91294000D02*
X164191142Y-91008285D01*
X164191142Y-91008285D02*
X164134000Y-90894000D01*
X164134000Y-90894000D02*
X164076857Y-90836857D01*
X164076857Y-90836857D02*
X163962571Y-90779714D01*
X163962571Y-90779714D02*
X163848285Y-90779714D01*
X163848285Y-90779714D02*
X163734000Y-90836857D01*
X163734000Y-90836857D02*
X163676857Y-90894000D01*
X163676857Y-90894000D02*
X163619714Y-91008285D01*
X163619714Y-91008285D02*
X163562571Y-91236857D01*
X163562571Y-91236857D02*
X163505428Y-91351142D01*
X163505428Y-91351142D02*
X163448285Y-91408285D01*
X163448285Y-91408285D02*
X163334000Y-91465428D01*
X163334000Y-91465428D02*
X163219714Y-91465428D01*
X163219714Y-91465428D02*
X163105428Y-91408285D01*
X163105428Y-91408285D02*
X163048285Y-91351142D01*
X163048285Y-91351142D02*
X162991142Y-91236857D01*
X162991142Y-91236857D02*
X162991142Y-90951142D01*
X162991142Y-90951142D02*
X163048285Y-90779714D01*
X163391142Y-90436857D02*
X163391142Y-89979714D01*
X162991142Y-90265428D02*
X164019714Y-90265428D01*
X164019714Y-90265428D02*
X164134000Y-90208285D01*
X164134000Y-90208285D02*
X164191142Y-90094000D01*
X164191142Y-90094000D02*
X164191142Y-89979714D01*
X164191142Y-89065429D02*
X163562571Y-89065429D01*
X163562571Y-89065429D02*
X163448285Y-89122571D01*
X163448285Y-89122571D02*
X163391142Y-89236857D01*
X163391142Y-89236857D02*
X163391142Y-89465429D01*
X163391142Y-89465429D02*
X163448285Y-89579714D01*
X164134000Y-89065429D02*
X164191142Y-89179714D01*
X164191142Y-89179714D02*
X164191142Y-89465429D01*
X164191142Y-89465429D02*
X164134000Y-89579714D01*
X164134000Y-89579714D02*
X164019714Y-89636857D01*
X164019714Y-89636857D02*
X163905428Y-89636857D01*
X163905428Y-89636857D02*
X163791142Y-89579714D01*
X163791142Y-89579714D02*
X163734000Y-89465429D01*
X163734000Y-89465429D02*
X163734000Y-89179714D01*
X163734000Y-89179714D02*
X163676857Y-89065429D01*
X164191142Y-88494000D02*
X163391142Y-88494000D01*
X163619714Y-88494000D02*
X163505428Y-88436857D01*
X163505428Y-88436857D02*
X163448285Y-88379715D01*
X163448285Y-88379715D02*
X163391142Y-88265429D01*
X163391142Y-88265429D02*
X163391142Y-88151143D01*
X163391142Y-87922572D02*
X163391142Y-87465429D01*
X162991142Y-87751143D02*
X164019714Y-87751143D01*
X164019714Y-87751143D02*
X164134000Y-87694000D01*
X164134000Y-87694000D02*
X164191142Y-87579715D01*
X164191142Y-87579715D02*
X164191142Y-87465429D01*
X162934000Y-86208286D02*
X164476857Y-87236858D01*
X164134000Y-85865429D02*
X164191142Y-85694001D01*
X164191142Y-85694001D02*
X164191142Y-85408286D01*
X164191142Y-85408286D02*
X164134000Y-85294001D01*
X164134000Y-85294001D02*
X164076857Y-85236858D01*
X164076857Y-85236858D02*
X163962571Y-85179715D01*
X163962571Y-85179715D02*
X163848285Y-85179715D01*
X163848285Y-85179715D02*
X163734000Y-85236858D01*
X163734000Y-85236858D02*
X163676857Y-85294001D01*
X163676857Y-85294001D02*
X163619714Y-85408286D01*
X163619714Y-85408286D02*
X163562571Y-85636858D01*
X163562571Y-85636858D02*
X163505428Y-85751143D01*
X163505428Y-85751143D02*
X163448285Y-85808286D01*
X163448285Y-85808286D02*
X163334000Y-85865429D01*
X163334000Y-85865429D02*
X163219714Y-85865429D01*
X163219714Y-85865429D02*
X163105428Y-85808286D01*
X163105428Y-85808286D02*
X163048285Y-85751143D01*
X163048285Y-85751143D02*
X162991142Y-85636858D01*
X162991142Y-85636858D02*
X162991142Y-85351143D01*
X162991142Y-85351143D02*
X163048285Y-85179715D01*
X163391142Y-84836858D02*
X163391142Y-84379715D01*
X162991142Y-84665429D02*
X164019714Y-84665429D01*
X164019714Y-84665429D02*
X164134000Y-84608286D01*
X164134000Y-84608286D02*
X164191142Y-84494001D01*
X164191142Y-84494001D02*
X164191142Y-84379715D01*
X164191142Y-83808287D02*
X164134000Y-83922572D01*
X164134000Y-83922572D02*
X164076857Y-83979715D01*
X164076857Y-83979715D02*
X163962571Y-84036858D01*
X163962571Y-84036858D02*
X163619714Y-84036858D01*
X163619714Y-84036858D02*
X163505428Y-83979715D01*
X163505428Y-83979715D02*
X163448285Y-83922572D01*
X163448285Y-83922572D02*
X163391142Y-83808287D01*
X163391142Y-83808287D02*
X163391142Y-83636858D01*
X163391142Y-83636858D02*
X163448285Y-83522572D01*
X163448285Y-83522572D02*
X163505428Y-83465430D01*
X163505428Y-83465430D02*
X163619714Y-83408287D01*
X163619714Y-83408287D02*
X163962571Y-83408287D01*
X163962571Y-83408287D02*
X164076857Y-83465430D01*
X164076857Y-83465430D02*
X164134000Y-83522572D01*
X164134000Y-83522572D02*
X164191142Y-83636858D01*
X164191142Y-83636858D02*
X164191142Y-83808287D01*
X163391142Y-82894001D02*
X164591142Y-82894001D01*
X163448285Y-82894001D02*
X163391142Y-82779716D01*
X163391142Y-82779716D02*
X163391142Y-82551144D01*
X163391142Y-82551144D02*
X163448285Y-82436858D01*
X163448285Y-82436858D02*
X163505428Y-82379716D01*
X163505428Y-82379716D02*
X163619714Y-82322573D01*
X163619714Y-82322573D02*
X163962571Y-82322573D01*
X163962571Y-82322573D02*
X164076857Y-82379716D01*
X164076857Y-82379716D02*
X164134000Y-82436858D01*
X164134000Y-82436858D02*
X164191142Y-82551144D01*
X164191142Y-82551144D02*
X164191142Y-82779716D01*
X164191142Y-82779716D02*
X164134000Y-82894001D01*
D10*
X86574333Y-109047619D02*
X86241000Y-108571428D01*
X86002905Y-109047619D02*
X86002905Y-108047619D01*
X86002905Y-108047619D02*
X86383857Y-108047619D01*
X86383857Y-108047619D02*
X86479095Y-108095238D01*
X86479095Y-108095238D02*
X86526714Y-108142857D01*
X86526714Y-108142857D02*
X86574333Y-108238095D01*
X86574333Y-108238095D02*
X86574333Y-108380952D01*
X86574333Y-108380952D02*
X86526714Y-108476190D01*
X86526714Y-108476190D02*
X86479095Y-108523809D01*
X86479095Y-108523809D02*
X86383857Y-108571428D01*
X86383857Y-108571428D02*
X86002905Y-108571428D01*
X86907667Y-108047619D02*
X87574333Y-109047619D01*
X87574333Y-108047619D02*
X86907667Y-109047619D01*
X109204286Y-102904000D02*
X109347143Y-102951619D01*
X109347143Y-102951619D02*
X109585238Y-102951619D01*
X109585238Y-102951619D02*
X109680476Y-102904000D01*
X109680476Y-102904000D02*
X109728095Y-102856380D01*
X109728095Y-102856380D02*
X109775714Y-102761142D01*
X109775714Y-102761142D02*
X109775714Y-102665904D01*
X109775714Y-102665904D02*
X109728095Y-102570666D01*
X109728095Y-102570666D02*
X109680476Y-102523047D01*
X109680476Y-102523047D02*
X109585238Y-102475428D01*
X109585238Y-102475428D02*
X109394762Y-102427809D01*
X109394762Y-102427809D02*
X109299524Y-102380190D01*
X109299524Y-102380190D02*
X109251905Y-102332571D01*
X109251905Y-102332571D02*
X109204286Y-102237333D01*
X109204286Y-102237333D02*
X109204286Y-102142095D01*
X109204286Y-102142095D02*
X109251905Y-102046857D01*
X109251905Y-102046857D02*
X109299524Y-101999238D01*
X109299524Y-101999238D02*
X109394762Y-101951619D01*
X109394762Y-101951619D02*
X109632857Y-101951619D01*
X109632857Y-101951619D02*
X109775714Y-101999238D01*
X110775714Y-102856380D02*
X110728095Y-102904000D01*
X110728095Y-102904000D02*
X110585238Y-102951619D01*
X110585238Y-102951619D02*
X110490000Y-102951619D01*
X110490000Y-102951619D02*
X110347143Y-102904000D01*
X110347143Y-102904000D02*
X110251905Y-102808761D01*
X110251905Y-102808761D02*
X110204286Y-102713523D01*
X110204286Y-102713523D02*
X110156667Y-102523047D01*
X110156667Y-102523047D02*
X110156667Y-102380190D01*
X110156667Y-102380190D02*
X110204286Y-102189714D01*
X110204286Y-102189714D02*
X110251905Y-102094476D01*
X110251905Y-102094476D02*
X110347143Y-101999238D01*
X110347143Y-101999238D02*
X110490000Y-101951619D01*
X110490000Y-101951619D02*
X110585238Y-101951619D01*
X110585238Y-101951619D02*
X110728095Y-101999238D01*
X110728095Y-101999238D02*
X110775714Y-102046857D01*
X111204286Y-102951619D02*
X111204286Y-101951619D01*
X111775714Y-102951619D02*
X111347143Y-102380190D01*
X111775714Y-101951619D02*
X111204286Y-102523047D01*
D11*
X137826714Y-55196142D02*
X137826714Y-53996142D01*
X137826714Y-53996142D02*
X138512428Y-55196142D01*
X138512428Y-55196142D02*
X138512428Y-53996142D01*
X139255285Y-55196142D02*
X139141000Y-55139000D01*
X139141000Y-55139000D02*
X139083857Y-55081857D01*
X139083857Y-55081857D02*
X139026714Y-54967571D01*
X139026714Y-54967571D02*
X139026714Y-54624714D01*
X139026714Y-54624714D02*
X139083857Y-54510428D01*
X139083857Y-54510428D02*
X139141000Y-54453285D01*
X139141000Y-54453285D02*
X139255285Y-54396142D01*
X139255285Y-54396142D02*
X139426714Y-54396142D01*
X139426714Y-54396142D02*
X139541000Y-54453285D01*
X139541000Y-54453285D02*
X139598143Y-54510428D01*
X139598143Y-54510428D02*
X139655285Y-54624714D01*
X139655285Y-54624714D02*
X139655285Y-54967571D01*
X139655285Y-54967571D02*
X139598143Y-55081857D01*
X139598143Y-55081857D02*
X139541000Y-55139000D01*
X139541000Y-55139000D02*
X139426714Y-55196142D01*
X139426714Y-55196142D02*
X139255285Y-55196142D01*
X139998142Y-54396142D02*
X140455285Y-54396142D01*
X140169571Y-53996142D02*
X140169571Y-55024714D01*
X140169571Y-55024714D02*
X140226714Y-55139000D01*
X140226714Y-55139000D02*
X140340999Y-55196142D01*
X140340999Y-55196142D02*
X140455285Y-55196142D01*
X141312428Y-55139000D02*
X141198142Y-55196142D01*
X141198142Y-55196142D02*
X140969571Y-55196142D01*
X140969571Y-55196142D02*
X140855285Y-55139000D01*
X140855285Y-55139000D02*
X140798142Y-55024714D01*
X140798142Y-55024714D02*
X140798142Y-54567571D01*
X140798142Y-54567571D02*
X140855285Y-54453285D01*
X140855285Y-54453285D02*
X140969571Y-54396142D01*
X140969571Y-54396142D02*
X141198142Y-54396142D01*
X141198142Y-54396142D02*
X141312428Y-54453285D01*
X141312428Y-54453285D02*
X141369571Y-54567571D01*
X141369571Y-54567571D02*
X141369571Y-54681857D01*
X141369571Y-54681857D02*
X140798142Y-54796142D01*
X141883856Y-55081857D02*
X141940999Y-55139000D01*
X141940999Y-55139000D02*
X141883856Y-55196142D01*
X141883856Y-55196142D02*
X141826713Y-55139000D01*
X141826713Y-55139000D02*
X141883856Y-55081857D01*
X141883856Y-55081857D02*
X141883856Y-55196142D01*
X141883856Y-54453285D02*
X141940999Y-54510428D01*
X141940999Y-54510428D02*
X141883856Y-54567571D01*
X141883856Y-54567571D02*
X141826713Y-54510428D01*
X141826713Y-54510428D02*
X141883856Y-54453285D01*
X141883856Y-54453285D02*
X141883856Y-54567571D01*
X138512428Y-57140142D02*
X138112428Y-56568714D01*
X137826714Y-57140142D02*
X137826714Y-55940142D01*
X137826714Y-55940142D02*
X138283857Y-55940142D01*
X138283857Y-55940142D02*
X138398142Y-55997285D01*
X138398142Y-55997285D02*
X138455285Y-56054428D01*
X138455285Y-56054428D02*
X138512428Y-56168714D01*
X138512428Y-56168714D02*
X138512428Y-56340142D01*
X138512428Y-56340142D02*
X138455285Y-56454428D01*
X138455285Y-56454428D02*
X138398142Y-56511571D01*
X138398142Y-56511571D02*
X138283857Y-56568714D01*
X138283857Y-56568714D02*
X137826714Y-56568714D01*
X139026714Y-56511571D02*
X139426714Y-56511571D01*
X139598142Y-57140142D02*
X139026714Y-57140142D01*
X139026714Y-57140142D02*
X139026714Y-55940142D01*
X139026714Y-55940142D02*
X139598142Y-55940142D01*
X140112428Y-57140142D02*
X140112428Y-55940142D01*
X140112428Y-55940142D02*
X140398142Y-55940142D01*
X140398142Y-55940142D02*
X140569571Y-55997285D01*
X140569571Y-55997285D02*
X140683856Y-56111571D01*
X140683856Y-56111571D02*
X140740999Y-56225857D01*
X140740999Y-56225857D02*
X140798142Y-56454428D01*
X140798142Y-56454428D02*
X140798142Y-56625857D01*
X140798142Y-56625857D02*
X140740999Y-56854428D01*
X140740999Y-56854428D02*
X140683856Y-56968714D01*
X140683856Y-56968714D02*
X140569571Y-57083000D01*
X140569571Y-57083000D02*
X140398142Y-57140142D01*
X140398142Y-57140142D02*
X140112428Y-57140142D01*
X142855285Y-55997285D02*
X142741000Y-55940142D01*
X142741000Y-55940142D02*
X142569571Y-55940142D01*
X142569571Y-55940142D02*
X142398142Y-55997285D01*
X142398142Y-55997285D02*
X142283857Y-56111571D01*
X142283857Y-56111571D02*
X142226714Y-56225857D01*
X142226714Y-56225857D02*
X142169571Y-56454428D01*
X142169571Y-56454428D02*
X142169571Y-56625857D01*
X142169571Y-56625857D02*
X142226714Y-56854428D01*
X142226714Y-56854428D02*
X142283857Y-56968714D01*
X142283857Y-56968714D02*
X142398142Y-57083000D01*
X142398142Y-57083000D02*
X142569571Y-57140142D01*
X142569571Y-57140142D02*
X142683857Y-57140142D01*
X142683857Y-57140142D02*
X142855285Y-57083000D01*
X142855285Y-57083000D02*
X142912428Y-57025857D01*
X142912428Y-57025857D02*
X142912428Y-56625857D01*
X142912428Y-56625857D02*
X142683857Y-56625857D01*
X144112428Y-57140142D02*
X143712428Y-56568714D01*
X143426714Y-57140142D02*
X143426714Y-55940142D01*
X143426714Y-55940142D02*
X143883857Y-55940142D01*
X143883857Y-55940142D02*
X143998142Y-55997285D01*
X143998142Y-55997285D02*
X144055285Y-56054428D01*
X144055285Y-56054428D02*
X144112428Y-56168714D01*
X144112428Y-56168714D02*
X144112428Y-56340142D01*
X144112428Y-56340142D02*
X144055285Y-56454428D01*
X144055285Y-56454428D02*
X143998142Y-56511571D01*
X143998142Y-56511571D02*
X143883857Y-56568714D01*
X143883857Y-56568714D02*
X143426714Y-56568714D01*
X144626714Y-56511571D02*
X145026714Y-56511571D01*
X145198142Y-57140142D02*
X144626714Y-57140142D01*
X144626714Y-57140142D02*
X144626714Y-55940142D01*
X144626714Y-55940142D02*
X145198142Y-55940142D01*
X145712428Y-56511571D02*
X146112428Y-56511571D01*
X146283856Y-57140142D02*
X145712428Y-57140142D01*
X145712428Y-57140142D02*
X145712428Y-55940142D01*
X145712428Y-55940142D02*
X146283856Y-55940142D01*
X146798142Y-57140142D02*
X146798142Y-55940142D01*
X146798142Y-55940142D02*
X147483856Y-57140142D01*
X147483856Y-57140142D02*
X147483856Y-55940142D01*
X138055285Y-57884142D02*
X138169571Y-57884142D01*
X138169571Y-57884142D02*
X138283857Y-57941285D01*
X138283857Y-57941285D02*
X138341000Y-57998428D01*
X138341000Y-57998428D02*
X138398142Y-58112714D01*
X138398142Y-58112714D02*
X138455285Y-58341285D01*
X138455285Y-58341285D02*
X138455285Y-58627000D01*
X138455285Y-58627000D02*
X138398142Y-58855571D01*
X138398142Y-58855571D02*
X138341000Y-58969857D01*
X138341000Y-58969857D02*
X138283857Y-59027000D01*
X138283857Y-59027000D02*
X138169571Y-59084142D01*
X138169571Y-59084142D02*
X138055285Y-59084142D01*
X138055285Y-59084142D02*
X137941000Y-59027000D01*
X137941000Y-59027000D02*
X137883857Y-58969857D01*
X137883857Y-58969857D02*
X137826714Y-58855571D01*
X137826714Y-58855571D02*
X137769571Y-58627000D01*
X137769571Y-58627000D02*
X137769571Y-58341285D01*
X137769571Y-58341285D02*
X137826714Y-58112714D01*
X137826714Y-58112714D02*
X137883857Y-57998428D01*
X137883857Y-57998428D02*
X137941000Y-57941285D01*
X137941000Y-57941285D02*
X138055285Y-57884142D01*
X141083857Y-59484142D02*
X141083857Y-57769857D01*
X143483857Y-59084142D02*
X142798143Y-59084142D01*
X143141000Y-59084142D02*
X143141000Y-57884142D01*
X143141000Y-57884142D02*
X143026714Y-58055571D01*
X143026714Y-58055571D02*
X142912429Y-58169857D01*
X142912429Y-58169857D02*
X142798143Y-58227000D01*
X144912429Y-58627000D02*
X145826715Y-58627000D01*
X146398143Y-58284142D02*
X147312429Y-58627000D01*
X147312429Y-58627000D02*
X146398143Y-58969857D01*
X149483857Y-59084142D02*
X149083857Y-58512714D01*
X148798143Y-59084142D02*
X148798143Y-57884142D01*
X148798143Y-57884142D02*
X149255286Y-57884142D01*
X149255286Y-57884142D02*
X149369571Y-57941285D01*
X149369571Y-57941285D02*
X149426714Y-57998428D01*
X149426714Y-57998428D02*
X149483857Y-58112714D01*
X149483857Y-58112714D02*
X149483857Y-58284142D01*
X149483857Y-58284142D02*
X149426714Y-58398428D01*
X149426714Y-58398428D02*
X149369571Y-58455571D01*
X149369571Y-58455571D02*
X149255286Y-58512714D01*
X149255286Y-58512714D02*
X148798143Y-58512714D01*
X150512429Y-58284142D02*
X150512429Y-59084142D01*
X149998143Y-58284142D02*
X149998143Y-58912714D01*
X149998143Y-58912714D02*
X150055286Y-59027000D01*
X150055286Y-59027000D02*
X150169571Y-59084142D01*
X150169571Y-59084142D02*
X150341000Y-59084142D01*
X150341000Y-59084142D02*
X150455286Y-59027000D01*
X150455286Y-59027000D02*
X150512429Y-58969857D01*
X151083857Y-58284142D02*
X151083857Y-59084142D01*
X151083857Y-58398428D02*
X151141000Y-58341285D01*
X151141000Y-58341285D02*
X151255285Y-58284142D01*
X151255285Y-58284142D02*
X151426714Y-58284142D01*
X151426714Y-58284142D02*
X151541000Y-58341285D01*
X151541000Y-58341285D02*
X151598143Y-58455571D01*
X151598143Y-58455571D02*
X151598143Y-59084142D01*
X152169571Y-58284142D02*
X152169571Y-59084142D01*
X152169571Y-58398428D02*
X152226714Y-58341285D01*
X152226714Y-58341285D02*
X152340999Y-58284142D01*
X152340999Y-58284142D02*
X152512428Y-58284142D01*
X152512428Y-58284142D02*
X152626714Y-58341285D01*
X152626714Y-58341285D02*
X152683857Y-58455571D01*
X152683857Y-58455571D02*
X152683857Y-59084142D01*
X153255285Y-59084142D02*
X153255285Y-58284142D01*
X153255285Y-57884142D02*
X153198142Y-57941285D01*
X153198142Y-57941285D02*
X153255285Y-57998428D01*
X153255285Y-57998428D02*
X153312428Y-57941285D01*
X153312428Y-57941285D02*
X153255285Y-57884142D01*
X153255285Y-57884142D02*
X153255285Y-57998428D01*
X153826714Y-58284142D02*
X153826714Y-59084142D01*
X153826714Y-58398428D02*
X153883857Y-58341285D01*
X153883857Y-58341285D02*
X153998142Y-58284142D01*
X153998142Y-58284142D02*
X154169571Y-58284142D01*
X154169571Y-58284142D02*
X154283857Y-58341285D01*
X154283857Y-58341285D02*
X154341000Y-58455571D01*
X154341000Y-58455571D02*
X154341000Y-59084142D01*
X155426714Y-58284142D02*
X155426714Y-59255571D01*
X155426714Y-59255571D02*
X155369571Y-59369857D01*
X155369571Y-59369857D02*
X155312428Y-59427000D01*
X155312428Y-59427000D02*
X155198142Y-59484142D01*
X155198142Y-59484142D02*
X155026714Y-59484142D01*
X155026714Y-59484142D02*
X154912428Y-59427000D01*
X155426714Y-59027000D02*
X155312428Y-59084142D01*
X155312428Y-59084142D02*
X155083856Y-59084142D01*
X155083856Y-59084142D02*
X154969571Y-59027000D01*
X154969571Y-59027000D02*
X154912428Y-58969857D01*
X154912428Y-58969857D02*
X154855285Y-58855571D01*
X154855285Y-58855571D02*
X154855285Y-58512714D01*
X154855285Y-58512714D02*
X154912428Y-58398428D01*
X154912428Y-58398428D02*
X154969571Y-58341285D01*
X154969571Y-58341285D02*
X155083856Y-58284142D01*
X155083856Y-58284142D02*
X155312428Y-58284142D01*
X155312428Y-58284142D02*
X155426714Y-58341285D01*
X138455285Y-61028142D02*
X137769571Y-61028142D01*
X138112428Y-61028142D02*
X138112428Y-59828142D01*
X138112428Y-59828142D02*
X137998142Y-59999571D01*
X137998142Y-59999571D02*
X137883857Y-60113857D01*
X137883857Y-60113857D02*
X137769571Y-60171000D01*
X141083857Y-61428142D02*
X141083857Y-59713857D01*
X143083857Y-59828142D02*
X143198143Y-59828142D01*
X143198143Y-59828142D02*
X143312429Y-59885285D01*
X143312429Y-59885285D02*
X143369572Y-59942428D01*
X143369572Y-59942428D02*
X143426714Y-60056714D01*
X143426714Y-60056714D02*
X143483857Y-60285285D01*
X143483857Y-60285285D02*
X143483857Y-60571000D01*
X143483857Y-60571000D02*
X143426714Y-60799571D01*
X143426714Y-60799571D02*
X143369572Y-60913857D01*
X143369572Y-60913857D02*
X143312429Y-60971000D01*
X143312429Y-60971000D02*
X143198143Y-61028142D01*
X143198143Y-61028142D02*
X143083857Y-61028142D01*
X143083857Y-61028142D02*
X142969572Y-60971000D01*
X142969572Y-60971000D02*
X142912429Y-60913857D01*
X142912429Y-60913857D02*
X142855286Y-60799571D01*
X142855286Y-60799571D02*
X142798143Y-60571000D01*
X142798143Y-60571000D02*
X142798143Y-60285285D01*
X142798143Y-60285285D02*
X142855286Y-60056714D01*
X142855286Y-60056714D02*
X142912429Y-59942428D01*
X142912429Y-59942428D02*
X142969572Y-59885285D01*
X142969572Y-59885285D02*
X143083857Y-59828142D01*
X144912429Y-60571000D02*
X145826715Y-60571000D01*
X146398143Y-60228142D02*
X147312429Y-60571000D01*
X147312429Y-60571000D02*
X146398143Y-60913857D01*
X148741000Y-60685285D02*
X149312429Y-60685285D01*
X148626714Y-61028142D02*
X149026714Y-59828142D01*
X149026714Y-59828142D02*
X149426714Y-61028142D01*
X149998142Y-61028142D02*
X149883857Y-60971000D01*
X149883857Y-60971000D02*
X149826714Y-60856714D01*
X149826714Y-60856714D02*
X149826714Y-59828142D01*
X150969571Y-61028142D02*
X150969571Y-60399571D01*
X150969571Y-60399571D02*
X150912428Y-60285285D01*
X150912428Y-60285285D02*
X150798142Y-60228142D01*
X150798142Y-60228142D02*
X150569571Y-60228142D01*
X150569571Y-60228142D02*
X150455285Y-60285285D01*
X150969571Y-60971000D02*
X150855285Y-61028142D01*
X150855285Y-61028142D02*
X150569571Y-61028142D01*
X150569571Y-61028142D02*
X150455285Y-60971000D01*
X150455285Y-60971000D02*
X150398142Y-60856714D01*
X150398142Y-60856714D02*
X150398142Y-60742428D01*
X150398142Y-60742428D02*
X150455285Y-60628142D01*
X150455285Y-60628142D02*
X150569571Y-60571000D01*
X150569571Y-60571000D02*
X150855285Y-60571000D01*
X150855285Y-60571000D02*
X150969571Y-60513857D01*
X151540999Y-61028142D02*
X151540999Y-60228142D01*
X151540999Y-60456714D02*
X151598142Y-60342428D01*
X151598142Y-60342428D02*
X151655285Y-60285285D01*
X151655285Y-60285285D02*
X151769570Y-60228142D01*
X151769570Y-60228142D02*
X151883856Y-60228142D01*
X152283856Y-61028142D02*
X152283856Y-60228142D01*
X152283856Y-60342428D02*
X152340999Y-60285285D01*
X152340999Y-60285285D02*
X152455284Y-60228142D01*
X152455284Y-60228142D02*
X152626713Y-60228142D01*
X152626713Y-60228142D02*
X152740999Y-60285285D01*
X152740999Y-60285285D02*
X152798142Y-60399571D01*
X152798142Y-60399571D02*
X152798142Y-61028142D01*
X152798142Y-60399571D02*
X152855284Y-60285285D01*
X152855284Y-60285285D02*
X152969570Y-60228142D01*
X152969570Y-60228142D02*
X153140999Y-60228142D01*
X153140999Y-60228142D02*
X153255284Y-60285285D01*
X153255284Y-60285285D02*
X153312427Y-60399571D01*
X153312427Y-60399571D02*
X153312427Y-61028142D01*
X138455285Y-62972142D02*
X137769571Y-62972142D01*
X138112428Y-62972142D02*
X138112428Y-61772142D01*
X138112428Y-61772142D02*
X137998142Y-61943571D01*
X137998142Y-61943571D02*
X137883857Y-62057857D01*
X137883857Y-62057857D02*
X137769571Y-62115000D01*
X141083857Y-63372142D02*
X141083857Y-61657857D01*
X143483857Y-62972142D02*
X142798143Y-62972142D01*
X143141000Y-62972142D02*
X143141000Y-61772142D01*
X143141000Y-61772142D02*
X143026714Y-61943571D01*
X143026714Y-61943571D02*
X142912429Y-62057857D01*
X142912429Y-62057857D02*
X142798143Y-62115000D01*
X144912429Y-62515000D02*
X145826715Y-62515000D01*
X146398143Y-62172142D02*
X147312429Y-62515000D01*
X147312429Y-62515000D02*
X146398143Y-62857857D01*
X148741000Y-62915000D02*
X148912429Y-62972142D01*
X148912429Y-62972142D02*
X149198143Y-62972142D01*
X149198143Y-62972142D02*
X149312429Y-62915000D01*
X149312429Y-62915000D02*
X149369571Y-62857857D01*
X149369571Y-62857857D02*
X149426714Y-62743571D01*
X149426714Y-62743571D02*
X149426714Y-62629285D01*
X149426714Y-62629285D02*
X149369571Y-62515000D01*
X149369571Y-62515000D02*
X149312429Y-62457857D01*
X149312429Y-62457857D02*
X149198143Y-62400714D01*
X149198143Y-62400714D02*
X148969571Y-62343571D01*
X148969571Y-62343571D02*
X148855286Y-62286428D01*
X148855286Y-62286428D02*
X148798143Y-62229285D01*
X148798143Y-62229285D02*
X148741000Y-62115000D01*
X148741000Y-62115000D02*
X148741000Y-62000714D01*
X148741000Y-62000714D02*
X148798143Y-61886428D01*
X148798143Y-61886428D02*
X148855286Y-61829285D01*
X148855286Y-61829285D02*
X148969571Y-61772142D01*
X148969571Y-61772142D02*
X149255286Y-61772142D01*
X149255286Y-61772142D02*
X149426714Y-61829285D01*
X149769571Y-62172142D02*
X150226714Y-62172142D01*
X149941000Y-61772142D02*
X149941000Y-62800714D01*
X149941000Y-62800714D02*
X149998143Y-62915000D01*
X149998143Y-62915000D02*
X150112428Y-62972142D01*
X150112428Y-62972142D02*
X150226714Y-62972142D01*
X150798142Y-62972142D02*
X150683857Y-62915000D01*
X150683857Y-62915000D02*
X150626714Y-62857857D01*
X150626714Y-62857857D02*
X150569571Y-62743571D01*
X150569571Y-62743571D02*
X150569571Y-62400714D01*
X150569571Y-62400714D02*
X150626714Y-62286428D01*
X150626714Y-62286428D02*
X150683857Y-62229285D01*
X150683857Y-62229285D02*
X150798142Y-62172142D01*
X150798142Y-62172142D02*
X150969571Y-62172142D01*
X150969571Y-62172142D02*
X151083857Y-62229285D01*
X151083857Y-62229285D02*
X151141000Y-62286428D01*
X151141000Y-62286428D02*
X151198142Y-62400714D01*
X151198142Y-62400714D02*
X151198142Y-62743571D01*
X151198142Y-62743571D02*
X151141000Y-62857857D01*
X151141000Y-62857857D02*
X151083857Y-62915000D01*
X151083857Y-62915000D02*
X150969571Y-62972142D01*
X150969571Y-62972142D02*
X150798142Y-62972142D01*
X151712428Y-62172142D02*
X151712428Y-63372142D01*
X151712428Y-62229285D02*
X151826714Y-62172142D01*
X151826714Y-62172142D02*
X152055285Y-62172142D01*
X152055285Y-62172142D02*
X152169571Y-62229285D01*
X152169571Y-62229285D02*
X152226714Y-62286428D01*
X152226714Y-62286428D02*
X152283856Y-62400714D01*
X152283856Y-62400714D02*
X152283856Y-62743571D01*
X152283856Y-62743571D02*
X152226714Y-62857857D01*
X152226714Y-62857857D02*
X152169571Y-62915000D01*
X152169571Y-62915000D02*
X152055285Y-62972142D01*
X152055285Y-62972142D02*
X151826714Y-62972142D01*
X151826714Y-62972142D02*
X151712428Y-62915000D01*
X152798142Y-62172142D02*
X152798142Y-63372142D01*
X152798142Y-62229285D02*
X152912428Y-62172142D01*
X152912428Y-62172142D02*
X153140999Y-62172142D01*
X153140999Y-62172142D02*
X153255285Y-62229285D01*
X153255285Y-62229285D02*
X153312428Y-62286428D01*
X153312428Y-62286428D02*
X153369570Y-62400714D01*
X153369570Y-62400714D02*
X153369570Y-62743571D01*
X153369570Y-62743571D02*
X153312428Y-62857857D01*
X153312428Y-62857857D02*
X153255285Y-62915000D01*
X153255285Y-62915000D02*
X153140999Y-62972142D01*
X153140999Y-62972142D02*
X152912428Y-62972142D01*
X152912428Y-62972142D02*
X152798142Y-62915000D01*
X154340999Y-62915000D02*
X154226713Y-62972142D01*
X154226713Y-62972142D02*
X153998142Y-62972142D01*
X153998142Y-62972142D02*
X153883856Y-62915000D01*
X153883856Y-62915000D02*
X153826713Y-62800714D01*
X153826713Y-62800714D02*
X153826713Y-62343571D01*
X153826713Y-62343571D02*
X153883856Y-62229285D01*
X153883856Y-62229285D02*
X153998142Y-62172142D01*
X153998142Y-62172142D02*
X154226713Y-62172142D01*
X154226713Y-62172142D02*
X154340999Y-62229285D01*
X154340999Y-62229285D02*
X154398142Y-62343571D01*
X154398142Y-62343571D02*
X154398142Y-62457857D01*
X154398142Y-62457857D02*
X153826713Y-62572142D01*
X154912427Y-62972142D02*
X154912427Y-62172142D01*
X154912427Y-62400714D02*
X154969570Y-62286428D01*
X154969570Y-62286428D02*
X155026713Y-62229285D01*
X155026713Y-62229285D02*
X155140998Y-62172142D01*
X155140998Y-62172142D02*
X155255284Y-62172142D01*
X164064142Y-106013285D02*
X162864142Y-106013285D01*
X163264142Y-105441856D02*
X164064142Y-105441856D01*
X163378428Y-105441856D02*
X163321285Y-105384713D01*
X163321285Y-105384713D02*
X163264142Y-105270428D01*
X163264142Y-105270428D02*
X163264142Y-105098999D01*
X163264142Y-105098999D02*
X163321285Y-104984713D01*
X163321285Y-104984713D02*
X163435571Y-104927571D01*
X163435571Y-104927571D02*
X164064142Y-104927571D01*
X164007000Y-103841857D02*
X164064142Y-103956142D01*
X164064142Y-103956142D02*
X164064142Y-104184714D01*
X164064142Y-104184714D02*
X164007000Y-104298999D01*
X164007000Y-104298999D02*
X163949857Y-104356142D01*
X163949857Y-104356142D02*
X163835571Y-104413285D01*
X163835571Y-104413285D02*
X163492714Y-104413285D01*
X163492714Y-104413285D02*
X163378428Y-104356142D01*
X163378428Y-104356142D02*
X163321285Y-104298999D01*
X163321285Y-104298999D02*
X163264142Y-104184714D01*
X163264142Y-104184714D02*
X163264142Y-103956142D01*
X163264142Y-103956142D02*
X163321285Y-103841857D01*
X164064142Y-103327571D02*
X163264142Y-103327571D01*
X163492714Y-103327571D02*
X163378428Y-103270428D01*
X163378428Y-103270428D02*
X163321285Y-103213286D01*
X163321285Y-103213286D02*
X163264142Y-103099000D01*
X163264142Y-103099000D02*
X163264142Y-102984714D01*
X164007000Y-102127571D02*
X164064142Y-102241857D01*
X164064142Y-102241857D02*
X164064142Y-102470429D01*
X164064142Y-102470429D02*
X164007000Y-102584714D01*
X164007000Y-102584714D02*
X163892714Y-102641857D01*
X163892714Y-102641857D02*
X163435571Y-102641857D01*
X163435571Y-102641857D02*
X163321285Y-102584714D01*
X163321285Y-102584714D02*
X163264142Y-102470429D01*
X163264142Y-102470429D02*
X163264142Y-102241857D01*
X163264142Y-102241857D02*
X163321285Y-102127571D01*
X163321285Y-102127571D02*
X163435571Y-102070429D01*
X163435571Y-102070429D02*
X163549857Y-102070429D01*
X163549857Y-102070429D02*
X163664142Y-102641857D01*
X164064142Y-101556143D02*
X163264142Y-101556143D01*
X163378428Y-101556143D02*
X163321285Y-101499000D01*
X163321285Y-101499000D02*
X163264142Y-101384715D01*
X163264142Y-101384715D02*
X163264142Y-101213286D01*
X163264142Y-101213286D02*
X163321285Y-101099000D01*
X163321285Y-101099000D02*
X163435571Y-101041858D01*
X163435571Y-101041858D02*
X164064142Y-101041858D01*
X163435571Y-101041858D02*
X163321285Y-100984715D01*
X163321285Y-100984715D02*
X163264142Y-100870429D01*
X163264142Y-100870429D02*
X163264142Y-100699000D01*
X163264142Y-100699000D02*
X163321285Y-100584715D01*
X163321285Y-100584715D02*
X163435571Y-100527572D01*
X163435571Y-100527572D02*
X164064142Y-100527572D01*
X164007000Y-99499000D02*
X164064142Y-99613286D01*
X164064142Y-99613286D02*
X164064142Y-99841858D01*
X164064142Y-99841858D02*
X164007000Y-99956143D01*
X164007000Y-99956143D02*
X163892714Y-100013286D01*
X163892714Y-100013286D02*
X163435571Y-100013286D01*
X163435571Y-100013286D02*
X163321285Y-99956143D01*
X163321285Y-99956143D02*
X163264142Y-99841858D01*
X163264142Y-99841858D02*
X163264142Y-99613286D01*
X163264142Y-99613286D02*
X163321285Y-99499000D01*
X163321285Y-99499000D02*
X163435571Y-99441858D01*
X163435571Y-99441858D02*
X163549857Y-99441858D01*
X163549857Y-99441858D02*
X163664142Y-100013286D01*
X163264142Y-98927572D02*
X164064142Y-98927572D01*
X163378428Y-98927572D02*
X163321285Y-98870429D01*
X163321285Y-98870429D02*
X163264142Y-98756144D01*
X163264142Y-98756144D02*
X163264142Y-98584715D01*
X163264142Y-98584715D02*
X163321285Y-98470429D01*
X163321285Y-98470429D02*
X163435571Y-98413287D01*
X163435571Y-98413287D02*
X164064142Y-98413287D01*
X163264142Y-98013287D02*
X163264142Y-97556144D01*
X162864142Y-97841858D02*
X163892714Y-97841858D01*
X163892714Y-97841858D02*
X164007000Y-97784715D01*
X164007000Y-97784715D02*
X164064142Y-97670430D01*
X164064142Y-97670430D02*
X164064142Y-97556144D01*
X85629714Y-99300571D02*
X86029714Y-99300571D01*
X86201142Y-99929142D02*
X85629714Y-99929142D01*
X85629714Y-99929142D02*
X85629714Y-98729142D01*
X85629714Y-98729142D02*
X86201142Y-98729142D01*
X86658285Y-99872000D02*
X86829714Y-99929142D01*
X86829714Y-99929142D02*
X87115428Y-99929142D01*
X87115428Y-99929142D02*
X87229714Y-99872000D01*
X87229714Y-99872000D02*
X87286856Y-99814857D01*
X87286856Y-99814857D02*
X87343999Y-99700571D01*
X87343999Y-99700571D02*
X87343999Y-99586285D01*
X87343999Y-99586285D02*
X87286856Y-99472000D01*
X87286856Y-99472000D02*
X87229714Y-99414857D01*
X87229714Y-99414857D02*
X87115428Y-99357714D01*
X87115428Y-99357714D02*
X86886856Y-99300571D01*
X86886856Y-99300571D02*
X86772571Y-99243428D01*
X86772571Y-99243428D02*
X86715428Y-99186285D01*
X86715428Y-99186285D02*
X86658285Y-99072000D01*
X86658285Y-99072000D02*
X86658285Y-98957714D01*
X86658285Y-98957714D02*
X86715428Y-98843428D01*
X86715428Y-98843428D02*
X86772571Y-98786285D01*
X86772571Y-98786285D02*
X86886856Y-98729142D01*
X86886856Y-98729142D02*
X87172571Y-98729142D01*
X87172571Y-98729142D02*
X87343999Y-98786285D01*
X87858285Y-99929142D02*
X87858285Y-98729142D01*
X87858285Y-98729142D02*
X88315428Y-98729142D01*
X88315428Y-98729142D02*
X88429713Y-98786285D01*
X88429713Y-98786285D02*
X88486856Y-98843428D01*
X88486856Y-98843428D02*
X88543999Y-98957714D01*
X88543999Y-98957714D02*
X88543999Y-99129142D01*
X88543999Y-99129142D02*
X88486856Y-99243428D01*
X88486856Y-99243428D02*
X88429713Y-99300571D01*
X88429713Y-99300571D02*
X88315428Y-99357714D01*
X88315428Y-99357714D02*
X87858285Y-99357714D01*
X89229713Y-99243428D02*
X89115428Y-99186285D01*
X89115428Y-99186285D02*
X89058285Y-99129142D01*
X89058285Y-99129142D02*
X89001142Y-99014857D01*
X89001142Y-99014857D02*
X89001142Y-98957714D01*
X89001142Y-98957714D02*
X89058285Y-98843428D01*
X89058285Y-98843428D02*
X89115428Y-98786285D01*
X89115428Y-98786285D02*
X89229713Y-98729142D01*
X89229713Y-98729142D02*
X89458285Y-98729142D01*
X89458285Y-98729142D02*
X89572571Y-98786285D01*
X89572571Y-98786285D02*
X89629713Y-98843428D01*
X89629713Y-98843428D02*
X89686856Y-98957714D01*
X89686856Y-98957714D02*
X89686856Y-99014857D01*
X89686856Y-99014857D02*
X89629713Y-99129142D01*
X89629713Y-99129142D02*
X89572571Y-99186285D01*
X89572571Y-99186285D02*
X89458285Y-99243428D01*
X89458285Y-99243428D02*
X89229713Y-99243428D01*
X89229713Y-99243428D02*
X89115428Y-99300571D01*
X89115428Y-99300571D02*
X89058285Y-99357714D01*
X89058285Y-99357714D02*
X89001142Y-99472000D01*
X89001142Y-99472000D02*
X89001142Y-99700571D01*
X89001142Y-99700571D02*
X89058285Y-99814857D01*
X89058285Y-99814857D02*
X89115428Y-99872000D01*
X89115428Y-99872000D02*
X89229713Y-99929142D01*
X89229713Y-99929142D02*
X89458285Y-99929142D01*
X89458285Y-99929142D02*
X89572571Y-99872000D01*
X89572571Y-99872000D02*
X89629713Y-99814857D01*
X89629713Y-99814857D02*
X89686856Y-99700571D01*
X89686856Y-99700571D02*
X89686856Y-99472000D01*
X89686856Y-99472000D02*
X89629713Y-99357714D01*
X89629713Y-99357714D02*
X89572571Y-99300571D01*
X89572571Y-99300571D02*
X89458285Y-99243428D01*
X90143999Y-98843428D02*
X90201142Y-98786285D01*
X90201142Y-98786285D02*
X90315428Y-98729142D01*
X90315428Y-98729142D02*
X90601142Y-98729142D01*
X90601142Y-98729142D02*
X90715428Y-98786285D01*
X90715428Y-98786285D02*
X90772570Y-98843428D01*
X90772570Y-98843428D02*
X90829713Y-98957714D01*
X90829713Y-98957714D02*
X90829713Y-99072000D01*
X90829713Y-99072000D02*
X90772570Y-99243428D01*
X90772570Y-99243428D02*
X90086856Y-99929142D01*
X90086856Y-99929142D02*
X90829713Y-99929142D01*
X91858285Y-98729142D02*
X91629713Y-98729142D01*
X91629713Y-98729142D02*
X91515427Y-98786285D01*
X91515427Y-98786285D02*
X91458285Y-98843428D01*
X91458285Y-98843428D02*
X91343999Y-99014857D01*
X91343999Y-99014857D02*
X91286856Y-99243428D01*
X91286856Y-99243428D02*
X91286856Y-99700571D01*
X91286856Y-99700571D02*
X91343999Y-99814857D01*
X91343999Y-99814857D02*
X91401142Y-99872000D01*
X91401142Y-99872000D02*
X91515427Y-99929142D01*
X91515427Y-99929142D02*
X91743999Y-99929142D01*
X91743999Y-99929142D02*
X91858285Y-99872000D01*
X91858285Y-99872000D02*
X91915427Y-99814857D01*
X91915427Y-99814857D02*
X91972570Y-99700571D01*
X91972570Y-99700571D02*
X91972570Y-99414857D01*
X91972570Y-99414857D02*
X91915427Y-99300571D01*
X91915427Y-99300571D02*
X91858285Y-99243428D01*
X91858285Y-99243428D02*
X91743999Y-99186285D01*
X91743999Y-99186285D02*
X91515427Y-99186285D01*
X91515427Y-99186285D02*
X91401142Y-99243428D01*
X91401142Y-99243428D02*
X91343999Y-99300571D01*
X91343999Y-99300571D02*
X91286856Y-99414857D01*
X93001142Y-98729142D02*
X92772570Y-98729142D01*
X92772570Y-98729142D02*
X92658284Y-98786285D01*
X92658284Y-98786285D02*
X92601142Y-98843428D01*
X92601142Y-98843428D02*
X92486856Y-99014857D01*
X92486856Y-99014857D02*
X92429713Y-99243428D01*
X92429713Y-99243428D02*
X92429713Y-99700571D01*
X92429713Y-99700571D02*
X92486856Y-99814857D01*
X92486856Y-99814857D02*
X92543999Y-99872000D01*
X92543999Y-99872000D02*
X92658284Y-99929142D01*
X92658284Y-99929142D02*
X92886856Y-99929142D01*
X92886856Y-99929142D02*
X93001142Y-99872000D01*
X93001142Y-99872000D02*
X93058284Y-99814857D01*
X93058284Y-99814857D02*
X93115427Y-99700571D01*
X93115427Y-99700571D02*
X93115427Y-99414857D01*
X93115427Y-99414857D02*
X93058284Y-99300571D01*
X93058284Y-99300571D02*
X93001142Y-99243428D01*
X93001142Y-99243428D02*
X92886856Y-99186285D01*
X92886856Y-99186285D02*
X92658284Y-99186285D01*
X92658284Y-99186285D02*
X92543999Y-99243428D01*
X92543999Y-99243428D02*
X92486856Y-99300571D01*
X92486856Y-99300571D02*
X92429713Y-99414857D01*
X90836714Y-77958142D02*
X90836714Y-76758142D01*
X90836714Y-76758142D02*
X91293857Y-76758142D01*
X91293857Y-76758142D02*
X91408142Y-76815285D01*
X91408142Y-76815285D02*
X91465285Y-76872428D01*
X91465285Y-76872428D02*
X91522428Y-76986714D01*
X91522428Y-76986714D02*
X91522428Y-77158142D01*
X91522428Y-77158142D02*
X91465285Y-77272428D01*
X91465285Y-77272428D02*
X91408142Y-77329571D01*
X91408142Y-77329571D02*
X91293857Y-77386714D01*
X91293857Y-77386714D02*
X90836714Y-77386714D01*
X92208142Y-77958142D02*
X92093857Y-77901000D01*
X92093857Y-77901000D02*
X92036714Y-77843857D01*
X92036714Y-77843857D02*
X91979571Y-77729571D01*
X91979571Y-77729571D02*
X91979571Y-77386714D01*
X91979571Y-77386714D02*
X92036714Y-77272428D01*
X92036714Y-77272428D02*
X92093857Y-77215285D01*
X92093857Y-77215285D02*
X92208142Y-77158142D01*
X92208142Y-77158142D02*
X92379571Y-77158142D01*
X92379571Y-77158142D02*
X92493857Y-77215285D01*
X92493857Y-77215285D02*
X92551000Y-77272428D01*
X92551000Y-77272428D02*
X92608142Y-77386714D01*
X92608142Y-77386714D02*
X92608142Y-77729571D01*
X92608142Y-77729571D02*
X92551000Y-77843857D01*
X92551000Y-77843857D02*
X92493857Y-77901000D01*
X92493857Y-77901000D02*
X92379571Y-77958142D01*
X92379571Y-77958142D02*
X92208142Y-77958142D01*
X93008142Y-77158142D02*
X93236714Y-77958142D01*
X93236714Y-77958142D02*
X93465285Y-77386714D01*
X93465285Y-77386714D02*
X93693856Y-77958142D01*
X93693856Y-77958142D02*
X93922428Y-77158142D01*
X94836714Y-77901000D02*
X94722428Y-77958142D01*
X94722428Y-77958142D02*
X94493857Y-77958142D01*
X94493857Y-77958142D02*
X94379571Y-77901000D01*
X94379571Y-77901000D02*
X94322428Y-77786714D01*
X94322428Y-77786714D02*
X94322428Y-77329571D01*
X94322428Y-77329571D02*
X94379571Y-77215285D01*
X94379571Y-77215285D02*
X94493857Y-77158142D01*
X94493857Y-77158142D02*
X94722428Y-77158142D01*
X94722428Y-77158142D02*
X94836714Y-77215285D01*
X94836714Y-77215285D02*
X94893857Y-77329571D01*
X94893857Y-77329571D02*
X94893857Y-77443857D01*
X94893857Y-77443857D02*
X94322428Y-77558142D01*
X95408142Y-77958142D02*
X95408142Y-77158142D01*
X95408142Y-77386714D02*
X95465285Y-77272428D01*
X95465285Y-77272428D02*
X95522428Y-77215285D01*
X95522428Y-77215285D02*
X95636713Y-77158142D01*
X95636713Y-77158142D02*
X95750999Y-77158142D01*
D10*
X112728572Y-102951619D02*
X112728572Y-101951619D01*
X112728572Y-101951619D02*
X113061905Y-102665904D01*
X113061905Y-102665904D02*
X113395238Y-101951619D01*
X113395238Y-101951619D02*
X113395238Y-102951619D01*
X113871429Y-102951619D02*
X113871429Y-101951619D01*
X114300000Y-102904000D02*
X114442857Y-102951619D01*
X114442857Y-102951619D02*
X114680952Y-102951619D01*
X114680952Y-102951619D02*
X114776190Y-102904000D01*
X114776190Y-102904000D02*
X114823809Y-102856380D01*
X114823809Y-102856380D02*
X114871428Y-102761142D01*
X114871428Y-102761142D02*
X114871428Y-102665904D01*
X114871428Y-102665904D02*
X114823809Y-102570666D01*
X114823809Y-102570666D02*
X114776190Y-102523047D01*
X114776190Y-102523047D02*
X114680952Y-102475428D01*
X114680952Y-102475428D02*
X114490476Y-102427809D01*
X114490476Y-102427809D02*
X114395238Y-102380190D01*
X114395238Y-102380190D02*
X114347619Y-102332571D01*
X114347619Y-102332571D02*
X114300000Y-102237333D01*
X114300000Y-102237333D02*
X114300000Y-102142095D01*
X114300000Y-102142095D02*
X114347619Y-102046857D01*
X114347619Y-102046857D02*
X114395238Y-101999238D01*
X114395238Y-101999238D02*
X114490476Y-101951619D01*
X114490476Y-101951619D02*
X114728571Y-101951619D01*
X114728571Y-101951619D02*
X114871428Y-101999238D01*
X115490476Y-101951619D02*
X115680952Y-101951619D01*
X115680952Y-101951619D02*
X115776190Y-101999238D01*
X115776190Y-101999238D02*
X115871428Y-102094476D01*
X115871428Y-102094476D02*
X115919047Y-102284952D01*
X115919047Y-102284952D02*
X115919047Y-102618285D01*
X115919047Y-102618285D02*
X115871428Y-102808761D01*
X115871428Y-102808761D02*
X115776190Y-102904000D01*
X115776190Y-102904000D02*
X115680952Y-102951619D01*
X115680952Y-102951619D02*
X115490476Y-102951619D01*
X115490476Y-102951619D02*
X115395238Y-102904000D01*
X115395238Y-102904000D02*
X115300000Y-102808761D01*
X115300000Y-102808761D02*
X115252381Y-102618285D01*
X115252381Y-102618285D02*
X115252381Y-102284952D01*
X115252381Y-102284952D02*
X115300000Y-102094476D01*
X115300000Y-102094476D02*
X115395238Y-101999238D01*
X115395238Y-101999238D02*
X115490476Y-101951619D01*
D11*
X139344285Y-70846285D02*
X139230000Y-70789142D01*
X139230000Y-70789142D02*
X139058571Y-70789142D01*
X139058571Y-70789142D02*
X138887142Y-70846285D01*
X138887142Y-70846285D02*
X138772857Y-70960571D01*
X138772857Y-70960571D02*
X138715714Y-71074857D01*
X138715714Y-71074857D02*
X138658571Y-71303428D01*
X138658571Y-71303428D02*
X138658571Y-71474857D01*
X138658571Y-71474857D02*
X138715714Y-71703428D01*
X138715714Y-71703428D02*
X138772857Y-71817714D01*
X138772857Y-71817714D02*
X138887142Y-71932000D01*
X138887142Y-71932000D02*
X139058571Y-71989142D01*
X139058571Y-71989142D02*
X139172857Y-71989142D01*
X139172857Y-71989142D02*
X139344285Y-71932000D01*
X139344285Y-71932000D02*
X139401428Y-71874857D01*
X139401428Y-71874857D02*
X139401428Y-71474857D01*
X139401428Y-71474857D02*
X139172857Y-71474857D01*
X140601428Y-71989142D02*
X140201428Y-71417714D01*
X139915714Y-71989142D02*
X139915714Y-70789142D01*
X139915714Y-70789142D02*
X140372857Y-70789142D01*
X140372857Y-70789142D02*
X140487142Y-70846285D01*
X140487142Y-70846285D02*
X140544285Y-70903428D01*
X140544285Y-70903428D02*
X140601428Y-71017714D01*
X140601428Y-71017714D02*
X140601428Y-71189142D01*
X140601428Y-71189142D02*
X140544285Y-71303428D01*
X140544285Y-71303428D02*
X140487142Y-71360571D01*
X140487142Y-71360571D02*
X140372857Y-71417714D01*
X140372857Y-71417714D02*
X139915714Y-71417714D01*
X141115714Y-71360571D02*
X141515714Y-71360571D01*
X141687142Y-71989142D02*
X141115714Y-71989142D01*
X141115714Y-71989142D02*
X141115714Y-70789142D01*
X141115714Y-70789142D02*
X141687142Y-70789142D01*
X142201428Y-71360571D02*
X142601428Y-71360571D01*
X142772856Y-71989142D02*
X142201428Y-71989142D01*
X142201428Y-71989142D02*
X142201428Y-70789142D01*
X142201428Y-70789142D02*
X142772856Y-70789142D01*
X143287142Y-71989142D02*
X143287142Y-70789142D01*
X143287142Y-70789142D02*
X143972856Y-71989142D01*
X143972856Y-71989142D02*
X143972856Y-70789142D01*
D10*
X93472095Y-108095238D02*
X93376857Y-108047619D01*
X93376857Y-108047619D02*
X93234000Y-108047619D01*
X93234000Y-108047619D02*
X93091143Y-108095238D01*
X93091143Y-108095238D02*
X92995905Y-108190476D01*
X92995905Y-108190476D02*
X92948286Y-108285714D01*
X92948286Y-108285714D02*
X92900667Y-108476190D01*
X92900667Y-108476190D02*
X92900667Y-108619047D01*
X92900667Y-108619047D02*
X92948286Y-108809523D01*
X92948286Y-108809523D02*
X92995905Y-108904761D01*
X92995905Y-108904761D02*
X93091143Y-109000000D01*
X93091143Y-109000000D02*
X93234000Y-109047619D01*
X93234000Y-109047619D02*
X93329238Y-109047619D01*
X93329238Y-109047619D02*
X93472095Y-109000000D01*
X93472095Y-109000000D02*
X93519714Y-108952380D01*
X93519714Y-108952380D02*
X93519714Y-108619047D01*
X93519714Y-108619047D02*
X93329238Y-108619047D01*
X93948286Y-109047619D02*
X93948286Y-108047619D01*
X93948286Y-108047619D02*
X94519714Y-109047619D01*
X94519714Y-109047619D02*
X94519714Y-108047619D01*
X94995905Y-109047619D02*
X94995905Y-108047619D01*
X94995905Y-108047619D02*
X95234000Y-108047619D01*
X95234000Y-108047619D02*
X95376857Y-108095238D01*
X95376857Y-108095238D02*
X95472095Y-108190476D01*
X95472095Y-108190476D02*
X95519714Y-108285714D01*
X95519714Y-108285714D02*
X95567333Y-108476190D01*
X95567333Y-108476190D02*
X95567333Y-108619047D01*
X95567333Y-108619047D02*
X95519714Y-108809523D01*
X95519714Y-108809523D02*
X95472095Y-108904761D01*
X95472095Y-108904761D02*
X95376857Y-109000000D01*
X95376857Y-109000000D02*
X95234000Y-109047619D01*
X95234000Y-109047619D02*
X94995905Y-109047619D01*
D11*
X108063571Y-108661285D02*
X108120714Y-108489857D01*
X108120714Y-108489857D02*
X108177857Y-108432714D01*
X108177857Y-108432714D02*
X108292142Y-108375571D01*
X108292142Y-108375571D02*
X108463571Y-108375571D01*
X108463571Y-108375571D02*
X108577857Y-108432714D01*
X108577857Y-108432714D02*
X108635000Y-108489857D01*
X108635000Y-108489857D02*
X108692142Y-108604142D01*
X108692142Y-108604142D02*
X108692142Y-109061285D01*
X108692142Y-109061285D02*
X107492142Y-109061285D01*
X107492142Y-109061285D02*
X107492142Y-108661285D01*
X107492142Y-108661285D02*
X107549285Y-108547000D01*
X107549285Y-108547000D02*
X107606428Y-108489857D01*
X107606428Y-108489857D02*
X107720714Y-108432714D01*
X107720714Y-108432714D02*
X107835000Y-108432714D01*
X107835000Y-108432714D02*
X107949285Y-108489857D01*
X107949285Y-108489857D02*
X108006428Y-108547000D01*
X108006428Y-108547000D02*
X108063571Y-108661285D01*
X108063571Y-108661285D02*
X108063571Y-109061285D01*
X107492142Y-107632714D02*
X107492142Y-107404142D01*
X107492142Y-107404142D02*
X107549285Y-107289857D01*
X107549285Y-107289857D02*
X107663571Y-107175571D01*
X107663571Y-107175571D02*
X107892142Y-107118428D01*
X107892142Y-107118428D02*
X108292142Y-107118428D01*
X108292142Y-107118428D02*
X108520714Y-107175571D01*
X108520714Y-107175571D02*
X108635000Y-107289857D01*
X108635000Y-107289857D02*
X108692142Y-107404142D01*
X108692142Y-107404142D02*
X108692142Y-107632714D01*
X108692142Y-107632714D02*
X108635000Y-107747000D01*
X108635000Y-107747000D02*
X108520714Y-107861285D01*
X108520714Y-107861285D02*
X108292142Y-107918428D01*
X108292142Y-107918428D02*
X107892142Y-107918428D01*
X107892142Y-107918428D02*
X107663571Y-107861285D01*
X107663571Y-107861285D02*
X107549285Y-107747000D01*
X107549285Y-107747000D02*
X107492142Y-107632714D01*
X107492142Y-106375571D02*
X107492142Y-106146999D01*
X107492142Y-106146999D02*
X107549285Y-106032714D01*
X107549285Y-106032714D02*
X107663571Y-105918428D01*
X107663571Y-105918428D02*
X107892142Y-105861285D01*
X107892142Y-105861285D02*
X108292142Y-105861285D01*
X108292142Y-105861285D02*
X108520714Y-105918428D01*
X108520714Y-105918428D02*
X108635000Y-106032714D01*
X108635000Y-106032714D02*
X108692142Y-106146999D01*
X108692142Y-106146999D02*
X108692142Y-106375571D01*
X108692142Y-106375571D02*
X108635000Y-106489857D01*
X108635000Y-106489857D02*
X108520714Y-106604142D01*
X108520714Y-106604142D02*
X108292142Y-106661285D01*
X108292142Y-106661285D02*
X107892142Y-106661285D01*
X107892142Y-106661285D02*
X107663571Y-106604142D01*
X107663571Y-106604142D02*
X107549285Y-106489857D01*
X107549285Y-106489857D02*
X107492142Y-106375571D01*
X107492142Y-105518428D02*
X107492142Y-104832714D01*
X108692142Y-105175571D02*
X107492142Y-105175571D01*
D10*
%TO.C,C2*%
X127087333Y-106285380D02*
X127039714Y-106333000D01*
X127039714Y-106333000D02*
X126896857Y-106380619D01*
X126896857Y-106380619D02*
X126801619Y-106380619D01*
X126801619Y-106380619D02*
X126658762Y-106333000D01*
X126658762Y-106333000D02*
X126563524Y-106237761D01*
X126563524Y-106237761D02*
X126515905Y-106142523D01*
X126515905Y-106142523D02*
X126468286Y-105952047D01*
X126468286Y-105952047D02*
X126468286Y-105809190D01*
X126468286Y-105809190D02*
X126515905Y-105618714D01*
X126515905Y-105618714D02*
X126563524Y-105523476D01*
X126563524Y-105523476D02*
X126658762Y-105428238D01*
X126658762Y-105428238D02*
X126801619Y-105380619D01*
X126801619Y-105380619D02*
X126896857Y-105380619D01*
X126896857Y-105380619D02*
X127039714Y-105428238D01*
X127039714Y-105428238D02*
X127087333Y-105475857D01*
X127468286Y-105475857D02*
X127515905Y-105428238D01*
X127515905Y-105428238D02*
X127611143Y-105380619D01*
X127611143Y-105380619D02*
X127849238Y-105380619D01*
X127849238Y-105380619D02*
X127944476Y-105428238D01*
X127944476Y-105428238D02*
X127992095Y-105475857D01*
X127992095Y-105475857D02*
X128039714Y-105571095D01*
X128039714Y-105571095D02*
X128039714Y-105666333D01*
X128039714Y-105666333D02*
X127992095Y-105809190D01*
X127992095Y-105809190D02*
X127420667Y-106380619D01*
X127420667Y-106380619D02*
X128039714Y-106380619D01*
%TO.C,C12*%
X124325142Y-81139380D02*
X124277523Y-81187000D01*
X124277523Y-81187000D02*
X124134666Y-81234619D01*
X124134666Y-81234619D02*
X124039428Y-81234619D01*
X124039428Y-81234619D02*
X123896571Y-81187000D01*
X123896571Y-81187000D02*
X123801333Y-81091761D01*
X123801333Y-81091761D02*
X123753714Y-80996523D01*
X123753714Y-80996523D02*
X123706095Y-80806047D01*
X123706095Y-80806047D02*
X123706095Y-80663190D01*
X123706095Y-80663190D02*
X123753714Y-80472714D01*
X123753714Y-80472714D02*
X123801333Y-80377476D01*
X123801333Y-80377476D02*
X123896571Y-80282238D01*
X123896571Y-80282238D02*
X124039428Y-80234619D01*
X124039428Y-80234619D02*
X124134666Y-80234619D01*
X124134666Y-80234619D02*
X124277523Y-80282238D01*
X124277523Y-80282238D02*
X124325142Y-80329857D01*
X125277523Y-81234619D02*
X124706095Y-81234619D01*
X124991809Y-81234619D02*
X124991809Y-80234619D01*
X124991809Y-80234619D02*
X124896571Y-80377476D01*
X124896571Y-80377476D02*
X124801333Y-80472714D01*
X124801333Y-80472714D02*
X124706095Y-80520333D01*
X125658476Y-80329857D02*
X125706095Y-80282238D01*
X125706095Y-80282238D02*
X125801333Y-80234619D01*
X125801333Y-80234619D02*
X126039428Y-80234619D01*
X126039428Y-80234619D02*
X126134666Y-80282238D01*
X126134666Y-80282238D02*
X126182285Y-80329857D01*
X126182285Y-80329857D02*
X126229904Y-80425095D01*
X126229904Y-80425095D02*
X126229904Y-80520333D01*
X126229904Y-80520333D02*
X126182285Y-80663190D01*
X126182285Y-80663190D02*
X125610857Y-81234619D01*
X125610857Y-81234619D02*
X126229904Y-81234619D01*
%TO.C,Y1*%
X124618809Y-106920428D02*
X124618809Y-107396619D01*
X124285476Y-106396619D02*
X124618809Y-106920428D01*
X124618809Y-106920428D02*
X124952142Y-106396619D01*
X125809285Y-107396619D02*
X125237857Y-107396619D01*
X125523571Y-107396619D02*
X125523571Y-106396619D01*
X125523571Y-106396619D02*
X125428333Y-106539476D01*
X125428333Y-106539476D02*
X125333095Y-106634714D01*
X125333095Y-106634714D02*
X125237857Y-106682333D01*
%TO.C,J1*%
X115871666Y-96617619D02*
X115871666Y-97331904D01*
X115871666Y-97331904D02*
X115824047Y-97474761D01*
X115824047Y-97474761D02*
X115728809Y-97570000D01*
X115728809Y-97570000D02*
X115585952Y-97617619D01*
X115585952Y-97617619D02*
X115490714Y-97617619D01*
X116871666Y-97617619D02*
X116300238Y-97617619D01*
X116585952Y-97617619D02*
X116585952Y-96617619D01*
X116585952Y-96617619D02*
X116490714Y-96760476D01*
X116490714Y-96760476D02*
X116395476Y-96855714D01*
X116395476Y-96855714D02*
X116300238Y-96903333D01*
%TO.C,C10*%
X112133142Y-91299380D02*
X112085523Y-91347000D01*
X112085523Y-91347000D02*
X111942666Y-91394619D01*
X111942666Y-91394619D02*
X111847428Y-91394619D01*
X111847428Y-91394619D02*
X111704571Y-91347000D01*
X111704571Y-91347000D02*
X111609333Y-91251761D01*
X111609333Y-91251761D02*
X111561714Y-91156523D01*
X111561714Y-91156523D02*
X111514095Y-90966047D01*
X111514095Y-90966047D02*
X111514095Y-90823190D01*
X111514095Y-90823190D02*
X111561714Y-90632714D01*
X111561714Y-90632714D02*
X111609333Y-90537476D01*
X111609333Y-90537476D02*
X111704571Y-90442238D01*
X111704571Y-90442238D02*
X111847428Y-90394619D01*
X111847428Y-90394619D02*
X111942666Y-90394619D01*
X111942666Y-90394619D02*
X112085523Y-90442238D01*
X112085523Y-90442238D02*
X112133142Y-90489857D01*
X113085523Y-91394619D02*
X112514095Y-91394619D01*
X112799809Y-91394619D02*
X112799809Y-90394619D01*
X112799809Y-90394619D02*
X112704571Y-90537476D01*
X112704571Y-90537476D02*
X112609333Y-90632714D01*
X112609333Y-90632714D02*
X112514095Y-90680333D01*
X113704571Y-90394619D02*
X113799809Y-90394619D01*
X113799809Y-90394619D02*
X113895047Y-90442238D01*
X113895047Y-90442238D02*
X113942666Y-90489857D01*
X113942666Y-90489857D02*
X113990285Y-90585095D01*
X113990285Y-90585095D02*
X114037904Y-90775571D01*
X114037904Y-90775571D02*
X114037904Y-91013666D01*
X114037904Y-91013666D02*
X113990285Y-91204142D01*
X113990285Y-91204142D02*
X113942666Y-91299380D01*
X113942666Y-91299380D02*
X113895047Y-91347000D01*
X113895047Y-91347000D02*
X113799809Y-91394619D01*
X113799809Y-91394619D02*
X113704571Y-91394619D01*
X113704571Y-91394619D02*
X113609333Y-91347000D01*
X113609333Y-91347000D02*
X113561714Y-91299380D01*
X113561714Y-91299380D02*
X113514095Y-91204142D01*
X113514095Y-91204142D02*
X113466476Y-91013666D01*
X113466476Y-91013666D02*
X113466476Y-90775571D01*
X113466476Y-90775571D02*
X113514095Y-90585095D01*
X113514095Y-90585095D02*
X113561714Y-90489857D01*
X113561714Y-90489857D02*
X113609333Y-90442238D01*
X113609333Y-90442238D02*
X113704571Y-90394619D01*
%TO.C,R8*%
X101814333Y-70185619D02*
X101481000Y-69709428D01*
X101242905Y-70185619D02*
X101242905Y-69185619D01*
X101242905Y-69185619D02*
X101623857Y-69185619D01*
X101623857Y-69185619D02*
X101719095Y-69233238D01*
X101719095Y-69233238D02*
X101766714Y-69280857D01*
X101766714Y-69280857D02*
X101814333Y-69376095D01*
X101814333Y-69376095D02*
X101814333Y-69518952D01*
X101814333Y-69518952D02*
X101766714Y-69614190D01*
X101766714Y-69614190D02*
X101719095Y-69661809D01*
X101719095Y-69661809D02*
X101623857Y-69709428D01*
X101623857Y-69709428D02*
X101242905Y-69709428D01*
X102385762Y-69614190D02*
X102290524Y-69566571D01*
X102290524Y-69566571D02*
X102242905Y-69518952D01*
X102242905Y-69518952D02*
X102195286Y-69423714D01*
X102195286Y-69423714D02*
X102195286Y-69376095D01*
X102195286Y-69376095D02*
X102242905Y-69280857D01*
X102242905Y-69280857D02*
X102290524Y-69233238D01*
X102290524Y-69233238D02*
X102385762Y-69185619D01*
X102385762Y-69185619D02*
X102576238Y-69185619D01*
X102576238Y-69185619D02*
X102671476Y-69233238D01*
X102671476Y-69233238D02*
X102719095Y-69280857D01*
X102719095Y-69280857D02*
X102766714Y-69376095D01*
X102766714Y-69376095D02*
X102766714Y-69423714D01*
X102766714Y-69423714D02*
X102719095Y-69518952D01*
X102719095Y-69518952D02*
X102671476Y-69566571D01*
X102671476Y-69566571D02*
X102576238Y-69614190D01*
X102576238Y-69614190D02*
X102385762Y-69614190D01*
X102385762Y-69614190D02*
X102290524Y-69661809D01*
X102290524Y-69661809D02*
X102242905Y-69709428D01*
X102242905Y-69709428D02*
X102195286Y-69804666D01*
X102195286Y-69804666D02*
X102195286Y-69995142D01*
X102195286Y-69995142D02*
X102242905Y-70090380D01*
X102242905Y-70090380D02*
X102290524Y-70138000D01*
X102290524Y-70138000D02*
X102385762Y-70185619D01*
X102385762Y-70185619D02*
X102576238Y-70185619D01*
X102576238Y-70185619D02*
X102671476Y-70138000D01*
X102671476Y-70138000D02*
X102719095Y-70090380D01*
X102719095Y-70090380D02*
X102766714Y-69995142D01*
X102766714Y-69995142D02*
X102766714Y-69804666D01*
X102766714Y-69804666D02*
X102719095Y-69709428D01*
X102719095Y-69709428D02*
X102671476Y-69661809D01*
X102671476Y-69661809D02*
X102576238Y-69614190D01*
%TO.C,R17*%
X82885619Y-104909857D02*
X82409428Y-105243190D01*
X82885619Y-105481285D02*
X81885619Y-105481285D01*
X81885619Y-105481285D02*
X81885619Y-105100333D01*
X81885619Y-105100333D02*
X81933238Y-105005095D01*
X81933238Y-105005095D02*
X81980857Y-104957476D01*
X81980857Y-104957476D02*
X82076095Y-104909857D01*
X82076095Y-104909857D02*
X82218952Y-104909857D01*
X82218952Y-104909857D02*
X82314190Y-104957476D01*
X82314190Y-104957476D02*
X82361809Y-105005095D01*
X82361809Y-105005095D02*
X82409428Y-105100333D01*
X82409428Y-105100333D02*
X82409428Y-105481285D01*
X82885619Y-103957476D02*
X82885619Y-104528904D01*
X82885619Y-104243190D02*
X81885619Y-104243190D01*
X81885619Y-104243190D02*
X82028476Y-104338428D01*
X82028476Y-104338428D02*
X82123714Y-104433666D01*
X82123714Y-104433666D02*
X82171333Y-104528904D01*
X81885619Y-103624142D02*
X81885619Y-102957476D01*
X81885619Y-102957476D02*
X82885619Y-103386047D01*
%TO.C,S3*%
X113030095Y-106079000D02*
X113172952Y-106126619D01*
X113172952Y-106126619D02*
X113411047Y-106126619D01*
X113411047Y-106126619D02*
X113506285Y-106079000D01*
X113506285Y-106079000D02*
X113553904Y-106031380D01*
X113553904Y-106031380D02*
X113601523Y-105936142D01*
X113601523Y-105936142D02*
X113601523Y-105840904D01*
X113601523Y-105840904D02*
X113553904Y-105745666D01*
X113553904Y-105745666D02*
X113506285Y-105698047D01*
X113506285Y-105698047D02*
X113411047Y-105650428D01*
X113411047Y-105650428D02*
X113220571Y-105602809D01*
X113220571Y-105602809D02*
X113125333Y-105555190D01*
X113125333Y-105555190D02*
X113077714Y-105507571D01*
X113077714Y-105507571D02*
X113030095Y-105412333D01*
X113030095Y-105412333D02*
X113030095Y-105317095D01*
X113030095Y-105317095D02*
X113077714Y-105221857D01*
X113077714Y-105221857D02*
X113125333Y-105174238D01*
X113125333Y-105174238D02*
X113220571Y-105126619D01*
X113220571Y-105126619D02*
X113458666Y-105126619D01*
X113458666Y-105126619D02*
X113601523Y-105174238D01*
X113934857Y-105126619D02*
X114553904Y-105126619D01*
X114553904Y-105126619D02*
X114220571Y-105507571D01*
X114220571Y-105507571D02*
X114363428Y-105507571D01*
X114363428Y-105507571D02*
X114458666Y-105555190D01*
X114458666Y-105555190D02*
X114506285Y-105602809D01*
X114506285Y-105602809D02*
X114553904Y-105698047D01*
X114553904Y-105698047D02*
X114553904Y-105936142D01*
X114553904Y-105936142D02*
X114506285Y-106031380D01*
X114506285Y-106031380D02*
X114458666Y-106079000D01*
X114458666Y-106079000D02*
X114363428Y-106126619D01*
X114363428Y-106126619D02*
X114077714Y-106126619D01*
X114077714Y-106126619D02*
X113982476Y-106079000D01*
X113982476Y-106079000D02*
X113934857Y-106031380D01*
%TO.C,C6*%
X113117333Y-86981380D02*
X113069714Y-87029000D01*
X113069714Y-87029000D02*
X112926857Y-87076619D01*
X112926857Y-87076619D02*
X112831619Y-87076619D01*
X112831619Y-87076619D02*
X112688762Y-87029000D01*
X112688762Y-87029000D02*
X112593524Y-86933761D01*
X112593524Y-86933761D02*
X112545905Y-86838523D01*
X112545905Y-86838523D02*
X112498286Y-86648047D01*
X112498286Y-86648047D02*
X112498286Y-86505190D01*
X112498286Y-86505190D02*
X112545905Y-86314714D01*
X112545905Y-86314714D02*
X112593524Y-86219476D01*
X112593524Y-86219476D02*
X112688762Y-86124238D01*
X112688762Y-86124238D02*
X112831619Y-86076619D01*
X112831619Y-86076619D02*
X112926857Y-86076619D01*
X112926857Y-86076619D02*
X113069714Y-86124238D01*
X113069714Y-86124238D02*
X113117333Y-86171857D01*
X113974476Y-86076619D02*
X113784000Y-86076619D01*
X113784000Y-86076619D02*
X113688762Y-86124238D01*
X113688762Y-86124238D02*
X113641143Y-86171857D01*
X113641143Y-86171857D02*
X113545905Y-86314714D01*
X113545905Y-86314714D02*
X113498286Y-86505190D01*
X113498286Y-86505190D02*
X113498286Y-86886142D01*
X113498286Y-86886142D02*
X113545905Y-86981380D01*
X113545905Y-86981380D02*
X113593524Y-87029000D01*
X113593524Y-87029000D02*
X113688762Y-87076619D01*
X113688762Y-87076619D02*
X113879238Y-87076619D01*
X113879238Y-87076619D02*
X113974476Y-87029000D01*
X113974476Y-87029000D02*
X114022095Y-86981380D01*
X114022095Y-86981380D02*
X114069714Y-86886142D01*
X114069714Y-86886142D02*
X114069714Y-86648047D01*
X114069714Y-86648047D02*
X114022095Y-86552809D01*
X114022095Y-86552809D02*
X113974476Y-86505190D01*
X113974476Y-86505190D02*
X113879238Y-86457571D01*
X113879238Y-86457571D02*
X113688762Y-86457571D01*
X113688762Y-86457571D02*
X113593524Y-86505190D01*
X113593524Y-86505190D02*
X113545905Y-86552809D01*
X113545905Y-86552809D02*
X113498286Y-86648047D01*
%TO.C,J2*%
X85772666Y-95982619D02*
X85772666Y-96696904D01*
X85772666Y-96696904D02*
X85725047Y-96839761D01*
X85725047Y-96839761D02*
X85629809Y-96935000D01*
X85629809Y-96935000D02*
X85486952Y-96982619D01*
X85486952Y-96982619D02*
X85391714Y-96982619D01*
X86201238Y-96077857D02*
X86248857Y-96030238D01*
X86248857Y-96030238D02*
X86344095Y-95982619D01*
X86344095Y-95982619D02*
X86582190Y-95982619D01*
X86582190Y-95982619D02*
X86677428Y-96030238D01*
X86677428Y-96030238D02*
X86725047Y-96077857D01*
X86725047Y-96077857D02*
X86772666Y-96173095D01*
X86772666Y-96173095D02*
X86772666Y-96268333D01*
X86772666Y-96268333D02*
X86725047Y-96411190D01*
X86725047Y-96411190D02*
X86153619Y-96982619D01*
X86153619Y-96982619D02*
X86772666Y-96982619D01*
%TO.C,C7*%
X121398380Y-100115666D02*
X121446000Y-100163285D01*
X121446000Y-100163285D02*
X121493619Y-100306142D01*
X121493619Y-100306142D02*
X121493619Y-100401380D01*
X121493619Y-100401380D02*
X121446000Y-100544237D01*
X121446000Y-100544237D02*
X121350761Y-100639475D01*
X121350761Y-100639475D02*
X121255523Y-100687094D01*
X121255523Y-100687094D02*
X121065047Y-100734713D01*
X121065047Y-100734713D02*
X120922190Y-100734713D01*
X120922190Y-100734713D02*
X120731714Y-100687094D01*
X120731714Y-100687094D02*
X120636476Y-100639475D01*
X120636476Y-100639475D02*
X120541238Y-100544237D01*
X120541238Y-100544237D02*
X120493619Y-100401380D01*
X120493619Y-100401380D02*
X120493619Y-100306142D01*
X120493619Y-100306142D02*
X120541238Y-100163285D01*
X120541238Y-100163285D02*
X120588857Y-100115666D01*
X120493619Y-99782332D02*
X120493619Y-99115666D01*
X120493619Y-99115666D02*
X121493619Y-99544237D01*
%TO.C,U1*%
X83282619Y-67309904D02*
X84092142Y-67309904D01*
X84092142Y-67309904D02*
X84187380Y-67262285D01*
X84187380Y-67262285D02*
X84235000Y-67214666D01*
X84235000Y-67214666D02*
X84282619Y-67119428D01*
X84282619Y-67119428D02*
X84282619Y-66928952D01*
X84282619Y-66928952D02*
X84235000Y-66833714D01*
X84235000Y-66833714D02*
X84187380Y-66786095D01*
X84187380Y-66786095D02*
X84092142Y-66738476D01*
X84092142Y-66738476D02*
X83282619Y-66738476D01*
X84282619Y-65738476D02*
X84282619Y-66309904D01*
X84282619Y-66024190D02*
X83282619Y-66024190D01*
X83282619Y-66024190D02*
X83425476Y-66119428D01*
X83425476Y-66119428D02*
X83520714Y-66214666D01*
X83520714Y-66214666D02*
X83568333Y-66309904D01*
%TO.C,R13*%
X118483142Y-105618619D02*
X118149809Y-105142428D01*
X117911714Y-105618619D02*
X117911714Y-104618619D01*
X117911714Y-104618619D02*
X118292666Y-104618619D01*
X118292666Y-104618619D02*
X118387904Y-104666238D01*
X118387904Y-104666238D02*
X118435523Y-104713857D01*
X118435523Y-104713857D02*
X118483142Y-104809095D01*
X118483142Y-104809095D02*
X118483142Y-104951952D01*
X118483142Y-104951952D02*
X118435523Y-105047190D01*
X118435523Y-105047190D02*
X118387904Y-105094809D01*
X118387904Y-105094809D02*
X118292666Y-105142428D01*
X118292666Y-105142428D02*
X117911714Y-105142428D01*
X119435523Y-105618619D02*
X118864095Y-105618619D01*
X119149809Y-105618619D02*
X119149809Y-104618619D01*
X119149809Y-104618619D02*
X119054571Y-104761476D01*
X119054571Y-104761476D02*
X118959333Y-104856714D01*
X118959333Y-104856714D02*
X118864095Y-104904333D01*
X119768857Y-104618619D02*
X120387904Y-104618619D01*
X120387904Y-104618619D02*
X120054571Y-104999571D01*
X120054571Y-104999571D02*
X120197428Y-104999571D01*
X120197428Y-104999571D02*
X120292666Y-105047190D01*
X120292666Y-105047190D02*
X120340285Y-105094809D01*
X120340285Y-105094809D02*
X120387904Y-105190047D01*
X120387904Y-105190047D02*
X120387904Y-105428142D01*
X120387904Y-105428142D02*
X120340285Y-105523380D01*
X120340285Y-105523380D02*
X120292666Y-105571000D01*
X120292666Y-105571000D02*
X120197428Y-105618619D01*
X120197428Y-105618619D02*
X119911714Y-105618619D01*
X119911714Y-105618619D02*
X119816476Y-105571000D01*
X119816476Y-105571000D02*
X119768857Y-105523380D01*
%TO.C,U4*%
X96403710Y-87434307D02*
X96403710Y-88243830D01*
X96403710Y-88243830D02*
X96451329Y-88339068D01*
X96451329Y-88339068D02*
X96498948Y-88386688D01*
X96498948Y-88386688D02*
X96594186Y-88434307D01*
X96594186Y-88434307D02*
X96784662Y-88434307D01*
X96784662Y-88434307D02*
X96879900Y-88386688D01*
X96879900Y-88386688D02*
X96927519Y-88339068D01*
X96927519Y-88339068D02*
X96975138Y-88243830D01*
X96975138Y-88243830D02*
X96975138Y-87434307D01*
X97879900Y-87767640D02*
X97879900Y-88434307D01*
X97641805Y-87386688D02*
X97403710Y-88100973D01*
X97403710Y-88100973D02*
X98022757Y-88100973D01*
%TO.C,C15*%
X95457380Y-98419857D02*
X95505000Y-98467476D01*
X95505000Y-98467476D02*
X95552619Y-98610333D01*
X95552619Y-98610333D02*
X95552619Y-98705571D01*
X95552619Y-98705571D02*
X95505000Y-98848428D01*
X95505000Y-98848428D02*
X95409761Y-98943666D01*
X95409761Y-98943666D02*
X95314523Y-98991285D01*
X95314523Y-98991285D02*
X95124047Y-99038904D01*
X95124047Y-99038904D02*
X94981190Y-99038904D01*
X94981190Y-99038904D02*
X94790714Y-98991285D01*
X94790714Y-98991285D02*
X94695476Y-98943666D01*
X94695476Y-98943666D02*
X94600238Y-98848428D01*
X94600238Y-98848428D02*
X94552619Y-98705571D01*
X94552619Y-98705571D02*
X94552619Y-98610333D01*
X94552619Y-98610333D02*
X94600238Y-98467476D01*
X94600238Y-98467476D02*
X94647857Y-98419857D01*
X95552619Y-97467476D02*
X95552619Y-98038904D01*
X95552619Y-97753190D02*
X94552619Y-97753190D01*
X94552619Y-97753190D02*
X94695476Y-97848428D01*
X94695476Y-97848428D02*
X94790714Y-97943666D01*
X94790714Y-97943666D02*
X94838333Y-98038904D01*
X94552619Y-96562714D02*
X94552619Y-97038904D01*
X94552619Y-97038904D02*
X95028809Y-97086523D01*
X95028809Y-97086523D02*
X94981190Y-97038904D01*
X94981190Y-97038904D02*
X94933571Y-96943666D01*
X94933571Y-96943666D02*
X94933571Y-96705571D01*
X94933571Y-96705571D02*
X94981190Y-96610333D01*
X94981190Y-96610333D02*
X95028809Y-96562714D01*
X95028809Y-96562714D02*
X95124047Y-96515095D01*
X95124047Y-96515095D02*
X95362142Y-96515095D01*
X95362142Y-96515095D02*
X95457380Y-96562714D01*
X95457380Y-96562714D02*
X95505000Y-96610333D01*
X95505000Y-96610333D02*
X95552619Y-96705571D01*
X95552619Y-96705571D02*
X95552619Y-96943666D01*
X95552619Y-96943666D02*
X95505000Y-97038904D01*
X95505000Y-97038904D02*
X95457380Y-97086523D01*
%TO.C,R7*%
X106767333Y-70185619D02*
X106434000Y-69709428D01*
X106195905Y-70185619D02*
X106195905Y-69185619D01*
X106195905Y-69185619D02*
X106576857Y-69185619D01*
X106576857Y-69185619D02*
X106672095Y-69233238D01*
X106672095Y-69233238D02*
X106719714Y-69280857D01*
X106719714Y-69280857D02*
X106767333Y-69376095D01*
X106767333Y-69376095D02*
X106767333Y-69518952D01*
X106767333Y-69518952D02*
X106719714Y-69614190D01*
X106719714Y-69614190D02*
X106672095Y-69661809D01*
X106672095Y-69661809D02*
X106576857Y-69709428D01*
X106576857Y-69709428D02*
X106195905Y-69709428D01*
X107100667Y-69185619D02*
X107767333Y-69185619D01*
X107767333Y-69185619D02*
X107338762Y-70185619D01*
%TO.C,LS1*%
X152011142Y-69296619D02*
X151534952Y-69296619D01*
X151534952Y-69296619D02*
X151534952Y-68296619D01*
X152296857Y-69249000D02*
X152439714Y-69296619D01*
X152439714Y-69296619D02*
X152677809Y-69296619D01*
X152677809Y-69296619D02*
X152773047Y-69249000D01*
X152773047Y-69249000D02*
X152820666Y-69201380D01*
X152820666Y-69201380D02*
X152868285Y-69106142D01*
X152868285Y-69106142D02*
X152868285Y-69010904D01*
X152868285Y-69010904D02*
X152820666Y-68915666D01*
X152820666Y-68915666D02*
X152773047Y-68868047D01*
X152773047Y-68868047D02*
X152677809Y-68820428D01*
X152677809Y-68820428D02*
X152487333Y-68772809D01*
X152487333Y-68772809D02*
X152392095Y-68725190D01*
X152392095Y-68725190D02*
X152344476Y-68677571D01*
X152344476Y-68677571D02*
X152296857Y-68582333D01*
X152296857Y-68582333D02*
X152296857Y-68487095D01*
X152296857Y-68487095D02*
X152344476Y-68391857D01*
X152344476Y-68391857D02*
X152392095Y-68344238D01*
X152392095Y-68344238D02*
X152487333Y-68296619D01*
X152487333Y-68296619D02*
X152725428Y-68296619D01*
X152725428Y-68296619D02*
X152868285Y-68344238D01*
X153820666Y-69296619D02*
X153249238Y-69296619D01*
X153534952Y-69296619D02*
X153534952Y-68296619D01*
X153534952Y-68296619D02*
X153439714Y-68439476D01*
X153439714Y-68439476D02*
X153344476Y-68534714D01*
X153344476Y-68534714D02*
X153249238Y-68582333D01*
X148209048Y-70312666D02*
X148970953Y-70312666D01*
X148590000Y-70693619D02*
X148590000Y-69931714D01*
%TO.C,C1*%
X113244333Y-75805380D02*
X113196714Y-75853000D01*
X113196714Y-75853000D02*
X113053857Y-75900619D01*
X113053857Y-75900619D02*
X112958619Y-75900619D01*
X112958619Y-75900619D02*
X112815762Y-75853000D01*
X112815762Y-75853000D02*
X112720524Y-75757761D01*
X112720524Y-75757761D02*
X112672905Y-75662523D01*
X112672905Y-75662523D02*
X112625286Y-75472047D01*
X112625286Y-75472047D02*
X112625286Y-75329190D01*
X112625286Y-75329190D02*
X112672905Y-75138714D01*
X112672905Y-75138714D02*
X112720524Y-75043476D01*
X112720524Y-75043476D02*
X112815762Y-74948238D01*
X112815762Y-74948238D02*
X112958619Y-74900619D01*
X112958619Y-74900619D02*
X113053857Y-74900619D01*
X113053857Y-74900619D02*
X113196714Y-74948238D01*
X113196714Y-74948238D02*
X113244333Y-74995857D01*
X114196714Y-75900619D02*
X113625286Y-75900619D01*
X113911000Y-75900619D02*
X113911000Y-74900619D01*
X113911000Y-74900619D02*
X113815762Y-75043476D01*
X113815762Y-75043476D02*
X113720524Y-75138714D01*
X113720524Y-75138714D02*
X113625286Y-75186333D01*
%TO.C,R6*%
X104354333Y-70693619D02*
X104021000Y-70217428D01*
X103782905Y-70693619D02*
X103782905Y-69693619D01*
X103782905Y-69693619D02*
X104163857Y-69693619D01*
X104163857Y-69693619D02*
X104259095Y-69741238D01*
X104259095Y-69741238D02*
X104306714Y-69788857D01*
X104306714Y-69788857D02*
X104354333Y-69884095D01*
X104354333Y-69884095D02*
X104354333Y-70026952D01*
X104354333Y-70026952D02*
X104306714Y-70122190D01*
X104306714Y-70122190D02*
X104259095Y-70169809D01*
X104259095Y-70169809D02*
X104163857Y-70217428D01*
X104163857Y-70217428D02*
X103782905Y-70217428D01*
X105211476Y-69693619D02*
X105021000Y-69693619D01*
X105021000Y-69693619D02*
X104925762Y-69741238D01*
X104925762Y-69741238D02*
X104878143Y-69788857D01*
X104878143Y-69788857D02*
X104782905Y-69931714D01*
X104782905Y-69931714D02*
X104735286Y-70122190D01*
X104735286Y-70122190D02*
X104735286Y-70503142D01*
X104735286Y-70503142D02*
X104782905Y-70598380D01*
X104782905Y-70598380D02*
X104830524Y-70646000D01*
X104830524Y-70646000D02*
X104925762Y-70693619D01*
X104925762Y-70693619D02*
X105116238Y-70693619D01*
X105116238Y-70693619D02*
X105211476Y-70646000D01*
X105211476Y-70646000D02*
X105259095Y-70598380D01*
X105259095Y-70598380D02*
X105306714Y-70503142D01*
X105306714Y-70503142D02*
X105306714Y-70265047D01*
X105306714Y-70265047D02*
X105259095Y-70169809D01*
X105259095Y-70169809D02*
X105211476Y-70122190D01*
X105211476Y-70122190D02*
X105116238Y-70074571D01*
X105116238Y-70074571D02*
X104925762Y-70074571D01*
X104925762Y-70074571D02*
X104830524Y-70122190D01*
X104830524Y-70122190D02*
X104782905Y-70169809D01*
X104782905Y-70169809D02*
X104735286Y-70265047D01*
%TO.C,R9*%
X99528082Y-70600472D02*
X99194749Y-70124281D01*
X98956654Y-70600472D02*
X98956654Y-69600472D01*
X98956654Y-69600472D02*
X99337606Y-69600472D01*
X99337606Y-69600472D02*
X99432844Y-69648091D01*
X99432844Y-69648091D02*
X99480463Y-69695710D01*
X99480463Y-69695710D02*
X99528082Y-69790948D01*
X99528082Y-69790948D02*
X99528082Y-69933805D01*
X99528082Y-69933805D02*
X99480463Y-70029043D01*
X99480463Y-70029043D02*
X99432844Y-70076662D01*
X99432844Y-70076662D02*
X99337606Y-70124281D01*
X99337606Y-70124281D02*
X98956654Y-70124281D01*
X100004273Y-70600472D02*
X100194749Y-70600472D01*
X100194749Y-70600472D02*
X100289987Y-70552853D01*
X100289987Y-70552853D02*
X100337606Y-70505233D01*
X100337606Y-70505233D02*
X100432844Y-70362376D01*
X100432844Y-70362376D02*
X100480463Y-70171900D01*
X100480463Y-70171900D02*
X100480463Y-69790948D01*
X100480463Y-69790948D02*
X100432844Y-69695710D01*
X100432844Y-69695710D02*
X100385225Y-69648091D01*
X100385225Y-69648091D02*
X100289987Y-69600472D01*
X100289987Y-69600472D02*
X100099511Y-69600472D01*
X100099511Y-69600472D02*
X100004273Y-69648091D01*
X100004273Y-69648091D02*
X99956654Y-69695710D01*
X99956654Y-69695710D02*
X99909035Y-69790948D01*
X99909035Y-69790948D02*
X99909035Y-70029043D01*
X99909035Y-70029043D02*
X99956654Y-70124281D01*
X99956654Y-70124281D02*
X100004273Y-70171900D01*
X100004273Y-70171900D02*
X100099511Y-70219519D01*
X100099511Y-70219519D02*
X100289987Y-70219519D01*
X100289987Y-70219519D02*
X100385225Y-70171900D01*
X100385225Y-70171900D02*
X100432844Y-70124281D01*
X100432844Y-70124281D02*
X100480463Y-70029043D01*
%TO.C,D1*%
X130325905Y-74630619D02*
X130325905Y-73630619D01*
X130325905Y-73630619D02*
X130564000Y-73630619D01*
X130564000Y-73630619D02*
X130706857Y-73678238D01*
X130706857Y-73678238D02*
X130802095Y-73773476D01*
X130802095Y-73773476D02*
X130849714Y-73868714D01*
X130849714Y-73868714D02*
X130897333Y-74059190D01*
X130897333Y-74059190D02*
X130897333Y-74202047D01*
X130897333Y-74202047D02*
X130849714Y-74392523D01*
X130849714Y-74392523D02*
X130802095Y-74487761D01*
X130802095Y-74487761D02*
X130706857Y-74583000D01*
X130706857Y-74583000D02*
X130564000Y-74630619D01*
X130564000Y-74630619D02*
X130325905Y-74630619D01*
X131849714Y-74630619D02*
X131278286Y-74630619D01*
X131564000Y-74630619D02*
X131564000Y-73630619D01*
X131564000Y-73630619D02*
X131468762Y-73773476D01*
X131468762Y-73773476D02*
X131373524Y-73868714D01*
X131373524Y-73868714D02*
X131278286Y-73916333D01*
%TO.C,D3*%
X92987905Y-79964619D02*
X92987905Y-78964619D01*
X92987905Y-78964619D02*
X93226000Y-78964619D01*
X93226000Y-78964619D02*
X93368857Y-79012238D01*
X93368857Y-79012238D02*
X93464095Y-79107476D01*
X93464095Y-79107476D02*
X93511714Y-79202714D01*
X93511714Y-79202714D02*
X93559333Y-79393190D01*
X93559333Y-79393190D02*
X93559333Y-79536047D01*
X93559333Y-79536047D02*
X93511714Y-79726523D01*
X93511714Y-79726523D02*
X93464095Y-79821761D01*
X93464095Y-79821761D02*
X93368857Y-79917000D01*
X93368857Y-79917000D02*
X93226000Y-79964619D01*
X93226000Y-79964619D02*
X92987905Y-79964619D01*
X93892667Y-78964619D02*
X94511714Y-78964619D01*
X94511714Y-78964619D02*
X94178381Y-79345571D01*
X94178381Y-79345571D02*
X94321238Y-79345571D01*
X94321238Y-79345571D02*
X94416476Y-79393190D01*
X94416476Y-79393190D02*
X94464095Y-79440809D01*
X94464095Y-79440809D02*
X94511714Y-79536047D01*
X94511714Y-79536047D02*
X94511714Y-79774142D01*
X94511714Y-79774142D02*
X94464095Y-79869380D01*
X94464095Y-79869380D02*
X94416476Y-79917000D01*
X94416476Y-79917000D02*
X94321238Y-79964619D01*
X94321238Y-79964619D02*
X94035524Y-79964619D01*
X94035524Y-79964619D02*
X93940286Y-79917000D01*
X93940286Y-79917000D02*
X93892667Y-79869380D01*
%TO.C,U3*%
X124206095Y-88616619D02*
X124206095Y-89426142D01*
X124206095Y-89426142D02*
X124253714Y-89521380D01*
X124253714Y-89521380D02*
X124301333Y-89569000D01*
X124301333Y-89569000D02*
X124396571Y-89616619D01*
X124396571Y-89616619D02*
X124587047Y-89616619D01*
X124587047Y-89616619D02*
X124682285Y-89569000D01*
X124682285Y-89569000D02*
X124729904Y-89521380D01*
X124729904Y-89521380D02*
X124777523Y-89426142D01*
X124777523Y-89426142D02*
X124777523Y-88616619D01*
X125158476Y-88616619D02*
X125777523Y-88616619D01*
X125777523Y-88616619D02*
X125444190Y-88997571D01*
X125444190Y-88997571D02*
X125587047Y-88997571D01*
X125587047Y-88997571D02*
X125682285Y-89045190D01*
X125682285Y-89045190D02*
X125729904Y-89092809D01*
X125729904Y-89092809D02*
X125777523Y-89188047D01*
X125777523Y-89188047D02*
X125777523Y-89426142D01*
X125777523Y-89426142D02*
X125729904Y-89521380D01*
X125729904Y-89521380D02*
X125682285Y-89569000D01*
X125682285Y-89569000D02*
X125587047Y-89616619D01*
X125587047Y-89616619D02*
X125301333Y-89616619D01*
X125301333Y-89616619D02*
X125206095Y-89569000D01*
X125206095Y-89569000D02*
X125158476Y-89521380D01*
%TO.C,C11*%
X118991142Y-80504380D02*
X118943523Y-80552000D01*
X118943523Y-80552000D02*
X118800666Y-80599619D01*
X118800666Y-80599619D02*
X118705428Y-80599619D01*
X118705428Y-80599619D02*
X118562571Y-80552000D01*
X118562571Y-80552000D02*
X118467333Y-80456761D01*
X118467333Y-80456761D02*
X118419714Y-80361523D01*
X118419714Y-80361523D02*
X118372095Y-80171047D01*
X118372095Y-80171047D02*
X118372095Y-80028190D01*
X118372095Y-80028190D02*
X118419714Y-79837714D01*
X118419714Y-79837714D02*
X118467333Y-79742476D01*
X118467333Y-79742476D02*
X118562571Y-79647238D01*
X118562571Y-79647238D02*
X118705428Y-79599619D01*
X118705428Y-79599619D02*
X118800666Y-79599619D01*
X118800666Y-79599619D02*
X118943523Y-79647238D01*
X118943523Y-79647238D02*
X118991142Y-79694857D01*
X119943523Y-80599619D02*
X119372095Y-80599619D01*
X119657809Y-80599619D02*
X119657809Y-79599619D01*
X119657809Y-79599619D02*
X119562571Y-79742476D01*
X119562571Y-79742476D02*
X119467333Y-79837714D01*
X119467333Y-79837714D02*
X119372095Y-79885333D01*
X120895904Y-80599619D02*
X120324476Y-80599619D01*
X120610190Y-80599619D02*
X120610190Y-79599619D01*
X120610190Y-79599619D02*
X120514952Y-79742476D01*
X120514952Y-79742476D02*
X120419714Y-79837714D01*
X120419714Y-79837714D02*
X120324476Y-79885333D01*
%TO.C,R15*%
X91814053Y-88668524D02*
X91480720Y-88192333D01*
X91242625Y-88668524D02*
X91242625Y-87668524D01*
X91242625Y-87668524D02*
X91623577Y-87668524D01*
X91623577Y-87668524D02*
X91718815Y-87716143D01*
X91718815Y-87716143D02*
X91766434Y-87763762D01*
X91766434Y-87763762D02*
X91814053Y-87859000D01*
X91814053Y-87859000D02*
X91814053Y-88001857D01*
X91814053Y-88001857D02*
X91766434Y-88097095D01*
X91766434Y-88097095D02*
X91718815Y-88144714D01*
X91718815Y-88144714D02*
X91623577Y-88192333D01*
X91623577Y-88192333D02*
X91242625Y-88192333D01*
X92766434Y-88668524D02*
X92195006Y-88668524D01*
X92480720Y-88668524D02*
X92480720Y-87668524D01*
X92480720Y-87668524D02*
X92385482Y-87811381D01*
X92385482Y-87811381D02*
X92290244Y-87906619D01*
X92290244Y-87906619D02*
X92195006Y-87954238D01*
X93671196Y-87668524D02*
X93195006Y-87668524D01*
X93195006Y-87668524D02*
X93147387Y-88144714D01*
X93147387Y-88144714D02*
X93195006Y-88097095D01*
X93195006Y-88097095D02*
X93290244Y-88049476D01*
X93290244Y-88049476D02*
X93528339Y-88049476D01*
X93528339Y-88049476D02*
X93623577Y-88097095D01*
X93623577Y-88097095D02*
X93671196Y-88144714D01*
X93671196Y-88144714D02*
X93718815Y-88239952D01*
X93718815Y-88239952D02*
X93718815Y-88478047D01*
X93718815Y-88478047D02*
X93671196Y-88573285D01*
X93671196Y-88573285D02*
X93623577Y-88620905D01*
X93623577Y-88620905D02*
X93528339Y-88668524D01*
X93528339Y-88668524D02*
X93290244Y-88668524D01*
X93290244Y-88668524D02*
X93195006Y-88620905D01*
X93195006Y-88620905D02*
X93147387Y-88573285D01*
%TO.C,U5*%
X95758095Y-93950619D02*
X95758095Y-94760142D01*
X95758095Y-94760142D02*
X95805714Y-94855380D01*
X95805714Y-94855380D02*
X95853333Y-94903000D01*
X95853333Y-94903000D02*
X95948571Y-94950619D01*
X95948571Y-94950619D02*
X96139047Y-94950619D01*
X96139047Y-94950619D02*
X96234285Y-94903000D01*
X96234285Y-94903000D02*
X96281904Y-94855380D01*
X96281904Y-94855380D02*
X96329523Y-94760142D01*
X96329523Y-94760142D02*
X96329523Y-93950619D01*
X97281904Y-93950619D02*
X96805714Y-93950619D01*
X96805714Y-93950619D02*
X96758095Y-94426809D01*
X96758095Y-94426809D02*
X96805714Y-94379190D01*
X96805714Y-94379190D02*
X96900952Y-94331571D01*
X96900952Y-94331571D02*
X97139047Y-94331571D01*
X97139047Y-94331571D02*
X97234285Y-94379190D01*
X97234285Y-94379190D02*
X97281904Y-94426809D01*
X97281904Y-94426809D02*
X97329523Y-94522047D01*
X97329523Y-94522047D02*
X97329523Y-94760142D01*
X97329523Y-94760142D02*
X97281904Y-94855380D01*
X97281904Y-94855380D02*
X97234285Y-94903000D01*
X97234285Y-94903000D02*
X97139047Y-94950619D01*
X97139047Y-94950619D02*
X96900952Y-94950619D01*
X96900952Y-94950619D02*
X96805714Y-94903000D01*
X96805714Y-94903000D02*
X96758095Y-94855380D01*
%TO.C,R14*%
X91813142Y-93172619D02*
X91479809Y-92696428D01*
X91241714Y-93172619D02*
X91241714Y-92172619D01*
X91241714Y-92172619D02*
X91622666Y-92172619D01*
X91622666Y-92172619D02*
X91717904Y-92220238D01*
X91717904Y-92220238D02*
X91765523Y-92267857D01*
X91765523Y-92267857D02*
X91813142Y-92363095D01*
X91813142Y-92363095D02*
X91813142Y-92505952D01*
X91813142Y-92505952D02*
X91765523Y-92601190D01*
X91765523Y-92601190D02*
X91717904Y-92648809D01*
X91717904Y-92648809D02*
X91622666Y-92696428D01*
X91622666Y-92696428D02*
X91241714Y-92696428D01*
X92765523Y-93172619D02*
X92194095Y-93172619D01*
X92479809Y-93172619D02*
X92479809Y-92172619D01*
X92479809Y-92172619D02*
X92384571Y-92315476D01*
X92384571Y-92315476D02*
X92289333Y-92410714D01*
X92289333Y-92410714D02*
X92194095Y-92458333D01*
X93622666Y-92505952D02*
X93622666Y-93172619D01*
X93384571Y-92125000D02*
X93146476Y-92839285D01*
X93146476Y-92839285D02*
X93765523Y-92839285D01*
%TO.C,C5*%
X132421333Y-96633380D02*
X132373714Y-96681000D01*
X132373714Y-96681000D02*
X132230857Y-96728619D01*
X132230857Y-96728619D02*
X132135619Y-96728619D01*
X132135619Y-96728619D02*
X131992762Y-96681000D01*
X131992762Y-96681000D02*
X131897524Y-96585761D01*
X131897524Y-96585761D02*
X131849905Y-96490523D01*
X131849905Y-96490523D02*
X131802286Y-96300047D01*
X131802286Y-96300047D02*
X131802286Y-96157190D01*
X131802286Y-96157190D02*
X131849905Y-95966714D01*
X131849905Y-95966714D02*
X131897524Y-95871476D01*
X131897524Y-95871476D02*
X131992762Y-95776238D01*
X131992762Y-95776238D02*
X132135619Y-95728619D01*
X132135619Y-95728619D02*
X132230857Y-95728619D01*
X132230857Y-95728619D02*
X132373714Y-95776238D01*
X132373714Y-95776238D02*
X132421333Y-95823857D01*
X133326095Y-95728619D02*
X132849905Y-95728619D01*
X132849905Y-95728619D02*
X132802286Y-96204809D01*
X132802286Y-96204809D02*
X132849905Y-96157190D01*
X132849905Y-96157190D02*
X132945143Y-96109571D01*
X132945143Y-96109571D02*
X133183238Y-96109571D01*
X133183238Y-96109571D02*
X133278476Y-96157190D01*
X133278476Y-96157190D02*
X133326095Y-96204809D01*
X133326095Y-96204809D02*
X133373714Y-96300047D01*
X133373714Y-96300047D02*
X133373714Y-96538142D01*
X133373714Y-96538142D02*
X133326095Y-96633380D01*
X133326095Y-96633380D02*
X133278476Y-96681000D01*
X133278476Y-96681000D02*
X133183238Y-96728619D01*
X133183238Y-96728619D02*
X132945143Y-96728619D01*
X132945143Y-96728619D02*
X132849905Y-96681000D01*
X132849905Y-96681000D02*
X132802286Y-96633380D01*
%TO.C,C3*%
X121753333Y-106412380D02*
X121705714Y-106460000D01*
X121705714Y-106460000D02*
X121562857Y-106507619D01*
X121562857Y-106507619D02*
X121467619Y-106507619D01*
X121467619Y-106507619D02*
X121324762Y-106460000D01*
X121324762Y-106460000D02*
X121229524Y-106364761D01*
X121229524Y-106364761D02*
X121181905Y-106269523D01*
X121181905Y-106269523D02*
X121134286Y-106079047D01*
X121134286Y-106079047D02*
X121134286Y-105936190D01*
X121134286Y-105936190D02*
X121181905Y-105745714D01*
X121181905Y-105745714D02*
X121229524Y-105650476D01*
X121229524Y-105650476D02*
X121324762Y-105555238D01*
X121324762Y-105555238D02*
X121467619Y-105507619D01*
X121467619Y-105507619D02*
X121562857Y-105507619D01*
X121562857Y-105507619D02*
X121705714Y-105555238D01*
X121705714Y-105555238D02*
X121753333Y-105602857D01*
X122086667Y-105507619D02*
X122705714Y-105507619D01*
X122705714Y-105507619D02*
X122372381Y-105888571D01*
X122372381Y-105888571D02*
X122515238Y-105888571D01*
X122515238Y-105888571D02*
X122610476Y-105936190D01*
X122610476Y-105936190D02*
X122658095Y-105983809D01*
X122658095Y-105983809D02*
X122705714Y-106079047D01*
X122705714Y-106079047D02*
X122705714Y-106317142D01*
X122705714Y-106317142D02*
X122658095Y-106412380D01*
X122658095Y-106412380D02*
X122610476Y-106460000D01*
X122610476Y-106460000D02*
X122515238Y-106507619D01*
X122515238Y-106507619D02*
X122229524Y-106507619D01*
X122229524Y-106507619D02*
X122134286Y-106460000D01*
X122134286Y-106460000D02*
X122086667Y-106412380D01*
%TO.C,C14*%
X101338142Y-101954380D02*
X101290523Y-102002000D01*
X101290523Y-102002000D02*
X101147666Y-102049619D01*
X101147666Y-102049619D02*
X101052428Y-102049619D01*
X101052428Y-102049619D02*
X100909571Y-102002000D01*
X100909571Y-102002000D02*
X100814333Y-101906761D01*
X100814333Y-101906761D02*
X100766714Y-101811523D01*
X100766714Y-101811523D02*
X100719095Y-101621047D01*
X100719095Y-101621047D02*
X100719095Y-101478190D01*
X100719095Y-101478190D02*
X100766714Y-101287714D01*
X100766714Y-101287714D02*
X100814333Y-101192476D01*
X100814333Y-101192476D02*
X100909571Y-101097238D01*
X100909571Y-101097238D02*
X101052428Y-101049619D01*
X101052428Y-101049619D02*
X101147666Y-101049619D01*
X101147666Y-101049619D02*
X101290523Y-101097238D01*
X101290523Y-101097238D02*
X101338142Y-101144857D01*
X102290523Y-102049619D02*
X101719095Y-102049619D01*
X102004809Y-102049619D02*
X102004809Y-101049619D01*
X102004809Y-101049619D02*
X101909571Y-101192476D01*
X101909571Y-101192476D02*
X101814333Y-101287714D01*
X101814333Y-101287714D02*
X101719095Y-101335333D01*
X103147666Y-101382952D02*
X103147666Y-102049619D01*
X102909571Y-101002000D02*
X102671476Y-101716285D01*
X102671476Y-101716285D02*
X103290523Y-101716285D01*
%TO.C,R5*%
X114431261Y-70585109D02*
X114097928Y-70108918D01*
X113859833Y-70585109D02*
X113859833Y-69585109D01*
X113859833Y-69585109D02*
X114240785Y-69585109D01*
X114240785Y-69585109D02*
X114336023Y-69632728D01*
X114336023Y-69632728D02*
X114383642Y-69680347D01*
X114383642Y-69680347D02*
X114431261Y-69775585D01*
X114431261Y-69775585D02*
X114431261Y-69918442D01*
X114431261Y-69918442D02*
X114383642Y-70013680D01*
X114383642Y-70013680D02*
X114336023Y-70061299D01*
X114336023Y-70061299D02*
X114240785Y-70108918D01*
X114240785Y-70108918D02*
X113859833Y-70108918D01*
X115336023Y-69585109D02*
X114859833Y-69585109D01*
X114859833Y-69585109D02*
X114812214Y-70061299D01*
X114812214Y-70061299D02*
X114859833Y-70013680D01*
X114859833Y-70013680D02*
X114955071Y-69966061D01*
X114955071Y-69966061D02*
X115193166Y-69966061D01*
X115193166Y-69966061D02*
X115288404Y-70013680D01*
X115288404Y-70013680D02*
X115336023Y-70061299D01*
X115336023Y-70061299D02*
X115383642Y-70156537D01*
X115383642Y-70156537D02*
X115383642Y-70394632D01*
X115383642Y-70394632D02*
X115336023Y-70489870D01*
X115336023Y-70489870D02*
X115288404Y-70537490D01*
X115288404Y-70537490D02*
X115193166Y-70585109D01*
X115193166Y-70585109D02*
X114955071Y-70585109D01*
X114955071Y-70585109D02*
X114859833Y-70537490D01*
X114859833Y-70537490D02*
X114812214Y-70489870D01*
%TO.C,R16*%
X92829142Y-81996619D02*
X92495809Y-81520428D01*
X92257714Y-81996619D02*
X92257714Y-80996619D01*
X92257714Y-80996619D02*
X92638666Y-80996619D01*
X92638666Y-80996619D02*
X92733904Y-81044238D01*
X92733904Y-81044238D02*
X92781523Y-81091857D01*
X92781523Y-81091857D02*
X92829142Y-81187095D01*
X92829142Y-81187095D02*
X92829142Y-81329952D01*
X92829142Y-81329952D02*
X92781523Y-81425190D01*
X92781523Y-81425190D02*
X92733904Y-81472809D01*
X92733904Y-81472809D02*
X92638666Y-81520428D01*
X92638666Y-81520428D02*
X92257714Y-81520428D01*
X93781523Y-81996619D02*
X93210095Y-81996619D01*
X93495809Y-81996619D02*
X93495809Y-80996619D01*
X93495809Y-80996619D02*
X93400571Y-81139476D01*
X93400571Y-81139476D02*
X93305333Y-81234714D01*
X93305333Y-81234714D02*
X93210095Y-81282333D01*
X94638666Y-80996619D02*
X94448190Y-80996619D01*
X94448190Y-80996619D02*
X94352952Y-81044238D01*
X94352952Y-81044238D02*
X94305333Y-81091857D01*
X94305333Y-81091857D02*
X94210095Y-81234714D01*
X94210095Y-81234714D02*
X94162476Y-81425190D01*
X94162476Y-81425190D02*
X94162476Y-81806142D01*
X94162476Y-81806142D02*
X94210095Y-81901380D01*
X94210095Y-81901380D02*
X94257714Y-81949000D01*
X94257714Y-81949000D02*
X94352952Y-81996619D01*
X94352952Y-81996619D02*
X94543428Y-81996619D01*
X94543428Y-81996619D02*
X94638666Y-81949000D01*
X94638666Y-81949000D02*
X94686285Y-81901380D01*
X94686285Y-81901380D02*
X94733904Y-81806142D01*
X94733904Y-81806142D02*
X94733904Y-81568047D01*
X94733904Y-81568047D02*
X94686285Y-81472809D01*
X94686285Y-81472809D02*
X94638666Y-81425190D01*
X94638666Y-81425190D02*
X94543428Y-81377571D01*
X94543428Y-81377571D02*
X94352952Y-81377571D01*
X94352952Y-81377571D02*
X94257714Y-81425190D01*
X94257714Y-81425190D02*
X94210095Y-81472809D01*
X94210095Y-81472809D02*
X94162476Y-81568047D01*
%TO.C,U2*%
X105410095Y-77440619D02*
X105410095Y-78250142D01*
X105410095Y-78250142D02*
X105457714Y-78345380D01*
X105457714Y-78345380D02*
X105505333Y-78393000D01*
X105505333Y-78393000D02*
X105600571Y-78440619D01*
X105600571Y-78440619D02*
X105791047Y-78440619D01*
X105791047Y-78440619D02*
X105886285Y-78393000D01*
X105886285Y-78393000D02*
X105933904Y-78345380D01*
X105933904Y-78345380D02*
X105981523Y-78250142D01*
X105981523Y-78250142D02*
X105981523Y-77440619D01*
X106410095Y-77535857D02*
X106457714Y-77488238D01*
X106457714Y-77488238D02*
X106552952Y-77440619D01*
X106552952Y-77440619D02*
X106791047Y-77440619D01*
X106791047Y-77440619D02*
X106886285Y-77488238D01*
X106886285Y-77488238D02*
X106933904Y-77535857D01*
X106933904Y-77535857D02*
X106981523Y-77631095D01*
X106981523Y-77631095D02*
X106981523Y-77726333D01*
X106981523Y-77726333D02*
X106933904Y-77869190D01*
X106933904Y-77869190D02*
X106362476Y-78440619D01*
X106362476Y-78440619D02*
X106981523Y-78440619D01*
D13*
%TO.C,S1*%
X151051380Y-83585050D02*
X151232809Y-83645526D01*
X151232809Y-83645526D02*
X151535190Y-83645526D01*
X151535190Y-83645526D02*
X151656142Y-83585050D01*
X151656142Y-83585050D02*
X151716618Y-83524573D01*
X151716618Y-83524573D02*
X151777095Y-83403621D01*
X151777095Y-83403621D02*
X151777095Y-83282669D01*
X151777095Y-83282669D02*
X151716618Y-83161716D01*
X151716618Y-83161716D02*
X151656142Y-83101240D01*
X151656142Y-83101240D02*
X151535190Y-83040764D01*
X151535190Y-83040764D02*
X151293285Y-82980288D01*
X151293285Y-82980288D02*
X151172333Y-82919811D01*
X151172333Y-82919811D02*
X151111856Y-82859335D01*
X151111856Y-82859335D02*
X151051380Y-82738383D01*
X151051380Y-82738383D02*
X151051380Y-82617430D01*
X151051380Y-82617430D02*
X151111856Y-82496478D01*
X151111856Y-82496478D02*
X151172333Y-82436002D01*
X151172333Y-82436002D02*
X151293285Y-82375526D01*
X151293285Y-82375526D02*
X151595666Y-82375526D01*
X151595666Y-82375526D02*
X151777095Y-82436002D01*
X152986619Y-83645526D02*
X152260904Y-83645526D01*
X152623761Y-83645526D02*
X152623761Y-82375526D01*
X152623761Y-82375526D02*
X152502809Y-82556954D01*
X152502809Y-82556954D02*
X152381857Y-82677907D01*
X152381857Y-82677907D02*
X152260904Y-82738383D01*
D10*
%TO.C,R1*%
X141184333Y-88727619D02*
X140851000Y-88251428D01*
X140612905Y-88727619D02*
X140612905Y-87727619D01*
X140612905Y-87727619D02*
X140993857Y-87727619D01*
X140993857Y-87727619D02*
X141089095Y-87775238D01*
X141089095Y-87775238D02*
X141136714Y-87822857D01*
X141136714Y-87822857D02*
X141184333Y-87918095D01*
X141184333Y-87918095D02*
X141184333Y-88060952D01*
X141184333Y-88060952D02*
X141136714Y-88156190D01*
X141136714Y-88156190D02*
X141089095Y-88203809D01*
X141089095Y-88203809D02*
X140993857Y-88251428D01*
X140993857Y-88251428D02*
X140612905Y-88251428D01*
X142136714Y-88727619D02*
X141565286Y-88727619D01*
X141851000Y-88727619D02*
X141851000Y-87727619D01*
X141851000Y-87727619D02*
X141755762Y-87870476D01*
X141755762Y-87870476D02*
X141660524Y-87965714D01*
X141660524Y-87965714D02*
X141565286Y-88013333D01*
%TO.C,C13*%
X104634380Y-95892857D02*
X104682000Y-95940476D01*
X104682000Y-95940476D02*
X104729619Y-96083333D01*
X104729619Y-96083333D02*
X104729619Y-96178571D01*
X104729619Y-96178571D02*
X104682000Y-96321428D01*
X104682000Y-96321428D02*
X104586761Y-96416666D01*
X104586761Y-96416666D02*
X104491523Y-96464285D01*
X104491523Y-96464285D02*
X104301047Y-96511904D01*
X104301047Y-96511904D02*
X104158190Y-96511904D01*
X104158190Y-96511904D02*
X103967714Y-96464285D01*
X103967714Y-96464285D02*
X103872476Y-96416666D01*
X103872476Y-96416666D02*
X103777238Y-96321428D01*
X103777238Y-96321428D02*
X103729619Y-96178571D01*
X103729619Y-96178571D02*
X103729619Y-96083333D01*
X103729619Y-96083333D02*
X103777238Y-95940476D01*
X103777238Y-95940476D02*
X103824857Y-95892857D01*
X104729619Y-94940476D02*
X104729619Y-95511904D01*
X104729619Y-95226190D02*
X103729619Y-95226190D01*
X103729619Y-95226190D02*
X103872476Y-95321428D01*
X103872476Y-95321428D02*
X103967714Y-95416666D01*
X103967714Y-95416666D02*
X104015333Y-95511904D01*
X103729619Y-94607142D02*
X103729619Y-93988095D01*
X103729619Y-93988095D02*
X104110571Y-94321428D01*
X104110571Y-94321428D02*
X104110571Y-94178571D01*
X104110571Y-94178571D02*
X104158190Y-94083333D01*
X104158190Y-94083333D02*
X104205809Y-94035714D01*
X104205809Y-94035714D02*
X104301047Y-93988095D01*
X104301047Y-93988095D02*
X104539142Y-93988095D01*
X104539142Y-93988095D02*
X104634380Y-94035714D01*
X104634380Y-94035714D02*
X104682000Y-94083333D01*
X104682000Y-94083333D02*
X104729619Y-94178571D01*
X104729619Y-94178571D02*
X104729619Y-94464285D01*
X104729619Y-94464285D02*
X104682000Y-94559523D01*
X104682000Y-94559523D02*
X104634380Y-94607142D01*
%TO.C,R12*%
X111498142Y-70058619D02*
X111164809Y-69582428D01*
X110926714Y-70058619D02*
X110926714Y-69058619D01*
X110926714Y-69058619D02*
X111307666Y-69058619D01*
X111307666Y-69058619D02*
X111402904Y-69106238D01*
X111402904Y-69106238D02*
X111450523Y-69153857D01*
X111450523Y-69153857D02*
X111498142Y-69249095D01*
X111498142Y-69249095D02*
X111498142Y-69391952D01*
X111498142Y-69391952D02*
X111450523Y-69487190D01*
X111450523Y-69487190D02*
X111402904Y-69534809D01*
X111402904Y-69534809D02*
X111307666Y-69582428D01*
X111307666Y-69582428D02*
X110926714Y-69582428D01*
X112450523Y-70058619D02*
X111879095Y-70058619D01*
X112164809Y-70058619D02*
X112164809Y-69058619D01*
X112164809Y-69058619D02*
X112069571Y-69201476D01*
X112069571Y-69201476D02*
X111974333Y-69296714D01*
X111974333Y-69296714D02*
X111879095Y-69344333D01*
X112831476Y-69153857D02*
X112879095Y-69106238D01*
X112879095Y-69106238D02*
X112974333Y-69058619D01*
X112974333Y-69058619D02*
X113212428Y-69058619D01*
X113212428Y-69058619D02*
X113307666Y-69106238D01*
X113307666Y-69106238D02*
X113355285Y-69153857D01*
X113355285Y-69153857D02*
X113402904Y-69249095D01*
X113402904Y-69249095D02*
X113402904Y-69344333D01*
X113402904Y-69344333D02*
X113355285Y-69487190D01*
X113355285Y-69487190D02*
X112783857Y-70058619D01*
X112783857Y-70058619D02*
X113402904Y-70058619D01*
%TO.C,F1*%
X94662666Y-84012809D02*
X94329333Y-84012809D01*
X94329333Y-84536619D02*
X94329333Y-83536619D01*
X94329333Y-83536619D02*
X94805523Y-83536619D01*
X95710285Y-84536619D02*
X95138857Y-84536619D01*
X95424571Y-84536619D02*
X95424571Y-83536619D01*
X95424571Y-83536619D02*
X95329333Y-83679476D01*
X95329333Y-83679476D02*
X95234095Y-83774714D01*
X95234095Y-83774714D02*
X95138857Y-83822333D01*
%TO.C,C4*%
X128611333Y-81139380D02*
X128563714Y-81187000D01*
X128563714Y-81187000D02*
X128420857Y-81234619D01*
X128420857Y-81234619D02*
X128325619Y-81234619D01*
X128325619Y-81234619D02*
X128182762Y-81187000D01*
X128182762Y-81187000D02*
X128087524Y-81091761D01*
X128087524Y-81091761D02*
X128039905Y-80996523D01*
X128039905Y-80996523D02*
X127992286Y-80806047D01*
X127992286Y-80806047D02*
X127992286Y-80663190D01*
X127992286Y-80663190D02*
X128039905Y-80472714D01*
X128039905Y-80472714D02*
X128087524Y-80377476D01*
X128087524Y-80377476D02*
X128182762Y-80282238D01*
X128182762Y-80282238D02*
X128325619Y-80234619D01*
X128325619Y-80234619D02*
X128420857Y-80234619D01*
X128420857Y-80234619D02*
X128563714Y-80282238D01*
X128563714Y-80282238D02*
X128611333Y-80329857D01*
X129468476Y-80567952D02*
X129468476Y-81234619D01*
X129230381Y-80187000D02*
X128992286Y-80901285D01*
X128992286Y-80901285D02*
X129611333Y-80901285D01*
%TO.C,R3*%
X130897333Y-76789619D02*
X130564000Y-76313428D01*
X130325905Y-76789619D02*
X130325905Y-75789619D01*
X130325905Y-75789619D02*
X130706857Y-75789619D01*
X130706857Y-75789619D02*
X130802095Y-75837238D01*
X130802095Y-75837238D02*
X130849714Y-75884857D01*
X130849714Y-75884857D02*
X130897333Y-75980095D01*
X130897333Y-75980095D02*
X130897333Y-76122952D01*
X130897333Y-76122952D02*
X130849714Y-76218190D01*
X130849714Y-76218190D02*
X130802095Y-76265809D01*
X130802095Y-76265809D02*
X130706857Y-76313428D01*
X130706857Y-76313428D02*
X130325905Y-76313428D01*
X131230667Y-75789619D02*
X131849714Y-75789619D01*
X131849714Y-75789619D02*
X131516381Y-76170571D01*
X131516381Y-76170571D02*
X131659238Y-76170571D01*
X131659238Y-76170571D02*
X131754476Y-76218190D01*
X131754476Y-76218190D02*
X131802095Y-76265809D01*
X131802095Y-76265809D02*
X131849714Y-76361047D01*
X131849714Y-76361047D02*
X131849714Y-76599142D01*
X131849714Y-76599142D02*
X131802095Y-76694380D01*
X131802095Y-76694380D02*
X131754476Y-76742000D01*
X131754476Y-76742000D02*
X131659238Y-76789619D01*
X131659238Y-76789619D02*
X131373524Y-76789619D01*
X131373524Y-76789619D02*
X131278286Y-76742000D01*
X131278286Y-76742000D02*
X131230667Y-76694380D01*
%TO.C,C9*%
X113117333Y-89775380D02*
X113069714Y-89823000D01*
X113069714Y-89823000D02*
X112926857Y-89870619D01*
X112926857Y-89870619D02*
X112831619Y-89870619D01*
X112831619Y-89870619D02*
X112688762Y-89823000D01*
X112688762Y-89823000D02*
X112593524Y-89727761D01*
X112593524Y-89727761D02*
X112545905Y-89632523D01*
X112545905Y-89632523D02*
X112498286Y-89442047D01*
X112498286Y-89442047D02*
X112498286Y-89299190D01*
X112498286Y-89299190D02*
X112545905Y-89108714D01*
X112545905Y-89108714D02*
X112593524Y-89013476D01*
X112593524Y-89013476D02*
X112688762Y-88918238D01*
X112688762Y-88918238D02*
X112831619Y-88870619D01*
X112831619Y-88870619D02*
X112926857Y-88870619D01*
X112926857Y-88870619D02*
X113069714Y-88918238D01*
X113069714Y-88918238D02*
X113117333Y-88965857D01*
X113593524Y-89870619D02*
X113784000Y-89870619D01*
X113784000Y-89870619D02*
X113879238Y-89823000D01*
X113879238Y-89823000D02*
X113926857Y-89775380D01*
X113926857Y-89775380D02*
X114022095Y-89632523D01*
X114022095Y-89632523D02*
X114069714Y-89442047D01*
X114069714Y-89442047D02*
X114069714Y-89061095D01*
X114069714Y-89061095D02*
X114022095Y-88965857D01*
X114022095Y-88965857D02*
X113974476Y-88918238D01*
X113974476Y-88918238D02*
X113879238Y-88870619D01*
X113879238Y-88870619D02*
X113688762Y-88870619D01*
X113688762Y-88870619D02*
X113593524Y-88918238D01*
X113593524Y-88918238D02*
X113545905Y-88965857D01*
X113545905Y-88965857D02*
X113498286Y-89061095D01*
X113498286Y-89061095D02*
X113498286Y-89299190D01*
X113498286Y-89299190D02*
X113545905Y-89394428D01*
X113545905Y-89394428D02*
X113593524Y-89442047D01*
X113593524Y-89442047D02*
X113688762Y-89489666D01*
X113688762Y-89489666D02*
X113879238Y-89489666D01*
X113879238Y-89489666D02*
X113974476Y-89442047D01*
X113974476Y-89442047D02*
X114022095Y-89394428D01*
X114022095Y-89394428D02*
X114069714Y-89299190D01*
%TO.C,J3*%
X96948666Y-105253619D02*
X96948666Y-105967904D01*
X96948666Y-105967904D02*
X96901047Y-106110761D01*
X96901047Y-106110761D02*
X96805809Y-106206000D01*
X96805809Y-106206000D02*
X96662952Y-106253619D01*
X96662952Y-106253619D02*
X96567714Y-106253619D01*
X97329619Y-105253619D02*
X97948666Y-105253619D01*
X97948666Y-105253619D02*
X97615333Y-105634571D01*
X97615333Y-105634571D02*
X97758190Y-105634571D01*
X97758190Y-105634571D02*
X97853428Y-105682190D01*
X97853428Y-105682190D02*
X97901047Y-105729809D01*
X97901047Y-105729809D02*
X97948666Y-105825047D01*
X97948666Y-105825047D02*
X97948666Y-106063142D01*
X97948666Y-106063142D02*
X97901047Y-106158380D01*
X97901047Y-106158380D02*
X97853428Y-106206000D01*
X97853428Y-106206000D02*
X97758190Y-106253619D01*
X97758190Y-106253619D02*
X97472476Y-106253619D01*
X97472476Y-106253619D02*
X97377238Y-106206000D01*
X97377238Y-106206000D02*
X97329619Y-106158380D01*
%TO.C,R10*%
X96385142Y-70185619D02*
X96051809Y-69709428D01*
X95813714Y-70185619D02*
X95813714Y-69185619D01*
X95813714Y-69185619D02*
X96194666Y-69185619D01*
X96194666Y-69185619D02*
X96289904Y-69233238D01*
X96289904Y-69233238D02*
X96337523Y-69280857D01*
X96337523Y-69280857D02*
X96385142Y-69376095D01*
X96385142Y-69376095D02*
X96385142Y-69518952D01*
X96385142Y-69518952D02*
X96337523Y-69614190D01*
X96337523Y-69614190D02*
X96289904Y-69661809D01*
X96289904Y-69661809D02*
X96194666Y-69709428D01*
X96194666Y-69709428D02*
X95813714Y-69709428D01*
X97337523Y-70185619D02*
X96766095Y-70185619D01*
X97051809Y-70185619D02*
X97051809Y-69185619D01*
X97051809Y-69185619D02*
X96956571Y-69328476D01*
X96956571Y-69328476D02*
X96861333Y-69423714D01*
X96861333Y-69423714D02*
X96766095Y-69471333D01*
X97956571Y-69185619D02*
X98051809Y-69185619D01*
X98051809Y-69185619D02*
X98147047Y-69233238D01*
X98147047Y-69233238D02*
X98194666Y-69280857D01*
X98194666Y-69280857D02*
X98242285Y-69376095D01*
X98242285Y-69376095D02*
X98289904Y-69566571D01*
X98289904Y-69566571D02*
X98289904Y-69804666D01*
X98289904Y-69804666D02*
X98242285Y-69995142D01*
X98242285Y-69995142D02*
X98194666Y-70090380D01*
X98194666Y-70090380D02*
X98147047Y-70138000D01*
X98147047Y-70138000D02*
X98051809Y-70185619D01*
X98051809Y-70185619D02*
X97956571Y-70185619D01*
X97956571Y-70185619D02*
X97861333Y-70138000D01*
X97861333Y-70138000D02*
X97813714Y-70090380D01*
X97813714Y-70090380D02*
X97766095Y-69995142D01*
X97766095Y-69995142D02*
X97718476Y-69804666D01*
X97718476Y-69804666D02*
X97718476Y-69566571D01*
X97718476Y-69566571D02*
X97766095Y-69376095D01*
X97766095Y-69376095D02*
X97813714Y-69280857D01*
X97813714Y-69280857D02*
X97861333Y-69233238D01*
X97861333Y-69233238D02*
X97956571Y-69185619D01*
%TO.C,R2*%
X141184333Y-103610119D02*
X140851000Y-103133928D01*
X140612905Y-103610119D02*
X140612905Y-102610119D01*
X140612905Y-102610119D02*
X140993857Y-102610119D01*
X140993857Y-102610119D02*
X141089095Y-102657738D01*
X141089095Y-102657738D02*
X141136714Y-102705357D01*
X141136714Y-102705357D02*
X141184333Y-102800595D01*
X141184333Y-102800595D02*
X141184333Y-102943452D01*
X141184333Y-102943452D02*
X141136714Y-103038690D01*
X141136714Y-103038690D02*
X141089095Y-103086309D01*
X141089095Y-103086309D02*
X140993857Y-103133928D01*
X140993857Y-103133928D02*
X140612905Y-103133928D01*
X141565286Y-102705357D02*
X141612905Y-102657738D01*
X141612905Y-102657738D02*
X141708143Y-102610119D01*
X141708143Y-102610119D02*
X141946238Y-102610119D01*
X141946238Y-102610119D02*
X142041476Y-102657738D01*
X142041476Y-102657738D02*
X142089095Y-102705357D01*
X142089095Y-102705357D02*
X142136714Y-102800595D01*
X142136714Y-102800595D02*
X142136714Y-102895833D01*
X142136714Y-102895833D02*
X142089095Y-103038690D01*
X142089095Y-103038690D02*
X141517667Y-103610119D01*
X141517667Y-103610119D02*
X142136714Y-103610119D01*
%TO.C,C8*%
X117207380Y-81446666D02*
X117255000Y-81494285D01*
X117255000Y-81494285D02*
X117302619Y-81637142D01*
X117302619Y-81637142D02*
X117302619Y-81732380D01*
X117302619Y-81732380D02*
X117255000Y-81875237D01*
X117255000Y-81875237D02*
X117159761Y-81970475D01*
X117159761Y-81970475D02*
X117064523Y-82018094D01*
X117064523Y-82018094D02*
X116874047Y-82065713D01*
X116874047Y-82065713D02*
X116731190Y-82065713D01*
X116731190Y-82065713D02*
X116540714Y-82018094D01*
X116540714Y-82018094D02*
X116445476Y-81970475D01*
X116445476Y-81970475D02*
X116350238Y-81875237D01*
X116350238Y-81875237D02*
X116302619Y-81732380D01*
X116302619Y-81732380D02*
X116302619Y-81637142D01*
X116302619Y-81637142D02*
X116350238Y-81494285D01*
X116350238Y-81494285D02*
X116397857Y-81446666D01*
X116731190Y-80875237D02*
X116683571Y-80970475D01*
X116683571Y-80970475D02*
X116635952Y-81018094D01*
X116635952Y-81018094D02*
X116540714Y-81065713D01*
X116540714Y-81065713D02*
X116493095Y-81065713D01*
X116493095Y-81065713D02*
X116397857Y-81018094D01*
X116397857Y-81018094D02*
X116350238Y-80970475D01*
X116350238Y-80970475D02*
X116302619Y-80875237D01*
X116302619Y-80875237D02*
X116302619Y-80684761D01*
X116302619Y-80684761D02*
X116350238Y-80589523D01*
X116350238Y-80589523D02*
X116397857Y-80541904D01*
X116397857Y-80541904D02*
X116493095Y-80494285D01*
X116493095Y-80494285D02*
X116540714Y-80494285D01*
X116540714Y-80494285D02*
X116635952Y-80541904D01*
X116635952Y-80541904D02*
X116683571Y-80589523D01*
X116683571Y-80589523D02*
X116731190Y-80684761D01*
X116731190Y-80684761D02*
X116731190Y-80875237D01*
X116731190Y-80875237D02*
X116778809Y-80970475D01*
X116778809Y-80970475D02*
X116826428Y-81018094D01*
X116826428Y-81018094D02*
X116921666Y-81065713D01*
X116921666Y-81065713D02*
X117112142Y-81065713D01*
X117112142Y-81065713D02*
X117207380Y-81018094D01*
X117207380Y-81018094D02*
X117255000Y-80970475D01*
X117255000Y-80970475D02*
X117302619Y-80875237D01*
X117302619Y-80875237D02*
X117302619Y-80684761D01*
X117302619Y-80684761D02*
X117255000Y-80589523D01*
X117255000Y-80589523D02*
X117207380Y-80541904D01*
X117207380Y-80541904D02*
X117112142Y-80494285D01*
X117112142Y-80494285D02*
X116921666Y-80494285D01*
X116921666Y-80494285D02*
X116826428Y-80541904D01*
X116826428Y-80541904D02*
X116778809Y-80589523D01*
X116778809Y-80589523D02*
X116731190Y-80684761D01*
D13*
%TO.C,S2*%
X151051380Y-98063050D02*
X151232809Y-98123526D01*
X151232809Y-98123526D02*
X151535190Y-98123526D01*
X151535190Y-98123526D02*
X151656142Y-98063050D01*
X151656142Y-98063050D02*
X151716618Y-98002573D01*
X151716618Y-98002573D02*
X151777095Y-97881621D01*
X151777095Y-97881621D02*
X151777095Y-97760669D01*
X151777095Y-97760669D02*
X151716618Y-97639716D01*
X151716618Y-97639716D02*
X151656142Y-97579240D01*
X151656142Y-97579240D02*
X151535190Y-97518764D01*
X151535190Y-97518764D02*
X151293285Y-97458288D01*
X151293285Y-97458288D02*
X151172333Y-97397811D01*
X151172333Y-97397811D02*
X151111856Y-97337335D01*
X151111856Y-97337335D02*
X151051380Y-97216383D01*
X151051380Y-97216383D02*
X151051380Y-97095430D01*
X151051380Y-97095430D02*
X151111856Y-96974478D01*
X151111856Y-96974478D02*
X151172333Y-96914002D01*
X151172333Y-96914002D02*
X151293285Y-96853526D01*
X151293285Y-96853526D02*
X151595666Y-96853526D01*
X151595666Y-96853526D02*
X151777095Y-96914002D01*
X152260904Y-96974478D02*
X152321380Y-96914002D01*
X152321380Y-96914002D02*
X152442333Y-96853526D01*
X152442333Y-96853526D02*
X152744714Y-96853526D01*
X152744714Y-96853526D02*
X152865666Y-96914002D01*
X152865666Y-96914002D02*
X152926142Y-96974478D01*
X152926142Y-96974478D02*
X152986619Y-97095430D01*
X152986619Y-97095430D02*
X152986619Y-97216383D01*
X152986619Y-97216383D02*
X152926142Y-97397811D01*
X152926142Y-97397811D02*
X152200428Y-98123526D01*
X152200428Y-98123526D02*
X152986619Y-98123526D01*
D10*
%TO.C,R4*%
X143772833Y-77424619D02*
X143439500Y-76948428D01*
X143201405Y-77424619D02*
X143201405Y-76424619D01*
X143201405Y-76424619D02*
X143582357Y-76424619D01*
X143582357Y-76424619D02*
X143677595Y-76472238D01*
X143677595Y-76472238D02*
X143725214Y-76519857D01*
X143725214Y-76519857D02*
X143772833Y-76615095D01*
X143772833Y-76615095D02*
X143772833Y-76757952D01*
X143772833Y-76757952D02*
X143725214Y-76853190D01*
X143725214Y-76853190D02*
X143677595Y-76900809D01*
X143677595Y-76900809D02*
X143582357Y-76948428D01*
X143582357Y-76948428D02*
X143201405Y-76948428D01*
X144629976Y-76757952D02*
X144629976Y-77424619D01*
X144391881Y-76377000D02*
X144153786Y-77091285D01*
X144153786Y-77091285D02*
X144772833Y-77091285D01*
%TO.C,R11*%
X108725754Y-70566619D02*
X108392421Y-70090428D01*
X108154326Y-70566619D02*
X108154326Y-69566619D01*
X108154326Y-69566619D02*
X108535278Y-69566619D01*
X108535278Y-69566619D02*
X108630516Y-69614238D01*
X108630516Y-69614238D02*
X108678135Y-69661857D01*
X108678135Y-69661857D02*
X108725754Y-69757095D01*
X108725754Y-69757095D02*
X108725754Y-69899952D01*
X108725754Y-69899952D02*
X108678135Y-69995190D01*
X108678135Y-69995190D02*
X108630516Y-70042809D01*
X108630516Y-70042809D02*
X108535278Y-70090428D01*
X108535278Y-70090428D02*
X108154326Y-70090428D01*
X109678135Y-70566619D02*
X109106707Y-70566619D01*
X109392421Y-70566619D02*
X109392421Y-69566619D01*
X109392421Y-69566619D02*
X109297183Y-69709476D01*
X109297183Y-69709476D02*
X109201945Y-69804714D01*
X109201945Y-69804714D02*
X109106707Y-69852333D01*
X110630516Y-70566619D02*
X110059088Y-70566619D01*
X110344802Y-70566619D02*
X110344802Y-69566619D01*
X110344802Y-69566619D02*
X110249564Y-69709476D01*
X110249564Y-69709476D02*
X110154326Y-69804714D01*
X110154326Y-69804714D02*
X110059088Y-69852333D01*
%TO.C,D2*%
X143201405Y-75265619D02*
X143201405Y-74265619D01*
X143201405Y-74265619D02*
X143439500Y-74265619D01*
X143439500Y-74265619D02*
X143582357Y-74313238D01*
X143582357Y-74313238D02*
X143677595Y-74408476D01*
X143677595Y-74408476D02*
X143725214Y-74503714D01*
X143725214Y-74503714D02*
X143772833Y-74694190D01*
X143772833Y-74694190D02*
X143772833Y-74837047D01*
X143772833Y-74837047D02*
X143725214Y-75027523D01*
X143725214Y-75027523D02*
X143677595Y-75122761D01*
X143677595Y-75122761D02*
X143582357Y-75218000D01*
X143582357Y-75218000D02*
X143439500Y-75265619D01*
X143439500Y-75265619D02*
X143201405Y-75265619D01*
X144153786Y-74360857D02*
X144201405Y-74313238D01*
X144201405Y-74313238D02*
X144296643Y-74265619D01*
X144296643Y-74265619D02*
X144534738Y-74265619D01*
X144534738Y-74265619D02*
X144629976Y-74313238D01*
X144629976Y-74313238D02*
X144677595Y-74360857D01*
X144677595Y-74360857D02*
X144725214Y-74456095D01*
X144725214Y-74456095D02*
X144725214Y-74551333D01*
X144725214Y-74551333D02*
X144677595Y-74694190D01*
X144677595Y-74694190D02*
X144106167Y-75265619D01*
X144106167Y-75265619D02*
X144725214Y-75265619D01*
D14*
%TO.C,C2*%
X127764000Y-103491420D02*
X127764000Y-103772580D01*
X126744000Y-103491420D02*
X126744000Y-103772580D01*
%TO.C,C12*%
X121664000Y-81674580D02*
X121664000Y-81393420D01*
X122684000Y-81674580D02*
X122684000Y-81393420D01*
%TO.C,Y1*%
X122937000Y-105759000D02*
X126237000Y-105759000D01*
X126237000Y-105759000D02*
X126237000Y-101759000D01*
%TO.C,J1*%
X114472000Y-95972000D02*
X106732000Y-95972000D01*
X114472000Y-95972000D02*
X114472000Y-98572000D01*
X106732000Y-95972000D02*
X106732000Y-101172000D01*
X114472000Y-98572000D02*
X111872000Y-98572000D01*
X111872000Y-98572000D02*
X111872000Y-101172000D01*
X114472000Y-99842000D02*
X114472000Y-101172000D01*
X114472000Y-101172000D02*
X113142000Y-101172000D01*
X111872000Y-101172000D02*
X106732000Y-101172000D01*
%TO.C,C10*%
X116459580Y-91442000D02*
X116178420Y-91442000D01*
X116459580Y-90422000D02*
X116178420Y-90422000D01*
%TO.C,R8*%
X101373000Y-72871064D02*
X101373000Y-72416936D01*
X102843000Y-72871064D02*
X102843000Y-72416936D01*
%TO.C,R17*%
X84469500Y-104029742D02*
X84469500Y-104504258D01*
X83424500Y-104029742D02*
X83424500Y-104504258D01*
D15*
%TO.C,S3*%
X116240000Y-108116000D02*
X116240000Y-106116000D01*
X115940000Y-105316000D02*
X115340000Y-104716000D01*
X115340000Y-109516000D02*
X115940000Y-108916000D01*
X115340000Y-104716000D02*
X112340000Y-104716000D01*
X112340000Y-109516000D02*
X115340000Y-109516000D01*
X112340000Y-109516000D02*
X111740000Y-108916000D01*
X112340000Y-104716000D02*
X111740000Y-105316000D01*
X111440000Y-108116000D02*
X111440000Y-106116000D01*
D16*
X118340000Y-109016000D02*
G75*
G03*
X118340000Y-109016000I-100000J0D01*
G01*
D14*
%TO.C,C6*%
X116472580Y-87124000D02*
X116191420Y-87124000D01*
X116472580Y-86104000D02*
X116191420Y-86104000D01*
%TO.C,J2*%
X84422000Y-86890000D02*
X87652000Y-86890000D01*
X80252000Y-86890000D02*
X82202000Y-86890000D01*
X89572000Y-87610000D02*
X89572000Y-88690000D01*
X89572000Y-88690000D02*
X90002000Y-88690000D01*
X89572000Y-92910000D02*
X89572000Y-93990000D01*
X84422000Y-94710000D02*
X87652000Y-94710000D01*
X80252000Y-94710000D02*
X80252000Y-86890000D01*
X80252000Y-94710000D02*
X82202000Y-94710000D01*
%TO.C,C7*%
X122938000Y-98157420D02*
X122938000Y-98438580D01*
X121918000Y-98157420D02*
X121918000Y-98438580D01*
%TO.C,U1*%
X100346000Y-68674000D02*
X102346000Y-68674000D01*
X82426000Y-68294000D02*
X132966000Y-68294000D01*
X82426000Y-68294000D02*
X82426000Y-49054000D01*
X132966000Y-68294000D02*
X132966000Y-49054000D01*
X132966000Y-49054000D02*
X82426000Y-49054000D01*
%TO.C,R13*%
X117839258Y-104027500D02*
X117364742Y-104027500D01*
X117839258Y-102982500D02*
X117364742Y-102982500D01*
%TO.C,U4*%
X97165615Y-88811688D02*
X95365615Y-88811688D01*
X97165615Y-88811688D02*
X97965615Y-88811688D01*
X97165615Y-91931688D02*
X96365615Y-91931688D01*
X97165615Y-91931688D02*
X97965615Y-91931688D01*
%TO.C,C15*%
X96010000Y-97917580D02*
X96010000Y-97636420D01*
X97030000Y-97917580D02*
X97030000Y-97636420D01*
%TO.C,R7*%
X106199000Y-72871064D02*
X106199000Y-72416936D01*
X107669000Y-72871064D02*
X107669000Y-72416936D01*
%TO.C,LS1*%
X158500000Y-72771000D02*
G75*
G03*
X158500000Y-72771000I-6100000J0D01*
G01*
%TO.C,C1*%
X111619420Y-76452000D02*
X111900580Y-76452000D01*
X111619420Y-77472000D02*
X111900580Y-77472000D01*
%TO.C,R6*%
X103786000Y-72871064D02*
X103786000Y-72416936D01*
X105256000Y-72871064D02*
X105256000Y-72416936D01*
%TO.C,R9*%
X98833000Y-72871064D02*
X98833000Y-72416936D01*
X100303000Y-72871064D02*
X100303000Y-72416936D01*
%TO.C,D1*%
X132276500Y-73970000D02*
X132276500Y-75890000D01*
X132276500Y-75890000D02*
X134961500Y-75890000D01*
X134961500Y-73970000D02*
X132276500Y-73970000D01*
%TO.C,D3*%
X98205000Y-80462000D02*
X98205000Y-78542000D01*
X98205000Y-78542000D02*
X95520000Y-78542000D01*
X95520000Y-80462000D02*
X98205000Y-80462000D01*
D10*
%TO.C,U3*%
X119539000Y-84741000D02*
X119539000Y-85316000D01*
X119539000Y-84741000D02*
X120214000Y-84741000D01*
X119539000Y-85316000D02*
X118264000Y-85316000D01*
X119539000Y-95091000D02*
X119539000Y-94416000D01*
X119539000Y-95091000D02*
X120214000Y-95091000D01*
X129889000Y-84741000D02*
X129214000Y-84741000D01*
X129889000Y-84741000D02*
X129889000Y-85416000D01*
X129889000Y-95091000D02*
X129214000Y-95091000D01*
X129889000Y-95091000D02*
X129889000Y-94416000D01*
D14*
%TO.C,C11*%
X119774580Y-82806000D02*
X119493420Y-82806000D01*
X119774580Y-81786000D02*
X119493420Y-81786000D01*
%TO.C,R15*%
X92219653Y-89113405D02*
X92694169Y-89113405D01*
X92219653Y-90158405D02*
X92694169Y-90158405D01*
%TO.C,U5*%
X100874000Y-97282000D02*
X100874000Y-95482000D01*
X100874000Y-97282000D02*
X100874000Y-98082000D01*
X97754000Y-97282000D02*
X97754000Y-96482000D01*
X97754000Y-97282000D02*
X97754000Y-98082000D01*
%TO.C,R14*%
X92218742Y-90663500D02*
X92693258Y-90663500D01*
X92218742Y-91708500D02*
X92693258Y-91708500D01*
%TO.C,C5*%
X132831000Y-93852420D02*
X132831000Y-94133580D01*
X131811000Y-93852420D02*
X131811000Y-94133580D01*
%TO.C,C3*%
X122430000Y-103618420D02*
X122430000Y-103899580D01*
X121410000Y-103618420D02*
X121410000Y-103899580D01*
%TO.C,C14*%
X102618000Y-99033420D02*
X102618000Y-99314580D01*
X101598000Y-99033420D02*
X101598000Y-99314580D01*
%TO.C,R5*%
X114073000Y-72871064D02*
X114073000Y-72416936D01*
X115543000Y-72871064D02*
X115543000Y-72416936D01*
%TO.C,R16*%
X96757258Y-82310500D02*
X96282742Y-82310500D01*
X96757258Y-81265500D02*
X96282742Y-81265500D01*
%TO.C,U2*%
X106172000Y-76767000D02*
X102572000Y-76767000D01*
X106172000Y-76767000D02*
X108372000Y-76767000D01*
X106172000Y-82237000D02*
X103972000Y-82237000D01*
X106172000Y-82237000D02*
X108372000Y-82237000D01*
D17*
%TO.C,S1*%
X160619000Y-89849000D02*
X160619000Y-89849000D01*
X160619000Y-89749000D02*
X160619000Y-89749000D01*
D16*
X158019000Y-93249000D02*
X146019000Y-93249000D01*
X158019000Y-90849000D02*
X158019000Y-93249000D01*
X158019000Y-90849000D02*
X158019000Y-90849000D01*
X158019000Y-88649000D02*
X158019000Y-85849000D01*
X158019000Y-83649000D02*
X158019000Y-81249000D01*
X158019000Y-81249000D02*
X146019000Y-81249000D01*
X146019000Y-93249000D02*
X146019000Y-90849000D01*
X146019000Y-88649000D02*
X146019000Y-85849000D01*
X146019000Y-81249000D02*
X146019000Y-83649000D01*
D17*
X160619000Y-89749000D02*
G75*
G03*
X160619000Y-89849000I0J-50000D01*
G01*
X160619000Y-89849000D02*
G75*
G03*
X160619000Y-89749000I0J50000D01*
G01*
D14*
%TO.C,R1*%
X142086000Y-85497936D02*
X142086000Y-85952064D01*
X140616000Y-85497936D02*
X140616000Y-85952064D01*
%TO.C,C13*%
X101598000Y-95403580D02*
X101598000Y-95122420D01*
X102618000Y-95403580D02*
X102618000Y-95122420D01*
%TO.C,R12*%
X111406000Y-72871064D02*
X111406000Y-72416936D01*
X112876000Y-72871064D02*
X112876000Y-72416936D01*
%TO.C,F1*%
X93609748Y-83126000D02*
X96382252Y-83126000D01*
X93609748Y-86546000D02*
X96382252Y-86546000D01*
%TO.C,C4*%
X129412420Y-81786000D02*
X129693580Y-81786000D01*
X129412420Y-82806000D02*
X129693580Y-82806000D01*
%TO.C,R3*%
X133734436Y-76354000D02*
X134188564Y-76354000D01*
X133734436Y-77824000D02*
X134188564Y-77824000D01*
%TO.C,C9*%
X116459580Y-89918000D02*
X116178420Y-89918000D01*
X116459580Y-88898000D02*
X116178420Y-88898000D01*
%TO.C,J3*%
X95681000Y-101941000D02*
X85401000Y-101941000D01*
X95681000Y-101941000D02*
X95681000Y-104541000D01*
X85401000Y-101941000D02*
X85401000Y-107141000D01*
X95681000Y-104541000D02*
X93081000Y-104541000D01*
X93081000Y-104541000D02*
X93081000Y-107141000D01*
X95681000Y-105811000D02*
X95681000Y-107141000D01*
X95681000Y-107141000D02*
X94351000Y-107141000D01*
X93081000Y-107141000D02*
X85401000Y-107141000D01*
%TO.C,R10*%
X96293000Y-72871064D02*
X96293000Y-72416936D01*
X97763000Y-72871064D02*
X97763000Y-72416936D01*
%TO.C,R2*%
X142086000Y-100229936D02*
X142086000Y-100684064D01*
X140616000Y-100229936D02*
X140616000Y-100684064D01*
%TO.C,C8*%
X116105000Y-84208252D02*
X116105000Y-83685748D01*
X117575000Y-84208252D02*
X117575000Y-83685748D01*
D17*
%TO.C,S2*%
X160619000Y-104581000D02*
X160619000Y-104581000D01*
X160619000Y-104481000D02*
X160619000Y-104481000D01*
D16*
X158019000Y-107981000D02*
X146019000Y-107981000D01*
X158019000Y-105581000D02*
X158019000Y-107981000D01*
X158019000Y-105581000D02*
X158019000Y-105581000D01*
X158019000Y-103381000D02*
X158019000Y-100581000D01*
X158019000Y-98381000D02*
X158019000Y-95981000D01*
X158019000Y-95981000D02*
X146019000Y-95981000D01*
X146019000Y-107981000D02*
X146019000Y-105581000D01*
X146019000Y-103381000D02*
X146019000Y-100581000D01*
X146019000Y-95981000D02*
X146019000Y-98381000D01*
D17*
X160619000Y-104481000D02*
G75*
G03*
X160619000Y-104581000I0J-50000D01*
G01*
X160619000Y-104581000D02*
G75*
G03*
X160619000Y-104481000I0J50000D01*
G01*
D14*
%TO.C,R4*%
X140791436Y-76354000D02*
X141245564Y-76354000D01*
X140791436Y-77824000D02*
X141245564Y-77824000D01*
%TO.C,R11*%
X108633612Y-72873715D02*
X108633612Y-72419587D01*
X110103612Y-72873715D02*
X110103612Y-72419587D01*
%TO.C,D2*%
X139333500Y-73843000D02*
X139333500Y-75763000D01*
X139333500Y-75763000D02*
X142018500Y-75763000D01*
X142018500Y-73843000D02*
X139333500Y-73843000D01*
%TD*%
M02*
