%TF.GenerationSoftware,KiCad,Pcbnew,7.0.1*%
%TF.CreationDate,2023-04-05T02:41:21-06:00*%
%TF.ProjectId,Phase_B_ATMEGA,50686173-655f-4425-9f41-544d4547412e,rev?*%
%TF.SameCoordinates,Original*%
%TF.FileFunction,Copper,L1,Top*%
%TF.FilePolarity,Positive*%
%FSLAX46Y46*%
G04 Gerber Fmt 4.6, Leading zero omitted, Abs format (unit mm)*
G04 Created by KiCad (PCBNEW 7.0.1) date 2023-04-05 02:41:21*
%MOMM*%
%LPD*%
G01*
G04 APERTURE LIST*
G04 Aperture macros list*
%AMRoundRect*
0 Rectangle with rounded corners*
0 $1 Rounding radius*
0 $2 $3 $4 $5 $6 $7 $8 $9 X,Y pos of 4 corners*
0 Add a 4 corners polygon primitive as box body*
4,1,4,$2,$3,$4,$5,$6,$7,$8,$9,$2,$3,0*
0 Add four circle primitives for the rounded corners*
1,1,$1+$1,$2,$3*
1,1,$1+$1,$4,$5*
1,1,$1+$1,$6,$7*
1,1,$1+$1,$8,$9*
0 Add four rect primitives between the rounded corners*
20,1,$1+$1,$2,$3,$4,$5,0*
20,1,$1+$1,$4,$5,$6,$7,0*
20,1,$1+$1,$6,$7,$8,$9,0*
20,1,$1+$1,$8,$9,$2,$3,0*%
G04 Aperture macros list end*
%TA.AperFunction,SMDPad,CuDef*%
%ADD10RoundRect,0.225000X-0.250000X0.225000X-0.250000X-0.225000X0.250000X-0.225000X0.250000X0.225000X0*%
%TD*%
%TA.AperFunction,SMDPad,CuDef*%
%ADD11RoundRect,0.225000X0.250000X-0.225000X0.250000X0.225000X-0.250000X0.225000X-0.250000X-0.225000X0*%
%TD*%
%TA.AperFunction,SMDPad,CuDef*%
%ADD12R,1.200000X1.400000*%
%TD*%
%TA.AperFunction,ComponentPad*%
%ADD13R,1.700000X1.700000*%
%TD*%
%TA.AperFunction,ComponentPad*%
%ADD14O,1.700000X1.700000*%
%TD*%
%TA.AperFunction,SMDPad,CuDef*%
%ADD15RoundRect,0.225000X0.225000X0.250000X-0.225000X0.250000X-0.225000X-0.250000X0.225000X-0.250000X0*%
%TD*%
%TA.AperFunction,SMDPad,CuDef*%
%ADD16RoundRect,0.250000X0.450000X-0.262500X0.450000X0.262500X-0.450000X0.262500X-0.450000X-0.262500X0*%
%TD*%
%TA.AperFunction,SMDPad,CuDef*%
%ADD17RoundRect,0.200000X-0.275000X0.200000X-0.275000X-0.200000X0.275000X-0.200000X0.275000X0.200000X0*%
%TD*%
%TA.AperFunction,SMDPad,CuDef*%
%ADD18R,1.000000X0.700000*%
%TD*%
%TA.AperFunction,SMDPad,CuDef*%
%ADD19R,2.000000X0.500000*%
%TD*%
%TA.AperFunction,SMDPad,CuDef*%
%ADD20R,1.700000X2.000000*%
%TD*%
%TA.AperFunction,ComponentPad*%
%ADD21R,1.500000X1.500000*%
%TD*%
%TA.AperFunction,ComponentPad*%
%ADD22C,1.500000*%
%TD*%
%TA.AperFunction,SMDPad,CuDef*%
%ADD23RoundRect,0.200000X0.200000X0.275000X-0.200000X0.275000X-0.200000X-0.275000X0.200000X-0.275000X0*%
%TD*%
%TA.AperFunction,SMDPad,CuDef*%
%ADD24RoundRect,0.150000X-0.512500X-0.150000X0.512500X-0.150000X0.512500X0.150000X-0.512500X0.150000X0*%
%TD*%
%TA.AperFunction,ComponentPad*%
%ADD25R,2.000000X2.000000*%
%TD*%
%TA.AperFunction,ComponentPad*%
%ADD26C,2.000000*%
%TD*%
%TA.AperFunction,SMDPad,CuDef*%
%ADD27RoundRect,0.225000X-0.225000X-0.250000X0.225000X-0.250000X0.225000X0.250000X-0.225000X0.250000X0*%
%TD*%
%TA.AperFunction,SMDPad,CuDef*%
%ADD28RoundRect,0.243750X-0.243750X-0.456250X0.243750X-0.456250X0.243750X0.456250X-0.243750X0.456250X0*%
%TD*%
%TA.AperFunction,SMDPad,CuDef*%
%ADD29RoundRect,0.243750X0.243750X0.456250X-0.243750X0.456250X-0.243750X-0.456250X0.243750X-0.456250X0*%
%TD*%
%TA.AperFunction,SMDPad,CuDef*%
%ADD30R,1.500000X0.550000*%
%TD*%
%TA.AperFunction,SMDPad,CuDef*%
%ADD31R,0.550000X1.500000*%
%TD*%
%TA.AperFunction,SMDPad,CuDef*%
%ADD32RoundRect,0.200000X-0.200000X-0.275000X0.200000X-0.275000X0.200000X0.275000X-0.200000X0.275000X0*%
%TD*%
%TA.AperFunction,SMDPad,CuDef*%
%ADD33RoundRect,0.150000X-0.150000X0.512500X-0.150000X-0.512500X0.150000X-0.512500X0.150000X0.512500X0*%
%TD*%
%TA.AperFunction,SMDPad,CuDef*%
%ADD34RoundRect,0.100000X-0.637500X-0.100000X0.637500X-0.100000X0.637500X0.100000X-0.637500X0.100000X0*%
%TD*%
%TA.AperFunction,SMDPad,CuDef*%
%ADD35R,2.000000X1.500000*%
%TD*%
%TA.AperFunction,SMDPad,CuDef*%
%ADD36RoundRect,0.250000X-0.450000X0.262500X-0.450000X-0.262500X0.450000X-0.262500X0.450000X0.262500X0*%
%TD*%
%TA.AperFunction,SMDPad,CuDef*%
%ADD37RoundRect,0.250000X-0.312500X-1.450000X0.312500X-1.450000X0.312500X1.450000X-0.312500X1.450000X0*%
%TD*%
%TA.AperFunction,SMDPad,CuDef*%
%ADD38RoundRect,0.250000X-0.262500X-0.450000X0.262500X-0.450000X0.262500X0.450000X-0.262500X0.450000X0*%
%TD*%
%TA.AperFunction,SMDPad,CuDef*%
%ADD39RoundRect,0.250000X0.475000X-0.250000X0.475000X0.250000X-0.475000X0.250000X-0.475000X-0.250000X0*%
%TD*%
%TA.AperFunction,ViaPad*%
%ADD40C,0.800000*%
%TD*%
%TA.AperFunction,Conductor*%
%ADD41C,0.508000*%
%TD*%
%TA.AperFunction,Conductor*%
%ADD42C,0.304800*%
%TD*%
%TA.AperFunction,Conductor*%
%ADD43C,0.203200*%
%TD*%
%TA.AperFunction,Conductor*%
%ADD44C,0.200000*%
%TD*%
G04 APERTURE END LIST*
D10*
%TO.P,C2,1*%
%TO.N,GND*%
X127254000Y-102857000D03*
%TO.P,C2,2*%
%TO.N,XTAL1*%
X127254000Y-104407000D03*
%TD*%
D11*
%TO.P,C12,1*%
%TO.N,/AREF*%
X122174000Y-82309000D03*
%TO.P,C12,2*%
%TO.N,GND*%
X122174000Y-80759000D03*
%TD*%
D12*
%TO.P,Y1,1,1*%
%TO.N,XTAL1*%
X125437000Y-104859000D03*
%TO.P,Y1,2,2*%
%TO.N,GND*%
X125437000Y-102659000D03*
%TO.P,Y1,3,3*%
%TO.N,XTAL2*%
X123737000Y-102659000D03*
%TO.P,Y1,4,4*%
%TO.N,GND*%
X123737000Y-104859000D03*
%TD*%
D13*
%TO.P,J1,1,MISO*%
%TO.N,MISO*%
X113142000Y-99842000D03*
D14*
%TO.P,J1,2,VCC*%
%TO.N,+5V*%
X113142000Y-97302000D03*
%TO.P,J1,3,SCK*%
%TO.N,SCK*%
X110602000Y-99842000D03*
%TO.P,J1,4,MOSI*%
%TO.N,MOSI*%
X110602000Y-97302000D03*
%TO.P,J1,5,~{RST}*%
%TO.N,RST*%
X108062000Y-99842000D03*
%TO.P,J1,6,GND*%
%TO.N,GND*%
X108062000Y-97302000D03*
%TD*%
D15*
%TO.P,C10,1*%
%TO.N,+5V*%
X117094000Y-90932000D03*
%TO.P,C10,2*%
%TO.N,GND*%
X115544000Y-90932000D03*
%TD*%
D16*
%TO.P,R8,1*%
%TO.N,d*%
X102108000Y-73556500D03*
%TO.P,R8,2*%
%TO.N,Net-(U1-d)*%
X102108000Y-71731500D03*
%TD*%
D17*
%TO.P,R17,1*%
%TO.N,+3.3V*%
X83947000Y-103442000D03*
%TO.P,R17,2*%
%TO.N,Net-(J3-Pin_5)*%
X83947000Y-105092000D03*
%TD*%
D18*
%TO.P,S3,1*%
%TO.N,GND*%
X116840000Y-108966000D03*
%TO.P,S3,2*%
%TO.N,N/C*%
X110840000Y-108966000D03*
%TO.P,S3,3*%
%TO.N,RST*%
X116840000Y-105266000D03*
%TO.P,S3,4*%
%TO.N,N/C*%
X110840000Y-105266000D03*
%TD*%
D15*
%TO.P,C6,1*%
%TO.N,+5V*%
X117107000Y-86614000D03*
%TO.P,C6,2*%
%TO.N,GND*%
X115557000Y-86614000D03*
%TD*%
D19*
%TO.P,J2,1,VBUS*%
%TO.N,Net-(J2-VBUS)*%
X88862000Y-89200000D03*
%TO.P,J2,2,D-*%
%TO.N,Net-(J2-D-)*%
X88862000Y-90000000D03*
%TO.P,J2,3,D+*%
%TO.N,Net-(J2-D+)*%
X88862000Y-90800000D03*
%TO.P,J2,4,ID*%
%TO.N,unconnected-(J2-ID-Pad4)*%
X88862000Y-91600000D03*
%TO.P,J2,5,GND*%
%TO.N,GND*%
X88862000Y-92400000D03*
D20*
%TO.P,J2,6,Shield*%
%TO.N,unconnected-(J2-Shield-Pad6)*%
X88762000Y-86350000D03*
X83312000Y-86350000D03*
X88762000Y-95250000D03*
X83312000Y-95250000D03*
%TD*%
D10*
%TO.P,C7,1*%
%TO.N,+5V*%
X122428000Y-97523000D03*
%TO.P,C7,2*%
%TO.N,GND*%
X122428000Y-99073000D03*
%TD*%
D21*
%TO.P,U1,1,e*%
%TO.N,Net-(U1-e)*%
X101346000Y-66294000D03*
D22*
%TO.P,U1,2,d*%
%TO.N,Net-(U1-d)*%
X103886000Y-66294000D03*
%TO.P,U1,3,DPX*%
%TO.N,Net-(U1-DPX)*%
X106426000Y-66294000D03*
%TO.P,U1,4,c*%
%TO.N,Net-(U1-c)*%
X108966000Y-66294000D03*
%TO.P,U1,5,g*%
%TO.N,Net-(U1-g)*%
X111506000Y-66294000D03*
%TO.P,U1,6,CA4*%
%TO.N,Dig4*%
X114046000Y-66294000D03*
%TO.P,U1,7,b*%
%TO.N,Net-(U1-b)*%
X114046000Y-51054000D03*
%TO.P,U1,8,CA3*%
%TO.N,Dig3*%
X111506000Y-51054000D03*
%TO.P,U1,9,CA2*%
%TO.N,Dig2*%
X108966000Y-51054000D03*
%TO.P,U1,10,f*%
%TO.N,Net-(U1-f)*%
X106426000Y-51054000D03*
%TO.P,U1,11,a*%
%TO.N,Net-(U1-a)*%
X103886000Y-51054000D03*
%TO.P,U1,12,CA1*%
%TO.N,Dig1*%
X101346000Y-51054000D03*
%TD*%
D23*
%TO.P,R13,1*%
%TO.N,+5V*%
X118427000Y-103505000D03*
%TO.P,R13,2*%
%TO.N,RST*%
X116777000Y-103505000D03*
%TD*%
D24*
%TO.P,U4,1,I/O1*%
%TO.N,USB_CONN_D-*%
X96028115Y-89421688D03*
%TO.P,U4,2,GND*%
%TO.N,GND*%
X96028115Y-90371688D03*
%TO.P,U4,3,I/O2*%
%TO.N,USB_CONN_D+*%
X96028115Y-91321688D03*
%TO.P,U4,4,I/O2*%
%TO.N,USB_D+*%
X98303115Y-91321688D03*
%TO.P,U4,5,VBUS*%
%TO.N,+5V*%
X98303115Y-90371688D03*
%TO.P,U4,6,I/O1*%
%TO.N,USB_D-*%
X98303115Y-89421688D03*
%TD*%
D11*
%TO.P,C15,1*%
%TO.N,Net-(U5-BP)*%
X96520000Y-98552000D03*
%TO.P,C15,2*%
%TO.N,GND*%
X96520000Y-97002000D03*
%TD*%
D16*
%TO.P,R7,1*%
%TO.N,c*%
X106934000Y-73556500D03*
%TO.P,R7,2*%
%TO.N,Net-(U1-c)*%
X106934000Y-71731500D03*
%TD*%
D25*
%TO.P,LS1,1,1*%
%TO.N,Buzzer*%
X148600000Y-72771000D03*
D26*
%TO.P,LS1,2,2*%
%TO.N,GND*%
X156200000Y-72771000D03*
%TD*%
D27*
%TO.P,C1,1*%
%TO.N,+5V*%
X110985000Y-76962000D03*
%TO.P,C1,2*%
%TO.N,GND*%
X112535000Y-76962000D03*
%TD*%
D16*
%TO.P,R6,1*%
%TO.N,b*%
X104521000Y-73556500D03*
%TO.P,R6,2*%
%TO.N,Net-(U1-b)*%
X104521000Y-71731500D03*
%TD*%
%TO.P,R9,1*%
%TO.N,e*%
X99568000Y-73556500D03*
%TO.P,R9,2*%
%TO.N,Net-(U1-e)*%
X99568000Y-71731500D03*
%TD*%
D28*
%TO.P,D1,1,K*%
%TO.N,GND*%
X133024000Y-74930000D03*
%TO.P,D1,2,A*%
%TO.N,Net-(D1-A)*%
X134899000Y-74930000D03*
%TD*%
D29*
%TO.P,D3,1,K*%
%TO.N,GND*%
X97457500Y-79502000D03*
%TO.P,D3,2,A*%
%TO.N,Net-(D3-A)*%
X95582500Y-79502000D03*
%TD*%
D30*
%TO.P,U3,1,PE6*%
%TO.N,SH_CP*%
X119014000Y-85916000D03*
%TO.P,U3,2,UVCC*%
%TO.N,+5V*%
X119014000Y-86716000D03*
%TO.P,U3,3,D-*%
%TO.N,USB_D-*%
X119014000Y-87516000D03*
%TO.P,U3,4,D+*%
%TO.N,USB_D+*%
X119014000Y-88316000D03*
%TO.P,U3,5,UGND*%
%TO.N,GND*%
X119014000Y-89116000D03*
%TO.P,U3,6,UCAP*%
%TO.N,/UCAP*%
X119014000Y-89916000D03*
%TO.P,U3,7,VBUS*%
%TO.N,+5V*%
X119014000Y-90716000D03*
%TO.P,U3,8,PB0*%
%TO.N,unconnected-(U3-PB0-Pad8)*%
X119014000Y-91516000D03*
%TO.P,U3,9,PB1*%
%TO.N,SCK*%
X119014000Y-92316000D03*
%TO.P,U3,10,PB2*%
%TO.N,MOSI*%
X119014000Y-93116000D03*
%TO.P,U3,11,PB3*%
%TO.N,MISO*%
X119014000Y-93916000D03*
D31*
%TO.P,U3,12,PB7*%
%TO.N,Dig3*%
X120714000Y-95616000D03*
%TO.P,U3,13,~{RESET}*%
%TO.N,RST*%
X121514000Y-95616000D03*
%TO.P,U3,14,VCC*%
%TO.N,+5V*%
X122314000Y-95616000D03*
%TO.P,U3,15,GND*%
%TO.N,GND*%
X123114000Y-95616000D03*
%TO.P,U3,16,XTAL2*%
%TO.N,XTAL2*%
X123914000Y-95616000D03*
%TO.P,U3,17,XTAL1*%
%TO.N,XTAL1*%
X124714000Y-95616000D03*
%TO.P,U3,18,PD0*%
%TO.N,Button_2*%
X125514000Y-95616000D03*
%TO.P,U3,19,PD1*%
%TO.N,Button_1*%
X126314000Y-95616000D03*
%TO.P,U3,20,PD2*%
%TO.N,TX*%
X127114000Y-95616000D03*
%TO.P,U3,21,PD3*%
%TO.N,RX*%
X127914000Y-95616000D03*
%TO.P,U3,22,PD5*%
%TO.N,unconnected-(U3-PD5-Pad22)*%
X128714000Y-95616000D03*
D30*
%TO.P,U3,23,GND*%
%TO.N,GND*%
X130414000Y-93916000D03*
%TO.P,U3,24,AVCC*%
%TO.N,+5V*%
X130414000Y-93116000D03*
%TO.P,U3,25,PD4*%
%TO.N,GREEN_LED*%
X130414000Y-92316000D03*
%TO.P,U3,26,PD6*%
%TO.N,Dig2*%
X130414000Y-91516000D03*
%TO.P,U3,27,PD7*%
%TO.N,Buzzer*%
X130414000Y-90716000D03*
%TO.P,U3,28,PB4*%
%TO.N,ST_CP*%
X130414000Y-89916000D03*
%TO.P,U3,29,PB5*%
%TO.N,DS*%
X130414000Y-89116000D03*
%TO.P,U3,30,PB6*%
%TO.N,Dig4*%
X130414000Y-88316000D03*
%TO.P,U3,31,PC6*%
%TO.N,RED_LED*%
X130414000Y-87516000D03*
%TO.P,U3,32,PC7*%
%TO.N,Dig1*%
X130414000Y-86716000D03*
%TO.P,U3,33,~{HWB}/PE2*%
%TO.N,GND*%
X130414000Y-85916000D03*
D31*
%TO.P,U3,34,VCC*%
%TO.N,+5V*%
X128714000Y-84216000D03*
%TO.P,U3,35,GND*%
%TO.N,GND*%
X127914000Y-84216000D03*
%TO.P,U3,36,PF7*%
%TO.N,unconnected-(U3-PF7-Pad36)*%
X127114000Y-84216000D03*
%TO.P,U3,37,PF6*%
%TO.N,unconnected-(U3-PF6-Pad37)*%
X126314000Y-84216000D03*
%TO.P,U3,38,PF5*%
%TO.N,unconnected-(U3-PF5-Pad38)*%
X125514000Y-84216000D03*
%TO.P,U3,39,PF4*%
%TO.N,unconnected-(U3-PF4-Pad39)*%
X124714000Y-84216000D03*
%TO.P,U3,40,PF1*%
%TO.N,unconnected-(U3-PF1-Pad40)*%
X123914000Y-84216000D03*
%TO.P,U3,41,PF0*%
%TO.N,unconnected-(U3-PF0-Pad41)*%
X123114000Y-84216000D03*
%TO.P,U3,42,AREF*%
%TO.N,/AREF*%
X122314000Y-84216000D03*
%TO.P,U3,43,GND*%
%TO.N,GND*%
X121514000Y-84216000D03*
%TO.P,U3,44,AVCC*%
%TO.N,+5V*%
X120714000Y-84216000D03*
%TD*%
D15*
%TO.P,C11,1*%
%TO.N,+5V*%
X120409000Y-82296000D03*
%TO.P,C11,2*%
%TO.N,GND*%
X118859000Y-82296000D03*
%TD*%
D32*
%TO.P,R15,1*%
%TO.N,Net-(J2-D-)*%
X91631911Y-89635905D03*
%TO.P,R15,2*%
%TO.N,USB_CONN_D-*%
X93281911Y-89635905D03*
%TD*%
D33*
%TO.P,U5,1,VIN*%
%TO.N,+5V*%
X100264000Y-96144500D03*
%TO.P,U5,2,GND*%
%TO.N,GND*%
X99314000Y-96144500D03*
%TO.P,U5,3,ON/~{OFF}*%
%TO.N,+5V*%
X98364000Y-96144500D03*
%TO.P,U5,4,BP*%
%TO.N,Net-(U5-BP)*%
X98364000Y-98419500D03*
%TO.P,U5,5,VOUT*%
%TO.N,+3.3V*%
X100264000Y-98419500D03*
%TD*%
D32*
%TO.P,R14,1*%
%TO.N,Net-(J2-D+)*%
X91631000Y-91186000D03*
%TO.P,R14,2*%
%TO.N,USB_CONN_D+*%
X93281000Y-91186000D03*
%TD*%
D10*
%TO.P,C5,1*%
%TO.N,+5V*%
X132321000Y-93218000D03*
%TO.P,C5,2*%
%TO.N,GND*%
X132321000Y-94768000D03*
%TD*%
%TO.P,C3,1*%
%TO.N,XTAL2*%
X121920000Y-102984000D03*
%TO.P,C3,2*%
%TO.N,GND*%
X121920000Y-104534000D03*
%TD*%
%TO.P,C14,1*%
%TO.N,+3.3V*%
X102108000Y-98399000D03*
%TO.P,C14,2*%
%TO.N,GND*%
X102108000Y-99949000D03*
%TD*%
D16*
%TO.P,R5,1*%
%TO.N,a*%
X114808000Y-73556500D03*
%TO.P,R5,2*%
%TO.N,Net-(U1-a)*%
X114808000Y-71731500D03*
%TD*%
D23*
%TO.P,R16,1*%
%TO.N,+5V*%
X97345000Y-81788000D03*
%TO.P,R16,2*%
%TO.N,Net-(D3-A)*%
X95695000Y-81788000D03*
%TD*%
D34*
%TO.P,U2,1,QB*%
%TO.N,b*%
X103309500Y-77227000D03*
%TO.P,U2,2,QC*%
%TO.N,c*%
X103309500Y-77877000D03*
%TO.P,U2,3,QD*%
%TO.N,d*%
X103309500Y-78527000D03*
%TO.P,U2,4,QE*%
%TO.N,e*%
X103309500Y-79177000D03*
%TO.P,U2,5,QF*%
%TO.N,f*%
X103309500Y-79827000D03*
%TO.P,U2,6,QG*%
%TO.N,g*%
X103309500Y-80477000D03*
%TO.P,U2,7,QH*%
%TO.N,dp*%
X103309500Y-81127000D03*
%TO.P,U2,8,GND*%
%TO.N,GND*%
X103309500Y-81777000D03*
%TO.P,U2,9,QH'*%
%TO.N,unconnected-(U2-QH'-Pad9)*%
X109034500Y-81777000D03*
%TO.P,U2,10,~{SRCLR}*%
%TO.N,+5V*%
X109034500Y-81127000D03*
%TO.P,U2,11,SRCLK*%
%TO.N,SH_CP*%
X109034500Y-80477000D03*
%TO.P,U2,12,RCLK*%
%TO.N,ST_CP*%
X109034500Y-79827000D03*
%TO.P,U2,13,~{OE}*%
%TO.N,GND*%
X109034500Y-79177000D03*
%TO.P,U2,14,SER*%
%TO.N,DS*%
X109034500Y-78527000D03*
%TO.P,U2,15,QA*%
%TO.N,a*%
X109034500Y-77877000D03*
%TO.P,U2,16,VCC*%
%TO.N,+5V*%
X109034500Y-77227000D03*
%TD*%
D35*
%TO.P,S1,A1,NO_1*%
%TO.N,unconnected-(S1-NO_1-PadA1)*%
X159169000Y-89749000D03*
%TO.P,S1,B1,NO_2*%
%TO.N,unconnected-(S1-NO_2-PadB1)*%
X144869000Y-89749000D03*
%TO.P,S1,C1,COM_1*%
%TO.N,+5V*%
X159169000Y-84749000D03*
%TO.P,S1,D1,COM_2*%
%TO.N,Button_1*%
X144869000Y-84749000D03*
%TD*%
D36*
%TO.P,R1,1*%
%TO.N,Button_1*%
X141351000Y-84812500D03*
%TO.P,R1,2*%
%TO.N,GND*%
X141351000Y-86637500D03*
%TD*%
D11*
%TO.P,C13,1*%
%TO.N,+5V*%
X102108000Y-96038000D03*
%TO.P,C13,2*%
%TO.N,GND*%
X102108000Y-94488000D03*
%TD*%
D16*
%TO.P,R12,1*%
%TO.N,dp*%
X112141000Y-73556500D03*
%TO.P,R12,2*%
%TO.N,Net-(U1-DPX)*%
X112141000Y-71731500D03*
%TD*%
D37*
%TO.P,F1,1*%
%TO.N,Net-(J2-VBUS)*%
X92858500Y-84836000D03*
%TO.P,F1,2*%
%TO.N,+5V*%
X97133500Y-84836000D03*
%TD*%
D27*
%TO.P,C4,1*%
%TO.N,+5V*%
X128778000Y-82296000D03*
%TO.P,C4,2*%
%TO.N,GND*%
X130328000Y-82296000D03*
%TD*%
D38*
%TO.P,R3,1*%
%TO.N,RED_LED*%
X133049000Y-77089000D03*
%TO.P,R3,2*%
%TO.N,Net-(D1-A)*%
X134874000Y-77089000D03*
%TD*%
D15*
%TO.P,C9,1*%
%TO.N,/UCAP*%
X117094000Y-89408000D03*
%TO.P,C9,2*%
%TO.N,GND*%
X115544000Y-89408000D03*
%TD*%
D13*
%TO.P,J3,1,Pin_1*%
%TO.N,GND*%
X94351000Y-105811000D03*
D14*
%TO.P,J3,2,Pin_2*%
%TO.N,TX*%
X94351000Y-103271000D03*
%TO.P,J3,3,Pin_3*%
%TO.N,unconnected-(J3-Pin_3-Pad3)*%
X91811000Y-105811000D03*
%TO.P,J3,4,Pin_4*%
%TO.N,+3.3V*%
X91811000Y-103271000D03*
%TO.P,J3,5,Pin_5*%
%TO.N,Net-(J3-Pin_5)*%
X89271000Y-105811000D03*
%TO.P,J3,6,Pin_6*%
%TO.N,+3.3V*%
X89271000Y-103271000D03*
%TO.P,J3,7,Pin_7*%
%TO.N,RX*%
X86731000Y-105811000D03*
%TO.P,J3,8,Pin_8*%
%TO.N,+3.3V*%
X86731000Y-103271000D03*
%TD*%
D16*
%TO.P,R10,1*%
%TO.N,f*%
X97028000Y-73556500D03*
%TO.P,R10,2*%
%TO.N,Net-(U1-f)*%
X97028000Y-71731500D03*
%TD*%
D36*
%TO.P,R2,1*%
%TO.N,Button_2*%
X141351000Y-99544500D03*
%TO.P,R2,2*%
%TO.N,GND*%
X141351000Y-101369500D03*
%TD*%
D39*
%TO.P,C8,1*%
%TO.N,+5V*%
X116840000Y-84897000D03*
%TO.P,C8,2*%
%TO.N,GND*%
X116840000Y-82997000D03*
%TD*%
D35*
%TO.P,S2,A1,NO_1*%
%TO.N,unconnected-(S2-NO_1-PadA1)*%
X159169000Y-104481000D03*
%TO.P,S2,B1,NO_2*%
%TO.N,unconnected-(S2-NO_2-PadB1)*%
X144869000Y-104481000D03*
%TO.P,S2,C1,COM_1*%
%TO.N,+5V*%
X159169000Y-99481000D03*
%TO.P,S2,D1,COM_2*%
%TO.N,Button_2*%
X144869000Y-99481000D03*
%TD*%
D38*
%TO.P,R4,1*%
%TO.N,GREEN_LED*%
X140106000Y-77089000D03*
%TO.P,R4,2*%
%TO.N,Net-(D2-A)*%
X141931000Y-77089000D03*
%TD*%
D16*
%TO.P,R11,1*%
%TO.N,g*%
X109368612Y-73559151D03*
%TO.P,R11,2*%
%TO.N,Net-(U1-g)*%
X109368612Y-71734151D03*
%TD*%
D28*
%TO.P,D2,1,K*%
%TO.N,GND*%
X140081000Y-74803000D03*
%TO.P,D2,2,A*%
%TO.N,Net-(D2-A)*%
X141956000Y-74803000D03*
%TD*%
D40*
%TO.N,GND*%
X94927568Y-90373676D03*
X132969000Y-73787000D03*
X122428000Y-99949000D03*
X99314000Y-94996000D03*
X121666000Y-85725000D03*
X127762000Y-85598000D03*
X140208000Y-101346000D03*
X98425000Y-79502000D03*
X133223000Y-94742000D03*
X115659806Y-82987896D03*
X120240310Y-89111157D03*
X107843284Y-79185837D03*
X121001928Y-104528392D03*
X123761691Y-106024351D03*
X96520000Y-96139000D03*
X102997000Y-99949000D03*
X114632608Y-90938694D03*
X128174878Y-102846028D03*
X90297000Y-92456000D03*
X102108000Y-81788000D03*
X140208000Y-86614000D03*
X125416240Y-101513888D03*
X130595586Y-85193476D03*
X129206701Y-94096659D03*
X114626396Y-89411820D03*
X102997000Y-94488000D03*
X118836998Y-81379074D03*
X116967000Y-108204000D03*
X140026000Y-73660000D03*
X113411000Y-76962000D03*
X130302000Y-81407000D03*
X123063000Y-80772000D03*
X114681000Y-86614000D03*
X123089352Y-94373580D03*
%TO.N,Buzzer*%
X137414000Y-90678000D03*
X134747000Y-90678000D03*
%TO.N,Button_1*%
X139065000Y-92202000D03*
X139065000Y-94361000D03*
%TO.N,Net-(U1-b)*%
X114046000Y-53975000D03*
X114046000Y-55880000D03*
%TO.N,Net-(U1-f)*%
X106426000Y-54102000D03*
X106426000Y-55880000D03*
%TO.N,Dig4*%
X132207000Y-78486000D03*
X133750100Y-78867000D03*
X117221000Y-66294000D03*
%TO.N,Dig3*%
X111506000Y-55880000D03*
X108204000Y-89027000D03*
X116332000Y-94996000D03*
X111506000Y-53975000D03*
X103124000Y-85852000D03*
X102108000Y-83820000D03*
X102997000Y-60579000D03*
X105791000Y-60579000D03*
%TO.N,Dig2*%
X137033000Y-70231000D03*
X135509000Y-68707000D03*
%TO.N,Dig1*%
X132155747Y-86689747D03*
X136271000Y-78359000D03*
%TO.N,SH_CP*%
X118872000Y-84709000D03*
X114681000Y-84043500D03*
%TO.N,ST_CP*%
X136144000Y-80899000D03*
X131572000Y-80899000D03*
%TO.N,DS*%
X131953000Y-79756000D03*
X134874000Y-79756000D03*
%TO.N,SCK*%
X112268000Y-92583000D03*
X111125000Y-93728600D03*
%TO.N,MOSI*%
X112954253Y-93420747D03*
X111887000Y-94488000D03*
%TO.N,TX*%
X129286000Y-97790000D03*
X130302000Y-100457000D03*
%TO.N,RX*%
X131445000Y-97663000D03*
X131445000Y-100457000D03*
%TD*%
D41*
%TO.N,GND*%
X130302000Y-82270000D02*
X130328000Y-82296000D01*
D42*
X127914000Y-85446000D02*
X127762000Y-85598000D01*
D41*
X114630216Y-89408000D02*
X114626396Y-89411820D01*
X116967000Y-108839000D02*
X116840000Y-108966000D01*
X88862000Y-92400000D02*
X90241000Y-92400000D01*
X114632608Y-90938694D02*
X115537306Y-90938694D01*
X115537306Y-90938694D02*
X115544000Y-90932000D01*
X141351000Y-101369500D02*
X140231500Y-101369500D01*
X118859000Y-82296000D02*
X118859000Y-81401076D01*
X140026000Y-74748000D02*
X140081000Y-74803000D01*
X115544000Y-89408000D02*
X114630216Y-89408000D01*
X116840000Y-82997000D02*
X115668910Y-82997000D01*
X102997000Y-99949000D02*
X102108000Y-99949000D01*
X130595586Y-85734414D02*
X130414000Y-85916000D01*
X90241000Y-92400000D02*
X90297000Y-92456000D01*
X121666000Y-85725000D02*
X121514000Y-85207882D01*
X116967000Y-108204000D02*
X116967000Y-108839000D01*
X133223000Y-94742000D02*
X132347000Y-94742000D01*
X123114000Y-94398228D02*
X123089352Y-94373580D01*
D42*
X109034500Y-79177000D02*
X107852121Y-79177000D01*
D41*
X125416240Y-101513888D02*
X125416240Y-102638240D01*
X125416240Y-102638240D02*
X125437000Y-102659000D01*
X123063000Y-80772000D02*
X122187000Y-80772000D01*
X121514000Y-85207882D02*
X121514000Y-84216000D01*
X130414000Y-93916000D02*
X129387360Y-93916000D01*
X102108000Y-81788000D02*
X102115000Y-81781000D01*
X133024000Y-73842000D02*
X132969000Y-73787000D01*
X130302000Y-81407000D02*
X130302000Y-82270000D01*
D42*
X103309500Y-81777000D02*
X102119000Y-81777000D01*
X102119000Y-81777000D02*
X102108000Y-81788000D01*
D41*
X102997000Y-94488000D02*
X102108000Y-94488000D01*
X96028115Y-90371688D02*
X94929556Y-90371688D01*
X130595586Y-85193476D02*
X130595586Y-85734414D01*
X113411000Y-76962000D02*
X112535000Y-76962000D01*
X121007536Y-104534000D02*
X121001928Y-104528392D01*
X123737000Y-104859000D02*
X123737000Y-105999660D01*
X123737000Y-105999660D02*
X123761691Y-106024351D01*
X115557000Y-86614000D02*
X114681000Y-86614000D01*
X123114000Y-95616000D02*
X123114000Y-94398228D01*
D42*
X107852121Y-79177000D02*
X107843284Y-79185837D01*
D41*
X127254000Y-102857000D02*
X128163906Y-102857000D01*
X140231500Y-101369500D02*
X140208000Y-101346000D01*
X129387360Y-93916000D02*
X129206701Y-94096659D01*
X115668910Y-82997000D02*
X115659806Y-82987896D01*
X119014000Y-89116000D02*
X120235467Y-89116000D01*
X99314000Y-96144500D02*
X99314000Y-94996000D01*
X133024000Y-74930000D02*
X133024000Y-73842000D01*
X96520000Y-97002000D02*
X96520000Y-96139000D01*
X118859000Y-81401076D02*
X118836998Y-81379074D01*
X122428000Y-99073000D02*
X122428000Y-99949000D01*
X98425000Y-79502000D02*
X97457500Y-79502000D01*
X94929556Y-90371688D02*
X94927568Y-90373676D01*
X140026000Y-73660000D02*
X140026000Y-74748000D01*
X120235467Y-89116000D02*
X120240310Y-89111157D01*
X140231500Y-86637500D02*
X140208000Y-86614000D01*
X121920000Y-104534000D02*
X121007536Y-104534000D01*
X122187000Y-80772000D02*
X122174000Y-80759000D01*
X141351000Y-86637500D02*
X140231500Y-86637500D01*
X128163906Y-102857000D02*
X128174878Y-102846028D01*
D42*
X127914000Y-84216000D02*
X127914000Y-85446000D01*
D41*
%TO.N,Net-(D1-A)*%
X134899000Y-77064000D02*
X134874000Y-77089000D01*
X134899000Y-74930000D02*
X134899000Y-77064000D01*
%TO.N,Net-(D2-A)*%
X141956000Y-74803000D02*
X141956000Y-77064000D01*
X141956000Y-77064000D02*
X141931000Y-77089000D01*
D43*
%TO.N,Buzzer*%
X134709000Y-90716000D02*
X134747000Y-90678000D01*
X137795000Y-73660000D02*
X138684000Y-72771000D01*
X137414000Y-90678000D02*
X137795000Y-90297000D01*
X137795000Y-90297000D02*
X137795000Y-73660000D01*
X130414000Y-90716000D02*
X134709000Y-90716000D01*
X138684000Y-72771000D02*
X148600000Y-72771000D01*
%TO.N,Button_1*%
X126746000Y-98552000D02*
X138176000Y-98552000D01*
X141327500Y-84836000D02*
X141351000Y-84812500D01*
X126314000Y-95616000D02*
X126314000Y-98120000D01*
X139827000Y-84836000D02*
X141327500Y-84836000D01*
X139065000Y-85598000D02*
X139827000Y-84836000D01*
X139065000Y-92202000D02*
X139065000Y-85598000D01*
D41*
X141414500Y-84749000D02*
X141351000Y-84812500D01*
D43*
X139065000Y-97663000D02*
X139065000Y-94361000D01*
X138176000Y-98552000D02*
X139065000Y-97663000D01*
D41*
X144869000Y-84749000D02*
X141414500Y-84749000D01*
D43*
X126314000Y-98120000D02*
X126746000Y-98552000D01*
D41*
%TO.N,Button_2*%
X141414500Y-99481000D02*
X141351000Y-99544500D01*
D43*
X125514000Y-95616000D02*
X125514000Y-98844000D01*
X126111000Y-99441000D02*
X141247500Y-99441000D01*
D41*
X144869000Y-99481000D02*
X141414500Y-99481000D01*
D43*
X125514000Y-98844000D02*
X126111000Y-99441000D01*
X141247500Y-99441000D02*
X141351000Y-99544500D01*
%TO.N,RED_LED*%
X133049000Y-86788000D02*
X133049000Y-77089000D01*
X132321000Y-87516000D02*
X133049000Y-86788000D01*
X130414000Y-87516000D02*
X132321000Y-87516000D01*
%TO.N,GREEN_LED*%
X138430000Y-78765000D02*
X140106000Y-77089000D01*
X138430000Y-90932000D02*
X138430000Y-78765000D01*
X130414000Y-92316000D02*
X137046000Y-92316000D01*
X137046000Y-92316000D02*
X138430000Y-90932000D01*
D42*
%TO.N,a*%
X114147000Y-77877000D02*
X114808000Y-77216000D01*
X109034500Y-77877000D02*
X114147000Y-77877000D01*
X114808000Y-77216000D02*
X114808000Y-73556500D01*
%TO.N,Net-(U1-a)*%
X116078000Y-55626000D02*
X115443000Y-54991000D01*
X114808000Y-71731500D02*
X116078000Y-70461500D01*
X115443000Y-54991000D02*
X105283000Y-54991000D01*
X105283000Y-54991000D02*
X103886000Y-53594000D01*
X116078000Y-70461500D02*
X116078000Y-55626000D01*
X103886000Y-53594000D02*
X103886000Y-51054000D01*
%TO.N,b*%
X104394000Y-75057000D02*
X104394000Y-73683500D01*
X104394000Y-73683500D02*
X104521000Y-73556500D01*
X103309500Y-77227000D02*
X103309500Y-76141500D01*
X103309500Y-76141500D02*
X104394000Y-75057000D01*
%TO.N,Net-(U1-b)*%
X111125000Y-63246000D02*
X105537000Y-63246000D01*
X105537000Y-63246000D02*
X105156000Y-63627000D01*
X114046000Y-51054000D02*
X114046000Y-53975000D01*
X105156000Y-71096500D02*
X104521000Y-71731500D01*
X105156000Y-63627000D02*
X105156000Y-71096500D01*
X114046000Y-60325000D02*
X111125000Y-63246000D01*
X114046000Y-55880000D02*
X114046000Y-60325000D01*
%TO.N,c*%
X106553000Y-75057000D02*
X106934000Y-74676000D01*
X104648000Y-75819000D02*
X105410000Y-75057000D01*
X104368000Y-77877000D02*
X104648000Y-77597000D01*
X106934000Y-74676000D02*
X106934000Y-73556500D01*
X105410000Y-75057000D02*
X106553000Y-75057000D01*
X104648000Y-77597000D02*
X104648000Y-75819000D01*
X103309500Y-77877000D02*
X104368000Y-77877000D01*
%TO.N,Net-(U1-c)*%
X106934000Y-71731500D02*
X106934000Y-70866000D01*
X108966000Y-68834000D02*
X108966000Y-66294000D01*
X106934000Y-70866000D02*
X108966000Y-68834000D01*
%TO.N,d*%
X103309500Y-78527000D02*
X102403000Y-78527000D01*
X102403000Y-78527000D02*
X102108000Y-78232000D01*
X102108000Y-78232000D02*
X102108000Y-73556500D01*
%TO.N,Net-(U1-d)*%
X102108000Y-71731500D02*
X102108000Y-70612000D01*
X103886000Y-68834000D02*
X103886000Y-66294000D01*
X102108000Y-70612000D02*
X103886000Y-68834000D01*
%TO.N,e*%
X99695000Y-73683500D02*
X99568000Y-73556500D01*
X99695000Y-76835000D02*
X99695000Y-73683500D01*
X103309500Y-79177000D02*
X102037000Y-79177000D01*
X102037000Y-79177000D02*
X99695000Y-76835000D01*
%TO.N,Net-(U1-e)*%
X101346000Y-69953500D02*
X101346000Y-66294000D01*
X99568000Y-71731500D02*
X101346000Y-69953500D01*
%TO.N,f*%
X101290000Y-79827000D02*
X97028000Y-75565000D01*
X103309500Y-79827000D02*
X101290000Y-79827000D01*
X97028000Y-75565000D02*
X97028000Y-73556500D01*
%TO.N,Net-(U1-f)*%
X106426000Y-54102000D02*
X106426000Y-51054000D01*
X99060000Y-61976000D02*
X103124000Y-61976000D01*
X97028000Y-64008000D02*
X99060000Y-61976000D01*
X106426000Y-58674000D02*
X106426000Y-55880000D01*
X97028000Y-71731500D02*
X97028000Y-64008000D01*
X103124000Y-61976000D02*
X106426000Y-58674000D01*
%TO.N,g*%
X103309500Y-80477000D02*
X104689000Y-80477000D01*
X106045000Y-75946000D02*
X106981763Y-75946000D01*
X104689000Y-80477000D02*
X105283000Y-79883000D01*
X105283000Y-76708000D02*
X106045000Y-75946000D01*
X106981763Y-75946000D02*
X109368612Y-73559151D01*
X105283000Y-79883000D02*
X105283000Y-76708000D01*
%TO.N,Net-(U1-g)*%
X109368612Y-71352388D02*
X111506000Y-69215000D01*
X111506000Y-69215000D02*
X111506000Y-66294000D01*
X109368612Y-71734151D02*
X109368612Y-71352388D01*
%TO.N,dp*%
X107061000Y-76581000D02*
X107569000Y-76581000D01*
X111633000Y-75565000D02*
X112141000Y-75057000D01*
X112141000Y-75057000D02*
X112141000Y-73556500D01*
X108585000Y-75565000D02*
X111633000Y-75565000D01*
X107569000Y-76581000D02*
X108585000Y-75565000D01*
X106045000Y-77597000D02*
X107061000Y-76581000D01*
X103309500Y-81127000D02*
X105182000Y-81127000D01*
X106045000Y-80264000D02*
X106045000Y-77597000D01*
X105182000Y-81127000D02*
X106045000Y-80264000D01*
%TO.N,Net-(U1-DPX)*%
X112649000Y-65405000D02*
X112014000Y-64770000D01*
X112649000Y-71223500D02*
X112649000Y-65405000D01*
X112649000Y-71223500D02*
X112141000Y-71731500D01*
X106426000Y-66294000D02*
X106426000Y-65151000D01*
X112014000Y-64770000D02*
X106807000Y-64770000D01*
X106426000Y-65151000D02*
X106807000Y-64770000D01*
D41*
%TO.N,+5V*%
X132219000Y-93116000D02*
X132321000Y-93218000D01*
X128714000Y-82360000D02*
X128778000Y-82296000D01*
X119014000Y-86716000D02*
X117209000Y-86716000D01*
D43*
X97133500Y-84836000D02*
X97155000Y-84857500D01*
D41*
X100264000Y-96144500D02*
X102001500Y-96144500D01*
X122314000Y-94805967D02*
X122235352Y-94727319D01*
X106807000Y-84897000D02*
X97194500Y-84897000D01*
X132321000Y-93218000D02*
X155829000Y-93218000D01*
X156464000Y-85598000D02*
X157313000Y-84749000D01*
D43*
X97155000Y-90043000D02*
X97155000Y-92329000D01*
X97853500Y-93027500D02*
X99060000Y-93027500D01*
D41*
X120714000Y-84216000D02*
X120714000Y-86551000D01*
D43*
X97155000Y-92329000D02*
X97853500Y-93027500D01*
D41*
X121412000Y-87249000D02*
X121412000Y-90170000D01*
X159169000Y-99481000D02*
X157266000Y-99481000D01*
X122235352Y-93406352D02*
X121412000Y-92583000D01*
D42*
X107543000Y-81127000D02*
X109034500Y-81127000D01*
D43*
X98874500Y-93027500D02*
X99060000Y-93027500D01*
D41*
X122525704Y-93116000D02*
X122235352Y-93406352D01*
X119014000Y-86716000D02*
X120879000Y-86716000D01*
X120714000Y-86551000D02*
X120879000Y-86716000D01*
X120879000Y-86716000D02*
X121412000Y-87249000D01*
X121539000Y-87376000D02*
X121412000Y-87249000D01*
X97133500Y-81999500D02*
X97345000Y-81788000D01*
D43*
X97483688Y-90371688D02*
X98303115Y-90371688D01*
X98364000Y-93538000D02*
X98364000Y-94295000D01*
X118427000Y-100775000D02*
X121539000Y-97663000D01*
D41*
X121412000Y-90170000D02*
X120866000Y-90716000D01*
X97133500Y-84836000D02*
X97133500Y-81999500D01*
X122314000Y-97409000D02*
X122428000Y-97523000D01*
X97194500Y-84897000D02*
X97133500Y-84836000D01*
D42*
X107061000Y-80645000D02*
X107061000Y-84008000D01*
D41*
X130414000Y-93116000D02*
X132219000Y-93116000D01*
D42*
X110720000Y-77227000D02*
X110985000Y-76962000D01*
X107061000Y-84008000D02*
X107950000Y-84897000D01*
D41*
X120866000Y-90716000D02*
X119014000Y-90716000D01*
X99984000Y-94142000D02*
X100264000Y-94422000D01*
X98517000Y-94142000D02*
X99984000Y-94142000D01*
D43*
X99060000Y-93027500D02*
X111569500Y-93027500D01*
D41*
X98364000Y-94295000D02*
X98517000Y-94142000D01*
X100264000Y-94422000D02*
X100264000Y-96144500D01*
D43*
X118427000Y-103505000D02*
X118427000Y-100775000D01*
D41*
X128270000Y-87376000D02*
X121539000Y-87376000D01*
X116840000Y-84897000D02*
X116840000Y-86347000D01*
X102001500Y-96144500D02*
X102108000Y-96038000D01*
X120714000Y-82601000D02*
X120409000Y-82296000D01*
X156464000Y-98679000D02*
X156464000Y-93853000D01*
X122314000Y-95616000D02*
X122314000Y-97409000D01*
D43*
X122288000Y-97663000D02*
X122428000Y-97523000D01*
D41*
X116840000Y-84897000D02*
X107950000Y-84897000D01*
X155829000Y-93218000D02*
X156464000Y-93853000D01*
X130414000Y-93116000D02*
X122525704Y-93116000D01*
D42*
X107431000Y-77227000D02*
X107061000Y-77597000D01*
D41*
X107950000Y-84897000D02*
X106807000Y-84897000D01*
X156464000Y-93853000D02*
X156464000Y-85598000D01*
X116840000Y-86347000D02*
X117107000Y-86614000D01*
X157266000Y-99481000D02*
X156464000Y-98679000D01*
D42*
X109034500Y-77227000D02*
X107431000Y-77227000D01*
D43*
X98364000Y-93538000D02*
X98874500Y-93027500D01*
D41*
X122235352Y-94727319D02*
X122235352Y-93406352D01*
X128714000Y-86932000D02*
X128270000Y-87376000D01*
X157313000Y-84749000D02*
X159169000Y-84749000D01*
D42*
X107061000Y-80645000D02*
X107543000Y-81127000D01*
D41*
X117209000Y-86716000D02*
X117107000Y-86614000D01*
D43*
X113142000Y-97302000D02*
X113142000Y-94600000D01*
D41*
X122314000Y-95616000D02*
X122314000Y-94805967D01*
D43*
X97155000Y-90043000D02*
X97483688Y-90371688D01*
D41*
X117310000Y-90716000D02*
X117094000Y-90932000D01*
D43*
X121539000Y-97663000D02*
X122288000Y-97663000D01*
D41*
X120714000Y-84216000D02*
X120714000Y-82601000D01*
X98364000Y-96144500D02*
X98364000Y-94295000D01*
D43*
X111569500Y-93027500D02*
X113142000Y-94600000D01*
D41*
X121412000Y-92583000D02*
X121412000Y-90170000D01*
D42*
X107061000Y-77597000D02*
X107061000Y-80645000D01*
D41*
X128714000Y-84216000D02*
X128714000Y-86932000D01*
X119014000Y-90716000D02*
X117310000Y-90716000D01*
D43*
X97155000Y-84857500D02*
X97155000Y-90043000D01*
D41*
X128714000Y-84216000D02*
X128714000Y-82360000D01*
D42*
X109034500Y-77227000D02*
X110720000Y-77227000D01*
D43*
%TO.N,Dig4*%
X128397000Y-77343000D02*
X122174000Y-77343000D01*
X133426000Y-88316000D02*
X133858000Y-87884000D01*
X118491000Y-73660000D02*
X118491000Y-67564000D01*
X132207000Y-78486000D02*
X131064000Y-77343000D01*
X118491000Y-67564000D02*
X117221000Y-66294000D01*
X133858000Y-78974900D02*
X133750100Y-78867000D01*
X130414000Y-88316000D02*
X133426000Y-88316000D01*
X131064000Y-77343000D02*
X128397000Y-77343000D01*
X122174000Y-77343000D02*
X118491000Y-73660000D01*
X133858000Y-87884000D02*
X133858000Y-78974900D01*
%TO.N,Dig3*%
X106299000Y-89027000D02*
X108204000Y-89027000D01*
X102997000Y-60579000D02*
X97409000Y-60579000D01*
X111506000Y-55880000D02*
X111506000Y-60071000D01*
X103124000Y-85852000D02*
X106299000Y-89027000D01*
X111506000Y-51054000D02*
X111506000Y-53975000D01*
X111506000Y-60071000D02*
X111125000Y-60452000D01*
X97409000Y-60579000D02*
X94361000Y-63627000D01*
X94361000Y-63627000D02*
X94361000Y-74041000D01*
X99949000Y-79629000D02*
X99949000Y-81661000D01*
X110998000Y-60579000D02*
X105791000Y-60579000D01*
X116952000Y-95616000D02*
X120714000Y-95616000D01*
X116332000Y-94996000D02*
X116952000Y-95616000D01*
X99949000Y-81661000D02*
X102108000Y-83820000D01*
X111125000Y-60452000D02*
X110998000Y-60579000D01*
X94361000Y-74041000D02*
X99949000Y-79629000D01*
%TO.N,Dig2*%
X135509000Y-51308000D02*
X133731000Y-49530000D01*
X108966000Y-51054000D02*
X108966000Y-49911000D01*
X108966000Y-49911000D02*
X109347000Y-49530000D01*
X135509000Y-68707000D02*
X135509000Y-51308000D01*
X130414000Y-91516000D02*
X135560000Y-91516000D01*
X137033000Y-90043000D02*
X137033000Y-70231000D01*
X109347000Y-49530000D02*
X133731000Y-49530000D01*
X135560000Y-91516000D02*
X137033000Y-90043000D01*
%TO.N,Dig1*%
X135509000Y-48768000D02*
X101981000Y-48768000D01*
X101346000Y-49403000D02*
X101346000Y-51054000D01*
X136271000Y-49530000D02*
X135509000Y-48768000D01*
X101981000Y-48768000D02*
X101346000Y-49403000D01*
X130440253Y-86689747D02*
X130414000Y-86716000D01*
X132155747Y-86689747D02*
X130440253Y-86689747D01*
X136271000Y-78359000D02*
X136271000Y-49530000D01*
D42*
%TO.N,SH_CP*%
X119014000Y-84851000D02*
X118872000Y-84709000D01*
X114396500Y-84043500D02*
X110830000Y-80477000D01*
X114681000Y-84043500D02*
X114396500Y-84043500D01*
X110830000Y-80477000D02*
X109034500Y-80477000D01*
X119014000Y-85916000D02*
X119014000Y-84851000D01*
%TO.N,ST_CP*%
X136144000Y-80899000D02*
X136398000Y-81153000D01*
X136398000Y-89281000D02*
X135763000Y-89916000D01*
X131445000Y-80899000D02*
X130556000Y-80010000D01*
X136398000Y-81153000D02*
X136398000Y-89281000D01*
X131572000Y-80899000D02*
X131445000Y-80899000D01*
X130373000Y-79827000D02*
X130556000Y-80010000D01*
X135763000Y-89916000D02*
X130414000Y-89916000D01*
X109034500Y-79827000D02*
X130373000Y-79827000D01*
%TO.N,DS*%
X109034500Y-78527000D02*
X130724000Y-78527000D01*
X134874000Y-79756000D02*
X135255000Y-80137000D01*
X134785000Y-89116000D02*
X130414000Y-89116000D01*
X130724000Y-78527000D02*
X131953000Y-79756000D01*
X135255000Y-80137000D02*
X135255000Y-88646000D01*
X135255000Y-88646000D02*
X134785000Y-89116000D01*
D41*
%TO.N,XTAL1*%
X125437000Y-104859000D02*
X126802000Y-104859000D01*
D43*
X129032000Y-101600000D02*
X129032000Y-104013000D01*
D41*
X126802000Y-104859000D02*
X127254000Y-104407000D01*
D43*
X124714000Y-99949000D02*
X125349000Y-100584000D01*
X127267000Y-104394000D02*
X127254000Y-104407000D01*
X124714000Y-95616000D02*
X124714000Y-99949000D01*
X129032000Y-104013000D02*
X128651000Y-104394000D01*
X125349000Y-100584000D02*
X128016000Y-100584000D01*
X128016000Y-100584000D02*
X129032000Y-101600000D01*
X128651000Y-104394000D02*
X127267000Y-104394000D01*
%TO.N,XTAL2*%
X123914000Y-95616000D02*
X123914000Y-102482000D01*
D41*
X121920000Y-102984000D02*
X123412000Y-102984000D01*
D43*
X123914000Y-102482000D02*
X123737000Y-102659000D01*
D41*
X123412000Y-102984000D02*
X123737000Y-102659000D01*
%TO.N,/UCAP*%
X119014000Y-89916000D02*
X117602000Y-89916000D01*
X117602000Y-89916000D02*
X117094000Y-89408000D01*
%TO.N,/AREF*%
X122314000Y-84216000D02*
X122314000Y-82449000D01*
X122314000Y-82449000D02*
X122174000Y-82309000D01*
%TO.N,+3.3V*%
X91811000Y-101610000D02*
X92583000Y-100838000D01*
X100264000Y-98419500D02*
X100264000Y-100142000D01*
X86731000Y-103271000D02*
X89271000Y-103271000D01*
X100264000Y-98419500D02*
X102087500Y-98419500D01*
X91811000Y-103271000D02*
X91811000Y-101610000D01*
X83947000Y-103442000D02*
X86560000Y-103442000D01*
X102087500Y-98419500D02*
X102108000Y-98399000D01*
X89271000Y-103271000D02*
X91811000Y-103271000D01*
X92583000Y-100838000D02*
X99568000Y-100838000D01*
X86560000Y-103442000D02*
X86731000Y-103271000D01*
X100264000Y-100142000D02*
X99568000Y-100838000D01*
%TO.N,Net-(U5-BP)*%
X96520000Y-98552000D02*
X98231500Y-98552000D01*
X98231500Y-98552000D02*
X98364000Y-98419500D01*
%TO.N,Net-(D3-A)*%
X95582500Y-81675500D02*
X95695000Y-81788000D01*
X95582500Y-79502000D02*
X95582500Y-81675500D01*
%TO.N,Net-(J2-VBUS)*%
X92858500Y-84836000D02*
X92858500Y-85195500D01*
X92858500Y-85195500D02*
X90551000Y-87503000D01*
X89870000Y-89200000D02*
X88862000Y-89200000D01*
X90551000Y-88519000D02*
X89870000Y-89200000D01*
X90551000Y-87503000D02*
X90551000Y-88519000D01*
D43*
%TO.N,MISO*%
X114808000Y-99441000D02*
X114808000Y-94615000D01*
X113142000Y-99842000D02*
X114407000Y-99842000D01*
X114407000Y-99842000D02*
X114808000Y-99441000D01*
X114808000Y-94615000D02*
X115507000Y-93916000D01*
X115507000Y-93916000D02*
X119014000Y-93916000D01*
%TO.N,SCK*%
X109450400Y-95400600D02*
X109450400Y-98690400D01*
X119014000Y-92316000D02*
X112535000Y-92316000D01*
X112535000Y-92316000D02*
X112268000Y-92583000D01*
X109450400Y-98690400D02*
X110602000Y-99842000D01*
X111125000Y-93728600D02*
X111122400Y-93728600D01*
X111122400Y-93728600D02*
X109450400Y-95400600D01*
%TO.N,MOSI*%
X119014000Y-93116000D02*
X113259000Y-93116000D01*
X110602000Y-95773000D02*
X110602000Y-97302000D01*
X113259000Y-93116000D02*
X112954253Y-93420747D01*
X111887000Y-94488000D02*
X110602000Y-95773000D01*
%TO.N,RST*%
X116840000Y-105266000D02*
X116840000Y-103568000D01*
X108458000Y-103505000D02*
X116777000Y-103505000D01*
X116840000Y-101346000D02*
X116840000Y-103442000D01*
X116840000Y-103442000D02*
X116777000Y-103505000D01*
X108062000Y-99842000D02*
X108062000Y-103109000D01*
X116840000Y-103568000D02*
X116777000Y-103505000D01*
X108062000Y-103109000D02*
X108458000Y-103505000D01*
X121514000Y-96672000D02*
X116840000Y-101346000D01*
X121514000Y-95616000D02*
X121514000Y-96672000D01*
D41*
%TO.N,Net-(J2-D-)*%
X91267816Y-90000000D02*
X91631911Y-89635905D01*
X88862000Y-90000000D02*
X91267816Y-90000000D01*
%TO.N,Net-(J2-D+)*%
X91245000Y-90800000D02*
X91631000Y-91186000D01*
X88862000Y-90800000D02*
X91245000Y-90800000D01*
D42*
%TO.N,TX*%
X121666000Y-107823000D02*
X129540000Y-107823000D01*
X99207000Y-103271000D02*
X102616000Y-106680000D01*
X94351000Y-103271000D02*
X99207000Y-103271000D01*
X120523000Y-106680000D02*
X121666000Y-107823000D01*
X102616000Y-106680000D02*
X120523000Y-106680000D01*
X127114000Y-97523000D02*
X127381000Y-97790000D01*
X129540000Y-107823000D02*
X130302000Y-107061000D01*
X127381000Y-97790000D02*
X129286000Y-97790000D01*
X130302000Y-107061000D02*
X130302000Y-100457000D01*
X127114000Y-95616000D02*
X127114000Y-97523000D01*
D43*
%TO.N,Net-(J3-Pin_5)*%
X85090000Y-104521000D02*
X87981000Y-104521000D01*
X83947000Y-105092000D02*
X84519000Y-105092000D01*
D41*
X89218000Y-105864000D02*
X89271000Y-105811000D01*
D43*
X84519000Y-105092000D02*
X85090000Y-104521000D01*
X87981000Y-104521000D02*
X89271000Y-105811000D01*
D42*
%TO.N,RX*%
X87131600Y-107451600D02*
X86731000Y-107051000D01*
X127914000Y-96670800D02*
X128271200Y-97028000D01*
X131445000Y-107442000D02*
X130429000Y-108458000D01*
X127914000Y-95616000D02*
X127914000Y-96670800D01*
X131445000Y-100457000D02*
X131445000Y-107442000D01*
X128271200Y-97028000D02*
X129794000Y-97028000D01*
X121158000Y-108458000D02*
X120151600Y-107451600D01*
X130810000Y-97028000D02*
X131445000Y-97663000D01*
X130429000Y-108458000D02*
X121158000Y-108458000D01*
X129794000Y-97028000D02*
X130810000Y-97028000D01*
X86731000Y-107051000D02*
X86731000Y-105811000D01*
X120151600Y-107451600D02*
X87131600Y-107451600D01*
D41*
%TO.N,USB_CONN_D+*%
X93416688Y-91321688D02*
X96028115Y-91321688D01*
X93281000Y-91186000D02*
X93416688Y-91321688D01*
%TO.N,USB_CONN_D-*%
X93281911Y-89635905D02*
X93496128Y-89421688D01*
X93496128Y-89421688D02*
X96028115Y-89421688D01*
D44*
%TO.N,USB_D-*%
X119014000Y-87516000D02*
X117888999Y-87516000D01*
X117888999Y-87516000D02*
X117713999Y-87691000D01*
X98653115Y-89771688D02*
X98303115Y-89421688D01*
X108544113Y-90146687D02*
X99377010Y-90146687D01*
X110999800Y-87691000D02*
X108544113Y-90146687D01*
X99377010Y-90146687D02*
X99002011Y-89771688D01*
X117713999Y-87691000D02*
X110999800Y-87691000D01*
X99002011Y-89771688D02*
X98653115Y-89771688D01*
%TO.N,USB_D+*%
X99002011Y-90971688D02*
X98653115Y-90971688D01*
X98653115Y-90971688D02*
X98303115Y-91321688D01*
X119014000Y-88316000D02*
X117888999Y-88316000D01*
X117713999Y-88141000D02*
X111186200Y-88141000D01*
X111186200Y-88141000D02*
X108730511Y-90596689D01*
X99377010Y-90596689D02*
X99002011Y-90971688D01*
X117888999Y-88316000D02*
X117713999Y-88141000D01*
X108730511Y-90596689D02*
X99377010Y-90596689D01*
D41*
%TO.N,unconnected-(J2-Shield-Pad6)*%
X88762000Y-95250000D02*
X83312000Y-95250000D01*
X88762000Y-86350000D02*
X83312000Y-86350000D01*
X83312000Y-95250000D02*
X83312000Y-86350000D01*
%TD*%
M02*
