%TF.GenerationSoftware,KiCad,Pcbnew,7.0.1*%
%TF.CreationDate,2023-04-05T02:41:21-06:00*%
%TF.ProjectId,Phase_B_ATMEGA,50686173-655f-4425-9f41-544d4547412e,rev?*%
%TF.SameCoordinates,Original*%
%TF.FileFunction,Paste,Top*%
%TF.FilePolarity,Positive*%
%FSLAX46Y46*%
G04 Gerber Fmt 4.6, Leading zero omitted, Abs format (unit mm)*
G04 Created by KiCad (PCBNEW 7.0.1) date 2023-04-05 02:41:21*
%MOMM*%
%LPD*%
G01*
G04 APERTURE LIST*
G04 Aperture macros list*
%AMRoundRect*
0 Rectangle with rounded corners*
0 $1 Rounding radius*
0 $2 $3 $4 $5 $6 $7 $8 $9 X,Y pos of 4 corners*
0 Add a 4 corners polygon primitive as box body*
4,1,4,$2,$3,$4,$5,$6,$7,$8,$9,$2,$3,0*
0 Add four circle primitives for the rounded corners*
1,1,$1+$1,$2,$3*
1,1,$1+$1,$4,$5*
1,1,$1+$1,$6,$7*
1,1,$1+$1,$8,$9*
0 Add four rect primitives between the rounded corners*
20,1,$1+$1,$2,$3,$4,$5,0*
20,1,$1+$1,$4,$5,$6,$7,0*
20,1,$1+$1,$6,$7,$8,$9,0*
20,1,$1+$1,$8,$9,$2,$3,0*%
G04 Aperture macros list end*
%ADD10RoundRect,0.225000X-0.250000X0.225000X-0.250000X-0.225000X0.250000X-0.225000X0.250000X0.225000X0*%
%ADD11RoundRect,0.225000X0.250000X-0.225000X0.250000X0.225000X-0.250000X0.225000X-0.250000X-0.225000X0*%
%ADD12R,1.200000X1.400000*%
%ADD13RoundRect,0.225000X0.225000X0.250000X-0.225000X0.250000X-0.225000X-0.250000X0.225000X-0.250000X0*%
%ADD14RoundRect,0.250000X0.450000X-0.262500X0.450000X0.262500X-0.450000X0.262500X-0.450000X-0.262500X0*%
%ADD15RoundRect,0.200000X-0.275000X0.200000X-0.275000X-0.200000X0.275000X-0.200000X0.275000X0.200000X0*%
%ADD16R,1.000000X0.700000*%
%ADD17R,2.000000X0.500000*%
%ADD18R,1.700000X2.000000*%
%ADD19RoundRect,0.200000X0.200000X0.275000X-0.200000X0.275000X-0.200000X-0.275000X0.200000X-0.275000X0*%
%ADD20RoundRect,0.150000X-0.512500X-0.150000X0.512500X-0.150000X0.512500X0.150000X-0.512500X0.150000X0*%
%ADD21RoundRect,0.225000X-0.225000X-0.250000X0.225000X-0.250000X0.225000X0.250000X-0.225000X0.250000X0*%
%ADD22RoundRect,0.243750X-0.243750X-0.456250X0.243750X-0.456250X0.243750X0.456250X-0.243750X0.456250X0*%
%ADD23RoundRect,0.243750X0.243750X0.456250X-0.243750X0.456250X-0.243750X-0.456250X0.243750X-0.456250X0*%
%ADD24R,1.500000X0.550000*%
%ADD25R,0.550000X1.500000*%
%ADD26RoundRect,0.200000X-0.200000X-0.275000X0.200000X-0.275000X0.200000X0.275000X-0.200000X0.275000X0*%
%ADD27RoundRect,0.150000X-0.150000X0.512500X-0.150000X-0.512500X0.150000X-0.512500X0.150000X0.512500X0*%
%ADD28RoundRect,0.100000X-0.637500X-0.100000X0.637500X-0.100000X0.637500X0.100000X-0.637500X0.100000X0*%
%ADD29R,2.000000X1.500000*%
%ADD30RoundRect,0.250000X-0.450000X0.262500X-0.450000X-0.262500X0.450000X-0.262500X0.450000X0.262500X0*%
%ADD31RoundRect,0.250000X-0.312500X-1.450000X0.312500X-1.450000X0.312500X1.450000X-0.312500X1.450000X0*%
%ADD32RoundRect,0.250000X-0.262500X-0.450000X0.262500X-0.450000X0.262500X0.450000X-0.262500X0.450000X0*%
%ADD33RoundRect,0.250000X0.475000X-0.250000X0.475000X0.250000X-0.475000X0.250000X-0.475000X-0.250000X0*%
G04 APERTURE END LIST*
D10*
%TO.C,C2*%
X127254000Y-102857000D03*
X127254000Y-104407000D03*
%TD*%
D11*
%TO.C,C12*%
X122174000Y-82309000D03*
X122174000Y-80759000D03*
%TD*%
D12*
%TO.C,Y1*%
X125437000Y-104859000D03*
X125437000Y-102659000D03*
X123737000Y-102659000D03*
X123737000Y-104859000D03*
%TD*%
D13*
%TO.C,C10*%
X117094000Y-90932000D03*
X115544000Y-90932000D03*
%TD*%
D14*
%TO.C,R8*%
X102108000Y-73556500D03*
X102108000Y-71731500D03*
%TD*%
D15*
%TO.C,R17*%
X83947000Y-103442000D03*
X83947000Y-105092000D03*
%TD*%
D16*
%TO.C,S3*%
X116840000Y-108966000D03*
X110840000Y-108966000D03*
X116840000Y-105266000D03*
X110840000Y-105266000D03*
%TD*%
D13*
%TO.C,C6*%
X117107000Y-86614000D03*
X115557000Y-86614000D03*
%TD*%
D17*
%TO.C,J2*%
X88862000Y-89200000D03*
X88862000Y-90000000D03*
X88862000Y-90800000D03*
X88862000Y-91600000D03*
X88862000Y-92400000D03*
D18*
X88762000Y-86350000D03*
X83312000Y-86350000D03*
X88762000Y-95250000D03*
X83312000Y-95250000D03*
%TD*%
D10*
%TO.C,C7*%
X122428000Y-97523000D03*
X122428000Y-99073000D03*
%TD*%
D19*
%TO.C,R13*%
X118427000Y-103505000D03*
X116777000Y-103505000D03*
%TD*%
D20*
%TO.C,U4*%
X96028115Y-89421688D03*
X96028115Y-90371688D03*
X96028115Y-91321688D03*
X98303115Y-91321688D03*
X98303115Y-90371688D03*
X98303115Y-89421688D03*
%TD*%
D11*
%TO.C,C15*%
X96520000Y-98552000D03*
X96520000Y-97002000D03*
%TD*%
D14*
%TO.C,R7*%
X106934000Y-73556500D03*
X106934000Y-71731500D03*
%TD*%
D21*
%TO.C,C1*%
X110985000Y-76962000D03*
X112535000Y-76962000D03*
%TD*%
D14*
%TO.C,R6*%
X104521000Y-73556500D03*
X104521000Y-71731500D03*
%TD*%
%TO.C,R9*%
X99568000Y-73556500D03*
X99568000Y-71731500D03*
%TD*%
D22*
%TO.C,D1*%
X133024000Y-74930000D03*
X134899000Y-74930000D03*
%TD*%
D23*
%TO.C,D3*%
X97457500Y-79502000D03*
X95582500Y-79502000D03*
%TD*%
D24*
%TO.C,U3*%
X119014000Y-85916000D03*
X119014000Y-86716000D03*
X119014000Y-87516000D03*
X119014000Y-88316000D03*
X119014000Y-89116000D03*
X119014000Y-89916000D03*
X119014000Y-90716000D03*
X119014000Y-91516000D03*
X119014000Y-92316000D03*
X119014000Y-93116000D03*
X119014000Y-93916000D03*
D25*
X120714000Y-95616000D03*
X121514000Y-95616000D03*
X122314000Y-95616000D03*
X123114000Y-95616000D03*
X123914000Y-95616000D03*
X124714000Y-95616000D03*
X125514000Y-95616000D03*
X126314000Y-95616000D03*
X127114000Y-95616000D03*
X127914000Y-95616000D03*
X128714000Y-95616000D03*
D24*
X130414000Y-93916000D03*
X130414000Y-93116000D03*
X130414000Y-92316000D03*
X130414000Y-91516000D03*
X130414000Y-90716000D03*
X130414000Y-89916000D03*
X130414000Y-89116000D03*
X130414000Y-88316000D03*
X130414000Y-87516000D03*
X130414000Y-86716000D03*
X130414000Y-85916000D03*
D25*
X128714000Y-84216000D03*
X127914000Y-84216000D03*
X127114000Y-84216000D03*
X126314000Y-84216000D03*
X125514000Y-84216000D03*
X124714000Y-84216000D03*
X123914000Y-84216000D03*
X123114000Y-84216000D03*
X122314000Y-84216000D03*
X121514000Y-84216000D03*
X120714000Y-84216000D03*
%TD*%
D13*
%TO.C,C11*%
X120409000Y-82296000D03*
X118859000Y-82296000D03*
%TD*%
D26*
%TO.C,R15*%
X91631911Y-89635905D03*
X93281911Y-89635905D03*
%TD*%
D27*
%TO.C,U5*%
X100264000Y-96144500D03*
X99314000Y-96144500D03*
X98364000Y-96144500D03*
X98364000Y-98419500D03*
X100264000Y-98419500D03*
%TD*%
D26*
%TO.C,R14*%
X91631000Y-91186000D03*
X93281000Y-91186000D03*
%TD*%
D10*
%TO.C,C5*%
X132321000Y-93218000D03*
X132321000Y-94768000D03*
%TD*%
%TO.C,C3*%
X121920000Y-102984000D03*
X121920000Y-104534000D03*
%TD*%
%TO.C,C14*%
X102108000Y-98399000D03*
X102108000Y-99949000D03*
%TD*%
D14*
%TO.C,R5*%
X114808000Y-73556500D03*
X114808000Y-71731500D03*
%TD*%
D19*
%TO.C,R16*%
X97345000Y-81788000D03*
X95695000Y-81788000D03*
%TD*%
D28*
%TO.C,U2*%
X103309500Y-77227000D03*
X103309500Y-77877000D03*
X103309500Y-78527000D03*
X103309500Y-79177000D03*
X103309500Y-79827000D03*
X103309500Y-80477000D03*
X103309500Y-81127000D03*
X103309500Y-81777000D03*
X109034500Y-81777000D03*
X109034500Y-81127000D03*
X109034500Y-80477000D03*
X109034500Y-79827000D03*
X109034500Y-79177000D03*
X109034500Y-78527000D03*
X109034500Y-77877000D03*
X109034500Y-77227000D03*
%TD*%
D29*
%TO.C,S1*%
X159169000Y-89749000D03*
X144869000Y-89749000D03*
X159169000Y-84749000D03*
X144869000Y-84749000D03*
%TD*%
D30*
%TO.C,R1*%
X141351000Y-84812500D03*
X141351000Y-86637500D03*
%TD*%
D11*
%TO.C,C13*%
X102108000Y-96038000D03*
X102108000Y-94488000D03*
%TD*%
D14*
%TO.C,R12*%
X112141000Y-73556500D03*
X112141000Y-71731500D03*
%TD*%
D31*
%TO.C,F1*%
X92858500Y-84836000D03*
X97133500Y-84836000D03*
%TD*%
D21*
%TO.C,C4*%
X128778000Y-82296000D03*
X130328000Y-82296000D03*
%TD*%
D32*
%TO.C,R3*%
X133049000Y-77089000D03*
X134874000Y-77089000D03*
%TD*%
D13*
%TO.C,C9*%
X117094000Y-89408000D03*
X115544000Y-89408000D03*
%TD*%
D14*
%TO.C,R10*%
X97028000Y-73556500D03*
X97028000Y-71731500D03*
%TD*%
D30*
%TO.C,R2*%
X141351000Y-99544500D03*
X141351000Y-101369500D03*
%TD*%
D33*
%TO.C,C8*%
X116840000Y-84897000D03*
X116840000Y-82997000D03*
%TD*%
D29*
%TO.C,S2*%
X159169000Y-104481000D03*
X144869000Y-104481000D03*
X159169000Y-99481000D03*
X144869000Y-99481000D03*
%TD*%
D32*
%TO.C,R4*%
X140106000Y-77089000D03*
X141931000Y-77089000D03*
%TD*%
D14*
%TO.C,R11*%
X109368612Y-73559151D03*
X109368612Y-71734151D03*
%TD*%
D22*
%TO.C,D2*%
X140081000Y-74803000D03*
X141956000Y-74803000D03*
%TD*%
M02*
