M48
; DRILL file {KiCad 7.0.1} date Wed Apr  5 02:41:19 2023
; FORMAT={-:-/ absolute / inch / decimal}
; #@! TF.CreationDate,2023-04-05T02:41:19-06:00
; #@! TF.GenerationSoftware,Kicad,Pcbnew,7.0.1
; #@! TF.FileFunction,Plated,1,2,PTH
FMAT,2
INCH
; #@! TA.AperFunction,Plated,PTH,ViaDrill
T1C0.0157
; #@! TA.AperFunction,Plated,PTH,ComponentDrill
T2C0.0394
%
G90
G05
T1
X3.555Y-3.64
X3.7373Y-3.558
X3.8Y-3.785
X3.875Y-3.13
X3.91Y-3.74
X4.02Y-3.22
X4.02Y-3.3
X4.055Y-2.385
X4.055Y-3.72
X4.055Y-3.935
X4.06Y-3.38
X4.165Y-2.385
X4.19Y-2.13
X4.19Y-2.2
X4.2458Y-3.1176
X4.26Y-3.505
X4.375Y-3.6901
X4.39Y-2.125
X4.39Y-2.2
X4.405Y-3.72
X4.42Y-3.645
X4.447Y-3.678
X4.465Y-3.03
X4.49Y-2.125
X4.49Y-2.2
X4.5129Y-3.5202
X4.5131Y-3.5803
X4.515Y-3.3088
X4.515Y-3.41
X4.5535Y-3.2672
X4.58Y-3.74
X4.605Y-4.26
X4.615Y-2.61
X4.6786Y-3.2039
X4.68Y-3.335
X4.7339Y-3.5083
X4.7639Y-4.1153
X4.79Y-3.375
X4.82Y-3.935
X4.845Y-3.18
X4.846Y-3.7155
X4.8725Y-4.1742
X4.9376Y-3.9966
X5.03Y-3.37
X5.0463Y-4.0491
X5.0869Y-3.7046
X5.09Y-3.85
X5.13Y-3.205
X5.13Y-3.955
X5.1416Y-3.3541
X5.175Y-3.845
X5.175Y-3.955
X5.18Y-3.185
X5.195Y-3.14
X5.203Y-3.413
X5.205Y-3.09
X5.235Y-2.905
X5.245Y-3.73
X5.2658Y-3.105
X5.305Y-3.57
X5.31Y-3.14
X5.335Y-2.705
X5.36Y-3.185
X5.365Y-3.085
X5.395Y-2.765
X5.41Y-3.57
X5.475Y-3.63
X5.475Y-3.715
X5.5128Y-2.9
X5.52Y-3.41
X5.52Y-3.99
T2
X3.4146Y-4.0658
X3.4146Y-4.1658
X3.5146Y-4.0658
X3.5146Y-4.1658
X3.6146Y-4.0658
X3.6146Y-4.1658
X3.7146Y-4.0658
X3.7146Y-4.1658
X3.99Y-2.01
X3.99Y-2.61
X4.09Y-2.01
X4.09Y-2.61
X4.19Y-2.01
X4.19Y-2.61
X4.2544Y-3.8308
X4.2544Y-3.9308
X4.29Y-2.01
X4.29Y-2.61
X4.3544Y-3.8308
X4.3544Y-3.9308
X4.39Y-2.01
X4.39Y-2.61
X4.4544Y-3.8308
X4.4544Y-3.9308
X4.49Y-2.01
X4.49Y-2.61
X5.8504Y-2.865
X6.1496Y-2.865
T0
M30
