%TF.GenerationSoftware,KiCad,Pcbnew,8.0.2*%
%TF.CreationDate,2024-06-30T02:03:35-06:00*%
%TF.ProjectId,2024_June_RP2040,32303234-5f4a-4756-9e65-5f5250323034,rev?*%
%TF.SameCoordinates,Original*%
%TF.FileFunction,Soldermask,Top*%
%TF.FilePolarity,Negative*%
%FSLAX46Y46*%
G04 Gerber Fmt 4.6, Leading zero omitted, Abs format (unit mm)*
G04 Created by KiCad (PCBNEW 8.0.2) date 2024-06-30 02:03:35*
%MOMM*%
%LPD*%
G01*
G04 APERTURE LIST*
G04 Aperture macros list*
%AMRoundRect*
0 Rectangle with rounded corners*
0 $1 Rounding radius*
0 $2 $3 $4 $5 $6 $7 $8 $9 X,Y pos of 4 corners*
0 Add a 4 corners polygon primitive as box body*
4,1,4,$2,$3,$4,$5,$6,$7,$8,$9,$2,$3,0*
0 Add four circle primitives for the rounded corners*
1,1,$1+$1,$2,$3*
1,1,$1+$1,$4,$5*
1,1,$1+$1,$6,$7*
1,1,$1+$1,$8,$9*
0 Add four rect primitives between the rounded corners*
20,1,$1+$1,$2,$3,$4,$5,0*
20,1,$1+$1,$4,$5,$6,$7,0*
20,1,$1+$1,$6,$7,$8,$9,0*
20,1,$1+$1,$8,$9,$2,$3,0*%
G04 Aperture macros list end*
%ADD10C,0.010000*%
%ADD11RoundRect,0.160000X-0.197500X-0.160000X0.197500X-0.160000X0.197500X0.160000X-0.197500X0.160000X0*%
%ADD12RoundRect,0.160000X0.222500X0.160000X-0.222500X0.160000X-0.222500X-0.160000X0.222500X-0.160000X0*%
%ADD13R,1.700000X1.700000*%
%ADD14O,1.700000X1.700000*%
%ADD15RoundRect,0.160000X-0.160000X0.197500X-0.160000X-0.197500X0.160000X-0.197500X0.160000X0.197500X0*%
%ADD16RoundRect,0.155000X0.155000X-0.212500X0.155000X0.212500X-0.155000X0.212500X-0.155000X-0.212500X0*%
%ADD17RoundRect,0.155000X-0.155000X0.212500X-0.155000X-0.212500X0.155000X-0.212500X0.155000X0.212500X0*%
%ADD18R,1.050000X1.300000*%
%ADD19RoundRect,0.160000X0.197500X0.160000X-0.197500X0.160000X-0.197500X-0.160000X0.197500X-0.160000X0*%
%ADD20RoundRect,0.155000X0.212500X0.155000X-0.212500X0.155000X-0.212500X-0.155000X0.212500X-0.155000X0*%
%ADD21RoundRect,0.150000X0.650000X0.150000X-0.650000X0.150000X-0.650000X-0.150000X0.650000X-0.150000X0*%
%ADD22RoundRect,0.102000X-0.675000X0.200000X-0.675000X-0.200000X0.675000X-0.200000X0.675000X0.200000X0*%
%ADD23O,1.004000X1.804000*%
%ADD24O,1.704000X0.954000*%
%ADD25RoundRect,0.102000X-0.775000X0.750000X-0.775000X-0.750000X0.775000X-0.750000X0.775000X0.750000X0*%
%ADD26RoundRect,0.155000X-0.212500X-0.155000X0.212500X-0.155000X0.212500X0.155000X-0.212500X0.155000X0*%
%ADD27RoundRect,0.050000X0.050000X-0.387500X0.050000X0.387500X-0.050000X0.387500X-0.050000X-0.387500X0*%
%ADD28RoundRect,0.050000X0.387500X-0.050000X0.387500X0.050000X-0.387500X0.050000X-0.387500X-0.050000X0*%
%ADD29R,3.200000X3.200000*%
%ADD30RoundRect,0.375000X-0.625000X-0.375000X0.625000X-0.375000X0.625000X0.375000X-0.625000X0.375000X0*%
%ADD31RoundRect,0.500000X-0.500000X-1.400000X0.500000X-1.400000X0.500000X1.400000X-0.500000X1.400000X0*%
%ADD32RoundRect,0.250000X0.475000X-0.337500X0.475000X0.337500X-0.475000X0.337500X-0.475000X-0.337500X0*%
G04 APERTURE END LIST*
D10*
%TO.C,J2*%
X86194600Y-64800800D02*
X86220600Y-64802800D01*
X86246600Y-64805800D01*
X86272600Y-64810800D01*
X86297600Y-64816800D01*
X86323600Y-64823800D01*
X86347600Y-64832800D01*
X86371600Y-64842800D01*
X86395600Y-64853800D01*
X86418600Y-64866800D01*
X86440600Y-64880800D01*
X86462600Y-64894800D01*
X86483600Y-64910800D01*
X86503600Y-64927800D01*
X86522600Y-64945800D01*
X86540600Y-64964800D01*
X86557600Y-64984800D01*
X86573600Y-65005800D01*
X86587600Y-65027800D01*
X86601600Y-65049800D01*
X86614600Y-65072800D01*
X86625600Y-65096800D01*
X86635600Y-65120800D01*
X86644600Y-65144800D01*
X86651600Y-65170800D01*
X86657600Y-65195800D01*
X86662600Y-65221800D01*
X86665600Y-65247800D01*
X86667600Y-65273800D01*
X86668600Y-65299800D01*
X86668600Y-66644800D01*
X84918600Y-66644800D01*
X84918600Y-65299800D01*
X84919600Y-65273800D01*
X84921600Y-65247800D01*
X84924600Y-65221800D01*
X84929600Y-65195800D01*
X84935600Y-65170800D01*
X84942600Y-65144800D01*
X84951600Y-65120800D01*
X84961600Y-65096800D01*
X84972600Y-65072800D01*
X84985600Y-65049800D01*
X84999600Y-65027800D01*
X85013600Y-65005800D01*
X85029600Y-64984800D01*
X85046600Y-64964800D01*
X85064600Y-64945800D01*
X85083600Y-64927800D01*
X85103600Y-64910800D01*
X85124600Y-64894800D01*
X85146600Y-64880800D01*
X85168600Y-64866800D01*
X85191600Y-64853800D01*
X85215600Y-64842800D01*
X85239600Y-64832800D01*
X85263600Y-64823800D01*
X85289600Y-64816800D01*
X85314600Y-64810800D01*
X85340600Y-64805800D01*
X85366600Y-64802800D01*
X85392600Y-64800800D01*
X85418600Y-64799800D01*
X86168600Y-64799800D01*
X86194600Y-64800800D01*
G36*
X86194600Y-64800800D02*
G01*
X86220600Y-64802800D01*
X86246600Y-64805800D01*
X86272600Y-64810800D01*
X86297600Y-64816800D01*
X86323600Y-64823800D01*
X86347600Y-64832800D01*
X86371600Y-64842800D01*
X86395600Y-64853800D01*
X86418600Y-64866800D01*
X86440600Y-64880800D01*
X86462600Y-64894800D01*
X86483600Y-64910800D01*
X86503600Y-64927800D01*
X86522600Y-64945800D01*
X86540600Y-64964800D01*
X86557600Y-64984800D01*
X86573600Y-65005800D01*
X86587600Y-65027800D01*
X86601600Y-65049800D01*
X86614600Y-65072800D01*
X86625600Y-65096800D01*
X86635600Y-65120800D01*
X86644600Y-65144800D01*
X86651600Y-65170800D01*
X86657600Y-65195800D01*
X86662600Y-65221800D01*
X86665600Y-65247800D01*
X86667600Y-65273800D01*
X86668600Y-65299800D01*
X86668600Y-66644800D01*
X84918600Y-66644800D01*
X84918600Y-65299800D01*
X84919600Y-65273800D01*
X84921600Y-65247800D01*
X84924600Y-65221800D01*
X84929600Y-65195800D01*
X84935600Y-65170800D01*
X84942600Y-65144800D01*
X84951600Y-65120800D01*
X84961600Y-65096800D01*
X84972600Y-65072800D01*
X84985600Y-65049800D01*
X84999600Y-65027800D01*
X85013600Y-65005800D01*
X85029600Y-64984800D01*
X85046600Y-64964800D01*
X85064600Y-64945800D01*
X85083600Y-64927800D01*
X85103600Y-64910800D01*
X85124600Y-64894800D01*
X85146600Y-64880800D01*
X85168600Y-64866800D01*
X85191600Y-64853800D01*
X85215600Y-64842800D01*
X85239600Y-64832800D01*
X85263600Y-64823800D01*
X85289600Y-64816800D01*
X85314600Y-64810800D01*
X85340600Y-64805800D01*
X85366600Y-64802800D01*
X85392600Y-64800800D01*
X85418600Y-64799800D01*
X86168600Y-64799800D01*
X86194600Y-64800800D01*
G37*
X86668600Y-72389800D02*
X86667600Y-72415800D01*
X86665600Y-72441800D01*
X86662600Y-72467800D01*
X86657600Y-72493800D01*
X86651600Y-72518800D01*
X86644600Y-72544800D01*
X86635600Y-72568800D01*
X86625600Y-72592800D01*
X86614600Y-72616800D01*
X86601600Y-72639800D01*
X86587600Y-72661800D01*
X86573600Y-72683800D01*
X86557600Y-72704800D01*
X86540600Y-72724800D01*
X86522600Y-72743800D01*
X86503600Y-72761800D01*
X86483600Y-72778800D01*
X86462600Y-72794800D01*
X86440600Y-72808800D01*
X86418600Y-72822800D01*
X86395600Y-72835800D01*
X86371600Y-72846800D01*
X86347600Y-72856800D01*
X86323600Y-72865800D01*
X86297600Y-72872800D01*
X86272600Y-72878800D01*
X86246600Y-72883800D01*
X86220600Y-72886800D01*
X86194600Y-72888800D01*
X86168600Y-72889800D01*
X85418600Y-72889800D01*
X85392600Y-72888800D01*
X85366600Y-72886800D01*
X85340600Y-72883800D01*
X85314600Y-72878800D01*
X85289600Y-72872800D01*
X85263600Y-72865800D01*
X85239600Y-72856800D01*
X85215600Y-72846800D01*
X85191600Y-72835800D01*
X85168600Y-72822800D01*
X85146600Y-72808800D01*
X85124600Y-72794800D01*
X85103600Y-72778800D01*
X85083600Y-72761800D01*
X85064600Y-72743800D01*
X85046600Y-72724800D01*
X85029600Y-72704800D01*
X85013600Y-72683800D01*
X84999600Y-72661800D01*
X84985600Y-72639800D01*
X84972600Y-72616800D01*
X84961600Y-72592800D01*
X84951600Y-72568800D01*
X84942600Y-72544800D01*
X84935600Y-72518800D01*
X84929600Y-72493800D01*
X84924600Y-72467800D01*
X84921600Y-72441800D01*
X84919600Y-72415800D01*
X84918600Y-72389800D01*
X84918600Y-71044800D01*
X86668600Y-71044800D01*
X86668600Y-72389800D01*
G36*
X86668600Y-72389800D02*
G01*
X86667600Y-72415800D01*
X86665600Y-72441800D01*
X86662600Y-72467800D01*
X86657600Y-72493800D01*
X86651600Y-72518800D01*
X86644600Y-72544800D01*
X86635600Y-72568800D01*
X86625600Y-72592800D01*
X86614600Y-72616800D01*
X86601600Y-72639800D01*
X86587600Y-72661800D01*
X86573600Y-72683800D01*
X86557600Y-72704800D01*
X86540600Y-72724800D01*
X86522600Y-72743800D01*
X86503600Y-72761800D01*
X86483600Y-72778800D01*
X86462600Y-72794800D01*
X86440600Y-72808800D01*
X86418600Y-72822800D01*
X86395600Y-72835800D01*
X86371600Y-72846800D01*
X86347600Y-72856800D01*
X86323600Y-72865800D01*
X86297600Y-72872800D01*
X86272600Y-72878800D01*
X86246600Y-72883800D01*
X86220600Y-72886800D01*
X86194600Y-72888800D01*
X86168600Y-72889800D01*
X85418600Y-72889800D01*
X85392600Y-72888800D01*
X85366600Y-72886800D01*
X85340600Y-72883800D01*
X85314600Y-72878800D01*
X85289600Y-72872800D01*
X85263600Y-72865800D01*
X85239600Y-72856800D01*
X85215600Y-72846800D01*
X85191600Y-72835800D01*
X85168600Y-72822800D01*
X85146600Y-72808800D01*
X85124600Y-72794800D01*
X85103600Y-72778800D01*
X85083600Y-72761800D01*
X85064600Y-72743800D01*
X85046600Y-72724800D01*
X85029600Y-72704800D01*
X85013600Y-72683800D01*
X84999600Y-72661800D01*
X84985600Y-72639800D01*
X84972600Y-72616800D01*
X84961600Y-72592800D01*
X84951600Y-72568800D01*
X84942600Y-72544800D01*
X84935600Y-72518800D01*
X84929600Y-72493800D01*
X84924600Y-72467800D01*
X84921600Y-72441800D01*
X84919600Y-72415800D01*
X84918600Y-72389800D01*
X84918600Y-71044800D01*
X86668600Y-71044800D01*
X86668600Y-72389800D01*
G37*
%TD*%
D11*
%TO.C,R6*%
X120789100Y-76301600D03*
X121984100Y-76301600D03*
%TD*%
D12*
%TO.C,D1*%
X120802000Y-75133200D03*
X121947000Y-75133200D03*
%TD*%
D13*
%TO.C,J5*%
X128778000Y-63677800D03*
D14*
X131318000Y-63677800D03*
X133858000Y-63677800D03*
%TD*%
D13*
%TO.C,J4*%
X100253800Y-57759600D03*
D14*
X102793800Y-57759600D03*
X105333800Y-57759600D03*
X107873800Y-57759600D03*
X110413800Y-57759600D03*
X112953800Y-57759600D03*
X115493800Y-57759600D03*
X118033800Y-57759600D03*
X120573800Y-57759600D03*
X123113800Y-57759600D03*
X125653800Y-57759600D03*
X128193800Y-57759600D03*
X130733800Y-57759600D03*
X133273800Y-57759600D03*
X135813800Y-57759600D03*
%TD*%
D13*
%TO.C,J3*%
X100253800Y-82759600D03*
D14*
X102793800Y-82759600D03*
X105333800Y-82759600D03*
X107873800Y-82759600D03*
X110413800Y-82759600D03*
X112953800Y-82759600D03*
X115493800Y-82759600D03*
X118033800Y-82759600D03*
X120573800Y-82759600D03*
X123113800Y-82759600D03*
X125653800Y-82759600D03*
X128193800Y-82759600D03*
X130733800Y-82759600D03*
X133273800Y-82759600D03*
X135813800Y-82759600D03*
%TD*%
D15*
%TO.C,R5*%
X124965400Y-70674900D03*
X124965400Y-71869900D03*
%TD*%
D16*
%TO.C,C17*%
X126212600Y-74227500D03*
X126212600Y-73092500D03*
%TD*%
D17*
%TO.C,C16*%
X126184600Y-70696200D03*
X126184600Y-71831200D03*
%TD*%
D18*
%TO.C,Y2*%
X128574800Y-74142600D03*
X128574800Y-71842600D03*
X130324800Y-71842600D03*
X130324800Y-74142600D03*
%TD*%
D19*
%TO.C,R4*%
X107137900Y-68046600D03*
X105942900Y-68046600D03*
%TD*%
%TO.C,R3*%
X105955500Y-69164200D03*
X107150500Y-69164200D03*
%TD*%
D11*
%TO.C,R2*%
X102170900Y-79248000D03*
X103365900Y-79248000D03*
%TD*%
D19*
%TO.C,R1*%
X107377900Y-79273400D03*
X108572900Y-79273400D03*
%TD*%
D13*
%TO.C,J1*%
X95580200Y-75844400D03*
D14*
X95580200Y-78384400D03*
%TD*%
D20*
%TO.C,C11*%
X98365500Y-77622400D03*
X99500500Y-77622400D03*
%TD*%
D21*
%TO.C,U3*%
X108476600Y-77597000D03*
X108476600Y-76327000D03*
X108476600Y-75057000D03*
X108476600Y-73787000D03*
X101276600Y-73787000D03*
X101276600Y-75057000D03*
X101276600Y-76327000D03*
X101276600Y-77597000D03*
%TD*%
D22*
%TO.C,J2*%
X88468600Y-67544800D03*
X88468600Y-68194800D03*
X88468600Y-68844800D03*
X88468600Y-69494800D03*
X88468600Y-70144800D03*
D23*
X88493600Y-66344800D03*
X88493600Y-71344800D03*
D24*
X85793600Y-65319800D03*
D25*
X85793600Y-67844800D03*
X85793600Y-69844800D03*
D24*
X85793600Y-72369800D03*
%TD*%
D20*
%TO.C,C15*%
X108796200Y-70739000D03*
X109931200Y-70739000D03*
%TD*%
D26*
%TO.C,C14*%
X122351800Y-68478400D03*
X123486800Y-68478400D03*
%TD*%
D27*
%TO.C,U2*%
X113376400Y-73236700D03*
X113776400Y-73236700D03*
X114176400Y-73236700D03*
X114576400Y-73236700D03*
X114976400Y-73236700D03*
X115376400Y-73236700D03*
X115776400Y-73236700D03*
X116176400Y-73236700D03*
X116576400Y-73236700D03*
X116976400Y-73236700D03*
X117376400Y-73236700D03*
X117776400Y-73236700D03*
X118176400Y-73236700D03*
X118576400Y-73236700D03*
D28*
X119413900Y-72399200D03*
X119413900Y-71999200D03*
X119413900Y-71599200D03*
X119413900Y-71199200D03*
X119413900Y-70799200D03*
X119413900Y-70399200D03*
X119413900Y-69999200D03*
X119413900Y-69599200D03*
X119413900Y-69199200D03*
X119413900Y-68799200D03*
X119413900Y-68399200D03*
X119413900Y-67999200D03*
X119413900Y-67599200D03*
X119413900Y-67199200D03*
D27*
X118576400Y-66361700D03*
X118176400Y-66361700D03*
X117776400Y-66361700D03*
X117376400Y-66361700D03*
X116976400Y-66361700D03*
X116576400Y-66361700D03*
X116176400Y-66361700D03*
X115776400Y-66361700D03*
X115376400Y-66361700D03*
X114976400Y-66361700D03*
X114576400Y-66361700D03*
X114176400Y-66361700D03*
X113776400Y-66361700D03*
X113376400Y-66361700D03*
D28*
X112538900Y-67199200D03*
X112538900Y-67599200D03*
X112538900Y-67999200D03*
X112538900Y-68399200D03*
X112538900Y-68799200D03*
X112538900Y-69199200D03*
X112538900Y-69599200D03*
X112538900Y-69999200D03*
X112538900Y-70399200D03*
X112538900Y-70799200D03*
X112538900Y-71199200D03*
X112538900Y-71599200D03*
X112538900Y-71999200D03*
X112538900Y-72399200D03*
D29*
X115976400Y-69799200D03*
%TD*%
D30*
%TO.C,U1*%
X92176200Y-65913700D03*
D31*
X98476200Y-63613700D03*
D30*
X92176200Y-63613700D03*
X92176200Y-61313700D03*
%TD*%
D20*
%TO.C,C13*%
X109084300Y-65608200D03*
X110219300Y-65608200D03*
%TD*%
D26*
%TO.C,C12*%
X109084300Y-66776600D03*
X110219300Y-66776600D03*
%TD*%
%TO.C,C9*%
X122351800Y-69596000D03*
X123486800Y-69596000D03*
%TD*%
D20*
%TO.C,C8*%
X109931200Y-69621400D03*
X108796200Y-69621400D03*
%TD*%
%TO.C,C7*%
X112937100Y-74650600D03*
X111802100Y-74650600D03*
%TD*%
D17*
%TO.C,C6*%
X117246400Y-75073700D03*
X117246400Y-76208700D03*
%TD*%
D16*
%TO.C,C5*%
X117246400Y-64312800D03*
X117246400Y-63177800D03*
%TD*%
%TO.C,C4*%
X112750600Y-64778700D03*
X112750600Y-63643700D03*
%TD*%
%TO.C,C3*%
X111582200Y-63643700D03*
X111582200Y-64778700D03*
%TD*%
D32*
%TO.C,C2*%
X101269800Y-62056100D03*
X101269800Y-64131100D03*
%TD*%
%TO.C,C1*%
X89204800Y-63165900D03*
X89204800Y-61090900D03*
%TD*%
M02*
