%TF.GenerationSoftware,KiCad,Pcbnew,8.0.2*%
%TF.CreationDate,2024-06-30T02:03:35-06:00*%
%TF.ProjectId,2024_June_RP2040,32303234-5f4a-4756-9e65-5f5250323034,rev?*%
%TF.SameCoordinates,Original*%
%TF.FileFunction,Paste,Top*%
%TF.FilePolarity,Positive*%
%FSLAX46Y46*%
G04 Gerber Fmt 4.6, Leading zero omitted, Abs format (unit mm)*
G04 Created by KiCad (PCBNEW 8.0.2) date 2024-06-30 02:03:35*
%MOMM*%
%LPD*%
G01*
G04 APERTURE LIST*
G04 Aperture macros list*
%AMRoundRect*
0 Rectangle with rounded corners*
0 $1 Rounding radius*
0 $2 $3 $4 $5 $6 $7 $8 $9 X,Y pos of 4 corners*
0 Add a 4 corners polygon primitive as box body*
4,1,4,$2,$3,$4,$5,$6,$7,$8,$9,$2,$3,0*
0 Add four circle primitives for the rounded corners*
1,1,$1+$1,$2,$3*
1,1,$1+$1,$4,$5*
1,1,$1+$1,$6,$7*
1,1,$1+$1,$8,$9*
0 Add four rect primitives between the rounded corners*
20,1,$1+$1,$2,$3,$4,$5,0*
20,1,$1+$1,$4,$5,$6,$7,0*
20,1,$1+$1,$6,$7,$8,$9,0*
20,1,$1+$1,$8,$9,$2,$3,0*%
G04 Aperture macros list end*
%ADD10C,0.010000*%
%ADD11RoundRect,0.160000X-0.197500X-0.160000X0.197500X-0.160000X0.197500X0.160000X-0.197500X0.160000X0*%
%ADD12RoundRect,0.160000X0.222500X0.160000X-0.222500X0.160000X-0.222500X-0.160000X0.222500X-0.160000X0*%
%ADD13RoundRect,0.160000X-0.160000X0.197500X-0.160000X-0.197500X0.160000X-0.197500X0.160000X0.197500X0*%
%ADD14RoundRect,0.155000X0.155000X-0.212500X0.155000X0.212500X-0.155000X0.212500X-0.155000X-0.212500X0*%
%ADD15RoundRect,0.155000X-0.155000X0.212500X-0.155000X-0.212500X0.155000X-0.212500X0.155000X0.212500X0*%
%ADD16R,1.050000X1.300000*%
%ADD17RoundRect,0.160000X0.197500X0.160000X-0.197500X0.160000X-0.197500X-0.160000X0.197500X-0.160000X0*%
%ADD18RoundRect,0.155000X0.212500X0.155000X-0.212500X0.155000X-0.212500X-0.155000X0.212500X-0.155000X0*%
%ADD19RoundRect,0.150000X0.650000X0.150000X-0.650000X0.150000X-0.650000X-0.150000X0.650000X-0.150000X0*%
%ADD20R,1.350000X0.400000*%
%ADD21R,1.550000X1.500000*%
%ADD22RoundRect,0.155000X-0.212500X-0.155000X0.212500X-0.155000X0.212500X0.155000X-0.212500X0.155000X0*%
%ADD23RoundRect,0.249999X0.395001X-0.395001X0.395001X0.395001X-0.395001X0.395001X-0.395001X-0.395001X0*%
%ADD24RoundRect,0.050000X0.050000X-0.387500X0.050000X0.387500X-0.050000X0.387500X-0.050000X-0.387500X0*%
%ADD25RoundRect,0.050000X0.387500X-0.050000X0.387500X0.050000X-0.387500X0.050000X-0.387500X-0.050000X0*%
%ADD26RoundRect,0.375000X-0.625000X-0.375000X0.625000X-0.375000X0.625000X0.375000X-0.625000X0.375000X0*%
%ADD27RoundRect,0.500000X-0.500000X-1.400000X0.500000X-1.400000X0.500000X1.400000X-0.500000X1.400000X0*%
%ADD28RoundRect,0.250000X0.475000X-0.337500X0.475000X0.337500X-0.475000X0.337500X-0.475000X-0.337500X0*%
G04 APERTURE END LIST*
D10*
%TO.C,J2*%
X86094600Y-64900800D02*
X86120600Y-64902800D01*
X86146600Y-64905800D01*
X86172600Y-64910800D01*
X86197600Y-64916800D01*
X86223600Y-64923800D01*
X86247600Y-64932800D01*
X86271600Y-64942800D01*
X86295600Y-64953800D01*
X86318600Y-64966800D01*
X86340600Y-64980800D01*
X86362600Y-64994800D01*
X86383600Y-65010800D01*
X86403600Y-65027800D01*
X86422600Y-65045800D01*
X86440600Y-65064800D01*
X86457600Y-65084800D01*
X86473600Y-65105800D01*
X86487600Y-65127800D01*
X86501600Y-65149800D01*
X86514600Y-65172800D01*
X86525600Y-65196800D01*
X86535600Y-65220800D01*
X86544600Y-65244800D01*
X86551600Y-65270800D01*
X86557600Y-65295800D01*
X86562600Y-65321800D01*
X86565600Y-65347800D01*
X86567600Y-65373800D01*
X86568600Y-65399800D01*
X86568600Y-66544800D01*
X85018600Y-66544800D01*
X85018600Y-65399800D01*
X85019600Y-65373800D01*
X85021600Y-65347800D01*
X85024600Y-65321800D01*
X85029600Y-65295800D01*
X85035600Y-65270800D01*
X85042600Y-65244800D01*
X85051600Y-65220800D01*
X85061600Y-65196800D01*
X85072600Y-65172800D01*
X85085600Y-65149800D01*
X85099600Y-65127800D01*
X85113600Y-65105800D01*
X85129600Y-65084800D01*
X85146600Y-65064800D01*
X85164600Y-65045800D01*
X85183600Y-65027800D01*
X85203600Y-65010800D01*
X85224600Y-64994800D01*
X85246600Y-64980800D01*
X85268600Y-64966800D01*
X85291600Y-64953800D01*
X85315600Y-64942800D01*
X85339600Y-64932800D01*
X85363600Y-64923800D01*
X85389600Y-64916800D01*
X85414600Y-64910800D01*
X85440600Y-64905800D01*
X85466600Y-64902800D01*
X85492600Y-64900800D01*
X85518600Y-64899800D01*
X86068600Y-64899800D01*
X86094600Y-64900800D01*
G36*
X86094600Y-64900800D02*
G01*
X86120600Y-64902800D01*
X86146600Y-64905800D01*
X86172600Y-64910800D01*
X86197600Y-64916800D01*
X86223600Y-64923800D01*
X86247600Y-64932800D01*
X86271600Y-64942800D01*
X86295600Y-64953800D01*
X86318600Y-64966800D01*
X86340600Y-64980800D01*
X86362600Y-64994800D01*
X86383600Y-65010800D01*
X86403600Y-65027800D01*
X86422600Y-65045800D01*
X86440600Y-65064800D01*
X86457600Y-65084800D01*
X86473600Y-65105800D01*
X86487600Y-65127800D01*
X86501600Y-65149800D01*
X86514600Y-65172800D01*
X86525600Y-65196800D01*
X86535600Y-65220800D01*
X86544600Y-65244800D01*
X86551600Y-65270800D01*
X86557600Y-65295800D01*
X86562600Y-65321800D01*
X86565600Y-65347800D01*
X86567600Y-65373800D01*
X86568600Y-65399800D01*
X86568600Y-66544800D01*
X85018600Y-66544800D01*
X85018600Y-65399800D01*
X85019600Y-65373800D01*
X85021600Y-65347800D01*
X85024600Y-65321800D01*
X85029600Y-65295800D01*
X85035600Y-65270800D01*
X85042600Y-65244800D01*
X85051600Y-65220800D01*
X85061600Y-65196800D01*
X85072600Y-65172800D01*
X85085600Y-65149800D01*
X85099600Y-65127800D01*
X85113600Y-65105800D01*
X85129600Y-65084800D01*
X85146600Y-65064800D01*
X85164600Y-65045800D01*
X85183600Y-65027800D01*
X85203600Y-65010800D01*
X85224600Y-64994800D01*
X85246600Y-64980800D01*
X85268600Y-64966800D01*
X85291600Y-64953800D01*
X85315600Y-64942800D01*
X85339600Y-64932800D01*
X85363600Y-64923800D01*
X85389600Y-64916800D01*
X85414600Y-64910800D01*
X85440600Y-64905800D01*
X85466600Y-64902800D01*
X85492600Y-64900800D01*
X85518600Y-64899800D01*
X86068600Y-64899800D01*
X86094600Y-64900800D01*
G37*
X86568600Y-72289800D02*
X86567600Y-72315800D01*
X86565600Y-72341800D01*
X86562600Y-72367800D01*
X86557600Y-72393800D01*
X86551600Y-72418800D01*
X86544600Y-72444800D01*
X86535600Y-72468800D01*
X86525600Y-72492800D01*
X86514600Y-72516800D01*
X86501600Y-72539800D01*
X86487600Y-72561800D01*
X86473600Y-72583800D01*
X86457600Y-72604800D01*
X86440600Y-72624800D01*
X86422600Y-72643800D01*
X86403600Y-72661800D01*
X86383600Y-72678800D01*
X86362600Y-72694800D01*
X86340600Y-72708800D01*
X86318600Y-72722800D01*
X86295600Y-72735800D01*
X86271600Y-72746800D01*
X86247600Y-72756800D01*
X86223600Y-72765800D01*
X86197600Y-72772800D01*
X86172600Y-72778800D01*
X86146600Y-72783800D01*
X86120600Y-72786800D01*
X86094600Y-72788800D01*
X86068600Y-72789800D01*
X85518600Y-72789800D01*
X85492600Y-72788800D01*
X85466600Y-72786800D01*
X85440600Y-72783800D01*
X85414600Y-72778800D01*
X85389600Y-72772800D01*
X85363600Y-72765800D01*
X85339600Y-72756800D01*
X85315600Y-72746800D01*
X85291600Y-72735800D01*
X85268600Y-72722800D01*
X85246600Y-72708800D01*
X85224600Y-72694800D01*
X85203600Y-72678800D01*
X85183600Y-72661800D01*
X85164600Y-72643800D01*
X85146600Y-72624800D01*
X85129600Y-72604800D01*
X85113600Y-72583800D01*
X85099600Y-72561800D01*
X85085600Y-72539800D01*
X85072600Y-72516800D01*
X85061600Y-72492800D01*
X85051600Y-72468800D01*
X85042600Y-72444800D01*
X85035600Y-72418800D01*
X85029600Y-72393800D01*
X85024600Y-72367800D01*
X85021600Y-72341800D01*
X85019600Y-72315800D01*
X85018600Y-72289800D01*
X85018600Y-71144800D01*
X86568600Y-71144800D01*
X86568600Y-72289800D01*
G36*
X86568600Y-72289800D02*
G01*
X86567600Y-72315800D01*
X86565600Y-72341800D01*
X86562600Y-72367800D01*
X86557600Y-72393800D01*
X86551600Y-72418800D01*
X86544600Y-72444800D01*
X86535600Y-72468800D01*
X86525600Y-72492800D01*
X86514600Y-72516800D01*
X86501600Y-72539800D01*
X86487600Y-72561800D01*
X86473600Y-72583800D01*
X86457600Y-72604800D01*
X86440600Y-72624800D01*
X86422600Y-72643800D01*
X86403600Y-72661800D01*
X86383600Y-72678800D01*
X86362600Y-72694800D01*
X86340600Y-72708800D01*
X86318600Y-72722800D01*
X86295600Y-72735800D01*
X86271600Y-72746800D01*
X86247600Y-72756800D01*
X86223600Y-72765800D01*
X86197600Y-72772800D01*
X86172600Y-72778800D01*
X86146600Y-72783800D01*
X86120600Y-72786800D01*
X86094600Y-72788800D01*
X86068600Y-72789800D01*
X85518600Y-72789800D01*
X85492600Y-72788800D01*
X85466600Y-72786800D01*
X85440600Y-72783800D01*
X85414600Y-72778800D01*
X85389600Y-72772800D01*
X85363600Y-72765800D01*
X85339600Y-72756800D01*
X85315600Y-72746800D01*
X85291600Y-72735800D01*
X85268600Y-72722800D01*
X85246600Y-72708800D01*
X85224600Y-72694800D01*
X85203600Y-72678800D01*
X85183600Y-72661800D01*
X85164600Y-72643800D01*
X85146600Y-72624800D01*
X85129600Y-72604800D01*
X85113600Y-72583800D01*
X85099600Y-72561800D01*
X85085600Y-72539800D01*
X85072600Y-72516800D01*
X85061600Y-72492800D01*
X85051600Y-72468800D01*
X85042600Y-72444800D01*
X85035600Y-72418800D01*
X85029600Y-72393800D01*
X85024600Y-72367800D01*
X85021600Y-72341800D01*
X85019600Y-72315800D01*
X85018600Y-72289800D01*
X85018600Y-71144800D01*
X86568600Y-71144800D01*
X86568600Y-72289800D01*
G37*
%TD*%
D11*
%TO.C,R6*%
X120789100Y-76301600D03*
X121984100Y-76301600D03*
%TD*%
D12*
%TO.C,D1*%
X120802000Y-75133200D03*
X121947000Y-75133200D03*
%TD*%
D13*
%TO.C,R5*%
X124965400Y-70674900D03*
X124965400Y-71869900D03*
%TD*%
D14*
%TO.C,C17*%
X126212600Y-74227500D03*
X126212600Y-73092500D03*
%TD*%
D15*
%TO.C,C16*%
X126184600Y-70696200D03*
X126184600Y-71831200D03*
%TD*%
D16*
%TO.C,Y2*%
X128574800Y-74142600D03*
X128574800Y-71842600D03*
X130324800Y-71842600D03*
X130324800Y-74142600D03*
%TD*%
D17*
%TO.C,R4*%
X107137900Y-68046600D03*
X105942900Y-68046600D03*
%TD*%
%TO.C,R3*%
X105955500Y-69164200D03*
X107150500Y-69164200D03*
%TD*%
D11*
%TO.C,R2*%
X102170900Y-79248000D03*
X103365900Y-79248000D03*
%TD*%
D17*
%TO.C,R1*%
X107377900Y-79273400D03*
X108572900Y-79273400D03*
%TD*%
D18*
%TO.C,C11*%
X98365500Y-77622400D03*
X99500500Y-77622400D03*
%TD*%
D19*
%TO.C,U3*%
X108476600Y-77597000D03*
X108476600Y-76327000D03*
X108476600Y-75057000D03*
X108476600Y-73787000D03*
X101276600Y-73787000D03*
X101276600Y-75057000D03*
X101276600Y-76327000D03*
X101276600Y-77597000D03*
%TD*%
D20*
%TO.C,J2*%
X88468600Y-67544800D03*
X88468600Y-68194800D03*
X88468600Y-68844800D03*
X88468600Y-69494800D03*
X88468600Y-70144800D03*
D21*
X85793600Y-67844800D03*
X85793600Y-69844800D03*
%TD*%
D18*
%TO.C,C15*%
X108796200Y-70739000D03*
X109931200Y-70739000D03*
%TD*%
D22*
%TO.C,C14*%
X122351800Y-68478400D03*
X123486800Y-68478400D03*
%TD*%
D23*
%TO.C,U2*%
X115176400Y-70599200D03*
X116776400Y-70599200D03*
X115176400Y-68999200D03*
X116776400Y-68999200D03*
D24*
X113376400Y-73236700D03*
X113776400Y-73236700D03*
X114176400Y-73236700D03*
X114576400Y-73236700D03*
X114976400Y-73236700D03*
X115376400Y-73236700D03*
X115776400Y-73236700D03*
X116176400Y-73236700D03*
X116576400Y-73236700D03*
X116976400Y-73236700D03*
X117376400Y-73236700D03*
X117776400Y-73236700D03*
X118176400Y-73236700D03*
X118576400Y-73236700D03*
D25*
X119413900Y-72399200D03*
X119413900Y-71999200D03*
X119413900Y-71599200D03*
X119413900Y-71199200D03*
X119413900Y-70799200D03*
X119413900Y-70399200D03*
X119413900Y-69999200D03*
X119413900Y-69599200D03*
X119413900Y-69199200D03*
X119413900Y-68799200D03*
X119413900Y-68399200D03*
X119413900Y-67999200D03*
X119413900Y-67599200D03*
X119413900Y-67199200D03*
D24*
X118576400Y-66361700D03*
X118176400Y-66361700D03*
X117776400Y-66361700D03*
X117376400Y-66361700D03*
X116976400Y-66361700D03*
X116576400Y-66361700D03*
X116176400Y-66361700D03*
X115776400Y-66361700D03*
X115376400Y-66361700D03*
X114976400Y-66361700D03*
X114576400Y-66361700D03*
X114176400Y-66361700D03*
X113776400Y-66361700D03*
X113376400Y-66361700D03*
D25*
X112538900Y-67199200D03*
X112538900Y-67599200D03*
X112538900Y-67999200D03*
X112538900Y-68399200D03*
X112538900Y-68799200D03*
X112538900Y-69199200D03*
X112538900Y-69599200D03*
X112538900Y-69999200D03*
X112538900Y-70399200D03*
X112538900Y-70799200D03*
X112538900Y-71199200D03*
X112538900Y-71599200D03*
X112538900Y-71999200D03*
X112538900Y-72399200D03*
%TD*%
D26*
%TO.C,U1*%
X92176200Y-65913700D03*
D27*
X98476200Y-63613700D03*
D26*
X92176200Y-63613700D03*
X92176200Y-61313700D03*
%TD*%
D18*
%TO.C,C13*%
X109084300Y-65608200D03*
X110219300Y-65608200D03*
%TD*%
D22*
%TO.C,C12*%
X109084300Y-66776600D03*
X110219300Y-66776600D03*
%TD*%
%TO.C,C9*%
X122351800Y-69596000D03*
X123486800Y-69596000D03*
%TD*%
D18*
%TO.C,C8*%
X109931200Y-69621400D03*
X108796200Y-69621400D03*
%TD*%
%TO.C,C7*%
X112937100Y-74650600D03*
X111802100Y-74650600D03*
%TD*%
D15*
%TO.C,C6*%
X117246400Y-75073700D03*
X117246400Y-76208700D03*
%TD*%
D14*
%TO.C,C5*%
X117246400Y-64312800D03*
X117246400Y-63177800D03*
%TD*%
%TO.C,C4*%
X112750600Y-64778700D03*
X112750600Y-63643700D03*
%TD*%
%TO.C,C3*%
X111582200Y-63643700D03*
X111582200Y-64778700D03*
%TD*%
D28*
%TO.C,C2*%
X101269800Y-62056100D03*
X101269800Y-64131100D03*
%TD*%
%TO.C,C1*%
X89204800Y-63165900D03*
X89204800Y-61090900D03*
%TD*%
M02*
