M48
; DRILL file {KiCad (5.1.9)-1} date 11/18/21 02:26:59
; FORMAT={-:-/ absolute / inch / decimal}
; #@! TF.CreationDate,2021-11-18T02:26:59-07:00
; #@! TF.GenerationSoftware,Kicad,Pcbnew,(5.1.9)-1
; #@! TF.FileFunction,Plated,1,2,PTH
FMAT,2
INCH
T1C0.0157
T2C0.0236
T3C0.0276
T4C0.0295
T5C0.0315
T6C0.0394
%
G90
G05
T1
X1.7323Y-4.7441
X1.7323Y-4.9213
X1.9685Y-3.3268
X2.0276Y-5.0
X2.0866Y-4.2815
X2.1555Y-3.2283
X2.2047Y-4.7736
X2.2047Y-4.9508
X2.2343Y-3.0709
X2.2343Y-3.1693
X2.2539Y-5.8268
X2.2933Y-5.1673
X2.2933Y-5.5512
X2.3917Y-3.7205
X2.3917Y-3.878
X2.3917Y-3.9862
X2.4213Y-2.6083
X2.4213Y-2.6969
X2.4213Y-2.9823
X2.4213Y-3.1693
X2.4213Y-4.8917
X2.4409Y-4.2126
X2.4508Y-3.878
X2.4508Y-3.9862
X2.4606Y-3.2283
X2.4606Y-3.3268
X2.4803Y-4.1339
X2.6673Y-4.9311
X2.687Y-4.1043
X2.687Y-5.3937
X2.6969Y-5.1969
X2.6969Y-5.5118
X2.6969Y-5.6594
X2.6969Y-5.7972
X2.7461Y-5.3445
X2.7657Y-3.4547
X2.7854Y-4.2126
X2.7953Y-4.3012
X2.7953Y-5.1083
X2.8051Y-3.6319
X2.8051Y-4.9311
X2.815Y-2.9724
X2.815Y-3.1693
X2.8346Y-3.5236
X2.8937Y-4.252
X3.0906Y-4.1929
X3.1004Y-3.9961
X3.1299Y-3.8287
X3.1791Y-4.8819
X3.1791Y-5.0197
X3.2185Y-3.5433
X3.2185Y-3.8287
X3.2185Y-3.9961
X3.5728Y-3.9665
T2
X3.1791Y-4.4783
X3.2382Y-4.4783
X3.8386Y-4.4783
X3.8976Y-4.4783
X4.0453Y-4.1634
X4.1043Y-4.1634
T3
X2.5492Y-5.8268
X2.9626Y-4.1831
X3.189Y-2.5197
X3.3957Y-4.6949
X3.6909Y-3.8484
X3.6909Y-4.6949
T4
X3.7795Y-2.7657
X3.7795Y-2.8157
X3.7795Y-2.8657
X3.9764Y-2.7657
X3.9764Y-2.8157
X3.9764Y-2.8657
T5
X1.565Y-5.1181
X1.565Y-5.315
X1.5748Y-5.4921
X1.5748Y-5.689
X1.6929Y-5.1772
X1.6929Y-5.561
X1.698Y-5.3051
X1.698Y-5.4331
X1.698Y-5.689
X1.7488Y-5.0394
X1.7913Y-5.8268
X1.8488Y-4.9394
X1.8701Y-2.7067
X1.8701Y-2.8051
X1.8701Y-3.1102
X1.8701Y-3.2087
X1.9488Y-5.0394
X1.9882Y-5.8268
X1.9929Y-5.1772
X1.9929Y-5.561
X1.998Y-5.3051
X1.998Y-5.4331
X1.998Y-5.689
X2.1213Y-5.1969
X2.1213Y-5.2969
X2.1213Y-5.3969
X2.1213Y-5.4969
X2.1213Y-5.5969
X2.1213Y-5.6969
X2.1213Y-5.7969
X2.1213Y-5.8969
X2.126Y-5.0492
X2.3228Y-5.0492
X2.4213Y-5.1969
X2.4213Y-5.2969
X2.4213Y-5.3969
X2.4213Y-5.4969
X2.4213Y-5.5969
X2.4213Y-5.6969
X2.4213Y-5.7969
X2.4213Y-5.8969
X2.5445Y-5.1969
X2.5445Y-5.3248
X2.5445Y-5.4528
X2.5445Y-5.5807
X2.5492Y-5.7087
X2.7953Y-2.4606
X2.8445Y-5.1969
X2.8445Y-5.3248
X2.8445Y-5.4528
X2.8445Y-5.5807
X2.8492Y-5.7087
X2.889Y-2.6476
X2.889Y-2.7476
X2.889Y-2.8476
X2.889Y-2.9476
X2.8937Y-2.4606
X2.9382Y-4.6457
X2.961Y-5.3165
X2.961Y-5.7299
X2.9626Y-4.0551
X2.9677Y-3.9272
X3.061Y-5.2165
X3.061Y-5.4165
X3.061Y-5.6299
X3.061Y-5.8299
X3.1594Y-4.2717
X3.189Y-2.6476
X3.189Y-2.7476
X3.189Y-2.8476
X3.189Y-2.9476
X3.189Y-3.1299
X3.189Y-5.576
X3.189Y-5.876
X3.2382Y-4.6457
X3.2579Y-4.2717
X3.2626Y-4.0551
X3.2677Y-3.9272
X3.2874Y-3.1299
X3.3122Y-2.8839
X3.3169Y-2.7559
X3.322Y-2.628
X3.3909Y-3.9665
X3.3909Y-4.0665
X3.3909Y-4.1665
X3.3909Y-4.2665
X3.3909Y-4.3665
X3.3909Y-4.4665
X3.3909Y-4.5665
X3.5925Y-3.0071
X3.5925Y-3.3071
X3.6122Y-2.8839
X3.6169Y-2.7559
X3.622Y-2.628
X3.6909Y-3.9665
X3.6909Y-4.0665
X3.6909Y-4.1665
X3.6909Y-4.2665
X3.6909Y-4.3665
X3.6909Y-4.4665
X3.6909Y-4.5665
X3.7157Y-2.9921
X3.7303Y-2.3228
X3.7303Y-2.6228
X3.7697Y-3.1201
X3.8189Y-4.2717
X3.824Y-3.878
X3.8287Y-4.0059
X3.8386Y-4.6457
X3.8583Y-2.3228
X3.8583Y-2.6228
X3.8697Y-3.2201
X3.9173Y-4.2717
X3.9697Y-3.1201
X4.0157Y-2.9921
X4.0453Y-4.3307
X4.124Y-2.5839
X4.124Y-2.8839
X4.124Y-3.878
X4.1287Y-4.0059
X4.1386Y-4.6457
X4.252Y-2.6346
X4.252Y-2.8346
X4.3453Y-4.3307
X4.352Y-2.7346
T6
X1.5059Y-2.5087
X1.5059Y-2.6087
X1.5059Y-2.7087
X1.5059Y-2.8087
X1.5059Y-2.9087
X1.5059Y-3.0087
X1.5059Y-3.1087
X1.5059Y-3.2087
X1.6059Y-2.5087
X1.6059Y-2.6087
X1.6059Y-2.7087
X1.6059Y-2.8087
X1.6059Y-2.9087
X1.6059Y-3.0087
X1.6059Y-3.1087
X1.6059Y-3.2087
X2.2327Y-3.4744
X2.2327Y-3.5744
X2.2327Y-3.6744
X2.2327Y-3.7744
X2.3327Y-3.4744
X2.3327Y-3.5744
X2.3327Y-3.6744
X2.3327Y-3.7744
X2.587Y-3.1201
X2.587Y-3.2201
X2.587Y-3.3201
X2.587Y-3.4201
X2.587Y-3.5201
X2.587Y-3.6201
X2.587Y-3.7201
X2.587Y-3.8201
X2.687Y-3.1201
X2.687Y-3.2201
X2.687Y-3.3201
X2.687Y-3.4201
X2.687Y-3.5201
X2.687Y-3.6201
X2.687Y-3.7201
X2.687Y-3.8201
T0
M30
