%TF.GenerationSoftware,KiCad,Pcbnew,7.0.1*%
%TF.CreationDate,2023-03-28T15:09:56-06:00*%
%TF.ProjectId,Phase_A_UnoShield,50686173-655f-4415-9f55-6e6f53686965,1.0*%
%TF.SameCoordinates,Original*%
%TF.FileFunction,Legend,Top*%
%TF.FilePolarity,Positive*%
%FSLAX46Y46*%
G04 Gerber Fmt 4.6, Leading zero omitted, Abs format (unit mm)*
G04 Created by KiCad (PCBNEW 7.0.1) date 2023-03-28 15:09:56*
%MOMM*%
%LPD*%
G01*
G04 APERTURE LIST*
%ADD10C,0.240000*%
%ADD11C,0.300000*%
%ADD12C,0.150000*%
%ADD13C,0.120000*%
G04 APERTURE END LIST*
D10*
X114782571Y-75742000D02*
X114954000Y-75799142D01*
X114954000Y-75799142D02*
X115239714Y-75799142D01*
X115239714Y-75799142D02*
X115354000Y-75742000D01*
X115354000Y-75742000D02*
X115411142Y-75684857D01*
X115411142Y-75684857D02*
X115468285Y-75570571D01*
X115468285Y-75570571D02*
X115468285Y-75456285D01*
X115468285Y-75456285D02*
X115411142Y-75342000D01*
X115411142Y-75342000D02*
X115354000Y-75284857D01*
X115354000Y-75284857D02*
X115239714Y-75227714D01*
X115239714Y-75227714D02*
X115011142Y-75170571D01*
X115011142Y-75170571D02*
X114896857Y-75113428D01*
X114896857Y-75113428D02*
X114839714Y-75056285D01*
X114839714Y-75056285D02*
X114782571Y-74942000D01*
X114782571Y-74942000D02*
X114782571Y-74827714D01*
X114782571Y-74827714D02*
X114839714Y-74713428D01*
X114839714Y-74713428D02*
X114896857Y-74656285D01*
X114896857Y-74656285D02*
X115011142Y-74599142D01*
X115011142Y-74599142D02*
X115296857Y-74599142D01*
X115296857Y-74599142D02*
X115468285Y-74656285D01*
X115811142Y-74999142D02*
X116268285Y-74999142D01*
X115982571Y-74599142D02*
X115982571Y-75627714D01*
X115982571Y-75627714D02*
X116039714Y-75742000D01*
X116039714Y-75742000D02*
X116153999Y-75799142D01*
X116153999Y-75799142D02*
X116268285Y-75799142D01*
X117182571Y-75799142D02*
X117182571Y-75170571D01*
X117182571Y-75170571D02*
X117125428Y-75056285D01*
X117125428Y-75056285D02*
X117011142Y-74999142D01*
X117011142Y-74999142D02*
X116782571Y-74999142D01*
X116782571Y-74999142D02*
X116668285Y-75056285D01*
X117182571Y-75742000D02*
X117068285Y-75799142D01*
X117068285Y-75799142D02*
X116782571Y-75799142D01*
X116782571Y-75799142D02*
X116668285Y-75742000D01*
X116668285Y-75742000D02*
X116611142Y-75627714D01*
X116611142Y-75627714D02*
X116611142Y-75513428D01*
X116611142Y-75513428D02*
X116668285Y-75399142D01*
X116668285Y-75399142D02*
X116782571Y-75342000D01*
X116782571Y-75342000D02*
X117068285Y-75342000D01*
X117068285Y-75342000D02*
X117182571Y-75284857D01*
X117753999Y-75799142D02*
X117753999Y-74999142D01*
X117753999Y-75227714D02*
X117811142Y-75113428D01*
X117811142Y-75113428D02*
X117868285Y-75056285D01*
X117868285Y-75056285D02*
X117982570Y-74999142D01*
X117982570Y-74999142D02*
X118096856Y-74999142D01*
X118325427Y-74999142D02*
X118782570Y-74999142D01*
X118496856Y-74599142D02*
X118496856Y-75627714D01*
X118496856Y-75627714D02*
X118553999Y-75742000D01*
X118553999Y-75742000D02*
X118668284Y-75799142D01*
X118668284Y-75799142D02*
X118782570Y-75799142D01*
X120039713Y-74542000D02*
X119011141Y-76084857D01*
X120382570Y-75742000D02*
X120553999Y-75799142D01*
X120553999Y-75799142D02*
X120839713Y-75799142D01*
X120839713Y-75799142D02*
X120953999Y-75742000D01*
X120953999Y-75742000D02*
X121011141Y-75684857D01*
X121011141Y-75684857D02*
X121068284Y-75570571D01*
X121068284Y-75570571D02*
X121068284Y-75456285D01*
X121068284Y-75456285D02*
X121011141Y-75342000D01*
X121011141Y-75342000D02*
X120953999Y-75284857D01*
X120953999Y-75284857D02*
X120839713Y-75227714D01*
X120839713Y-75227714D02*
X120611141Y-75170571D01*
X120611141Y-75170571D02*
X120496856Y-75113428D01*
X120496856Y-75113428D02*
X120439713Y-75056285D01*
X120439713Y-75056285D02*
X120382570Y-74942000D01*
X120382570Y-74942000D02*
X120382570Y-74827714D01*
X120382570Y-74827714D02*
X120439713Y-74713428D01*
X120439713Y-74713428D02*
X120496856Y-74656285D01*
X120496856Y-74656285D02*
X120611141Y-74599142D01*
X120611141Y-74599142D02*
X120896856Y-74599142D01*
X120896856Y-74599142D02*
X121068284Y-74656285D01*
X121411141Y-74999142D02*
X121868284Y-74999142D01*
X121582570Y-74599142D02*
X121582570Y-75627714D01*
X121582570Y-75627714D02*
X121639713Y-75742000D01*
X121639713Y-75742000D02*
X121753998Y-75799142D01*
X121753998Y-75799142D02*
X121868284Y-75799142D01*
X122439712Y-75799142D02*
X122325427Y-75742000D01*
X122325427Y-75742000D02*
X122268284Y-75684857D01*
X122268284Y-75684857D02*
X122211141Y-75570571D01*
X122211141Y-75570571D02*
X122211141Y-75227714D01*
X122211141Y-75227714D02*
X122268284Y-75113428D01*
X122268284Y-75113428D02*
X122325427Y-75056285D01*
X122325427Y-75056285D02*
X122439712Y-74999142D01*
X122439712Y-74999142D02*
X122611141Y-74999142D01*
X122611141Y-74999142D02*
X122725427Y-75056285D01*
X122725427Y-75056285D02*
X122782570Y-75113428D01*
X122782570Y-75113428D02*
X122839712Y-75227714D01*
X122839712Y-75227714D02*
X122839712Y-75570571D01*
X122839712Y-75570571D02*
X122782570Y-75684857D01*
X122782570Y-75684857D02*
X122725427Y-75742000D01*
X122725427Y-75742000D02*
X122611141Y-75799142D01*
X122611141Y-75799142D02*
X122439712Y-75799142D01*
X123353998Y-74999142D02*
X123353998Y-76199142D01*
X123353998Y-75056285D02*
X123468284Y-74999142D01*
X123468284Y-74999142D02*
X123696855Y-74999142D01*
X123696855Y-74999142D02*
X123811141Y-75056285D01*
X123811141Y-75056285D02*
X123868284Y-75113428D01*
X123868284Y-75113428D02*
X123925426Y-75227714D01*
X123925426Y-75227714D02*
X123925426Y-75570571D01*
X123925426Y-75570571D02*
X123868284Y-75684857D01*
X123868284Y-75684857D02*
X123811141Y-75742000D01*
X123811141Y-75742000D02*
X123696855Y-75799142D01*
X123696855Y-75799142D02*
X123468284Y-75799142D01*
X123468284Y-75799142D02*
X123353998Y-75742000D01*
X136175714Y-75799142D02*
X136175714Y-74599142D01*
X136747143Y-74999142D02*
X136747143Y-75799142D01*
X136747143Y-75113428D02*
X136804286Y-75056285D01*
X136804286Y-75056285D02*
X136918571Y-74999142D01*
X136918571Y-74999142D02*
X137090000Y-74999142D01*
X137090000Y-74999142D02*
X137204286Y-75056285D01*
X137204286Y-75056285D02*
X137261429Y-75170571D01*
X137261429Y-75170571D02*
X137261429Y-75799142D01*
X138347143Y-75742000D02*
X138232857Y-75799142D01*
X138232857Y-75799142D02*
X138004285Y-75799142D01*
X138004285Y-75799142D02*
X137890000Y-75742000D01*
X137890000Y-75742000D02*
X137832857Y-75684857D01*
X137832857Y-75684857D02*
X137775714Y-75570571D01*
X137775714Y-75570571D02*
X137775714Y-75227714D01*
X137775714Y-75227714D02*
X137832857Y-75113428D01*
X137832857Y-75113428D02*
X137890000Y-75056285D01*
X137890000Y-75056285D02*
X138004285Y-74999142D01*
X138004285Y-74999142D02*
X138232857Y-74999142D01*
X138232857Y-74999142D02*
X138347143Y-75056285D01*
X138861428Y-75799142D02*
X138861428Y-74999142D01*
X138861428Y-75227714D02*
X138918571Y-75113428D01*
X138918571Y-75113428D02*
X138975714Y-75056285D01*
X138975714Y-75056285D02*
X139089999Y-74999142D01*
X139089999Y-74999142D02*
X139204285Y-74999142D01*
X140061428Y-75742000D02*
X139947142Y-75799142D01*
X139947142Y-75799142D02*
X139718571Y-75799142D01*
X139718571Y-75799142D02*
X139604285Y-75742000D01*
X139604285Y-75742000D02*
X139547142Y-75627714D01*
X139547142Y-75627714D02*
X139547142Y-75170571D01*
X139547142Y-75170571D02*
X139604285Y-75056285D01*
X139604285Y-75056285D02*
X139718571Y-74999142D01*
X139718571Y-74999142D02*
X139947142Y-74999142D01*
X139947142Y-74999142D02*
X140061428Y-75056285D01*
X140061428Y-75056285D02*
X140118571Y-75170571D01*
X140118571Y-75170571D02*
X140118571Y-75284857D01*
X140118571Y-75284857D02*
X139547142Y-75399142D01*
X140632856Y-75799142D02*
X140632856Y-74999142D01*
X140632856Y-75113428D02*
X140689999Y-75056285D01*
X140689999Y-75056285D02*
X140804284Y-74999142D01*
X140804284Y-74999142D02*
X140975713Y-74999142D01*
X140975713Y-74999142D02*
X141089999Y-75056285D01*
X141089999Y-75056285D02*
X141147142Y-75170571D01*
X141147142Y-75170571D02*
X141147142Y-75799142D01*
X141147142Y-75170571D02*
X141204284Y-75056285D01*
X141204284Y-75056285D02*
X141318570Y-74999142D01*
X141318570Y-74999142D02*
X141489999Y-74999142D01*
X141489999Y-74999142D02*
X141604284Y-75056285D01*
X141604284Y-75056285D02*
X141661427Y-75170571D01*
X141661427Y-75170571D02*
X141661427Y-75799142D01*
X142689999Y-75742000D02*
X142575713Y-75799142D01*
X142575713Y-75799142D02*
X142347142Y-75799142D01*
X142347142Y-75799142D02*
X142232856Y-75742000D01*
X142232856Y-75742000D02*
X142175713Y-75627714D01*
X142175713Y-75627714D02*
X142175713Y-75170571D01*
X142175713Y-75170571D02*
X142232856Y-75056285D01*
X142232856Y-75056285D02*
X142347142Y-74999142D01*
X142347142Y-74999142D02*
X142575713Y-74999142D01*
X142575713Y-74999142D02*
X142689999Y-75056285D01*
X142689999Y-75056285D02*
X142747142Y-75170571D01*
X142747142Y-75170571D02*
X142747142Y-75284857D01*
X142747142Y-75284857D02*
X142175713Y-75399142D01*
X143261427Y-74999142D02*
X143261427Y-75799142D01*
X143261427Y-75113428D02*
X143318570Y-75056285D01*
X143318570Y-75056285D02*
X143432855Y-74999142D01*
X143432855Y-74999142D02*
X143604284Y-74999142D01*
X143604284Y-74999142D02*
X143718570Y-75056285D01*
X143718570Y-75056285D02*
X143775713Y-75170571D01*
X143775713Y-75170571D02*
X143775713Y-75799142D01*
X144175712Y-74999142D02*
X144632855Y-74999142D01*
X144347141Y-74599142D02*
X144347141Y-75627714D01*
X144347141Y-75627714D02*
X144404284Y-75742000D01*
X144404284Y-75742000D02*
X144518569Y-75799142D01*
X144518569Y-75799142D02*
X144632855Y-75799142D01*
D11*
X102465142Y-95938428D02*
X102465142Y-94438428D01*
X103322285Y-95938428D02*
X102679428Y-95081285D01*
X103322285Y-94438428D02*
X102465142Y-95295571D01*
X103965142Y-95938428D02*
X103965142Y-94938428D01*
X103965142Y-94438428D02*
X103893714Y-94509857D01*
X103893714Y-94509857D02*
X103965142Y-94581285D01*
X103965142Y-94581285D02*
X104036571Y-94509857D01*
X104036571Y-94509857D02*
X103965142Y-94438428D01*
X103965142Y-94438428D02*
X103965142Y-94581285D01*
X104465143Y-94938428D02*
X105036571Y-94938428D01*
X104679428Y-94438428D02*
X104679428Y-95724142D01*
X104679428Y-95724142D02*
X104750857Y-95867000D01*
X104750857Y-95867000D02*
X104893714Y-95938428D01*
X104893714Y-95938428D02*
X105036571Y-95938428D01*
X106179429Y-95867000D02*
X106036571Y-95938428D01*
X106036571Y-95938428D02*
X105750857Y-95938428D01*
X105750857Y-95938428D02*
X105608000Y-95867000D01*
X105608000Y-95867000D02*
X105536571Y-95795571D01*
X105536571Y-95795571D02*
X105465143Y-95652714D01*
X105465143Y-95652714D02*
X105465143Y-95224142D01*
X105465143Y-95224142D02*
X105536571Y-95081285D01*
X105536571Y-95081285D02*
X105608000Y-95009857D01*
X105608000Y-95009857D02*
X105750857Y-94938428D01*
X105750857Y-94938428D02*
X106036571Y-94938428D01*
X106036571Y-94938428D02*
X106179429Y-95009857D01*
X106822285Y-95938428D02*
X106822285Y-94438428D01*
X107465143Y-95938428D02*
X107465143Y-95152714D01*
X107465143Y-95152714D02*
X107393714Y-95009857D01*
X107393714Y-95009857D02*
X107250857Y-94938428D01*
X107250857Y-94938428D02*
X107036571Y-94938428D01*
X107036571Y-94938428D02*
X106893714Y-95009857D01*
X106893714Y-95009857D02*
X106822285Y-95081285D01*
X108750857Y-95867000D02*
X108608000Y-95938428D01*
X108608000Y-95938428D02*
X108322286Y-95938428D01*
X108322286Y-95938428D02*
X108179428Y-95867000D01*
X108179428Y-95867000D02*
X108108000Y-95724142D01*
X108108000Y-95724142D02*
X108108000Y-95152714D01*
X108108000Y-95152714D02*
X108179428Y-95009857D01*
X108179428Y-95009857D02*
X108322286Y-94938428D01*
X108322286Y-94938428D02*
X108608000Y-94938428D01*
X108608000Y-94938428D02*
X108750857Y-95009857D01*
X108750857Y-95009857D02*
X108822286Y-95152714D01*
X108822286Y-95152714D02*
X108822286Y-95295571D01*
X108822286Y-95295571D02*
X108108000Y-95438428D01*
X109465142Y-94938428D02*
X109465142Y-95938428D01*
X109465142Y-95081285D02*
X109536571Y-95009857D01*
X109536571Y-95009857D02*
X109679428Y-94938428D01*
X109679428Y-94938428D02*
X109893714Y-94938428D01*
X109893714Y-94938428D02*
X110036571Y-95009857D01*
X110036571Y-95009857D02*
X110108000Y-95152714D01*
X110108000Y-95152714D02*
X110108000Y-95938428D01*
X111750857Y-94438428D02*
X112608000Y-94438428D01*
X112179428Y-95938428D02*
X112179428Y-94438428D01*
X113107999Y-95938428D02*
X113107999Y-94938428D01*
X113107999Y-94438428D02*
X113036571Y-94509857D01*
X113036571Y-94509857D02*
X113107999Y-94581285D01*
X113107999Y-94581285D02*
X113179428Y-94509857D01*
X113179428Y-94509857D02*
X113107999Y-94438428D01*
X113107999Y-94438428D02*
X113107999Y-94581285D01*
X113822285Y-95938428D02*
X113822285Y-94938428D01*
X113822285Y-95081285D02*
X113893714Y-95009857D01*
X113893714Y-95009857D02*
X114036571Y-94938428D01*
X114036571Y-94938428D02*
X114250857Y-94938428D01*
X114250857Y-94938428D02*
X114393714Y-95009857D01*
X114393714Y-95009857D02*
X114465143Y-95152714D01*
X114465143Y-95152714D02*
X114465143Y-95938428D01*
X114465143Y-95152714D02*
X114536571Y-95009857D01*
X114536571Y-95009857D02*
X114679428Y-94938428D01*
X114679428Y-94938428D02*
X114893714Y-94938428D01*
X114893714Y-94938428D02*
X115036571Y-95009857D01*
X115036571Y-95009857D02*
X115108000Y-95152714D01*
X115108000Y-95152714D02*
X115108000Y-95938428D01*
X116393714Y-95867000D02*
X116250857Y-95938428D01*
X116250857Y-95938428D02*
X115965143Y-95938428D01*
X115965143Y-95938428D02*
X115822285Y-95867000D01*
X115822285Y-95867000D02*
X115750857Y-95724142D01*
X115750857Y-95724142D02*
X115750857Y-95152714D01*
X115750857Y-95152714D02*
X115822285Y-95009857D01*
X115822285Y-95009857D02*
X115965143Y-94938428D01*
X115965143Y-94938428D02*
X116250857Y-94938428D01*
X116250857Y-94938428D02*
X116393714Y-95009857D01*
X116393714Y-95009857D02*
X116465143Y-95152714D01*
X116465143Y-95152714D02*
X116465143Y-95295571D01*
X116465143Y-95295571D02*
X115750857Y-95438428D01*
X117107999Y-95938428D02*
X117107999Y-94938428D01*
X117107999Y-95224142D02*
X117179428Y-95081285D01*
X117179428Y-95081285D02*
X117250857Y-95009857D01*
X117250857Y-95009857D02*
X117393714Y-94938428D01*
X117393714Y-94938428D02*
X117536571Y-94938428D01*
X102250857Y-96868428D02*
X102750857Y-98368428D01*
X102750857Y-98368428D02*
X103250857Y-96868428D01*
X104322285Y-98297000D02*
X104179428Y-98368428D01*
X104179428Y-98368428D02*
X103893714Y-98368428D01*
X103893714Y-98368428D02*
X103750856Y-98297000D01*
X103750856Y-98297000D02*
X103679428Y-98154142D01*
X103679428Y-98154142D02*
X103679428Y-97582714D01*
X103679428Y-97582714D02*
X103750856Y-97439857D01*
X103750856Y-97439857D02*
X103893714Y-97368428D01*
X103893714Y-97368428D02*
X104179428Y-97368428D01*
X104179428Y-97368428D02*
X104322285Y-97439857D01*
X104322285Y-97439857D02*
X104393714Y-97582714D01*
X104393714Y-97582714D02*
X104393714Y-97725571D01*
X104393714Y-97725571D02*
X103679428Y-97868428D01*
X105036570Y-98368428D02*
X105036570Y-97368428D01*
X105036570Y-97654142D02*
X105107999Y-97511285D01*
X105107999Y-97511285D02*
X105179428Y-97439857D01*
X105179428Y-97439857D02*
X105322285Y-97368428D01*
X105322285Y-97368428D02*
X105465142Y-97368428D01*
X105893713Y-98297000D02*
X106036570Y-98368428D01*
X106036570Y-98368428D02*
X106322284Y-98368428D01*
X106322284Y-98368428D02*
X106465141Y-98297000D01*
X106465141Y-98297000D02*
X106536570Y-98154142D01*
X106536570Y-98154142D02*
X106536570Y-98082714D01*
X106536570Y-98082714D02*
X106465141Y-97939857D01*
X106465141Y-97939857D02*
X106322284Y-97868428D01*
X106322284Y-97868428D02*
X106107999Y-97868428D01*
X106107999Y-97868428D02*
X105965141Y-97797000D01*
X105965141Y-97797000D02*
X105893713Y-97654142D01*
X105893713Y-97654142D02*
X105893713Y-97582714D01*
X105893713Y-97582714D02*
X105965141Y-97439857D01*
X105965141Y-97439857D02*
X106107999Y-97368428D01*
X106107999Y-97368428D02*
X106322284Y-97368428D01*
X106322284Y-97368428D02*
X106465141Y-97439857D01*
X107179427Y-98368428D02*
X107179427Y-97368428D01*
X107179427Y-96868428D02*
X107107999Y-96939857D01*
X107107999Y-96939857D02*
X107179427Y-97011285D01*
X107179427Y-97011285D02*
X107250856Y-96939857D01*
X107250856Y-96939857D02*
X107179427Y-96868428D01*
X107179427Y-96868428D02*
X107179427Y-97011285D01*
X108107999Y-98368428D02*
X107965142Y-98297000D01*
X107965142Y-98297000D02*
X107893713Y-98225571D01*
X107893713Y-98225571D02*
X107822285Y-98082714D01*
X107822285Y-98082714D02*
X107822285Y-97654142D01*
X107822285Y-97654142D02*
X107893713Y-97511285D01*
X107893713Y-97511285D02*
X107965142Y-97439857D01*
X107965142Y-97439857D02*
X108107999Y-97368428D01*
X108107999Y-97368428D02*
X108322285Y-97368428D01*
X108322285Y-97368428D02*
X108465142Y-97439857D01*
X108465142Y-97439857D02*
X108536571Y-97511285D01*
X108536571Y-97511285D02*
X108607999Y-97654142D01*
X108607999Y-97654142D02*
X108607999Y-98082714D01*
X108607999Y-98082714D02*
X108536571Y-98225571D01*
X108536571Y-98225571D02*
X108465142Y-98297000D01*
X108465142Y-98297000D02*
X108322285Y-98368428D01*
X108322285Y-98368428D02*
X108107999Y-98368428D01*
X109250856Y-97368428D02*
X109250856Y-98368428D01*
X109250856Y-97511285D02*
X109322285Y-97439857D01*
X109322285Y-97439857D02*
X109465142Y-97368428D01*
X109465142Y-97368428D02*
X109679428Y-97368428D01*
X109679428Y-97368428D02*
X109822285Y-97439857D01*
X109822285Y-97439857D02*
X109893714Y-97582714D01*
X109893714Y-97582714D02*
X109893714Y-98368428D01*
X112536571Y-98368428D02*
X111679428Y-98368428D01*
X112107999Y-98368428D02*
X112107999Y-96868428D01*
X112107999Y-96868428D02*
X111965142Y-97082714D01*
X111965142Y-97082714D02*
X111822285Y-97225571D01*
X111822285Y-97225571D02*
X111679428Y-97297000D01*
X113179427Y-98225571D02*
X113250856Y-98297000D01*
X113250856Y-98297000D02*
X113179427Y-98368428D01*
X113179427Y-98368428D02*
X113107999Y-98297000D01*
X113107999Y-98297000D02*
X113179427Y-98225571D01*
X113179427Y-98225571D02*
X113179427Y-98368428D01*
X114179428Y-96868428D02*
X114322285Y-96868428D01*
X114322285Y-96868428D02*
X114465142Y-96939857D01*
X114465142Y-96939857D02*
X114536571Y-97011285D01*
X114536571Y-97011285D02*
X114607999Y-97154142D01*
X114607999Y-97154142D02*
X114679428Y-97439857D01*
X114679428Y-97439857D02*
X114679428Y-97797000D01*
X114679428Y-97797000D02*
X114607999Y-98082714D01*
X114607999Y-98082714D02*
X114536571Y-98225571D01*
X114536571Y-98225571D02*
X114465142Y-98297000D01*
X114465142Y-98297000D02*
X114322285Y-98368428D01*
X114322285Y-98368428D02*
X114179428Y-98368428D01*
X114179428Y-98368428D02*
X114036571Y-98297000D01*
X114036571Y-98297000D02*
X113965142Y-98225571D01*
X113965142Y-98225571D02*
X113893713Y-98082714D01*
X113893713Y-98082714D02*
X113822285Y-97797000D01*
X113822285Y-97797000D02*
X113822285Y-97439857D01*
X113822285Y-97439857D02*
X113893713Y-97154142D01*
X113893713Y-97154142D02*
X113965142Y-97011285D01*
X113965142Y-97011285D02*
X114036571Y-96939857D01*
X114036571Y-96939857D02*
X114179428Y-96868428D01*
X176379142Y-98368428D02*
X176379142Y-96868428D01*
X176379142Y-96868428D02*
X176879142Y-97939857D01*
X176879142Y-97939857D02*
X177379142Y-96868428D01*
X177379142Y-96868428D02*
X177379142Y-98368428D01*
X178736286Y-98368428D02*
X178736286Y-97582714D01*
X178736286Y-97582714D02*
X178664857Y-97439857D01*
X178664857Y-97439857D02*
X178522000Y-97368428D01*
X178522000Y-97368428D02*
X178236286Y-97368428D01*
X178236286Y-97368428D02*
X178093428Y-97439857D01*
X178736286Y-98297000D02*
X178593428Y-98368428D01*
X178593428Y-98368428D02*
X178236286Y-98368428D01*
X178236286Y-98368428D02*
X178093428Y-98297000D01*
X178093428Y-98297000D02*
X178022000Y-98154142D01*
X178022000Y-98154142D02*
X178022000Y-98011285D01*
X178022000Y-98011285D02*
X178093428Y-97868428D01*
X178093428Y-97868428D02*
X178236286Y-97797000D01*
X178236286Y-97797000D02*
X178593428Y-97797000D01*
X178593428Y-97797000D02*
X178736286Y-97725571D01*
X179450571Y-98368428D02*
X179450571Y-97368428D01*
X179450571Y-97654142D02*
X179522000Y-97511285D01*
X179522000Y-97511285D02*
X179593429Y-97439857D01*
X179593429Y-97439857D02*
X179736286Y-97368428D01*
X179736286Y-97368428D02*
X179879143Y-97368428D01*
X181022000Y-98297000D02*
X180879142Y-98368428D01*
X180879142Y-98368428D02*
X180593428Y-98368428D01*
X180593428Y-98368428D02*
X180450571Y-98297000D01*
X180450571Y-98297000D02*
X180379142Y-98225571D01*
X180379142Y-98225571D02*
X180307714Y-98082714D01*
X180307714Y-98082714D02*
X180307714Y-97654142D01*
X180307714Y-97654142D02*
X180379142Y-97511285D01*
X180379142Y-97511285D02*
X180450571Y-97439857D01*
X180450571Y-97439857D02*
X180593428Y-97368428D01*
X180593428Y-97368428D02*
X180879142Y-97368428D01*
X180879142Y-97368428D02*
X181022000Y-97439857D01*
X181664856Y-98368428D02*
X181664856Y-96868428D01*
X182307714Y-98368428D02*
X182307714Y-97582714D01*
X182307714Y-97582714D02*
X182236285Y-97439857D01*
X182236285Y-97439857D02*
X182093428Y-97368428D01*
X182093428Y-97368428D02*
X181879142Y-97368428D01*
X181879142Y-97368428D02*
X181736285Y-97439857D01*
X181736285Y-97439857D02*
X181664856Y-97511285D01*
X184093428Y-97011285D02*
X184164856Y-96939857D01*
X184164856Y-96939857D02*
X184307714Y-96868428D01*
X184307714Y-96868428D02*
X184664856Y-96868428D01*
X184664856Y-96868428D02*
X184807714Y-96939857D01*
X184807714Y-96939857D02*
X184879142Y-97011285D01*
X184879142Y-97011285D02*
X184950571Y-97154142D01*
X184950571Y-97154142D02*
X184950571Y-97297000D01*
X184950571Y-97297000D02*
X184879142Y-97511285D01*
X184879142Y-97511285D02*
X184021999Y-98368428D01*
X184021999Y-98368428D02*
X184950571Y-98368428D01*
X185879142Y-96868428D02*
X186021999Y-96868428D01*
X186021999Y-96868428D02*
X186164856Y-96939857D01*
X186164856Y-96939857D02*
X186236285Y-97011285D01*
X186236285Y-97011285D02*
X186307713Y-97154142D01*
X186307713Y-97154142D02*
X186379142Y-97439857D01*
X186379142Y-97439857D02*
X186379142Y-97797000D01*
X186379142Y-97797000D02*
X186307713Y-98082714D01*
X186307713Y-98082714D02*
X186236285Y-98225571D01*
X186236285Y-98225571D02*
X186164856Y-98297000D01*
X186164856Y-98297000D02*
X186021999Y-98368428D01*
X186021999Y-98368428D02*
X185879142Y-98368428D01*
X185879142Y-98368428D02*
X185736285Y-98297000D01*
X185736285Y-98297000D02*
X185664856Y-98225571D01*
X185664856Y-98225571D02*
X185593427Y-98082714D01*
X185593427Y-98082714D02*
X185521999Y-97797000D01*
X185521999Y-97797000D02*
X185521999Y-97439857D01*
X185521999Y-97439857D02*
X185593427Y-97154142D01*
X185593427Y-97154142D02*
X185664856Y-97011285D01*
X185664856Y-97011285D02*
X185736285Y-96939857D01*
X185736285Y-96939857D02*
X185879142Y-96868428D01*
X186950570Y-97011285D02*
X187021998Y-96939857D01*
X187021998Y-96939857D02*
X187164856Y-96868428D01*
X187164856Y-96868428D02*
X187521998Y-96868428D01*
X187521998Y-96868428D02*
X187664856Y-96939857D01*
X187664856Y-96939857D02*
X187736284Y-97011285D01*
X187736284Y-97011285D02*
X187807713Y-97154142D01*
X187807713Y-97154142D02*
X187807713Y-97297000D01*
X187807713Y-97297000D02*
X187736284Y-97511285D01*
X187736284Y-97511285D02*
X186879141Y-98368428D01*
X186879141Y-98368428D02*
X187807713Y-98368428D01*
X188307712Y-96868428D02*
X189236284Y-96868428D01*
X189236284Y-96868428D02*
X188736284Y-97439857D01*
X188736284Y-97439857D02*
X188950569Y-97439857D01*
X188950569Y-97439857D02*
X189093427Y-97511285D01*
X189093427Y-97511285D02*
X189164855Y-97582714D01*
X189164855Y-97582714D02*
X189236284Y-97725571D01*
X189236284Y-97725571D02*
X189236284Y-98082714D01*
X189236284Y-98082714D02*
X189164855Y-98225571D01*
X189164855Y-98225571D02*
X189093427Y-98297000D01*
X189093427Y-98297000D02*
X188950569Y-98368428D01*
X188950569Y-98368428D02*
X188521998Y-98368428D01*
X188521998Y-98368428D02*
X188379141Y-98297000D01*
X188379141Y-98297000D02*
X188307712Y-98225571D01*
X102819142Y-48924714D02*
X103319142Y-48924714D01*
X103533428Y-49710428D02*
X102819142Y-49710428D01*
X102819142Y-49710428D02*
X102819142Y-48210428D01*
X102819142Y-48210428D02*
X103533428Y-48210428D01*
X104176285Y-49710428D02*
X104176285Y-48710428D01*
X104176285Y-48853285D02*
X104247714Y-48781857D01*
X104247714Y-48781857D02*
X104390571Y-48710428D01*
X104390571Y-48710428D02*
X104604857Y-48710428D01*
X104604857Y-48710428D02*
X104747714Y-48781857D01*
X104747714Y-48781857D02*
X104819143Y-48924714D01*
X104819143Y-48924714D02*
X104819143Y-49710428D01*
X104819143Y-48924714D02*
X104890571Y-48781857D01*
X104890571Y-48781857D02*
X105033428Y-48710428D01*
X105033428Y-48710428D02*
X105247714Y-48710428D01*
X105247714Y-48710428D02*
X105390571Y-48781857D01*
X105390571Y-48781857D02*
X105462000Y-48924714D01*
X105462000Y-48924714D02*
X105462000Y-49710428D01*
X106176285Y-49710428D02*
X106176285Y-48210428D01*
X106176285Y-48781857D02*
X106319143Y-48710428D01*
X106319143Y-48710428D02*
X106604857Y-48710428D01*
X106604857Y-48710428D02*
X106747714Y-48781857D01*
X106747714Y-48781857D02*
X106819143Y-48853285D01*
X106819143Y-48853285D02*
X106890571Y-48996142D01*
X106890571Y-48996142D02*
X106890571Y-49424714D01*
X106890571Y-49424714D02*
X106819143Y-49567571D01*
X106819143Y-49567571D02*
X106747714Y-49639000D01*
X106747714Y-49639000D02*
X106604857Y-49710428D01*
X106604857Y-49710428D02*
X106319143Y-49710428D01*
X106319143Y-49710428D02*
X106176285Y-49639000D01*
X108104857Y-49639000D02*
X107962000Y-49710428D01*
X107962000Y-49710428D02*
X107676286Y-49710428D01*
X107676286Y-49710428D02*
X107533428Y-49639000D01*
X107533428Y-49639000D02*
X107462000Y-49496142D01*
X107462000Y-49496142D02*
X107462000Y-48924714D01*
X107462000Y-48924714D02*
X107533428Y-48781857D01*
X107533428Y-48781857D02*
X107676286Y-48710428D01*
X107676286Y-48710428D02*
X107962000Y-48710428D01*
X107962000Y-48710428D02*
X108104857Y-48781857D01*
X108104857Y-48781857D02*
X108176286Y-48924714D01*
X108176286Y-48924714D02*
X108176286Y-49067571D01*
X108176286Y-49067571D02*
X107462000Y-49210428D01*
X109462000Y-49710428D02*
X109462000Y-48210428D01*
X109462000Y-49639000D02*
X109319142Y-49710428D01*
X109319142Y-49710428D02*
X109033428Y-49710428D01*
X109033428Y-49710428D02*
X108890571Y-49639000D01*
X108890571Y-49639000D02*
X108819142Y-49567571D01*
X108819142Y-49567571D02*
X108747714Y-49424714D01*
X108747714Y-49424714D02*
X108747714Y-48996142D01*
X108747714Y-48996142D02*
X108819142Y-48853285D01*
X108819142Y-48853285D02*
X108890571Y-48781857D01*
X108890571Y-48781857D02*
X109033428Y-48710428D01*
X109033428Y-48710428D02*
X109319142Y-48710428D01*
X109319142Y-48710428D02*
X109462000Y-48781857D01*
X110819143Y-49710428D02*
X110819143Y-48210428D01*
X110819143Y-49639000D02*
X110676285Y-49710428D01*
X110676285Y-49710428D02*
X110390571Y-49710428D01*
X110390571Y-49710428D02*
X110247714Y-49639000D01*
X110247714Y-49639000D02*
X110176285Y-49567571D01*
X110176285Y-49567571D02*
X110104857Y-49424714D01*
X110104857Y-49424714D02*
X110104857Y-48996142D01*
X110104857Y-48996142D02*
X110176285Y-48853285D01*
X110176285Y-48853285D02*
X110247714Y-48781857D01*
X110247714Y-48781857D02*
X110390571Y-48710428D01*
X110390571Y-48710428D02*
X110676285Y-48710428D01*
X110676285Y-48710428D02*
X110819143Y-48781857D01*
X112104857Y-49639000D02*
X111962000Y-49710428D01*
X111962000Y-49710428D02*
X111676286Y-49710428D01*
X111676286Y-49710428D02*
X111533428Y-49639000D01*
X111533428Y-49639000D02*
X111462000Y-49496142D01*
X111462000Y-49496142D02*
X111462000Y-48924714D01*
X111462000Y-48924714D02*
X111533428Y-48781857D01*
X111533428Y-48781857D02*
X111676286Y-48710428D01*
X111676286Y-48710428D02*
X111962000Y-48710428D01*
X111962000Y-48710428D02*
X112104857Y-48781857D01*
X112104857Y-48781857D02*
X112176286Y-48924714D01*
X112176286Y-48924714D02*
X112176286Y-49067571D01*
X112176286Y-49067571D02*
X111462000Y-49210428D01*
X113462000Y-49710428D02*
X113462000Y-48210428D01*
X113462000Y-49639000D02*
X113319142Y-49710428D01*
X113319142Y-49710428D02*
X113033428Y-49710428D01*
X113033428Y-49710428D02*
X112890571Y-49639000D01*
X112890571Y-49639000D02*
X112819142Y-49567571D01*
X112819142Y-49567571D02*
X112747714Y-49424714D01*
X112747714Y-49424714D02*
X112747714Y-48996142D01*
X112747714Y-48996142D02*
X112819142Y-48853285D01*
X112819142Y-48853285D02*
X112890571Y-48781857D01*
X112890571Y-48781857D02*
X113033428Y-48710428D01*
X113033428Y-48710428D02*
X113319142Y-48710428D01*
X113319142Y-48710428D02*
X113462000Y-48781857D01*
X104426286Y-52069000D02*
X104640572Y-52140428D01*
X104640572Y-52140428D02*
X104997714Y-52140428D01*
X104997714Y-52140428D02*
X105140572Y-52069000D01*
X105140572Y-52069000D02*
X105212000Y-51997571D01*
X105212000Y-51997571D02*
X105283429Y-51854714D01*
X105283429Y-51854714D02*
X105283429Y-51711857D01*
X105283429Y-51711857D02*
X105212000Y-51569000D01*
X105212000Y-51569000D02*
X105140572Y-51497571D01*
X105140572Y-51497571D02*
X104997714Y-51426142D01*
X104997714Y-51426142D02*
X104712000Y-51354714D01*
X104712000Y-51354714D02*
X104569143Y-51283285D01*
X104569143Y-51283285D02*
X104497714Y-51211857D01*
X104497714Y-51211857D02*
X104426286Y-51069000D01*
X104426286Y-51069000D02*
X104426286Y-50926142D01*
X104426286Y-50926142D02*
X104497714Y-50783285D01*
X104497714Y-50783285D02*
X104569143Y-50711857D01*
X104569143Y-50711857D02*
X104712000Y-50640428D01*
X104712000Y-50640428D02*
X105069143Y-50640428D01*
X105069143Y-50640428D02*
X105283429Y-50711857D01*
X105783428Y-51140428D02*
X106140571Y-52140428D01*
X106497714Y-51140428D02*
X106140571Y-52140428D01*
X106140571Y-52140428D02*
X105997714Y-52497571D01*
X105997714Y-52497571D02*
X105926285Y-52569000D01*
X105926285Y-52569000D02*
X105783428Y-52640428D01*
X106997714Y-52069000D02*
X107140571Y-52140428D01*
X107140571Y-52140428D02*
X107426285Y-52140428D01*
X107426285Y-52140428D02*
X107569142Y-52069000D01*
X107569142Y-52069000D02*
X107640571Y-51926142D01*
X107640571Y-51926142D02*
X107640571Y-51854714D01*
X107640571Y-51854714D02*
X107569142Y-51711857D01*
X107569142Y-51711857D02*
X107426285Y-51640428D01*
X107426285Y-51640428D02*
X107212000Y-51640428D01*
X107212000Y-51640428D02*
X107069142Y-51569000D01*
X107069142Y-51569000D02*
X106997714Y-51426142D01*
X106997714Y-51426142D02*
X106997714Y-51354714D01*
X106997714Y-51354714D02*
X107069142Y-51211857D01*
X107069142Y-51211857D02*
X107212000Y-51140428D01*
X107212000Y-51140428D02*
X107426285Y-51140428D01*
X107426285Y-51140428D02*
X107569142Y-51211857D01*
X108069143Y-51140428D02*
X108640571Y-51140428D01*
X108283428Y-50640428D02*
X108283428Y-51926142D01*
X108283428Y-51926142D02*
X108354857Y-52069000D01*
X108354857Y-52069000D02*
X108497714Y-52140428D01*
X108497714Y-52140428D02*
X108640571Y-52140428D01*
X109712000Y-52069000D02*
X109569143Y-52140428D01*
X109569143Y-52140428D02*
X109283429Y-52140428D01*
X109283429Y-52140428D02*
X109140571Y-52069000D01*
X109140571Y-52069000D02*
X109069143Y-51926142D01*
X109069143Y-51926142D02*
X109069143Y-51354714D01*
X109069143Y-51354714D02*
X109140571Y-51211857D01*
X109140571Y-51211857D02*
X109283429Y-51140428D01*
X109283429Y-51140428D02*
X109569143Y-51140428D01*
X109569143Y-51140428D02*
X109712000Y-51211857D01*
X109712000Y-51211857D02*
X109783429Y-51354714D01*
X109783429Y-51354714D02*
X109783429Y-51497571D01*
X109783429Y-51497571D02*
X109069143Y-51640428D01*
X110426285Y-52140428D02*
X110426285Y-51140428D01*
X110426285Y-51283285D02*
X110497714Y-51211857D01*
X110497714Y-51211857D02*
X110640571Y-51140428D01*
X110640571Y-51140428D02*
X110854857Y-51140428D01*
X110854857Y-51140428D02*
X110997714Y-51211857D01*
X110997714Y-51211857D02*
X111069143Y-51354714D01*
X111069143Y-51354714D02*
X111069143Y-52140428D01*
X111069143Y-51354714D02*
X111140571Y-51211857D01*
X111140571Y-51211857D02*
X111283428Y-51140428D01*
X111283428Y-51140428D02*
X111497714Y-51140428D01*
X111497714Y-51140428D02*
X111640571Y-51211857D01*
X111640571Y-51211857D02*
X111712000Y-51354714D01*
X111712000Y-51354714D02*
X111712000Y-52140428D01*
X112354857Y-52069000D02*
X112497714Y-52140428D01*
X112497714Y-52140428D02*
X112783428Y-52140428D01*
X112783428Y-52140428D02*
X112926285Y-52069000D01*
X112926285Y-52069000D02*
X112997714Y-51926142D01*
X112997714Y-51926142D02*
X112997714Y-51854714D01*
X112997714Y-51854714D02*
X112926285Y-51711857D01*
X112926285Y-51711857D02*
X112783428Y-51640428D01*
X112783428Y-51640428D02*
X112569143Y-51640428D01*
X112569143Y-51640428D02*
X112426285Y-51569000D01*
X112426285Y-51569000D02*
X112354857Y-51426142D01*
X112354857Y-51426142D02*
X112354857Y-51354714D01*
X112354857Y-51354714D02*
X112426285Y-51211857D01*
X112426285Y-51211857D02*
X112569143Y-51140428D01*
X112569143Y-51140428D02*
X112783428Y-51140428D01*
X112783428Y-51140428D02*
X112926285Y-51211857D01*
D10*
X160991428Y-56749142D02*
X160591428Y-56177714D01*
X160305714Y-56749142D02*
X160305714Y-55549142D01*
X160305714Y-55549142D02*
X160762857Y-55549142D01*
X160762857Y-55549142D02*
X160877142Y-55606285D01*
X160877142Y-55606285D02*
X160934285Y-55663428D01*
X160934285Y-55663428D02*
X160991428Y-55777714D01*
X160991428Y-55777714D02*
X160991428Y-55949142D01*
X160991428Y-55949142D02*
X160934285Y-56063428D01*
X160934285Y-56063428D02*
X160877142Y-56120571D01*
X160877142Y-56120571D02*
X160762857Y-56177714D01*
X160762857Y-56177714D02*
X160305714Y-56177714D01*
X161505714Y-56120571D02*
X161905714Y-56120571D01*
X162077142Y-56749142D02*
X161505714Y-56749142D01*
X161505714Y-56749142D02*
X161505714Y-55549142D01*
X161505714Y-55549142D02*
X162077142Y-55549142D01*
X162591428Y-56749142D02*
X162591428Y-55549142D01*
X162591428Y-55549142D02*
X162877142Y-55549142D01*
X162877142Y-55549142D02*
X163048571Y-55606285D01*
X163048571Y-55606285D02*
X163162856Y-55720571D01*
X163162856Y-55720571D02*
X163219999Y-55834857D01*
X163219999Y-55834857D02*
X163277142Y-56063428D01*
X163277142Y-56063428D02*
X163277142Y-56234857D01*
X163277142Y-56234857D02*
X163219999Y-56463428D01*
X163219999Y-56463428D02*
X163162856Y-56577714D01*
X163162856Y-56577714D02*
X163048571Y-56692000D01*
X163048571Y-56692000D02*
X162877142Y-56749142D01*
X162877142Y-56749142D02*
X162591428Y-56749142D01*
X170840285Y-55352285D02*
X170726000Y-55295142D01*
X170726000Y-55295142D02*
X170554571Y-55295142D01*
X170554571Y-55295142D02*
X170383142Y-55352285D01*
X170383142Y-55352285D02*
X170268857Y-55466571D01*
X170268857Y-55466571D02*
X170211714Y-55580857D01*
X170211714Y-55580857D02*
X170154571Y-55809428D01*
X170154571Y-55809428D02*
X170154571Y-55980857D01*
X170154571Y-55980857D02*
X170211714Y-56209428D01*
X170211714Y-56209428D02*
X170268857Y-56323714D01*
X170268857Y-56323714D02*
X170383142Y-56438000D01*
X170383142Y-56438000D02*
X170554571Y-56495142D01*
X170554571Y-56495142D02*
X170668857Y-56495142D01*
X170668857Y-56495142D02*
X170840285Y-56438000D01*
X170840285Y-56438000D02*
X170897428Y-56380857D01*
X170897428Y-56380857D02*
X170897428Y-55980857D01*
X170897428Y-55980857D02*
X170668857Y-55980857D01*
X172097428Y-56495142D02*
X171697428Y-55923714D01*
X171411714Y-56495142D02*
X171411714Y-55295142D01*
X171411714Y-55295142D02*
X171868857Y-55295142D01*
X171868857Y-55295142D02*
X171983142Y-55352285D01*
X171983142Y-55352285D02*
X172040285Y-55409428D01*
X172040285Y-55409428D02*
X172097428Y-55523714D01*
X172097428Y-55523714D02*
X172097428Y-55695142D01*
X172097428Y-55695142D02*
X172040285Y-55809428D01*
X172040285Y-55809428D02*
X171983142Y-55866571D01*
X171983142Y-55866571D02*
X171868857Y-55923714D01*
X171868857Y-55923714D02*
X171411714Y-55923714D01*
X172611714Y-55866571D02*
X173011714Y-55866571D01*
X173183142Y-56495142D02*
X172611714Y-56495142D01*
X172611714Y-56495142D02*
X172611714Y-55295142D01*
X172611714Y-55295142D02*
X173183142Y-55295142D01*
X173697428Y-55866571D02*
X174097428Y-55866571D01*
X174268856Y-56495142D02*
X173697428Y-56495142D01*
X173697428Y-56495142D02*
X173697428Y-55295142D01*
X173697428Y-55295142D02*
X174268856Y-55295142D01*
X174783142Y-56495142D02*
X174783142Y-55295142D01*
X174783142Y-55295142D02*
X175468856Y-56495142D01*
X175468856Y-56495142D02*
X175468856Y-55295142D01*
D12*
%TO.C,LS1*%
X188079142Y-60660619D02*
X187602952Y-60660619D01*
X187602952Y-60660619D02*
X187602952Y-59660619D01*
X188364857Y-60613000D02*
X188507714Y-60660619D01*
X188507714Y-60660619D02*
X188745809Y-60660619D01*
X188745809Y-60660619D02*
X188841047Y-60613000D01*
X188841047Y-60613000D02*
X188888666Y-60565380D01*
X188888666Y-60565380D02*
X188936285Y-60470142D01*
X188936285Y-60470142D02*
X188936285Y-60374904D01*
X188936285Y-60374904D02*
X188888666Y-60279666D01*
X188888666Y-60279666D02*
X188841047Y-60232047D01*
X188841047Y-60232047D02*
X188745809Y-60184428D01*
X188745809Y-60184428D02*
X188555333Y-60136809D01*
X188555333Y-60136809D02*
X188460095Y-60089190D01*
X188460095Y-60089190D02*
X188412476Y-60041571D01*
X188412476Y-60041571D02*
X188364857Y-59946333D01*
X188364857Y-59946333D02*
X188364857Y-59851095D01*
X188364857Y-59851095D02*
X188412476Y-59755857D01*
X188412476Y-59755857D02*
X188460095Y-59708238D01*
X188460095Y-59708238D02*
X188555333Y-59660619D01*
X188555333Y-59660619D02*
X188793428Y-59660619D01*
X188793428Y-59660619D02*
X188936285Y-59708238D01*
X189888666Y-60660619D02*
X189317238Y-60660619D01*
X189602952Y-60660619D02*
X189602952Y-59660619D01*
X189602952Y-59660619D02*
X189507714Y-59803476D01*
X189507714Y-59803476D02*
X189412476Y-59898714D01*
X189412476Y-59898714D02*
X189317238Y-59946333D01*
X179959048Y-51135666D02*
X180720953Y-51135666D01*
X180340000Y-51516619D02*
X180340000Y-50754714D01*
%TO.C,R3*%
X157099619Y-60796666D02*
X156623428Y-61129999D01*
X157099619Y-61368094D02*
X156099619Y-61368094D01*
X156099619Y-61368094D02*
X156099619Y-60987142D01*
X156099619Y-60987142D02*
X156147238Y-60891904D01*
X156147238Y-60891904D02*
X156194857Y-60844285D01*
X156194857Y-60844285D02*
X156290095Y-60796666D01*
X156290095Y-60796666D02*
X156432952Y-60796666D01*
X156432952Y-60796666D02*
X156528190Y-60844285D01*
X156528190Y-60844285D02*
X156575809Y-60891904D01*
X156575809Y-60891904D02*
X156623428Y-60987142D01*
X156623428Y-60987142D02*
X156623428Y-61368094D01*
X156099619Y-60463332D02*
X156099619Y-59844285D01*
X156099619Y-59844285D02*
X156480571Y-60177618D01*
X156480571Y-60177618D02*
X156480571Y-60034761D01*
X156480571Y-60034761D02*
X156528190Y-59939523D01*
X156528190Y-59939523D02*
X156575809Y-59891904D01*
X156575809Y-59891904D02*
X156671047Y-59844285D01*
X156671047Y-59844285D02*
X156909142Y-59844285D01*
X156909142Y-59844285D02*
X157004380Y-59891904D01*
X157004380Y-59891904D02*
X157052000Y-59939523D01*
X157052000Y-59939523D02*
X157099619Y-60034761D01*
X157099619Y-60034761D02*
X157099619Y-60320475D01*
X157099619Y-60320475D02*
X157052000Y-60415713D01*
X157052000Y-60415713D02*
X157004380Y-60463332D01*
%TO.C,R4*%
X168133619Y-60796666D02*
X167657428Y-61129999D01*
X168133619Y-61368094D02*
X167133619Y-61368094D01*
X167133619Y-61368094D02*
X167133619Y-60987142D01*
X167133619Y-60987142D02*
X167181238Y-60891904D01*
X167181238Y-60891904D02*
X167228857Y-60844285D01*
X167228857Y-60844285D02*
X167324095Y-60796666D01*
X167324095Y-60796666D02*
X167466952Y-60796666D01*
X167466952Y-60796666D02*
X167562190Y-60844285D01*
X167562190Y-60844285D02*
X167609809Y-60891904D01*
X167609809Y-60891904D02*
X167657428Y-60987142D01*
X167657428Y-60987142D02*
X167657428Y-61368094D01*
X167466952Y-59939523D02*
X168133619Y-59939523D01*
X167086000Y-60177618D02*
X167800285Y-60415713D01*
X167800285Y-60415713D02*
X167800285Y-59796666D01*
%TO.C,R2*%
X117740333Y-92334619D02*
X117407000Y-91858428D01*
X117168905Y-92334619D02*
X117168905Y-91334619D01*
X117168905Y-91334619D02*
X117549857Y-91334619D01*
X117549857Y-91334619D02*
X117645095Y-91382238D01*
X117645095Y-91382238D02*
X117692714Y-91429857D01*
X117692714Y-91429857D02*
X117740333Y-91525095D01*
X117740333Y-91525095D02*
X117740333Y-91667952D01*
X117740333Y-91667952D02*
X117692714Y-91763190D01*
X117692714Y-91763190D02*
X117645095Y-91810809D01*
X117645095Y-91810809D02*
X117549857Y-91858428D01*
X117549857Y-91858428D02*
X117168905Y-91858428D01*
X118121286Y-91429857D02*
X118168905Y-91382238D01*
X118168905Y-91382238D02*
X118264143Y-91334619D01*
X118264143Y-91334619D02*
X118502238Y-91334619D01*
X118502238Y-91334619D02*
X118597476Y-91382238D01*
X118597476Y-91382238D02*
X118645095Y-91429857D01*
X118645095Y-91429857D02*
X118692714Y-91525095D01*
X118692714Y-91525095D02*
X118692714Y-91620333D01*
X118692714Y-91620333D02*
X118645095Y-91763190D01*
X118645095Y-91763190D02*
X118073667Y-92334619D01*
X118073667Y-92334619D02*
X118692714Y-92334619D01*
%TO.C,SW1*%
X143116667Y-88477000D02*
X143259524Y-88524619D01*
X143259524Y-88524619D02*
X143497619Y-88524619D01*
X143497619Y-88524619D02*
X143592857Y-88477000D01*
X143592857Y-88477000D02*
X143640476Y-88429380D01*
X143640476Y-88429380D02*
X143688095Y-88334142D01*
X143688095Y-88334142D02*
X143688095Y-88238904D01*
X143688095Y-88238904D02*
X143640476Y-88143666D01*
X143640476Y-88143666D02*
X143592857Y-88096047D01*
X143592857Y-88096047D02*
X143497619Y-88048428D01*
X143497619Y-88048428D02*
X143307143Y-88000809D01*
X143307143Y-88000809D02*
X143211905Y-87953190D01*
X143211905Y-87953190D02*
X143164286Y-87905571D01*
X143164286Y-87905571D02*
X143116667Y-87810333D01*
X143116667Y-87810333D02*
X143116667Y-87715095D01*
X143116667Y-87715095D02*
X143164286Y-87619857D01*
X143164286Y-87619857D02*
X143211905Y-87572238D01*
X143211905Y-87572238D02*
X143307143Y-87524619D01*
X143307143Y-87524619D02*
X143545238Y-87524619D01*
X143545238Y-87524619D02*
X143688095Y-87572238D01*
X144021429Y-87524619D02*
X144259524Y-88524619D01*
X144259524Y-88524619D02*
X144450000Y-87810333D01*
X144450000Y-87810333D02*
X144640476Y-88524619D01*
X144640476Y-88524619D02*
X144878572Y-87524619D01*
X145783333Y-88524619D02*
X145211905Y-88524619D01*
X145497619Y-88524619D02*
X145497619Y-87524619D01*
X145497619Y-87524619D02*
X145402381Y-87667476D01*
X145402381Y-87667476D02*
X145307143Y-87762714D01*
X145307143Y-87762714D02*
X145211905Y-87810333D01*
%TO.C,D2*%
X172159905Y-64798619D02*
X172159905Y-63798619D01*
X172159905Y-63798619D02*
X172398000Y-63798619D01*
X172398000Y-63798619D02*
X172540857Y-63846238D01*
X172540857Y-63846238D02*
X172636095Y-63941476D01*
X172636095Y-63941476D02*
X172683714Y-64036714D01*
X172683714Y-64036714D02*
X172731333Y-64227190D01*
X172731333Y-64227190D02*
X172731333Y-64370047D01*
X172731333Y-64370047D02*
X172683714Y-64560523D01*
X172683714Y-64560523D02*
X172636095Y-64655761D01*
X172636095Y-64655761D02*
X172540857Y-64751000D01*
X172540857Y-64751000D02*
X172398000Y-64798619D01*
X172398000Y-64798619D02*
X172159905Y-64798619D01*
X173112286Y-63893857D02*
X173159905Y-63846238D01*
X173159905Y-63846238D02*
X173255143Y-63798619D01*
X173255143Y-63798619D02*
X173493238Y-63798619D01*
X173493238Y-63798619D02*
X173588476Y-63846238D01*
X173588476Y-63846238D02*
X173636095Y-63893857D01*
X173636095Y-63893857D02*
X173683714Y-63989095D01*
X173683714Y-63989095D02*
X173683714Y-64084333D01*
X173683714Y-64084333D02*
X173636095Y-64227190D01*
X173636095Y-64227190D02*
X173064667Y-64798619D01*
X173064667Y-64798619D02*
X173683714Y-64798619D01*
%TO.C,R1*%
X138949333Y-92334619D02*
X138616000Y-91858428D01*
X138377905Y-92334619D02*
X138377905Y-91334619D01*
X138377905Y-91334619D02*
X138758857Y-91334619D01*
X138758857Y-91334619D02*
X138854095Y-91382238D01*
X138854095Y-91382238D02*
X138901714Y-91429857D01*
X138901714Y-91429857D02*
X138949333Y-91525095D01*
X138949333Y-91525095D02*
X138949333Y-91667952D01*
X138949333Y-91667952D02*
X138901714Y-91763190D01*
X138901714Y-91763190D02*
X138854095Y-91810809D01*
X138854095Y-91810809D02*
X138758857Y-91858428D01*
X138758857Y-91858428D02*
X138377905Y-91858428D01*
X139901714Y-92334619D02*
X139330286Y-92334619D01*
X139616000Y-92334619D02*
X139616000Y-91334619D01*
X139616000Y-91334619D02*
X139520762Y-91477476D01*
X139520762Y-91477476D02*
X139425524Y-91572714D01*
X139425524Y-91572714D02*
X139330286Y-91620333D01*
%TO.C,R12*%
X162425142Y-92410619D02*
X162091809Y-91934428D01*
X161853714Y-92410619D02*
X161853714Y-91410619D01*
X161853714Y-91410619D02*
X162234666Y-91410619D01*
X162234666Y-91410619D02*
X162329904Y-91458238D01*
X162329904Y-91458238D02*
X162377523Y-91505857D01*
X162377523Y-91505857D02*
X162425142Y-91601095D01*
X162425142Y-91601095D02*
X162425142Y-91743952D01*
X162425142Y-91743952D02*
X162377523Y-91839190D01*
X162377523Y-91839190D02*
X162329904Y-91886809D01*
X162329904Y-91886809D02*
X162234666Y-91934428D01*
X162234666Y-91934428D02*
X161853714Y-91934428D01*
X163377523Y-92410619D02*
X162806095Y-92410619D01*
X163091809Y-92410619D02*
X163091809Y-91410619D01*
X163091809Y-91410619D02*
X162996571Y-91553476D01*
X162996571Y-91553476D02*
X162901333Y-91648714D01*
X162901333Y-91648714D02*
X162806095Y-91696333D01*
X163758476Y-91505857D02*
X163806095Y-91458238D01*
X163806095Y-91458238D02*
X163901333Y-91410619D01*
X163901333Y-91410619D02*
X164139428Y-91410619D01*
X164139428Y-91410619D02*
X164234666Y-91458238D01*
X164234666Y-91458238D02*
X164282285Y-91505857D01*
X164282285Y-91505857D02*
X164329904Y-91601095D01*
X164329904Y-91601095D02*
X164329904Y-91696333D01*
X164329904Y-91696333D02*
X164282285Y-91839190D01*
X164282285Y-91839190D02*
X163710857Y-92410619D01*
X163710857Y-92410619D02*
X164329904Y-92410619D01*
%TO.C,R10*%
X162425142Y-86009819D02*
X162091809Y-85533628D01*
X161853714Y-86009819D02*
X161853714Y-85009819D01*
X161853714Y-85009819D02*
X162234666Y-85009819D01*
X162234666Y-85009819D02*
X162329904Y-85057438D01*
X162329904Y-85057438D02*
X162377523Y-85105057D01*
X162377523Y-85105057D02*
X162425142Y-85200295D01*
X162425142Y-85200295D02*
X162425142Y-85343152D01*
X162425142Y-85343152D02*
X162377523Y-85438390D01*
X162377523Y-85438390D02*
X162329904Y-85486009D01*
X162329904Y-85486009D02*
X162234666Y-85533628D01*
X162234666Y-85533628D02*
X161853714Y-85533628D01*
X163377523Y-86009819D02*
X162806095Y-86009819D01*
X163091809Y-86009819D02*
X163091809Y-85009819D01*
X163091809Y-85009819D02*
X162996571Y-85152676D01*
X162996571Y-85152676D02*
X162901333Y-85247914D01*
X162901333Y-85247914D02*
X162806095Y-85295533D01*
X163996571Y-85009819D02*
X164091809Y-85009819D01*
X164091809Y-85009819D02*
X164187047Y-85057438D01*
X164187047Y-85057438D02*
X164234666Y-85105057D01*
X164234666Y-85105057D02*
X164282285Y-85200295D01*
X164282285Y-85200295D02*
X164329904Y-85390771D01*
X164329904Y-85390771D02*
X164329904Y-85628866D01*
X164329904Y-85628866D02*
X164282285Y-85819342D01*
X164282285Y-85819342D02*
X164234666Y-85914580D01*
X164234666Y-85914580D02*
X164187047Y-85962200D01*
X164187047Y-85962200D02*
X164091809Y-86009819D01*
X164091809Y-86009819D02*
X163996571Y-86009819D01*
X163996571Y-86009819D02*
X163901333Y-85962200D01*
X163901333Y-85962200D02*
X163853714Y-85914580D01*
X163853714Y-85914580D02*
X163806095Y-85819342D01*
X163806095Y-85819342D02*
X163758476Y-85628866D01*
X163758476Y-85628866D02*
X163758476Y-85390771D01*
X163758476Y-85390771D02*
X163806095Y-85200295D01*
X163806095Y-85200295D02*
X163853714Y-85105057D01*
X163853714Y-85105057D02*
X163901333Y-85057438D01*
X163901333Y-85057438D02*
X163996571Y-85009819D01*
%TO.C,R8*%
X162901333Y-79456619D02*
X162568000Y-78980428D01*
X162329905Y-79456619D02*
X162329905Y-78456619D01*
X162329905Y-78456619D02*
X162710857Y-78456619D01*
X162710857Y-78456619D02*
X162806095Y-78504238D01*
X162806095Y-78504238D02*
X162853714Y-78551857D01*
X162853714Y-78551857D02*
X162901333Y-78647095D01*
X162901333Y-78647095D02*
X162901333Y-78789952D01*
X162901333Y-78789952D02*
X162853714Y-78885190D01*
X162853714Y-78885190D02*
X162806095Y-78932809D01*
X162806095Y-78932809D02*
X162710857Y-78980428D01*
X162710857Y-78980428D02*
X162329905Y-78980428D01*
X163472762Y-78885190D02*
X163377524Y-78837571D01*
X163377524Y-78837571D02*
X163329905Y-78789952D01*
X163329905Y-78789952D02*
X163282286Y-78694714D01*
X163282286Y-78694714D02*
X163282286Y-78647095D01*
X163282286Y-78647095D02*
X163329905Y-78551857D01*
X163329905Y-78551857D02*
X163377524Y-78504238D01*
X163377524Y-78504238D02*
X163472762Y-78456619D01*
X163472762Y-78456619D02*
X163663238Y-78456619D01*
X163663238Y-78456619D02*
X163758476Y-78504238D01*
X163758476Y-78504238D02*
X163806095Y-78551857D01*
X163806095Y-78551857D02*
X163853714Y-78647095D01*
X163853714Y-78647095D02*
X163853714Y-78694714D01*
X163853714Y-78694714D02*
X163806095Y-78789952D01*
X163806095Y-78789952D02*
X163758476Y-78837571D01*
X163758476Y-78837571D02*
X163663238Y-78885190D01*
X163663238Y-78885190D02*
X163472762Y-78885190D01*
X163472762Y-78885190D02*
X163377524Y-78932809D01*
X163377524Y-78932809D02*
X163329905Y-78980428D01*
X163329905Y-78980428D02*
X163282286Y-79075666D01*
X163282286Y-79075666D02*
X163282286Y-79266142D01*
X163282286Y-79266142D02*
X163329905Y-79361380D01*
X163329905Y-79361380D02*
X163377524Y-79409000D01*
X163377524Y-79409000D02*
X163472762Y-79456619D01*
X163472762Y-79456619D02*
X163663238Y-79456619D01*
X163663238Y-79456619D02*
X163758476Y-79409000D01*
X163758476Y-79409000D02*
X163806095Y-79361380D01*
X163806095Y-79361380D02*
X163853714Y-79266142D01*
X163853714Y-79266142D02*
X163853714Y-79075666D01*
X163853714Y-79075666D02*
X163806095Y-78980428D01*
X163806095Y-78980428D02*
X163758476Y-78932809D01*
X163758476Y-78932809D02*
X163663238Y-78885190D01*
%TO.C,SW2*%
X122034667Y-88477000D02*
X122177524Y-88524619D01*
X122177524Y-88524619D02*
X122415619Y-88524619D01*
X122415619Y-88524619D02*
X122510857Y-88477000D01*
X122510857Y-88477000D02*
X122558476Y-88429380D01*
X122558476Y-88429380D02*
X122606095Y-88334142D01*
X122606095Y-88334142D02*
X122606095Y-88238904D01*
X122606095Y-88238904D02*
X122558476Y-88143666D01*
X122558476Y-88143666D02*
X122510857Y-88096047D01*
X122510857Y-88096047D02*
X122415619Y-88048428D01*
X122415619Y-88048428D02*
X122225143Y-88000809D01*
X122225143Y-88000809D02*
X122129905Y-87953190D01*
X122129905Y-87953190D02*
X122082286Y-87905571D01*
X122082286Y-87905571D02*
X122034667Y-87810333D01*
X122034667Y-87810333D02*
X122034667Y-87715095D01*
X122034667Y-87715095D02*
X122082286Y-87619857D01*
X122082286Y-87619857D02*
X122129905Y-87572238D01*
X122129905Y-87572238D02*
X122225143Y-87524619D01*
X122225143Y-87524619D02*
X122463238Y-87524619D01*
X122463238Y-87524619D02*
X122606095Y-87572238D01*
X122939429Y-87524619D02*
X123177524Y-88524619D01*
X123177524Y-88524619D02*
X123368000Y-87810333D01*
X123368000Y-87810333D02*
X123558476Y-88524619D01*
X123558476Y-88524619D02*
X123796572Y-87524619D01*
X124129905Y-87619857D02*
X124177524Y-87572238D01*
X124177524Y-87572238D02*
X124272762Y-87524619D01*
X124272762Y-87524619D02*
X124510857Y-87524619D01*
X124510857Y-87524619D02*
X124606095Y-87572238D01*
X124606095Y-87572238D02*
X124653714Y-87619857D01*
X124653714Y-87619857D02*
X124701333Y-87715095D01*
X124701333Y-87715095D02*
X124701333Y-87810333D01*
X124701333Y-87810333D02*
X124653714Y-87953190D01*
X124653714Y-87953190D02*
X124082286Y-88524619D01*
X124082286Y-88524619D02*
X124701333Y-88524619D01*
%TO.C,D1*%
X160983905Y-65052619D02*
X160983905Y-64052619D01*
X160983905Y-64052619D02*
X161222000Y-64052619D01*
X161222000Y-64052619D02*
X161364857Y-64100238D01*
X161364857Y-64100238D02*
X161460095Y-64195476D01*
X161460095Y-64195476D02*
X161507714Y-64290714D01*
X161507714Y-64290714D02*
X161555333Y-64481190D01*
X161555333Y-64481190D02*
X161555333Y-64624047D01*
X161555333Y-64624047D02*
X161507714Y-64814523D01*
X161507714Y-64814523D02*
X161460095Y-64909761D01*
X161460095Y-64909761D02*
X161364857Y-65005000D01*
X161364857Y-65005000D02*
X161222000Y-65052619D01*
X161222000Y-65052619D02*
X160983905Y-65052619D01*
X162507714Y-65052619D02*
X161936286Y-65052619D01*
X162222000Y-65052619D02*
X162222000Y-64052619D01*
X162222000Y-64052619D02*
X162126762Y-64195476D01*
X162126762Y-64195476D02*
X162031524Y-64290714D01*
X162031524Y-64290714D02*
X161936286Y-64338333D01*
%TO.C,R5*%
X169505333Y-69042619D02*
X169172000Y-68566428D01*
X168933905Y-69042619D02*
X168933905Y-68042619D01*
X168933905Y-68042619D02*
X169314857Y-68042619D01*
X169314857Y-68042619D02*
X169410095Y-68090238D01*
X169410095Y-68090238D02*
X169457714Y-68137857D01*
X169457714Y-68137857D02*
X169505333Y-68233095D01*
X169505333Y-68233095D02*
X169505333Y-68375952D01*
X169505333Y-68375952D02*
X169457714Y-68471190D01*
X169457714Y-68471190D02*
X169410095Y-68518809D01*
X169410095Y-68518809D02*
X169314857Y-68566428D01*
X169314857Y-68566428D02*
X168933905Y-68566428D01*
X170410095Y-68042619D02*
X169933905Y-68042619D01*
X169933905Y-68042619D02*
X169886286Y-68518809D01*
X169886286Y-68518809D02*
X169933905Y-68471190D01*
X169933905Y-68471190D02*
X170029143Y-68423571D01*
X170029143Y-68423571D02*
X170267238Y-68423571D01*
X170267238Y-68423571D02*
X170362476Y-68471190D01*
X170362476Y-68471190D02*
X170410095Y-68518809D01*
X170410095Y-68518809D02*
X170457714Y-68614047D01*
X170457714Y-68614047D02*
X170457714Y-68852142D01*
X170457714Y-68852142D02*
X170410095Y-68947380D01*
X170410095Y-68947380D02*
X170362476Y-68995000D01*
X170362476Y-68995000D02*
X170267238Y-69042619D01*
X170267238Y-69042619D02*
X170029143Y-69042619D01*
X170029143Y-69042619D02*
X169933905Y-68995000D01*
X169933905Y-68995000D02*
X169886286Y-68947380D01*
%TO.C,R7*%
X162901333Y-76154619D02*
X162568000Y-75678428D01*
X162329905Y-76154619D02*
X162329905Y-75154619D01*
X162329905Y-75154619D02*
X162710857Y-75154619D01*
X162710857Y-75154619D02*
X162806095Y-75202238D01*
X162806095Y-75202238D02*
X162853714Y-75249857D01*
X162853714Y-75249857D02*
X162901333Y-75345095D01*
X162901333Y-75345095D02*
X162901333Y-75487952D01*
X162901333Y-75487952D02*
X162853714Y-75583190D01*
X162853714Y-75583190D02*
X162806095Y-75630809D01*
X162806095Y-75630809D02*
X162710857Y-75678428D01*
X162710857Y-75678428D02*
X162329905Y-75678428D01*
X163234667Y-75154619D02*
X163901333Y-75154619D01*
X163901333Y-75154619D02*
X163472762Y-76154619D01*
%TO.C,U2*%
X178308095Y-70582619D02*
X178308095Y-71392142D01*
X178308095Y-71392142D02*
X178355714Y-71487380D01*
X178355714Y-71487380D02*
X178403333Y-71535000D01*
X178403333Y-71535000D02*
X178498571Y-71582619D01*
X178498571Y-71582619D02*
X178689047Y-71582619D01*
X178689047Y-71582619D02*
X178784285Y-71535000D01*
X178784285Y-71535000D02*
X178831904Y-71487380D01*
X178831904Y-71487380D02*
X178879523Y-71392142D01*
X178879523Y-71392142D02*
X178879523Y-70582619D01*
X179308095Y-70677857D02*
X179355714Y-70630238D01*
X179355714Y-70630238D02*
X179450952Y-70582619D01*
X179450952Y-70582619D02*
X179689047Y-70582619D01*
X179689047Y-70582619D02*
X179784285Y-70630238D01*
X179784285Y-70630238D02*
X179831904Y-70677857D01*
X179831904Y-70677857D02*
X179879523Y-70773095D01*
X179879523Y-70773095D02*
X179879523Y-70868333D01*
X179879523Y-70868333D02*
X179831904Y-71011190D01*
X179831904Y-71011190D02*
X179260476Y-71582619D01*
X179260476Y-71582619D02*
X179879523Y-71582619D01*
%TO.C,R11*%
X162425142Y-89235619D02*
X162091809Y-88759428D01*
X161853714Y-89235619D02*
X161853714Y-88235619D01*
X161853714Y-88235619D02*
X162234666Y-88235619D01*
X162234666Y-88235619D02*
X162329904Y-88283238D01*
X162329904Y-88283238D02*
X162377523Y-88330857D01*
X162377523Y-88330857D02*
X162425142Y-88426095D01*
X162425142Y-88426095D02*
X162425142Y-88568952D01*
X162425142Y-88568952D02*
X162377523Y-88664190D01*
X162377523Y-88664190D02*
X162329904Y-88711809D01*
X162329904Y-88711809D02*
X162234666Y-88759428D01*
X162234666Y-88759428D02*
X161853714Y-88759428D01*
X163377523Y-89235619D02*
X162806095Y-89235619D01*
X163091809Y-89235619D02*
X163091809Y-88235619D01*
X163091809Y-88235619D02*
X162996571Y-88378476D01*
X162996571Y-88378476D02*
X162901333Y-88473714D01*
X162901333Y-88473714D02*
X162806095Y-88521333D01*
X164329904Y-89235619D02*
X163758476Y-89235619D01*
X164044190Y-89235619D02*
X164044190Y-88235619D01*
X164044190Y-88235619D02*
X163948952Y-88378476D01*
X163948952Y-88378476D02*
X163853714Y-88473714D01*
X163853714Y-88473714D02*
X163758476Y-88521333D01*
%TO.C,R6*%
X162901333Y-72852619D02*
X162568000Y-72376428D01*
X162329905Y-72852619D02*
X162329905Y-71852619D01*
X162329905Y-71852619D02*
X162710857Y-71852619D01*
X162710857Y-71852619D02*
X162806095Y-71900238D01*
X162806095Y-71900238D02*
X162853714Y-71947857D01*
X162853714Y-71947857D02*
X162901333Y-72043095D01*
X162901333Y-72043095D02*
X162901333Y-72185952D01*
X162901333Y-72185952D02*
X162853714Y-72281190D01*
X162853714Y-72281190D02*
X162806095Y-72328809D01*
X162806095Y-72328809D02*
X162710857Y-72376428D01*
X162710857Y-72376428D02*
X162329905Y-72376428D01*
X163758476Y-71852619D02*
X163568000Y-71852619D01*
X163568000Y-71852619D02*
X163472762Y-71900238D01*
X163472762Y-71900238D02*
X163425143Y-71947857D01*
X163425143Y-71947857D02*
X163329905Y-72090714D01*
X163329905Y-72090714D02*
X163282286Y-72281190D01*
X163282286Y-72281190D02*
X163282286Y-72662142D01*
X163282286Y-72662142D02*
X163329905Y-72757380D01*
X163329905Y-72757380D02*
X163377524Y-72805000D01*
X163377524Y-72805000D02*
X163472762Y-72852619D01*
X163472762Y-72852619D02*
X163663238Y-72852619D01*
X163663238Y-72852619D02*
X163758476Y-72805000D01*
X163758476Y-72805000D02*
X163806095Y-72757380D01*
X163806095Y-72757380D02*
X163853714Y-72662142D01*
X163853714Y-72662142D02*
X163853714Y-72424047D01*
X163853714Y-72424047D02*
X163806095Y-72328809D01*
X163806095Y-72328809D02*
X163758476Y-72281190D01*
X163758476Y-72281190D02*
X163663238Y-72233571D01*
X163663238Y-72233571D02*
X163472762Y-72233571D01*
X163472762Y-72233571D02*
X163377524Y-72281190D01*
X163377524Y-72281190D02*
X163329905Y-72328809D01*
X163329905Y-72328809D02*
X163282286Y-72424047D01*
%TO.C,R9*%
X162901333Y-82758619D02*
X162568000Y-82282428D01*
X162329905Y-82758619D02*
X162329905Y-81758619D01*
X162329905Y-81758619D02*
X162710857Y-81758619D01*
X162710857Y-81758619D02*
X162806095Y-81806238D01*
X162806095Y-81806238D02*
X162853714Y-81853857D01*
X162853714Y-81853857D02*
X162901333Y-81949095D01*
X162901333Y-81949095D02*
X162901333Y-82091952D01*
X162901333Y-82091952D02*
X162853714Y-82187190D01*
X162853714Y-82187190D02*
X162806095Y-82234809D01*
X162806095Y-82234809D02*
X162710857Y-82282428D01*
X162710857Y-82282428D02*
X162329905Y-82282428D01*
X163377524Y-82758619D02*
X163568000Y-82758619D01*
X163568000Y-82758619D02*
X163663238Y-82711000D01*
X163663238Y-82711000D02*
X163710857Y-82663380D01*
X163710857Y-82663380D02*
X163806095Y-82520523D01*
X163806095Y-82520523D02*
X163853714Y-82330047D01*
X163853714Y-82330047D02*
X163853714Y-81949095D01*
X163853714Y-81949095D02*
X163806095Y-81853857D01*
X163806095Y-81853857D02*
X163758476Y-81806238D01*
X163758476Y-81806238D02*
X163663238Y-81758619D01*
X163663238Y-81758619D02*
X163472762Y-81758619D01*
X163472762Y-81758619D02*
X163377524Y-81806238D01*
X163377524Y-81806238D02*
X163329905Y-81853857D01*
X163329905Y-81853857D02*
X163282286Y-81949095D01*
X163282286Y-81949095D02*
X163282286Y-82187190D01*
X163282286Y-82187190D02*
X163329905Y-82282428D01*
X163329905Y-82282428D02*
X163377524Y-82330047D01*
X163377524Y-82330047D02*
X163472762Y-82377666D01*
X163472762Y-82377666D02*
X163663238Y-82377666D01*
X163663238Y-82377666D02*
X163758476Y-82330047D01*
X163758476Y-82330047D02*
X163806095Y-82282428D01*
X163806095Y-82282428D02*
X163853714Y-82187190D01*
%TO.C,U1*%
X101250619Y-71951904D02*
X102060142Y-71951904D01*
X102060142Y-71951904D02*
X102155380Y-71904285D01*
X102155380Y-71904285D02*
X102203000Y-71856666D01*
X102203000Y-71856666D02*
X102250619Y-71761428D01*
X102250619Y-71761428D02*
X102250619Y-71570952D01*
X102250619Y-71570952D02*
X102203000Y-71475714D01*
X102203000Y-71475714D02*
X102155380Y-71428095D01*
X102155380Y-71428095D02*
X102060142Y-71380476D01*
X102060142Y-71380476D02*
X101250619Y-71380476D01*
X102250619Y-70380476D02*
X102250619Y-70951904D01*
X102250619Y-70666190D02*
X101250619Y-70666190D01*
X101250619Y-70666190D02*
X101393476Y-70761428D01*
X101393476Y-70761428D02*
X101488714Y-70856666D01*
X101488714Y-70856666D02*
X101536333Y-70951904D01*
D13*
%TO.C,J1*%
X129210000Y-98790000D02*
X147050000Y-98790000D01*
X129210000Y-98790000D02*
X129210000Y-96130000D01*
X147050000Y-98790000D02*
X147050000Y-96130000D01*
X126610000Y-97460000D02*
X126610000Y-96130000D01*
X126610000Y-96130000D02*
X127940000Y-96130000D01*
X129210000Y-96130000D02*
X147050000Y-96130000D01*
%TO.C,J3*%
X152070000Y-98790000D02*
X164830000Y-98790000D01*
X152070000Y-98790000D02*
X152070000Y-96130000D01*
X164830000Y-98790000D02*
X164830000Y-96130000D01*
X149470000Y-97460000D02*
X149470000Y-96130000D01*
X149470000Y-96130000D02*
X150800000Y-96130000D01*
X152070000Y-96130000D02*
X164830000Y-96130000D01*
%TO.C,J2*%
X120066000Y-50530000D02*
X142986000Y-50530000D01*
X120066000Y-50530000D02*
X120066000Y-47870000D01*
X142986000Y-50530000D02*
X142986000Y-47870000D01*
X117466000Y-49200000D02*
X117466000Y-47870000D01*
X117466000Y-47870000D02*
X118796000Y-47870000D01*
X120066000Y-47870000D02*
X142986000Y-47870000D01*
%TO.C,J4*%
X146990000Y-50530000D02*
X164830000Y-50530000D01*
X146990000Y-50530000D02*
X146990000Y-47870000D01*
X164830000Y-50530000D02*
X164830000Y-47870000D01*
X144390000Y-49200000D02*
X144390000Y-47870000D01*
X144390000Y-47870000D02*
X145720000Y-47870000D01*
X146990000Y-47870000D02*
X164830000Y-47870000D01*
%TO.C,LS1*%
X190250000Y-53594000D02*
G75*
G03*
X190250000Y-53594000I-6100000J0D01*
G01*
%TO.C,R3*%
X156637000Y-56590000D02*
X156637000Y-57360000D01*
X158007000Y-57360000D02*
X155267000Y-57360000D01*
X155267000Y-57360000D02*
X155267000Y-63900000D01*
X158007000Y-63900000D02*
X158007000Y-57360000D01*
X155267000Y-63900000D02*
X158007000Y-63900000D01*
X156637000Y-64670000D02*
X156637000Y-63900000D01*
%TO.C,R4*%
X167813000Y-56336000D02*
X167813000Y-57106000D01*
X169183000Y-57106000D02*
X166443000Y-57106000D01*
X166443000Y-57106000D02*
X166443000Y-63646000D01*
X169183000Y-63646000D02*
X169183000Y-57106000D01*
X166443000Y-63646000D02*
X169183000Y-63646000D01*
X167813000Y-64416000D02*
X167813000Y-63646000D01*
%TO.C,R2*%
X113867000Y-91872000D02*
X114637000Y-91872000D01*
X114637000Y-90502000D02*
X114637000Y-93242000D01*
X114637000Y-93242000D02*
X121177000Y-93242000D01*
X121177000Y-90502000D02*
X114637000Y-90502000D01*
X121177000Y-93242000D02*
X121177000Y-90502000D01*
X121947000Y-91872000D02*
X121177000Y-91872000D01*
%TO.C,SW1*%
X134136000Y-76832000D02*
X146436000Y-76832000D01*
X134136000Y-79552000D02*
X134136000Y-76832000D01*
X134136000Y-84552000D02*
X134136000Y-81412000D01*
X134136000Y-89132000D02*
X134136000Y-86412000D01*
X146436000Y-76832000D02*
X146436000Y-79552000D01*
X146436000Y-81412000D02*
X146436000Y-84552000D01*
X146436000Y-86412000D02*
X146436000Y-89132000D01*
X146436000Y-89132000D02*
X134136000Y-89132000D01*
X144965050Y-83022000D02*
G75*
G03*
X144965050Y-83022000I-4579050J0D01*
G01*
%TO.C,D2*%
X175458000Y-61921000D02*
X175458000Y-58831000D01*
X169908001Y-60375538D02*
G75*
G03*
X175457999Y-61920830I2989999J-462D01*
G01*
X175458000Y-58831170D02*
G75*
G03*
X169908000Y-60376462I-2560000J-1544830D01*
G01*
X175398000Y-60376000D02*
G75*
G03*
X175398000Y-60376000I-2500000J0D01*
G01*
%TO.C,R1*%
X135076000Y-91872000D02*
X135846000Y-91872000D01*
X135846000Y-90502000D02*
X135846000Y-93242000D01*
X135846000Y-93242000D02*
X142386000Y-93242000D01*
X142386000Y-90502000D02*
X135846000Y-90502000D01*
X142386000Y-93242000D02*
X142386000Y-90502000D01*
X143156000Y-91872000D02*
X142386000Y-91872000D01*
%TO.C,R12*%
X167108000Y-91948000D02*
X166338000Y-91948000D01*
X166338000Y-93318000D02*
X166338000Y-90578000D01*
X166338000Y-90578000D02*
X159798000Y-90578000D01*
X159798000Y-93318000D02*
X166338000Y-93318000D01*
X159798000Y-90578000D02*
X159798000Y-93318000D01*
X159028000Y-91948000D02*
X159798000Y-91948000D01*
%TO.C,R10*%
X167108000Y-85547200D02*
X166338000Y-85547200D01*
X166338000Y-86917200D02*
X166338000Y-84177200D01*
X166338000Y-84177200D02*
X159798000Y-84177200D01*
X159798000Y-86917200D02*
X166338000Y-86917200D01*
X159798000Y-84177200D02*
X159798000Y-86917200D01*
X159028000Y-85547200D02*
X159798000Y-85547200D01*
%TO.C,R8*%
X167108000Y-78994000D02*
X166338000Y-78994000D01*
X166338000Y-80364000D02*
X166338000Y-77624000D01*
X166338000Y-77624000D02*
X159798000Y-77624000D01*
X159798000Y-80364000D02*
X166338000Y-80364000D01*
X159798000Y-77624000D02*
X159798000Y-80364000D01*
X159028000Y-78994000D02*
X159798000Y-78994000D01*
%TO.C,SW2*%
X112910000Y-76832000D02*
X125210000Y-76832000D01*
X112910000Y-79552000D02*
X112910000Y-76832000D01*
X112910000Y-84552000D02*
X112910000Y-81412000D01*
X112910000Y-89132000D02*
X112910000Y-86412000D01*
X125210000Y-76832000D02*
X125210000Y-79552000D01*
X125210000Y-81412000D02*
X125210000Y-84552000D01*
X125210000Y-86412000D02*
X125210000Y-89132000D01*
X125210000Y-89132000D02*
X112910000Y-89132000D01*
X123739050Y-83022000D02*
G75*
G03*
X123739050Y-83022000I-4579050J0D01*
G01*
%TO.C,D1*%
X164282000Y-62175000D02*
X164282000Y-59085000D01*
X158732001Y-60629538D02*
G75*
G03*
X164281999Y-62174830I2989999J-462D01*
G01*
X164282000Y-59085170D02*
G75*
G03*
X158732000Y-60630462I-2560000J-1544830D01*
G01*
X164222000Y-60630000D02*
G75*
G03*
X164222000Y-60630000I-2500000J0D01*
G01*
%TO.C,R5*%
X173458000Y-68580000D02*
X172688000Y-68580000D01*
X172688000Y-69950000D02*
X172688000Y-67210000D01*
X172688000Y-67210000D02*
X166148000Y-67210000D01*
X166148000Y-69950000D02*
X172688000Y-69950000D01*
X166148000Y-67210000D02*
X166148000Y-69950000D01*
X165378000Y-68580000D02*
X166148000Y-68580000D01*
%TO.C,R7*%
X167108000Y-75692000D02*
X166338000Y-75692000D01*
X166338000Y-77062000D02*
X166338000Y-74322000D01*
X166338000Y-74322000D02*
X159798000Y-74322000D01*
X159798000Y-77062000D02*
X166338000Y-77062000D01*
X159798000Y-74322000D02*
X159798000Y-77062000D01*
X159028000Y-75692000D02*
X159798000Y-75692000D01*
%TO.C,U2*%
X172220000Y-72194000D02*
X172220000Y-92754000D01*
X172220000Y-92754000D02*
X182720000Y-92754000D01*
X175220000Y-72254000D02*
X175220000Y-92694000D01*
X175220000Y-92694000D02*
X179720000Y-92694000D01*
X176470000Y-72254000D02*
X175220000Y-72254000D01*
X179720000Y-72254000D02*
X178470000Y-72254000D01*
X179720000Y-92694000D02*
X179720000Y-72254000D01*
X182720000Y-72194000D02*
X172220000Y-72194000D01*
X182720000Y-92754000D02*
X182720000Y-72194000D01*
X176470000Y-72254000D02*
G75*
G03*
X178470000Y-72254000I1000000J0D01*
G01*
%TO.C,R11*%
X167108000Y-88773000D02*
X166338000Y-88773000D01*
X166338000Y-90143000D02*
X166338000Y-87403000D01*
X166338000Y-87403000D02*
X159798000Y-87403000D01*
X159798000Y-90143000D02*
X166338000Y-90143000D01*
X159798000Y-87403000D02*
X159798000Y-90143000D01*
X159028000Y-88773000D02*
X159798000Y-88773000D01*
%TO.C,R6*%
X167108000Y-72390000D02*
X166338000Y-72390000D01*
X166338000Y-73760000D02*
X166338000Y-71020000D01*
X166338000Y-71020000D02*
X159798000Y-71020000D01*
X159798000Y-73760000D02*
X166338000Y-73760000D01*
X159798000Y-71020000D02*
X159798000Y-73760000D01*
X159028000Y-72390000D02*
X159798000Y-72390000D01*
%TO.C,R9*%
X167108000Y-82296000D02*
X166338000Y-82296000D01*
X166338000Y-83666000D02*
X166338000Y-80926000D01*
X166338000Y-80926000D02*
X159798000Y-80926000D01*
X159798000Y-83666000D02*
X166338000Y-83666000D01*
X159798000Y-80926000D02*
X159798000Y-83666000D01*
X159028000Y-82296000D02*
X159798000Y-82296000D01*
%TO.C,U1*%
X121098000Y-73170000D02*
X123098000Y-73170000D01*
X103178000Y-72790000D02*
X153718000Y-72790000D01*
X103178000Y-72790000D02*
X103178000Y-53550000D01*
X153718000Y-72790000D02*
X153718000Y-53550000D01*
X153718000Y-53550000D02*
X103178000Y-53550000D01*
%TD*%
M02*
