%TF.GenerationSoftware,KiCad,Pcbnew,7.0.1*%
%TF.CreationDate,2023-03-28T15:09:56-06:00*%
%TF.ProjectId,Phase_A_UnoShield,50686173-655f-4415-9f55-6e6f53686965,1.0*%
%TF.SameCoordinates,Original*%
%TF.FileFunction,Soldermask,Bot*%
%TF.FilePolarity,Negative*%
%FSLAX46Y46*%
G04 Gerber Fmt 4.6, Leading zero omitted, Abs format (unit mm)*
G04 Created by KiCad (PCBNEW 7.0.1) date 2023-03-28 15:09:56*
%MOMM*%
%LPD*%
G01*
G04 APERTURE LIST*
%ADD10R,1.700000X1.700000*%
%ADD11O,1.700000X1.700000*%
%ADD12R,2.000000X2.000000*%
%ADD13C,2.000000*%
%ADD14C,1.600000*%
%ADD15O,1.600000X1.600000*%
%ADD16O,3.048000X1.850000*%
%ADD17R,1.800000X1.800000*%
%ADD18C,1.800000*%
%ADD19R,2.400000X1.600000*%
%ADD20O,2.400000X1.600000*%
%ADD21R,1.500000X1.500000*%
%ADD22C,1.500000*%
G04 APERTURE END LIST*
D10*
%TO.C,J1*%
X127940000Y-97460000D03*
D11*
X130480000Y-97460000D03*
X133020000Y-97460000D03*
X135560000Y-97460000D03*
X138100000Y-97460000D03*
X140640000Y-97460000D03*
X143180000Y-97460000D03*
X145720000Y-97460000D03*
%TD*%
D10*
%TO.C,J3*%
X150800000Y-97460000D03*
D11*
X153340000Y-97460000D03*
X155880000Y-97460000D03*
X158420000Y-97460000D03*
X160960000Y-97460000D03*
X163500000Y-97460000D03*
%TD*%
D10*
%TO.C,J2*%
X118796000Y-49200000D03*
D11*
X121336000Y-49200000D03*
X123876000Y-49200000D03*
X126416000Y-49200000D03*
X128956000Y-49200000D03*
X131496000Y-49200000D03*
X134036000Y-49200000D03*
X136576000Y-49200000D03*
X139116000Y-49200000D03*
X141656000Y-49200000D03*
%TD*%
D10*
%TO.C,J4*%
X145720000Y-49200000D03*
D11*
X148260000Y-49200000D03*
X150800000Y-49200000D03*
X153340000Y-49200000D03*
X155880000Y-49200000D03*
X158420000Y-49200000D03*
X160960000Y-49200000D03*
X163500000Y-49200000D03*
%TD*%
D12*
%TO.C,LS1*%
X180350000Y-53594000D03*
D13*
X187950000Y-53594000D03*
%TD*%
D14*
%TO.C,R3*%
X156637000Y-55550000D03*
D15*
X156637000Y-65710000D03*
%TD*%
D14*
%TO.C,R4*%
X167813000Y-55296000D03*
D15*
X167813000Y-65456000D03*
%TD*%
D14*
%TO.C,R2*%
X112827000Y-91872000D03*
D15*
X122987000Y-91872000D03*
%TD*%
D16*
%TO.C,SW1*%
X134036000Y-80482000D03*
X146536000Y-80482000D03*
X134036000Y-85482000D03*
X146536000Y-85482000D03*
%TD*%
D17*
%TO.C,D2*%
X174168000Y-60376000D03*
D18*
X171628000Y-60376000D03*
%TD*%
D14*
%TO.C,R1*%
X134036000Y-91872000D03*
D15*
X144196000Y-91872000D03*
%TD*%
D14*
%TO.C,R12*%
X168148000Y-91948000D03*
D15*
X157988000Y-91948000D03*
%TD*%
D14*
%TO.C,R10*%
X168148000Y-85547200D03*
D15*
X157988000Y-85547200D03*
%TD*%
D14*
%TO.C,R8*%
X168148000Y-78994000D03*
D15*
X157988000Y-78994000D03*
%TD*%
D16*
%TO.C,SW2*%
X112810000Y-80482000D03*
X125310000Y-80482000D03*
X112810000Y-85482000D03*
X125310000Y-85482000D03*
%TD*%
D17*
%TO.C,D1*%
X162992000Y-60630000D03*
D18*
X160452000Y-60630000D03*
%TD*%
D14*
%TO.C,R5*%
X174498000Y-68580000D03*
D15*
X164338000Y-68580000D03*
%TD*%
D14*
%TO.C,R7*%
X168148000Y-75692000D03*
D15*
X157988000Y-75692000D03*
%TD*%
D19*
%TO.C,U2*%
X173660000Y-73584000D03*
D20*
X173660000Y-76124000D03*
X173660000Y-78664000D03*
X173660000Y-81204000D03*
X173660000Y-83744000D03*
X173660000Y-86284000D03*
X173660000Y-88824000D03*
X173660000Y-91364000D03*
X181280000Y-91364000D03*
X181280000Y-88824000D03*
X181280000Y-86284000D03*
X181280000Y-83744000D03*
X181280000Y-81204000D03*
X181280000Y-78664000D03*
X181280000Y-76124000D03*
X181280000Y-73584000D03*
%TD*%
D14*
%TO.C,R11*%
X168148000Y-88773000D03*
D15*
X157988000Y-88773000D03*
%TD*%
D14*
%TO.C,R6*%
X168148000Y-72390000D03*
D15*
X157988000Y-72390000D03*
%TD*%
D14*
%TO.C,R9*%
X168148000Y-82296000D03*
D15*
X157988000Y-82296000D03*
%TD*%
D21*
%TO.C,U1*%
X122098000Y-70790000D03*
D22*
X124638000Y-70790000D03*
X127178000Y-70790000D03*
X129718000Y-70790000D03*
X132258000Y-70790000D03*
X134798000Y-70790000D03*
X134798000Y-55550000D03*
X132258000Y-55550000D03*
X129718000Y-55550000D03*
X127178000Y-55550000D03*
X124638000Y-55550000D03*
X122098000Y-55550000D03*
%TD*%
M02*
