%TF.GenerationSoftware,KiCad,Pcbnew,7.0.1*%
%TF.CreationDate,2023-03-28T15:09:56-06:00*%
%TF.ProjectId,Phase_A_UnoShield,50686173-655f-4415-9f55-6e6f53686965,1.0*%
%TF.SameCoordinates,Original*%
%TF.FileFunction,Copper,L1,Top*%
%TF.FilePolarity,Positive*%
%FSLAX46Y46*%
G04 Gerber Fmt 4.6, Leading zero omitted, Abs format (unit mm)*
G04 Created by KiCad (PCBNEW 7.0.1) date 2023-03-28 15:09:56*
%MOMM*%
%LPD*%
G01*
G04 APERTURE LIST*
%TA.AperFunction,ComponentPad*%
%ADD10R,1.700000X1.700000*%
%TD*%
%TA.AperFunction,ComponentPad*%
%ADD11O,1.700000X1.700000*%
%TD*%
%TA.AperFunction,ComponentPad*%
%ADD12R,2.000000X2.000000*%
%TD*%
%TA.AperFunction,ComponentPad*%
%ADD13C,2.000000*%
%TD*%
%TA.AperFunction,ComponentPad*%
%ADD14C,1.600000*%
%TD*%
%TA.AperFunction,ComponentPad*%
%ADD15O,1.600000X1.600000*%
%TD*%
%TA.AperFunction,ComponentPad*%
%ADD16O,3.048000X1.850000*%
%TD*%
%TA.AperFunction,ComponentPad*%
%ADD17R,1.800000X1.800000*%
%TD*%
%TA.AperFunction,ComponentPad*%
%ADD18C,1.800000*%
%TD*%
%TA.AperFunction,ComponentPad*%
%ADD19R,2.400000X1.600000*%
%TD*%
%TA.AperFunction,ComponentPad*%
%ADD20O,2.400000X1.600000*%
%TD*%
%TA.AperFunction,ComponentPad*%
%ADD21R,1.500000X1.500000*%
%TD*%
%TA.AperFunction,ComponentPad*%
%ADD22C,1.500000*%
%TD*%
%TA.AperFunction,ViaPad*%
%ADD23C,0.600000*%
%TD*%
%TA.AperFunction,Conductor*%
%ADD24C,0.508000*%
%TD*%
%TA.AperFunction,Conductor*%
%ADD25C,0.254000*%
%TD*%
%TA.AperFunction,Conductor*%
%ADD26C,0.250000*%
%TD*%
%TA.AperFunction,Conductor*%
%ADD27C,0.200000*%
%TD*%
G04 APERTURE END LIST*
D10*
%TO.P,J1,1,Pin_1*%
%TO.N,unconnected-(J1-Pin_1-Pad1)*%
X127940000Y-97460000D03*
D11*
%TO.P,J1,2,Pin_2*%
%TO.N,/IOREF*%
X130480000Y-97460000D03*
%TO.P,J1,3,Pin_3*%
%TO.N,/~{RESET}*%
X133020000Y-97460000D03*
%TO.P,J1,4,Pin_4*%
%TO.N,+3V3*%
X135560000Y-97460000D03*
%TO.P,J1,5,Pin_5*%
%TO.N,+5V*%
X138100000Y-97460000D03*
%TO.P,J1,6,Pin_6*%
%TO.N,GND*%
X140640000Y-97460000D03*
%TO.P,J1,7,Pin_7*%
X143180000Y-97460000D03*
%TO.P,J1,8,Pin_8*%
%TO.N,VCC*%
X145720000Y-97460000D03*
%TD*%
D10*
%TO.P,J3,1,Pin_1*%
%TO.N,/A0*%
X150800000Y-97460000D03*
D11*
%TO.P,J3,2,Pin_2*%
%TO.N,/A1*%
X153340000Y-97460000D03*
%TO.P,J3,3,Pin_3*%
%TO.N,/A2*%
X155880000Y-97460000D03*
%TO.P,J3,4,Pin_4*%
%TO.N,/A3*%
X158420000Y-97460000D03*
%TO.P,J3,5,Pin_5*%
%TO.N,/SDA{slash}A4*%
X160960000Y-97460000D03*
%TO.P,J3,6,Pin_6*%
%TO.N,/SCL{slash}A5*%
X163500000Y-97460000D03*
%TD*%
D10*
%TO.P,J2,1,Pin_1*%
%TO.N,unconnected-(J2-Pin_1-Pad1)*%
X118796000Y-49200000D03*
D11*
%TO.P,J2,2,Pin_2*%
%TO.N,unconnected-(J2-Pin_2-Pad2)*%
X121336000Y-49200000D03*
%TO.P,J2,3,Pin_3*%
%TO.N,unconnected-(J2-Pin_3-Pad3)*%
X123876000Y-49200000D03*
%TO.P,J2,4,Pin_4*%
%TO.N,GND*%
X126416000Y-49200000D03*
%TO.P,J2,5,Pin_5*%
%TO.N,Dig1*%
X128956000Y-49200000D03*
%TO.P,J2,6,Pin_6*%
%TO.N,Dig2*%
X131496000Y-49200000D03*
%TO.P,J2,7,Pin_7*%
%TO.N,Dig3*%
X134036000Y-49200000D03*
%TO.P,J2,8,Pin_8*%
%TO.N,Dig4*%
X136576000Y-49200000D03*
%TO.P,J2,9,Pin_9*%
%TO.N,DS*%
X139116000Y-49200000D03*
%TO.P,J2,10,Pin_10*%
%TO.N,ST_CP*%
X141656000Y-49200000D03*
%TD*%
D10*
%TO.P,J4,1,Pin_1*%
%TO.N,SH_CP*%
X145720000Y-49200000D03*
D11*
%TO.P,J4,2,Pin_2*%
%TO.N,Buzzer*%
X148260000Y-49200000D03*
%TO.P,J4,3,Pin_3*%
%TO.N,RED_LED*%
X150800000Y-49200000D03*
%TO.P,J4,4,Pin_4*%
%TO.N,GREEN_LED*%
X153340000Y-49200000D03*
%TO.P,J4,5,Pin_5*%
%TO.N,Button_2*%
X155880000Y-49200000D03*
%TO.P,J4,6,Pin_6*%
%TO.N,Button_1*%
X158420000Y-49200000D03*
%TO.P,J4,7,Pin_7*%
%TO.N,/TX{slash}1*%
X160960000Y-49200000D03*
%TO.P,J4,8,Pin_8*%
%TO.N,/RX{slash}0*%
X163500000Y-49200000D03*
%TD*%
D12*
%TO.P,LS1,1,1*%
%TO.N,Buzzer*%
X180350000Y-53594000D03*
D13*
%TO.P,LS1,2,2*%
%TO.N,GND*%
X187950000Y-53594000D03*
%TD*%
D14*
%TO.P,R3,1*%
%TO.N,RED_LED*%
X156637000Y-55550000D03*
D15*
%TO.P,R3,2*%
%TO.N,Net-(D1-A)*%
X156637000Y-65710000D03*
%TD*%
D14*
%TO.P,R4,1*%
%TO.N,GREEN_LED*%
X167813000Y-55296000D03*
D15*
%TO.P,R4,2*%
%TO.N,Net-(D2-A)*%
X167813000Y-65456000D03*
%TD*%
D14*
%TO.P,R2,1*%
%TO.N,Button_2*%
X112827000Y-91872000D03*
D15*
%TO.P,R2,2*%
%TO.N,GND*%
X122987000Y-91872000D03*
%TD*%
D16*
%TO.P,SW1,1,1*%
%TO.N,+5V*%
X134036000Y-80482000D03*
X146536000Y-80482000D03*
%TO.P,SW1,2,2*%
%TO.N,Button_1*%
X134036000Y-85482000D03*
X146536000Y-85482000D03*
%TD*%
D17*
%TO.P,D2,1,K*%
%TO.N,GND*%
X174168000Y-60376000D03*
D18*
%TO.P,D2,2,A*%
%TO.N,Net-(D2-A)*%
X171628000Y-60376000D03*
%TD*%
D14*
%TO.P,R1,1*%
%TO.N,Button_1*%
X134036000Y-91872000D03*
D15*
%TO.P,R1,2*%
%TO.N,GND*%
X144196000Y-91872000D03*
%TD*%
D14*
%TO.P,R12,1*%
%TO.N,dp*%
X168148000Y-91948000D03*
D15*
%TO.P,R12,2*%
%TO.N,Net-(U1-DPX)*%
X157988000Y-91948000D03*
%TD*%
D14*
%TO.P,R10,1*%
%TO.N,f*%
X168148000Y-85547200D03*
D15*
%TO.P,R10,2*%
%TO.N,Net-(U1-f)*%
X157988000Y-85547200D03*
%TD*%
D14*
%TO.P,R8,1*%
%TO.N,d*%
X168148000Y-78994000D03*
D15*
%TO.P,R8,2*%
%TO.N,Net-(U1-d)*%
X157988000Y-78994000D03*
%TD*%
D16*
%TO.P,SW2,1,1*%
%TO.N,+5V*%
X112810000Y-80482000D03*
X125310000Y-80482000D03*
%TO.P,SW2,2,2*%
%TO.N,Button_2*%
X112810000Y-85482000D03*
X125310000Y-85482000D03*
%TD*%
D17*
%TO.P,D1,1,K*%
%TO.N,GND*%
X162992000Y-60630000D03*
D18*
%TO.P,D1,2,A*%
%TO.N,Net-(D1-A)*%
X160452000Y-60630000D03*
%TD*%
D14*
%TO.P,R5,1*%
%TO.N,a*%
X174498000Y-68580000D03*
D15*
%TO.P,R5,2*%
%TO.N,Net-(U1-a)*%
X164338000Y-68580000D03*
%TD*%
D14*
%TO.P,R7,1*%
%TO.N,c*%
X168148000Y-75692000D03*
D15*
%TO.P,R7,2*%
%TO.N,Net-(U1-c)*%
X157988000Y-75692000D03*
%TD*%
D19*
%TO.P,U2,1,QB*%
%TO.N,b*%
X173660000Y-73584000D03*
D20*
%TO.P,U2,2,QC*%
%TO.N,c*%
X173660000Y-76124000D03*
%TO.P,U2,3,QD*%
%TO.N,d*%
X173660000Y-78664000D03*
%TO.P,U2,4,QE*%
%TO.N,e*%
X173660000Y-81204000D03*
%TO.P,U2,5,QF*%
%TO.N,f*%
X173660000Y-83744000D03*
%TO.P,U2,6,QG*%
%TO.N,g*%
X173660000Y-86284000D03*
%TO.P,U2,7,QH*%
%TO.N,dp*%
X173660000Y-88824000D03*
%TO.P,U2,8,GND*%
%TO.N,GND*%
X173660000Y-91364000D03*
%TO.P,U2,9,QH'*%
%TO.N,unconnected-(U2-QH'-Pad9)*%
X181280000Y-91364000D03*
%TO.P,U2,10,~{SRCLR}*%
%TO.N,+5V*%
X181280000Y-88824000D03*
%TO.P,U2,11,SRCLK*%
%TO.N,SH_CP*%
X181280000Y-86284000D03*
%TO.P,U2,12,RCLK*%
%TO.N,ST_CP*%
X181280000Y-83744000D03*
%TO.P,U2,13,~{OE}*%
%TO.N,GND*%
X181280000Y-81204000D03*
%TO.P,U2,14,SER*%
%TO.N,DS*%
X181280000Y-78664000D03*
%TO.P,U2,15,QA*%
%TO.N,a*%
X181280000Y-76124000D03*
%TO.P,U2,16,VCC*%
%TO.N,+5V*%
X181280000Y-73584000D03*
%TD*%
D14*
%TO.P,R11,1*%
%TO.N,g*%
X168148000Y-88773000D03*
D15*
%TO.P,R11,2*%
%TO.N,Net-(U1-g)*%
X157988000Y-88773000D03*
%TD*%
D14*
%TO.P,R6,1*%
%TO.N,b*%
X168148000Y-72390000D03*
D15*
%TO.P,R6,2*%
%TO.N,Net-(U1-b)*%
X157988000Y-72390000D03*
%TD*%
D14*
%TO.P,R9,1*%
%TO.N,e*%
X168148000Y-82296000D03*
D15*
%TO.P,R9,2*%
%TO.N,Net-(U1-e)*%
X157988000Y-82296000D03*
%TD*%
D21*
%TO.P,U1,1,e*%
%TO.N,Net-(U1-e)*%
X122098000Y-70790000D03*
D22*
%TO.P,U1,2,d*%
%TO.N,Net-(U1-d)*%
X124638000Y-70790000D03*
%TO.P,U1,3,DPX*%
%TO.N,Net-(U1-DPX)*%
X127178000Y-70790000D03*
%TO.P,U1,4,c*%
%TO.N,Net-(U1-c)*%
X129718000Y-70790000D03*
%TO.P,U1,5,g*%
%TO.N,Net-(U1-g)*%
X132258000Y-70790000D03*
%TO.P,U1,6,CA4*%
%TO.N,Dig4*%
X134798000Y-70790000D03*
%TO.P,U1,7,b*%
%TO.N,Net-(U1-b)*%
X134798000Y-55550000D03*
%TO.P,U1,8,CA3*%
%TO.N,Dig3*%
X132258000Y-55550000D03*
%TO.P,U1,9,CA2*%
%TO.N,Dig2*%
X129718000Y-55550000D03*
%TO.P,U1,10,f*%
%TO.N,Net-(U1-f)*%
X127178000Y-55550000D03*
%TO.P,U1,11,a*%
%TO.N,Net-(U1-a)*%
X124638000Y-55550000D03*
%TO.P,U1,12,CA1*%
%TO.N,Dig1*%
X122098000Y-55550000D03*
%TD*%
D23*
%TO.N,Net-(U1-a)*%
X137922000Y-64008000D03*
X159512000Y-65278000D03*
X136144000Y-64008000D03*
X147320000Y-64008000D03*
%TO.N,Net-(U1-b)*%
X136398000Y-55626000D03*
X137922000Y-55626000D03*
X152146000Y-59690000D03*
X148590000Y-59690000D03*
%TO.N,Net-(U1-c)*%
X152654000Y-68072000D03*
X147320000Y-68072000D03*
X137922000Y-68072000D03*
X136144000Y-68072000D03*
%TO.N,Net-(U1-d)*%
X152654000Y-74676000D03*
X147320000Y-74422000D03*
%TO.N,Net-(U1-e)*%
X137922000Y-66802000D03*
X151892000Y-66802000D03*
X147320000Y-66802000D03*
X136144000Y-66802000D03*
%TO.N,Net-(U1-f)*%
X149606000Y-62484000D03*
X147320000Y-62484000D03*
X136144000Y-62484000D03*
X137922000Y-62484000D03*
%TO.N,Net-(U1-g)*%
X136144000Y-69088000D03*
X137922000Y-69088000D03*
X147320000Y-69088000D03*
X149606000Y-69088000D03*
%TO.N,Net-(U1-DPX)*%
X147320000Y-72898000D03*
X149606000Y-73406000D03*
%TO.N,Buzzer*%
X154432000Y-51308000D03*
%TO.N,RED_LED*%
X150876000Y-53966500D03*
X150876000Y-51308000D03*
%TO.N,GREEN_LED*%
X153416000Y-53966500D03*
X153416000Y-51308000D03*
%TO.N,Button_2*%
X136144000Y-65278000D03*
X157480000Y-50546000D03*
X158242000Y-54864000D03*
X137922000Y-65278000D03*
%TO.N,Button_1*%
X159258000Y-54864000D03*
X159258000Y-50546000D03*
%TD*%
D24*
%TO.N,+5V*%
X125310000Y-80482000D02*
X129631000Y-80482000D01*
X138100000Y-97460000D02*
X138100000Y-95631200D01*
X178740000Y-73584000D02*
X177266800Y-75057200D01*
X177266800Y-75057200D02*
X177266800Y-90043200D01*
X138100000Y-95631200D02*
X137160200Y-94691400D01*
X112810000Y-80482000D02*
X125310000Y-80482000D01*
X181280000Y-73584000D02*
X178740000Y-73584000D01*
X130175200Y-93497600D02*
X130175200Y-82880400D01*
X138938200Y-94793000D02*
X176276200Y-94793000D01*
X177266800Y-93802400D02*
X177266800Y-90043200D01*
X132573600Y-80482000D02*
X130175200Y-82880400D01*
X131369000Y-94691400D02*
X130175200Y-93497600D01*
X129631000Y-80482000D02*
X130175200Y-81026200D01*
X130175200Y-82880400D02*
X130175200Y-81026200D01*
X178486000Y-88824000D02*
X181280000Y-88824000D01*
X137160200Y-94691400D02*
X131369000Y-94691400D01*
X146536000Y-80482000D02*
X134036000Y-80482000D01*
X138100000Y-95631200D02*
X138938200Y-94793000D01*
X176276200Y-94793000D02*
X177266800Y-93802400D01*
X134036000Y-80482000D02*
X132573600Y-80482000D01*
X177266800Y-90043200D02*
X178486000Y-88824000D01*
D25*
%TO.N,Dig4*%
X136576000Y-49200000D02*
X137084000Y-49708000D01*
X137084000Y-69774000D02*
X136322000Y-70790000D01*
X136322000Y-70790000D02*
X134798000Y-70790000D01*
X137084000Y-49708000D02*
X137084000Y-69774000D01*
%TO.N,Dig3*%
X132258000Y-54457800D02*
X134036000Y-52679800D01*
X132258000Y-55550000D02*
X132258000Y-54457800D01*
X134036000Y-52679800D02*
X134036000Y-49200000D01*
%TO.N,Dig2*%
X129718000Y-53264000D02*
X131496000Y-51486000D01*
X131496000Y-51486000D02*
X131496000Y-49200000D01*
X129718000Y-55550000D02*
X129718000Y-53264000D01*
%TO.N,Dig1*%
X122098000Y-53086200D02*
X122682200Y-52502000D01*
X127863800Y-52502000D02*
X128956000Y-51409800D01*
X128956000Y-51409800D02*
X128956000Y-49200000D01*
X122682200Y-52502000D02*
X127863800Y-52502000D01*
X122098000Y-55550000D02*
X122098000Y-53086200D01*
D26*
%TO.N,a*%
X183642000Y-75184000D02*
X183642000Y-69596000D01*
X181280000Y-76124000D02*
X182702000Y-76124000D01*
X182702000Y-76124000D02*
X183642000Y-75184000D01*
X183642000Y-69596000D02*
X182626000Y-68580000D01*
X182626000Y-68580000D02*
X174498000Y-68580000D01*
%TO.N,Net-(U1-a)*%
X159512000Y-65278000D02*
X162814000Y-68580000D01*
X162814000Y-68580000D02*
X164338000Y-68580000D01*
X124638000Y-62154000D02*
X126492000Y-64008000D01*
X137922000Y-64008000D02*
X147320000Y-64008000D01*
X124638000Y-55550000D02*
X124638000Y-62154000D01*
X126492000Y-64008000D02*
X136144000Y-64008000D01*
%TO.N,b*%
X173660000Y-73584000D02*
X169342000Y-73584000D01*
X169342000Y-73584000D02*
X168148000Y-72390000D01*
%TO.N,Net-(U1-b)*%
X144272000Y-55626000D02*
X137922000Y-55626000D01*
X134874000Y-55626000D02*
X134798000Y-55550000D01*
X157988000Y-72390000D02*
X157988000Y-68580000D01*
X157226000Y-67818000D02*
X154432000Y-67818000D01*
X148590000Y-59690000D02*
X144526000Y-55626000D01*
X144526000Y-55626000D02*
X144272000Y-55626000D01*
X153670000Y-61214000D02*
X152146000Y-59690000D01*
X153670000Y-67056000D02*
X153670000Y-61214000D01*
X157988000Y-68580000D02*
X157226000Y-67818000D01*
X154432000Y-67818000D02*
X153670000Y-67056000D01*
X136398000Y-55626000D02*
X134874000Y-55626000D01*
%TO.N,c*%
X168580000Y-76124000D02*
X168148000Y-75692000D01*
X173660000Y-76124000D02*
X168580000Y-76124000D01*
%TO.N,Net-(U1-c)*%
X129718000Y-70790000D02*
X129718000Y-68910000D01*
X153670000Y-74676000D02*
X153670000Y-69088000D01*
X157988000Y-75692000D02*
X154686000Y-75692000D01*
X153670000Y-69088000D02*
X152654000Y-68072000D01*
X137922000Y-68072000D02*
X147320000Y-68072000D01*
X154686000Y-75692000D02*
X153670000Y-74676000D01*
X129718000Y-68910000D02*
X130556000Y-68072000D01*
X130556000Y-68072000D02*
X136144000Y-68072000D01*
%TO.N,d*%
X168478000Y-78664000D02*
X168148000Y-78994000D01*
X173660000Y-78664000D02*
X168478000Y-78664000D01*
%TO.N,Net-(U1-d)*%
X124638000Y-73076000D02*
X125222000Y-73660000D01*
X155702000Y-78994000D02*
X157988000Y-78994000D01*
X146558000Y-73660000D02*
X147320000Y-74422000D01*
X125222000Y-73660000D02*
X146558000Y-73660000D01*
X124638000Y-70790000D02*
X124638000Y-73076000D01*
X152654000Y-75946000D02*
X152654000Y-74676000D01*
X155702000Y-78994000D02*
X152654000Y-75946000D01*
%TO.N,e*%
X169240000Y-81204000D02*
X168148000Y-82296000D01*
X173660000Y-81204000D02*
X169240000Y-81204000D01*
%TO.N,Net-(U1-e)*%
X124206000Y-66802000D02*
X136144000Y-66802000D01*
X151892000Y-81280000D02*
X151892000Y-66802000D01*
X157988000Y-82296000D02*
X152908000Y-82296000D01*
X122098000Y-70790000D02*
X122098000Y-68910000D01*
X152908000Y-82296000D02*
X151892000Y-81280000D01*
X122098000Y-68910000D02*
X124206000Y-66802000D01*
X137922000Y-66802000D02*
X147320000Y-66802000D01*
%TO.N,f*%
X169951200Y-83744000D02*
X168148000Y-85547200D01*
X173660000Y-83744000D02*
X169951200Y-83744000D01*
%TO.N,Net-(U1-f)*%
X151130000Y-64008000D02*
X151130000Y-84582000D01*
X151130000Y-84582000D02*
X152095200Y-85547200D01*
X152095200Y-85547200D02*
X157988000Y-85547200D01*
X127178000Y-60528000D02*
X129134000Y-62484000D01*
X137922000Y-62484000D02*
X147320000Y-62484000D01*
X130302000Y-62484000D02*
X136144000Y-62484000D01*
X127178000Y-55550000D02*
X127178000Y-60528000D01*
X149606000Y-62484000D02*
X151130000Y-64008000D01*
X129134000Y-62484000D02*
X130302000Y-62484000D01*
%TO.N,g*%
X173660000Y-86284000D02*
X170637000Y-86284000D01*
X170637000Y-86284000D02*
X168148000Y-88773000D01*
%TO.N,Net-(U1-g)*%
X150368000Y-69850000D02*
X149606000Y-69088000D01*
X150368000Y-88392000D02*
X150368000Y-69850000D01*
X137922000Y-69088000D02*
X147320000Y-69088000D01*
X150749000Y-88773000D02*
X150368000Y-88392000D01*
X132258000Y-69418000D02*
X132588000Y-69088000D01*
X132258000Y-70790000D02*
X132258000Y-69418000D01*
X157988000Y-88773000D02*
X150749000Y-88773000D01*
X132588000Y-69088000D02*
X136144000Y-69088000D01*
%TO.N,dp*%
X173660000Y-88824000D02*
X171272000Y-88824000D01*
X171272000Y-88824000D02*
X168148000Y-91948000D01*
%TO.N,Net-(U1-DPX)*%
X127178000Y-70790000D02*
X127178000Y-72314000D01*
X151130000Y-91948000D02*
X157988000Y-91948000D01*
X149606000Y-73406000D02*
X149606000Y-90424000D01*
X127762000Y-72898000D02*
X147320000Y-72898000D01*
X127178000Y-72314000D02*
X127762000Y-72898000D01*
X149606000Y-90424000D02*
X151130000Y-91948000D01*
D25*
%TO.N,SH_CP*%
X186944000Y-83820000D02*
X184480000Y-86284000D01*
X172720000Y-52070000D02*
X186944000Y-66294000D01*
X146558000Y-52070000D02*
X172720000Y-52070000D01*
X145720000Y-51232000D02*
X146558000Y-52070000D01*
X184480000Y-86284000D02*
X181280000Y-86284000D01*
X186944000Y-66294000D02*
X186944000Y-83820000D01*
X145720000Y-49200000D02*
X145720000Y-51232000D01*
%TO.N,ST_CP*%
X172212000Y-52578000D02*
X185928000Y-66294000D01*
X185928000Y-66294000D02*
X185928000Y-81788000D01*
X183972000Y-83744000D02*
X181280000Y-83744000D01*
X141656000Y-51740000D02*
X142494000Y-52578000D01*
X185928000Y-81788000D02*
X183972000Y-83744000D01*
X141656000Y-49200000D02*
X141656000Y-51740000D01*
X142494000Y-52578000D02*
X172212000Y-52578000D01*
%TO.N,DS*%
X184912000Y-77216000D02*
X183464000Y-78664000D01*
X139116000Y-49200000D02*
X139116000Y-52502000D01*
X184912000Y-66294000D02*
X184912000Y-77216000D01*
X183464000Y-78664000D02*
X181280000Y-78664000D01*
X139954000Y-53340000D02*
X171958000Y-53340000D01*
X139116000Y-52502000D02*
X139954000Y-53340000D01*
X171958000Y-53340000D02*
X184912000Y-66294000D01*
%TO.N,Net-(D1-A)*%
X156637000Y-64445000D02*
X160452000Y-60630000D01*
X156637000Y-65710000D02*
X156637000Y-64445000D01*
%TO.N,Net-(D2-A)*%
X167813000Y-65456000D02*
X167813000Y-64191000D01*
X167813000Y-64191000D02*
X171628000Y-60376000D01*
%TO.N,Buzzer*%
X154432000Y-51308000D02*
X178064000Y-51308000D01*
X178064000Y-51308000D02*
X180350000Y-53594000D01*
%TO.N,RED_LED*%
X150800000Y-49200000D02*
X150800000Y-51232000D01*
X150876000Y-53966500D02*
X150876000Y-54610000D01*
X151816000Y-55550000D02*
X156637000Y-55550000D01*
X150800000Y-51232000D02*
X150876000Y-51308000D01*
X150876000Y-54610000D02*
X151816000Y-55550000D01*
%TO.N,GREEN_LED*%
X153340000Y-49200000D02*
X153340000Y-51232000D01*
X153340000Y-51232000D02*
X153416000Y-51308000D01*
X153416000Y-53966500D02*
X166483500Y-53966500D01*
X166483500Y-53966500D02*
X167813000Y-55296000D01*
D27*
%TO.N,Button_2*%
X157226000Y-50546000D02*
X155880000Y-49200000D01*
X157480000Y-57404000D02*
X158242000Y-56642000D01*
X148336000Y-60960000D02*
X151892000Y-57404000D01*
D25*
X125310000Y-85482000D02*
X112810000Y-85482000D01*
D27*
X151892000Y-57404000D02*
X152146000Y-57404000D01*
X157480000Y-50546000D02*
X157226000Y-50546000D01*
X112810000Y-91855000D02*
X112827000Y-91872000D01*
X158242000Y-56642000D02*
X158242000Y-54864000D01*
X110236000Y-70104000D02*
X110236000Y-84836000D01*
X112810000Y-85482000D02*
X112810000Y-91855000D01*
X110236000Y-84836000D02*
X110882000Y-85482000D01*
X136144000Y-65278000D02*
X115062000Y-65278000D01*
X148336000Y-64770000D02*
X148336000Y-60960000D01*
X152146000Y-57404000D02*
X157480000Y-57404000D01*
X137922000Y-65278000D02*
X147828000Y-65278000D01*
X110882000Y-85482000D02*
X112810000Y-85482000D01*
X147828000Y-65278000D02*
X148336000Y-64770000D01*
X112827000Y-85499000D02*
X112810000Y-85482000D01*
X115062000Y-65278000D02*
X110236000Y-70104000D01*
D25*
%TO.N,Button_1*%
X148844000Y-61214000D02*
X151638000Y-58420000D01*
X134036000Y-91872000D02*
X134036000Y-85482000D01*
X134036000Y-85482000D02*
X146536000Y-85482000D01*
X147690000Y-85482000D02*
X148844000Y-84328000D01*
X159258000Y-57658000D02*
X159258000Y-54864000D01*
X146536000Y-85482000D02*
X147690000Y-85482000D01*
X151638000Y-58420000D02*
X158496000Y-58420000D01*
X148844000Y-84328000D02*
X148844000Y-61214000D01*
X159258000Y-50546000D02*
X159258000Y-50038000D01*
X158496000Y-58420000D02*
X159258000Y-57658000D01*
X159258000Y-50038000D02*
X158420000Y-49200000D01*
%TD*%
M02*
