M48
; DRILL file {KiCad 7.0.1} date Tue Mar 28 15:09:55 2023
; FORMAT={-:-/ absolute / inch / decimal}
; #@! TF.CreationDate,2023-03-28T15:09:55-06:00
; #@! TF.GenerationSoftware,Kicad,Pcbnew,7.0.1
; #@! TF.FileFunction,Plated,1,2,PTH
FMAT,2
INCH
; #@! TA.AperFunction,Plated,PTH,ViaDrill
T1C0.0157
; #@! TA.AperFunction,Plated,PTH,ComponentDrill
T2C0.0315
; #@! TA.AperFunction,Plated,PTH,ComponentDrill
T3C0.0354
; #@! TA.AperFunction,Plated,PTH,ComponentDrill
T4C0.0394
; #@! TA.AperFunction,Plated,PTH,ComponentDrill
T5C0.0512
%
G90
G05
T1
X5.36Y-2.46
X5.36Y-2.52
X5.36Y-2.57
X5.36Y-2.63
X5.36Y-2.68
X5.36Y-2.72
X5.37Y-2.19
X5.43Y-2.19
X5.43Y-2.46
X5.43Y-2.52
X5.43Y-2.57
X5.43Y-2.63
X5.43Y-2.68
X5.43Y-2.72
X5.8Y-2.46
X5.8Y-2.52
X5.8Y-2.63
X5.8Y-2.68
X5.8Y-2.72
X5.8Y-2.87
X5.8Y-2.93
X5.85Y-2.35
X5.89Y-2.46
X5.89Y-2.72
X5.89Y-2.89
X5.94Y-2.02
X5.94Y-2.1247
X5.98Y-2.63
X5.99Y-2.35
X6.01Y-2.68
X6.01Y-2.94
X6.04Y-2.02
X6.04Y-2.1247
X6.08Y-2.02
X6.2Y-1.99
X6.23Y-2.16
X6.27Y-1.99
X6.27Y-2.16
X6.28Y-2.57
T2
X4.442Y-3.617
X4.842Y-3.617
X5.277Y-3.617
X5.677Y-3.617
X6.1668Y-2.187
X6.1668Y-2.587
X6.22Y-2.85
X6.22Y-2.98
X6.22Y-3.11
X6.22Y-3.24
X6.22Y-3.368
X6.22Y-3.495
X6.22Y-3.62
X6.47Y-2.7
X6.6068Y-2.177
X6.6068Y-2.577
X6.62Y-2.85
X6.62Y-2.98
X6.62Y-3.11
X6.62Y-3.24
X6.62Y-3.368
X6.62Y-3.495
X6.62Y-3.62
X6.837Y-2.897
X6.837Y-2.997
X6.837Y-3.097
X6.837Y-3.197
X6.837Y-3.297
X6.837Y-3.397
X6.837Y-3.497
X6.837Y-3.597
X6.87Y-2.7
X7.137Y-2.897
X7.137Y-2.997
X7.137Y-3.097
X7.137Y-3.197
X7.137Y-3.297
X7.137Y-3.397
X7.137Y-3.497
X7.137Y-3.597
T3
X6.317Y-2.387
X6.417Y-2.387
X6.757Y-2.377
X6.857Y-2.377
T4
X4.677Y-1.937
X4.777Y-1.937
X4.807Y-2.187
X4.807Y-2.787
X4.877Y-1.937
X4.907Y-2.187
X4.907Y-2.787
X4.977Y-1.937
X5.007Y-2.187
X5.007Y-2.787
X5.037Y-3.837
X5.077Y-1.937
X5.107Y-2.187
X5.107Y-2.787
X5.137Y-3.837
X5.177Y-1.937
X5.207Y-2.187
X5.207Y-2.787
X5.237Y-3.837
X5.277Y-1.937
X5.307Y-2.187
X5.307Y-2.787
X5.337Y-3.837
X5.377Y-1.937
X5.437Y-3.837
X5.477Y-1.937
X5.537Y-3.837
X5.577Y-1.937
X5.637Y-3.837
X5.737Y-1.937
X5.737Y-3.837
X5.837Y-1.937
X5.937Y-1.937
X5.937Y-3.837
X6.037Y-1.937
X6.037Y-3.837
X6.137Y-1.937
X6.137Y-3.837
X6.237Y-1.937
X6.237Y-3.837
X6.337Y-1.937
X6.337Y-3.837
X6.437Y-1.937
X6.437Y-3.837
X7.1004Y-2.11
X7.3996Y-2.11
T5
X4.4413Y-3.1686
X4.4413Y-3.3654
X4.9335Y-3.1686
X4.9335Y-3.3654
X5.277Y-3.1686
X5.277Y-3.3654
X5.7691Y-3.1686
X5.7691Y-3.3654
T0
M30
