M48
; DRILL file KiCad 10.0.0 date 2026-04-24T03:39:16
; FORMAT={-:-/ absolute / metric / decimal}
; #@! TF.CreationDate,2026-04-24T03:39:16-06:00
; #@! TF.GenerationSoftware,Kicad,Pcbnew,10.0.0
; #@! TF.FileFunction,Plated,1,2,PTH
FMAT,2
METRIC
; #@! TA.AperFunction,Plated,PTH,ViaDrill
T1C0.300
; #@! TA.AperFunction,Plated,PTH,ComponentDrill
T2C0.600
; #@! TA.AperFunction,Plated,PTH,ComponentDrill
T3C0.950
; #@! TA.AperFunction,Plated,PTH,ComponentDrill
T4C1.000
%
G90
G05
T1
X108.274Y-85.954
X108.426Y-93.904
X110.052Y-89.992
X112.694Y-86.258
X112.694Y-93.802
X113.303Y-81.28
X122.295Y-75.184
X122.472Y-96.114
X122.625Y-78.892
X122.625Y-81.128
X123.92Y-104.394
X124.936Y-91.084
X125.114Y-71.78
X126.181Y-83.337
X126.257Y-78.638
X126.435Y-59.969
X127.679Y-83.337
X132.455Y-92.177
X132.861Y-83.464
X133.75Y-86.258
X134.817Y-64.897
X134.817Y-65.557
X134.868Y-73.762
X134.868Y-74.422
X135.909Y-79.883
X136.392Y-95.86
X137.357Y-57.988
X138.525Y-88.011
X138.779Y-58.877
X138.856Y-64.44
X138.856Y-66.523
X138.906Y-73.05
X140.354Y-85.496
X140.38Y-93.32
X141.116Y-66.523
X141.218Y-64.364
X141.243Y-74.854
X141.268Y-58.903
X141.624Y-100.965
X141.853Y-90.83
X142.742Y-57.988
X144.494Y-87.63
X146.475Y-77.673
X146.679Y-97.739
X147.136Y-75.667
X150.26Y-93.574
X150.971Y-86.385
X153.308Y-78.943
X153.562Y-77.673
X153.791Y-60.63
X153.791Y-64.719
X155.518Y-60.604
X155.518Y-62.306
X156.051Y-71.907
X157.499Y-82.677
X157.88Y-72.517
X158.058Y-78.969
X160.547Y-75.692
X160.547Y-76.378
X160.547Y-79.604
X160.547Y-80.264
X161.792Y-84.785
X162.528Y-86.436
X162.528Y-87.122
X162.528Y-87.833
T3
X109.254Y-102.413
X111.754Y-102.413
X113.337Y-65.425
X114.254Y-102.413
X115.837Y-65.425
X116.754Y-102.413
X118.337Y-65.425
X120.837Y-65.425
X123.337Y-65.425
T4
X103.397Y-98.781
X103.397Y-101.321
X103.397Y-103.861
X103.397Y-106.401
X105.404Y-69.215
X105.404Y-71.755
X105.404Y-74.295
X105.404Y-76.835
X107.944Y-69.215
X107.944Y-71.755
X107.944Y-74.295
X107.944Y-76.835
X134.512Y-107.366
X137.052Y-107.366
X139.592Y-107.366
X142.132Y-107.366
X144.672Y-107.366
X147.212Y-107.366
X147.999Y-61.443
X149.752Y-107.366
X150.499Y-61.443
X152.292Y-107.366
X158.794Y-60.731
X158.916Y-104.961
X161.294Y-60.731
X161.416Y-104.961
T2
G00X102.996Y-85.664
M15
G01X102.396Y-85.664
M16
G05
G00X102.996Y-94.304
M15
G01X102.396Y-94.304
M16
G05
G00X107.426Y-85.664
M15
G01X106.326Y-85.664
M16
G05
G00X107.426Y-94.304
M15
G01X106.326Y-94.304
M16
G05
M30
