%TF.GenerationSoftware,KiCad,Pcbnew,10.0.0*%
%TF.CreationDate,2026-04-24T03:39:19-06:00*%
%TF.ProjectId,2026_12_2Wheel_Balance_Robot_v1,32303236-5f31-4325-9f32-576865656c5f,rev?*%
%TF.SameCoordinates,Original*%
%TF.FileFunction,Copper,L1,Top*%
%TF.FilePolarity,Positive*%
%FSLAX46Y46*%
G04 Gerber Fmt 4.6, Leading zero omitted, Abs format (unit mm)*
G04 Created by KiCad (PCBNEW 10.0.0) date 2026-04-24 03:39:19*
%MOMM*%
%LPD*%
G01*
G04 APERTURE LIST*
G04 Aperture macros list*
%AMRoundRect*
0 Rectangle with rounded corners*
0 $1 Rounding radius*
0 $2 $3 $4 $5 $6 $7 $8 $9 X,Y pos of 4 corners*
0 Add a 4 corners polygon primitive as box body*
4,1,4,$2,$3,$4,$5,$6,$7,$8,$9,$2,$3,0*
0 Add four circle primitives for the rounded corners*
1,1,$1+$1,$2,$3*
1,1,$1+$1,$4,$5*
1,1,$1+$1,$6,$7*
1,1,$1+$1,$8,$9*
0 Add four rect primitives between the rounded corners*
20,1,$1+$1,$2,$3,$4,$5,0*
20,1,$1+$1,$4,$5,$6,$7,0*
20,1,$1+$1,$6,$7,$8,$9,0*
20,1,$1+$1,$8,$9,$2,$3,0*%
G04 Aperture macros list end*
%TA.AperFunction,SMDPad,CuDef*%
%ADD10RoundRect,0.250000X0.475000X-0.337500X0.475000X0.337500X-0.475000X0.337500X-0.475000X-0.337500X0*%
%TD*%
%TA.AperFunction,SMDPad,CuDef*%
%ADD11RoundRect,0.250000X-0.337500X-0.475000X0.337500X-0.475000X0.337500X0.475000X-0.337500X0.475000X0*%
%TD*%
%TA.AperFunction,SMDPad,CuDef*%
%ADD12RoundRect,0.250000X0.337500X0.475000X-0.337500X0.475000X-0.337500X-0.475000X0.337500X-0.475000X0*%
%TD*%
%TA.AperFunction,SMDPad,CuDef*%
%ADD13RoundRect,0.250000X-0.312500X-1.450000X0.312500X-1.450000X0.312500X1.450000X-0.312500X1.450000X0*%
%TD*%
%TA.AperFunction,SMDPad,CuDef*%
%ADD14RoundRect,0.250000X-0.450000X0.350000X-0.450000X-0.350000X0.450000X-0.350000X0.450000X0.350000X0*%
%TD*%
%TA.AperFunction,SMDPad,CuDef*%
%ADD15RoundRect,0.150000X-0.512500X-0.150000X0.512500X-0.150000X0.512500X0.150000X-0.512500X0.150000X0*%
%TD*%
%TA.AperFunction,SMDPad,CuDef*%
%ADD16RoundRect,0.375000X0.625000X0.375000X-0.625000X0.375000X-0.625000X-0.375000X0.625000X-0.375000X0*%
%TD*%
%TA.AperFunction,SMDPad,CuDef*%
%ADD17RoundRect,0.500000X0.500000X1.400000X-0.500000X1.400000X-0.500000X-1.400000X0.500000X-1.400000X0*%
%TD*%
%TA.AperFunction,SMDPad,CuDef*%
%ADD18R,0.900000X1.250000*%
%TD*%
%TA.AperFunction,SMDPad,CuDef*%
%ADD19R,0.800000X0.900000*%
%TD*%
%TA.AperFunction,SMDPad,CuDef*%
%ADD20RoundRect,0.250000X-0.350000X-0.450000X0.350000X-0.450000X0.350000X0.450000X-0.350000X0.450000X0*%
%TD*%
%TA.AperFunction,ComponentPad*%
%ADD21R,1.700000X1.700000*%
%TD*%
%TA.AperFunction,ComponentPad*%
%ADD22C,1.700000*%
%TD*%
%TA.AperFunction,SMDPad,CuDef*%
%ADD23RoundRect,0.237500X-0.250000X-0.237500X0.250000X-0.237500X0.250000X0.237500X-0.250000X0.237500X0*%
%TD*%
%TA.AperFunction,SMDPad,CuDef*%
%ADD24RoundRect,0.100000X0.850000X0.100000X-0.850000X0.100000X-0.850000X-0.100000X0.850000X-0.100000X0*%
%TD*%
%TA.AperFunction,SMDPad,CuDef*%
%ADD25RoundRect,0.090000X0.360000X-0.660000X0.360000X0.660000X-0.360000X0.660000X-0.360000X-0.660000X0*%
%TD*%
%TA.AperFunction,SMDPad,CuDef*%
%ADD26R,2.300000X1.500000*%
%TD*%
%TA.AperFunction,SMDPad,CuDef*%
%ADD27RoundRect,0.075000X0.700000X0.075000X-0.700000X0.075000X-0.700000X-0.075000X0.700000X-0.075000X0*%
%TD*%
%TA.AperFunction,SMDPad,CuDef*%
%ADD28RoundRect,0.075000X0.075000X0.700000X-0.075000X0.700000X-0.075000X-0.700000X0.075000X-0.700000X0*%
%TD*%
%TA.AperFunction,SMDPad,CuDef*%
%ADD29RoundRect,0.250000X0.450000X-0.325000X0.450000X0.325000X-0.450000X0.325000X-0.450000X-0.325000X0*%
%TD*%
%TA.AperFunction,SMDPad,CuDef*%
%ADD30RoundRect,0.250000X0.350000X-0.450000X0.350000X0.450000X-0.350000X0.450000X-0.350000X-0.450000X0*%
%TD*%
%TA.AperFunction,SMDPad,CuDef*%
%ADD31RoundRect,0.250000X-0.475000X0.337500X-0.475000X-0.337500X0.475000X-0.337500X0.475000X0.337500X0*%
%TD*%
%TA.AperFunction,ComponentPad*%
%ADD32RoundRect,0.250000X-0.600000X-0.750000X0.600000X-0.750000X0.600000X0.750000X-0.600000X0.750000X0*%
%TD*%
%TA.AperFunction,ComponentPad*%
%ADD33O,1.700000X2.000000*%
%TD*%
%TA.AperFunction,SMDPad,CuDef*%
%ADD34RoundRect,0.250000X-0.325000X-0.450000X0.325000X-0.450000X0.325000X0.450000X-0.325000X0.450000X0*%
%TD*%
%TA.AperFunction,ComponentPad*%
%ADD35RoundRect,0.250000X0.600000X0.750000X-0.600000X0.750000X-0.600000X-0.750000X0.600000X-0.750000X0*%
%TD*%
%TA.AperFunction,ComponentPad*%
%ADD36RoundRect,0.250000X-0.600000X-0.725000X0.600000X-0.725000X0.600000X0.725000X-0.600000X0.725000X0*%
%TD*%
%TA.AperFunction,ComponentPad*%
%ADD37O,1.700000X1.950000*%
%TD*%
%TA.AperFunction,SMDPad,CuDef*%
%ADD38RoundRect,0.150000X-0.500000X0.150000X-0.500000X-0.150000X0.500000X-0.150000X0.500000X0.150000X0*%
%TD*%
%TA.AperFunction,SMDPad,CuDef*%
%ADD39RoundRect,0.075000X-0.575000X0.075000X-0.575000X-0.075000X0.575000X-0.075000X0.575000X0.075000X0*%
%TD*%
%TA.AperFunction,ComponentPad*%
%ADD40O,2.100000X1.000000*%
%TD*%
%TA.AperFunction,ComponentPad*%
%ADD41O,1.600000X1.000000*%
%TD*%
%TA.AperFunction,SMDPad,CuDef*%
%ADD42RoundRect,0.250001X-0.872499X-0.944999X0.872499X-0.944999X0.872499X0.944999X-0.872499X0.944999X0*%
%TD*%
%TA.AperFunction,SMDPad,CuDef*%
%ADD43RoundRect,0.237500X0.250000X0.237500X-0.250000X0.237500X-0.250000X-0.237500X0.250000X-0.237500X0*%
%TD*%
%TA.AperFunction,ComponentPad*%
%ADD44RoundRect,0.250000X0.600000X0.725000X-0.600000X0.725000X-0.600000X-0.725000X0.600000X-0.725000X0*%
%TD*%
%TA.AperFunction,SMDPad,CuDef*%
%ADD45RoundRect,0.250000X0.350000X0.450000X-0.350000X0.450000X-0.350000X-0.450000X0.350000X-0.450000X0*%
%TD*%
%TA.AperFunction,ViaPad*%
%ADD46C,0.600000*%
%TD*%
%TA.AperFunction,Conductor*%
%ADD47C,0.304800*%
%TD*%
%TA.AperFunction,Conductor*%
%ADD48C,0.508000*%
%TD*%
%TA.AperFunction,Conductor*%
%ADD49C,0.381000*%
%TD*%
%TA.AperFunction,Conductor*%
%ADD50C,0.254000*%
%TD*%
%TA.AperFunction,Conductor*%
%ADD51C,0.200000*%
%TD*%
%TA.AperFunction,Conductor*%
%ADD52C,0.203200*%
%TD*%
G04 APERTURE END LIST*
D10*
%TO.P,C7,1,~_1*%
%TO.N,Net-(U1-VCAP1)*%
X126257100Y-79802900D03*
%TO.P,C7,2,~_2*%
%TO.N,GND*%
X126257100Y-77727900D03*
%TD*%
D11*
%TO.P,C8,1,~_1*%
%TO.N,+3.3V*%
X159683500Y-83732800D03*
%TO.P,C8,2,~_2*%
%TO.N,GND*%
X161758500Y-83732800D03*
%TD*%
D12*
%TO.P,C2,1,~_1*%
%TO.N,+3.3V*%
X123789400Y-78917800D03*
%TO.P,C2,2,~_2*%
%TO.N,GND*%
X121714400Y-78917800D03*
%TD*%
D13*
%TO.P,F1,1,~_1*%
%TO.N,Net-(F1-~-Pad1)*%
X104714000Y-82169000D03*
%TO.P,F1,2,~_2*%
%TO.N,Vusb*%
X108989000Y-82169000D03*
%TD*%
D14*
%TO.P,R1,1,~_1*%
%TO.N,Net-(D2-A)*%
X111118700Y-80153000D03*
%TO.P,R1,2,~_2*%
%TO.N,Vusb*%
X111118700Y-82153000D03*
%TD*%
D15*
%TO.P,U5,1,I/O1_1*%
%TO.N,/USB_D-*%
X111048000Y-89042200D03*
%TO.P,U5,2,GND_2*%
%TO.N,GND*%
X111048000Y-89992200D03*
%TO.P,U5,3,I/O2_3*%
%TO.N,/USB_D+*%
X111048000Y-90942200D03*
%TO.P,U5,4,I/O2_4*%
%TO.N,/CONN_D+*%
X113323000Y-90942200D03*
%TO.P,U5,5,VBUS_5*%
%TO.N,Vusb*%
X113323000Y-89992200D03*
%TO.P,U5,6,I/O1_6*%
%TO.N,/CONN_D-*%
X113323000Y-89042200D03*
%TD*%
D16*
%TO.P,U3,1,GND_1*%
%TO.N,GND*%
X136163500Y-65215800D03*
%TO.P,U3,2,VO_2*%
%TO.N,5V_REG*%
X136163500Y-62915800D03*
D17*
X129863500Y-62915800D03*
D16*
%TO.P,U3,3,VI_3*%
%TO.N,VM*%
X136163500Y-60615800D03*
%TD*%
D18*
%TO.P,S4,1*%
%TO.N,GND*%
X123155500Y-104394000D03*
%TO.P,S4,2*%
%TO.N,Net-(R2-~-Pad1)*%
X126155500Y-104394000D03*
%TO.P,S4,3*%
%TO.N,+3.3V*%
X127655500Y-104394000D03*
D19*
%TO.P,S4,SH1*%
%TO.N,N/C*%
X121605500Y-105419000D03*
%TO.P,S4,SH2*%
X129205500Y-105419000D03*
%TO.P,S4,SH3*%
X121605500Y-107519000D03*
%TO.P,S4,SH4*%
X129205500Y-107519000D03*
%TD*%
D16*
%TO.P,U6,1,GND_1*%
%TO.N,GND*%
X136188900Y-74055000D03*
%TO.P,U6,2,VO_2*%
%TO.N,+3.3V*%
X136188900Y-71755000D03*
D17*
X129888900Y-71755000D03*
D16*
%TO.P,U6,3,VI_3*%
%TO.N,+5V*%
X136188900Y-69455000D03*
%TD*%
D20*
%TO.P,R9,1,~_1*%
%TO.N,Net-(D4-A)*%
X125409500Y-75209400D03*
%TO.P,R9,2,~_2*%
%TO.N,/USER_LED*%
X127409500Y-75209400D03*
%TD*%
D21*
%TO.P,J4,1,Pin_1_1*%
%TO.N,GND*%
X105403700Y-76835000D03*
D22*
%TO.P,J4,2,Pin_2_2*%
%TO.N,/ESP_TX*%
X107943700Y-76835000D03*
%TO.P,J4,3,Pin_3_3*%
%TO.N,unconnected-(J4-Pin_3-Pad3)*%
X105403700Y-74295000D03*
%TO.P,J4,4,Pin_4_4*%
%TO.N,+3.3V*%
X107943700Y-74295000D03*
%TO.P,J4,5,Pin_5_5*%
%TO.N,Net-(J4-Pin_5)*%
X105403700Y-71755000D03*
%TO.P,J4,6,Pin_6_6*%
%TO.N,+3.3V*%
X107943700Y-71755000D03*
%TO.P,J4,7,Pin_7_7*%
%TO.N,/ESP_RX*%
X105403700Y-69215000D03*
%TO.P,J4,8,Pin_8_8*%
%TO.N,+3.3V*%
X107943700Y-69215000D03*
%TD*%
D23*
%TO.P,R8,1,~_1*%
%TO.N,Net-(J3-CC2)*%
X110866600Y-93014800D03*
%TO.P,R8,2,~_2*%
%TO.N,GND*%
X112691600Y-93014800D03*
%TD*%
D24*
%TO.P,U2,1,AO1_1*%
%TO.N,/MD_AO1*%
X161837300Y-81557100D03*
%TO.P,U2,2,AO1_2*%
X161837300Y-80907100D03*
%TO.P,U2,3,PGND1_3*%
%TO.N,GND*%
X161837300Y-80257100D03*
%TO.P,U2,4,PGND1_4*%
X161837300Y-79607100D03*
%TO.P,U2,5,AO2_5*%
%TO.N,/MD_AO2*%
X161837300Y-78957100D03*
%TO.P,U2,6,AO2_6*%
X161837300Y-78307100D03*
%TO.P,U2,7,BO2_7*%
%TO.N,/MD_BO2*%
X161837300Y-77657100D03*
%TO.P,U2,8,BO2_8*%
X161837300Y-77007100D03*
%TO.P,U2,9,PGND2_9*%
%TO.N,GND*%
X161837300Y-76357100D03*
%TO.P,U2,10,PGND2_10*%
X161837300Y-75707100D03*
%TO.P,U2,11,BO1_11*%
%TO.N,/MD_BO1*%
X161837300Y-75057100D03*
%TO.P,U2,12,BO1_12*%
X161837300Y-74407100D03*
%TO.P,U2,13,VM2_13*%
%TO.N,VM*%
X154837300Y-74407100D03*
%TO.P,U2,14,VM3_14*%
X154837300Y-75057100D03*
%TO.P,U2,15,PWMB_15*%
%TO.N,/MD_PWMB*%
X154837300Y-75707100D03*
%TO.P,U2,16,BIN2_16*%
%TO.N,/MD_BIN2*%
X154837300Y-76357100D03*
%TO.P,U2,17,BIN1_17*%
%TO.N,/MD_BIN1*%
X154837300Y-77007100D03*
%TO.P,U2,18,GND_18*%
%TO.N,GND*%
X154837300Y-77657100D03*
%TO.P,U2,19,STBY_19*%
%TO.N,/MD_STBY*%
X154837300Y-78307100D03*
%TO.P,U2,20,VCC_20*%
%TO.N,+3.3V*%
X154837300Y-78957100D03*
%TO.P,U2,21,AIN1_21*%
%TO.N,/MD_AIN1*%
X154837300Y-79607100D03*
%TO.P,U2,22,AIN2_22*%
%TO.N,/MD_AIN2*%
X154837300Y-80257100D03*
%TO.P,U2,23,PWMA_23*%
%TO.N,/MD_PWMA*%
X154837300Y-80907100D03*
%TO.P,U2,24,VM1_24*%
%TO.N,VM*%
X154837300Y-81557100D03*
%TD*%
D25*
%TO.P,D1,1,VDD_1*%
%TO.N,+5V*%
X147644900Y-90207000D03*
%TO.P,D1,2,DOUT_2*%
%TO.N,unconnected-(D1-DOUT-Pad2)*%
X150944900Y-90207000D03*
%TO.P,D1,3,VSS_3*%
%TO.N,GND*%
X150944900Y-85307000D03*
%TO.P,D1,4,DIN_4*%
%TO.N,/WS_DIN*%
X147644900Y-85307000D03*
%TD*%
D10*
%TO.P,C13,1,~_1*%
%TO.N,+5V*%
X138855500Y-69515900D03*
%TO.P,C13,2,~_2*%
%TO.N,GND*%
X138855500Y-67440900D03*
%TD*%
D26*
%TO.P,SW2,1,A_1*%
%TO.N,GND*%
X146294900Y-96672400D03*
%TO.P,SW2,2,B_2*%
%TO.N,/RESET*%
X139594900Y-96672400D03*
%TD*%
D27*
%TO.P,U1,1,VBAT_1*%
%TO.N,unconnected-(U1-VBAT-Pad1)*%
X135096300Y-91584400D03*
%TO.P,U1,2,PC13_2*%
%TO.N,/IMU_INT*%
X135096300Y-91084400D03*
%TO.P,U1,3,PC14_3*%
%TO.N,unconnected-(U1-PC14-Pad3)*%
X135096300Y-90584400D03*
%TO.P,U1,4,PC15_4*%
%TO.N,unconnected-(U1-PC15-Pad4)*%
X135096300Y-90084400D03*
%TO.P,U1,5,RCC_OSC_IN_5*%
%TO.N,/OSCIN*%
X135096300Y-89584400D03*
%TO.P,U1,6,RCC_OSC_OUT_6*%
%TO.N,/OSCOUT*%
X135096300Y-89084400D03*
%TO.P,U1,7,NRST_7*%
%TO.N,/RESET*%
X135096300Y-88584400D03*
%TO.P,U1,8,PC0_8*%
%TO.N,unconnected-(U1-PC0-Pad8)*%
X135096300Y-88084400D03*
%TO.P,U1,9,PC1_9*%
%TO.N,unconnected-(U1-PC1-Pad9)*%
X135096300Y-87584400D03*
%TO.P,U1,10,PC2_10*%
%TO.N,unconnected-(U1-PC2-Pad10)*%
X135096300Y-87084400D03*
%TO.P,U1,11,PC3_11*%
%TO.N,unconnected-(U1-PC3-Pad11)*%
X135096300Y-86584400D03*
%TO.P,U1,12,VSSA_12*%
%TO.N,GND*%
X135096300Y-86084400D03*
%TO.P,U1,13,VREF+_13*%
%TO.N,+3.3V*%
X135096300Y-85584400D03*
%TO.P,U1,14,TIM5_CH1_14*%
%TO.N,/WS_DIN*%
X135096300Y-85084400D03*
%TO.P,U1,15,TIM2_CH2_15*%
%TO.N,/MD_PWMA*%
X135096300Y-84584400D03*
%TO.P,U1,16,PA2_16*%
%TO.N,/MD_AIN2*%
X135096300Y-84084400D03*
D28*
%TO.P,U1,17,PA3_17*%
%TO.N,/MD_AIN1*%
X133171300Y-82159400D03*
%TO.P,U1,18,VSS_18*%
%TO.N,GND*%
X132671300Y-82159400D03*
%TO.P,U1,19,VDD_19*%
%TO.N,+3.3V*%
X132171300Y-82159400D03*
%TO.P,U1,20,PA4_20*%
%TO.N,/MD_STBY*%
X131671300Y-82159400D03*
%TO.P,U1,21,TIM2_CH1_21*%
%TO.N,/MD_PWMB*%
X131171300Y-82159400D03*
%TO.P,U1,22,PA6_22*%
%TO.N,/MD_BIN1*%
X130671300Y-82159400D03*
%TO.P,U1,23,PA7_23*%
%TO.N,/MD_BIN2*%
X130171300Y-82159400D03*
%TO.P,U1,24,PC4_24*%
%TO.N,unconnected-(U1-PC4-Pad24)*%
X129671300Y-82159400D03*
%TO.P,U1,25,PC5_25*%
%TO.N,unconnected-(U1-PC5-Pad25)*%
X129171300Y-82159400D03*
%TO.P,U1,26,PB0_26*%
%TO.N,unconnected-(U1-PB0-Pad26)*%
X128671300Y-82159400D03*
%TO.P,U1,27,PB1_27*%
%TO.N,/USER_LED*%
X128171300Y-82159400D03*
%TO.P,U1,28,PB2_28*%
%TO.N,GND*%
X127671300Y-82159400D03*
%TO.P,U1,29,PB10_29*%
%TO.N,unconnected-(U1-PB10-Pad29)*%
X127171300Y-82159400D03*
%TO.P,U1,30,VCAP1_30*%
%TO.N,Net-(U1-VCAP1)*%
X126671300Y-82159400D03*
%TO.P,U1,31,VSS_31*%
%TO.N,GND*%
X126171300Y-82159400D03*
%TO.P,U1,32,VDD_32*%
%TO.N,+3.3V*%
X125671300Y-82159400D03*
D27*
%TO.P,U1,33,PB12_33*%
%TO.N,unconnected-(U1-PB12-Pad33)*%
X123746300Y-84084400D03*
%TO.P,U1,34,PB13_34*%
%TO.N,unconnected-(U1-PB13-Pad34)*%
X123746300Y-84584400D03*
%TO.P,U1,35,PB14_35*%
%TO.N,unconnected-(U1-PB14-Pad35)*%
X123746300Y-85084400D03*
%TO.P,U1,36,PB15_36*%
%TO.N,unconnected-(U1-PB15-Pad36)*%
X123746300Y-85584400D03*
%TO.P,U1,37,PC6_37*%
%TO.N,/MT_PWM*%
X123746300Y-86084400D03*
%TO.P,U1,38,PC7_38*%
%TO.N,unconnected-(U1-PC7-Pad38)*%
X123746300Y-86584400D03*
%TO.P,U1,39,PC8_39*%
%TO.N,unconnected-(U1-PC8-Pad39)*%
X123746300Y-87084400D03*
%TO.P,U1,40,I2C3_SDA_40*%
%TO.N,/MT_SDA*%
X123746300Y-87584400D03*
%TO.P,U1,41,I2C3_SCL_41*%
%TO.N,/MT_SCL*%
X123746300Y-88084400D03*
%TO.P,U1,42,USART1_TX_42*%
%TO.N,/ESP_RX*%
X123746300Y-88584400D03*
%TO.P,U1,43,USART1_RX_43*%
%TO.N,/ESP_TX*%
X123746300Y-89084400D03*
%TO.P,U1,44,USB_OTG_FS_DM_44*%
%TO.N,/ESD_D-*%
X123746300Y-89584400D03*
%TO.P,U1,45,USB_OTG_FS_DP_45*%
%TO.N,/ESD_D+*%
X123746300Y-90084400D03*
%TO.P,U1,46,SYS_JTMS-SWDIO_46*%
%TO.N,/SWDIO*%
X123746300Y-90584400D03*
%TO.P,U1,47,VSS_47*%
%TO.N,GND*%
X123746300Y-91084400D03*
%TO.P,U1,48,VDD_48*%
%TO.N,+3.3V*%
X123746300Y-91584400D03*
D28*
%TO.P,U1,49,SYS_JTCK-SWCLK_49*%
%TO.N,/SWCLK*%
X125671300Y-93509400D03*
%TO.P,U1,50,PA15_50*%
%TO.N,unconnected-(U1-PA15-Pad50)*%
X126171300Y-93509400D03*
%TO.P,U1,51,PC10_51*%
%TO.N,unconnected-(U1-PC10-Pad51)*%
X126671300Y-93509400D03*
%TO.P,U1,52,PC11_52*%
%TO.N,unconnected-(U1-PC11-Pad52)*%
X127171300Y-93509400D03*
%TO.P,U1,53,PC12_53*%
%TO.N,unconnected-(U1-PC12-Pad53)*%
X127671300Y-93509400D03*
%TO.P,U1,54,PD2_54*%
%TO.N,unconnected-(U1-PD2-Pad54)*%
X128171300Y-93509400D03*
%TO.P,U1,55,PB3_55*%
%TO.N,unconnected-(U1-PB3-Pad55)*%
X128671300Y-93509400D03*
%TO.P,U1,56,PB4_56*%
%TO.N,unconnected-(U1-PB4-Pad56)*%
X129171300Y-93509400D03*
%TO.P,U1,57,PB5_57*%
%TO.N,unconnected-(U1-PB5-Pad57)*%
X129671300Y-93509400D03*
%TO.P,U1,58,PB6_58*%
%TO.N,/ENC_B*%
X130171300Y-93509400D03*
%TO.P,U1,59,PB7_59*%
%TO.N,/ENC_A*%
X130671300Y-93509400D03*
%TO.P,U1,60,BOOT0_60*%
%TO.N,/BOOT0*%
X131171300Y-93509400D03*
%TO.P,U1,61,I2C1_SCL_61*%
%TO.N,/IMU_SCL*%
X131671300Y-93509400D03*
%TO.P,U1,62,I2C1_SDA_62*%
%TO.N,/IMU_SDA*%
X132171300Y-93509400D03*
%TO.P,U1,63,VSS_63*%
%TO.N,GND*%
X132671300Y-93509400D03*
%TO.P,U1,64,VDD_64*%
%TO.N,+3.3V*%
X133171300Y-93509400D03*
%TD*%
D11*
%TO.P,C3,1,~_1*%
%TO.N,+3.3V*%
X132915800Y-79883000D03*
%TO.P,C3,2,~_2*%
%TO.N,GND*%
X134990800Y-79883000D03*
%TD*%
D29*
%TO.P,D3,1,K_1*%
%TO.N,GND*%
X125114100Y-72678400D03*
%TO.P,D3,2,A_2*%
%TO.N,Net-(D3-A)*%
X125114100Y-70628400D03*
%TD*%
D30*
%TO.P,Y3,1,1_1*%
%TO.N,/OSCIN*%
X144493400Y-90839500D03*
%TO.P,Y3,2,2_2*%
%TO.N,GND*%
X144493400Y-88639500D03*
%TO.P,Y3,3,3_3*%
%TO.N,/OSCOUT*%
X142793400Y-88639500D03*
%TO.P,Y3,4,4_4*%
%TO.N,GND*%
X142793400Y-90839500D03*
%TD*%
D31*
%TO.P,C22,1,~_1*%
%TO.N,5V_REG*%
X141217700Y-63203000D03*
%TO.P,C22,2,~_2*%
%TO.N,GND*%
X141217700Y-65278000D03*
%TD*%
D32*
%TO.P,J7,1,Pin_1_1*%
%TO.N,/MD_BO1*%
X158794500Y-60731400D03*
D33*
%TO.P,J7,2,Pin_2_2*%
%TO.N,/MD_BO2*%
X161294500Y-60731400D03*
%TD*%
D34*
%TO.P,D5,1,K_1*%
%TO.N,GND*%
X125536900Y-59969400D03*
%TO.P,D5,2,A_2*%
%TO.N,Net-(D5-A)*%
X127586900Y-59969400D03*
%TD*%
D20*
%TO.P,R2,1,~_1*%
%TO.N,Net-(R2-~-Pad1)*%
X126146100Y-102184200D03*
%TO.P,R2,2,~_2*%
%TO.N,/BOOT0*%
X128146100Y-102184200D03*
%TD*%
D21*
%TO.P,J1,1,Pin_1_1*%
%TO.N,+3.3V*%
X103397100Y-106400600D03*
D22*
%TO.P,J1,2,Pin_2_2*%
%TO.N,/SWCLK*%
X103397100Y-103860600D03*
%TO.P,J1,3,Pin_3_3*%
%TO.N,GND*%
X103397100Y-101320600D03*
%TO.P,J1,4,Pin_4_4*%
%TO.N,/SWDIO*%
X103397100Y-98780600D03*
%TD*%
D14*
%TO.P,R10,1,~_1*%
%TO.N,Net-(D5-A)*%
X127450900Y-62195200D03*
%TO.P,R10,2,~_2*%
%TO.N,5V_REG*%
X127450900Y-64195200D03*
%TD*%
%TO.P,R6,1,~_1*%
%TO.N,Net-(D3-A)*%
X127374700Y-70628000D03*
%TO.P,R6,2,~_2*%
%TO.N,+3.3V*%
X127374700Y-72628000D03*
%TD*%
D34*
%TO.P,D4,1,K_1*%
%TO.N,GND*%
X121396700Y-75184000D03*
%TO.P,D4,2,A_2*%
%TO.N,Net-(D4-A)*%
X123446700Y-75184000D03*
%TD*%
D18*
%TO.P,S3,1*%
%TO.N,5V_REG*%
X147136034Y-67385209D03*
%TO.P,S3,2*%
%TO.N,+5V*%
X150136034Y-67385209D03*
%TO.P,S3,3*%
%TO.N,Vusb*%
X151636034Y-67385209D03*
D19*
%TO.P,S3,SH1*%
%TO.N,N/C*%
X145586034Y-68410209D03*
%TO.P,S3,SH2*%
X153186034Y-68410209D03*
%TO.P,S3,SH3*%
X145586034Y-70510209D03*
%TO.P,S3,SH4*%
X153186034Y-70510209D03*
%TD*%
D29*
%TO.P,D2,1,K_1*%
%TO.N,GND*%
X113328500Y-82178000D03*
%TO.P,D2,2,A_2*%
%TO.N,Net-(D2-A)*%
X113328500Y-80128000D03*
%TD*%
D31*
%TO.P,C14,1,~_1*%
%TO.N,+3.3V*%
X138906300Y-71885900D03*
%TO.P,C14,2,~_2*%
%TO.N,GND*%
X138906300Y-73960900D03*
%TD*%
D20*
%TO.P,R3,1,~_1*%
%TO.N,/CONN_D-*%
X118018100Y-88976200D03*
%TO.P,R3,2,~_2*%
%TO.N,/ESD_D-*%
X120018100Y-88976200D03*
%TD*%
D12*
%TO.P,C25,1,~_1*%
%TO.N,+3.3V*%
X123789400Y-81127600D03*
%TO.P,C25,2,~_2*%
%TO.N,GND*%
X121714400Y-81127600D03*
%TD*%
D10*
%TO.P,C17,1,~_1*%
%TO.N,VM*%
X141243100Y-60067100D03*
%TO.P,C17,2,~_2*%
%TO.N,GND*%
X141243100Y-57992100D03*
%TD*%
D12*
%TO.P,C26,1,~_1*%
%TO.N,GND*%
X150256200Y-92532200D03*
%TO.P,C26,2,~_2*%
%TO.N,+5V*%
X148181200Y-92532200D03*
%TD*%
D35*
%TO.P,J5,1,Pin_1_1*%
%TO.N,VM*%
X150499500Y-61442600D03*
D33*
%TO.P,J5,2,Pin_2_2*%
%TO.N,GND*%
X147999500Y-61442600D03*
%TD*%
D10*
%TO.P,C18,1,~_1*%
%TO.N,VM*%
X138804700Y-60041700D03*
%TO.P,C18,2,~_2*%
%TO.N,GND*%
X138804700Y-57966700D03*
%TD*%
D31*
%TO.P,C20,1,~_1*%
%TO.N,GND*%
X140372700Y-86392600D03*
%TO.P,C20,2,~_2*%
%TO.N,/OSCOUT*%
X140372700Y-88467600D03*
%TD*%
D11*
%TO.P,C6,1,~_1*%
%TO.N,VM*%
X155445600Y-83718400D03*
%TO.P,C6,2,~_2*%
%TO.N,GND*%
X157520600Y-83718400D03*
%TD*%
D32*
%TO.P,J6,1,Pin_1_1*%
%TO.N,/MD_AO1*%
X158916100Y-104961200D03*
D33*
%TO.P,J6,2,Pin_2_2*%
%TO.N,/MD_AO2*%
X161416100Y-104961200D03*
%TD*%
D31*
%TO.P,C23,1,~_1*%
%TO.N,5V_REG*%
X138855500Y-63275300D03*
%TO.P,C23,2,~_2*%
%TO.N,GND*%
X138855500Y-65350300D03*
%TD*%
D36*
%TO.P,J9,1,Pin_1_1*%
%TO.N,+3.3V*%
X113337043Y-65425082D03*
D37*
%TO.P,J9,2,Pin_2_2*%
%TO.N,GND*%
X115837043Y-65425082D03*
%TO.P,J9,3,Pin_3_3*%
%TO.N,/MT_PWM*%
X118337043Y-65425082D03*
%TO.P,J9,4,Pin_4_4*%
%TO.N,/MT_SCL*%
X120837043Y-65425082D03*
%TO.P,J9,5,Pin_5_5*%
%TO.N,/MT_SDA*%
X123337043Y-65425082D03*
%TD*%
D38*
%TO.P,J3,A1,GND_A1*%
%TO.N,GND*%
X107515900Y-86784400D03*
%TO.P,J3,A4,VBUS_A4*%
%TO.N,Net-(F1-~-Pad1)*%
X107515900Y-87584400D03*
D39*
%TO.P,J3,A5,CC1_A5*%
%TO.N,Net-(J3-CC1)*%
X107515900Y-88734400D03*
%TO.P,J3,A6,D+_A6*%
%TO.N,/USB_D+*%
X107515900Y-89734400D03*
%TO.P,J3,A7,D-_A7*%
%TO.N,/USB_D-*%
X107515900Y-90234400D03*
%TO.P,J3,A8*%
%TO.N,N/C*%
X107515900Y-91234400D03*
D38*
%TO.P,J3,A9,VBUS_A9*%
%TO.N,Net-(F1-~-Pad1)*%
X107515900Y-92384400D03*
%TO.P,J3,A12,GND_A12*%
%TO.N,GND*%
X107515900Y-93184400D03*
%TO.P,J3,B1,GND_B1*%
X107515900Y-93184400D03*
%TO.P,J3,B4,VBUS_B4*%
%TO.N,Net-(F1-~-Pad1)*%
X107515900Y-92384400D03*
D39*
%TO.P,J3,B5,CC2_B5*%
%TO.N,Net-(J3-CC2)*%
X107515900Y-91734400D03*
%TO.P,J3,B6,D+_B6*%
%TO.N,/USB_D+*%
X107515900Y-90734400D03*
%TO.P,J3,B7,D-_B7*%
%TO.N,/USB_D-*%
X107515900Y-89234400D03*
%TO.P,J3,B8*%
%TO.N,N/C*%
X107515900Y-88234400D03*
D38*
%TO.P,J3,B9,VBUS_B9*%
%TO.N,Net-(F1-~-Pad1)*%
X107515900Y-87584400D03*
%TO.P,J3,B12,GND_B12*%
%TO.N,GND*%
X107515900Y-86784400D03*
D40*
%TO.P,J3,SH,SHIELD_SH*%
X106875900Y-85664400D03*
D41*
X102695900Y-85664400D03*
D40*
X106875900Y-94304400D03*
D41*
X102695900Y-94304400D03*
%TD*%
D10*
%TO.P,C19,1,~_1*%
%TO.N,GND*%
X140372700Y-92404600D03*
%TO.P,C19,2,~_2*%
%TO.N,/OSCIN*%
X140372700Y-90329600D03*
%TD*%
D21*
%TO.P,J2,1,Pin_1_1*%
%TO.N,+5V*%
X134512100Y-107365800D03*
D22*
%TO.P,J2,2,Pin_2_2*%
%TO.N,GND*%
X137052100Y-107365800D03*
%TO.P,J2,3,Pin_3_3*%
%TO.N,/IMU_SCL*%
X139592100Y-107365800D03*
%TO.P,J2,4,Pin_4_4*%
%TO.N,/IMU_SDA*%
X142132100Y-107365800D03*
%TO.P,J2,5,Pin_5_5*%
%TO.N,unconnected-(J2-Pin_5-Pad5)*%
X144672100Y-107365800D03*
%TO.P,J2,6,Pin_6_6*%
%TO.N,unconnected-(J2-Pin_6-Pad6)*%
X147212100Y-107365800D03*
%TO.P,J2,7,Pin_7_7*%
%TO.N,unconnected-(J2-Pin_7-Pad7)*%
X149752100Y-107365800D03*
%TO.P,J2,8,Pin_8_8*%
%TO.N,/IMU_INT*%
X152292100Y-107365800D03*
%TD*%
D11*
%TO.P,C4,1,~_1*%
%TO.N,+3.3V*%
X133398400Y-95885000D03*
%TO.P,C4,2,~_2*%
%TO.N,GND*%
X135473400Y-95885000D03*
%TD*%
D31*
%TO.P,C1,1,~_1*%
%TO.N,+3.3V*%
X122456900Y-93127500D03*
%TO.P,C1,2,~_2*%
%TO.N,GND*%
X122456900Y-95202500D03*
%TD*%
D42*
%TO.P,C9,1*%
%TO.N,VM*%
X155977800Y-87079300D03*
%TO.P,C9,2*%
%TO.N,GND*%
X161092800Y-87079300D03*
%TD*%
D20*
%TO.P,R4,1,~_1*%
%TO.N,/CONN_D+*%
X118018100Y-91033600D03*
%TO.P,R4,2,~_2*%
%TO.N,/ESD_D+*%
X120018100Y-91033600D03*
%TD*%
D31*
%TO.P,C24,1,~_1*%
%TO.N,+3.3V*%
X137483900Y-85932100D03*
%TO.P,C24,2,~_2*%
%TO.N,GND*%
X137483900Y-88007100D03*
%TD*%
D43*
%TO.P,R7,1,~_1*%
%TO.N,GND*%
X112691600Y-87045800D03*
%TO.P,R7,2,~_2*%
%TO.N,Net-(J3-CC1)*%
X110866600Y-87045800D03*
%TD*%
D10*
%TO.P,C15,1,~_1*%
%TO.N,+5V*%
X141116100Y-69490500D03*
%TO.P,C15,2,~_2*%
%TO.N,GND*%
X141116100Y-67415500D03*
%TD*%
D44*
%TO.P,J8,1,Pin_1_1*%
%TO.N,+3.3V*%
X116753700Y-102412800D03*
D37*
%TO.P,J8,2,Pin_2_2*%
%TO.N,/ENC_A*%
X114253700Y-102412800D03*
%TO.P,J8,3,Pin_3_3*%
%TO.N,/ENC_B*%
X111753700Y-102412800D03*
%TO.P,J8,4,Pin_4_4*%
%TO.N,GND*%
X109253700Y-102412800D03*
%TD*%
D31*
%TO.P,C16,1,~_1*%
%TO.N,+3.3V*%
X141217700Y-71864400D03*
%TO.P,C16,2,~_2*%
%TO.N,GND*%
X141217700Y-73939400D03*
%TD*%
D45*
%TO.P,R17,1,~_1*%
%TO.N,+3.3V*%
X106505300Y-65659000D03*
%TO.P,R17,2,~_2*%
%TO.N,Net-(J4-Pin_5)*%
X104505300Y-65659000D03*
%TD*%
D11*
%TO.P,C21,1,~_1*%
%TO.N,/RESET*%
X139545200Y-99923600D03*
%TO.P,C21,2,~_2*%
%TO.N,GND*%
X141620200Y-99923600D03*
%TD*%
D46*
%TO.N,GND*%
X110051900Y-89992200D03*
X138855500Y-64439800D03*
X122624900Y-81127600D03*
X141624100Y-100965000D03*
X160547100Y-76377800D03*
X123920300Y-104394000D03*
X112693500Y-93802200D03*
X108426300Y-93903800D03*
X132861100Y-83464400D03*
X141243100Y-74853800D03*
X157499100Y-82677000D03*
X150260100Y-93573600D03*
X134816900Y-64897000D03*
X138855500Y-66522600D03*
X141217700Y-64363600D03*
X162528300Y-86436200D03*
X162528300Y-87833200D03*
X124936300Y-91084400D03*
X141116100Y-66522600D03*
X140354100Y-85496400D03*
X160547100Y-80264000D03*
X138779300Y-58877200D03*
X140379500Y-93319600D03*
X138906300Y-73050400D03*
X134816900Y-65557400D03*
X150971300Y-86385400D03*
X126434900Y-59969400D03*
X153562100Y-77673200D03*
X160547100Y-79603600D03*
X126257100Y-78638400D03*
X162528300Y-87122000D03*
X132454700Y-92176600D03*
X146678700Y-97739200D03*
X127679500Y-83337400D03*
X141852700Y-90830400D03*
X122294700Y-75184000D03*
X122624900Y-78892400D03*
X138525300Y-88011000D03*
X141268500Y-58902600D03*
X134867700Y-73761600D03*
X160547100Y-75692000D03*
X122472500Y-96113600D03*
X135909100Y-79883000D03*
X144494300Y-87630000D03*
X113303100Y-81280000D03*
X112693500Y-86258400D03*
X125114100Y-71780400D03*
X133750100Y-86258400D03*
X126180900Y-83337400D03*
X136391700Y-95859600D03*
X108273900Y-85953600D03*
X161791700Y-84785200D03*
X134867700Y-74422000D03*
%TO.N,+3.3V*%
X156051300Y-71907400D03*
X157880100Y-72517000D03*
X158057900Y-78968600D03*
X153308100Y-78943200D03*
%TO.N,Vusb*%
X153790700Y-60629800D03*
X137356900Y-57988200D03*
X153790700Y-64719200D03*
X142741700Y-57988200D03*
%TO.N,+5V*%
X155517900Y-62306200D03*
X155517900Y-60604400D03*
%TO.N,/MD_PWMB*%
X146475500Y-77673200D03*
X147135900Y-75666600D03*
%TD*%
%TO.N,+3.3V*%
D47*
X144830800Y-73609200D02*
X143086000Y-71864400D01*
X152730200Y-73609200D02*
X144830800Y-73609200D01*
X154432000Y-71907400D02*
X152730200Y-73609200D01*
X143086000Y-71864400D02*
X141217700Y-71864400D01*
X156051300Y-71907400D02*
X154432000Y-71907400D01*
%TO.N,+5V*%
D48*
X145135600Y-72034400D02*
X142591700Y-69490500D01*
X149396500Y-70231000D02*
X147593100Y-72034400D01*
X150146500Y-67271200D02*
X149371100Y-68046600D01*
X149371100Y-68046600D02*
X149396500Y-68072000D01*
X149396500Y-68072000D02*
X149396500Y-70231000D01*
X147593100Y-72034400D02*
X145135600Y-72034400D01*
X142591700Y-69490500D02*
X141116100Y-69490500D01*
X150146500Y-66272800D02*
X150146500Y-67271200D01*
%TO.N,5V_REG*%
X147146500Y-67374743D02*
X147136034Y-67385209D01*
X141311500Y-63296800D02*
X146297700Y-63296800D01*
X147146500Y-64145600D02*
X147146500Y-67374743D01*
X141217700Y-63203000D02*
X141311500Y-63296800D01*
X146297700Y-63296800D02*
X147146500Y-64145600D01*
%TO.N,Vusb*%
D47*
X151646500Y-67374743D02*
X151636034Y-67385209D01*
X151961900Y-64998600D02*
X151646500Y-65314000D01*
X153511300Y-64998600D02*
X151961900Y-64998600D01*
X153790700Y-64719200D02*
X153511300Y-64998600D01*
X151646500Y-65314000D02*
X151646500Y-67374743D01*
%TO.N,+5V*%
D49*
X147644900Y-89051400D02*
X147644900Y-90207000D01*
X148253500Y-88442800D02*
X147644900Y-89051400D01*
X155524200Y-107823000D02*
X155524200Y-90525600D01*
X155524200Y-90525600D02*
X153441400Y-88442800D01*
X154381200Y-108966000D02*
X155524200Y-107823000D01*
X153441400Y-88442800D02*
X148253500Y-88442800D01*
X153841500Y-108966000D02*
X154381200Y-108966000D01*
%TO.N,/IMU_INT*%
D50*
X138169700Y-91084400D02*
X135096300Y-91084400D01*
X138728500Y-94107000D02*
X138728500Y-91643200D01*
X139007900Y-94386400D02*
X138728500Y-94107000D01*
X138728500Y-91643200D02*
X138169700Y-91084400D01*
X149072600Y-95504000D02*
X147955000Y-94386400D01*
X149072600Y-104140000D02*
X149072600Y-95504000D01*
X152292100Y-107359500D02*
X149072600Y-104140000D01*
X147955000Y-94386400D02*
X139007900Y-94386400D01*
X152292100Y-107365800D02*
X152292100Y-107359500D01*
%TO.N,+3.3V*%
D48*
X114395300Y-62890400D02*
X113252300Y-64033400D01*
X114395300Y-62890400D02*
X106749900Y-62890400D01*
X113252300Y-64033400D02*
X113252300Y-65340339D01*
X113252300Y-65340339D02*
X113337043Y-65425082D01*
%TO.N,Vusb*%
X122853500Y-57988200D02*
X137356900Y-57988200D01*
X102076300Y-63322200D02*
X103600300Y-61798200D01*
X103600300Y-61798200D02*
X119043500Y-61798200D01*
X119043500Y-61798200D02*
X122853500Y-57988200D01*
X102076300Y-78968600D02*
X102076300Y-63322200D01*
X108989000Y-80369500D02*
X108019900Y-79400400D01*
X102508100Y-79400400D02*
X102076300Y-78968600D01*
X108989000Y-82169000D02*
X108989000Y-80369500D01*
X108019900Y-79400400D02*
X102508100Y-79400400D01*
%TO.N,+3.3V*%
X125241100Y-62890400D02*
X114395300Y-62890400D01*
X125977700Y-63627000D02*
X125241100Y-62890400D01*
X125977700Y-67945000D02*
X125977700Y-63627000D01*
X106505300Y-63135000D02*
X106505300Y-65659000D01*
X126841300Y-68808600D02*
X125977700Y-67945000D01*
X106749900Y-62890400D02*
X106505300Y-63135000D01*
%TO.N,Net-(U1-VCAP1)*%
D50*
X126671300Y-80217100D02*
X126257100Y-79802900D01*
X126671300Y-82159400D02*
X126671300Y-80217100D01*
%TO.N,GND*%
D48*
X135821900Y-65557400D02*
X136163500Y-65215800D01*
D49*
X161837300Y-76357100D02*
X160567800Y-76357100D01*
D48*
X162528300Y-87122000D02*
X161135500Y-87122000D01*
X135832900Y-74422000D02*
X134867700Y-74422000D01*
X144494300Y-87630000D02*
X144493400Y-87630900D01*
X140379500Y-93319600D02*
X140379500Y-92411400D01*
X141852700Y-90830400D02*
X142784300Y-90830400D01*
X112693500Y-86258400D02*
X112693500Y-87043900D01*
X135844700Y-64897000D02*
X136163500Y-65215800D01*
X121739800Y-78892400D02*
X121714400Y-78917800D01*
X136188900Y-74055000D02*
X136188900Y-74116800D01*
X162528300Y-86436200D02*
X161885200Y-87079300D01*
X138779300Y-58877200D02*
X138779300Y-57992100D01*
X140379500Y-92411400D02*
X140372700Y-92404600D01*
D49*
X160554000Y-80257100D02*
X161837300Y-80257100D01*
D48*
X135909100Y-79883000D02*
X134990800Y-79883000D01*
X138525300Y-88011000D02*
X137487800Y-88011000D01*
X161885200Y-87079300D02*
X161092800Y-87079300D01*
X138855500Y-64439800D02*
X138855500Y-65350300D01*
X112693500Y-93016700D02*
X112691600Y-93014800D01*
D47*
X154821200Y-77673200D02*
X154837300Y-77657100D01*
D48*
X141620200Y-100961100D02*
X141620200Y-99923600D01*
D49*
X160562200Y-75707100D02*
X160547100Y-75692000D01*
D50*
X132671300Y-93509400D02*
X132671300Y-92393200D01*
D48*
X134816900Y-64897000D02*
X135844700Y-64897000D01*
X110051900Y-89992200D02*
X111048000Y-89992200D01*
X150260100Y-92536100D02*
X150256200Y-92532200D01*
X161774400Y-87079300D02*
X161092800Y-87079300D01*
X113303100Y-81280000D02*
X113328500Y-81305400D01*
D50*
X132671300Y-83274600D02*
X132861100Y-83464400D01*
D48*
X146678700Y-97739200D02*
X146678700Y-97056200D01*
X142784300Y-90830400D02*
X142793400Y-90839500D01*
D49*
X161833800Y-79603600D02*
X161837300Y-79607100D01*
D50*
X127679500Y-83337400D02*
X127671300Y-83329200D01*
D48*
X112693500Y-87043900D02*
X112691600Y-87045800D01*
X138779300Y-57992100D02*
X138804700Y-57966700D01*
X126434900Y-59969400D02*
X125536900Y-59969400D01*
X157499100Y-82677000D02*
X157499100Y-83696900D01*
X141624100Y-100965000D02*
X141620200Y-100961100D01*
X122294700Y-75184000D02*
X121396700Y-75184000D01*
D50*
X127671300Y-83329200D02*
X127671300Y-82159400D01*
D48*
X141243100Y-74853800D02*
X141243100Y-73964800D01*
D50*
X135096300Y-86084400D02*
X133924100Y-86084400D01*
D48*
X122472500Y-96113600D02*
X122472500Y-95218100D01*
X144493400Y-87630900D02*
X144493400Y-88639500D01*
X141268500Y-58902600D02*
X141268500Y-58017500D01*
X135498800Y-95859600D02*
X135473400Y-95885000D01*
X161135500Y-87122000D02*
X161092800Y-87079300D01*
X107706900Y-93184400D02*
X108426300Y-93903800D01*
X122624900Y-81127600D02*
X121714400Y-81127600D01*
D49*
X161837300Y-75707100D02*
X160562200Y-75707100D01*
D48*
X113328500Y-81305400D02*
X113328500Y-82178000D01*
D50*
X126180900Y-82169000D02*
X126171300Y-82159400D01*
D48*
X123920300Y-104394000D02*
X123155500Y-104394000D01*
D50*
X126180900Y-83337400D02*
X126180900Y-82169000D01*
D48*
X135858300Y-74447400D02*
X135832900Y-74422000D01*
X161791700Y-84785200D02*
X161791700Y-83766000D01*
X112693500Y-93802200D02*
X112693500Y-93016700D01*
X107515900Y-86784400D02*
X107515900Y-86711600D01*
X107515900Y-86711600D02*
X108273900Y-85953600D01*
X141268500Y-58017500D02*
X141243100Y-57992100D01*
X141217700Y-64363600D02*
X141217700Y-65278000D01*
X125114100Y-71780400D02*
X125114100Y-72678400D01*
X136188900Y-74116800D02*
X135858300Y-74447400D01*
X126257100Y-78638400D02*
X126257100Y-77727900D01*
X157499100Y-83696900D02*
X157520600Y-83718400D01*
X138906300Y-73050400D02*
X138906300Y-73960900D01*
X122624900Y-78892400D02*
X121739800Y-78892400D01*
X134816900Y-65557400D02*
X135821900Y-65557400D01*
X162528300Y-87833200D02*
X161774400Y-87079300D01*
X146678700Y-97056200D02*
X146294900Y-96672400D01*
X140354100Y-85496400D02*
X140354100Y-86374000D01*
X141243100Y-73964800D02*
X141217700Y-73939400D01*
D49*
X160547100Y-80264000D02*
X160554000Y-80257100D01*
D48*
X138855500Y-66522600D02*
X138855500Y-67440900D01*
X161791700Y-83766000D02*
X161758500Y-83732800D01*
X140354100Y-86374000D02*
X140372700Y-86392600D01*
X134867700Y-73761600D02*
X135895500Y-73761600D01*
X141116100Y-66522600D02*
X141116100Y-67415500D01*
X107515900Y-93184400D02*
X107706900Y-93184400D01*
X150971300Y-86385400D02*
X150971300Y-85333400D01*
X122472500Y-95218100D02*
X122456900Y-95202500D01*
D47*
X153562100Y-77673200D02*
X154821200Y-77673200D01*
D50*
X132671300Y-82159400D02*
X132671300Y-83274600D01*
D48*
X136391700Y-95859600D02*
X135498800Y-95859600D01*
D50*
X132671300Y-92393200D02*
X132454700Y-92176600D01*
X133924100Y-86084400D02*
X133750100Y-86258400D01*
D48*
X137487800Y-88011000D02*
X137483900Y-88007100D01*
X150260100Y-93573600D02*
X150260100Y-92536100D01*
D49*
X160567800Y-76357100D02*
X160547100Y-76377800D01*
D50*
X124936300Y-91084400D02*
X123746300Y-91084400D01*
D48*
X135895500Y-73761600D02*
X136188900Y-74055000D01*
D49*
X160547100Y-79603600D02*
X161833800Y-79603600D01*
D48*
X150971300Y-85333400D02*
X150944900Y-85307000D01*
%TO.N,+3.3V*%
X136188900Y-71755000D02*
X138775400Y-71755000D01*
D50*
X125671300Y-82704000D02*
X125342700Y-83032600D01*
X122456900Y-93127500D02*
X121674000Y-93127500D01*
D47*
X159200900Y-78968600D02*
X159683500Y-79451200D01*
D50*
X103727300Y-70180200D02*
X103727300Y-68437000D01*
D48*
X128187500Y-68808600D02*
X126841300Y-68808600D01*
D47*
X159683500Y-83732800D02*
X159683500Y-79451200D01*
X158057900Y-78968600D02*
X159200900Y-78968600D01*
D48*
X136188900Y-71755000D02*
X129888900Y-71755000D01*
X118967300Y-108813600D02*
X127273100Y-108813600D01*
D47*
X159683500Y-79451200D02*
X159683500Y-75844400D01*
D50*
X132861100Y-84759800D02*
X132861100Y-90703400D01*
D48*
X107943700Y-69215000D02*
X106699100Y-70459600D01*
X103397100Y-106400600D02*
X110839300Y-106400600D01*
X129015900Y-72628000D02*
X129888900Y-71755000D01*
X141217700Y-71864400D02*
X138927800Y-71864400D01*
X118459300Y-108305600D02*
X118967300Y-108813600D01*
D50*
X125671300Y-82159400D02*
X124821200Y-82159400D01*
D47*
X157880100Y-74041000D02*
X157880100Y-72517000D01*
D48*
X112693500Y-104546400D02*
X115970100Y-104546400D01*
X123789400Y-77643900D02*
X123789400Y-78917800D01*
D50*
X131807000Y-91757500D02*
X131616500Y-91948000D01*
D47*
X154837300Y-78957100D02*
X153322000Y-78957100D01*
D48*
X126841300Y-68808600D02*
X123234500Y-68808600D01*
X117798900Y-104546400D02*
X118459300Y-105206800D01*
X116753700Y-103762800D02*
X115970100Y-104546400D01*
D50*
X123746300Y-91584400D02*
X123746300Y-91838100D01*
X135096300Y-85584400D02*
X137136200Y-85584400D01*
X133685700Y-85584400D02*
X132861100Y-84759800D01*
X137136200Y-85584400D02*
X137483900Y-85932100D01*
D48*
X120059500Y-76911200D02*
X123056700Y-76911200D01*
D50*
X131616500Y-91948000D02*
X124860100Y-91948000D01*
D48*
X128035100Y-108051600D02*
X128035100Y-104773600D01*
D50*
X131108500Y-84150200D02*
X132657900Y-84150200D01*
X123746300Y-91838100D02*
X122456900Y-93127500D01*
D48*
X127374700Y-72628000D02*
X129015900Y-72628000D01*
X118459300Y-105206800D02*
X118459300Y-108305600D01*
D50*
X133171300Y-93509400D02*
X133171300Y-91013600D01*
D47*
X141311500Y-71958200D02*
X141217700Y-71864400D01*
D48*
X119678500Y-72364600D02*
X119678500Y-76530200D01*
D50*
X132861100Y-90703400D02*
X131807000Y-91757500D01*
X132657900Y-84150200D02*
X132861100Y-84353400D01*
X132171300Y-82159400D02*
X132171300Y-83087400D01*
D48*
X123234500Y-68808600D02*
X119678500Y-72364600D01*
D50*
X125342700Y-83032600D02*
X125342700Y-83794600D01*
X133171300Y-93509400D02*
X133171300Y-95657900D01*
X124860100Y-91948000D02*
X124496500Y-91584400D01*
X118357700Y-96443800D02*
X106546700Y-96443800D01*
D48*
X129888900Y-71755000D02*
X129888900Y-69341600D01*
X129355900Y-68808600D02*
X128187500Y-68808600D01*
D50*
X125671300Y-82159400D02*
X125671300Y-82704000D01*
X125342700Y-83794600D02*
X125698300Y-84150200D01*
D48*
X106699100Y-70459600D02*
X106470500Y-70459600D01*
X138927800Y-71864400D02*
X138906300Y-71885900D01*
X138775400Y-71755000D02*
X138906300Y-71885900D01*
X115970100Y-104546400D02*
X117798900Y-104546400D01*
D47*
X153322000Y-78957100D02*
X153308100Y-78943200D01*
D48*
X123789400Y-78917800D02*
X123789400Y-81127600D01*
X107943700Y-74295000D02*
X107943700Y-71755000D01*
X116753700Y-102412800D02*
X116753700Y-103762800D01*
D50*
X106470500Y-70459600D02*
X104006700Y-70459600D01*
X135096300Y-85584400D02*
X133685700Y-85584400D01*
D48*
X107943700Y-69215000D02*
X107943700Y-71755000D01*
D50*
X133171300Y-95657900D02*
X133398400Y-95885000D01*
X104006700Y-70459600D02*
X103727300Y-70180200D01*
X133398400Y-95885000D02*
X133398400Y-96523900D01*
X103727300Y-68437000D02*
X106505300Y-65659000D01*
D48*
X128035100Y-104773600D02*
X127655500Y-104394000D01*
D50*
X106546700Y-96443800D02*
X105352900Y-97637600D01*
X102990700Y-106400600D02*
X103397100Y-106400600D01*
X133171300Y-91013600D02*
X132861100Y-90703400D01*
X102000100Y-105410000D02*
X102990700Y-106400600D01*
X102279500Y-100025200D02*
X102000100Y-100304600D01*
X121674000Y-93127500D02*
X118357700Y-96443800D01*
X125698300Y-84150200D02*
X131108500Y-84150200D01*
X124821200Y-82159400D02*
X123789400Y-81127600D01*
X124496500Y-91584400D02*
X123746300Y-91584400D01*
D48*
X123056700Y-76911200D02*
X123789400Y-77643900D01*
D50*
X102000100Y-100304600D02*
X102000100Y-105410000D01*
X105352900Y-97637600D02*
X105352900Y-99618800D01*
X105352900Y-99618800D02*
X104946500Y-100025200D01*
D48*
X127273100Y-108813600D02*
X128035100Y-108051600D01*
X110839300Y-106400600D02*
X112693500Y-104546400D01*
D47*
X156008300Y-71864400D02*
X156051300Y-71907400D01*
D48*
X129888900Y-69341600D02*
X129355900Y-68808600D01*
X119678500Y-76530200D02*
X120059500Y-76911200D01*
D47*
X159683500Y-75844400D02*
X157880100Y-74041000D01*
D50*
X132171300Y-80627500D02*
X132915800Y-79883000D01*
X132861100Y-84353400D02*
X132861100Y-84759800D01*
X132171300Y-83087400D02*
X131108500Y-84150200D01*
X104946500Y-100025200D02*
X102279500Y-100025200D01*
X132171300Y-82159400D02*
X132171300Y-80627500D01*
%TO.N,Net-(F1-~-Pad1)*%
D48*
X105149700Y-91948000D02*
X106089500Y-91948000D01*
X104714000Y-91512300D02*
X105149700Y-91948000D01*
D50*
X107515900Y-92384400D02*
X106932300Y-92384400D01*
X106495900Y-91948000D02*
X106089500Y-91948000D01*
D48*
X104714000Y-82169000D02*
X104714000Y-87172800D01*
D50*
X106932300Y-92384400D02*
X106495900Y-91948000D01*
D48*
X104714000Y-87172800D02*
X104714000Y-91512300D01*
D47*
X106914599Y-87584400D02*
X106677199Y-87821800D01*
X105363000Y-87821800D02*
X104714000Y-87172800D01*
X107515900Y-87584400D02*
X106914599Y-87584400D01*
X106677199Y-87821800D02*
X105363000Y-87821800D01*
%TO.N,Vusb*%
X153790700Y-58293000D02*
X153460500Y-57962800D01*
D48*
X111118700Y-82153000D02*
X109005000Y-82153000D01*
D50*
X111601300Y-83794600D02*
X111118700Y-83312000D01*
D47*
X153790700Y-60629800D02*
X153790700Y-58293000D01*
X153460500Y-57962800D02*
X142767100Y-57962800D01*
D48*
X111134700Y-82169000D02*
X111118700Y-82153000D01*
D50*
X112464900Y-88112600D02*
X113734900Y-88112600D01*
X112185500Y-88392000D02*
X112464900Y-88112600D01*
X112439500Y-89992200D02*
X112185500Y-89738200D01*
X114014300Y-84124800D02*
X113684100Y-83794600D01*
X113734900Y-88112600D02*
X114014300Y-87833200D01*
X114014300Y-87833200D02*
X114014300Y-84124800D01*
X113684100Y-83794600D02*
X111601300Y-83794600D01*
D48*
X109005000Y-82153000D02*
X108989000Y-82169000D01*
D50*
X112185500Y-89738200D02*
X112185500Y-88392000D01*
X113323000Y-89992200D02*
X112439500Y-89992200D01*
X111118700Y-83312000D02*
X111118700Y-82153000D01*
D47*
X142767100Y-57962800D02*
X142741700Y-57988200D01*
%TO.N,Net-(D2-A)*%
D48*
X111143700Y-80128000D02*
X111118700Y-80153000D01*
X113328500Y-80128000D02*
X111143700Y-80128000D01*
X113378900Y-80178400D02*
X113328500Y-80128000D01*
%TO.N,/USB_D-*%
D50*
X108807300Y-90119200D02*
X108807300Y-89484200D01*
X108807300Y-89484200D02*
X109416900Y-89484200D01*
X107515900Y-90234400D02*
X108692100Y-90234400D01*
X109416900Y-89484200D02*
X109858900Y-89042200D01*
X108557500Y-89234400D02*
X107515900Y-89234400D01*
X108807300Y-89484200D02*
X108557500Y-89234400D01*
X109858900Y-89042200D02*
X111048000Y-89042200D01*
X108692100Y-90234400D02*
X108807300Y-90119200D01*
%TO.N,/USB_D+*%
X106241900Y-90449400D02*
X106526900Y-90734400D01*
X106526900Y-90734400D02*
X107515900Y-90734400D01*
X107515900Y-90734400D02*
X109600300Y-90734400D01*
X107515900Y-89734400D02*
X106347300Y-89734400D01*
X109808100Y-90942200D02*
X111048000Y-90942200D01*
X106347300Y-89734400D02*
X106241900Y-89839800D01*
X109600300Y-90734400D02*
X109808100Y-90942200D01*
X106241900Y-89839800D02*
X106241900Y-90449400D01*
%TO.N,/CONN_D+*%
D51*
X113323000Y-90942200D02*
X114316751Y-90942200D01*
X115041751Y-90217200D02*
X117201700Y-90217200D01*
X117201700Y-90217200D02*
X118018100Y-91033600D01*
X114316751Y-90942200D02*
X115041751Y-90217200D01*
%TO.N,/CONN_D-*%
X115041751Y-89767200D02*
X117227100Y-89767200D01*
X114316751Y-89042200D02*
X115041751Y-89767200D01*
X117227100Y-89767200D02*
X118018100Y-88976200D01*
X113323000Y-89042200D02*
X114316751Y-89042200D01*
%TO.N,5V_REG*%
D48*
X136163500Y-62915800D02*
X129863500Y-62915800D01*
X138927800Y-63203000D02*
X138855500Y-63275300D01*
X138855500Y-63275300D02*
X138496000Y-62915800D01*
X141217700Y-63203000D02*
X138927800Y-63203000D01*
X127450900Y-64195200D02*
X128584100Y-64195200D01*
X138496000Y-62915800D02*
X136163500Y-62915800D01*
X128584100Y-64195200D02*
X129863500Y-62915800D01*
%TO.N,VM*%
D49*
X154837300Y-74407100D02*
X156294800Y-74407100D01*
D48*
X156965700Y-73736200D02*
X156965700Y-74726800D01*
X141243100Y-60067100D02*
X138830100Y-60067100D01*
X155445600Y-83718400D02*
X155445600Y-86547100D01*
X150499500Y-61442600D02*
X156432300Y-61442600D01*
D49*
X154837300Y-81557100D02*
X156104400Y-81557100D01*
D48*
X155445600Y-86547100D02*
X155977800Y-87079300D01*
X155445600Y-83054100D02*
X155445600Y-83718400D01*
X150499500Y-60539000D02*
X149574300Y-59613800D01*
X156432300Y-61442600D02*
X156965700Y-61976000D01*
X156965700Y-80695800D02*
X156965700Y-81534000D01*
X141696400Y-59613800D02*
X141243100Y-60067100D01*
X149574300Y-59613800D02*
X141696400Y-59613800D01*
D49*
X156635400Y-75057100D02*
X156965700Y-74726800D01*
D48*
X138804700Y-60041700D02*
X136737600Y-60041700D01*
X136737600Y-60041700D02*
X136163500Y-60615800D01*
X138830100Y-60067100D02*
X138804700Y-60041700D01*
X156965700Y-61976000D02*
X156965700Y-73736200D01*
D49*
X154837300Y-75057100D02*
X156635400Y-75057100D01*
D48*
X156965700Y-74726800D02*
X156965700Y-80695800D01*
D49*
X156104400Y-81557100D02*
X156965700Y-80695800D01*
D48*
X156965700Y-81534000D02*
X155445600Y-83054100D01*
D49*
X156294800Y-74407100D02*
X156965700Y-73736200D01*
D48*
X150499500Y-61442600D02*
X150499500Y-60539000D01*
%TO.N,Net-(R2-~-Pad1)*%
D50*
X126155500Y-102193600D02*
X126146100Y-102184200D01*
X126155500Y-104394000D02*
X126155500Y-102193600D01*
%TO.N,+5V*%
D49*
X164153900Y-97104200D02*
X168141700Y-93116400D01*
X164762900Y-75666000D02*
X164762900Y-58698800D01*
D48*
X141090700Y-69515900D02*
X141116100Y-69490500D01*
X148181200Y-90743300D02*
X147644900Y-90207000D01*
D49*
X134512100Y-108508800D02*
X134969300Y-108966000D01*
X155543300Y-62331600D02*
X155517900Y-62306200D01*
X155517900Y-58928000D02*
X156279900Y-58166000D01*
X150717300Y-63728600D02*
X155060700Y-63728600D01*
X168141700Y-79044800D02*
X164762900Y-75666000D01*
X155517900Y-60604400D02*
X155517900Y-58928000D01*
X164762900Y-58698800D02*
X164230100Y-58166000D01*
X164153900Y-108229400D02*
X164153900Y-97104200D01*
D48*
X138855500Y-69515900D02*
X141090700Y-69515900D01*
X138794600Y-69455000D02*
X138855500Y-69515900D01*
D49*
X164230100Y-58166000D02*
X156279900Y-58166000D01*
D48*
X148181200Y-92532200D02*
X148181200Y-90743300D01*
D49*
X150146500Y-66272800D02*
X150146500Y-64299400D01*
D48*
X136188900Y-69455000D02*
X138794600Y-69455000D01*
D49*
X134512100Y-107365800D02*
X134512100Y-108508800D01*
X134969300Y-108966000D02*
X153841500Y-108966000D01*
X155060700Y-63728600D02*
X155543300Y-63246000D01*
X163417300Y-108966000D02*
X164153900Y-108229400D01*
X153841500Y-108966000D02*
X163417300Y-108966000D01*
X155543300Y-63246000D02*
X155543300Y-62331600D01*
X168141700Y-93116400D02*
X168141700Y-79044800D01*
X150146500Y-64299400D02*
X150717300Y-63728600D01*
%TO.N,Net-(D4-A)*%
D50*
X123446700Y-75184000D02*
X125384100Y-75184000D01*
X125384100Y-75184000D02*
X125409500Y-75209400D01*
%TO.N,/USER_LED*%
X128171300Y-75971200D02*
X127409500Y-75209400D01*
X128171300Y-82159400D02*
X128171300Y-75971200D01*
%TO.N,/ESP_TX*%
X115335100Y-77495400D02*
X114674700Y-76835000D01*
X121971100Y-89084400D02*
X115335100Y-82448400D01*
X114674700Y-76835000D02*
X107943700Y-76835000D01*
X123746300Y-89084400D02*
X121971100Y-89084400D01*
X115335100Y-82448400D02*
X115335100Y-77495400D01*
%TO.N,Net-(J4-Pin_5)*%
D51*
X103574900Y-71755000D02*
X102939900Y-71120000D01*
X102939900Y-67224400D02*
X104505300Y-65659000D01*
X105403700Y-71755000D02*
X103574900Y-71755000D01*
X102939900Y-71120000D02*
X102939900Y-67224400D01*
%TO.N,/ESP_RX*%
D50*
X123746300Y-88584400D02*
X122258500Y-88584400D01*
X105403700Y-68402200D02*
X105403700Y-69215000D01*
X115004900Y-67259200D02*
X106546700Y-67259200D01*
X116300300Y-82626200D02*
X116300300Y-68554600D01*
X122258500Y-88584400D02*
X116300300Y-82626200D01*
X116300300Y-68554600D02*
X115004900Y-67259200D01*
X106546700Y-67259200D02*
X105403700Y-68402200D01*
%TO.N,Net-(J3-CC2)*%
X107515900Y-91734400D02*
X108923900Y-91734400D01*
X109442300Y-93014800D02*
X110866600Y-93014800D01*
X109061300Y-91871800D02*
X109061300Y-92633800D01*
X109061300Y-92633800D02*
X109442300Y-93014800D01*
X108923900Y-91734400D02*
X109061300Y-91871800D01*
%TO.N,/MD_AO1*%
D48*
X158916100Y-94874400D02*
X164331700Y-89458800D01*
D49*
X163161000Y-81557100D02*
X164331700Y-82727800D01*
X161837300Y-80907100D02*
X163577800Y-80907100D01*
X163577800Y-80907100D02*
X164331700Y-81661000D01*
X161837300Y-81557100D02*
X163161000Y-81557100D01*
D48*
X164331700Y-89458800D02*
X164331700Y-82727800D01*
X158916100Y-104961200D02*
X158916100Y-94874400D01*
D49*
X164331700Y-81661000D02*
X164331700Y-82727800D01*
%TO.N,/MD_AO2*%
D48*
X166668500Y-90906600D02*
X166668500Y-79705200D01*
X165920400Y-78957100D02*
X165274400Y-78311100D01*
D49*
X161837300Y-78957100D02*
X165920400Y-78957100D01*
D48*
X166668500Y-79705200D02*
X165920400Y-78957100D01*
X161416100Y-104961200D02*
X161416100Y-96159000D01*
X165274400Y-78311100D02*
X161837300Y-78311100D01*
X161416100Y-96159000D02*
X166668500Y-90906600D01*
%TO.N,/MD_BO2*%
X163645900Y-61341000D02*
X163645900Y-76581000D01*
D47*
X163219800Y-77007100D02*
X163645900Y-76581000D01*
D49*
X161837300Y-77657100D02*
X163306400Y-77657100D01*
D47*
X161837300Y-77007100D02*
X163219800Y-77007100D01*
D49*
X163306400Y-77657100D02*
X163645900Y-77317600D01*
X163645900Y-77317600D02*
X163645900Y-76581000D01*
D48*
X163036300Y-60731400D02*
X163645900Y-61341000D01*
X161294500Y-60731400D02*
X163036300Y-60731400D01*
%TO.N,/MD_BO1*%
D49*
X161837300Y-75057100D02*
X160877400Y-75057100D01*
D48*
X161837300Y-74407100D02*
X160227400Y-74407100D01*
D49*
X160877400Y-75057100D02*
X160227400Y-74407100D01*
D48*
X158794500Y-72974200D02*
X158794500Y-60731400D01*
X160227400Y-74407100D02*
X158794500Y-72974200D01*
%TO.N,/MD_PWMB*%
D50*
X147135900Y-75666600D02*
X147440700Y-75361800D01*
X147440700Y-75361800D02*
X152927100Y-75361800D01*
X131870500Y-77673200D02*
X146475500Y-77673200D01*
X153272400Y-75707100D02*
X154837300Y-75707100D01*
X131171300Y-82159400D02*
X131171300Y-78372400D01*
X152927100Y-75361800D02*
X153272400Y-75707100D01*
X131171300Y-78372400D02*
X131870500Y-77673200D01*
%TO.N,/MD_BIN2*%
X130171300Y-77315000D02*
X131129200Y-76357100D01*
X131129200Y-76357100D02*
X154837300Y-76357100D01*
X130171300Y-82159400D02*
X130171300Y-77315000D01*
%TO.N,/MD_BIN1*%
X130671300Y-77729400D02*
X131393600Y-77007100D01*
X131393600Y-77007100D02*
X154837300Y-77007100D01*
X130671300Y-82159400D02*
X130671300Y-77729400D01*
%TO.N,/MD_STBY*%
X154837300Y-78307100D02*
X132201800Y-78307100D01*
X132201800Y-78307100D02*
X131671300Y-78837600D01*
X131671300Y-78837600D02*
X131671300Y-82159400D01*
%TO.N,/MD_AIN1*%
X138547200Y-79607100D02*
X154837300Y-79607100D01*
X135994900Y-82159400D02*
X138547200Y-79607100D01*
X133171300Y-82159400D02*
X135994900Y-82159400D01*
%TO.N,/MD_AIN2*%
X135096300Y-84084400D02*
X135314500Y-84084400D01*
X139141800Y-80257100D02*
X154837300Y-80257100D01*
X135314500Y-84084400D02*
X139141800Y-80257100D01*
%TO.N,/MD_PWMA*%
X139863400Y-80907100D02*
X154837300Y-80907100D01*
X136186100Y-84584400D02*
X139863400Y-80907100D01*
X135096300Y-84584400D02*
X136186100Y-84584400D01*
%TO.N,/WS_DIN*%
X137204500Y-84429600D02*
X146767500Y-84429600D01*
X135096300Y-85084400D02*
X136549700Y-85084400D01*
X136549700Y-85084400D02*
X137204500Y-84429600D01*
X146767500Y-84429600D02*
X147644900Y-85307000D01*
%TO.N,/RESET*%
D52*
X139594900Y-96672400D02*
X137585500Y-96672400D01*
X136823500Y-92430600D02*
X134080300Y-92430600D01*
X137229900Y-96316800D02*
X137229900Y-92837000D01*
X139594900Y-96672400D02*
X139594900Y-99873900D01*
X137585500Y-96672400D02*
X137229900Y-96316800D01*
X133648500Y-88722200D02*
X133786300Y-88584400D01*
X134080300Y-92430600D02*
X133648500Y-91998800D01*
X137229900Y-92837000D02*
X136823500Y-92430600D01*
X133648500Y-91998800D02*
X133648500Y-88722200D01*
X139594900Y-99873900D02*
X139545200Y-99923600D01*
X133786300Y-88584400D02*
X135096300Y-88584400D01*
%TO.N,/OSCIN*%
X144493400Y-90839500D02*
X144493400Y-90360900D01*
X141326100Y-90329600D02*
X141916200Y-89739500D01*
X144493400Y-90360900D02*
X143872000Y-89739500D01*
X143872000Y-89739500D02*
X141916200Y-89739500D01*
X138408300Y-89584400D02*
X139153500Y-90329600D01*
X135096300Y-89584400D02*
X138408300Y-89584400D01*
X139153500Y-90329600D02*
X140372700Y-90329600D01*
X140372700Y-90329600D02*
X141326100Y-90329600D01*
%TO.N,/OSCOUT*%
X135096300Y-89084400D02*
X138442900Y-89084400D01*
X140544600Y-88639500D02*
X140372700Y-88467600D01*
X142793400Y-88639500D02*
X140544600Y-88639500D01*
X139059700Y-88467600D02*
X140372700Y-88467600D01*
X138442900Y-89084400D02*
X139059700Y-88467600D01*
%TO.N,/MT_PWM*%
D50*
X118764100Y-63576200D02*
X118337043Y-64003257D01*
X118637100Y-71983600D02*
X122726500Y-67894200D01*
X124529900Y-63576200D02*
X118764100Y-63576200D01*
X118337043Y-64003257D02*
X118337043Y-65425082D01*
X125063300Y-64109600D02*
X124529900Y-63576200D01*
X122726500Y-67894200D02*
X124453700Y-67894200D01*
X123746300Y-86084400D02*
X122730300Y-86084400D01*
X124453700Y-67894200D02*
X125063300Y-67284600D01*
X122730300Y-86084400D02*
X118637100Y-81991200D01*
X118637100Y-81991200D02*
X118637100Y-71983600D01*
X125063300Y-67284600D02*
X125063300Y-64109600D01*
%TO.N,/MT_SDA*%
X117849700Y-71094600D02*
X123337043Y-65607257D01*
X122807900Y-87584400D02*
X117849700Y-82626200D01*
X123337043Y-65607257D02*
X123337043Y-65425082D01*
X123746300Y-87584400D02*
X122807900Y-87584400D01*
X117849700Y-82626200D02*
X117849700Y-71094600D01*
%TO.N,/MT_SCL*%
X120837043Y-66583257D02*
X120837043Y-65425082D01*
X122545900Y-88084400D02*
X117087700Y-82626200D01*
X117087700Y-82626200D02*
X117087700Y-70332600D01*
X117087700Y-70332600D02*
X120837043Y-66583257D01*
X123746300Y-88084400D02*
X122545900Y-88084400D01*
%TO.N,/ESD_D-*%
D51*
X122583799Y-89584400D02*
X122558799Y-89609400D01*
X120651300Y-89609400D02*
X120018100Y-88976200D01*
X123746300Y-89584400D02*
X122583799Y-89584400D01*
X122558799Y-89609400D02*
X120651300Y-89609400D01*
%TO.N,/ESD_D+*%
X123746300Y-90084400D02*
X122583799Y-90084400D01*
X120992300Y-90059400D02*
X120018100Y-91033600D01*
X122583799Y-90084400D02*
X122558799Y-90059400D01*
X122558799Y-90059400D02*
X120992300Y-90059400D01*
%TO.N,/SWDIO*%
D50*
X117621100Y-95377000D02*
X122413700Y-90584400D01*
X103397100Y-96393000D02*
X104413100Y-95377000D01*
X123746300Y-90584400D02*
X122413700Y-90584400D01*
X104413100Y-95377000D02*
X117621100Y-95377000D01*
X103397100Y-98780600D02*
X103397100Y-96393000D01*
%TO.N,/SWCLK*%
X106445100Y-98501200D02*
X107435700Y-97510600D01*
X124783900Y-97510600D02*
X125671300Y-96623200D01*
X106445100Y-103403400D02*
X106445100Y-98501200D01*
X125671300Y-96623200D02*
X125671300Y-93509400D01*
X103397100Y-103860600D02*
X105987900Y-103860600D01*
X105987900Y-103860600D02*
X106445100Y-103403400D01*
X107435700Y-97510600D02*
X124783900Y-97510600D01*
%TO.N,/ENC_B*%
X111753700Y-98856800D02*
X112363300Y-98247200D01*
X112363300Y-98247200D02*
X126917500Y-98247200D01*
X111753700Y-102412800D02*
X111753700Y-98856800D01*
X130171300Y-94993400D02*
X130171300Y-93509400D01*
X126917500Y-98247200D02*
X130171300Y-94993400D01*
%TO.N,/ENC_A*%
X127196900Y-98933000D02*
X114928700Y-98933000D01*
X130671300Y-93509400D02*
X130671300Y-95458600D01*
X114253700Y-99608000D02*
X114253700Y-102412800D01*
X114928700Y-98933000D02*
X114253700Y-99608000D01*
X130671300Y-95458600D02*
X127196900Y-98933000D01*
%TO.N,/BOOT0*%
X131171300Y-93509400D02*
X131171300Y-96254000D01*
X131171300Y-96254000D02*
X128146100Y-99279200D01*
X128146100Y-99279200D02*
X128146100Y-102184200D01*
%TO.N,/IMU_SCL*%
X139592100Y-105714800D02*
X139592100Y-107365800D01*
X132378500Y-104825800D02*
X138703100Y-104825800D01*
X138703100Y-104825800D02*
X139592100Y-105714800D01*
X131671300Y-104118600D02*
X132378500Y-104825800D01*
X131671300Y-93509400D02*
X131671300Y-104118600D01*
%TO.N,/IMU_SDA*%
X132759500Y-97917000D02*
X132759500Y-103276400D01*
X132171300Y-93509400D02*
X132171300Y-97328800D01*
X142132100Y-104571800D02*
X142132100Y-107365800D01*
X141319300Y-103759000D02*
X142132100Y-104571800D01*
X132171300Y-97328800D02*
X132759500Y-97917000D01*
X132759500Y-103276400D02*
X133242100Y-103759000D01*
X133242100Y-103759000D02*
X141319300Y-103759000D01*
%TO.N,Net-(D3-A)*%
D48*
X125114500Y-70628000D02*
X125114100Y-70628400D01*
X127374700Y-70628000D02*
X125114500Y-70628000D01*
%TO.N,Net-(D5-A)*%
X127450900Y-60105400D02*
X127586900Y-59969400D01*
X127450900Y-62195200D02*
X127450900Y-60105400D01*
%TO.N,Net-(J3-CC1)*%
D50*
X109340700Y-88290400D02*
X109340700Y-87376000D01*
X107515900Y-88734400D02*
X108896700Y-88734400D01*
X108896700Y-88734400D02*
X109340700Y-88290400D01*
X109670900Y-87045800D02*
X110866600Y-87045800D01*
X109340700Y-87376000D02*
X109670900Y-87045800D01*
%TD*%
%TA.AperFunction,Conductor*%
%TO.N,VM*%
G36*
X152717739Y-58635385D02*
G01*
X152763494Y-58688189D01*
X152774700Y-58739700D01*
X152774700Y-62766400D01*
X152755015Y-62833439D01*
X152702211Y-62879194D01*
X152650700Y-62890400D01*
X149595535Y-62890400D01*
X149528496Y-62870715D01*
X149482741Y-62817911D01*
X149471541Y-62767570D01*
X149460239Y-61569600D01*
X149447300Y-60198000D01*
X149142500Y-59969400D01*
X149142501Y-59969400D01*
X148207032Y-59956842D01*
X148189300Y-59955326D01*
X148105792Y-59942100D01*
X148105787Y-59942100D01*
X147893213Y-59942100D01*
X147879332Y-59944298D01*
X147842385Y-59950150D01*
X147821324Y-59951665D01*
X145357900Y-59918599D01*
X142363284Y-61554314D01*
X142303411Y-61569489D01*
X135142240Y-61544624D01*
X135075270Y-61524707D01*
X135029698Y-61471745D01*
X135018679Y-61422071D01*
X134998397Y-59677700D01*
X134996159Y-59485242D01*
X135015063Y-59417978D01*
X135067332Y-59371612D01*
X135120151Y-59359800D01*
X138078459Y-59359800D01*
X138145498Y-59379485D01*
X138166140Y-59396119D01*
X138269007Y-59498986D01*
X138269011Y-59498989D01*
X138400114Y-59586590D01*
X138400127Y-59586597D01*
X138545798Y-59646935D01*
X138545803Y-59646937D01*
X138673487Y-59672335D01*
X138700453Y-59677699D01*
X138700456Y-59677700D01*
X138700458Y-59677700D01*
X138858144Y-59677700D01*
X138858145Y-59677699D01*
X139012797Y-59646937D01*
X139158479Y-59586594D01*
X139289589Y-59498989D01*
X139303336Y-59485242D01*
X139392460Y-59396119D01*
X139453783Y-59362634D01*
X139480141Y-59359800D01*
X140544958Y-59359800D01*
X140611997Y-59379485D01*
X140641956Y-59408911D01*
X140642847Y-59408181D01*
X140646713Y-59412892D01*
X140758207Y-59524386D01*
X140758211Y-59524389D01*
X140889314Y-59611990D01*
X140889327Y-59611997D01*
X141034998Y-59672335D01*
X141035003Y-59672337D01*
X141189653Y-59703099D01*
X141189656Y-59703100D01*
X141189658Y-59703100D01*
X141347344Y-59703100D01*
X141347345Y-59703099D01*
X141501997Y-59672337D01*
X141647679Y-59611994D01*
X141778789Y-59524389D01*
X141890289Y-59412889D01*
X141890291Y-59412885D01*
X141894153Y-59408181D01*
X141895582Y-59409354D01*
X141942562Y-59370100D01*
X141992042Y-59359800D01*
X142462300Y-59359800D01*
X143776549Y-58631249D01*
X143836669Y-58615700D01*
X152650700Y-58615700D01*
X152717739Y-58635385D01*
G37*
%TD.AperFunction*%
%TD*%
%TA.AperFunction,Conductor*%
%TO.N,GND*%
G36*
X142457352Y-73121062D02*
G01*
X142503275Y-73173720D01*
X142514635Y-73224040D01*
X142536915Y-75006463D01*
X142518070Y-75073743D01*
X142465842Y-75120155D01*
X142411759Y-75132008D01*
X134558734Y-75058155D01*
X134491883Y-75037840D01*
X134446626Y-74984608D01*
X134435900Y-74934160D01*
X134435900Y-73279562D01*
X134455585Y-73212523D01*
X134472212Y-73191887D01*
X134501346Y-73162753D01*
X134562665Y-73129270D01*
X134588628Y-73126437D01*
X142390250Y-73101591D01*
X142457352Y-73121062D01*
G37*
%TD.AperFunction*%
%TD*%
%TA.AperFunction,Conductor*%
%TO.N,5V_REG*%
G36*
X131399821Y-60810263D02*
G01*
X131424559Y-60815474D01*
X131449021Y-60823348D01*
X133775499Y-61849000D01*
X133775498Y-61849000D01*
X133804543Y-61849180D01*
X134646363Y-61854407D01*
X134713276Y-61874508D01*
X134727116Y-61884973D01*
X134800501Y-61949009D01*
X134931171Y-62009233D01*
X134998141Y-62029150D01*
X135140485Y-62050121D01*
X137737088Y-62059136D01*
X137804059Y-62079053D01*
X137849631Y-62132015D01*
X137860646Y-62184833D01*
X137841408Y-63589249D01*
X137835908Y-63624110D01*
X137831298Y-63639051D01*
X137792725Y-63697306D01*
X137790835Y-63698899D01*
X137736831Y-63725348D01*
X137730382Y-63726726D01*
X137705266Y-63729460D01*
X133877570Y-63753996D01*
X133877104Y-63753997D01*
X133877099Y-63753999D01*
X132019027Y-65091811D01*
X131987745Y-65108146D01*
X131958146Y-65118565D01*
X131916974Y-65125600D01*
X128735003Y-65125600D01*
X128700062Y-65120575D01*
X128685063Y-65116170D01*
X128626303Y-65078411D01*
X128624989Y-65076895D01*
X128597604Y-65022403D01*
X128596009Y-65015176D01*
X128593097Y-64989186D01*
X128592387Y-64868428D01*
X128580867Y-62910190D01*
X128582391Y-62890074D01*
X128585514Y-62870351D01*
X128590277Y-62850759D01*
X128640899Y-62697997D01*
X128651400Y-62595209D01*
X128651399Y-61795192D01*
X128640899Y-61692403D01*
X128585714Y-61525866D01*
X128585711Y-61525862D01*
X128584905Y-61523429D01*
X128581636Y-61511642D01*
X128575335Y-61483612D01*
X128572320Y-61457155D01*
X128569338Y-60950149D01*
X128574154Y-60915200D01*
X128578472Y-60900166D01*
X128615894Y-60841174D01*
X128617128Y-60840092D01*
X128672161Y-60812248D01*
X128680054Y-60810507D01*
X128706745Y-60807600D01*
X131374262Y-60807600D01*
X131399821Y-60810263D01*
G37*
%TD.AperFunction*%
%TD*%
%TA.AperFunction,Conductor*%
%TO.N,+3.3V*%
G36*
X130970888Y-69470703D02*
G01*
X130990975Y-69474069D01*
X131010893Y-69479134D01*
X134638314Y-70729970D01*
X134684101Y-70745829D01*
X134696248Y-70754483D01*
X134710556Y-70758685D01*
X134723787Y-70768487D01*
X134760370Y-70799557D01*
X134780331Y-70816510D01*
X134911794Y-70874982D01*
X134979025Y-70894002D01*
X134979026Y-70894002D01*
X134979053Y-70894005D01*
X134986625Y-70895056D01*
X134987201Y-70895095D01*
X134995147Y-70896157D01*
X135121638Y-70913067D01*
X137561875Y-70888905D01*
X137629103Y-70907925D01*
X137675379Y-70960273D01*
X137687100Y-71012899D01*
X137687100Y-72487460D01*
X137667415Y-72554499D01*
X137614611Y-72600254D01*
X137563495Y-72611459D01*
X134587036Y-72620939D01*
X134586986Y-72620941D01*
X134533798Y-72623919D01*
X134533786Y-72623920D01*
X134507863Y-72626749D01*
X134507847Y-72626751D01*
X134507840Y-72626752D01*
X134507832Y-72626753D01*
X134477514Y-72631690D01*
X134455209Y-72635323D01*
X134320403Y-72685604D01*
X134320402Y-72685604D01*
X134259081Y-72719088D01*
X134259070Y-72719096D01*
X134143914Y-72805302D01*
X134143893Y-72805320D01*
X134114777Y-72834436D01*
X134078589Y-72874726D01*
X134078574Y-72874743D01*
X134061959Y-72895366D01*
X134061954Y-72895372D01*
X134030332Y-72939226D01*
X133985288Y-73037857D01*
X133939532Y-73090660D01*
X133923379Y-73099422D01*
X132261750Y-73847156D01*
X132237317Y-73855224D01*
X132212581Y-73860625D01*
X132187008Y-73863476D01*
X128787407Y-73887587D01*
X128752435Y-73882811D01*
X128737405Y-73878513D01*
X128678362Y-73841155D01*
X128678335Y-73841125D01*
X128677295Y-73839941D01*
X128649386Y-73784894D01*
X128647628Y-73776948D01*
X128644700Y-73750162D01*
X128644700Y-69610829D01*
X128649723Y-69575893D01*
X128654127Y-69560895D01*
X128691872Y-69502144D01*
X128693241Y-69500957D01*
X128748120Y-69473477D01*
X128755679Y-69471833D01*
X128782032Y-69469000D01*
X130950407Y-69469000D01*
X130970888Y-69470703D01*
G37*
%TD.AperFunction*%
%TD*%
%TA.AperFunction,Conductor*%
%TO.N,+5V*%
G36*
X142633597Y-68498271D02*
G01*
X142679525Y-68550925D01*
X142690900Y-68602806D01*
X142690900Y-70209821D01*
X142671215Y-70276860D01*
X142618411Y-70322615D01*
X142568128Y-70333815D01*
X135116633Y-70407592D01*
X135049402Y-70388572D01*
X135003126Y-70336224D01*
X134991449Y-70286904D01*
X134947283Y-68630685D01*
X134965174Y-68563147D01*
X135016739Y-68516001D01*
X135070828Y-68503383D01*
X138131690Y-68493348D01*
X138171090Y-68499639D01*
X138227703Y-68518399D01*
X138330491Y-68528900D01*
X139380508Y-68528899D01*
X139380516Y-68528898D01*
X139380519Y-68528898D01*
X139404396Y-68526458D01*
X139483297Y-68518399D01*
X139554365Y-68494849D01*
X139592956Y-68488557D01*
X140446042Y-68485760D01*
X140485449Y-68492053D01*
X140488303Y-68492999D01*
X140591091Y-68503500D01*
X141641108Y-68503499D01*
X141641116Y-68503498D01*
X141641119Y-68503498D01*
X141678885Y-68499640D01*
X141743897Y-68492999D01*
X141760136Y-68487618D01*
X141798731Y-68481325D01*
X142566496Y-68478807D01*
X142633597Y-68498271D01*
G37*
%TD.AperFunction*%
%TD*%
%TA.AperFunction,Conductor*%
%TO.N,GND*%
G36*
X140286649Y-64157705D02*
G01*
X140319135Y-64166747D01*
X140350981Y-64180667D01*
X140423359Y-64225310D01*
X140423360Y-64225310D01*
X140423366Y-64225314D01*
X140589903Y-64280499D01*
X140692691Y-64291000D01*
X141742708Y-64290999D01*
X141742716Y-64290998D01*
X141742719Y-64290998D01*
X141742727Y-64290997D01*
X141743017Y-64290979D01*
X141744033Y-64290863D01*
X141789159Y-64286253D01*
X141799003Y-64285248D01*
X141799003Y-64285247D01*
X141845497Y-64280499D01*
X142012034Y-64225314D01*
X142018656Y-64221228D01*
X142051033Y-64207160D01*
X142064416Y-64203498D01*
X142134274Y-64204791D01*
X142192318Y-64243618D01*
X142192954Y-64244379D01*
X142219057Y-64298032D01*
X142220333Y-64304024D01*
X142223046Y-64328640D01*
X142257423Y-67849513D01*
X142238394Y-67916742D01*
X142186039Y-67963010D01*
X142133836Y-67974723D01*
X141797088Y-67975827D01*
X141797062Y-67975828D01*
X141717386Y-67982413D01*
X141717383Y-67982413D01*
X141678782Y-67988707D01*
X141678771Y-67988710D01*
X141667543Y-67991466D01*
X141650595Y-67994397D01*
X141621644Y-67997356D01*
X141609036Y-67997999D01*
X140623166Y-67997999D01*
X140610565Y-67997357D01*
X140596654Y-67995936D01*
X140565901Y-67992794D01*
X140558953Y-67991885D01*
X140525764Y-67986585D01*
X140525753Y-67986584D01*
X140444404Y-67980263D01*
X140444366Y-67980262D01*
X139591315Y-67983059D01*
X139591301Y-67983059D01*
X139591299Y-67983060D01*
X139591287Y-67983061D01*
X139511619Y-67989644D01*
X139511609Y-67989645D01*
X139473024Y-67995936D01*
X139473011Y-67995939D01*
X139395365Y-68015006D01*
X139389723Y-68016875D01*
X139363396Y-68022514D01*
X139361076Y-68022752D01*
X139348422Y-68023399D01*
X138362564Y-68023399D01*
X138349964Y-68022757D01*
X138345147Y-68022265D01*
X138328374Y-68019378D01*
X138250790Y-68000461D01*
X138250782Y-68000459D01*
X138211393Y-67994170D01*
X138130034Y-67987851D01*
X138130013Y-67987850D01*
X135069174Y-67997885D01*
X135069164Y-67997886D01*
X134955996Y-68011099D01*
X134955987Y-68011101D01*
X134907064Y-68022514D01*
X134901894Y-68023720D01*
X134862206Y-68037854D01*
X134821003Y-68045039D01*
X134475704Y-68046145D01*
X134440756Y-68041235D01*
X134425742Y-68036879D01*
X134366850Y-67999303D01*
X134365586Y-67997854D01*
X134337995Y-67943298D01*
X134336356Y-67935939D01*
X134333393Y-67909803D01*
X134333304Y-67896390D01*
X134310022Y-64380759D01*
X134329262Y-64313593D01*
X134381762Y-64267489D01*
X134433220Y-64255943D01*
X137708506Y-64234950D01*
X137759969Y-64231991D01*
X137785085Y-64229257D01*
X137836011Y-64221067D01*
X137842460Y-64219689D01*
X137846059Y-64218443D01*
X137915849Y-64215130D01*
X137951691Y-64230089D01*
X138061166Y-64297614D01*
X138227703Y-64352799D01*
X138330491Y-64363300D01*
X139380508Y-64363299D01*
X139380516Y-64363298D01*
X139380519Y-64363298D01*
X139380527Y-64363297D01*
X139380817Y-64363279D01*
X139381833Y-64363163D01*
X139426959Y-64358553D01*
X139436803Y-64357548D01*
X139436803Y-64357547D01*
X139483297Y-64352799D01*
X139649834Y-64297614D01*
X139799156Y-64205512D01*
X139799161Y-64205506D01*
X139804819Y-64201034D01*
X139804942Y-64201189D01*
X139827369Y-64184399D01*
X139834203Y-64180667D01*
X139850643Y-64171688D01*
X139908862Y-64156523D01*
X140252193Y-64153171D01*
X140286649Y-64157705D01*
G37*
%TD.AperFunction*%
%TD*%
M02*
