%TF.GenerationSoftware,KiCad,Pcbnew,10.0.0*%
%TF.CreationDate,2026-04-24T03:39:19-06:00*%
%TF.ProjectId,2026_12_2Wheel_Balance_Robot_v1,32303236-5f31-4325-9f32-576865656c5f,rev?*%
%TF.SameCoordinates,Original*%
%TF.FileFunction,Soldermask,Bot*%
%TF.FilePolarity,Negative*%
%FSLAX46Y46*%
G04 Gerber Fmt 4.6, Leading zero omitted, Abs format (unit mm)*
G04 Created by KiCad (PCBNEW 10.0.0) date 2026-04-24 03:39:19*
%MOMM*%
%LPD*%
G01*
G04 APERTURE LIST*
G04 Aperture macros list*
%AMRoundRect*
0 Rectangle with rounded corners*
0 $1 Rounding radius*
0 $2 $3 $4 $5 $6 $7 $8 $9 X,Y pos of 4 corners*
0 Add a 4 corners polygon primitive as box body*
4,1,4,$2,$3,$4,$5,$6,$7,$8,$9,$2,$3,0*
0 Add four circle primitives for the rounded corners*
1,1,$1+$1,$2,$3*
1,1,$1+$1,$4,$5*
1,1,$1+$1,$6,$7*
1,1,$1+$1,$8,$9*
0 Add four rect primitives between the rounded corners*
20,1,$1+$1,$2,$3,$4,$5,0*
20,1,$1+$1,$4,$5,$6,$7,0*
20,1,$1+$1,$6,$7,$8,$9,0*
20,1,$1+$1,$8,$9,$2,$3,0*%
G04 Aperture macros list end*
%ADD10C,0.900000*%
%ADD11R,1.700000X1.700000*%
%ADD12C,1.700000*%
%ADD13RoundRect,0.250000X-0.600000X-0.750000X0.600000X-0.750000X0.600000X0.750000X-0.600000X0.750000X0*%
%ADD14O,1.700000X2.000000*%
%ADD15RoundRect,0.250000X0.600000X0.750000X-0.600000X0.750000X-0.600000X-0.750000X0.600000X-0.750000X0*%
%ADD16RoundRect,0.250000X-0.600000X-0.725000X0.600000X-0.725000X0.600000X0.725000X-0.600000X0.725000X0*%
%ADD17O,1.700000X1.950000*%
%ADD18C,0.650000*%
%ADD19O,2.100000X1.000000*%
%ADD20O,1.600000X1.000000*%
%ADD21RoundRect,0.250000X0.600000X0.725000X-0.600000X0.725000X-0.600000X-0.725000X0.600000X-0.725000X0*%
G04 APERTURE END LIST*
D10*
%TO.C,S4*%
X123905500Y-106469000D03*
X126905500Y-106469000D03*
%TD*%
D11*
%TO.C,J4*%
X105403700Y-76835000D03*
D12*
X107943700Y-76835000D03*
X105403700Y-74295000D03*
X107943700Y-74295000D03*
X105403700Y-71755000D03*
X107943700Y-71755000D03*
X105403700Y-69215000D03*
X107943700Y-69215000D03*
%TD*%
D13*
%TO.C,J7*%
X158794500Y-60731400D03*
D14*
X161294500Y-60731400D03*
%TD*%
D11*
%TO.C,J1*%
X103397100Y-106400600D03*
D12*
X103397100Y-103860600D03*
X103397100Y-101320600D03*
X103397100Y-98780600D03*
%TD*%
D10*
%TO.C,S3*%
X147886034Y-69460209D03*
X150886034Y-69460209D03*
%TD*%
D15*
%TO.C,J5*%
X150499500Y-61442600D03*
D14*
X147999500Y-61442600D03*
%TD*%
D13*
%TO.C,J6*%
X158916100Y-104961200D03*
D14*
X161416100Y-104961200D03*
%TD*%
D16*
%TO.C,J9*%
X113337043Y-65425082D03*
D17*
X115837043Y-65425082D03*
X118337043Y-65425082D03*
X120837043Y-65425082D03*
X123337043Y-65425082D03*
%TD*%
D18*
%TO.C,J3*%
X106375900Y-87094400D03*
X106375900Y-92874400D03*
D19*
X106875900Y-85664400D03*
D20*
X102695900Y-85664400D03*
D19*
X106875900Y-94304400D03*
D20*
X102695900Y-94304400D03*
%TD*%
D11*
%TO.C,J2*%
X134512100Y-107365800D03*
D12*
X137052100Y-107365800D03*
X139592100Y-107365800D03*
X142132100Y-107365800D03*
X144672100Y-107365800D03*
X147212100Y-107365800D03*
X149752100Y-107365800D03*
X152292100Y-107365800D03*
%TD*%
D21*
%TO.C,J8*%
X116753700Y-102412800D03*
D17*
X114253700Y-102412800D03*
X111753700Y-102412800D03*
X109253700Y-102412800D03*
%TD*%
M02*
