%TF.GenerationSoftware,KiCad,Pcbnew,8.0.5*%
%TF.CreationDate,2024-11-10T02:12:05-07:00*%
%TF.ProjectId,2024_11_ADC_ADS8689,32303234-5f31-4315-9f41-44435f414453,rev?*%
%TF.SameCoordinates,Original*%
%TF.FileFunction,Legend,Top*%
%TF.FilePolarity,Positive*%
%FSLAX46Y46*%
G04 Gerber Fmt 4.6, Leading zero omitted, Abs format (unit mm)*
G04 Created by KiCad (PCBNEW 8.0.5) date 2024-11-10 02:12:05*
%MOMM*%
%LPD*%
G01*
G04 APERTURE LIST*
%ADD10C,0.100000*%
%ADD11C,0.200000*%
%ADD12C,0.150000*%
%ADD13C,0.120000*%
%ADD14C,0.127000*%
%ADD15C,0.000000*%
G04 APERTURE END LIST*
D10*
X84125312Y-53309990D02*
X84049122Y-53271895D01*
X84049122Y-53271895D02*
X83934836Y-53271895D01*
X83934836Y-53271895D02*
X83820550Y-53309990D01*
X83820550Y-53309990D02*
X83744360Y-53386180D01*
X83744360Y-53386180D02*
X83706265Y-53462371D01*
X83706265Y-53462371D02*
X83668169Y-53614752D01*
X83668169Y-53614752D02*
X83668169Y-53729038D01*
X83668169Y-53729038D02*
X83706265Y-53881419D01*
X83706265Y-53881419D02*
X83744360Y-53957609D01*
X83744360Y-53957609D02*
X83820550Y-54033800D01*
X83820550Y-54033800D02*
X83934836Y-54071895D01*
X83934836Y-54071895D02*
X84011027Y-54071895D01*
X84011027Y-54071895D02*
X84125312Y-54033800D01*
X84125312Y-54033800D02*
X84163408Y-53995704D01*
X84163408Y-53995704D02*
X84163408Y-53729038D01*
X84163408Y-53729038D02*
X84011027Y-53729038D01*
X84506265Y-54071895D02*
X84506265Y-53271895D01*
X84506265Y-53271895D02*
X84963408Y-54071895D01*
X84963408Y-54071895D02*
X84963408Y-53271895D01*
X85344360Y-54071895D02*
X85344360Y-53271895D01*
X85344360Y-53271895D02*
X85534836Y-53271895D01*
X85534836Y-53271895D02*
X85649122Y-53309990D01*
X85649122Y-53309990D02*
X85725312Y-53386180D01*
X85725312Y-53386180D02*
X85763407Y-53462371D01*
X85763407Y-53462371D02*
X85801503Y-53614752D01*
X85801503Y-53614752D02*
X85801503Y-53729038D01*
X85801503Y-53729038D02*
X85763407Y-53881419D01*
X85763407Y-53881419D02*
X85725312Y-53957609D01*
X85725312Y-53957609D02*
X85649122Y-54033800D01*
X85649122Y-54033800D02*
X85534836Y-54071895D01*
X85534836Y-54071895D02*
X85344360Y-54071895D01*
X84175312Y-58509990D02*
X84099122Y-58471895D01*
X84099122Y-58471895D02*
X83984836Y-58471895D01*
X83984836Y-58471895D02*
X83870550Y-58509990D01*
X83870550Y-58509990D02*
X83794360Y-58586180D01*
X83794360Y-58586180D02*
X83756265Y-58662371D01*
X83756265Y-58662371D02*
X83718169Y-58814752D01*
X83718169Y-58814752D02*
X83718169Y-58929038D01*
X83718169Y-58929038D02*
X83756265Y-59081419D01*
X83756265Y-59081419D02*
X83794360Y-59157609D01*
X83794360Y-59157609D02*
X83870550Y-59233800D01*
X83870550Y-59233800D02*
X83984836Y-59271895D01*
X83984836Y-59271895D02*
X84061027Y-59271895D01*
X84061027Y-59271895D02*
X84175312Y-59233800D01*
X84175312Y-59233800D02*
X84213408Y-59195704D01*
X84213408Y-59195704D02*
X84213408Y-58929038D01*
X84213408Y-58929038D02*
X84061027Y-58929038D01*
X84556265Y-59271895D02*
X84556265Y-58471895D01*
X84556265Y-58471895D02*
X85013408Y-59271895D01*
X85013408Y-59271895D02*
X85013408Y-58471895D01*
X85394360Y-59271895D02*
X85394360Y-58471895D01*
X85394360Y-58471895D02*
X85584836Y-58471895D01*
X85584836Y-58471895D02*
X85699122Y-58509990D01*
X85699122Y-58509990D02*
X85775312Y-58586180D01*
X85775312Y-58586180D02*
X85813407Y-58662371D01*
X85813407Y-58662371D02*
X85851503Y-58814752D01*
X85851503Y-58814752D02*
X85851503Y-58929038D01*
X85851503Y-58929038D02*
X85813407Y-59081419D01*
X85813407Y-59081419D02*
X85775312Y-59157609D01*
X85775312Y-59157609D02*
X85699122Y-59233800D01*
X85699122Y-59233800D02*
X85584836Y-59271895D01*
X85584836Y-59271895D02*
X85394360Y-59271895D01*
D11*
G36*
X93477303Y-51498824D02*
G01*
X93501972Y-51523492D01*
X93537425Y-51594399D01*
X93579396Y-51762280D01*
X93579396Y-51975756D01*
X93537425Y-52143637D01*
X93501972Y-52214543D01*
X93477303Y-52239213D01*
X93417694Y-52269019D01*
X93369670Y-52269019D01*
X93310060Y-52239214D01*
X93285393Y-52214546D01*
X93249938Y-52143637D01*
X93207968Y-51975756D01*
X93207968Y-51762281D01*
X93249938Y-51594399D01*
X93285392Y-51523492D01*
X93310060Y-51498823D01*
X93369670Y-51469019D01*
X93417694Y-51469019D01*
X93477303Y-51498824D01*
G37*
G36*
X93890507Y-52580130D02*
G01*
X90516690Y-52580130D01*
X90516690Y-51381526D01*
X90627801Y-51381526D01*
X90632148Y-51400642D01*
X90965481Y-52400641D01*
X90973472Y-52418542D01*
X90978155Y-52423941D01*
X90981350Y-52430331D01*
X90990821Y-52438546D01*
X90999037Y-52448018D01*
X91005425Y-52451212D01*
X91010826Y-52455896D01*
X91022727Y-52459863D01*
X91033936Y-52465467D01*
X91041060Y-52465973D01*
X91047842Y-52468234D01*
X91060351Y-52467344D01*
X91072856Y-52468234D01*
X91079634Y-52465974D01*
X91086762Y-52465468D01*
X91097978Y-52459859D01*
X91109872Y-52455895D01*
X91115269Y-52451214D01*
X91121661Y-52448018D01*
X91129879Y-52438542D01*
X91139348Y-52430330D01*
X91142541Y-52423943D01*
X91147226Y-52418542D01*
X91155217Y-52400642D01*
X91408022Y-51642226D01*
X91580182Y-51642226D01*
X91582948Y-51681146D01*
X91600397Y-51716045D01*
X91629874Y-51741609D01*
X91666890Y-51753948D01*
X91705810Y-51751182D01*
X91724118Y-51744176D01*
X91819356Y-51696557D01*
X91827752Y-51691271D01*
X91830192Y-51690261D01*
X91832938Y-51688007D01*
X91835946Y-51686114D01*
X91837675Y-51684119D01*
X91845346Y-51677825D01*
X91865111Y-51658060D01*
X91865111Y-52269019D01*
X91679397Y-52269019D01*
X91659888Y-52270940D01*
X91623840Y-52285872D01*
X91596250Y-52313462D01*
X91581318Y-52349510D01*
X91581318Y-52388528D01*
X91596250Y-52424576D01*
X91623840Y-52452166D01*
X91659888Y-52467098D01*
X91679397Y-52469019D01*
X92250825Y-52469019D01*
X92270334Y-52467098D01*
X92306382Y-52452166D01*
X92333972Y-52424576D01*
X92348904Y-52388528D01*
X92348904Y-52349510D01*
X92333972Y-52313462D01*
X92322401Y-52301891D01*
X92533699Y-52301891D01*
X92533699Y-52340909D01*
X92540162Y-52356511D01*
X92548631Y-52376958D01*
X92548635Y-52376962D01*
X92561067Y-52392111D01*
X92608686Y-52439729D01*
X92623839Y-52452166D01*
X92632842Y-52455895D01*
X92659888Y-52467098D01*
X92698906Y-52467098D01*
X92734954Y-52452166D01*
X92750108Y-52439730D01*
X92797726Y-52392111D01*
X92810163Y-52376958D01*
X92816915Y-52360656D01*
X92825094Y-52340910D01*
X92825095Y-52301892D01*
X92810164Y-52265843D01*
X92797727Y-52250690D01*
X92750108Y-52203070D01*
X92734955Y-52190633D01*
X92720023Y-52184448D01*
X92698906Y-52175701D01*
X92659888Y-52175701D01*
X92649330Y-52180074D01*
X92623840Y-52190632D01*
X92623839Y-52190633D01*
X92608685Y-52203070D01*
X92561067Y-52250690D01*
X92548630Y-52265843D01*
X92538617Y-52290019D01*
X92533699Y-52301891D01*
X92322401Y-52301891D01*
X92306382Y-52285872D01*
X92270334Y-52270940D01*
X92250825Y-52269019D01*
X92065111Y-52269019D01*
X92065111Y-51749971D01*
X93007968Y-51749971D01*
X93007968Y-51988066D01*
X93008303Y-51991468D01*
X93008086Y-51992927D01*
X93009165Y-52000224D01*
X93009889Y-52007575D01*
X93010453Y-52008938D01*
X93010954Y-52012320D01*
X93058573Y-52202795D01*
X93059086Y-52204232D01*
X93059138Y-52204955D01*
X93062246Y-52213079D01*
X93065168Y-52221256D01*
X93065598Y-52221836D01*
X93066144Y-52223263D01*
X93113763Y-52318501D01*
X93119046Y-52326893D01*
X93120058Y-52329337D01*
X93122314Y-52332086D01*
X93124206Y-52335091D01*
X93126200Y-52336820D01*
X93132495Y-52344490D01*
X93180113Y-52392110D01*
X93187781Y-52398403D01*
X93189513Y-52400400D01*
X93192521Y-52402293D01*
X93195267Y-52404547D01*
X93197707Y-52405557D01*
X93206104Y-52410843D01*
X93301341Y-52458462D01*
X93319650Y-52465468D01*
X93323233Y-52465722D01*
X93326554Y-52467098D01*
X93346063Y-52469019D01*
X93441301Y-52469019D01*
X93460810Y-52467098D01*
X93464130Y-52465722D01*
X93467714Y-52465468D01*
X93486022Y-52458462D01*
X93581260Y-52410843D01*
X93589655Y-52405558D01*
X93592097Y-52404547D01*
X93594844Y-52402291D01*
X93597850Y-52400400D01*
X93599580Y-52398405D01*
X93607250Y-52392110D01*
X93654869Y-52344490D01*
X93661161Y-52336823D01*
X93663158Y-52335092D01*
X93665051Y-52332084D01*
X93667306Y-52329337D01*
X93668317Y-52326895D01*
X93673601Y-52318501D01*
X93721220Y-52223264D01*
X93721766Y-52221835D01*
X93722196Y-52221256D01*
X93725117Y-52213079D01*
X93728226Y-52204955D01*
X93728277Y-52204234D01*
X93728791Y-52202796D01*
X93776410Y-52012320D01*
X93776910Y-52008938D01*
X93777475Y-52007575D01*
X93778198Y-52000224D01*
X93779278Y-51992927D01*
X93779060Y-51991468D01*
X93779396Y-51988066D01*
X93779396Y-51749971D01*
X93779060Y-51746568D01*
X93779278Y-51745110D01*
X93778198Y-51737812D01*
X93777475Y-51730462D01*
X93776910Y-51729098D01*
X93776410Y-51725717D01*
X93728791Y-51535241D01*
X93728277Y-51533802D01*
X93728226Y-51533082D01*
X93725117Y-51524957D01*
X93722196Y-51516781D01*
X93721766Y-51516201D01*
X93721220Y-51514773D01*
X93673601Y-51419536D01*
X93668315Y-51411139D01*
X93667305Y-51408699D01*
X93665051Y-51405953D01*
X93663158Y-51402945D01*
X93661160Y-51401212D01*
X93654868Y-51393546D01*
X93607250Y-51345927D01*
X93599579Y-51339632D01*
X93597850Y-51337638D01*
X93594842Y-51335744D01*
X93592096Y-51333491D01*
X93589656Y-51332480D01*
X93581260Y-51327195D01*
X93486022Y-51279576D01*
X93467714Y-51272570D01*
X93464130Y-51272315D01*
X93460810Y-51270940D01*
X93441301Y-51269019D01*
X93346063Y-51269019D01*
X93326554Y-51270940D01*
X93323233Y-51272315D01*
X93319650Y-51272570D01*
X93301341Y-51279576D01*
X93206104Y-51327195D01*
X93197707Y-51332480D01*
X93195267Y-51333491D01*
X93192521Y-51335744D01*
X93189513Y-51337638D01*
X93187780Y-51339635D01*
X93180114Y-51345928D01*
X93132495Y-51393546D01*
X93126200Y-51401216D01*
X93124206Y-51402946D01*
X93122312Y-51405953D01*
X93120059Y-51408700D01*
X93119048Y-51411139D01*
X93113763Y-51419536D01*
X93066144Y-51514774D01*
X93065598Y-51516200D01*
X93065168Y-51516781D01*
X93062246Y-51524957D01*
X93059138Y-51533082D01*
X93059086Y-51533804D01*
X93058573Y-51535242D01*
X93010954Y-51725717D01*
X93010453Y-51729098D01*
X93009889Y-51730462D01*
X93009165Y-51737812D01*
X93008086Y-51745110D01*
X93008303Y-51746568D01*
X93007968Y-51749971D01*
X92065111Y-51749971D01*
X92065111Y-51369019D01*
X92065104Y-51368948D01*
X92065111Y-51368914D01*
X92065090Y-51368812D01*
X92063190Y-51349510D01*
X92059400Y-51340361D01*
X92057459Y-51330654D01*
X92052007Y-51322513D01*
X92048258Y-51313462D01*
X92041258Y-51306462D01*
X92035748Y-51298234D01*
X92027593Y-51292797D01*
X92020668Y-51285872D01*
X92011524Y-51282084D01*
X92003283Y-51276590D01*
X91993669Y-51274688D01*
X91984620Y-51270940D01*
X91974719Y-51270940D01*
X91965007Y-51269019D01*
X91955402Y-51270940D01*
X91945602Y-51270940D01*
X91936453Y-51274729D01*
X91926746Y-51276671D01*
X91918605Y-51282122D01*
X91909554Y-51285872D01*
X91902554Y-51292871D01*
X91894326Y-51298382D01*
X91882037Y-51313388D01*
X91881964Y-51313462D01*
X91881950Y-51313494D01*
X91881906Y-51313549D01*
X91792162Y-51448165D01*
X91715398Y-51524928D01*
X91634676Y-51565290D01*
X91618085Y-51575733D01*
X91592521Y-51605210D01*
X91580182Y-51642226D01*
X91408022Y-51642226D01*
X91488550Y-51400642D01*
X91492897Y-51381527D01*
X91490131Y-51342607D01*
X91472681Y-51307708D01*
X91443205Y-51282143D01*
X91406189Y-51269804D01*
X91367269Y-51272571D01*
X91332370Y-51290020D01*
X91306805Y-51319496D01*
X91298814Y-51337397D01*
X91060349Y-52052791D01*
X90821884Y-51337396D01*
X90813893Y-51319496D01*
X90788328Y-51290020D01*
X90753429Y-51272570D01*
X90714509Y-51269804D01*
X90677493Y-51282142D01*
X90648017Y-51307707D01*
X90630567Y-51342606D01*
X90627801Y-51381526D01*
X90516690Y-51381526D01*
X90516690Y-51157908D01*
X93890507Y-51157908D01*
X93890507Y-52580130D01*
G37*
D10*
X84212217Y-55996895D02*
X83831265Y-55996895D01*
X83831265Y-55996895D02*
X83793169Y-56377847D01*
X83793169Y-56377847D02*
X83831265Y-56339752D01*
X83831265Y-56339752D02*
X83907455Y-56301657D01*
X83907455Y-56301657D02*
X84097931Y-56301657D01*
X84097931Y-56301657D02*
X84174122Y-56339752D01*
X84174122Y-56339752D02*
X84212217Y-56377847D01*
X84212217Y-56377847D02*
X84250312Y-56454038D01*
X84250312Y-56454038D02*
X84250312Y-56644514D01*
X84250312Y-56644514D02*
X84212217Y-56720704D01*
X84212217Y-56720704D02*
X84174122Y-56758800D01*
X84174122Y-56758800D02*
X84097931Y-56796895D01*
X84097931Y-56796895D02*
X83907455Y-56796895D01*
X83907455Y-56796895D02*
X83831265Y-56758800D01*
X83831265Y-56758800D02*
X83793169Y-56720704D01*
X84478884Y-55996895D02*
X84745551Y-56796895D01*
X84745551Y-56796895D02*
X85012217Y-55996895D01*
X98118169Y-69408800D02*
X98232455Y-69446895D01*
X98232455Y-69446895D02*
X98422931Y-69446895D01*
X98422931Y-69446895D02*
X98499122Y-69408800D01*
X98499122Y-69408800D02*
X98537217Y-69370704D01*
X98537217Y-69370704D02*
X98575312Y-69294514D01*
X98575312Y-69294514D02*
X98575312Y-69218323D01*
X98575312Y-69218323D02*
X98537217Y-69142133D01*
X98537217Y-69142133D02*
X98499122Y-69104038D01*
X98499122Y-69104038D02*
X98422931Y-69065942D01*
X98422931Y-69065942D02*
X98270550Y-69027847D01*
X98270550Y-69027847D02*
X98194360Y-68989752D01*
X98194360Y-68989752D02*
X98156265Y-68951657D01*
X98156265Y-68951657D02*
X98118169Y-68875466D01*
X98118169Y-68875466D02*
X98118169Y-68799276D01*
X98118169Y-68799276D02*
X98156265Y-68723085D01*
X98156265Y-68723085D02*
X98194360Y-68684990D01*
X98194360Y-68684990D02*
X98270550Y-68646895D01*
X98270550Y-68646895D02*
X98461027Y-68646895D01*
X98461027Y-68646895D02*
X98575312Y-68684990D01*
X98918170Y-69446895D02*
X98918170Y-68646895D01*
X98918170Y-68646895D02*
X99108646Y-68646895D01*
X99108646Y-68646895D02*
X99222932Y-68684990D01*
X99222932Y-68684990D02*
X99299122Y-68761180D01*
X99299122Y-68761180D02*
X99337217Y-68837371D01*
X99337217Y-68837371D02*
X99375313Y-68989752D01*
X99375313Y-68989752D02*
X99375313Y-69104038D01*
X99375313Y-69104038D02*
X99337217Y-69256419D01*
X99337217Y-69256419D02*
X99299122Y-69332609D01*
X99299122Y-69332609D02*
X99222932Y-69408800D01*
X99222932Y-69408800D02*
X99108646Y-69446895D01*
X99108646Y-69446895D02*
X98918170Y-69446895D01*
X99718170Y-69446895D02*
X99718170Y-68646895D01*
X98452608Y-71956695D02*
X98185941Y-71575742D01*
X97995465Y-71956695D02*
X97995465Y-71156695D01*
X97995465Y-71156695D02*
X98300227Y-71156695D01*
X98300227Y-71156695D02*
X98376417Y-71194790D01*
X98376417Y-71194790D02*
X98414512Y-71232885D01*
X98414512Y-71232885D02*
X98452608Y-71309076D01*
X98452608Y-71309076D02*
X98452608Y-71423361D01*
X98452608Y-71423361D02*
X98414512Y-71499552D01*
X98414512Y-71499552D02*
X98376417Y-71537647D01*
X98376417Y-71537647D02*
X98300227Y-71575742D01*
X98300227Y-71575742D02*
X97995465Y-71575742D01*
X98757369Y-71918600D02*
X98871655Y-71956695D01*
X98871655Y-71956695D02*
X99062131Y-71956695D01*
X99062131Y-71956695D02*
X99138322Y-71918600D01*
X99138322Y-71918600D02*
X99176417Y-71880504D01*
X99176417Y-71880504D02*
X99214512Y-71804314D01*
X99214512Y-71804314D02*
X99214512Y-71728123D01*
X99214512Y-71728123D02*
X99176417Y-71651933D01*
X99176417Y-71651933D02*
X99138322Y-71613838D01*
X99138322Y-71613838D02*
X99062131Y-71575742D01*
X99062131Y-71575742D02*
X98909750Y-71537647D01*
X98909750Y-71537647D02*
X98833560Y-71499552D01*
X98833560Y-71499552D02*
X98795465Y-71461457D01*
X98795465Y-71461457D02*
X98757369Y-71385266D01*
X98757369Y-71385266D02*
X98757369Y-71309076D01*
X98757369Y-71309076D02*
X98795465Y-71232885D01*
X98795465Y-71232885D02*
X98833560Y-71194790D01*
X98833560Y-71194790D02*
X98909750Y-71156695D01*
X98909750Y-71156695D02*
X99100227Y-71156695D01*
X99100227Y-71156695D02*
X99214512Y-71194790D01*
X99443084Y-71156695D02*
X99900227Y-71156695D01*
X99671655Y-71956695D02*
X99671655Y-71156695D01*
X84125312Y-71109990D02*
X84049122Y-71071895D01*
X84049122Y-71071895D02*
X83934836Y-71071895D01*
X83934836Y-71071895D02*
X83820550Y-71109990D01*
X83820550Y-71109990D02*
X83744360Y-71186180D01*
X83744360Y-71186180D02*
X83706265Y-71262371D01*
X83706265Y-71262371D02*
X83668169Y-71414752D01*
X83668169Y-71414752D02*
X83668169Y-71529038D01*
X83668169Y-71529038D02*
X83706265Y-71681419D01*
X83706265Y-71681419D02*
X83744360Y-71757609D01*
X83744360Y-71757609D02*
X83820550Y-71833800D01*
X83820550Y-71833800D02*
X83934836Y-71871895D01*
X83934836Y-71871895D02*
X84011027Y-71871895D01*
X84011027Y-71871895D02*
X84125312Y-71833800D01*
X84125312Y-71833800D02*
X84163408Y-71795704D01*
X84163408Y-71795704D02*
X84163408Y-71529038D01*
X84163408Y-71529038D02*
X84011027Y-71529038D01*
X84506265Y-71871895D02*
X84506265Y-71071895D01*
X84506265Y-71071895D02*
X84963408Y-71871895D01*
X84963408Y-71871895D02*
X84963408Y-71071895D01*
X85344360Y-71871895D02*
X85344360Y-71071895D01*
X85344360Y-71071895D02*
X85534836Y-71071895D01*
X85534836Y-71071895D02*
X85649122Y-71109990D01*
X85649122Y-71109990D02*
X85725312Y-71186180D01*
X85725312Y-71186180D02*
X85763407Y-71262371D01*
X85763407Y-71262371D02*
X85801503Y-71414752D01*
X85801503Y-71414752D02*
X85801503Y-71529038D01*
X85801503Y-71529038D02*
X85763407Y-71681419D01*
X85763407Y-71681419D02*
X85725312Y-71757609D01*
X85725312Y-71757609D02*
X85649122Y-71833800D01*
X85649122Y-71833800D02*
X85534836Y-71871895D01*
X85534836Y-71871895D02*
X85344360Y-71871895D01*
X98538408Y-56721895D02*
X98271741Y-56340942D01*
X98081265Y-56721895D02*
X98081265Y-55921895D01*
X98081265Y-55921895D02*
X98386027Y-55921895D01*
X98386027Y-55921895D02*
X98462217Y-55959990D01*
X98462217Y-55959990D02*
X98500312Y-55998085D01*
X98500312Y-55998085D02*
X98538408Y-56074276D01*
X98538408Y-56074276D02*
X98538408Y-56188561D01*
X98538408Y-56188561D02*
X98500312Y-56264752D01*
X98500312Y-56264752D02*
X98462217Y-56302847D01*
X98462217Y-56302847D02*
X98386027Y-56340942D01*
X98386027Y-56340942D02*
X98081265Y-56340942D01*
X98766979Y-55921895D02*
X99033646Y-56721895D01*
X99033646Y-56721895D02*
X99300312Y-55921895D01*
X99528883Y-56683800D02*
X99643169Y-56721895D01*
X99643169Y-56721895D02*
X99833645Y-56721895D01*
X99833645Y-56721895D02*
X99909836Y-56683800D01*
X99909836Y-56683800D02*
X99947931Y-56645704D01*
X99947931Y-56645704D02*
X99986026Y-56569514D01*
X99986026Y-56569514D02*
X99986026Y-56493323D01*
X99986026Y-56493323D02*
X99947931Y-56417133D01*
X99947931Y-56417133D02*
X99909836Y-56379038D01*
X99909836Y-56379038D02*
X99833645Y-56340942D01*
X99833645Y-56340942D02*
X99681264Y-56302847D01*
X99681264Y-56302847D02*
X99605074Y-56264752D01*
X99605074Y-56264752D02*
X99566979Y-56226657D01*
X99566979Y-56226657D02*
X99528883Y-56150466D01*
X99528883Y-56150466D02*
X99528883Y-56074276D01*
X99528883Y-56074276D02*
X99566979Y-55998085D01*
X99566979Y-55998085D02*
X99605074Y-55959990D01*
X99605074Y-55959990D02*
X99681264Y-55921895D01*
X99681264Y-55921895D02*
X99871741Y-55921895D01*
X99871741Y-55921895D02*
X99986026Y-55959990D01*
X97243169Y-64308800D02*
X97357455Y-64346895D01*
X97357455Y-64346895D02*
X97547931Y-64346895D01*
X97547931Y-64346895D02*
X97624122Y-64308800D01*
X97624122Y-64308800D02*
X97662217Y-64270704D01*
X97662217Y-64270704D02*
X97700312Y-64194514D01*
X97700312Y-64194514D02*
X97700312Y-64118323D01*
X97700312Y-64118323D02*
X97662217Y-64042133D01*
X97662217Y-64042133D02*
X97624122Y-64004038D01*
X97624122Y-64004038D02*
X97547931Y-63965942D01*
X97547931Y-63965942D02*
X97395550Y-63927847D01*
X97395550Y-63927847D02*
X97319360Y-63889752D01*
X97319360Y-63889752D02*
X97281265Y-63851657D01*
X97281265Y-63851657D02*
X97243169Y-63775466D01*
X97243169Y-63775466D02*
X97243169Y-63699276D01*
X97243169Y-63699276D02*
X97281265Y-63623085D01*
X97281265Y-63623085D02*
X97319360Y-63584990D01*
X97319360Y-63584990D02*
X97395550Y-63546895D01*
X97395550Y-63546895D02*
X97586027Y-63546895D01*
X97586027Y-63546895D02*
X97700312Y-63584990D01*
X98500313Y-64270704D02*
X98462217Y-64308800D01*
X98462217Y-64308800D02*
X98347932Y-64346895D01*
X98347932Y-64346895D02*
X98271741Y-64346895D01*
X98271741Y-64346895D02*
X98157455Y-64308800D01*
X98157455Y-64308800D02*
X98081265Y-64232609D01*
X98081265Y-64232609D02*
X98043170Y-64156419D01*
X98043170Y-64156419D02*
X98005074Y-64004038D01*
X98005074Y-64004038D02*
X98005074Y-63889752D01*
X98005074Y-63889752D02*
X98043170Y-63737371D01*
X98043170Y-63737371D02*
X98081265Y-63661180D01*
X98081265Y-63661180D02*
X98157455Y-63584990D01*
X98157455Y-63584990D02*
X98271741Y-63546895D01*
X98271741Y-63546895D02*
X98347932Y-63546895D01*
X98347932Y-63546895D02*
X98462217Y-63584990D01*
X98462217Y-63584990D02*
X98500313Y-63623085D01*
X99224122Y-64346895D02*
X98843170Y-64346895D01*
X98843170Y-64346895D02*
X98843170Y-63546895D01*
X99490789Y-64346895D02*
X99490789Y-63546895D01*
X99947932Y-64346895D02*
X99605074Y-63889752D01*
X99947932Y-63546895D02*
X99490789Y-64004038D01*
X97918169Y-61708800D02*
X98032455Y-61746895D01*
X98032455Y-61746895D02*
X98222931Y-61746895D01*
X98222931Y-61746895D02*
X98299122Y-61708800D01*
X98299122Y-61708800D02*
X98337217Y-61670704D01*
X98337217Y-61670704D02*
X98375312Y-61594514D01*
X98375312Y-61594514D02*
X98375312Y-61518323D01*
X98375312Y-61518323D02*
X98337217Y-61442133D01*
X98337217Y-61442133D02*
X98299122Y-61404038D01*
X98299122Y-61404038D02*
X98222931Y-61365942D01*
X98222931Y-61365942D02*
X98070550Y-61327847D01*
X98070550Y-61327847D02*
X97994360Y-61289752D01*
X97994360Y-61289752D02*
X97956265Y-61251657D01*
X97956265Y-61251657D02*
X97918169Y-61175466D01*
X97918169Y-61175466D02*
X97918169Y-61099276D01*
X97918169Y-61099276D02*
X97956265Y-61023085D01*
X97956265Y-61023085D02*
X97994360Y-60984990D01*
X97994360Y-60984990D02*
X98070550Y-60946895D01*
X98070550Y-60946895D02*
X98261027Y-60946895D01*
X98261027Y-60946895D02*
X98375312Y-60984990D01*
X98718170Y-61746895D02*
X98718170Y-60946895D01*
X98718170Y-60946895D02*
X98908646Y-60946895D01*
X98908646Y-60946895D02*
X99022932Y-60984990D01*
X99022932Y-60984990D02*
X99099122Y-61061180D01*
X99099122Y-61061180D02*
X99137217Y-61137371D01*
X99137217Y-61137371D02*
X99175313Y-61289752D01*
X99175313Y-61289752D02*
X99175313Y-61404038D01*
X99175313Y-61404038D02*
X99137217Y-61556419D01*
X99137217Y-61556419D02*
X99099122Y-61632609D01*
X99099122Y-61632609D02*
X99022932Y-61708800D01*
X99022932Y-61708800D02*
X98908646Y-61746895D01*
X98908646Y-61746895D02*
X98718170Y-61746895D01*
X99670551Y-60946895D02*
X99822932Y-60946895D01*
X99822932Y-60946895D02*
X99899122Y-60984990D01*
X99899122Y-60984990D02*
X99975313Y-61061180D01*
X99975313Y-61061180D02*
X100013408Y-61213561D01*
X100013408Y-61213561D02*
X100013408Y-61480228D01*
X100013408Y-61480228D02*
X99975313Y-61632609D01*
X99975313Y-61632609D02*
X99899122Y-61708800D01*
X99899122Y-61708800D02*
X99822932Y-61746895D01*
X99822932Y-61746895D02*
X99670551Y-61746895D01*
X99670551Y-61746895D02*
X99594360Y-61708800D01*
X99594360Y-61708800D02*
X99518170Y-61632609D01*
X99518170Y-61632609D02*
X99480074Y-61480228D01*
X99480074Y-61480228D02*
X99480074Y-61213561D01*
X99480074Y-61213561D02*
X99518170Y-61061180D01*
X99518170Y-61061180D02*
X99594360Y-60984990D01*
X99594360Y-60984990D02*
X99670551Y-60946895D01*
X99013408Y-66770704D02*
X98975312Y-66808800D01*
X98975312Y-66808800D02*
X98861027Y-66846895D01*
X98861027Y-66846895D02*
X98784836Y-66846895D01*
X98784836Y-66846895D02*
X98670550Y-66808800D01*
X98670550Y-66808800D02*
X98594360Y-66732609D01*
X98594360Y-66732609D02*
X98556265Y-66656419D01*
X98556265Y-66656419D02*
X98518169Y-66504038D01*
X98518169Y-66504038D02*
X98518169Y-66389752D01*
X98518169Y-66389752D02*
X98556265Y-66237371D01*
X98556265Y-66237371D02*
X98594360Y-66161180D01*
X98594360Y-66161180D02*
X98670550Y-66084990D01*
X98670550Y-66084990D02*
X98784836Y-66046895D01*
X98784836Y-66046895D02*
X98861027Y-66046895D01*
X98861027Y-66046895D02*
X98975312Y-66084990D01*
X98975312Y-66084990D02*
X99013408Y-66123085D01*
X99318169Y-66808800D02*
X99432455Y-66846895D01*
X99432455Y-66846895D02*
X99622931Y-66846895D01*
X99622931Y-66846895D02*
X99699122Y-66808800D01*
X99699122Y-66808800D02*
X99737217Y-66770704D01*
X99737217Y-66770704D02*
X99775312Y-66694514D01*
X99775312Y-66694514D02*
X99775312Y-66618323D01*
X99775312Y-66618323D02*
X99737217Y-66542133D01*
X99737217Y-66542133D02*
X99699122Y-66504038D01*
X99699122Y-66504038D02*
X99622931Y-66465942D01*
X99622931Y-66465942D02*
X99470550Y-66427847D01*
X99470550Y-66427847D02*
X99394360Y-66389752D01*
X99394360Y-66389752D02*
X99356265Y-66351657D01*
X99356265Y-66351657D02*
X99318169Y-66275466D01*
X99318169Y-66275466D02*
X99318169Y-66199276D01*
X99318169Y-66199276D02*
X99356265Y-66123085D01*
X99356265Y-66123085D02*
X99394360Y-66084990D01*
X99394360Y-66084990D02*
X99470550Y-66046895D01*
X99470550Y-66046895D02*
X99661027Y-66046895D01*
X99661027Y-66046895D02*
X99775312Y-66084990D01*
X97980074Y-53371895D02*
X98475312Y-53371895D01*
X98475312Y-53371895D02*
X98208646Y-53676657D01*
X98208646Y-53676657D02*
X98322931Y-53676657D01*
X98322931Y-53676657D02*
X98399122Y-53714752D01*
X98399122Y-53714752D02*
X98437217Y-53752847D01*
X98437217Y-53752847D02*
X98475312Y-53829038D01*
X98475312Y-53829038D02*
X98475312Y-54019514D01*
X98475312Y-54019514D02*
X98437217Y-54095704D01*
X98437217Y-54095704D02*
X98399122Y-54133800D01*
X98399122Y-54133800D02*
X98322931Y-54171895D01*
X98322931Y-54171895D02*
X98094360Y-54171895D01*
X98094360Y-54171895D02*
X98018169Y-54133800D01*
X98018169Y-54133800D02*
X97980074Y-54095704D01*
X98703884Y-53371895D02*
X98970551Y-54171895D01*
X98970551Y-54171895D02*
X99237217Y-53371895D01*
X99427693Y-53371895D02*
X99922931Y-53371895D01*
X99922931Y-53371895D02*
X99656265Y-53676657D01*
X99656265Y-53676657D02*
X99770550Y-53676657D01*
X99770550Y-53676657D02*
X99846741Y-53714752D01*
X99846741Y-53714752D02*
X99884836Y-53752847D01*
X99884836Y-53752847D02*
X99922931Y-53829038D01*
X99922931Y-53829038D02*
X99922931Y-54019514D01*
X99922931Y-54019514D02*
X99884836Y-54095704D01*
X99884836Y-54095704D02*
X99846741Y-54133800D01*
X99846741Y-54133800D02*
X99770550Y-54171895D01*
X99770550Y-54171895D02*
X99541979Y-54171895D01*
X99541979Y-54171895D02*
X99465788Y-54133800D01*
X99465788Y-54133800D02*
X99427693Y-54095704D01*
X83843169Y-69068323D02*
X84224122Y-69068323D01*
X83766979Y-69296895D02*
X84033646Y-68496895D01*
X84033646Y-68496895D02*
X84300312Y-69296895D01*
X84566979Y-69296895D02*
X84566979Y-68496895D01*
X84947931Y-69296895D02*
X84947931Y-68496895D01*
X84947931Y-68496895D02*
X85405074Y-69296895D01*
X85405074Y-69296895D02*
X85405074Y-68496895D01*
X96518169Y-58993323D02*
X96899122Y-58993323D01*
X96441979Y-59221895D02*
X96708646Y-58421895D01*
X96708646Y-58421895D02*
X96975312Y-59221895D01*
X97622931Y-59221895D02*
X97241979Y-59221895D01*
X97241979Y-59221895D02*
X97241979Y-58421895D01*
X97851502Y-58993323D02*
X98232455Y-58993323D01*
X97775312Y-59221895D02*
X98041979Y-58421895D01*
X98041979Y-58421895D02*
X98308645Y-59221895D01*
X99032455Y-59221895D02*
X98765788Y-58840942D01*
X98575312Y-59221895D02*
X98575312Y-58421895D01*
X98575312Y-58421895D02*
X98880074Y-58421895D01*
X98880074Y-58421895D02*
X98956264Y-58459990D01*
X98956264Y-58459990D02*
X98994359Y-58498085D01*
X98994359Y-58498085D02*
X99032455Y-58574276D01*
X99032455Y-58574276D02*
X99032455Y-58688561D01*
X99032455Y-58688561D02*
X98994359Y-58764752D01*
X98994359Y-58764752D02*
X98956264Y-58802847D01*
X98956264Y-58802847D02*
X98880074Y-58840942D01*
X98880074Y-58840942D02*
X98575312Y-58840942D01*
X99375312Y-59221895D02*
X99375312Y-58421895D01*
X99375312Y-58421895D02*
X99641978Y-58993323D01*
X99641978Y-58993323D02*
X99908645Y-58421895D01*
X99908645Y-58421895D02*
X99908645Y-59221895D01*
D11*
G36*
X88523348Y-72484440D02*
G01*
X88590421Y-72551513D01*
X88625873Y-72622418D01*
X88667844Y-72790299D01*
X88667844Y-72908537D01*
X88625873Y-73076418D01*
X88590420Y-73147324D01*
X88523349Y-73214397D01*
X88418284Y-73249419D01*
X88296416Y-73249419D01*
X88296416Y-72449419D01*
X88418284Y-72449419D01*
X88523348Y-72484440D01*
G37*
G36*
X92142396Y-72484440D02*
G01*
X92209469Y-72551513D01*
X92244921Y-72622418D01*
X92286892Y-72790299D01*
X92286892Y-72908537D01*
X92244921Y-73076418D01*
X92209468Y-73147324D01*
X92142397Y-73214397D01*
X92037332Y-73249419D01*
X91915464Y-73249419D01*
X91915464Y-72449419D01*
X92037332Y-72449419D01*
X92142396Y-72484440D01*
G37*
G36*
X94137180Y-72907795D02*
G01*
X94161849Y-72932463D01*
X94191654Y-72992073D01*
X94191654Y-73135335D01*
X94161849Y-73194943D01*
X94137180Y-73219613D01*
X94077571Y-73249419D01*
X93934309Y-73249419D01*
X93874699Y-73219614D01*
X93850032Y-73194946D01*
X93820226Y-73135334D01*
X93820226Y-72992073D01*
X93850031Y-72932463D01*
X93874699Y-72907794D01*
X93934309Y-72877990D01*
X94077571Y-72877990D01*
X94137180Y-72907795D01*
G37*
G36*
X94137180Y-72479224D02*
G01*
X94161849Y-72503892D01*
X94191654Y-72563502D01*
X94191654Y-72563907D01*
X94161849Y-72623516D01*
X94137180Y-72648184D01*
X94077571Y-72677990D01*
X93934309Y-72677990D01*
X93874699Y-72648185D01*
X93850031Y-72623516D01*
X93820226Y-72563906D01*
X93820226Y-72563502D01*
X93850031Y-72503892D01*
X93874699Y-72479223D01*
X93934309Y-72449419D01*
X94077571Y-72449419D01*
X94137180Y-72479224D01*
G37*
G36*
X95089561Y-72860176D02*
G01*
X95114230Y-72884844D01*
X95144035Y-72944454D01*
X95144035Y-73135335D01*
X95114230Y-73194943D01*
X95089561Y-73219613D01*
X95029952Y-73249419D01*
X94886690Y-73249419D01*
X94827080Y-73219614D01*
X94802413Y-73194946D01*
X94772607Y-73135334D01*
X94772607Y-72944454D01*
X94802412Y-72884844D01*
X94827080Y-72860175D01*
X94886690Y-72830371D01*
X95029952Y-72830371D01*
X95089561Y-72860176D01*
G37*
G36*
X96041942Y-72907795D02*
G01*
X96066611Y-72932463D01*
X96096416Y-72992073D01*
X96096416Y-73135335D01*
X96066611Y-73194943D01*
X96041942Y-73219613D01*
X95982333Y-73249419D01*
X95839071Y-73249419D01*
X95779461Y-73219614D01*
X95754794Y-73194946D01*
X95724988Y-73135334D01*
X95724988Y-72992073D01*
X95754793Y-72932463D01*
X95779461Y-72907794D01*
X95839071Y-72877990D01*
X95982333Y-72877990D01*
X96041942Y-72907795D01*
G37*
G36*
X96041942Y-72479224D02*
G01*
X96066611Y-72503892D01*
X96096416Y-72563502D01*
X96096416Y-72563907D01*
X96066611Y-72623516D01*
X96041942Y-72648184D01*
X95982333Y-72677990D01*
X95839071Y-72677990D01*
X95779461Y-72648185D01*
X95754793Y-72623516D01*
X95724988Y-72563906D01*
X95724988Y-72563502D01*
X95754793Y-72503892D01*
X95779461Y-72479223D01*
X95839071Y-72449419D01*
X95982333Y-72449419D01*
X96041942Y-72479224D01*
G37*
G36*
X96994323Y-72479224D02*
G01*
X97018992Y-72503892D01*
X97048797Y-72563502D01*
X97048797Y-72754383D01*
X97018992Y-72813992D01*
X96994323Y-72838660D01*
X96934714Y-72868466D01*
X96791452Y-72868466D01*
X96731842Y-72838661D01*
X96707174Y-72813992D01*
X96677369Y-72754382D01*
X96677369Y-72563502D01*
X96707174Y-72503892D01*
X96731842Y-72479223D01*
X96791452Y-72449419D01*
X96934714Y-72449419D01*
X96994323Y-72479224D01*
G37*
G36*
X87629102Y-72963704D02*
G01*
X87430397Y-72963704D01*
X87529749Y-72665646D01*
X87629102Y-72963704D01*
G37*
G36*
X91248150Y-72963704D02*
G01*
X91049445Y-72963704D01*
X91148797Y-72665646D01*
X91248150Y-72963704D01*
G37*
G36*
X97359908Y-73560530D02*
G01*
X86986090Y-73560530D01*
X86986090Y-73336912D01*
X87097201Y-73336912D01*
X87099967Y-73375832D01*
X87117417Y-73410731D01*
X87146893Y-73436296D01*
X87183909Y-73448634D01*
X87222829Y-73445868D01*
X87257728Y-73428418D01*
X87283293Y-73398942D01*
X87291284Y-73381042D01*
X87363730Y-73163704D01*
X87695768Y-73163704D01*
X87768214Y-73381041D01*
X87776205Y-73398942D01*
X87801770Y-73428418D01*
X87836669Y-73445867D01*
X87875589Y-73448634D01*
X87912605Y-73436295D01*
X87942081Y-73410730D01*
X87959531Y-73375831D01*
X87962297Y-73336911D01*
X87957950Y-73317796D01*
X87635158Y-72349419D01*
X88096416Y-72349419D01*
X88096416Y-73349419D01*
X88098337Y-73368928D01*
X88113269Y-73404976D01*
X88140859Y-73432566D01*
X88176907Y-73447498D01*
X88196416Y-73449419D01*
X88434511Y-73449419D01*
X88444384Y-73448446D01*
X88447018Y-73448634D01*
X88450481Y-73447846D01*
X88454020Y-73447498D01*
X88456462Y-73446486D01*
X88466134Y-73444287D01*
X88608990Y-73396668D01*
X88626891Y-73388677D01*
X88629606Y-73386322D01*
X88632926Y-73384947D01*
X88648079Y-73372510D01*
X88743317Y-73277271D01*
X88749609Y-73269604D01*
X88751606Y-73267873D01*
X88753499Y-73264865D01*
X88755754Y-73262118D01*
X88756765Y-73259676D01*
X88762049Y-73251282D01*
X88809668Y-73156045D01*
X88810214Y-73154616D01*
X88810644Y-73154037D01*
X88813565Y-73145860D01*
X88816674Y-73137736D01*
X88816725Y-73137015D01*
X88817239Y-73135577D01*
X88864858Y-72945101D01*
X88865358Y-72941719D01*
X88865923Y-72940356D01*
X88866646Y-72933005D01*
X88867726Y-72925708D01*
X88867508Y-72924249D01*
X88867844Y-72920847D01*
X88867844Y-72777990D01*
X89048797Y-72777990D01*
X89048797Y-72920847D01*
X89049132Y-72924249D01*
X89048915Y-72925708D01*
X89049994Y-72933005D01*
X89050718Y-72940356D01*
X89051282Y-72941719D01*
X89051783Y-72945101D01*
X89099402Y-73135576D01*
X89099915Y-73137013D01*
X89099967Y-73137736D01*
X89103075Y-73145860D01*
X89105997Y-73154037D01*
X89106427Y-73154617D01*
X89106973Y-73156044D01*
X89154592Y-73251282D01*
X89159874Y-73259674D01*
X89160887Y-73262118D01*
X89163143Y-73264867D01*
X89165035Y-73267872D01*
X89167029Y-73269601D01*
X89173324Y-73277271D01*
X89268562Y-73372511D01*
X89283715Y-73384947D01*
X89287034Y-73386322D01*
X89289750Y-73388677D01*
X89307650Y-73396668D01*
X89450507Y-73444287D01*
X89460179Y-73446486D01*
X89462621Y-73447498D01*
X89466158Y-73447846D01*
X89469622Y-73448634D01*
X89472256Y-73448446D01*
X89482130Y-73449419D01*
X89577368Y-73449419D01*
X89587241Y-73448446D01*
X89589875Y-73448634D01*
X89593338Y-73447846D01*
X89596877Y-73447498D01*
X89599319Y-73446486D01*
X89608991Y-73444287D01*
X89751847Y-73396668D01*
X89769748Y-73388677D01*
X89772463Y-73386322D01*
X89775783Y-73384947D01*
X89790936Y-73372510D01*
X89826533Y-73336912D01*
X90716249Y-73336912D01*
X90719015Y-73375832D01*
X90736465Y-73410731D01*
X90765941Y-73436296D01*
X90802957Y-73448634D01*
X90841877Y-73445868D01*
X90876776Y-73428418D01*
X90902341Y-73398942D01*
X90910332Y-73381042D01*
X90982778Y-73163704D01*
X91314816Y-73163704D01*
X91387262Y-73381041D01*
X91395253Y-73398942D01*
X91420818Y-73428418D01*
X91455717Y-73445867D01*
X91494637Y-73448634D01*
X91531653Y-73436295D01*
X91561129Y-73410730D01*
X91578579Y-73375831D01*
X91581345Y-73336911D01*
X91576998Y-73317796D01*
X91254206Y-72349419D01*
X91715464Y-72349419D01*
X91715464Y-73349419D01*
X91717385Y-73368928D01*
X91732317Y-73404976D01*
X91759907Y-73432566D01*
X91795955Y-73447498D01*
X91815464Y-73449419D01*
X92053559Y-73449419D01*
X92063432Y-73448446D01*
X92066066Y-73448634D01*
X92069529Y-73447846D01*
X92073068Y-73447498D01*
X92075510Y-73446486D01*
X92085182Y-73444287D01*
X92228038Y-73396668D01*
X92245939Y-73388677D01*
X92248654Y-73386322D01*
X92251974Y-73384947D01*
X92267127Y-73372510D01*
X92362365Y-73277271D01*
X92368657Y-73269604D01*
X92370654Y-73267873D01*
X92372547Y-73264865D01*
X92374802Y-73262118D01*
X92375813Y-73259676D01*
X92381097Y-73251282D01*
X92428716Y-73156045D01*
X92429262Y-73154616D01*
X92429692Y-73154037D01*
X92432613Y-73145860D01*
X92435722Y-73137736D01*
X92435773Y-73137015D01*
X92436287Y-73135577D01*
X92483906Y-72945101D01*
X92484406Y-72941719D01*
X92484971Y-72940356D01*
X92485694Y-72933005D01*
X92486774Y-72925708D01*
X92486556Y-72924249D01*
X92486892Y-72920847D01*
X92486892Y-72777990D01*
X92486556Y-72774587D01*
X92486774Y-72773129D01*
X92485694Y-72765831D01*
X92484971Y-72758481D01*
X92484406Y-72757117D01*
X92483906Y-72753736D01*
X92436287Y-72563260D01*
X92435773Y-72561821D01*
X92435722Y-72561101D01*
X92432613Y-72552976D01*
X92429692Y-72544800D01*
X92429262Y-72544220D01*
X92428716Y-72542792D01*
X92427267Y-72539895D01*
X92667845Y-72539895D01*
X92667845Y-72635133D01*
X92669766Y-72654642D01*
X92671141Y-72657962D01*
X92671396Y-72661546D01*
X92678402Y-72679854D01*
X92726021Y-72775092D01*
X92731306Y-72783488D01*
X92732317Y-72785928D01*
X92734570Y-72788674D01*
X92736464Y-72791682D01*
X92738458Y-72793411D01*
X92744753Y-72801082D01*
X92792372Y-72848700D01*
X92800038Y-72854992D01*
X92801771Y-72856990D01*
X92804779Y-72858883D01*
X92807525Y-72861137D01*
X92809965Y-72862147D01*
X92818362Y-72867433D01*
X92913599Y-72915052D01*
X92915027Y-72915598D01*
X92915607Y-72916028D01*
X92923783Y-72918949D01*
X92931908Y-72922058D01*
X92932628Y-72922109D01*
X92934067Y-72922623D01*
X93113892Y-72967579D01*
X93184799Y-73003033D01*
X93209468Y-73027701D01*
X93239273Y-73087311D01*
X93239273Y-73135335D01*
X93209468Y-73194943D01*
X93184799Y-73219613D01*
X93125190Y-73249419D01*
X92926928Y-73249419D01*
X92799468Y-73206932D01*
X92780352Y-73202585D01*
X92741432Y-73205351D01*
X92706533Y-73222801D01*
X92680968Y-73252277D01*
X92668630Y-73289293D01*
X92671396Y-73328213D01*
X92688846Y-73363112D01*
X92718322Y-73388677D01*
X92736222Y-73396668D01*
X92879079Y-73444287D01*
X92888751Y-73446486D01*
X92891193Y-73447498D01*
X92894730Y-73447846D01*
X92898194Y-73448634D01*
X92900828Y-73448446D01*
X92910702Y-73449419D01*
X93148797Y-73449419D01*
X93168306Y-73447498D01*
X93171626Y-73446122D01*
X93175210Y-73445868D01*
X93193518Y-73438862D01*
X93288756Y-73391243D01*
X93297151Y-73385958D01*
X93299593Y-73384947D01*
X93302340Y-73382691D01*
X93305346Y-73380800D01*
X93307076Y-73378805D01*
X93314746Y-73372510D01*
X93362365Y-73324890D01*
X93368657Y-73317223D01*
X93370654Y-73315492D01*
X93372547Y-73312484D01*
X93374802Y-73309737D01*
X93375813Y-73307295D01*
X93381097Y-73298901D01*
X93428716Y-73203664D01*
X93435722Y-73185355D01*
X93435976Y-73181771D01*
X93437352Y-73178451D01*
X93439273Y-73158942D01*
X93439273Y-73063704D01*
X93437352Y-73044195D01*
X93435976Y-73040874D01*
X93435722Y-73037291D01*
X93428716Y-73018982D01*
X93381097Y-72923745D01*
X93375811Y-72915348D01*
X93374801Y-72912908D01*
X93372547Y-72910162D01*
X93370654Y-72907154D01*
X93368656Y-72905421D01*
X93362364Y-72897755D01*
X93314746Y-72850136D01*
X93307075Y-72843841D01*
X93305346Y-72841847D01*
X93302338Y-72839953D01*
X93299592Y-72837700D01*
X93297152Y-72836689D01*
X93288756Y-72831404D01*
X93193518Y-72783785D01*
X93192091Y-72783239D01*
X93191511Y-72782809D01*
X93183334Y-72779887D01*
X93175210Y-72776779D01*
X93174487Y-72776727D01*
X93173050Y-72776214D01*
X92993225Y-72731257D01*
X92922318Y-72695804D01*
X92897650Y-72671135D01*
X92867845Y-72611525D01*
X92867845Y-72563502D01*
X92879649Y-72539895D01*
X93620226Y-72539895D01*
X93620226Y-72587514D01*
X93622147Y-72607023D01*
X93623522Y-72610343D01*
X93623777Y-72613927D01*
X93630783Y-72632235D01*
X93678402Y-72727473D01*
X93683687Y-72735869D01*
X93684698Y-72738309D01*
X93686951Y-72741055D01*
X93688845Y-72744063D01*
X93690839Y-72745792D01*
X93697134Y-72753463D01*
X93721661Y-72777990D01*
X93697134Y-72802517D01*
X93690839Y-72810187D01*
X93688845Y-72811917D01*
X93686951Y-72814924D01*
X93684698Y-72817671D01*
X93683687Y-72820110D01*
X93678402Y-72828507D01*
X93630783Y-72923745D01*
X93623777Y-72942053D01*
X93623522Y-72945636D01*
X93622147Y-72948957D01*
X93620226Y-72968466D01*
X93620226Y-73158942D01*
X93622147Y-73178451D01*
X93623522Y-73181771D01*
X93623777Y-73185355D01*
X93630783Y-73203663D01*
X93678402Y-73298901D01*
X93683685Y-73307293D01*
X93684697Y-73309737D01*
X93686953Y-73312486D01*
X93688845Y-73315491D01*
X93690839Y-73317220D01*
X93697134Y-73324890D01*
X93744752Y-73372510D01*
X93752420Y-73378803D01*
X93754152Y-73380800D01*
X93757160Y-73382693D01*
X93759906Y-73384947D01*
X93762346Y-73385957D01*
X93770743Y-73391243D01*
X93865980Y-73438862D01*
X93884289Y-73445868D01*
X93887872Y-73446122D01*
X93891193Y-73447498D01*
X93910702Y-73449419D01*
X94101178Y-73449419D01*
X94120687Y-73447498D01*
X94124007Y-73446122D01*
X94127591Y-73445868D01*
X94145899Y-73438862D01*
X94241137Y-73391243D01*
X94249532Y-73385958D01*
X94251974Y-73384947D01*
X94254721Y-73382691D01*
X94257727Y-73380800D01*
X94259457Y-73378805D01*
X94267127Y-73372510D01*
X94314746Y-73324890D01*
X94321038Y-73317223D01*
X94323035Y-73315492D01*
X94324928Y-73312484D01*
X94327183Y-73309737D01*
X94328194Y-73307295D01*
X94333478Y-73298901D01*
X94381097Y-73203664D01*
X94388103Y-73185355D01*
X94388357Y-73181771D01*
X94389733Y-73178451D01*
X94391654Y-73158942D01*
X94391654Y-72968466D01*
X94389733Y-72948957D01*
X94388357Y-72945636D01*
X94388103Y-72942053D01*
X94381097Y-72923744D01*
X94333478Y-72828507D01*
X94328192Y-72820110D01*
X94327182Y-72817670D01*
X94324928Y-72814924D01*
X94323035Y-72811916D01*
X94321037Y-72810183D01*
X94314745Y-72802517D01*
X94290218Y-72777990D01*
X94572607Y-72777990D01*
X94572607Y-73158942D01*
X94574528Y-73178451D01*
X94575903Y-73181771D01*
X94576158Y-73185355D01*
X94583164Y-73203663D01*
X94630783Y-73298901D01*
X94636066Y-73307293D01*
X94637078Y-73309737D01*
X94639334Y-73312486D01*
X94641226Y-73315491D01*
X94643220Y-73317220D01*
X94649515Y-73324890D01*
X94697133Y-73372510D01*
X94704801Y-73378803D01*
X94706533Y-73380800D01*
X94709541Y-73382693D01*
X94712287Y-73384947D01*
X94714727Y-73385957D01*
X94723124Y-73391243D01*
X94818361Y-73438862D01*
X94836670Y-73445868D01*
X94840253Y-73446122D01*
X94843574Y-73447498D01*
X94863083Y-73449419D01*
X95053559Y-73449419D01*
X95073068Y-73447498D01*
X95076388Y-73446122D01*
X95079972Y-73445868D01*
X95098280Y-73438862D01*
X95193518Y-73391243D01*
X95201913Y-73385958D01*
X95204355Y-73384947D01*
X95207102Y-73382691D01*
X95210108Y-73380800D01*
X95211838Y-73378805D01*
X95219508Y-73372510D01*
X95267127Y-73324890D01*
X95273419Y-73317223D01*
X95275416Y-73315492D01*
X95277309Y-73312484D01*
X95279564Y-73309737D01*
X95280575Y-73307295D01*
X95285859Y-73298901D01*
X95333478Y-73203664D01*
X95340484Y-73185355D01*
X95340738Y-73181771D01*
X95342114Y-73178451D01*
X95344035Y-73158942D01*
X95344035Y-72920847D01*
X95342114Y-72901338D01*
X95340738Y-72898017D01*
X95340484Y-72894434D01*
X95333478Y-72876125D01*
X95285859Y-72780888D01*
X95280573Y-72772491D01*
X95279563Y-72770051D01*
X95277309Y-72767305D01*
X95275416Y-72764297D01*
X95273418Y-72762564D01*
X95267126Y-72754898D01*
X95219508Y-72707279D01*
X95211837Y-72700984D01*
X95210108Y-72698990D01*
X95207100Y-72697096D01*
X95204354Y-72694843D01*
X95201914Y-72693832D01*
X95193518Y-72688547D01*
X95098280Y-72640928D01*
X95079972Y-72633922D01*
X95076388Y-72633667D01*
X95073068Y-72632292D01*
X95053559Y-72630371D01*
X94863083Y-72630371D01*
X94843574Y-72632292D01*
X94840253Y-72633667D01*
X94836670Y-72633922D01*
X94818361Y-72640928D01*
X94808748Y-72645734D01*
X94813039Y-72628572D01*
X94872157Y-72539895D01*
X95524988Y-72539895D01*
X95524988Y-72587514D01*
X95526909Y-72607023D01*
X95528284Y-72610343D01*
X95528539Y-72613927D01*
X95535545Y-72632235D01*
X95583164Y-72727473D01*
X95588449Y-72735869D01*
X95589460Y-72738309D01*
X95591713Y-72741055D01*
X95593607Y-72744063D01*
X95595601Y-72745792D01*
X95601896Y-72753463D01*
X95626423Y-72777990D01*
X95601896Y-72802517D01*
X95595601Y-72810187D01*
X95593607Y-72811917D01*
X95591713Y-72814924D01*
X95589460Y-72817671D01*
X95588449Y-72820110D01*
X95583164Y-72828507D01*
X95535545Y-72923745D01*
X95528539Y-72942053D01*
X95528284Y-72945636D01*
X95526909Y-72948957D01*
X95524988Y-72968466D01*
X95524988Y-73158942D01*
X95526909Y-73178451D01*
X95528284Y-73181771D01*
X95528539Y-73185355D01*
X95535545Y-73203663D01*
X95583164Y-73298901D01*
X95588447Y-73307293D01*
X95589459Y-73309737D01*
X95591715Y-73312486D01*
X95593607Y-73315491D01*
X95595601Y-73317220D01*
X95601896Y-73324890D01*
X95649514Y-73372510D01*
X95657182Y-73378803D01*
X95658914Y-73380800D01*
X95661922Y-73382693D01*
X95664668Y-73384947D01*
X95667108Y-73385957D01*
X95675505Y-73391243D01*
X95770742Y-73438862D01*
X95789051Y-73445868D01*
X95792634Y-73446122D01*
X95795955Y-73447498D01*
X95815464Y-73449419D01*
X96005940Y-73449419D01*
X96025449Y-73447498D01*
X96028769Y-73446122D01*
X96032353Y-73445868D01*
X96050661Y-73438862D01*
X96145899Y-73391243D01*
X96154294Y-73385958D01*
X96156736Y-73384947D01*
X96159483Y-73382691D01*
X96162489Y-73380800D01*
X96164219Y-73378805D01*
X96171889Y-73372510D01*
X96219508Y-73324890D01*
X96225800Y-73317223D01*
X96227797Y-73315492D01*
X96229690Y-73312484D01*
X96231945Y-73309737D01*
X96232956Y-73307295D01*
X96238240Y-73298901D01*
X96285859Y-73203664D01*
X96292865Y-73185355D01*
X96293119Y-73181771D01*
X96294495Y-73178451D01*
X96296416Y-73158942D01*
X96296416Y-72968466D01*
X96294495Y-72948957D01*
X96293119Y-72945636D01*
X96292865Y-72942053D01*
X96285859Y-72923744D01*
X96238240Y-72828507D01*
X96232954Y-72820110D01*
X96231944Y-72817670D01*
X96229690Y-72814924D01*
X96227797Y-72811916D01*
X96225799Y-72810183D01*
X96219507Y-72802517D01*
X96194980Y-72777990D01*
X96219507Y-72753463D01*
X96225799Y-72745796D01*
X96227797Y-72744064D01*
X96229690Y-72741055D01*
X96231944Y-72738310D01*
X96232954Y-72735869D01*
X96238240Y-72727473D01*
X96285859Y-72632236D01*
X96292865Y-72613927D01*
X96293119Y-72610343D01*
X96294495Y-72607023D01*
X96296416Y-72587514D01*
X96296416Y-72539895D01*
X96477369Y-72539895D01*
X96477369Y-72777990D01*
X96479290Y-72797499D01*
X96480665Y-72800819D01*
X96480920Y-72804403D01*
X96487926Y-72822711D01*
X96535545Y-72917949D01*
X96540830Y-72926345D01*
X96541841Y-72928785D01*
X96544094Y-72931531D01*
X96545988Y-72934539D01*
X96547982Y-72936268D01*
X96554277Y-72943939D01*
X96601896Y-72991557D01*
X96609562Y-72997849D01*
X96611295Y-72999847D01*
X96614303Y-73001740D01*
X96617049Y-73003994D01*
X96619489Y-73005004D01*
X96627886Y-73010290D01*
X96723123Y-73057909D01*
X96741432Y-73064915D01*
X96745015Y-73065169D01*
X96748336Y-73066545D01*
X96767845Y-73068466D01*
X96958321Y-73068466D01*
X96977830Y-73066545D01*
X96981150Y-73065169D01*
X96984734Y-73064915D01*
X97003042Y-73057909D01*
X97012655Y-73053102D01*
X97008365Y-73070264D01*
X96928228Y-73190469D01*
X96899085Y-73219613D01*
X96839476Y-73249419D01*
X96672607Y-73249419D01*
X96653098Y-73251340D01*
X96617050Y-73266272D01*
X96589460Y-73293862D01*
X96574528Y-73329910D01*
X96574528Y-73368928D01*
X96589460Y-73404976D01*
X96617050Y-73432566D01*
X96653098Y-73447498D01*
X96672607Y-73449419D01*
X96863083Y-73449419D01*
X96882592Y-73447498D01*
X96885912Y-73446122D01*
X96889496Y-73445868D01*
X96907804Y-73438862D01*
X97003042Y-73391243D01*
X97011437Y-73385958D01*
X97013879Y-73384947D01*
X97016626Y-73382691D01*
X97019632Y-73380800D01*
X97021362Y-73378805D01*
X97029032Y-73372510D01*
X97076651Y-73324890D01*
X97076693Y-73324837D01*
X97076725Y-73324817D01*
X97082864Y-73317319D01*
X97089088Y-73309737D01*
X97089102Y-73309701D01*
X97089145Y-73309650D01*
X97184383Y-73166793D01*
X97190125Y-73156023D01*
X97191597Y-73154037D01*
X97192435Y-73151691D01*
X97193606Y-73149495D01*
X97194085Y-73147071D01*
X97198192Y-73135577D01*
X97245811Y-72945101D01*
X97246311Y-72941719D01*
X97246876Y-72940356D01*
X97247599Y-72933005D01*
X97248679Y-72925708D01*
X97248461Y-72924249D01*
X97248797Y-72920847D01*
X97248797Y-72539895D01*
X97246876Y-72520386D01*
X97245500Y-72517065D01*
X97245246Y-72513482D01*
X97238240Y-72495173D01*
X97190621Y-72399936D01*
X97185335Y-72391539D01*
X97184325Y-72389099D01*
X97182071Y-72386353D01*
X97180178Y-72383345D01*
X97178180Y-72381612D01*
X97171888Y-72373946D01*
X97124270Y-72326327D01*
X97116599Y-72320032D01*
X97114870Y-72318038D01*
X97111862Y-72316144D01*
X97109116Y-72313891D01*
X97106676Y-72312880D01*
X97098280Y-72307595D01*
X97003042Y-72259976D01*
X96984734Y-72252970D01*
X96981150Y-72252715D01*
X96977830Y-72251340D01*
X96958321Y-72249419D01*
X96767845Y-72249419D01*
X96748336Y-72251340D01*
X96745015Y-72252715D01*
X96741432Y-72252970D01*
X96723123Y-72259976D01*
X96627886Y-72307595D01*
X96619489Y-72312880D01*
X96617049Y-72313891D01*
X96614303Y-72316144D01*
X96611295Y-72318038D01*
X96609562Y-72320035D01*
X96601896Y-72326328D01*
X96554277Y-72373946D01*
X96547982Y-72381616D01*
X96545988Y-72383346D01*
X96544094Y-72386353D01*
X96541841Y-72389100D01*
X96540830Y-72391539D01*
X96535545Y-72399936D01*
X96487926Y-72495174D01*
X96480920Y-72513482D01*
X96480665Y-72517065D01*
X96479290Y-72520386D01*
X96477369Y-72539895D01*
X96296416Y-72539895D01*
X96294495Y-72520386D01*
X96293119Y-72517065D01*
X96292865Y-72513482D01*
X96285859Y-72495173D01*
X96238240Y-72399936D01*
X96232954Y-72391539D01*
X96231944Y-72389099D01*
X96229690Y-72386353D01*
X96227797Y-72383345D01*
X96225799Y-72381612D01*
X96219507Y-72373946D01*
X96171889Y-72326327D01*
X96164218Y-72320032D01*
X96162489Y-72318038D01*
X96159481Y-72316144D01*
X96156735Y-72313891D01*
X96154295Y-72312880D01*
X96145899Y-72307595D01*
X96050661Y-72259976D01*
X96032353Y-72252970D01*
X96028769Y-72252715D01*
X96025449Y-72251340D01*
X96005940Y-72249419D01*
X95815464Y-72249419D01*
X95795955Y-72251340D01*
X95792634Y-72252715D01*
X95789051Y-72252970D01*
X95770742Y-72259976D01*
X95675505Y-72307595D01*
X95667108Y-72312880D01*
X95664668Y-72313891D01*
X95661922Y-72316144D01*
X95658914Y-72318038D01*
X95657181Y-72320035D01*
X95649515Y-72326328D01*
X95601896Y-72373946D01*
X95595601Y-72381616D01*
X95593607Y-72383346D01*
X95591713Y-72386353D01*
X95589460Y-72389100D01*
X95588449Y-72391539D01*
X95583164Y-72399936D01*
X95535545Y-72495174D01*
X95528539Y-72513482D01*
X95528284Y-72517065D01*
X95526909Y-72520386D01*
X95524988Y-72539895D01*
X94872157Y-72539895D01*
X94893175Y-72508367D01*
X94922318Y-72479223D01*
X94981928Y-72449419D01*
X95148797Y-72449419D01*
X95168306Y-72447498D01*
X95204354Y-72432566D01*
X95231944Y-72404976D01*
X95246876Y-72368928D01*
X95246876Y-72329910D01*
X95231944Y-72293862D01*
X95204354Y-72266272D01*
X95168306Y-72251340D01*
X95148797Y-72249419D01*
X94958321Y-72249419D01*
X94938812Y-72251340D01*
X94935491Y-72252715D01*
X94931908Y-72252970D01*
X94913599Y-72259976D01*
X94818362Y-72307595D01*
X94809965Y-72312880D01*
X94807525Y-72313891D01*
X94804779Y-72316144D01*
X94801771Y-72318038D01*
X94800038Y-72320035D01*
X94792372Y-72326328D01*
X94744753Y-72373946D01*
X94744708Y-72374000D01*
X94744679Y-72374020D01*
X94738497Y-72381568D01*
X94732317Y-72389100D01*
X94732303Y-72389132D01*
X94732259Y-72389187D01*
X94637021Y-72532044D01*
X94631278Y-72542813D01*
X94629807Y-72544800D01*
X94628969Y-72547145D01*
X94627798Y-72549342D01*
X94627318Y-72551765D01*
X94623212Y-72563261D01*
X94575593Y-72753736D01*
X94575092Y-72757117D01*
X94574528Y-72758481D01*
X94573804Y-72765831D01*
X94572725Y-72773129D01*
X94572942Y-72774587D01*
X94572607Y-72777990D01*
X94290218Y-72777990D01*
X94314745Y-72753463D01*
X94321037Y-72745796D01*
X94323035Y-72744064D01*
X94324928Y-72741055D01*
X94327182Y-72738310D01*
X94328192Y-72735869D01*
X94333478Y-72727473D01*
X94381097Y-72632236D01*
X94388103Y-72613927D01*
X94388357Y-72610343D01*
X94389733Y-72607023D01*
X94391654Y-72587514D01*
X94391654Y-72539895D01*
X94389733Y-72520386D01*
X94388357Y-72517065D01*
X94388103Y-72513482D01*
X94381097Y-72495173D01*
X94333478Y-72399936D01*
X94328192Y-72391539D01*
X94327182Y-72389099D01*
X94324928Y-72386353D01*
X94323035Y-72383345D01*
X94321037Y-72381612D01*
X94314745Y-72373946D01*
X94267127Y-72326327D01*
X94259456Y-72320032D01*
X94257727Y-72318038D01*
X94254719Y-72316144D01*
X94251973Y-72313891D01*
X94249533Y-72312880D01*
X94241137Y-72307595D01*
X94145899Y-72259976D01*
X94127591Y-72252970D01*
X94124007Y-72252715D01*
X94120687Y-72251340D01*
X94101178Y-72249419D01*
X93910702Y-72249419D01*
X93891193Y-72251340D01*
X93887872Y-72252715D01*
X93884289Y-72252970D01*
X93865980Y-72259976D01*
X93770743Y-72307595D01*
X93762346Y-72312880D01*
X93759906Y-72313891D01*
X93757160Y-72316144D01*
X93754152Y-72318038D01*
X93752419Y-72320035D01*
X93744753Y-72326328D01*
X93697134Y-72373946D01*
X93690839Y-72381616D01*
X93688845Y-72383346D01*
X93686951Y-72386353D01*
X93684698Y-72389100D01*
X93683687Y-72391539D01*
X93678402Y-72399936D01*
X93630783Y-72495174D01*
X93623777Y-72513482D01*
X93623522Y-72517065D01*
X93622147Y-72520386D01*
X93620226Y-72539895D01*
X92879649Y-72539895D01*
X92897650Y-72503892D01*
X92922318Y-72479223D01*
X92981928Y-72449419D01*
X93180189Y-72449419D01*
X93307650Y-72491906D01*
X93326765Y-72496253D01*
X93365685Y-72493487D01*
X93400584Y-72476037D01*
X93426149Y-72446561D01*
X93438488Y-72409545D01*
X93435721Y-72370625D01*
X93418272Y-72335726D01*
X93388796Y-72310161D01*
X93370895Y-72302170D01*
X93228039Y-72254551D01*
X93218367Y-72252351D01*
X93215925Y-72251340D01*
X93212386Y-72250991D01*
X93208923Y-72250204D01*
X93206289Y-72250391D01*
X93196416Y-72249419D01*
X92958321Y-72249419D01*
X92938812Y-72251340D01*
X92935491Y-72252715D01*
X92931908Y-72252970D01*
X92913599Y-72259976D01*
X92818362Y-72307595D01*
X92809965Y-72312880D01*
X92807525Y-72313891D01*
X92804779Y-72316144D01*
X92801771Y-72318038D01*
X92800038Y-72320035D01*
X92792372Y-72326328D01*
X92744753Y-72373946D01*
X92738458Y-72381616D01*
X92736464Y-72383346D01*
X92734570Y-72386353D01*
X92732317Y-72389100D01*
X92731306Y-72391539D01*
X92726021Y-72399936D01*
X92678402Y-72495174D01*
X92671396Y-72513482D01*
X92671141Y-72517065D01*
X92669766Y-72520386D01*
X92667845Y-72539895D01*
X92427267Y-72539895D01*
X92381097Y-72447555D01*
X92375810Y-72439156D01*
X92374801Y-72436719D01*
X92372549Y-72433975D01*
X92370654Y-72430964D01*
X92368656Y-72429231D01*
X92362365Y-72421565D01*
X92267127Y-72326327D01*
X92251973Y-72313891D01*
X92248654Y-72312516D01*
X92245939Y-72310161D01*
X92228038Y-72302170D01*
X92085182Y-72254551D01*
X92075510Y-72252351D01*
X92073068Y-72251340D01*
X92069529Y-72250991D01*
X92066066Y-72250204D01*
X92063432Y-72250391D01*
X92053559Y-72249419D01*
X91815464Y-72249419D01*
X91795955Y-72251340D01*
X91759907Y-72266272D01*
X91732317Y-72293862D01*
X91717385Y-72329910D01*
X91715464Y-72349419D01*
X91254206Y-72349419D01*
X91243665Y-72317796D01*
X91235674Y-72299896D01*
X91230989Y-72294494D01*
X91227796Y-72288108D01*
X91218327Y-72279895D01*
X91210109Y-72270420D01*
X91203717Y-72267223D01*
X91198320Y-72262543D01*
X91186426Y-72258578D01*
X91175210Y-72252970D01*
X91168082Y-72252463D01*
X91161304Y-72250204D01*
X91148799Y-72251093D01*
X91136290Y-72250204D01*
X91129508Y-72252464D01*
X91122384Y-72252971D01*
X91111175Y-72258574D01*
X91099274Y-72262542D01*
X91093873Y-72267225D01*
X91087485Y-72270420D01*
X91079269Y-72279891D01*
X91069798Y-72288107D01*
X91066603Y-72294496D01*
X91061920Y-72299896D01*
X91053929Y-72317797D01*
X90720596Y-73317796D01*
X90716249Y-73336912D01*
X89826533Y-73336912D01*
X89838555Y-73324890D01*
X89850992Y-73309737D01*
X89865923Y-73273688D01*
X89865922Y-73234670D01*
X89850991Y-73198622D01*
X89823400Y-73171032D01*
X89787352Y-73156101D01*
X89748334Y-73156102D01*
X89712286Y-73171033D01*
X89697132Y-73183470D01*
X89666205Y-73214397D01*
X89561141Y-73249419D01*
X89498356Y-73249419D01*
X89393291Y-73214397D01*
X89326221Y-73147327D01*
X89290767Y-73076418D01*
X89248797Y-72908537D01*
X89248797Y-72790300D01*
X89290767Y-72622418D01*
X89326220Y-72551512D01*
X89393292Y-72484440D01*
X89498356Y-72449419D01*
X89561141Y-72449419D01*
X89666206Y-72484440D01*
X89697133Y-72515367D01*
X89712286Y-72527804D01*
X89748335Y-72542735D01*
X89787353Y-72542735D01*
X89823401Y-72527804D01*
X89850991Y-72500214D01*
X89865922Y-72464166D01*
X89865922Y-72425148D01*
X89850991Y-72389099D01*
X89838554Y-72373946D01*
X89790936Y-72326327D01*
X89775782Y-72313891D01*
X89772463Y-72312516D01*
X89769748Y-72310161D01*
X89751847Y-72302170D01*
X89608991Y-72254551D01*
X89599319Y-72252351D01*
X89596877Y-72251340D01*
X89593338Y-72250991D01*
X89589875Y-72250204D01*
X89587241Y-72250391D01*
X89577368Y-72249419D01*
X89482130Y-72249419D01*
X89472256Y-72250391D01*
X89469622Y-72250204D01*
X89466158Y-72250991D01*
X89462621Y-72251340D01*
X89460179Y-72252351D01*
X89450507Y-72254551D01*
X89307650Y-72302170D01*
X89289750Y-72310161D01*
X89287034Y-72312516D01*
X89283716Y-72313891D01*
X89268562Y-72326327D01*
X89173324Y-72421565D01*
X89167029Y-72429235D01*
X89165035Y-72430965D01*
X89163141Y-72433972D01*
X89160888Y-72436719D01*
X89159877Y-72439158D01*
X89154592Y-72447555D01*
X89106973Y-72542793D01*
X89106427Y-72544219D01*
X89105997Y-72544800D01*
X89103075Y-72552976D01*
X89099967Y-72561101D01*
X89099915Y-72561823D01*
X89099402Y-72563261D01*
X89051783Y-72753736D01*
X89051282Y-72757117D01*
X89050718Y-72758481D01*
X89049994Y-72765831D01*
X89048915Y-72773129D01*
X89049132Y-72774587D01*
X89048797Y-72777990D01*
X88867844Y-72777990D01*
X88867508Y-72774587D01*
X88867726Y-72773129D01*
X88866646Y-72765831D01*
X88865923Y-72758481D01*
X88865358Y-72757117D01*
X88864858Y-72753736D01*
X88817239Y-72563260D01*
X88816725Y-72561821D01*
X88816674Y-72561101D01*
X88813565Y-72552976D01*
X88810644Y-72544800D01*
X88810214Y-72544220D01*
X88809668Y-72542792D01*
X88762049Y-72447555D01*
X88756762Y-72439156D01*
X88755753Y-72436719D01*
X88753501Y-72433975D01*
X88751606Y-72430964D01*
X88749608Y-72429231D01*
X88743317Y-72421565D01*
X88648079Y-72326327D01*
X88632925Y-72313891D01*
X88629606Y-72312516D01*
X88626891Y-72310161D01*
X88608990Y-72302170D01*
X88466134Y-72254551D01*
X88456462Y-72252351D01*
X88454020Y-72251340D01*
X88450481Y-72250991D01*
X88447018Y-72250204D01*
X88444384Y-72250391D01*
X88434511Y-72249419D01*
X88196416Y-72249419D01*
X88176907Y-72251340D01*
X88140859Y-72266272D01*
X88113269Y-72293862D01*
X88098337Y-72329910D01*
X88096416Y-72349419D01*
X87635158Y-72349419D01*
X87624617Y-72317796D01*
X87616626Y-72299896D01*
X87611941Y-72294494D01*
X87608748Y-72288108D01*
X87599279Y-72279895D01*
X87591061Y-72270420D01*
X87584669Y-72267223D01*
X87579272Y-72262543D01*
X87567378Y-72258578D01*
X87556162Y-72252970D01*
X87549034Y-72252463D01*
X87542256Y-72250204D01*
X87529751Y-72251093D01*
X87517242Y-72250204D01*
X87510460Y-72252464D01*
X87503336Y-72252971D01*
X87492127Y-72258574D01*
X87480226Y-72262542D01*
X87474825Y-72267225D01*
X87468437Y-72270420D01*
X87460221Y-72279891D01*
X87450750Y-72288107D01*
X87447555Y-72294496D01*
X87442872Y-72299896D01*
X87434881Y-72317797D01*
X87101548Y-73317796D01*
X87097201Y-73336912D01*
X86986090Y-73336912D01*
X86986090Y-72138308D01*
X97359908Y-72138308D01*
X97359908Y-73560530D01*
G37*
D12*
X96608333Y-67729819D02*
X96275000Y-67253628D01*
X96036905Y-67729819D02*
X96036905Y-66729819D01*
X96036905Y-66729819D02*
X96417857Y-66729819D01*
X96417857Y-66729819D02*
X96513095Y-66777438D01*
X96513095Y-66777438D02*
X96560714Y-66825057D01*
X96560714Y-66825057D02*
X96608333Y-66920295D01*
X96608333Y-66920295D02*
X96608333Y-67063152D01*
X96608333Y-67063152D02*
X96560714Y-67158390D01*
X96560714Y-67158390D02*
X96513095Y-67206009D01*
X96513095Y-67206009D02*
X96417857Y-67253628D01*
X96417857Y-67253628D02*
X96036905Y-67253628D01*
X97560714Y-67729819D02*
X96989286Y-67729819D01*
X97275000Y-67729819D02*
X97275000Y-66729819D01*
X97275000Y-66729819D02*
X97179762Y-66872676D01*
X97179762Y-66872676D02*
X97084524Y-66967914D01*
X97084524Y-66967914D02*
X96989286Y-67015533D01*
X93613333Y-57754580D02*
X93565714Y-57802200D01*
X93565714Y-57802200D02*
X93422857Y-57849819D01*
X93422857Y-57849819D02*
X93327619Y-57849819D01*
X93327619Y-57849819D02*
X93184762Y-57802200D01*
X93184762Y-57802200D02*
X93089524Y-57706961D01*
X93089524Y-57706961D02*
X93041905Y-57611723D01*
X93041905Y-57611723D02*
X92994286Y-57421247D01*
X92994286Y-57421247D02*
X92994286Y-57278390D01*
X92994286Y-57278390D02*
X93041905Y-57087914D01*
X93041905Y-57087914D02*
X93089524Y-56992676D01*
X93089524Y-56992676D02*
X93184762Y-56897438D01*
X93184762Y-56897438D02*
X93327619Y-56849819D01*
X93327619Y-56849819D02*
X93422857Y-56849819D01*
X93422857Y-56849819D02*
X93565714Y-56897438D01*
X93565714Y-56897438D02*
X93613333Y-56945057D01*
X94518095Y-56849819D02*
X94041905Y-56849819D01*
X94041905Y-56849819D02*
X93994286Y-57326009D01*
X93994286Y-57326009D02*
X94041905Y-57278390D01*
X94041905Y-57278390D02*
X94137143Y-57230771D01*
X94137143Y-57230771D02*
X94375238Y-57230771D01*
X94375238Y-57230771D02*
X94470476Y-57278390D01*
X94470476Y-57278390D02*
X94518095Y-57326009D01*
X94518095Y-57326009D02*
X94565714Y-57421247D01*
X94565714Y-57421247D02*
X94565714Y-57659342D01*
X94565714Y-57659342D02*
X94518095Y-57754580D01*
X94518095Y-57754580D02*
X94470476Y-57802200D01*
X94470476Y-57802200D02*
X94375238Y-57849819D01*
X94375238Y-57849819D02*
X94137143Y-57849819D01*
X94137143Y-57849819D02*
X94041905Y-57802200D01*
X94041905Y-57802200D02*
X93994286Y-57754580D01*
X89413333Y-55409580D02*
X89365714Y-55457200D01*
X89365714Y-55457200D02*
X89222857Y-55504819D01*
X89222857Y-55504819D02*
X89127619Y-55504819D01*
X89127619Y-55504819D02*
X88984762Y-55457200D01*
X88984762Y-55457200D02*
X88889524Y-55361961D01*
X88889524Y-55361961D02*
X88841905Y-55266723D01*
X88841905Y-55266723D02*
X88794286Y-55076247D01*
X88794286Y-55076247D02*
X88794286Y-54933390D01*
X88794286Y-54933390D02*
X88841905Y-54742914D01*
X88841905Y-54742914D02*
X88889524Y-54647676D01*
X88889524Y-54647676D02*
X88984762Y-54552438D01*
X88984762Y-54552438D02*
X89127619Y-54504819D01*
X89127619Y-54504819D02*
X89222857Y-54504819D01*
X89222857Y-54504819D02*
X89365714Y-54552438D01*
X89365714Y-54552438D02*
X89413333Y-54600057D01*
X90270476Y-54838152D02*
X90270476Y-55504819D01*
X90032381Y-54457200D02*
X89794286Y-55171485D01*
X89794286Y-55171485D02*
X90413333Y-55171485D01*
X85283333Y-64722080D02*
X85235714Y-64769700D01*
X85235714Y-64769700D02*
X85092857Y-64817319D01*
X85092857Y-64817319D02*
X84997619Y-64817319D01*
X84997619Y-64817319D02*
X84854762Y-64769700D01*
X84854762Y-64769700D02*
X84759524Y-64674461D01*
X84759524Y-64674461D02*
X84711905Y-64579223D01*
X84711905Y-64579223D02*
X84664286Y-64388747D01*
X84664286Y-64388747D02*
X84664286Y-64245890D01*
X84664286Y-64245890D02*
X84711905Y-64055414D01*
X84711905Y-64055414D02*
X84759524Y-63960176D01*
X84759524Y-63960176D02*
X84854762Y-63864938D01*
X84854762Y-63864938D02*
X84997619Y-63817319D01*
X84997619Y-63817319D02*
X85092857Y-63817319D01*
X85092857Y-63817319D02*
X85235714Y-63864938D01*
X85235714Y-63864938D02*
X85283333Y-63912557D01*
X85616667Y-63817319D02*
X86235714Y-63817319D01*
X86235714Y-63817319D02*
X85902381Y-64198271D01*
X85902381Y-64198271D02*
X86045238Y-64198271D01*
X86045238Y-64198271D02*
X86140476Y-64245890D01*
X86140476Y-64245890D02*
X86188095Y-64293509D01*
X86188095Y-64293509D02*
X86235714Y-64388747D01*
X86235714Y-64388747D02*
X86235714Y-64626842D01*
X86235714Y-64626842D02*
X86188095Y-64722080D01*
X86188095Y-64722080D02*
X86140476Y-64769700D01*
X86140476Y-64769700D02*
X86045238Y-64817319D01*
X86045238Y-64817319D02*
X85759524Y-64817319D01*
X85759524Y-64817319D02*
X85664286Y-64769700D01*
X85664286Y-64769700D02*
X85616667Y-64722080D01*
X92233333Y-69734580D02*
X92185714Y-69782200D01*
X92185714Y-69782200D02*
X92042857Y-69829819D01*
X92042857Y-69829819D02*
X91947619Y-69829819D01*
X91947619Y-69829819D02*
X91804762Y-69782200D01*
X91804762Y-69782200D02*
X91709524Y-69686961D01*
X91709524Y-69686961D02*
X91661905Y-69591723D01*
X91661905Y-69591723D02*
X91614286Y-69401247D01*
X91614286Y-69401247D02*
X91614286Y-69258390D01*
X91614286Y-69258390D02*
X91661905Y-69067914D01*
X91661905Y-69067914D02*
X91709524Y-68972676D01*
X91709524Y-68972676D02*
X91804762Y-68877438D01*
X91804762Y-68877438D02*
X91947619Y-68829819D01*
X91947619Y-68829819D02*
X92042857Y-68829819D01*
X92042857Y-68829819D02*
X92185714Y-68877438D01*
X92185714Y-68877438D02*
X92233333Y-68925057D01*
X92614286Y-68925057D02*
X92661905Y-68877438D01*
X92661905Y-68877438D02*
X92757143Y-68829819D01*
X92757143Y-68829819D02*
X92995238Y-68829819D01*
X92995238Y-68829819D02*
X93090476Y-68877438D01*
X93090476Y-68877438D02*
X93138095Y-68925057D01*
X93138095Y-68925057D02*
X93185714Y-69020295D01*
X93185714Y-69020295D02*
X93185714Y-69115533D01*
X93185714Y-69115533D02*
X93138095Y-69258390D01*
X93138095Y-69258390D02*
X92566667Y-69829819D01*
X92566667Y-69829819D02*
X93185714Y-69829819D01*
X86183333Y-67509580D02*
X86135714Y-67557200D01*
X86135714Y-67557200D02*
X85992857Y-67604819D01*
X85992857Y-67604819D02*
X85897619Y-67604819D01*
X85897619Y-67604819D02*
X85754762Y-67557200D01*
X85754762Y-67557200D02*
X85659524Y-67461961D01*
X85659524Y-67461961D02*
X85611905Y-67366723D01*
X85611905Y-67366723D02*
X85564286Y-67176247D01*
X85564286Y-67176247D02*
X85564286Y-67033390D01*
X85564286Y-67033390D02*
X85611905Y-66842914D01*
X85611905Y-66842914D02*
X85659524Y-66747676D01*
X85659524Y-66747676D02*
X85754762Y-66652438D01*
X85754762Y-66652438D02*
X85897619Y-66604819D01*
X85897619Y-66604819D02*
X85992857Y-66604819D01*
X85992857Y-66604819D02*
X86135714Y-66652438D01*
X86135714Y-66652438D02*
X86183333Y-66700057D01*
X87135714Y-67604819D02*
X86564286Y-67604819D01*
X86850000Y-67604819D02*
X86850000Y-66604819D01*
X86850000Y-66604819D02*
X86754762Y-66747676D01*
X86754762Y-66747676D02*
X86659524Y-66842914D01*
X86659524Y-66842914D02*
X86564286Y-66890533D01*
X90268095Y-61204819D02*
X90268095Y-62014342D01*
X90268095Y-62014342D02*
X90315714Y-62109580D01*
X90315714Y-62109580D02*
X90363333Y-62157200D01*
X90363333Y-62157200D02*
X90458571Y-62204819D01*
X90458571Y-62204819D02*
X90649047Y-62204819D01*
X90649047Y-62204819D02*
X90744285Y-62157200D01*
X90744285Y-62157200D02*
X90791904Y-62109580D01*
X90791904Y-62109580D02*
X90839523Y-62014342D01*
X90839523Y-62014342D02*
X90839523Y-61204819D01*
X91268095Y-61300057D02*
X91315714Y-61252438D01*
X91315714Y-61252438D02*
X91410952Y-61204819D01*
X91410952Y-61204819D02*
X91649047Y-61204819D01*
X91649047Y-61204819D02*
X91744285Y-61252438D01*
X91744285Y-61252438D02*
X91791904Y-61300057D01*
X91791904Y-61300057D02*
X91839523Y-61395295D01*
X91839523Y-61395295D02*
X91839523Y-61490533D01*
X91839523Y-61490533D02*
X91791904Y-61633390D01*
X91791904Y-61633390D02*
X91220476Y-62204819D01*
X91220476Y-62204819D02*
X91839523Y-62204819D01*
X87414580Y-59267857D02*
X87462200Y-59315476D01*
X87462200Y-59315476D02*
X87509819Y-59458333D01*
X87509819Y-59458333D02*
X87509819Y-59553571D01*
X87509819Y-59553571D02*
X87462200Y-59696428D01*
X87462200Y-59696428D02*
X87366961Y-59791666D01*
X87366961Y-59791666D02*
X87271723Y-59839285D01*
X87271723Y-59839285D02*
X87081247Y-59886904D01*
X87081247Y-59886904D02*
X86938390Y-59886904D01*
X86938390Y-59886904D02*
X86747914Y-59839285D01*
X86747914Y-59839285D02*
X86652676Y-59791666D01*
X86652676Y-59791666D02*
X86557438Y-59696428D01*
X86557438Y-59696428D02*
X86509819Y-59553571D01*
X86509819Y-59553571D02*
X86509819Y-59458333D01*
X86509819Y-59458333D02*
X86557438Y-59315476D01*
X86557438Y-59315476D02*
X86605057Y-59267857D01*
X87509819Y-58315476D02*
X87509819Y-58886904D01*
X87509819Y-58601190D02*
X86509819Y-58601190D01*
X86509819Y-58601190D02*
X86652676Y-58696428D01*
X86652676Y-58696428D02*
X86747914Y-58791666D01*
X86747914Y-58791666D02*
X86795533Y-58886904D01*
X86509819Y-57982142D02*
X86509819Y-57363095D01*
X86509819Y-57363095D02*
X86890771Y-57696428D01*
X86890771Y-57696428D02*
X86890771Y-57553571D01*
X86890771Y-57553571D02*
X86938390Y-57458333D01*
X86938390Y-57458333D02*
X86986009Y-57410714D01*
X86986009Y-57410714D02*
X87081247Y-57363095D01*
X87081247Y-57363095D02*
X87319342Y-57363095D01*
X87319342Y-57363095D02*
X87414580Y-57410714D01*
X87414580Y-57410714D02*
X87462200Y-57458333D01*
X87462200Y-57458333D02*
X87509819Y-57553571D01*
X87509819Y-57553571D02*
X87509819Y-57839285D01*
X87509819Y-57839285D02*
X87462200Y-57934523D01*
X87462200Y-57934523D02*
X87414580Y-57982142D01*
D13*
%TO.C,R1*%
X94177064Y-68010000D02*
X93722936Y-68010000D01*
X94177064Y-66540000D02*
X93722936Y-66540000D01*
%TO.C,C5*%
X93518748Y-59810000D02*
X94041252Y-59810000D01*
X93518748Y-58340000D02*
X94041252Y-58340000D01*
%TO.C,C4*%
X89891252Y-56065000D02*
X89368748Y-56065000D01*
X89891252Y-57535000D02*
X89368748Y-57535000D01*
%TO.C,C3*%
X84715000Y-61936252D02*
X84715000Y-61413748D01*
X86185000Y-61936252D02*
X86185000Y-61413748D01*
%TO.C,C2*%
X89686252Y-70035000D02*
X89163748Y-70035000D01*
X89686252Y-68565000D02*
X89163748Y-68565000D01*
%TO.C,C1*%
X89673752Y-67910000D02*
X89151248Y-67910000D01*
X89673752Y-66440000D02*
X89151248Y-66440000D01*
D11*
%TO.C,U2*%
X87365000Y-60540000D02*
G75*
G02*
X87165000Y-60540000I-100000J0D01*
G01*
X87165000Y-60540000D02*
G75*
G02*
X87365000Y-60540000I100000J0D01*
G01*
D14*
X89940000Y-60725000D02*
X93470000Y-60725000D01*
X89940000Y-65725000D02*
X93470000Y-65725000D01*
D13*
%TO.C,C13*%
X89393748Y-59785000D02*
X89916252Y-59785000D01*
X89393748Y-58315000D02*
X89916252Y-58315000D01*
%TO.C,J5*%
X100762800Y-52340200D02*
X102092800Y-52340200D01*
X100762800Y-53670200D02*
X100762800Y-52340200D01*
X100762800Y-54940200D02*
X100762800Y-72780200D01*
X100762800Y-54940200D02*
X103422800Y-54940200D01*
X100762800Y-72780200D02*
X103422800Y-72780200D01*
X103422800Y-54940200D02*
X103422800Y-72780200D01*
D15*
%TO.C,G\u002A\u002A\u002A*%
G36*
X95938671Y-52883309D02*
G01*
X96164478Y-52953457D01*
X96379172Y-53062383D01*
X96430824Y-53095939D01*
X96564872Y-53187424D01*
X96615037Y-53140296D01*
X96707406Y-53079145D01*
X96804130Y-53059742D01*
X96899757Y-53079089D01*
X96988838Y-53134187D01*
X97065922Y-53222040D01*
X97125559Y-53339649D01*
X97153681Y-53436553D01*
X97165083Y-53509441D01*
X97173015Y-53599090D01*
X97177437Y-53695580D01*
X97178313Y-53788991D01*
X97175603Y-53869404D01*
X97169270Y-53926898D01*
X97159275Y-53951553D01*
X97155658Y-53951127D01*
X97141813Y-53921496D01*
X97133667Y-53863323D01*
X97132755Y-53834053D01*
X97122668Y-53705979D01*
X97095364Y-53570529D01*
X97055274Y-53443958D01*
X97006831Y-53342519D01*
X96993052Y-53321765D01*
X96921334Y-53238372D01*
X96855981Y-53197666D01*
X96792730Y-53197775D01*
X96753796Y-53216797D01*
X96693609Y-53256233D01*
X96844942Y-53412987D01*
X96963581Y-53551496D01*
X97047840Y-53684216D01*
X97095395Y-53806614D01*
X97103921Y-53914154D01*
X97103508Y-53917422D01*
X97098357Y-53974108D01*
X97110927Y-54001721D01*
X97152583Y-54015247D01*
X97181571Y-54020346D01*
X97274352Y-54054708D01*
X97350952Y-54110547D01*
X97402667Y-54167268D01*
X97425797Y-54220984D01*
X97430501Y-54281119D01*
X97411844Y-54397479D01*
X97354146Y-54511870D01*
X97254815Y-54628963D01*
X97218190Y-54663784D01*
X97154445Y-54716416D01*
X97076554Y-54772608D01*
X96993760Y-54826739D01*
X96915305Y-54873191D01*
X96850430Y-54906345D01*
X96808377Y-54920583D01*
X96798747Y-54918802D01*
X96810978Y-54901871D01*
X96852617Y-54866540D01*
X96915080Y-54820004D01*
X96924608Y-54813278D01*
X97049507Y-54714127D01*
X97156789Y-54606520D01*
X97240758Y-54497857D01*
X97295717Y-54395535D01*
X97315971Y-54306952D01*
X97315983Y-54304997D01*
X97298850Y-54265638D01*
X97258315Y-54219283D01*
X97210677Y-54181787D01*
X97175909Y-54168711D01*
X97157771Y-54188353D01*
X97143351Y-54231695D01*
X97094270Y-54428443D01*
X97036807Y-54584507D01*
X96968346Y-54704648D01*
X96886273Y-54793624D01*
X96804862Y-54847782D01*
X96761190Y-54877072D01*
X96750144Y-54913030D01*
X96757028Y-54954529D01*
X96768485Y-55061621D01*
X96757023Y-55164658D01*
X96725911Y-55251952D01*
X96678417Y-55311815D01*
X96652993Y-55326524D01*
X96594200Y-55342649D01*
X96514376Y-55356394D01*
X96433974Y-55365035D01*
X96373448Y-55365846D01*
X96365487Y-55364822D01*
X96232071Y-55329644D01*
X96084913Y-55271797D01*
X95943955Y-55199656D01*
X95885861Y-55163422D01*
X95732467Y-55060546D01*
X95663586Y-55118506D01*
X95599629Y-55159119D01*
X95524089Y-55175227D01*
X95485033Y-55176465D01*
X95391528Y-55165502D01*
X95317125Y-55128295D01*
X95253344Y-55058371D01*
X95194208Y-54954392D01*
X95166587Y-54893605D01*
X95147904Y-54837248D01*
X95136087Y-54773333D01*
X95129067Y-54689871D01*
X95124772Y-54574874D01*
X95124092Y-54548403D01*
X95122480Y-54425126D01*
X95124804Y-54346393D01*
X95131039Y-54312602D01*
X95138550Y-54317583D01*
X95154272Y-54373318D01*
X95161443Y-54439031D01*
X95173250Y-54553197D01*
X95201018Y-54678650D01*
X95239834Y-54798532D01*
X95284788Y-54895985D01*
X95302756Y-54924042D01*
X95373075Y-55006353D01*
X95436525Y-55046557D01*
X95498031Y-55046809D01*
X95514449Y-55038816D01*
X95758544Y-55038816D01*
X95778665Y-55060972D01*
X95832353Y-55092832D01*
X95909589Y-55129998D01*
X96000359Y-55168071D01*
X96094645Y-55202652D01*
X96182432Y-55229342D01*
X96205162Y-55234959D01*
X96357487Y-55257253D01*
X96483052Y-55248368D01*
X96572491Y-55212355D01*
X96610124Y-55168632D01*
X96630230Y-55109387D01*
X96627990Y-55054467D01*
X96615884Y-55033685D01*
X96589282Y-55034173D01*
X96533264Y-55048556D01*
X96472737Y-55069121D01*
X96358011Y-55100718D01*
X96230044Y-55118194D01*
X96101407Y-55121578D01*
X95984669Y-55110902D01*
X95892400Y-55086193D01*
X95858074Y-55067674D01*
X95799839Y-55029069D01*
X95769184Y-55018062D01*
X95758823Y-55032540D01*
X95758544Y-55038816D01*
X95514449Y-55038816D01*
X95538447Y-55027133D01*
X95598862Y-54987548D01*
X95430080Y-54810886D01*
X95316130Y-54680227D01*
X95239882Y-54564312D01*
X95198260Y-54457014D01*
X95188674Y-54357226D01*
X95311675Y-54357226D01*
X95313937Y-54440117D01*
X95337550Y-54533418D01*
X95361686Y-54589104D01*
X95394532Y-54644011D01*
X95441847Y-54712450D01*
X95495896Y-54784534D01*
X95548947Y-54850376D01*
X95593266Y-54900087D01*
X95621119Y-54923780D01*
X95624036Y-54924527D01*
X95645198Y-54905997D01*
X95655828Y-54889758D01*
X95883152Y-54889758D01*
X95886354Y-54907423D01*
X95920189Y-54949660D01*
X95986282Y-54989197D01*
X96071189Y-55020263D01*
X96161464Y-55037086D01*
X96191835Y-55038541D01*
X96271438Y-55034636D01*
X96370086Y-55024041D01*
X96438047Y-55013790D01*
X96512466Y-54997378D01*
X96564783Y-54979249D01*
X96583070Y-54964338D01*
X96567457Y-54924543D01*
X96525962Y-54863354D01*
X96466607Y-54790186D01*
X96397410Y-54714451D01*
X96326392Y-54645562D01*
X96274958Y-54602687D01*
X96204469Y-54552426D01*
X96157609Y-54528331D01*
X96123843Y-54526056D01*
X96106075Y-54533038D01*
X96042057Y-54582489D01*
X95980448Y-54655337D01*
X95928557Y-54739131D01*
X95893689Y-54821422D01*
X95883152Y-54889758D01*
X95655828Y-54889758D01*
X95675656Y-54859468D01*
X95687613Y-54837265D01*
X95727587Y-54742236D01*
X95762410Y-54629733D01*
X95787975Y-54516475D01*
X95800175Y-54419180D01*
X95799866Y-54380362D01*
X95789886Y-54326023D01*
X95778040Y-54311813D01*
X96467543Y-54311813D01*
X96482561Y-54394861D01*
X96531327Y-54543434D01*
X96610611Y-54678314D01*
X96665166Y-54729006D01*
X96729012Y-54736869D01*
X96804424Y-54701747D01*
X96854142Y-54661818D01*
X96912690Y-54593467D01*
X96975579Y-54494998D01*
X97035072Y-54380480D01*
X97083431Y-54263981D01*
X97098816Y-54216981D01*
X97115009Y-54162187D01*
X96957831Y-54174292D01*
X96849355Y-54190130D01*
X96727233Y-54219137D01*
X96634098Y-54249105D01*
X96467543Y-54311813D01*
X95778040Y-54311813D01*
X95763023Y-54293799D01*
X95705758Y-54268068D01*
X95701285Y-54266469D01*
X95614318Y-54247138D01*
X95518495Y-54243440D01*
X95428495Y-54254082D01*
X95358991Y-54277772D01*
X95332209Y-54298973D01*
X95311675Y-54357226D01*
X95188674Y-54357226D01*
X95188192Y-54352205D01*
X95189633Y-54331644D01*
X95192854Y-54272521D01*
X95179942Y-54243714D01*
X95139733Y-54230004D01*
X95111403Y-54224982D01*
X95025727Y-54193375D01*
X94944855Y-54135260D01*
X94943241Y-54133489D01*
X96033386Y-54133489D01*
X96052890Y-54203345D01*
X96110412Y-54248313D01*
X96142984Y-54258775D01*
X96164536Y-54248803D01*
X96205968Y-54223335D01*
X96252081Y-54171576D01*
X96264987Y-54108754D01*
X96244935Y-54050111D01*
X96202603Y-54015143D01*
X96132774Y-54003206D01*
X96075026Y-54029859D01*
X96039629Y-54087919D01*
X96033386Y-54133489D01*
X94943241Y-54133489D01*
X94893121Y-54078503D01*
X94869992Y-54024750D01*
X94865307Y-53964865D01*
X94877804Y-53856041D01*
X94918940Y-53756573D01*
X94994178Y-53655329D01*
X95042064Y-53604774D01*
X95097699Y-53556279D01*
X95171633Y-53501397D01*
X95254741Y-53445707D01*
X95337900Y-53394786D01*
X95411983Y-53354211D01*
X95467866Y-53329562D01*
X95496424Y-53326414D01*
X95496843Y-53326787D01*
X95484543Y-53343504D01*
X95442933Y-53378079D01*
X95380926Y-53423126D01*
X95378948Y-53424491D01*
X95294001Y-53490461D01*
X95202974Y-53572536D01*
X95138880Y-53638529D01*
X95051247Y-53751825D01*
X94999381Y-53853184D01*
X94983920Y-53939256D01*
X95005501Y-54006690D01*
X95060515Y-54050266D01*
X95109113Y-54070935D01*
X95133028Y-54068145D01*
X95137530Y-54055079D01*
X95196528Y-54055079D01*
X95209945Y-54072359D01*
X95242573Y-54077086D01*
X95293204Y-54076969D01*
X95383462Y-54071242D01*
X95473187Y-54057121D01*
X95495153Y-54051803D01*
X95573942Y-54026782D01*
X95663725Y-53993473D01*
X95695559Y-53980400D01*
X95761241Y-53948697D01*
X95793829Y-53919449D01*
X95804039Y-53881744D01*
X95804351Y-53869635D01*
X95802689Y-53858106D01*
X96487912Y-53858106D01*
X96491779Y-53915402D01*
X96500213Y-53932270D01*
X96558275Y-53967749D01*
X96646191Y-53992334D01*
X96748781Y-54003503D01*
X96850863Y-53998734D01*
X96875335Y-53994595D01*
X96944585Y-53965838D01*
X96979486Y-53912200D01*
X96981147Y-53830552D01*
X96961862Y-53750994D01*
X96935223Y-53687419D01*
X96892794Y-53608595D01*
X96841029Y-53524135D01*
X96786387Y-53443651D01*
X96735324Y-53376757D01*
X96694297Y-53333068D01*
X96673246Y-53321280D01*
X96643905Y-53342271D01*
X96610783Y-53398552D01*
X96576720Y-53480090D01*
X96544560Y-53576848D01*
X96517144Y-53678794D01*
X96497314Y-53775891D01*
X96487912Y-53858106D01*
X95802689Y-53858106D01*
X95791625Y-53781359D01*
X95757960Y-53690020D01*
X95710126Y-53606610D01*
X95654890Y-53542116D01*
X95599021Y-53507527D01*
X95579442Y-53504509D01*
X95522874Y-53523587D01*
X95455085Y-53574577D01*
X95384708Y-53648108D01*
X95320376Y-53734809D01*
X95270722Y-53825312D01*
X95260323Y-53850873D01*
X95222837Y-53952042D01*
X95201198Y-54017542D01*
X95196528Y-54055079D01*
X95137530Y-54055079D01*
X95144879Y-54033751D01*
X95151988Y-53991208D01*
X95178230Y-53878564D01*
X95219768Y-53753315D01*
X95269357Y-53634859D01*
X95319194Y-53543440D01*
X95377158Y-53476550D01*
X95448430Y-53420244D01*
X95466129Y-53410175D01*
X95521810Y-53377106D01*
X95542831Y-53347944D01*
X95539338Y-53316168D01*
X95534321Y-53283550D01*
X95712751Y-53283550D01*
X95729183Y-53325571D01*
X95773035Y-53388204D01*
X95836189Y-53463160D01*
X95910526Y-53542149D01*
X95987930Y-53616881D01*
X96060282Y-53679066D01*
X96119463Y-53720416D01*
X96152866Y-53732976D01*
X96177078Y-53718399D01*
X96221168Y-53680463D01*
X96253121Y-53649703D01*
X96321778Y-53568269D01*
X96373600Y-53482071D01*
X96403614Y-53402016D01*
X96406851Y-53339008D01*
X96401462Y-53324307D01*
X96358077Y-53281958D01*
X96283633Y-53244450D01*
X96192869Y-53217487D01*
X96100523Y-53206774D01*
X96097783Y-53206763D01*
X96012149Y-53210942D01*
X95920299Y-53221976D01*
X95833528Y-53237613D01*
X95763133Y-53255600D01*
X95720407Y-53273685D01*
X95712751Y-53283550D01*
X95534321Y-53283550D01*
X95525899Y-53228794D01*
X95529969Y-53141261D01*
X95666910Y-53141261D01*
X95669047Y-53193112D01*
X95678233Y-53210431D01*
X95703836Y-53209276D01*
X95761184Y-53195887D01*
X95838742Y-53173036D01*
X95853007Y-53168442D01*
X95992588Y-53132911D01*
X96127944Y-53115934D01*
X96158472Y-53115149D01*
X96273796Y-53123681D01*
X96372408Y-53153250D01*
X96413138Y-53172312D01*
X96481657Y-53206892D01*
X96518791Y-53223829D01*
X96534133Y-53225951D01*
X96537275Y-53216088D01*
X96537263Y-53208922D01*
X96517231Y-53187588D01*
X96463736Y-53155940D01*
X96386677Y-53118422D01*
X96295955Y-53079477D01*
X96201472Y-53043550D01*
X96113127Y-53015085D01*
X96093611Y-53009773D01*
X95967289Y-52987852D01*
X95851597Y-52988024D01*
X95757717Y-53009447D01*
X95708685Y-53038653D01*
X95681399Y-53082571D01*
X95666910Y-53141261D01*
X95529969Y-53141261D01*
X95530587Y-53127965D01*
X95551350Y-53036452D01*
X95567835Y-53000076D01*
X95631100Y-52934826D01*
X95724197Y-52891509D01*
X95834868Y-52873986D01*
X95938671Y-52883309D01*
G37*
D13*
%TO.C,J4*%
X80737400Y-52340200D02*
X82067400Y-52340200D01*
X80737400Y-53670200D02*
X80737400Y-52340200D01*
X80737400Y-54940200D02*
X80737400Y-72780200D01*
X80737400Y-54940200D02*
X83397400Y-54940200D01*
X80737400Y-72780200D02*
X83397400Y-72780200D01*
X83397400Y-54940200D02*
X83397400Y-72780200D01*
%TD*%
M02*
