%TF.GenerationSoftware,KiCad,Pcbnew,8.0.2*%
%TF.CreationDate,2024-07-15T23:49:25-06:00*%
%TF.ProjectId,2024_NE555_ChargePump,32303234-5f4e-4453-9535-355f43686172,rev?*%
%TF.SameCoordinates,Original*%
%TF.FileFunction,Paste,Top*%
%TF.FilePolarity,Positive*%
%FSLAX46Y46*%
G04 Gerber Fmt 4.6, Leading zero omitted, Abs format (unit mm)*
G04 Created by KiCad (PCBNEW 8.0.2) date 2024-07-15 23:49:25*
%MOMM*%
%LPD*%
G01*
G04 APERTURE LIST*
G04 Aperture macros list*
%AMRoundRect*
0 Rectangle with rounded corners*
0 $1 Rounding radius*
0 $2 $3 $4 $5 $6 $7 $8 $9 X,Y pos of 4 corners*
0 Add a 4 corners polygon primitive as box body*
4,1,4,$2,$3,$4,$5,$6,$7,$8,$9,$2,$3,0*
0 Add four circle primitives for the rounded corners*
1,1,$1+$1,$2,$3*
1,1,$1+$1,$4,$5*
1,1,$1+$1,$6,$7*
1,1,$1+$1,$8,$9*
0 Add four rect primitives between the rounded corners*
20,1,$1+$1,$2,$3,$4,$5,0*
20,1,$1+$1,$4,$5,$6,$7,0*
20,1,$1+$1,$6,$7,$8,$9,0*
20,1,$1+$1,$8,$9,$2,$3,0*%
G04 Aperture macros list end*
%ADD10RoundRect,0.150000X-0.587500X-0.150000X0.587500X-0.150000X0.587500X0.150000X-0.587500X0.150000X0*%
%ADD11RoundRect,0.250000X0.850000X0.500000X-0.850000X0.500000X-0.850000X-0.500000X0.850000X-0.500000X0*%
%ADD12RoundRect,0.250000X-0.500000X0.850000X-0.500000X-0.850000X0.500000X-0.850000X0.500000X0.850000X0*%
%ADD13RoundRect,0.250000X-0.650000X0.412500X-0.650000X-0.412500X0.650000X-0.412500X0.650000X0.412500X0*%
%ADD14RoundRect,0.250000X0.650000X-0.412500X0.650000X0.412500X-0.650000X0.412500X-0.650000X-0.412500X0*%
%ADD15RoundRect,0.250000X0.412500X0.650000X-0.412500X0.650000X-0.412500X-0.650000X0.412500X-0.650000X0*%
%ADD16RoundRect,0.250000X-0.450000X0.350000X-0.450000X-0.350000X0.450000X-0.350000X0.450000X0.350000X0*%
%ADD17RoundRect,0.250000X0.450000X-0.350000X0.450000X0.350000X-0.450000X0.350000X-0.450000X-0.350000X0*%
%ADD18RoundRect,0.250000X-0.337500X-0.475000X0.337500X-0.475000X0.337500X0.475000X-0.337500X0.475000X0*%
%ADD19RoundRect,0.250000X-0.350000X-0.450000X0.350000X-0.450000X0.350000X0.450000X-0.350000X0.450000X0*%
%ADD20RoundRect,0.150000X0.825000X0.150000X-0.825000X0.150000X-0.825000X-0.150000X0.825000X-0.150000X0*%
%ADD21RoundRect,0.250001X-0.624999X0.462499X-0.624999X-0.462499X0.624999X-0.462499X0.624999X0.462499X0*%
G04 APERTURE END LIST*
D10*
%TO.C,Q1*%
X124921800Y-68366600D03*
X124921800Y-70266600D03*
X126796800Y-69316600D03*
%TD*%
D11*
%TO.C,D12*%
X172087200Y-74041000D03*
X169187200Y-74041000D03*
%TD*%
%TO.C,D11*%
X168150200Y-70205600D03*
X165250200Y-70205600D03*
%TD*%
%TO.C,D10*%
X164670400Y-74041000D03*
X161770400Y-74041000D03*
%TD*%
%TO.C,D9*%
X160631800Y-70205600D03*
X157731800Y-70205600D03*
%TD*%
%TO.C,D8*%
X157126600Y-74015600D03*
X154226600Y-74015600D03*
%TD*%
%TO.C,D7*%
X153088000Y-70332600D03*
X150188000Y-70332600D03*
%TD*%
%TO.C,D6*%
X149545000Y-74015600D03*
X146645000Y-74015600D03*
%TD*%
%TO.C,D5*%
X145696600Y-70307200D03*
X142796600Y-70307200D03*
%TD*%
%TO.C,D4*%
X141988200Y-74015600D03*
X139088200Y-74015600D03*
%TD*%
%TO.C,D3*%
X138165200Y-70307200D03*
X135265200Y-70307200D03*
%TD*%
D12*
%TO.C,D1*%
X132740400Y-74788400D03*
X132740400Y-77688400D03*
%TD*%
D13*
%TO.C,C5*%
X138074400Y-77240600D03*
X138074400Y-80365600D03*
%TD*%
D14*
%TO.C,C9*%
X149148800Y-67323100D03*
X149148800Y-64198100D03*
%TD*%
D15*
%TO.C,C8*%
X177051100Y-68021200D03*
X173926100Y-68021200D03*
%TD*%
D13*
%TO.C,C14*%
X168173400Y-77075900D03*
X168173400Y-80200900D03*
%TD*%
D16*
%TO.C,R3*%
X120650000Y-63922400D03*
X120650000Y-65922400D03*
%TD*%
D13*
%TO.C,C7*%
X145745200Y-77152100D03*
X145745200Y-80277100D03*
%TD*%
D17*
%TO.C,R4*%
X112572800Y-76666600D03*
X112572800Y-74666600D03*
%TD*%
D18*
%TO.C,C1*%
X109884300Y-65125600D03*
X111959300Y-65125600D03*
%TD*%
D14*
%TO.C,C6*%
X141833600Y-67246900D03*
X141833600Y-64121900D03*
%TD*%
D19*
%TO.C,R1*%
X124864800Y-72618600D03*
X126864800Y-72618600D03*
%TD*%
D14*
%TO.C,C11*%
X156718000Y-67208400D03*
X156718000Y-64083400D03*
%TD*%
D18*
%TO.C,C2*%
X117631300Y-71501000D03*
X119706300Y-71501000D03*
%TD*%
D20*
%TO.C,U1*%
X114844600Y-71142400D03*
X114844600Y-69872400D03*
X114844600Y-68602400D03*
X114844600Y-67332400D03*
X109894600Y-67332400D03*
X109894600Y-68602400D03*
X109894600Y-69872400D03*
X109894600Y-71142400D03*
%TD*%
D15*
%TO.C,C3*%
X109969700Y-73660000D03*
X106844700Y-73660000D03*
%TD*%
D13*
%TO.C,C10*%
X153263600Y-77075900D03*
X153263600Y-80200900D03*
%TD*%
%TO.C,C12*%
X160807400Y-77126700D03*
X160807400Y-80251700D03*
%TD*%
D14*
%TO.C,C4*%
X134391400Y-67221500D03*
X134391400Y-64096500D03*
%TD*%
D21*
%TO.C,D2*%
X118008400Y-64044500D03*
X118008400Y-67019500D03*
%TD*%
D14*
%TO.C,C13*%
X164287200Y-67196100D03*
X164287200Y-64071100D03*
%TD*%
M02*
