%TF.GenerationSoftware,KiCad,Pcbnew,8.0.2*%
%TF.CreationDate,2024-06-27T01:20:11-06:00*%
%TF.ProjectId,2024_NE555_ChargePump,32303234-5f4e-4453-9535-355f43686172,rev?*%
%TF.SameCoordinates,Original*%
%TF.FileFunction,Copper,L1,Top*%
%TF.FilePolarity,Positive*%
%FSLAX46Y46*%
G04 Gerber Fmt 4.6, Leading zero omitted, Abs format (unit mm)*
G04 Created by KiCad (PCBNEW 8.0.2) date 2024-06-27 01:20:11*
%MOMM*%
%LPD*%
G01*
G04 APERTURE LIST*
G04 Aperture macros list*
%AMRoundRect*
0 Rectangle with rounded corners*
0 $1 Rounding radius*
0 $2 $3 $4 $5 $6 $7 $8 $9 X,Y pos of 4 corners*
0 Add a 4 corners polygon primitive as box body*
4,1,4,$2,$3,$4,$5,$6,$7,$8,$9,$2,$3,0*
0 Add four circle primitives for the rounded corners*
1,1,$1+$1,$2,$3*
1,1,$1+$1,$4,$5*
1,1,$1+$1,$6,$7*
1,1,$1+$1,$8,$9*
0 Add four rect primitives between the rounded corners*
20,1,$1+$1,$2,$3,$4,$5,0*
20,1,$1+$1,$4,$5,$6,$7,0*
20,1,$1+$1,$6,$7,$8,$9,0*
20,1,$1+$1,$8,$9,$2,$3,0*%
%AMFreePoly0*
4,1,19,0.550000,-0.750000,0.000000,-0.750000,0.000000,-0.744911,-0.071157,-0.744911,-0.207708,-0.704816,-0.327430,-0.627875,-0.420627,-0.520320,-0.479746,-0.390866,-0.500000,-0.250000,-0.500000,0.250000,-0.479746,0.390866,-0.420627,0.520320,-0.327430,0.627875,-0.207708,0.704816,-0.071157,0.744911,0.000000,0.744911,0.000000,0.750000,0.550000,0.750000,0.550000,-0.750000,0.550000,-0.750000,
$1*%
%AMFreePoly1*
4,1,19,0.000000,0.744911,0.071157,0.744911,0.207708,0.704816,0.327430,0.627875,0.420627,0.520320,0.479746,0.390866,0.500000,0.250000,0.500000,-0.250000,0.479746,-0.390866,0.420627,-0.520320,0.327430,-0.627875,0.207708,-0.704816,0.071157,-0.744911,0.000000,-0.744911,0.000000,-0.750000,-0.550000,-0.750000,-0.550000,0.750000,0.000000,0.750000,0.000000,0.744911,0.000000,0.744911,
$1*%
G04 Aperture macros list end*
%TA.AperFunction,ComponentPad*%
%ADD10R,1.700000X1.700000*%
%TD*%
%TA.AperFunction,ComponentPad*%
%ADD11O,1.700000X1.700000*%
%TD*%
%TA.AperFunction,SMDPad,CuDef*%
%ADD12FreePoly0,270.000000*%
%TD*%
%TA.AperFunction,SMDPad,CuDef*%
%ADD13R,1.500000X1.000000*%
%TD*%
%TA.AperFunction,SMDPad,CuDef*%
%ADD14FreePoly1,270.000000*%
%TD*%
%TA.AperFunction,SMDPad,CuDef*%
%ADD15RoundRect,0.250000X0.500000X1.100000X-0.500000X1.100000X-0.500000X-1.100000X0.500000X-1.100000X0*%
%TD*%
%TA.AperFunction,SMDPad,CuDef*%
%ADD16RoundRect,0.250000X-0.650000X0.412500X-0.650000X-0.412500X0.650000X-0.412500X0.650000X0.412500X0*%
%TD*%
%TA.AperFunction,SMDPad,CuDef*%
%ADD17RoundRect,0.250000X0.650000X-0.412500X0.650000X0.412500X-0.650000X0.412500X-0.650000X-0.412500X0*%
%TD*%
%TA.AperFunction,SMDPad,CuDef*%
%ADD18RoundRect,0.250000X0.412500X0.650000X-0.412500X0.650000X-0.412500X-0.650000X0.412500X-0.650000X0*%
%TD*%
%TA.AperFunction,SMDPad,CuDef*%
%ADD19RoundRect,0.250000X-0.450000X0.350000X-0.450000X-0.350000X0.450000X-0.350000X0.450000X0.350000X0*%
%TD*%
%TA.AperFunction,ComponentPad*%
%ADD20R,3.000000X3.000000*%
%TD*%
%TA.AperFunction,ComponentPad*%
%ADD21C,3.000000*%
%TD*%
%TA.AperFunction,SMDPad,CuDef*%
%ADD22RoundRect,0.250000X0.450000X-0.350000X0.450000X0.350000X-0.450000X0.350000X-0.450000X-0.350000X0*%
%TD*%
%TA.AperFunction,SMDPad,CuDef*%
%ADD23RoundRect,0.250000X-0.337500X-0.475000X0.337500X-0.475000X0.337500X0.475000X-0.337500X0.475000X0*%
%TD*%
%TA.AperFunction,SMDPad,CuDef*%
%ADD24RoundRect,0.250000X-0.350000X-0.450000X0.350000X-0.450000X0.350000X0.450000X-0.350000X0.450000X0*%
%TD*%
%TA.AperFunction,SMDPad,CuDef*%
%ADD25RoundRect,0.250000X-1.100000X0.500000X-1.100000X-0.500000X1.100000X-0.500000X1.100000X0.500000X0*%
%TD*%
%TA.AperFunction,ComponentPad*%
%ADD26R,1.222000X1.222000*%
%TD*%
%TA.AperFunction,ComponentPad*%
%ADD27C,1.222000*%
%TD*%
%TA.AperFunction,SMDPad,CuDef*%
%ADD28RoundRect,0.150000X0.825000X0.150000X-0.825000X0.150000X-0.825000X-0.150000X0.825000X-0.150000X0*%
%TD*%
%TA.AperFunction,SMDPad,CuDef*%
%ADD29R,1.400000X1.000000*%
%TD*%
%TA.AperFunction,SMDPad,CuDef*%
%ADD30RoundRect,0.250001X-0.624999X0.462499X-0.624999X-0.462499X0.624999X-0.462499X0.624999X0.462499X0*%
%TD*%
%TA.AperFunction,ViaPad*%
%ADD31C,0.600000*%
%TD*%
%TA.AperFunction,Conductor*%
%ADD32C,0.381000*%
%TD*%
G04 APERTURE END LIST*
D10*
%TO.P,J3,1,Pin_1*%
%TO.N,/Charge_Out*%
X152237600Y-86938000D03*
D11*
%TO.P,J3,2,Pin_2*%
%TO.N,GND*%
X149697600Y-86938000D03*
%TO.P,J3,3,Pin_3*%
%TO.N,/SQUARE_2*%
X147157600Y-86938000D03*
%TO.P,J3,4,Pin_4*%
%TO.N,/SQUARE_1*%
X144617600Y-86938000D03*
%TD*%
D12*
%TO.P,JP1,1,A*%
%TO.N,Net-(J2-Pin_1)*%
X176951900Y-72461600D03*
D13*
%TO.P,JP1,2,C*%
%TO.N,Net-(D12-K)*%
X176951900Y-73761600D03*
D14*
%TO.P,JP1,3,B*%
%TO.N,/Charge_Out*%
X176951900Y-75061600D03*
%TD*%
D15*
%TO.P,D12,2,A*%
%TO.N,Net-(D11-K)*%
X168237200Y-74041000D03*
%TO.P,D12,1,K*%
%TO.N,Net-(D12-K)*%
X173037200Y-74041000D03*
%TD*%
%TO.P,D7,1,K*%
%TO.N,Net-(D7-K)*%
X154038000Y-70332600D03*
%TO.P,D7,2,A*%
%TO.N,Net-(D6-K)*%
X149238000Y-70332600D03*
%TD*%
D16*
%TO.P,C14,2*%
%TO.N,/SQUARE_2*%
X168173400Y-80200900D03*
%TO.P,C14,1*%
%TO.N,Net-(D11-K)*%
X168173400Y-77075900D03*
%TD*%
D15*
%TO.P,D11,2,A*%
%TO.N,Net-(D10-K)*%
X164300200Y-70205600D03*
%TO.P,D11,1,K*%
%TO.N,Net-(D11-K)*%
X169100200Y-70205600D03*
%TD*%
%TO.P,D10,2,A*%
%TO.N,Net-(D10-A)*%
X160820400Y-74041000D03*
%TO.P,D10,1,K*%
%TO.N,Net-(D10-K)*%
X165620400Y-74041000D03*
%TD*%
%TO.P,D9,2,A*%
%TO.N,Net-(D8-K)*%
X156781800Y-70205600D03*
%TO.P,D9,1,K*%
%TO.N,Net-(D10-A)*%
X161581800Y-70205600D03*
%TD*%
%TO.P,D8,1,K*%
%TO.N,Net-(D8-K)*%
X158076600Y-74015600D03*
%TO.P,D8,2,A*%
%TO.N,Net-(D7-K)*%
X153276600Y-74015600D03*
%TD*%
D17*
%TO.P,C13,1*%
%TO.N,Net-(D10-K)*%
X164287200Y-67196100D03*
%TO.P,C13,2*%
%TO.N,/SQUARE_1*%
X164287200Y-64071100D03*
%TD*%
D16*
%TO.P,C12,1*%
%TO.N,Net-(D10-A)*%
X160807400Y-77126700D03*
%TO.P,C12,2*%
%TO.N,/SQUARE_2*%
X160807400Y-80251700D03*
%TD*%
D17*
%TO.P,C11,1*%
%TO.N,Net-(D8-K)*%
X156718000Y-67208400D03*
%TO.P,C11,2*%
%TO.N,/SQUARE_1*%
X156718000Y-64083400D03*
%TD*%
D16*
%TO.P,C10,1*%
%TO.N,Net-(D7-K)*%
X153263600Y-77075900D03*
%TO.P,C10,2*%
%TO.N,/SQUARE_2*%
X153263600Y-80200900D03*
%TD*%
D17*
%TO.P,C9,1*%
%TO.N,Net-(D6-K)*%
X149148800Y-67323100D03*
%TO.P,C9,2*%
%TO.N,/SQUARE_1*%
X149148800Y-64198100D03*
%TD*%
D15*
%TO.P,D4,1,K*%
%TO.N,Net-(D4-K)*%
X142938200Y-74015600D03*
%TO.P,D4,2,A*%
%TO.N,Net-(D3-K)*%
X138138200Y-74015600D03*
%TD*%
D16*
%TO.P,C5,1*%
%TO.N,Net-(D3-K)*%
X138074400Y-77240600D03*
%TO.P,C5,2*%
%TO.N,/SQUARE_2*%
X138074400Y-80365600D03*
%TD*%
D18*
%TO.P,C8,2*%
%TO.N,GND*%
X173926100Y-68021200D03*
%TO.P,C8,1*%
%TO.N,Net-(J2-Pin_1)*%
X177051100Y-68021200D03*
%TD*%
D19*
%TO.P,R3,1*%
%TO.N,Net-(D2-K)*%
X120650000Y-63922400D03*
%TO.P,R3,2*%
%TO.N,GND*%
X120650000Y-65922400D03*
%TD*%
D10*
%TO.P,J2,1,Pin_1*%
%TO.N,Net-(J2-Pin_1)*%
X176687400Y-63957200D03*
D11*
%TO.P,J2,2,Pin_2*%
%TO.N,GND*%
X174147400Y-63957200D03*
%TD*%
D15*
%TO.P,D6,1,K*%
%TO.N,Net-(D6-K)*%
X150495000Y-74015600D03*
%TO.P,D6,2,A*%
%TO.N,Net-(D5-K)*%
X145695000Y-74015600D03*
%TD*%
D16*
%TO.P,C7,1*%
%TO.N,Net-(D5-K)*%
X145745200Y-77152100D03*
%TO.P,C7,2*%
%TO.N,/SQUARE_2*%
X145745200Y-80277100D03*
%TD*%
D20*
%TO.P,J1,1,Pin_1*%
%TO.N,GND*%
X100711000Y-66141600D03*
D21*
%TO.P,J1,2,Pin_2*%
%TO.N,VCC*%
X100711000Y-71221600D03*
%TD*%
D22*
%TO.P,R4,1*%
%TO.N,VCC*%
X112572800Y-76666600D03*
%TO.P,R4,2*%
%TO.N,/DIS*%
X112572800Y-74666600D03*
%TD*%
D23*
%TO.P,C1,1*%
%TO.N,Net-(U1-CV)*%
X109884300Y-65125600D03*
%TO.P,C1,2*%
%TO.N,GND*%
X111959300Y-65125600D03*
%TD*%
D15*
%TO.P,D5,1,K*%
%TO.N,Net-(D5-K)*%
X146646600Y-70307200D03*
%TO.P,D5,2,A*%
%TO.N,Net-(D4-K)*%
X141846600Y-70307200D03*
%TD*%
D17*
%TO.P,C6,1*%
%TO.N,Net-(D4-K)*%
X141833600Y-67246900D03*
%TO.P,C6,2*%
%TO.N,/SQUARE_1*%
X141833600Y-64121900D03*
%TD*%
D24*
%TO.P,R1,1*%
%TO.N,VCC*%
X124864800Y-72618600D03*
%TO.P,R1,2*%
%TO.N,/SQUARE_2*%
X126864800Y-72618600D03*
%TD*%
D23*
%TO.P,C2,1*%
%TO.N,/THR*%
X117631300Y-71501000D03*
%TO.P,C2,2*%
%TO.N,GND*%
X119706300Y-71501000D03*
%TD*%
D25*
%TO.P,D1,2,A*%
%TO.N,VCC*%
X132740400Y-78638400D03*
%TO.P,D1,1,K*%
%TO.N,Net-(D1-K)*%
X132740400Y-73838400D03*
%TD*%
D26*
%TO.P,RV1,1,1*%
%TO.N,/DIS*%
X117703600Y-79070200D03*
D27*
%TO.P,RV1,2,2*%
X115163600Y-76530200D03*
%TO.P,RV1,3,3*%
%TO.N,/THR*%
X117703600Y-73990200D03*
%TD*%
D28*
%TO.P,U1,1,GND*%
%TO.N,GND*%
X114844600Y-71142400D03*
%TO.P,U1,2,TR*%
%TO.N,/THR*%
X114844600Y-69872400D03*
%TO.P,U1,3,Q*%
%TO.N,/SQUARE_1*%
X114844600Y-68602400D03*
%TO.P,U1,4,R*%
%TO.N,VCC*%
X114844600Y-67332400D03*
%TO.P,U1,5,CV*%
%TO.N,Net-(U1-CV)*%
X109894600Y-67332400D03*
%TO.P,U1,6,THR*%
%TO.N,/THR*%
X109894600Y-68602400D03*
%TO.P,U1,7,DIS*%
%TO.N,/DIS*%
X109894600Y-69872400D03*
%TO.P,U1,8,VCC*%
%TO.N,VCC*%
X109894600Y-71142400D03*
%TD*%
D18*
%TO.P,C3,1*%
%TO.N,VCC*%
X109969700Y-73660000D03*
%TO.P,C3,2*%
%TO.N,GND*%
X106844700Y-73660000D03*
%TD*%
D15*
%TO.P,D3,1,K*%
%TO.N,Net-(D3-K)*%
X139115200Y-70307200D03*
%TO.P,D3,2,A*%
%TO.N,Net-(D1-K)*%
X134315200Y-70307200D03*
%TD*%
D17*
%TO.P,C4,1*%
%TO.N,Net-(D1-K)*%
X134391400Y-67221500D03*
%TO.P,C4,2*%
%TO.N,/SQUARE_1*%
X134391400Y-64096500D03*
%TD*%
D29*
%TO.P,Q1,B*%
%TO.N,/SQUARE_1*%
X124714000Y-68493600D03*
%TO.P,Q1,C*%
%TO.N,/SQUARE_2*%
X126914000Y-69443600D03*
%TO.P,Q1,E*%
%TO.N,GND*%
X124714000Y-70393600D03*
%TD*%
D30*
%TO.P,D2,1,K*%
%TO.N,Net-(D2-K)*%
X118008400Y-64044500D03*
%TO.P,D2,2,A*%
%TO.N,/SQUARE_1*%
X118008400Y-67019500D03*
%TD*%
D31*
%TO.N,VCC*%
X130149600Y-81153000D03*
X130175000Y-79552800D03*
X125425200Y-81610200D03*
X125425200Y-83337400D03*
%TO.N,GND*%
X123672600Y-70383400D03*
X111048800Y-65125600D03*
X120624600Y-71501000D03*
X121691400Y-65938400D03*
X113512600Y-71145400D03*
X107873800Y-73660000D03*
X174955200Y-68021200D03*
%TD*%
D32*
%TO.N,VCC*%
X130149600Y-81153000D02*
X125882400Y-81153000D01*
X125882400Y-81153000D02*
X125425200Y-81610200D01*
X131089400Y-78638400D02*
X130175000Y-79552800D01*
X132740400Y-78638400D02*
X131089400Y-78638400D01*
%TO.N,/SQUARE_2*%
X128219200Y-79324200D02*
X129260600Y-80365600D01*
X128219200Y-72745600D02*
X128219200Y-79324200D01*
X128092200Y-72618600D02*
X128219200Y-72745600D01*
X126864800Y-72618600D02*
X128092200Y-72618600D01*
X129260600Y-80365600D02*
X138074400Y-80365600D01*
%TO.N,VCC*%
X124841000Y-72642400D02*
X124864800Y-72618600D01*
X124841000Y-75234800D02*
X124841000Y-72642400D01*
X125425200Y-75819000D02*
X124841000Y-75234800D01*
X125425200Y-81610200D02*
X125425200Y-75819000D01*
X125425200Y-83870800D02*
X125425200Y-83337400D01*
X124637800Y-84658200D02*
X125425200Y-83870800D01*
X114249200Y-84658200D02*
X124637800Y-84658200D01*
X113919000Y-84328000D02*
X114249200Y-84658200D01*
X112572800Y-82981800D02*
X113919000Y-84328000D01*
X112572800Y-76666600D02*
X112572800Y-82981800D01*
%TO.N,GND*%
X123682800Y-70393600D02*
X123672600Y-70383400D01*
X124714000Y-70393600D02*
X123682800Y-70393600D01*
X113515600Y-71142400D02*
X113512600Y-71145400D01*
X114844600Y-71142400D02*
X113515600Y-71142400D01*
X111048800Y-65125600D02*
X111959300Y-65125600D01*
X121675400Y-65922400D02*
X120650000Y-65922400D01*
X121691400Y-65938400D02*
X121675400Y-65922400D01*
X120624600Y-71501000D02*
X119706300Y-71501000D01*
X106844700Y-73660000D02*
X107873800Y-73660000D01*
%TO.N,/Charge_Out*%
X176951900Y-83474300D02*
X176951900Y-75061600D01*
X152237600Y-86938000D02*
X173488200Y-86938000D01*
X173488200Y-86938000D02*
X176951900Y-83474300D01*
%TO.N,GND*%
X173926100Y-68021200D02*
X174955200Y-68021200D01*
%TO.N,/SQUARE_1*%
X122758200Y-69923200D02*
X121437400Y-68602400D01*
X121437400Y-68602400D02*
X124605200Y-68602400D01*
X143510000Y-82473800D02*
X124460000Y-82473800D01*
X122758200Y-80772000D02*
X122758200Y-69923200D01*
X124460000Y-82473800D02*
X122758200Y-80772000D01*
X144617600Y-86938000D02*
X144617600Y-83581400D01*
X144617600Y-83581400D02*
X143510000Y-82473800D01*
X118618000Y-68602400D02*
X121437400Y-68602400D01*
%TO.N,/SQUARE_2*%
X126914000Y-72569400D02*
X126864800Y-72618600D01*
X126914000Y-69443600D02*
X126914000Y-72569400D01*
%TO.N,Net-(D1-K)*%
X132740400Y-70916800D02*
X133350000Y-70307200D01*
X132740400Y-73838400D02*
X132740400Y-70916800D01*
X133350000Y-70307200D02*
X134315200Y-70307200D01*
%TO.N,/SQUARE_1*%
X126238000Y-64135000D02*
X134352900Y-64135000D01*
X124714000Y-65659000D02*
X126238000Y-64135000D01*
X134352900Y-64135000D02*
X134391400Y-64096500D01*
X124714000Y-68493600D02*
X124714000Y-65659000D01*
%TO.N,Net-(D2-K)*%
X118130500Y-63922400D02*
X118008400Y-64044500D01*
X120650000Y-63922400D02*
X118130500Y-63922400D01*
%TO.N,/SQUARE_1*%
X118008400Y-67019500D02*
X118008400Y-67992800D01*
X114844600Y-68602400D02*
X118618000Y-68602400D01*
X118008400Y-67992800D02*
X118618000Y-68602400D01*
X124605200Y-68602400D02*
X124714000Y-68493600D01*
X156730300Y-64071100D02*
X164287200Y-64071100D01*
X156718000Y-64083400D02*
X156730300Y-64071100D01*
X149148800Y-64198100D02*
X156603300Y-64198100D01*
X156603300Y-64198100D02*
X156718000Y-64083400D01*
X149072600Y-64121900D02*
X149148800Y-64198100D01*
X141833600Y-64121900D02*
X149072600Y-64121900D01*
X134391400Y-64096500D02*
X141808200Y-64096500D01*
X141808200Y-64096500D02*
X141833600Y-64121900D01*
%TO.N,/SQUARE_2*%
X145745200Y-81864200D02*
X145745200Y-80277100D01*
X147157600Y-86938000D02*
X147157600Y-83276600D01*
X147157600Y-83276600D02*
X145745200Y-81864200D01*
X145656700Y-80365600D02*
X145745200Y-80277100D01*
X138074400Y-80365600D02*
X145656700Y-80365600D01*
X160858200Y-80200900D02*
X160807400Y-80251700D01*
X168173400Y-80200900D02*
X160858200Y-80200900D01*
X160756600Y-80200900D02*
X160807400Y-80251700D01*
X153263600Y-80200900D02*
X160756600Y-80200900D01*
X153187400Y-80277100D02*
X153263600Y-80200900D01*
X145745200Y-80277100D02*
X153187400Y-80277100D01*
%TO.N,Net-(J2-Pin_1)*%
X177051100Y-68021200D02*
X177051100Y-64320900D01*
X177051100Y-64320900D02*
X176687400Y-63957200D01*
X176951900Y-68120400D02*
X177051100Y-68021200D01*
X176951900Y-72461600D02*
X176951900Y-68120400D01*
%TO.N,Net-(D12-K)*%
X176951900Y-73761600D02*
X173316600Y-73761600D01*
X173316600Y-73761600D02*
X173037200Y-74041000D01*
%TO.N,Net-(D11-K)*%
X168173400Y-74104800D02*
X168237200Y-74041000D01*
X168173400Y-77075900D02*
X168173400Y-74104800D01*
X168237200Y-71068600D02*
X169100200Y-70205600D01*
X168237200Y-74041000D02*
X168237200Y-71068600D01*
%TO.N,Net-(D10-K)*%
X164300200Y-72720800D02*
X164300200Y-70205600D01*
X165620400Y-74041000D02*
X164300200Y-72720800D01*
X164300200Y-67209100D02*
X164287200Y-67196100D01*
X164300200Y-70205600D02*
X164300200Y-67209100D01*
%TO.N,Net-(D10-A)*%
X160807400Y-74054000D02*
X160820400Y-74041000D01*
X160807400Y-77126700D02*
X160807400Y-74054000D01*
X161581800Y-70205600D02*
X160820400Y-70967000D01*
X160820400Y-70967000D02*
X160820400Y-74041000D01*
%TO.N,Net-(D8-K)*%
X156781800Y-72720800D02*
X156781800Y-70205600D01*
X158076600Y-74015600D02*
X156781800Y-72720800D01*
X156781800Y-70205600D02*
X156781800Y-67272200D01*
X156781800Y-67272200D02*
X156718000Y-67208400D01*
%TO.N,Net-(D7-K)*%
X153263600Y-74028600D02*
X153276600Y-74015600D01*
X153263600Y-77075900D02*
X153263600Y-74028600D01*
X153276600Y-71094000D02*
X153276600Y-74015600D01*
X154038000Y-70332600D02*
X153276600Y-71094000D01*
%TO.N,Net-(D6-K)*%
X150495000Y-74015600D02*
X149238000Y-72758600D01*
X149238000Y-72758600D02*
X149238000Y-70332600D01*
X149238000Y-67412300D02*
X149148800Y-67323100D01*
X149238000Y-70332600D02*
X149238000Y-67412300D01*
%TO.N,Net-(D5-K)*%
X146646600Y-70307200D02*
X145695000Y-71258800D01*
X145695000Y-71258800D02*
X145695000Y-74015600D01*
X145695000Y-77101900D02*
X145745200Y-77152100D01*
X145695000Y-74015600D02*
X145695000Y-77101900D01*
%TO.N,Net-(D1-K)*%
X134315200Y-70307200D02*
X134315200Y-67297700D01*
X134315200Y-67297700D02*
X134391400Y-67221500D01*
%TO.N,Net-(D3-K)*%
X138138200Y-71284200D02*
X139115200Y-70307200D01*
X138138200Y-74015600D02*
X138138200Y-71284200D01*
%TO.N,Net-(D4-K)*%
X141846600Y-72924000D02*
X141846600Y-70307200D01*
X142938200Y-74015600D02*
X141846600Y-72924000D01*
X141846600Y-67259900D02*
X141833600Y-67246900D01*
X141846600Y-70307200D02*
X141846600Y-67259900D01*
%TO.N,Net-(D3-K)*%
X138074400Y-77240600D02*
X138074400Y-74079400D01*
X138074400Y-74079400D02*
X138138200Y-74015600D01*
%TO.N,/DIS*%
X115163600Y-78613000D02*
X115163600Y-76530200D01*
X115620800Y-79070200D02*
X115163600Y-78613000D01*
X117703600Y-79070200D02*
X115620800Y-79070200D01*
X115163600Y-74853800D02*
X115163600Y-76530200D01*
X114976400Y-74666600D02*
X115163600Y-74853800D01*
X112572800Y-74666600D02*
X114976400Y-74666600D01*
%TO.N,/THR*%
X117703600Y-71573300D02*
X117631300Y-71501000D01*
X117703600Y-73990200D02*
X117703600Y-71573300D01*
%TO.N,VCC*%
X107924600Y-69999400D02*
X106781600Y-71142400D01*
X108280200Y-63550800D02*
X107924600Y-63906400D01*
X109894600Y-71142400D02*
X106781600Y-71142400D01*
X114300000Y-63550800D02*
X108280200Y-63550800D01*
X107924600Y-63906400D02*
X107924600Y-69999400D01*
X114844600Y-67332400D02*
X114844600Y-64095400D01*
X114844600Y-64095400D02*
X114300000Y-63550800D01*
X106781600Y-71142400D02*
X100790200Y-71142400D01*
%TO.N,Net-(U1-CV)*%
X109884300Y-67322100D02*
X109894600Y-67332400D01*
X109884300Y-65125600D02*
X109884300Y-67322100D01*
%TO.N,/THR*%
X117345000Y-69872400D02*
X114844600Y-69872400D01*
X117631300Y-71501000D02*
X117631300Y-70158700D01*
X117631300Y-70158700D02*
X117345000Y-69872400D01*
%TO.N,VCC*%
X109969700Y-75984500D02*
X109969700Y-73660000D01*
X110651800Y-76666600D02*
X109969700Y-75984500D01*
X112572800Y-76666600D02*
X110651800Y-76666600D01*
X109969700Y-73660000D02*
X109969700Y-71217500D01*
X109969700Y-71217500D02*
X109894600Y-71142400D01*
%TO.N,/DIS*%
X111452200Y-69872400D02*
X109894600Y-69872400D01*
X112572800Y-70993000D02*
X111452200Y-69872400D01*
X112572800Y-74666600D02*
X112572800Y-70993000D01*
%TO.N,/THR*%
X112903000Y-69596000D02*
X112903000Y-68859400D01*
X113055400Y-69748400D02*
X112903000Y-69596000D01*
X114844600Y-69872400D02*
X113179400Y-69872400D01*
X113179400Y-69872400D02*
X113055400Y-69748400D01*
X112646000Y-68602400D02*
X112903000Y-68859400D01*
X109894600Y-68602400D02*
X112646000Y-68602400D01*
%TO.N,VCC*%
X100790200Y-71142400D02*
X100711000Y-71221600D01*
%TD*%
M02*
