%TF.GenerationSoftware,KiCad,Pcbnew,8.0.2*%
%TF.CreationDate,2024-06-27T01:20:11-06:00*%
%TF.ProjectId,2024_NE555_ChargePump,32303234-5f4e-4453-9535-355f43686172,rev?*%
%TF.SameCoordinates,Original*%
%TF.FileFunction,Soldermask,Top*%
%TF.FilePolarity,Negative*%
%FSLAX46Y46*%
G04 Gerber Fmt 4.6, Leading zero omitted, Abs format (unit mm)*
G04 Created by KiCad (PCBNEW 8.0.2) date 2024-06-27 01:20:11*
%MOMM*%
%LPD*%
G01*
G04 APERTURE LIST*
G04 Aperture macros list*
%AMRoundRect*
0 Rectangle with rounded corners*
0 $1 Rounding radius*
0 $2 $3 $4 $5 $6 $7 $8 $9 X,Y pos of 4 corners*
0 Add a 4 corners polygon primitive as box body*
4,1,4,$2,$3,$4,$5,$6,$7,$8,$9,$2,$3,0*
0 Add four circle primitives for the rounded corners*
1,1,$1+$1,$2,$3*
1,1,$1+$1,$4,$5*
1,1,$1+$1,$6,$7*
1,1,$1+$1,$8,$9*
0 Add four rect primitives between the rounded corners*
20,1,$1+$1,$2,$3,$4,$5,0*
20,1,$1+$1,$4,$5,$6,$7,0*
20,1,$1+$1,$6,$7,$8,$9,0*
20,1,$1+$1,$8,$9,$2,$3,0*%
%AMFreePoly0*
4,1,19,0.550000,-0.750000,0.000000,-0.750000,0.000000,-0.744911,-0.071157,-0.744911,-0.207708,-0.704816,-0.327430,-0.627875,-0.420627,-0.520320,-0.479746,-0.390866,-0.500000,-0.250000,-0.500000,0.250000,-0.479746,0.390866,-0.420627,0.520320,-0.327430,0.627875,-0.207708,0.704816,-0.071157,0.744911,0.000000,0.744911,0.000000,0.750000,0.550000,0.750000,0.550000,-0.750000,0.550000,-0.750000,
$1*%
%AMFreePoly1*
4,1,19,0.000000,0.744911,0.071157,0.744911,0.207708,0.704816,0.327430,0.627875,0.420627,0.520320,0.479746,0.390866,0.500000,0.250000,0.500000,-0.250000,0.479746,-0.390866,0.420627,-0.520320,0.327430,-0.627875,0.207708,-0.704816,0.071157,-0.744911,0.000000,-0.744911,0.000000,-0.750000,-0.550000,-0.750000,-0.550000,0.750000,0.000000,0.750000,0.000000,0.744911,0.000000,0.744911,
$1*%
G04 Aperture macros list end*
%ADD10R,1.700000X1.700000*%
%ADD11O,1.700000X1.700000*%
%ADD12FreePoly0,270.000000*%
%ADD13R,1.500000X1.000000*%
%ADD14FreePoly1,270.000000*%
%ADD15RoundRect,0.250000X0.500000X1.100000X-0.500000X1.100000X-0.500000X-1.100000X0.500000X-1.100000X0*%
%ADD16RoundRect,0.250000X-0.650000X0.412500X-0.650000X-0.412500X0.650000X-0.412500X0.650000X0.412500X0*%
%ADD17RoundRect,0.250000X0.650000X-0.412500X0.650000X0.412500X-0.650000X0.412500X-0.650000X-0.412500X0*%
%ADD18RoundRect,0.250000X0.412500X0.650000X-0.412500X0.650000X-0.412500X-0.650000X0.412500X-0.650000X0*%
%ADD19RoundRect,0.250000X-0.450000X0.350000X-0.450000X-0.350000X0.450000X-0.350000X0.450000X0.350000X0*%
%ADD20R,3.000000X3.000000*%
%ADD21C,3.000000*%
%ADD22RoundRect,0.250000X0.450000X-0.350000X0.450000X0.350000X-0.450000X0.350000X-0.450000X-0.350000X0*%
%ADD23RoundRect,0.250000X-0.337500X-0.475000X0.337500X-0.475000X0.337500X0.475000X-0.337500X0.475000X0*%
%ADD24RoundRect,0.250000X-0.350000X-0.450000X0.350000X-0.450000X0.350000X0.450000X-0.350000X0.450000X0*%
%ADD25RoundRect,0.250000X-1.100000X0.500000X-1.100000X-0.500000X1.100000X-0.500000X1.100000X0.500000X0*%
%ADD26RoundRect,0.102000X0.611000X-0.611000X0.611000X0.611000X-0.611000X0.611000X-0.611000X-0.611000X0*%
%ADD27C,1.426000*%
%ADD28RoundRect,0.150000X0.825000X0.150000X-0.825000X0.150000X-0.825000X-0.150000X0.825000X-0.150000X0*%
%ADD29RoundRect,0.102000X-0.700000X0.500000X-0.700000X-0.500000X0.700000X-0.500000X0.700000X0.500000X0*%
%ADD30RoundRect,0.250001X-0.624999X0.462499X-0.624999X-0.462499X0.624999X-0.462499X0.624999X0.462499X0*%
G04 APERTURE END LIST*
D10*
%TO.C,J3*%
X152237600Y-86938000D03*
D11*
X149697600Y-86938000D03*
X147157600Y-86938000D03*
X144617600Y-86938000D03*
%TD*%
D12*
%TO.C,JP1*%
X176951900Y-72461600D03*
D13*
X176951900Y-73761600D03*
D14*
X176951900Y-75061600D03*
%TD*%
D15*
%TO.C,D12*%
X168237200Y-74041000D03*
X173037200Y-74041000D03*
%TD*%
%TO.C,D7*%
X154038000Y-70332600D03*
X149238000Y-70332600D03*
%TD*%
D16*
%TO.C,C14*%
X168173400Y-80200900D03*
X168173400Y-77075900D03*
%TD*%
D15*
%TO.C,D11*%
X164300200Y-70205600D03*
X169100200Y-70205600D03*
%TD*%
%TO.C,D10*%
X160820400Y-74041000D03*
X165620400Y-74041000D03*
%TD*%
%TO.C,D9*%
X156781800Y-70205600D03*
X161581800Y-70205600D03*
%TD*%
%TO.C,D8*%
X158076600Y-74015600D03*
X153276600Y-74015600D03*
%TD*%
D17*
%TO.C,C13*%
X164287200Y-67196100D03*
X164287200Y-64071100D03*
%TD*%
D16*
%TO.C,C12*%
X160807400Y-77126700D03*
X160807400Y-80251700D03*
%TD*%
D17*
%TO.C,C11*%
X156718000Y-67208400D03*
X156718000Y-64083400D03*
%TD*%
D16*
%TO.C,C10*%
X153263600Y-77075900D03*
X153263600Y-80200900D03*
%TD*%
D17*
%TO.C,C9*%
X149148800Y-67323100D03*
X149148800Y-64198100D03*
%TD*%
D15*
%TO.C,D4*%
X142938200Y-74015600D03*
X138138200Y-74015600D03*
%TD*%
D16*
%TO.C,C5*%
X138074400Y-77240600D03*
X138074400Y-80365600D03*
%TD*%
D18*
%TO.C,C8*%
X173926100Y-68021200D03*
X177051100Y-68021200D03*
%TD*%
D19*
%TO.C,R3*%
X120650000Y-63922400D03*
X120650000Y-65922400D03*
%TD*%
D10*
%TO.C,J2*%
X176687400Y-63957200D03*
D11*
X174147400Y-63957200D03*
%TD*%
D15*
%TO.C,D6*%
X150495000Y-74015600D03*
X145695000Y-74015600D03*
%TD*%
D16*
%TO.C,C7*%
X145745200Y-77152100D03*
X145745200Y-80277100D03*
%TD*%
D20*
%TO.C,J1*%
X100711000Y-66141600D03*
D21*
X100711000Y-71221600D03*
%TD*%
D22*
%TO.C,R4*%
X112572800Y-76666600D03*
X112572800Y-74666600D03*
%TD*%
D23*
%TO.C,C1*%
X109884300Y-65125600D03*
X111959300Y-65125600D03*
%TD*%
D15*
%TO.C,D5*%
X146646600Y-70307200D03*
X141846600Y-70307200D03*
%TD*%
D17*
%TO.C,C6*%
X141833600Y-67246900D03*
X141833600Y-64121900D03*
%TD*%
D24*
%TO.C,R1*%
X124864800Y-72618600D03*
X126864800Y-72618600D03*
%TD*%
D23*
%TO.C,C2*%
X117631300Y-71501000D03*
X119706300Y-71501000D03*
%TD*%
D25*
%TO.C,D1*%
X132740400Y-78638400D03*
X132740400Y-73838400D03*
%TD*%
D26*
%TO.C,RV1*%
X117703600Y-79070200D03*
D27*
X115163600Y-76530200D03*
X117703600Y-73990200D03*
%TD*%
D28*
%TO.C,U1*%
X114844600Y-71142400D03*
X114844600Y-69872400D03*
X114844600Y-68602400D03*
X114844600Y-67332400D03*
X109894600Y-67332400D03*
X109894600Y-68602400D03*
X109894600Y-69872400D03*
X109894600Y-71142400D03*
%TD*%
D18*
%TO.C,C3*%
X109969700Y-73660000D03*
X106844700Y-73660000D03*
%TD*%
D15*
%TO.C,D3*%
X139115200Y-70307200D03*
X134315200Y-70307200D03*
%TD*%
D17*
%TO.C,C4*%
X134391400Y-67221500D03*
X134391400Y-64096500D03*
%TD*%
D29*
%TO.C,Q1*%
X124714000Y-68493600D03*
X126914000Y-69443600D03*
X124714000Y-70393600D03*
%TD*%
D30*
%TO.C,D2*%
X118008400Y-64044500D03*
X118008400Y-67019500D03*
%TD*%
M02*
