%TF.GenerationSoftware,KiCad,Pcbnew,9.0.4*%
%TF.CreationDate,2025-10-19T02:38:57-06:00*%
%TF.ProjectId,2025_UNO_FPAA_PROTO_A_v1,32303235-5f55-44e4-9f5f-465041415f50,rev?*%
%TF.SameCoordinates,Original*%
%TF.FileFunction,Legend,Top*%
%TF.FilePolarity,Positive*%
%FSLAX46Y46*%
G04 Gerber Fmt 4.6, Leading zero omitted, Abs format (unit mm)*
G04 Created by KiCad (PCBNEW 9.0.4) date 2025-10-19 02:38:57*
%MOMM*%
%LPD*%
G01*
G04 APERTURE LIST*
%ADD10C,0.150000*%
%ADD11C,0.120000*%
%ADD12C,0.200000*%
%ADD13C,0.127000*%
%ADD14C,0.000000*%
G04 APERTURE END LIST*
D10*
X132922295Y-77509999D02*
X132122295Y-77509999D01*
X132198485Y-77167143D02*
X132160390Y-77129047D01*
X132160390Y-77129047D02*
X132122295Y-77052857D01*
X132122295Y-77052857D02*
X132122295Y-76862381D01*
X132122295Y-76862381D02*
X132160390Y-76786190D01*
X132160390Y-76786190D02*
X132198485Y-76748095D01*
X132198485Y-76748095D02*
X132274676Y-76710000D01*
X132274676Y-76710000D02*
X132350866Y-76710000D01*
X132350866Y-76710000D02*
X132465152Y-76748095D01*
X132465152Y-76748095D02*
X132922295Y-77205238D01*
X132922295Y-77205238D02*
X132922295Y-76710000D01*
X132922295Y-76367142D02*
X132122295Y-76367142D01*
X132122295Y-76367142D02*
X132922295Y-75909999D01*
X132922295Y-75909999D02*
X132122295Y-75909999D01*
X125932438Y-53201904D02*
X125884819Y-53297142D01*
X125884819Y-53297142D02*
X125884819Y-53439999D01*
X125884819Y-53439999D02*
X125932438Y-53582856D01*
X125932438Y-53582856D02*
X126027676Y-53678094D01*
X126027676Y-53678094D02*
X126122914Y-53725713D01*
X126122914Y-53725713D02*
X126313390Y-53773332D01*
X126313390Y-53773332D02*
X126456247Y-53773332D01*
X126456247Y-53773332D02*
X126646723Y-53725713D01*
X126646723Y-53725713D02*
X126741961Y-53678094D01*
X126741961Y-53678094D02*
X126837200Y-53582856D01*
X126837200Y-53582856D02*
X126884819Y-53439999D01*
X126884819Y-53439999D02*
X126884819Y-53344761D01*
X126884819Y-53344761D02*
X126837200Y-53201904D01*
X126837200Y-53201904D02*
X126789580Y-53154285D01*
X126789580Y-53154285D02*
X126456247Y-53154285D01*
X126456247Y-53154285D02*
X126456247Y-53344761D01*
X126884819Y-52725713D02*
X125884819Y-52725713D01*
X125884819Y-52725713D02*
X126884819Y-52154285D01*
X126884819Y-52154285D02*
X125884819Y-52154285D01*
X126884819Y-51678094D02*
X125884819Y-51678094D01*
X125884819Y-51678094D02*
X125884819Y-51439999D01*
X125884819Y-51439999D02*
X125932438Y-51297142D01*
X125932438Y-51297142D02*
X126027676Y-51201904D01*
X126027676Y-51201904D02*
X126122914Y-51154285D01*
X126122914Y-51154285D02*
X126313390Y-51106666D01*
X126313390Y-51106666D02*
X126456247Y-51106666D01*
X126456247Y-51106666D02*
X126646723Y-51154285D01*
X126646723Y-51154285D02*
X126741961Y-51201904D01*
X126741961Y-51201904D02*
X126837200Y-51297142D01*
X126837200Y-51297142D02*
X126884819Y-51439999D01*
X126884819Y-51439999D02*
X126884819Y-51678094D01*
X106419523Y-58792295D02*
X106914761Y-58792295D01*
X106914761Y-58792295D02*
X106648095Y-59097057D01*
X106648095Y-59097057D02*
X106762380Y-59097057D01*
X106762380Y-59097057D02*
X106838571Y-59135152D01*
X106838571Y-59135152D02*
X106876666Y-59173247D01*
X106876666Y-59173247D02*
X106914761Y-59249438D01*
X106914761Y-59249438D02*
X106914761Y-59439914D01*
X106914761Y-59439914D02*
X106876666Y-59516104D01*
X106876666Y-59516104D02*
X106838571Y-59554200D01*
X106838571Y-59554200D02*
X106762380Y-59592295D01*
X106762380Y-59592295D02*
X106533809Y-59592295D01*
X106533809Y-59592295D02*
X106457618Y-59554200D01*
X106457618Y-59554200D02*
X106419523Y-59516104D01*
X107143333Y-58792295D02*
X107410000Y-59592295D01*
X107410000Y-59592295D02*
X107676666Y-58792295D01*
X107867142Y-58792295D02*
X108362380Y-58792295D01*
X108362380Y-58792295D02*
X108095714Y-59097057D01*
X108095714Y-59097057D02*
X108209999Y-59097057D01*
X108209999Y-59097057D02*
X108286190Y-59135152D01*
X108286190Y-59135152D02*
X108324285Y-59173247D01*
X108324285Y-59173247D02*
X108362380Y-59249438D01*
X108362380Y-59249438D02*
X108362380Y-59439914D01*
X108362380Y-59439914D02*
X108324285Y-59516104D01*
X108324285Y-59516104D02*
X108286190Y-59554200D01*
X108286190Y-59554200D02*
X108209999Y-59592295D01*
X108209999Y-59592295D02*
X107981428Y-59592295D01*
X107981428Y-59592295D02*
X107905237Y-59554200D01*
X107905237Y-59554200D02*
X107867142Y-59516104D01*
X137932295Y-77520951D02*
X137132295Y-77520951D01*
X137132295Y-77216190D02*
X137132295Y-76720952D01*
X137132295Y-76720952D02*
X137437057Y-76987618D01*
X137437057Y-76987618D02*
X137437057Y-76873333D01*
X137437057Y-76873333D02*
X137475152Y-76797142D01*
X137475152Y-76797142D02*
X137513247Y-76759047D01*
X137513247Y-76759047D02*
X137589438Y-76720952D01*
X137589438Y-76720952D02*
X137779914Y-76720952D01*
X137779914Y-76720952D02*
X137856104Y-76759047D01*
X137856104Y-76759047D02*
X137894200Y-76797142D01*
X137894200Y-76797142D02*
X137932295Y-76873333D01*
X137932295Y-76873333D02*
X137932295Y-77101904D01*
X137932295Y-77101904D02*
X137894200Y-77178095D01*
X137894200Y-77178095D02*
X137856104Y-77216190D01*
X137932295Y-76378094D02*
X137132295Y-76378094D01*
X137132295Y-76378094D02*
X137132295Y-76073332D01*
X137132295Y-76073332D02*
X137170390Y-75997142D01*
X137170390Y-75997142D02*
X137208485Y-75959047D01*
X137208485Y-75959047D02*
X137284676Y-75920951D01*
X137284676Y-75920951D02*
X137398961Y-75920951D01*
X137398961Y-75920951D02*
X137475152Y-75959047D01*
X137475152Y-75959047D02*
X137513247Y-75997142D01*
X137513247Y-75997142D02*
X137551342Y-76073332D01*
X137551342Y-76073332D02*
X137551342Y-76378094D01*
X145820000Y-59582295D02*
X145820000Y-58782295D01*
X146543809Y-59048961D02*
X146543809Y-59582295D01*
X146353333Y-58744200D02*
X146162856Y-59315628D01*
X146162856Y-59315628D02*
X146658095Y-59315628D01*
X146962857Y-59582295D02*
X146962857Y-58782295D01*
X146962857Y-58782295D02*
X147420000Y-59582295D01*
X147420000Y-59582295D02*
X147420000Y-58782295D01*
X145562857Y-63932295D02*
X145715238Y-63932295D01*
X145715238Y-63932295D02*
X145791428Y-63970390D01*
X145791428Y-63970390D02*
X145867619Y-64046580D01*
X145867619Y-64046580D02*
X145905714Y-64198961D01*
X145905714Y-64198961D02*
X145905714Y-64465628D01*
X145905714Y-64465628D02*
X145867619Y-64618009D01*
X145867619Y-64618009D02*
X145791428Y-64694200D01*
X145791428Y-64694200D02*
X145715238Y-64732295D01*
X145715238Y-64732295D02*
X145562857Y-64732295D01*
X145562857Y-64732295D02*
X145486666Y-64694200D01*
X145486666Y-64694200D02*
X145410476Y-64618009D01*
X145410476Y-64618009D02*
X145372380Y-64465628D01*
X145372380Y-64465628D02*
X145372380Y-64198961D01*
X145372380Y-64198961D02*
X145410476Y-64046580D01*
X145410476Y-64046580D02*
X145486666Y-63970390D01*
X145486666Y-63970390D02*
X145562857Y-63932295D01*
X146591428Y-64198961D02*
X146591428Y-64732295D01*
X146400952Y-63894200D02*
X146210475Y-64465628D01*
X146210475Y-64465628D02*
X146705714Y-64465628D01*
X147010476Y-64732295D02*
X147010476Y-63932295D01*
X147010476Y-63932295D02*
X147315238Y-63932295D01*
X147315238Y-63932295D02*
X147391428Y-63970390D01*
X147391428Y-63970390D02*
X147429523Y-64008485D01*
X147429523Y-64008485D02*
X147467619Y-64084676D01*
X147467619Y-64084676D02*
X147467619Y-64198961D01*
X147467619Y-64198961D02*
X147429523Y-64275152D01*
X147429523Y-64275152D02*
X147391428Y-64313247D01*
X147391428Y-64313247D02*
X147315238Y-64351342D01*
X147315238Y-64351342D02*
X147010476Y-64351342D01*
X145949048Y-57012295D02*
X145949048Y-56212295D01*
X146672857Y-56478961D02*
X146672857Y-57012295D01*
X146482381Y-56174200D02*
X146291904Y-56745628D01*
X146291904Y-56745628D02*
X146787143Y-56745628D01*
X147091905Y-57012295D02*
X147091905Y-56212295D01*
X147091905Y-56212295D02*
X147396667Y-56212295D01*
X147396667Y-56212295D02*
X147472857Y-56250390D01*
X147472857Y-56250390D02*
X147510952Y-56288485D01*
X147510952Y-56288485D02*
X147549048Y-56364676D01*
X147549048Y-56364676D02*
X147549048Y-56478961D01*
X147549048Y-56478961D02*
X147510952Y-56555152D01*
X147510952Y-56555152D02*
X147472857Y-56593247D01*
X147472857Y-56593247D02*
X147396667Y-56631342D01*
X147396667Y-56631342D02*
X147091905Y-56631342D01*
X135422295Y-77530951D02*
X134622295Y-77530951D01*
X134698485Y-77188095D02*
X134660390Y-77149999D01*
X134660390Y-77149999D02*
X134622295Y-77073809D01*
X134622295Y-77073809D02*
X134622295Y-76883333D01*
X134622295Y-76883333D02*
X134660390Y-76807142D01*
X134660390Y-76807142D02*
X134698485Y-76769047D01*
X134698485Y-76769047D02*
X134774676Y-76730952D01*
X134774676Y-76730952D02*
X134850866Y-76730952D01*
X134850866Y-76730952D02*
X134965152Y-76769047D01*
X134965152Y-76769047D02*
X135422295Y-77226190D01*
X135422295Y-77226190D02*
X135422295Y-76730952D01*
X135422295Y-76388094D02*
X134622295Y-76388094D01*
X134622295Y-76388094D02*
X134622295Y-76083332D01*
X134622295Y-76083332D02*
X134660390Y-76007142D01*
X134660390Y-76007142D02*
X134698485Y-75969047D01*
X134698485Y-75969047D02*
X134774676Y-75930951D01*
X134774676Y-75930951D02*
X134888961Y-75930951D01*
X134888961Y-75930951D02*
X134965152Y-75969047D01*
X134965152Y-75969047D02*
X135003247Y-76007142D01*
X135003247Y-76007142D02*
X135041342Y-76083332D01*
X135041342Y-76083332D02*
X135041342Y-76388094D01*
X140552295Y-77519999D02*
X139752295Y-77519999D01*
X139752295Y-77215238D02*
X139752295Y-76720000D01*
X139752295Y-76720000D02*
X140057057Y-76986666D01*
X140057057Y-76986666D02*
X140057057Y-76872381D01*
X140057057Y-76872381D02*
X140095152Y-76796190D01*
X140095152Y-76796190D02*
X140133247Y-76758095D01*
X140133247Y-76758095D02*
X140209438Y-76720000D01*
X140209438Y-76720000D02*
X140399914Y-76720000D01*
X140399914Y-76720000D02*
X140476104Y-76758095D01*
X140476104Y-76758095D02*
X140514200Y-76796190D01*
X140514200Y-76796190D02*
X140552295Y-76872381D01*
X140552295Y-76872381D02*
X140552295Y-77100952D01*
X140552295Y-77100952D02*
X140514200Y-77177143D01*
X140514200Y-77177143D02*
X140476104Y-77215238D01*
X140552295Y-76377142D02*
X139752295Y-76377142D01*
X139752295Y-76377142D02*
X140552295Y-75919999D01*
X140552295Y-75919999D02*
X139752295Y-75919999D01*
X100990952Y-49342295D02*
X101257619Y-50142295D01*
X101257619Y-50142295D02*
X101524285Y-49342295D01*
X102209999Y-50142295D02*
X101752856Y-50142295D01*
X101981428Y-50142295D02*
X101981428Y-49342295D01*
X101981428Y-49342295D02*
X101905237Y-49456580D01*
X101905237Y-49456580D02*
X101829047Y-49532771D01*
X101829047Y-49532771D02*
X101752856Y-49570866D01*
X102552857Y-50066104D02*
X102590952Y-50104200D01*
X102590952Y-50104200D02*
X102552857Y-50142295D01*
X102552857Y-50142295D02*
X102514761Y-50104200D01*
X102514761Y-50104200D02*
X102552857Y-50066104D01*
X102552857Y-50066104D02*
X102552857Y-50142295D01*
X103086190Y-49342295D02*
X103162380Y-49342295D01*
X103162380Y-49342295D02*
X103238571Y-49380390D01*
X103238571Y-49380390D02*
X103276666Y-49418485D01*
X103276666Y-49418485D02*
X103314761Y-49494676D01*
X103314761Y-49494676D02*
X103352856Y-49647057D01*
X103352856Y-49647057D02*
X103352856Y-49837533D01*
X103352856Y-49837533D02*
X103314761Y-49989914D01*
X103314761Y-49989914D02*
X103276666Y-50066104D01*
X103276666Y-50066104D02*
X103238571Y-50104200D01*
X103238571Y-50104200D02*
X103162380Y-50142295D01*
X103162380Y-50142295D02*
X103086190Y-50142295D01*
X103086190Y-50142295D02*
X103009999Y-50104200D01*
X103009999Y-50104200D02*
X102971904Y-50066104D01*
X102971904Y-50066104D02*
X102933809Y-49989914D01*
X102933809Y-49989914D02*
X102895713Y-49837533D01*
X102895713Y-49837533D02*
X102895713Y-49647057D01*
X102895713Y-49647057D02*
X102933809Y-49494676D01*
X102933809Y-49494676D02*
X102971904Y-49418485D01*
X102971904Y-49418485D02*
X103009999Y-49380390D01*
X103009999Y-49380390D02*
X103086190Y-49342295D01*
X120212295Y-77569999D02*
X119412295Y-77569999D01*
X120212295Y-76770000D02*
X120212295Y-77227143D01*
X120212295Y-76998571D02*
X119412295Y-76998571D01*
X119412295Y-76998571D02*
X119526580Y-77074762D01*
X119526580Y-77074762D02*
X119602771Y-77150952D01*
X119602771Y-77150952D02*
X119640866Y-77227143D01*
X120212295Y-76427142D02*
X119412295Y-76427142D01*
X119412295Y-76427142D02*
X120212295Y-75969999D01*
X120212295Y-75969999D02*
X119412295Y-75969999D01*
X145040000Y-69632295D02*
X145040000Y-68832295D01*
X145573333Y-68832295D02*
X145725714Y-68832295D01*
X145725714Y-68832295D02*
X145801904Y-68870390D01*
X145801904Y-68870390D02*
X145878095Y-68946580D01*
X145878095Y-68946580D02*
X145916190Y-69098961D01*
X145916190Y-69098961D02*
X145916190Y-69365628D01*
X145916190Y-69365628D02*
X145878095Y-69518009D01*
X145878095Y-69518009D02*
X145801904Y-69594200D01*
X145801904Y-69594200D02*
X145725714Y-69632295D01*
X145725714Y-69632295D02*
X145573333Y-69632295D01*
X145573333Y-69632295D02*
X145497142Y-69594200D01*
X145497142Y-69594200D02*
X145420952Y-69518009D01*
X145420952Y-69518009D02*
X145382856Y-69365628D01*
X145382856Y-69365628D02*
X145382856Y-69098961D01*
X145382856Y-69098961D02*
X145420952Y-68946580D01*
X145420952Y-68946580D02*
X145497142Y-68870390D01*
X145497142Y-68870390D02*
X145573333Y-68832295D01*
X146182856Y-68832295D02*
X146716190Y-68832295D01*
X146716190Y-68832295D02*
X146373332Y-69632295D01*
X147020952Y-69632295D02*
X147020952Y-68832295D01*
X147020952Y-68832295D02*
X147325714Y-68832295D01*
X147325714Y-68832295D02*
X147401904Y-68870390D01*
X147401904Y-68870390D02*
X147439999Y-68908485D01*
X147439999Y-68908485D02*
X147478095Y-68984676D01*
X147478095Y-68984676D02*
X147478095Y-69098961D01*
X147478095Y-69098961D02*
X147439999Y-69175152D01*
X147439999Y-69175152D02*
X147401904Y-69213247D01*
X147401904Y-69213247D02*
X147325714Y-69251342D01*
X147325714Y-69251342D02*
X147020952Y-69251342D01*
X106800476Y-91850390D02*
X106724286Y-91812295D01*
X106724286Y-91812295D02*
X106610000Y-91812295D01*
X106610000Y-91812295D02*
X106495714Y-91850390D01*
X106495714Y-91850390D02*
X106419524Y-91926580D01*
X106419524Y-91926580D02*
X106381429Y-92002771D01*
X106381429Y-92002771D02*
X106343333Y-92155152D01*
X106343333Y-92155152D02*
X106343333Y-92269438D01*
X106343333Y-92269438D02*
X106381429Y-92421819D01*
X106381429Y-92421819D02*
X106419524Y-92498009D01*
X106419524Y-92498009D02*
X106495714Y-92574200D01*
X106495714Y-92574200D02*
X106610000Y-92612295D01*
X106610000Y-92612295D02*
X106686191Y-92612295D01*
X106686191Y-92612295D02*
X106800476Y-92574200D01*
X106800476Y-92574200D02*
X106838572Y-92536104D01*
X106838572Y-92536104D02*
X106838572Y-92269438D01*
X106838572Y-92269438D02*
X106686191Y-92269438D01*
X107181429Y-92612295D02*
X107181429Y-91812295D01*
X107181429Y-91812295D02*
X107638572Y-92612295D01*
X107638572Y-92612295D02*
X107638572Y-91812295D01*
X108019524Y-92612295D02*
X108019524Y-91812295D01*
X108019524Y-91812295D02*
X108210000Y-91812295D01*
X108210000Y-91812295D02*
X108324286Y-91850390D01*
X108324286Y-91850390D02*
X108400476Y-91926580D01*
X108400476Y-91926580D02*
X108438571Y-92002771D01*
X108438571Y-92002771D02*
X108476667Y-92155152D01*
X108476667Y-92155152D02*
X108476667Y-92269438D01*
X108476667Y-92269438D02*
X108438571Y-92421819D01*
X108438571Y-92421819D02*
X108400476Y-92498009D01*
X108400476Y-92498009D02*
X108324286Y-92574200D01*
X108324286Y-92574200D02*
X108210000Y-92612295D01*
X108210000Y-92612295D02*
X108019524Y-92612295D01*
X142252295Y-77336189D02*
X142252295Y-77183808D01*
X142252295Y-77183808D02*
X142290390Y-77107618D01*
X142290390Y-77107618D02*
X142366580Y-77031427D01*
X142366580Y-77031427D02*
X142518961Y-76993332D01*
X142518961Y-76993332D02*
X142785628Y-76993332D01*
X142785628Y-76993332D02*
X142938009Y-77031427D01*
X142938009Y-77031427D02*
X143014200Y-77107618D01*
X143014200Y-77107618D02*
X143052295Y-77183808D01*
X143052295Y-77183808D02*
X143052295Y-77336189D01*
X143052295Y-77336189D02*
X143014200Y-77412380D01*
X143014200Y-77412380D02*
X142938009Y-77488570D01*
X142938009Y-77488570D02*
X142785628Y-77526666D01*
X142785628Y-77526666D02*
X142518961Y-77526666D01*
X142518961Y-77526666D02*
X142366580Y-77488570D01*
X142366580Y-77488570D02*
X142290390Y-77412380D01*
X142290390Y-77412380D02*
X142252295Y-77336189D01*
X142252295Y-76726666D02*
X142252295Y-76231428D01*
X142252295Y-76231428D02*
X142557057Y-76498094D01*
X142557057Y-76498094D02*
X142557057Y-76383809D01*
X142557057Y-76383809D02*
X142595152Y-76307618D01*
X142595152Y-76307618D02*
X142633247Y-76269523D01*
X142633247Y-76269523D02*
X142709438Y-76231428D01*
X142709438Y-76231428D02*
X142899914Y-76231428D01*
X142899914Y-76231428D02*
X142976104Y-76269523D01*
X142976104Y-76269523D02*
X143014200Y-76307618D01*
X143014200Y-76307618D02*
X143052295Y-76383809D01*
X143052295Y-76383809D02*
X143052295Y-76612380D01*
X143052295Y-76612380D02*
X143014200Y-76688571D01*
X143014200Y-76688571D02*
X142976104Y-76726666D01*
X143052295Y-75888570D02*
X142252295Y-75888570D01*
X142252295Y-75888570D02*
X143052295Y-75431427D01*
X143052295Y-75431427D02*
X142252295Y-75431427D01*
X144742295Y-77337142D02*
X144742295Y-77184761D01*
X144742295Y-77184761D02*
X144780390Y-77108571D01*
X144780390Y-77108571D02*
X144856580Y-77032380D01*
X144856580Y-77032380D02*
X145008961Y-76994285D01*
X145008961Y-76994285D02*
X145275628Y-76994285D01*
X145275628Y-76994285D02*
X145428009Y-77032380D01*
X145428009Y-77032380D02*
X145504200Y-77108571D01*
X145504200Y-77108571D02*
X145542295Y-77184761D01*
X145542295Y-77184761D02*
X145542295Y-77337142D01*
X145542295Y-77337142D02*
X145504200Y-77413333D01*
X145504200Y-77413333D02*
X145428009Y-77489523D01*
X145428009Y-77489523D02*
X145275628Y-77527619D01*
X145275628Y-77527619D02*
X145008961Y-77527619D01*
X145008961Y-77527619D02*
X144856580Y-77489523D01*
X144856580Y-77489523D02*
X144780390Y-77413333D01*
X144780390Y-77413333D02*
X144742295Y-77337142D01*
X144742295Y-76727619D02*
X144742295Y-76232381D01*
X144742295Y-76232381D02*
X145047057Y-76499047D01*
X145047057Y-76499047D02*
X145047057Y-76384762D01*
X145047057Y-76384762D02*
X145085152Y-76308571D01*
X145085152Y-76308571D02*
X145123247Y-76270476D01*
X145123247Y-76270476D02*
X145199438Y-76232381D01*
X145199438Y-76232381D02*
X145389914Y-76232381D01*
X145389914Y-76232381D02*
X145466104Y-76270476D01*
X145466104Y-76270476D02*
X145504200Y-76308571D01*
X145504200Y-76308571D02*
X145542295Y-76384762D01*
X145542295Y-76384762D02*
X145542295Y-76613333D01*
X145542295Y-76613333D02*
X145504200Y-76689524D01*
X145504200Y-76689524D02*
X145466104Y-76727619D01*
X145542295Y-75889523D02*
X144742295Y-75889523D01*
X144742295Y-75889523D02*
X144742295Y-75584761D01*
X144742295Y-75584761D02*
X144780390Y-75508571D01*
X144780390Y-75508571D02*
X144818485Y-75470476D01*
X144818485Y-75470476D02*
X144894676Y-75432380D01*
X144894676Y-75432380D02*
X145008961Y-75432380D01*
X145008961Y-75432380D02*
X145085152Y-75470476D01*
X145085152Y-75470476D02*
X145123247Y-75508571D01*
X145123247Y-75508571D02*
X145161342Y-75584761D01*
X145161342Y-75584761D02*
X145161342Y-75889523D01*
X157219523Y-56252295D02*
X157714761Y-56252295D01*
X157714761Y-56252295D02*
X157448095Y-56557057D01*
X157448095Y-56557057D02*
X157562380Y-56557057D01*
X157562380Y-56557057D02*
X157638571Y-56595152D01*
X157638571Y-56595152D02*
X157676666Y-56633247D01*
X157676666Y-56633247D02*
X157714761Y-56709438D01*
X157714761Y-56709438D02*
X157714761Y-56899914D01*
X157714761Y-56899914D02*
X157676666Y-56976104D01*
X157676666Y-56976104D02*
X157638571Y-57014200D01*
X157638571Y-57014200D02*
X157562380Y-57052295D01*
X157562380Y-57052295D02*
X157333809Y-57052295D01*
X157333809Y-57052295D02*
X157257618Y-57014200D01*
X157257618Y-57014200D02*
X157219523Y-56976104D01*
X157943333Y-56252295D02*
X158210000Y-57052295D01*
X158210000Y-57052295D02*
X158476666Y-56252295D01*
X158667142Y-56252295D02*
X159162380Y-56252295D01*
X159162380Y-56252295D02*
X158895714Y-56557057D01*
X158895714Y-56557057D02*
X159009999Y-56557057D01*
X159009999Y-56557057D02*
X159086190Y-56595152D01*
X159086190Y-56595152D02*
X159124285Y-56633247D01*
X159124285Y-56633247D02*
X159162380Y-56709438D01*
X159162380Y-56709438D02*
X159162380Y-56899914D01*
X159162380Y-56899914D02*
X159124285Y-56976104D01*
X159124285Y-56976104D02*
X159086190Y-57014200D01*
X159086190Y-57014200D02*
X159009999Y-57052295D01*
X159009999Y-57052295D02*
X158781428Y-57052295D01*
X158781428Y-57052295D02*
X158705237Y-57014200D01*
X158705237Y-57014200D02*
X158667142Y-56976104D01*
X157600476Y-91795390D02*
X157524286Y-91757295D01*
X157524286Y-91757295D02*
X157410000Y-91757295D01*
X157410000Y-91757295D02*
X157295714Y-91795390D01*
X157295714Y-91795390D02*
X157219524Y-91871580D01*
X157219524Y-91871580D02*
X157181429Y-91947771D01*
X157181429Y-91947771D02*
X157143333Y-92100152D01*
X157143333Y-92100152D02*
X157143333Y-92214438D01*
X157143333Y-92214438D02*
X157181429Y-92366819D01*
X157181429Y-92366819D02*
X157219524Y-92443009D01*
X157219524Y-92443009D02*
X157295714Y-92519200D01*
X157295714Y-92519200D02*
X157410000Y-92557295D01*
X157410000Y-92557295D02*
X157486191Y-92557295D01*
X157486191Y-92557295D02*
X157600476Y-92519200D01*
X157600476Y-92519200D02*
X157638572Y-92481104D01*
X157638572Y-92481104D02*
X157638572Y-92214438D01*
X157638572Y-92214438D02*
X157486191Y-92214438D01*
X157981429Y-92557295D02*
X157981429Y-91757295D01*
X157981429Y-91757295D02*
X158438572Y-92557295D01*
X158438572Y-92557295D02*
X158438572Y-91757295D01*
X158819524Y-92557295D02*
X158819524Y-91757295D01*
X158819524Y-91757295D02*
X159010000Y-91757295D01*
X159010000Y-91757295D02*
X159124286Y-91795390D01*
X159124286Y-91795390D02*
X159200476Y-91871580D01*
X159200476Y-91871580D02*
X159238571Y-91947771D01*
X159238571Y-91947771D02*
X159276667Y-92100152D01*
X159276667Y-92100152D02*
X159276667Y-92214438D01*
X159276667Y-92214438D02*
X159238571Y-92366819D01*
X159238571Y-92366819D02*
X159200476Y-92443009D01*
X159200476Y-92443009D02*
X159124286Y-92519200D01*
X159124286Y-92519200D02*
X159010000Y-92557295D01*
X159010000Y-92557295D02*
X158819524Y-92557295D01*
X152362295Y-80959999D02*
X151562295Y-80959999D01*
X151562295Y-80426666D02*
X151562295Y-80274285D01*
X151562295Y-80274285D02*
X151600390Y-80198095D01*
X151600390Y-80198095D02*
X151676580Y-80121904D01*
X151676580Y-80121904D02*
X151828961Y-80083809D01*
X151828961Y-80083809D02*
X152095628Y-80083809D01*
X152095628Y-80083809D02*
X152248009Y-80121904D01*
X152248009Y-80121904D02*
X152324200Y-80198095D01*
X152324200Y-80198095D02*
X152362295Y-80274285D01*
X152362295Y-80274285D02*
X152362295Y-80426666D01*
X152362295Y-80426666D02*
X152324200Y-80502857D01*
X152324200Y-80502857D02*
X152248009Y-80579047D01*
X152248009Y-80579047D02*
X152095628Y-80617143D01*
X152095628Y-80617143D02*
X151828961Y-80617143D01*
X151828961Y-80617143D02*
X151676580Y-80579047D01*
X151676580Y-80579047D02*
X151600390Y-80502857D01*
X151600390Y-80502857D02*
X151562295Y-80426666D01*
X151562295Y-79360000D02*
X151562295Y-79740952D01*
X151562295Y-79740952D02*
X151943247Y-79779048D01*
X151943247Y-79779048D02*
X151905152Y-79740952D01*
X151905152Y-79740952D02*
X151867057Y-79664762D01*
X151867057Y-79664762D02*
X151867057Y-79474286D01*
X151867057Y-79474286D02*
X151905152Y-79398095D01*
X151905152Y-79398095D02*
X151943247Y-79360000D01*
X151943247Y-79360000D02*
X152019438Y-79321905D01*
X152019438Y-79321905D02*
X152209914Y-79321905D01*
X152209914Y-79321905D02*
X152286104Y-79360000D01*
X152286104Y-79360000D02*
X152324200Y-79398095D01*
X152324200Y-79398095D02*
X152362295Y-79474286D01*
X152362295Y-79474286D02*
X152362295Y-79664762D01*
X152362295Y-79664762D02*
X152324200Y-79740952D01*
X152324200Y-79740952D02*
X152286104Y-79779048D01*
X152362295Y-78979047D02*
X151562295Y-78979047D01*
X151562295Y-78979047D02*
X151562295Y-78674285D01*
X151562295Y-78674285D02*
X151600390Y-78598095D01*
X151600390Y-78598095D02*
X151638485Y-78560000D01*
X151638485Y-78560000D02*
X151714676Y-78521904D01*
X151714676Y-78521904D02*
X151828961Y-78521904D01*
X151828961Y-78521904D02*
X151905152Y-78560000D01*
X151905152Y-78560000D02*
X151943247Y-78598095D01*
X151943247Y-78598095D02*
X151981342Y-78674285D01*
X151981342Y-78674285D02*
X151981342Y-78979047D01*
X129602295Y-77416189D02*
X129602295Y-77263808D01*
X129602295Y-77263808D02*
X129640390Y-77187618D01*
X129640390Y-77187618D02*
X129716580Y-77111427D01*
X129716580Y-77111427D02*
X129868961Y-77073332D01*
X129868961Y-77073332D02*
X130135628Y-77073332D01*
X130135628Y-77073332D02*
X130288009Y-77111427D01*
X130288009Y-77111427D02*
X130364200Y-77187618D01*
X130364200Y-77187618D02*
X130402295Y-77263808D01*
X130402295Y-77263808D02*
X130402295Y-77416189D01*
X130402295Y-77416189D02*
X130364200Y-77492380D01*
X130364200Y-77492380D02*
X130288009Y-77568570D01*
X130288009Y-77568570D02*
X130135628Y-77606666D01*
X130135628Y-77606666D02*
X129868961Y-77606666D01*
X129868961Y-77606666D02*
X129716580Y-77568570D01*
X129716580Y-77568570D02*
X129640390Y-77492380D01*
X129640390Y-77492380D02*
X129602295Y-77416189D01*
X129678485Y-76768571D02*
X129640390Y-76730475D01*
X129640390Y-76730475D02*
X129602295Y-76654285D01*
X129602295Y-76654285D02*
X129602295Y-76463809D01*
X129602295Y-76463809D02*
X129640390Y-76387618D01*
X129640390Y-76387618D02*
X129678485Y-76349523D01*
X129678485Y-76349523D02*
X129754676Y-76311428D01*
X129754676Y-76311428D02*
X129830866Y-76311428D01*
X129830866Y-76311428D02*
X129945152Y-76349523D01*
X129945152Y-76349523D02*
X130402295Y-76806666D01*
X130402295Y-76806666D02*
X130402295Y-76311428D01*
X130402295Y-75968570D02*
X129602295Y-75968570D01*
X129602295Y-75968570D02*
X130402295Y-75511427D01*
X130402295Y-75511427D02*
X129602295Y-75511427D01*
X118477619Y-55812295D02*
X118096667Y-55812295D01*
X118096667Y-55812295D02*
X118058571Y-56193247D01*
X118058571Y-56193247D02*
X118096667Y-56155152D01*
X118096667Y-56155152D02*
X118172857Y-56117057D01*
X118172857Y-56117057D02*
X118363333Y-56117057D01*
X118363333Y-56117057D02*
X118439524Y-56155152D01*
X118439524Y-56155152D02*
X118477619Y-56193247D01*
X118477619Y-56193247D02*
X118515714Y-56269438D01*
X118515714Y-56269438D02*
X118515714Y-56459914D01*
X118515714Y-56459914D02*
X118477619Y-56536104D01*
X118477619Y-56536104D02*
X118439524Y-56574200D01*
X118439524Y-56574200D02*
X118363333Y-56612295D01*
X118363333Y-56612295D02*
X118172857Y-56612295D01*
X118172857Y-56612295D02*
X118096667Y-56574200D01*
X118096667Y-56574200D02*
X118058571Y-56536104D01*
X118744286Y-55812295D02*
X119010953Y-56612295D01*
X119010953Y-56612295D02*
X119277619Y-55812295D01*
X136917200Y-54115237D02*
X136964819Y-53972380D01*
X136964819Y-53972380D02*
X136964819Y-53734285D01*
X136964819Y-53734285D02*
X136917200Y-53639047D01*
X136917200Y-53639047D02*
X136869580Y-53591428D01*
X136869580Y-53591428D02*
X136774342Y-53543809D01*
X136774342Y-53543809D02*
X136679104Y-53543809D01*
X136679104Y-53543809D02*
X136583866Y-53591428D01*
X136583866Y-53591428D02*
X136536247Y-53639047D01*
X136536247Y-53639047D02*
X136488628Y-53734285D01*
X136488628Y-53734285D02*
X136441009Y-53924761D01*
X136441009Y-53924761D02*
X136393390Y-54019999D01*
X136393390Y-54019999D02*
X136345771Y-54067618D01*
X136345771Y-54067618D02*
X136250533Y-54115237D01*
X136250533Y-54115237D02*
X136155295Y-54115237D01*
X136155295Y-54115237D02*
X136060057Y-54067618D01*
X136060057Y-54067618D02*
X136012438Y-54019999D01*
X136012438Y-54019999D02*
X135964819Y-53924761D01*
X135964819Y-53924761D02*
X135964819Y-53686666D01*
X135964819Y-53686666D02*
X136012438Y-53543809D01*
X136441009Y-53115237D02*
X136441009Y-52781904D01*
X136964819Y-52639047D02*
X136964819Y-53115237D01*
X136964819Y-53115237D02*
X135964819Y-53115237D01*
X135964819Y-53115237D02*
X135964819Y-52639047D01*
X136964819Y-51734285D02*
X136964819Y-52210475D01*
X136964819Y-52210475D02*
X135964819Y-52210475D01*
X136964819Y-51400951D02*
X135964819Y-51400951D01*
X136345771Y-51400951D02*
X136298152Y-51305713D01*
X136298152Y-51305713D02*
X136298152Y-51115237D01*
X136298152Y-51115237D02*
X136345771Y-51019999D01*
X136345771Y-51019999D02*
X136393390Y-50972380D01*
X136393390Y-50972380D02*
X136488628Y-50924761D01*
X136488628Y-50924761D02*
X136774342Y-50924761D01*
X136774342Y-50924761D02*
X136869580Y-50972380D01*
X136869580Y-50972380D02*
X136917200Y-51019999D01*
X136917200Y-51019999D02*
X136964819Y-51115237D01*
X136964819Y-51115237D02*
X136964819Y-51305713D01*
X136964819Y-51305713D02*
X136917200Y-51400951D01*
X113147618Y-57792295D02*
X113642856Y-57792295D01*
X113642856Y-57792295D02*
X113376190Y-58097057D01*
X113376190Y-58097057D02*
X113490475Y-58097057D01*
X113490475Y-58097057D02*
X113566666Y-58135152D01*
X113566666Y-58135152D02*
X113604761Y-58173247D01*
X113604761Y-58173247D02*
X113642856Y-58249438D01*
X113642856Y-58249438D02*
X113642856Y-58439914D01*
X113642856Y-58439914D02*
X113604761Y-58516104D01*
X113604761Y-58516104D02*
X113566666Y-58554200D01*
X113566666Y-58554200D02*
X113490475Y-58592295D01*
X113490475Y-58592295D02*
X113261904Y-58592295D01*
X113261904Y-58592295D02*
X113185713Y-58554200D01*
X113185713Y-58554200D02*
X113147618Y-58516104D01*
X113909523Y-58058961D02*
X114099999Y-58592295D01*
X114099999Y-58592295D02*
X114290476Y-58058961D01*
X114519047Y-57792295D02*
X115014285Y-57792295D01*
X115014285Y-57792295D02*
X114747619Y-58097057D01*
X114747619Y-58097057D02*
X114861904Y-58097057D01*
X114861904Y-58097057D02*
X114938095Y-58135152D01*
X114938095Y-58135152D02*
X114976190Y-58173247D01*
X114976190Y-58173247D02*
X115014285Y-58249438D01*
X115014285Y-58249438D02*
X115014285Y-58439914D01*
X115014285Y-58439914D02*
X114976190Y-58516104D01*
X114976190Y-58516104D02*
X114938095Y-58554200D01*
X114938095Y-58554200D02*
X114861904Y-58592295D01*
X114861904Y-58592295D02*
X114633333Y-58592295D01*
X114633333Y-58592295D02*
X114557142Y-58554200D01*
X114557142Y-58554200D02*
X114519047Y-58516104D01*
X152322295Y-77799046D02*
X151522295Y-77799046D01*
X151522295Y-77265713D02*
X151522295Y-77113332D01*
X151522295Y-77113332D02*
X151560390Y-77037142D01*
X151560390Y-77037142D02*
X151636580Y-76960951D01*
X151636580Y-76960951D02*
X151788961Y-76922856D01*
X151788961Y-76922856D02*
X152055628Y-76922856D01*
X152055628Y-76922856D02*
X152208009Y-76960951D01*
X152208009Y-76960951D02*
X152284200Y-77037142D01*
X152284200Y-77037142D02*
X152322295Y-77113332D01*
X152322295Y-77113332D02*
X152322295Y-77265713D01*
X152322295Y-77265713D02*
X152284200Y-77341904D01*
X152284200Y-77341904D02*
X152208009Y-77418094D01*
X152208009Y-77418094D02*
X152055628Y-77456190D01*
X152055628Y-77456190D02*
X151788961Y-77456190D01*
X151788961Y-77456190D02*
X151636580Y-77418094D01*
X151636580Y-77418094D02*
X151560390Y-77341904D01*
X151560390Y-77341904D02*
X151522295Y-77265713D01*
X151522295Y-76199047D02*
X151522295Y-76579999D01*
X151522295Y-76579999D02*
X151903247Y-76618095D01*
X151903247Y-76618095D02*
X151865152Y-76579999D01*
X151865152Y-76579999D02*
X151827057Y-76503809D01*
X151827057Y-76503809D02*
X151827057Y-76313333D01*
X151827057Y-76313333D02*
X151865152Y-76237142D01*
X151865152Y-76237142D02*
X151903247Y-76199047D01*
X151903247Y-76199047D02*
X151979438Y-76160952D01*
X151979438Y-76160952D02*
X152169914Y-76160952D01*
X152169914Y-76160952D02*
X152246104Y-76199047D01*
X152246104Y-76199047D02*
X152284200Y-76237142D01*
X152284200Y-76237142D02*
X152322295Y-76313333D01*
X152322295Y-76313333D02*
X152322295Y-76503809D01*
X152322295Y-76503809D02*
X152284200Y-76579999D01*
X152284200Y-76579999D02*
X152246104Y-76618095D01*
X152322295Y-75818094D02*
X151522295Y-75818094D01*
X151522295Y-75818094D02*
X152322295Y-75360951D01*
X152322295Y-75360951D02*
X151522295Y-75360951D01*
X129497200Y-54410475D02*
X129544819Y-54267618D01*
X129544819Y-54267618D02*
X129544819Y-54029523D01*
X129544819Y-54029523D02*
X129497200Y-53934285D01*
X129497200Y-53934285D02*
X129449580Y-53886666D01*
X129449580Y-53886666D02*
X129354342Y-53839047D01*
X129354342Y-53839047D02*
X129259104Y-53839047D01*
X129259104Y-53839047D02*
X129163866Y-53886666D01*
X129163866Y-53886666D02*
X129116247Y-53934285D01*
X129116247Y-53934285D02*
X129068628Y-54029523D01*
X129068628Y-54029523D02*
X129021009Y-54219999D01*
X129021009Y-54219999D02*
X128973390Y-54315237D01*
X128973390Y-54315237D02*
X128925771Y-54362856D01*
X128925771Y-54362856D02*
X128830533Y-54410475D01*
X128830533Y-54410475D02*
X128735295Y-54410475D01*
X128735295Y-54410475D02*
X128640057Y-54362856D01*
X128640057Y-54362856D02*
X128592438Y-54315237D01*
X128592438Y-54315237D02*
X128544819Y-54219999D01*
X128544819Y-54219999D02*
X128544819Y-53981904D01*
X128544819Y-53981904D02*
X128592438Y-53839047D01*
X129449580Y-52839047D02*
X129497200Y-52886666D01*
X129497200Y-52886666D02*
X129544819Y-53029523D01*
X129544819Y-53029523D02*
X129544819Y-53124761D01*
X129544819Y-53124761D02*
X129497200Y-53267618D01*
X129497200Y-53267618D02*
X129401961Y-53362856D01*
X129401961Y-53362856D02*
X129306723Y-53410475D01*
X129306723Y-53410475D02*
X129116247Y-53458094D01*
X129116247Y-53458094D02*
X128973390Y-53458094D01*
X128973390Y-53458094D02*
X128782914Y-53410475D01*
X128782914Y-53410475D02*
X128687676Y-53362856D01*
X128687676Y-53362856D02*
X128592438Y-53267618D01*
X128592438Y-53267618D02*
X128544819Y-53124761D01*
X128544819Y-53124761D02*
X128544819Y-53029523D01*
X128544819Y-53029523D02*
X128592438Y-52886666D01*
X128592438Y-52886666D02*
X128640057Y-52839047D01*
X129544819Y-51934285D02*
X129544819Y-52410475D01*
X129544819Y-52410475D02*
X128544819Y-52410475D01*
X129544819Y-51600951D02*
X128544819Y-51600951D01*
X129544819Y-51029523D02*
X128973390Y-51458094D01*
X128544819Y-51029523D02*
X129116247Y-51600951D01*
X145000953Y-72192295D02*
X145000953Y-71392295D01*
X145534286Y-71392295D02*
X145686667Y-71392295D01*
X145686667Y-71392295D02*
X145762857Y-71430390D01*
X145762857Y-71430390D02*
X145839048Y-71506580D01*
X145839048Y-71506580D02*
X145877143Y-71658961D01*
X145877143Y-71658961D02*
X145877143Y-71925628D01*
X145877143Y-71925628D02*
X145839048Y-72078009D01*
X145839048Y-72078009D02*
X145762857Y-72154200D01*
X145762857Y-72154200D02*
X145686667Y-72192295D01*
X145686667Y-72192295D02*
X145534286Y-72192295D01*
X145534286Y-72192295D02*
X145458095Y-72154200D01*
X145458095Y-72154200D02*
X145381905Y-72078009D01*
X145381905Y-72078009D02*
X145343809Y-71925628D01*
X145343809Y-71925628D02*
X145343809Y-71658961D01*
X145343809Y-71658961D02*
X145381905Y-71506580D01*
X145381905Y-71506580D02*
X145458095Y-71430390D01*
X145458095Y-71430390D02*
X145534286Y-71392295D01*
X146562857Y-71392295D02*
X146410476Y-71392295D01*
X146410476Y-71392295D02*
X146334285Y-71430390D01*
X146334285Y-71430390D02*
X146296190Y-71468485D01*
X146296190Y-71468485D02*
X146220000Y-71582771D01*
X146220000Y-71582771D02*
X146181904Y-71735152D01*
X146181904Y-71735152D02*
X146181904Y-72039914D01*
X146181904Y-72039914D02*
X146220000Y-72116104D01*
X146220000Y-72116104D02*
X146258095Y-72154200D01*
X146258095Y-72154200D02*
X146334285Y-72192295D01*
X146334285Y-72192295D02*
X146486666Y-72192295D01*
X146486666Y-72192295D02*
X146562857Y-72154200D01*
X146562857Y-72154200D02*
X146600952Y-72116104D01*
X146600952Y-72116104D02*
X146639047Y-72039914D01*
X146639047Y-72039914D02*
X146639047Y-71849438D01*
X146639047Y-71849438D02*
X146600952Y-71773247D01*
X146600952Y-71773247D02*
X146562857Y-71735152D01*
X146562857Y-71735152D02*
X146486666Y-71697057D01*
X146486666Y-71697057D02*
X146334285Y-71697057D01*
X146334285Y-71697057D02*
X146258095Y-71735152D01*
X146258095Y-71735152D02*
X146220000Y-71773247D01*
X146220000Y-71773247D02*
X146181904Y-71849438D01*
X146981905Y-72192295D02*
X146981905Y-71392295D01*
X146981905Y-71392295D02*
X147439048Y-72192295D01*
X147439048Y-72192295D02*
X147439048Y-71392295D01*
X117602295Y-77550951D02*
X116802295Y-77550951D01*
X117602295Y-76750952D02*
X117602295Y-77208095D01*
X117602295Y-76979523D02*
X116802295Y-76979523D01*
X116802295Y-76979523D02*
X116916580Y-77055714D01*
X116916580Y-77055714D02*
X116992771Y-77131904D01*
X116992771Y-77131904D02*
X117030866Y-77208095D01*
X117602295Y-76408094D02*
X116802295Y-76408094D01*
X116802295Y-76408094D02*
X116802295Y-76103332D01*
X116802295Y-76103332D02*
X116840390Y-76027142D01*
X116840390Y-76027142D02*
X116878485Y-75989047D01*
X116878485Y-75989047D02*
X116954676Y-75950951D01*
X116954676Y-75950951D02*
X117068961Y-75950951D01*
X117068961Y-75950951D02*
X117145152Y-75989047D01*
X117145152Y-75989047D02*
X117183247Y-76027142D01*
X117183247Y-76027142D02*
X117221342Y-76103332D01*
X117221342Y-76103332D02*
X117221342Y-76408094D01*
X145040000Y-74712295D02*
X145040000Y-73912295D01*
X145573333Y-73912295D02*
X145725714Y-73912295D01*
X145725714Y-73912295D02*
X145801904Y-73950390D01*
X145801904Y-73950390D02*
X145878095Y-74026580D01*
X145878095Y-74026580D02*
X145916190Y-74178961D01*
X145916190Y-74178961D02*
X145916190Y-74445628D01*
X145916190Y-74445628D02*
X145878095Y-74598009D01*
X145878095Y-74598009D02*
X145801904Y-74674200D01*
X145801904Y-74674200D02*
X145725714Y-74712295D01*
X145725714Y-74712295D02*
X145573333Y-74712295D01*
X145573333Y-74712295D02*
X145497142Y-74674200D01*
X145497142Y-74674200D02*
X145420952Y-74598009D01*
X145420952Y-74598009D02*
X145382856Y-74445628D01*
X145382856Y-74445628D02*
X145382856Y-74178961D01*
X145382856Y-74178961D02*
X145420952Y-74026580D01*
X145420952Y-74026580D02*
X145497142Y-73950390D01*
X145497142Y-73950390D02*
X145573333Y-73912295D01*
X146601904Y-73912295D02*
X146449523Y-73912295D01*
X146449523Y-73912295D02*
X146373332Y-73950390D01*
X146373332Y-73950390D02*
X146335237Y-73988485D01*
X146335237Y-73988485D02*
X146259047Y-74102771D01*
X146259047Y-74102771D02*
X146220951Y-74255152D01*
X146220951Y-74255152D02*
X146220951Y-74559914D01*
X146220951Y-74559914D02*
X146259047Y-74636104D01*
X146259047Y-74636104D02*
X146297142Y-74674200D01*
X146297142Y-74674200D02*
X146373332Y-74712295D01*
X146373332Y-74712295D02*
X146525713Y-74712295D01*
X146525713Y-74712295D02*
X146601904Y-74674200D01*
X146601904Y-74674200D02*
X146639999Y-74636104D01*
X146639999Y-74636104D02*
X146678094Y-74559914D01*
X146678094Y-74559914D02*
X146678094Y-74369438D01*
X146678094Y-74369438D02*
X146639999Y-74293247D01*
X146639999Y-74293247D02*
X146601904Y-74255152D01*
X146601904Y-74255152D02*
X146525713Y-74217057D01*
X146525713Y-74217057D02*
X146373332Y-74217057D01*
X146373332Y-74217057D02*
X146297142Y-74255152D01*
X146297142Y-74255152D02*
X146259047Y-74293247D01*
X146259047Y-74293247D02*
X146220951Y-74369438D01*
X147020952Y-74712295D02*
X147020952Y-73912295D01*
X147020952Y-73912295D02*
X147325714Y-73912295D01*
X147325714Y-73912295D02*
X147401904Y-73950390D01*
X147401904Y-73950390D02*
X147439999Y-73988485D01*
X147439999Y-73988485D02*
X147478095Y-74064676D01*
X147478095Y-74064676D02*
X147478095Y-74178961D01*
X147478095Y-74178961D02*
X147439999Y-74255152D01*
X147439999Y-74255152D02*
X147401904Y-74293247D01*
X147401904Y-74293247D02*
X147325714Y-74331342D01*
X147325714Y-74331342D02*
X147020952Y-74331342D01*
X101370112Y-48181009D02*
X101036779Y-48181009D01*
X101036779Y-48704819D02*
X101036779Y-47704819D01*
X101036779Y-47704819D02*
X101512969Y-47704819D01*
X101893922Y-48704819D02*
X101893922Y-47704819D01*
X101893922Y-47704819D02*
X102274874Y-47704819D01*
X102274874Y-47704819D02*
X102370112Y-47752438D01*
X102370112Y-47752438D02*
X102417731Y-47800057D01*
X102417731Y-47800057D02*
X102465350Y-47895295D01*
X102465350Y-47895295D02*
X102465350Y-48038152D01*
X102465350Y-48038152D02*
X102417731Y-48133390D01*
X102417731Y-48133390D02*
X102370112Y-48181009D01*
X102370112Y-48181009D02*
X102274874Y-48228628D01*
X102274874Y-48228628D02*
X101893922Y-48228628D01*
X102846303Y-48419104D02*
X103322493Y-48419104D01*
X102751065Y-48704819D02*
X103084398Y-47704819D01*
X103084398Y-47704819D02*
X103417731Y-48704819D01*
X103703446Y-48419104D02*
X104179636Y-48419104D01*
X103608208Y-48704819D02*
X103941541Y-47704819D01*
X103941541Y-47704819D02*
X104274874Y-48704819D01*
X104608208Y-48323866D02*
X105370113Y-48323866D01*
X105846303Y-48704819D02*
X105846303Y-47704819D01*
X105846303Y-47704819D02*
X106227255Y-47704819D01*
X106227255Y-47704819D02*
X106322493Y-47752438D01*
X106322493Y-47752438D02*
X106370112Y-47800057D01*
X106370112Y-47800057D02*
X106417731Y-47895295D01*
X106417731Y-47895295D02*
X106417731Y-48038152D01*
X106417731Y-48038152D02*
X106370112Y-48133390D01*
X106370112Y-48133390D02*
X106322493Y-48181009D01*
X106322493Y-48181009D02*
X106227255Y-48228628D01*
X106227255Y-48228628D02*
X105846303Y-48228628D01*
X107417731Y-48704819D02*
X107084398Y-48228628D01*
X106846303Y-48704819D02*
X106846303Y-47704819D01*
X106846303Y-47704819D02*
X107227255Y-47704819D01*
X107227255Y-47704819D02*
X107322493Y-47752438D01*
X107322493Y-47752438D02*
X107370112Y-47800057D01*
X107370112Y-47800057D02*
X107417731Y-47895295D01*
X107417731Y-47895295D02*
X107417731Y-48038152D01*
X107417731Y-48038152D02*
X107370112Y-48133390D01*
X107370112Y-48133390D02*
X107322493Y-48181009D01*
X107322493Y-48181009D02*
X107227255Y-48228628D01*
X107227255Y-48228628D02*
X106846303Y-48228628D01*
X108036779Y-47704819D02*
X108227255Y-47704819D01*
X108227255Y-47704819D02*
X108322493Y-47752438D01*
X108322493Y-47752438D02*
X108417731Y-47847676D01*
X108417731Y-47847676D02*
X108465350Y-48038152D01*
X108465350Y-48038152D02*
X108465350Y-48371485D01*
X108465350Y-48371485D02*
X108417731Y-48561961D01*
X108417731Y-48561961D02*
X108322493Y-48657200D01*
X108322493Y-48657200D02*
X108227255Y-48704819D01*
X108227255Y-48704819D02*
X108036779Y-48704819D01*
X108036779Y-48704819D02*
X107941541Y-48657200D01*
X107941541Y-48657200D02*
X107846303Y-48561961D01*
X107846303Y-48561961D02*
X107798684Y-48371485D01*
X107798684Y-48371485D02*
X107798684Y-48038152D01*
X107798684Y-48038152D02*
X107846303Y-47847676D01*
X107846303Y-47847676D02*
X107941541Y-47752438D01*
X107941541Y-47752438D02*
X108036779Y-47704819D01*
X108751065Y-47704819D02*
X109322493Y-47704819D01*
X109036779Y-48704819D02*
X109036779Y-47704819D01*
X109846303Y-47704819D02*
X110036779Y-47704819D01*
X110036779Y-47704819D02*
X110132017Y-47752438D01*
X110132017Y-47752438D02*
X110227255Y-47847676D01*
X110227255Y-47847676D02*
X110274874Y-48038152D01*
X110274874Y-48038152D02*
X110274874Y-48371485D01*
X110274874Y-48371485D02*
X110227255Y-48561961D01*
X110227255Y-48561961D02*
X110132017Y-48657200D01*
X110132017Y-48657200D02*
X110036779Y-48704819D01*
X110036779Y-48704819D02*
X109846303Y-48704819D01*
X109846303Y-48704819D02*
X109751065Y-48657200D01*
X109751065Y-48657200D02*
X109655827Y-48561961D01*
X109655827Y-48561961D02*
X109608208Y-48371485D01*
X109608208Y-48371485D02*
X109608208Y-48038152D01*
X109608208Y-48038152D02*
X109655827Y-47847676D01*
X109655827Y-47847676D02*
X109751065Y-47752438D01*
X109751065Y-47752438D02*
X109846303Y-47704819D01*
X111417732Y-48419104D02*
X111893922Y-48419104D01*
X111322494Y-48704819D02*
X111655827Y-47704819D01*
X111655827Y-47704819D02*
X111989160Y-48704819D01*
X121912295Y-77466189D02*
X121912295Y-77313808D01*
X121912295Y-77313808D02*
X121950390Y-77237618D01*
X121950390Y-77237618D02*
X122026580Y-77161427D01*
X122026580Y-77161427D02*
X122178961Y-77123332D01*
X122178961Y-77123332D02*
X122445628Y-77123332D01*
X122445628Y-77123332D02*
X122598009Y-77161427D01*
X122598009Y-77161427D02*
X122674200Y-77237618D01*
X122674200Y-77237618D02*
X122712295Y-77313808D01*
X122712295Y-77313808D02*
X122712295Y-77466189D01*
X122712295Y-77466189D02*
X122674200Y-77542380D01*
X122674200Y-77542380D02*
X122598009Y-77618570D01*
X122598009Y-77618570D02*
X122445628Y-77656666D01*
X122445628Y-77656666D02*
X122178961Y-77656666D01*
X122178961Y-77656666D02*
X122026580Y-77618570D01*
X122026580Y-77618570D02*
X121950390Y-77542380D01*
X121950390Y-77542380D02*
X121912295Y-77466189D01*
X122712295Y-76361428D02*
X122712295Y-76818571D01*
X122712295Y-76589999D02*
X121912295Y-76589999D01*
X121912295Y-76589999D02*
X122026580Y-76666190D01*
X122026580Y-76666190D02*
X122102771Y-76742380D01*
X122102771Y-76742380D02*
X122140866Y-76818571D01*
X122712295Y-76018570D02*
X121912295Y-76018570D01*
X121912295Y-76018570D02*
X122712295Y-75561427D01*
X122712295Y-75561427D02*
X121912295Y-75561427D01*
X145000953Y-67112295D02*
X145000953Y-66312295D01*
X145534286Y-66312295D02*
X145686667Y-66312295D01*
X145686667Y-66312295D02*
X145762857Y-66350390D01*
X145762857Y-66350390D02*
X145839048Y-66426580D01*
X145839048Y-66426580D02*
X145877143Y-66578961D01*
X145877143Y-66578961D02*
X145877143Y-66845628D01*
X145877143Y-66845628D02*
X145839048Y-66998009D01*
X145839048Y-66998009D02*
X145762857Y-67074200D01*
X145762857Y-67074200D02*
X145686667Y-67112295D01*
X145686667Y-67112295D02*
X145534286Y-67112295D01*
X145534286Y-67112295D02*
X145458095Y-67074200D01*
X145458095Y-67074200D02*
X145381905Y-66998009D01*
X145381905Y-66998009D02*
X145343809Y-66845628D01*
X145343809Y-66845628D02*
X145343809Y-66578961D01*
X145343809Y-66578961D02*
X145381905Y-66426580D01*
X145381905Y-66426580D02*
X145458095Y-66350390D01*
X145458095Y-66350390D02*
X145534286Y-66312295D01*
X146143809Y-66312295D02*
X146677143Y-66312295D01*
X146677143Y-66312295D02*
X146334285Y-67112295D01*
X146981905Y-67112295D02*
X146981905Y-66312295D01*
X146981905Y-66312295D02*
X147439048Y-67112295D01*
X147439048Y-67112295D02*
X147439048Y-66312295D01*
X134404819Y-54151427D02*
X133404819Y-54151427D01*
X133404819Y-54151427D02*
X134119104Y-53818094D01*
X134119104Y-53818094D02*
X133404819Y-53484761D01*
X133404819Y-53484761D02*
X134404819Y-53484761D01*
X133404819Y-52818094D02*
X133404819Y-52627618D01*
X133404819Y-52627618D02*
X133452438Y-52532380D01*
X133452438Y-52532380D02*
X133547676Y-52437142D01*
X133547676Y-52437142D02*
X133738152Y-52389523D01*
X133738152Y-52389523D02*
X134071485Y-52389523D01*
X134071485Y-52389523D02*
X134261961Y-52437142D01*
X134261961Y-52437142D02*
X134357200Y-52532380D01*
X134357200Y-52532380D02*
X134404819Y-52627618D01*
X134404819Y-52627618D02*
X134404819Y-52818094D01*
X134404819Y-52818094D02*
X134357200Y-52913332D01*
X134357200Y-52913332D02*
X134261961Y-53008570D01*
X134261961Y-53008570D02*
X134071485Y-53056189D01*
X134071485Y-53056189D02*
X133738152Y-53056189D01*
X133738152Y-53056189D02*
X133547676Y-53008570D01*
X133547676Y-53008570D02*
X133452438Y-52913332D01*
X133452438Y-52913332D02*
X133404819Y-52818094D01*
X134357200Y-52008570D02*
X134404819Y-51865713D01*
X134404819Y-51865713D02*
X134404819Y-51627618D01*
X134404819Y-51627618D02*
X134357200Y-51532380D01*
X134357200Y-51532380D02*
X134309580Y-51484761D01*
X134309580Y-51484761D02*
X134214342Y-51437142D01*
X134214342Y-51437142D02*
X134119104Y-51437142D01*
X134119104Y-51437142D02*
X134023866Y-51484761D01*
X134023866Y-51484761D02*
X133976247Y-51532380D01*
X133976247Y-51532380D02*
X133928628Y-51627618D01*
X133928628Y-51627618D02*
X133881009Y-51818094D01*
X133881009Y-51818094D02*
X133833390Y-51913332D01*
X133833390Y-51913332D02*
X133785771Y-51960951D01*
X133785771Y-51960951D02*
X133690533Y-52008570D01*
X133690533Y-52008570D02*
X133595295Y-52008570D01*
X133595295Y-52008570D02*
X133500057Y-51960951D01*
X133500057Y-51960951D02*
X133452438Y-51913332D01*
X133452438Y-51913332D02*
X133404819Y-51818094D01*
X133404819Y-51818094D02*
X133404819Y-51579999D01*
X133404819Y-51579999D02*
X133452438Y-51437142D01*
X134404819Y-51008570D02*
X133404819Y-51008570D01*
X127002295Y-77407142D02*
X127002295Y-77254761D01*
X127002295Y-77254761D02*
X127040390Y-77178571D01*
X127040390Y-77178571D02*
X127116580Y-77102380D01*
X127116580Y-77102380D02*
X127268961Y-77064285D01*
X127268961Y-77064285D02*
X127535628Y-77064285D01*
X127535628Y-77064285D02*
X127688009Y-77102380D01*
X127688009Y-77102380D02*
X127764200Y-77178571D01*
X127764200Y-77178571D02*
X127802295Y-77254761D01*
X127802295Y-77254761D02*
X127802295Y-77407142D01*
X127802295Y-77407142D02*
X127764200Y-77483333D01*
X127764200Y-77483333D02*
X127688009Y-77559523D01*
X127688009Y-77559523D02*
X127535628Y-77597619D01*
X127535628Y-77597619D02*
X127268961Y-77597619D01*
X127268961Y-77597619D02*
X127116580Y-77559523D01*
X127116580Y-77559523D02*
X127040390Y-77483333D01*
X127040390Y-77483333D02*
X127002295Y-77407142D01*
X127078485Y-76759524D02*
X127040390Y-76721428D01*
X127040390Y-76721428D02*
X127002295Y-76645238D01*
X127002295Y-76645238D02*
X127002295Y-76454762D01*
X127002295Y-76454762D02*
X127040390Y-76378571D01*
X127040390Y-76378571D02*
X127078485Y-76340476D01*
X127078485Y-76340476D02*
X127154676Y-76302381D01*
X127154676Y-76302381D02*
X127230866Y-76302381D01*
X127230866Y-76302381D02*
X127345152Y-76340476D01*
X127345152Y-76340476D02*
X127802295Y-76797619D01*
X127802295Y-76797619D02*
X127802295Y-76302381D01*
X127802295Y-75959523D02*
X127002295Y-75959523D01*
X127002295Y-75959523D02*
X127002295Y-75654761D01*
X127002295Y-75654761D02*
X127040390Y-75578571D01*
X127040390Y-75578571D02*
X127078485Y-75540476D01*
X127078485Y-75540476D02*
X127154676Y-75502380D01*
X127154676Y-75502380D02*
X127268961Y-75502380D01*
X127268961Y-75502380D02*
X127345152Y-75540476D01*
X127345152Y-75540476D02*
X127383247Y-75578571D01*
X127383247Y-75578571D02*
X127421342Y-75654761D01*
X127421342Y-75654761D02*
X127421342Y-75959523D01*
X145533810Y-61352295D02*
X145686191Y-61352295D01*
X145686191Y-61352295D02*
X145762381Y-61390390D01*
X145762381Y-61390390D02*
X145838572Y-61466580D01*
X145838572Y-61466580D02*
X145876667Y-61618961D01*
X145876667Y-61618961D02*
X145876667Y-61885628D01*
X145876667Y-61885628D02*
X145838572Y-62038009D01*
X145838572Y-62038009D02*
X145762381Y-62114200D01*
X145762381Y-62114200D02*
X145686191Y-62152295D01*
X145686191Y-62152295D02*
X145533810Y-62152295D01*
X145533810Y-62152295D02*
X145457619Y-62114200D01*
X145457619Y-62114200D02*
X145381429Y-62038009D01*
X145381429Y-62038009D02*
X145343333Y-61885628D01*
X145343333Y-61885628D02*
X145343333Y-61618961D01*
X145343333Y-61618961D02*
X145381429Y-61466580D01*
X145381429Y-61466580D02*
X145457619Y-61390390D01*
X145457619Y-61390390D02*
X145533810Y-61352295D01*
X146562381Y-61618961D02*
X146562381Y-62152295D01*
X146371905Y-61314200D02*
X146181428Y-61885628D01*
X146181428Y-61885628D02*
X146676667Y-61885628D01*
X146981429Y-62152295D02*
X146981429Y-61352295D01*
X146981429Y-61352295D02*
X147438572Y-62152295D01*
X147438572Y-62152295D02*
X147438572Y-61352295D01*
X124412295Y-77417142D02*
X124412295Y-77264761D01*
X124412295Y-77264761D02*
X124450390Y-77188571D01*
X124450390Y-77188571D02*
X124526580Y-77112380D01*
X124526580Y-77112380D02*
X124678961Y-77074285D01*
X124678961Y-77074285D02*
X124945628Y-77074285D01*
X124945628Y-77074285D02*
X125098009Y-77112380D01*
X125098009Y-77112380D02*
X125174200Y-77188571D01*
X125174200Y-77188571D02*
X125212295Y-77264761D01*
X125212295Y-77264761D02*
X125212295Y-77417142D01*
X125212295Y-77417142D02*
X125174200Y-77493333D01*
X125174200Y-77493333D02*
X125098009Y-77569523D01*
X125098009Y-77569523D02*
X124945628Y-77607619D01*
X124945628Y-77607619D02*
X124678961Y-77607619D01*
X124678961Y-77607619D02*
X124526580Y-77569523D01*
X124526580Y-77569523D02*
X124450390Y-77493333D01*
X124450390Y-77493333D02*
X124412295Y-77417142D01*
X125212295Y-76312381D02*
X125212295Y-76769524D01*
X125212295Y-76540952D02*
X124412295Y-76540952D01*
X124412295Y-76540952D02*
X124526580Y-76617143D01*
X124526580Y-76617143D02*
X124602771Y-76693333D01*
X124602771Y-76693333D02*
X124640866Y-76769524D01*
X125212295Y-75969523D02*
X124412295Y-75969523D01*
X124412295Y-75969523D02*
X124412295Y-75664761D01*
X124412295Y-75664761D02*
X124450390Y-75588571D01*
X124450390Y-75588571D02*
X124488485Y-75550476D01*
X124488485Y-75550476D02*
X124564676Y-75512380D01*
X124564676Y-75512380D02*
X124678961Y-75512380D01*
X124678961Y-75512380D02*
X124755152Y-75550476D01*
X124755152Y-75550476D02*
X124793247Y-75588571D01*
X124793247Y-75588571D02*
X124831342Y-75664761D01*
X124831342Y-75664761D02*
X124831342Y-75969523D01*
X133406104Y-59864285D02*
X133444200Y-59902381D01*
X133444200Y-59902381D02*
X133482295Y-60016666D01*
X133482295Y-60016666D02*
X133482295Y-60092857D01*
X133482295Y-60092857D02*
X133444200Y-60207143D01*
X133444200Y-60207143D02*
X133368009Y-60283333D01*
X133368009Y-60283333D02*
X133291819Y-60321428D01*
X133291819Y-60321428D02*
X133139438Y-60359524D01*
X133139438Y-60359524D02*
X133025152Y-60359524D01*
X133025152Y-60359524D02*
X132872771Y-60321428D01*
X132872771Y-60321428D02*
X132796580Y-60283333D01*
X132796580Y-60283333D02*
X132720390Y-60207143D01*
X132720390Y-60207143D02*
X132682295Y-60092857D01*
X132682295Y-60092857D02*
X132682295Y-60016666D01*
X132682295Y-60016666D02*
X132720390Y-59902381D01*
X132720390Y-59902381D02*
X132758485Y-59864285D01*
X133482295Y-59102381D02*
X133482295Y-59559524D01*
X133482295Y-59330952D02*
X132682295Y-59330952D01*
X132682295Y-59330952D02*
X132796580Y-59407143D01*
X132796580Y-59407143D02*
X132872771Y-59483333D01*
X132872771Y-59483333D02*
X132910866Y-59559524D01*
X132758485Y-58797619D02*
X132720390Y-58759523D01*
X132720390Y-58759523D02*
X132682295Y-58683333D01*
X132682295Y-58683333D02*
X132682295Y-58492857D01*
X132682295Y-58492857D02*
X132720390Y-58416666D01*
X132720390Y-58416666D02*
X132758485Y-58378571D01*
X132758485Y-58378571D02*
X132834676Y-58340476D01*
X132834676Y-58340476D02*
X132910866Y-58340476D01*
X132910866Y-58340476D02*
X133025152Y-58378571D01*
X133025152Y-58378571D02*
X133482295Y-58835714D01*
X133482295Y-58835714D02*
X133482295Y-58340476D01*
X144256667Y-56596104D02*
X144218571Y-56634200D01*
X144218571Y-56634200D02*
X144104286Y-56672295D01*
X144104286Y-56672295D02*
X144028095Y-56672295D01*
X144028095Y-56672295D02*
X143913809Y-56634200D01*
X143913809Y-56634200D02*
X143837619Y-56558009D01*
X143837619Y-56558009D02*
X143799524Y-56481819D01*
X143799524Y-56481819D02*
X143761428Y-56329438D01*
X143761428Y-56329438D02*
X143761428Y-56215152D01*
X143761428Y-56215152D02*
X143799524Y-56062771D01*
X143799524Y-56062771D02*
X143837619Y-55986580D01*
X143837619Y-55986580D02*
X143913809Y-55910390D01*
X143913809Y-55910390D02*
X144028095Y-55872295D01*
X144028095Y-55872295D02*
X144104286Y-55872295D01*
X144104286Y-55872295D02*
X144218571Y-55910390D01*
X144218571Y-55910390D02*
X144256667Y-55948485D01*
X144713809Y-56215152D02*
X144637619Y-56177057D01*
X144637619Y-56177057D02*
X144599524Y-56138961D01*
X144599524Y-56138961D02*
X144561428Y-56062771D01*
X144561428Y-56062771D02*
X144561428Y-56024676D01*
X144561428Y-56024676D02*
X144599524Y-55948485D01*
X144599524Y-55948485D02*
X144637619Y-55910390D01*
X144637619Y-55910390D02*
X144713809Y-55872295D01*
X144713809Y-55872295D02*
X144866190Y-55872295D01*
X144866190Y-55872295D02*
X144942381Y-55910390D01*
X144942381Y-55910390D02*
X144980476Y-55948485D01*
X144980476Y-55948485D02*
X145018571Y-56024676D01*
X145018571Y-56024676D02*
X145018571Y-56062771D01*
X145018571Y-56062771D02*
X144980476Y-56138961D01*
X144980476Y-56138961D02*
X144942381Y-56177057D01*
X144942381Y-56177057D02*
X144866190Y-56215152D01*
X144866190Y-56215152D02*
X144713809Y-56215152D01*
X144713809Y-56215152D02*
X144637619Y-56253247D01*
X144637619Y-56253247D02*
X144599524Y-56291342D01*
X144599524Y-56291342D02*
X144561428Y-56367533D01*
X144561428Y-56367533D02*
X144561428Y-56519914D01*
X144561428Y-56519914D02*
X144599524Y-56596104D01*
X144599524Y-56596104D02*
X144637619Y-56634200D01*
X144637619Y-56634200D02*
X144713809Y-56672295D01*
X144713809Y-56672295D02*
X144866190Y-56672295D01*
X144866190Y-56672295D02*
X144942381Y-56634200D01*
X144942381Y-56634200D02*
X144980476Y-56596104D01*
X144980476Y-56596104D02*
X145018571Y-56519914D01*
X145018571Y-56519914D02*
X145018571Y-56367533D01*
X145018571Y-56367533D02*
X144980476Y-56291342D01*
X144980476Y-56291342D02*
X144942381Y-56253247D01*
X144942381Y-56253247D02*
X144866190Y-56215152D01*
X137123333Y-72579580D02*
X137075714Y-72627200D01*
X137075714Y-72627200D02*
X136932857Y-72674819D01*
X136932857Y-72674819D02*
X136837619Y-72674819D01*
X136837619Y-72674819D02*
X136694762Y-72627200D01*
X136694762Y-72627200D02*
X136599524Y-72531961D01*
X136599524Y-72531961D02*
X136551905Y-72436723D01*
X136551905Y-72436723D02*
X136504286Y-72246247D01*
X136504286Y-72246247D02*
X136504286Y-72103390D01*
X136504286Y-72103390D02*
X136551905Y-71912914D01*
X136551905Y-71912914D02*
X136599524Y-71817676D01*
X136599524Y-71817676D02*
X136694762Y-71722438D01*
X136694762Y-71722438D02*
X136837619Y-71674819D01*
X136837619Y-71674819D02*
X136932857Y-71674819D01*
X136932857Y-71674819D02*
X137075714Y-71722438D01*
X137075714Y-71722438D02*
X137123333Y-71770057D01*
X137980476Y-72008152D02*
X137980476Y-72674819D01*
X137742381Y-71627200D02*
X137504286Y-72341485D01*
X137504286Y-72341485D02*
X138123333Y-72341485D01*
X113934819Y-80169523D02*
X114649104Y-80169523D01*
X114649104Y-80169523D02*
X114791961Y-80217142D01*
X114791961Y-80217142D02*
X114887200Y-80312380D01*
X114887200Y-80312380D02*
X114934819Y-80455237D01*
X114934819Y-80455237D02*
X114934819Y-80550475D01*
X114934819Y-79169523D02*
X114934819Y-79740951D01*
X114934819Y-79455237D02*
X113934819Y-79455237D01*
X113934819Y-79455237D02*
X114077676Y-79550475D01*
X114077676Y-79550475D02*
X114172914Y-79645713D01*
X114172914Y-79645713D02*
X114220533Y-79740951D01*
X114030057Y-78788570D02*
X113982438Y-78740951D01*
X113982438Y-78740951D02*
X113934819Y-78645713D01*
X113934819Y-78645713D02*
X113934819Y-78407618D01*
X113934819Y-78407618D02*
X113982438Y-78312380D01*
X113982438Y-78312380D02*
X114030057Y-78264761D01*
X114030057Y-78264761D02*
X114125295Y-78217142D01*
X114125295Y-78217142D02*
X114220533Y-78217142D01*
X114220533Y-78217142D02*
X114363390Y-78264761D01*
X114363390Y-78264761D02*
X114934819Y-78836189D01*
X114934819Y-78836189D02*
X114934819Y-78217142D01*
X137153333Y-74169580D02*
X137105714Y-74217200D01*
X137105714Y-74217200D02*
X136962857Y-74264819D01*
X136962857Y-74264819D02*
X136867619Y-74264819D01*
X136867619Y-74264819D02*
X136724762Y-74217200D01*
X136724762Y-74217200D02*
X136629524Y-74121961D01*
X136629524Y-74121961D02*
X136581905Y-74026723D01*
X136581905Y-74026723D02*
X136534286Y-73836247D01*
X136534286Y-73836247D02*
X136534286Y-73693390D01*
X136534286Y-73693390D02*
X136581905Y-73502914D01*
X136581905Y-73502914D02*
X136629524Y-73407676D01*
X136629524Y-73407676D02*
X136724762Y-73312438D01*
X136724762Y-73312438D02*
X136867619Y-73264819D01*
X136867619Y-73264819D02*
X136962857Y-73264819D01*
X136962857Y-73264819D02*
X137105714Y-73312438D01*
X137105714Y-73312438D02*
X137153333Y-73360057D01*
X137629524Y-74264819D02*
X137820000Y-74264819D01*
X137820000Y-74264819D02*
X137915238Y-74217200D01*
X137915238Y-74217200D02*
X137962857Y-74169580D01*
X137962857Y-74169580D02*
X138058095Y-74026723D01*
X138058095Y-74026723D02*
X138105714Y-73836247D01*
X138105714Y-73836247D02*
X138105714Y-73455295D01*
X138105714Y-73455295D02*
X138058095Y-73360057D01*
X138058095Y-73360057D02*
X138010476Y-73312438D01*
X138010476Y-73312438D02*
X137915238Y-73264819D01*
X137915238Y-73264819D02*
X137724762Y-73264819D01*
X137724762Y-73264819D02*
X137629524Y-73312438D01*
X137629524Y-73312438D02*
X137581905Y-73360057D01*
X137581905Y-73360057D02*
X137534286Y-73455295D01*
X137534286Y-73455295D02*
X137534286Y-73693390D01*
X137534286Y-73693390D02*
X137581905Y-73788628D01*
X137581905Y-73788628D02*
X137629524Y-73836247D01*
X137629524Y-73836247D02*
X137724762Y-73883866D01*
X137724762Y-73883866D02*
X137915238Y-73883866D01*
X137915238Y-73883866D02*
X138010476Y-73836247D01*
X138010476Y-73836247D02*
X138058095Y-73788628D01*
X138058095Y-73788628D02*
X138105714Y-73693390D01*
X122973809Y-59878628D02*
X122973809Y-60354819D01*
X122640476Y-59354819D02*
X122973809Y-59878628D01*
X122973809Y-59878628D02*
X123307142Y-59354819D01*
X123592857Y-59450057D02*
X123640476Y-59402438D01*
X123640476Y-59402438D02*
X123735714Y-59354819D01*
X123735714Y-59354819D02*
X123973809Y-59354819D01*
X123973809Y-59354819D02*
X124069047Y-59402438D01*
X124069047Y-59402438D02*
X124116666Y-59450057D01*
X124116666Y-59450057D02*
X124164285Y-59545295D01*
X124164285Y-59545295D02*
X124164285Y-59640533D01*
X124164285Y-59640533D02*
X124116666Y-59783390D01*
X124116666Y-59783390D02*
X123545238Y-60354819D01*
X123545238Y-60354819D02*
X124164285Y-60354819D01*
X130358095Y-69164819D02*
X130358095Y-69974342D01*
X130358095Y-69974342D02*
X130405714Y-70069580D01*
X130405714Y-70069580D02*
X130453333Y-70117200D01*
X130453333Y-70117200D02*
X130548571Y-70164819D01*
X130548571Y-70164819D02*
X130739047Y-70164819D01*
X130739047Y-70164819D02*
X130834285Y-70117200D01*
X130834285Y-70117200D02*
X130881904Y-70069580D01*
X130881904Y-70069580D02*
X130929523Y-69974342D01*
X130929523Y-69974342D02*
X130929523Y-69164819D01*
X131358095Y-69260057D02*
X131405714Y-69212438D01*
X131405714Y-69212438D02*
X131500952Y-69164819D01*
X131500952Y-69164819D02*
X131739047Y-69164819D01*
X131739047Y-69164819D02*
X131834285Y-69212438D01*
X131834285Y-69212438D02*
X131881904Y-69260057D01*
X131881904Y-69260057D02*
X131929523Y-69355295D01*
X131929523Y-69355295D02*
X131929523Y-69450533D01*
X131929523Y-69450533D02*
X131881904Y-69593390D01*
X131881904Y-69593390D02*
X131310476Y-70164819D01*
X131310476Y-70164819D02*
X131929523Y-70164819D01*
X139655714Y-56646104D02*
X139617618Y-56684200D01*
X139617618Y-56684200D02*
X139503333Y-56722295D01*
X139503333Y-56722295D02*
X139427142Y-56722295D01*
X139427142Y-56722295D02*
X139312856Y-56684200D01*
X139312856Y-56684200D02*
X139236666Y-56608009D01*
X139236666Y-56608009D02*
X139198571Y-56531819D01*
X139198571Y-56531819D02*
X139160475Y-56379438D01*
X139160475Y-56379438D02*
X139160475Y-56265152D01*
X139160475Y-56265152D02*
X139198571Y-56112771D01*
X139198571Y-56112771D02*
X139236666Y-56036580D01*
X139236666Y-56036580D02*
X139312856Y-55960390D01*
X139312856Y-55960390D02*
X139427142Y-55922295D01*
X139427142Y-55922295D02*
X139503333Y-55922295D01*
X139503333Y-55922295D02*
X139617618Y-55960390D01*
X139617618Y-55960390D02*
X139655714Y-55998485D01*
X140417618Y-56722295D02*
X139960475Y-56722295D01*
X140189047Y-56722295D02*
X140189047Y-55922295D01*
X140189047Y-55922295D02*
X140112856Y-56036580D01*
X140112856Y-56036580D02*
X140036666Y-56112771D01*
X140036666Y-56112771D02*
X139960475Y-56150866D01*
X141103333Y-56188961D02*
X141103333Y-56722295D01*
X140912857Y-55884200D02*
X140722380Y-56455628D01*
X140722380Y-56455628D02*
X141217619Y-56455628D01*
X124834167Y-55561045D02*
X124567500Y-55180092D01*
X124377024Y-55561045D02*
X124377024Y-54761045D01*
X124377024Y-54761045D02*
X124681786Y-54761045D01*
X124681786Y-54761045D02*
X124757976Y-54799140D01*
X124757976Y-54799140D02*
X124796071Y-54837235D01*
X124796071Y-54837235D02*
X124834167Y-54913426D01*
X124834167Y-54913426D02*
X124834167Y-55027711D01*
X124834167Y-55027711D02*
X124796071Y-55103902D01*
X124796071Y-55103902D02*
X124757976Y-55141997D01*
X124757976Y-55141997D02*
X124681786Y-55180092D01*
X124681786Y-55180092D02*
X124377024Y-55180092D01*
X125138928Y-54837235D02*
X125177024Y-54799140D01*
X125177024Y-54799140D02*
X125253214Y-54761045D01*
X125253214Y-54761045D02*
X125443690Y-54761045D01*
X125443690Y-54761045D02*
X125519881Y-54799140D01*
X125519881Y-54799140D02*
X125557976Y-54837235D01*
X125557976Y-54837235D02*
X125596071Y-54913426D01*
X125596071Y-54913426D02*
X125596071Y-54989616D01*
X125596071Y-54989616D02*
X125557976Y-55103902D01*
X125557976Y-55103902D02*
X125100833Y-55561045D01*
X125100833Y-55561045D02*
X125596071Y-55561045D01*
X142186667Y-56656104D02*
X142148571Y-56694200D01*
X142148571Y-56694200D02*
X142034286Y-56732295D01*
X142034286Y-56732295D02*
X141958095Y-56732295D01*
X141958095Y-56732295D02*
X141843809Y-56694200D01*
X141843809Y-56694200D02*
X141767619Y-56618009D01*
X141767619Y-56618009D02*
X141729524Y-56541819D01*
X141729524Y-56541819D02*
X141691428Y-56389438D01*
X141691428Y-56389438D02*
X141691428Y-56275152D01*
X141691428Y-56275152D02*
X141729524Y-56122771D01*
X141729524Y-56122771D02*
X141767619Y-56046580D01*
X141767619Y-56046580D02*
X141843809Y-55970390D01*
X141843809Y-55970390D02*
X141958095Y-55932295D01*
X141958095Y-55932295D02*
X142034286Y-55932295D01*
X142034286Y-55932295D02*
X142148571Y-55970390D01*
X142148571Y-55970390D02*
X142186667Y-56008485D01*
X142910476Y-55932295D02*
X142529524Y-55932295D01*
X142529524Y-55932295D02*
X142491428Y-56313247D01*
X142491428Y-56313247D02*
X142529524Y-56275152D01*
X142529524Y-56275152D02*
X142605714Y-56237057D01*
X142605714Y-56237057D02*
X142796190Y-56237057D01*
X142796190Y-56237057D02*
X142872381Y-56275152D01*
X142872381Y-56275152D02*
X142910476Y-56313247D01*
X142910476Y-56313247D02*
X142948571Y-56389438D01*
X142948571Y-56389438D02*
X142948571Y-56579914D01*
X142948571Y-56579914D02*
X142910476Y-56656104D01*
X142910476Y-56656104D02*
X142872381Y-56694200D01*
X142872381Y-56694200D02*
X142796190Y-56732295D01*
X142796190Y-56732295D02*
X142605714Y-56732295D01*
X142605714Y-56732295D02*
X142529524Y-56694200D01*
X142529524Y-56694200D02*
X142491428Y-56656104D01*
X132733333Y-62379580D02*
X132685714Y-62427200D01*
X132685714Y-62427200D02*
X132542857Y-62474819D01*
X132542857Y-62474819D02*
X132447619Y-62474819D01*
X132447619Y-62474819D02*
X132304762Y-62427200D01*
X132304762Y-62427200D02*
X132209524Y-62331961D01*
X132209524Y-62331961D02*
X132161905Y-62236723D01*
X132161905Y-62236723D02*
X132114286Y-62046247D01*
X132114286Y-62046247D02*
X132114286Y-61903390D01*
X132114286Y-61903390D02*
X132161905Y-61712914D01*
X132161905Y-61712914D02*
X132209524Y-61617676D01*
X132209524Y-61617676D02*
X132304762Y-61522438D01*
X132304762Y-61522438D02*
X132447619Y-61474819D01*
X132447619Y-61474819D02*
X132542857Y-61474819D01*
X132542857Y-61474819D02*
X132685714Y-61522438D01*
X132685714Y-61522438D02*
X132733333Y-61570057D01*
X133066667Y-61474819D02*
X133733333Y-61474819D01*
X133733333Y-61474819D02*
X133304762Y-62474819D01*
X116188095Y-57964819D02*
X116188095Y-58774342D01*
X116188095Y-58774342D02*
X116235714Y-58869580D01*
X116235714Y-58869580D02*
X116283333Y-58917200D01*
X116283333Y-58917200D02*
X116378571Y-58964819D01*
X116378571Y-58964819D02*
X116569047Y-58964819D01*
X116569047Y-58964819D02*
X116664285Y-58917200D01*
X116664285Y-58917200D02*
X116711904Y-58869580D01*
X116711904Y-58869580D02*
X116759523Y-58774342D01*
X116759523Y-58774342D02*
X116759523Y-57964819D01*
X117140476Y-57964819D02*
X117759523Y-57964819D01*
X117759523Y-57964819D02*
X117426190Y-58345771D01*
X117426190Y-58345771D02*
X117569047Y-58345771D01*
X117569047Y-58345771D02*
X117664285Y-58393390D01*
X117664285Y-58393390D02*
X117711904Y-58441009D01*
X117711904Y-58441009D02*
X117759523Y-58536247D01*
X117759523Y-58536247D02*
X117759523Y-58774342D01*
X117759523Y-58774342D02*
X117711904Y-58869580D01*
X117711904Y-58869580D02*
X117664285Y-58917200D01*
X117664285Y-58917200D02*
X117569047Y-58964819D01*
X117569047Y-58964819D02*
X117283333Y-58964819D01*
X117283333Y-58964819D02*
X117188095Y-58917200D01*
X117188095Y-58917200D02*
X117140476Y-58869580D01*
X137265714Y-56656104D02*
X137227618Y-56694200D01*
X137227618Y-56694200D02*
X137113333Y-56732295D01*
X137113333Y-56732295D02*
X137037142Y-56732295D01*
X137037142Y-56732295D02*
X136922856Y-56694200D01*
X136922856Y-56694200D02*
X136846666Y-56618009D01*
X136846666Y-56618009D02*
X136808571Y-56541819D01*
X136808571Y-56541819D02*
X136770475Y-56389438D01*
X136770475Y-56389438D02*
X136770475Y-56275152D01*
X136770475Y-56275152D02*
X136808571Y-56122771D01*
X136808571Y-56122771D02*
X136846666Y-56046580D01*
X136846666Y-56046580D02*
X136922856Y-55970390D01*
X136922856Y-55970390D02*
X137037142Y-55932295D01*
X137037142Y-55932295D02*
X137113333Y-55932295D01*
X137113333Y-55932295D02*
X137227618Y-55970390D01*
X137227618Y-55970390D02*
X137265714Y-56008485D01*
X138027618Y-56732295D02*
X137570475Y-56732295D01*
X137799047Y-56732295D02*
X137799047Y-55932295D01*
X137799047Y-55932295D02*
X137722856Y-56046580D01*
X137722856Y-56046580D02*
X137646666Y-56122771D01*
X137646666Y-56122771D02*
X137570475Y-56160866D01*
X138789523Y-56732295D02*
X138332380Y-56732295D01*
X138560952Y-56732295D02*
X138560952Y-55932295D01*
X138560952Y-55932295D02*
X138484761Y-56046580D01*
X138484761Y-56046580D02*
X138408571Y-56122771D01*
X138408571Y-56122771D02*
X138332380Y-56160866D01*
X128494819Y-67496666D02*
X128018628Y-67829999D01*
X128494819Y-68068094D02*
X127494819Y-68068094D01*
X127494819Y-68068094D02*
X127494819Y-67687142D01*
X127494819Y-67687142D02*
X127542438Y-67591904D01*
X127542438Y-67591904D02*
X127590057Y-67544285D01*
X127590057Y-67544285D02*
X127685295Y-67496666D01*
X127685295Y-67496666D02*
X127828152Y-67496666D01*
X127828152Y-67496666D02*
X127923390Y-67544285D01*
X127923390Y-67544285D02*
X127971009Y-67591904D01*
X127971009Y-67591904D02*
X128018628Y-67687142D01*
X128018628Y-67687142D02*
X128018628Y-68068094D01*
X127494819Y-67163332D02*
X127494819Y-66544285D01*
X127494819Y-66544285D02*
X127875771Y-66877618D01*
X127875771Y-66877618D02*
X127875771Y-66734761D01*
X127875771Y-66734761D02*
X127923390Y-66639523D01*
X127923390Y-66639523D02*
X127971009Y-66591904D01*
X127971009Y-66591904D02*
X128066247Y-66544285D01*
X128066247Y-66544285D02*
X128304342Y-66544285D01*
X128304342Y-66544285D02*
X128399580Y-66591904D01*
X128399580Y-66591904D02*
X128447200Y-66639523D01*
X128447200Y-66639523D02*
X128494819Y-66734761D01*
X128494819Y-66734761D02*
X128494819Y-67020475D01*
X128494819Y-67020475D02*
X128447200Y-67115713D01*
X128447200Y-67115713D02*
X128399580Y-67163332D01*
X134545714Y-56676104D02*
X134507618Y-56714200D01*
X134507618Y-56714200D02*
X134393333Y-56752295D01*
X134393333Y-56752295D02*
X134317142Y-56752295D01*
X134317142Y-56752295D02*
X134202856Y-56714200D01*
X134202856Y-56714200D02*
X134126666Y-56638009D01*
X134126666Y-56638009D02*
X134088571Y-56561819D01*
X134088571Y-56561819D02*
X134050475Y-56409438D01*
X134050475Y-56409438D02*
X134050475Y-56295152D01*
X134050475Y-56295152D02*
X134088571Y-56142771D01*
X134088571Y-56142771D02*
X134126666Y-56066580D01*
X134126666Y-56066580D02*
X134202856Y-55990390D01*
X134202856Y-55990390D02*
X134317142Y-55952295D01*
X134317142Y-55952295D02*
X134393333Y-55952295D01*
X134393333Y-55952295D02*
X134507618Y-55990390D01*
X134507618Y-55990390D02*
X134545714Y-56028485D01*
X135307618Y-56752295D02*
X134850475Y-56752295D01*
X135079047Y-56752295D02*
X135079047Y-55952295D01*
X135079047Y-55952295D02*
X135002856Y-56066580D01*
X135002856Y-56066580D02*
X134926666Y-56142771D01*
X134926666Y-56142771D02*
X134850475Y-56180866D01*
X135802857Y-55952295D02*
X135879047Y-55952295D01*
X135879047Y-55952295D02*
X135955238Y-55990390D01*
X135955238Y-55990390D02*
X135993333Y-56028485D01*
X135993333Y-56028485D02*
X136031428Y-56104676D01*
X136031428Y-56104676D02*
X136069523Y-56257057D01*
X136069523Y-56257057D02*
X136069523Y-56447533D01*
X136069523Y-56447533D02*
X136031428Y-56599914D01*
X136031428Y-56599914D02*
X135993333Y-56676104D01*
X135993333Y-56676104D02*
X135955238Y-56714200D01*
X135955238Y-56714200D02*
X135879047Y-56752295D01*
X135879047Y-56752295D02*
X135802857Y-56752295D01*
X135802857Y-56752295D02*
X135726666Y-56714200D01*
X135726666Y-56714200D02*
X135688571Y-56676104D01*
X135688571Y-56676104D02*
X135650476Y-56599914D01*
X135650476Y-56599914D02*
X135612380Y-56447533D01*
X135612380Y-56447533D02*
X135612380Y-56257057D01*
X135612380Y-56257057D02*
X135650476Y-56104676D01*
X135650476Y-56104676D02*
X135688571Y-56028485D01*
X135688571Y-56028485D02*
X135726666Y-55990390D01*
X135726666Y-55990390D02*
X135802857Y-55952295D01*
X149036666Y-53344819D02*
X149036666Y-54059104D01*
X149036666Y-54059104D02*
X148989047Y-54201961D01*
X148989047Y-54201961D02*
X148893809Y-54297200D01*
X148893809Y-54297200D02*
X148750952Y-54344819D01*
X148750952Y-54344819D02*
X148655714Y-54344819D01*
X149989047Y-53344819D02*
X149512857Y-53344819D01*
X149512857Y-53344819D02*
X149465238Y-53821009D01*
X149465238Y-53821009D02*
X149512857Y-53773390D01*
X149512857Y-53773390D02*
X149608095Y-53725771D01*
X149608095Y-53725771D02*
X149846190Y-53725771D01*
X149846190Y-53725771D02*
X149941428Y-53773390D01*
X149941428Y-53773390D02*
X149989047Y-53821009D01*
X149989047Y-53821009D02*
X150036666Y-53916247D01*
X150036666Y-53916247D02*
X150036666Y-54154342D01*
X150036666Y-54154342D02*
X149989047Y-54249580D01*
X149989047Y-54249580D02*
X149941428Y-54297200D01*
X149941428Y-54297200D02*
X149846190Y-54344819D01*
X149846190Y-54344819D02*
X149608095Y-54344819D01*
X149608095Y-54344819D02*
X149512857Y-54297200D01*
X149512857Y-54297200D02*
X149465238Y-54249580D01*
X126693333Y-64099580D02*
X126645714Y-64147200D01*
X126645714Y-64147200D02*
X126502857Y-64194819D01*
X126502857Y-64194819D02*
X126407619Y-64194819D01*
X126407619Y-64194819D02*
X126264762Y-64147200D01*
X126264762Y-64147200D02*
X126169524Y-64051961D01*
X126169524Y-64051961D02*
X126121905Y-63956723D01*
X126121905Y-63956723D02*
X126074286Y-63766247D01*
X126074286Y-63766247D02*
X126074286Y-63623390D01*
X126074286Y-63623390D02*
X126121905Y-63432914D01*
X126121905Y-63432914D02*
X126169524Y-63337676D01*
X126169524Y-63337676D02*
X126264762Y-63242438D01*
X126264762Y-63242438D02*
X126407619Y-63194819D01*
X126407619Y-63194819D02*
X126502857Y-63194819D01*
X126502857Y-63194819D02*
X126645714Y-63242438D01*
X126645714Y-63242438D02*
X126693333Y-63290057D01*
X127550476Y-63194819D02*
X127360000Y-63194819D01*
X127360000Y-63194819D02*
X127264762Y-63242438D01*
X127264762Y-63242438D02*
X127217143Y-63290057D01*
X127217143Y-63290057D02*
X127121905Y-63432914D01*
X127121905Y-63432914D02*
X127074286Y-63623390D01*
X127074286Y-63623390D02*
X127074286Y-64004342D01*
X127074286Y-64004342D02*
X127121905Y-64099580D01*
X127121905Y-64099580D02*
X127169524Y-64147200D01*
X127169524Y-64147200D02*
X127264762Y-64194819D01*
X127264762Y-64194819D02*
X127455238Y-64194819D01*
X127455238Y-64194819D02*
X127550476Y-64147200D01*
X127550476Y-64147200D02*
X127598095Y-64099580D01*
X127598095Y-64099580D02*
X127645714Y-64004342D01*
X127645714Y-64004342D02*
X127645714Y-63766247D01*
X127645714Y-63766247D02*
X127598095Y-63671009D01*
X127598095Y-63671009D02*
X127550476Y-63623390D01*
X127550476Y-63623390D02*
X127455238Y-63575771D01*
X127455238Y-63575771D02*
X127264762Y-63575771D01*
X127264762Y-63575771D02*
X127169524Y-63623390D01*
X127169524Y-63623390D02*
X127121905Y-63671009D01*
X127121905Y-63671009D02*
X127074286Y-63766247D01*
X128845714Y-57456104D02*
X128807618Y-57494200D01*
X128807618Y-57494200D02*
X128693333Y-57532295D01*
X128693333Y-57532295D02*
X128617142Y-57532295D01*
X128617142Y-57532295D02*
X128502856Y-57494200D01*
X128502856Y-57494200D02*
X128426666Y-57418009D01*
X128426666Y-57418009D02*
X128388571Y-57341819D01*
X128388571Y-57341819D02*
X128350475Y-57189438D01*
X128350475Y-57189438D02*
X128350475Y-57075152D01*
X128350475Y-57075152D02*
X128388571Y-56922771D01*
X128388571Y-56922771D02*
X128426666Y-56846580D01*
X128426666Y-56846580D02*
X128502856Y-56770390D01*
X128502856Y-56770390D02*
X128617142Y-56732295D01*
X128617142Y-56732295D02*
X128693333Y-56732295D01*
X128693333Y-56732295D02*
X128807618Y-56770390D01*
X128807618Y-56770390D02*
X128845714Y-56808485D01*
X129607618Y-57532295D02*
X129150475Y-57532295D01*
X129379047Y-57532295D02*
X129379047Y-56732295D01*
X129379047Y-56732295D02*
X129302856Y-56846580D01*
X129302856Y-56846580D02*
X129226666Y-56922771D01*
X129226666Y-56922771D02*
X129150475Y-56960866D01*
X129874285Y-56732295D02*
X130369523Y-56732295D01*
X130369523Y-56732295D02*
X130102857Y-57037057D01*
X130102857Y-57037057D02*
X130217142Y-57037057D01*
X130217142Y-57037057D02*
X130293333Y-57075152D01*
X130293333Y-57075152D02*
X130331428Y-57113247D01*
X130331428Y-57113247D02*
X130369523Y-57189438D01*
X130369523Y-57189438D02*
X130369523Y-57379914D01*
X130369523Y-57379914D02*
X130331428Y-57456104D01*
X130331428Y-57456104D02*
X130293333Y-57494200D01*
X130293333Y-57494200D02*
X130217142Y-57532295D01*
X130217142Y-57532295D02*
X129988571Y-57532295D01*
X129988571Y-57532295D02*
X129912380Y-57494200D01*
X129912380Y-57494200D02*
X129874285Y-57456104D01*
X116429580Y-65986666D02*
X116477200Y-66034285D01*
X116477200Y-66034285D02*
X116524819Y-66177142D01*
X116524819Y-66177142D02*
X116524819Y-66272380D01*
X116524819Y-66272380D02*
X116477200Y-66415237D01*
X116477200Y-66415237D02*
X116381961Y-66510475D01*
X116381961Y-66510475D02*
X116286723Y-66558094D01*
X116286723Y-66558094D02*
X116096247Y-66605713D01*
X116096247Y-66605713D02*
X115953390Y-66605713D01*
X115953390Y-66605713D02*
X115762914Y-66558094D01*
X115762914Y-66558094D02*
X115667676Y-66510475D01*
X115667676Y-66510475D02*
X115572438Y-66415237D01*
X115572438Y-66415237D02*
X115524819Y-66272380D01*
X115524819Y-66272380D02*
X115524819Y-66177142D01*
X115524819Y-66177142D02*
X115572438Y-66034285D01*
X115572438Y-66034285D02*
X115620057Y-65986666D01*
X115620057Y-65605713D02*
X115572438Y-65558094D01*
X115572438Y-65558094D02*
X115524819Y-65462856D01*
X115524819Y-65462856D02*
X115524819Y-65224761D01*
X115524819Y-65224761D02*
X115572438Y-65129523D01*
X115572438Y-65129523D02*
X115620057Y-65081904D01*
X115620057Y-65081904D02*
X115715295Y-65034285D01*
X115715295Y-65034285D02*
X115810533Y-65034285D01*
X115810533Y-65034285D02*
X115953390Y-65081904D01*
X115953390Y-65081904D02*
X116524819Y-65653332D01*
X116524819Y-65653332D02*
X116524819Y-65034285D01*
X120006667Y-54846104D02*
X119968571Y-54884200D01*
X119968571Y-54884200D02*
X119854286Y-54922295D01*
X119854286Y-54922295D02*
X119778095Y-54922295D01*
X119778095Y-54922295D02*
X119663809Y-54884200D01*
X119663809Y-54884200D02*
X119587619Y-54808009D01*
X119587619Y-54808009D02*
X119549524Y-54731819D01*
X119549524Y-54731819D02*
X119511428Y-54579438D01*
X119511428Y-54579438D02*
X119511428Y-54465152D01*
X119511428Y-54465152D02*
X119549524Y-54312771D01*
X119549524Y-54312771D02*
X119587619Y-54236580D01*
X119587619Y-54236580D02*
X119663809Y-54160390D01*
X119663809Y-54160390D02*
X119778095Y-54122295D01*
X119778095Y-54122295D02*
X119854286Y-54122295D01*
X119854286Y-54122295D02*
X119968571Y-54160390D01*
X119968571Y-54160390D02*
X120006667Y-54198485D01*
X120768571Y-54922295D02*
X120311428Y-54922295D01*
X120540000Y-54922295D02*
X120540000Y-54122295D01*
X120540000Y-54122295D02*
X120463809Y-54236580D01*
X120463809Y-54236580D02*
X120387619Y-54312771D01*
X120387619Y-54312771D02*
X120311428Y-54350866D01*
D11*
%TO.C,J1*%
X126610000Y-96130000D02*
X127940000Y-96130000D01*
X126610000Y-97460000D02*
X126610000Y-96130000D01*
X129210000Y-96130000D02*
X147050000Y-96130000D01*
X129210000Y-98790000D02*
X129210000Y-96130000D01*
X129210000Y-98790000D02*
X147050000Y-98790000D01*
X147050000Y-98790000D02*
X147050000Y-96130000D01*
%TO.C,J3*%
X149470000Y-96130000D02*
X150800000Y-96130000D01*
X149470000Y-97460000D02*
X149470000Y-96130000D01*
X152070000Y-96130000D02*
X164830000Y-96130000D01*
X152070000Y-98790000D02*
X152070000Y-96130000D01*
X152070000Y-98790000D02*
X164830000Y-98790000D01*
X164830000Y-98790000D02*
X164830000Y-96130000D01*
%TO.C,J2*%
X117466000Y-47870000D02*
X118796000Y-47870000D01*
X117466000Y-49200000D02*
X117466000Y-47870000D01*
X120066000Y-47870000D02*
X142986000Y-47870000D01*
X120066000Y-50530000D02*
X120066000Y-47870000D01*
X120066000Y-50530000D02*
X142986000Y-50530000D01*
X142986000Y-50530000D02*
X142986000Y-47870000D01*
%TO.C,J4*%
X144390000Y-47870000D02*
X145720000Y-47870000D01*
X144390000Y-49200000D02*
X144390000Y-47870000D01*
X146990000Y-47870000D02*
X164830000Y-47870000D01*
X146990000Y-50530000D02*
X146990000Y-47870000D01*
X146990000Y-50530000D02*
X164830000Y-50530000D01*
X164830000Y-50530000D02*
X164830000Y-47870000D01*
%TO.C,REF\u002A\u002A203*%
X105395000Y-67325000D02*
X106140000Y-67325000D01*
X105395000Y-68060000D02*
X105395000Y-67325000D01*
X105395000Y-68795000D02*
X105395000Y-68670000D01*
X105395000Y-68795000D02*
X105454435Y-68795000D01*
X105395000Y-68795000D02*
X106885000Y-68795000D01*
X106825565Y-68795000D02*
X106885000Y-68795000D01*
X106885000Y-68795000D02*
X106885000Y-68670000D01*
%TO.C,REF\u002A\u002A197*%
X110475000Y-62245000D02*
X111220000Y-62245000D01*
X110475000Y-62980000D02*
X110475000Y-62245000D01*
X110475000Y-63715000D02*
X110475000Y-63590000D01*
X110475000Y-63715000D02*
X110534435Y-63715000D01*
X110475000Y-63715000D02*
X111965000Y-63715000D01*
X111905565Y-63715000D02*
X111965000Y-63715000D01*
X111965000Y-63715000D02*
X111965000Y-63590000D01*
%TO.C,REF\u002A\u002A183*%
X163815000Y-80025000D02*
X164560000Y-80025000D01*
X163815000Y-80760000D02*
X163815000Y-80025000D01*
X163815000Y-81495000D02*
X163815000Y-81370000D01*
X163815000Y-81495000D02*
X163874435Y-81495000D01*
X163815000Y-81495000D02*
X165305000Y-81495000D01*
X165245565Y-81495000D02*
X165305000Y-81495000D01*
X165305000Y-81495000D02*
X165305000Y-81370000D01*
%TO.C,C12*%
X130585000Y-59861252D02*
X130585000Y-59338748D01*
X132055000Y-59861252D02*
X132055000Y-59338748D01*
%TO.C,REF\u002A\u002A199*%
X105395000Y-64785000D02*
X106140000Y-64785000D01*
X105395000Y-65520000D02*
X105395000Y-64785000D01*
X105395000Y-66255000D02*
X105395000Y-66130000D01*
X105395000Y-66255000D02*
X105454435Y-66255000D01*
X105395000Y-66255000D02*
X106885000Y-66255000D01*
X106825565Y-66255000D02*
X106885000Y-66255000D01*
X106885000Y-66255000D02*
X106885000Y-66130000D01*
%TO.C,REF\u002A\u002A40*%
X138415000Y-85105000D02*
X139160000Y-85105000D01*
X138415000Y-85840000D02*
X138415000Y-85105000D01*
X138415000Y-86575000D02*
X138415000Y-86450000D01*
X138415000Y-86575000D02*
X138474435Y-86575000D01*
X138415000Y-86575000D02*
X139905000Y-86575000D01*
X139845565Y-86575000D02*
X139905000Y-86575000D01*
X139905000Y-86575000D02*
X139905000Y-86450000D01*
%TO.C,C8*%
X143715000Y-58951252D02*
X143715000Y-58428748D01*
X145185000Y-58951252D02*
X145185000Y-58428748D01*
%TO.C,REF\u002A\u002A5*%
X113015000Y-82565000D02*
X113760000Y-82565000D01*
X113015000Y-83300000D02*
X113015000Y-82565000D01*
X113015000Y-84035000D02*
X113015000Y-83910000D01*
X113015000Y-84035000D02*
X113074435Y-84035000D01*
X113015000Y-84035000D02*
X114505000Y-84035000D01*
X114445565Y-84035000D02*
X114505000Y-84035000D01*
X114505000Y-84035000D02*
X114505000Y-83910000D01*
%TO.C,REF\u002A\u002A181*%
X158735000Y-80025000D02*
X159480000Y-80025000D01*
X158735000Y-80760000D02*
X158735000Y-80025000D01*
X158735000Y-81495000D02*
X158735000Y-81370000D01*
X158735000Y-81495000D02*
X158794435Y-81495000D01*
X158735000Y-81495000D02*
X160225000Y-81495000D01*
X160165565Y-81495000D02*
X160225000Y-81495000D01*
X160225000Y-81495000D02*
X160225000Y-81370000D01*
%TO.C,REF\u002A\u002A42*%
X143495000Y-85105000D02*
X144240000Y-85105000D01*
X143495000Y-85840000D02*
X143495000Y-85105000D01*
X143495000Y-86575000D02*
X143495000Y-86450000D01*
X143495000Y-86575000D02*
X143554435Y-86575000D01*
X143495000Y-86575000D02*
X144985000Y-86575000D01*
X144925565Y-86575000D02*
X144985000Y-86575000D01*
X144985000Y-86575000D02*
X144985000Y-86450000D01*
%TO.C,REF\u002A\u002A174*%
X153655000Y-77485000D02*
X154400000Y-77485000D01*
X153655000Y-78220000D02*
X153655000Y-77485000D01*
X153655000Y-78955000D02*
X153655000Y-78830000D01*
X153655000Y-78955000D02*
X153714435Y-78955000D01*
X153655000Y-78955000D02*
X155145000Y-78955000D01*
X155085565Y-78955000D02*
X155145000Y-78955000D01*
X155145000Y-78955000D02*
X155145000Y-78830000D01*
%TO.C,REF\u002A\u002A87*%
X130795000Y-90185000D02*
X131540000Y-90185000D01*
X130795000Y-90920000D02*
X130795000Y-90185000D01*
X130795000Y-91655000D02*
X130795000Y-91530000D01*
X130795000Y-91655000D02*
X130854435Y-91655000D01*
X130795000Y-91655000D02*
X132285000Y-91655000D01*
X132225565Y-91655000D02*
X132285000Y-91655000D01*
X132285000Y-91655000D02*
X132285000Y-91530000D01*
%TO.C,REF\u002A\u002A74*%
X161275000Y-87645000D02*
X162020000Y-87645000D01*
X161275000Y-88380000D02*
X161275000Y-87645000D01*
X161275000Y-89115000D02*
X161275000Y-88990000D01*
X161275000Y-89115000D02*
X161334435Y-89115000D01*
X161275000Y-89115000D02*
X162765000Y-89115000D01*
X162705565Y-89115000D02*
X162765000Y-89115000D01*
X162765000Y-89115000D02*
X162765000Y-88990000D01*
%TO.C,REF\u002A\u002A95*%
X151115000Y-90185000D02*
X151860000Y-90185000D01*
X151115000Y-90920000D02*
X151115000Y-90185000D01*
X151115000Y-91655000D02*
X151115000Y-91530000D01*
X151115000Y-91655000D02*
X151174435Y-91655000D01*
X151115000Y-91655000D02*
X152605000Y-91655000D01*
X152545565Y-91655000D02*
X152605000Y-91655000D01*
X152605000Y-91655000D02*
X152605000Y-91530000D01*
%TO.C,REF\u002A\u002A156*%
X158735000Y-67325000D02*
X159480000Y-67325000D01*
X158735000Y-68060000D02*
X158735000Y-67325000D01*
X158735000Y-68795000D02*
X158735000Y-68670000D01*
X158735000Y-68795000D02*
X158794435Y-68795000D01*
X158735000Y-68795000D02*
X160225000Y-68795000D01*
X160165565Y-68795000D02*
X160225000Y-68795000D01*
X160225000Y-68795000D02*
X160225000Y-68670000D01*
%TO.C,REF\u002A\u002A225*%
X110475000Y-80025000D02*
X111220000Y-80025000D01*
X110475000Y-80760000D02*
X110475000Y-80025000D01*
X110475000Y-81495000D02*
X110475000Y-81370000D01*
X110475000Y-81495000D02*
X110534435Y-81495000D01*
X110475000Y-81495000D02*
X111965000Y-81495000D01*
X111905565Y-81495000D02*
X111965000Y-81495000D01*
X111965000Y-81495000D02*
X111965000Y-81370000D01*
%TO.C,REF\u002A\u002A222*%
X102855000Y-80025000D02*
X103600000Y-80025000D01*
X102855000Y-80760000D02*
X102855000Y-80025000D01*
X102855000Y-81495000D02*
X102855000Y-81370000D01*
X102855000Y-81495000D02*
X102914435Y-81495000D01*
X102855000Y-81495000D02*
X104345000Y-81495000D01*
X104285565Y-81495000D02*
X104345000Y-81495000D01*
X104345000Y-81495000D02*
X104345000Y-81370000D01*
%TO.C,J9*%
X153020000Y-89540000D02*
X153020000Y-94840000D01*
X160750000Y-89540000D02*
X153020000Y-89540000D01*
X160750000Y-89540000D02*
X160750000Y-92190000D01*
X160750000Y-92190000D02*
X163400000Y-92190000D01*
X162020000Y-89540000D02*
X163400000Y-89540000D01*
X163400000Y-89540000D02*
X163400000Y-90920000D01*
X163400000Y-92190000D02*
X163400000Y-94840000D01*
X163400000Y-94840000D02*
X153020000Y-94840000D01*
%TO.C,REF\u002A\u002A92*%
X143495000Y-90185000D02*
X144240000Y-90185000D01*
X143495000Y-90920000D02*
X143495000Y-90185000D01*
X143495000Y-91655000D02*
X143495000Y-91530000D01*
X143495000Y-91655000D02*
X143554435Y-91655000D01*
X143495000Y-91655000D02*
X144985000Y-91655000D01*
X144925565Y-91655000D02*
X144985000Y-91655000D01*
X144985000Y-91655000D02*
X144985000Y-91530000D01*
%TO.C,REF\u002A\u002A33*%
X120635000Y-85105000D02*
X121380000Y-85105000D01*
X120635000Y-85840000D02*
X120635000Y-85105000D01*
X120635000Y-86575000D02*
X120635000Y-86450000D01*
X120635000Y-86575000D02*
X120694435Y-86575000D01*
X120635000Y-86575000D02*
X122125000Y-86575000D01*
X122065565Y-86575000D02*
X122125000Y-86575000D01*
X122125000Y-86575000D02*
X122125000Y-86450000D01*
%TO.C,C4*%
X139778748Y-71375000D02*
X140301252Y-71375000D01*
X139778748Y-72845000D02*
X140301252Y-72845000D01*
%TO.C,REF\u002A\u002A66*%
X140955000Y-87645000D02*
X141700000Y-87645000D01*
X140955000Y-88380000D02*
X140955000Y-87645000D01*
X140955000Y-89115000D02*
X140955000Y-88990000D01*
X140955000Y-89115000D02*
X141014435Y-89115000D01*
X140955000Y-89115000D02*
X142445000Y-89115000D01*
X142385565Y-89115000D02*
X142445000Y-89115000D01*
X142445000Y-89115000D02*
X142445000Y-88990000D01*
%TO.C,REF\u002A\u002A28*%
X107935000Y-85105000D02*
X108680000Y-85105000D01*
X107935000Y-85840000D02*
X107935000Y-85105000D01*
X107935000Y-86575000D02*
X107935000Y-86450000D01*
X107935000Y-86575000D02*
X107994435Y-86575000D01*
X107935000Y-86575000D02*
X109425000Y-86575000D01*
X109365565Y-86575000D02*
X109425000Y-86575000D01*
X109425000Y-86575000D02*
X109425000Y-86450000D01*
%TO.C,REF\u002A\u002A119*%
X148575000Y-92725000D02*
X149320000Y-92725000D01*
X148575000Y-93460000D02*
X148575000Y-92725000D01*
X148575000Y-94195000D02*
X148575000Y-94070000D01*
X148575000Y-94195000D02*
X148634435Y-94195000D01*
X148575000Y-94195000D02*
X150065000Y-94195000D01*
X150005565Y-94195000D02*
X150065000Y-94195000D01*
X150065000Y-94195000D02*
X150065000Y-94070000D01*
%TO.C,REF\u002A\u002A142*%
X161275000Y-59705000D02*
X162020000Y-59705000D01*
X161275000Y-60440000D02*
X161275000Y-59705000D01*
X161275000Y-61175000D02*
X161275000Y-61050000D01*
X161275000Y-61175000D02*
X161334435Y-61175000D01*
X161275000Y-61175000D02*
X162765000Y-61175000D01*
X162705565Y-61175000D02*
X162765000Y-61175000D01*
X162765000Y-61175000D02*
X162765000Y-61050000D01*
%TO.C,REF\u002A\u002A64*%
X135875000Y-87645000D02*
X136620000Y-87645000D01*
X135875000Y-88380000D02*
X135875000Y-87645000D01*
X135875000Y-89115000D02*
X135875000Y-88990000D01*
X135875000Y-89115000D02*
X135934435Y-89115000D01*
X135875000Y-89115000D02*
X137365000Y-89115000D01*
X137305565Y-89115000D02*
X137365000Y-89115000D01*
X137365000Y-89115000D02*
X137365000Y-88990000D01*
%TO.C,REF\u002A\u002A44*%
X148575000Y-85105000D02*
X149320000Y-85105000D01*
X148575000Y-85840000D02*
X148575000Y-85105000D01*
X148575000Y-86575000D02*
X148575000Y-86450000D01*
X148575000Y-86575000D02*
X148634435Y-86575000D01*
X148575000Y-86575000D02*
X150065000Y-86575000D01*
X150005565Y-86575000D02*
X150065000Y-86575000D01*
X150065000Y-86575000D02*
X150065000Y-86450000D01*
%TO.C,REF\u002A\u002A152*%
X161275000Y-64785000D02*
X162020000Y-64785000D01*
X161275000Y-65520000D02*
X161275000Y-64785000D01*
X161275000Y-66255000D02*
X161275000Y-66130000D01*
X161275000Y-66255000D02*
X161334435Y-66255000D01*
X161275000Y-66255000D02*
X162765000Y-66255000D01*
X162705565Y-66255000D02*
X162765000Y-66255000D01*
X162765000Y-66255000D02*
X162765000Y-66130000D01*
%TO.C,REF\u002A\u002A93*%
X146035000Y-90185000D02*
X146780000Y-90185000D01*
X146035000Y-90920000D02*
X146035000Y-90185000D01*
X146035000Y-91655000D02*
X146035000Y-91530000D01*
X146035000Y-91655000D02*
X146094435Y-91655000D01*
X146035000Y-91655000D02*
X147525000Y-91655000D01*
X147465565Y-91655000D02*
X147525000Y-91655000D01*
X147525000Y-91655000D02*
X147525000Y-91530000D01*
%TO.C,REF\u002A\u002A13*%
X133335000Y-82565000D02*
X134080000Y-82565000D01*
X133335000Y-83300000D02*
X133335000Y-82565000D01*
X133335000Y-84035000D02*
X133335000Y-83910000D01*
X133335000Y-84035000D02*
X133394435Y-84035000D01*
X133335000Y-84035000D02*
X134825000Y-84035000D01*
X134765565Y-84035000D02*
X134825000Y-84035000D01*
X134825000Y-84035000D02*
X134825000Y-83910000D01*
%TO.C,REF\u002A\u002A29*%
X110475000Y-85105000D02*
X111220000Y-85105000D01*
X110475000Y-85840000D02*
X110475000Y-85105000D01*
X110475000Y-86575000D02*
X110475000Y-86450000D01*
X110475000Y-86575000D02*
X110534435Y-86575000D01*
X110475000Y-86575000D02*
X111965000Y-86575000D01*
X111905565Y-86575000D02*
X111965000Y-86575000D01*
X111965000Y-86575000D02*
X111965000Y-86450000D01*
%TO.C,J12*%
X115870000Y-77960000D02*
X115870000Y-80720000D01*
X143920000Y-77960000D02*
X115870000Y-77960000D01*
X143920000Y-77960000D02*
X143920000Y-80720000D01*
X143920000Y-80720000D02*
X115870000Y-80720000D01*
X145190000Y-77960000D02*
X146570000Y-77960000D01*
X146570000Y-77960000D02*
X146570000Y-79340000D01*
%TO.C,REF\u002A\u002A223*%
X105395000Y-80025000D02*
X106140000Y-80025000D01*
X105395000Y-80760000D02*
X105395000Y-80025000D01*
X105395000Y-81495000D02*
X105395000Y-81370000D01*
X105395000Y-81495000D02*
X105454435Y-81495000D01*
X105395000Y-81495000D02*
X106885000Y-81495000D01*
X106825565Y-81495000D02*
X106885000Y-81495000D01*
X106885000Y-81495000D02*
X106885000Y-81370000D01*
%TO.C,REF\u002A\u002A81*%
X115555000Y-90185000D02*
X116300000Y-90185000D01*
X115555000Y-90920000D02*
X115555000Y-90185000D01*
X115555000Y-91655000D02*
X115555000Y-91530000D01*
X115555000Y-91655000D02*
X115614435Y-91655000D01*
X115555000Y-91655000D02*
X117045000Y-91655000D01*
X116985565Y-91655000D02*
X117045000Y-91655000D01*
X117045000Y-91655000D02*
X117045000Y-91530000D01*
%TO.C,REF\u002A\u002A218*%
X102855000Y-77485000D02*
X103600000Y-77485000D01*
X102855000Y-78220000D02*
X102855000Y-77485000D01*
X102855000Y-78955000D02*
X102855000Y-78830000D01*
X102855000Y-78955000D02*
X102914435Y-78955000D01*
X102855000Y-78955000D02*
X104345000Y-78955000D01*
X104285565Y-78955000D02*
X104345000Y-78955000D01*
X104345000Y-78955000D02*
X104345000Y-78830000D01*
%TO.C,REF\u002A\u002A201*%
X110475000Y-64785000D02*
X111220000Y-64785000D01*
X110475000Y-65520000D02*
X110475000Y-64785000D01*
X110475000Y-66255000D02*
X110475000Y-66130000D01*
X110475000Y-66255000D02*
X110534435Y-66255000D01*
X110475000Y-66255000D02*
X111965000Y-66255000D01*
X111905565Y-66255000D02*
X111965000Y-66255000D01*
X111965000Y-66255000D02*
X111965000Y-66130000D01*
%TO.C,REF\u002A\u002A204*%
X107935000Y-67325000D02*
X108680000Y-67325000D01*
X107935000Y-68060000D02*
X107935000Y-67325000D01*
X107935000Y-68795000D02*
X107935000Y-68670000D01*
X107935000Y-68795000D02*
X107994435Y-68795000D01*
X107935000Y-68795000D02*
X109425000Y-68795000D01*
X109365565Y-68795000D02*
X109425000Y-68795000D01*
X109425000Y-68795000D02*
X109425000Y-68670000D01*
%TO.C,REF\u002A\u002A11*%
X128255000Y-82565000D02*
X129000000Y-82565000D01*
X128255000Y-83300000D02*
X128255000Y-82565000D01*
X128255000Y-84035000D02*
X128255000Y-83910000D01*
X128255000Y-84035000D02*
X128314435Y-84035000D01*
X128255000Y-84035000D02*
X129745000Y-84035000D01*
X129685565Y-84035000D02*
X129745000Y-84035000D01*
X129745000Y-84035000D02*
X129745000Y-83910000D01*
%TO.C,C9*%
X139778748Y-73505000D02*
X140301252Y-73505000D01*
X139778748Y-74975000D02*
X140301252Y-74975000D01*
%TO.C,REF\u002A\u002A151*%
X158735000Y-64785000D02*
X159480000Y-64785000D01*
X158735000Y-65520000D02*
X158735000Y-64785000D01*
X158735000Y-66255000D02*
X158735000Y-66130000D01*
X158735000Y-66255000D02*
X158794435Y-66255000D01*
X158735000Y-66255000D02*
X160225000Y-66255000D01*
X160165565Y-66255000D02*
X160225000Y-66255000D01*
X160225000Y-66255000D02*
X160225000Y-66130000D01*
D12*
%TO.C,Y2*%
X127107500Y-58177500D02*
G75*
G02*
X126907500Y-58177500I-100000J0D01*
G01*
X126907500Y-58177500D02*
G75*
G02*
X127107500Y-58177500I100000J0D01*
G01*
D11*
%TO.C,U2*%
X132895000Y-62885000D02*
X133620000Y-62885000D01*
X132895000Y-63610000D02*
X132895000Y-62885000D01*
X132895000Y-69380000D02*
X132895000Y-69805000D01*
X133620000Y-70105000D02*
X133135000Y-70105000D01*
X140115000Y-62885000D02*
X139390000Y-62885000D01*
X140115000Y-63610000D02*
X140115000Y-62885000D01*
X140115000Y-69380000D02*
X140115000Y-70105000D01*
X140115000Y-70105000D02*
X139390000Y-70105000D01*
X132895000Y-70105000D02*
X132565000Y-70345000D01*
X132565000Y-69865000D01*
X132895000Y-70105000D01*
G36*
X132895000Y-70105000D02*
G01*
X132565000Y-70345000D01*
X132565000Y-69865000D01*
X132895000Y-70105000D01*
G37*
%TO.C,REF\u002A\u002A35*%
X125715000Y-85105000D02*
X126460000Y-85105000D01*
X125715000Y-85840000D02*
X125715000Y-85105000D01*
X125715000Y-86575000D02*
X125715000Y-86450000D01*
X125715000Y-86575000D02*
X125774435Y-86575000D01*
X125715000Y-86575000D02*
X127205000Y-86575000D01*
X127145565Y-86575000D02*
X127205000Y-86575000D01*
X127205000Y-86575000D02*
X127205000Y-86450000D01*
%TO.C,REF\u002A\u002A10*%
X125715000Y-82565000D02*
X126460000Y-82565000D01*
X125715000Y-83300000D02*
X125715000Y-82565000D01*
X125715000Y-84035000D02*
X125715000Y-83910000D01*
X125715000Y-84035000D02*
X125774435Y-84035000D01*
X125715000Y-84035000D02*
X127205000Y-84035000D01*
X127145565Y-84035000D02*
X127205000Y-84035000D01*
X127205000Y-84035000D02*
X127205000Y-83910000D01*
%TO.C,REF\u002A\u002A110*%
X125715000Y-92725000D02*
X126460000Y-92725000D01*
X125715000Y-93460000D02*
X125715000Y-92725000D01*
X125715000Y-94195000D02*
X125715000Y-94070000D01*
X125715000Y-94195000D02*
X125774435Y-94195000D01*
X125715000Y-94195000D02*
X127205000Y-94195000D01*
X127145565Y-94195000D02*
X127205000Y-94195000D01*
X127205000Y-94195000D02*
X127205000Y-94070000D01*
%TO.C,REF\u002A\u002A45*%
X151115000Y-85105000D02*
X151860000Y-85105000D01*
X151115000Y-85840000D02*
X151115000Y-85105000D01*
X151115000Y-86575000D02*
X151115000Y-86450000D01*
X151115000Y-86575000D02*
X151174435Y-86575000D01*
X151115000Y-86575000D02*
X152605000Y-86575000D01*
X152545565Y-86575000D02*
X152605000Y-86575000D01*
X152605000Y-86575000D02*
X152605000Y-86450000D01*
%TO.C,REF\u002A\u002A16*%
X140955000Y-82565000D02*
X141700000Y-82565000D01*
X140955000Y-83300000D02*
X140955000Y-82565000D01*
X140955000Y-84035000D02*
X140955000Y-83910000D01*
X140955000Y-84035000D02*
X141014435Y-84035000D01*
X140955000Y-84035000D02*
X142445000Y-84035000D01*
X142385565Y-84035000D02*
X142445000Y-84035000D01*
X142445000Y-84035000D02*
X142445000Y-83910000D01*
%TO.C,REF\u002A\u002A172*%
X161275000Y-74945000D02*
X162020000Y-74945000D01*
X161275000Y-75680000D02*
X161275000Y-74945000D01*
X161275000Y-76415000D02*
X161275000Y-76290000D01*
X161275000Y-76415000D02*
X161334435Y-76415000D01*
X161275000Y-76415000D02*
X162765000Y-76415000D01*
X162705565Y-76415000D02*
X162765000Y-76415000D01*
X162765000Y-76415000D02*
X162765000Y-76290000D01*
%TO.C,REF\u002A\u002A80*%
X113015000Y-90185000D02*
X113760000Y-90185000D01*
X113015000Y-90920000D02*
X113015000Y-90185000D01*
X113015000Y-91655000D02*
X113015000Y-91530000D01*
X113015000Y-91655000D02*
X113074435Y-91655000D01*
X113015000Y-91655000D02*
X114505000Y-91655000D01*
X114445565Y-91655000D02*
X114505000Y-91655000D01*
X114505000Y-91655000D02*
X114505000Y-91530000D01*
%TO.C,REF\u002A\u002A3*%
X107935000Y-82565000D02*
X108680000Y-82565000D01*
X107935000Y-83300000D02*
X107935000Y-82565000D01*
X107935000Y-84035000D02*
X107935000Y-83910000D01*
X107935000Y-84035000D02*
X107994435Y-84035000D01*
X107935000Y-84035000D02*
X109425000Y-84035000D01*
X109365565Y-84035000D02*
X109425000Y-84035000D01*
X109425000Y-84035000D02*
X109425000Y-83910000D01*
%TO.C,REF\u002A\u002A215*%
X105395000Y-74945000D02*
X106140000Y-74945000D01*
X105395000Y-75680000D02*
X105395000Y-74945000D01*
X105395000Y-76415000D02*
X105395000Y-76290000D01*
X105395000Y-76415000D02*
X105454435Y-76415000D01*
X105395000Y-76415000D02*
X106885000Y-76415000D01*
X106825565Y-76415000D02*
X106885000Y-76415000D01*
X106885000Y-76415000D02*
X106885000Y-76290000D01*
%TO.C,REF\u002A\u002A166*%
X158735000Y-72405000D02*
X159480000Y-72405000D01*
X158735000Y-73140000D02*
X158735000Y-72405000D01*
X158735000Y-73875000D02*
X158735000Y-73750000D01*
X158735000Y-73875000D02*
X158794435Y-73875000D01*
X158735000Y-73875000D02*
X160225000Y-73875000D01*
X160165565Y-73875000D02*
X160225000Y-73875000D01*
X160225000Y-73875000D02*
X160225000Y-73750000D01*
%TO.C,REF\u002A\u002A89*%
X135875000Y-90185000D02*
X136620000Y-90185000D01*
X135875000Y-90920000D02*
X135875000Y-90185000D01*
X135875000Y-91655000D02*
X135875000Y-91530000D01*
X135875000Y-91655000D02*
X135934435Y-91655000D01*
X135875000Y-91655000D02*
X137365000Y-91655000D01*
X137305565Y-91655000D02*
X137365000Y-91655000D01*
X137365000Y-91655000D02*
X137365000Y-91530000D01*
%TO.C,REF\u002A\u002A182*%
X161275000Y-80025000D02*
X162020000Y-80025000D01*
X161275000Y-80760000D02*
X161275000Y-80025000D01*
X161275000Y-81495000D02*
X161275000Y-81370000D01*
X161275000Y-81495000D02*
X161334435Y-81495000D01*
X161275000Y-81495000D02*
X162765000Y-81495000D01*
X162705565Y-81495000D02*
X162765000Y-81495000D01*
X162765000Y-81495000D02*
X162765000Y-81370000D01*
%TO.C,REF\u002A\u002A158*%
X163815000Y-67325000D02*
X164560000Y-67325000D01*
X163815000Y-68060000D02*
X163815000Y-67325000D01*
X163815000Y-68795000D02*
X163815000Y-68670000D01*
X163815000Y-68795000D02*
X163874435Y-68795000D01*
X163815000Y-68795000D02*
X165305000Y-68795000D01*
X165245565Y-68795000D02*
X165305000Y-68795000D01*
X165305000Y-68795000D02*
X165305000Y-68670000D01*
%TO.C,REF\u002A\u002A171*%
X158735000Y-74945000D02*
X159480000Y-74945000D01*
X158735000Y-75680000D02*
X158735000Y-74945000D01*
X158735000Y-76415000D02*
X158735000Y-76290000D01*
X158735000Y-76415000D02*
X158794435Y-76415000D01*
X158735000Y-76415000D02*
X160225000Y-76415000D01*
X160165565Y-76415000D02*
X160225000Y-76415000D01*
X160225000Y-76415000D02*
X160225000Y-76290000D01*
%TO.C,REF\u002A\u002A150*%
X156195000Y-64785000D02*
X156940000Y-64785000D01*
X156195000Y-65520000D02*
X156195000Y-64785000D01*
X156195000Y-66255000D02*
X156195000Y-66130000D01*
X156195000Y-66255000D02*
X156254435Y-66255000D01*
X156195000Y-66255000D02*
X157685000Y-66255000D01*
X157625565Y-66255000D02*
X157685000Y-66255000D01*
X157685000Y-66255000D02*
X157685000Y-66130000D01*
%TO.C,REF\u002A\u002A211*%
X105395000Y-72405000D02*
X106140000Y-72405000D01*
X105395000Y-73140000D02*
X105395000Y-72405000D01*
X105395000Y-73875000D02*
X105395000Y-73750000D01*
X105395000Y-73875000D02*
X105454435Y-73875000D01*
X105395000Y-73875000D02*
X106885000Y-73875000D01*
X106825565Y-73875000D02*
X106885000Y-73875000D01*
X106885000Y-73875000D02*
X106885000Y-73750000D01*
%TO.C,REF\u002A\u002A71*%
X153655000Y-87645000D02*
X154400000Y-87645000D01*
X153655000Y-88380000D02*
X153655000Y-87645000D01*
X153655000Y-89115000D02*
X153655000Y-88990000D01*
X153655000Y-89115000D02*
X153714435Y-89115000D01*
X153655000Y-89115000D02*
X155145000Y-89115000D01*
X155085565Y-89115000D02*
X155145000Y-89115000D01*
X155145000Y-89115000D02*
X155145000Y-88990000D01*
%TO.C,REF\u002A\u002A164*%
X153655000Y-72405000D02*
X154400000Y-72405000D01*
X153655000Y-73140000D02*
X153655000Y-72405000D01*
X153655000Y-73875000D02*
X153655000Y-73750000D01*
X153655000Y-73875000D02*
X153714435Y-73875000D01*
X153655000Y-73875000D02*
X155145000Y-73875000D01*
X155085565Y-73875000D02*
X155145000Y-73875000D01*
X155145000Y-73875000D02*
X155145000Y-73750000D01*
%TO.C,REF\u002A\u002A58*%
X120635000Y-87645000D02*
X121380000Y-87645000D01*
X120635000Y-88380000D02*
X120635000Y-87645000D01*
X120635000Y-89115000D02*
X120635000Y-88990000D01*
X120635000Y-89115000D02*
X120694435Y-89115000D01*
X120635000Y-89115000D02*
X122125000Y-89115000D01*
X122065565Y-89115000D02*
X122125000Y-89115000D01*
X122125000Y-89115000D02*
X122125000Y-88990000D01*
%TO.C,REF\u002A\u002A140*%
X156195000Y-59705000D02*
X156940000Y-59705000D01*
X156195000Y-60440000D02*
X156195000Y-59705000D01*
X156195000Y-61175000D02*
X156195000Y-61050000D01*
X156195000Y-61175000D02*
X156254435Y-61175000D01*
X156195000Y-61175000D02*
X157685000Y-61175000D01*
X157625565Y-61175000D02*
X157685000Y-61175000D01*
X157685000Y-61175000D02*
X157685000Y-61050000D01*
%TO.C,REF\u002A\u002A65*%
X138415000Y-87645000D02*
X139160000Y-87645000D01*
X138415000Y-88380000D02*
X138415000Y-87645000D01*
X138415000Y-89115000D02*
X138415000Y-88990000D01*
X138415000Y-89115000D02*
X138474435Y-89115000D01*
X138415000Y-89115000D02*
X139905000Y-89115000D01*
X139845565Y-89115000D02*
X139905000Y-89115000D01*
X139905000Y-89115000D02*
X139905000Y-88990000D01*
%TO.C,REF\u002A\u002A20*%
X151115000Y-82565000D02*
X151860000Y-82565000D01*
X151115000Y-83300000D02*
X151115000Y-82565000D01*
X151115000Y-84035000D02*
X151115000Y-83910000D01*
X151115000Y-84035000D02*
X151174435Y-84035000D01*
X151115000Y-84035000D02*
X152605000Y-84035000D01*
X152545565Y-84035000D02*
X152605000Y-84035000D01*
X152605000Y-84035000D02*
X152605000Y-83910000D01*
%TO.C,REF\u002A\u002A85*%
X125715000Y-90185000D02*
X126460000Y-90185000D01*
X125715000Y-90920000D02*
X125715000Y-90185000D01*
X125715000Y-91655000D02*
X125715000Y-91530000D01*
X125715000Y-91655000D02*
X125774435Y-91655000D01*
X125715000Y-91655000D02*
X127205000Y-91655000D01*
X127145565Y-91655000D02*
X127205000Y-91655000D01*
X127205000Y-91655000D02*
X127205000Y-91530000D01*
%TO.C,C14*%
X139315000Y-58971252D02*
X139315000Y-58448748D01*
X140785000Y-58971252D02*
X140785000Y-58448748D01*
%TO.C,REF\u002A\u002A105*%
X113015000Y-92725000D02*
X113760000Y-92725000D01*
X113015000Y-93460000D02*
X113015000Y-92725000D01*
X113015000Y-94195000D02*
X113015000Y-94070000D01*
X113015000Y-94195000D02*
X113074435Y-94195000D01*
X113015000Y-94195000D02*
X114505000Y-94195000D01*
X114445565Y-94195000D02*
X114505000Y-94195000D01*
X114505000Y-94195000D02*
X114505000Y-94070000D01*
%TO.C,REF\u002A\u002A118*%
X146035000Y-92725000D02*
X146780000Y-92725000D01*
X146035000Y-93460000D02*
X146035000Y-92725000D01*
X146035000Y-94195000D02*
X146035000Y-94070000D01*
X146035000Y-94195000D02*
X146094435Y-94195000D01*
X146035000Y-94195000D02*
X147525000Y-94195000D01*
X147465565Y-94195000D02*
X147525000Y-94195000D01*
X147525000Y-94195000D02*
X147525000Y-94070000D01*
%TO.C,REF\u002A\u002A7*%
X118095000Y-82565000D02*
X118840000Y-82565000D01*
X118095000Y-83300000D02*
X118095000Y-82565000D01*
X118095000Y-84035000D02*
X118095000Y-83910000D01*
X118095000Y-84035000D02*
X118154435Y-84035000D01*
X118095000Y-84035000D02*
X119585000Y-84035000D01*
X119525565Y-84035000D02*
X119585000Y-84035000D01*
X119585000Y-84035000D02*
X119585000Y-83910000D01*
%TO.C,REF\u002A\u002A159*%
X153655000Y-69865000D02*
X154400000Y-69865000D01*
X153655000Y-70600000D02*
X153655000Y-69865000D01*
X153655000Y-71335000D02*
X153655000Y-71210000D01*
X153655000Y-71335000D02*
X153714435Y-71335000D01*
X153655000Y-71335000D02*
X155145000Y-71335000D01*
X155085565Y-71335000D02*
X155145000Y-71335000D01*
X155145000Y-71335000D02*
X155145000Y-71210000D01*
%TO.C,REF\u002A\u002A68*%
X146035000Y-87645000D02*
X146780000Y-87645000D01*
X146035000Y-88380000D02*
X146035000Y-87645000D01*
X146035000Y-89115000D02*
X146035000Y-88990000D01*
X146035000Y-89115000D02*
X146094435Y-89115000D01*
X146035000Y-89115000D02*
X147525000Y-89115000D01*
X147465565Y-89115000D02*
X147525000Y-89115000D01*
X147525000Y-89115000D02*
X147525000Y-88990000D01*
%TO.C,REF\u002A\u002A6*%
X115555000Y-82565000D02*
X116300000Y-82565000D01*
X115555000Y-83300000D02*
X115555000Y-82565000D01*
X115555000Y-84035000D02*
X115555000Y-83910000D01*
X115555000Y-84035000D02*
X115614435Y-84035000D01*
X115555000Y-84035000D02*
X117045000Y-84035000D01*
X116985565Y-84035000D02*
X117045000Y-84035000D01*
X117045000Y-84035000D02*
X117045000Y-83910000D01*
%TO.C,REF\u002A\u002A75*%
X163815000Y-87645000D02*
X164560000Y-87645000D01*
X163815000Y-88380000D02*
X163815000Y-87645000D01*
X163815000Y-89115000D02*
X163815000Y-88990000D01*
X163815000Y-89115000D02*
X163874435Y-89115000D01*
X163815000Y-89115000D02*
X165305000Y-89115000D01*
X165245565Y-89115000D02*
X165305000Y-89115000D01*
X165305000Y-89115000D02*
X165305000Y-88990000D01*
%TO.C,REF\u002A\u002A162*%
X161275000Y-69865000D02*
X162020000Y-69865000D01*
X161275000Y-70600000D02*
X161275000Y-69865000D01*
X161275000Y-71335000D02*
X161275000Y-71210000D01*
X161275000Y-71335000D02*
X161334435Y-71335000D01*
X161275000Y-71335000D02*
X162765000Y-71335000D01*
X162705565Y-71335000D02*
X162765000Y-71335000D01*
X162765000Y-71335000D02*
X162765000Y-71210000D01*
%TO.C,R2*%
X125892936Y-56085000D02*
X126347064Y-56085000D01*
X125892936Y-57555000D02*
X126347064Y-57555000D01*
%TO.C,REF\u002A\u002A170*%
X156195000Y-74945000D02*
X156940000Y-74945000D01*
X156195000Y-75680000D02*
X156195000Y-74945000D01*
X156195000Y-76415000D02*
X156195000Y-76290000D01*
X156195000Y-76415000D02*
X156254435Y-76415000D01*
X156195000Y-76415000D02*
X157685000Y-76415000D01*
X157625565Y-76415000D02*
X157685000Y-76415000D01*
X157685000Y-76415000D02*
X157685000Y-76290000D01*
%TO.C,REF\u002A\u002A67*%
X143495000Y-87645000D02*
X144240000Y-87645000D01*
X143495000Y-88380000D02*
X143495000Y-87645000D01*
X143495000Y-89115000D02*
X143495000Y-88990000D01*
X143495000Y-89115000D02*
X143554435Y-89115000D01*
X143495000Y-89115000D02*
X144985000Y-89115000D01*
X144925565Y-89115000D02*
X144985000Y-89115000D01*
X144985000Y-89115000D02*
X144985000Y-88990000D01*
%TO.C,REF\u002A\u002A167*%
X161275000Y-72405000D02*
X162020000Y-72405000D01*
X161275000Y-73140000D02*
X161275000Y-72405000D01*
X161275000Y-73875000D02*
X161275000Y-73750000D01*
X161275000Y-73875000D02*
X161334435Y-73875000D01*
X161275000Y-73875000D02*
X162765000Y-73875000D01*
X162705565Y-73875000D02*
X162765000Y-73875000D01*
X162765000Y-73875000D02*
X162765000Y-73750000D01*
%TO.C,REF\u002A\u002A37*%
X130795000Y-85105000D02*
X131540000Y-85105000D01*
X130795000Y-85840000D02*
X130795000Y-85105000D01*
X130795000Y-86575000D02*
X130795000Y-86450000D01*
X130795000Y-86575000D02*
X130854435Y-86575000D01*
X130795000Y-86575000D02*
X132285000Y-86575000D01*
X132225565Y-86575000D02*
X132285000Y-86575000D01*
X132285000Y-86575000D02*
X132285000Y-86450000D01*
%TO.C,REF\u002A\u002A216*%
X107935000Y-74945000D02*
X108680000Y-74945000D01*
X107935000Y-75680000D02*
X107935000Y-74945000D01*
X107935000Y-76415000D02*
X107935000Y-76290000D01*
X107935000Y-76415000D02*
X107994435Y-76415000D01*
X107935000Y-76415000D02*
X109425000Y-76415000D01*
X109365565Y-76415000D02*
X109425000Y-76415000D01*
X109425000Y-76415000D02*
X109425000Y-76290000D01*
%TO.C,REF\u002A\u002A63*%
X133335000Y-87645000D02*
X134080000Y-87645000D01*
X133335000Y-88380000D02*
X133335000Y-87645000D01*
X133335000Y-89115000D02*
X133335000Y-88990000D01*
X133335000Y-89115000D02*
X133394435Y-89115000D01*
X133335000Y-89115000D02*
X134825000Y-89115000D01*
X134765565Y-89115000D02*
X134825000Y-89115000D01*
X134825000Y-89115000D02*
X134825000Y-88990000D01*
%TO.C,REF\u002A\u002A51*%
X102855000Y-87645000D02*
X103600000Y-87645000D01*
X102855000Y-88380000D02*
X102855000Y-87645000D01*
X102855000Y-89115000D02*
X102855000Y-88990000D01*
X102855000Y-89115000D02*
X102914435Y-89115000D01*
X102855000Y-89115000D02*
X104345000Y-89115000D01*
X104285565Y-89115000D02*
X104345000Y-89115000D01*
X104345000Y-89115000D02*
X104345000Y-88990000D01*
%TO.C,REF\u002A\u002A70*%
X151115000Y-87645000D02*
X151860000Y-87645000D01*
X151115000Y-88380000D02*
X151115000Y-87645000D01*
X151115000Y-89115000D02*
X151115000Y-88990000D01*
X151115000Y-89115000D02*
X151174435Y-89115000D01*
X151115000Y-89115000D02*
X152605000Y-89115000D01*
X152545565Y-89115000D02*
X152605000Y-89115000D01*
X152605000Y-89115000D02*
X152605000Y-88990000D01*
%TO.C,REF\u002A\u002A149*%
X153655000Y-64785000D02*
X154400000Y-64785000D01*
X153655000Y-65520000D02*
X153655000Y-64785000D01*
X153655000Y-66255000D02*
X153655000Y-66130000D01*
X153655000Y-66255000D02*
X153714435Y-66255000D01*
X153655000Y-66255000D02*
X155145000Y-66255000D01*
X155085565Y-66255000D02*
X155145000Y-66255000D01*
X155145000Y-66255000D02*
X155145000Y-66130000D01*
%TO.C,C5*%
X141555000Y-58951252D02*
X141555000Y-58428748D01*
X143025000Y-58951252D02*
X143025000Y-58428748D01*
%TO.C,REF\u002A\u002A14*%
X135875000Y-82565000D02*
X136620000Y-82565000D01*
X135875000Y-83300000D02*
X135875000Y-82565000D01*
X135875000Y-84035000D02*
X135875000Y-83910000D01*
X135875000Y-84035000D02*
X135934435Y-84035000D01*
X135875000Y-84035000D02*
X137365000Y-84035000D01*
X137305565Y-84035000D02*
X137365000Y-84035000D01*
X137365000Y-84035000D02*
X137365000Y-83910000D01*
%TO.C,REF\u002A\u002A177*%
X161275000Y-77485000D02*
X162020000Y-77485000D01*
X161275000Y-78220000D02*
X161275000Y-77485000D01*
X161275000Y-78955000D02*
X161275000Y-78830000D01*
X161275000Y-78955000D02*
X161334435Y-78955000D01*
X161275000Y-78955000D02*
X162765000Y-78955000D01*
X162705565Y-78955000D02*
X162765000Y-78955000D01*
X162765000Y-78955000D02*
X162765000Y-78830000D01*
%TO.C,C7*%
X130285000Y-64221252D02*
X130285000Y-63698748D01*
X131755000Y-64221252D02*
X131755000Y-63698748D01*
%TO.C,REF\u002A\u002A50*%
X163815000Y-85105000D02*
X164560000Y-85105000D01*
X163815000Y-85840000D02*
X163815000Y-85105000D01*
X163815000Y-86575000D02*
X163815000Y-86450000D01*
X163815000Y-86575000D02*
X163874435Y-86575000D01*
X163815000Y-86575000D02*
X165305000Y-86575000D01*
X165245565Y-86575000D02*
X165305000Y-86575000D01*
X165305000Y-86575000D02*
X165305000Y-86450000D01*
%TO.C,REF\u002A\u002A12*%
X130795000Y-82565000D02*
X131540000Y-82565000D01*
X130795000Y-83300000D02*
X130795000Y-82565000D01*
X130795000Y-84035000D02*
X130795000Y-83910000D01*
X130795000Y-84035000D02*
X130854435Y-84035000D01*
X130795000Y-84035000D02*
X132285000Y-84035000D01*
X132225565Y-84035000D02*
X132285000Y-84035000D01*
X132285000Y-84035000D02*
X132285000Y-83910000D01*
%TO.C,REF\u002A\u002A88*%
X133335000Y-90185000D02*
X134080000Y-90185000D01*
X133335000Y-90920000D02*
X133335000Y-90185000D01*
X133335000Y-91655000D02*
X133335000Y-91530000D01*
X133335000Y-91655000D02*
X133394435Y-91655000D01*
X133335000Y-91655000D02*
X134825000Y-91655000D01*
X134765565Y-91655000D02*
X134825000Y-91655000D01*
X134825000Y-91655000D02*
X134825000Y-91530000D01*
%TO.C,REF\u002A\u002A91*%
X140955000Y-90185000D02*
X141700000Y-90185000D01*
X140955000Y-90920000D02*
X140955000Y-90185000D01*
X140955000Y-91655000D02*
X140955000Y-91530000D01*
X140955000Y-91655000D02*
X141014435Y-91655000D01*
X140955000Y-91655000D02*
X142445000Y-91655000D01*
X142385565Y-91655000D02*
X142445000Y-91655000D01*
X142445000Y-91655000D02*
X142445000Y-91530000D01*
%TO.C,REF\u002A\u002A15*%
X138415000Y-82565000D02*
X139160000Y-82565000D01*
X138415000Y-83300000D02*
X138415000Y-82565000D01*
X138415000Y-84035000D02*
X138415000Y-83910000D01*
X138415000Y-84035000D02*
X138474435Y-84035000D01*
X138415000Y-84035000D02*
X139905000Y-84035000D01*
X139845565Y-84035000D02*
X139905000Y-84035000D01*
X139905000Y-84035000D02*
X139905000Y-83910000D01*
%TO.C,REF\u002A\u002A176*%
X158735000Y-77485000D02*
X159480000Y-77485000D01*
X158735000Y-78220000D02*
X158735000Y-77485000D01*
X158735000Y-78955000D02*
X158735000Y-78830000D01*
X158735000Y-78955000D02*
X158794435Y-78955000D01*
X158735000Y-78955000D02*
X160225000Y-78955000D01*
X160165565Y-78955000D02*
X160225000Y-78955000D01*
X160225000Y-78955000D02*
X160225000Y-78830000D01*
%TO.C,REF\u002A\u002A139*%
X153655000Y-59705000D02*
X154400000Y-59705000D01*
X153655000Y-60440000D02*
X153655000Y-59705000D01*
X153655000Y-61175000D02*
X153655000Y-61050000D01*
X153655000Y-61175000D02*
X153714435Y-61175000D01*
X153655000Y-61175000D02*
X155145000Y-61175000D01*
X155085565Y-61175000D02*
X155145000Y-61175000D01*
X155145000Y-61175000D02*
X155145000Y-61050000D01*
%TO.C,REF\u002A\u002A173*%
X163815000Y-74945000D02*
X164560000Y-74945000D01*
X163815000Y-75680000D02*
X163815000Y-74945000D01*
X163815000Y-76415000D02*
X163815000Y-76290000D01*
X163815000Y-76415000D02*
X163874435Y-76415000D01*
X163815000Y-76415000D02*
X165305000Y-76415000D01*
X165245565Y-76415000D02*
X165305000Y-76415000D01*
X165305000Y-76415000D02*
X165305000Y-76290000D01*
%TO.C,REF\u002A\u002A31*%
X115555000Y-85105000D02*
X116300000Y-85105000D01*
X115555000Y-85840000D02*
X115555000Y-85105000D01*
X115555000Y-86575000D02*
X115555000Y-86450000D01*
X115555000Y-86575000D02*
X115614435Y-86575000D01*
X115555000Y-86575000D02*
X117045000Y-86575000D01*
X116985565Y-86575000D02*
X117045000Y-86575000D01*
X117045000Y-86575000D02*
X117045000Y-86450000D01*
%TO.C,REF\u002A\u002A141*%
X158735000Y-59705000D02*
X159480000Y-59705000D01*
X158735000Y-60440000D02*
X158735000Y-59705000D01*
X158735000Y-61175000D02*
X158735000Y-61050000D01*
X158735000Y-61175000D02*
X158794435Y-61175000D01*
X158735000Y-61175000D02*
X160225000Y-61175000D01*
X160165565Y-61175000D02*
X160225000Y-61175000D01*
X160225000Y-61175000D02*
X160225000Y-61050000D01*
%TO.C,REF\u002A\u002A73*%
X158735000Y-87645000D02*
X159480000Y-87645000D01*
X158735000Y-88380000D02*
X158735000Y-87645000D01*
X158735000Y-89115000D02*
X158735000Y-88990000D01*
X158735000Y-89115000D02*
X158794435Y-89115000D01*
X158735000Y-89115000D02*
X160225000Y-89115000D01*
X160165565Y-89115000D02*
X160225000Y-89115000D01*
X160225000Y-89115000D02*
X160225000Y-88990000D01*
%TO.C,REF\u002A\u002A25*%
X163815000Y-82565000D02*
X164560000Y-82565000D01*
X163815000Y-83300000D02*
X163815000Y-82565000D01*
X163815000Y-84035000D02*
X163815000Y-83910000D01*
X163815000Y-84035000D02*
X163874435Y-84035000D01*
X163815000Y-84035000D02*
X165305000Y-84035000D01*
X165245565Y-84035000D02*
X165305000Y-84035000D01*
X165305000Y-84035000D02*
X165305000Y-83910000D01*
D13*
%TO.C,U3*%
X115780000Y-57580000D02*
X115780000Y-58820000D01*
X115780000Y-64080000D02*
X115780000Y-62840000D01*
X119280000Y-57580000D02*
X115780000Y-57580000D01*
X119280000Y-64080000D02*
X115780000Y-64080000D01*
D12*
X122230000Y-63130000D02*
G75*
G02*
X122030000Y-63130000I-100000J0D01*
G01*
X122030000Y-63130000D02*
G75*
G02*
X122230000Y-63130000I100000J0D01*
G01*
D11*
%TO.C,REF\u002A\u002A38*%
X133335000Y-85105000D02*
X134080000Y-85105000D01*
X133335000Y-85840000D02*
X133335000Y-85105000D01*
X133335000Y-86575000D02*
X133335000Y-86450000D01*
X133335000Y-86575000D02*
X133394435Y-86575000D01*
X133335000Y-86575000D02*
X134825000Y-86575000D01*
X134765565Y-86575000D02*
X134825000Y-86575000D01*
X134825000Y-86575000D02*
X134825000Y-86450000D01*
%TO.C,REF\u002A\u002A17*%
X143495000Y-82565000D02*
X144240000Y-82565000D01*
X143495000Y-83300000D02*
X143495000Y-82565000D01*
X143495000Y-84035000D02*
X143495000Y-83910000D01*
X143495000Y-84035000D02*
X143554435Y-84035000D01*
X143495000Y-84035000D02*
X144985000Y-84035000D01*
X144925565Y-84035000D02*
X144985000Y-84035000D01*
X144985000Y-84035000D02*
X144985000Y-83910000D01*
%TO.C,J6*%
X102220000Y-56520000D02*
X112600000Y-56520000D01*
X102220000Y-59170000D02*
X102220000Y-56520000D01*
X102220000Y-61820000D02*
X102220000Y-60440000D01*
X103600000Y-61820000D02*
X102220000Y-61820000D01*
X104870000Y-59170000D02*
X102220000Y-59170000D01*
X104870000Y-61820000D02*
X104870000Y-59170000D01*
X104870000Y-61820000D02*
X112600000Y-61820000D01*
X112600000Y-61820000D02*
X112600000Y-56520000D01*
%TO.C,REF\u002A\u002A21*%
X153655000Y-82565000D02*
X154400000Y-82565000D01*
X153655000Y-83300000D02*
X153655000Y-82565000D01*
X153655000Y-84035000D02*
X153655000Y-83910000D01*
X153655000Y-84035000D02*
X153714435Y-84035000D01*
X153655000Y-84035000D02*
X155145000Y-84035000D01*
X155085565Y-84035000D02*
X155145000Y-84035000D01*
X155145000Y-84035000D02*
X155145000Y-83910000D01*
%TO.C,REF\u002A\u002A39*%
X135875000Y-85105000D02*
X136620000Y-85105000D01*
X135875000Y-85840000D02*
X135875000Y-85105000D01*
X135875000Y-86575000D02*
X135875000Y-86450000D01*
X135875000Y-86575000D02*
X135934435Y-86575000D01*
X135875000Y-86575000D02*
X137365000Y-86575000D01*
X137305565Y-86575000D02*
X137365000Y-86575000D01*
X137365000Y-86575000D02*
X137365000Y-86450000D01*
%TO.C,REF\u002A\u002A179*%
X153655000Y-80025000D02*
X154400000Y-80025000D01*
X153655000Y-80760000D02*
X153655000Y-80025000D01*
X153655000Y-81495000D02*
X153655000Y-81370000D01*
X153655000Y-81495000D02*
X153714435Y-81495000D01*
X153655000Y-81495000D02*
X155145000Y-81495000D01*
X155085565Y-81495000D02*
X155145000Y-81495000D01*
X155145000Y-81495000D02*
X155145000Y-81370000D01*
%TO.C,REF\u002A\u002A59*%
X123175000Y-87645000D02*
X123920000Y-87645000D01*
X123175000Y-88380000D02*
X123175000Y-87645000D01*
X123175000Y-89115000D02*
X123175000Y-88990000D01*
X123175000Y-89115000D02*
X123234435Y-89115000D01*
X123175000Y-89115000D02*
X124665000Y-89115000D01*
X124605565Y-89115000D02*
X124665000Y-89115000D01*
X124665000Y-89115000D02*
X124665000Y-88990000D01*
%TO.C,REF\u002A\u002A106*%
X115555000Y-92725000D02*
X116300000Y-92725000D01*
X115555000Y-93460000D02*
X115555000Y-92725000D01*
X115555000Y-94195000D02*
X115555000Y-94070000D01*
X115555000Y-94195000D02*
X115614435Y-94195000D01*
X115555000Y-94195000D02*
X117045000Y-94195000D01*
X116985565Y-94195000D02*
X117045000Y-94195000D01*
X117045000Y-94195000D02*
X117045000Y-94070000D01*
%TO.C,REF\u002A\u002A8*%
X120635000Y-82565000D02*
X121380000Y-82565000D01*
X120635000Y-83300000D02*
X120635000Y-82565000D01*
X120635000Y-84035000D02*
X120635000Y-83910000D01*
X120635000Y-84035000D02*
X120694435Y-84035000D01*
X120635000Y-84035000D02*
X122125000Y-84035000D01*
X122065565Y-84035000D02*
X122125000Y-84035000D01*
X122125000Y-84035000D02*
X122125000Y-83910000D01*
%TO.C,REF\u002A\u002A84*%
X123175000Y-90185000D02*
X123920000Y-90185000D01*
X123175000Y-90920000D02*
X123175000Y-90185000D01*
X123175000Y-91655000D02*
X123175000Y-91530000D01*
X123175000Y-91655000D02*
X123234435Y-91655000D01*
X123175000Y-91655000D02*
X124665000Y-91655000D01*
X124605565Y-91655000D02*
X124665000Y-91655000D01*
X124665000Y-91655000D02*
X124665000Y-91530000D01*
%TO.C,REF\u002A\u002A180*%
X156195000Y-80025000D02*
X156940000Y-80025000D01*
X156195000Y-80760000D02*
X156195000Y-80025000D01*
X156195000Y-81495000D02*
X156195000Y-81370000D01*
X156195000Y-81495000D02*
X156254435Y-81495000D01*
X156195000Y-81495000D02*
X157685000Y-81495000D01*
X157625565Y-81495000D02*
X157685000Y-81495000D01*
X157685000Y-81495000D02*
X157685000Y-81370000D01*
%TO.C,REF\u002A\u002A208*%
X107935000Y-69865000D02*
X108680000Y-69865000D01*
X107935000Y-70600000D02*
X107935000Y-69865000D01*
X107935000Y-71335000D02*
X107935000Y-71210000D01*
X107935000Y-71335000D02*
X107994435Y-71335000D01*
X107935000Y-71335000D02*
X109425000Y-71335000D01*
X109365565Y-71335000D02*
X109425000Y-71335000D01*
X109425000Y-71335000D02*
X109425000Y-71210000D01*
%TO.C,REF\u002A\u002A30*%
X113015000Y-85105000D02*
X113760000Y-85105000D01*
X113015000Y-85840000D02*
X113015000Y-85105000D01*
X113015000Y-86575000D02*
X113015000Y-86450000D01*
X113015000Y-86575000D02*
X113074435Y-86575000D01*
X113015000Y-86575000D02*
X114505000Y-86575000D01*
X114445565Y-86575000D02*
X114505000Y-86575000D01*
X114505000Y-86575000D02*
X114505000Y-86450000D01*
%TO.C,REF\u002A\u002A9*%
X123175000Y-82565000D02*
X123920000Y-82565000D01*
X123175000Y-83300000D02*
X123175000Y-82565000D01*
X123175000Y-84035000D02*
X123175000Y-83910000D01*
X123175000Y-84035000D02*
X123234435Y-84035000D01*
X123175000Y-84035000D02*
X124665000Y-84035000D01*
X124605565Y-84035000D02*
X124665000Y-84035000D01*
X124665000Y-84035000D02*
X124665000Y-83910000D01*
%TO.C,REF\u002A\u002A72*%
X156195000Y-87645000D02*
X156940000Y-87645000D01*
X156195000Y-88380000D02*
X156195000Y-87645000D01*
X156195000Y-89115000D02*
X156195000Y-88990000D01*
X156195000Y-89115000D02*
X156254435Y-89115000D01*
X156195000Y-89115000D02*
X157685000Y-89115000D01*
X157625565Y-89115000D02*
X157685000Y-89115000D01*
X157685000Y-89115000D02*
X157685000Y-88990000D01*
%TO.C,C11*%
X137195000Y-58971252D02*
X137195000Y-58448748D01*
X138665000Y-58971252D02*
X138665000Y-58448748D01*
%TO.C,REF\u002A\u002A114*%
X135875000Y-92725000D02*
X136620000Y-92725000D01*
X135875000Y-93460000D02*
X135875000Y-92725000D01*
X135875000Y-94195000D02*
X135875000Y-94070000D01*
X135875000Y-94195000D02*
X135934435Y-94195000D01*
X135875000Y-94195000D02*
X137365000Y-94195000D01*
X137305565Y-94195000D02*
X137365000Y-94195000D01*
X137365000Y-94195000D02*
X137365000Y-94070000D01*
%TO.C,REF\u002A\u002A109*%
X123175000Y-92725000D02*
X123920000Y-92725000D01*
X123175000Y-93460000D02*
X123175000Y-92725000D01*
X123175000Y-94195000D02*
X123175000Y-94070000D01*
X123175000Y-94195000D02*
X123234435Y-94195000D01*
X123175000Y-94195000D02*
X124665000Y-94195000D01*
X124605565Y-94195000D02*
X124665000Y-94195000D01*
X124665000Y-94195000D02*
X124665000Y-94070000D01*
%TO.C,REF\u002A\u002A115*%
X138415000Y-92725000D02*
X139160000Y-92725000D01*
X138415000Y-93460000D02*
X138415000Y-92725000D01*
X138415000Y-94195000D02*
X138415000Y-94070000D01*
X138415000Y-94195000D02*
X138474435Y-94195000D01*
X138415000Y-94195000D02*
X139905000Y-94195000D01*
X139845565Y-94195000D02*
X139905000Y-94195000D01*
X139905000Y-94195000D02*
X139905000Y-94070000D01*
%TO.C,REF\u002A\u002A198*%
X102855000Y-64785000D02*
X103600000Y-64785000D01*
X102855000Y-65520000D02*
X102855000Y-64785000D01*
X102855000Y-66255000D02*
X102855000Y-66130000D01*
X102855000Y-66255000D02*
X102914435Y-66255000D01*
X102855000Y-66255000D02*
X104345000Y-66255000D01*
X104285565Y-66255000D02*
X104345000Y-66255000D01*
X104345000Y-66255000D02*
X104345000Y-66130000D01*
%TO.C,REF\u002A\u002A60*%
X125715000Y-87645000D02*
X126460000Y-87645000D01*
X125715000Y-88380000D02*
X125715000Y-87645000D01*
X125715000Y-89115000D02*
X125715000Y-88990000D01*
X125715000Y-89115000D02*
X125774435Y-89115000D01*
X125715000Y-89115000D02*
X127205000Y-89115000D01*
X127145565Y-89115000D02*
X127205000Y-89115000D01*
X127205000Y-89115000D02*
X127205000Y-88990000D01*
%TO.C,REF\u002A\u002A2*%
X105395000Y-82565000D02*
X106140000Y-82565000D01*
X105395000Y-83300000D02*
X105395000Y-82565000D01*
X105395000Y-84035000D02*
X105395000Y-83910000D01*
X105395000Y-84035000D02*
X105454435Y-84035000D01*
X105395000Y-84035000D02*
X106885000Y-84035000D01*
X106825565Y-84035000D02*
X106885000Y-84035000D01*
X106885000Y-84035000D02*
X106885000Y-83910000D01*
%TO.C,REF\u002A\u002A18*%
X146035000Y-82565000D02*
X146780000Y-82565000D01*
X146035000Y-83300000D02*
X146035000Y-82565000D01*
X146035000Y-84035000D02*
X146035000Y-83910000D01*
X146035000Y-84035000D02*
X146094435Y-84035000D01*
X146035000Y-84035000D02*
X147525000Y-84035000D01*
X147465565Y-84035000D02*
X147525000Y-84035000D01*
X147525000Y-84035000D02*
X147525000Y-83910000D01*
%TO.C,REF\u002A\u002A213*%
X110475000Y-72405000D02*
X111220000Y-72405000D01*
X110475000Y-73140000D02*
X110475000Y-72405000D01*
X110475000Y-73875000D02*
X110475000Y-73750000D01*
X110475000Y-73875000D02*
X110534435Y-73875000D01*
X110475000Y-73875000D02*
X111965000Y-73875000D01*
X111905565Y-73875000D02*
X111965000Y-73875000D01*
X111965000Y-73875000D02*
X111965000Y-73750000D01*
%TO.C,REF\u002A\u002A224*%
X107935000Y-80025000D02*
X108680000Y-80025000D01*
X107935000Y-80760000D02*
X107935000Y-80025000D01*
X107935000Y-81495000D02*
X107935000Y-81370000D01*
X107935000Y-81495000D02*
X107994435Y-81495000D01*
X107935000Y-81495000D02*
X109425000Y-81495000D01*
X109365565Y-81495000D02*
X109425000Y-81495000D01*
X109425000Y-81495000D02*
X109425000Y-81370000D01*
%TO.C,REF\u002A\u002A61*%
X128255000Y-87645000D02*
X129000000Y-87645000D01*
X128255000Y-88380000D02*
X128255000Y-87645000D01*
X128255000Y-89115000D02*
X128255000Y-88990000D01*
X128255000Y-89115000D02*
X128314435Y-89115000D01*
X128255000Y-89115000D02*
X129745000Y-89115000D01*
X129685565Y-89115000D02*
X129745000Y-89115000D01*
X129745000Y-89115000D02*
X129745000Y-88990000D01*
%TO.C,REF\u002A\u002A147*%
X161275000Y-62245000D02*
X162020000Y-62245000D01*
X161275000Y-62980000D02*
X161275000Y-62245000D01*
X161275000Y-63715000D02*
X161275000Y-63590000D01*
X161275000Y-63715000D02*
X161334435Y-63715000D01*
X161275000Y-63715000D02*
X162765000Y-63715000D01*
X162705565Y-63715000D02*
X162765000Y-63715000D01*
X162765000Y-63715000D02*
X162765000Y-63590000D01*
%TO.C,REF\u002A\u002A117*%
X143495000Y-92725000D02*
X144240000Y-92725000D01*
X143495000Y-93460000D02*
X143495000Y-92725000D01*
X143495000Y-94195000D02*
X143495000Y-94070000D01*
X143495000Y-94195000D02*
X143554435Y-94195000D01*
X143495000Y-94195000D02*
X144985000Y-94195000D01*
X144925565Y-94195000D02*
X144985000Y-94195000D01*
X144985000Y-94195000D02*
X144985000Y-94070000D01*
%TO.C,REF\u002A\u002A189*%
X153655000Y-85105000D02*
X154400000Y-85105000D01*
X153655000Y-85840000D02*
X153655000Y-85105000D01*
X153655000Y-86575000D02*
X153655000Y-86450000D01*
X153655000Y-86575000D02*
X153714435Y-86575000D01*
X153655000Y-86575000D02*
X155145000Y-86575000D01*
X155085565Y-86575000D02*
X155145000Y-86575000D01*
X155145000Y-86575000D02*
X155145000Y-86450000D01*
%TO.C,REF\u002A\u002A83*%
X120635000Y-90185000D02*
X121380000Y-90185000D01*
X120635000Y-90920000D02*
X120635000Y-90185000D01*
X120635000Y-91655000D02*
X120635000Y-91530000D01*
X120635000Y-91655000D02*
X120694435Y-91655000D01*
X120635000Y-91655000D02*
X122125000Y-91655000D01*
X122065565Y-91655000D02*
X122125000Y-91655000D01*
X122125000Y-91655000D02*
X122125000Y-91530000D01*
%TO.C,REF\u002A\u002A23*%
X158735000Y-82565000D02*
X159480000Y-82565000D01*
X158735000Y-83300000D02*
X158735000Y-82565000D01*
X158735000Y-84035000D02*
X158735000Y-83910000D01*
X158735000Y-84035000D02*
X158794435Y-84035000D01*
X158735000Y-84035000D02*
X160225000Y-84035000D01*
X160165565Y-84035000D02*
X160225000Y-84035000D01*
X160225000Y-84035000D02*
X160225000Y-83910000D01*
%TO.C,REF\u002A\u002A214*%
X102855000Y-74945000D02*
X103600000Y-74945000D01*
X102855000Y-75680000D02*
X102855000Y-74945000D01*
X102855000Y-76415000D02*
X102855000Y-76290000D01*
X102855000Y-76415000D02*
X102914435Y-76415000D01*
X102855000Y-76415000D02*
X104345000Y-76415000D01*
X104285565Y-76415000D02*
X104345000Y-76415000D01*
X104345000Y-76415000D02*
X104345000Y-76290000D01*
%TO.C,R3*%
X130577064Y-66595000D02*
X130122936Y-66595000D01*
X130577064Y-68065000D02*
X130122936Y-68065000D01*
%TO.C,REF\u002A\u002A175*%
X156195000Y-77485000D02*
X156940000Y-77485000D01*
X156195000Y-78220000D02*
X156195000Y-77485000D01*
X156195000Y-78955000D02*
X156195000Y-78830000D01*
X156195000Y-78955000D02*
X156254435Y-78955000D01*
X156195000Y-78955000D02*
X157685000Y-78955000D01*
X157625565Y-78955000D02*
X157685000Y-78955000D01*
X157685000Y-78955000D02*
X157685000Y-78830000D01*
%TO.C,REF\u002A\u002A206*%
X102855000Y-69865000D02*
X103600000Y-69865000D01*
X102855000Y-70600000D02*
X102855000Y-69865000D01*
X102855000Y-71335000D02*
X102855000Y-71210000D01*
X102855000Y-71335000D02*
X102914435Y-71335000D01*
X102855000Y-71335000D02*
X104345000Y-71335000D01*
X104285565Y-71335000D02*
X104345000Y-71335000D01*
X104345000Y-71335000D02*
X104345000Y-71210000D01*
%TO.C,J7*%
X153020000Y-53980000D02*
X163400000Y-53980000D01*
X153020000Y-56630000D02*
X153020000Y-53980000D01*
X153020000Y-59280000D02*
X153020000Y-57900000D01*
X154400000Y-59280000D02*
X153020000Y-59280000D01*
X155670000Y-56630000D02*
X153020000Y-56630000D01*
X155670000Y-59280000D02*
X155670000Y-56630000D01*
X155670000Y-59280000D02*
X163400000Y-59280000D01*
X163400000Y-59280000D02*
X163400000Y-53980000D01*
%TO.C,REF\u002A\u002A108*%
X120635000Y-92725000D02*
X121380000Y-92725000D01*
X120635000Y-93460000D02*
X120635000Y-92725000D01*
X120635000Y-94195000D02*
X120635000Y-94070000D01*
X120635000Y-94195000D02*
X120694435Y-94195000D01*
X120635000Y-94195000D02*
X122125000Y-94195000D01*
X122065565Y-94195000D02*
X122125000Y-94195000D01*
X122125000Y-94195000D02*
X122125000Y-94070000D01*
%TO.C,REF\u002A\u002A86*%
X128255000Y-90185000D02*
X129000000Y-90185000D01*
X128255000Y-90920000D02*
X128255000Y-90185000D01*
X128255000Y-91655000D02*
X128255000Y-91530000D01*
X128255000Y-91655000D02*
X128314435Y-91655000D01*
X128255000Y-91655000D02*
X129745000Y-91655000D01*
X129685565Y-91655000D02*
X129745000Y-91655000D01*
X129745000Y-91655000D02*
X129745000Y-91530000D01*
%TO.C,REF\u002A\u002A32*%
X118095000Y-85105000D02*
X118840000Y-85105000D01*
X118095000Y-85840000D02*
X118095000Y-85105000D01*
X118095000Y-86575000D02*
X118095000Y-86450000D01*
X118095000Y-86575000D02*
X118154435Y-86575000D01*
X118095000Y-86575000D02*
X119585000Y-86575000D01*
X119525565Y-86575000D02*
X119585000Y-86575000D01*
X119585000Y-86575000D02*
X119585000Y-86450000D01*
D14*
%TO.C,G\u002A\u002A\u002A*%
G36*
X111135088Y-51292226D02*
G01*
X111135088Y-51565345D01*
X110794620Y-51565345D01*
X110454152Y-51565345D01*
X110454152Y-51292226D01*
X110454152Y-51019108D01*
X110794620Y-51019108D01*
X111135088Y-51019108D01*
X111135088Y-51292226D01*
G37*
G36*
X111135088Y-53204054D02*
G01*
X111135088Y-54383924D01*
X110794620Y-54383924D01*
X110454152Y-54383924D01*
X110454152Y-53204054D01*
X110454152Y-52024183D01*
X110794620Y-52024183D01*
X111135088Y-52024183D01*
X111135088Y-53204054D01*
G37*
G36*
X112864450Y-55050333D02*
G01*
X112864450Y-55443623D01*
X112805003Y-55443623D01*
X112745556Y-55443623D01*
X112745556Y-55050333D01*
X112745556Y-54657043D01*
X112805003Y-54657043D01*
X112864450Y-54657043D01*
X112864450Y-55050333D01*
G37*
G36*
X111653896Y-54711666D02*
G01*
X111653896Y-54766290D01*
X111518790Y-54766290D01*
X111383684Y-54766290D01*
X111383684Y-54881000D01*
X111383684Y-54995709D01*
X111507981Y-54995709D01*
X111632279Y-54995709D01*
X111632279Y-55050333D01*
X111632279Y-55104957D01*
X111507981Y-55104957D01*
X111383684Y-55104957D01*
X111383684Y-55225129D01*
X111383684Y-55345301D01*
X111524194Y-55345301D01*
X111664705Y-55345301D01*
X111664705Y-55394462D01*
X111664705Y-55443623D01*
X111464747Y-55443623D01*
X111264790Y-55443623D01*
X111264790Y-55050333D01*
X111264790Y-54657043D01*
X111459343Y-54657043D01*
X111653896Y-54657043D01*
X111653896Y-54711666D01*
G37*
G36*
X114388450Y-54711666D02*
G01*
X114388450Y-54766290D01*
X114253343Y-54766290D01*
X114118237Y-54766290D01*
X114118237Y-54881000D01*
X114118237Y-54995709D01*
X114242535Y-54995709D01*
X114366833Y-54995709D01*
X114366833Y-55050333D01*
X114366833Y-55104957D01*
X114242535Y-55104957D01*
X114118237Y-55104957D01*
X114118237Y-55225129D01*
X114118237Y-55345301D01*
X114258747Y-55345301D01*
X114399258Y-55345301D01*
X114399258Y-55394462D01*
X114399258Y-55443623D01*
X114204705Y-55443623D01*
X114010152Y-55443623D01*
X114010152Y-55050333D01*
X114010152Y-54657043D01*
X114199301Y-54657043D01*
X114388450Y-54657043D01*
X114388450Y-54711666D01*
G37*
G36*
X112404556Y-54806750D02*
G01*
X112390659Y-54864788D01*
X112372998Y-54937952D01*
X112353048Y-55020168D01*
X112332281Y-55105364D01*
X112312173Y-55187466D01*
X112309630Y-55197817D01*
X112250551Y-55438161D01*
X112186921Y-55441353D01*
X112123292Y-55444544D01*
X112033721Y-55075374D01*
X112012513Y-54987946D01*
X111992765Y-54906497D01*
X111975113Y-54833653D01*
X111960193Y-54772041D01*
X111948641Y-54724288D01*
X111941093Y-54693020D01*
X111938362Y-54681623D01*
X111936596Y-54667575D01*
X111942989Y-54660242D01*
X111962273Y-54657455D01*
X111992020Y-54657043D01*
X112051466Y-54657043D01*
X112068401Y-54732840D01*
X112075973Y-54767656D01*
X112086874Y-54819018D01*
X112100086Y-54882068D01*
X112114592Y-54951950D01*
X112129373Y-55023805D01*
X112129633Y-55025076D01*
X112143510Y-55092714D01*
X112156247Y-55154493D01*
X112167069Y-55206672D01*
X112175199Y-55245507D01*
X112179860Y-55267254D01*
X112180216Y-55268828D01*
X112184528Y-55272543D01*
X112191424Y-55256525D01*
X112201079Y-55220184D01*
X112213673Y-55162935D01*
X112216615Y-55148656D01*
X112230575Y-55080995D01*
X112247252Y-55001260D01*
X112264697Y-54918712D01*
X112280962Y-54842610D01*
X112283284Y-54831838D01*
X112319840Y-54662505D01*
X112380121Y-54659267D01*
X112440402Y-54656028D01*
X112404556Y-54806750D01*
G37*
G36*
X110613577Y-54659291D02*
G01*
X110692040Y-54664109D01*
X110752714Y-54673080D01*
X110799291Y-54687903D01*
X110835461Y-54710279D01*
X110864917Y-54741909D01*
X110891350Y-54784492D01*
X110893295Y-54788139D01*
X110900151Y-54803226D01*
X110905278Y-54821127D01*
X110908919Y-54845078D01*
X110911318Y-54878312D01*
X110912721Y-54924061D01*
X110913370Y-54985561D01*
X110913513Y-55055795D01*
X110913377Y-55133039D01*
X110912781Y-55191756D01*
X110911443Y-55235270D01*
X110909080Y-55266903D01*
X110905412Y-55289977D01*
X110900157Y-55307816D01*
X110893032Y-55323742D01*
X110890344Y-55328914D01*
X110865168Y-55369797D01*
X110836783Y-55400019D01*
X110801626Y-55421046D01*
X110756130Y-55434343D01*
X110696730Y-55441375D01*
X110619861Y-55443608D01*
X110611222Y-55443623D01*
X110475769Y-55443623D01*
X110475769Y-55348413D01*
X110594662Y-55348413D01*
X110659371Y-55341577D01*
X110698231Y-55335606D01*
X110730898Y-55327339D01*
X110745842Y-55321004D01*
X110764487Y-55306066D01*
X110778439Y-55285969D01*
X110788327Y-55257642D01*
X110794781Y-55218012D01*
X110798429Y-55164008D01*
X110799903Y-55092557D01*
X110800024Y-55056525D01*
X110799313Y-54975285D01*
X110796684Y-54912926D01*
X110791393Y-54866510D01*
X110782694Y-54833100D01*
X110769844Y-54809759D01*
X110752098Y-54793550D01*
X110730505Y-54782284D01*
X110694679Y-54772014D01*
X110653219Y-54766558D01*
X110643648Y-54766290D01*
X110594662Y-54766290D01*
X110594662Y-55057352D01*
X110594662Y-55348413D01*
X110475769Y-55348413D01*
X110475769Y-55057352D01*
X110475769Y-55048883D01*
X110475769Y-54654143D01*
X110613577Y-54659291D01*
G37*
G36*
X112045642Y-51908474D02*
G01*
X112048407Y-52797839D01*
X112292485Y-52413742D01*
X112536562Y-52029646D01*
X112884251Y-52026763D01*
X112968476Y-52026246D01*
X113045346Y-52026122D01*
X113112312Y-52026368D01*
X113166820Y-52026960D01*
X113206321Y-52027876D01*
X113228262Y-52029091D01*
X113231939Y-52029940D01*
X113226299Y-52040030D01*
X113210081Y-52066847D01*
X113184337Y-52108701D01*
X113150118Y-52163902D01*
X113108477Y-52230759D01*
X113060466Y-52307581D01*
X113007136Y-52392679D01*
X112949541Y-52484362D01*
X112913450Y-52541708D01*
X112853578Y-52636884D01*
X112797166Y-52726775D01*
X112745290Y-52809649D01*
X112699029Y-52883774D01*
X112659461Y-52947418D01*
X112627663Y-52998847D01*
X112604714Y-53036330D01*
X112591692Y-53058135D01*
X112589111Y-53062918D01*
X112593292Y-53074827D01*
X112607282Y-53104157D01*
X112630235Y-53149321D01*
X112661301Y-53208729D01*
X112699634Y-53280794D01*
X112744385Y-53363930D01*
X112794706Y-53456546D01*
X112849749Y-53557055D01*
X112908667Y-53663870D01*
X112944477Y-53728440D01*
X113305693Y-54378462D01*
X112937139Y-54381339D01*
X112849912Y-54381782D01*
X112769601Y-54381733D01*
X112698755Y-54381228D01*
X112639922Y-54380306D01*
X112595648Y-54379003D01*
X112568482Y-54377355D01*
X112560827Y-54375877D01*
X112554521Y-54364801D01*
X112539329Y-54336135D01*
X112516210Y-54291742D01*
X112486123Y-54233484D01*
X112450025Y-54163223D01*
X112408875Y-54082821D01*
X112363633Y-53994142D01*
X112315255Y-53899048D01*
X112300738Y-53870462D01*
X112048407Y-53373387D01*
X112045597Y-53878656D01*
X112042787Y-54383924D01*
X111702427Y-54383924D01*
X111362067Y-54383924D01*
X111362067Y-52701517D01*
X111362067Y-51019108D01*
X111702471Y-51019108D01*
X112042876Y-51019108D01*
X112045642Y-51908474D01*
G37*
G36*
X113509767Y-54656127D02*
G01*
X113565246Y-54681444D01*
X113611729Y-54722140D01*
X113645448Y-54773453D01*
X113662632Y-54830626D01*
X113664042Y-54850957D01*
X113663164Y-54872140D01*
X113656411Y-54882591D01*
X113638165Y-54886102D01*
X113611440Y-54886462D01*
X113579695Y-54885586D01*
X113563168Y-54880347D01*
X113555464Y-54866832D01*
X113551827Y-54849973D01*
X113534953Y-54807940D01*
X113505361Y-54778156D01*
X113467925Y-54761408D01*
X113427521Y-54758480D01*
X113389026Y-54770159D01*
X113357315Y-54797231D01*
X113345559Y-54816716D01*
X113339401Y-54833015D01*
X113334975Y-54853906D01*
X113332099Y-54882657D01*
X113330592Y-54922536D01*
X113330269Y-54976811D01*
X113330949Y-55048749D01*
X113331290Y-55072216D01*
X113334620Y-55290230D01*
X113364589Y-55320497D01*
X113390459Y-55341071D01*
X113419943Y-55349650D01*
X113443837Y-55350763D01*
X113478310Y-55348091D01*
X113502440Y-55336849D01*
X113524655Y-55315085D01*
X113544448Y-55286645D01*
X113555416Y-55259136D01*
X113556194Y-55252268D01*
X113557760Y-55236723D01*
X113565983Y-55228628D01*
X113586150Y-55225571D01*
X113615641Y-55225129D01*
X113649167Y-55225960D01*
X113667771Y-55231306D01*
X113673698Y-55245446D01*
X113669191Y-55272657D01*
X113659171Y-55308110D01*
X113634128Y-55361543D01*
X113594970Y-55409037D01*
X113550790Y-55441207D01*
X113520878Y-55450614D01*
X113478431Y-55457075D01*
X113432420Y-55459855D01*
X113391817Y-55458218D01*
X113376321Y-55455507D01*
X113315019Y-55429607D01*
X113266501Y-55387438D01*
X113240812Y-55347620D01*
X113232677Y-55329948D01*
X113226519Y-55312587D01*
X113222064Y-55292283D01*
X113219038Y-55265781D01*
X113217166Y-55229827D01*
X113216174Y-55181166D01*
X113215786Y-55116545D01*
X113215726Y-55050333D01*
X113215826Y-54970440D01*
X113216304Y-54909201D01*
X113217429Y-54863421D01*
X113219469Y-54829904D01*
X113222691Y-54805456D01*
X113227366Y-54786880D01*
X113233759Y-54770982D01*
X113240259Y-54758109D01*
X113278160Y-54708438D01*
X113329960Y-54672401D01*
X113391540Y-54651555D01*
X113458783Y-54647459D01*
X113509767Y-54656127D01*
G37*
G36*
X114979438Y-54656786D02*
G01*
X115031303Y-54673541D01*
X115071053Y-54703549D01*
X115097322Y-54739571D01*
X115115286Y-54776498D01*
X115128217Y-54813746D01*
X115130793Y-54825547D01*
X115137065Y-54864613D01*
X115076204Y-54864613D01*
X115041434Y-54863753D01*
X115023137Y-54859901D01*
X115016193Y-54851150D01*
X115015343Y-54841923D01*
X115006371Y-54815570D01*
X114984042Y-54788047D01*
X114955238Y-54765856D01*
X114926842Y-54755503D01*
X114923766Y-54755365D01*
X114889995Y-54761328D01*
X114856902Y-54776289D01*
X114833000Y-54795857D01*
X114827504Y-54805016D01*
X114821018Y-54849201D01*
X114831564Y-54893133D01*
X114842814Y-54911816D01*
X114861764Y-54929967D01*
X114893952Y-54954735D01*
X114933810Y-54981967D01*
X114953602Y-54994432D01*
X115027145Y-55044026D01*
X115081257Y-55091771D01*
X115117720Y-55140039D01*
X115138311Y-55191204D01*
X115144812Y-55247637D01*
X115144808Y-55249358D01*
X115134854Y-55314803D01*
X115107555Y-55370495D01*
X115065696Y-55414650D01*
X115012061Y-55445483D01*
X114949432Y-55461208D01*
X114880595Y-55460042D01*
X114833146Y-55449163D01*
X114797069Y-55433959D01*
X114765324Y-55414420D01*
X114758763Y-55408926D01*
X114731104Y-55374528D01*
X114707900Y-55330522D01*
X114693677Y-55286496D01*
X114691325Y-55266096D01*
X114692412Y-55248914D01*
X114699549Y-55239970D01*
X114718028Y-55236578D01*
X114750535Y-55236053D01*
X114784666Y-55236854D01*
X114802443Y-55240718D01*
X114809112Y-55249843D01*
X114809981Y-55260934D01*
X114819669Y-55298285D01*
X114845439Y-55327692D01*
X114882348Y-55346295D01*
X114925455Y-55351238D01*
X114955863Y-55345312D01*
X114996542Y-55322700D01*
X115019736Y-55287405D01*
X115026152Y-55245156D01*
X115023357Y-55218550D01*
X115013297Y-55194154D01*
X114993461Y-55169229D01*
X114961336Y-55141033D01*
X114914410Y-55106827D01*
X114874896Y-55080147D01*
X114820310Y-55041371D01*
X114776143Y-55004832D01*
X114746421Y-54973926D01*
X114742295Y-54968327D01*
X114713791Y-54909838D01*
X114703985Y-54848413D01*
X114712173Y-54788327D01*
X114737652Y-54733856D01*
X114779719Y-54689275D01*
X114789318Y-54682417D01*
X114818061Y-54665362D01*
X114845379Y-54655987D01*
X114879829Y-54652139D01*
X114911869Y-54651580D01*
X114979438Y-54656786D01*
G37*
G36*
X109038237Y-51921043D02*
G01*
X109038321Y-52094024D01*
X109038580Y-52246033D01*
X109039026Y-52377946D01*
X109039672Y-52490640D01*
X109040529Y-52584991D01*
X109041609Y-52661876D01*
X109042924Y-52722172D01*
X109044485Y-52766754D01*
X109046305Y-52796500D01*
X109048396Y-52812286D01*
X109050362Y-52815404D01*
X109063394Y-52801391D01*
X109085649Y-52770906D01*
X109115612Y-52726440D01*
X109151771Y-52670486D01*
X109192612Y-52605535D01*
X109236621Y-52534079D01*
X109282286Y-52458610D01*
X109328093Y-52381621D01*
X109372529Y-52305603D01*
X109414080Y-52233048D01*
X109451233Y-52166449D01*
X109482475Y-52108297D01*
X109497196Y-52079610D01*
X109524984Y-52024183D01*
X109877235Y-52024183D01*
X109973828Y-52024246D01*
X110050923Y-52024510D01*
X110110642Y-52025092D01*
X110155104Y-52026109D01*
X110186429Y-52027676D01*
X110206737Y-52029910D01*
X110218149Y-52032926D01*
X110222783Y-52036841D01*
X110222760Y-52041771D01*
X110222310Y-52043085D01*
X110215326Y-52055702D01*
X110197888Y-52085021D01*
X110171085Y-52129271D01*
X110136004Y-52186681D01*
X110093732Y-52255477D01*
X110045357Y-52333888D01*
X109991967Y-52420142D01*
X109934648Y-52512467D01*
X109905523Y-52559279D01*
X109846876Y-52653775D01*
X109791863Y-52742995D01*
X109741542Y-52825182D01*
X109696972Y-52898579D01*
X109659212Y-52961428D01*
X109629322Y-53011971D01*
X109608360Y-53048452D01*
X109597386Y-53069113D01*
X109595974Y-53072958D01*
X109601117Y-53085068D01*
X109615950Y-53114638D01*
X109639607Y-53160061D01*
X109671228Y-53219726D01*
X109709947Y-53292027D01*
X109754902Y-53375353D01*
X109805229Y-53468097D01*
X109860066Y-53568649D01*
X109918549Y-53675402D01*
X109949435Y-53731595D01*
X110009352Y-53840559D01*
X110066072Y-53943851D01*
X110118736Y-54039896D01*
X110166484Y-54127121D01*
X110208457Y-54203951D01*
X110243795Y-54268813D01*
X110271640Y-54320134D01*
X110291133Y-54356338D01*
X110301413Y-54375853D01*
X110302833Y-54378885D01*
X110292433Y-54380060D01*
X110262867Y-54381138D01*
X110216588Y-54382085D01*
X110156047Y-54382870D01*
X110083695Y-54383460D01*
X110001984Y-54383821D01*
X109926264Y-54383924D01*
X109549695Y-54383924D01*
X109303012Y-53862268D01*
X109255753Y-53762493D01*
X109211129Y-53668590D01*
X109170036Y-53582425D01*
X109133370Y-53505862D01*
X109102027Y-53440766D01*
X109076903Y-53389000D01*
X109058894Y-53352429D01*
X109048897Y-53332917D01*
X109047283Y-53330234D01*
X109045493Y-53338711D01*
X109043821Y-53366996D01*
X109042301Y-53413046D01*
X109040971Y-53474821D01*
X109039864Y-53550278D01*
X109039016Y-53637377D01*
X109038463Y-53734074D01*
X109038240Y-53838330D01*
X109038237Y-53851890D01*
X109038237Y-54383924D01*
X108708577Y-54383924D01*
X108378918Y-54383924D01*
X108378918Y-52701517D01*
X108378918Y-51019108D01*
X108708577Y-51019108D01*
X109038237Y-51019108D01*
X109038237Y-51921043D01*
G37*
G36*
X103362701Y-50947712D02*
G01*
X103562129Y-50977502D01*
X103758033Y-51026361D01*
X103948817Y-51094224D01*
X104132889Y-51181028D01*
X104308654Y-51286708D01*
X104431833Y-51376551D01*
X104546046Y-51475202D01*
X104655689Y-51586280D01*
X104757873Y-51706035D01*
X104849708Y-51830719D01*
X104928306Y-51956579D01*
X104990777Y-52079867D01*
X105010736Y-52127968D01*
X105027618Y-52171667D01*
X105003630Y-52139805D01*
X104897770Y-52006802D01*
X104794539Y-51892964D01*
X104691797Y-51796145D01*
X104587407Y-51714199D01*
X104562143Y-51696691D01*
X104399582Y-51599540D01*
X104230137Y-51522821D01*
X104054976Y-51466686D01*
X103875269Y-51431288D01*
X103692183Y-51416783D01*
X103506887Y-51423323D01*
X103320548Y-51451061D01*
X103134336Y-51500152D01*
X103115174Y-51506440D01*
X102955172Y-51568082D01*
X102809756Y-51642010D01*
X102674659Y-51730887D01*
X102545617Y-51837381D01*
X102471370Y-51908769D01*
X102355156Y-52036811D01*
X102258401Y-52167441D01*
X102178982Y-52304461D01*
X102114775Y-52451671D01*
X102063656Y-52612872D01*
X102051688Y-52659843D01*
X102018092Y-52834947D01*
X102004410Y-53001553D01*
X102010642Y-53159661D01*
X102036788Y-53309268D01*
X102082847Y-53450376D01*
X102148821Y-53582984D01*
X102234708Y-53707090D01*
X102296392Y-53778105D01*
X102412476Y-53887555D01*
X102537072Y-53977529D01*
X102672378Y-54049450D01*
X102782624Y-54092539D01*
X102942844Y-54136079D01*
X103101796Y-54158261D01*
X103258621Y-54159123D01*
X103412461Y-54138708D01*
X103562457Y-54097055D01*
X103675612Y-54050146D01*
X103767602Y-54001830D01*
X103847686Y-53949169D01*
X103923004Y-53886915D01*
X103996320Y-53814454D01*
X104041349Y-53765562D01*
X104078442Y-53721280D01*
X104110523Y-53677057D01*
X104140517Y-53628344D01*
X104171349Y-53570590D01*
X104205944Y-53499246D01*
X104224294Y-53459817D01*
X104251591Y-53401939D01*
X104271274Y-53363632D01*
X104283585Y-53345117D01*
X104288767Y-53346619D01*
X104287062Y-53368359D01*
X104278713Y-53410561D01*
X104263962Y-53473447D01*
X104259396Y-53492051D01*
X104204296Y-53671590D01*
X104130860Y-53840518D01*
X104040155Y-53997854D01*
X103933247Y-54142620D01*
X103811204Y-54273835D01*
X103675092Y-54390521D01*
X103525978Y-54491696D01*
X103364930Y-54576383D01*
X103193013Y-54643601D01*
X103011295Y-54692371D01*
X102936834Y-54706373D01*
X102874565Y-54713812D01*
X102797216Y-54718671D01*
X102710996Y-54720960D01*
X102622110Y-54720688D01*
X102536768Y-54717863D01*
X102461175Y-54712494D01*
X102407216Y-54705600D01*
X102245814Y-54667918D01*
X102084344Y-54610713D01*
X101927266Y-54535825D01*
X101783247Y-54447982D01*
X101718035Y-54398710D01*
X101645964Y-54336413D01*
X101571588Y-54265694D01*
X101499459Y-54191154D01*
X101434133Y-54117395D01*
X101380162Y-54049020D01*
X101360437Y-54020694D01*
X101263794Y-53854805D01*
X101186704Y-53680005D01*
X101129412Y-53497199D01*
X101092159Y-53307293D01*
X101075188Y-53111195D01*
X101076019Y-52958248D01*
X101095687Y-52744351D01*
X101135089Y-52536115D01*
X101193489Y-52334873D01*
X101270151Y-52141962D01*
X101364339Y-51958718D01*
X101475317Y-51786475D01*
X101602348Y-51626569D01*
X101744696Y-51480336D01*
X101901626Y-51349111D01*
X102001897Y-51278516D01*
X102181369Y-51173023D01*
X102368474Y-51087048D01*
X102561618Y-51020528D01*
X102759206Y-50973399D01*
X102959645Y-50945596D01*
X103161342Y-50937055D01*
X103362701Y-50947712D01*
G37*
G36*
X107105502Y-50956761D02*
G01*
X107191807Y-50960618D01*
X107265351Y-50967587D01*
X107276451Y-50969130D01*
X107429042Y-51000790D01*
X107568090Y-51048589D01*
X107693043Y-51112086D01*
X107803351Y-51190841D01*
X107898462Y-51284413D01*
X107977824Y-51392361D01*
X108040887Y-51514245D01*
X108075000Y-51607498D01*
X108107371Y-51729351D01*
X108134527Y-51867467D01*
X108156512Y-52019117D01*
X108173365Y-52181571D01*
X108185129Y-52352100D01*
X108191844Y-52527975D01*
X108193552Y-52706466D01*
X108190295Y-52884845D01*
X108182113Y-53060382D01*
X108169049Y-53230347D01*
X108151143Y-53392014D01*
X108128437Y-53542650D01*
X108100973Y-53679529D01*
X108068792Y-53799919D01*
X108040530Y-53880403D01*
X107982761Y-53996403D01*
X107907253Y-54100523D01*
X107814703Y-54192289D01*
X107705809Y-54271231D01*
X107581267Y-54336874D01*
X107441776Y-54388748D01*
X107288032Y-54426380D01*
X107217004Y-54438168D01*
X107158915Y-54443861D01*
X107086051Y-54447053D01*
X107005104Y-54447811D01*
X106922766Y-54446201D01*
X106845730Y-54442292D01*
X106780686Y-54436148D01*
X106763046Y-54433649D01*
X106631334Y-54405639D01*
X106504688Y-54364770D01*
X106386464Y-54312687D01*
X106280016Y-54251031D01*
X106188698Y-54181447D01*
X106131452Y-54124239D01*
X106065571Y-54034348D01*
X106007870Y-53924640D01*
X105958312Y-53795014D01*
X105916862Y-53645366D01*
X105883484Y-53475593D01*
X105866426Y-53357000D01*
X105852389Y-53221641D01*
X105841870Y-53069699D01*
X105834934Y-52906155D01*
X105831811Y-52744402D01*
X106565283Y-52744402D01*
X106567725Y-52897377D01*
X106573855Y-53044692D01*
X106583479Y-53184126D01*
X106596402Y-53313460D01*
X106612429Y-53430477D01*
X106631367Y-53532956D01*
X106653020Y-53618679D01*
X106677195Y-53685427D01*
X106683360Y-53698396D01*
X106723381Y-53760202D01*
X106777141Y-53818515D01*
X106838862Y-53868276D01*
X106902767Y-53904427D01*
X106930578Y-53914870D01*
X106981792Y-53923390D01*
X107042809Y-53922708D01*
X107104095Y-53913389D01*
X107141063Y-53902404D01*
X107201138Y-53870178D01*
X107258884Y-53822073D01*
X107308300Y-53763744D01*
X107334693Y-53719918D01*
X107367291Y-53639577D01*
X107395047Y-53538619D01*
X107417886Y-53417743D01*
X107435734Y-53277642D01*
X107448517Y-53119014D01*
X107456161Y-52942552D01*
X107458592Y-52748954D01*
X107456599Y-52575882D01*
X107451198Y-52397892D01*
X107442923Y-52240339D01*
X107431549Y-52101973D01*
X107416850Y-51981546D01*
X107398599Y-51877809D01*
X107376572Y-51789514D01*
X107350542Y-51715412D01*
X107320284Y-51654254D01*
X107285572Y-51604792D01*
X107279788Y-51598103D01*
X107216374Y-51540484D01*
X107145669Y-51502709D01*
X107066349Y-51484342D01*
X106977090Y-51484945D01*
X106948747Y-51488670D01*
X106885195Y-51503255D01*
X106829067Y-51526679D01*
X106779873Y-51560164D01*
X106737123Y-51604935D01*
X106700329Y-51662214D01*
X106669002Y-51733225D01*
X106642652Y-51819193D01*
X106620790Y-51921339D01*
X106602927Y-52040888D01*
X106588573Y-52179064D01*
X106577240Y-52337089D01*
X106572241Y-52430342D01*
X106566724Y-52587983D01*
X106565283Y-52744402D01*
X105831811Y-52744402D01*
X105831649Y-52735995D01*
X105832081Y-52564204D01*
X105836299Y-52395764D01*
X105844368Y-52235663D01*
X105850280Y-52155280D01*
X105871792Y-51963630D01*
X105903328Y-51790896D01*
X105945380Y-51636386D01*
X105998438Y-51499406D01*
X106062992Y-51379264D01*
X106139534Y-51275266D01*
X106228555Y-51186719D01*
X106330545Y-51112930D01*
X106445995Y-51053206D01*
X106575397Y-51006854D01*
X106682291Y-50980366D01*
X106746802Y-50970286D01*
X106827085Y-50962777D01*
X106917434Y-50957948D01*
X107012142Y-50955906D01*
X107105502Y-50956761D01*
G37*
G36*
X114358831Y-51974308D02*
G01*
X114434683Y-51978854D01*
X114507421Y-51984977D01*
X114564589Y-51991960D01*
X114612232Y-52000853D01*
X114656397Y-52012705D01*
X114686102Y-52022493D01*
X114799422Y-52071242D01*
X114899305Y-52133222D01*
X114984094Y-52206914D01*
X115052134Y-52290803D01*
X115101767Y-52383369D01*
X115113207Y-52413736D01*
X115116876Y-52425206D01*
X115120093Y-52437628D01*
X115122886Y-52452439D01*
X115125286Y-52471080D01*
X115127322Y-52494989D01*
X115129024Y-52525606D01*
X115130422Y-52564371D01*
X115131546Y-52612722D01*
X115132425Y-52672099D01*
X115133089Y-52743941D01*
X115133569Y-52829688D01*
X115133893Y-52930778D01*
X115134092Y-53048652D01*
X115134196Y-53184749D01*
X115134233Y-53340506D01*
X115134237Y-53429721D01*
X115134237Y-54383924D01*
X114428981Y-54383337D01*
X114287023Y-54383182D01*
X114165006Y-54382941D01*
X114061255Y-54382570D01*
X113974094Y-54382025D01*
X113901847Y-54381263D01*
X113842839Y-54380238D01*
X113795394Y-54378907D01*
X113757836Y-54377226D01*
X113728490Y-54375150D01*
X113705680Y-54372637D01*
X113687730Y-54369640D01*
X113672965Y-54366117D01*
X113663248Y-54363192D01*
X113570393Y-54321969D01*
X113488283Y-54262287D01*
X113417753Y-54185109D01*
X113359639Y-54091396D01*
X113314778Y-53982108D01*
X113305602Y-53952014D01*
X113295832Y-53914941D01*
X113289017Y-53880234D01*
X113284682Y-53842693D01*
X113282351Y-53797116D01*
X113281546Y-53738304D01*
X113281618Y-53690204D01*
X113282051Y-53654559D01*
X113936735Y-53654559D01*
X113944425Y-53732907D01*
X113962133Y-53805382D01*
X113989405Y-53867181D01*
X114023428Y-53911308D01*
X114046313Y-53931389D01*
X114068913Y-53946179D01*
X114094991Y-53956477D01*
X114128306Y-53963081D01*
X114172619Y-53966790D01*
X114231691Y-53968401D01*
X114293875Y-53968717D01*
X114474918Y-53968785D01*
X114474918Y-53614691D01*
X114474918Y-53260598D01*
X114431138Y-53253122D01*
X114382404Y-53249789D01*
X114320953Y-53252834D01*
X114254474Y-53261427D01*
X114190657Y-53274738D01*
X114165757Y-53281766D01*
X114104293Y-53309087D01*
X114047094Y-53349407D01*
X114000614Y-53397540D01*
X113978298Y-53432341D01*
X113953218Y-53499471D01*
X113939515Y-53575145D01*
X113936735Y-53654559D01*
X113282051Y-53654559D01*
X113282510Y-53616765D01*
X113284719Y-53559834D01*
X113288739Y-53514086D01*
X113295065Y-53474195D01*
X113304194Y-53434836D01*
X113306007Y-53428010D01*
X113345918Y-53307771D01*
X113396439Y-53205468D01*
X113458661Y-53119419D01*
X113533676Y-53047943D01*
X113570033Y-53021341D01*
X113638791Y-52977707D01*
X113704817Y-52942640D01*
X113771620Y-52915305D01*
X113842707Y-52894869D01*
X113921588Y-52880496D01*
X114011769Y-52871350D01*
X114116760Y-52866598D01*
X114225376Y-52865388D01*
X114473938Y-52865388D01*
X114481297Y-52825741D01*
X114484317Y-52792159D01*
X114484762Y-52743501D01*
X114482994Y-52686337D01*
X114479375Y-52627238D01*
X114474264Y-52572776D01*
X114468024Y-52529521D01*
X114464069Y-52512292D01*
X114441345Y-52463941D01*
X114405520Y-52419932D01*
X114362643Y-52386587D01*
X114330540Y-52372662D01*
X114285696Y-52365725D01*
X114231923Y-52365067D01*
X114177632Y-52370093D01*
X114131231Y-52380205D01*
X114111088Y-52388249D01*
X114074068Y-52418765D01*
X114042592Y-52466447D01*
X114018484Y-52526934D01*
X114003566Y-52595869D01*
X113999471Y-52655087D01*
X113999343Y-52712441D01*
X113663357Y-52712441D01*
X113327371Y-52712441D01*
X113335031Y-52627775D01*
X113354273Y-52498033D01*
X113387459Y-52384549D01*
X113435288Y-52286313D01*
X113498460Y-52202314D01*
X113577676Y-52131541D01*
X113673635Y-52072983D01*
X113739939Y-52043131D01*
X113833522Y-52013307D01*
X113944797Y-51991274D01*
X114071169Y-51977269D01*
X114210045Y-51971534D01*
X114358831Y-51974308D01*
G37*
G36*
X103765414Y-51677797D02*
G01*
X103862708Y-51683230D01*
X103953201Y-51692104D01*
X104030187Y-51704151D01*
X104042224Y-51706664D01*
X104223454Y-51756887D01*
X104393068Y-51825274D01*
X104550480Y-51911199D01*
X104695105Y-52014035D01*
X104826357Y-52133157D01*
X104943652Y-52267937D01*
X105046404Y-52417749D01*
X105134028Y-52581968D01*
X105205938Y-52759966D01*
X105261549Y-52951117D01*
X105278888Y-53030068D01*
X105287253Y-53074219D01*
X105293527Y-53114674D01*
X105297989Y-53155735D01*
X105300919Y-53201700D01*
X105302597Y-53256871D01*
X105303302Y-53325549D01*
X105303327Y-53406161D01*
X105302881Y-53491789D01*
X105301789Y-53559737D01*
X105299768Y-53614171D01*
X105296534Y-53659258D01*
X105291804Y-53699163D01*
X105285295Y-53738053D01*
X105278424Y-53772139D01*
X105223209Y-53981469D01*
X105148423Y-54181634D01*
X105054332Y-54372151D01*
X104941204Y-54552538D01*
X104809303Y-54722311D01*
X104675602Y-54864814D01*
X104510702Y-55011725D01*
X104336635Y-55138956D01*
X104153684Y-55246367D01*
X103962130Y-55333815D01*
X103762258Y-55401161D01*
X103554350Y-55448263D01*
X103484265Y-55459306D01*
X103404325Y-55467701D01*
X103310927Y-55472873D01*
X103210803Y-55474821D01*
X103110686Y-55473539D01*
X103017309Y-55469025D01*
X102937404Y-55461276D01*
X102925358Y-55459594D01*
X102734707Y-55421179D01*
X102547363Y-55363414D01*
X102365263Y-55287655D01*
X102190350Y-55195261D01*
X102024563Y-55087590D01*
X101869844Y-54966001D01*
X101728132Y-54831850D01*
X101601368Y-54686496D01*
X101491493Y-54531298D01*
X101419533Y-54405774D01*
X101393348Y-54353260D01*
X101369228Y-54301538D01*
X101348779Y-54254446D01*
X101333607Y-54215821D01*
X101325318Y-54189503D01*
X101324914Y-54179642D01*
X101332238Y-54186722D01*
X101350417Y-54208517D01*
X101377283Y-54242305D01*
X101410665Y-54285364D01*
X101442251Y-54326835D01*
X101553523Y-54463176D01*
X101667255Y-54580129D01*
X101786358Y-54680150D01*
X101913743Y-54765697D01*
X102045599Y-54836044D01*
X102151124Y-54883274D01*
X102248291Y-54919560D01*
X102342610Y-54946090D01*
X102439590Y-54964052D01*
X102544741Y-54974635D01*
X102663572Y-54979028D01*
X102709855Y-54979322D01*
X102789063Y-54978998D01*
X102851360Y-54977785D01*
X102901445Y-54975319D01*
X102944020Y-54971238D01*
X102983783Y-54965179D01*
X103025434Y-54956781D01*
X103037825Y-54954017D01*
X103221313Y-54903739D01*
X103390138Y-54838760D01*
X103546743Y-54757734D01*
X103693571Y-54659318D01*
X103833066Y-54542169D01*
X103894105Y-54482973D01*
X104015215Y-54349102D01*
X104116603Y-54211326D01*
X104199754Y-54066761D01*
X104266153Y-53912522D01*
X104317282Y-53745726D01*
X104348347Y-53600429D01*
X104361953Y-53496050D01*
X104367573Y-53385465D01*
X104365351Y-53275280D01*
X104355432Y-53172102D01*
X104337960Y-53082533D01*
X104336949Y-53078746D01*
X104293402Y-52948879D01*
X104235250Y-52830101D01*
X104160099Y-52718220D01*
X104073923Y-52617812D01*
X103960584Y-52513382D01*
X103834494Y-52424753D01*
X103698102Y-52352539D01*
X103553861Y-52297353D01*
X103404219Y-52259807D01*
X103251627Y-52240514D01*
X103098535Y-52240087D01*
X102947395Y-52259138D01*
X102800655Y-52298281D01*
X102798772Y-52298930D01*
X102662927Y-52356900D01*
X102536576Y-52432914D01*
X102422515Y-52524995D01*
X102323538Y-52631169D01*
X102317084Y-52639285D01*
X102277428Y-52692232D01*
X102243299Y-52744240D01*
X102211872Y-52800458D01*
X102180325Y-52866034D01*
X102145833Y-52946116D01*
X102137017Y-52967541D01*
X102112707Y-53025459D01*
X102095253Y-53062962D01*
X102084396Y-53079920D01*
X102079877Y-53076205D01*
X102081436Y-53051688D01*
X102088815Y-53006238D01*
X102099873Y-52949039D01*
X102146418Y-52770238D01*
X102211547Y-52601601D01*
X102294271Y-52444022D01*
X102393600Y-52298396D01*
X102508544Y-52165617D01*
X102638114Y-52046577D01*
X102781319Y-51942172D01*
X102937169Y-51853295D01*
X103104675Y-51780841D01*
X103282846Y-51725702D01*
X103470694Y-51688773D01*
X103499772Y-51684844D01*
X103577241Y-51678334D01*
X103668024Y-51676075D01*
X103765414Y-51677797D01*
G37*
D11*
%TO.C,REF\u002A\u002A41*%
X140955000Y-85105000D02*
X141700000Y-85105000D01*
X140955000Y-85840000D02*
X140955000Y-85105000D01*
X140955000Y-86575000D02*
X140955000Y-86450000D01*
X140955000Y-86575000D02*
X141014435Y-86575000D01*
X140955000Y-86575000D02*
X142445000Y-86575000D01*
X142385565Y-86575000D02*
X142445000Y-86575000D01*
X142445000Y-86575000D02*
X142445000Y-86450000D01*
%TO.C,REF\u002A\u002A82*%
X118095000Y-90185000D02*
X118840000Y-90185000D01*
X118095000Y-90920000D02*
X118095000Y-90185000D01*
X118095000Y-91655000D02*
X118095000Y-91530000D01*
X118095000Y-91655000D02*
X118154435Y-91655000D01*
X118095000Y-91655000D02*
X119585000Y-91655000D01*
X119525565Y-91655000D02*
X119585000Y-91655000D01*
X119585000Y-91655000D02*
X119585000Y-91530000D01*
%TO.C,REF\u002A\u002A4*%
X110475000Y-82565000D02*
X111220000Y-82565000D01*
X110475000Y-83300000D02*
X110475000Y-82565000D01*
X110475000Y-84035000D02*
X110475000Y-83910000D01*
X110475000Y-84035000D02*
X110534435Y-84035000D01*
X110475000Y-84035000D02*
X111965000Y-84035000D01*
X111905565Y-84035000D02*
X111965000Y-84035000D01*
X111965000Y-84035000D02*
X111965000Y-83910000D01*
%TO.C,REF\u002A\u002A161*%
X158735000Y-69865000D02*
X159480000Y-69865000D01*
X158735000Y-70600000D02*
X158735000Y-69865000D01*
X158735000Y-71335000D02*
X158735000Y-71210000D01*
X158735000Y-71335000D02*
X158794435Y-71335000D01*
X158735000Y-71335000D02*
X160225000Y-71335000D01*
X160165565Y-71335000D02*
X160225000Y-71335000D01*
X160225000Y-71335000D02*
X160225000Y-71210000D01*
%TO.C,REF\u002A\u002A111*%
X128255000Y-92725000D02*
X129000000Y-92725000D01*
X128255000Y-93460000D02*
X128255000Y-92725000D01*
X128255000Y-94195000D02*
X128255000Y-94070000D01*
X128255000Y-94195000D02*
X128314435Y-94195000D01*
X128255000Y-94195000D02*
X129745000Y-94195000D01*
X129685565Y-94195000D02*
X129745000Y-94195000D01*
X129745000Y-94195000D02*
X129745000Y-94070000D01*
%TO.C,REF\u002A\u002A34*%
X123175000Y-85105000D02*
X123920000Y-85105000D01*
X123175000Y-85840000D02*
X123175000Y-85105000D01*
X123175000Y-86575000D02*
X123175000Y-86450000D01*
X123175000Y-86575000D02*
X123234435Y-86575000D01*
X123175000Y-86575000D02*
X124665000Y-86575000D01*
X124605565Y-86575000D02*
X124665000Y-86575000D01*
X124665000Y-86575000D02*
X124665000Y-86450000D01*
%TO.C,REF\u002A\u002A194*%
X102855000Y-62245000D02*
X103600000Y-62245000D01*
X102855000Y-62980000D02*
X102855000Y-62245000D01*
X102855000Y-63715000D02*
X102855000Y-63590000D01*
X102855000Y-63715000D02*
X102914435Y-63715000D01*
X102855000Y-63715000D02*
X104345000Y-63715000D01*
X104285565Y-63715000D02*
X104345000Y-63715000D01*
X104345000Y-63715000D02*
X104345000Y-63590000D01*
%TO.C,REF\u002A\u002A196*%
X107935000Y-62245000D02*
X108680000Y-62245000D01*
X107935000Y-62980000D02*
X107935000Y-62245000D01*
X107935000Y-63715000D02*
X107935000Y-63590000D01*
X107935000Y-63715000D02*
X107994435Y-63715000D01*
X107935000Y-63715000D02*
X109425000Y-63715000D01*
X109365565Y-63715000D02*
X109425000Y-63715000D01*
X109425000Y-63715000D02*
X109425000Y-63590000D01*
%TO.C,REF\u002A\u002A112*%
X130795000Y-92725000D02*
X131540000Y-92725000D01*
X130795000Y-93460000D02*
X130795000Y-92725000D01*
X130795000Y-94195000D02*
X130795000Y-94070000D01*
X130795000Y-94195000D02*
X130854435Y-94195000D01*
X130795000Y-94195000D02*
X132285000Y-94195000D01*
X132225565Y-94195000D02*
X132285000Y-94195000D01*
X132285000Y-94195000D02*
X132285000Y-94070000D01*
%TO.C,REF\u002A\u002A217*%
X110475000Y-74945000D02*
X111220000Y-74945000D01*
X110475000Y-75680000D02*
X110475000Y-74945000D01*
X110475000Y-76415000D02*
X110475000Y-76290000D01*
X110475000Y-76415000D02*
X110534435Y-76415000D01*
X110475000Y-76415000D02*
X111965000Y-76415000D01*
X111905565Y-76415000D02*
X111965000Y-76415000D01*
X111965000Y-76415000D02*
X111965000Y-76290000D01*
%TO.C,REF\u002A\u002A26*%
X102855000Y-85105000D02*
X103600000Y-85105000D01*
X102855000Y-85840000D02*
X102855000Y-85105000D01*
X102855000Y-86575000D02*
X102855000Y-86450000D01*
X102855000Y-86575000D02*
X102914435Y-86575000D01*
X102855000Y-86575000D02*
X104345000Y-86575000D01*
X104285565Y-86575000D02*
X104345000Y-86575000D01*
X104345000Y-86575000D02*
X104345000Y-86450000D01*
%TO.C,REF\u002A\u002A94*%
X148575000Y-90185000D02*
X149320000Y-90185000D01*
X148575000Y-90920000D02*
X148575000Y-90185000D01*
X148575000Y-91655000D02*
X148575000Y-91530000D01*
X148575000Y-91655000D02*
X148634435Y-91655000D01*
X148575000Y-91655000D02*
X150065000Y-91655000D01*
X150005565Y-91655000D02*
X150065000Y-91655000D01*
X150065000Y-91655000D02*
X150065000Y-91530000D01*
%TO.C,REF\u002A\u002A209*%
X110475000Y-69865000D02*
X111220000Y-69865000D01*
X110475000Y-70600000D02*
X110475000Y-69865000D01*
X110475000Y-71335000D02*
X110475000Y-71210000D01*
X110475000Y-71335000D02*
X110534435Y-71335000D01*
X110475000Y-71335000D02*
X111965000Y-71335000D01*
X111905565Y-71335000D02*
X111965000Y-71335000D01*
X111965000Y-71335000D02*
X111965000Y-71210000D01*
%TO.C,REF\u002A\u002A157*%
X161275000Y-67325000D02*
X162020000Y-67325000D01*
X161275000Y-68060000D02*
X161275000Y-67325000D01*
X161275000Y-68795000D02*
X161275000Y-68670000D01*
X161275000Y-68795000D02*
X161334435Y-68795000D01*
X161275000Y-68795000D02*
X162765000Y-68795000D01*
X162705565Y-68795000D02*
X162765000Y-68795000D01*
X162765000Y-68795000D02*
X162765000Y-68670000D01*
%TO.C,C10*%
X135055000Y-58971252D02*
X135055000Y-58448748D01*
X136525000Y-58971252D02*
X136525000Y-58448748D01*
%TO.C,REF\u002A\u002A169*%
X153655000Y-74945000D02*
X154400000Y-74945000D01*
X153655000Y-75680000D02*
X153655000Y-74945000D01*
X153655000Y-76415000D02*
X153655000Y-76290000D01*
X153655000Y-76415000D02*
X153714435Y-76415000D01*
X153655000Y-76415000D02*
X155145000Y-76415000D01*
X155085565Y-76415000D02*
X155145000Y-76415000D01*
X155145000Y-76415000D02*
X155145000Y-76290000D01*
%TO.C,REF\u002A\u002A210*%
X102855000Y-72405000D02*
X103600000Y-72405000D01*
X102855000Y-73140000D02*
X102855000Y-72405000D01*
X102855000Y-73875000D02*
X102855000Y-73750000D01*
X102855000Y-73875000D02*
X102914435Y-73875000D01*
X102855000Y-73875000D02*
X104345000Y-73875000D01*
X104285565Y-73875000D02*
X104345000Y-73875000D01*
X104345000Y-73875000D02*
X104345000Y-73750000D01*
%TO.C,REF\u002A\u002A1*%
X102855000Y-82565000D02*
X103600000Y-82565000D01*
X102855000Y-83300000D02*
X102855000Y-82565000D01*
X102855000Y-84035000D02*
X102855000Y-83910000D01*
X102855000Y-84035000D02*
X102914435Y-84035000D01*
X102855000Y-84035000D02*
X104345000Y-84035000D01*
X104285565Y-84035000D02*
X104345000Y-84035000D01*
X104345000Y-84035000D02*
X104345000Y-83910000D01*
%TO.C,REF\u002A\u002A200*%
X107935000Y-64785000D02*
X108680000Y-64785000D01*
X107935000Y-65520000D02*
X107935000Y-64785000D01*
X107935000Y-66255000D02*
X107935000Y-66130000D01*
X107935000Y-66255000D02*
X107994435Y-66255000D01*
X107935000Y-66255000D02*
X109425000Y-66255000D01*
X109365565Y-66255000D02*
X109425000Y-66255000D01*
X109425000Y-66255000D02*
X109425000Y-66130000D01*
%TO.C,REF\u002A\u002A219*%
X105395000Y-77485000D02*
X106140000Y-77485000D01*
X105395000Y-78220000D02*
X105395000Y-77485000D01*
X105395000Y-78955000D02*
X105395000Y-78830000D01*
X105395000Y-78955000D02*
X105454435Y-78955000D01*
X105395000Y-78955000D02*
X106885000Y-78955000D01*
X106825565Y-78955000D02*
X106885000Y-78955000D01*
X106885000Y-78955000D02*
X106885000Y-78830000D01*
%TO.C,REF\u002A\u002A19*%
X148575000Y-82565000D02*
X149320000Y-82565000D01*
X148575000Y-83300000D02*
X148575000Y-82565000D01*
X148575000Y-84035000D02*
X148575000Y-83910000D01*
X148575000Y-84035000D02*
X148634435Y-84035000D01*
X148575000Y-84035000D02*
X150065000Y-84035000D01*
X150005565Y-84035000D02*
X150065000Y-84035000D01*
X150065000Y-84035000D02*
X150065000Y-83910000D01*
%TO.C,REF\u002A\u002A220*%
X107935000Y-77485000D02*
X108680000Y-77485000D01*
X107935000Y-78220000D02*
X107935000Y-77485000D01*
X107935000Y-78955000D02*
X107935000Y-78830000D01*
X107935000Y-78955000D02*
X107994435Y-78955000D01*
X107935000Y-78955000D02*
X109425000Y-78955000D01*
X109365565Y-78955000D02*
X109425000Y-78955000D01*
X109425000Y-78955000D02*
X109425000Y-78830000D01*
%TO.C,REF\u002A\u002A120*%
X151115000Y-92725000D02*
X151860000Y-92725000D01*
X151115000Y-93460000D02*
X151115000Y-92725000D01*
X151115000Y-94195000D02*
X151115000Y-94070000D01*
X151115000Y-94195000D02*
X151174435Y-94195000D01*
X151115000Y-94195000D02*
X152605000Y-94195000D01*
X152545565Y-94195000D02*
X152605000Y-94195000D01*
X152605000Y-94195000D02*
X152605000Y-94070000D01*
%TO.C,REF\u002A\u002A212*%
X107935000Y-72405000D02*
X108680000Y-72405000D01*
X107935000Y-73140000D02*
X107935000Y-72405000D01*
X107935000Y-73875000D02*
X107935000Y-73750000D01*
X107935000Y-73875000D02*
X107994435Y-73875000D01*
X107935000Y-73875000D02*
X109425000Y-73875000D01*
X109365565Y-73875000D02*
X109425000Y-73875000D01*
X109425000Y-73875000D02*
X109425000Y-73750000D01*
%TO.C,REF\u002A\u002A143*%
X163815000Y-59705000D02*
X164560000Y-59705000D01*
X163815000Y-60440000D02*
X163815000Y-59705000D01*
X163815000Y-61175000D02*
X163815000Y-61050000D01*
X163815000Y-61175000D02*
X163874435Y-61175000D01*
X163815000Y-61175000D02*
X165305000Y-61175000D01*
X165245565Y-61175000D02*
X165305000Y-61175000D01*
X165305000Y-61175000D02*
X165305000Y-61050000D01*
%TO.C,REF\u002A\u002A178*%
X163815000Y-77485000D02*
X164560000Y-77485000D01*
X163815000Y-78220000D02*
X163815000Y-77485000D01*
X163815000Y-78955000D02*
X163815000Y-78830000D01*
X163815000Y-78955000D02*
X163874435Y-78955000D01*
X163815000Y-78955000D02*
X165305000Y-78955000D01*
X165245565Y-78955000D02*
X165305000Y-78955000D01*
X165305000Y-78955000D02*
X165305000Y-78830000D01*
%TO.C,REF\u002A\u002A52*%
X105395000Y-87645000D02*
X106140000Y-87645000D01*
X105395000Y-88380000D02*
X105395000Y-87645000D01*
X105395000Y-89115000D02*
X105395000Y-88990000D01*
X105395000Y-89115000D02*
X105454435Y-89115000D01*
X105395000Y-89115000D02*
X106885000Y-89115000D01*
X106825565Y-89115000D02*
X106885000Y-89115000D01*
X106885000Y-89115000D02*
X106885000Y-88990000D01*
%TO.C,REF\u002A\u002A155*%
X156195000Y-67325000D02*
X156940000Y-67325000D01*
X156195000Y-68060000D02*
X156195000Y-67325000D01*
X156195000Y-68795000D02*
X156195000Y-68670000D01*
X156195000Y-68795000D02*
X156254435Y-68795000D01*
X156195000Y-68795000D02*
X157685000Y-68795000D01*
X157625565Y-68795000D02*
X157685000Y-68795000D01*
X157685000Y-68795000D02*
X157685000Y-68670000D01*
%TO.C,REF\u002A\u002A27*%
X105395000Y-85105000D02*
X106140000Y-85105000D01*
X105395000Y-85840000D02*
X105395000Y-85105000D01*
X105395000Y-86575000D02*
X105395000Y-86450000D01*
X105395000Y-86575000D02*
X105454435Y-86575000D01*
X105395000Y-86575000D02*
X106885000Y-86575000D01*
X106825565Y-86575000D02*
X106885000Y-86575000D01*
X106885000Y-86575000D02*
X106885000Y-86450000D01*
%TO.C,REF\u002A\u002A144*%
X153655000Y-62245000D02*
X154400000Y-62245000D01*
X153655000Y-62980000D02*
X153655000Y-62245000D01*
X153655000Y-63715000D02*
X153655000Y-63590000D01*
X153655000Y-63715000D02*
X153714435Y-63715000D01*
X153655000Y-63715000D02*
X155145000Y-63715000D01*
X155085565Y-63715000D02*
X155145000Y-63715000D01*
X155145000Y-63715000D02*
X155145000Y-63590000D01*
%TO.C,REF\u002A\u002A116*%
X140955000Y-92725000D02*
X141700000Y-92725000D01*
X140955000Y-93460000D02*
X140955000Y-92725000D01*
X140955000Y-94195000D02*
X140955000Y-94070000D01*
X140955000Y-94195000D02*
X141014435Y-94195000D01*
X140955000Y-94195000D02*
X142445000Y-94195000D01*
X142385565Y-94195000D02*
X142445000Y-94195000D01*
X142445000Y-94195000D02*
X142445000Y-94070000D01*
%TO.C,REF\u002A\u002A205*%
X110475000Y-67325000D02*
X111220000Y-67325000D01*
X110475000Y-68060000D02*
X110475000Y-67325000D01*
X110475000Y-68795000D02*
X110475000Y-68670000D01*
X110475000Y-68795000D02*
X110534435Y-68795000D01*
X110475000Y-68795000D02*
X111965000Y-68795000D01*
X111905565Y-68795000D02*
X111965000Y-68795000D01*
X111965000Y-68795000D02*
X111965000Y-68670000D01*
%TO.C,REF\u002A\u002A160*%
X156195000Y-69865000D02*
X156940000Y-69865000D01*
X156195000Y-70600000D02*
X156195000Y-69865000D01*
X156195000Y-71335000D02*
X156195000Y-71210000D01*
X156195000Y-71335000D02*
X156254435Y-71335000D01*
X156195000Y-71335000D02*
X157685000Y-71335000D01*
X157625565Y-71335000D02*
X157685000Y-71335000D01*
X157685000Y-71335000D02*
X157685000Y-71210000D01*
%TO.C,J5*%
X147860000Y-78060000D02*
X147860000Y-55090000D01*
X150620000Y-55090000D02*
X147860000Y-55090000D01*
X150620000Y-78060000D02*
X147860000Y-78060000D01*
X150620000Y-78060000D02*
X150620000Y-55090000D01*
X150620000Y-79330000D02*
X150620000Y-80710000D01*
X150620000Y-80710000D02*
X149240000Y-80710000D01*
%TO.C,REF\u002A\u002A163*%
X163815000Y-69865000D02*
X164560000Y-69865000D01*
X163815000Y-70600000D02*
X163815000Y-69865000D01*
X163815000Y-71335000D02*
X163815000Y-71210000D01*
X163815000Y-71335000D02*
X163874435Y-71335000D01*
X163815000Y-71335000D02*
X165305000Y-71335000D01*
X165245565Y-71335000D02*
X165305000Y-71335000D01*
X165305000Y-71335000D02*
X165305000Y-71210000D01*
%TO.C,REF\u002A\u002A24*%
X161275000Y-82565000D02*
X162020000Y-82565000D01*
X161275000Y-83300000D02*
X161275000Y-82565000D01*
X161275000Y-84035000D02*
X161275000Y-83910000D01*
X161275000Y-84035000D02*
X161334435Y-84035000D01*
X161275000Y-84035000D02*
X162765000Y-84035000D01*
X162705565Y-84035000D02*
X162765000Y-84035000D01*
X162765000Y-84035000D02*
X162765000Y-83910000D01*
%TO.C,REF\u002A\u002A145*%
X156195000Y-62245000D02*
X156940000Y-62245000D01*
X156195000Y-62980000D02*
X156195000Y-62245000D01*
X156195000Y-63715000D02*
X156195000Y-63590000D01*
X156195000Y-63715000D02*
X156254435Y-63715000D01*
X156195000Y-63715000D02*
X157685000Y-63715000D01*
X157625565Y-63715000D02*
X157685000Y-63715000D01*
X157685000Y-63715000D02*
X157685000Y-63590000D01*
%TO.C,REF\u002A\u002A221*%
X110475000Y-77485000D02*
X111220000Y-77485000D01*
X110475000Y-78220000D02*
X110475000Y-77485000D01*
X110475000Y-78955000D02*
X110475000Y-78830000D01*
X110475000Y-78955000D02*
X110534435Y-78955000D01*
X110475000Y-78955000D02*
X111965000Y-78955000D01*
X111905565Y-78955000D02*
X111965000Y-78955000D01*
X111965000Y-78955000D02*
X111965000Y-78830000D01*
%TO.C,REF\u002A\u002A22*%
X156195000Y-82565000D02*
X156940000Y-82565000D01*
X156195000Y-83300000D02*
X156195000Y-82565000D01*
X156195000Y-84035000D02*
X156195000Y-83910000D01*
X156195000Y-84035000D02*
X156254435Y-84035000D01*
X156195000Y-84035000D02*
X157685000Y-84035000D01*
X157625565Y-84035000D02*
X157685000Y-84035000D01*
X157685000Y-84035000D02*
X157685000Y-83910000D01*
%TO.C,J8*%
X102220000Y-89540000D02*
X112600000Y-89540000D01*
X102220000Y-92190000D02*
X102220000Y-89540000D01*
X102220000Y-94840000D02*
X102220000Y-93460000D01*
X103600000Y-94840000D02*
X102220000Y-94840000D01*
X104870000Y-92190000D02*
X102220000Y-92190000D01*
X104870000Y-94840000D02*
X104870000Y-92190000D01*
X104870000Y-94840000D02*
X112600000Y-94840000D01*
X112600000Y-94840000D02*
X112600000Y-89540000D01*
%TO.C,REF\u002A\u002A62*%
X130795000Y-87645000D02*
X131540000Y-87645000D01*
X130795000Y-88380000D02*
X130795000Y-87645000D01*
X130795000Y-89115000D02*
X130795000Y-88990000D01*
X130795000Y-89115000D02*
X130854435Y-89115000D01*
X130795000Y-89115000D02*
X132285000Y-89115000D01*
X132225565Y-89115000D02*
X132285000Y-89115000D01*
X132285000Y-89115000D02*
X132285000Y-88990000D01*
%TO.C,REF\u002A\u002A113*%
X133335000Y-92725000D02*
X134080000Y-92725000D01*
X133335000Y-93460000D02*
X133335000Y-92725000D01*
X133335000Y-94195000D02*
X133335000Y-94070000D01*
X133335000Y-94195000D02*
X133394435Y-94195000D01*
X133335000Y-94195000D02*
X134825000Y-94195000D01*
X134765565Y-94195000D02*
X134825000Y-94195000D01*
X134825000Y-94195000D02*
X134825000Y-94070000D01*
%TO.C,REF\u002A\u002A202*%
X102855000Y-67325000D02*
X103600000Y-67325000D01*
X102855000Y-68060000D02*
X102855000Y-67325000D01*
X102855000Y-68795000D02*
X102855000Y-68670000D01*
X102855000Y-68795000D02*
X102914435Y-68795000D01*
X102855000Y-68795000D02*
X104345000Y-68795000D01*
X104285565Y-68795000D02*
X104345000Y-68795000D01*
X104345000Y-68795000D02*
X104345000Y-68670000D01*
%TO.C,REF\u002A\u002A165*%
X156195000Y-72405000D02*
X156940000Y-72405000D01*
X156195000Y-73140000D02*
X156195000Y-72405000D01*
X156195000Y-73875000D02*
X156195000Y-73750000D01*
X156195000Y-73875000D02*
X156254435Y-73875000D01*
X156195000Y-73875000D02*
X157685000Y-73875000D01*
X157625565Y-73875000D02*
X157685000Y-73875000D01*
X157685000Y-73875000D02*
X157685000Y-73750000D01*
%TO.C,REF\u002A\u002A168*%
X163815000Y-72405000D02*
X164560000Y-72405000D01*
X163815000Y-73140000D02*
X163815000Y-72405000D01*
X163815000Y-73875000D02*
X163815000Y-73750000D01*
X163815000Y-73875000D02*
X163874435Y-73875000D01*
X163815000Y-73875000D02*
X165305000Y-73875000D01*
X165245565Y-73875000D02*
X165305000Y-73875000D01*
X165305000Y-73875000D02*
X165305000Y-73750000D01*
%TO.C,REF\u002A\u002A54*%
X110475000Y-87645000D02*
X111220000Y-87645000D01*
X110475000Y-88380000D02*
X110475000Y-87645000D01*
X110475000Y-89115000D02*
X110475000Y-88990000D01*
X110475000Y-89115000D02*
X110534435Y-89115000D01*
X110475000Y-89115000D02*
X111965000Y-89115000D01*
X111905565Y-89115000D02*
X111965000Y-89115000D01*
X111965000Y-89115000D02*
X111965000Y-88990000D01*
%TO.C,REF\u002A\u002A107*%
X118095000Y-92725000D02*
X118840000Y-92725000D01*
X118095000Y-93460000D02*
X118095000Y-92725000D01*
X118095000Y-94195000D02*
X118095000Y-94070000D01*
X118095000Y-94195000D02*
X118154435Y-94195000D01*
X118095000Y-94195000D02*
X119585000Y-94195000D01*
X119525565Y-94195000D02*
X119585000Y-94195000D01*
X119585000Y-94195000D02*
X119585000Y-94070000D01*
%TO.C,REF\u002A\u002A56*%
X115555000Y-87645000D02*
X116300000Y-87645000D01*
X115555000Y-88380000D02*
X115555000Y-87645000D01*
X115555000Y-89115000D02*
X115555000Y-88990000D01*
X115555000Y-89115000D02*
X115614435Y-89115000D01*
X115555000Y-89115000D02*
X117045000Y-89115000D01*
X116985565Y-89115000D02*
X117045000Y-89115000D01*
X117045000Y-89115000D02*
X117045000Y-88990000D01*
%TO.C,C6*%
X128095000Y-64171252D02*
X128095000Y-63648748D01*
X129565000Y-64171252D02*
X129565000Y-63648748D01*
%TO.C,REF\u002A\u002A69*%
X148575000Y-87645000D02*
X149320000Y-87645000D01*
X148575000Y-88380000D02*
X148575000Y-87645000D01*
X148575000Y-89115000D02*
X148575000Y-88990000D01*
X148575000Y-89115000D02*
X148634435Y-89115000D01*
X148575000Y-89115000D02*
X150065000Y-89115000D01*
X150005565Y-89115000D02*
X150065000Y-89115000D01*
X150065000Y-89115000D02*
X150065000Y-88990000D01*
%TO.C,REF\u002A\u002A48*%
X158735000Y-85105000D02*
X159480000Y-85105000D01*
X158735000Y-85840000D02*
X158735000Y-85105000D01*
X158735000Y-86575000D02*
X158735000Y-86450000D01*
X158735000Y-86575000D02*
X158794435Y-86575000D01*
X158735000Y-86575000D02*
X160225000Y-86575000D01*
X160165565Y-86575000D02*
X160225000Y-86575000D01*
X160225000Y-86575000D02*
X160225000Y-86450000D01*
%TO.C,REF\u002A\u002A43*%
X146035000Y-85105000D02*
X146780000Y-85105000D01*
X146035000Y-85840000D02*
X146035000Y-85105000D01*
X146035000Y-86575000D02*
X146035000Y-86450000D01*
X146035000Y-86575000D02*
X146094435Y-86575000D01*
X146035000Y-86575000D02*
X147525000Y-86575000D01*
X147465565Y-86575000D02*
X147525000Y-86575000D01*
X147525000Y-86575000D02*
X147525000Y-86450000D01*
%TO.C,C13*%
X128335000Y-59831252D02*
X128335000Y-59308748D01*
X129805000Y-59831252D02*
X129805000Y-59308748D01*
%TO.C,REF\u002A\u002A195*%
X105395000Y-62245000D02*
X106140000Y-62245000D01*
X105395000Y-62980000D02*
X105395000Y-62245000D01*
X105395000Y-63715000D02*
X105395000Y-63590000D01*
X105395000Y-63715000D02*
X105454435Y-63715000D01*
X105395000Y-63715000D02*
X106885000Y-63715000D01*
X106825565Y-63715000D02*
X106885000Y-63715000D01*
X106885000Y-63715000D02*
X106885000Y-63590000D01*
%TO.C,C2*%
X113455000Y-64638748D02*
X113455000Y-65161252D01*
X114925000Y-64638748D02*
X114925000Y-65161252D01*
%TO.C,REF\u002A\u002A36*%
X128255000Y-85105000D02*
X129000000Y-85105000D01*
X128255000Y-85840000D02*
X128255000Y-85105000D01*
X128255000Y-86575000D02*
X128255000Y-86450000D01*
X128255000Y-86575000D02*
X128314435Y-86575000D01*
X128255000Y-86575000D02*
X129745000Y-86575000D01*
X129685565Y-86575000D02*
X129745000Y-86575000D01*
X129745000Y-86575000D02*
X129745000Y-86450000D01*
%TO.C,REF\u002A\u002A53*%
X107935000Y-87645000D02*
X108680000Y-87645000D01*
X107935000Y-88380000D02*
X107935000Y-87645000D01*
X107935000Y-89115000D02*
X107935000Y-88990000D01*
X107935000Y-89115000D02*
X107994435Y-89115000D01*
X107935000Y-89115000D02*
X109425000Y-89115000D01*
X109365565Y-89115000D02*
X109425000Y-89115000D01*
X109425000Y-89115000D02*
X109425000Y-88990000D01*
%TO.C,REF\u002A\u002A57*%
X118095000Y-87645000D02*
X118840000Y-87645000D01*
X118095000Y-88380000D02*
X118095000Y-87645000D01*
X118095000Y-89115000D02*
X118095000Y-88990000D01*
X118095000Y-89115000D02*
X118154435Y-89115000D01*
X118095000Y-89115000D02*
X119585000Y-89115000D01*
X119525565Y-89115000D02*
X119585000Y-89115000D01*
X119585000Y-89115000D02*
X119585000Y-88990000D01*
%TO.C,REF\u002A\u002A55*%
X113015000Y-87645000D02*
X113760000Y-87645000D01*
X113015000Y-88380000D02*
X113015000Y-87645000D01*
X113015000Y-89115000D02*
X113015000Y-88990000D01*
X113015000Y-89115000D02*
X113074435Y-89115000D01*
X113015000Y-89115000D02*
X114505000Y-89115000D01*
X114445565Y-89115000D02*
X114505000Y-89115000D01*
X114505000Y-89115000D02*
X114505000Y-88990000D01*
%TO.C,REF\u002A\u002A90*%
X138415000Y-90185000D02*
X139160000Y-90185000D01*
X138415000Y-90920000D02*
X138415000Y-90185000D01*
X138415000Y-91655000D02*
X138415000Y-91530000D01*
X138415000Y-91655000D02*
X138474435Y-91655000D01*
X138415000Y-91655000D02*
X139905000Y-91655000D01*
X139845565Y-91655000D02*
X139905000Y-91655000D01*
X139905000Y-91655000D02*
X139905000Y-91530000D01*
%TO.C,REF\u002A\u002A154*%
X153655000Y-67325000D02*
X154400000Y-67325000D01*
X153655000Y-68060000D02*
X153655000Y-67325000D01*
X153655000Y-68795000D02*
X153655000Y-68670000D01*
X153655000Y-68795000D02*
X153714435Y-68795000D01*
X153655000Y-68795000D02*
X155145000Y-68795000D01*
X155085565Y-68795000D02*
X155145000Y-68795000D01*
X155145000Y-68795000D02*
X155145000Y-68670000D01*
%TO.C,C1*%
X121043748Y-55365000D02*
X121566252Y-55365000D01*
X121043748Y-56835000D02*
X121566252Y-56835000D01*
%TO.C,REF\u002A\u002A49*%
X161275000Y-85105000D02*
X162020000Y-85105000D01*
X161275000Y-85840000D02*
X161275000Y-85105000D01*
X161275000Y-86575000D02*
X161275000Y-86450000D01*
X161275000Y-86575000D02*
X161334435Y-86575000D01*
X161275000Y-86575000D02*
X162765000Y-86575000D01*
X162705565Y-86575000D02*
X162765000Y-86575000D01*
X162765000Y-86575000D02*
X162765000Y-86450000D01*
%TO.C,REF\u002A\u002A146*%
X158735000Y-62245000D02*
X159480000Y-62245000D01*
X158735000Y-62980000D02*
X158735000Y-62245000D01*
X158735000Y-63715000D02*
X158735000Y-63590000D01*
X158735000Y-63715000D02*
X158794435Y-63715000D01*
X158735000Y-63715000D02*
X160225000Y-63715000D01*
X160165565Y-63715000D02*
X160225000Y-63715000D01*
X160225000Y-63715000D02*
X160225000Y-63590000D01*
%TO.C,REF\u002A\u002A207*%
X105395000Y-69865000D02*
X106140000Y-69865000D01*
X105395000Y-70600000D02*
X105395000Y-69865000D01*
X105395000Y-71335000D02*
X105395000Y-71210000D01*
X105395000Y-71335000D02*
X105454435Y-71335000D01*
X105395000Y-71335000D02*
X106885000Y-71335000D01*
X106825565Y-71335000D02*
X106885000Y-71335000D01*
X106885000Y-71335000D02*
X106885000Y-71210000D01*
%TO.C,REF\u002A\u002A47*%
X156195000Y-85105000D02*
X156940000Y-85105000D01*
X156195000Y-85840000D02*
X156195000Y-85105000D01*
X156195000Y-86575000D02*
X156195000Y-86450000D01*
X156195000Y-86575000D02*
X156254435Y-86575000D01*
X156195000Y-86575000D02*
X157685000Y-86575000D01*
X157625565Y-86575000D02*
X157685000Y-86575000D01*
X157685000Y-86575000D02*
X157685000Y-86450000D01*
%TD*%
M02*
