M48
; DRILL file {KiCad 9.0.4} date 2025-10-19T02:38:54-0600
; FORMAT={-:-/ absolute / inch / decimal}
; #@! TF.CreationDate,2025-10-19T02:38:54-06:00
; #@! TF.GenerationSoftware,Kicad,Pcbnew,9.0.4
; #@! TF.FileFunction,Plated,1,2,PTH
FMAT,2
INCH
; #@! TA.AperFunction,Plated,PTH,ViaDrill
T1C0.0157
; #@! TA.AperFunction,Plated,PTH,ComponentDrill
T2C0.0197
; #@! TA.AperFunction,Plated,PTH,ComponentDrill
T3C0.0394
%
G90
G05
T1
X4.4953Y-2.5602
X4.6852Y-2.485
X4.7407Y-2.5173
X4.7411Y-2.4535
X4.7809Y-2.2087
X4.8087Y-2.2559
X4.8299Y-2.2913
X4.8839Y-2.3335
X4.8846Y-2.2909
X4.9339Y-2.3047
X4.9559Y-2.5441
X4.9894Y-2.574
X4.9898Y-2.6244
X5.0Y-2.6681
X5.072Y-2.511
X5.0815Y-2.3406
X5.1583Y-2.5134
X5.1701Y-2.3413
X5.2965Y-2.5409
X5.298Y-2.6083
X5.2992Y-2.6724
X5.3327Y-2.5413
X5.3343Y-2.6087
X5.3354Y-2.6728
X5.3461Y-2.3063
X5.3713Y-2.5413
X5.3728Y-2.6087
X5.374Y-2.6728
X5.4106Y-2.5406
X5.4122Y-2.6079
X5.4134Y-2.672
X5.4303Y-2.3063
X5.4476Y-2.5409
X5.4492Y-2.6083
X5.4504Y-2.6724
X5.5138Y-2.3063
X5.5504Y-2.9642
X5.5508Y-2.7972
X5.602Y-2.3055
X5.687Y-2.3055
T2
X4.0787Y-2.4795
X4.0787Y-2.5795
X4.0787Y-2.6795
X4.0787Y-2.7795
X4.0787Y-2.8795
X4.0787Y-2.9795
X4.0787Y-3.0795
X4.0787Y-3.1795
X4.0787Y-3.2795
X4.0787Y-3.3795
X4.0787Y-3.4795
X4.1787Y-2.4795
X4.1787Y-2.5795
X4.1787Y-2.6795
X4.1787Y-2.7795
X4.1787Y-2.8795
X4.1787Y-2.9795
X4.1787Y-3.0795
X4.1787Y-3.1795
X4.1787Y-3.2795
X4.1787Y-3.3795
X4.1787Y-3.4795
X4.2787Y-2.4795
X4.2787Y-2.5795
X4.2787Y-2.6795
X4.2787Y-2.7795
X4.2787Y-2.8795
X4.2787Y-2.9795
X4.2787Y-3.0795
X4.2787Y-3.1795
X4.2787Y-3.2795
X4.2787Y-3.3795
X4.2787Y-3.4795
X4.3787Y-2.4795
X4.3787Y-2.5795
X4.3787Y-2.6795
X4.3787Y-2.7795
X4.3787Y-2.8795
X4.3787Y-2.9795
X4.3787Y-3.0795
X4.3787Y-3.1795
X4.3787Y-3.2795
X4.3787Y-3.3795
X4.3787Y-3.4795
X4.4787Y-3.2795
X4.4787Y-3.3795
X4.4787Y-3.4795
X4.4787Y-3.5795
X4.4787Y-3.6795
X4.5787Y-3.2795
X4.5787Y-3.3795
X4.5787Y-3.4795
X4.5787Y-3.5795
X4.5787Y-3.6795
X4.6787Y-3.2795
X4.6787Y-3.3795
X4.6787Y-3.4795
X4.6787Y-3.5795
X4.6787Y-3.6795
X4.7787Y-3.2795
X4.7787Y-3.3795
X4.7787Y-3.4795
X4.7787Y-3.5795
X4.7787Y-3.6795
X4.8787Y-3.2795
X4.8787Y-3.3795
X4.8787Y-3.4795
X4.8787Y-3.5795
X4.8787Y-3.6795
X4.9787Y-3.2795
X4.9787Y-3.3795
X4.9787Y-3.4795
X4.9787Y-3.5795
X4.9787Y-3.6795
X5.0787Y-3.2795
X5.0787Y-3.3795
X5.0787Y-3.4795
X5.0787Y-3.5795
X5.0787Y-3.6795
X5.1787Y-3.2795
X5.1787Y-3.3795
X5.1787Y-3.4795
X5.1787Y-3.5795
X5.1787Y-3.6795
X5.2787Y-3.2795
X5.2787Y-3.3795
X5.2787Y-3.4795
X5.2787Y-3.5795
X5.2787Y-3.6795
X5.3787Y-3.2795
X5.3787Y-3.3795
X5.3787Y-3.4795
X5.3787Y-3.5795
X5.3787Y-3.6795
X5.4787Y-3.2795
X5.4787Y-3.3795
X5.4787Y-3.4795
X5.4787Y-3.5795
X5.4787Y-3.6795
X5.5787Y-3.2795
X5.5787Y-3.3795
X5.5787Y-3.4795
X5.5787Y-3.5795
X5.5787Y-3.6795
X5.6787Y-3.2795
X5.6787Y-3.3795
X5.6787Y-3.4795
X5.6787Y-3.5795
X5.6787Y-3.6795
X5.7787Y-3.2795
X5.7787Y-3.3795
X5.7787Y-3.4795
X5.7787Y-3.5795
X5.7787Y-3.6795
X5.8787Y-3.2795
X5.8787Y-3.3795
X5.8787Y-3.4795
X5.8787Y-3.5795
X5.8787Y-3.6795
X5.9787Y-3.2795
X5.9787Y-3.3795
X5.9787Y-3.4795
X5.9787Y-3.5795
X5.9787Y-3.6795
X6.0787Y-2.3795
X6.0787Y-2.4795
X6.0787Y-2.5795
X6.0787Y-2.6795
X6.0787Y-2.7795
X6.0787Y-2.8795
X6.0787Y-2.9795
X6.0787Y-3.0795
X6.0787Y-3.1795
X6.0787Y-3.2795
X6.0787Y-3.3795
X6.0787Y-3.4795
X6.1787Y-2.3795
X6.1787Y-2.4795
X6.1787Y-2.5795
X6.1787Y-2.6795
X6.1787Y-2.7795
X6.1787Y-2.8795
X6.1787Y-2.9795
X6.1787Y-3.0795
X6.1787Y-3.1795
X6.1787Y-3.2795
X6.1787Y-3.3795
X6.1787Y-3.4795
X6.2787Y-2.3795
X6.2787Y-2.4795
X6.2787Y-2.5795
X6.2787Y-2.6795
X6.2787Y-2.7795
X6.2787Y-2.8795
X6.2787Y-2.9795
X6.2787Y-3.0795
X6.2787Y-3.1795
X6.2787Y-3.2795
X6.2787Y-3.3795
X6.2787Y-3.4795
X6.3787Y-2.3795
X6.3787Y-2.4795
X6.3787Y-2.5795
X6.3787Y-2.6795
X6.3787Y-2.7795
X6.3787Y-2.8795
X6.3787Y-2.9795
X6.3787Y-3.0795
X6.3787Y-3.1795
X6.3787Y-3.2795
X6.3787Y-3.3795
X6.3787Y-3.4795
X6.4787Y-2.3795
X6.4787Y-2.6795
X6.4787Y-2.7795
X6.4787Y-2.8795
X6.4787Y-2.9795
X6.4787Y-3.0795
X6.4787Y-3.1795
X6.4787Y-3.2795
X6.4787Y-3.3795
X6.4787Y-3.4795
T3
X4.0787Y-2.2795
X4.0787Y-2.3795
X4.0787Y-3.5795
X4.0787Y-3.6795
X4.1787Y-2.2795
X4.1787Y-2.3795
X4.1787Y-3.5795
X4.1787Y-3.6795
X4.2787Y-2.2795
X4.2787Y-2.3795
X4.2787Y-3.5795
X4.2787Y-3.6795
X4.3787Y-2.2795
X4.3787Y-2.3795
X4.3787Y-3.5795
X4.3787Y-3.6795
X4.6161Y-3.1236
X4.677Y-1.937
X4.7161Y-3.1236
X4.777Y-1.937
X4.8161Y-3.1236
X4.877Y-1.937
X4.9161Y-3.1236
X4.977Y-1.937
X5.0161Y-3.1236
X5.037Y-3.837
X5.077Y-1.937
X5.1161Y-3.1236
X5.137Y-3.837
X5.177Y-1.937
X5.2161Y-3.1236
X5.237Y-3.837
X5.277Y-1.937
X5.3161Y-3.1236
X5.337Y-3.837
X5.377Y-1.937
X5.4161Y-3.1236
X5.437Y-3.837
X5.477Y-1.937
X5.5161Y-3.1236
X5.537Y-3.837
X5.577Y-1.937
X5.6161Y-3.1236
X5.637Y-3.837
X5.7161Y-3.1236
X5.737Y-1.937
X5.737Y-3.837
X5.837Y-1.937
X5.8756Y-2.2232
X5.8756Y-2.3232
X5.8756Y-2.4232
X5.8756Y-2.5232
X5.8756Y-2.6232
X5.8756Y-2.7232
X5.8756Y-2.8232
X5.8756Y-2.9232
X5.8756Y-3.0232
X5.8756Y-3.1232
X5.937Y-1.937
X5.937Y-3.837
X6.037Y-1.937
X6.037Y-3.837
X6.0787Y-2.1795
X6.0787Y-2.2795
X6.0787Y-3.5795
X6.0787Y-3.6795
X6.137Y-1.937
X6.137Y-3.837
X6.1787Y-2.1795
X6.1787Y-2.2795
X6.1787Y-3.5795
X6.1787Y-3.6795
X6.237Y-1.937
X6.237Y-3.837
X6.2787Y-2.1795
X6.2787Y-2.2795
X6.2787Y-3.5795
X6.2787Y-3.6795
X6.337Y-1.937
X6.337Y-3.837
X6.3787Y-2.1795
X6.3787Y-2.2795
X6.3787Y-3.5795
X6.3787Y-3.6795
X6.437Y-1.937
X6.437Y-3.837
M30
