%TF.GenerationSoftware,KiCad,Pcbnew,9.0.4*%
%TF.CreationDate,2025-10-19T02:38:57-06:00*%
%TF.ProjectId,2025_UNO_FPAA_PROTO_A_v1,32303235-5f55-44e4-9f5f-465041415f50,rev?*%
%TF.SameCoordinates,Original*%
%TF.FileFunction,Copper,L1,Top*%
%TF.FilePolarity,Positive*%
%FSLAX46Y46*%
G04 Gerber Fmt 4.6, Leading zero omitted, Abs format (unit mm)*
G04 Created by KiCad (PCBNEW 9.0.4) date 2025-10-19 02:38:57*
%MOMM*%
%LPD*%
G01*
G04 APERTURE LIST*
G04 Aperture macros list*
%AMRoundRect*
0 Rectangle with rounded corners*
0 $1 Rounding radius*
0 $2 $3 $4 $5 $6 $7 $8 $9 X,Y pos of 4 corners*
0 Add a 4 corners polygon primitive as box body*
4,1,4,$2,$3,$4,$5,$6,$7,$8,$9,$2,$3,0*
0 Add four circle primitives for the rounded corners*
1,1,$1+$1,$2,$3*
1,1,$1+$1,$4,$5*
1,1,$1+$1,$6,$7*
1,1,$1+$1,$8,$9*
0 Add four rect primitives between the rounded corners*
20,1,$1+$1,$2,$3,$4,$5,0*
20,1,$1+$1,$4,$5,$6,$7,0*
20,1,$1+$1,$6,$7,$8,$9,0*
20,1,$1+$1,$8,$9,$2,$3,0*%
G04 Aperture macros list end*
%TA.AperFunction,Conductor*%
%ADD10C,0.150000*%
%TD*%
%TA.AperFunction,ComponentPad*%
%ADD11R,1.700000X1.700000*%
%TD*%
%TA.AperFunction,ComponentPad*%
%ADD12O,1.700000X1.700000*%
%TD*%
%TA.AperFunction,ComponentPad*%
%ADD13R,0.850000X0.850000*%
%TD*%
%TA.AperFunction,SMDPad,CuDef*%
%ADD14RoundRect,0.250000X0.475000X-0.250000X0.475000X0.250000X-0.475000X0.250000X-0.475000X-0.250000X0*%
%TD*%
%TA.AperFunction,ComponentPad*%
%ADD15C,1.700000*%
%TD*%
%TA.AperFunction,SMDPad,CuDef*%
%ADD16RoundRect,0.250000X-0.250000X-0.475000X0.250000X-0.475000X0.250000X0.475000X-0.250000X0.475000X0*%
%TD*%
%TA.AperFunction,SMDPad,CuDef*%
%ADD17R,1.000000X0.900000*%
%TD*%
%TA.AperFunction,SMDPad,CuDef*%
%ADD18RoundRect,0.062500X0.062500X-0.375000X0.062500X0.375000X-0.062500X0.375000X-0.062500X-0.375000X0*%
%TD*%
%TA.AperFunction,SMDPad,CuDef*%
%ADD19RoundRect,0.062500X0.375000X-0.062500X0.375000X0.062500X-0.375000X0.062500X-0.375000X-0.062500X0*%
%TD*%
%TA.AperFunction,HeatsinkPad*%
%ADD20R,5.150000X5.150000*%
%TD*%
%TA.AperFunction,SMDPad,CuDef*%
%ADD21RoundRect,0.250000X-0.262500X-0.450000X0.262500X-0.450000X0.262500X0.450000X-0.262500X0.450000X0*%
%TD*%
%TA.AperFunction,SMDPad,CuDef*%
%ADD22R,2.150000X0.950000*%
%TD*%
%TA.AperFunction,SMDPad,CuDef*%
%ADD23R,2.150000X3.250000*%
%TD*%
%TA.AperFunction,SMDPad,CuDef*%
%ADD24RoundRect,0.250000X0.262500X0.450000X-0.262500X0.450000X-0.262500X-0.450000X0.262500X-0.450000X0*%
%TD*%
%TA.AperFunction,SMDPad,CuDef*%
%ADD25RoundRect,0.250000X-0.475000X0.250000X-0.475000X-0.250000X0.475000X-0.250000X0.475000X0.250000X0*%
%TD*%
%TA.AperFunction,ViaPad*%
%ADD26C,0.600000*%
%TD*%
%TA.AperFunction,Conductor*%
%ADD27C,0.254000*%
%TD*%
%TA.AperFunction,Conductor*%
%ADD28C,0.508000*%
%TD*%
%TA.AperFunction,Conductor*%
%ADD29C,0.203200*%
%TD*%
%TA.AperFunction,Conductor*%
%ADD30C,0.304800*%
%TD*%
G04 APERTURE END LIST*
%TO.N,+3V3*%
D10*
X102220000Y-56750000D02*
X115530000Y-56750000D01*
X115530000Y-61820000D01*
X102220000Y-61820000D01*
X102220000Y-56750000D01*
%TA.AperFunction,Conductor*%
G36*
X102220000Y-56750000D02*
G01*
X115530000Y-56750000D01*
X115530000Y-61820000D01*
X102220000Y-61820000D01*
X102220000Y-56750000D01*
G37*
%TD.AperFunction*%
X151690000Y-53980000D02*
X163400000Y-53980000D01*
X163400000Y-59280000D01*
X151690000Y-59280000D01*
X151690000Y-53980000D01*
%TA.AperFunction,Conductor*%
G36*
X151690000Y-53980000D02*
G01*
X163400000Y-53980000D01*
X163400000Y-59280000D01*
X151690000Y-59280000D01*
X151690000Y-53980000D01*
G37*
%TD.AperFunction*%
%TD*%
D11*
%TO.P,J1,1,Pin_1*%
%TO.N,unconnected-(J1-Pin_1-Pad1)*%
X127940000Y-97460000D03*
D12*
%TO.P,J1,2,Pin_2*%
%TO.N,unconnected-(J1-Pin_2-Pad2)*%
X130480000Y-97460000D03*
%TO.P,J1,3,Pin_3*%
%TO.N,unconnected-(J1-Pin_3-Pad3)*%
X133020000Y-97460000D03*
%TO.P,J1,4,Pin_4*%
%TO.N,unconnected-(J1-Pin_4-Pad4)*%
X135560000Y-97460000D03*
%TO.P,J1,5,Pin_5*%
%TO.N,+5V*%
X138100000Y-97460000D03*
%TO.P,J1,6,Pin_6*%
%TO.N,GND*%
X140640000Y-97460000D03*
%TO.P,J1,7,Pin_7*%
X143180000Y-97460000D03*
%TO.P,J1,8,Pin_8*%
%TO.N,VCC*%
X145720000Y-97460000D03*
%TD*%
D11*
%TO.P,J3,1,Pin_1*%
%TO.N,unconnected-(J3-Pin_1-Pad1)*%
X150800000Y-97460000D03*
D12*
%TO.P,J3,2,Pin_2*%
%TO.N,unconnected-(J3-Pin_2-Pad2)*%
X153340000Y-97460000D03*
%TO.P,J3,3,Pin_3*%
%TO.N,unconnected-(J3-Pin_3-Pad3)*%
X155880000Y-97460000D03*
%TO.P,J3,4,Pin_4*%
%TO.N,unconnected-(J3-Pin_4-Pad4)*%
X158420000Y-97460000D03*
%TO.P,J3,5,Pin_5*%
%TO.N,unconnected-(J3-Pin_5-Pad5)*%
X160960000Y-97460000D03*
%TO.P,J3,6,Pin_6*%
%TO.N,unconnected-(J3-Pin_6-Pad6)*%
X163500000Y-97460000D03*
%TD*%
D11*
%TO.P,J2,1,Pin_1*%
%TO.N,unconnected-(J2-Pin_1-Pad1)*%
X118796000Y-49200000D03*
D12*
%TO.P,J2,2,Pin_2*%
%TO.N,unconnected-(J2-Pin_2-Pad2)*%
X121336000Y-49200000D03*
%TO.P,J2,3,Pin_3*%
%TO.N,unconnected-(J2-Pin_3-Pad3)*%
X123876000Y-49200000D03*
%TO.P,J2,4,Pin_4*%
%TO.N,GND*%
X126416000Y-49200000D03*
%TO.P,J2,5,Pin_5*%
%TO.N,/SCLK*%
X128956000Y-49200000D03*
%TO.P,J2,6,Pin_6*%
%TO.N,unconnected-(J2-Pin_6-Pad6)*%
X131496000Y-49200000D03*
%TO.P,J2,7,Pin_7*%
%TO.N,/MOSI*%
X134036000Y-49200000D03*
%TO.P,J2,8,Pin_8*%
%TO.N,/SELb*%
X136576000Y-49200000D03*
%TO.P,J2,9,Pin_9*%
%TO.N,unconnected-(J2-Pin_9-Pad9)*%
X139116000Y-49200000D03*
%TO.P,J2,10,Pin_10*%
%TO.N,unconnected-(J2-Pin_10-Pad10)*%
X141656000Y-49200000D03*
%TD*%
D11*
%TO.P,J4,1,Pin_1*%
%TO.N,unconnected-(J4-Pin_1-Pad1)*%
X145720000Y-49200000D03*
D12*
%TO.P,J4,2,Pin_2*%
%TO.N,unconnected-(J4-Pin_2-Pad2)*%
X148260000Y-49200000D03*
%TO.P,J4,3,Pin_3*%
%TO.N,unconnected-(J4-Pin_3-Pad3)*%
X150800000Y-49200000D03*
%TO.P,J4,4,Pin_4*%
%TO.N,unconnected-(J4-Pin_4-Pad4)*%
X153340000Y-49200000D03*
%TO.P,J4,5,Pin_5*%
%TO.N,unconnected-(J4-Pin_5-Pad5)*%
X155880000Y-49200000D03*
%TO.P,J4,6,Pin_6*%
%TO.N,unconnected-(J4-Pin_6-Pad6)*%
X158420000Y-49200000D03*
%TO.P,J4,7,Pin_7*%
%TO.N,unconnected-(J4-Pin_7-Pad7)*%
X160960000Y-49200000D03*
%TO.P,J4,8,Pin_8*%
%TO.N,unconnected-(J4-Pin_8-Pad8)*%
X163500000Y-49200000D03*
%TD*%
D13*
%TO.P,REF\u002A\u002A203,1*%
%TO.N,N/C*%
X106140000Y-68060000D03*
%TD*%
%TO.P,REF\u002A\u002A197,1*%
%TO.N,N/C*%
X111220000Y-62980000D03*
%TD*%
%TO.P,REF\u002A\u002A183,1*%
%TO.N,N/C*%
X164560000Y-80760000D03*
%TD*%
D14*
%TO.P,C12,1*%
%TO.N,+3V3*%
X131320000Y-60550000D03*
%TO.P,C12,2*%
%TO.N,GND*%
X131320000Y-58650000D03*
%TD*%
D13*
%TO.P,REF\u002A\u002A199,1*%
%TO.N,N/C*%
X106140000Y-65520000D03*
%TD*%
%TO.P,REF\u002A\u002A40,1*%
%TO.N,N/C*%
X139160000Y-85840000D03*
%TD*%
D14*
%TO.P,C8,1*%
%TO.N,+3V3*%
X144450000Y-59640000D03*
%TO.P,C8,2*%
%TO.N,GND*%
X144450000Y-57740000D03*
%TD*%
D13*
%TO.P,REF\u002A\u002A5,1*%
%TO.N,N/C*%
X113760000Y-83300000D03*
%TD*%
%TO.P,REF\u002A\u002A181,1*%
%TO.N,N/C*%
X159480000Y-80760000D03*
%TD*%
%TO.P,REF\u002A\u002A42,1*%
%TO.N,N/C*%
X144240000Y-85840000D03*
%TD*%
%TO.P,REF\u002A\u002A174,1*%
%TO.N,N/C*%
X154400000Y-78220000D03*
%TD*%
%TO.P,REF\u002A\u002A87,1*%
%TO.N,N/C*%
X131540000Y-90920000D03*
%TD*%
%TO.P,REF\u002A\u002A74,1*%
%TO.N,N/C*%
X162020000Y-88380000D03*
%TD*%
%TO.P,REF\u002A\u002A95,1*%
%TO.N,N/C*%
X151860000Y-90920000D03*
%TD*%
%TO.P,REF\u002A\u002A156,1*%
%TO.N,N/C*%
X159480000Y-68060000D03*
%TD*%
%TO.P,REF\u002A\u002A225,1*%
%TO.N,N/C*%
X111220000Y-80760000D03*
%TD*%
%TO.P,REF\u002A\u002A222,1*%
%TO.N,N/C*%
X103600000Y-80760000D03*
%TD*%
D11*
%TO.P,J9,1,Pin_1*%
%TO.N,GND*%
X162020000Y-90920000D03*
D15*
%TO.P,J9,2,Pin_2*%
X162020000Y-93460000D03*
%TO.P,J9,3,Pin_3*%
X159480000Y-90920000D03*
%TO.P,J9,4,Pin_4*%
X159480000Y-93460000D03*
%TO.P,J9,5,Pin_5*%
X156940000Y-90920000D03*
%TO.P,J9,6,Pin_6*%
X156940000Y-93460000D03*
%TO.P,J9,7,Pin_7*%
X154400000Y-90920000D03*
%TO.P,J9,8,Pin_8*%
X154400000Y-93460000D03*
%TD*%
D13*
%TO.P,REF\u002A\u002A92,1*%
%TO.N,N/C*%
X144240000Y-90920000D03*
%TD*%
%TO.P,REF\u002A\u002A33,1*%
%TO.N,N/C*%
X121380000Y-85840000D03*
%TD*%
D16*
%TO.P,C4,1*%
%TO.N,+3V3*%
X139090000Y-72110000D03*
%TO.P,C4,2*%
%TO.N,GND*%
X140990000Y-72110000D03*
%TD*%
D13*
%TO.P,REF\u002A\u002A66,1*%
%TO.N,N/C*%
X141700000Y-88380000D03*
%TD*%
%TO.P,REF\u002A\u002A28,1*%
%TO.N,N/C*%
X108680000Y-85840000D03*
%TD*%
%TO.P,REF\u002A\u002A119,1*%
%TO.N,N/C*%
X149320000Y-93460000D03*
%TD*%
%TO.P,REF\u002A\u002A142,1*%
%TO.N,N/C*%
X162020000Y-60440000D03*
%TD*%
%TO.P,REF\u002A\u002A64,1*%
%TO.N,N/C*%
X136620000Y-88380000D03*
%TD*%
%TO.P,REF\u002A\u002A44,1*%
%TO.N,N/C*%
X149320000Y-85840000D03*
%TD*%
%TO.P,REF\u002A\u002A152,1*%
%TO.N,N/C*%
X162020000Y-65520000D03*
%TD*%
%TO.P,REF\u002A\u002A93,1*%
%TO.N,N/C*%
X146780000Y-90920000D03*
%TD*%
%TO.P,REF\u002A\u002A13,1*%
%TO.N,N/C*%
X134080000Y-83300000D03*
%TD*%
%TO.P,REF\u002A\u002A29,1*%
%TO.N,N/C*%
X111220000Y-85840000D03*
%TD*%
D11*
%TO.P,J12,1,Pin_1*%
%TO.N,/O3P*%
X145190000Y-79340000D03*
D15*
%TO.P,J12,2,Pin_2*%
%TO.N,/O3N*%
X142650000Y-79340000D03*
%TO.P,J12,3,Pin_3*%
%TO.N,/I3N*%
X140110000Y-79340000D03*
%TO.P,J12,4,Pin_4*%
%TO.N,/I3P*%
X137570000Y-79340000D03*
%TO.P,J12,5,Pin_5*%
%TO.N,/I2P*%
X135030000Y-79340000D03*
%TO.P,J12,6,Pin_6*%
%TO.N,/I2N*%
X132490000Y-79340000D03*
%TO.P,J12,7,Pin_7*%
%TO.N,/O2N*%
X129950000Y-79340000D03*
%TO.P,J12,8,Pin_8*%
%TO.N,/O2P*%
X127410000Y-79340000D03*
%TO.P,J12,9,Pin_9*%
%TO.N,/O1P*%
X124870000Y-79340000D03*
%TO.P,J12,10,Pin_10*%
%TO.N,/O1N*%
X122330000Y-79340000D03*
%TO.P,J12,11,Pin_11*%
%TO.N,/I1N*%
X119790000Y-79340000D03*
%TO.P,J12,12,Pin_12*%
%TO.N,/I1P*%
X117250000Y-79340000D03*
%TD*%
D13*
%TO.P,REF\u002A\u002A223,1*%
%TO.N,N/C*%
X106140000Y-80760000D03*
%TD*%
%TO.P,REF\u002A\u002A81,1*%
%TO.N,N/C*%
X116300000Y-90920000D03*
%TD*%
%TO.P,REF\u002A\u002A218,1*%
%TO.N,N/C*%
X103600000Y-78220000D03*
%TD*%
%TO.P,REF\u002A\u002A201,1*%
%TO.N,N/C*%
X111220000Y-65520000D03*
%TD*%
%TO.P,REF\u002A\u002A204,1*%
%TO.N,N/C*%
X108680000Y-68060000D03*
%TD*%
%TO.P,REF\u002A\u002A11,1*%
%TO.N,N/C*%
X129000000Y-83300000D03*
%TD*%
D16*
%TO.P,C9,1*%
%TO.N,+3V3*%
X139090000Y-74240000D03*
%TO.P,C9,2*%
%TO.N,GND*%
X140990000Y-74240000D03*
%TD*%
D13*
%TO.P,REF\u002A\u002A151,1*%
%TO.N,N/C*%
X159480000Y-65520000D03*
%TD*%
D17*
%TO.P,Y2,1,TRI_STATE*%
%TO.N,Net-(Y2-TRI_STATE)*%
X126945000Y-59315000D03*
%TO.P,Y2,2,GND/CASE*%
%TO.N,GND*%
X125320000Y-59315000D03*
%TO.P,Y2,3,OUTPUT*%
%TO.N,/ACLK*%
X125320000Y-60540000D03*
%TO.P,Y2,4,VDD*%
%TO.N,+3V3*%
X126945000Y-60540000D03*
%TD*%
D18*
%TO.P,U2,1,I1P*%
%TO.N,/I1P*%
X134005000Y-69932500D03*
%TO.P,U2,2,I1N*%
%TO.N,/I1N*%
X134505000Y-69932500D03*
%TO.P,U2,3,O1N*%
%TO.N,/O1N*%
X135005000Y-69932500D03*
%TO.P,U2,4,O1P*%
%TO.N,/O1P*%
X135505000Y-69932500D03*
%TO.P,U2,5,AVSS*%
%TO.N,GND*%
X136005000Y-69932500D03*
%TO.P,U2,6,O2P*%
%TO.N,/O2P*%
X136505000Y-69932500D03*
%TO.P,U2,7,O2N*%
%TO.N,/O2N*%
X137005000Y-69932500D03*
%TO.P,U2,8,I2N*%
%TO.N,/I2N*%
X137505000Y-69932500D03*
%TO.P,U2,9,I2P*%
%TO.N,/I2P*%
X138005000Y-69932500D03*
%TO.P,U2,10,AVDD*%
%TO.N,+3V3*%
X138505000Y-69932500D03*
%TO.P,U2,11,I3P*%
%TO.N,/I3P*%
X139005000Y-69932500D03*
D19*
%TO.P,U2,12,I3N*%
%TO.N,/I3N*%
X139942500Y-68995000D03*
%TO.P,U2,13,O3N*%
%TO.N,/O3N*%
X139942500Y-68495000D03*
%TO.P,U2,14,O3P*%
%TO.N,/O3P*%
X139942500Y-67995000D03*
%TO.P,U2,15,IO5P*%
%TO.N,/IO5P*%
X139942500Y-67495000D03*
%TO.P,U2,16,IO5N*%
%TO.N,/IO5N*%
X139942500Y-66995000D03*
%TO.P,U2,17,IO6P*%
%TO.N,/IO6P*%
X139942500Y-66495000D03*
%TO.P,U2,18,IO6N*%
%TO.N,/IO6N*%
X139942500Y-65995000D03*
%TO.P,U2,19,IO7P*%
%TO.N,/IO7P*%
X139942500Y-65495000D03*
%TO.P,U2,20,IO7N*%
%TO.N,/IO7N*%
X139942500Y-64995000D03*
%TO.P,U2,21,O4P*%
%TO.N,/O4P*%
X139942500Y-64495000D03*
%TO.P,U2,22,O4N*%
%TO.N,/O4N*%
X139942500Y-63995000D03*
D18*
%TO.P,U2,23,I4N*%
%TO.N,/I4N*%
X139005000Y-63057500D03*
%TO.P,U2,24,I4P*%
%TO.N,/I4P*%
X138505000Y-63057500D03*
%TO.P,U2,25,BVDD*%
%TO.N,+3V3*%
X138005000Y-63057500D03*
%TO.P,U2,26,VREFP*%
%TO.N,/VREFP*%
X137505000Y-63057500D03*
%TO.P,U2,27,VMR*%
%TO.N,/VMR*%
X137005000Y-63057500D03*
%TO.P,U2,28,VREFN*%
%TO.N,/VREFN*%
X136505000Y-63057500D03*
%TO.P,U2,29,BVSS*%
%TO.N,GND*%
X136005000Y-63057500D03*
%TO.P,U2,30,CFGFLGGb*%
%TO.N,unconnected-(U2-CFGFLGGb-Pad30)*%
X135505000Y-63057500D03*
%TO.P,U2,31,CS2b*%
%TO.N,/SELb*%
X135005000Y-63057500D03*
%TO.P,U2,32,CS1b*%
%TO.N,GND*%
X134505000Y-63057500D03*
%TO.P,U2,33,SCLK*%
%TO.N,/SCLK*%
X134005000Y-63057500D03*
D19*
%TO.P,U2,34,ACLK*%
%TO.N,/ACLK*%
X133067500Y-63995000D03*
%TO.P,U2,35,MODE*%
%TO.N,GND*%
X133067500Y-64495000D03*
%TO.P,U2,36,DVDD*%
%TO.N,+3V3*%
X133067500Y-64995000D03*
%TO.P,U2,37,DVSS*%
%TO.N,GND*%
X133067500Y-65495000D03*
%TO.P,U2,38,SI*%
%TO.N,/MOSI*%
X133067500Y-65995000D03*
%TO.P,U2,39,LCCb*%
%TO.N,unconnected-(U2-LCCb-Pad39)*%
X133067500Y-66495000D03*
%TO.P,U2,40,ERRb*%
%TO.N,Net-(U2-ERRb)*%
X133067500Y-66995000D03*
%TO.P,U2,41,ACTIVATE*%
%TO.N,unconnected-(U2-ACTIVATE-Pad41)*%
X133067500Y-67495000D03*
%TO.P,U2,42,MEMCLK*%
%TO.N,unconnected-(U2-MEMCLK-Pad42)*%
X133067500Y-67995000D03*
%TO.P,U2,43,SO*%
%TO.N,unconnected-(U2-SO-Pad43)*%
X133067500Y-68495000D03*
%TO.P,U2,44,RESETb*%
%TO.N,+3V3*%
X133067500Y-68995000D03*
D20*
%TO.P,U2,45,GND*%
%TO.N,GND*%
X136505000Y-66495000D03*
%TD*%
D13*
%TO.P,REF\u002A\u002A35,1*%
%TO.N,N/C*%
X126460000Y-85840000D03*
%TD*%
%TO.P,REF\u002A\u002A10,1*%
%TO.N,N/C*%
X126460000Y-83300000D03*
%TD*%
%TO.P,REF\u002A\u002A110,1*%
%TO.N,N/C*%
X126460000Y-93460000D03*
%TD*%
%TO.P,REF\u002A\u002A45,1*%
%TO.N,N/C*%
X151860000Y-85840000D03*
%TD*%
%TO.P,REF\u002A\u002A16,1*%
%TO.N,N/C*%
X141700000Y-83300000D03*
%TD*%
%TO.P,REF\u002A\u002A172,1*%
%TO.N,N/C*%
X162020000Y-75680000D03*
%TD*%
%TO.P,REF\u002A\u002A80,1*%
%TO.N,N/C*%
X113760000Y-90920000D03*
%TD*%
%TO.P,REF\u002A\u002A3,1*%
%TO.N,N/C*%
X108680000Y-83300000D03*
%TD*%
%TO.P,REF\u002A\u002A215,1*%
%TO.N,N/C*%
X106140000Y-75680000D03*
%TD*%
%TO.P,REF\u002A\u002A166,1*%
%TO.N,N/C*%
X159480000Y-73140000D03*
%TD*%
%TO.P,REF\u002A\u002A89,1*%
%TO.N,N/C*%
X136620000Y-90920000D03*
%TD*%
%TO.P,REF\u002A\u002A182,1*%
%TO.N,N/C*%
X162020000Y-80760000D03*
%TD*%
%TO.P,REF\u002A\u002A158,1*%
%TO.N,N/C*%
X164560000Y-68060000D03*
%TD*%
%TO.P,REF\u002A\u002A171,1*%
%TO.N,N/C*%
X159480000Y-75680000D03*
%TD*%
%TO.P,REF\u002A\u002A150,1*%
%TO.N,N/C*%
X156940000Y-65520000D03*
%TD*%
%TO.P,REF\u002A\u002A211,1*%
%TO.N,N/C*%
X106140000Y-73140000D03*
%TD*%
%TO.P,REF\u002A\u002A71,1*%
%TO.N,N/C*%
X154400000Y-88380000D03*
%TD*%
%TO.P,REF\u002A\u002A164,1*%
%TO.N,N/C*%
X154400000Y-73140000D03*
%TD*%
%TO.P,REF\u002A\u002A58,1*%
%TO.N,N/C*%
X121380000Y-88380000D03*
%TD*%
%TO.P,REF\u002A\u002A140,1*%
%TO.N,N/C*%
X156940000Y-60440000D03*
%TD*%
%TO.P,REF\u002A\u002A65,1*%
%TO.N,N/C*%
X139160000Y-88380000D03*
%TD*%
%TO.P,REF\u002A\u002A20,1*%
%TO.N,N/C*%
X151860000Y-83300000D03*
%TD*%
%TO.P,REF\u002A\u002A85,1*%
%TO.N,N/C*%
X126460000Y-90920000D03*
%TD*%
D14*
%TO.P,C14,1*%
%TO.N,/VREFP*%
X140050000Y-59660000D03*
%TO.P,C14,2*%
%TO.N,GND*%
X140050000Y-57760000D03*
%TD*%
D13*
%TO.P,REF\u002A\u002A105,1*%
%TO.N,N/C*%
X113760000Y-93460000D03*
%TD*%
%TO.P,REF\u002A\u002A118,1*%
%TO.N,N/C*%
X146780000Y-93460000D03*
%TD*%
%TO.P,REF\u002A\u002A7,1*%
%TO.N,N/C*%
X118840000Y-83300000D03*
%TD*%
%TO.P,REF\u002A\u002A159,1*%
%TO.N,N/C*%
X154400000Y-70600000D03*
%TD*%
%TO.P,REF\u002A\u002A68,1*%
%TO.N,N/C*%
X146780000Y-88380000D03*
%TD*%
%TO.P,REF\u002A\u002A6,1*%
%TO.N,N/C*%
X116300000Y-83300000D03*
%TD*%
%TO.P,REF\u002A\u002A75,1*%
%TO.N,N/C*%
X164560000Y-88380000D03*
%TD*%
%TO.P,REF\u002A\u002A162,1*%
%TO.N,N/C*%
X162020000Y-70600000D03*
%TD*%
D21*
%TO.P,R2,1*%
%TO.N,Net-(Y2-TRI_STATE)*%
X125207500Y-56820000D03*
%TO.P,R2,2*%
%TO.N,+3V3*%
X127032500Y-56820000D03*
%TD*%
D13*
%TO.P,REF\u002A\u002A170,1*%
%TO.N,N/C*%
X156940000Y-75680000D03*
%TD*%
%TO.P,REF\u002A\u002A67,1*%
%TO.N,N/C*%
X144240000Y-88380000D03*
%TD*%
%TO.P,REF\u002A\u002A167,1*%
%TO.N,N/C*%
X162020000Y-73140000D03*
%TD*%
%TO.P,REF\u002A\u002A37,1*%
%TO.N,N/C*%
X131540000Y-85840000D03*
%TD*%
%TO.P,REF\u002A\u002A216,1*%
%TO.N,N/C*%
X108680000Y-75680000D03*
%TD*%
%TO.P,REF\u002A\u002A63,1*%
%TO.N,N/C*%
X134080000Y-88380000D03*
%TD*%
%TO.P,REF\u002A\u002A51,1*%
%TO.N,N/C*%
X103600000Y-88380000D03*
%TD*%
%TO.P,REF\u002A\u002A70,1*%
%TO.N,N/C*%
X151860000Y-88380000D03*
%TD*%
%TO.P,REF\u002A\u002A149,1*%
%TO.N,N/C*%
X154400000Y-65520000D03*
%TD*%
D14*
%TO.P,C5,1*%
%TO.N,+3V3*%
X142290000Y-59640000D03*
%TO.P,C5,2*%
%TO.N,GND*%
X142290000Y-57740000D03*
%TD*%
D13*
%TO.P,REF\u002A\u002A14,1*%
%TO.N,N/C*%
X136620000Y-83300000D03*
%TD*%
%TO.P,REF\u002A\u002A177,1*%
%TO.N,N/C*%
X162020000Y-78220000D03*
%TD*%
D14*
%TO.P,C7,1*%
%TO.N,+3V3*%
X131020000Y-64910000D03*
%TO.P,C7,2*%
%TO.N,GND*%
X131020000Y-63010000D03*
%TD*%
D13*
%TO.P,REF\u002A\u002A50,1*%
%TO.N,N/C*%
X164560000Y-85840000D03*
%TD*%
%TO.P,REF\u002A\u002A12,1*%
%TO.N,N/C*%
X131540000Y-83300000D03*
%TD*%
%TO.P,REF\u002A\u002A88,1*%
%TO.N,N/C*%
X134080000Y-90920000D03*
%TD*%
%TO.P,REF\u002A\u002A91,1*%
%TO.N,N/C*%
X141700000Y-90920000D03*
%TD*%
%TO.P,REF\u002A\u002A15,1*%
%TO.N,N/C*%
X139160000Y-83300000D03*
%TD*%
%TO.P,REF\u002A\u002A176,1*%
%TO.N,N/C*%
X159480000Y-78220000D03*
%TD*%
%TO.P,REF\u002A\u002A139,1*%
%TO.N,N/C*%
X154400000Y-60440000D03*
%TD*%
%TO.P,REF\u002A\u002A173,1*%
%TO.N,N/C*%
X164560000Y-75680000D03*
%TD*%
%TO.P,REF\u002A\u002A31,1*%
%TO.N,N/C*%
X116300000Y-85840000D03*
%TD*%
%TO.P,REF\u002A\u002A141,1*%
%TO.N,N/C*%
X159480000Y-60440000D03*
%TD*%
%TO.P,REF\u002A\u002A73,1*%
%TO.N,N/C*%
X159480000Y-88380000D03*
%TD*%
%TO.P,REF\u002A\u002A25,1*%
%TO.N,N/C*%
X164560000Y-83300000D03*
%TD*%
D22*
%TO.P,U3,1,ADJ/GND*%
%TO.N,GND*%
X120430000Y-63130000D03*
%TO.P,U3,2,OUT*%
%TO.N,+3V3*%
X120430000Y-60830000D03*
%TO.P,U3,3,IN*%
%TO.N,+5V*%
X120430000Y-58530000D03*
D23*
%TO.P,U3,4,OUT__1*%
%TO.N,+3V3*%
X114630000Y-60830000D03*
%TD*%
D13*
%TO.P,REF\u002A\u002A38,1*%
%TO.N,N/C*%
X134080000Y-85840000D03*
%TD*%
%TO.P,REF\u002A\u002A17,1*%
%TO.N,N/C*%
X144240000Y-83300000D03*
%TD*%
D11*
%TO.P,J6,1,Pin_1*%
%TO.N,+3V3*%
X103600000Y-60440000D03*
D15*
%TO.P,J6,2,Pin_2*%
X103600000Y-57900000D03*
%TO.P,J6,3,Pin_3*%
X106140000Y-60440000D03*
%TO.P,J6,4,Pin_4*%
X106140000Y-57900000D03*
%TO.P,J6,5,Pin_5*%
X108680000Y-60440000D03*
%TO.P,J6,6,Pin_6*%
X108680000Y-57900000D03*
%TO.P,J6,7,Pin_7*%
X111220000Y-60440000D03*
%TO.P,J6,8,Pin_8*%
X111220000Y-57900000D03*
%TD*%
D13*
%TO.P,REF\u002A\u002A21,1*%
%TO.N,N/C*%
X154400000Y-83300000D03*
%TD*%
%TO.P,REF\u002A\u002A39,1*%
%TO.N,N/C*%
X136620000Y-85840000D03*
%TD*%
%TO.P,REF\u002A\u002A179,1*%
%TO.N,N/C*%
X154400000Y-80760000D03*
%TD*%
%TO.P,REF\u002A\u002A59,1*%
%TO.N,N/C*%
X123920000Y-88380000D03*
%TD*%
%TO.P,REF\u002A\u002A106,1*%
%TO.N,N/C*%
X116300000Y-93460000D03*
%TD*%
%TO.P,REF\u002A\u002A8,1*%
%TO.N,N/C*%
X121380000Y-83300000D03*
%TD*%
%TO.P,REF\u002A\u002A84,1*%
%TO.N,N/C*%
X123920000Y-90920000D03*
%TD*%
%TO.P,REF\u002A\u002A180,1*%
%TO.N,N/C*%
X156940000Y-80760000D03*
%TD*%
%TO.P,REF\u002A\u002A208,1*%
%TO.N,N/C*%
X108680000Y-70600000D03*
%TD*%
%TO.P,REF\u002A\u002A30,1*%
%TO.N,N/C*%
X113760000Y-85840000D03*
%TD*%
%TO.P,REF\u002A\u002A9,1*%
%TO.N,N/C*%
X123920000Y-83300000D03*
%TD*%
%TO.P,REF\u002A\u002A72,1*%
%TO.N,N/C*%
X156940000Y-88380000D03*
%TD*%
D14*
%TO.P,C11,1*%
%TO.N,/VMR*%
X137930000Y-59660000D03*
%TO.P,C11,2*%
%TO.N,GND*%
X137930000Y-57760000D03*
%TD*%
D13*
%TO.P,REF\u002A\u002A114,1*%
%TO.N,N/C*%
X136620000Y-93460000D03*
%TD*%
%TO.P,REF\u002A\u002A109,1*%
%TO.N,N/C*%
X123920000Y-93460000D03*
%TD*%
%TO.P,REF\u002A\u002A115,1*%
%TO.N,N/C*%
X139160000Y-93460000D03*
%TD*%
%TO.P,REF\u002A\u002A198,1*%
%TO.N,N/C*%
X103600000Y-65520000D03*
%TD*%
%TO.P,REF\u002A\u002A60,1*%
%TO.N,N/C*%
X126460000Y-88380000D03*
%TD*%
%TO.P,REF\u002A\u002A2,1*%
%TO.N,N/C*%
X106140000Y-83300000D03*
%TD*%
%TO.P,REF\u002A\u002A18,1*%
%TO.N,N/C*%
X146780000Y-83300000D03*
%TD*%
%TO.P,REF\u002A\u002A213,1*%
%TO.N,N/C*%
X111220000Y-73140000D03*
%TD*%
%TO.P,REF\u002A\u002A224,1*%
%TO.N,N/C*%
X108680000Y-80760000D03*
%TD*%
%TO.P,REF\u002A\u002A61,1*%
%TO.N,N/C*%
X129000000Y-88380000D03*
%TD*%
%TO.P,REF\u002A\u002A147,1*%
%TO.N,N/C*%
X162020000Y-62980000D03*
%TD*%
%TO.P,REF\u002A\u002A117,1*%
%TO.N,N/C*%
X144240000Y-93460000D03*
%TD*%
%TO.P,REF\u002A\u002A189,1*%
%TO.N,N/C*%
X154400000Y-85840000D03*
%TD*%
%TO.P,REF\u002A\u002A83,1*%
%TO.N,N/C*%
X121380000Y-90920000D03*
%TD*%
%TO.P,REF\u002A\u002A23,1*%
%TO.N,N/C*%
X159480000Y-83300000D03*
%TD*%
%TO.P,REF\u002A\u002A214,1*%
%TO.N,N/C*%
X103600000Y-75680000D03*
%TD*%
D24*
%TO.P,R3,1*%
%TO.N,Net-(U2-ERRb)*%
X131262500Y-67330000D03*
%TO.P,R3,2*%
%TO.N,+3V3*%
X129437500Y-67330000D03*
%TD*%
D13*
%TO.P,REF\u002A\u002A175,1*%
%TO.N,N/C*%
X156940000Y-78220000D03*
%TD*%
%TO.P,REF\u002A\u002A206,1*%
%TO.N,N/C*%
X103600000Y-70600000D03*
%TD*%
D11*
%TO.P,J7,1,Pin_1*%
%TO.N,+3V3*%
X154400000Y-57900000D03*
D15*
%TO.P,J7,2,Pin_2*%
X154400000Y-55360000D03*
%TO.P,J7,3,Pin_3*%
X156940000Y-57900000D03*
%TO.P,J7,4,Pin_4*%
X156940000Y-55360000D03*
%TO.P,J7,5,Pin_5*%
X159480000Y-57900000D03*
%TO.P,J7,6,Pin_6*%
X159480000Y-55360000D03*
%TO.P,J7,7,Pin_7*%
X162020000Y-57900000D03*
%TO.P,J7,8,Pin_8*%
X162020000Y-55360000D03*
%TD*%
D13*
%TO.P,REF\u002A\u002A108,1*%
%TO.N,N/C*%
X121380000Y-93460000D03*
%TD*%
%TO.P,REF\u002A\u002A86,1*%
%TO.N,N/C*%
X129000000Y-90920000D03*
%TD*%
%TO.P,REF\u002A\u002A32,1*%
%TO.N,N/C*%
X118840000Y-85840000D03*
%TD*%
%TO.P,REF\u002A\u002A41,1*%
%TO.N,N/C*%
X141700000Y-85840000D03*
%TD*%
%TO.P,REF\u002A\u002A82,1*%
%TO.N,N/C*%
X118840000Y-90920000D03*
%TD*%
%TO.P,REF\u002A\u002A4,1*%
%TO.N,N/C*%
X111220000Y-83300000D03*
%TD*%
%TO.P,REF\u002A\u002A161,1*%
%TO.N,N/C*%
X159480000Y-70600000D03*
%TD*%
%TO.P,REF\u002A\u002A111,1*%
%TO.N,N/C*%
X129000000Y-93460000D03*
%TD*%
%TO.P,REF\u002A\u002A34,1*%
%TO.N,N/C*%
X123920000Y-85840000D03*
%TD*%
%TO.P,REF\u002A\u002A194,1*%
%TO.N,N/C*%
X103600000Y-62980000D03*
%TD*%
%TO.P,REF\u002A\u002A196,1*%
%TO.N,N/C*%
X108680000Y-62980000D03*
%TD*%
%TO.P,REF\u002A\u002A112,1*%
%TO.N,N/C*%
X131540000Y-93460000D03*
%TD*%
%TO.P,REF\u002A\u002A217,1*%
%TO.N,N/C*%
X111220000Y-75680000D03*
%TD*%
%TO.P,REF\u002A\u002A26,1*%
%TO.N,N/C*%
X103600000Y-85840000D03*
%TD*%
%TO.P,REF\u002A\u002A94,1*%
%TO.N,N/C*%
X149320000Y-90920000D03*
%TD*%
%TO.P,REF\u002A\u002A209,1*%
%TO.N,N/C*%
X111220000Y-70600000D03*
%TD*%
%TO.P,REF\u002A\u002A157,1*%
%TO.N,N/C*%
X162020000Y-68060000D03*
%TD*%
D14*
%TO.P,C10,1*%
%TO.N,/VREFN*%
X135790000Y-59660000D03*
%TO.P,C10,2*%
%TO.N,GND*%
X135790000Y-57760000D03*
%TD*%
D13*
%TO.P,REF\u002A\u002A169,1*%
%TO.N,N/C*%
X154400000Y-75680000D03*
%TD*%
%TO.P,REF\u002A\u002A210,1*%
%TO.N,N/C*%
X103600000Y-73140000D03*
%TD*%
%TO.P,REF\u002A\u002A1,1*%
%TO.N,N/C*%
X103600000Y-83300000D03*
%TD*%
%TO.P,REF\u002A\u002A200,1*%
%TO.N,N/C*%
X108680000Y-65520000D03*
%TD*%
%TO.P,REF\u002A\u002A219,1*%
%TO.N,N/C*%
X106140000Y-78220000D03*
%TD*%
%TO.P,REF\u002A\u002A19,1*%
%TO.N,N/C*%
X149320000Y-83300000D03*
%TD*%
%TO.P,REF\u002A\u002A220,1*%
%TO.N,N/C*%
X108680000Y-78220000D03*
%TD*%
%TO.P,REF\u002A\u002A120,1*%
%TO.N,N/C*%
X151860000Y-93460000D03*
%TD*%
%TO.P,REF\u002A\u002A212,1*%
%TO.N,N/C*%
X108680000Y-73140000D03*
%TD*%
%TO.P,REF\u002A\u002A143,1*%
%TO.N,N/C*%
X164560000Y-60440000D03*
%TD*%
%TO.P,REF\u002A\u002A178,1*%
%TO.N,N/C*%
X164560000Y-78220000D03*
%TD*%
%TO.P,REF\u002A\u002A52,1*%
%TO.N,N/C*%
X106140000Y-88380000D03*
%TD*%
%TO.P,REF\u002A\u002A155,1*%
%TO.N,N/C*%
X156940000Y-68060000D03*
%TD*%
%TO.P,REF\u002A\u002A27,1*%
%TO.N,N/C*%
X106140000Y-85840000D03*
%TD*%
%TO.P,REF\u002A\u002A144,1*%
%TO.N,N/C*%
X154400000Y-62980000D03*
%TD*%
%TO.P,REF\u002A\u002A116,1*%
%TO.N,N/C*%
X141700000Y-93460000D03*
%TD*%
%TO.P,REF\u002A\u002A205,1*%
%TO.N,N/C*%
X111220000Y-68060000D03*
%TD*%
%TO.P,REF\u002A\u002A160,1*%
%TO.N,N/C*%
X156940000Y-70600000D03*
%TD*%
D11*
%TO.P,J5,1,Pin_1*%
%TO.N,/IO5P*%
X149240000Y-79330000D03*
D15*
%TO.P,J5,2,Pin_2*%
%TO.N,/IO5N*%
X149240000Y-76790000D03*
%TO.P,J5,3,Pin_3*%
%TO.N,/IO6P*%
X149240000Y-74250000D03*
%TO.P,J5,4,Pin_4*%
%TO.N,/IO6N*%
X149240000Y-71710000D03*
%TO.P,J5,5,Pin_5*%
%TO.N,/IO7P*%
X149240000Y-69170000D03*
%TO.P,J5,6,Pin_6*%
%TO.N,/IO7N*%
X149240000Y-66630000D03*
%TO.P,J5,7,Pin_7*%
%TO.N,/O4P*%
X149240000Y-64090000D03*
%TO.P,J5,8,Pin_8*%
%TO.N,/O4N*%
X149240000Y-61550000D03*
%TO.P,J5,9,Pin_9*%
%TO.N,/I4N*%
X149240000Y-59010000D03*
%TO.P,J5,10,Pin_10*%
%TO.N,/I4P*%
X149240000Y-56470000D03*
%TD*%
D13*
%TO.P,REF\u002A\u002A163,1*%
%TO.N,N/C*%
X164560000Y-70600000D03*
%TD*%
%TO.P,REF\u002A\u002A24,1*%
%TO.N,N/C*%
X162020000Y-83300000D03*
%TD*%
%TO.P,REF\u002A\u002A145,1*%
%TO.N,N/C*%
X156940000Y-62980000D03*
%TD*%
%TO.P,REF\u002A\u002A221,1*%
%TO.N,N/C*%
X111220000Y-78220000D03*
%TD*%
%TO.P,REF\u002A\u002A22,1*%
%TO.N,N/C*%
X156940000Y-83300000D03*
%TD*%
D11*
%TO.P,J8,1,Pin_1*%
%TO.N,GND*%
X103600000Y-93460000D03*
D15*
%TO.P,J8,2,Pin_2*%
X103600000Y-90920000D03*
%TO.P,J8,3,Pin_3*%
X106140000Y-93460000D03*
%TO.P,J8,4,Pin_4*%
X106140000Y-90920000D03*
%TO.P,J8,5,Pin_5*%
X108680000Y-93460000D03*
%TO.P,J8,6,Pin_6*%
X108680000Y-90920000D03*
%TO.P,J8,7,Pin_7*%
X111220000Y-93460000D03*
%TO.P,J8,8,Pin_8*%
X111220000Y-90920000D03*
%TD*%
D13*
%TO.P,REF\u002A\u002A62,1*%
%TO.N,N/C*%
X131540000Y-88380000D03*
%TD*%
%TO.P,REF\u002A\u002A113,1*%
%TO.N,N/C*%
X134080000Y-93460000D03*
%TD*%
%TO.P,REF\u002A\u002A202,1*%
%TO.N,N/C*%
X103600000Y-68060000D03*
%TD*%
%TO.P,REF\u002A\u002A165,1*%
%TO.N,N/C*%
X156940000Y-73140000D03*
%TD*%
%TO.P,REF\u002A\u002A168,1*%
%TO.N,N/C*%
X164560000Y-73140000D03*
%TD*%
%TO.P,REF\u002A\u002A54,1*%
%TO.N,N/C*%
X111220000Y-88380000D03*
%TD*%
%TO.P,REF\u002A\u002A107,1*%
%TO.N,N/C*%
X118840000Y-93460000D03*
%TD*%
%TO.P,REF\u002A\u002A56,1*%
%TO.N,N/C*%
X116300000Y-88380000D03*
%TD*%
D14*
%TO.P,C6,1*%
%TO.N,+3V3*%
X128830000Y-64860000D03*
%TO.P,C6,2*%
%TO.N,GND*%
X128830000Y-62960000D03*
%TD*%
D13*
%TO.P,REF\u002A\u002A69,1*%
%TO.N,N/C*%
X149320000Y-88380000D03*
%TD*%
%TO.P,REF\u002A\u002A48,1*%
%TO.N,N/C*%
X159480000Y-85840000D03*
%TD*%
%TO.P,REF\u002A\u002A43,1*%
%TO.N,N/C*%
X146780000Y-85840000D03*
%TD*%
D14*
%TO.P,C13,1*%
%TO.N,+3V3*%
X129070000Y-60520000D03*
%TO.P,C13,2*%
%TO.N,GND*%
X129070000Y-58620000D03*
%TD*%
D13*
%TO.P,REF\u002A\u002A195,1*%
%TO.N,N/C*%
X106140000Y-62980000D03*
%TD*%
D25*
%TO.P,C2,1*%
%TO.N,+3V3*%
X114190000Y-63950000D03*
%TO.P,C2,2*%
%TO.N,GND*%
X114190000Y-65850000D03*
%TD*%
D13*
%TO.P,REF\u002A\u002A36,1*%
%TO.N,N/C*%
X129000000Y-85840000D03*
%TD*%
%TO.P,REF\u002A\u002A53,1*%
%TO.N,N/C*%
X108680000Y-88380000D03*
%TD*%
%TO.P,REF\u002A\u002A57,1*%
%TO.N,N/C*%
X118840000Y-88380000D03*
%TD*%
%TO.P,REF\u002A\u002A55,1*%
%TO.N,N/C*%
X113760000Y-88380000D03*
%TD*%
%TO.P,REF\u002A\u002A90,1*%
%TO.N,N/C*%
X139160000Y-90920000D03*
%TD*%
%TO.P,REF\u002A\u002A154,1*%
%TO.N,N/C*%
X154400000Y-68060000D03*
%TD*%
D16*
%TO.P,C1,1*%
%TO.N,+5V*%
X120355000Y-56100000D03*
%TO.P,C1,2*%
%TO.N,GND*%
X122255000Y-56100000D03*
%TD*%
D13*
%TO.P,REF\u002A\u002A49,1*%
%TO.N,N/C*%
X162020000Y-85840000D03*
%TD*%
%TO.P,REF\u002A\u002A146,1*%
%TO.N,N/C*%
X159480000Y-62980000D03*
%TD*%
%TO.P,REF\u002A\u002A207,1*%
%TO.N,N/C*%
X106140000Y-70600000D03*
%TD*%
%TO.P,REF\u002A\u002A47,1*%
%TO.N,N/C*%
X156940000Y-85840000D03*
%TD*%
D26*
%TO.N,GND*%
X140980000Y-75290000D03*
X137930000Y-58580000D03*
X140050000Y-58580000D03*
X127000000Y-67770000D03*
X131320000Y-59470000D03*
X120425000Y-62320000D03*
X136430000Y-64550000D03*
X119005000Y-63120000D03*
X134570000Y-66250000D03*
X131020000Y-63840000D03*
X135490000Y-66260000D03*
X121435000Y-56100000D03*
X135450000Y-64550000D03*
X138410000Y-66250000D03*
X135790000Y-58580000D03*
X136470000Y-66260000D03*
X135520000Y-67890000D03*
X138370000Y-64540000D03*
X144450000Y-58560000D03*
X125880000Y-64620000D03*
X129070000Y-59450000D03*
X140990000Y-71050000D03*
X120415000Y-63940000D03*
X136500000Y-67890000D03*
X134530000Y-64540000D03*
X138440000Y-67880000D03*
X137430000Y-64530000D03*
X128830000Y-63780000D03*
X134600000Y-67880000D03*
X122140000Y-57300000D03*
X137470000Y-66240000D03*
X142290000Y-58560000D03*
X125320000Y-58540000D03*
X124050000Y-59270000D03*
X137500000Y-67870000D03*
X114180000Y-65030000D03*
%TO.N,+3V3*%
X124070000Y-58190000D03*
X122680000Y-58200000D03*
X126730000Y-65380000D03*
X126740000Y-66660000D03*
%TD*%
D27*
%TO.N,GND*%
X136005000Y-65995000D02*
X136505000Y-66495000D01*
X136005000Y-63057500D02*
X136005000Y-65995000D01*
X134505000Y-64495000D02*
X136505000Y-66495000D01*
X134505000Y-63057500D02*
X134505000Y-64340000D01*
D28*
X140990000Y-72110000D02*
X140990000Y-71050000D01*
X120415000Y-63940000D02*
X120430000Y-63925000D01*
X131020000Y-63840000D02*
X131020000Y-63010000D01*
X140050000Y-58580000D02*
X140050000Y-57760000D01*
X120425000Y-63125000D02*
X120430000Y-63130000D01*
X135790000Y-58580000D02*
X135790000Y-57760000D01*
X129070000Y-59450000D02*
X129070000Y-58620000D01*
X120425000Y-62320000D02*
X120425000Y-63125000D01*
D27*
X133067500Y-65495000D02*
X135505000Y-65495000D01*
D28*
X140980000Y-74250000D02*
X140990000Y-74240000D01*
D27*
X133067500Y-64495000D02*
X134505000Y-64495000D01*
X136005000Y-66995000D02*
X136505000Y-66495000D01*
D28*
X131320000Y-59470000D02*
X131320000Y-58650000D01*
X137930000Y-58580000D02*
X137930000Y-57760000D01*
X119005000Y-63120000D02*
X120420000Y-63120000D01*
X114190000Y-65040000D02*
X114190000Y-65850000D01*
X121435000Y-56100000D02*
X122255000Y-56100000D01*
X142290000Y-58560000D02*
X142290000Y-57740000D01*
D27*
X135505000Y-65495000D02*
X136505000Y-66495000D01*
D28*
X144450000Y-58560000D02*
X144450000Y-57740000D01*
X120430000Y-63925000D02*
X120430000Y-63130000D01*
X120420000Y-63120000D02*
X120430000Y-63130000D01*
X140980000Y-75290000D02*
X140980000Y-74250000D01*
X125320000Y-58540000D02*
X125320000Y-59315000D01*
D27*
X134505000Y-64340000D02*
X134505000Y-64495000D01*
X136005000Y-69932500D02*
X136005000Y-66995000D01*
D28*
X114180000Y-65030000D02*
X114190000Y-65040000D01*
X128830000Y-63780000D02*
X128830000Y-62960000D01*
%TO.N,+5V*%
X101330000Y-56580000D02*
X101330000Y-94450000D01*
X101810000Y-56100000D02*
X101330000Y-56580000D01*
X137720000Y-95110000D02*
X138100000Y-95490000D01*
X120355000Y-56100000D02*
X101810000Y-56100000D01*
X101990000Y-95110000D02*
X137720000Y-95110000D01*
X101330000Y-94450000D02*
X101990000Y-95110000D01*
X120430000Y-58530000D02*
X120355000Y-58455000D01*
X120355000Y-58455000D02*
X120355000Y-56100000D01*
X138100000Y-95490000D02*
X138100000Y-97460000D01*
%TO.N,+3V3*%
X135540000Y-81740000D02*
X136070000Y-81210000D01*
X156940000Y-55360000D02*
X156940000Y-57900000D01*
X111220000Y-57900000D02*
X111220000Y-60440000D01*
D29*
X127032500Y-55582500D02*
X126900000Y-55450000D01*
X140700000Y-61230000D02*
X142290000Y-59640000D01*
X127900000Y-57110000D02*
X127900000Y-59670000D01*
D28*
X135540000Y-81740000D02*
X151360000Y-81740000D01*
D29*
X121960000Y-60830000D02*
X120430000Y-60830000D01*
D28*
X152470000Y-55360000D02*
X151870000Y-55960000D01*
X125130000Y-67330000D02*
X122470000Y-67330000D01*
X106140000Y-57900000D02*
X106140000Y-60440000D01*
D29*
X138005000Y-61485000D02*
X138260000Y-61230000D01*
D28*
X103600000Y-60440000D02*
X106140000Y-60440000D01*
D27*
X133067500Y-64995000D02*
X131105000Y-64995000D01*
X128830000Y-64860000D02*
X127210000Y-64860000D01*
D29*
X138260000Y-61230000D02*
X140700000Y-61230000D01*
D27*
X126730000Y-65150000D02*
X126730000Y-65380000D01*
D28*
X108680000Y-60440000D02*
X111220000Y-60440000D01*
X116740000Y-60830000D02*
X114630000Y-60830000D01*
D27*
X131300000Y-69000000D02*
X131910000Y-69000000D01*
D29*
X128750000Y-60520000D02*
X129070000Y-60520000D01*
D28*
X146050000Y-54560000D02*
X146050000Y-58040000D01*
X113990000Y-57900000D02*
X114630000Y-58540000D01*
X130910000Y-69000000D02*
X128690000Y-69000000D01*
X146570000Y-54040000D02*
X146050000Y-54560000D01*
X118300000Y-67330000D02*
X116150000Y-67330000D01*
X125130000Y-67330000D02*
X126070000Y-67330000D01*
X151870000Y-54380000D02*
X151530000Y-54040000D01*
D29*
X122380000Y-58500000D02*
X122380000Y-60410000D01*
D28*
X162020000Y-57900000D02*
X162020000Y-55360000D01*
D29*
X124260000Y-55450000D02*
X124160000Y-55550000D01*
D28*
X114630000Y-58540000D02*
X114630000Y-60830000D01*
D27*
X138505000Y-70585000D02*
X139090000Y-71170000D01*
D28*
X115140000Y-81740000D02*
X135540000Y-81740000D01*
X103600000Y-57900000D02*
X106140000Y-57900000D01*
D29*
X126900000Y-55450000D02*
X124260000Y-55450000D01*
X122380000Y-60410000D02*
X121960000Y-60830000D01*
D28*
X116150000Y-67330000D02*
X114680000Y-68800000D01*
X126800000Y-69000000D02*
X125130000Y-67330000D01*
X111220000Y-60440000D02*
X114240000Y-60440000D01*
D29*
X127032500Y-56820000D02*
X127032500Y-55582500D01*
D28*
X159480000Y-55360000D02*
X156940000Y-55360000D01*
X156940000Y-57900000D02*
X154400000Y-57900000D01*
X154400000Y-57900000D02*
X152400000Y-57900000D01*
D27*
X131910000Y-69000000D02*
X131915000Y-68995000D01*
X127020000Y-64860000D02*
X126950000Y-64930000D01*
X138505000Y-69932500D02*
X138505000Y-70585000D01*
X136280000Y-77050000D02*
X136280000Y-79200000D01*
D28*
X117660000Y-66690000D02*
X118300000Y-67330000D01*
X108680000Y-57900000D02*
X108680000Y-60440000D01*
X151360000Y-81740000D02*
X151870000Y-81230000D01*
D27*
X139090000Y-74240000D02*
X136280000Y-77050000D01*
D28*
X108680000Y-60440000D02*
X106140000Y-60440000D01*
X108680000Y-57900000D02*
X106140000Y-57900000D01*
X103600000Y-60440000D02*
X103600000Y-57900000D01*
D27*
X130970000Y-64860000D02*
X131020000Y-64910000D01*
D28*
X129437500Y-67330000D02*
X129437500Y-68332500D01*
X116740000Y-60830000D02*
X117660000Y-61750000D01*
X108680000Y-57900000D02*
X111220000Y-57900000D01*
D27*
X128830000Y-64860000D02*
X130970000Y-64860000D01*
D29*
X122680000Y-58200000D02*
X122380000Y-58500000D01*
D27*
X127210000Y-64860000D02*
X127020000Y-64860000D01*
D28*
X159480000Y-55360000D02*
X162020000Y-55360000D01*
X114240000Y-60440000D02*
X114630000Y-60830000D01*
D29*
X124070000Y-55640000D02*
X124070000Y-58190000D01*
D27*
X131105000Y-64995000D02*
X131020000Y-64910000D01*
X129100000Y-60550000D02*
X129070000Y-60520000D01*
D28*
X120430000Y-60830000D02*
X116740000Y-60830000D01*
X151870000Y-55960000D02*
X151870000Y-54380000D01*
X146050000Y-58040000D02*
X144450000Y-59640000D01*
X151530000Y-54040000D02*
X146570000Y-54040000D01*
X114680000Y-81280000D02*
X115140000Y-81740000D01*
X144450000Y-59640000D02*
X142290000Y-59640000D01*
X117660000Y-61750000D02*
X117660000Y-66690000D01*
X114680000Y-68800000D02*
X114680000Y-81280000D01*
D27*
X136280000Y-79200000D02*
X136280000Y-81000000D01*
D29*
X124160000Y-55550000D02*
X124070000Y-55640000D01*
X127610000Y-56820000D02*
X127900000Y-57110000D01*
D28*
X159480000Y-57900000D02*
X159480000Y-55360000D01*
D27*
X126945000Y-60540000D02*
X129050000Y-60540000D01*
D29*
X127900000Y-59670000D02*
X128750000Y-60520000D01*
D28*
X154400000Y-55360000D02*
X156940000Y-55360000D01*
D27*
X131320000Y-60550000D02*
X129100000Y-60550000D01*
D28*
X114190000Y-61270000D02*
X114630000Y-60830000D01*
D27*
X136280000Y-81000000D02*
X136070000Y-81210000D01*
D28*
X154400000Y-55360000D02*
X152470000Y-55360000D01*
D27*
X126950000Y-64930000D02*
X126730000Y-65150000D01*
D30*
X130910000Y-69000000D02*
X131300000Y-69000000D01*
D27*
X139090000Y-71170000D02*
X139090000Y-72110000D01*
D28*
X129437500Y-68332500D02*
X128770000Y-69000000D01*
D29*
X138005000Y-63057500D02*
X138005000Y-61485000D01*
D28*
X162020000Y-57900000D02*
X159480000Y-57900000D01*
X152400000Y-57900000D02*
X151870000Y-58430000D01*
X151870000Y-58430000D02*
X151870000Y-55960000D01*
X128690000Y-69000000D02*
X126800000Y-69000000D01*
D27*
X139090000Y-74240000D02*
X139090000Y-72110000D01*
X129050000Y-60540000D02*
X129070000Y-60520000D01*
D28*
X122470000Y-67330000D02*
X118300000Y-67330000D01*
X111220000Y-57900000D02*
X113990000Y-57900000D01*
X114190000Y-63950000D02*
X114190000Y-61270000D01*
X126070000Y-67330000D02*
X126740000Y-66660000D01*
X151870000Y-81230000D02*
X151870000Y-58430000D01*
X159480000Y-57900000D02*
X156940000Y-57900000D01*
D27*
X133067500Y-68995000D02*
X131915000Y-68995000D01*
D28*
X128770000Y-69000000D02*
X128690000Y-69000000D01*
D29*
X127032500Y-56820000D02*
X127610000Y-56820000D01*
%TO.N,/VREFN*%
X136505000Y-62355000D02*
X135790000Y-61640000D01*
X136505000Y-63057500D02*
X136505000Y-62355000D01*
X135790000Y-61640000D02*
X135790000Y-59660000D01*
%TO.N,/VMR*%
X137005000Y-63057500D02*
X137005000Y-60415000D01*
X137005000Y-60415000D02*
X137760000Y-59660000D01*
X137760000Y-59660000D02*
X137930000Y-59660000D01*
%TO.N,/VREFP*%
X140050000Y-59660000D02*
X139060000Y-60650000D01*
X137800000Y-60650000D02*
X139030000Y-60650000D01*
X137505000Y-63057500D02*
X137505000Y-60945000D01*
X137505000Y-60945000D02*
X137800000Y-60650000D01*
X139060000Y-60650000D02*
X139030000Y-60650000D01*
%TO.N,/O1N*%
X135005000Y-70825000D02*
X134380000Y-71450000D01*
X122330000Y-71800000D02*
X122330000Y-79340000D01*
X122680000Y-71450000D02*
X122330000Y-71800000D01*
X135005000Y-69932500D02*
X135005000Y-70825000D01*
X134380000Y-71450000D02*
X122680000Y-71450000D01*
%TO.N,/I1N*%
X134160000Y-70860000D02*
X120150000Y-70860000D01*
X134505000Y-69932500D02*
X134505000Y-70515000D01*
X119790000Y-71220000D02*
X119790000Y-79340000D01*
X134505000Y-70515000D02*
X134160000Y-70860000D01*
X120150000Y-70860000D02*
X119790000Y-71220000D01*
%TO.N,/I1P*%
X117250000Y-79340000D02*
X117250000Y-70180000D01*
X117497500Y-69932500D02*
X134005000Y-69932500D01*
X117250000Y-70180000D02*
X117497500Y-69932500D01*
%TO.N,/O1P*%
X124870000Y-79340000D02*
X124870000Y-72410000D01*
X135505000Y-71265000D02*
X135505000Y-69932500D01*
X124870000Y-72410000D02*
X125160000Y-72120000D01*
X125160000Y-72120000D02*
X134650000Y-72120000D01*
X134650000Y-72120000D02*
X135505000Y-71265000D01*
%TO.N,/I2N*%
X132490000Y-79340000D02*
X132490000Y-74440000D01*
X132740000Y-74190000D02*
X135180000Y-74190000D01*
X132490000Y-74440000D02*
X132740000Y-74190000D01*
X137505000Y-71865000D02*
X137505000Y-69932500D01*
X135180000Y-74190000D02*
X137505000Y-71865000D01*
%TO.N,/I2P*%
X138005000Y-69932500D02*
X138005000Y-72275000D01*
X135030000Y-75250000D02*
X138005000Y-72275000D01*
X135030000Y-79340000D02*
X135030000Y-75250000D01*
%TO.N,/O2N*%
X130170000Y-73400000D02*
X135120000Y-73400000D01*
X137005000Y-71515000D02*
X137005000Y-69932500D01*
X129950000Y-73620000D02*
X130170000Y-73400000D01*
X135120000Y-73400000D02*
X137005000Y-71515000D01*
X129950000Y-79340000D02*
X129950000Y-73620000D01*
%TO.N,/O2P*%
X134970000Y-72760000D02*
X136505000Y-71225000D01*
X127410000Y-73050000D02*
X127700000Y-72760000D01*
X127410000Y-79340000D02*
X127410000Y-73050000D01*
X136505000Y-71225000D02*
X136505000Y-69932500D01*
X127700000Y-72760000D02*
X134970000Y-72760000D01*
%TO.N,/MOSI*%
X133067500Y-65995000D02*
X123845000Y-65995000D01*
X125640000Y-47550000D02*
X133040000Y-47550000D01*
X123340000Y-65490000D02*
X123340000Y-53370000D01*
X125150000Y-51560000D02*
X125150000Y-48040000D01*
X123340000Y-53370000D02*
X125150000Y-51560000D01*
X133040000Y-47550000D02*
X134036000Y-48546000D01*
X123845000Y-65995000D02*
X123340000Y-65490000D01*
X125150000Y-48040000D02*
X125640000Y-47550000D01*
X134036000Y-48546000D02*
X134036000Y-49200000D01*
%TO.N,/SCLK*%
X134005000Y-62255000D02*
X132880000Y-61130000D01*
X128956000Y-57186000D02*
X128956000Y-49200000D01*
X134005000Y-63057500D02*
X134005000Y-62255000D01*
X132880000Y-61130000D02*
X132880000Y-57820000D01*
X132880000Y-57820000D02*
X132620000Y-57560000D01*
X132620000Y-57560000D02*
X129330000Y-57560000D01*
X129330000Y-57560000D02*
X128956000Y-57186000D01*
%TO.N,/SELb*%
X134510000Y-56710000D02*
X134510000Y-60580000D01*
X135005000Y-61075000D02*
X135005000Y-63057500D01*
X136576000Y-49200000D02*
X136576000Y-56294000D01*
X136360000Y-56510000D02*
X134710000Y-56510000D01*
X136576000Y-56294000D02*
X136360000Y-56510000D01*
X134710000Y-56510000D02*
X134510000Y-56710000D01*
X134510000Y-60580000D02*
X135005000Y-61075000D01*
%TO.N,/IO5P*%
X141375000Y-67495000D02*
X139942500Y-67495000D01*
X144340000Y-70460000D02*
X141375000Y-67495000D01*
X149240000Y-79330000D02*
X147760000Y-79330000D01*
X147760000Y-79330000D02*
X144340000Y-75910000D01*
X144340000Y-75910000D02*
X144340000Y-70460000D01*
%TO.N,/IO5N*%
X145070000Y-75410000D02*
X145070000Y-70340000D01*
X146450000Y-76790000D02*
X145070000Y-75410000D01*
X141725000Y-66995000D02*
X139942500Y-66995000D01*
X145070000Y-70340000D02*
X141725000Y-66995000D01*
X149240000Y-76790000D02*
X146450000Y-76790000D01*
%TO.N,/ACLK*%
X133067500Y-62177500D02*
X132610000Y-61720000D01*
X125500000Y-61720000D02*
X125320000Y-61540000D01*
X125320000Y-61540000D02*
X125320000Y-60540000D01*
X133067500Y-63995000D02*
X133067500Y-62177500D01*
X132610000Y-61720000D02*
X125500000Y-61720000D01*
X125380000Y-60600000D02*
X125320000Y-60540000D01*
%TO.N,/IO6N*%
X142515000Y-65995000D02*
X146470000Y-69950000D01*
X147060000Y-71710000D02*
X149240000Y-71710000D01*
X139942500Y-65995000D02*
X142515000Y-65995000D01*
X146470000Y-71120000D02*
X147060000Y-71710000D01*
X146470000Y-69950000D02*
X146470000Y-71120000D01*
%TO.N,/IO6P*%
X146720000Y-74250000D02*
X149240000Y-74250000D01*
X145790000Y-73320000D02*
X146720000Y-74250000D01*
X142195000Y-66495000D02*
X145790000Y-70090000D01*
X139942500Y-66495000D02*
X142195000Y-66495000D01*
X145790000Y-70090000D02*
X145790000Y-73320000D01*
%TO.N,/O3P*%
X145190000Y-79340000D02*
X143370000Y-77520000D01*
X143370000Y-77520000D02*
X143370000Y-70270000D01*
X141095000Y-67995000D02*
X143370000Y-70270000D01*
X139942500Y-67995000D02*
X141095000Y-67995000D01*
%TO.N,/I3N*%
X140110000Y-79340000D02*
X142080000Y-77370000D01*
X140475000Y-68995000D02*
X141720000Y-70240000D01*
X139942500Y-68995000D02*
X140475000Y-68995000D01*
X142080000Y-77370000D02*
X142080000Y-70600000D01*
X142080000Y-70600000D02*
X141720000Y-70240000D01*
%TO.N,/O3N*%
X142700000Y-70420000D02*
X142700000Y-79290000D01*
X140775000Y-68495000D02*
X142700000Y-70420000D01*
X139942500Y-68495000D02*
X140775000Y-68495000D01*
X142700000Y-79290000D02*
X142650000Y-79340000D01*
%TO.N,/I3P*%
X139005000Y-69932500D02*
X139532500Y-69932500D01*
X140020000Y-76890000D02*
X137570000Y-79340000D01*
X140020000Y-70420000D02*
X140020000Y-76890000D01*
X139532500Y-69932500D02*
X140020000Y-70420000D01*
%TO.N,/I4N*%
X140462500Y-63057500D02*
X141280000Y-62240000D01*
X139005000Y-63057500D02*
X140462500Y-63057500D01*
X141280000Y-62240000D02*
X146010000Y-62240000D01*
X146010000Y-62240000D02*
X149240000Y-59010000D01*
%TO.N,/O4N*%
X139942500Y-63995000D02*
X140875000Y-63995000D01*
X141910000Y-62960000D02*
X147830000Y-62960000D01*
X140875000Y-63995000D02*
X141910000Y-62960000D01*
X147830000Y-62960000D02*
X149240000Y-61550000D01*
%TO.N,/O4P*%
X139942500Y-64495000D02*
X148835000Y-64495000D01*
X148835000Y-64495000D02*
X149240000Y-64090000D01*
%TO.N,/I4P*%
X138505000Y-62215000D02*
X138980000Y-61740000D01*
X146720000Y-59800000D02*
X146720000Y-58580000D01*
X138505000Y-63057500D02*
X138505000Y-62215000D01*
X144780000Y-61740000D02*
X146720000Y-59800000D01*
X138980000Y-61740000D02*
X144780000Y-61740000D01*
X148830000Y-56470000D02*
X149240000Y-56470000D01*
X146720000Y-58580000D02*
X148830000Y-56470000D01*
%TO.N,/IO7N*%
X145365000Y-64995000D02*
X146990000Y-66620000D01*
X146990000Y-66620000D02*
X149230000Y-66620000D01*
X149230000Y-66620000D02*
X149240000Y-66630000D01*
X139942500Y-64995000D02*
X145365000Y-64995000D01*
%TO.N,/IO7P*%
X139942500Y-65495000D02*
X143225000Y-65495000D01*
X146900000Y-69170000D02*
X149240000Y-69170000D01*
X143225000Y-65495000D02*
X146900000Y-69170000D01*
D27*
%TO.N,Net-(U2-ERRb)*%
X131597500Y-66995000D02*
X131262500Y-67330000D01*
X133067500Y-66995000D02*
X131597500Y-66995000D01*
D28*
%TO.N,Net-(Y2-TRI_STATE)*%
X125141250Y-56680000D02*
X125130000Y-56691250D01*
D29*
X126945000Y-58605000D02*
X126945000Y-59315000D01*
D28*
X126955000Y-59305000D02*
X126945000Y-59315000D01*
D29*
X125207500Y-56820000D02*
X125207500Y-56867500D01*
X125207500Y-56867500D02*
X126945000Y-58605000D01*
%TD*%
M02*
