%TF.GenerationSoftware,KiCad,Pcbnew,9.0.4*%
%TF.CreationDate,2025-10-19T02:38:57-06:00*%
%TF.ProjectId,2025_UNO_FPAA_PROTO_A_v1,32303235-5f55-44e4-9f5f-465041415f50,rev?*%
%TF.SameCoordinates,Original*%
%TF.FileFunction,Soldermask,Top*%
%TF.FilePolarity,Negative*%
%FSLAX46Y46*%
G04 Gerber Fmt 4.6, Leading zero omitted, Abs format (unit mm)*
G04 Created by KiCad (PCBNEW 9.0.4) date 2025-10-19 02:38:57*
%MOMM*%
%LPD*%
G01*
G04 APERTURE LIST*
G04 Aperture macros list*
%AMRoundRect*
0 Rectangle with rounded corners*
0 $1 Rounding radius*
0 $2 $3 $4 $5 $6 $7 $8 $9 X,Y pos of 4 corners*
0 Add a 4 corners polygon primitive as box body*
4,1,4,$2,$3,$4,$5,$6,$7,$8,$9,$2,$3,0*
0 Add four circle primitives for the rounded corners*
1,1,$1+$1,$2,$3*
1,1,$1+$1,$4,$5*
1,1,$1+$1,$6,$7*
1,1,$1+$1,$8,$9*
0 Add four rect primitives between the rounded corners*
20,1,$1+$1,$2,$3,$4,$5,0*
20,1,$1+$1,$4,$5,$6,$7,0*
20,1,$1+$1,$6,$7,$8,$9,0*
20,1,$1+$1,$8,$9,$2,$3,0*%
G04 Aperture macros list end*
%ADD10R,1.700000X1.700000*%
%ADD11O,1.700000X1.700000*%
%ADD12R,0.850000X0.850000*%
%ADD13RoundRect,0.250000X0.475000X-0.250000X0.475000X0.250000X-0.475000X0.250000X-0.475000X-0.250000X0*%
%ADD14C,1.700000*%
%ADD15RoundRect,0.250000X-0.250000X-0.475000X0.250000X-0.475000X0.250000X0.475000X-0.250000X0.475000X0*%
%ADD16RoundRect,0.102000X-0.500000X0.450000X-0.500000X-0.450000X0.500000X-0.450000X0.500000X0.450000X0*%
%ADD17RoundRect,0.062500X0.062500X-0.375000X0.062500X0.375000X-0.062500X0.375000X-0.062500X-0.375000X0*%
%ADD18RoundRect,0.062500X0.375000X-0.062500X0.375000X0.062500X-0.375000X0.062500X-0.375000X-0.062500X0*%
%ADD19R,5.150000X5.150000*%
%ADD20RoundRect,0.250000X-0.262500X-0.450000X0.262500X-0.450000X0.262500X0.450000X-0.262500X0.450000X0*%
%ADD21C,3.200000*%
%ADD22RoundRect,0.102000X1.075000X0.475000X-1.075000X0.475000X-1.075000X-0.475000X1.075000X-0.475000X0*%
%ADD23RoundRect,0.102000X1.075000X1.625000X-1.075000X1.625000X-1.075000X-1.625000X1.075000X-1.625000X0*%
%ADD24RoundRect,0.250000X0.262500X0.450000X-0.262500X0.450000X-0.262500X-0.450000X0.262500X-0.450000X0*%
%ADD25RoundRect,0.250000X-0.475000X0.250000X-0.475000X-0.250000X0.475000X-0.250000X0.475000X0.250000X0*%
G04 APERTURE END LIST*
D10*
%TO.C,J1*%
X127940000Y-97460000D03*
D11*
X130480000Y-97460000D03*
X133020000Y-97460000D03*
X135560000Y-97460000D03*
X138100000Y-97460000D03*
X140640000Y-97460000D03*
X143180000Y-97460000D03*
X145720000Y-97460000D03*
%TD*%
D10*
%TO.C,J3*%
X150800000Y-97460000D03*
D11*
X153340000Y-97460000D03*
X155880000Y-97460000D03*
X158420000Y-97460000D03*
X160960000Y-97460000D03*
X163500000Y-97460000D03*
%TD*%
D10*
%TO.C,J2*%
X118796000Y-49200000D03*
D11*
X121336000Y-49200000D03*
X123876000Y-49200000D03*
X126416000Y-49200000D03*
X128956000Y-49200000D03*
X131496000Y-49200000D03*
X134036000Y-49200000D03*
X136576000Y-49200000D03*
X139116000Y-49200000D03*
X141656000Y-49200000D03*
%TD*%
D10*
%TO.C,J4*%
X145720000Y-49200000D03*
D11*
X148260000Y-49200000D03*
X150800000Y-49200000D03*
X153340000Y-49200000D03*
X155880000Y-49200000D03*
X158420000Y-49200000D03*
X160960000Y-49200000D03*
X163500000Y-49200000D03*
%TD*%
D12*
%TO.C,REF\u002A\u002A203*%
X106140000Y-68060000D03*
%TD*%
%TO.C,REF\u002A\u002A197*%
X111220000Y-62980000D03*
%TD*%
%TO.C,REF\u002A\u002A183*%
X164560000Y-80760000D03*
%TD*%
D13*
%TO.C,C12*%
X131320000Y-60550000D03*
X131320000Y-58650000D03*
%TD*%
D12*
%TO.C,REF\u002A\u002A199*%
X106140000Y-65520000D03*
%TD*%
%TO.C,REF\u002A\u002A40*%
X139160000Y-85840000D03*
%TD*%
D13*
%TO.C,C8*%
X144450000Y-59640000D03*
X144450000Y-57740000D03*
%TD*%
D12*
%TO.C,REF\u002A\u002A5*%
X113760000Y-83300000D03*
%TD*%
%TO.C,REF\u002A\u002A181*%
X159480000Y-80760000D03*
%TD*%
%TO.C,REF\u002A\u002A42*%
X144240000Y-85840000D03*
%TD*%
%TO.C,REF\u002A\u002A174*%
X154400000Y-78220000D03*
%TD*%
%TO.C,REF\u002A\u002A87*%
X131540000Y-90920000D03*
%TD*%
%TO.C,REF\u002A\u002A74*%
X162020000Y-88380000D03*
%TD*%
%TO.C,REF\u002A\u002A95*%
X151860000Y-90920000D03*
%TD*%
%TO.C,REF\u002A\u002A156*%
X159480000Y-68060000D03*
%TD*%
%TO.C,REF\u002A\u002A225*%
X111220000Y-80760000D03*
%TD*%
%TO.C,REF\u002A\u002A222*%
X103600000Y-80760000D03*
%TD*%
D10*
%TO.C,J9*%
X162020000Y-90920000D03*
D14*
X162020000Y-93460000D03*
X159480000Y-90920000D03*
X159480000Y-93460000D03*
X156940000Y-90920000D03*
X156940000Y-93460000D03*
X154400000Y-90920000D03*
X154400000Y-93460000D03*
%TD*%
D12*
%TO.C,REF\u002A\u002A92*%
X144240000Y-90920000D03*
%TD*%
%TO.C,REF\u002A\u002A33*%
X121380000Y-85840000D03*
%TD*%
D15*
%TO.C,C4*%
X139090000Y-72110000D03*
X140990000Y-72110000D03*
%TD*%
D12*
%TO.C,REF\u002A\u002A66*%
X141700000Y-88380000D03*
%TD*%
%TO.C,REF\u002A\u002A28*%
X108680000Y-85840000D03*
%TD*%
%TO.C,REF\u002A\u002A119*%
X149320000Y-93460000D03*
%TD*%
%TO.C,REF\u002A\u002A142*%
X162020000Y-60440000D03*
%TD*%
%TO.C,REF\u002A\u002A64*%
X136620000Y-88380000D03*
%TD*%
%TO.C,REF\u002A\u002A44*%
X149320000Y-85840000D03*
%TD*%
%TO.C,REF\u002A\u002A152*%
X162020000Y-65520000D03*
%TD*%
%TO.C,REF\u002A\u002A93*%
X146780000Y-90920000D03*
%TD*%
%TO.C,REF\u002A\u002A13*%
X134080000Y-83300000D03*
%TD*%
%TO.C,REF\u002A\u002A29*%
X111220000Y-85840000D03*
%TD*%
D10*
%TO.C,J12*%
X145190000Y-79340000D03*
D14*
X142650000Y-79340000D03*
X140110000Y-79340000D03*
X137570000Y-79340000D03*
X135030000Y-79340000D03*
X132490000Y-79340000D03*
X129950000Y-79340000D03*
X127410000Y-79340000D03*
X124870000Y-79340000D03*
X122330000Y-79340000D03*
X119790000Y-79340000D03*
X117250000Y-79340000D03*
%TD*%
D12*
%TO.C,REF\u002A\u002A223*%
X106140000Y-80760000D03*
%TD*%
%TO.C,REF\u002A\u002A81*%
X116300000Y-90920000D03*
%TD*%
%TO.C,REF\u002A\u002A218*%
X103600000Y-78220000D03*
%TD*%
%TO.C,REF\u002A\u002A201*%
X111220000Y-65520000D03*
%TD*%
%TO.C,REF\u002A\u002A204*%
X108680000Y-68060000D03*
%TD*%
%TO.C,REF\u002A\u002A11*%
X129000000Y-83300000D03*
%TD*%
D15*
%TO.C,C9*%
X139090000Y-74240000D03*
X140990000Y-74240000D03*
%TD*%
D12*
%TO.C,REF\u002A\u002A151*%
X159480000Y-65520000D03*
%TD*%
D16*
%TO.C,Y2*%
X126945000Y-59315000D03*
X125320000Y-59315000D03*
X125320000Y-60540000D03*
X126945000Y-60540000D03*
%TD*%
D17*
%TO.C,U2*%
X134005000Y-69932500D03*
X134505000Y-69932500D03*
X135005000Y-69932500D03*
X135505000Y-69932500D03*
X136005000Y-69932500D03*
X136505000Y-69932500D03*
X137005000Y-69932500D03*
X137505000Y-69932500D03*
X138005000Y-69932500D03*
X138505000Y-69932500D03*
X139005000Y-69932500D03*
D18*
X139942500Y-68995000D03*
X139942500Y-68495000D03*
X139942500Y-67995000D03*
X139942500Y-67495000D03*
X139942500Y-66995000D03*
X139942500Y-66495000D03*
X139942500Y-65995000D03*
X139942500Y-65495000D03*
X139942500Y-64995000D03*
X139942500Y-64495000D03*
X139942500Y-63995000D03*
D17*
X139005000Y-63057500D03*
X138505000Y-63057500D03*
X138005000Y-63057500D03*
X137505000Y-63057500D03*
X137005000Y-63057500D03*
X136505000Y-63057500D03*
X136005000Y-63057500D03*
X135505000Y-63057500D03*
X135005000Y-63057500D03*
X134505000Y-63057500D03*
X134005000Y-63057500D03*
D18*
X133067500Y-63995000D03*
X133067500Y-64495000D03*
X133067500Y-64995000D03*
X133067500Y-65495000D03*
X133067500Y-65995000D03*
X133067500Y-66495000D03*
X133067500Y-66995000D03*
X133067500Y-67495000D03*
X133067500Y-67995000D03*
X133067500Y-68495000D03*
X133067500Y-68995000D03*
D19*
X136505000Y-66495000D03*
%TD*%
D12*
%TO.C,REF\u002A\u002A35*%
X126460000Y-85840000D03*
%TD*%
%TO.C,REF\u002A\u002A10*%
X126460000Y-83300000D03*
%TD*%
%TO.C,REF\u002A\u002A110*%
X126460000Y-93460000D03*
%TD*%
%TO.C,REF\u002A\u002A45*%
X151860000Y-85840000D03*
%TD*%
%TO.C,REF\u002A\u002A16*%
X141700000Y-83300000D03*
%TD*%
%TO.C,REF\u002A\u002A172*%
X162020000Y-75680000D03*
%TD*%
%TO.C,REF\u002A\u002A80*%
X113760000Y-90920000D03*
%TD*%
%TO.C,REF\u002A\u002A3*%
X108680000Y-83300000D03*
%TD*%
%TO.C,REF\u002A\u002A215*%
X106140000Y-75680000D03*
%TD*%
%TO.C,REF\u002A\u002A166*%
X159480000Y-73140000D03*
%TD*%
%TO.C,REF\u002A\u002A89*%
X136620000Y-90920000D03*
%TD*%
%TO.C,REF\u002A\u002A182*%
X162020000Y-80760000D03*
%TD*%
%TO.C,REF\u002A\u002A158*%
X164560000Y-68060000D03*
%TD*%
%TO.C,REF\u002A\u002A171*%
X159480000Y-75680000D03*
%TD*%
%TO.C,REF\u002A\u002A150*%
X156940000Y-65520000D03*
%TD*%
%TO.C,REF\u002A\u002A211*%
X106140000Y-73140000D03*
%TD*%
%TO.C,REF\u002A\u002A71*%
X154400000Y-88380000D03*
%TD*%
%TO.C,REF\u002A\u002A164*%
X154400000Y-73140000D03*
%TD*%
%TO.C,REF\u002A\u002A58*%
X121380000Y-88380000D03*
%TD*%
%TO.C,REF\u002A\u002A140*%
X156940000Y-60440000D03*
%TD*%
%TO.C,REF\u002A\u002A65*%
X139160000Y-88380000D03*
%TD*%
%TO.C,REF\u002A\u002A20*%
X151860000Y-83300000D03*
%TD*%
%TO.C,REF\u002A\u002A85*%
X126460000Y-90920000D03*
%TD*%
D13*
%TO.C,C14*%
X140050000Y-59660000D03*
X140050000Y-57760000D03*
%TD*%
D12*
%TO.C,REF\u002A\u002A105*%
X113760000Y-93460000D03*
%TD*%
%TO.C,REF\u002A\u002A118*%
X146780000Y-93460000D03*
%TD*%
%TO.C,REF\u002A\u002A7*%
X118840000Y-83300000D03*
%TD*%
%TO.C,REF\u002A\u002A159*%
X154400000Y-70600000D03*
%TD*%
%TO.C,REF\u002A\u002A68*%
X146780000Y-88380000D03*
%TD*%
%TO.C,REF\u002A\u002A6*%
X116300000Y-83300000D03*
%TD*%
%TO.C,REF\u002A\u002A75*%
X164560000Y-88380000D03*
%TD*%
%TO.C,REF\u002A\u002A162*%
X162020000Y-70600000D03*
%TD*%
D20*
%TO.C,R2*%
X125207500Y-56820000D03*
X127032500Y-56820000D03*
%TD*%
D12*
%TO.C,REF\u002A\u002A170*%
X156940000Y-75680000D03*
%TD*%
%TO.C,REF\u002A\u002A67*%
X144240000Y-88380000D03*
%TD*%
%TO.C,REF\u002A\u002A167*%
X162020000Y-73140000D03*
%TD*%
%TO.C,REF\u002A\u002A37*%
X131540000Y-85840000D03*
%TD*%
%TO.C,REF\u002A\u002A216*%
X108680000Y-75680000D03*
%TD*%
%TO.C,REF\u002A\u002A63*%
X134080000Y-88380000D03*
%TD*%
%TO.C,REF\u002A\u002A51*%
X103600000Y-88380000D03*
%TD*%
%TO.C,REF\u002A\u002A70*%
X151860000Y-88380000D03*
%TD*%
D21*
%TO.C,MH1*%
X115240000Y-49200000D03*
%TD*%
D12*
%TO.C,REF\u002A\u002A149*%
X154400000Y-65520000D03*
%TD*%
D13*
%TO.C,C5*%
X142290000Y-59640000D03*
X142290000Y-57740000D03*
%TD*%
D12*
%TO.C,REF\u002A\u002A14*%
X136620000Y-83300000D03*
%TD*%
%TO.C,REF\u002A\u002A177*%
X162020000Y-78220000D03*
%TD*%
D13*
%TO.C,C7*%
X131020000Y-64910000D03*
X131020000Y-63010000D03*
%TD*%
D12*
%TO.C,REF\u002A\u002A50*%
X164560000Y-85840000D03*
%TD*%
%TO.C,REF\u002A\u002A12*%
X131540000Y-83300000D03*
%TD*%
%TO.C,REF\u002A\u002A88*%
X134080000Y-90920000D03*
%TD*%
%TO.C,REF\u002A\u002A91*%
X141700000Y-90920000D03*
%TD*%
%TO.C,REF\u002A\u002A15*%
X139160000Y-83300000D03*
%TD*%
%TO.C,REF\u002A\u002A176*%
X159480000Y-78220000D03*
%TD*%
%TO.C,REF\u002A\u002A139*%
X154400000Y-60440000D03*
%TD*%
%TO.C,REF\u002A\u002A173*%
X164560000Y-75680000D03*
%TD*%
%TO.C,REF\u002A\u002A31*%
X116300000Y-85840000D03*
%TD*%
%TO.C,REF\u002A\u002A141*%
X159480000Y-60440000D03*
%TD*%
%TO.C,REF\u002A\u002A73*%
X159480000Y-88380000D03*
%TD*%
%TO.C,REF\u002A\u002A25*%
X164560000Y-83300000D03*
%TD*%
D22*
%TO.C,U3*%
X120430000Y-63130000D03*
X120430000Y-60830000D03*
X120430000Y-58530000D03*
D23*
X114630000Y-60830000D03*
%TD*%
D12*
%TO.C,REF\u002A\u002A38*%
X134080000Y-85840000D03*
%TD*%
%TO.C,REF\u002A\u002A17*%
X144240000Y-83300000D03*
%TD*%
D10*
%TO.C,J6*%
X103600000Y-60440000D03*
D14*
X103600000Y-57900000D03*
X106140000Y-60440000D03*
X106140000Y-57900000D03*
X108680000Y-60440000D03*
X108680000Y-57900000D03*
X111220000Y-60440000D03*
X111220000Y-57900000D03*
%TD*%
D12*
%TO.C,REF\u002A\u002A21*%
X154400000Y-83300000D03*
%TD*%
%TO.C,REF\u002A\u002A39*%
X136620000Y-85840000D03*
%TD*%
%TO.C,REF\u002A\u002A179*%
X154400000Y-80760000D03*
%TD*%
%TO.C,REF\u002A\u002A59*%
X123920000Y-88380000D03*
%TD*%
%TO.C,REF\u002A\u002A106*%
X116300000Y-93460000D03*
%TD*%
%TO.C,REF\u002A\u002A8*%
X121380000Y-83300000D03*
%TD*%
%TO.C,REF\u002A\u002A84*%
X123920000Y-90920000D03*
%TD*%
%TO.C,REF\u002A\u002A180*%
X156940000Y-80760000D03*
%TD*%
%TO.C,REF\u002A\u002A208*%
X108680000Y-70600000D03*
%TD*%
%TO.C,REF\u002A\u002A30*%
X113760000Y-85840000D03*
%TD*%
%TO.C,REF\u002A\u002A9*%
X123920000Y-83300000D03*
%TD*%
%TO.C,REF\u002A\u002A72*%
X156940000Y-88380000D03*
%TD*%
D13*
%TO.C,C11*%
X137930000Y-59660000D03*
X137930000Y-57760000D03*
%TD*%
D12*
%TO.C,REF\u002A\u002A114*%
X136620000Y-93460000D03*
%TD*%
%TO.C,REF\u002A\u002A109*%
X123920000Y-93460000D03*
%TD*%
%TO.C,REF\u002A\u002A115*%
X139160000Y-93460000D03*
%TD*%
%TO.C,REF\u002A\u002A198*%
X103600000Y-65520000D03*
%TD*%
%TO.C,REF\u002A\u002A60*%
X126460000Y-88380000D03*
%TD*%
%TO.C,REF\u002A\u002A2*%
X106140000Y-83300000D03*
%TD*%
%TO.C,REF\u002A\u002A18*%
X146780000Y-83300000D03*
%TD*%
%TO.C,REF\u002A\u002A213*%
X111220000Y-73140000D03*
%TD*%
%TO.C,REF\u002A\u002A224*%
X108680000Y-80760000D03*
%TD*%
%TO.C,REF\u002A\u002A61*%
X129000000Y-88380000D03*
%TD*%
%TO.C,REF\u002A\u002A147*%
X162020000Y-62980000D03*
%TD*%
%TO.C,REF\u002A\u002A117*%
X144240000Y-93460000D03*
%TD*%
%TO.C,REF\u002A\u002A189*%
X154400000Y-85840000D03*
%TD*%
%TO.C,REF\u002A\u002A83*%
X121380000Y-90920000D03*
%TD*%
%TO.C,REF\u002A\u002A23*%
X159480000Y-83300000D03*
%TD*%
%TO.C,REF\u002A\u002A214*%
X103600000Y-75680000D03*
%TD*%
D24*
%TO.C,R3*%
X131262500Y-67330000D03*
X129437500Y-67330000D03*
%TD*%
D12*
%TO.C,REF\u002A\u002A175*%
X156940000Y-78220000D03*
%TD*%
%TO.C,REF\u002A\u002A206*%
X103600000Y-70600000D03*
%TD*%
D10*
%TO.C,J7*%
X154400000Y-57900000D03*
D14*
X154400000Y-55360000D03*
X156940000Y-57900000D03*
X156940000Y-55360000D03*
X159480000Y-57900000D03*
X159480000Y-55360000D03*
X162020000Y-57900000D03*
X162020000Y-55360000D03*
%TD*%
D12*
%TO.C,REF\u002A\u002A108*%
X121380000Y-93460000D03*
%TD*%
%TO.C,REF\u002A\u002A86*%
X129000000Y-90920000D03*
%TD*%
%TO.C,REF\u002A\u002A32*%
X118840000Y-85840000D03*
%TD*%
%TO.C,REF\u002A\u002A41*%
X141700000Y-85840000D03*
%TD*%
%TO.C,REF\u002A\u002A82*%
X118840000Y-90920000D03*
%TD*%
%TO.C,REF\u002A\u002A4*%
X111220000Y-83300000D03*
%TD*%
%TO.C,REF\u002A\u002A161*%
X159480000Y-70600000D03*
%TD*%
%TO.C,REF\u002A\u002A111*%
X129000000Y-93460000D03*
%TD*%
%TO.C,REF\u002A\u002A34*%
X123920000Y-85840000D03*
%TD*%
%TO.C,REF\u002A\u002A194*%
X103600000Y-62980000D03*
%TD*%
%TO.C,REF\u002A\u002A196*%
X108680000Y-62980000D03*
%TD*%
%TO.C,REF\u002A\u002A112*%
X131540000Y-93460000D03*
%TD*%
%TO.C,REF\u002A\u002A217*%
X111220000Y-75680000D03*
%TD*%
%TO.C,REF\u002A\u002A26*%
X103600000Y-85840000D03*
%TD*%
%TO.C,REF\u002A\u002A94*%
X149320000Y-90920000D03*
%TD*%
%TO.C,REF\u002A\u002A209*%
X111220000Y-70600000D03*
%TD*%
%TO.C,REF\u002A\u002A157*%
X162020000Y-68060000D03*
%TD*%
D13*
%TO.C,C10*%
X135790000Y-59660000D03*
X135790000Y-57760000D03*
%TD*%
D12*
%TO.C,REF\u002A\u002A169*%
X154400000Y-75680000D03*
%TD*%
%TO.C,REF\u002A\u002A210*%
X103600000Y-73140000D03*
%TD*%
%TO.C,REF\u002A\u002A1*%
X103600000Y-83300000D03*
%TD*%
%TO.C,REF\u002A\u002A200*%
X108680000Y-65520000D03*
%TD*%
%TO.C,REF\u002A\u002A219*%
X106140000Y-78220000D03*
%TD*%
%TO.C,REF\u002A\u002A19*%
X149320000Y-83300000D03*
%TD*%
%TO.C,REF\u002A\u002A220*%
X108680000Y-78220000D03*
%TD*%
%TO.C,REF\u002A\u002A120*%
X151860000Y-93460000D03*
%TD*%
%TO.C,REF\u002A\u002A212*%
X108680000Y-73140000D03*
%TD*%
%TO.C,REF\u002A\u002A143*%
X164560000Y-60440000D03*
%TD*%
%TO.C,REF\u002A\u002A178*%
X164560000Y-78220000D03*
%TD*%
%TO.C,REF\u002A\u002A52*%
X106140000Y-88380000D03*
%TD*%
%TO.C,REF\u002A\u002A155*%
X156940000Y-68060000D03*
%TD*%
%TO.C,REF\u002A\u002A27*%
X106140000Y-85840000D03*
%TD*%
%TO.C,REF\u002A\u002A144*%
X154400000Y-62980000D03*
%TD*%
%TO.C,REF\u002A\u002A116*%
X141700000Y-93460000D03*
%TD*%
%TO.C,REF\u002A\u002A205*%
X111220000Y-68060000D03*
%TD*%
%TO.C,REF\u002A\u002A160*%
X156940000Y-70600000D03*
%TD*%
D10*
%TO.C,J5*%
X149240000Y-79330000D03*
D14*
X149240000Y-76790000D03*
X149240000Y-74250000D03*
X149240000Y-71710000D03*
X149240000Y-69170000D03*
X149240000Y-66630000D03*
X149240000Y-64090000D03*
X149240000Y-61550000D03*
X149240000Y-59010000D03*
X149240000Y-56470000D03*
%TD*%
D12*
%TO.C,REF\u002A\u002A163*%
X164560000Y-70600000D03*
%TD*%
%TO.C,REF\u002A\u002A24*%
X162020000Y-83300000D03*
%TD*%
%TO.C,REF\u002A\u002A145*%
X156940000Y-62980000D03*
%TD*%
%TO.C,REF\u002A\u002A221*%
X111220000Y-78220000D03*
%TD*%
%TO.C,REF\u002A\u002A22*%
X156940000Y-83300000D03*
%TD*%
D10*
%TO.C,J8*%
X103600000Y-93460000D03*
D14*
X103600000Y-90920000D03*
X106140000Y-93460000D03*
X106140000Y-90920000D03*
X108680000Y-93460000D03*
X108680000Y-90920000D03*
X111220000Y-93460000D03*
X111220000Y-90920000D03*
%TD*%
D12*
%TO.C,REF\u002A\u002A62*%
X131540000Y-88380000D03*
%TD*%
%TO.C,REF\u002A\u002A113*%
X134080000Y-93460000D03*
%TD*%
%TO.C,REF\u002A\u002A202*%
X103600000Y-68060000D03*
%TD*%
%TO.C,REF\u002A\u002A165*%
X156940000Y-73140000D03*
%TD*%
D21*
%TO.C,MH2*%
X113970000Y-97460000D03*
%TD*%
D12*
%TO.C,REF\u002A\u002A168*%
X164560000Y-73140000D03*
%TD*%
%TO.C,REF\u002A\u002A54*%
X111220000Y-88380000D03*
%TD*%
%TO.C,REF\u002A\u002A107*%
X118840000Y-93460000D03*
%TD*%
%TO.C,REF\u002A\u002A56*%
X116300000Y-88380000D03*
%TD*%
D13*
%TO.C,C6*%
X128830000Y-64860000D03*
X128830000Y-62960000D03*
%TD*%
D12*
%TO.C,REF\u002A\u002A69*%
X149320000Y-88380000D03*
%TD*%
D21*
%TO.C,MH3*%
X166040000Y-64440000D03*
%TD*%
D12*
%TO.C,REF\u002A\u002A48*%
X159480000Y-85840000D03*
%TD*%
D21*
%TO.C,MH4*%
X166040000Y-92380000D03*
%TD*%
D12*
%TO.C,REF\u002A\u002A43*%
X146780000Y-85840000D03*
%TD*%
D13*
%TO.C,C13*%
X129070000Y-60520000D03*
X129070000Y-58620000D03*
%TD*%
D12*
%TO.C,REF\u002A\u002A195*%
X106140000Y-62980000D03*
%TD*%
D25*
%TO.C,C2*%
X114190000Y-63950000D03*
X114190000Y-65850000D03*
%TD*%
D12*
%TO.C,REF\u002A\u002A36*%
X129000000Y-85840000D03*
%TD*%
%TO.C,REF\u002A\u002A53*%
X108680000Y-88380000D03*
%TD*%
%TO.C,REF\u002A\u002A57*%
X118840000Y-88380000D03*
%TD*%
%TO.C,REF\u002A\u002A55*%
X113760000Y-88380000D03*
%TD*%
%TO.C,REF\u002A\u002A90*%
X139160000Y-90920000D03*
%TD*%
%TO.C,REF\u002A\u002A154*%
X154400000Y-68060000D03*
%TD*%
D15*
%TO.C,C1*%
X120355000Y-56100000D03*
X122255000Y-56100000D03*
%TD*%
D12*
%TO.C,REF\u002A\u002A49*%
X162020000Y-85840000D03*
%TD*%
%TO.C,REF\u002A\u002A146*%
X159480000Y-62980000D03*
%TD*%
%TO.C,REF\u002A\u002A207*%
X106140000Y-70600000D03*
%TD*%
%TO.C,REF\u002A\u002A47*%
X156940000Y-85840000D03*
%TD*%
M02*
